<svg xmlns="http://www.w3.org/2000/svg" xmlns:svg="http://www.w3.org/2000/svg" xmlns:xlink="http://www.w3.org/1999/xlink" id="svg49872" width="10mm" height="10mm" version="1.1" viewBox="0 0 10 10"><defs id="defs49866"><linearGradient id="linearGradient842"><stop style="stop-color:#fff;stop-opacity:.624" id="stop838" offset="0"/><stop style="stop-color:#c3c3c3;stop-opacity:0" id="stop840" offset="1"/></linearGradient><clipPath id="clip12"><path id="path28860" d="m 143,129.75 h 3 V 158 h -3 z m 0,0"/></clipPath><clipPath id="clip11"><path id="path28857" d="m 117.39453,129.75 h 54 v 54.00391 h -54 z m 0,0"/></clipPath><clipPath id="clip150"><path id="path29465" d="m 176,208.92578 h 2 V 228 h -2 z m 0,0"/></clipPath><clipPath id="clip149"><path id="path29462" d="m 159.27734,208.92578 h 36 v 36 h -36 z m 0,0"/></clipPath><clipPath id="clip142"><path id="path29320" d="m 110,208.92578 h 3 V 228 h -3 z m 0,0"/></clipPath><clipPath id="clip141"><path id="path29317" d="m 93.511719,208.92578 h 36.000001 v 36 H 93.511719 Z m 0,0"/></clipPath><radialGradient id="radialGradient844" cx="5" cy="5" r="4.609" fx="5" fy="5" gradientTransform="matrix(1.4734744,-0.00117444,0.0012697,1.5929787,-2.3737204,-2.9590214)" gradientUnits="userSpaceOnUse" xlink:href="#linearGradient842"/></defs><metadata id="metadata49869"/><path id="paath31010907" d="M 5.0245412,0.3570291 A 4.6430825,4.6429898 44.8907 0 1 9.6429719,5.0244727 4.6430825,4.6429898 44.8907 0 1 4.9757805,9.6429721 4.6430825,4.6429898 44.8907 0 1 0.35702592,4.9758486 4.6430825,4.6429898 44.8907 0 1 5.0238977,0.35702573" style="opacity:1;fill:#2a5775;fill-opacity:1;fill-rule:evenodd;stroke:#000;stroke-width:.71399998;stroke-linecap:butt;stroke-linejoin:round;stroke-miterlimit:4;stroke-dasharray:none;stroke-dashoffset:0;stroke-opacity:1"/><path id="path832" d="m 4.9999999,0.73123204 v 4.46265326 0" style="fill:none;fill-rule:evenodd;stroke:#fcfcfc;stroke-width:.65122831;stroke-linecap:butt;stroke-linejoin:miter;stroke-miterlimit:4;stroke-dasharray:none;stroke-opacity:1"/><path style="opacity:1;fill:none;fill-opacity:1;fill-rule:nonzero;stroke:url(#radialGradient844);stroke-width:.31799999;stroke-linecap:square;stroke-linejoin:round;stroke-miterlimit:6.0999999;stroke-dasharray:none;stroke-dashoffset:0;stroke-opacity:.98222219" id="path826" d="M 9.4499998,5 A 4.4499998,4.4499998 0 0 1 5,9.4499998 4.4499998,4.4499998 0 0 1 0.55000019,5 4.4499998,4.4499998 0 0 1 5,0.55000019 4.4499998,4.4499998 0 0 1 9.4499998,5 Z"/></svg>