<svg xmlns="http://www.w3.org/2000/svg" xmlns:svg="http://www.w3.org/2000/svg" id="svg12484" width="16" height="16" version="1.1" viewBox="0 0 4.233 4.233"><metadata id="metadata12481"/><g id="layer1" transform="translate(-87.43441,-107.81369)"><g id="g12430" transform="matrix(0.27270608,0,0,-0.27270608,12.503198,432.85055)" style="stroke-width:1.29361904"><path style="opacity:1;fill:#80db17;fill-opacity:1;fill-rule:nonzero;stroke:#ff0202;stroke-width:0;stroke-linecap:square;stroke-linejoin:round;stroke-miterlimit:0;stroke-dasharray:none;stroke-dashoffset:0;stroke-opacity:1" id="rect4528" d="m 274.76913,-1191.8945 h 15.52343 v 15.5234 h -15.52343 z" transform="scale(1,-1)"/><path style="opacity:1;fill:none;fill-opacity:1;fill-rule:nonzero;stroke:#000;stroke-width:1.08908463;stroke-linecap:square;stroke-linejoin:miter;stroke-miterlimit:6.0999999;stroke-dasharray:none;stroke-dashoffset:0;stroke-opacity:1" id="rect819" d="m 275.31369,-1191.3499 h 14.43433 v 14.4344 h -14.43433 z" transform="scale(1,-1)"/><g style="font-style:normal;font-variant:normal;font-weight:400;font-stretch:normal;font-size:10.34895229px;line-height:125%;font-family:'DejaVu Sans Mono';-inkscape-font-specification:'DejaVu Sans Mono, Normal';font-variant-ligatures:normal;font-variant-caps:normal;font-variant-numeric:normal;font-feature-settings:normal;text-align:start;letter-spacing:0;word-spacing:0;writing-mode:lr-tb;text-anchor:start;fill:#000;fill-opacity:1;stroke:none;stroke-width:.97021431px;stroke-linecap:butt;stroke-linejoin:miter;stroke-opacity:1" id="text853" aria-label="S" transform="scale(1,-1)"><path style="stroke-width:.97021431px" id="path855" d="m 284.51926,-1187.6523 v 1.0359 q -0.46489,-0.2981 -0.93484,-0.4497 -0.46489,-0.1516 -0.93989,-0.1516 -0.72261,0 -1.14203,0.3385 -0.41941,0.3335 -0.41941,0.9045 0,0.5003 0.27287,0.7631 0.27793,0.2627 1.03085,0.4396 l 0.53564,0.1213 q 1.06117,0.2476 1.54628,0.7782 0.48511,0.5306 0.48511,1.4452 0,1.0763 -0.66702,1.6423 -0.66703,0.5659 -1.94043,0.5659 -0.53059,0 -1.06623,-0.1162 -0.53564,-0.1112 -1.07633,-0.3385 v -1.0865 q 0.58112,0.3689 1.09655,0.5407 0.52048,0.1718 1.04601,0.1718 0.77314,0 1.20266,-0.3436 0.42952,-0.3487 0.42952,-0.9702 0,-0.566 -0.29814,-0.8641 -0.29308,-0.2982 -1.0258,-0.4599 l -0.54574,-0.1263 q -1.05107,-0.2375 -1.52607,-0.7175 -0.475,-0.4801 -0.475,-1.2886 0,-1.0106 0.67713,-1.617 0.68218,-0.6115 1.80904,-0.6115 0.43458,0 0.91463,0.1011 0.48006,0.096 1.01064,0.2931 z"/></g></g></g></svg>