<svg xmlns="http://www.w3.org/2000/svg" xmlns:svg="http://www.w3.org/2000/svg" id="svg113936" width="98.268" height="98.272" version="1.1" viewBox="0 0 26 26.001"><metadata id="metadata113933"/><g id="layer1" transform="translate(-80.833177,-85.089003)"><path style="fill:#d4d4d4;fill-opacity:1;fill-rule:nonzero;stroke:none;stroke-width:.2879144" id="path109718" d="m 106.83318,98.089007 c 0,7.179863 -5.82014,13.001143 -13.000007,13.001143 -7.179864,0 -12.999996,-5.82128 -12.999996,-13.001143 0,-7.178735 5.820132,-13.000004 12.999996,-13.000004 7.179867,0 13.000007,5.821269 13.000007,13.000004"/><path style="fill:#000;fill-opacity:1;fill-rule:nonzero;stroke:none;stroke-width:.2879144" id="path109724" d="m 94.2909,98.090134 h -0.91433 v -9.861065 h 0.91433 z m 0,0"/><path id="path819" d="m 103.75506,98.089145 c 0,5.479585 -4.44206,9.922305 -9.921885,9.922305 -5.479825,0 -9.921873,-4.44272 -9.921873,-9.922305 0,-5.478723 4.442048,-9.921443 9.921873,-9.921443 5.479825,0 9.921885,4.442721 9.921885,9.921443" style="fill:#a1a1a1;fill-opacity:1;fill-rule:nonzero;stroke:none;stroke-width:.21973754"/><path style="opacity:1;fill:#000;fill-opacity:1;stroke:none;stroke-width:.2;stroke-miterlimit:4;stroke-dasharray:none;stroke-opacity:1" id="path825" d="m 83.573503,84.395579 -0.951499,-0.510075 -0.959607,0.494654 0.19108,-1.062552 -0.766978,-0.759784 1.069594,-0.146618 0.485588,-0.964226 0.469965,0.971937 1.067088,0.163859 -0.779139,0.747308 z" transform="matrix(0.72978789,0.19554608,-0.18831669,0.70280744,52.079385,12.50671)"/></g></svg>