<svg xmlns="http://www.w3.org/2000/svg" xmlns:osb="http://www.openswatchbook.org/uri/2009/osb" xmlns:svg="http://www.w3.org/2000/svg" id="svg8" width="50" height="22" version="1.1" viewBox="0 0 13.229 5.821"><defs id="defs2"><marker id="Arrow1Lstart" orient="auto" refX="0" refY="0" style="overflow:visible"><path id="path5976" d="M 0,0 5,-5 -12.5,0 5,5 Z" transform="matrix(0.8,0,0,0.8,10,0)" style="fill:#000;fill-opacity:1;fill-rule:evenodd;stroke:#000;stroke-width:1.00000003pt;stroke-opacity:1"/></marker><linearGradient id="linearGradient5929" osb:paint="solid"><stop style="stop-color:#88c8ff;stop-opacity:1" id="stop5927" offset="0"/></linearGradient><linearGradient id="linearGradient4489" osb:paint="solid"><stop style="stop-color:#88c8ff;stop-opacity:1" id="stop4487" offset="0"/></linearGradient></defs><metadata id="metadata5"/><g id="layer1" transform="translate(0,-291.17916)"><path style="fill:#c8fafa;fill-opacity:1;fill-rule:nonzero;stroke:none;stroke-width:.26458323;stroke-linejoin:miter;stroke-miterlimit:2;stroke-dasharray:none;stroke-dashoffset:0;stroke-opacity:.70588235" id="rect4485" d="M 0.83893154,291.17918 H 12.390231 c 0.46476,0 0.838935,0.1868 0.838935,0.41879 v 4.98321 c 0,0.23204 -0.374175,0.41883 -0.838935,0.41883 H 0.83893154 C 0.37418919,297.00001 0,296.81322 0,296.58118 v -4.98321 c 0,-0.23199 0.37418919,-0.41879 0.83893154,-0.41879 z"/><path style="fill:#dcdcdc;fill-opacity:1;fill-rule:nonzero;stroke:none;stroke-width:.26458317;stroke-linejoin:miter;stroke-miterlimit:2;stroke-dasharray:none;stroke-dashoffset:0;stroke-opacity:.70588235" id="rect4485-1" d="M 1.0699533,291.44375 H 12.159204 c 0.44617,0 0.805379,0.16981 0.805379,0.38069 v 4.53017 c 0,0.211 -0.359209,0.38081 -0.805379,0.38081 H 1.0699533 c -0.446149,0 -0.80536995,-0.16981 -0.80536995,-0.38081 v -4.53017 c 0,-0.21088 0.35922095,-0.38069 0.80536995,-0.38069 z"/><text style="font-style:normal;font-weight:400;font-size:10.58333302px;line-height:1.25;font-family:sans-serif;letter-spacing:0;word-spacing:0;fill:#4d4d4d;fill-opacity:1;stroke:none;stroke-width:.26458332" id="text4498" x="2.566" y="295.584" xml:space="preserve"><tspan id="tspan4496" x="2.566" y="295.584" style="font-style:normal;font-variant:normal;font-weight:400;font-stretch:normal;font-size:4.23333311px;font-family:'DestructoBeam BB';-inkscape-font-specification:'DestructoBeam BB';stroke-width:.26458332;fill:#4d4d4d">RUN</tspan></text></g></svg>