<svg xmlns="http://www.w3.org/2000/svg" xmlns:osb="http://www.openswatchbook.org/uri/2009/osb" xmlns:svg="http://www.w3.org/2000/svg" id="svg8" width="50" height="50" version="1.1" viewBox="0 0 13.229 13.229"><defs id="defs2"><marker id="Arrow1Lstart" orient="auto" refX="0" refY="0" style="overflow:visible"><path id="path5976" d="M 0,0 5,-5 -12.5,0 5,5 Z" transform="matrix(0.8,0,0,0.8,10,0)" style="fill:#000;fill-opacity:1;fill-rule:evenodd;stroke:#000;stroke-width:1.00000003pt;stroke-opacity:1"/></marker><linearGradient id="linearGradient5929" osb:paint="solid"><stop style="stop-color:#88c8ff;stop-opacity:1" id="stop5927" offset="0"/></linearGradient><linearGradient id="linearGradient4489" osb:paint="solid"><stop style="stop-color:#88c8ff;stop-opacity:1" id="stop4487" offset="0"/></linearGradient></defs><metadata id="metadata5"/><g id="layer1" transform="translate(0,-283.77083)"><path style="fill:#c8c8c8;fill-opacity:1;fill-rule:nonzero;stroke:none;stroke-width:.26458323;stroke-linejoin:miter;stroke-miterlimit:2;stroke-dasharray:none;stroke-dashoffset:0;stroke-opacity:.70588235" id="rect4485" d="M 0.83893154,283.77085 H 12.390231 c 0.46476,0 0.838935,0.42455 0.838935,0.95181 v 11.32546 c 0,0.52737 -0.374175,0.95189 -0.838935,0.95189 H 0.83893154 C 0.37418919,297.00001 0,296.57549 0,296.04812 v -11.32546 c 0,-0.52726 0.37418919,-0.95181 0.83893154,-0.95181 z"/><path style="fill:#dcdcdc;fill-opacity:1;fill-rule:nonzero;stroke:none;stroke-width:.26458317;stroke-linejoin:miter;stroke-miterlimit:2;stroke-dasharray:none;stroke-dashoffset:0;stroke-opacity:.70588235" id="rect4485-1" d="M 1.0699533,284.03542 H 12.159204 c 0.44617,0 0.805379,0.40753 0.805379,0.91364 v 10.87241 c 0,0.50641 -0.359209,0.91395 -0.805379,0.91395 H 1.0699533 c -0.446149,0 -0.80536995,-0.40754 -0.80536995,-0.91395 v -10.87241 c 0,-0.50611 0.35922095,-0.91364 0.80536995,-0.91364 z"/></g></svg>