<svg xmlns="http://www.w3.org/2000/svg" xmlns:osb="http://www.openswatchbook.org/uri/2009/osb" xmlns:svg="http://www.w3.org/2000/svg" id="svg8" width="50" height="22" version="1.1" viewBox="0 0 13.229 5.821"><defs id="defs2"><marker id="Arrow1Lstart" orient="auto" refX="0" refY="0" style="overflow:visible"><path id="path5976" d="M 0,0 5,-5 -12.5,0 5,5 Z" transform="matrix(0.8,0,0,0.8,10,0)" style="fill:#000;fill-opacity:1;fill-rule:evenodd;stroke:#000;stroke-width:1.00000003pt;stroke-opacity:1"/></marker><linearGradient id="linearGradient5929" osb:paint="solid"><stop style="stop-color:#88c8ff;stop-opacity:1" id="stop5927" offset="0"/></linearGradient><linearGradient id="linearGradient4489" osb:paint="solid"><stop style="stop-color:#88c8ff;stop-opacity:1" id="stop4487" offset="0"/></linearGradient></defs><metadata id="metadata5"/><g id="layer1" transform="translate(0,-291.17916)"><path style="fill:#4d4d4d;fill-opacity:1;fill-rule:nonzero;stroke:none;stroke-width:.26458323;stroke-linejoin:miter;stroke-miterlimit:2;stroke-dasharray:none;stroke-dashoffset:0;stroke-opacity:.70588235" id="rect4485" d="M 0.83893154,291.17918 H 12.390231 c 0.46476,0 0.838935,0.1868 0.838935,0.41879 v 4.98321 c 0,0.23204 -0.374175,0.41883 -0.838935,0.41883 H 0.83893154 C 0.37418919,297.00001 0,296.81322 0,296.58118 v -4.98321 c 0,-0.23199 0.37418919,-0.41879 0.83893154,-0.41879 z"/><path style="fill:#c8c8c8;fill-opacity:1;fill-rule:nonzero;stroke:none;stroke-width:.26458317;stroke-linejoin:miter;stroke-miterlimit:2;stroke-dasharray:none;stroke-dashoffset:0;stroke-opacity:.70588235" id="rect4485-1" d="M 1.0699533,291.44375 H 12.159204 c 0.44617,0 0.805379,0.16981 0.805379,0.38069 v 4.53017 c 0,0.211 -0.359209,0.38081 -0.805379,0.38081 H 1.0699533 c -0.446149,0 -0.80536995,-0.16981 -0.80536995,-0.38081 v -4.53017 c 0,-0.21088 0.35922095,-0.38069 0.80536995,-0.38069 z"/><g style="font-style:normal;font-weight:400;font-size:10.58333302px;line-height:1.25;font-family:sans-serif;letter-spacing:0;word-spacing:0;fill:#4d4d4d;fill-opacity:1;stroke:none;stroke-width:.26458332" id="text4498" aria-label="RUN &gt;"><path style="font-style:normal;font-variant:normal;font-weight:400;font-stretch:normal;font-size:4.23333311px;font-family:'DestructoBeam BB';-inkscape-font-specification:'DestructoBeam BB';fill:#4d4d4d;stroke-width:.26458332" id="path4524" d="m 3.6717224,293.36991 q 0,0.1524 -0.1100666,0.26247 -0.1058333,0.10583 -0.2582333,0.10583 -0.0762,0 -0.2286,-0.004 -0.1524,-0.004 -0.2286,-0.004 -0.3048,0 -0.3048,0.0381 0,0.0296 0.046567,0.0974 l 1.0456332,1.46897 q 0.033867,0.0466 0.033867,0.0931 0,0.0593 -0.0635,0.11007 -0.059267,0.0508 -0.1185333,0.0508 -0.067733,0 -0.1143,-0.0677 l -1.2234333,-1.7145 q -0.067733,-0.0931 -0.067733,-0.16934 0,-0.21166 0.2963333,-0.21166 h 0.9313333 q 0.0254,0 0.046567,-0.0381 v -0.41064 q 0,-0.0593 -0.055033,-0.0593 H 1.6735892 q -0.1481666,0 -0.1481666,0.14393 v 1.143 q 0,0.072 0.1185333,0.16087 0.1227666,0.0847 0.1227666,0.27516 v 0.6858 q 0,0.1778 -0.093133,0.22437 -0.055033,0.0254 -0.254,0.0254 -0.2116666,0 -0.2116666,-0.14817 v -2.67546 q 0,-0.1524 0.1481666,-0.1524 h 1.9473333 q 0.1524,0 0.2582333,0.11006 0.1100666,0.11007 0.1100666,0.26247 z"/><path style="font-style:normal;font-variant:normal;font-weight:400;font-stretch:normal;font-size:4.23333311px;font-family:'DestructoBeam BB';-inkscape-font-specification:'DestructoBeam BB';fill:#4d4d4d;stroke-width:.26458332" id="path4526" d="m 6.3254932,294.84735 q 0,0.3048 -0.2201334,0.5207 -0.2159,0.21166 -0.5206999,0.21166 H 4.7887932 q -0.3174999,0 -0.5249333,-0.2159 -0.2074333,-0.22013 -0.2074333,-0.54186 v -2.0701 q 0,-0.16934 0.1566333,-0.16934 0.1566334,0 0.1566334,0.16934 0,0.1651 -0.00423,0.49953 -0.00423,0.33443 -0.00423,0.49953 0,0.47837 0.0127,0.508 0.0127,0.0296 0.080433,0.0762 0.067733,0.0423 0.1016,0.0931 0.0508,0.0804 0.0508,0.21166 0,0.055 -0.00423,0.1651 -0.00423,0.10584 -0.00423,0.16087 0,0.1397 0.0127,0.16933 0.033867,0.11854 0.4826,0.11854 0.0635,0 0.1905,-0.004 0.127,-0.004 0.1905,-0.004 0.2201333,0 0.3767667,-0.1524 0.1566333,-0.15663 0.1566333,-0.37677 v -1.92193 q 0,-0.19473 0.1566333,-0.19473 0.1608667,0 0.1608667,0.2032 z"/><path style="font-style:normal;font-variant:normal;font-weight:400;font-stretch:normal;font-size:4.23333311px;font-family:'DestructoBeam BB';-inkscape-font-specification:'DestructoBeam BB';fill:#4d4d4d;stroke-width:.26458332" id="path4528" d="m 8.8385054,295.41038 q 0,0.1651 -0.1651,0.1651 -0.1651,0 -0.1651,-0.1651 v -0.41063 q 0,-0.12277 -0.071967,-0.20744 l -1.1980333,-1.41816 q -0.055033,-0.0635 -0.0889,-0.0635 -0.00423,0 -0.016933,0.004 -0.033867,0.0296 -0.033867,0.11853 v 0.7366 q 0,0.0974 0.1100667,0.2032 0.1143,0.1016 0.1143,0.27094 v 0.6858 q 0,0.14816 -0.055033,0.19896 -0.055033,0.0508 -0.2032,0.0508 -0.021167,0 -0.067733,-0.004 -0.042333,0 -0.0635,0 -0.1608666,0 -0.1608666,-0.1651 l -0.00423,-1.3208 h 0.00423 v -1.31657 q 0,-0.072 0.046567,-0.11853 0.0508,-0.0466 0.1227667,-0.0466 0.0762,0 0.127,0.0593 l 1.2953999,1.52823 q 0.059267,0.0677 0.0889,0.0677 0.055033,0 0.055033,-0.1016 v -1.38854 q 0,-0.1651 0.1651,-0.1651 0.1651,0 0.1651,0.1651 z"/><path style="font-style:normal;font-variant:normal;font-weight:400;font-stretch:normal;font-size:4.23333311px;font-family:'DestructoBeam BB';-inkscape-font-specification:'DestructoBeam BB';fill:#4d4d4d;stroke-width:.26458332" id="path4530" d="m 12.394902,294.08958 q 0,0.0762 -0.06773,0.14817 l -1.126067,1.24883 q -0.09737,0.11007 -0.1778,0.11007 -0.05503,0 -0.09737,-0.0423 -0.04233,-0.0466 -0.04233,-0.1016 0,-0.0847 0.0889,-0.18203 l 0.982134,-1.0922 q 0.04233,-0.0466 0.04233,-0.0889 0,-0.0466 -0.04233,-0.0931 l -0.982134,-1.0922 q -0.0889,-0.0974 -0.0889,-0.1778 0,-0.055 0.04233,-0.0974 0.04233,-0.0466 0.09313,-0.0466 0.08467,0 0.182033,0.11007 l 1.126067,1.24883 q 0.06773,0.072 0.06773,0.14817 z"/></g></g></svg>