<svg xmlns="http://www.w3.org/2000/svg" xmlns:svg="http://www.w3.org/2000/svg" id="svg111794" width="20" height="20" version="1.1" viewBox="0 0 5.292 5.292"><defs id="defs111788"><marker id="Arrow2Send" orient="auto" refX="0" refY="0" style="overflow:visible"><path id="path1597" d="M 8.7185878,4.0337352 L -2.2072895,0.016013256 L 8.7185884,-4.0017078 C 6.9730900,-1.6296469 6.9831476,1.6157441 8.7185878,4.0337352 z" transform="scale(0.3) rotate(180) translate(-2.3,0)" style="fill-rule:evenodd;stroke-width:.625;stroke-linejoin:round;stroke:gray;stroke-opacity:1;fill:#000;fill-opacity:1"/></marker><marker id="DotL" orient="auto" refX="0" refY="0" style="overflow:visible"><path id="path1625" d="M -2.5,-1.0 C -2.5,1.7600000 -4.7400000,4.0 -7.5,4.0 C -10.260000,4.0 -12.5,1.7600000 -12.5,-1.0 C -12.5,-3.7600000 -10.260000,-6.0 -7.5,-6.0 C -4.7400000,-6.0 -2.5,-3.7600000 -2.5,-1.0 z" transform="scale(0.8) translate(7.4, 1)" style="fill-rule:evenodd;stroke:gray;stroke-width:1pt;stroke-opacity:1;fill:#000;fill-opacity:1"/></marker><marker id="DotM" orient="auto" refX="0" refY="0" style="overflow:visible"><path id="path1628" d="M -2.5,-1.0 C -2.5,1.7600000 -4.7400000,4.0 -7.5,4.0 C -10.260000,4.0 -12.5,1.7600000 -12.5,-1.0 C -12.5,-3.7600000 -10.260000,-6.0 -7.5,-6.0 C -4.7400000,-6.0 -2.5,-3.7600000 -2.5,-1.0 z" transform="scale(0.4) translate(7.4, 1)" style="fill-rule:evenodd;stroke:gray;stroke-width:1pt;stroke-opacity:1;fill:#000;fill-opacity:1"/></marker><marker id="Arrow1Mstart" orient="auto" refX="0" refY="0" style="overflow:visible"><path id="path1570" d="M 0.0,0.0 L 5.0,-5.0 L -12.5,0.0 L 5.0,5.0 L 0.0,0.0 z" transform="scale(0.4) translate(10,0)" style="fill-rule:evenodd;stroke:gray;stroke-width:1pt;stroke-opacity:1;fill:#000;fill-opacity:1"/></marker><marker id="Arrow1Lstart" orient="auto" refX="0" refY="0" style="overflow:visible"><path id="path1564" d="M 0.0,0.0 L 5.0,-5.0 L -12.5,0.0 L 5.0,5.0 L 0.0,0.0 z" transform="scale(0.8) translate(12.5,0)" style="fill-rule:evenodd;stroke:gray;stroke-width:1pt;stroke-opacity:1;fill:#000;fill-opacity:1"/></marker><pattern id="pattern819" width="1.2" height="5" patternTransform="matrix(0.26458333,0,0,0.26458333,170.5802,70.104442)" patternUnits="userSpaceOnUse"><path id="path110600" d="M 1.199811,0.01851969 C 1.0070551,0.00680315 0.80840315,0 0.60298583,0 0.39813543,0 0.1984252,0.00680315 0,0.01851969 V 5.0000164 h 1.2 z m 0,0" style="fill:#fff;fill-opacity:1;fill-rule:evenodd;stroke:none;stroke-width:.8326205"/></pattern></defs><metadata id="metadata111791"/><g id="layer1" transform="translate(-168.09312,-70.104446)" style="display:inline"><path id="path2130-8" d="m 5.2916661,2.6462882 c 0,1.4612474 -1.1841442,2.645378 -2.6453777,2.645378 C 1.1850329,5.2916662 5e-7,4.1075356 5e-7,2.6462882 5e-7,1.8532065 0.34863971,1.1419226 0.90089345,0.65702806 1.3667989,0.24794972 1.9776239,5.2666667e-7 2.6462884,5.2666667e-7 4.1075219,5.2666667e-7 5.2916661,1.184128 5.2916661,2.6462882" transform="translate(168.09312,70.104446)" style="display:inline;fill:#000;fill-opacity:1;fill-rule:nonzero;stroke:#c8c8c8;stroke-width:0;stroke-miterlimit:4;stroke-dasharray:none;stroke-dashoffset:.60580003;stroke-opacity:1"/></g><g id="layer3"><circle id="circle4543" cx="2.646" cy="4.249" r=".364" style="fill:#c8c8c8;fill-opacity:1;fill-rule:nonzero;stroke:#c8c8c8;stroke-width:.29999998;stroke-linejoin:miter;stroke-miterlimit:4;stroke-dasharray:none;stroke-dashoffset:0;stroke-opacity:1"/><circle style="fill:#c8c8c8;fill-opacity:1;fill-rule:nonzero;stroke:#c8c8c8;stroke-width:.29999998;stroke-linejoin:miter;stroke-miterlimit:4;stroke-dasharray:none;stroke-dashoffset:0;stroke-opacity:1" id="circle4545" cx="2.646" cy="1.043" r=".364"/></g></svg>