<svg xmlns="http://www.w3.org/2000/svg" xmlns:svg="http://www.w3.org/2000/svg" id="svg8" width="19.2" height="128.5mm" version="1.1" viewBox="0 0 5.08 128.5"><metadata id="metadata5"/><g id="layer1" transform="translate(0,-168.5)"><rect style="fill:#333;stroke:none;stroke-width:11.33752537;stroke-miterlimit:4;stroke-dasharray:none" id="rect820" width="5.08" height="128.5" x="0" y="168.5"/></g><g id="layer3"><g id="g1293" transform="matrix(0.09049219,0,0,0.09049218,-0.40208228,60.746948)" style="display:inline;opacity:1"><g style="clip-rule:evenodd;fill:#000;fill-rule:evenodd;image-rendering:optimizeQuality;shape-rendering:geometricPrecision;text-rendering:geometricPrecision" id="g922" transform="matrix(0.26666672,0,0,0.26666672,4.2542977,1.457816)"><rect style="fill:#000;stroke:none;stroke-width:.20094904" id="_196666080" width="30.331" height="137.035" x="-39.019" y="105.195" class="fil0 str0" transform="rotate(-45)"/><rect style="fill:#000;stroke:none;stroke-width:.20094904" id="_196664592" width="30.331" height="137.035" x="-188.877" y="-92.371" class="fil2 str1" transform="rotate(-135)"/></g><g style="clip-rule:evenodd;fill-rule:evenodd;image-rendering:optimizeQuality;shape-rendering:geometricPrecision;text-rendering:geometricPrecision" id="g918" transform="matrix(0.26666672,0,0,0.26666672,4.2542977,1.457816)"><circle id="_196670520" cx="105.966" cy="139.7" r="81.849" class="fil0 str0" style="fill:none;stroke:#000;stroke-width:17.19791603;stroke-miterlimit:4;stroke-dasharray:none"/><rect id="rect875" width="40.833" height="14.207" x="85.55" y="39.243" style="opacity:1;fill:#000;stroke:none;stroke-width:0;stroke-miterlimit:4;stroke-dasharray:none"/><rect style="opacity:1;fill:#000;stroke:none;stroke-width:0;stroke-miterlimit:4;stroke-dasharray:none" id="rect881" width="40.833" height="14.207" x="85.55" y="225.95"/><rect style="opacity:1;fill:#000;stroke:none;stroke-width:0;stroke-miterlimit:4;stroke-dasharray:none" id="rect885" width="40.833" height="14.207" x="119.283" y="-206.423" transform="rotate(90)"/><rect id="rect889" width="40.833" height="14.207" x="119.283" y="-19.717" transform="rotate(90)" style="opacity:1;fill:#000;stroke:none;stroke-width:0;stroke-miterlimit:4;stroke-dasharray:none"/><rect id="rect893" width="40.833" height="14.207" x="3.437" y="-274.169" transform="rotate(135)" style="opacity:1;fill:#000;stroke:none;stroke-width:0;stroke-miterlimit:4;stroke-dasharray:none"/><rect style="opacity:1;fill:#000;stroke:none;stroke-width:0;stroke-miterlimit:4;stroke-dasharray:none" id="rect895" width="40.833" height="14.207" x="3.437" y="-87.463" transform="rotate(135)"/><rect id="rect897" width="40.833" height="14.207" x="-195.531" y="63.799" transform="rotate(-135)" style="opacity:1;fill:#000;stroke:none;stroke-width:0;stroke-miterlimit:4;stroke-dasharray:none"/><rect style="opacity:1;fill:#000;stroke:none;stroke-width:0;stroke-miterlimit:4;stroke-dasharray:none" id="rect899" width="40.833" height="14.207" x="-195.531" y="-122.907" transform="rotate(-135)"/></g><g style="clip-rule:evenodd;fill:#000;fill-rule:evenodd;image-rendering:optimizeQuality;shape-rendering:geometricPrecision;text-rendering:geometricPrecision" id="g907" transform="matrix(0.26666672,0,0,0.26666672,3.8261229,1.457816)"><polygon id="_196665264" points="189.431 50.734 171.116 75.726 178.83 75.726 178.747 101.794 200.556 101.754 200.556 75.726 207.953 75.726" class="fil2 str0" style="fill:#000;stroke:#000;stroke-width:.0762"/><polygon id="_196665048" points="189.431 177.606 171.116 202.598 178.83 202.598 178.747 228.666 200.556 228.625 200.556 202.598 207.953 202.598" class="fil0 str2" style="fill:#000;stroke:#fff;stroke-width:.0762"/><polygon id="_196666392" points="189.431 114.17 171.116 139.162 178.83 139.162 178.747 165.23 200.556 165.189 200.556 139.162 207.953 139.162" class="fil1 str1" style="fill:#000;stroke:red;stroke-width:.0762"/></g></g></g></svg>