<svg xmlns="http://www.w3.org/2000/svg" xmlns:svg="http://www.w3.org/2000/svg" id="svg49872" width="8mm" height="8mm" version="1.1" viewBox="0 0 8 8"><defs id="defs49866"><clipPath id="clip12"><path id="path28860" d="m 143,129.75 h 3 V 158 h -3 z m 0,0"/></clipPath><clipPath id="clip11"><path id="path28857" d="m 117.39453,129.75 h 54 v 54.00391 h -54 z m 0,0"/></clipPath><clipPath id="clip150"><path id="path29465" d="m 176,208.92578 h 2 V 228 h -2 z m 0,0"/></clipPath><clipPath id="clip149"><path id="path29462" d="m 159.27734,208.92578 h 36 v 36 h -36 z m 0,0"/></clipPath><clipPath id="clip142"><path id="path29320" d="m 110,208.92578 h 3 V 228 h -3 z m 0,0"/></clipPath><clipPath id="clip141"><path id="path29317" d="m 93.511719,208.92578 h 36.000001 v 36 H 93.511719 Z m 0,0"/></clipPath></defs><metadata id="metadata49869"/><g id="layer1" transform="translate(-73.816227,-80.547289)"><path style="clip-rule:nonzero;fill:#000;fill-opacity:1;fill-rule:nonzero;stroke:#00477e;stroke-width:.30724612;stroke-miterlimit:4;stroke-dasharray:none;stroke-opacity:1" id="path38955" d="m 81.662603,84.547289 c 0,2.124356 -1.722021,3.846378 -3.846377,3.846378 -2.124355,0 -3.846377,-1.722022 -3.846377,-3.846378 0,-2.124354 1.722022,-3.846375 3.846377,-3.846375 2.124356,0 3.846377,1.722021 3.846377,3.846375"/><path style="opacity:1;vector-effect:none;fill:none;fill-opacity:1;fill-rule:evenodd;stroke:#fff;stroke-width:.31951743;stroke-linecap:butt;stroke-linejoin:round;stroke-miterlimit:4;stroke-dasharray:none;stroke-dashoffset:0;stroke-opacity:1;paint-order:normal" id="path53181" d="M 77.816226,84.54729 V 80.547293"/></g></svg>