<svg xmlns="http://www.w3.org/2000/svg" xmlns:svg="http://www.w3.org/2000/svg" xmlns:xlink="http://www.w3.org/1999/xlink" id="svg25334" width="15" height="15" version="1.1" viewBox="0 0 3.969 3.969"><defs id="defs25328"><linearGradient id="linearGradient13188" x1="7.464" x2="7.464" y1="3.502" y2="11.501" gradientTransform="matrix(2.2843677,0.57751268,-0.57751268,2.2843677,-12.093325,-20.82009)" gradientUnits="userSpaceOnUse" xlink:href="#XMLID_137_"/><linearGradient id="XMLID_137_" x1="7.464" x2="7.464" y1="3.502" y2="11.501" gradientTransform="matrix(0.9695,0.2451,-0.2451,0.9695,2.1015,-1.6022)" gradientUnits="userSpaceOnUse"><stop style="stop-color:#fff;stop-opacity:1" id="stop31" offset="0"/><stop style="stop-color:#888" id="stop33" offset="1"/></linearGradient><linearGradient id="linearGradient13190" x1="7.839" x2="7.839" y1="8.585" y2="7.584" gradientTransform="matrix(1.1805165,2.0390163,-2.0390163,1.1805165,7.8576691,-24.90163)" gradientUnits="userSpaceOnUse" xlink:href="#XMLID_138_"/><linearGradient id="XMLID_138_" x1="7.839" x2="7.839" y1="8.585" y2="7.584" gradientTransform="matrix(0.9135,0.4067,-0.4067,0.9135,3.6272,-3.0738)" gradientUnits="userSpaceOnUse"><stop style="stop-color:#888a85" id="stop38" offset="0"/><stop style="stop-color:#7a7c78" id="stop40" offset=".223"/><stop style="stop-color:#565654" id="stop42" offset=".644"/><stop style="stop-color:#323232" id="stop44" offset="1"/></linearGradient></defs><metadata id="metadata25331"/><g id="layer1" transform="translate(3.7535173,-132.69037)"><g id="g13170" transform="matrix(-0.26458333,0,0,0.26458333,3.4786134,131.89433)"><g id="g13172" transform="matrix(0.68983266,0,0,0.68983266,19.401652,10.076259)"><circle style="fill:url(#linearGradient13188);stroke-width:2.35623288" id="circle13176" cx=".627" cy=".627" r="9.423"/><path style="fill:url(#linearGradient13190);stroke-width:2.35623288" id="path13178" d="m -2.3516199,-6.8681972 c -0.4117067,0.042083 -0.8025125,0.1517178 -1.1540027,0.3596578 -0.3539237,0.2032721 -0.6429255,0.4856101 -0.8824616,0.8241631 L 3.604281,8.1218225 C 4.0159877,8.0797402 4.4067933,7.9701047 4.7601915,7.7635479 5.1141151,7.5602757 5.403117,7.2779378 5.642653,6.9393848 Z"/></g></g></g></svg>