<svg xmlns="http://www.w3.org/2000/svg" xmlns:svg="http://www.w3.org/2000/svg" id="svg4541" width="60" height="379.45" version="1.1" viewBox="0 0 15.875 100.396"><metadata id="metadata4538"/><path style="fill:#2e2f31;fill-opacity:1;fill-rule:nonzero;stroke:none;stroke-width:.17961434" id="path25057" d="M -1.0418518e-6,-2.9078125e-7 H 15.874999 V 100.39611 H -1.0418518e-6 Z m 0,0"/><path style="opacity:.9;fill:#e3dbdb;fill-opacity:1;fill-rule:nonzero;stroke:none;stroke-width:.26667708" id="path25259" d="m 12.170835,16.502762 c 0,-0.425594 -0.394052,-0.773323 -0.874863,-0.773323 H 4.5778259 c -0.4808141,0 -0.8736594,0.347729 -0.8736594,0.773323 v 9.035619 c 0,0.425596 0.3928453,0.774391 0.8736594,0.774391 h 6.7181461 c 0.480811,0 0.874863,-0.348795 0.874863,-0.774391 z m 0,0"/><path style="opacity:.9;fill:#212121;fill-opacity:1;fill-rule:nonzero;stroke:none;stroke-width:.26667708" id="path25247-6" d="m 12.170835,40.315266 c 0,-0.425596 -0.394055,-0.773325 -0.874866,-0.773325 H 4.5790266 c -0.4808113,0 -0.8748601,0.347729 -0.8748601,0.773325 v 9.035616 c 0,0.425599 0.3940488,0.774393 0.8748601,0.774393 h 6.7169424 c 0.480811,0 0.874866,-0.348794 0.874866,-0.774393 z m 0,0"/><path style="opacity:.9;fill:#e3dbdb;fill-opacity:1;fill-rule:nonzero;stroke:none;stroke-width:.26667708" id="path25259-7" d="m 12.170835,52.221516 c 0,-0.425596 -0.394052,-0.773325 -0.874863,-0.773325 H 4.5778259 c -0.4808141,0 -0.8736594,0.347729 -0.8736594,0.773325 v 9.035617 c 0,0.425598 0.3928453,0.774393 0.8736594,0.774393 h 6.7181461 c 0.480811,0 0.874863,-0.348795 0.874863,-0.774393 z m 0,0"/><g style="font-style:normal;font-variant:normal;font-weight:500;font-stretch:normal;font-size:7.66842127px;line-height:125%;font-family:'Futura PT';-inkscape-font-specification:'Futura PT Medium';letter-spacing:0;word-spacing:0;opacity:.7;fill:#fff;fill-opacity:1;stroke:none;stroke-width:.95855266px;stroke-linecap:butt;stroke-linejoin:miter;stroke-opacity:1" id="text864" aria-label="MADE IN ITALY" transform="matrix(0.27602379,0,0,0.27602379,258.28496,-0.07331911)"><g style="fill:#fff" id="g1751" transform="translate(12.398456,-5.7513165)"><path id="path4555" d="m -927.73148,359.03888 h 0.84352 l 0.43455,-2.62643 1.09275,2.62643 h 0.28117 l 1.14388,-2.62643 0.38342,2.62643 h 0.84352 l -0.71572,-4.26236 h -0.60069 l -1.18221,2.7095 -1.1311,-2.7095 h -0.60069 z" style="font-style:normal;font-variant:normal;font-weight:500;font-stretch:normal;font-size:6.3903513px;font-family:'Futura PT';-inkscape-font-specification:'Futura PT Medium';fill:#fff;stroke-width:.95855266px"/><path id="path4557" d="m -919.05888,359.03888 h 0.89465 l -1.78291,-4.26236 h -0.65181 l -1.83403,4.26236 h 0.90104 l 0.37703,-0.89465 h 1.719 z m -1.83403,-1.57203 0.60708,-1.53368 0.60709,1.53368 z" style="font-style:normal;font-variant:normal;font-weight:500;font-stretch:normal;font-size:6.3903513px;font-family:'Futura PT';-inkscape-font-specification:'Futura PT Medium';fill:#fff;stroke-width:.95855266px"/><path id="path4559" d="m -917.66658,354.77652 v 4.26236 h 1.09914 c 0.5943,0 1.0608,-0.0575 1.55925,-0.40898 0.56235,-0.3962 0.8563,-1.00968 0.8563,-1.71901 0,-0.70933 -0.30034,-1.32919 -0.81796,-1.719 -0.47289,-0.35147 -0.99051,-0.41537 -1.58481,-0.41537 z m 0.83075,0.71571 h 0.25561 c 0.28118,0 0.70294,0.0256 1.04802,0.28118 0.33869,0.25561 0.52401,0.69016 0.52401,1.13748 0,0.45372 -0.19171,0.88826 -0.5304,1.13109 -0.37064,0.2684 -0.83075,0.28118 -1.04163,0.28118 h -0.25561 z" style="font-style:normal;font-variant:normal;font-weight:500;font-stretch:normal;font-size:6.3903513px;font-family:'Futura PT';-inkscape-font-specification:'Futura PT Medium';fill:#fff;stroke-width:.95855266px"/><path id="path4561" d="m -911.02111,354.77652 h -2.36443 v 4.26236 h 2.36443 v -0.71572 h -1.53369 v -1.16304 h 1.46978 v -0.71572 h -1.46978 v -0.95217 h 1.53369 z" style="font-style:normal;font-variant:normal;font-weight:500;font-stretch:normal;font-size:6.3903513px;font-family:'Futura PT';-inkscape-font-specification:'Futura PT Medium';fill:#fff;stroke-width:.95855266px"/></g><g style="fill:#fff" id="g1745" transform="translate(-9.5007238)"><path id="path4563" d="m -908.73007,354.77652 v 4.26236 h 0.83074 v -4.26236 z" style="font-style:normal;font-variant:normal;font-weight:500;font-stretch:normal;font-size:6.3903513px;font-family:'Futura PT';-inkscape-font-specification:'Futura PT Medium';fill:#fff;stroke-width:.95855266px"/><path id="path4565" d="m -906.10204,359.03888 v -2.8501 l 2.59448,2.8501 h 0.57513 v -4.26236 h -0.83074 v 2.8437 l -2.59448,-2.8437 h -0.57514 v 4.26236 z" style="font-style:normal;font-variant:normal;font-weight:500;font-stretch:normal;font-size:6.3903513px;font-family:'Futura PT';-inkscape-font-specification:'Futura PT Medium';fill:#fff;stroke-width:.95855266px"/><path id="path4567" d="m -900.48003,354.77652 v 4.26236 h 0.83075 v -4.26236 z" style="font-style:normal;font-variant:normal;font-weight:500;font-stretch:normal;font-size:6.3903513px;font-family:'Futura PT';-inkscape-font-specification:'Futura PT Medium';fill:#fff;stroke-width:.95855266px"/><path id="path4569" d="m -896.38222,355.49223 v -0.71571 h -2.74785 v 0.71571 h 0.95855 v 3.54665 h 0.83075 v -3.54665 z" style="font-style:normal;font-variant:normal;font-weight:500;font-stretch:normal;font-size:6.3903513px;font-family:'Futura PT';-inkscape-font-specification:'Futura PT Medium';fill:#fff;stroke-width:.95855266px"/><path id="path4571" d="m -893.21041,359.03888 h 0.89465 l -1.78291,-4.26236 h -0.65181 l -1.83403,4.26236 h 0.90104 l 0.37703,-0.89465 h 1.719 z m -1.83403,-1.57203 0.60708,-1.53368 0.60709,1.53368 z" style="font-style:normal;font-variant:normal;font-weight:500;font-stretch:normal;font-size:6.3903513px;font-family:'Futura PT';-inkscape-font-specification:'Futura PT Medium';fill:#fff;stroke-width:.95855266px"/><path id="path4573" d="m -891.81811,354.77652 v 4.26236 h 2.14716 v -0.71572 h -1.31641 v -3.54664 z" style="font-style:normal;font-variant:normal;font-weight:500;font-stretch:normal;font-size:6.3903513px;font-family:'Futura PT';-inkscape-font-specification:'Futura PT Medium';fill:#fff;stroke-width:.95855266px"/><path id="path4575" d="m -888.55663,359.03888 h 0.83074 v -1.94906 l 1.50173,-2.3133 h -0.98411 l -0.91382,1.48256 -0.91382,-1.48256 h -0.98411 l 1.46339,2.3133 z" style="font-style:normal;font-variant:normal;font-weight:500;font-stretch:normal;font-size:6.3903513px;font-family:'Futura PT';-inkscape-font-specification:'Futura PT Medium';fill:#fff;stroke-width:.95855266px"/></g></g><g style="opacity:.7;fill:#fff;stroke-width:.91882312" id="g1736" transform="matrix(0.27602379,0,0,0.27602379,258.28496,0.98501434)"><g style="font-style:normal;font-variant:normal;font-weight:400;font-stretch:normal;font-size:12.78070164px;line-height:125%;font-family:'Squared Display';-inkscape-font-specification:'Squared Display';letter-spacing:0;word-spacing:0;fill:#fff;fill-opacity:1;stroke:none;stroke-width:.95855266px;stroke-linecap:butt;stroke-linejoin:miter;stroke-opacity:1" id="text4639" aria-label="sonus"><path style="font-style:normal;font-variant:normal;font-weight:500;font-stretch:normal;font-size:12.78070164px;font-family:'Futura PT';-inkscape-font-specification:'Futura PT Medium';fill:#fff;stroke-width:.95855266px" id="path4533" d="m -918.09074,327.58075 c -0.70294,-0.53679 -1.35476,-0.58791 -1.76374,-0.58791 -0.44733,0 -1.00968,0.0511 -1.44422,0.3962 -0.31952,0.26839 -0.57513,0.71572 -0.57513,1.25251 0,0.44732 0.16615,0.7924 0.42176,1.0608 0.3323,0.34507 0.79241,0.524 1.18861,0.66459 l 0.35786,0.12781 c 0.20449,0.0767 0.48566,0.21727 0.48566,0.56235 0,0.38342 -0.3323,0.60069 -0.76684,0.60069 -0.4601,0 -0.92021,-0.28117 -1.22695,-0.63903 l -0.81796,0.94577 c 0.34508,0.37064 0.99689,0.92021 2.14716,0.92021 0.67737,0 1.21416,-0.17893 1.66149,-0.58791 0.44732,-0.40898 0.61347,-0.90743 0.61347,-1.40588 0,-0.35786 -0.11502,-0.69016 -0.28117,-0.92021 -0.31952,-0.43454 -0.97134,-0.65182 -1.40588,-0.7924 l -0.37064,-0.11503 c -0.43455,-0.14059 -0.49845,-0.35786 -0.49845,-0.49845 0,-0.26839 0.23005,-0.44732 0.60069,-0.44732 0.16615,0 0.53679,0.0256 0.90743,0.37064 z"/><path style="font-style:normal;font-variant:normal;font-weight:500;font-stretch:normal;font-size:12.78070164px;font-family:'Futura PT';-inkscape-font-specification:'Futura PT Medium';fill:#fff;stroke-width:.95855266px" id="path4535" d="m -913.8182,326.99284 c -1.04801,0 -1.76373,0.34508 -2.23662,0.77962 -0.54957,0.49845 -0.93299,1.26529 -0.93299,2.17272 0,0.89465 0.38342,1.66149 0.93299,2.15994 0.47289,0.43454 1.18861,0.77962 2.23662,0.77962 1.04802,0 1.76374,-0.34508 2.23663,-0.77962 0.54957,-0.49845 0.93299,-1.26529 0.93299,-2.15994 0,-0.90743 -0.38342,-1.67427 -0.93299,-2.17272 -0.47289,-0.43454 -1.18861,-0.77962 -2.23663,-0.77962 z m 0,4.51158 c -0.90743,0 -1.55924,-0.71571 -1.55924,-1.55924 0,-0.86909 0.6646,-1.57203 1.55924,-1.57203 0.89465,0 1.55925,0.70294 1.55925,1.57203 0,0.84353 -0.65182,1.55924 -1.55925,1.55924 z"/><path style="font-style:normal;font-variant:normal;font-weight:500;font-stretch:normal;font-size:12.78070164px;font-family:'Futura PT';-inkscape-font-specification:'Futura PT Medium';fill:#fff;stroke-width:.95855266px" id="path4537" d="m -909.4426,332.70581 h 1.55924 v -2.82453 c 0,-0.31952 0.0128,-0.71572 0.24284,-1.07358 0.23005,-0.34508 0.54957,-0.48567 0.95855,-0.48567 0.15337,0 0.48567,0.0256 0.7285,0.28118 0.28117,0.29395 0.29395,0.77962 0.29395,1.08635 v 3.01625 h 1.55925 v -3.47635 c 0,-0.53679 -0.0511,-1.08636 -0.43454,-1.55925 -0.43455,-0.53679 -1.15027,-0.67737 -1.63593,-0.67737 -0.89465,0 -1.41866,0.48566 -1.71262,0.89465 v -0.71572 h -1.55924 z"/><path style="font-style:normal;font-variant:normal;font-weight:500;font-stretch:normal;font-size:12.78070164px;font-family:'Futura PT';-inkscape-font-specification:'Futura PT Medium';fill:#fff;stroke-width:.95855266px" id="path4539" d="m -902.62789,327.17177 v 3.38688 c 0,0.49845 0.0639,1.16305 0.67737,1.69984 0.51123,0.44732 1.3292,0.62625 2.00657,0.62625 0.67738,0 1.49535,-0.17893 2.00658,-0.62625 0.61347,-0.53679 0.67737,-1.20139 0.67737,-1.69984 v -3.38688 h -1.55924 v 3.13127 c 0,0.29395 -0.0256,0.69016 -0.3323,0.97133 -0.19171,0.16615 -0.49845,0.28118 -0.79241,0.28118 -0.29395,0 -0.60069,-0.11503 -0.7924,-0.28118 -0.30674,-0.28117 -0.3323,-0.67738 -0.3323,-0.97133 v -3.13127 z"/><path style="font-style:normal;font-variant:normal;font-weight:500;font-stretch:normal;font-size:12.78070164px;font-family:'Futura PT';-inkscape-font-specification:'Futura PT Medium';fill:#fff;stroke-width:.95855266px" id="path4541" d="m -892.00513,327.58075 c -0.70294,-0.53679 -1.35476,-0.58791 -1.76374,-0.58791 -0.44732,0 -1.00967,0.0511 -1.44422,0.3962 -0.31952,0.26839 -0.57513,0.71572 -0.57513,1.25251 0,0.44732 0.16615,0.7924 0.42176,1.0608 0.3323,0.34507 0.79241,0.524 1.18861,0.66459 l 0.35786,0.12781 c 0.20449,0.0767 0.48566,0.21727 0.48566,0.56235 0,0.38342 -0.33229,0.60069 -0.76684,0.60069 -0.4601,0 -0.92021,-0.28117 -1.22695,-0.63903 l -0.81796,0.94577 c 0.34508,0.37064 0.99689,0.92021 2.14716,0.92021 0.67738,0 1.21416,-0.17893 1.66149,-0.58791 0.44732,-0.40898 0.61347,-0.90743 0.61347,-1.40588 0,-0.35786 -0.11502,-0.69016 -0.28117,-0.92021 -0.31952,-0.43454 -0.97134,-0.65182 -1.40588,-0.7924 l -0.37064,-0.11503 c -0.43454,-0.14059 -0.49845,-0.35786 -0.49845,-0.49845 0,-0.26839 0.23006,-0.44732 0.6007,-0.44732 0.16614,0 0.53678,0.0256 0.90743,0.37064 z"/></g><g style="font-style:normal;font-variant:normal;font-weight:400;font-stretch:normal;font-size:12.78070068px;line-height:125%;font-family:'Squared Display';-inkscape-font-specification:'Squared Display';letter-spacing:0;word-spacing:0;fill:#fff;fill-opacity:1;stroke:none;stroke-width:.9585526px;stroke-linecap:butt;stroke-linejoin:miter;stroke-opacity:1" id="text4639-3" aria-label="dept."><path style="font-style:normal;font-variant:normal;font-weight:500;font-stretch:normal;font-size:12.78070068px;font-family:'Futura PT';-inkscape-font-specification:'Futura PT Medium';fill:#fff;stroke-width:.9585526px" id="path4544" d="m -915.87093,337.26365 c -0.52401,-0.81797 -1.35476,-0.89465 -1.77652,-0.89465 -1.63593,0 -2.74785,1.30363 -2.74785,2.93956 0,1.62315 1.1247,2.95234 2.82453,2.95234 0.3962,0 1.13748,-0.0895 1.69984,-0.89465 v 0.71572 h 1.55924 v -9.31713 h -1.55924 z m -1.38032,0.48566 c 0.89465,0 1.53368,0.67738 1.53368,1.55925 0,0.88187 -0.63903,1.57202 -1.53368,1.57202 -0.89465,0 -1.53368,-0.69015 -1.53368,-1.57202 0,-0.88187 0.63903,-1.55925 1.53368,-1.55925 z"/><path style="font-style:normal;font-variant:normal;font-weight:500;font-stretch:normal;font-size:12.78070068px;font-family:'Futura PT';-inkscape-font-specification:'Futura PT Medium';fill:#fff;stroke-width:.9585526px" id="path4546" d="m -908.82477,340.30545 c -0.25562,0.44733 -0.70294,0.7285 -1.29086,0.7285 -0.60069,0 -0.94577,-0.29395 -1.11192,-0.52401 -0.17893,-0.24283 -0.26839,-0.60069 -0.26839,-0.93299 h 4.14095 v -0.1278 c 0,-0.6007 -0.0767,-1.46978 -0.6646,-2.17272 -0.38342,-0.46011 -1.03524,-0.90743 -2.15994,-0.90743 -0.6646,0 -1.43144,0.14058 -2.08325,0.77962 -0.3962,0.3962 -0.84353,1.07358 -0.84353,2.17272 0,0.86909 0.25561,1.58481 0.86909,2.15994 0.54957,0.52401 1.22695,0.77962 2.12159,0.77962 1.92989,0 2.55614,-1.31641 2.72229,-1.72539 z m -2.62005,-1.72539 c 0.12781,-0.74128 0.7285,-1.11192 1.30363,-1.11192 0.57513,0 1.18861,0.35786 1.31642,1.11192 z"/><path style="font-style:normal;font-variant:normal;font-weight:500;font-stretch:normal;font-size:12.78070068px;font-family:'Futura PT';-inkscape-font-specification:'Futura PT Medium';fill:#fff;stroke-width:.9585526px" id="path4548" d="m -904.60095,341.36625 c 0.61347,0.83075 1.39309,0.89465 1.77651,0.89465 0.81797,0 1.457,-0.31952 1.87877,-0.71572 0.31952,-0.30674 0.86909,-0.98411 0.86909,-2.23662 0,-1.09914 -0.42177,-1.7893 -0.83075,-2.19828 -0.62625,-0.62626 -1.40588,-0.74128 -1.89154,-0.74128 -1.02246,0 -1.55925,0.54957 -1.80208,0.89465 v -0.71572 h -1.55925 v 8.46082 h 1.55925 z m 1.38031,-3.61694 c 0.37064,0 0.77963,0.14059 1.0608,0.3962 0.30674,0.29396 0.47289,0.75407 0.47289,1.16305 0,0.40898 -0.15337,0.86909 -0.48567,1.17582 -0.20449,0.19171 -0.53679,0.3962 -1.04802,0.3962 -0.48566,0 -0.81796,-0.19171 -1.02245,-0.37064 -0.30674,-0.26839 -0.51123,-0.69015 -0.51123,-1.20138 0,-0.51123 0.17893,-0.89465 0.52401,-1.18861 0.28117,-0.25561 0.60069,-0.37064 1.00967,-0.37064 z"/><path style="font-style:normal;font-variant:normal;font-weight:500;font-stretch:normal;font-size:12.78070068px;font-family:'Futura PT';-inkscape-font-specification:'Futura PT Medium';fill:#fff;stroke-width:.9585526px" id="path4550" d="m -896.23838,337.87712 v -1.32919 h -1.07358 v -1.89155 h -1.55925 v 1.89155 h -0.61347 v 1.32919 h 0.61347 v 4.20485 h 1.55925 v -4.20485 z"/><path style="font-style:normal;font-variant:normal;font-weight:500;font-stretch:normal;font-size:12.78070068px;font-family:'Futura PT';-inkscape-font-specification:'Futura PT Medium';fill:#fff;stroke-width:.9585526px" id="path4552" d="m -895.55421,341.25122 c 0,0.56236 0.43454,0.9969 0.99689,0.9969 0.56235,0 0.9969,-0.43454 0.9969,-0.9969 0,-0.56235 -0.43455,-0.99689 -0.9969,-0.99689 -0.56235,0 -0.99689,0.43454 -0.99689,0.99689 z"/></g></g><path style="opacity:.9;fill:#212121;fill-opacity:1;fill-rule:nonzero;stroke:none;stroke-width:.26667711" id="path25259-7-5" d="m 12.170835,76.034019 c 0,-0.425595 -0.394052,-0.773324 -0.874863,-0.773324 H 4.5778259 c -0.4808141,0 -0.8736594,0.347729 -0.8736594,0.773324 v 9.035617 c 0,0.425598 0.3928453,0.774393 0.8736594,0.774393 h 6.7181461 c 0.480811,0 0.874863,-0.348795 0.874863,-0.774393 z m 0,0"/><path style="opacity:.9;fill:#fff;fill-opacity:1;stroke:none;stroke-width:.16893321;stroke-miterlimit:4;stroke-dasharray:none;stroke-opacity:1" id="rect2210-7" d="M 2.6458329,50.654442 H 13.229168 v 0.264583 H 2.6458329 Z"/><flowRoot style="font-style:normal;font-variant:normal;font-weight:400;font-stretch:normal;font-size:16px;line-height:125%;font-family:'Futura PT Medium Italic';-inkscape-font-specification:'Futura PT Medium Italic, ';letter-spacing:0;word-spacing:0;fill:#000;fill-opacity:1;stroke:none;stroke-width:1px;stroke-linecap:butt;stroke-linejoin:miter;stroke-opacity:1" id="flowRoot1520" xml:space="preserve"><flowRegion id="flowRegion1522"><rect id="rect1524" width="57.983" height="34.107" x="72.194" y="84.421"/></flowRegion><flowPara id="flowPara1526"/></flowRoot><g id="text6403" aria-label="TWOFF" style="font-style:normal;font-variant:normal;font-weight:400;font-stretch:normal;font-size:3.52777815px;line-height:125%;font-family:Akashi;-inkscape-font-specification:Akashi;letter-spacing:0;word-spacing:0;fill:#fff;fill-opacity:1;stroke:none;stroke-width:.26458335px;stroke-linecap:butt;stroke-linejoin:miter;stroke-opacity:1"><path id="path6439" d="M 4.1704141,3.6206125 V 4.1373769 H 3.4813949 V 6.2044344 H 2.9646306 V 4.1373769 H 2.2756114 V 3.6206125 Z" style="fill:#fff;stroke-width:.26458335px"/><path id="path6441" d="m 6.2391943,5.68767 h 0.6855741 l 0.00172,-2.0670575 h 0.5167644 v 2.2393123 q 0,0.3445096 -0.3445096,0.3445096 H 4.8594334 q -0.3445096,0 -0.3445096,-0.3445096 V 3.6206125 H 5.0316882 V 5.68767 H 5.7224299 V 3.6206125 h 0.5167644 z" style="fill:#fff;stroke-width:.26458335px"/><path id="path6443" d="m 9.8548225,5.8599248 q 0,0.3445096 -0.3445095,0.3445096 H 8.1322746 q -0.3445096,0 -0.3445096,-0.3445096 V 3.9651221 q 0,-0.3445096 0.3445096,-0.3445096 H 9.510313 q 0.3445095,0 0.3445095,0.3445096 z M 8.3045294,4.1373769 V 5.68767 H 9.3380582 V 4.1373769 Z" style="fill:#fff;stroke-width:.26458335px"/><path id="path6445" d="M 10.716096,5.1709056 V 6.2044344 H 10.199332 V 3.9651221 q 0,-0.3445096 0.344509,-0.3445096 h 1.378039 v 0.5167644 h -1.205784 v 0.5167644 h 0.689019 l -0.172254,0.5167643 z" style="fill:#fff;stroke-width:.26458335px"/><path id="path6447" d="M 12.783154,5.1709056 V 6.2044344 H 12.266389 V 3.9651221 q 0,-0.3445096 0.34451,-0.3445096 h 1.378038 v 0.5167644 h -1.205783 v 0.5167644 h 0.689019 l -0.172255,0.5167643 z" style="fill:#fff;stroke-width:.26458335px"/></g><g id="text6407" aria-label="OFFSET" style="font-style:normal;font-variant:normal;font-weight:400;font-stretch:normal;font-size:2.46944451px;line-height:125%;font-family:Akashi;-inkscape-font-specification:Akashi;letter-spacing:0;word-spacing:0;fill:#fff;fill-opacity:1;stroke:none;stroke-width:.26458335px;stroke-linecap:butt;stroke-linejoin:miter;stroke-opacity:1"><path id="path6426" d="m 4.8627524,38.570069 q 0,0.241157 -0.2411567,0.241157 H 3.6569689 q -0.2411566,0 -0.2411566,-0.241157 v -1.326362 q 0,-0.241156 0.2411566,-0.241156 h 0.9646268 q 0.2411567,0 0.2411567,0.241156 z M 3.7775473,37.364286 v 1.085205 h 0.7234701 v -1.085205 z" style="fill:#fff;stroke-width:.26458335px"/><path id="path6428" d="m 5.4656442,38.087756 v 0.72347 H 5.1039091 v -1.567519 q 0,-0.241156 0.2411567,-0.241156 h 0.9646268 v 0.361735 H 5.4656442 v 0.361735 h 0.4823134 l -0.1205784,0.361735 z" style="fill:#fff;stroke-width:.26458335px"/><path id="path6430" d="m 6.9125842,38.087756 v 0.72347 h -0.361735 v -1.567519 q 0,-0.241156 0.2411567,-0.241156 h 0.9646268 v 0.361735 H 6.9125842 v 0.361735 h 0.4823134 l -0.1205783,0.361735 z" style="fill:#fff;stroke-width:.26458335px"/><path id="path6432" d="M 9.3253572,37.36308 H 8.3595247 v 0.362941 h 0.8440484 q 0.2411567,0 0.2411567,0.239951 v 0.602891 q 0,0.241157 -0.2411567,0.241157 H 7.9977896 v -0.360529 l 1.0852051,-0.0012 V 38.08655 H 8.2389463 q -0.2411567,0 -0.2411567,-0.239951 v -0.602892 q 0,-0.242362 0.2411567,-0.242362 h 1.2057835 z" style="fill:#fff;stroke-width:.26458335px"/><path id="path6434" d="m 10.047621,38.087756 v 0.361735 h 0.844049 v 0.361735 H 9.9270428 q -0.2411567,0 -0.2411567,-0.241157 v -1.326362 q 0,-0.241156 0.2411567,-0.241156 H 10.89167 v 0.361735 h -0.844049 v 0.361735 h 0.482314 l -0.120579,0.361735 z" style="fill:#fff;stroke-width:.26458335px"/><path id="path6436" d="m 12.459188,37.002551 v 0.361735 h -0.482313 v 1.44694 H 11.61514 v -1.44694 h -0.482313 v -0.361735 z" style="fill:#fff;stroke-width:.26458335px"/></g><g id="text6411" aria-label="OFFSET" style="font-style:normal;font-variant:normal;font-weight:400;font-stretch:normal;font-size:2.46944451px;line-height:125%;font-family:Akashi;-inkscape-font-specification:Akashi;letter-spacing:0;word-spacing:0;fill:#fff;fill-opacity:1;stroke:none;stroke-width:.26458335px;stroke-linecap:butt;stroke-linejoin:miter;stroke-opacity:1"><path id="path6413" d="m 4.8627524,74.288819 q 0,0.241157 -0.2411567,0.241157 H 3.6569689 q -0.2411566,0 -0.2411566,-0.241157 v -1.326362 q 0,-0.241156 0.2411566,-0.241156 h 0.9646268 q 0.2411567,0 0.2411567,0.241156 z M 3.7775473,73.083036 v 1.085205 h 0.7234701 v -1.085205 z" style="fill:#fff;stroke-width:.26458335px"/><path id="path6415" d="m 5.4656442,73.806506 v 0.72347 H 5.1039091 v -1.567519 q 0,-0.241156 0.2411567,-0.241156 h 0.9646268 v 0.361735 H 5.4656442 v 0.361735 h 0.4823134 l -0.1205784,0.361735 z" style="fill:#fff;stroke-width:.26458335px"/><path id="path6417" d="m 6.9125842,73.806506 v 0.72347 h -0.361735 v -1.567519 q 0,-0.241156 0.2411567,-0.241156 h 0.9646268 v 0.361735 H 6.9125842 v 0.361735 h 0.4823134 l -0.1205783,0.361735 z" style="fill:#fff;stroke-width:.26458335px"/><path id="path6419" d="M 9.3253572,73.08183 H 8.3595247 v 0.362941 h 0.8440484 q 0.2411567,0 0.2411567,0.239951 v 0.602891 q 0,0.241157 -0.2411567,0.241157 H 7.9977896 v -0.360529 l 1.0852051,-0.0012 V 73.8053 H 8.2389463 q -0.2411567,0 -0.2411567,-0.239951 v -0.602892 q 0,-0.242362 0.2411567,-0.242362 h 1.2057835 z" style="fill:#fff;stroke-width:.26458335px"/><path id="path6421" d="m 10.047621,73.806506 v 0.361735 h 0.844049 v 0.361735 H 9.9270428 q -0.2411567,0 -0.2411567,-0.241157 v -1.326362 q 0,-0.241156 0.2411567,-0.241156 H 10.89167 v 0.361735 h -0.844049 v 0.361735 h 0.482314 l -0.120579,0.361735 z" style="fill:#fff;stroke-width:.26458335px"/><path id="path6423" d="m 12.459188,72.721301 v 0.361735 h -0.482313 v 1.44694 H 11.61514 v -1.44694 h -0.482313 v -0.361735 z" style="fill:#fff;stroke-width:.26458335px"/></g></svg>