<svg xmlns="http://www.w3.org/2000/svg" xmlns:svg="http://www.w3.org/2000/svg" id="svg56722" width="14" height="20.641" version="1.1" viewBox="0 0 3.704 5.461"><metadata id="metadata56719"/><g id="layer1" transform="translate(-35.423779,-63.339207)"><path id="path5785" d="m 39.127946,68.410211 c 0,0.214411 -0.175878,0.390289 -0.390289,0.390289 h -2.923589 c -0.214411,0 -0.390289,-0.175878 -0.390289,-0.390289 v -4.68099 c 0,-0.214412 0.175878,-0.390014 0.390289,-0.390014 h 2.923589 c 0.214411,0 0.390289,0.175602 0.390289,0.390014 z" style="fill:#fefefe;fill-opacity:1;fill-rule:nonzero;stroke:none;stroke-width:.35277775"/><g id="g5795" transform="matrix(-0.27523902,0,0,0.27523902,254.77987,-252.89424)" style="fill:#ebebeb;fill-opacity:1;stroke-width:1.2817142"><g id="g5797" style="fill:#ebebeb;fill-opacity:1;stroke-width:1.2817142"><path style="fill:#ebebeb;fill-opacity:1;stroke:none;stroke-width:1.2817142" id="path5805" d="m 785.616,1167.502 c -0.468,0 -0.85,-0.382 -0.85,-0.85 v 0 -15.724 c 0,-0.468 0.382,-0.851 0.85,-0.851 v 0 h 9.241 c 0.466,0 0.849,0.383 0.849,0.851 v 0 15.724 c 0,0.468 -0.383,0.85 -0.849,0.85 v 0 z"/></g></g><path style="fill:#444;fill-opacity:1;fill-rule:nonzero;stroke:none;stroke-width:.35277775" id="path5815" d="M 38.781365,65.992456 H 35.77025 v -2.340633 h 3.011115 z"/><path style="fill:#999;fill-opacity:1;fill-rule:nonzero;stroke:none;stroke-width:.35277775" id="path5817" d="M 38.781365,64.950952 H 35.77025 v -0.257624 h 3.011115 z"/><path style="fill:#999;fill-opacity:1;fill-rule:nonzero;stroke:none;stroke-width:.35277775" id="path5819" d="M 38.781365,63.909447 H 35.77025 v -0.257624 h 3.011115 z"/><path style="fill:#999;fill-opacity:1;fill-rule:nonzero;stroke:none;stroke-width:.35277775" id="path5821" d="M 38.781365,64.429924 H 35.77025 V 64.1723 h 3.011115 z"/><path style="fill:#999;fill-opacity:1;fill-rule:nonzero;stroke:none;stroke-width:.35277775" id="path5823" d="M 38.781365,65.471704 H 35.77025 V 65.21408 h 3.011115 z"/><path style="fill:#999;fill-opacity:1;fill-rule:nonzero;stroke:none;stroke-width:.35277775" id="path5825" d="M 38.781365,65.992456 H 35.77025 v -0.257624 h 3.011115 z"/></g></svg>