<svg xmlns="http://www.w3.org/2000/svg" xmlns:svg="http://www.w3.org/2000/svg" id="svg56722" width="14" height="20.641" version="1.1" viewBox="0 0 3.704 5.461"><metadata id="metadata56719"/><g id="layer1" transform="translate(-35.423779,-63.339207)"><path id="path5785" d="m 35.423779,63.729496 c 0,-0.214411 0.175878,-0.390289 0.390289,-0.390289 h 2.923589 c 0.214411,0 0.390289,0.175878 0.390289,0.390289 v 4.68099 c 0,0.214412 -0.175878,0.390014 -0.390289,0.390014 h -2.923589 c -0.214411,0 -0.390289,-0.175602 -0.390289,-0.390014 z" style="fill:#fefefe;fill-opacity:1;fill-rule:nonzero;stroke:none;stroke-width:.35277775"/><g id="g5795" transform="matrix(0.27523902,0,0,-0.27523902,-180.22814,385.03395)" style="fill:#ebebeb;fill-opacity:1;stroke-width:1.2817142"><g id="g5797" style="fill:#ebebeb;fill-opacity:1;stroke-width:1.2817142"><path style="fill:#ebebeb;fill-opacity:1;stroke:none;stroke-width:1.2817142" id="path5805" d="m 785.616,1167.502 c -0.468,0 -0.85,-0.382 -0.85,-0.85 v 0 -15.724 c 0,-0.468 0.382,-0.851 0.85,-0.851 v 0 h 9.241 c 0.466,0 0.849,0.383 0.849,0.851 v 0 15.724 c 0,0.468 -0.383,0.85 -0.849,0.85 v 0 z"/></g></g><path style="fill:#444;fill-opacity:1;fill-rule:nonzero;stroke:none;stroke-width:.35277775" id="path5815" d="m 35.77036,66.147251 h 3.011115 v 2.340633 H 35.77036 Z"/><path style="fill:#999;fill-opacity:1;fill-rule:nonzero;stroke:none;stroke-width:.35277775" id="path5817" d="m 35.77036,67.188755 h 3.011115 v 0.257624 H 35.77036 Z"/><path style="fill:#999;fill-opacity:1;fill-rule:nonzero;stroke:none;stroke-width:.35277775" id="path5819" d="m 35.77036,68.23026 h 3.011115 v 0.257624 H 35.77036 Z"/><path style="fill:#999;fill-opacity:1;fill-rule:nonzero;stroke:none;stroke-width:.35277775" id="path5821" d="m 35.77036,67.709783 h 3.011115 v 0.257624 H 35.77036 Z"/><path style="fill:#999;fill-opacity:1;fill-rule:nonzero;stroke:none;stroke-width:.35277775" id="path5823" d="m 35.77036,66.668003 h 3.011115 v 0.257624 H 35.77036 Z"/><path style="fill:#999;fill-opacity:1;fill-rule:nonzero;stroke:none;stroke-width:.35277775" id="path5825" d="m 35.77036,66.147251 h 3.011115 v 0.257624 H 35.77036 Z"/></g></svg>