<svg xmlns="http://www.w3.org/2000/svg" xmlns:svg="http://www.w3.org/2000/svg" id="svg55117" width="153.599" height="485.667" version="1.1" viewBox="0 0 40.64 128.499"><defs id="defs55111"><clipPath id="clip1779"><rect id="rect13697" width="18" height="18" x="0" y="0"/></clipPath><clipPath id="clip1780"><path id="path13694" d="M 0.0429688,0.359375 H 17.050781 V 17.367188 H 0.0429688 Z m 0,0"/></clipPath><clipPath id="clip1782"><rect id="rect13716" width="23" height="25" x="0" y="0"/></clipPath><clipPath id="clip1783"><path id="path13713" d="M 0.191406,0.21875 H 22.871094 V 24.957031 H 0.191406 Z m 0,0"/></clipPath><clipPath id="clip1786"><rect id="rect13738" width="17" height="16" x="0" y="0"/></clipPath><clipPath id="clip1787"><path id="path13735" d="m 0.40625,0.453125 h 16.25 v 15.097656 h -16.25 z m 0,0"/></clipPath><clipPath id="clip1789"><rect id="rect13757" width="23" height="26" x="0" y="0"/></clipPath><clipPath id="clip1790"><path id="path13754" d="M 0.191406,0.5625 H 22.871094 V 25.304688 H 0.191406 Z m 0,0"/></clipPath><clipPath id="clip1793"><rect id="rect13779" width="17" height="16" x="0" y="0"/></clipPath><clipPath id="clip1794"><path id="path13776" d="m 0.40625,0.800781 h 16.25 v 15.097657 h -16.25 z m 0,0"/></clipPath><clipPath id="clip1796"><rect id="rect13798" width="23" height="26" x="0" y="0"/></clipPath><clipPath id="clip1797"><path id="path13795" d="M 0.191406,0.910156 H 22.871094 V 25.652344 H 0.191406 Z m 0,0"/></clipPath><clipPath id="clip1800"><rect id="rect13820" width="17" height="16" x="0" y="0"/></clipPath><clipPath id="clip1801"><path id="path13817" d="m 0.40625,0.148438 h 16.25 v 15.097656 h -16.25 z m 0,0"/></clipPath><clipPath id="clip1803"><rect id="rect13839" width="23" height="25" x="0" y="0"/></clipPath><clipPath id="clip1804"><path id="path13836" d="M 0.191406,0.257812 H 22.871094 V 24.996094 H 0.191406 Z m 0,0"/></clipPath><clipPath id="clip1807"><rect id="rect13861" width="17" height="16" x="0" y="0"/></clipPath><clipPath id="clip1808"><path id="path13858" d="m 0.40625,0.492188 h 16.25 v 15.097656 h -16.25 z m 0,0"/></clipPath><clipPath id="clip1810"><rect id="rect13880" width="23" height="26" x="0" y="0"/></clipPath><clipPath id="clip1811"><path id="path13877" d="M 0.191406,0.601562 H 22.871094 V 25.34375 H 0.191406 Z m 0,0"/></clipPath><clipPath id="clip1814"><rect id="rect13902" width="17" height="16" x="0" y="0"/></clipPath><clipPath id="clip1815"><path id="path13899" d="m 0.40625,0.839844 h 16.25 V 15.9375 h -16.25 z m 0,0"/></clipPath><clipPath id="clip1817"><rect id="rect13921" width="23" height="26" x="0" y="0"/></clipPath><clipPath id="clip1818"><path id="path13918" d="M 0.191406,0.949219 H 22.871094 V 25.691406 H 0.191406 Z m 0,0"/></clipPath><clipPath id="clip1821"><rect id="rect13943" width="17" height="16" x="0" y="0"/></clipPath><clipPath id="clip1822"><path id="path13940" d="m 0.40625,0.1875 h 16.25 v 15.097656 h -16.25 z m 0,0"/></clipPath><clipPath id="clip1824"><rect id="rect13962" width="23" height="26" x="0" y="0"/></clipPath><clipPath id="clip1825"><path id="path13959" d="M 0.191406,0.523438 H 22.871094 V 25.265625 H 0.191406 Z m 0,0"/></clipPath><clipPath id="clip1828"><rect id="rect13984" width="17" height="16" x="0" y="0"/></clipPath><clipPath id="clip1829"><path id="path13981" d="m 0.40625,0.761719 h 16.25 v 15.097656 h -16.25 z m 0,0"/></clipPath><clipPath id="clip1831"><rect id="rect14003" width="23" height="26" x="0" y="0"/></clipPath><clipPath id="clip1832"><path id="path14000" d="M 0.191406,0.871094 H 22.871094 V 25.613281 H 0.191406 Z m 0,0"/></clipPath><clipPath id="clip1835"><rect id="rect14025" width="17" height="16" x="0" y="0"/></clipPath><clipPath id="clip1836"><path id="path14022" d="m 0.40625,0.105469 h 16.25 v 15.101562 h -16.25 z m 0,0"/></clipPath><clipPath id="clip1838"><rect id="rect14044" width="23" height="25" x="0" y="0"/></clipPath><clipPath id="clip1839"><path id="path14041" d="M 0.191406,0.179688 H 22.871094 V 24.917969 H 0.191406 Z m 0,0"/></clipPath><clipPath id="clip1842"><rect id="rect14066" width="17" height="16" x="0" y="0"/></clipPath><clipPath id="clip1843"><path id="path14063" d="m 0.40625,0.414062 h 16.25 v 15.097657 h -16.25 z m 0,0"/></clipPath><clipPath id="clip1845"><rect id="rect14085" width="23" height="26" x="0" y="0"/></clipPath><clipPath id="clip1846"><path id="path14082" d="M 0.191406,0.296875 H 22.871094 V 25.035156 H 0.191406 Z m 0,0"/></clipPath><clipPath id="clip1849"><rect id="rect14107" width="17" height="16" x="0" y="0"/></clipPath><clipPath id="clip1850"><path id="path14104" d="m 0.40625,0.53125 h 16.25 v 15.101562 h -16.25 z m 0,0"/></clipPath><clipPath id="clip1852"><rect id="rect14126" width="23" height="25" x="0" y="0"/></clipPath><clipPath id="clip1853"><path id="path14123" d="M 0.222656,0.21875 H 22.902344 V 24.957031 H 0.222656 Z m 0,0"/></clipPath><clipPath id="clip1856"><rect id="rect14148" width="17" height="16" x="0" y="0"/></clipPath><clipPath id="clip1857"><path id="path14145" d="m 0.4375,0.453125 h 16.25 v 15.097656 h -16.25 z m 0,0"/></clipPath><clipPath id="clip1859"><rect id="rect14167" width="23" height="26" x="0" y="0"/></clipPath><clipPath id="clip1860"><path id="path14164" d="M 0.222656,0.5625 H 22.902344 V 25.304688 H 0.222656 Z m 0,0"/></clipPath><clipPath id="clip1863"><rect id="rect14189" width="17" height="16" x="0" y="0"/></clipPath><clipPath id="clip1864"><path id="path14186" d="m 0.4375,0.800781 h 16.25 v 15.097657 h -16.25 z m 0,0"/></clipPath><clipPath id="clip1866"><rect id="rect14208" width="23" height="26" x="0" y="0"/></clipPath><clipPath id="clip1867"><path id="path14205" d="M 0.222656,0.910156 H 22.902344 V 25.652344 H 0.222656 Z m 0,0"/></clipPath><clipPath id="clip1870"><rect id="rect14230" width="17" height="16" x="0" y="0"/></clipPath><clipPath id="clip1871"><path id="path14227" d="m 0.4375,0.148438 h 16.25 v 15.097656 h -16.25 z m 0,0"/></clipPath><clipPath id="clip1873"><rect id="rect14249" width="23" height="25" x="0" y="0"/></clipPath><clipPath id="clip1874"><path id="path14246" d="M 0.222656,0.257812 H 22.902344 V 24.996094 H 0.222656 Z m 0,0"/></clipPath><clipPath id="clip1877"><rect id="rect14271" width="17" height="16" x="0" y="0"/></clipPath><clipPath id="clip1878"><path id="path14268" d="m 0.4375,0.492188 h 16.25 v 15.097656 h -16.25 z m 0,0"/></clipPath><clipPath id="clip1880"><rect id="rect14290" width="23" height="26" x="0" y="0"/></clipPath><clipPath id="clip1881"><path id="path14287" d="M 0.222656,0.601562 H 22.902344 V 25.34375 H 0.222656 Z m 0,0"/></clipPath><clipPath id="clip1884"><rect id="rect14312" width="17" height="16" x="0" y="0"/></clipPath><clipPath id="clip1885"><path id="path14309" d="m 0.4375,0.839844 h 16.25 V 15.9375 h -16.25 z m 0,0"/></clipPath><clipPath id="clip1887"><rect id="rect14331" width="23" height="26" x="0" y="0"/></clipPath><clipPath id="clip1888"><path id="path14328" d="M 0.222656,0.949219 H 22.902344 V 25.691406 H 0.222656 Z m 0,0"/></clipPath><clipPath id="clip1891"><rect id="rect14353" width="17" height="16" x="0" y="0"/></clipPath><clipPath id="clip1892"><path id="path14350" d="m 0.4375,0.1875 h 16.25 v 15.097656 h -16.25 z m 0,0"/></clipPath><clipPath id="clip1894"><rect id="rect14372" width="23" height="26" x="0" y="0"/></clipPath><clipPath id="clip1895"><path id="path14369" d="M 0.222656,0.523438 H 22.902344 V 25.265625 H 0.222656 Z m 0,0"/></clipPath><clipPath id="clip1898"><rect id="rect14394" width="17" height="16" x="0" y="0"/></clipPath><clipPath id="clip1899"><path id="path14391" d="m 0.4375,0.761719 h 16.25 v 15.097656 h -16.25 z m 0,0"/></clipPath><clipPath id="clip1901"><rect id="rect14413" width="23" height="26" x="0" y="0"/></clipPath><clipPath id="clip1902"><path id="path14410" d="M 0.222656,0.871094 H 22.902344 V 25.613281 H 0.222656 Z m 0,0"/></clipPath><clipPath id="clip1905"><rect id="rect14435" width="17" height="16" x="0" y="0"/></clipPath><clipPath id="clip1906"><path id="path14432" d="m 0.4375,0.105469 h 16.25 v 15.101562 h -16.25 z m 0,0"/></clipPath><clipPath id="clip1908"><rect id="rect14454" width="23" height="25" x="0" y="0"/></clipPath><clipPath id="clip1909"><path id="path14451" d="M 0.222656,0.179688 H 22.902344 V 24.917969 H 0.222656 Z m 0,0"/></clipPath><clipPath id="clip1912"><rect id="rect14476" width="17" height="16" x="0" y="0"/></clipPath><clipPath id="clip1913"><path id="path14473" d="m 0.4375,0.414062 h 16.25 v 15.097657 h -16.25 z m 0,0"/></clipPath><clipPath id="clip1915"><rect id="rect14495" width="23" height="26" x="0" y="0"/></clipPath><clipPath id="clip1916"><path id="path14492" d="M 0.222656,0.296875 H 22.902344 V 25.035156 H 0.222656 Z m 0,0"/></clipPath><clipPath id="clip1919"><rect id="rect14517" width="17" height="16" x="0" y="0"/></clipPath><clipPath id="clip1920"><path id="path14514" d="m 0.4375,0.53125 h 16.25 v 15.101562 h -16.25 z m 0,0"/></clipPath><clipPath id="clip1926"><rect id="rect14548" width="18" height="18" x="0" y="0"/></clipPath><clipPath id="clip1927"><path id="path14545" d="M 0.0429688,0.0898438 H 17.050781 V 17.097656 H 0.0429688 Z m 0,0"/></clipPath><clipPath id="clip1929"><rect id="rect14567" width="18" height="18" x="0" y="0"/></clipPath><clipPath id="clip1930"><path id="path14564" d="M 0.0429688,0.4375 H 17.050781 V 17.445312 H 0.0429688 Z m 0,0"/></clipPath><clipPath id="clip1932"><rect id="rect14586" width="18" height="18" x="0" y="0"/></clipPath><clipPath id="clip1933"><path id="path14583" d="M 0.0429688,0.132812 H 17.050781 V 17.140625 H 0.0429688 Z m 0,0"/></clipPath></defs><metadata id="metadata55114"/><g id="layer1" transform="translate(-82.489665,-57.369398)"><path id="path15641" d="M 82.583363,57.463104 H 123.03706 V 185.77637 H 82.583363 Z m 0,0" style="fill:#e6e6e6;fill-opacity:1;fill-rule:nonzero;stroke:none;stroke-width:.35277775"/><g id="use21591" transform="matrix(0.35277777,0,0,0.35277777,95.18728,66.934533)" style="fill:#000;fill-opacity:1"><path id="path54614" d="m 1.015625,-0.828125 c 0,0.5 0.390625,0.90625 0.890625,0.90625 0.5,0 0.90625,-0.40625 0.90625,-0.90625 V -5 l 1.609375,2.453125 c 0.1875,0.296875 0.421875,0.46875 0.765625,0.46875 0.328125,0 0.578125,-0.171875 0.765625,-0.46875 l 1.625,-2.5 v 4.1875 c 0,0.515625 0.40625,0.9375 0.90625,0.9375 0.515625,0 0.921875,-0.421875 0.921875,-0.9375 V -7.53125 C 9.40625,-8.046875 9,-8.453125 8.484375,-8.453125 H 8.28125 c -0.375,0 -0.640625,0.15625 -0.828125,0.46875 l -2.25,3.65625 L 2.96875,-7.96875 C 2.8125,-8.25 2.53125,-8.453125 2.140625,-8.453125 H 1.9375 c -0.515625,0 -0.921875,0.40625 -0.921875,0.921875 z m 0,0" style="stroke:none"/></g><g id="use21595" transform="matrix(0.35277777,0,0,0.35277777,98.92743,66.934533)" style="fill:#000;fill-opacity:1"><path id="path54610" d="m 4.515625,0.125 c 2.25,0 3.6875,-1.234375 3.6875,-3.78125 v -3.890625 c 0,-0.515625 -0.421875,-0.921875 -0.9375,-0.921875 -0.515625,0 -0.921875,0.40625 -0.921875,0.921875 v 3.953125 c 0,1.34375 -0.6875,2.015625 -1.8125,2.015625 -1.125,0 -1.8125,-0.703125 -1.8125,-2.0625 v -3.90625 C 2.71875,-8.0625 2.3125,-8.46875 1.796875,-8.46875 1.28125,-8.46875 0.875,-8.0625 0.875,-7.546875 V -3.59375 C 0.875,-1.125 2.25,0.125 4.515625,0.125 Z m 0,0" style="stroke:none"/></g><g id="use21599" transform="matrix(0.35277777,0,0,0.35277777,102.1363,66.934533)" style="fill:#000;fill-opacity:1"><path id="path54606" d="m 2.96875,-0.859375 c 0,0.515625 0.40625,0.9375 0.921875,0.9375 0.515625,0 0.921875,-0.421875 0.921875,-0.9375 v -5.84375 h 1.78125 c 0.46875,0 0.84375,-0.375 0.84375,-0.84375 0,-0.46875 -0.375,-0.859375 -0.84375,-0.859375 H 1.1875 c -0.46875,0 -0.84375,0.390625 -0.84375,0.859375 0,0.46875 0.375,0.84375 0.84375,0.84375 h 1.78125 z m 0,0" style="stroke:none"/></g><g id="use21603" transform="matrix(0.35277777,0,0,0.35277777,104.86471,66.934533)" style="fill:#000;fill-opacity:1"><path id="path54602" d="m 1.9375,0 h 4.703125 c 0.46875,0 0.828125,-0.359375 0.828125,-0.8125 0,-0.453125 -0.359375,-0.828125 -0.828125,-0.828125 H 2.84375 V -3.40625 H 6.046875 C 6.5,-3.40625 6.875,-3.765625 6.875,-4.21875 6.875,-4.6875 6.5,-5.046875 6.046875,-5.046875 H 2.84375 V -6.75 h 3.75 c 0.453125,0 0.828125,-0.359375 0.828125,-0.828125 0,-0.453125 -0.375,-0.828125 -0.828125,-0.828125 H 1.9375 c -0.515625,0 -0.921875,0.421875 -0.921875,0.9375 v 6.546875 C 1.015625,-0.40625 1.421875,0 1.9375,0 Z m 0,0" style="stroke:none"/></g><g id="use21607" transform="matrix(0.35277777,0,0,0.35277777,107.72387,66.934533)" style="fill:#000;fill-opacity:1"><path id="path54598" d="m 4,0.125 c 1.8125,0 3.078125,-0.9375 3.078125,-2.609375 v -0.03125 c 0,-1.453125 -0.953125,-2.0625 -2.65625,-2.515625 -1.453125,-0.375 -1.8125,-0.546875 -1.8125,-1.09375 v -0.03125 c 0,-0.40625 0.359375,-0.734375 1.078125,-0.734375 0.578125,0 1.15625,0.203125 1.765625,0.5625 0.140625,0.09375 0.28125,0.140625 0.46875,0.140625 0.46875,0 0.859375,-0.375 0.859375,-0.859375 C 6.78125,-7.40625 6.578125,-7.65625 6.375,-7.78125 5.609375,-8.25 4.734375,-8.515625 3.703125,-8.515625 c -1.71875,0 -2.9375,1 -2.9375,2.53125 v 0.015625 c 0,1.671875 1.09375,2.140625 2.78125,2.578125 1.40625,0.359375 1.703125,0.59375 1.703125,1.0625 v 0.03125 c 0,0.484375 -0.46875,0.78125 -1.21875,0.78125 -0.8125,0 -1.515625,-0.28125 -2.140625,-0.75 -0.125,-0.09375 -0.296875,-0.171875 -0.53125,-0.171875 -0.484375,0 -0.875,0.375 -0.875,0.859375 0,0.28125 0.15625,0.546875 0.359375,0.6875 C 1.78125,-0.21875 2.890625,0.125 4,0.125 Z m 0,0" style="stroke:none"/></g><path id="path21611" d="m 103.82034,180.39927 c 0,0.22186 -0.17918,0.40101 -0.40104,0.40101 -0.22049,0 -0.401,-0.17915 -0.401,-0.40101 0,-0.22049 0.18051,-0.40101 0.401,-0.40101 0.22186,0 0.40104,0.18052 0.40104,0.40101" style="fill:#000;fill-opacity:1;fill-rule:nonzero;stroke:none;stroke-width:.35277775"/><path id="path21613" d="m 100.49788,181.72632 c -0.11713,0 -0.22462,-0.0662 -0.277,-0.17088 l -1.001823,-2.00504 c -0.07581,-0.15159 -0.01376,-0.33762 0.137795,-0.41341 0.152965,-0.0758 0.337608,-0.0138 0.41342,0.1378 l 0.727608,1.45383 0.72623,-1.45383 c 0.0758,-0.15158 0.26183,-0.2136 0.41342,-0.1378 0.15296,0.0758 0.21357,0.26182 0.13779,0.41341 l -1.00185,2.00504 c -0.0524,0.10473 -0.15985,0.17088 -0.27559,0.17088" style="fill:#000;fill-opacity:1;fill-rule:nonzero;stroke:none;stroke-width:.35277775"/><path id="path21615" d="m 106.00315,181.72632 c -0.11716,0 -0.22327,-0.0662 -0.27562,-0.17088 l -1.0032,-2.00504 c -0.0758,-0.15159 -0.0138,-0.33762 0.1378,-0.41341 0.15296,-0.0758 0.3376,-0.0138 0.41479,0.1378 l 0.72623,1.45383 0.72623,-1.45383 c 0.0758,-0.15158 0.2618,-0.2136 0.41338,-0.1378 0.15297,0.0758 0.21499,0.26182 0.13921,0.41341 l -1.00323,2.00504 c -0.0524,0.10473 -0.15847,0.17088 -0.27559,0.17088" style="fill:#000;fill-opacity:1;fill-rule:nonzero;stroke:none;stroke-width:.35277775"/><path id="path21617" d="m 103.40004,181.72632 c -0.72348,0 -1.31054,-0.58842 -1.31054,-1.31051 0,-0.72347 0.58706,-1.3119 1.31054,-1.3119 0.28663,0 0.55809,0.091 0.78683,0.26321 0.13642,0.10197 0.16263,0.2949 0.0606,0.43133 -0.10198,0.13642 -0.29488,0.16398 -0.43134,0.062 -0.12125,-0.091 -0.26458,-0.13919 -0.41613,-0.13919 -0.38312,0 -0.69455,0.31144 -0.69455,0.69454 0,0.38171 0.31143,0.69315 0.69455,0.69315 0.15155,0 0.29488,-0.0482 0.41613,-0.1378 0.13646,-0.10336 0.32936,-0.0758 0.43134,0.0606 0.10199,0.13642 0.0758,0.32935 -0.0606,0.4327 -0.22874,0.17088 -0.5002,0.26183 -0.78683,0.26183" style="fill:#000;fill-opacity:1;fill-rule:nonzero;stroke:none;stroke-width:.35277775"/><path id="path21619" d="M 90.810282,79.284337 H 114.81018" style="fill:none;stroke:#000;stroke-width:.23495001;stroke-linecap:round;stroke-linejoin:round;stroke-miterlimit:10;stroke-opacity:1"/><path id="path21621" d="M 90.810282,89.284763 H 114.81018" style="fill:none;stroke:#000;stroke-width:.23495001;stroke-linecap:round;stroke-linejoin:round;stroke-miterlimit:10;stroke-opacity:1"/><path id="path21623" d="M 90.810282,99.285184 H 114.81018" style="fill:none;stroke:#000;stroke-width:.23495001;stroke-linecap:round;stroke-linejoin:round;stroke-miterlimit:10;stroke-opacity:1"/><path id="path21625" d="M 90.810282,109.28423 H 114.81018" style="fill:none;stroke:#000;stroke-width:.23495001;stroke-linecap:round;stroke-linejoin:round;stroke-miterlimit:10;stroke-opacity:1"/><path id="path21627" d="M 90.810282,119.28465 H 114.81018" style="fill:none;stroke:#000;stroke-width:.23495001;stroke-linecap:round;stroke-linejoin:round;stroke-miterlimit:10;stroke-opacity:1"/><path id="path21629" d="M 90.810282,129.28508 H 114.81018" style="fill:none;stroke:#000;stroke-width:.23495001;stroke-linecap:round;stroke-linejoin:round;stroke-miterlimit:10;stroke-opacity:1"/><path id="path21631" d="M 90.810282,139.28412 H 114.81018" style="fill:none;stroke:#000;stroke-width:.23495001;stroke-linecap:round;stroke-linejoin:round;stroke-miterlimit:10;stroke-opacity:1"/><path id="path21633" d="M 90.810282,149.28454 H 114.81018" style="fill:none;stroke:#000;stroke-width:.23495001;stroke-linecap:round;stroke-linejoin:round;stroke-miterlimit:10;stroke-opacity:1"/><path id="path21635" d="M 90.810282,159.28497 H 114.81018" style="fill:none;stroke:#000;stroke-width:.23495001;stroke-linecap:round;stroke-linejoin:round;stroke-miterlimit:10;stroke-opacity:1"/><path id="path21637" d="M 90.810282,169.28539 H 114.81018" style="fill:none;stroke:#000;stroke-width:.23495001;stroke-linecap:round;stroke-linejoin:round;stroke-miterlimit:10;stroke-opacity:1"/><g id="use21639" transform="matrix(0.35277777,0,0,0.35277777,112.15472,73.144833)" style="fill:#000;fill-opacity:1"><path id="path54594" d="m 2.75,0.078125 c 1.40625,0 2.390625,-1.078125 2.390625,-2.359375 0,-1.28125 -0.96875,-2.34375 -2.375,-2.34375 -1.390625,0 -2.375,1.0625 -2.375,2.34375 v 0.015625 c 0,1.28125 0.96875,2.34375 2.359375,2.34375 z M 2.765625,-0.65625 c -0.90625,0 -1.546875,-0.734375 -1.546875,-1.625 0,-0.890625 0.640625,-1.609375 1.53125,-1.609375 0.90625,0 1.546875,0.734375 1.546875,1.609375 v 0.015625 c 0,0.890625 -0.625,1.609375 -1.53125,1.609375 z m 0,0" style="stroke:none"/></g><g id="use21643" transform="matrix(0.35277777,0,0,0.35277777,114.17836,73.144833)" style="fill:#000;fill-opacity:1"><path id="path54586" d="m 2.453125,0.078125 c 1.1875,0 1.953125,-0.6875 1.953125,-2.046875 V -4.1875 c 0,-0.21875 -0.171875,-0.390625 -0.390625,-0.390625 -0.234375,0 -0.40625,0.171875 -0.40625,0.390625 v 2.25 c 0,0.84375 -0.4375,1.265625 -1.140625,1.265625 C 1.75,-0.671875 1.3125,-1.125 1.3125,-1.96875 V -4.1875 c 0,-0.21875 -0.171875,-0.390625 -0.390625,-0.390625 -0.234375,0 -0.40625,0.171875 -0.40625,0.390625 v 2.25 c 0,1.328125 0.75,2.015625 1.9375,2.015625 z m 0,0" style="stroke:none"/></g><g id="use21645" transform="matrix(0.35277777,0,0,0.35277777,115.98067,73.144833)" style="fill:#000;fill-opacity:1"><path id="path54590" d="m 1.703125,-0.359375 c 0,0.21875 0.1875,0.390625 0.40625,0.390625 0.21875,0 0.40625,-0.171875 0.40625,-0.390625 V -3.8125 H 3.625 c 0.203125,0 0.359375,-0.171875 0.359375,-0.359375 0,-0.203125 -0.15625,-0.375 -0.359375,-0.375 H 0.59375 c -0.203125,0 -0.359375,0.171875 -0.359375,0.375 0,0.1875 0.15625,0.359375 0.359375,0.359375 h 1.109375 z m 0,0" style="stroke:none"/></g><g id="use21649" transform="matrix(0.35277777,0,0,0.35277777,89.503898,73.144833)" style="fill:#000;fill-opacity:1"><path id="path54578" d="m 0.625,-0.359375 c 0,0.21875 0.1875,0.390625 0.40625,0.390625 0.21875,0 0.40625,-0.171875 0.40625,-0.390625 V -4.1875 c 0,-0.21875 -0.1875,-0.390625 -0.40625,-0.390625 -0.21875,0 -0.40625,0.171875 -0.40625,0.390625 z m 0,0" style="stroke:none"/></g><g id="use21651" transform="matrix(0.35277777,0,0,0.35277777,90.30421,73.144833)" style="fill:#000;fill-opacity:1"><path id="path54582" d="m 0.578125,-0.359375 c 0,0.21875 0.1875,0.390625 0.40625,0.390625 0.21875,0 0.390625,-0.171875 0.390625,-0.390625 V -3.25 l 2.34375,3.03125 c 0.109375,0.140625 0.21875,0.25 0.40625,0.25 h 0.03125 c 0.21875,0 0.390625,-0.1875 0.390625,-0.40625 v -3.8125 c 0,-0.21875 -0.171875,-0.390625 -0.390625,-0.390625 -0.21875,0 -0.390625,0.171875 -0.390625,0.390625 v 2.796875 L 1.484375,-4.34375 C 1.375,-4.484375 1.265625,-4.578125 1.078125,-4.578125 h -0.09375 c -0.21875,0 -0.40625,0.1875 -0.40625,0.40625 z m 0,0" style="stroke:none"/></g><path id="path21655" d="m 92.957252,81.009643 -2.14697,3.500216 -2.147006,-3.500216 z m 0,0" style="fill:#000;fill-opacity:1;fill-rule:nonzero;stroke:none;stroke-width:.35277775"/><path id="path21657" d="m 92.957252,91.010068 -2.14697,3.498834 -2.147006,-3.498834 z m 0,0" style="fill:#000;fill-opacity:1;fill-rule:nonzero;stroke:none;stroke-width:.35277775"/><path id="path21659" d="m 92.957252,101.00911 -2.14697,3.50022 -2.147006,-3.50022 z m 0,0" style="fill:#000;fill-opacity:1;fill-rule:nonzero;stroke:none;stroke-width:.35277775"/><path id="path21661" d="m 92.957252,111.00953 -2.14697,3.50022 -2.147006,-3.50022 z m 0,0" style="fill:#000;fill-opacity:1;fill-rule:nonzero;stroke:none;stroke-width:.35277775"/><path id="path21663" d="m 92.957252,121.00996 -2.14697,3.50021 -2.147006,-3.50021 z m 0,0" style="fill:#000;fill-opacity:1;fill-rule:nonzero;stroke:none;stroke-width:.35277775"/><path id="path21665" d="m 92.957252,131.009 -2.14697,3.50022 -2.147006,-3.50022 z m 0,0" style="fill:#000;fill-opacity:1;fill-rule:nonzero;stroke:none;stroke-width:.35277775"/><path id="path21667" d="m 92.957252,141.00942 -2.14697,3.50022 -2.147006,-3.50022 z m 0,0" style="fill:#000;fill-opacity:1;fill-rule:nonzero;stroke:none;stroke-width:.35277775"/><path id="path21669" d="m 92.957252,151.00985 -2.14697,3.50022 -2.147006,-3.50022 z m 0,0" style="fill:#000;fill-opacity:1;fill-rule:nonzero;stroke:none;stroke-width:.35277775"/><path id="path21671" d="m 92.957252,161.01027 -2.14697,3.49884 -2.147006,-3.49884 z m 0,0" style="fill:#000;fill-opacity:1;fill-rule:nonzero;stroke:none;stroke-width:.35277775"/></g><g id="layer3" style="display:none"><rect style="opacity:1;vector-effect:none;fill:red;fill-opacity:.51794876;fill-rule:evenodd;stroke:none;stroke-width:.31580329;stroke-linecap:butt;stroke-linejoin:miter;stroke-miterlimit:10;stroke-dasharray:none;stroke-dashoffset:0;stroke-opacity:1;paint-order:normal" id="rect56094" width="7.5" height="7.501" x="16.57" y="18.165"/><rect id="rect56639" width="7.5" height="7.501" x="16.57" y="28.164" style="opacity:1;vector-effect:none;fill:red;fill-opacity:.51794876;fill-rule:evenodd;stroke:none;stroke-width:.31580329;stroke-linecap:butt;stroke-linejoin:miter;stroke-miterlimit:10;stroke-dasharray:none;stroke-dashoffset:0;stroke-opacity:1;paint-order:normal"/><rect style="opacity:1;vector-effect:none;fill:red;fill-opacity:.51794876;fill-rule:evenodd;stroke:none;stroke-width:.31580329;stroke-linecap:butt;stroke-linejoin:miter;stroke-miterlimit:10;stroke-dasharray:none;stroke-dashoffset:0;stroke-opacity:1;paint-order:normal" id="rect56641" width="7.5" height="7.501" x="16.57" y="38.164"/><rect id="rect56643" width="7.5" height="7.501" x="16.57" y="48.165" style="opacity:1;vector-effect:none;fill:red;fill-opacity:.51794876;fill-rule:evenodd;stroke:none;stroke-width:.31580329;stroke-linecap:butt;stroke-linejoin:miter;stroke-miterlimit:10;stroke-dasharray:none;stroke-dashoffset:0;stroke-opacity:1;paint-order:normal"/><rect style="opacity:1;vector-effect:none;fill:red;fill-opacity:.51794876;fill-rule:evenodd;stroke:none;stroke-width:.31580329;stroke-linecap:butt;stroke-linejoin:miter;stroke-miterlimit:10;stroke-dasharray:none;stroke-dashoffset:0;stroke-opacity:1;paint-order:normal" id="rect56645" width="7.5" height="7.501" x="16.57" y="58.164"/><rect id="rect56647" width="7.5" height="7.501" x="16.57" y="68.165" style="opacity:1;vector-effect:none;fill:red;fill-opacity:.51794876;fill-rule:evenodd;stroke:none;stroke-width:.31580329;stroke-linecap:butt;stroke-linejoin:miter;stroke-miterlimit:10;stroke-dasharray:none;stroke-dashoffset:0;stroke-opacity:1;paint-order:normal"/><rect style="opacity:1;vector-effect:none;fill:red;fill-opacity:.51794876;fill-rule:evenodd;stroke:none;stroke-width:.31580329;stroke-linecap:butt;stroke-linejoin:miter;stroke-miterlimit:10;stroke-dasharray:none;stroke-dashoffset:0;stroke-opacity:1;paint-order:normal" id="rect56649" width="7.5" height="7.501" x="16.57" y="78.164"/><rect id="rect56651" width="7.5" height="7.501" x="16.57" y="88.164" style="opacity:1;vector-effect:none;fill:red;fill-opacity:.51794876;fill-rule:evenodd;stroke:none;stroke-width:.31580329;stroke-linecap:butt;stroke-linejoin:miter;stroke-miterlimit:10;stroke-dasharray:none;stroke-dashoffset:0;stroke-opacity:1;paint-order:normal"/><rect style="opacity:1;vector-effect:none;fill:red;fill-opacity:.51794876;fill-rule:evenodd;stroke:none;stroke-width:.31580329;stroke-linecap:butt;stroke-linejoin:miter;stroke-miterlimit:10;stroke-dasharray:none;stroke-dashoffset:0;stroke-opacity:1;paint-order:normal" id="rect56653" width="7.5" height="7.501" x="16.57" y="98.165"/><rect id="rect56655" width="7.5" height="7.501" x="16.57" y="108.166" style="opacity:1;vector-effect:none;fill:red;fill-opacity:.51794876;fill-rule:evenodd;stroke:none;stroke-width:.31580329;stroke-linecap:butt;stroke-linejoin:miter;stroke-miterlimit:10;stroke-dasharray:none;stroke-dashoffset:0;stroke-opacity:1;paint-order:normal"/><rect id="rect56657" width="8.213" height="8.212" x="4.214" y="17.81" style="opacity:1;vector-effect:none;fill:#0f0;fill-opacity:.51794876;fill-rule:evenodd;stroke:none;stroke-width:.34577003;stroke-linecap:butt;stroke-linejoin:miter;stroke-miterlimit:10;stroke-dasharray:none;stroke-dashoffset:0;stroke-opacity:1;paint-order:normal"/><rect style="opacity:1;vector-effect:none;fill:#0f0;fill-opacity:.51794876;fill-rule:evenodd;stroke:none;stroke-width:.34577003;stroke-linecap:butt;stroke-linejoin:miter;stroke-miterlimit:10;stroke-dasharray:none;stroke-dashoffset:0;stroke-opacity:1;paint-order:normal" id="rect56659" width="8.213" height="8.212" x="4.214" y="27.809"/><rect id="rect56661" width="8.213" height="8.212" x="4.214" y="37.809" style="opacity:1;vector-effect:none;fill:#0f0;fill-opacity:.51794876;fill-rule:evenodd;stroke:none;stroke-width:.34577003;stroke-linecap:butt;stroke-linejoin:miter;stroke-miterlimit:10;stroke-dasharray:none;stroke-dashoffset:0;stroke-opacity:1;paint-order:normal"/><rect style="opacity:1;vector-effect:none;fill:#0f0;fill-opacity:.51794876;fill-rule:evenodd;stroke:none;stroke-width:.34577003;stroke-linecap:butt;stroke-linejoin:miter;stroke-miterlimit:10;stroke-dasharray:none;stroke-dashoffset:0;stroke-opacity:1;paint-order:normal" id="rect56663" width="8.213" height="8.212" x="4.214" y="47.81"/><rect id="rect56665" width="8.213" height="8.212" x="4.214" y="57.81" style="opacity:1;vector-effect:none;fill:#0f0;fill-opacity:.51794876;fill-rule:evenodd;stroke:none;stroke-width:.34577003;stroke-linecap:butt;stroke-linejoin:miter;stroke-miterlimit:10;stroke-dasharray:none;stroke-dashoffset:0;stroke-opacity:1;paint-order:normal"/><rect style="opacity:1;vector-effect:none;fill:#0f0;fill-opacity:.51794876;fill-rule:evenodd;stroke:none;stroke-width:.34577003;stroke-linecap:butt;stroke-linejoin:miter;stroke-miterlimit:10;stroke-dasharray:none;stroke-dashoffset:0;stroke-opacity:1;paint-order:normal" id="rect56667" width="8.213" height="8.212" x="4.214" y="67.809"/><rect id="rect56669" width="8.213" height="8.212" x="4.214" y="77.81" style="opacity:1;vector-effect:none;fill:#0f0;fill-opacity:.51794876;fill-rule:evenodd;stroke:none;stroke-width:.34577003;stroke-linecap:butt;stroke-linejoin:miter;stroke-miterlimit:10;stroke-dasharray:none;stroke-dashoffset:0;stroke-opacity:1;paint-order:normal"/><rect style="opacity:1;vector-effect:none;fill:#0f0;fill-opacity:.51794876;fill-rule:evenodd;stroke:none;stroke-width:.34577003;stroke-linecap:butt;stroke-linejoin:miter;stroke-miterlimit:10;stroke-dasharray:none;stroke-dashoffset:0;stroke-opacity:1;paint-order:normal" id="rect56671" width="8.213" height="8.212" x="4.214" y="87.81"/><rect id="rect56673" width="8.213" height="8.212" x="4.214" y="97.809" style="opacity:1;vector-effect:none;fill:#0f0;fill-opacity:.51794876;fill-rule:evenodd;stroke:none;stroke-width:.34577003;stroke-linecap:butt;stroke-linejoin:miter;stroke-miterlimit:10;stroke-dasharray:none;stroke-dashoffset:0;stroke-opacity:1;paint-order:normal"/><rect style="opacity:1;vector-effect:none;fill:#0f0;fill-opacity:.51794876;fill-rule:evenodd;stroke:none;stroke-width:.34577003;stroke-linecap:butt;stroke-linejoin:miter;stroke-miterlimit:10;stroke-dasharray:none;stroke-dashoffset:0;stroke-opacity:1;paint-order:normal" id="rect56675" width="8.213" height="8.212" x="4.214" y="107.809"/><rect style="opacity:1;vector-effect:none;fill:#00f;fill-opacity:.51794876;fill-rule:evenodd;stroke:none;stroke-width:.34577003;stroke-linecap:butt;stroke-linejoin:miter;stroke-miterlimit:10;stroke-dasharray:none;stroke-dashoffset:0;stroke-opacity:1;paint-order:normal" id="rect56677" width="8.213" height="8.212" x="28.214" y="17.81"/><rect id="rect56679" width="8.213" height="8.212" x="28.214" y="27.809" style="opacity:1;vector-effect:none;fill:#00f;fill-opacity:.51794876;fill-rule:evenodd;stroke:none;stroke-width:.34577003;stroke-linecap:butt;stroke-linejoin:miter;stroke-miterlimit:10;stroke-dasharray:none;stroke-dashoffset:0;stroke-opacity:1;paint-order:normal"/><rect style="opacity:1;vector-effect:none;fill:#00f;fill-opacity:.51794876;fill-rule:evenodd;stroke:none;stroke-width:.34577003;stroke-linecap:butt;stroke-linejoin:miter;stroke-miterlimit:10;stroke-dasharray:none;stroke-dashoffset:0;stroke-opacity:1;paint-order:normal" id="rect56681" width="8.213" height="8.212" x="28.214" y="37.809"/><rect id="rect56683" width="8.213" height="8.212" x="28.214" y="47.81" style="opacity:1;vector-effect:none;fill:#00f;fill-opacity:.51794876;fill-rule:evenodd;stroke:none;stroke-width:.34577003;stroke-linecap:butt;stroke-linejoin:miter;stroke-miterlimit:10;stroke-dasharray:none;stroke-dashoffset:0;stroke-opacity:1;paint-order:normal"/><rect style="opacity:1;vector-effect:none;fill:#00f;fill-opacity:.51794876;fill-rule:evenodd;stroke:none;stroke-width:.34577003;stroke-linecap:butt;stroke-linejoin:miter;stroke-miterlimit:10;stroke-dasharray:none;stroke-dashoffset:0;stroke-opacity:1;paint-order:normal" id="rect56685" width="8.213" height="8.212" x="28.214" y="57.809"/><rect id="rect56687" width="8.213" height="8.212" x="28.214" y="67.809" style="opacity:1;vector-effect:none;fill:#00f;fill-opacity:.51794876;fill-rule:evenodd;stroke:none;stroke-width:.34577003;stroke-linecap:butt;stroke-linejoin:miter;stroke-miterlimit:10;stroke-dasharray:none;stroke-dashoffset:0;stroke-opacity:1;paint-order:normal"/><rect style="opacity:1;vector-effect:none;fill:#00f;fill-opacity:.51794876;fill-rule:evenodd;stroke:none;stroke-width:.34577003;stroke-linecap:butt;stroke-linejoin:miter;stroke-miterlimit:10;stroke-dasharray:none;stroke-dashoffset:0;stroke-opacity:1;paint-order:normal" id="rect56689" width="8.213" height="8.212" x="28.214" y="77.81"/><rect id="rect56691" width="8.213" height="8.212" x="28.214" y="87.81" style="opacity:1;vector-effect:none;fill:#00f;fill-opacity:.51794876;fill-rule:evenodd;stroke:none;stroke-width:.34577003;stroke-linecap:butt;stroke-linejoin:miter;stroke-miterlimit:10;stroke-dasharray:none;stroke-dashoffset:0;stroke-opacity:1;paint-order:normal"/><rect style="opacity:1;vector-effect:none;fill:#00f;fill-opacity:.51794876;fill-rule:evenodd;stroke:none;stroke-width:.34577003;stroke-linecap:butt;stroke-linejoin:miter;stroke-miterlimit:10;stroke-dasharray:none;stroke-dashoffset:0;stroke-opacity:1;paint-order:normal" id="rect56693" width="8.213" height="8.212" x="28.214" y="97.809"/><rect id="rect56695" width="8.213" height="8.212" x="28.214" y="107.809" style="opacity:1;vector-effect:none;fill:#00f;fill-opacity:.51794876;fill-rule:evenodd;stroke:none;stroke-width:.34577003;stroke-linecap:butt;stroke-linejoin:miter;stroke-miterlimit:10;stroke-dasharray:none;stroke-dashoffset:0;stroke-opacity:1;paint-order:normal"/><rect id="rect56697" width="6" height="6" x="17.32" y="18.915" style="opacity:1;vector-effect:none;fill:#f0f;fill-opacity:.51794876;fill-rule:evenodd;stroke:none;stroke-width:.25262523;stroke-linecap:butt;stroke-linejoin:miter;stroke-miterlimit:10;stroke-dasharray:none;stroke-dashoffset:0;stroke-opacity:1;paint-order:normal"/><rect style="opacity:1;vector-effect:none;fill:#f0f;fill-opacity:.51794876;fill-rule:evenodd;stroke:none;stroke-width:.25262523;stroke-linecap:butt;stroke-linejoin:miter;stroke-miterlimit:10;stroke-dasharray:none;stroke-dashoffset:0;stroke-opacity:1;paint-order:normal" id="rect56699" width="6" height="6" x="17.32" y="28.916"/><rect id="rect56701" width="6" height="6" x="17.32" y="38.915" style="opacity:1;vector-effect:none;fill:#f0f;fill-opacity:.51794876;fill-rule:evenodd;stroke:none;stroke-width:.25262523;stroke-linecap:butt;stroke-linejoin:miter;stroke-miterlimit:10;stroke-dasharray:none;stroke-dashoffset:0;stroke-opacity:1;paint-order:normal"/><rect style="opacity:1;vector-effect:none;fill:#f0f;fill-opacity:.51794876;fill-rule:evenodd;stroke:none;stroke-width:.25262523;stroke-linecap:butt;stroke-linejoin:miter;stroke-miterlimit:10;stroke-dasharray:none;stroke-dashoffset:0;stroke-opacity:1;paint-order:normal" id="rect56703" width="6" height="6" x="17.32" y="48.915"/><rect id="rect56705" width="6" height="6" x="17.32" y="58.916" style="opacity:1;vector-effect:none;fill:#f0f;fill-opacity:.51794876;fill-rule:evenodd;stroke:none;stroke-width:.25262523;stroke-linecap:butt;stroke-linejoin:miter;stroke-miterlimit:10;stroke-dasharray:none;stroke-dashoffset:0;stroke-opacity:1;paint-order:normal"/><rect style="opacity:1;vector-effect:none;fill:#f0f;fill-opacity:.51794876;fill-rule:evenodd;stroke:none;stroke-width:.25262523;stroke-linecap:butt;stroke-linejoin:miter;stroke-miterlimit:10;stroke-dasharray:none;stroke-dashoffset:0;stroke-opacity:1;paint-order:normal" id="rect56707" width="6" height="6" x="17.32" y="68.916"/><rect id="rect56709" width="6" height="6" x="17.32" y="78.915" style="opacity:1;vector-effect:none;fill:#f0f;fill-opacity:.51794876;fill-rule:evenodd;stroke:none;stroke-width:.25262523;stroke-linecap:butt;stroke-linejoin:miter;stroke-miterlimit:10;stroke-dasharray:none;stroke-dashoffset:0;stroke-opacity:1;paint-order:normal"/><rect style="opacity:1;vector-effect:none;fill:#f0f;fill-opacity:.51794876;fill-rule:evenodd;stroke:none;stroke-width:.25262523;stroke-linecap:butt;stroke-linejoin:miter;stroke-miterlimit:10;stroke-dasharray:none;stroke-dashoffset:0;stroke-opacity:1;paint-order:normal" id="rect56711" width="6" height="6" x="17.32" y="88.916"/><rect id="rect56713" width="6" height="6" x="17.32" y="98.915" style="opacity:1;vector-effect:none;fill:#f0f;fill-opacity:.51794876;fill-rule:evenodd;stroke:none;stroke-width:.25262523;stroke-linecap:butt;stroke-linejoin:miter;stroke-miterlimit:10;stroke-dasharray:none;stroke-dashoffset:0;stroke-opacity:1;paint-order:normal"/><rect style="opacity:1;vector-effect:none;fill:#f0f;fill-opacity:.51794876;fill-rule:evenodd;stroke:none;stroke-width:.25262523;stroke-linecap:butt;stroke-linejoin:miter;stroke-miterlimit:10;stroke-dasharray:none;stroke-dashoffset:0;stroke-opacity:1;paint-order:normal" id="rect56715" width="6" height="6" x="17.32" y="108.915"/></g></svg>