<svg xmlns="http://www.w3.org/2000/svg" xmlns:svg="http://www.w3.org/2000/svg" id="svg39763" width="115.203" height="485.667" version="1.1" viewBox="0 0 30.481 128.499"><defs id="defs39757"><clipPath id="clip1701"><rect id="rect12891" width="18" height="17" x="0" y="0"/></clipPath><clipPath id="clip1702"><path id="path12888" d="m 0.9375,0.964844 h 16.25 V 16.0625 h -16.25 z m 0,0"/></clipPath><clipPath id="clip1699"><rect id="rect12875" width="24" height="26" x="0" y="0"/></clipPath><clipPath id="clip1700"><path id="path12872" d="M 0.722656,0.726562 H 23.402344 V 25.46875 H 0.722656 Z m 0,0"/></clipPath><clipPath id="clip1697"><rect id="rect12859" width="18" height="16" x="0" y="0"/></clipPath><clipPath id="clip1698"><path id="path12856" d="m 0.9375,0.484375 h 16.25 v 15.097656 h -16.25 z m 0,0"/></clipPath><clipPath id="clip1695"><rect id="rect12843" width="24" height="25" x="0" y="0"/></clipPath><clipPath id="clip1696"><path id="path12840" d="M 0.722656,0.246094 H 23.402344 V 24.988281 H 0.722656 Z m 0,0"/></clipPath><clipPath id="clip1693"><rect id="rect12827" width="18" height="16" x="0" y="0"/></clipPath><clipPath id="clip1694"><path id="path12824" d="m 0.9375,0.425781 h 16.25 v 15.101563 h -16.25 z m 0,0"/></clipPath><clipPath id="clip1691"><rect id="rect12811" width="24" height="25" x="0" y="0"/></clipPath><clipPath id="clip1692"><path id="path12808" d="M 0.722656,0.191406 H 23.402344 V 24.933594 H 0.722656 Z m 0,0"/></clipPath><linearGradient id="linear17" x1="-.083" x2="1.019" y1="0" y2="0" gradientTransform="matrix(-0.06607104,-5.6160249,5.6160249,-0.06607104,41.986538,37.623783)" gradientUnits="userSpaceOnUse"><stop style="stop-color:#414042;stop-opacity:1" id="stop12682" offset="0"/><stop style="stop-color:#414042;stop-opacity:1" id="stop12684" offset=".063"/><stop style="stop-color:#414042;stop-opacity:1" id="stop12686" offset=".094"/><stop style="stop-color:#403f41;stop-opacity:1" id="stop12688" offset=".109"/><stop style="stop-color:#403e40;stop-opacity:1" id="stop12690" offset=".125"/><stop style="stop-color:#3f3e40;stop-opacity:1" id="stop12692" offset=".141"/><stop style="stop-color:#3f3d3f;stop-opacity:1" id="stop12694" offset=".156"/><stop style="stop-color:#3e3d3f;stop-opacity:1" id="stop12696" offset=".172"/><stop style="stop-color:#3e3c3e;stop-opacity:1" id="stop12698" offset=".188"/><stop style="stop-color:#3d3c3e;stop-opacity:1" id="stop12700" offset=".203"/><stop style="stop-color:#3d3b3d;stop-opacity:1" id="stop12702" offset=".219"/><stop style="stop-color:#3c3b3c;stop-opacity:1" id="stop12704" offset=".234"/><stop style="stop-color:#3b3a3c;stop-opacity:1" id="stop12706" offset=".25"/><stop style="stop-color:#3b393b;stop-opacity:1" id="stop12708" offset=".266"/><stop style="stop-color:#3a393b;stop-opacity:1" id="stop12710" offset=".281"/><stop style="stop-color:#3a383a;stop-opacity:1" id="stop12712" offset=".297"/><stop style="stop-color:#393839;stop-opacity:1" id="stop12714" offset=".313"/><stop style="stop-color:#393739;stop-opacity:1" id="stop12716" offset=".328"/><stop style="stop-color:#383738;stop-opacity:1" id="stop12718" offset=".344"/><stop style="stop-color:#383638;stop-opacity:1" id="stop12720" offset=".359"/><stop style="stop-color:#373537;stop-opacity:1" id="stop12722" offset=".375"/><stop style="stop-color:#373536;stop-opacity:1" id="stop12724" offset=".391"/><stop style="stop-color:#363436;stop-opacity:1" id="stop12726" offset=".406"/><stop style="stop-color:#363435;stop-opacity:1" id="stop12728" offset=".422"/><stop style="stop-color:#353335;stop-opacity:1" id="stop12730" offset=".438"/><stop style="stop-color:#353334;stop-opacity:1" id="stop12732" offset=".453"/><stop style="stop-color:#343234;stop-opacity:1" id="stop12734" offset=".469"/><stop style="stop-color:#343133;stop-opacity:1" id="stop12736" offset=".484"/><stop style="stop-color:#333132;stop-opacity:1" id="stop12738" offset=".5"/><stop style="stop-color:#333032;stop-opacity:1" id="stop12740" offset=".516"/><stop style="stop-color:#323031;stop-opacity:1" id="stop12742" offset=".531"/><stop style="stop-color:#322f31;stop-opacity:1" id="stop12744" offset=".547"/><stop style="stop-color:#312f30;stop-opacity:1" id="stop12746" offset=".563"/><stop style="stop-color:#312e2f;stop-opacity:1" id="stop12748" offset=".578"/><stop style="stop-color:#302d2f;stop-opacity:1" id="stop12750" offset=".594"/><stop style="stop-color:#302d2e;stop-opacity:1" id="stop12752" offset=".609"/><stop style="stop-color:#2f2c2e;stop-opacity:1" id="stop12754" offset=".625"/><stop style="stop-color:#2f2c2d;stop-opacity:1" id="stop12756" offset=".641"/><stop style="stop-color:#2e2b2d;stop-opacity:1" id="stop12758" offset=".656"/><stop style="stop-color:#2e2b2c;stop-opacity:1" id="stop12760" offset=".672"/><stop style="stop-color:#2d2a2b;stop-opacity:1" id="stop12762" offset=".688"/><stop style="stop-color:#2d292b;stop-opacity:1" id="stop12764" offset=".703"/><stop style="stop-color:#2c292a;stop-opacity:1" id="stop12766" offset=".719"/><stop style="stop-color:#2b282a;stop-opacity:1" id="stop12768" offset=".734"/><stop style="stop-color:#2b2829;stop-opacity:1" id="stop12770" offset=".75"/><stop style="stop-color:#2a2728;stop-opacity:1" id="stop12772" offset=".766"/><stop style="stop-color:#2a2728;stop-opacity:1" id="stop12774" offset=".781"/><stop style="stop-color:#292627;stop-opacity:1" id="stop12776" offset=".797"/><stop style="stop-color:#292527;stop-opacity:1" id="stop12778" offset=".813"/><stop style="stop-color:#282526;stop-opacity:1" id="stop12780" offset=".828"/><stop style="stop-color:#282425;stop-opacity:1" id="stop12782" offset=".844"/><stop style="stop-color:#272425;stop-opacity:1" id="stop12784" offset=".859"/><stop style="stop-color:#272324;stop-opacity:1" id="stop12786" offset=".875"/><stop style="stop-color:#262324;stop-opacity:1" id="stop12788" offset=".891"/><stop style="stop-color:#262223;stop-opacity:1" id="stop12790" offset=".906"/><stop style="stop-color:#252123;stop-opacity:1" id="stop12792" offset=".922"/><stop style="stop-color:#252122;stop-opacity:1" id="stop12794" offset=".938"/><stop style="stop-color:#242021;stop-opacity:1" id="stop12796" offset=".953"/><stop style="stop-color:#242021;stop-opacity:1" id="stop12798" offset=".969"/><stop style="stop-color:#231f20;stop-opacity:1" id="stop12800" offset="1"/></linearGradient><clipPath id="clip1687"><rect id="rect12668" width="17" height="16" x="0" y="0"/></clipPath><clipPath id="clip1688"><path id="path12665" d="m 0.199219,0.425781 h 16.25 v 15.101563 h -16.25 z m 0,0"/></clipPath><clipPath id="clip1685"><rect id="rect12652" width="24" height="25" x="0" y="0"/></clipPath><clipPath id="clip1686"><path id="path12649" d="M 0.984375,0.191406 H 23.664062 V 24.933594 H 0.984375 Z m 0,0"/></clipPath><clipPath id="clip1683"><rect id="rect12636" width="17" height="16" x="0" y="0"/></clipPath><clipPath id="clip1684"><path id="path12633" d="m 0.199219,0.601562 h 16.25 v 15.097657 h -16.25 z m 0,0"/></clipPath><clipPath id="clip1681"><rect id="rect12620" width="24" height="26" x="0" y="0"/></clipPath><clipPath id="clip1682"><path id="path12617" d="M 0.984375,0.363281 H 23.664062 V 25.105469 H 0.984375 Z m 0,0"/></clipPath><clipPath id="clip1678"><rect id="rect12601" width="18" height="16" x="0" y="0"/></clipPath><clipPath id="clip1679"><path id="path12598" d="m 0.9375,0.601562 h 16.25 v 15.097657 h -16.25 z m 0,0"/></clipPath><clipPath id="clip1676"><rect id="rect12585" width="24" height="26" x="0" y="0"/></clipPath><clipPath id="clip1677"><path id="path12582" d="M 0.722656,0.363281 H 23.402344 V 25.105469 H 0.722656 Z m 0,0"/></clipPath><linearGradient id="linear16" x1="-.083" x2="1.019" y1="0" y2="0" gradientTransform="matrix(-0.06607104,-5.6160249,5.6160249,-0.06607104,41.986538,91.668432)" gradientUnits="userSpaceOnUse"><stop style="stop-color:#414042;stop-opacity:1" id="stop12453" offset="0"/><stop style="stop-color:#414042;stop-opacity:1" id="stop12455" offset=".063"/><stop style="stop-color:#414042;stop-opacity:1" id="stop12457" offset=".094"/><stop style="stop-color:#403f41;stop-opacity:1" id="stop12459" offset=".109"/><stop style="stop-color:#403e40;stop-opacity:1" id="stop12461" offset=".125"/><stop style="stop-color:#3f3e40;stop-opacity:1" id="stop12463" offset=".141"/><stop style="stop-color:#3f3d3f;stop-opacity:1" id="stop12465" offset=".156"/><stop style="stop-color:#3e3d3f;stop-opacity:1" id="stop12467" offset=".172"/><stop style="stop-color:#3e3c3e;stop-opacity:1" id="stop12469" offset=".188"/><stop style="stop-color:#3d3c3e;stop-opacity:1" id="stop12471" offset=".203"/><stop style="stop-color:#3d3b3d;stop-opacity:1" id="stop12473" offset=".219"/><stop style="stop-color:#3c3b3c;stop-opacity:1" id="stop12475" offset=".234"/><stop style="stop-color:#3b3a3c;stop-opacity:1" id="stop12477" offset=".25"/><stop style="stop-color:#3b393b;stop-opacity:1" id="stop12479" offset=".266"/><stop style="stop-color:#3a393b;stop-opacity:1" id="stop12481" offset=".281"/><stop style="stop-color:#3a383a;stop-opacity:1" id="stop12483" offset=".297"/><stop style="stop-color:#393839;stop-opacity:1" id="stop12485" offset=".313"/><stop style="stop-color:#393739;stop-opacity:1" id="stop12487" offset=".328"/><stop style="stop-color:#383738;stop-opacity:1" id="stop12489" offset=".344"/><stop style="stop-color:#383638;stop-opacity:1" id="stop12491" offset=".359"/><stop style="stop-color:#373537;stop-opacity:1" id="stop12493" offset=".375"/><stop style="stop-color:#373536;stop-opacity:1" id="stop12495" offset=".391"/><stop style="stop-color:#363436;stop-opacity:1" id="stop12497" offset=".406"/><stop style="stop-color:#363435;stop-opacity:1" id="stop12499" offset=".422"/><stop style="stop-color:#353335;stop-opacity:1" id="stop12501" offset=".438"/><stop style="stop-color:#353334;stop-opacity:1" id="stop12503" offset=".453"/><stop style="stop-color:#343234;stop-opacity:1" id="stop12505" offset=".469"/><stop style="stop-color:#343133;stop-opacity:1" id="stop12507" offset=".484"/><stop style="stop-color:#333132;stop-opacity:1" id="stop12509" offset=".5"/><stop style="stop-color:#333032;stop-opacity:1" id="stop12511" offset=".516"/><stop style="stop-color:#323031;stop-opacity:1" id="stop12513" offset=".531"/><stop style="stop-color:#322f31;stop-opacity:1" id="stop12515" offset=".547"/><stop style="stop-color:#312f30;stop-opacity:1" id="stop12517" offset=".563"/><stop style="stop-color:#312e2f;stop-opacity:1" id="stop12519" offset=".578"/><stop style="stop-color:#302d2f;stop-opacity:1" id="stop12521" offset=".594"/><stop style="stop-color:#302d2e;stop-opacity:1" id="stop12523" offset=".609"/><stop style="stop-color:#2f2c2e;stop-opacity:1" id="stop12525" offset=".625"/><stop style="stop-color:#2f2c2d;stop-opacity:1" id="stop12527" offset=".641"/><stop style="stop-color:#2e2b2d;stop-opacity:1" id="stop12529" offset=".656"/><stop style="stop-color:#2e2b2c;stop-opacity:1" id="stop12531" offset=".672"/><stop style="stop-color:#2d2a2b;stop-opacity:1" id="stop12533" offset=".688"/><stop style="stop-color:#2d292b;stop-opacity:1" id="stop12535" offset=".703"/><stop style="stop-color:#2c292a;stop-opacity:1" id="stop12537" offset=".719"/><stop style="stop-color:#2b282a;stop-opacity:1" id="stop12539" offset=".734"/><stop style="stop-color:#2b2829;stop-opacity:1" id="stop12541" offset=".75"/><stop style="stop-color:#2a2728;stop-opacity:1" id="stop12543" offset=".766"/><stop style="stop-color:#2a2728;stop-opacity:1" id="stop12545" offset=".781"/><stop style="stop-color:#292627;stop-opacity:1" id="stop12547" offset=".797"/><stop style="stop-color:#292527;stop-opacity:1" id="stop12549" offset=".813"/><stop style="stop-color:#282526;stop-opacity:1" id="stop12551" offset=".828"/><stop style="stop-color:#282425;stop-opacity:1" id="stop12553" offset=".844"/><stop style="stop-color:#272425;stop-opacity:1" id="stop12555" offset=".859"/><stop style="stop-color:#272324;stop-opacity:1" id="stop12557" offset=".875"/><stop style="stop-color:#262324;stop-opacity:1" id="stop12559" offset=".891"/><stop style="stop-color:#262223;stop-opacity:1" id="stop12561" offset=".906"/><stop style="stop-color:#252123;stop-opacity:1" id="stop12563" offset=".922"/><stop style="stop-color:#252122;stop-opacity:1" id="stop12565" offset=".938"/><stop style="stop-color:#242021;stop-opacity:1" id="stop12567" offset=".953"/><stop style="stop-color:#242021;stop-opacity:1" id="stop12569" offset=".969"/><stop style="stop-color:#231f20;stop-opacity:1" id="stop12571" offset="1"/></linearGradient><clipPath id="clip1671"><rect id="rect12439" width="17" height="16" x="0" y="0"/></clipPath><clipPath id="clip1672"><path id="path12436" d="m 0.199219,0.890625 h 16.25 v 15.101563 h -16.25 z m 0,0"/></clipPath><clipPath id="clip1669"><rect id="rect12423" width="24" height="26" x="0" y="0"/></clipPath><clipPath id="clip1670"><path id="path12420" d="M 0.984375,0.65625 H 23.664062 V 25.398438 H 0.984375 Z m 0,0"/></clipPath><clipPath id="clip1667"><rect id="rect12407" width="18" height="16" x="0" y="0"/></clipPath><clipPath id="clip1668"><path id="path12404" d="m 0.9375,0.890625 h 16.25 v 15.101563 h -16.25 z m 0,0"/></clipPath><clipPath id="clip1665"><rect id="rect12391" width="24" height="26" x="0" y="0"/></clipPath><clipPath id="clip1666"><path id="path12388" d="M 0.722656,0.65625 H 23.402344 V 25.398438 H 0.722656 Z m 0,0"/></clipPath><clipPath id="clip1663"><rect id="rect12375" width="17" height="16" x="0" y="0"/></clipPath><clipPath id="clip1664"><path id="path12372" d="m 0.199219,0.710938 h 16.25 v 15.097656 h -16.25 z m 0,0"/></clipPath><clipPath id="clip1661"><rect id="rect12359" width="24" height="26" x="0" y="0"/></clipPath><clipPath id="clip1662"><path id="path12356" d="M 0.984375,0.476562 H 23.664062 V 25.214844 H 0.984375 Z m 0,0"/></clipPath><clipPath id="clip1658"><rect id="rect12340" width="18" height="16" x="0" y="0"/></clipPath><clipPath id="clip1659"><path id="path12337" d="m 0.9375,0.710938 h 16.25 v 15.097656 h -16.25 z m 0,0"/></clipPath><clipPath id="clip1656"><rect id="rect12324" width="24" height="26" x="0" y="0"/></clipPath><clipPath id="clip1657"><path id="path12321" d="M 0.722656,0.476562 H 23.402344 V 25.214844 H 0.722656 Z m 0,0"/></clipPath><clipPath id="clip1653"><rect id="rect12305" width="17" height="16" x="0" y="0"/></clipPath><clipPath id="clip1654"><path id="path12302" d="m 0.199219,0.53125 h 16.25 v 15.097656 h -16.25 z m 0,0"/></clipPath><clipPath id="clip1651"><rect id="rect12289" width="24" height="26" x="0" y="0"/></clipPath><clipPath id="clip1652"><path id="path12286" d="M 0.984375,0.292969 H 23.664062 V 25.035156 H 0.984375 Z m 0,0"/></clipPath><clipPath id="clip1648"><rect id="rect12270" width="18" height="16" x="0" y="0"/></clipPath><clipPath id="clip1649"><path id="path12267" d="m 0.9375,0.53125 h 16.25 v 15.097656 h -16.25 z m 0,0"/></clipPath><clipPath id="clip1646"><rect id="rect12254" width="24" height="26" x="0" y="0"/></clipPath><clipPath id="clip1647"><path id="path12251" d="M 0.722656,0.292969 H 23.402344 V 25.035156 H 0.722656 Z m 0,0"/></clipPath><clipPath id="clip1643"><rect id="rect12235" width="17" height="16" x="0" y="0"/></clipPath><clipPath id="clip1644"><path id="path12232" d="m 0.199219,0.78125 h 16.25 v 15.097656 h -16.25 z m 0,0"/></clipPath><clipPath id="clip1641"><rect id="rect12219" width="24" height="26" x="0" y="0"/></clipPath><clipPath id="clip1642"><path id="path12216" d="M 0.984375,0.546875 H 23.664062 V 25.285156 H 0.984375 Z m 0,0"/></clipPath><clipPath id="clip1639"><rect id="rect12203" width="17" height="17" x="0" y="0"/></clipPath><clipPath id="clip1640"><path id="path12200" d="m 0.199219,0.964844 h 16.25 V 16.0625 h -16.25 z m 0,0"/></clipPath><clipPath id="clip1637"><rect id="rect12187" width="24" height="26" x="0" y="0"/></clipPath><clipPath id="clip1638"><path id="path12184" d="M 0.984375,0.726562 H 23.664062 V 25.46875 H 0.984375 Z m 0,0"/></clipPath><clipPath id="clip1635"><rect id="rect12171" width="17" height="16" x="0" y="0"/></clipPath><clipPath id="clip1636"><path id="path12168" d="m 0.199219,0.484375 h 16.25 v 15.097656 h -16.25 z m 0,0"/></clipPath><clipPath id="clip1633"><rect id="rect12155" width="24" height="25" x="0" y="0"/></clipPath><clipPath id="clip1634"><path id="path12152" d="M 0.984375,0.246094 H 23.664062 V 24.988281 H 0.984375 Z m 0,0"/></clipPath><clipPath id="clip1631"><rect id="rect12139" width="18" height="16" x="0" y="0"/></clipPath><clipPath id="clip1632"><path id="path12136" d="m 0.9375,0.78125 h 16.25 v 15.097656 h -16.25 z m 0,0"/></clipPath><clipPath id="clip1629"><rect id="rect12123" width="24" height="26" x="0" y="0"/></clipPath><clipPath id="clip1630"><path id="path12120" d="M 0.722656,0.546875 H 23.402344 V 25.285156 H 0.722656 Z m 0,0"/></clipPath></defs><metadata id="metadata39760"/><g id="layer1" transform="translate(-26.714952,21.438638)"><path id="path15633" d="M 26.80865,-21.344932 H 57.102065 V 106.96833 H 26.80865 Z m 0,0" style="fill:#e6e6e6;fill-opacity:1;fill-rule:nonzero;stroke:none;stroke-width:.35277775"/><g id="use21197" transform="matrix(0.35277777,0,0,0.35277777,35.04934,-11.873503)" style="fill:#000;fill-opacity:1"><path id="path51277" d="m 4.515625,0.125 c 2.25,0 3.6875,-1.234375 3.6875,-3.78125 v -3.890625 c 0,-0.515625 -0.421875,-0.921875 -0.9375,-0.921875 -0.515625,0 -0.921875,0.40625 -0.921875,0.921875 v 3.953125 c 0,1.34375 -0.6875,2.015625 -1.8125,2.015625 -1.125,0 -1.8125,-0.703125 -1.8125,-2.0625 v -3.90625 C 2.71875,-8.0625 2.3125,-8.46875 1.796875,-8.46875 1.28125,-8.46875 0.875,-8.0625 0.875,-7.546875 V -3.59375 C 0.875,-1.125 2.25,0.125 4.515625,0.125 Z m 0,0" style="stroke:none"/></g><g id="use21201" transform="matrix(0.35277777,0,0,0.35277777,38.313214,-11.873503)" style="fill:#000;fill-opacity:1"><path id="path51281" d="m 1.015625,-0.84375 c 0,0.5 0.40625,0.921875 0.90625,0.921875 0.5,0 0.90625,-0.421875 0.90625,-0.921875 v -4.5 l 3.703125,4.859375 c 0.25,0.3125 0.515625,0.53125 0.953125,0.53125 h 0.0625 c 0.515625,0 0.921875,-0.40625 0.921875,-0.921875 v -6.6875 c 0,-0.5 -0.40625,-0.90625 -0.90625,-0.90625 -0.5,0 -0.921875,0.40625 -0.921875,0.90625 v 4.328125 L 3.078125,-7.90625 C 2.828125,-8.234375 2.5625,-8.453125 2.125,-8.453125 H 1.9375 c -0.515625,0 -0.921875,0.40625 -0.921875,0.921875 z m 0,0" style="stroke:none"/></g><g id="use21205" transform="matrix(0.35277777,0,0,0.35277777,41.69906,-11.873503)" style="fill:#000;fill-opacity:1"><path id="path51285" d="m 1.09375,-0.859375 c 0,0.515625 0.40625,0.9375 0.921875,0.9375 0.515625,0 0.921875,-0.421875 0.921875,-0.9375 v -6.6875 C 2.9375,-8.0625 2.53125,-8.46875 2.015625,-8.46875 1.5,-8.46875 1.09375,-8.0625 1.09375,-7.546875 Z m 0,0" style="stroke:none"/></g><g id="use21209" transform="matrix(0.35277777,0,0,0.35277777,43.08545,-11.873503)" style="fill:#000;fill-opacity:1"><path id="path51289" d="m 2.96875,-0.859375 c 0,0.515625 0.40625,0.9375 0.921875,0.9375 0.515625,0 0.921875,-0.421875 0.921875,-0.9375 v -5.84375 h 1.78125 c 0.46875,0 0.84375,-0.375 0.84375,-0.84375 0,-0.46875 -0.375,-0.859375 -0.84375,-0.859375 H 1.1875 c -0.46875,0 -0.84375,0.390625 -0.84375,0.859375 0,0.46875 0.375,0.84375 0.84375,0.84375 h 1.78125 z m 0,0" style="stroke:none"/></g><g id="use21213" transform="matrix(0.35277777,0,0,0.35277777,45.945067,-11.873503)" style="fill:#000;fill-opacity:1"><path id="path51293" d="m 3.203125,-0.859375 c 0,0.515625 0.40625,0.9375 0.921875,0.9375 0.515625,0 0.921875,-0.421875 0.921875,-0.9375 V -3.28125 L 7.765625,-6.9375 C 7.890625,-7.109375 8,-7.328125 8,-7.578125 8,-8.09375 7.671875,-8.484375 7.109375,-8.484375 6.71875,-8.484375 6.4375,-8.265625 6.21875,-7.9375 L 4.140625,-4.96875 2.09375,-7.90625 C 1.875,-8.25 1.609375,-8.46875 1.1875,-8.46875 c -0.515625,0 -0.921875,0.390625 -0.921875,0.890625 0,0.265625 0.09375,0.46875 0.21875,0.65625 l 2.71875,3.6875 z m 0,0" style="stroke:none"/></g><path id="path21217" d="m 42.526558,101.59123 c 0,0.22186 -0.180517,0.40101 -0.401003,0.40101 -0.221862,0 -0.401002,-0.17915 -0.401002,-0.40101 0,-0.22049 0.17914,-0.40101 0.401002,-0.40101 0.220486,0 0.401003,0.18052 0.401003,0.40101" style="fill:#000;fill-opacity:1;fill-rule:nonzero;stroke:none;stroke-width:.35277775"/><path id="path21219" d="m 39.20272,102.91828 c -0.117122,0 -0.223237,-0.0662 -0.275589,-0.17088 l -1.00323,-2.00504 c -0.07578,-0.15159 -0.01376,-0.33762 0.139206,-0.41341 0.151554,-0.0758 0.336233,-0.0138 0.413385,0.1378 l 0.726228,1.45383 0.726229,-1.45383 c 0.07581,-0.15158 0.261831,-0.2136 0.41342,-0.1378 0.152965,0.0758 0.214983,0.26182 0.137795,0.41341 l -1.001818,2.00504 c -0.05239,0.10473 -0.158468,0.17088 -0.275626,0.17088" style="fill:#000;fill-opacity:1;fill-rule:nonzero;stroke:none;stroke-width:.35277775"/><path id="path21221" d="m 44.707994,102.91828 c -0.115746,0 -0.223238,-0.0662 -0.275625,-0.17088 l -1.001819,-2.00504 c -0.07578,-0.15159 -0.01517,-0.33762 0.137795,-0.41341 0.151589,-0.0758 0.337644,-0.0138 0.413421,0.1378 l 0.726228,1.45383 0.726228,-1.45383 c 0.07715,-0.15158 0.261832,-0.2136 0.414797,-0.1378 0.151588,0.0758 0.213571,0.26182 0.137795,0.41341 l -1.001819,2.00504 c -0.05239,0.10473 -0.159879,0.17088 -0.277001,0.17088" style="fill:#000;fill-opacity:1;fill-rule:nonzero;stroke:none;stroke-width:.35277775"/><path id="path21223" d="m 42.104882,102.91828 c -0.722101,0 -1.310534,-0.58842 -1.310534,-1.31051 0,-0.72347 0.588433,-1.3119 1.310534,-1.3119 0.286632,0 0.558094,0.091 0.786871,0.26321 0.136419,0.10197 0.163971,0.2949 0.06198,0.43133 -0.103329,0.13642 -0.296263,0.16398 -0.432682,0.062 -0.119909,-0.091 -0.264583,-0.13919 -0.416172,-0.13919 -0.381705,0 -0.693173,0.31144 -0.693173,0.69454 0,0.38171 0.311468,0.69315 0.693173,0.69315 0.151589,0 0.296263,-0.0482 0.416172,-0.1378 0.136419,-0.10336 0.329353,-0.0758 0.432682,0.0606 0.101988,0.13642 0.07444,0.32935 -0.06198,0.4327 -0.228777,0.17088 -0.500239,0.26183 -0.786871,0.26183" style="fill:#000;fill-opacity:1;fill-rule:nonzero;stroke:none;stroke-width:.35277775"/><g id="use21225" transform="matrix(0.35277777,0,0,0.35277777,34.893263,-6.2754154)" style="fill:#000;fill-opacity:1"><path id="path51297" d="m 2.703125,0.078125 c 0.734375,0 1.21875,-0.234375 1.640625,-0.609375 0.078125,-0.0625 0.140625,-0.171875 0.140625,-0.28125 0,-0.203125 -0.1875,-0.375 -0.390625,-0.375 -0.09375,0 -0.171875,0.03125 -0.234375,0.09375 -0.328125,0.28125 -0.65625,0.4375 -1.140625,0.4375 -0.859375,0 -1.5,-0.734375 -1.5,-1.625 0,-0.890625 0.640625,-1.609375 1.5,-1.609375 0.4375,0 0.78125,0.15625 1.09375,0.40625 0.046875,0.046875 0.125,0.078125 0.234375,0.078125 0.21875,0 0.40625,-0.171875 0.40625,-0.390625 0,-0.140625 -0.078125,-0.25 -0.15625,-0.3125 C 3.890625,-4.421875 3.4375,-4.625 2.734375,-4.625 c -1.375,0 -2.34375,1.0625 -2.34375,2.34375 v 0.015625 c 0,1.3125 0.984375,2.34375 2.3125,2.34375 z m 0,0" style="stroke:none"/></g><g id="use21229" transform="matrix(0.35277777,0,0,0.35277777,36.657504,-6.2754154)" style="fill:#000;fill-opacity:1"><path id="path51301" d="m 0.578125,-0.359375 c 0,0.21875 0.1875,0.390625 0.40625,0.390625 0.21875,0 0.40625,-0.171875 0.40625,-0.390625 v -1.5625 H 3.5625 v 1.5625 c 0,0.21875 0.171875,0.390625 0.390625,0.390625 0.21875,0 0.40625,-0.171875 0.40625,-0.390625 V -4.1875 c 0,-0.21875 -0.1875,-0.390625 -0.40625,-0.390625 -0.21875,0 -0.390625,0.171875 -0.390625,0.390625 v 1.53125 H 1.390625 V -4.1875 c 0,-0.21875 -0.1875,-0.390625 -0.40625,-0.390625 -0.21875,0 -0.40625,0.171875 -0.40625,0.390625 z m 0,0" style="stroke:none"/></g><g id="use21233" transform="matrix(0.35277777,0,0,0.35277777,38.447331,-6.2754154)" style="fill:#000;fill-opacity:1"><path id="path51305" d="m 0.265625,-0.34375 c 0,0.21875 0.171875,0.375 0.375,0.375 0.171875,0 0.3125,-0.09375 0.375,-0.25 l 0.375,-0.875 h 2.21875 l 0.375,0.84375 c 0.0625,0.171875 0.1875,0.28125 0.390625,0.28125 0.203125,0 0.375,-0.171875 0.375,-0.375 0,-0.0625 -0.015625,-0.125 -0.046875,-0.171875 l -1.6875,-3.78125 c -0.09375,-0.1875 -0.25,-0.3125 -0.484375,-0.3125 H 2.5 c -0.234375,0 -0.390625,0.125 -0.484375,0.3125 l -1.6875,3.78125 c -0.03125,0.0625 -0.0625,0.125 -0.0625,0.171875 z M 1.703125,-1.8125 2.5,-3.640625 3.296875,-1.8125 Z m 0,0" style="stroke:none"/></g><g id="use21237" transform="matrix(0.35277777,0,0,0.35277777,40.266606,-6.2754154)" style="fill:#000;fill-opacity:1"><path id="path51309" d="m 0.578125,-0.359375 c 0,0.21875 0.1875,0.390625 0.40625,0.390625 0.21875,0 0.390625,-0.171875 0.390625,-0.390625 V -3.25 l 2.34375,3.03125 c 0.109375,0.140625 0.21875,0.25 0.40625,0.25 h 0.03125 c 0.21875,0 0.390625,-0.1875 0.390625,-0.40625 v -3.8125 c 0,-0.21875 -0.171875,-0.390625 -0.390625,-0.390625 -0.21875,0 -0.390625,0.171875 -0.390625,0.390625 v 2.796875 L 1.484375,-4.34375 C 1.375,-4.484375 1.265625,-4.578125 1.078125,-4.578125 h -0.09375 c -0.21875,0 -0.40625,0.1875 -0.40625,0.40625 z m 0,0" style="stroke:none"/></g><g id="use21241" transform="matrix(0.35277777,0,0,0.35277777,42.161843,-6.2754154)" style="fill:#000;fill-opacity:1"><path id="path51317" d="m 0.578125,-0.359375 c 0,0.21875 0.1875,0.390625 0.40625,0.390625 0.21875,0 0.390625,-0.171875 0.390625,-0.390625 V -3.25 l 2.34375,3.03125 c 0.109375,0.140625 0.21875,0.25 0.40625,0.25 h 0.03125 c 0.21875,0 0.390625,-0.1875 0.390625,-0.40625 v -3.8125 c 0,-0.21875 -0.171875,-0.390625 -0.390625,-0.390625 -0.21875,0 -0.390625,0.171875 -0.390625,0.390625 v 2.796875 L 1.484375,-4.34375 C 1.375,-4.484375 1.265625,-4.578125 1.078125,-4.578125 h -0.09375 c -0.21875,0 -0.40625,0.1875 -0.40625,0.40625 z m 0,0" style="stroke:none"/></g><g id="use21243" transform="matrix(0.35277777,0,0,0.35277777,44.058191,-6.2754154)" style="fill:#000;fill-opacity:1"><path id="path51313" d="m 0.984375,0 h 2.6875 c 0.1875,0 0.359375,-0.15625 0.359375,-0.359375 0,-0.1875 -0.171875,-0.359375 -0.359375,-0.359375 H 1.390625 V -1.9375 H 3.34375 c 0.1875,0 0.359375,-0.15625 0.359375,-0.34375 0,-0.203125 -0.171875,-0.375 -0.359375,-0.375 H 1.390625 v -1.171875 h 2.25 c 0.1875,0 0.34375,-0.15625 0.34375,-0.359375 0,-0.203125 -0.15625,-0.359375 -0.34375,-0.359375 h -2.65625 c -0.21875,0 -0.40625,0.171875 -0.40625,0.40625 V -0.40625 C 0.578125,-0.171875 0.765625,0 0.984375,0 Z m 0,0" style="stroke:none"/></g><g id="use21247" transform="matrix(0.35277777,0,0,0.35277777,45.65937,-6.2754154)" style="fill:#000;fill-opacity:1"><path id="path51321" d="M 0.578125,-0.40625 C 0.578125,-0.171875 0.765625,0 0.984375,0 H 3.4375 c 0.203125,0 0.375,-0.15625 0.375,-0.359375 0,-0.203125 -0.171875,-0.375 -0.375,-0.375 H 1.390625 V -4.1875 c 0,-0.21875 -0.1875,-0.390625 -0.40625,-0.390625 -0.21875,0 -0.40625,0.171875 -0.40625,0.390625 z m 0,0" style="stroke:none"/></g><g id="use21255" transform="matrix(0.35277777,0,0,0.35277777,48.109703,-6.2754154)" style="fill:#000;fill-opacity:1"><path id="path51325" d="m 1.15625,-0.359375 c 0,0.21875 0.1875,0.390625 0.390625,0.390625 0.234375,0 0.40625,-0.171875 0.40625,-0.390625 V -4.21875 c 0,-0.21875 -0.171875,-0.390625 -0.40625,-0.390625 -0.125,0 -0.234375,0.03125 -0.390625,0.078125 l -0.6875,0.21875 c -0.171875,0.046875 -0.28125,0.171875 -0.28125,0.34375 0,0.171875 0.171875,0.328125 0.359375,0.328125 0.03125,0 0.09375,0 0.140625,-0.015625 l 0.46875,-0.140625 z m 0,0" style="stroke:none"/></g><g id="use21259" transform="matrix(0.35277777,0,0,0.35277777,34.644872,47.675598)" style="fill:#000;fill-opacity:1"><path id="path51329" d="m 2.703125,0.078125 c 0.734375,0 1.21875,-0.234375 1.640625,-0.609375 0.078125,-0.0625 0.140625,-0.171875 0.140625,-0.28125 0,-0.203125 -0.1875,-0.375 -0.390625,-0.375 -0.09375,0 -0.171875,0.03125 -0.234375,0.09375 -0.328125,0.28125 -0.65625,0.4375 -1.140625,0.4375 -0.859375,0 -1.5,-0.734375 -1.5,-1.625 0,-0.890625 0.640625,-1.609375 1.5,-1.609375 0.4375,0 0.78125,0.15625 1.09375,0.40625 0.046875,0.046875 0.125,0.078125 0.234375,0.078125 0.21875,0 0.40625,-0.171875 0.40625,-0.390625 0,-0.140625 -0.078125,-0.25 -0.15625,-0.3125 C 3.890625,-4.421875 3.4375,-4.625 2.734375,-4.625 c -1.375,0 -2.34375,1.0625 -2.34375,2.34375 v 0.015625 c 0,1.3125 0.984375,2.34375 2.3125,2.34375 z m 0,0" style="stroke:none"/></g><g id="use21263" transform="matrix(0.35277777,0,0,0.35277777,36.409114,47.675598)" style="fill:#000;fill-opacity:1"><path id="path51333" d="m 0.578125,-0.359375 c 0,0.21875 0.1875,0.390625 0.40625,0.390625 0.21875,0 0.40625,-0.171875 0.40625,-0.390625 v -1.5625 H 3.5625 v 1.5625 c 0,0.21875 0.171875,0.390625 0.390625,0.390625 0.21875,0 0.40625,-0.171875 0.40625,-0.390625 V -4.1875 c 0,-0.21875 -0.1875,-0.390625 -0.40625,-0.390625 -0.21875,0 -0.390625,0.171875 -0.390625,0.390625 v 1.53125 H 1.390625 V -4.1875 c 0,-0.21875 -0.1875,-0.390625 -0.40625,-0.390625 -0.21875,0 -0.40625,0.171875 -0.40625,0.390625 z m 0,0" style="stroke:none"/></g><g id="use21267" transform="matrix(0.35277777,0,0,0.35277777,38.19894,47.675598)" style="fill:#000;fill-opacity:1"><path id="path51337" d="m 0.265625,-0.34375 c 0,0.21875 0.171875,0.375 0.375,0.375 0.171875,0 0.3125,-0.09375 0.375,-0.25 l 0.375,-0.875 h 2.21875 l 0.375,0.84375 c 0.0625,0.171875 0.1875,0.28125 0.390625,0.28125 0.203125,0 0.375,-0.171875 0.375,-0.375 0,-0.0625 -0.015625,-0.125 -0.046875,-0.171875 l -1.6875,-3.78125 c -0.09375,-0.1875 -0.25,-0.3125 -0.484375,-0.3125 H 2.5 c -0.234375,0 -0.390625,0.125 -0.484375,0.3125 l -1.6875,3.78125 c -0.03125,0.0625 -0.0625,0.125 -0.0625,0.171875 z M 1.703125,-1.8125 2.5,-3.640625 3.296875,-1.8125 Z m 0,0" style="stroke:none"/></g><g id="use21271" transform="matrix(0.35277777,0,0,0.35277777,40.018189,47.675598)" style="fill:#000;fill-opacity:1"><path id="path51341" d="m 0.578125,-0.359375 c 0,0.21875 0.1875,0.390625 0.40625,0.390625 0.21875,0 0.390625,-0.171875 0.390625,-0.390625 V -3.25 l 2.34375,3.03125 c 0.109375,0.140625 0.21875,0.25 0.40625,0.25 h 0.03125 c 0.21875,0 0.390625,-0.1875 0.390625,-0.40625 v -3.8125 c 0,-0.21875 -0.171875,-0.390625 -0.390625,-0.390625 -0.21875,0 -0.390625,0.171875 -0.390625,0.390625 v 2.796875 L 1.484375,-4.34375 C 1.375,-4.484375 1.265625,-4.578125 1.078125,-4.578125 h -0.09375 c -0.21875,0 -0.40625,0.1875 -0.40625,0.40625 z m 0,0" style="stroke:none"/></g><g id="use21275" transform="matrix(0.35277777,0,0,0.35277777,41.913452,47.675598)" style="fill:#000;fill-opacity:1"><path id="path51349" d="m 0.578125,-0.359375 c 0,0.21875 0.1875,0.390625 0.40625,0.390625 0.21875,0 0.390625,-0.171875 0.390625,-0.390625 V -3.25 l 2.34375,3.03125 c 0.109375,0.140625 0.21875,0.25 0.40625,0.25 h 0.03125 c 0.21875,0 0.390625,-0.1875 0.390625,-0.40625 v -3.8125 c 0,-0.21875 -0.171875,-0.390625 -0.390625,-0.390625 -0.21875,0 -0.390625,0.171875 -0.390625,0.390625 v 2.796875 L 1.484375,-4.34375 C 1.375,-4.484375 1.265625,-4.578125 1.078125,-4.578125 h -0.09375 c -0.21875,0 -0.40625,0.1875 -0.40625,0.40625 z m 0,0" style="stroke:none"/></g><g id="use21277" transform="matrix(0.35277777,0,0,0.35277777,43.8098,47.675598)" style="fill:#000;fill-opacity:1"><path id="path51345" d="m 0.984375,0 h 2.6875 c 0.1875,0 0.359375,-0.15625 0.359375,-0.359375 0,-0.1875 -0.171875,-0.359375 -0.359375,-0.359375 H 1.390625 V -1.9375 H 3.34375 c 0.1875,0 0.359375,-0.15625 0.359375,-0.34375 0,-0.203125 -0.171875,-0.375 -0.359375,-0.375 H 1.390625 v -1.171875 h 2.25 c 0.1875,0 0.34375,-0.15625 0.34375,-0.359375 0,-0.203125 -0.15625,-0.359375 -0.34375,-0.359375 h -2.65625 c -0.21875,0 -0.40625,0.171875 -0.40625,0.40625 V -0.40625 C 0.578125,-0.171875 0.765625,0 0.984375,0 Z m 0,0" style="stroke:none"/></g><g id="use21281" transform="matrix(0.35277777,0,0,0.35277777,45.410979,47.675598)" style="fill:#000;fill-opacity:1"><path id="path51353" d="M 0.578125,-0.40625 C 0.578125,-0.171875 0.765625,0 0.984375,0 H 3.4375 c 0.203125,0 0.375,-0.15625 0.375,-0.359375 0,-0.203125 -0.171875,-0.375 -0.375,-0.375 H 1.390625 V -4.1875 c 0,-0.21875 -0.1875,-0.390625 -0.40625,-0.390625 -0.21875,0 -0.40625,0.171875 -0.40625,0.390625 z m 0,0" style="stroke:none"/></g><g id="use21289" transform="matrix(0.35277777,0,0,0.35277777,47.860968,47.675135)" style="fill:#000;fill-opacity:1"><path id="path51357" d="M 0.28125,-0.375 C 0.28125,-0.140625 0.46875,0 0.703125,0 H 3.28125 c 0.203125,0 0.359375,-0.15625 0.359375,-0.34375 0,-0.203125 -0.15625,-0.359375 -0.359375,-0.359375 H 1.4375 L 2.375,-1.484375 C 3.1875,-2.140625 3.5625,-2.53125 3.5625,-3.25 c 0,-0.8125 -0.609375,-1.359375 -1.5,-1.359375 -0.71875,0 -1.140625,0.265625 -1.515625,0.734375 C 0.5,-3.8125 0.46875,-3.71875 0.46875,-3.640625 c 0,0.203125 0.15625,0.375 0.359375,0.375 0.125,0 0.21875,-0.0625 0.28125,-0.125 C 1.390625,-3.734375 1.640625,-3.90625 2,-3.90625 c 0.421875,0 0.734375,0.265625 0.734375,0.71875 0,0.40625 -0.21875,0.703125 -0.84375,1.21875 l -1.40625,1.1875 c -0.140625,0.125 -0.203125,0.25 -0.203125,0.40625 z m 0,0" style="stroke:none"/></g><path id="path21293" d="M 50.730016,53.81327 V 75.768175" style="fill:none;stroke:#000;stroke-width:.23495001;stroke-linecap:round;stroke-linejoin:round;stroke-miterlimit:10;stroke-opacity:1"/><path id="path21295" d="M 50.731392,-0.18515736 V 21.812466" style="fill:none;stroke:#000;stroke-width:.23495001;stroke-linecap:round;stroke-linejoin:round;stroke-miterlimit:10;stroke-opacity:1"/><path id="path21297" d="M 33.184826,-0.18515736 V 21.812466" style="fill:none;stroke:#000;stroke-width:.23495001;stroke-linecap:round;stroke-linejoin:round;stroke-miterlimit:10;stroke-opacity:1"/><path id="path21299" d="M 33.18345,53.81327 V 75.768175" style="fill:none;stroke:#000;stroke-width:.23495001;stroke-linecap:round;stroke-linejoin:round;stroke-miterlimit:10;stroke-opacity:1"/><g id="use21301" transform="matrix(0.35277777,0,0,0.35277777,39.366573,83.577862)" style="fill:#000;fill-opacity:1"><path id="path51365" d="m 0.265625,-0.34375 c 0,0.21875 0.171875,0.375 0.375,0.375 0.171875,0 0.3125,-0.09375 0.375,-0.25 l 0.375,-0.875 h 2.21875 l 0.375,0.84375 c 0.0625,0.171875 0.1875,0.28125 0.390625,0.28125 0.203125,0 0.375,-0.171875 0.375,-0.375 0,-0.0625 -0.015625,-0.125 -0.046875,-0.171875 l -1.6875,-3.78125 c -0.09375,-0.1875 -0.25,-0.3125 -0.484375,-0.3125 H 2.5 c -0.234375,0 -0.390625,0.125 -0.484375,0.3125 l -1.6875,3.78125 c -0.03125,0.0625 -0.0625,0.125 -0.0625,0.171875 z M 1.703125,-1.8125 2.5,-3.640625 3.296875,-1.8125 Z m 0,0" style="stroke:none"/></g><g id="use21303" transform="matrix(0.35277777,0,0,0.35277777,41.063425,83.577862)" style="fill:#000;fill-opacity:1"><path id="path51361" d="M 2.359375,0.0625 H 2.40625 c 0.21875,0 0.375,-0.125 0.453125,-0.328125 L 4.46875,-4.03125 C 4.484375,-4.078125 4.5,-4.140625 4.5,-4.203125 c 0,-0.203125 -0.171875,-0.375 -0.390625,-0.375 -0.1875,0 -0.328125,0.125 -0.390625,0.25 l -1.328125,3.3125 -1.3125,-3.28125 c -0.0625,-0.171875 -0.203125,-0.28125 -0.40625,-0.28125 -0.234375,0 -0.40625,0.171875 -0.40625,0.390625 0,0.0625 0.015625,0.125 0.046875,0.1875 l 1.59375,3.734375 C 1.984375,-0.0625 2.140625,0.0625 2.359375,0.0625 Z m 0,0" style="stroke:none"/></g><g id="use21307" transform="matrix(0.35277777,0,0,0.35277777,42.742392,83.577862)" style="fill:#000;fill-opacity:1"><path id="path51369" d="m 2.75,0.078125 c 0.671875,0 1.21875,-0.234375 1.609375,-0.5 0.1875,-0.109375 0.28125,-0.28125 0.28125,-0.5 v -1.21875 c 0,-0.21875 -0.171875,-0.40625 -0.40625,-0.40625 H 2.96875 c -0.1875,0 -0.359375,0.15625 -0.359375,0.359375 0,0.1875 0.171875,0.34375 0.359375,0.34375 H 3.875 V -1 c -0.28125,0.21875 -0.671875,0.34375 -1.109375,0.34375 -0.921875,0 -1.546875,-0.6875 -1.546875,-1.625 0,-0.875 0.640625,-1.609375 1.484375,-1.609375 0.484375,0 0.8125,0.140625 1.09375,0.359375 0.078125,0.046875 0.15625,0.09375 0.25,0.09375 0.21875,0 0.40625,-0.1875 0.40625,-0.40625 C 4.453125,-4 4.359375,-4.109375 4.28125,-4.171875 3.875,-4.46875 3.40625,-4.625 2.734375,-4.625 c -1.375,0 -2.34375,1.078125 -2.34375,2.34375 v 0.015625 c 0,1.328125 0.921875,2.34375 2.359375,2.34375 z m 0,0" style="stroke:none"/></g><g id="use21311" transform="matrix(0.35277777,0,0,0.35277777,39.27717,96.095652)" style="fill:#000;fill-opacity:1"><path id="path51377" d="m 2.171875,0.0625 c 0.96875,0 1.625,-0.5 1.625,-1.359375 V -1.3125 c 0,-0.75 -0.484375,-1.09375 -1.453125,-1.328125 C 1.46875,-2.84375 1.265625,-3 1.265625,-3.359375 1.265625,-3.671875 1.53125,-3.90625 2,-3.90625 c 0.359375,0 0.703125,0.109375 1.046875,0.34375 0.0625,0.046875 0.125,0.0625 0.203125,0.0625 0.21875,0 0.390625,-0.171875 0.390625,-0.375 0,-0.15625 -0.09375,-0.265625 -0.1875,-0.3125 -0.40625,-0.28125 -0.859375,-0.421875 -1.4375,-0.421875 -0.90625,0 -1.546875,0.53125 -1.546875,1.3125 v 0.015625 c 0,0.84375 0.53125,1.125 1.5,1.359375 0.859375,0.1875 1.03125,0.375 1.03125,0.6875 v 0.015625 c 0,0.34375 -0.3125,0.578125 -0.796875,0.578125 -0.5,0 -0.90625,-0.171875 -1.28125,-0.46875 C 0.875,-1.15625 0.796875,-1.1875 0.6875,-1.1875 c -0.203125,0 -0.375,0.171875 -0.375,0.375 0,0.125 0.0625,0.234375 0.15625,0.3125 0.5,0.375 1.09375,0.5625 1.703125,0.5625 z m 0,0" style="stroke:none"/></g><g id="use21313" transform="matrix(0.35277777,0,0,0.35277777,40.818077,96.095652)" style="fill:#000;fill-opacity:1"><path id="path51373" d="m 2.453125,0.078125 c 1.1875,0 1.953125,-0.6875 1.953125,-2.046875 V -4.1875 c 0,-0.21875 -0.171875,-0.390625 -0.390625,-0.390625 -0.234375,0 -0.40625,0.171875 -0.40625,0.390625 v 2.25 c 0,0.84375 -0.4375,1.265625 -1.140625,1.265625 C 1.75,-0.671875 1.3125,-1.125 1.3125,-1.96875 V -4.1875 c 0,-0.21875 -0.171875,-0.390625 -0.390625,-0.390625 -0.234375,0 -0.40625,0.171875 -0.40625,0.390625 v 2.25 c 0,1.328125 0.75,2.015625 1.9375,2.015625 z m 0,0" style="stroke:none"/></g><g id="use21317" transform="matrix(0.35277777,0,0,0.35277777,42.643385,96.095652)" style="fill:#000;fill-opacity:1"><path id="path51381" d="m 0.578125,-0.359375 c 0,0.21875 0.171875,0.390625 0.390625,0.390625 0.234375,0 0.40625,-0.171875 0.40625,-0.390625 v -2.71875 l 1.09375,1.65625 c 0.09375,0.125 0.203125,0.203125 0.34375,0.203125 0.140625,0 0.25,-0.078125 0.328125,-0.203125 L 4.25,-3.09375 v 2.734375 c 0,0.203125 0.1875,0.390625 0.40625,0.390625 0.21875,0 0.40625,-0.171875 0.40625,-0.390625 v -3.8125 c 0,-0.21875 -0.1875,-0.40625 -0.40625,-0.40625 H 4.5625 C 4.40625,-4.578125 4.296875,-4.5 4.203125,-4.375 l -1.375,2.171875 -1.390625,-2.15625 c -0.078125,-0.125 -0.1875,-0.21875 -0.359375,-0.21875 h -0.09375 c -0.21875,0 -0.40625,0.1875 -0.40625,0.40625 z m 0,0" style="stroke:none"/></g><g id="use21321" transform="matrix(0.35277777,0,0,0.35277777,39.366573,29.532836)" style="fill:#000;fill-opacity:1"><path id="path51389" d="m 0.265625,-0.34375 c 0,0.21875 0.171875,0.375 0.375,0.375 0.171875,0 0.3125,-0.09375 0.375,-0.25 l 0.375,-0.875 h 2.21875 l 0.375,0.84375 c 0.0625,0.171875 0.1875,0.28125 0.390625,0.28125 0.203125,0 0.375,-0.171875 0.375,-0.375 0,-0.0625 -0.015625,-0.125 -0.046875,-0.171875 l -1.6875,-3.78125 c -0.09375,-0.1875 -0.25,-0.3125 -0.484375,-0.3125 H 2.5 c -0.234375,0 -0.390625,0.125 -0.484375,0.3125 l -1.6875,3.78125 c -0.03125,0.0625 -0.0625,0.125 -0.0625,0.171875 z M 1.703125,-1.8125 2.5,-3.640625 3.296875,-1.8125 Z m 0,0" style="stroke:none"/></g><g id="use21323" transform="matrix(0.35277777,0,0,0.35277777,41.063425,29.532836)" style="fill:#000;fill-opacity:1"><path id="path51385" d="M 2.359375,0.0625 H 2.40625 c 0.21875,0 0.375,-0.125 0.453125,-0.328125 L 4.46875,-4.03125 C 4.484375,-4.078125 4.5,-4.140625 4.5,-4.203125 c 0,-0.203125 -0.171875,-0.375 -0.390625,-0.375 -0.1875,0 -0.328125,0.125 -0.390625,0.25 l -1.328125,3.3125 -1.3125,-3.28125 c -0.0625,-0.171875 -0.203125,-0.28125 -0.40625,-0.28125 -0.234375,0 -0.40625,0.171875 -0.40625,0.390625 0,0.0625 0.015625,0.125 0.046875,0.1875 l 1.59375,3.734375 C 1.984375,-0.0625 2.140625,0.0625 2.359375,0.0625 Z m 0,0" style="stroke:none"/></g><g id="use21327" transform="matrix(0.35277777,0,0,0.35277777,42.742392,29.532836)" style="fill:#000;fill-opacity:1"><path id="path51393" d="m 2.75,0.078125 c 0.671875,0 1.21875,-0.234375 1.609375,-0.5 0.1875,-0.109375 0.28125,-0.28125 0.28125,-0.5 v -1.21875 c 0,-0.21875 -0.171875,-0.40625 -0.40625,-0.40625 H 2.96875 c -0.1875,0 -0.359375,0.15625 -0.359375,0.359375 0,0.1875 0.171875,0.34375 0.359375,0.34375 H 3.875 V -1 c -0.28125,0.21875 -0.671875,0.34375 -1.109375,0.34375 -0.921875,0 -1.546875,-0.6875 -1.546875,-1.625 0,-0.875 0.640625,-1.609375 1.484375,-1.609375 0.484375,0 0.8125,0.140625 1.09375,0.359375 0.078125,0.046875 0.15625,0.09375 0.25,0.09375 0.21875,0 0.40625,-0.1875 0.40625,-0.40625 C 4.453125,-4 4.359375,-4.109375 4.28125,-4.171875 3.875,-4.46875 3.40625,-4.625 2.734375,-4.625 c -1.375,0 -2.34375,1.078125 -2.34375,2.34375 v 0.015625 c 0,1.328125 0.921875,2.34375 2.359375,2.34375 z m 0,0" style="stroke:none"/></g><g id="use21331" transform="matrix(0.35277777,0,0,0.35277777,39.27717,42.101073)" style="fill:#000;fill-opacity:1"><path id="path51401" d="m 2.171875,0.0625 c 0.96875,0 1.625,-0.5 1.625,-1.359375 V -1.3125 c 0,-0.75 -0.484375,-1.09375 -1.453125,-1.328125 C 1.46875,-2.84375 1.265625,-3 1.265625,-3.359375 1.265625,-3.671875 1.53125,-3.90625 2,-3.90625 c 0.359375,0 0.703125,0.109375 1.046875,0.34375 0.0625,0.046875 0.125,0.0625 0.203125,0.0625 0.21875,0 0.390625,-0.171875 0.390625,-0.375 0,-0.15625 -0.09375,-0.265625 -0.1875,-0.3125 -0.40625,-0.28125 -0.859375,-0.421875 -1.4375,-0.421875 -0.90625,0 -1.546875,0.53125 -1.546875,1.3125 v 0.015625 c 0,0.84375 0.53125,1.125 1.5,1.359375 0.859375,0.1875 1.03125,0.375 1.03125,0.6875 v 0.015625 c 0,0.34375 -0.3125,0.578125 -0.796875,0.578125 -0.5,0 -0.90625,-0.171875 -1.28125,-0.46875 C 0.875,-1.15625 0.796875,-1.1875 0.6875,-1.1875 c -0.203125,0 -0.375,0.171875 -0.375,0.375 0,0.125 0.0625,0.234375 0.15625,0.3125 0.5,0.375 1.09375,0.5625 1.703125,0.5625 z m 0,0" style="stroke:none"/></g><g id="use21333" transform="matrix(0.35277777,0,0,0.35277777,40.818077,42.101073)" style="fill:#000;fill-opacity:1"><path id="path51397" d="m 2.453125,0.078125 c 1.1875,0 1.953125,-0.6875 1.953125,-2.046875 V -4.1875 c 0,-0.21875 -0.171875,-0.390625 -0.390625,-0.390625 -0.234375,0 -0.40625,0.171875 -0.40625,0.390625 v 2.25 c 0,0.84375 -0.4375,1.265625 -1.140625,1.265625 C 1.75,-0.671875 1.3125,-1.125 1.3125,-1.96875 V -4.1875 c 0,-0.21875 -0.171875,-0.390625 -0.390625,-0.390625 -0.234375,0 -0.40625,0.171875 -0.40625,0.390625 v 2.25 c 0,1.328125 0.75,2.015625 1.9375,2.015625 z m 0,0" style="stroke:none"/></g><g id="use21337" transform="matrix(0.35277777,0,0,0.35277777,42.643385,42.101073)" style="fill:#000;fill-opacity:1"><path id="path51405" d="m 0.578125,-0.359375 c 0,0.21875 0.171875,0.390625 0.390625,0.390625 0.234375,0 0.40625,-0.171875 0.40625,-0.390625 v -2.71875 l 1.09375,1.65625 c 0.09375,0.125 0.203125,0.203125 0.34375,0.203125 0.140625,0 0.25,-0.078125 0.328125,-0.203125 L 4.25,-3.09375 v 2.734375 c 0,0.203125 0.1875,0.390625 0.40625,0.390625 0.21875,0 0.40625,-0.171875 0.40625,-0.390625 v -3.8125 c 0,-0.21875 -0.1875,-0.40625 -0.40625,-0.40625 H 4.5625 C 4.40625,-4.578125 4.296875,-4.5 4.203125,-4.375 l -1.375,2.171875 -1.390625,-2.15625 c -0.078125,-0.125 -0.1875,-0.21875 -0.359375,-0.21875 h -0.09375 c -0.21875,0 -0.40625,0.1875 -0.40625,0.40625 z m 0,0" style="stroke:none"/></g><path id="path21485" d="m 55.569704,28.935547 c 0,-0.549836 -0.449263,-1.000456 -0.999101,-1.000456 h -7.682548 c -0.54984,0 -1.000478,0.45062 -1.000478,1.000456 v 12.173588 c 0,0.549841 0.450638,0.999077 1.000478,0.999077 h 7.682548 c 0.549838,0 0.999101,-0.449236 0.999101,-0.999077 z m 0,0" style="fill:#000;fill-opacity:1;fill-rule:nonzero;stroke:none;stroke-width:.35277775"/><g id="use21487" transform="matrix(0.35277777,0,0,0.35277777,48.544466,31.271995)" style="fill:#fff;fill-opacity:1"><path id="path51409" d="m 0.59375,-0.46875 c 0,0.28125 0.21875,0.5 0.5,0.5 0.28125,0 0.5,-0.21875 0.5,-0.5 v -3.625 c 0,-0.28125 -0.21875,-0.5 -0.5,-0.5 -0.28125,0 -0.5,0.21875 -0.5,0.5 z m 0,0" style="stroke:none"/></g><g id="use21491" transform="matrix(0.35277777,0,0,0.35277777,49.391953,31.271995)" style="fill:#fff;fill-opacity:1"><path id="path51417" d="m 0.546875,-0.453125 c 0,0.265625 0.21875,0.484375 0.5,0.484375 0.265625,0 0.484375,-0.21875 0.484375,-0.484375 v -2.4375 l 2,2.625 C 3.671875,-0.09375 3.8125,0.03125 4.0625,0.03125 h 0.03125 c 0.28125,0 0.5,-0.21875 0.5,-0.5 v -3.625 c 0,-0.28125 -0.21875,-0.5 -0.5,-0.5 -0.265625,0 -0.5,0.21875 -0.5,0.5 V -1.75 L 1.671875,-4.28125 C 1.53125,-4.453125 1.390625,-4.578125 1.15625,-4.578125 H 1.046875 c -0.28125,0 -0.5,0.21875 -0.5,0.5 z m 0,0" style="stroke:none"/></g><g id="use21493" transform="matrix(0.35277777,0,0,0.35277777,51.249381,31.271995)" style="fill:#fff;fill-opacity:1"><path id="path51413" d="m 2.328125,0.078125 h 0.0625 c 0.28125,0 0.46875,-0.15625 0.5625,-0.40625 l 1.5,-3.5625 C 4.46875,-3.953125 4.5,-4.03125 4.5,-4.109375 4.5,-4.375 4.28125,-4.59375 4,-4.59375 c -0.234375,0 -0.40625,0.15625 -0.484375,0.328125 L 2.375,-1.296875 1.234375,-4.234375 c -0.078125,-0.203125 -0.25,-0.359375 -0.5,-0.359375 -0.28125,0 -0.5,0.21875 -0.5,0.5 0,0.078125 0.015625,0.15625 0.046875,0.234375 l 1.484375,3.53125 c 0.09375,0.25 0.28125,0.40625 0.5625,0.40625 z m 0,0" style="stroke:none"/></g><path id="path21497" d="m 38.023138,28.935547 c 0,-0.549836 -0.449263,-1.000456 -0.999102,-1.000456 h -7.682548 c -0.549839,0 -1.000442,0.45062 -1.000442,1.000456 v 12.173588 c 0,0.549841 0.450603,0.999077 1.000442,0.999077 h 7.682548 c 0.549839,0 0.999102,-0.449236 0.999102,-0.999077 z m 0,0" style="fill:#000;fill-opacity:1;fill-rule:nonzero;stroke:none;stroke-width:.35277775"/><g id="use21499" transform="matrix(0.35277777,0,0,0.35277777,30.527294,31.271995)" style="fill:#fff;fill-opacity:1"><path id="path51421" d="m 2.75,0.078125 c 1.40625,0 2.4375,-1.0625 2.4375,-2.359375 0,-1.296875 -1.015625,-2.34375 -2.421875,-2.34375 -1.40625,0 -2.421875,1.0625 -2.421875,2.34375 v 0.015625 c 0,1.296875 1.015625,2.34375 2.40625,2.34375 z M 2.765625,-0.84375 c -0.796875,0 -1.375,-0.65625 -1.375,-1.4375 0,-0.78125 0.5625,-1.421875 1.359375,-1.421875 0.8125,0 1.390625,0.640625 1.390625,1.421875 v 0.015625 c 0,0.78125 -0.5625,1.421875 -1.375,1.421875 z m 0,0" style="stroke:none"/></g><g id="use21503" transform="matrix(0.35277777,0,0,0.35277777,32.554134,31.271995)" style="fill:#fff;fill-opacity:1"><path id="path51429" d="m 2.4375,0.078125 c 1.234375,0 2,-0.6875 2,-2.0625 V -4.09375 c 0,-0.28125 -0.21875,-0.5 -0.5,-0.5 -0.28125,0 -0.5,0.21875 -0.5,0.5 v 2.15625 c 0,0.71875 -0.375,1.09375 -0.984375,1.09375 -0.609375,0 -0.984375,-0.390625 -0.984375,-1.125 v -2.125 c 0,-0.28125 -0.21875,-0.5 -0.5,-0.5 -0.265625,0 -0.5,0.21875 -0.5,0.5 v 2.140625 c 0,1.34375 0.75,2.03125 1.96875,2.03125 z m 0,0" style="stroke:none"/></g><g id="use21505" transform="matrix(0.35277777,0,0,0.35277777,34.351872,31.271995)" style="fill:#fff;fill-opacity:1"><path id="path51425" d="m 1.609375,-0.46875 c 0,0.28125 0.21875,0.5 0.5,0.5 0.28125,0 0.5,-0.21875 0.5,-0.5 V -3.625 H 3.5625 c 0.265625,0 0.46875,-0.203125 0.46875,-0.46875 0,-0.25 -0.203125,-0.453125 -0.46875,-0.453125 H 0.640625 c -0.25,0 -0.453125,0.203125 -0.453125,0.453125 0,0.265625 0.203125,0.46875 0.453125,0.46875 h 0.96875 z m 0,0" style="stroke:none"/></g><path id="path21509" d="m 55.569704,82.980822 c 0,-0.54984 -0.449263,-1.00045 -0.999101,-1.00045 h -7.682548 c -0.54984,0 -1.000478,0.45061 -1.000478,1.00045 v 12.17221 c 0,0.54984 0.450638,1.00046 1.000478,1.00046 h 7.682548 c 0.549838,0 0.999101,-0.45062 0.999101,-1.00046 z m 0,0" style="fill:#000;fill-opacity:1;fill-rule:nonzero;stroke:none;stroke-width:.35277775"/><g id="use21511" transform="matrix(0.35277777,0,0,0.35277777,48.544466,85.316602)" style="fill:#fff;fill-opacity:1"><path id="path51433" d="m 0.59375,-0.46875 c 0,0.28125 0.21875,0.5 0.5,0.5 0.28125,0 0.5,-0.21875 0.5,-0.5 v -3.625 c 0,-0.28125 -0.21875,-0.5 -0.5,-0.5 -0.28125,0 -0.5,0.21875 -0.5,0.5 z m 0,0" style="stroke:none"/></g><g id="use21515" transform="matrix(0.35277777,0,0,0.35277777,49.391953,85.316602)" style="fill:#fff;fill-opacity:1"><path id="path51441" d="m 0.546875,-0.453125 c 0,0.265625 0.21875,0.484375 0.5,0.484375 0.265625,0 0.484375,-0.21875 0.484375,-0.484375 v -2.4375 l 2,2.625 C 3.671875,-0.09375 3.8125,0.03125 4.0625,0.03125 h 0.03125 c 0.28125,0 0.5,-0.21875 0.5,-0.5 v -3.625 c 0,-0.28125 -0.21875,-0.5 -0.5,-0.5 -0.265625,0 -0.5,0.21875 -0.5,0.5 V -1.75 L 1.671875,-4.28125 C 1.53125,-4.453125 1.390625,-4.578125 1.15625,-4.578125 H 1.046875 c -0.28125,0 -0.5,0.21875 -0.5,0.5 z m 0,0" style="stroke:none"/></g><g id="use21517" transform="matrix(0.35277777,0,0,0.35277777,51.249381,85.316602)" style="fill:#fff;fill-opacity:1"><path id="path51437" d="m 2.328125,0.078125 h 0.0625 c 0.28125,0 0.46875,-0.15625 0.5625,-0.40625 l 1.5,-3.5625 C 4.46875,-3.953125 4.5,-4.03125 4.5,-4.109375 4.5,-4.375 4.28125,-4.59375 4,-4.59375 c -0.234375,0 -0.40625,0.15625 -0.484375,0.328125 L 2.375,-1.296875 1.234375,-4.234375 c -0.078125,-0.203125 -0.25,-0.359375 -0.5,-0.359375 -0.28125,0 -0.5,0.21875 -0.5,0.5 0,0.078125 0.015625,0.15625 0.046875,0.234375 l 1.484375,3.53125 c 0.09375,0.25 0.28125,0.40625 0.5625,0.40625 z m 0,0" style="stroke:none"/></g><path id="path21521" d="m 38.023138,82.980822 c 0,-0.54984 -0.449263,-1.00045 -0.999102,-1.00045 h -7.682548 c -0.549839,0 -1.000442,0.45061 -1.000442,1.00045 v 12.17221 c 0,0.54984 0.450603,1.00046 1.000442,1.00046 h 7.682548 c 0.549839,0 0.999102,-0.45062 0.999102,-1.00046 z m 0,0" style="fill:#000;fill-opacity:1;fill-rule:nonzero;stroke:none;stroke-width:.35277775"/><g id="use21523" transform="matrix(0.35277777,0,0,0.35277777,30.527294,85.316602)" style="fill:#fff;fill-opacity:1"><path id="path51445" d="m 2.75,0.078125 c 1.40625,0 2.4375,-1.0625 2.4375,-2.359375 0,-1.296875 -1.015625,-2.34375 -2.421875,-2.34375 -1.40625,0 -2.421875,1.0625 -2.421875,2.34375 v 0.015625 c 0,1.296875 1.015625,2.34375 2.40625,2.34375 z M 2.765625,-0.84375 c -0.796875,0 -1.375,-0.65625 -1.375,-1.4375 0,-0.78125 0.5625,-1.421875 1.359375,-1.421875 0.8125,0 1.390625,0.640625 1.390625,1.421875 v 0.015625 c 0,0.78125 -0.5625,1.421875 -1.375,1.421875 z m 0,0" style="stroke:none"/></g><g id="use21527" transform="matrix(0.35277777,0,0,0.35277777,32.554134,85.316602)" style="fill:#fff;fill-opacity:1"><path id="path51453" d="m 2.4375,0.078125 c 1.234375,0 2,-0.6875 2,-2.0625 V -4.09375 c 0,-0.28125 -0.21875,-0.5 -0.5,-0.5 -0.28125,0 -0.5,0.21875 -0.5,0.5 v 2.15625 c 0,0.71875 -0.375,1.09375 -0.984375,1.09375 -0.609375,0 -0.984375,-0.390625 -0.984375,-1.125 v -2.125 c 0,-0.28125 -0.21875,-0.5 -0.5,-0.5 -0.265625,0 -0.5,0.21875 -0.5,0.5 v 2.140625 c 0,1.34375 0.75,2.03125 1.96875,2.03125 z m 0,0" style="stroke:none"/></g><g id="use21529" transform="matrix(0.35277777,0,0,0.35277777,34.351872,85.316602)" style="fill:#fff;fill-opacity:1"><path id="path51449" d="m 1.609375,-0.46875 c 0,0.28125 0.21875,0.5 0.5,0.5 0.28125,0 0.5,-0.21875 0.5,-0.5 V -3.625 H 3.5625 c 0.265625,0 0.46875,-0.203125 0.46875,-0.46875 0,-0.25 -0.203125,-0.453125 -0.46875,-0.453125 H 0.640625 c -0.25,0 -0.453125,0.203125 -0.453125,0.453125 0,0.265625 0.203125,0.46875 0.453125,0.46875 h 0.96875 z m 0,0" style="stroke:none"/></g></g><g id="layer2" style="display:none"><rect style="opacity:1;vector-effect:none;fill:#0f0;fill-opacity:.51794876;fill-rule:evenodd;stroke:none;stroke-width:.59214479;stroke-linecap:butt;stroke-linejoin:miter;stroke-miterlimit:10;stroke-dasharray:none;stroke-dashoffset:0;stroke-opacity:1;paint-order:normal" id="rect54159" width="8.213" height="8.212" x="2.361" y="17.144"/><rect id="rect54161" width="8.213" height="8.212" x="19.907" y="17.144" style="opacity:1;vector-effect:none;fill:#0f0;fill-opacity:.51794876;fill-rule:evenodd;stroke:none;stroke-width:.59214479;stroke-linecap:butt;stroke-linejoin:miter;stroke-miterlimit:10;stroke-dasharray:none;stroke-dashoffset:0;stroke-opacity:1;paint-order:normal"/><rect style="opacity:1;vector-effect:none;fill:#0f0;fill-opacity:.51794876;fill-rule:evenodd;stroke:none;stroke-width:.59214479;stroke-linecap:butt;stroke-linejoin:miter;stroke-miterlimit:10;stroke-dasharray:none;stroke-dashoffset:0;stroke-opacity:1;paint-order:normal" id="rect54163" width="8.213" height="8.212" x="2.361" y="28.145"/><rect id="rect54165" width="8.213" height="8.212" x="19.907" y="28.145" style="opacity:1;vector-effect:none;fill:#0f0;fill-opacity:.51794876;fill-rule:evenodd;stroke:none;stroke-width:.59214479;stroke-linecap:butt;stroke-linejoin:miter;stroke-miterlimit:10;stroke-dasharray:none;stroke-dashoffset:0;stroke-opacity:1;paint-order:normal"/><rect style="opacity:1;vector-effect:none;fill:#0f0;fill-opacity:.51794876;fill-rule:evenodd;stroke:none;stroke-width:.59214479;stroke-linecap:butt;stroke-linejoin:miter;stroke-miterlimit:10;stroke-dasharray:none;stroke-dashoffset:0;stroke-opacity:1;paint-order:normal" id="rect54167" width="8.213" height="8.212" x="2.361" y="39.145"/><rect id="rect54169" width="8.213" height="8.212" x="19.907" y="39.145" style="opacity:1;vector-effect:none;fill:#0f0;fill-opacity:.51794876;fill-rule:evenodd;stroke:none;stroke-width:.59214479;stroke-linecap:butt;stroke-linejoin:miter;stroke-miterlimit:10;stroke-dasharray:none;stroke-dashoffset:0;stroke-opacity:1;paint-order:normal"/><rect style="opacity:1;vector-effect:none;fill:#0f0;fill-opacity:.51794876;fill-rule:evenodd;stroke:none;stroke-width:.59214479;stroke-linecap:butt;stroke-linejoin:miter;stroke-miterlimit:10;stroke-dasharray:none;stroke-dashoffset:0;stroke-opacity:1;paint-order:normal" id="rect54171" width="8.213" height="8.212" x="2.361" y="71.145"/><rect id="rect54173" width="8.213" height="8.212" x="19.907" y="71.145" style="opacity:1;vector-effect:none;fill:#0f0;fill-opacity:.51794876;fill-rule:evenodd;stroke:none;stroke-width:.59214479;stroke-linecap:butt;stroke-linejoin:miter;stroke-miterlimit:10;stroke-dasharray:none;stroke-dashoffset:0;stroke-opacity:1;paint-order:normal"/><rect style="opacity:1;vector-effect:none;fill:#0f0;fill-opacity:.51794876;fill-rule:evenodd;stroke:none;stroke-width:.59214479;stroke-linecap:butt;stroke-linejoin:miter;stroke-miterlimit:10;stroke-dasharray:none;stroke-dashoffset:0;stroke-opacity:1;paint-order:normal" id="rect54175" width="8.213" height="8.212" x="2.361" y="82.145"/><rect id="rect54177" width="8.213" height="8.212" x="19.907" y="82.145" style="opacity:1;vector-effect:none;fill:#0f0;fill-opacity:.51794876;fill-rule:evenodd;stroke:none;stroke-width:.59214479;stroke-linecap:butt;stroke-linejoin:miter;stroke-miterlimit:10;stroke-dasharray:none;stroke-dashoffset:0;stroke-opacity:1;paint-order:normal"/><rect style="opacity:1;vector-effect:none;fill:#0f0;fill-opacity:.51794876;fill-rule:evenodd;stroke:none;stroke-width:.59214479;stroke-linecap:butt;stroke-linejoin:miter;stroke-miterlimit:10;stroke-dasharray:none;stroke-dashoffset:0;stroke-opacity:1;paint-order:normal" id="rect54179" width="8.213" height="8.212" x="2.361" y="93.144"/><rect id="rect54181" width="8.213" height="8.212" x="19.907" y="93.144" style="opacity:1;vector-effect:none;fill:#0f0;fill-opacity:.51794876;fill-rule:evenodd;stroke:none;stroke-width:.59214479;stroke-linecap:butt;stroke-linejoin:miter;stroke-miterlimit:10;stroke-dasharray:none;stroke-dashoffset:0;stroke-opacity:1;paint-order:normal"/><rect id="rect54183" width="8.213" height="8.212" x="2.361" y="54.15" style="opacity:1;vector-effect:none;fill:#00f;fill-opacity:.51794876;fill-rule:evenodd;stroke:none;stroke-width:.59214479;stroke-linecap:butt;stroke-linejoin:miter;stroke-miterlimit:10;stroke-dasharray:none;stroke-dashoffset:0;stroke-opacity:1;paint-order:normal"/><rect style="opacity:1;vector-effect:none;fill:#00f;fill-opacity:.51794876;fill-rule:evenodd;stroke:none;stroke-width:.59214479;stroke-linecap:butt;stroke-linejoin:miter;stroke-miterlimit:10;stroke-dasharray:none;stroke-dashoffset:0;stroke-opacity:1;paint-order:normal" id="rect54185" width="8.213" height="8.212" x="19.907" y="54.15"/><rect id="rect54187" width="8.213" height="8.212" x="2.361" y="108.144" style="opacity:1;vector-effect:none;fill:#00f;fill-opacity:.51794876;fill-rule:evenodd;stroke:none;stroke-width:.59214479;stroke-linecap:butt;stroke-linejoin:miter;stroke-miterlimit:10;stroke-dasharray:none;stroke-dashoffset:0;stroke-opacity:1;paint-order:normal"/><rect style="opacity:1;vector-effect:none;fill:#00f;fill-opacity:.51794876;fill-rule:evenodd;stroke:none;stroke-width:.59214479;stroke-linecap:butt;stroke-linejoin:miter;stroke-miterlimit:10;stroke-dasharray:none;stroke-dashoffset:0;stroke-opacity:1;paint-order:normal" id="rect54189" width="8.213" height="8.212" x="19.907" y="108.144"/><rect style="opacity:1;vector-effect:none;fill:red;fill-opacity:.51794876;fill-rule:evenodd;stroke:none;stroke-width:.41562662;stroke-linecap:butt;stroke-linejoin:miter;stroke-miterlimit:10;stroke-dasharray:none;stroke-dashoffset:0;stroke-opacity:1;paint-order:normal" id="rect54191" width="4.747" height="6.999" x="12.867" y="52.961"/><rect id="rect54193" width="4.747" height="6.999" x="12.867" y="107.006" style="opacity:1;vector-effect:none;fill:red;fill-opacity:.51794876;fill-rule:evenodd;stroke:none;stroke-width:.41562662;stroke-linecap:butt;stroke-linejoin:miter;stroke-miterlimit:10;stroke-dasharray:none;stroke-dashoffset:0;stroke-opacity:1;paint-order:normal"/><rect id="rect54195" width="3.176" height="3.176" x="13.652" y="19.663" style="opacity:1;vector-effect:none;fill:#f0f;fill-opacity:.51794876;fill-rule:evenodd;stroke:none;stroke-width:.22902854;stroke-linecap:butt;stroke-linejoin:miter;stroke-miterlimit:10;stroke-dasharray:none;stroke-dashoffset:0;stroke-opacity:1;paint-order:normal"/><rect style="opacity:1;vector-effect:none;fill:#f0f;fill-opacity:.51794876;fill-rule:evenodd;stroke:none;stroke-width:.22902854;stroke-linecap:butt;stroke-linejoin:miter;stroke-miterlimit:10;stroke-dasharray:none;stroke-dashoffset:0;stroke-opacity:1;paint-order:normal" id="rect54197" width="3.176" height="3.176" x="13.652" y="25.163"/><rect id="rect54199" width="3.176" height="3.176" x="13.652" y="30.663" style="opacity:1;vector-effect:none;fill:#f0f;fill-opacity:.51794876;fill-rule:evenodd;stroke:none;stroke-width:.22902854;stroke-linecap:butt;stroke-linejoin:miter;stroke-miterlimit:10;stroke-dasharray:none;stroke-dashoffset:0;stroke-opacity:1;paint-order:normal"/><rect style="opacity:1;vector-effect:none;fill:#f0f;fill-opacity:.51794876;fill-rule:evenodd;stroke:none;stroke-width:.22902854;stroke-linecap:butt;stroke-linejoin:miter;stroke-miterlimit:10;stroke-dasharray:none;stroke-dashoffset:0;stroke-opacity:1;paint-order:normal" id="rect54201" width="3.176" height="3.176" x="13.652" y="36.162"/><rect id="rect54203" width="3.176" height="3.176" x="13.652" y="41.662" style="opacity:1;vector-effect:none;fill:#f0f;fill-opacity:.51794876;fill-rule:evenodd;stroke:none;stroke-width:.22902854;stroke-linecap:butt;stroke-linejoin:miter;stroke-miterlimit:10;stroke-dasharray:none;stroke-dashoffset:0;stroke-opacity:1;paint-order:normal"/><rect style="opacity:1;vector-effect:none;fill:#f0f;fill-opacity:.51794876;fill-rule:evenodd;stroke:none;stroke-width:.22902854;stroke-linecap:butt;stroke-linejoin:miter;stroke-miterlimit:10;stroke-dasharray:none;stroke-dashoffset:0;stroke-opacity:1;paint-order:normal" id="rect54205" width="3.176" height="3.176" x="13.652" y="73.663"/><rect id="rect54207" width="3.176" height="3.176" x="13.652" y="79.163" style="opacity:1;vector-effect:none;fill:#f0f;fill-opacity:.51794876;fill-rule:evenodd;stroke:none;stroke-width:.22902854;stroke-linecap:butt;stroke-linejoin:miter;stroke-miterlimit:10;stroke-dasharray:none;stroke-dashoffset:0;stroke-opacity:1;paint-order:normal"/><rect style="opacity:1;vector-effect:none;fill:#f0f;fill-opacity:.51794876;fill-rule:evenodd;stroke:none;stroke-width:.22902854;stroke-linecap:butt;stroke-linejoin:miter;stroke-miterlimit:10;stroke-dasharray:none;stroke-dashoffset:0;stroke-opacity:1;paint-order:normal" id="rect54209" width="3.176" height="3.176" x="13.652" y="84.663"/><rect id="rect54211" width="3.176" height="3.176" x="13.652" y="90.162" style="opacity:1;vector-effect:none;fill:#f0f;fill-opacity:.51794876;fill-rule:evenodd;stroke:none;stroke-width:.22902854;stroke-linecap:butt;stroke-linejoin:miter;stroke-miterlimit:10;stroke-dasharray:none;stroke-dashoffset:0;stroke-opacity:1;paint-order:normal"/><rect style="opacity:1;vector-effect:none;fill:#f0f;fill-opacity:.51794876;fill-rule:evenodd;stroke:none;stroke-width:.22902854;stroke-linecap:butt;stroke-linejoin:miter;stroke-miterlimit:10;stroke-dasharray:none;stroke-dashoffset:0;stroke-opacity:1;paint-order:normal" id="rect54213" width="3.176" height="3.176" x="13.652" y="95.662"/></g></svg>