<svg xmlns="http://www.w3.org/2000/svg" xmlns:svg="http://www.w3.org/2000/svg" id="svg12" width="16" height="16" x="0" y="0" enable-background="new -7074.5 3413.5 24 24" version="1.1" viewBox="-7074.5 3413.5 16 16" xml:space="preserve"><metadata id="metadata18"/><g style="font-style:normal;font-weight:400;font-size:9.93692684px;line-height:1.25;font-family:sans-serif;letter-spacing:0;word-spacing:0;fill:#000;fill-opacity:1;stroke:none;stroke-width:.24842319" id="text1048" aria-label="z" transform="rotate(13.220855)"><path id="path1091" d="m -6098.6451,4944.1307 h 4.2407 v 0.8151 l -3.3576,3.9059 h 3.3576 v 0.7132 h -4.362 v -0.8151 l 3.3576,-3.9059 h -3.2363 z m 7.3312,-0.7078 c 1.5371,2.1834 1.3916,5.3677 -0.462,7.3298 -0.3972,0.3918 -0.7671,0.7528 -1.1966,1.1104 -0.5406,0.4518 -1.301,0.7448 -1.9707,0.9342 -1.3785,0.3916 -2.7058,0.3435 -4.0459,-0.1576 -0.3066,-0.1144 -0.6004,-0.2707 -0.8801,-0.435 -0.286,-0.1722 -0.3728,-0.3563 -0.6609,-0.1432 -0.358,0.2676 -1.5561,0.6485 -1.2349,-0.241 0.1054,-0.2921 0.3538,-0.4813 0.4814,-0.7528 -0.059,-0.2503 -0.3681,-0.4953 -0.5037,-0.722 -0.3991,-0.6535 -0.6657,-1.3345 -0.8668,-2.0727 -0.099,-0.7799 -0.1419,-1.4378 -0.057,-2.2182 0.09,-0.8606 0.5018,-1.6004 0.8844,-2.3558 0.6621,-1.2921 2.1283,-2.1743 3.4404,-2.6566 0.6948,-0.1632 1.3383,-0.3144 2.0524,-0.3112 0.7228,0.014 1.3834,0.1648 2.0601,0.3956 1.2275,0.4184 2.2227,1.2401 2.9619,2.2907 z m -4.7309,-2.5723 c 0.028,0.1178 0.087,-0.079 0,0 z" style="stroke-width:.24842319;fill:#b4b4b4;fill-opacity:1;fill-rule:evenodd"/></g></svg>