<svg xmlns="http://www.w3.org/2000/svg" xmlns:svg="http://www.w3.org/2000/svg" id="svg3034" width="16" height="16" x="0" style="clip-rule:evenodd;fill-rule:evenodd;image-rendering:optimizeQuality;shape-rendering:geometricPrecision;text-rendering:geometricPrecision" y="0" version="1.1" viewBox="0 0 16 16" xml:space="preserve"><metadata id="metadata3038"/><defs id="defs3024"><style id="style3022" type="text/css">.fil0{fill:#000}</style></defs><g id="g3028" transform="matrix(0.04669261,0,0,0.04669261,2.6002034,1.9999996)" style="fill:#b4b4b4;fill-opacity:1"><path id="path3026" d="M 57,228 C -2,177 107,127 84,71 71,41 32,31 8,52 -7,64 2,79 17,69 34,55 56,62 64,81 c 12,29 -36,75 -43,102 -8,27 12,74 49,74 h 74 c 0,-9 -4,-13 -12,-14 20,-18 23,-40 1,-67 24,20 25,51 10,66 7,4 8,10 9,15 h 29 c -3,-4 -6,-8 -11,-10 -3,-50 25,-65 34,-94 6,-23 -3,-47 -10,-67 11,-8 25,6 37,-16 -10,-16 -5,-38 -26,-44 -4,-10 1,-17 6,-26 -52,18 -60,31 -65,73 -8,56 -22,34 -61,63 -37,27 -29,57 -28,92 z" class="fil0" style="fill:#b4b4b4;fill-opacity:1"/></g></svg>