<svg xmlns="http://www.w3.org/2000/svg" xmlns:svg="http://www.w3.org/2000/svg" id="svg4854" width="16" height="16" x="0" y="0" version="1.1" viewBox="0 0 16 16"><metadata id="metadata4860"/><title id="title4840">8.3</title><desc id="desc4842">Created with Sketch.</desc><g id="g4848" transform="matrix(0.3,0,0,0.3,-7,-7)" style="fill:#b4b4b4;fill-opacity:1;fill-rule:evenodd;stroke:none;stroke-width:1"><g id="g4846" style="fill:#b4b4b4;fill-opacity:1"><path id="path4844" d="m 42,31 v 10 0 c 0,0.552285 0.447715,1 1,1 h 14 v 0 c 0.552285,0 1,-0.447715 1,-1 v -10 0 c 0,-0.552285 0.447715,-1 1,-1 h 2.171573 v 0 c 0.530433,0 1.039141,0.210714 1.414213,0.585786 l 6.828428,6.828428 v 0 C 69.789286,37.789286 70,38.297994 70,38.828427 V 68 68 c 0,1.104569 -0.895431,2 -2,2 H 32 v 0 c -1.10457,0 -2,-0.895431 -2,-2 v -36 0 c 0,-1.10457 0.89543,-2 2,-2 h 9 v 0 c 0.552285,0 1,0.447715 1,1 z m 9,-1 h 2 v 0 c 0.552285,0 1,0.447715 1,1 v 6 0 c 0,0.552285 -0.447715,1 -1,1 h -2 v 0 c -0.552285,0 -1,-0.447715 -1,-1 v -6 0 c 0,-0.552285 0.447715,-1 1,-1 z" style="fill:#b4b4b4;fill-opacity:1"/></g></g></svg>