<svg xmlns="http://www.w3.org/2000/svg" xmlns:svg="http://www.w3.org/2000/svg" id="Layer_1" width="42" height="70" x="0" y="0" version="1.1" viewBox="0 0 42 70" xml:space="preserve"><metadata id="metadata1526"/><style id="style1497" type="text/css"/><g id="g95"><path style="fill:#fff" id="rect91" d="M 15,36 H 27 V 48 H 15 Z"/><g style="font-size:10px;font-family:AlteDIN1451Mittelschrift" id="text93" aria-label="1" transform="translate(19.313,45.5526)"><path style="font-size:10px;font-family:AlteDIN1451Mittelschrift" id="path2083" d="M 1.6796875,0.01953125 V -6.0302734 l -1.015625,0.7421875 v -1.0839844 l 1.015625,-0.7373047 h 1.0253906 v 7.12890625 z"/></g></g><g id="g149"><path style="fill:#fff" id="rect145" d="M 15,18 H 27 V 30 H 15 Z"/><g style="font-size:10px;font-family:AlteDIN1451Mittelschrift" id="text147" aria-label="2" transform="translate(18.6001,27.5526)"><path style="font-size:10px;font-family:AlteDIN1451Mittelschrift" id="path2087" d="M 0.32714844,0.00488281 V -0.95214844 L 3.1103516,-4.4335937 q 0.1611328,-0.2050782 0.2099609,-0.3759766 0.048828,-0.1708984 0.048828,-0.3320313 0,-0.3710937 -0.2636718,-0.6884765 -0.2636719,-0.3222656 -0.7177735,-0.3222656 -0.4150391,0 -0.7128906,0.2783203 -0.2929688,0.2734375 -0.3271485,0.7519531 H 0.32714844 q 0.004883,-0.8642578 0.59082031,-1.4550781 0.58593745,-0.5957032 1.39160155,-0.5957032 0.8886719,0 1.4794922,0.600586 0.5957031,0.5957031 0.5957031,1.4404297 0,0.7226562 -0.4248047,1.25 l -2.290039,2.8710937 h 2.7148437 v 1.01562501 z"/></g></g><path style="fill:none;stroke:#fff;stroke-width:2;stroke-miterlimit:10" id="line268" d="m 21,15 v 3"/><path style="fill:none;stroke:#fff;stroke-width:2;stroke-miterlimit:10" id="line420" d="m 21,30 v 6"/><g id="g430"><g id="g428"><path style="fill:none;stroke:#fff;stroke-width:2;stroke-miterlimit:10" id="line422" d="m 21,48 v 9.700001"/><g id="g426"><path style="fill:#fff" id="polygon424" d="m 17.6,53.7 3.4,3.4 3.4,-3.4 v 2.9 L 21,60 17.6,56.6 Z"/></g></g></g><path style="color:#000;font-style:normal;font-variant:normal;font-weight:400;font-stretch:normal;font-size:medium;line-height:normal;font-family:sans-serif;font-variant-ligatures:normal;font-variant-position:normal;font-variant-caps:normal;font-variant-numeric:normal;font-variant-alternates:normal;font-feature-settings:normal;text-indent:0;text-align:start;text-decoration:none;text-decoration-line:none;text-decoration-style:solid;text-decoration-color:#000;letter-spacing:normal;word-spacing:normal;text-transform:none;writing-mode:lr-tb;direction:ltr;text-orientation:mixed;dominant-baseline:auto;baseline-shift:baseline;text-anchor:start;white-space:normal;shape-padding:0;clip-rule:nonzero;display:inline;overflow:visible;visibility:visible;opacity:1;isolation:auto;mix-blend-mode:normal;color-interpolation:sRGB;color-interpolation-filters:linearRGB;solid-color:#000;solid-opacity:1;vector-effect:none;fill:#fff;fill-opacity:1;fill-rule:nonzero;stroke:none;stroke-width:2;stroke-linecap:round;stroke-linejoin:round;stroke-miterlimit:4;stroke-dasharray:none;stroke-dashoffset:0;stroke-opacity:1;color-rendering:auto;image-rendering:auto;shape-rendering:auto;text-rendering:auto;enable-background:accumulate" id="path838" d="m 12,14 a 1.0001,1.0001 0 0 0 -0.199219,0.02344 1.0001,1.0001 0 0 0 -0.0957,0.02539 1.0001,1.0001 0 0 0 -0.09375,0.03516 1.0001,1.0001 0 0 0 -0.324219,0.228516 1.0001,1.0001 0 0 0 -0.06445,0.07617 1.0001,1.0001 0 0 0 -0.146484,0.261719 1.0001,1.0001 0 0 0 -0.06055,0.392578 1.0001,1.0001 0 0 0 0.0078,0.09961 1.0001,1.0001 0 0 0 0.04883,0.19336 1.0001,1.0001 0 0 0 0.08594,0.18164 1.0001,1.0001 0 0 0 0.119141,0.160156 1.0001,1.0001 0 0 0 0.07226,0.06836 1.0001,1.0001 0 0 0 0.25,0.164062 1.0001,1.0001 0 0 0 0.189453,0.06445 1.0001,1.0001 0 0 0 0.09766,0.01758 A 1.0001,1.0001 0 0 0 12,16 h 18 a 1.0001,1.0001 0 0 0 0.09961,-0.0059 1.0001,1.0001 0 0 0 0.09961,-0.01758 1.0001,1.0001 0 0 0 0.363281,-0.160156 1.0001,1.0001 0 0 0 0.150391,-0.128906 1.0001,1.0001 0 0 0 0.06445,-0.07617 1.0001,1.0001 0 0 0 0.105468,-0.169922 1.0001,1.0001 0 0 0 0.04102,-0.0918 1.0001,1.0001 0 0 0 0.05078,-0.193359 1.0001,1.0001 0 0 0 0.0098,-0.199219 1.0001,1.0001 0 0 0 -0.142578,-0.474609 1.0001,1.0001 0 0 0 -0.119141,-0.160156 1.0001,1.0001 0 0 0 -0.07227,-0.06836 1.0001,1.0001 0 0 0 -0.07813,-0.06445 1.0001,1.0001 0 0 0 -0.08398,-0.05273 1.0001,1.0001 0 0 0 -0.08789,-0.04687 1.0001,1.0001 0 0 0 -0.189453,-0.06445 1.0001,1.0001 0 0 0 -0.09766,-0.01758 A 1.0001,1.0001 0 0 0 30.013672,14 1.0001,1.0001 0 0 0 30,14 Z"/><path style="color:#000;font-style:normal;font-variant:normal;font-weight:400;font-stretch:normal;font-size:medium;line-height:normal;font-family:sans-serif;font-variant-ligatures:normal;font-variant-position:normal;font-variant-caps:normal;font-variant-numeric:normal;font-variant-alternates:normal;font-feature-settings:normal;text-indent:0;text-align:start;text-decoration:none;text-decoration-line:none;text-decoration-style:solid;text-decoration-color:#000;letter-spacing:normal;word-spacing:normal;text-transform:none;writing-mode:lr-tb;direction:ltr;text-orientation:mixed;dominant-baseline:auto;baseline-shift:baseline;text-anchor:start;white-space:normal;shape-padding:0;clip-rule:nonzero;display:inline;overflow:visible;visibility:visible;opacity:1;isolation:auto;mix-blend-mode:normal;color-interpolation:sRGB;color-interpolation-filters:linearRGB;solid-color:#000;solid-opacity:1;vector-effect:none;fill:#fff;fill-opacity:1;fill-rule:nonzero;stroke:none;stroke-width:2;stroke-linecap:round;stroke-linejoin:round;stroke-miterlimit:4;stroke-dasharray:none;stroke-dashoffset:0;stroke-opacity:1;color-rendering:auto;image-rendering:auto;shape-rendering:auto;text-rendering:auto;enable-background:accumulate" id="path871" d="m 29.957031,10.837891 a 1.0001,1.0001 0 0 0 -0.197265,0.0293 1.0001,1.0001 0 0 0 -0.0957,0.0293 1.0001,1.0001 0 0 0 -0.341796,0.205078 1.0001,1.0001 0 0 0 -0.132813,0.148438 1.0001,1.0001 0 0 0 -0.05273,0.08398 A 1.0001,1.0001 0 0 0 29.00782,11.710941 1.0001,1.0001 0 0 0 29,11.824219 V 15 a 1.0001,1.0001 0 0 0 0.0059,0.09961 1.0001,1.0001 0 0 0 0.04297,0.195313 1.0001,1.0001 0 0 0 0.08008,0.183594 1.0001,1.0001 0 0 0 0.259766,0.298828 1.0001,1.0001 0 0 0 0.08203,0.05859 1.0001,1.0001 0 0 0 0.373047,0.138671 1.0001,1.0001 0 0 0 0.199219,0.0098 1.0001,1.0001 0 0 0 0.09961,-0.0078 1.0001,1.0001 0 0 0 0.09766,-0.01953 1.0001,1.0001 0 0 0 0.189454,-0.06836 1.0001,1.0001 0 0 0 0.169921,-0.103516 1.0001,1.0001 0 0 0 0.146485,-0.134765 1.0001,1.0001 0 0 0 0.06445,-0.07813 1.0001,1.0001 0 0 0 0.05273,-0.08399 1.0001,1.0001 0 0 0 0.08398,-0.18164 1.0001,1.0001 0 0 0 0.02734,-0.0957 A 1.0001,1.0001 0 0 0 31,15 v -3.175781 a 1.0001,1.0001 0 0 0 -0.04883,-0.294922 1.0001,1.0001 0 0 0 -0.03516,-0.09375 1.0001,1.0001 0 0 0 -0.09961,-0.173828 1.0001,1.0001 0 0 0 -0.06055,-0.08008 1.0001,1.0001 0 0 0 -0.501953,-0.310547 1.0001,1.0001 0 0 0 -0.09766,-0.02149 1.0001,1.0001 0 0 0 -0.09961,-0.0098 1.0001,1.0001 0 0 0 -0.09961,-0.002 z"/><g id="g77"><path style="fill:#ff8b00" id="rect73" d="M 24,0 H 36 V 12 H 24 Z"/><g style="font-size:10px;font-family:AlteDIN1451Mittelschrift" id="text75" aria-label="4" transform="translate(27.6001,9.5526)"><path style="font-size:10px;font-family:AlteDIN1451Mittelschrift" id="path2079" d="M 0.12695312,-1.0498047 V -2.0117188 L 2.5097656,-7.109375 H 3.6474609 L 1.2402344,-2.0117188 H 3.0957031 V -4.0625 h 1.0205078 v 2.0507812 H 4.6875 v 0.9619141 H 4.1162109 V 0.00488281 H 3.0957031 V -1.0498047 Z"/></g></g><path style="color:#000;font-style:normal;font-variant:normal;font-weight:400;font-stretch:normal;font-size:medium;line-height:normal;font-family:sans-serif;font-variant-ligatures:normal;font-variant-position:normal;font-variant-caps:normal;font-variant-numeric:normal;font-variant-alternates:normal;font-feature-settings:normal;text-indent:0;text-align:start;text-decoration:none;text-decoration-line:none;text-decoration-style:solid;text-decoration-color:#000;letter-spacing:normal;word-spacing:normal;text-transform:none;writing-mode:lr-tb;direction:ltr;text-orientation:mixed;dominant-baseline:auto;baseline-shift:baseline;text-anchor:start;white-space:normal;shape-padding:0;clip-rule:nonzero;display:inline;overflow:visible;visibility:visible;opacity:1;isolation:auto;mix-blend-mode:normal;color-interpolation:sRGB;color-interpolation-filters:linearRGB;solid-color:#000;solid-opacity:1;vector-effect:none;fill:#fff;fill-opacity:1;fill-rule:nonzero;stroke:none;stroke-width:2;stroke-linecap:round;stroke-linejoin:round;stroke-miterlimit:4;stroke-dasharray:none;stroke-dashoffset:0;stroke-opacity:1;color-rendering:auto;image-rendering:auto;shape-rendering:auto;text-rendering:auto;enable-background:accumulate" id="path873" d="m 11.957031,10.837891 a 1.0001,1.0001 0 0 0 -0.197265,0.0293 1.0001,1.0001 0 0 0 -0.0957,0.0293 1.0001,1.0001 0 0 0 -0.341796,0.205078 1.0001,1.0001 0 0 0 -0.132813,0.148438 1.0001,1.0001 0 0 0 -0.05273,0.08398 A 1.0001,1.0001 0 0 0 11.00782,11.710941 1.0001,1.0001 0 0 0 11,11.824219 V 15 a 1.0001,1.0001 0 0 0 0.0059,0.09961 1.0001,1.0001 0 0 0 0.04297,0.195313 1.0001,1.0001 0 0 0 0.08008,0.183594 1.0001,1.0001 0 0 0 0.259766,0.298828 1.0001,1.0001 0 0 0 0.08203,0.05859 1.0001,1.0001 0 0 0 0.373047,0.138671 1.0001,1.0001 0 0 0 0.199219,0.0098 1.0001,1.0001 0 0 0 0.09961,-0.0078 1.0001,1.0001 0 0 0 0.09766,-0.01953 1.0001,1.0001 0 0 0 0.189454,-0.06836 1.0001,1.0001 0 0 0 0.169921,-0.103516 1.0001,1.0001 0 0 0 0.146485,-0.134765 1.0001,1.0001 0 0 0 0.06445,-0.07813 1.0001,1.0001 0 0 0 0.05273,-0.08399 1.0001,1.0001 0 0 0 0.08399,-0.18164 1.0001,1.0001 0 0 0 0.02734,-0.0957 A 1.0001,1.0001 0 0 0 13,15 v -3.175781 a 1.0001,1.0001 0 0 0 -0.04883,-0.294922 1.0001,1.0001 0 0 0 -0.03516,-0.09375 1.0001,1.0001 0 0 0 -0.09961,-0.173828 1.0001,1.0001 0 0 0 -0.06055,-0.08008 1.0001,1.0001 0 0 0 -0.501953,-0.310547 1.0001,1.0001 0 0 0 -0.09766,-0.02149 1.0001,1.0001 0 0 0 -0.09961,-0.0098 1.0001,1.0001 0 0 0 -0.09961,-0.002 z"/><g id="g11"><path style="fill:#fff" id="rect7" d="M 6,0 H 18 V 12 H 6 Z"/><g style="font-size:10px;font-family:AlteDIN1451Mittelschrift" id="text9" aria-label="3" transform="translate(9.6001,9.5526)"><path style="font-size:10px;font-family:AlteDIN1451Mittelschrift" id="path2075" d="m 1.7675781,-3.2128906 v -0.8984375 h 0.3515625 q 0.5078125,0 0.8007813,-0.2832031 0.2978515,-0.288086 0.2978515,-0.7275391 0,-0.4345703 -0.3076171,-0.7324219 -0.3076172,-0.2978515 -0.7324219,-0.2978515 -0.3222657,0 -0.6103516,0.2148437 -0.2880859,0.2148438 -0.3710937,0.6445313 H 0.17578125 Q 0.234375,-6.0449219 0.80566406,-6.6064453 1.3769531,-7.1728516 2.1386719,-7.1728516 q 0.9521484,0 1.5234375,0.6298829 0.5761718,0.625 0.5761718,1.4013671 0,0.4101563 -0.1611328,0.8007813 -0.1611328,0.3857422 -0.6005859,0.6689453 0.4492188,0.2880859 0.6445312,0.7080078 0.1953125,0.4199219 0.1953125,0.8496094 0,0.9960937 -0.6249999,1.58691405 -0.625,0.59082031 -1.5332032,0.59082031 -0.7226562,0 -1.30371091,-0.46386719 -0.57617188,-0.46875 -0.71777344,-1.36230467 H 1.1572266 q 0.1416015,0.3662109 0.3808593,0.5908203 0.2392578,0.21972656 0.678711,0.21972656 0.4248047,0 0.7519531,-0.29785156 0.3271484,-0.3027344 0.3271484,-0.8300781 0,-0.5322266 -0.3271484,-0.8300782 -0.3222656,-0.3027343 -0.7714844,-0.3027343 z"/></g></g><g style="font-style:normal;font-variant:normal;font-weight:400;font-stretch:normal;font-size:10.6665802px;line-height:1.25;font-family:'Alte DIN 1451 Mittelschrift';-inkscape-font-specification:'Alte DIN 1451 Mittelschrift';letter-spacing:0;word-spacing:0;fill:#fff;fill-opacity:1;stroke:none;stroke-width:1" id="text844" aria-label="AB" transform="scale(0.99999182,1.0000082)"><path style="stroke-width:1" id="path841" d="m 14.622619,68.494232 2.770811,-7.593688 h 0.947909 l 2.770811,7.593688 h -1.208324 l -0.583328,-1.713528 h -2.880185 l -0.604162,1.713528 z m 2.156233,-2.729144 h 2.197899 q -0.239582,-0.70312 -0.380206,-1.09895 -0.135415,-0.401038 -0.239581,-0.708327 -0.09896,-0.30729 -0.203123,-0.624995 -0.104166,-0.317706 -0.27604,-0.859368 -0.18229,0.562495 -0.291664,0.901034 -0.109374,0.333331 -0.21354,0.645828 -0.09896,0.312498 -0.234373,0.697911 -0.130207,0.385414 -0.359372,1.046867 z"/><path style="stroke-width:1" id="path843" d="m 22.065267,68.49944 v -7.58848 h 2.942685 q 1.109366,0 1.67707,0.572912 0.572912,0.567704 0.572912,1.46353 0,0.468746 -0.229165,0.901035 -0.229165,0.432288 -0.890618,0.72916 v 0.02083 q 0.624995,0.145833 0.932284,0.661453 0.307289,0.510413 0.307289,1.088533 0,0.984367 -0.630203,1.567696 -0.624995,0.583328 -1.479155,0.583328 z m 2.921852,-3.369764 H 23.2163 v 2.28644 h 1.770819 q 0.640619,0 0.937492,-0.343747 0.302081,-0.348956 0.302081,-0.796869 0,-0.447913 -0.302081,-0.796868 -0.296873,-0.348956 -0.937492,-0.348956 z M 24.882953,61.931785 H 23.2163 v 2.177066 h 1.666653 q 0.619787,0 0.921867,-0.317706 0.302081,-0.317705 0.302081,-0.770827 0,-0.437496 -0.302081,-0.76041 -0.30208,-0.328123 -0.921867,-0.328123 z"/></g></svg>