<svg xmlns="http://www.w3.org/2000/svg" xmlns:svg="http://www.w3.org/2000/svg" style="enable-background:new 0 0 150 380" id="svg8" x="0" y="0" version="1.1" viewBox="0 0 150 380" xml:space="preserve"><metadata id="metadata221"/><style id="style2" type="text/css">.st1{fill:#fff}.st2,.st3{fill:none;stroke:#fff}.st3{stroke-miterlimit:10}</style><g id="layer1" transform="translate(0,-196.45831)"><rect id="rect1047" width="150" height="380" x="0" y="196.458" style="fill:#e6e6e6;fill-opacity:1;stroke:none;stroke-width:1.94158256;stroke-opacity:1"/><g id="text163" aria-label="DC" transform="translate(75.349797,239.20514)" style="font-size:12px;font-family:AlteDIN1451Mittelschrift;fill:#1e1e1e;fill-opacity:1;stroke:none"><path id="path974" d="M 0.90820313,0.00585938 V -8.53125 H 3.8964844 q 1.7519531,0 2.6015625,1.4355469 0.3164062,0.5449219 0.3867187,1.0195312 0.070312,0.4746094 0.070312,1.8164063 0,1.4414062 -0.099609,1.9277343 Q 6.7617187,-1.8515625 6.4746094,-1.40625 6.09375,-0.80859375 5.4257812,-0.3984375 4.7636719,0.00585938 3.8144531,0.00585938 Z M 2.203125,-7.3066406 v 6.09375 h 1.5527344 q 1.0664062,0 1.5820312,-0.7441406 0.2109375,-0.3222657 0.2636719,-0.6914063 0.058594,-0.375 0.058594,-1.5644531 0,-1.1484375 -0.064453,-1.5878906 Q 5.5371094,-6.2402344 5.2792969,-6.5917969 4.7460937,-7.3066406 3.7558594,-7.3066406 Z" style="font-size:12px;font-family:AlteDIN1451Mittelschrift;fill:#1e1e1e;fill-opacity:1;stroke:none"/><path id="path976" d="m 12.873047,-2.3789063 h 1.365234 q -0.251953,1.1953126 -1.078125,1.82812505 -0.826172,0.62695312 -1.921875,0.62695312 -1.007812,0 -1.6933591,-0.48046875 Q 8.8652344,-0.890625 8.5664063,-1.453125 8.3554688,-1.828125 8.2734375,-2.2734375 8.1914063,-2.71875 8.1914063,-4.2597656 q 0,-1.5410156 0.082031,-1.9863281 0.082031,-0.4453125 0.2929688,-0.8203125 0.2988281,-0.5566407 0.9785156,-1.0488282 0.6855473,-0.4921875 1.6933593,-0.4921875 1.212891,0 2.003907,0.75 0.796875,0.7441407 0.996093,1.78125 H 12.873047 Q 12.714844,-6.5683594 12.28125,-6.9375 q -0.427734,-0.3691406 -1.042969,-0.3691406 -0.457031,0 -0.791015,0.1875 -0.333985,0.1875 -0.5273441,0.4335937 -0.2519531,0.328125 -0.3457031,0.7207032 -0.087891,0.3925781 -0.087891,1.7050781 0,1.3183593 0.087891,1.7109375 0.09375,0.3925781 0.3457031,0.7089844 0.1933591,0.2578125 0.5273441,0.4453125 0.333984,0.1816406 0.791015,0.1816406 1.078125,0 1.634766,-1.1660157 z" style="font-size:12px;font-family:AlteDIN1451Mittelschrift;fill:#1e1e1e;fill-opacity:1;stroke:none"/></g></g><g style="fill:#1e1e1e;fill-opacity:1" id="text55" transform="matrix(1 0 0 1 134.562 593.76)"><path style="fill:#1e1e1e;fill-opacity:1" id="path971" d="M-77.8-220l-4.2-12.8h2l2.9,9.7l0,0l2.9-9.7h2l-4.2,12.8H-77.8z" class="st1"/><path style="fill:#1e1e1e;fill-opacity:1" id="path973" d="M-66-220v-0.8l0,0c-0.2,0.3-0.4,0.5-0.8,0.7s-0.8,0.2-1.4,0.2c-1,0-1.8-0.3-2.3-0.8 c-0.6-0.5-0.8-1.2-0.8-2s0.2-1.4,0.7-1.9s1.2-0.8,2.2-0.8h2.5v-1c0-0.8-0.6-1.2-1.8-1.2c-0.4,0-0.8,0-1.1,0.1 c-0.3,0.1-0.5,0.3-0.6,0.6l-1.4-1.1c0.7-0.9,1.7-1.4,3-1.3c1.1,0,2,0.2,2.7,0.7c0.7,0.5,1,1.2,1,2.4v6.2L-66-220L-66-220z M-66-223.2v-0.7h-2.1c-1,0-1.6,0.4-1.5,1.1c0,0.3,0.1,0.6,0.4,0.8c0.3,0.2,0.7,0.4,1.3,0.4c0.8,0,1.3-0.1,1.6-0.3 C-66.2-222-66-222.5-66-223.2z" class="st1"/><path style="fill:#1e1e1e;fill-opacity:1" id="path975" d="M-62.2-222.2v-10.6h1.8v10.5c0,0.4,0.2,0.6,0.7,0.6h0.6v1.7h-0.8c-0.7,0-1.2-0.2-1.7-0.5 C-62-220.8-62.2-221.4-62.2-222.2z" class="st1"/><path style="fill:#1e1e1e;fill-opacity:1" id="path977" d="M-57.6-222.2v-10.6h1.8v10.5c0,0.4,0.2,0.6,0.7,0.6h0.6v1.7h-0.8c-0.7,0-1.2-0.2-1.7-0.5 C-57.4-220.8-57.6-221.4-57.6-222.2z" class="st1"/><path style="fill:#1e1e1e;fill-opacity:1" id="path979" d="M-45.9-223.9h-5.7c0,0.8,0.2,1.3,0.6,1.7s0.9,0.6,1.6,0.6c0.8,0,1.4-0.3,2-0.9l1.3,1.1 c-0.5,0.5-1,0.9-1.5,1.1c-0.6,0.2-1.2,0.3-1.8,0.3c-0.9,0-1.8-0.3-2.7-0.9c-0.9-0.6-1.3-1.9-1.3-3.7c0-1.8,0.4-3,1.2-3.7 c0.8-0.7,1.7-1,2.5-1c1,0,1.9,0.3,2.6,1c0.8,0.7,1.1,1.6,1.1,2.8L-45.9-223.9L-45.9-223.9L-45.9-223.9z M-51.6-225.4h3.8 c0-0.7-0.2-1.2-0.6-1.6c-0.4-0.4-0.8-0.5-1.3-0.5s-1,0.2-1.4,0.5C-51.4-226.6-51.6-226.1-51.6-225.4z" class="st1"/><path style="fill:#1e1e1e;fill-opacity:1" id="path981" d="M-42-220.3l-3.3-8.8h1.9l2.2,6.4l0,0l2.2-6.4h1.9l-3.9,11c-0.3,0.7-0.6,1.2-1.1,1.4 c-0.5,0.3-1,0.4-1.5,0.4h-0.6v-1.7h0.5c0.6,0,0.9-0.3,1.1-0.8L-42-220.3z" class="st1"/></g><path style="fill:none;fill-opacity:1;stroke:#1e1e1e;stroke-opacity:1;stroke-width:1;stroke-miterlimit:4;stroke-dasharray:none" id="line161" d="M0,24.5h150" class="st2"/><path style="fill:none;fill-opacity:1;stroke-width:1;stroke-miterlimit:4;stroke-dasharray:none;stroke:#1e1e1e;stroke-opacity:1" id="line163" d="M0,356.5h150" class="st2"/><g style="stroke:none;stroke-opacity:1;fill:#1e1e1e;fill-opacity:1" id="g35"><path style="stroke:none;stroke-opacity:1;fill:#1e1e1e;fill-opacity:1" id="path21" d="M38.4,17.4l4.7-12.8h1.6l4.7,12.8h-2l-1-2.9h-4.9l-1,2.9H38.4z M42.1,12.8h3.7c-0.3-0.8-0.5-1.4-0.6-1.9 c-0.1-0.5-0.3-0.8-0.4-1.2c-0.1-0.4-0.2-0.7-0.3-1.1c-0.1-0.4-0.3-0.8-0.5-1.5c-0.2,0.6-0.4,1.1-0.5,1.5c-0.1,0.4-0.2,0.7-0.4,1.1 c-0.2,0.4-0.2,0.7-0.4,1.2S42.3,12.1,42.1,12.8z" class="st1"/><path style="stroke:none;stroke-opacity:1;fill:#1e1e1e;fill-opacity:1" id="path23" d="M51,17.5V8.3h1.8v1l0,0c0.6-0.7,1.4-1.1,2.4-1.1c0.6,0,1.1,0.1,1.5,0.3c0.4,0.2,0.7,0.5,1.1,0.8 c0.7-0.8,1.7-1.2,2.9-1.2c0.7,0,1.4,0.3,2.1,0.8s1,1.3,1,2.4v6.1H62V12c0-0.6-0.2-1.1-0.5-1.4c-0.3-0.3-0.8-0.5-1.3-0.5 s-1,0.2-1.3,0.5c-0.3,0.3-0.5,0.8-0.5,1.4v5.4h-1.8V12c0-0.6-0.2-1.1-0.5-1.4c-0.3-0.3-0.8-0.5-1.3-0.5s-1,0.2-1.3,0.5 C53.2,10.9,53,11.4,53,12v5.4h-2V17.5z" class="st1"/><path style="stroke:none;stroke-opacity:1;fill:#1e1e1e;fill-opacity:1" id="path25" d="M71,17.5v-0.8l0,0c-0.2,0.3-0.4,0.5-0.8,0.7c-0.4,0.2-0.8,0.2-1.4,0.2c-1,0-1.8-0.3-2.3-0.8 c-0.6-0.5-0.8-1.2-0.8-2s0.2-1.4,0.7-1.9s1.2-0.8,2.2-0.8H71v-1c0-0.8-0.6-1.2-1.8-1.2c-0.4,0-0.8,0-1.1,0.1 c-0.3,0.1-0.5,0.3-0.6,0.6l-1.4-1.1c0.7-0.9,1.7-1.4,3-1.3c1.1,0,2,0.2,2.7,0.7c0.7,0.5,1,1.2,1,2.4v6.2H71z M71,14.3v-0.7h-2.1 c-1,0-1.6,0.4-1.5,1.1c0,0.3,0.1,0.6,0.4,0.8c0.3,0.2,0.7,0.4,1.3,0.4c0.8,0,1.3-0.1,1.6-0.3C70.9,15.4,71,15,71,14.3z" class="st1"/><path style="stroke:none;stroke-opacity:1;fill:#1e1e1e;fill-opacity:1" id="path27" d="M74.8,15.2V4.6h1.8v10.5c0,0.4,0.2,0.6,0.7,0.6H78v1.7h-0.8c-0.7,0-1.2-0.2-1.7-0.5 C75,16.6,74.8,16.1,74.8,15.2z" class="st1"/><path style="stroke:none;stroke-opacity:1;fill:#1e1e1e;fill-opacity:1" id="path29" d="M84.6,17.4v-0.9c-0.6,0.7-1.4,1.1-2.4,1.1c-0.6,0-1.1-0.1-1.5-0.4c-0.4-0.3-0.7-0.5-0.9-0.8 c-0.3-0.3-0.4-0.7-0.5-1.1c-0.1-0.4-0.1-1.2-0.1-2.5s0-2.1,0.1-2.5c0.1-0.4,0.3-0.7,0.5-1.1c0.2-0.3,0.5-0.5,0.9-0.8 C81.1,8.1,81.6,8,82.2,8c0.9,0,1.7,0.4,2.4,1.1v-1h1.8V17c0,1.4-0.4,2.4-1.2,3c-0.8,0.6-1.7,1-2.8,1c-0.6,0-1.2-0.1-1.7-0.4 c-0.5-0.3-1-0.7-1.5-1.1l1.4-1.1c0.2,0.2,0.5,0.4,0.8,0.6c0.3,0.2,0.6,0.2,1,0.2c0.6,0,1.1-0.2,1.5-0.5 C84.3,18.4,84.6,18.1,84.6,17.4z M81,12.9c0,0.7,0,1.2,0.1,1.5c0.1,0.3,0.1,0.5,0.3,0.7c0.1,0.2,0.3,0.3,0.5,0.5 c0.2,0.2,0.5,0.2,0.9,0.2c0.4,0,0.7-0.1,0.9-0.2c0.2-0.1,0.4-0.3,0.5-0.5c0.2-0.2,0.3-0.4,0.3-0.7c0-0.3,0.1-0.7,0.1-1.5 c0-0.8,0-1.2-0.1-1.5c-0.1-0.3-0.1-0.5-0.3-0.7c-0.1-0.2-0.3-0.3-0.5-0.5C83.5,10,83.2,10,82.8,10c-0.4,0-0.7,0.1-0.9,0.2 c-0.2,0.1-0.4,0.3-0.5,0.5c-0.2,0.2-0.3,0.4-0.3,0.7C81.1,11.7,81,12.2,81,12.9z" class="st1"/><path style="stroke:none;stroke-opacity:1;fill:#1e1e1e;fill-opacity:1" id="path31" d="M93.6,17.5v-0.8l0,0c-0.2,0.3-0.4,0.5-0.8,0.7c-0.4,0.2-0.8,0.2-1.4,0.2c-1,0-1.8-0.3-2.3-0.8 c-0.6-0.5-0.8-1.2-0.8-2s0.2-1.4,0.7-1.9s1.2-0.8,2.2-0.8h2.5v-1c0-0.8-0.6-1.2-1.8-1.2c-0.4,0-0.8,0-1.1,0.1 c-0.3,0.1-0.5,0.3-0.6,0.6l-1.4-1.1c0.7-0.9,1.7-1.4,3-1.3c1.1,0,2,0.2,2.7,0.7s1,1.2,1,2.4v6.2H93.6z M93.6,14.3v-0.7h-2.1 c-1,0-1.6,0.4-1.5,1.1c0,0.3,0.1,0.6,0.4,0.8c0.3,0.2,0.7,0.4,1.3,0.4c0.8,0,1.3-0.1,1.6-0.3C93.5,15.4,93.6,15,93.6,14.3z" class="st1"/><path style="stroke:none;stroke-opacity:1;fill:#1e1e1e;fill-opacity:1" id="path33" d="M97.6,17.5V8.3h1.8v1l0,0c0.6-0.7,1.4-1.1,2.4-1.1c0.6,0,1.1,0.1,1.5,0.3c0.4,0.2,0.7,0.5,1.1,0.8 c0.7-0.8,1.7-1.2,2.9-1.2c0.7,0,1.4,0.3,2.1,0.8c0.7,0.5,1,1.3,1,2.4v6.1h-1.8V12c0-0.6-0.2-1.1-0.5-1.4c-0.3-0.3-0.8-0.5-1.3-0.5 s-1,0.2-1.3,0.5c-0.3,0.3-0.5,0.8-0.5,1.4v5.4h-2V12c0-0.6-0.2-1.1-0.5-1.4c-0.3-0.3-0.8-0.5-1.3-0.5s-1,0.2-1.3,0.5 c-0.3,0.3-0.5,0.8-0.5,1.4v5.4h-1.8V17.5z" class="st1"/></g><g style="fill:#1e1e1e;fill-opacity:1" id="g39"><path style="fill:#1e1e1e;fill-opacity:1" id="path37" d="M12.5,59.5v-7.8h1.2v6.7h3.8v1.1H12.5z" class="st1"/></g><g style="fill:#1e1e1e;fill-opacity:1" id="g43"><path style="fill:#1e1e1e;fill-opacity:1" id="path41" d="M39.1,59.5v-7.8h3.1c0.7,0,1.2,0.2,1.6,0.5c0.2,0.2,0.4,0.4,0.6,0.7c0.2,0.3,0.2,0.6,0.2,1 c0,0.5-0.1,1-0.4,1.3c-0.3,0.4-0.6,0.7-1.1,0.8l1.8,3.5h-1.4l-1.6-3.3h-1.5v3.3H39.1z M40.3,52.8v2.4h1.8c0.4,0,0.8-0.1,1-0.4 c0.2-0.3,0.3-0.5,0.3-0.9c0-0.4-0.1-0.7-0.4-0.9c-0.2-0.2-0.5-0.2-0.9-0.2H40.3z" class="st1"/></g><g style="fill:#1e1e1e;fill-opacity:1" id="g47"><path style="fill:#1e1e1e;fill-opacity:1" id="path45" d="M31,61.9l-2.5-4.2L26,61.9h-1.9l3.5-5.8l-3.3-5.5h2l2.3,3.9l2.3-3.9h2L29.5,56l3.5,5.8h-2V61.9z" class="st1"/></g><g style="fill:#1e1e1e;fill-opacity:1" id="g51"><path style="fill:#1e1e1e;fill-opacity:1" id="path49" d="M60.5,351.4v-7.8h1.2v6.7h3.8v1.1H60.5L60.5,351.4z" class="st1"/></g><g style="fill:#1e1e1e;fill-opacity:1" id="g55"><path style="fill:#1e1e1e;fill-opacity:1" id="path53" d="M84.1,351.4v-7.8h3.1c0.7,0,1.2,0.2,1.6,0.5c0.2,0.2,0.4,0.4,0.6,0.7c0.2,0.3,0.2,0.6,0.2,1 c0,0.5-0.1,1-0.4,1.3c-0.3,0.4-0.6,0.7-1.1,0.8l1.8,3.5h-1.4l-1.6-3.3h-1.5v3.3H84.1z M85.3,344.7v2.4h1.8c0.4,0,0.8-0.1,1-0.4 c0.2-0.3,0.3-0.5,0.3-0.9c0-0.4-0.1-0.7-0.4-0.9c-0.2-0.2-0.5-0.2-0.9-0.2H85.3z" class="st1"/></g><g style="fill:#1e1e1e;fill-opacity:1" id="g59"><path style="fill:#1e1e1e;fill-opacity:1" id="path57" d="M105.5,59.5v-7.8h1.2v6.7h3.8v1.1H105.5z" class="st1"/></g><g style="fill:#1e1e1e;fill-opacity:1" id="g63"><path style="fill:#1e1e1e;fill-opacity:1" id="path61" d="M132.1,59.5v-7.8h3.1c0.7,0,1.2,0.2,1.6,0.5c0.2,0.2,0.4,0.4,0.6,0.7c0.2,0.3,0.2,0.6,0.2,1 c0,0.5-0.1,1-0.4,1.3c-0.3,0.4-0.6,0.7-1.1,0.8l1.8,3.5h-1.4l-1.6-3.3h-1.6v3.3H132.1z M133.3,52.8v2.4h1.8c0.4,0,0.8-0.1,1-0.4 c0.2-0.2,0.3-0.5,0.3-0.9c0-0.4-0.1-0.7-0.4-0.9c-0.2-0.2-0.5-0.2-0.9-0.2H133.3z" class="st1"/></g><g style="fill:#1e1e1e;fill-opacity:1" id="g67"><path style="fill:#1e1e1e;fill-opacity:1" id="path65" d="M120.7,61.9v-4.7l-3.4-6.7h1.8l2.4,5.1l2.4-5.1h1.8l-3.4,6.7v4.7H120.7z" class="st1"/></g><line style="fill:none;stroke:#1e1e1e;stroke-width:1.0827806;stroke-miterlimit:10;stroke-opacity:1" id="line69" x1="74.8" x2="74.8" y1="144" y2="110" class="st3"/><path id="rect75" d="m 30,92 h 90 v 20 H 30 Z" style="fill:#111;fill-opacity:1;stroke:#414042;stroke-miterlimit:10;stroke-opacity:1"/><g id="text77" aria-label="Gain" transform="translate(63.178906,85.930391)" style="font-size:12px;font-family:AlteDIN1451Mittelschrift;fill:#1e1e1e;fill-opacity:1;stroke:none"><path id="path1157" d="m 3.6796875,-3.46875 v -1.2246094 h 3.0351562 v 1.7402344 q 0,1.2714844 -0.8847656,2.15039062 -0.8847656,0.87890625 -2.1621093,0.87890625 -1.0078125,0 -1.6933594,-0.48046875 Q 1.2949219,-0.890625 0.99609375,-1.453125 0.78515625,-1.828125 0.703125,-2.2734375 0.62109375,-2.71875 0.62109375,-4.2597656 q 0,-1.5410156 0.0820313,-1.9863281 0.0820313,-0.4453125 0.29296875,-0.8203125 0.2988281,-0.5566407 0.9785156,-1.0488282 0.6855469,-0.4921875 1.6933595,-0.4921875 1.2128905,0 2.0039062,0.75 0.796875,0.7441407 0.9960937,1.78125 H 5.3027344 Q 5.1445312,-6.5683594 4.7109375,-6.9375 4.2832031,-7.3066406 3.6679688,-7.3066406 q -0.4570313,0 -0.7910157,0.1875 -0.3339843,0.1875 -0.5273437,0.4335937 -0.2519531,0.328125 -0.3457031,0.7207032 -0.087891,0.3925781 -0.087891,1.7050781 0,1.3183593 0.087891,1.7109375 0.09375,0.3925781 0.3457031,0.7089844 0.1933594,0.2578125 0.5273437,0.4453125 0.3339844,0.1816406 0.7910157,0.1816406 0.7382812,0 1.2421874,-0.5039063 0.5097657,-0.5039062 0.5097657,-1.3125 V -3.46875 Z" style="font-size:12px;font-family:AlteDIN1451Mittelschrift;fill:#1e1e1e;fill-opacity:1;stroke:none"/><path id="path1159" d="m 11.337891,0.02929688 v -0.5390625 h -0.02344 q -0.169922,0.31640625 -0.509765,0.45703125 -0.363282,0.15234374 -0.9492192,0.15234374 -1.0078125,-0.0234375 -1.5234375,-0.5390625 -0.5625001,-0.515625 -0.5625001,-1.31835937 0,-0.7617188 0.4863282,-1.2773438 0.4863281,-0.515625 1.4355469,-0.5273437 h 1.6464847 v -0.6445312 q 0.0059,-0.8085938 -1.212891,-0.7851563 -0.421875,0 -0.703125,0.09375 -0.2753906,0.1230469 -0.4160156,0.3808594 l -0.9375,-0.7382813 q 0.6796875,-0.9082031 1.9980466,-0.8847656 1.107422,-0.011719 1.78125,0.4335938 0.66211,0.4628906 0.673828,1.5703125 v 4.16601558 z m 0,-2.13867188 V -2.5546875 H 9.9140625 q -1.0429687,0.029297 -1.03125,0.7382813 0,0.3046875 0.2695313,0.5273437 0.2578125,0.2402344 0.8496092,0.2402344 0.75,0.011719 1.054688,-0.1816406 0.28125,-0.1933594 0.28125,-0.8789063 z" style="font-size:12px;font-family:AlteDIN1451Mittelschrift;fill:#1e1e1e;fill-opacity:1;stroke:none"/><path id="path1161" d="M 13.916016,0.00585938 V -6.0761719 h 1.224609 v 6.08203128 z m 0,-7.31249998 V -8.53125 h 1.224609 v 1.2246094 z" style="font-size:12px;font-family:AlteDIN1451Mittelschrift;fill:#1e1e1e;fill-opacity:1;stroke:none"/><path id="path1163" d="M 16.763672,0.00585938 V -6.0761719 h 1.224609 v 0.6503907 h 0.02344 q 0.568359,-0.7207032 1.582031,-0.7207032 0.708984,0 1.365234,0.5390625 0.66211,0.5390625 0.66211,1.5703125 v 4.04296878 h -1.22461 V -3.6152344 q 0,-0.6152343 -0.345703,-0.9609375 -0.339844,-0.3457031 -0.849609,-0.3457031 -0.527344,0 -0.873047,0.3457031 -0.339844,0.3457032 -0.339844,0.9609375 v 3.62109378 z" style="font-size:12px;font-family:AlteDIN1451Mittelschrift;fill:#1e1e1e;fill-opacity:1;stroke:none"/></g><g id="text79" aria-label="Type" transform="matrix(1 0 0 1 63.2042 169.8949)" style="font-size:12px;font-family:AlteDIN1451Mittelschrift;fill:#1e1e1e;fill-opacity:1"><path id="path1108" d="M 2.3613281,0.00585938 V -7.3828125 H 0.0234375 V -8.53125 h 5.9707031 v 1.1484375 H 3.65625 v 7.38867188 z" style="font-size:12px;font-family:AlteDIN1451Mittelschrift;fill:#1e1e1e;fill-opacity:1"/><path id="path1110" d="M 8.109375,-0.22851563 5.9296875,-6.0761719 H 7.21875 l 1.4414063,4.2597657 h 0.023437 L 10.125,-6.0761719 h 1.294922 L 8.8066406,1.265625 Q 8.5488281,1.96875 8.0976563,2.2148438 7.6464844,2.4667969 7.0898437,2.4667969 H 6.6796875 V 1.3125 h 0.3632812 q 0.5507813,0 0.7324219,-0.52734375 z" style="font-size:12px;font-family:AlteDIN1451Mittelschrift;fill:#1e1e1e;fill-opacity:1"/><path id="path1112" d="m 12.123047,2.4667969 v -8.5429688 h 1.224609 V -5.4375 q 0.638672,-0.7089844 1.570313,-0.7089844 0.55664,0 0.960937,0.2285157 0.404297,0.2226562 0.667969,0.5625 0.251953,0.328125 0.339844,0.7675781 0.09375,0.4335937 0.09375,1.5585937 0,1.1191407 -0.09375,1.5585938 -0.08789,0.4394531 -0.339844,0.76171873 -0.263672,0.34570312 -0.667969,0.56835937 -0.404297,0.21679687 -0.960937,0.21679687 -0.47461,0 -0.855469,-0.19335937 -0.375,-0.19335938 -0.714844,-0.52148437 V 2.4667969 Z m 2.425781,-3.609375 q 0.861328,0 1.03125,-0.5917969 0.175781,-0.5917969 0.175781,-1.2949219 0,-0.703125 -0.175781,-1.2949218 -0.169922,-0.5976563 -1.03125,-0.5976563 -0.861328,0 -1.03125,0.6152344 -0.169922,0.6152343 -0.169922,1.2773437 0,0.6621094 0.169922,1.2773438 0.169922,0.609375 1.03125,0.609375 z" style="font-size:12px;font-family:AlteDIN1451Mittelschrift;fill:#1e1e1e;fill-opacity:1"/><path id="path1114" d="m 23.039062,-2.5722656 h -3.785156 q 0,0.75 0.404297,1.125 0.410156,0.375 1.042969,0.375 0.755859,0 1.335937,-0.5859375 l 0.884766,0.75585935 Q 22.470703,-0.375 21.902344,-0.14648437 q -0.5625,0.22265624 -1.177735,0.22265624 -0.9375,0 -1.816406,-0.60351562 -0.878906,-0.60937495 -0.878906,-2.48437505 0,-1.7753906 0.808594,-2.4550781 0.814453,-0.6796875 1.699218,-0.6796875 1.001953,0 1.751953,0.6972657 0.75,0.6914062 0.75,1.8691406 z m -3.785156,-1.0078125 h 2.566406 q -0.0293,-0.6855469 -0.386718,-1.0488281 -0.357422,-0.3632813 -0.896485,-0.3632813 -0.544922,0 -0.908203,0.3632813 -0.357422,0.3632812 -0.375,1.0488281 z" style="font-size:12px;font-family:AlteDIN1451Mittelschrift;fill:#1e1e1e;fill-opacity:1"/></g><g id="text81" aria-label="Param A" transform="matrix(1 0 0 1 53.0595 239.9689)" style="font-size:12px;font-family:AlteDIN1451Mittelschrift;fill:#1e1e1e;fill-opacity:1"><path id="path1122" d="m 2.203125,-7.3066406 v 2.7539062 H 4.125 q 0.7207031,0 1.0722656,-0.4335937 0.3574219,-0.4335938 0.3574219,-0.9433594 0,-0.7734375 -0.5566406,-1.1367187 Q 4.640625,-7.3066406 4.078125,-7.3066406 Z M 0.90820313,0.00585938 V -8.53125 H 4.0078125 q 0.4980469,0 0.9550781,0.1054687 0.4628906,0.1054688 0.9609375,0.4921876 0.3867188,0.2988281 0.65625,0.8261718 0.2695313,0.5214844 0.2695313,1.2128907 0,0.9140625 -0.6855469,1.7402343 Q 5.484375,-3.328125 4.171875,-3.328125 h -1.96875 v 3.33398438 z" style="font-size:12px;font-family:AlteDIN1451Mittelschrift;fill:#1e1e1e;fill-opacity:1"/><path id="path1124" d="m 11.150391,0.02929688 v -0.5390625 h -0.02344 q -0.169922,0.31640625 -0.509765,0.45703125 -0.363282,0.15234374 -0.9492192,0.15234374 -1.0078125,-0.0234375 -1.5234375,-0.5390625 -0.5625001,-0.515625 -0.5625001,-1.31835937 0,-0.7617188 0.4863282,-1.2773438 0.4863281,-0.515625 1.4355469,-0.5273437 h 1.6464847 v -0.6445312 q 0.0059,-0.8085938 -1.212891,-0.7851563 -0.421875,0 -0.703125,0.09375 -0.2753906,0.1230469 -0.4160156,0.3808594 l -0.9375,-0.7382813 q 0.6796875,-0.9082031 1.9980469,-0.8847656 1.1074217,-0.011719 1.7812497,0.4335938 0.66211,0.4628906 0.673828,1.5703125 v 4.16601558 z m 0,-2.13867188 V -2.5546875 H 9.7265625 q -1.0429687,0.029297 -1.03125,0.7382813 0,0.3046875 0.2695313,0.5273437 0.2578125,0.2402344 0.8496093,0.2402344 0.7499999,0.011719 1.0546879,-0.1816406 0.28125,-0.1933594 0.28125,-0.8789063 z" style="font-size:12px;font-family:AlteDIN1451Mittelschrift;fill:#1e1e1e;fill-opacity:1"/><path id="path1126" d="M 13.693359,0.00585938 V -6.0761719 h 1.22461 v 0.6503907 h 0.02344 q 0.56836,-0.7207032 1.582031,-0.7207032 0.667969,0 1.271485,0.46875 l -0.884766,1.0546875 q -0.398437,-0.2988281 -0.808594,-0.2988281 -0.451171,0 -0.820312,0.3046875 -0.363281,0.2988281 -0.363281,0.9667969 v 3.65624998 z" style="font-size:12px;font-family:AlteDIN1451Mittelschrift;fill:#1e1e1e;fill-opacity:1"/><path id="path1128" d="m 21.580078,0.02929688 v -0.5390625 h -0.02344 q -0.169922,0.31640625 -0.509766,0.45703125 -0.363281,0.15234374 -0.949219,0.15234374 -1.007812,-0.0234375 -1.523437,-0.5390625 -0.5625,-0.515625 -0.5625,-1.31835937 0,-0.7617188 0.486328,-1.2773438 0.486328,-0.515625 1.435547,-0.5273437 h 1.646484 v -0.6445312 q 0.0059,-0.8085938 -1.212891,-0.7851563 -0.421875,0 -0.703125,0.09375 -0.27539,0.1230469 -0.416015,0.3808594 l -0.9375,-0.7382813 q 0.679687,-0.9082031 1.998047,-0.8847656 1.107422,-0.011719 1.78125,0.4335938 0.662109,0.4628906 0.673828,1.5703125 v 4.16601558 z m 0,-2.13867188 V -2.5546875 H 20.15625 q -1.042969,0.029297 -1.03125,0.7382813 0,0.3046875 0.269531,0.5273437 0.257813,0.2402344 0.84961,0.2402344 0.75,0.011719 1.054687,-0.1816406 0.28125,-0.1933594 0.28125,-0.8789063 z" style="font-size:12px;font-family:AlteDIN1451Mittelschrift;fill:#1e1e1e;fill-opacity:1"/><path id="path1130" d="M 24.193359,0.00585938 V -6.0761719 h 1.22461 v 0.6503907 h 0.02344 q 0.580078,-0.7207032 1.582031,-0.7207032 0.638672,0 1.013672,0.2285157 0.375,0.2285156 0.703125,0.5625 0.720703,-0.7910157 1.921875,-0.7910157 0.708985,0 1.365235,0.5390625 0.662109,0.5390625 0.662109,1.5703125 V 0.00585938 H 31.464844 V -3.6152344 q 0,-0.6152343 -0.345703,-0.9609375 -0.345704,-0.3457031 -0.855469,-0.3457031 -0.527344,0 -0.873047,0.3457031 -0.339844,0.3457032 -0.339844,0.9609375 v 3.62109378 h -1.21875 V -3.6152344 q 0,-0.6152343 -0.345703,-0.9609375 -0.345703,-0.3457031 -0.855469,-0.3457031 -0.527343,0 -0.873047,0.3457031 -0.339843,0.3457032 -0.339843,0.9609375 v 3.62109378 z" style="font-size:12px;font-family:AlteDIN1451Mittelschrift;fill:#1e1e1e;fill-opacity:1"/><path id="path1132" d="m 36.433594,0 3.117187,-8.5429688 h 1.066406 L 43.734375,0 H 42.375 L 41.71875,-1.9277344 H 38.478516 L 37.798828,0 Z m 2.425781,-3.0703125 h 2.472656 q -0.269531,-0.7910156 -0.427734,-1.2363281 -0.152344,-0.4511719 -0.269531,-0.796875 -0.111329,-0.3457031 -0.228516,-0.703125 -0.117188,-0.3574219 -0.310547,-0.9667969 -0.205078,0.6328125 -0.328125,1.0136719 -0.123047,0.375 -0.240234,0.7265625 -0.111328,0.3515625 -0.263672,0.7851562 -0.146485,0.4335938 -0.404297,1.1777344 z" style="font-size:12px;font-family:AlteDIN1451Mittelschrift;fill:#1e1e1e;fill-opacity:1"/></g><g id="text83" aria-label="Param B" transform="matrix(1 0 0 1 53.1386 312.021)" style="font-size:12px;font-family:AlteDIN1451Mittelschrift;fill:#1e1e1e;fill-opacity:1;stroke:none"><path id="path1135" d="m 2.203125,-7.3066406 v 2.7539062 H 4.125 q 0.7207031,0 1.0722656,-0.4335937 0.3574219,-0.4335938 0.3574219,-0.9433594 0,-0.7734375 -0.5566406,-1.1367187 Q 4.640625,-7.3066406 4.078125,-7.3066406 Z M 0.90820313,0.00585938 V -8.53125 H 4.0078125 q 0.4980469,0 0.9550781,0.1054687 0.4628906,0.1054688 0.9609375,0.4921876 0.3867188,0.2988281 0.65625,0.8261718 0.2695313,0.5214844 0.2695313,1.2128907 0,0.9140625 -0.6855469,1.7402343 Q 5.484375,-3.328125 4.171875,-3.328125 h -1.96875 v 3.33398438 z" style="font-size:12px;font-family:AlteDIN1451Mittelschrift;fill:#1e1e1e;fill-opacity:1;stroke:none"/><path id="path1137" d="m 11.150391,0.02929688 v -0.5390625 h -0.02344 q -0.169922,0.31640625 -0.509765,0.45703125 -0.363282,0.15234374 -0.9492192,0.15234374 -1.0078125,-0.0234375 -1.5234375,-0.5390625 -0.5625001,-0.515625 -0.5625001,-1.31835937 0,-0.7617188 0.4863282,-1.2773438 0.4863281,-0.515625 1.4355469,-0.5273437 h 1.6464847 v -0.6445312 q 0.0059,-0.8085938 -1.212891,-0.7851563 -0.421875,0 -0.703125,0.09375 -0.2753906,0.1230469 -0.4160156,0.3808594 l -0.9375,-0.7382813 q 0.6796875,-0.9082031 1.9980469,-0.8847656 1.1074217,-0.011719 1.7812497,0.4335938 0.66211,0.4628906 0.673828,1.5703125 v 4.16601558 z m 0,-2.13867188 V -2.5546875 H 9.7265625 q -1.0429687,0.029297 -1.03125,0.7382813 0,0.3046875 0.2695313,0.5273437 0.2578125,0.2402344 0.8496093,0.2402344 0.7499999,0.011719 1.0546879,-0.1816406 0.28125,-0.1933594 0.28125,-0.8789063 z" style="font-size:12px;font-family:AlteDIN1451Mittelschrift;fill:#1e1e1e;fill-opacity:1;stroke:none"/><path id="path1139" d="M 13.693359,0.00585938 V -6.0761719 h 1.22461 v 0.6503907 h 0.02344 q 0.56836,-0.7207032 1.582031,-0.7207032 0.667969,0 1.271485,0.46875 l -0.884766,1.0546875 q -0.398437,-0.2988281 -0.808594,-0.2988281 -0.451171,0 -0.820312,0.3046875 -0.363281,0.2988281 -0.363281,0.9667969 v 3.65624998 z" style="font-size:12px;font-family:AlteDIN1451Mittelschrift;fill:#1e1e1e;fill-opacity:1;stroke:none"/><path id="path1141" d="m 21.580078,0.02929688 v -0.5390625 h -0.02344 q -0.169922,0.31640625 -0.509766,0.45703125 -0.363281,0.15234374 -0.949219,0.15234374 -1.007812,-0.0234375 -1.523437,-0.5390625 -0.5625,-0.515625 -0.5625,-1.31835937 0,-0.7617188 0.486328,-1.2773438 0.486328,-0.515625 1.435547,-0.5273437 h 1.646484 v -0.6445312 q 0.0059,-0.8085938 -1.212891,-0.7851563 -0.421875,0 -0.703125,0.09375 -0.27539,0.1230469 -0.416015,0.3808594 l -0.9375,-0.7382813 q 0.679687,-0.9082031 1.998047,-0.8847656 1.107422,-0.011719 1.78125,0.4335938 0.662109,0.4628906 0.673828,1.5703125 v 4.16601558 z m 0,-2.13867188 V -2.5546875 H 20.15625 q -1.042969,0.029297 -1.03125,0.7382813 0,0.3046875 0.269531,0.5273437 0.257813,0.2402344 0.84961,0.2402344 0.75,0.011719 1.054687,-0.1816406 0.28125,-0.1933594 0.28125,-0.8789063 z" style="font-size:12px;font-family:AlteDIN1451Mittelschrift;fill:#1e1e1e;fill-opacity:1;stroke:none"/><path id="path1143" d="M 24.193359,0.00585938 V -6.0761719 h 1.22461 v 0.6503907 h 0.02344 q 0.580078,-0.7207032 1.582031,-0.7207032 0.638672,0 1.013672,0.2285157 0.375,0.2285156 0.703125,0.5625 0.720703,-0.7910157 1.921875,-0.7910157 0.708985,0 1.365235,0.5390625 0.662109,0.5390625 0.662109,1.5703125 V 0.00585938 H 31.464844 V -3.6152344 q 0,-0.6152343 -0.345703,-0.9609375 -0.345704,-0.3457031 -0.855469,-0.3457031 -0.527344,0 -0.873047,0.3457031 -0.339844,0.3457032 -0.339844,0.9609375 v 3.62109378 h -1.21875 V -3.6152344 q 0,-0.6152343 -0.345703,-0.9609375 -0.345703,-0.3457031 -0.855469,-0.3457031 -0.527343,0 -0.873047,0.3457031 -0.339843,0.3457032 -0.339843,0.9609375 v 3.62109378 z" style="font-size:12px;font-family:AlteDIN1451Mittelschrift;fill:#1e1e1e;fill-opacity:1;stroke:none"/><path id="path1145" d="M 37.330078,0.00585938 V -8.53125 h 3.310547 q 1.248047,0 1.886719,0.6445313 0.644531,0.6386718 0.644531,1.6464843 0,0.5273438 -0.257813,1.0136719 -0.257812,0.4863281 -1.001953,0.8203125 v 0.023437 q 0.703125,0.1640625 1.048828,0.7441406 0.345704,0.5742188 0.345704,1.2246094 0,1.1074219 -0.708985,1.76367188 -0.703125,0.65625 -1.664062,0.65625 z M 40.617187,-3.7851563 H 38.625 v 2.5722657 h 1.992187 q 0.720704,0 1.054688,-0.3867188 0.339844,-0.3925781 0.339844,-0.8964844 0,-0.5039062 -0.339844,-0.8964843 -0.333984,-0.3925782 -1.054688,-0.3925782 z M 40.5,-7.3828125 h -1.875 v 2.4492188 H 40.5 q 0.697266,0 1.037109,-0.3574219 0.339844,-0.3574219 0.339844,-0.8671875 0,-0.4921875 -0.339844,-0.8554688 Q 41.197266,-7.3828125 40.5,-7.3828125 Z" style="font-size:12px;font-family:AlteDIN1451Mittelschrift;fill:#1e1e1e;fill-opacity:1;stroke:none"/></g><g id="text85" aria-label="Z" transform="matrix(1 0 0 1 70.8517 353.1168)" style="font-size:16px;font-family:AlteDIN1451Mittelschrift;fill:#1e1e1e;fill-opacity:1;stroke:none;stroke-opacity:1"><path id="path1049" d="m 0.5234375,0.0078125 v -1.4375 L 5.6953125,-9.84375 H 0.734375 V -11.375 h 7.0703125 v 1.296875 l -5.1875,8.4609375 h 5.1875 v 1.625 z" style="font-size:16px;font-family:AlteDIN1451Mittelschrift;fill:#1e1e1e;fill-opacity:1;stroke:none;stroke-opacity:1"/></g><line style="stroke:#1e1e1e;stroke-opacity:1;stroke-linecap:round" id="line87" x1="15" x2="15" y1="110" y2="82.9" class="st3"/><line style="stroke:#1e1e1e;stroke-opacity:1;stroke-width:1.002;stroke-miterlimit:10;stroke-dasharray:none;stroke-linecap:round" id="line89" x1="135" x2="135" y1="110" y2="82.9" class="st3"/><line style="fill:none;stroke:#1e1e1e;stroke-width:1.02780378;stroke-linecap:round;stroke-miterlimit:10;stroke-dasharray:none;stroke-opacity:1" id="line91" x1="14.891" x2="59.434" y1="82.609" y2="63.223" class="st3"/><line style="fill:none;stroke:#1e1e1e;stroke-width:1.02786911;stroke-linecap:round;stroke-miterlimit:10;stroke-dasharray:none;stroke-opacity:1" id="line93" x1="134.606" x2="90.065" y1="82.608" y2="63.222" class="st3"/><line style="fill:none;stroke:#1e1e1e;stroke-width:1;stroke-miterlimit:10;stroke-dasharray:none;stroke-opacity:1" id="line99" x1="134.959" x2="104.841" y1="173.03" y2="161.999" class="st3"/><line style="stroke:#1e1e1e;stroke-opacity:1;stroke-width:1;stroke-miterlimit:10;stroke-dasharray:none" id="line101" x1="74.8" x2="104.9" y1="144" y2="162" class="st3"/><line style="fill:none;stroke:#1e1e1e;stroke-width:1;stroke-miterlimit:10;stroke-dasharray:none;stroke-opacity:1" id="line103" x1="14.923" x2="44.977" y1="173.031" y2="161.863" class="st3"/><line style="stroke:#1e1e1e;stroke-opacity:1" id="line105" x1="74.8" x2="44.9" y1="144" y2="162" class="st3"/><path id="line107" d="M 14.9,219 39,207" style="fill:none;stroke:#1e1e1e;stroke-width:1;stroke-miterlimit:10;stroke-dasharray:none;stroke-opacity:1"/><path id="line109" d="M 135,219 111,207" style="fill:none;stroke:#1e1e1e;stroke-width:1;stroke-miterlimit:10;stroke-dasharray:none;stroke-opacity:1"/><path id="line111" d="M 74.900002,213 111,207" style="fill:none;stroke:#1e1e1e;stroke-width:1;stroke-miterlimit:10;stroke-dasharray:none;stroke-opacity:1"/><path id="line113" d="m 38.900002,207 36,6" style="fill:none;stroke:#1e1e1e;stroke-width:1;stroke-miterlimit:10;stroke-dasharray:none;stroke-opacity:1"/><line style="stroke:#1e1e1e;stroke-opacity:1" id="line115" x1="14.9" x2="17.9" y1="243" y2="269.9" class="st3"/><line style="stroke:#1e1e1e;stroke-opacity:1" id="line117" x1="134.9" x2="132" y1="243" y2="269.9" class="st3"/><line style="stroke-width:1;stroke-miterlimit:10;stroke-dasharray:none;stroke:#1e1e1e;stroke-opacity:1" id="line119" x1="74.9" x2="132" y1="285" y2="269.9" class="st3"/><line style="stroke:#1e1e1e;stroke-opacity:1" id="line121" x1="17.9" x2="74.9" y1="269.9" y2="285" class="st3"/><path id="line123" d="m 75,213.2 v -21" style="fill:none;stroke:#1e1e1e;stroke-width:1;stroke-miterlimit:10;stroke-dasharray:none;stroke-opacity:1"/><line style="stroke:#1e1e1e;stroke-opacity:1" id="line125" x1="75" x2="75" y1="264.2" y2="285" class="st3"/><g id="text127" aria-label="XOR" transform="translate(37.1005,147.04587)" style="font-size:9px;font-family:AlteDIN1451Mittelschrift;fill:#1e1e1e;fill-opacity:1"><path id="path1084" d="M 3.8232422,0.00439453 2.4213867,-2.3774414 1.0151367,0.00439453 H -0.07910156 L 1.8808594,-3.2783203 0.04394531,-6.3984375 H 1.1425781 l 1.2788086,2.2192383 1.2744141,-2.2192383 H 4.7944336 L 2.9575195,-3.2783203 4.921875,0.00439453 Z" style="font-size:9px;font-family:AlteDIN1451Mittelschrift;fill:#1e1e1e;fill-opacity:1"/><path id="path1086" d="m 5.2822266,-3.1948242 q 0,-1.1557617 0.061523,-1.4897461 0.061523,-0.3339844 0.2197266,-0.6152344 0.2241211,-0.4174805 0.7338867,-0.7866211 0.5141601,-0.3691406 1.2700195,-0.3691406 0.7514649,0 1.2612305,0.3691406 0.5141601,0.3691406 0.7470703,0.7866211 0.1538086,0.28125 0.215332,0.6152344 0.061523,0.3339844 0.061523,1.4897461 0,1.1557617 -0.061523,1.4897461 -0.061523,0.3339844 -0.215332,0.6152344 -0.2329102,0.42187495 -0.7470703,0.78662104 -0.5097656,0.36035157 -1.2612305,0.36035157 -0.7558594,0 -1.2700195,-0.36035157 Q 5.7875977,-0.66796875 5.5634766,-1.0898437 5.4052734,-1.3710937 5.34375,-1.7050781 5.2822266,-2.0390625 5.2822266,-3.1948242 Z m 0.9711914,0 q 0,0.9887695 0.065918,1.2832031 0.070312,0.2944336 0.2592774,0.5317383 0.1450195,0.1933594 0.3955078,0.3339844 0.2504883,0.13623043 0.5932617,0.13623043 0.3427734,0 0.5932617,-0.13623043 0.2504883,-0.140625 0.3955078,-0.3339844 0.1889649,-0.2373047 0.2548829,-0.5317383 0.070312,-0.2944336 0.070312,-1.2832031 0,-0.984375 -0.070312,-1.2788086 -0.065918,-0.2944336 -0.2548829,-0.5405274 -0.1450195,-0.1845703 -0.3955078,-0.3251953 -0.2504883,-0.140625 -0.5932617,-0.140625 -0.3427734,0 -0.5932617,0.140625 -0.2504883,0.140625 -0.3955078,0.3251953 -0.1889649,0.2460938 -0.2592774,0.5405274 -0.065918,0.2944336 -0.065918,1.2788086 z" style="font-size:9px;font-family:AlteDIN1451Mittelschrift;fill:#1e1e1e;fill-opacity:1"/><path id="path1088" d="m 11.953125,-5.5371094 v 1.9423828 h 1.467773 q 0.544922,0 0.817383,-0.3032226 0.272461,-0.3032227 0.272461,-0.7119141 0,-0.4877929 -0.325195,-0.7294922 -0.272461,-0.1977539 -0.70752,-0.1977539 z M 10.981934,0.00439453 V -6.3984375 h 2.504882 q 0.821778,0 1.300782,0.421875 0.268066,0.2329102 0.452636,0.5844727 0.188965,0.3515625 0.188965,0.7822265 0,0.6196289 -0.333984,1.0986328 -0.32959,0.4746094 -0.909668,0.6723633 l 1.485351,2.84326173 H 14.519531 L 13.196777,-2.7290039 h -1.243652 v 2.73339843 z" style="font-size:9px;font-family:AlteDIN1451Mittelschrift;fill:#1e1e1e;fill-opacity:1"/></g><g id="text129" aria-label="AND" transform="matrix(1 0 0 1 6.3255 157.0461)" style="font-size:9px;font-family:AlteDIN1451Mittelschrift;fill:#1e1e1e;fill-opacity:1"><path id="path1074" d="M 0.00878906,0 2.3466797,-6.4072266 H 3.1464844 L 5.484375,0 H 4.4648437 L 3.9726563,-1.4458008 H 1.5424805 L 1.0327148,0 Z M 1.828125,-2.3027344 H 3.6826172 Q 3.4804688,-2.8959961 3.3618164,-3.2299805 3.2475586,-3.5683594 3.159668,-3.8276367 3.0761719,-4.0869141 2.9882813,-4.3549805 2.9003906,-4.6230469 2.7553711,-5.0800781 q -0.1538086,0.4746094 -0.2460938,0.7602539 -0.092285,0.28125 -0.1801757,0.5449219 -0.083496,0.2636718 -0.1977539,0.5888671 -0.1098633,0.3251954 -0.3032227,0.8833008 z" style="font-size:9px;font-family:AlteDIN1451Mittelschrift;fill:#1e1e1e;fill-opacity:1"/><path id="path1076" d="M 6.2885742,0.00439453 V -6.3984375 h 0.918457 l 2.8959958,4.5527344 h 0.01758 v -4.5527344 h 0.975586 V 0.00439453 H 10.177734 L 7.2817383,-4.5483398 h -0.021973 v 4.55273433 z" style="font-size:9px;font-family:AlteDIN1451Mittelschrift;fill:#1e1e1e;fill-opacity:1"/><path id="path1078" d="M 12.440918,0.00439453 V -6.3984375 h 2.241211 q 1.313965,0 1.951172,1.0766602 0.237304,0.4086914 0.290039,0.7646484 0.05273,0.355957 0.05273,1.3623047 0,1.0810547 -0.07471,1.4458008 -0.07031,0.3603515 -0.285644,0.6943359 -0.285645,0.44824219 -0.786621,0.75585937 -0.496582,0.30322266 -1.208497,0.30322266 z m 0.971191,-5.48437503 v 4.57031253 h 1.164551 q 0.799805,0 1.186524,-0.55810543 0.158203,-0.2416993 0.197754,-0.5185547 0.04394,-0.28125 0.04394,-1.1733399 0,-0.8613281 -0.04834,-1.1909179 -0.04395,-0.3295899 -0.237305,-0.5932618 -0.399902,-0.5361328 -1.142578,-0.5361328 z" style="font-size:9px;font-family:AlteDIN1451Mittelschrift;fill:#1e1e1e;fill-opacity:1"/></g><g id="text131" aria-label="L" transform="translate(26.9437,152.65563)" style="font-size:11px;font-family:AlteDIN1451Mittelschrift;fill:#1e1e1e;fill-opacity:1"><path id="path1081" d="M 0.83251953,0.00537109 V -7.8203125 H 2.0195313 v 6.7084961 h 3.8188476 v 1.11718749 z" style="font-size:11px;font-family:AlteDIN1451Mittelschrift;fill:#1e1e1e;fill-opacity:1"/></g><g id="text133" aria-label="AND" transform="matrix(1 0 0 1 126.2302 157.046)" style="font-size:9px;font-family:AlteDIN1451Mittelschrift;fill:#1e1e1e;fill-opacity:1;stroke:none;stroke-opacity:1"><path id="path1098" d="M 0.00878906,0 2.3466797,-6.4072266 H 3.1464844 L 5.484375,0 H 4.4648437 L 3.9726563,-1.4458008 H 1.5424805 L 1.0327148,0 Z M 1.828125,-2.3027344 H 3.6826172 Q 3.4804688,-2.8959961 3.3618164,-3.2299805 3.2475586,-3.5683594 3.159668,-3.8276367 3.0761719,-4.0869141 2.9882813,-4.3549805 2.9003906,-4.6230469 2.7553711,-5.0800781 q -0.1538086,0.4746094 -0.2460938,0.7602539 -0.092285,0.28125 -0.1801757,0.5449219 -0.083496,0.2636718 -0.1977539,0.5888671 -0.1098633,0.3251954 -0.3032227,0.8833008 z" style="font-size:9px;font-family:AlteDIN1451Mittelschrift;fill:#1e1e1e;fill-opacity:1;stroke:none;stroke-opacity:1"/><path id="path1100" d="M 6.2885742,0.00439453 V -6.3984375 h 0.918457 l 2.8959958,4.5527344 h 0.01758 v -4.5527344 h 0.975586 V 0.00439453 H 10.177734 L 7.2817383,-4.5483398 h -0.021973 v 4.55273433 z" style="font-size:9px;font-family:AlteDIN1451Mittelschrift;fill:#1e1e1e;fill-opacity:1;stroke:none;stroke-opacity:1"/><path id="path1102" d="M 12.440918,0.00439453 V -6.3984375 h 2.241211 q 1.313965,0 1.951172,1.0766602 0.237304,0.4086914 0.290039,0.7646484 0.05273,0.355957 0.05273,1.3623047 0,1.0810547 -0.07471,1.4458008 -0.07031,0.3603515 -0.285644,0.6943359 -0.285645,0.44824219 -0.786621,0.75585937 -0.496582,0.30322266 -1.208497,0.30322266 z m 0.971191,-5.48437503 v 4.57031253 h 1.164551 q 0.799805,0 1.186524,-0.55810543 0.158203,-0.2416993 0.197754,-0.5185547 0.04394,-0.28125 0.04394,-1.1733399 0,-0.8613281 -0.04834,-1.1909179 -0.04395,-0.3295899 -0.237305,-0.5932618 -0.399902,-0.5361328 -1.142578,-0.5361328 z" style="font-size:9px;font-family:AlteDIN1451Mittelschrift;fill:#1e1e1e;fill-opacity:1;stroke:none;stroke-opacity:1"/></g><g id="text135" aria-label="XOR" transform="translate(97.0852,147.04587)" style="font-size:9px;font-family:AlteDIN1451Mittelschrift;fill:#1e1e1e;fill-opacity:1"><path id="path1091" d="M 3.8232422,0.00439453 2.4213867,-2.3774414 1.0151367,0.00439453 H -0.07910156 L 1.8808594,-3.2783203 0.04394531,-6.3984375 H 1.1425781 l 1.2788086,2.2192383 1.2744141,-2.2192383 H 4.7944336 L 2.9575195,-3.2783203 4.921875,0.00439453 Z" style="font-size:9px;font-family:AlteDIN1451Mittelschrift;fill:#1e1e1e;fill-opacity:1"/><path id="path1093" d="m 5.2822266,-3.1948242 q 0,-1.1557617 0.061523,-1.4897461 0.061523,-0.3339844 0.2197266,-0.6152344 0.2241211,-0.4174805 0.7338867,-0.7866211 0.5141601,-0.3691406 1.2700195,-0.3691406 0.7514649,0 1.2612305,0.3691406 0.5141601,0.3691406 0.7470703,0.7866211 0.1538086,0.28125 0.215332,0.6152344 0.061523,0.3339844 0.061523,1.4897461 0,1.1557617 -0.061523,1.4897461 -0.061523,0.3339844 -0.215332,0.6152344 -0.2329102,0.42187495 -0.7470703,0.78662104 -0.5097656,0.36035157 -1.2612305,0.36035157 -0.7558594,0 -1.2700195,-0.36035157 Q 5.7875977,-0.66796875 5.5634766,-1.0898437 5.4052734,-1.3710937 5.34375,-1.7050781 5.2822266,-2.0390625 5.2822266,-3.1948242 Z m 0.9711914,0 q 0,0.9887695 0.065918,1.2832031 0.070312,0.2944336 0.2592774,0.5317383 0.1450195,0.1933594 0.3955078,0.3339844 0.2504883,0.13623043 0.5932617,0.13623043 0.3427734,0 0.5932617,-0.13623043 0.2504883,-0.140625 0.3955078,-0.3339844 0.1889649,-0.2373047 0.2548829,-0.5317383 0.070312,-0.2944336 0.070312,-1.2832031 0,-0.984375 -0.070312,-1.2788086 -0.065918,-0.2944336 -0.2548829,-0.5405274 -0.1450195,-0.1845703 -0.3955078,-0.3251953 -0.2504883,-0.140625 -0.5932617,-0.140625 -0.3427734,0 -0.5932617,0.140625 -0.2504883,0.140625 -0.3955078,0.3251953 -0.1889649,0.2460938 -0.2592774,0.5405274 -0.065918,0.2944336 -0.065918,1.2788086 z" style="font-size:9px;font-family:AlteDIN1451Mittelschrift;fill:#1e1e1e;fill-opacity:1"/><path id="path1095" d="m 11.953125,-5.5371094 v 1.9423828 h 1.467773 q 0.544922,0 0.817383,-0.3032226 0.272461,-0.3032227 0.272461,-0.7119141 0,-0.4877929 -0.325195,-0.7294922 -0.272461,-0.1977539 -0.70752,-0.1977539 z M 10.981934,0.00439453 V -6.3984375 h 2.504882 q 0.821778,0 1.300782,0.421875 0.268066,0.2329102 0.452636,0.5844727 0.188965,0.3515625 0.188965,0.7822265 0,0.6196289 -0.333984,1.0986328 -0.32959,0.4746094 -0.909668,0.6723633 l 1.485351,2.84326173 H 14.519531 L 13.196777,-2.7290039 h -1.243652 v 2.73339843 z" style="font-size:9px;font-family:AlteDIN1451Mittelschrift;fill:#1e1e1e;fill-opacity:1"/></g><g id="text137" aria-label="R" transform="translate(116.5905,152.65563)" style="font-size:11px;font-family:AlteDIN1451Mittelschrift;fill:#1e1e1e;fill-opacity:1"><path id="path1105" d="m 2.0195313,-6.7675781 v 2.3740234 h 1.7939453 q 0.6660156,0 0.9990234,-0.3706055 0.3330078,-0.3706054 0.3330078,-0.8701171 0,-0.5961914 -0.3974609,-0.8916016 Q 4.4150391,-6.7675781 3.8833008,-6.7675781 Z M 0.83251953,0.00537109 V -7.8203125 H 3.894043 q 1.0043945,0 1.5898437,0.515625 0.3276367,0.284668 0.5532227,0.7143555 0.230957,0.4296875 0.230957,0.9560547 0,0.7573242 -0.4082031,1.3427734 -0.4028321,0.5800781 -1.1118164,0.8217773 L 6.5634766,0.00537109 H 5.15625 L 3.5395508,-3.3354492 H 2.0195313 v 3.34082029 z" style="font-size:11px;font-family:AlteDIN1451Mittelschrift;fill:#1e1e1e;fill-opacity:1"/></g><g id="text145" aria-label="L AND R" transform="matrix(1 0 0 1 9.2378 315.416)" style="fill:#1e1e1e;fill-opacity:1;stroke:none"><path id="path1052" d="M 0.83251953,0.00537109 V -7.8203125 H 2.0195313 v 6.7084961 h 3.8188476 v 1.11718749 z" style="font-size:11px;font-family:AlteDIN1451Mittelschrift;fill:#1e1e1e;fill-opacity:1;stroke:none"/><path id="path1054" d="m 8.7087889,0 2.3378901,-6.4072266 h 0.799805 L 14.184375,0 H 13.164844 L 12.672656,-1.4458008 H 10.24248 L 9.7327147,0 Z m 1.8193361,-2.3027344 h 1.854492 q -0.202148,-0.5932617 -0.320801,-0.9272461 -0.114258,-0.3383789 -0.202148,-0.5976562 -0.0835,-0.2592774 -0.171387,-0.5273438 -0.08789,-0.2680664 -0.23291,-0.7250976 -0.153809,0.4746094 -0.246094,0.7602539 -0.09229,0.28125 -0.180176,0.5449219 -0.0835,0.2636718 -0.197754,0.5888671 -0.109863,0.3251954 -0.303222,0.8833008 z" style="font-size:9px;font-family:AlteDIN1451Mittelschrift;fill:#1e1e1e;fill-opacity:1;stroke:none"/><path id="path1056" d="M 14.988574,0.00439453 V -6.3984375 h 0.918457 l 2.895996,4.5527344 h 0.01758 v -4.5527344 h 0.975586 V 0.00439453 H 18.877734 L 15.981738,-4.5483398 h -0.02197 v 4.55273433 z" style="font-size:9px;font-family:AlteDIN1451Mittelschrift;fill:#1e1e1e;fill-opacity:1;stroke:none"/><path id="path1058" d="M 21.140918,0.00439453 V -6.3984375 h 2.241211 q 1.313965,0 1.951172,1.0766602 0.237304,0.4086914 0.290039,0.7646484 0.05273,0.355957 0.05273,1.3623047 0,1.0810547 -0.07471,1.4458008 -0.07031,0.3603515 -0.285645,0.6943359 -0.285644,0.44824219 -0.786621,0.75585937 -0.496582,0.30322266 -1.208496,0.30322266 z m 0.971191,-5.48437503 v 4.57031253 h 1.164551 q 0.799805,0 1.186523,-0.55810543 0.158204,-0.2416993 0.197754,-0.5185547 0.04395,-0.28125 0.04395,-1.1733399 0,-0.8613281 -0.04834,-1.1909179 -0.04395,-0.3295899 -0.237305,-0.5932618 -0.399902,-0.5361328 -1.142578,-0.5361328 z" style="font-size:9px;font-family:AlteDIN1451Mittelschrift;fill:#1e1e1e;fill-opacity:1;stroke:none"/><path id="path1060" d="m 30.86211,-6.7675781 v 2.3740234 h 1.793945 q 0.666016,0 0.999024,-0.3706055 0.333008,-0.3706054 0.333008,-0.8701171 0,-0.5961914 -0.397461,-0.8916016 -0.333008,-0.2416992 -0.864746,-0.2416992 z M 29.675098,0.00537109 V -7.8203125 h 3.061524 q 1.004394,0 1.589844,0.515625 0.327636,0.284668 0.553222,0.7143555 0.230957,0.4296875 0.230957,0.9560547 0,0.7573242 -0.408203,1.3427734 -0.402832,0.5800781 -1.111816,0.8217773 l 1.815429,3.47509769 H 33.998829 L 32.38213,-3.3354492 h -1.52002 v 3.34082029 z" style="font-size:11px;font-family:AlteDIN1451Mittelschrift;fill:#1e1e1e;fill-opacity:1;stroke:none"/></g><g id="text153" aria-label="L XOR R" transform="matrix(1 0 0 1 106.1168 315.416)" style="fill:#1e1e1e;fill-opacity:1;stroke:none;stroke-opacity:1"><path id="path1063" d="M 0.83251953,0.00537109 V -7.8203125 H 2.0195313 v 6.7084961 h 3.8188476 v 1.11718749 z" style="font-size:11px;font-family:AlteDIN1451Mittelschrift;fill:#1e1e1e;fill-opacity:1;stroke:none;stroke-opacity:1"/><path id="path1065" d="M 12.523242,0.00439453 11.121387,-2.3774414 9.7151365,0.00439453 H 8.6208982 L 10.580859,-3.2783203 8.7439451,-6.3984375 h 1.0986328 l 1.2788091,2.2192383 1.274414,-2.2192383 h 1.098632 l -1.836914,3.1201172 1.964356,3.28271483 z" style="font-size:9px;font-family:AlteDIN1451Mittelschrift;fill:#1e1e1e;fill-opacity:1;stroke:none;stroke-opacity:1"/><path id="path1067" d="m 13.982226,-3.1948242 q 0,-1.1557617 0.06152,-1.4897461 0.06152,-0.3339844 0.219726,-0.6152344 0.224121,-0.4174805 0.733887,-0.7866211 0.51416,-0.3691406 1.27002,-0.3691406 0.751464,0 1.26123,0.3691406 0.51416,0.3691406 0.74707,0.7866211 0.153809,0.28125 0.215332,0.6152344 0.06152,0.3339844 0.06152,1.4897461 0,1.1557617 -0.06152,1.4897461 -0.06152,0.3339844 -0.215332,0.6152344 -0.23291,0.42187495 -0.74707,0.78662104 -0.509766,0.36035157 -1.26123,0.36035157 -0.75586,0 -1.27002,-0.36035157 -0.509766,-0.36474609 -0.733887,-0.78662104 -0.158203,-0.28125 -0.219726,-0.6152344 -0.06152,-0.3339844 -0.06152,-1.4897461 z m 0.971192,0 q 0,0.9887695 0.06592,1.2832031 0.07031,0.2944336 0.259277,0.5317383 0.14502,0.1933594 0.395508,0.3339844 0.250488,0.13623043 0.593262,0.13623043 0.342773,0 0.593261,-0.13623043 0.250489,-0.140625 0.395508,-0.3339844 0.188965,-0.2373047 0.254883,-0.5317383 0.07031,-0.2944336 0.07031,-1.2832031 0,-0.984375 -0.07031,-1.2788086 -0.06592,-0.2944336 -0.254883,-0.5405274 -0.145019,-0.1845703 -0.395508,-0.3251953 -0.250488,-0.140625 -0.593261,-0.140625 -0.342774,0 -0.593262,0.140625 -0.250488,0.140625 -0.395508,0.3251953 -0.188965,0.2460938 -0.259277,0.5405274 -0.06592,0.2944336 -0.06592,1.2788086 z" style="font-size:9px;font-family:AlteDIN1451Mittelschrift;fill:#1e1e1e;fill-opacity:1;stroke:none;stroke-opacity:1"/><path id="path1069" d="m 20.653125,-5.5371094 v 1.9423828 h 1.467773 q 0.544922,0 0.817383,-0.3032226 0.272461,-0.3032227 0.272461,-0.7119141 0,-0.4877929 -0.325195,-0.7294922 -0.272461,-0.1977539 -0.70752,-0.1977539 z M 19.681933,0.00439453 V -6.3984375 h 2.504883 q 0.821778,0 1.300781,0.421875 0.268067,0.2329102 0.452637,0.5844727 0.188965,0.3515625 0.188965,0.7822265 0,0.6196289 -0.333984,1.0986328 -0.32959,0.4746094 -0.909668,0.6723633 l 1.485351,2.84326173 H 23.219531 L 21.896777,-2.7290039 h -1.243652 v 2.73339843 z" style="font-size:9px;font-family:AlteDIN1451Mittelschrift;fill:#1e1e1e;fill-opacity:1;stroke:none;stroke-opacity:1"/><path id="path1071" d="m 29.162109,-6.7675781 v 2.3740234 h 1.793946 q 0.666015,0 0.999023,-0.3706055 0.333008,-0.3706054 0.333008,-0.8701171 0,-0.5961914 -0.397461,-0.8916016 -0.333008,-0.2416992 -0.864746,-0.2416992 z M 27.975098,0.00537109 V -7.8203125 h 3.061523 q 1.004395,0 1.589844,0.515625 0.327637,0.284668 0.553222,0.7143555 0.230958,0.4296875 0.230958,0.9560547 0,0.7573242 -0.408204,1.3427734 -0.402832,0.5800781 -1.111816,0.8217773 l 1.81543,3.47509769 H 32.298828 L 30.682129,-3.3354492 h -1.52002 v 3.34082029 z" style="font-size:11px;font-family:AlteDIN1451Mittelschrift;fill:#1e1e1e;fill-opacity:1;stroke:none;stroke-opacity:1"/></g><g style="fill:none;fill-opacity:1;stroke:#1e1e1e;stroke-opacity:1" id="g164"><line style="fill:none;fill-opacity:1;stroke:#1e1e1e;stroke-opacity:1" id="line155" x1="111.5" x2="105" y1="351" y2="351" class="st3"/><line style="fill:none;fill-opacity:1;stroke:#1e1e1e;stroke-opacity:1" id="line157" x1="111" x2="111" y1="345" y2="351" class="st3"/><line style="fill:none;fill-opacity:1;stroke:#1e1e1e;stroke-opacity:1" id="line159" x1="117.5" x2="111" y1="345.5" y2="345.5" class="st3"/><line style="fill:none;fill-opacity:1;stroke:#1e1e1e;stroke-opacity:1" id="line162" x1="117" x2="117" y1="351.5" y2="345.5" class="st3"/></g><g style="fill:none;fill-opacity:1;stroke-width:1;stroke-miterlimit:4;stroke-dasharray:none;stroke:#1e1e1e;stroke-opacity:1" id="g182"><line style="fill:none;fill-opacity:1;stroke-width:1;stroke-miterlimit:4;stroke-dasharray:none;stroke:#1e1e1e;stroke-opacity:1" id="line166" x1="132.5" x2="129" y1="351" y2="351" class="st3"/><line style="fill:none;fill-opacity:1;stroke-width:1;stroke-miterlimit:4;stroke-dasharray:none;stroke:#1e1e1e;stroke-opacity:1" id="line168" x1="132" x2="132" y1="345" y2="351" class="st3"/><line style="fill:none;fill-opacity:1;stroke-width:1;stroke-miterlimit:4;stroke-dasharray:none;stroke:#1e1e1e;stroke-opacity:1" id="line170" x1="135.5" x2="132" y1="345.5" y2="345.5" class="st3"/><line style="fill:none;fill-opacity:1;stroke-width:1;stroke-miterlimit:4;stroke-dasharray:none;stroke:#1e1e1e;stroke-opacity:1" id="line172" x1="135" x2="135" y1="351.5" y2="345.5" class="st3"/><line style="fill:none;fill-opacity:1;stroke-width:1;stroke-miterlimit:4;stroke-dasharray:none;stroke:#1e1e1e;stroke-opacity:1" id="line174" x1="138.5" x2="135" y1="351" y2="351" class="st3"/><line style="fill:none;fill-opacity:1;stroke-width:1;stroke-miterlimit:4;stroke-dasharray:none;stroke:#1e1e1e;stroke-opacity:1" id="line176" x1="138" x2="138" y1="345" y2="351" class="st3"/><line style="fill:none;fill-opacity:1;stroke-width:1;stroke-miterlimit:4;stroke-dasharray:none;stroke:#1e1e1e;stroke-opacity:1" id="line178" x1="141.5" x2="137.5" y1="345.5" y2="345.5" class="st3"/><line style="fill:none;fill-opacity:1;stroke-width:1;stroke-miterlimit:4;stroke-dasharray:none;stroke:#1e1e1e;stroke-opacity:1" id="line180" x1="141" x2="141" y1="351.5" y2="345.5" class="st3"/></g><g style="fill:none;fill-opacity:1;stroke-width:1;stroke-miterlimit:4;stroke-dasharray:none;stroke:#1e1e1e;stroke-opacity:1" id="g192"><line style="fill:none;fill-opacity:1;stroke-width:1;stroke-miterlimit:4;stroke-dasharray:none;stroke:#1e1e1e;stroke-opacity:1" id="line184" x1="39.5" x2="33" y1="351" y2="351" class="st3"/><line style="fill:none;fill-opacity:1;stroke-width:1;stroke-miterlimit:4;stroke-dasharray:none;stroke:#1e1e1e;stroke-opacity:1" id="line186" x1="39" x2="39" y1="345" y2="351" class="st3"/><line style="fill:none;fill-opacity:1;stroke-width:1;stroke-miterlimit:4;stroke-dasharray:none;stroke:#1e1e1e;stroke-opacity:1" id="line188" x1="45.5" x2="39" y1="345.5" y2="345.5" class="st3"/><line style="fill:none;fill-opacity:1;stroke-width:1;stroke-miterlimit:4;stroke-dasharray:none;stroke:#1e1e1e;stroke-opacity:1" id="line190" x1="45" x2="45" y1="351.5" y2="345.5" class="st3"/></g><g style="fill:none;fill-opacity:1;stroke:#1e1e1e;stroke-opacity:1;stroke-width:1;stroke-miterlimit:4;stroke-dasharray:none" id="g210"><line style="fill:none;fill-opacity:1;stroke:#1e1e1e;stroke-opacity:1;stroke-width:1;stroke-miterlimit:4;stroke-dasharray:none" id="line194" x1="12.5" x2="9" y1="351" y2="351" class="st3"/><line style="fill:none;fill-opacity:1;stroke:#1e1e1e;stroke-opacity:1;stroke-width:1;stroke-miterlimit:4;stroke-dasharray:none" id="line196" x1="12" x2="12" y1="345" y2="351" class="st3"/><line style="fill:none;fill-opacity:1;stroke:#1e1e1e;stroke-opacity:1;stroke-width:1;stroke-miterlimit:4;stroke-dasharray:none" id="line198" x1="15.5" x2="12" y1="345.5" y2="345.5" class="st3"/><line style="fill:none;fill-opacity:1;stroke:#1e1e1e;stroke-opacity:1;stroke-width:1;stroke-miterlimit:4;stroke-dasharray:none" id="line200" x1="15" x2="15" y1="351.5" y2="345.5" class="st3"/><line style="fill:none;fill-opacity:1;stroke:#1e1e1e;stroke-opacity:1;stroke-width:1;stroke-miterlimit:4;stroke-dasharray:none" id="line202" x1="18.5" x2="15" y1="351" y2="351" class="st3"/><line style="fill:none;fill-opacity:1;stroke:#1e1e1e;stroke-opacity:1;stroke-width:1;stroke-miterlimit:4;stroke-dasharray:none" id="line204" x1="18" x2="18" y1="345" y2="351" class="st3"/><line style="fill:none;fill-opacity:1;stroke:#1e1e1e;stroke-opacity:1;stroke-width:1;stroke-miterlimit:4;stroke-dasharray:none" id="line206" x1="21.5" x2="17.5" y1="345.5" y2="345.5" class="st3"/><line style="fill:none;fill-opacity:1;stroke:#1e1e1e;stroke-opacity:1;stroke-width:1;stroke-miterlimit:4;stroke-dasharray:none" id="line208" x1="21" x2="21" y1="351.5" y2="345.5" class="st3"/></g><path id="rect216" d="M 33.299999,173.8 H 117 v 18.5 H 33.299999 Z" style="fill:#111;fill-opacity:1;stroke:#414042;stroke-miterlimit:10;stroke-opacity:1"/><path id="rect218" d="M 33.299999,245.8 H 117 v 18.5 H 33.299999 Z" style="fill:#111;fill-opacity:1;stroke:#414042;stroke-miterlimit:10;stroke-opacity:1"/></svg>