<svg xmlns="http://www.w3.org/2000/svg" xmlns:svg="http://www.w3.org/2000/svg" id="svg15246" width="21.491" height="21.491" version="1.1" viewBox="0 0 5.686 5.686"><defs id="defs15240"><clipPath id="clip89"><rect id="rect4864" width="18" height="19" x="0" y="0"/></clipPath><clipPath id="clip90"><path id="path4861" d="m 0.898438,0.128906 h 16.25 v 17.882813 h -16.25 z m 0,0"/></clipPath><mask id="mask44"><g style="filter:url(#alpha)" id="g4858" transform="matrix(0.26458333,0,0,0.26458333,89.358789,128.57765)"><rect style="fill:#000;fill-opacity:.14999402;stroke:none" id="rect4856" width="3052.87" height="3351.5" x="0" y="0"/></g></mask><filter id="alpha" width="1" height="1" x="0" y="0" filterUnits="objectBoundingBox"><feColorMatrix id="feColorMatrix4149" in="SourceGraphic" type="matrix" values="0 0 0 0 1 0 0 0 0 1 0 0 0 0 1 0 0 0 1 0"/></filter><clipPath id="clipPath17821"><rect id="rect17819" width="18" height="19" x="0" y="0"/></clipPath><clipPath id="clipPath17825"><path id="path17823" d="m 0.898438,0.128906 h 16.25 v 17.882813 h -16.25 z m 0,0"/></clipPath><clipPath id="clip87"><rect id="rect4848" width="24" height="26" x="0" y="0"/></clipPath><clipPath id="clip88"><path id="path4845" d="m 0.683594,0.921875 h 22.679687 v 24.9375 H 0.683594 Z m 0,0"/></clipPath><mask id="mask43"><g style="filter:url(#alpha)" id="g4842" transform="matrix(0.26458333,0,0,0.26458333,89.358789,128.57765)"><rect style="fill:#000;fill-opacity:.14999402;stroke:none" id="rect4840" width="3052.87" height="3351.5" x="0" y="0"/></g></mask><filter id="filter17836" width="1" height="1" x="0" y="0" filterUnits="objectBoundingBox"><feColorMatrix id="feColorMatrix17834" in="SourceGraphic" type="matrix" values="0 0 0 0 1 0 0 0 0 1 0 0 0 0 1 0 0 0 1 0"/></filter><clipPath id="clipPath17840"><rect id="rect17838" width="24" height="26" x="0" y="0"/></clipPath><clipPath id="clipPath17844"><path id="path17842" d="m 0.683594,0.921875 h 22.679687 v 24.9375 H 0.683594 Z m 0,0"/></clipPath></defs><metadata id="metadata15243"/><g id="layer1" transform="translate(-89.945866,-120.5333)"><path id="path7255" d="m 92.788964,126.09449 c -1.499059,0 -2.718082,-1.21902 -2.718082,-2.71809 0,-1.49904 1.219023,-2.71808 2.718082,-2.71808 1.499056,0 2.718081,1.21904 2.718081,2.71808 0,1.49907 -1.219025,2.71809 -2.718081,2.71809" style="fill:#636466;fill-opacity:1;fill-rule:nonzero;stroke:#000;stroke-width:.25003126;stroke-miterlimit:4;stroke-dasharray:none;stroke-opacity:1"/><path id="path7261" d="m 92.788964,125.49191 c -1.166614,0 -2.115487,-0.94889 -2.115487,-2.1155 0,-1.16661 0.948873,-2.11548 2.115487,-2.11548 1.166614,0 2.115484,0.94887 2.115484,2.11548 0,1.16661 -0.94887,2.1155 -2.115484,2.1155" style="fill:#d4d7d9;fill-opacity:1;fill-rule:nonzero;stroke:#343b3f;stroke-width:.13229167;stroke-miterlimit:4;stroke-dasharray:none;stroke-opacity:1"/><path style="fill:#929a9e;fill-opacity:1;fill-rule:nonzero;stroke:none;stroke-width:.13229167;stroke-miterlimit:4;stroke-dasharray:none;stroke-opacity:1" id="path1187" d="m 92.788963,125.44957 c -1.13002,0 -2.049129,-0.86102 -2.049129,-1.9196 0,-1.05858 0.919109,-1.91959 2.049129,-1.91959 1.130022,0 2.049128,0.86101 2.049128,1.91959 0,1.05858 -0.919106,1.9196 -2.049128,1.9196"/><path style="fill:#dee4e5;fill-opacity:1;fill-rule:nonzero;stroke:none;stroke-width:.35277775" id="path861" d="m 94.14281,123.64102 c 0,0.75322 -0.606435,1.3644 -1.353853,1.3644 -0.747421,0 -1.353856,-0.61118 -1.353856,-1.3644 0,-0.75321 0.606435,-1.36436 1.353856,-1.36436 0.747418,0 1.353853,0.61115 1.353853,1.36436"/><path id="path7265" d="m 94.139833,123.37641 c 0,0.74577 -0.605099,1.35088 -1.350869,1.35088 -0.745773,0 -1.350872,-0.60511 -1.350872,-1.35088 0,-0.74577 0.605099,-1.35085 1.350872,-1.35085 0.74577,0 1.350869,0.60508 1.350869,1.35085" style="fill:#000;fill-opacity:1;fill-rule:nonzero;stroke:none;stroke-width:.35277775"/></g></svg>