<svg xmlns="http://www.w3.org/2000/svg" xmlns:svg="http://www.w3.org/2000/svg" id="svg49872" width="8mm" height="8mm" version="1.1" viewBox="0 0 8 8"><defs id="defs49866"><clipPath id="clip12"><path id="path28860" d="m 143,129.75 h 3 V 158 h -3 z m 0,0"/></clipPath><clipPath id="clip11"><path id="path28857" d="m 117.39453,129.75 h 54 v 54.00391 h -54 z m 0,0"/></clipPath><clipPath id="clip150"><path id="path29465" d="m 176,208.92578 h 2 V 228 h -2 z m 0,0"/></clipPath><clipPath id="clip149"><path id="path29462" d="m 159.27734,208.92578 h 36 v 36 h -36 z m 0,0"/></clipPath><clipPath id="clip142"><path id="path29320" d="m 110,208.92578 h 3 V 228 h -3 z m 0,0"/></clipPath><clipPath id="clip141"><path id="path29317" d="m 93.511719,208.92578 h 36.000001 v 36 H 93.511719 Z m 0,0"/></clipPath></defs><metadata id="metadata49869"/><path id="bidooKnob" d="M 7.7209258,3.9943501 A 3.7209301,3.7209301 0 0 1 4.0057798,7.7209256 3.7209301,3.7209301 0 0 1 0.27907459,4.0059098 3.7209301,3.7209301 0 0 1 3.9939603,0.2790748 3.7209301,3.7209301 0 0 1 7.720925,3.9938303" style="opacity:1;fill:#fff;fill-opacity:1;fill-rule:evenodd;stroke:#000;stroke-width:.55800003;stroke-linecap:butt;stroke-linejoin:miter;stroke-miterlimit:4;stroke-dasharray:none;stroke-dashoffset:0;stroke-opacity:1"><title id="title826">bidooKnob</title></path><path id="rect829" d="m 3.9970756,0.93494142 h 0.00585 V 3.9920292 h -0.00585 z" style="opacity:1;fill:#fff;fill-opacity:1;fill-rule:evenodd;stroke:#fff;stroke-width:.75515127;stroke-linecap:butt;stroke-linejoin:miter;stroke-miterlimit:4;stroke-dasharray:none;stroke-dashoffset:0;stroke-opacity:1"/></svg>