<svg xmlns="http://www.w3.org/2000/svg" xmlns:svg="http://www.w3.org/2000/svg" id="svg49872" width="19mm" height="19mm" version="1.1" viewBox="0 0 19 19"><defs id="defs49866"><clipPath id="clip12"><path id="path28860" d="m 143,129.75 h 3 V 158 h -3 z m 0,0"/></clipPath><clipPath id="clip11"><path id="path28857" d="m 117.39453,129.75 h 54 v 54.00391 h -54 z m 0,0"/></clipPath><clipPath id="clip150"><path id="path29465" d="m 176,208.92578 h 2 V 228 h -2 z m 0,0"/></clipPath><clipPath id="clip149"><path id="path29462" d="m 159.27734,208.92578 h 36 v 36 h -36 z m 0,0"/></clipPath><clipPath id="clip142"><path id="path29320" d="m 110,208.92578 h 3 V 228 h -3 z m 0,0"/></clipPath><clipPath id="clip141"><path id="path29317" d="m 93.511719,208.92578 h 36.000001 v 36 H 93.511719 Z m 0,0"/></clipPath></defs><metadata id="metadata49869"/><path id="paath31010907" d="M 9.5470128,0.51468566 A 8.9850262,8.9848471 44.806109 0 1 18.484333,9.5468542 8.9850262,8.9848471 44.806109 0 1 9.4526541,18.484308 8.9850262,8.9848471 44.806109 0 1 0.51470557,9.4527594 8.9850262,8.9848471 44.806109 0 1 9.5457679,0.51467916" style="opacity:1;fill:#2a5775;fill-opacity:1;fill-rule:evenodd;stroke:#000;stroke-width:1.03012431;stroke-linecap:butt;stroke-linejoin:round;stroke-miterlimit:4;stroke-dasharray:none;stroke-dashoffset:0;stroke-opacity:1"/><path id="path832" d="m 9.5001942,1.0405202 v 7.3183974 0" style="fill:none;fill-rule:evenodd;stroke:#fcfcfc;stroke-width:1.2038542;stroke-linecap:butt;stroke-linejoin:miter;stroke-miterlimit:4;stroke-dasharray:none;stroke-opacity:1"/></svg>