<svg xmlns="http://www.w3.org/2000/svg" xmlns:svg="http://www.w3.org/2000/svg" id="svg49872" width="10mm" height="10mm" version="1.1" viewBox="0 0 10 10"><defs id="defs49866"><clipPath id="clip12"><path id="path28860" d="m 143,129.75 h 3 V 158 h -3 z m 0,0"/></clipPath><clipPath id="clip11"><path id="path28857" d="m 117.39453,129.75 h 54 v 54.00391 h -54 z m 0,0"/></clipPath><clipPath id="clip150"><path id="path29465" d="m 176,208.92578 h 2 V 228 h -2 z m 0,0"/></clipPath><clipPath id="clip149"><path id="path29462" d="m 159.27734,208.92578 h 36 v 36 h -36 z m 0,0"/></clipPath><clipPath id="clip142"><path id="path29320" d="m 110,208.92578 h 3 V 228 h -3 z m 0,0"/></clipPath><clipPath id="clip141"><path id="path29317" d="m 93.511719,208.92578 h 36.000001 v 36 H 93.511719 Z m 0,0"/></clipPath></defs><metadata id="metadata49869"/><path style="opacity:1;fill:#cd1f00;fill-opacity:1;fill-rule:evenodd;stroke:#000;stroke-width:.71384585;stroke-linecap:butt;stroke-linejoin:round;stroke-miterlimit:4;stroke-dasharray:none;stroke-dashoffset:0;stroke-opacity:1" id="paath31010907" d="M 5.0245413,0.35702889 A 4.6430828,4.6429902 44.8907 0 1 9.6429723,5.0244727 4.6430828,4.6429902 44.8907 0 1 4.9757804,9.6429725 4.6430828,4.6429902 44.8907 0 1 0.35702571,4.9758486 4.6430828,4.6429902 44.8907 0 1 5.0238978,0.35702553"/><path style="fill:none;fill-rule:evenodd;stroke:#fcfcfc;stroke-width:.65122837;stroke-linecap:butt;stroke-linejoin:miter;stroke-miterlimit:4;stroke-dasharray:none;stroke-opacity:1" id="path832" d="m 4.9999999,0.71155217 v 4.46265373 0"/></svg>