<svg xmlns="http://www.w3.org/2000/svg" xmlns:svg="http://www.w3.org/2000/svg" id="svg49872" width="8mm" height="8mm" version="1.1" viewBox="0 0 8 8"><defs id="defs49866"><clipPath id="clip12"><path id="path28860" d="m 143,129.75 h 3 V 158 h -3 z m 0,0"/></clipPath><clipPath id="clip11"><path id="path28857" d="m 117.39453,129.75 h 54 v 54.00391 h -54 z m 0,0"/></clipPath><clipPath id="clip150"><path id="path29465" d="m 176,208.92578 h 2 V 228 h -2 z m 0,0"/></clipPath><clipPath id="clip149"><path id="path29462" d="m 159.27734,208.92578 h 36 v 36 h -36 z m 0,0"/></clipPath><clipPath id="clip142"><path id="path29320" d="m 110,208.92578 h 3 V 228 h -3 z m 0,0"/></clipPath><clipPath id="clip141"><path id="path29317" d="m 93.511719,208.92578 h 36.000001 v 36 H 93.511719 Z m 0,0"/></clipPath></defs><metadata id="metadata49869"/><path id="bidooziNCBlueKnob" d="M 4.0197061,0.27179204 A 3.7282974,3.7282231 45.064873 0 1 7.7282088,4.019651 3.7282974,3.7282231 45.064873 0 1 3.9805521,7.7282091 3.7282974,3.7282231 45.064873 0 1 0.27178963,3.9806069 3.7282974,3.7282231 45.064873 0 1 4.0191894,0.27178927" style="opacity:1;fill:#2a5775;fill-opacity:1;fill-rule:evenodd;stroke:#000;stroke-width:.54347736;stroke-linecap:butt;stroke-linejoin:round;stroke-miterlimit:4;stroke-dasharray:none;stroke-dashoffset:0;stroke-opacity:1"/><path id="path832" d="m 3.9999999,0.56137385 v 3.44791295 0" style="fill:none;fill-rule:evenodd;stroke:#fcfcfc;stroke-width:.55391562;stroke-linecap:butt;stroke-linejoin:miter;stroke-miterlimit:4;stroke-dasharray:none;stroke-opacity:1"/></svg>