<svg xmlns="http://www.w3.org/2000/svg" xmlns:svg="http://www.w3.org/2000/svg" id="svg133" width="90" height="380" version="1.1" viewBox="0 0 90 380"><metadata id="metadata137"/><style id="style2">text{fill:#333;font-family:&apos;Roboto&apos;,sans-serif;font-weight:700}</style><defs id="defs77"><symbol id="knob45" viewBox="0 0 90 90"><g id="g10" transform="translate(45 45)"><polyline id="polyline4" stroke="#00f" stroke-width="1" points="-5 0 5 0"/><polyline id="polyline6" stroke="#00f" stroke-width="1" points="0 -5 0 5"/><circle id="circle8" cx="0" cy="0" r="22" fill="none" stroke="#00f" stroke-width="1"/></g></symbol><symbol id="knobguide-rectify" viewBox="0 0 90 90"><g id="g35" transform="translate(45 45)"><text id="text13" font-size="8" transform="rotate(-240) translate(29 0) rotate(240) translate(-4 3)">0</text><polyline id="polyline15" stroke="#333" stroke-width=".3" points="0 0 3.5 0" transform="rotate(-210) translate(26 0)"/><polyline id="polyline17" stroke="#333" stroke-width=".3" points="0 0 3.5 0" transform="rotate(-180) translate(26 0)"/><polyline id="polyline19" stroke="#333" stroke-width=".3" points="0 0 3.5 0" transform="rotate(-150) translate(26 0)"/><polyline id="polyline21" stroke="#333" stroke-width=".3" points="0 0 3.5 0" transform="rotate(-120) translate(26 0)"/><polyline id="polyline23" stroke="#333" stroke-width=".3" points="0 0 3.5 0" transform="rotate(-90) translate(26 0)"/><polyline id="polyline25" stroke="#333" stroke-width=".3" points="0 0 3.5 0" transform="rotate(-60) translate(26 0)"/><polyline id="polyline27" stroke="#333" stroke-width=".3" points="0 0 3.5 0" transform="rotate(-30) translate(26 0)"/><polyline id="polyline29" stroke="#333" stroke-width=".3" points="0 0 3.5 0" transform="rotate(0) translate(26 0)"/><polyline id="polyline31" stroke="#333" stroke-width=".3" points="0 0 3.5 0" transform="rotate(30) translate(26 0)"/><polyline id="polyline33" stroke="#333" stroke-width="1.5" points="0 0 5.5 0" transform="rotate(60) translate(26 0)"/></g></symbol><symbol id="knobguide-drywet" viewBox="0 0 90 90"><g id="g60" transform="translate(45 45)"><text id="text38" font-size="8" transform="rotate(-240) translate(29 0) rotate(240) translate(-4 3)">D</text><polyline id="polyline40" stroke="#333" stroke-width=".3" points="0 0 3.5 0" transform="rotate(-210) translate(26 0)"/><polyline id="polyline42" stroke="#333" stroke-width=".3" points="0 0 3.5 0" transform="rotate(-180) translate(26 0)"/><polyline id="polyline44" stroke="#333" stroke-width=".3" points="0 0 3.5 0" transform="rotate(-150) translate(26 0)"/><polyline id="polyline46" stroke="#333" stroke-width=".3" points="0 0 3.5 0" transform="rotate(-120) translate(26 0)"/><polyline id="polyline48" stroke="#333" stroke-width="1.5" points="0 0 5.5 0" transform="rotate(-90) translate(26 0)"/><polyline id="polyline50" stroke="#333" stroke-width=".3" points="0 0 3.5 0" transform="rotate(-60) translate(26 0)"/><polyline id="polyline52" stroke="#333" stroke-width=".3" points="0 0 3.5 0" transform="rotate(-30) translate(26 0)"/><polyline id="polyline54" stroke="#333" stroke-width=".3" points="0 0 3.5 0" transform="rotate(0) translate(26 0)"/><polyline id="polyline56" stroke="#333" stroke-width=".3" points="0 0 3.5 0" transform="rotate(30) translate(26 0)"/><text id="text58" font-size="8" transform="rotate(60) translate(29 0) rotate(-60) translate(-1 3)">W</text></g></symbol><symbol id="input" viewBox="0 0 24 24"><g id="g67" transform="translate(12 12)"><circle id="circle63" cx="0" cy="0" r="5" fill="#0f0" stroke="#0f0" stroke-width="1"/><circle id="circle65" cx="0" cy="0" r="10.5" fill="none" stroke="#0f0" stroke-width="3"/></g></symbol><symbol id="output" viewBox="0 0 24 24"><g id="g74" transform="translate(12 12)"><circle id="circle70" cx="0" cy="0" r="5" fill="red" stroke="red" stroke-width="1"/><circle id="circle72" cx="0" cy="0" r="10.5" fill="none" stroke="red" stroke-width="3"/></g></symbol></defs><path style="fill:#ddd" id="rect79" d="M 0,0 H 90 V 380 H 0 Z"/><path style="fill:none;stroke:#e4e4e4;stroke-width:.5" id="polyline81" d="M 1,1 H 89 V 379 H 1 V 1"/><path style="fill:none;stroke:#ebebeb;stroke-width:.80000001" id="polyline83" d="m 0.5,0.5 h 89 v 379 H 0.5 V 0.5"/><path style="fill:none;stroke:#f2f2f2;stroke-width:1" id="polyline85" d="M 0,0 H 90 V 380 H 0 V 0"/><g style="font-weight:400;font-size:12px;font-family:Comfortaa,sans-serif;letter-spacing:3px;fill:#333" id="text87" aria-label="AM/RM"><path style="font-weight:400;font-size:12px;font-family:Comfortaa,sans-serif;letter-spacing:3px;fill:#333" id="path321" d="m 34.732,16.34 q 0.048,0.084 0.048,0.192 0,0.192 -0.144,0.336 Q 34.504,17 34.312,17 34,17 33.868,16.712 L 33.064,14.768 H 28.42 l -0.804,1.944 Q 27.52,17 27.184,17 q -0.204,0 -0.336,-0.132 -0.12,-0.144 -0.12,-0.336 0,-0.12 0.036,-0.204 l 3.528,-8.376 q 0.132,-0.324 0.456,-0.324 0.324,0 0.444,0.324 z M 32.74,13.964 30.748,9.152 28.756,13.964 Z"/><path style="font-weight:400;font-size:12px;font-family:Comfortaa,sans-serif;letter-spacing:3px;fill:#333" id="path323" d="m 48.0535,7.628 q 0.192,0 0.324,0.132 0.132,0.132 0.132,0.336 v 8.436 q 0,0.192 -0.132,0.336 -0.132,0.132 -0.324,0.132 -0.204,0 -0.348,-0.132 -0.132,-0.144 -0.132,-0.336 V 9.74 l -3.336,6.816 q -0.144,0.228 -0.408,0.228 -0.3,0 -0.432,-0.288 l -3.324,-6.648 v 6.684 q 0,0.192 -0.132,0.336 -0.132,0.132 -0.336,0.132 -0.192,0 -0.336,-0.132 -0.132,-0.144 -0.132,-0.336 V 8.096 q 0,-0.204 0.132,-0.336 0.144,-0.132 0.336,-0.132 0.276,0 0.42,0.24 l 3.84,7.632 3.768,-7.632 q 0.144,-0.24 0.42,-0.24 z"/><path style="font-weight:400;font-size:12px;font-family:Comfortaa,sans-serif;letter-spacing:3px;fill:#333" id="path325" d="m 56.975125,7.88 q 0.06,-0.132 0.168,-0.204 0.12,-0.072 0.264,-0.072 0.204,0 0.324,0.144 0.132,0.132 0.132,0.324 0,0.096 -0.036,0.192 l -3.768,9.408 q -0.096,0.264 -0.432,0.264 -0.192,0 -0.324,-0.132 -0.132,-0.132 -0.132,-0.324 0,-0.096 0.036,-0.204 z"/><path style="font-weight:400;font-size:12px;font-family:Comfortaa,sans-serif;letter-spacing:3px;fill:#333" id="path327" d="m 68.384125,16.28 q 0.108,0.18 0.108,0.324 0,0.18 -0.132,0.288 -0.132,0.108 -0.348,0.108 -0.144,0 -0.24,-0.06 -0.096,-0.06 -0.168,-0.18 l -2.16,-3.432 h -0.204 -1.776 v 3.204 q 0,0.204 -0.132,0.336 -0.132,0.132 -0.336,0.132 -0.204,0 -0.336,-0.132 -0.132,-0.132 -0.132,-0.336 V 8.096 q 0,-0.204 0.132,-0.336 0.132,-0.132 0.336,-0.132 h 2.244 q 0.876,0 1.56,0.372 0.684,0.36 1.068,1.02 0.396,0.66 0.396,1.5 0,0.924 -0.504,1.62 -0.492,0.696 -1.344,0.996 z m -3.144,-3.852 q 0.6,0 1.08,-0.24 0.492,-0.252 0.756,-0.684 0.276,-0.432 0.276,-0.984 0,-0.576 -0.276,-1.032 -0.264,-0.456 -0.744,-0.708 -0.48,-0.252 -1.092,-0.252 h -1.776 v 3.9 z"/><path style="font-weight:400;font-size:12px;font-family:Comfortaa,sans-serif;letter-spacing:3px;fill:#333" id="path329" d="m 81.850375,7.628 q 0.192,0 0.324,0.132 0.132,0.132 0.132,0.336 v 8.436 q 0,0.192 -0.132,0.336 -0.132,0.132 -0.324,0.132 -0.204,0 -0.348,-0.132 -0.132,-0.144 -0.132,-0.336 V 9.74 l -3.336,6.816 q -0.144,0.228 -0.408,0.228 -0.3,0 -0.432,-0.288 l -3.324,-6.648 v 6.684 q 0,0.192 -0.132,0.336 -0.132,0.132 -0.336,0.132 -0.192,0 -0.336,-0.132 -0.132,-0.144 -0.132,-0.336 V 8.096 q 0,-0.204 0.132,-0.336 0.144,-0.132 0.336,-0.132 0.276,0 0.42,0.24 l 3.84,7.632 3.768,-7.632 q 0.144,-0.24 0.42,-0.24 z"/></g><g style="font-weight:700;font-size:8.66666698px;font-family:Audiowide,sans-serif;letter-spacing:2px;fill:#333" id="text89" aria-label="BOGAUDIO"><path style="font-weight:700;font-size:8.66666698px;font-family:Audiowide,sans-serif;letter-spacing:2px;fill:#333" id="path332" d="m 12.194662,372.66699 q 0,0.20313 -0.07194,0.43587 -0.06771,0.23275 -0.228516,0.43165 -0.156576,0.19889 -0.410482,0.33431 Q 11.229818,374 10.861654,374 H 6.6848959 q -0.1184896,0 -0.2200521,-0.0423 -0.1015625,-0.0423 -0.1777344,-0.11426 -0.07194,-0.0762 -0.1142578,-0.17773 -0.042318,-0.10156 -0.042318,-0.22005 V 368.486 q 0,-0.11426 0.042318,-0.21582 0.042318,-0.10156 0.1142578,-0.17773 0.076172,-0.0762 0.1777344,-0.11849 0.1015625,-0.0423 0.2200521,-0.0423 h 3.6816411 q 0.203125,0 0.435872,0.0719 0.232747,0.0719 0.431641,0.23275 0.203125,0.15657 0.33431,0.41048 0.135416,0.25391 0.135416,0.62207 v 0.20736 q 0,0.29199 -0.09733,0.63053 -0.09733,0.33431 -0.313152,0.63477 0.186198,0.11425 0.347006,0.27506 0.165039,0.16081 0.28776,0.3724 0.122721,0.21159 0.194662,0.47819 0.07194,0.2666 0.07194,0.58821 z m -1.100261,-0.21159 q 0,-0.21582 -0.06771,-0.38509 -0.06771,-0.1735 -0.19043,-0.29622 -0.122721,-0.12272 -0.296224,-0.1862 -0.173502,-0.0677 -0.389323,-0.0677 H 7.6708985 v -1.10872 h 1.9847006 q 0.2158203,0 0.3893229,-0.0635 0.173503,-0.0677 0.296224,-0.19043 0.122721,-0.12272 0.186198,-0.29199 0.06771,-0.1735 0.06771,-0.38932 v -0.20736 q 0,-0.23698 -0.228515,-0.23698 H 7.2307943 v 3.86784 h 3.6308597 q 0.02962,0 0.07194,-0.004 0.04232,-0.004 0.07617,-0.0254 0.03385,-0.0212 0.05924,-0.0719 0.02539,-0.0508 0.02539,-0.13965 z"/><path style="font-weight:700;font-size:8.66666698px;font-family:Audiowide,sans-serif;letter-spacing:2px;fill:#333" id="path334" d="m 21.515625,371.54557 q 0,0.55436 -0.190429,1.01986 -0.19043,0.46549 -0.528972,0.80404 -0.338541,0.33854 -0.804036,0.52897 -0.461263,0.1862 -1.007162,0.1862 h -1.489583 q -0.545899,0 -1.011393,-0.1862 -0.465495,-0.19043 -0.804037,-0.52897 -0.338542,-0.33855 -0.533203,-0.80404 -0.19043,-0.4655 -0.19043,-1.01986 v -1.1595 q 0,-0.55013 0.19043,-1.01563 0.194661,-0.46972 0.533203,-0.80403 0.338542,-0.33855 0.804037,-0.52898 0.465494,-0.19043 1.011393,-0.19043 h 1.489583 q 0.545899,0 1.007162,0.19043 0.465495,0.19043 0.804036,0.52898 0.338542,0.33431 0.528972,0.80403 0.190429,0.4655 0.190429,1.01563 z m -1.10026,-1.1595 q 0,-0.32585 -0.105794,-0.58822 -0.101563,-0.2666 -0.291993,-0.4528 -0.186198,-0.19043 -0.452799,-0.29199 -0.26237,-0.10579 -0.579753,-0.10579 h -1.489583 q -0.321615,0 -0.588216,0.10579 -0.26237,0.10156 -0.4528,0.29199 -0.19043,0.1862 -0.296224,0.4528 -0.101562,0.26237 -0.101562,0.58822 v 1.1595 q 0,0.32585 0.101562,0.59245 0.105794,0.26237 0.296224,0.4528 0.19043,0.1862 0.4528,0.29199 0.266601,0.10156 0.588216,0.10156 h 1.48112 q 0.321614,0 0.583984,-0.10156 0.266602,-0.10579 0.457031,-0.29199 0.19043,-0.19043 0.291993,-0.4528 0.105794,-0.2666 0.105794,-0.59245 z"/><path style="font-weight:700;font-size:8.66666698px;font-family:Audiowide,sans-serif;letter-spacing:2px;fill:#333" id="path336" d="m 30.59961,373.44564 q 0,0.11849 -0.04232,0.22005 -0.04232,0.10156 -0.11849,0.17773 -0.07194,0.0719 -0.173502,0.11426 Q 30.163737,374 30.045248,374 h -3.969402 q -0.152343,0 -0.330078,-0.0338 -0.173502,-0.0381 -0.347005,-0.11426 -0.169271,-0.0762 -0.325846,-0.19466 -0.156576,-0.12272 -0.279297,-0.292 -0.11849,-0.1735 -0.19043,-0.39778 -0.07194,-0.22852 -0.07194,-0.51205 v -2.97916 q 0,-0.15235 0.03385,-0.32585 0.03809,-0.17773 0.114258,-0.347 0.07617,-0.17351 0.198893,-0.33008 0.122722,-0.15658 0.291992,-0.27507 0.173503,-0.12272 0.397787,-0.19466 0.224284,-0.0719 0.507812,-0.0719 h 4.472982 v 1.10026 h -4.472982 q -0.21582,0 -0.330078,0.11426 -0.114258,0.11426 -0.114258,0.33854 v 2.9707 q 0,0.21159 0.114258,0.33008 0.11849,0.11426 0.330078,0.11426 h 3.423503 v -1.37956 h -2.928385 v -1.10872 h 3.474284 q 0.118489,0 0.220052,0.0466 0.101562,0.0423 0.173502,0.11849 0.07617,0.0762 0.11849,0.17773 0.04232,0.0973 0.04232,0.21159 z"/><path style="font-weight:700;font-size:8.66666698px;font-family:Audiowide,sans-serif;letter-spacing:2px;fill:#333" id="path338" d="m 39.708986,374 h -1.100261 v -1.48958 H 34.740887 V 374 h -1.100261 v -3.03418 q 0,-0.66439 0.228516,-1.22298 0.228516,-0.5586 0.634766,-0.96061 0.40625,-0.40202 0.960612,-0.62631 0.554362,-0.22428 1.210286,-0.22428 h 2.479818 q 0.114258,0 0.21582,0.0423 0.101563,0.0423 0.177735,0.11849 0.07617,0.0762 0.118489,0.17773 0.04232,0.10156 0.04232,0.21582 z m -4.968099,-2.58984 h 3.867838 v -2.37826 h -1.933919 q -0.05078,0 -0.21582,0.0169 -0.160808,0.0127 -0.376628,0.0719 -0.211588,0.0592 -0.448568,0.18196 -0.236979,0.12273 -0.435872,0.33855 -0.198893,0.21582 -0.330078,0.54166 -0.126953,0.32162 -0.126953,0.78288 z"/><path style="font-weight:700;font-size:8.66666698px;font-family:Audiowide,sans-serif;letter-spacing:2px;fill:#333" id="path340" d="m 48.928386,373.44564 q 0,0.11849 -0.04232,0.22005 -0.04232,0.10156 -0.11849,0.17773 -0.07617,0.0719 -0.177734,0.11426 Q 48.488281,374 48.374024,374 h -2.479818 q -0.351237,0 -0.710938,-0.0762 -0.3597,-0.0762 -0.698242,-0.23275 -0.33431,-0.16081 -0.630534,-0.40625 -0.296224,-0.24544 -0.520508,-0.57975 -0.220052,-0.33854 -0.347005,-0.77018 -0.126953,-0.43588 -0.126953,-0.96908 v -3.03418 h 1.100261 v 3.03418 q 0,0.4655 0.126953,0.78711 0.131185,0.32161 0.330078,0.53743 0.198893,0.21582 0.435872,0.33855 0.236979,0.12272 0.448568,0.18196 0.21582,0.0592 0.376628,0.0762 0.165039,0.0127 0.21582,0.0127 h 1.933919 v -4.9681 h 1.100261 z"/><path style="font-weight:700;font-size:8.66666698px;font-family:Audiowide,sans-serif;letter-spacing:2px;fill:#333" id="path342" d="m 58.266279,371.46094 q 0,0.55436 -0.194662,1.01985 -0.190429,0.4655 -0.528971,0.80404 -0.338542,0.33431 -0.804036,0.52474 Q 56.273115,374 55.727216,374 h -2.970703 q -0.11849,0 -0.220052,-0.0423 -0.101563,-0.0423 -0.177734,-0.11426 -0.07194,-0.0762 -0.114258,-0.17773 -0.04232,-0.10156 -0.04232,-0.22005 V 368.486 q 0,-0.11426 0.04232,-0.21582 0.04232,-0.10156 0.114258,-0.17773 0.07617,-0.0762 0.177734,-0.11849 0.101562,-0.0423 0.220052,-0.0423 h 2.970703 q 0.545899,0 1.011394,0.19043 0.465494,0.19043 0.804036,0.52897 0.338542,0.33431 0.528971,0.80404 0.194662,0.46549 0.194662,1.01562 z m -1.100261,-0.99024 q 0,-0.32161 -0.105794,-0.58821 -0.101562,-0.2666 -0.291992,-0.4528 -0.19043,-0.19043 -0.457031,-0.29199 -0.26237,-0.1058 -0.583985,-0.1058 h -2.424805 v 3.86784 h 2.424805 q 0.321615,0 0.583985,-0.10156 0.266601,-0.1058 0.457031,-0.292 0.19043,-0.19042 0.291992,-0.45279 0.105794,-0.26661 0.105794,-0.59245 z"/><path style="font-weight:700;font-size:8.66666698px;font-family:Audiowide,sans-serif;letter-spacing:2px;fill:#333" id="path344" d="m 62.462565,374 h -1.10026 v -6.06836 h 1.10026 z"/><path style="font-weight:700;font-size:8.66666698px;font-family:Audiowide,sans-serif;letter-spacing:2px;fill:#333" id="path346" d="m 72.126305,371.54557 q 0,0.55436 -0.19043,1.01986 -0.19043,0.46549 -0.528971,0.80404 -0.338542,0.33854 -0.804037,0.52897 -0.461263,0.1862 -1.007161,0.1862 h -1.489584 q -0.545898,0 -1.011393,-0.1862 -0.465495,-0.19043 -0.804036,-0.52897 -0.338542,-0.33855 -0.533203,-0.80404 -0.19043,-0.4655 -0.19043,-1.01986 v -1.1595 q 0,-0.55013 0.19043,-1.01563 0.194661,-0.46972 0.533203,-0.80403 0.338541,-0.33855 0.804036,-0.52898 0.465495,-0.19043 1.011393,-0.19043 h 1.489584 q 0.545898,0 1.007161,0.19043 0.465495,0.19043 0.804037,0.52898 0.338541,0.33431 0.528971,0.80403 0.19043,0.4655 0.19043,1.01563 z m -1.100261,-1.1595 q 0,-0.32585 -0.105794,-0.58822 -0.101562,-0.2666 -0.291992,-0.4528 -0.186198,-0.19043 -0.4528,-0.29199 -0.262369,-0.10579 -0.579752,-0.10579 h -1.489584 q -0.321614,0 -0.588216,0.10579 -0.26237,0.10156 -0.452799,0.29199 -0.19043,0.1862 -0.296224,0.4528 -0.101563,0.26237 -0.101563,0.58822 v 1.1595 q 0,0.32585 0.101563,0.59245 0.105794,0.26237 0.296224,0.4528 0.190429,0.1862 0.452799,0.29199 0.266602,0.10156 0.588216,0.10156 h 1.48112 q 0.321615,0 0.583985,-0.10156 0.266601,-0.10579 0.457031,-0.29199 0.19043,-0.19043 0.291992,-0.4528 0.105794,-0.2666 0.105794,-0.59245 z"/></g><path style="fill:#ddd" id="rect91" d="M 26.5,370 H 28 v 2 h -1.5 z"/><g style="font-weight:700;font-size:10.66666698px;font-family:Roboto,sans-serif;letter-spacing:2px;fill:#333" id="text95" aria-label="RECTIFY"><path style="font-weight:700;font-size:10.66666698px;font-family:Roboto,sans-serif;letter-spacing:2px;fill:#333" id="path209" d="M 21.484375,46.223958 H 20.239583 V 49 h -1.5625 v -7.583334 h 2.817709 q 1.34375,0 2.072916,0.598959 0.729167,0.598958 0.729167,1.692708 0,0.776042 -0.338541,1.296875 -0.333334,0.515625 -1.015626,0.822917 l 1.640626,3.098958 V 49 H 22.90625 Z M 20.239583,44.958333 H 21.5 q 0.588542,0 0.911458,-0.296875 0.322917,-0.302083 0.322917,-0.828125 0,-0.536458 -0.307292,-0.84375 Q 22.125,42.682291 21.494792,42.682291 h -1.255209 z"/><path style="font-weight:700;font-size:10.66666698px;font-family:Roboto,sans-serif;letter-spacing:2px;fill:#333" id="path211" d="m 32.052083,45.713542 h -3 v 2.03125 h 3.520834 V 49 H 27.489583 V 41.416666 H 32.5625 v 1.265625 h -3.510417 v 1.807292 h 3 z"/><path style="font-weight:700;font-size:10.66666698px;font-family:Roboto,sans-serif;letter-spacing:2px;fill:#333" id="path213" d="m 41.442709,46.473958 q -0.08854,1.223959 -0.90625,1.927084 -0.812501,0.703125 -2.145834,0.703125 -1.458333,0 -2.296875,-0.979167 -0.833333,-0.984375 -0.833333,-2.697917 v -0.463541 q 0,-1.09375 0.385416,-1.927084 0.385417,-0.833333 1.098959,-1.276042 0.71875,-0.447916 1.666666,-0.447916 1.3125,0 2.114584,0.703125 0.802083,0.703125 0.927083,1.973958 h -1.5625 q -0.05729,-0.734375 -0.411458,-1.0625 -0.348959,-0.333333 -1.067709,-0.333333 -0.78125,0 -1.171875,0.5625 -0.385416,0.557292 -0.395833,1.734375 v 0.572917 q 0,1.229166 0.369792,1.796875 0.375,0.567708 1.177083,0.567708 0.723958,0 1.078125,-0.328125 0.359375,-0.333333 0.411458,-1.026042 z"/><path style="font-weight:700;font-size:10.66666698px;font-family:Roboto,sans-serif;letter-spacing:2px;fill:#333" id="path215" d="M 50.031251,42.682291 H 47.708334 V 49 h -1.5625 v -6.317709 h -2.291667 v -1.265625 h 6.177084 z"/><path style="font-weight:700;font-size:10.66666698px;font-family:Roboto,sans-serif;letter-spacing:2px;fill:#333" id="path217" d="m 54.588542,49 h -1.5625 v -7.583334 h 1.5625 z"/><path style="font-weight:700;font-size:10.66666698px;font-family:Roboto,sans-serif;letter-spacing:2px;fill:#333" id="path219" d="m 62.593751,45.901042 h -3 V 49 h -1.5625 v -7.583334 h 4.9375 v 1.265625 h -3.375 v 1.958334 h 3 z"/><path style="font-weight:700;font-size:10.66666698px;font-family:Roboto,sans-serif;letter-spacing:2px;fill:#333" id="path221" d="m 68.500003,44.833333 1.578125,-3.416667 h 1.708333 L 69.296878,46.25 V 49 h -1.588542 v -2.75 l -2.489583,-4.833334 h 1.713541 z"/></g><g id="use97" transform="translate(0,44)"><g id="g205" transform="translate(45,45)"><g style="font-weight:700;font-size:8px;font-family:Roboto,sans-serif;fill:#333" id="text183" aria-label="0" transform="translate(-18.5,28.114737)"><path style="font-weight:700;font-size:8px;font-family:Roboto,sans-serif;fill:#333" id="path224" d="m 4.2148437,-2.3515625 q 0,1.1796875 -0.4882812,1.8046875 -0.4882812,0.625 -1.4296875,0.625 -0.9296875,0 -1.421875,-0.61328125 Q 0.3828125,-1.1484375 0.37109375,-2.2929688 v -1.046875 q 0,-1.1914062 0.4921875,-1.8085937 Q 1.359375,-5.765625 2.2890625,-5.765625 q 0.9296875,0 1.421875,0.6132813 0.4921875,0.609375 0.5039062,1.7539062 z M 3.0859375,-3.5 q 0,-0.7070312 -0.1953125,-1.0273437 -0.1914062,-0.3242188 -0.6015625,-0.3242188 -0.3984375,0 -0.5898438,0.3085938 Q 1.5117187,-4.2382812 1.5,-3.5859375 v 1.3828125 q 0,0.6953125 0.1875,1.0351563 0.1914062,0.33593745 0.609375,0.33593745 0.4140625,0 0.5976563,-0.32421875 0.1835937,-0.3242187 0.1914062,-0.9921875 z"/></g><path style="stroke:#333;stroke-width:.30000001" id="polyline185" d="M 0,0 H 3.5" transform="rotate(150,-13,3.4833395)"/><path style="stroke:#333;stroke-width:.30000001" id="polyline187" d="M 0,0 H 3.5" transform="rotate(-180,-13,0)"/><path style="stroke:#333;stroke-width:.30000001" id="polyline189" d="M 0,0 H 3.5" transform="rotate(-150,-13,-3.4833395)"/><path style="stroke:#333;stroke-width:.30000001" id="polyline191" d="M 0,0 H 3.5" transform="rotate(-120,-13,-7.5055535)"/><path style="stroke:#333;stroke-width:.30000001" id="polyline193" d="M 0,0 H 3.5" transform="rotate(-90,-13,-13)"/><path style="stroke:#333;stroke-width:.30000001" id="polyline195" d="M 0,0 H 3.5" transform="rotate(-60,-13,-22.51666)"/><path style="stroke:#333;stroke-width:.30000001" id="polyline197" d="M 0,0 H 3.5" transform="rotate(-30,-13,-48.51666)"/><path style="stroke:#333;stroke-width:.30000001" id="polyline199" d="M 0,0 H 3.5" transform="translate(26)"/><path style="stroke:#333;stroke-width:.30000001" id="polyline201" d="M 0,0 H 3.5" transform="rotate(30,-13,48.51666)"/><path style="stroke:#333;stroke-width:1.5" id="polyline203" d="M 0,0 H 5.5" transform="rotate(60,-13,22.51666)"/></g></g><g style="font-weight:700;font-size:10.66666698px;font-family:Roboto,sans-serif;letter-spacing:2px;fill:#333" id="text101" aria-label="DRY/WET"><path style="font-weight:700;font-size:10.66666698px;font-family:Roboto,sans-serif;letter-spacing:2px;fill:#333" id="path237" d="m 16.177083,148 v -7.58333 h 2.333334 q 1,0 1.786458,0.45312 0.791667,0.44792 1.234375,1.28125 0.442709,0.82813 0.442709,1.88542 v 0.34896 q 0,1.05729 -0.4375,1.8802 -0.432292,0.82292 -1.223959,1.27605 -0.791667,0.45312 -1.786458,0.45833 z m 1.5625,-6.31771 v 5.0625 h 0.755209 q 0.916666,0 1.401041,-0.59896 0.484375,-0.59896 0.494792,-1.71354 v -0.40104 q 0,-1.15625 -0.479167,-1.75 -0.479166,-0.59896 -1.401041,-0.59896 z"/><path style="font-weight:700;font-size:10.66666698px;font-family:Roboto,sans-serif;letter-spacing:2px;fill:#333" id="path239" d="M 27.921875,145.22396 H 26.677083 V 148 h -1.5625 v -7.58333 h 2.817709 q 1.34375,0 2.072916,0.59895 0.729167,0.59896 0.729167,1.69271 0,0.77604 -0.338541,1.29688 -0.333334,0.51562 -1.015626,0.82291 l 1.640626,3.09896 V 148 H 29.34375 Z m -1.244792,-1.26563 H 27.9375 q 0.588542,0 0.911458,-0.29687 0.322917,-0.30209 0.322917,-0.82813 0,-0.53646 -0.307292,-0.84375 -0.302083,-0.30729 -0.932291,-0.30729 h -1.255209 z"/><path style="font-weight:700;font-size:10.66666698px;font-family:Roboto,sans-serif;letter-spacing:2px;fill:#333" id="path241" d="m 36.291667,143.83333 1.578125,-3.41666 h 1.708333 L 37.088542,145.25 V 148 H 35.5 v -2.75 l -2.489583,-4.83333 h 1.713541 z"/><path style="font-weight:700;font-size:10.66666698px;font-family:Roboto,sans-serif;letter-spacing:2px;fill:#333" id="path243" d="M 42.656251,148.65104 H 41.53646 l 2.791666,-8.23437 h 1.119792 z"/><path style="font-weight:700;font-size:10.66666698px;font-family:Roboto,sans-serif;letter-spacing:2px;fill:#333" id="path245" d="m 54.166666,145.8125 1.020833,-5.39583 h 1.557292 L 55.062499,148 H 53.489582 L 52.255207,142.92708 51.020832,148 h -1.572917 l -1.682291,-7.58333 h 1.557291 l 1.026042,5.38541 1.25,-5.38541 h 1.322917 z"/><path style="font-weight:700;font-size:10.66666698px;font-family:Roboto,sans-serif;letter-spacing:2px;fill:#333" id="path247" d="m 64.156251,144.71354 h -3 v 2.03125 h 3.520834 V 148 h -5.083334 v -7.58333 h 5.072917 v 1.26562 h -3.510417 v 1.80729 h 3 z"/><path style="font-weight:700;font-size:10.66666698px;font-family:Roboto,sans-serif;letter-spacing:2px;fill:#333" id="path249" d="M 73.406253,141.68229 H 71.083336 V 148 h -1.5625 v -6.31771 h -2.291667 v -1.26562 h 6.177084 z"/></g><g id="use103" transform="translate(0,143)"><g id="g179" transform="translate(45,45)"><g style="font-weight:700;font-size:8px;font-family:Roboto,sans-serif;fill:#333" id="text157" aria-label="D" transform="translate(-18.5,28.114737)"><path style="font-weight:700;font-size:8px;font-family:Roboto,sans-serif;fill:#333" id="path252" d="m 0.5078125,0 v -5.6875 h 1.75 q 0.75,0 1.3398438,0.3398438 0.5937499,0.3359375 0.9257812,0.9609375 0.3320312,0.6210937 0.3320312,1.4140624 v 0.2617188 q 0,0.7929688 -0.328125,1.4101563 Q 4.203125,-0.68359375 3.609375,-0.34375 3.015625,-0.00390625 2.2695313,0 Z m 1.171875,-4.7382812 v 3.79687495 h 0.5664063 q 0.6875,0 1.0507812,-0.44921875 0.3632813,-0.4492187 0.3710938,-1.2851563 v -0.3007812 q 0,-0.8671875 -0.359375,-1.3125 -0.359375,-0.4492187 -1.0507813,-0.4492187 z"/></g><path style="stroke:#333;stroke-width:.30000001" id="polyline159" d="M 0,0 H 3.5" transform="rotate(150,-13,3.4833395)"/><path style="stroke:#333;stroke-width:.30000001" id="polyline161" d="M 0,0 H 3.5" transform="rotate(-180,-13,0)"/><path style="stroke:#333;stroke-width:.30000001" id="polyline163" d="M 0,0 H 3.5" transform="rotate(-150,-13,-3.4833395)"/><path style="stroke:#333;stroke-width:.30000001" id="polyline165" d="M 0,0 H 3.5" transform="rotate(-120,-13,-7.5055535)"/><path style="stroke:#333;stroke-width:1.5" id="polyline167" d="M 0,0 H 5.5" transform="rotate(-90,-13,-13)"/><path style="stroke:#333;stroke-width:.30000001" id="polyline169" d="M 0,0 H 3.5" transform="rotate(-60,-13,-22.51666)"/><path style="stroke:#333;stroke-width:.30000001" id="polyline171" d="M 0,0 H 3.5" transform="rotate(-30,-13,-48.51666)"/><path style="stroke:#333;stroke-width:.30000001" id="polyline173" d="M 0,0 H 3.5" transform="translate(26)"/><path style="stroke:#333;stroke-width:.30000001" id="polyline175" d="M 0,0 H 3.5" transform="rotate(30,-13,48.51666)"/><g style="font-weight:700;font-size:8px;font-family:Roboto,sans-serif;fill:#333" id="text177" aria-label="W" transform="translate(13.5,28.114737)"><path style="font-weight:700;font-size:8px;font-family:Roboto,sans-serif;fill:#333" id="path264" d="M 4.9375,-1.640625 5.703125,-5.6875 H 6.8710937 L 5.609375,0 H 4.4296875 L 3.5039063,-3.8046875 2.578125,0 H 1.3984375 L 0.13671875,-5.6875 H 1.3046875 l 0.7695313,4.0390625 0.9375,-4.0390625 h 0.9921874 z"/></g></g></g><g id="g119" transform="translate(11,240)"><path style="fill:#fafafa" id="rect107" d="M 0,0 H 68 V 10 H 0 Z" transform="translate(0,66)"/><path style="fill:#fafafa" id="rect109" d="m 5,0 h 58 c 2.77,0 5,2.23 5,5 v 63 c 0,2.77 -2.23,5 -5,5 H 5 C 2.23,73 0,70.77 0,68 V 5 C 0,2.23 2.23,0 5,0 Z"/><g style="font-weight:700;font-size:6.66666651px;font-family:Roboto,sans-serif;letter-spacing:2px;fill:#333" id="text111" aria-label="MOD" transform="translate(7.5,36)"><path style="font-weight:700;font-size:6.66666651px;font-family:Roboto,sans-serif;letter-spacing:2px;fill:#333" id="path269" d="m 1.6992187,-4.7395832 1.2174479,3.4374999 1.2109375,-3.4374999 h 1.282552 V 0 H 4.4303384 V -1.2955729 L 4.5279947,-3.531901 3.2486978,0 H 2.5781249 l -1.2760416,-3.5286457 0.097656,2.2330728 V 0 H 0.42317707 v -4.7395832 z"/><path style="font-weight:700;font-size:6.66666651px;font-family:Roboto,sans-serif;letter-spacing:2px;fill:#333" id="path271" d="m 12.16276,-2.2623697 q 0,0.6998697 -0.247396,1.2272135 -0.247396,0.52734371 -0.709635,0.81380204 -0.458984,0.28645833 -1.054688,0.28645833 -0.5891922,0 -1.0514318,-0.28320312 Q 8.6373696,-0.50130207 8.3834634,-1.0253906 8.1295571,-1.5527343 8.1263019,-2.2363281 v -0.234375 q 0,-0.6998697 0.2506511,-1.2304687 0.2539062,-0.5338541 0.7128906,-0.8170573 0.4622395,-0.2864583 1.0546874,-0.2864583 0.592448,0 1.051432,0.2864583 0.46224,0.2832032 0.712891,0.8170573 0.253906,0.530599 0.253906,1.2272135 z m -0.989583,-0.2148438 q 0,-0.7454427 -0.266927,-1.1328125 -0.266927,-0.3873697 -0.761719,-0.3873697 -0.4915364,0 -0.7584635,0.3841145 -0.2669271,0.3808594 -0.2701823,1.1197917 v 0.2311198 q 0,0.7259114 0.2669271,1.126302 0.2669271,0.40039063 0.7682287,0.40039063 0.491537,0 0.755209,-0.38411453 0.263672,-0.3873698 0.266927,-1.1263021 z"/><path style="font-weight:700;font-size:6.66666651px;font-family:Roboto,sans-serif;letter-spacing:2px;fill:#333" id="path273" d="m 14.878906,0 v -4.7395832 h 1.458333 q 0.625,0 1.116536,0.2832031 0.494792,0.2799479 0.771485,0.8007812 0.276692,0.5175781 0.276692,1.1783854 v 0.218099 q 0,0.6608072 -0.273437,1.1751302 -0.270182,0.51432286 -0.764974,0.79752597 Q 16.968749,-0.00325521 16.347005,0 Z m 0.976562,-3.9485676 v 3.16406241 h 0.472005 q 0.572917,0 0.875651,-0.37434891 0.302735,-0.374349 0.309245,-1.0709636 v -0.250651 q 0,-0.7226562 -0.299479,-1.09375 -0.299479,-0.3743489 -0.875651,-0.3743489 z"/></g><g style="font-weight:700;font-size:6.66666651px;font-family:Roboto,sans-serif;letter-spacing:2px;fill:#333" id="text113" aria-label="CAR" transform="translate(42.5,36)"><path style="font-weight:700;font-size:6.66666651px;font-family:Roboto,sans-serif;letter-spacing:2px;fill:#333" id="path276" d="m 4.1438801,-1.578776 q -0.055338,0.76497394 -0.5664062,1.20442705 -0.5078125,0.43945312 -1.3411458,0.43945312 -0.9114583,0 -1.43554687,-0.61197916 Q 0.27994791,-1.1621093 0.27994791,-2.2330729 v -0.2897135 q 0,-0.6835937 0.24088541,-1.2044271 0.24088541,-0.5208333 0.68684898,-0.797526 0.4492187,-0.2799479 1.0416666,-0.2799479 0.8203125,0 1.3216146,0.4394531 0.501302,0.4394531 0.579427,1.233724 H 3.173828 q -0.035807,-0.4589844 -0.2571614,-0.6640625 -0.218099,-0.2083334 -0.6673177,-0.2083334 -0.4882812,0 -0.7324219,0.3515625 -0.2408854,0.3483073 -0.2473958,1.0839844 v 0.3580729 q 0,0.7682291 0.2311198,1.1230468 0.234375,0.35481774 0.7356771,0.35481774 0.4524739,0 0.6738281,-0.20507812 Q 3.1347656,-1.1458333 3.1673176,-1.578776 Z"/><path style="font-weight:700;font-size:6.66666651px;font-family:Roboto,sans-serif;letter-spacing:2px;fill:#333" id="path278" d="M 9.4609373,-0.97656248 H 7.7486977 L 7.4231769,0 H 6.3847655 L 8.1490883,-4.7395832 H 9.0540362 L 10.828125,0 H 9.7897133 Z M 8.0123696,-1.7675781 H 9.1972654 L 8.6015623,-3.5416666 Z"/><path style="font-weight:700;font-size:6.66666651px;font-family:Roboto,sans-serif;letter-spacing:2px;fill:#333" id="path280" d="M 15.0319,-1.735026 H 14.253906 V 0 h -0.976563 v -4.7395832 h 1.761068 q 0.839844,0 1.295573,0.3743489 0.455729,0.374349 0.455729,1.0579427 0,0.485026 -0.211589,0.8105469 -0.208333,0.3222656 -0.634765,0.5143229 l 1.02539,1.93684888 V 0 h -1.048177 z m -0.777994,-0.7910156 h 0.78776 q 0.367839,0 0.569661,-0.1855469 0.201823,-0.1888021 0.201823,-0.5175781 0,-0.3352864 -0.192057,-0.5273437 -0.188802,-0.1920573 -0.582682,-0.1920573 h -0.784505 z"/></g><g style="font-weight:700;font-size:6.66666651px;font-family:Roboto,sans-serif;letter-spacing:2px;fill:#333" id="text115" aria-label="RECT" transform="translate(5.5,72)"><path style="font-weight:700;font-size:6.66666651px;font-family:Roboto,sans-serif;letter-spacing:2px;fill:#333" id="path283" d="M 2.1777343,-1.735026 H 1.3997395 V 0 H 0.42317707 V -4.7395832 H 2.1842447 q 0.8398438,0 1.2955729,0.3743489 0.4557292,0.374349 0.4557292,1.0579427 0,0.485026 -0.2115886,0.8105469 -0.2083333,0.3222656 -0.6347656,0.5143229 l 1.0253906,1.93684888 V 0 H 3.0664062 Z M 1.3997395,-2.5260416 h 0.7877604 q 0.3678386,0 0.5696615,-0.1855469 0.2018229,-0.1888021 0.2018229,-0.5175781 0,-0.3352864 -0.1920573,-0.5273437 Q 2.5781249,-3.9485676 2.1842447,-3.9485676 H 1.3997395 Z"/><path style="font-weight:700;font-size:6.66666651px;font-family:Roboto,sans-serif;letter-spacing:2px;fill:#333" id="path285" d="m 9.532552,-2.0540364 h -1.875 v 1.26953121 H 9.8580728 V 0 H 6.6809896 v -4.7395832 h 3.1705728 v 0.7910156 H 7.657552 v 1.1295573 h 1.875 z"/><path style="font-weight:700;font-size:6.66666651px;font-family:Roboto,sans-serif;letter-spacing:2px;fill:#333" id="path287" d="m 16.151693,-1.578776 q -0.05534,0.76497394 -0.566407,1.20442705 -0.507812,0.43945312 -1.341145,0.43945312 -0.911459,0 -1.435547,-0.61197916 Q 12.28776,-1.1621093 12.28776,-2.2330729 v -0.2897135 q 0,-0.6835937 0.240886,-1.2044271 0.240885,-0.5208333 0.686849,-0.797526 0.449219,-0.2799479 1.041666,-0.2799479 0.820313,0 1.321615,0.4394531 0.501302,0.4394531 0.579427,1.233724 h -0.976562 q -0.03581,-0.4589844 -0.257162,-0.6640625 -0.218099,-0.2083334 -0.667318,-0.2083334 -0.488281,0 -0.732421,0.3515625 -0.240886,0.3483073 -0.247396,1.0839844 v 0.3580729 q 0,0.7682291 0.23112,1.1230468 0.234375,0.35481774 0.735677,0.35481774 0.452474,0 0.673828,-0.20507812 0.224609,-0.20833332 0.257161,-0.64127602 z"/><path style="font-weight:700;font-size:6.66666651px;font-family:Roboto,sans-serif;letter-spacing:2px;fill:#333" id="path289" d="M 22.26953,-3.9485676 H 20.817707 V 0 h -0.976562 v -3.9485676 h -1.432292 v -0.7910156 h 3.860677 z"/></g><g style="font-weight:700;font-size:6.66666651px;font-family:Roboto,sans-serif;letter-spacing:2px;fill:#333" id="text117" aria-label="D/W" transform="translate(42,72)"><path style="font-weight:700;font-size:6.66666651px;font-family:Roboto,sans-serif;letter-spacing:2px;fill:#333" id="path292" d="M 0.42317707,0 V -4.7395832 H 1.8815104 q 0.625,0 1.1165364,0.2832031 0.4947917,0.2799479 0.7714844,0.8007812 0.2766927,0.5175781 0.2766927,1.1783854 v 0.218099 q 0,0.6608072 -0.2734375,1.1751302 -0.2701823,0.51432286 -0.764974,0.79752597 Q 2.5130208,-0.00325521 1.891276,0 Z M 1.3997395,-3.9485676 v 3.16406241 h 0.4720052 q 0.5729167,0 0.8756511,-0.37434891 0.3027343,-0.374349 0.3092448,-1.0709636 v -0.250651 q 0,-0.7226562 -0.2994792,-1.09375 -0.2994792,-0.3743489 -0.875651,-0.3743489 z"/><path style="font-weight:700;font-size:6.66666651px;font-family:Roboto,sans-serif;letter-spacing:2px;fill:#333" id="path294" d="M 6.9934896,0.40690103 H 6.2936198 L 8.0384114,-4.7395832 h 0.6998698 z"/><path style="font-weight:700;font-size:6.66666651px;font-family:Roboto,sans-serif;letter-spacing:2px;fill:#333" id="path296" d="m 14.937499,-1.3671875 0.638021,-3.3723957 h 0.973307 L 15.497395,0 H 14.514322 L 13.742838,-3.1705728 12.971353,0 h -0.983072 l -1.051433,-4.7395832 h 0.973308 l 0.641276,3.3658853 0.78125,-3.3658853 h 0.826822 z"/></g></g><g id="g129" transform="translate(11,319)"><path style="fill:#bbb" id="rect121" d="M 0,0 H 68 V 10 H 0 Z" transform="translate(0,-3)"/><path style="fill:#bbb" id="rect123" d="m 5,0 h 58 c 2.77,0 5,2.23 5,5 v 27 c 0,2.77 -2.23,5 -5,5 H 5 C 2.23,37 0,34.77 0,32 V 5 C 0,2.23 2.23,0 5,0 Z"/><g style="font-weight:700;font-size:6.66666651px;font-family:Roboto,sans-serif;letter-spacing:2px;fill:#333" id="text125" aria-label="RECT" transform="translate(5.5,33)"><path style="font-weight:700;font-size:6.66666651px;font-family:Roboto,sans-serif;letter-spacing:2px;fill:#333" id="path301" d="M 2.1777343,-1.735026 H 1.3997395 V 0 H 0.42317707 V -4.7395832 H 2.1842447 q 0.8398438,0 1.2955729,0.3743489 0.4557292,0.374349 0.4557292,1.0579427 0,0.485026 -0.2115886,0.8105469 -0.2083333,0.3222656 -0.6347656,0.5143229 l 1.0253906,1.93684888 V 0 H 3.0664062 Z M 1.3997395,-2.5260416 h 0.7877604 q 0.3678386,0 0.5696615,-0.1855469 0.2018229,-0.1888021 0.2018229,-0.5175781 0,-0.3352864 -0.1920573,-0.5273437 Q 2.5781249,-3.9485676 2.1842447,-3.9485676 H 1.3997395 Z"/><path style="font-weight:700;font-size:6.66666651px;font-family:Roboto,sans-serif;letter-spacing:2px;fill:#333" id="path303" d="m 9.532552,-2.0540364 h -1.875 v 1.26953121 H 9.8580728 V 0 H 6.6809896 v -4.7395832 h 3.1705728 v 0.7910156 H 7.657552 v 1.1295573 h 1.875 z"/><path style="font-weight:700;font-size:6.66666651px;font-family:Roboto,sans-serif;letter-spacing:2px;fill:#333" id="path305" d="m 16.151693,-1.578776 q -0.05534,0.76497394 -0.566407,1.20442705 -0.507812,0.43945312 -1.341145,0.43945312 -0.911459,0 -1.435547,-0.61197916 Q 12.28776,-1.1621093 12.28776,-2.2330729 v -0.2897135 q 0,-0.6835937 0.240886,-1.2044271 0.240885,-0.5208333 0.686849,-0.797526 0.449219,-0.2799479 1.041666,-0.2799479 0.820313,0 1.321615,0.4394531 0.501302,0.4394531 0.579427,1.233724 h -0.976562 q -0.03581,-0.4589844 -0.257162,-0.6640625 -0.218099,-0.2083334 -0.667318,-0.2083334 -0.488281,0 -0.732421,0.3515625 -0.240886,0.3483073 -0.247396,1.0839844 v 0.3580729 q 0,0.7682291 0.23112,1.1230468 0.234375,0.35481774 0.735677,0.35481774 0.452474,0 0.673828,-0.20507812 0.224609,-0.20833332 0.257161,-0.64127602 z"/><path style="font-weight:700;font-size:6.66666651px;font-family:Roboto,sans-serif;letter-spacing:2px;fill:#333" id="path307" d="M 22.26953,-3.9485676 H 20.817707 V 0 h -0.976562 v -3.9485676 h -1.432292 v -0.7910156 h 3.860677 z"/></g><g style="font-weight:700;font-size:6.66666651px;font-family:Roboto,sans-serif;letter-spacing:2px;fill:#333" id="text127" aria-label="OUT" transform="translate(42.5,33)"><path style="font-weight:700;font-size:6.66666651px;font-family:Roboto,sans-serif;letter-spacing:2px;fill:#333" id="path310" d="m 4.3164061,-2.2623697 q 0,0.6998697 -0.2473958,1.2272135 -0.2473958,0.52734371 -0.7096354,0.81380204 -0.4589843,0.28645833 -1.0546875,0.28645833 -0.5891926,0 -1.0514322,-0.28320312 Q 0.79101561,-0.50130207 0.53710936,-1.0253906 0.28320312,-1.5527343 0.27994791,-2.2363281 v -0.234375 q 0,-0.6998697 0.25065104,-1.2304687 0.25390624,-0.5338541 0.71289065,-0.8170573 0.4622395,-0.2864583 1.0546874,-0.2864583 0.5924479,0 1.0514323,0.2864583 0.4622396,0.2832032 0.7128906,0.8170573 0.2539062,0.530599 0.2539062,1.2272135 z M 3.3268228,-2.4772135 q 0,-0.7454427 -0.266927,-1.1328125 -0.2669271,-0.3873697 -0.7617188,-0.3873697 -0.4915364,0 -0.7584635,0.3841145 -0.2669271,0.3808594 -0.2701823,1.1197917 v 0.2311198 q 0,0.7259114 0.2669271,1.126302 0.2669271,0.40039063 0.7682291,0.40039063 0.4915365,0 0.7552084,-0.38411453 0.2636718,-0.3873698 0.266927,-1.1263021 z"/><path style="font-weight:700;font-size:6.66666651px;font-family:Roboto,sans-serif;letter-spacing:2px;fill:#333" id="path312" d="m 10.619792,-4.7395832 v 3.1217447 q 0,0.77799477 -0.488282,1.23046872 -0.4850257,0.45247395 -1.3281246,0.45247395 -0.8300781,0 -1.3183594,-0.43945312 Q 6.9967448,-0.81380206 6.9869792,-1.5820312 v -3.157552 h 0.9765624 v 3.1282551 q 0,0.4654948 0.2213542,0.68033854 0.2246094,0.21158854 0.6184896,0.21158854 0.8235677,0 0.8365885,-0.86588538 v -3.1542968 z"/><path style="font-weight:700;font-size:6.66666651px;font-family:Roboto,sans-serif;letter-spacing:2px;fill:#333" id="path314" d="M 16.988281,-3.9485676 H 15.536458 V 0 h -0.976563 v -3.9485676 h -1.432291 v -0.7910156 h 3.860677 z"/></g></g></svg>