<svg xmlns="http://www.w3.org/2000/svg" xmlns:svg="http://www.w3.org/2000/svg" id="svg28" width="18" height="18" version="1.1" viewBox="0 0 18 18"><metadata id="metadata34"/><path style="fill:#888" id="circle2" d="M 17.9,9 A 8.8999996,8.8999996 0 0 1 9,17.9 8.8999996,8.8999996 0 0 1 0.10000038,9 8.8999996,8.8999996 0 0 1 9,0.10000038 8.8999996,8.8999996 0 0 1 17.9,9 Z"/><path style="fill:#333" id="circle4" d="M 17.4,9 A 8.3999996,8.3999996 0 0 1 9,17.4 8.3999996,8.3999996 0 0 1 0.60000038,9 8.3999996,8.3999996 0 0 1 9,0.60000038 8.3999996,8.3999996 0 0 1 17.4,9 Z"/><path style="fill:#f90" id="circle6" d="M 17.1,9 A 8.1000004,8.1000004 0 0 1 9,17.1 8.1000004,8.1000004 0 0 1 0.89999962,9 8.1000004,8.1000004 0 0 1 9,0.89999962 8.1000004,8.1000004 0 0 1 17.1,9 Z"/><path style="fill:#666;fill-opacity:.5" id="circle8" d="M 17.1,9 A 8.1000004,8.1000004 0 0 1 9,17.1 8.1000004,8.1000004 0 0 1 0.89999962,9 8.1000004,8.1000004 0 0 1 9,0.89999962 8.1000004,8.1000004 0 0 1 17.1,9 Z"/><path style="fill:#f90" id="circle10" d="M 16.8,9 A 7.8000002,7.8000002 0 0 1 9,16.8 7.8000002,7.8000002 0 0 1 1.1999998,9 7.8000002,7.8000002 0 0 1 9,1.1999998 7.8000002,7.8000002 0 0 1 16.8,9 Z"/><path style="fill:#777;fill-opacity:.5" id="circle12" d="M 16.8,9 A 7.8000002,7.8000002 0 0 1 9,16.8 7.8000002,7.8000002 0 0 1 1.1999998,9 7.8000002,7.8000002 0 0 1 9,1.1999998 7.8000002,7.8000002 0 0 1 16.8,9 Z"/><path style="fill:#f90" id="circle14" d="M 16.5,9 A 7.5,7.5 0 0 1 9,16.5 7.5,7.5 0 0 1 1.5,9 7.5,7.5 0 0 1 9,1.5 7.5,7.5 0 0 1 16.5,9 Z"/><path style="fill:#888;fill-opacity:.5" id="circle16" d="M 16.5,9 A 7.5,7.5 0 0 1 9,16.5 7.5,7.5 0 0 1 1.5,9 7.5,7.5 0 0 1 9,1.5 7.5,7.5 0 0 1 16.5,9 Z"/><path style="fill:#f90" id="circle18" d="M 16.2,9 A 7.1999998,7.1999998 0 0 1 9,16.2 7.1999998,7.1999998 0 0 1 1.8000002,9 7.1999998,7.1999998 0 0 1 9,1.8000002 7.1999998,7.1999998 0 0 1 16.2,9 Z"/><path style="fill:#999;fill-opacity:.5" id="circle20" d="M 16.2,9 A 7.1999998,7.1999998 0 0 1 9,16.2 7.1999998,7.1999998 0 0 1 1.8000002,9 7.1999998,7.1999998 0 0 1 9,1.8000002 7.1999998,7.1999998 0 0 1 16.2,9 Z"/><path style="fill:#f90" id="circle22" d="M 15.9,9 A 6.9000001,6.9000001 0 0 1 9,15.9 6.9000001,6.9000001 0 0 1 2.0999999,9 6.9000001,6.9000001 0 0 1 9,2.0999999 6.9000001,6.9000001 0 0 1 15.9,9 Z"/><path style="fill:#aaa;fill-opacity:.5" id="circle24" d="M 15.9,9 A 6.9000001,6.9000001 0 0 1 9,15.9 6.9000001,6.9000001 0 0 1 2.0999999,9 6.9000001,6.9000001 0 0 1 9,2.0999999 6.9000001,6.9000001 0 0 1 15.9,9 Z"/></svg>