<svg xmlns="http://www.w3.org/2000/svg" xmlns:svg="http://www.w3.org/2000/svg" id="svg139" width="45" height="380" version="1.1" viewBox="0 0 45 380"><metadata id="metadata143"/><style id="style2">text{fill:#333;font-family:&apos;Roboto&apos;,sans-serif;font-weight:700}</style><defs id="defs77"><symbol id="knob" viewBox="0 0 45 45"><g id="g10" transform="translate(22.5 22.5)"><polyline id="polyline4" stroke="#00f" stroke-width="1" points="-5 0 5 0"/><polyline id="polyline6" stroke="#00f" stroke-width="1" points="0 -5 0 5"/><circle id="circle8" cx="0" cy="0" r="14" fill="none" stroke="#00f" stroke-width="1"/></g></symbol><symbol id="knobguide-response" viewBox="0 0 45 45"><g id="g35" transform="translate(22.5 22.5)"><text id="text13" font-size="5pt" transform="rotate(-240) translate(20 0) rotate(240) translate(-2 2)">0</text><polyline id="polyline15" stroke="#333" stroke-width=".3" points="0 0 2.5 0" transform="rotate(-210) translate(17 0)"/><polyline id="polyline17" stroke="#333" stroke-width=".3" points="0 0 2.5 0" transform="rotate(-180) translate(17 0)"/><polyline id="polyline19" stroke="#333" stroke-width=".3" points="0 0 2.5 0" transform="rotate(-150) translate(17 0)"/><polyline id="polyline21" stroke="#333" stroke-width=".3" points="0 0 2.5 0" transform="rotate(-120) translate(17 0)"/><polyline id="polyline23" stroke="#333" stroke-width=".3" points="0 0 2.5 0" transform="rotate(-90) translate(17 0)"/><polyline id="polyline25" stroke="#333" stroke-width=".3" points="0 0 2.5 0" transform="rotate(-60) translate(17 0)"/><polyline id="polyline27" stroke="#333" stroke-width=".3" points="0 0 2.5 0" transform="rotate(-30) translate(17 0)"/><polyline id="polyline29" stroke="#333" stroke-width=".3" points="0 0 2.5 0" transform="rotate(0) translate(17 0)"/><polyline id="polyline31" stroke="#333" stroke-width=".3" points="0 0 2.5 0" transform="rotate(30) translate(17 0)"/><polyline id="polyline33" stroke="#333" stroke-width="1" points="0 0 3.5 0" transform="rotate(60) translate(17 0)"/></g></symbol><symbol id="knobguide-scale" viewBox="0 0 45 45"><g id="g60" transform="translate(22.5 22.5)"><text id="text38" font-size="5pt" transform="rotate(-240) translate(20 0) rotate(240) translate(-2 2)">0</text><polyline id="polyline40" stroke="#333" stroke-width=".3" points="0 0 2.5 0" transform="rotate(-210) translate(17 0)"/><polyline id="polyline42" stroke="#333" stroke-width=".3" points="0 0 2.5 0" transform="rotate(-180) translate(17 0)"/><polyline id="polyline44" stroke="#333" stroke-width=".3" points="0 0 2.5 0" transform="rotate(-150) translate(17 0)"/><polyline id="polyline46" stroke="#333" stroke-width=".3" points="0 0 2.5 0" transform="rotate(-120) translate(17 0)"/><polyline id="polyline48" stroke="#333" stroke-width="1" points="0 0 3.5 0" transform="rotate(-90) translate(17 0)"/><polyline id="polyline50" stroke="#333" stroke-width=".3" points="0 0 2.5 0" transform="rotate(-60) translate(17 0)"/><polyline id="polyline52" stroke="#333" stroke-width=".3" points="0 0 2.5 0" transform="rotate(-30) translate(17 0)"/><polyline id="polyline54" stroke="#333" stroke-width=".3" points="0 0 2.5 0" transform="rotate(0) translate(17 0)"/><polyline id="polyline56" stroke="#333" stroke-width=".3" points="0 0 2.5 0" transform="rotate(30) translate(17 0)"/><text id="text58" font-size="5pt" transform="rotate(60) translate(20 0) rotate(-60) translate(-2 2)">1</text></g></symbol><symbol id="input" viewBox="0 0 24 24"><g id="g67" transform="translate(12 12)"><circle id="circle63" cx="0" cy="0" r="5" fill="#0f0" stroke="#0f0" stroke-width="1"/><circle id="circle65" cx="0" cy="0" r="10.5" fill="none" stroke="#0f0" stroke-width="3"/></g></symbol><symbol id="output" viewBox="0 0 24 24"><g id="g74" transform="translate(12 12)"><circle id="circle70" cx="0" cy="0" r="5" fill="red" stroke="red" stroke-width="1"/><circle id="circle72" cx="0" cy="0" r="10.5" fill="none" stroke="red" stroke-width="3"/></g></symbol></defs><path style="fill:#ddd" id="rect79" d="M 0,0 H 45 V 380 H 0 Z"/><path style="fill:none;stroke:#e4e4e4;stroke-width:.5" id="polyline81" d="M 1,1 H 44 V 379 H 1 V 1"/><path style="fill:none;stroke:#ebebeb;stroke-width:.80000001" id="polyline83" d="m 0.5,0.5 h 44 v 379 H 0.5 V 0.5"/><path style="fill:none;stroke:#f2f2f2;stroke-width:1" id="polyline85" d="M 0,0 H 45 V 380 H 0 V 0"/><g style="font-weight:400;font-size:9.33333302px;font-family:Comfortaa,sans-serif;letter-spacing:2.5px;fill:#333" id="text87" aria-label="FOLLOW" transform="rotate(-90)"><path style="font-weight:400;font-size:9.33333302px;font-family:Comfortaa,sans-serif;letter-spacing:2.5px;fill:#333" id="path219" d="m -375.28133,13 q -0.14934,0 -0.26134,-0.102667 -0.10266,-0.112 -0.10266,-0.261333 V 6.0746669 q 0,-0.1586667 0.10266,-0.2613333 0.112,-0.1026667 0.26134,-0.1026667 h 4.37733 q 0.15867,0 0.26133,0.1026667 0.10267,0.1026666 0.10267,0.252 0,0.1493333 -0.10267,0.252 -0.10266,0.093333 -0.26133,0.093333 h -4.01333 v 2.5759999 h 2.92133 q 0.15867,0 0.26133,0.1026667 0.10267,0.093333 0.10267,0.252 0,0.1493333 -0.10267,0.2519999 -0.10266,0.1026667 -0.26133,0.1026667 h -2.92133 V 12.636 q 0,0.149333 -0.10267,0.261333 Q -375.12267,13 -375.28133,13 Z"/><path style="font-weight:400;font-size:9.33333302px;font-family:Comfortaa,sans-serif;letter-spacing:2.5px;fill:#333" id="path221" d="m -363.364,13.093333 q -1.064,0 -1.91333,-0.485333 -0.84934,-0.485333 -1.33467,-1.334667 -0.476,-0.858666 -0.476,-1.9226662 0,-1.064 0.476,-1.9133333 0.48533,-0.8493333 1.33467,-1.3346666 0.84933,-0.4853333 1.91333,-0.4853333 1.05467,0 1.904,0.4853333 0.85867,0.4853333 1.33467,1.3346666 0.48533,0.8493333 0.48533,1.9133333 0,1.0640002 -0.48533,1.9226662 -0.476,0.849334 -1.33467,1.334667 -0.84933,0.485333 -1.904,0.485333 z m 0,-0.690666 q 0.84933,0 1.53067,-0.401334 0.69066,-0.401333 1.08266,-1.092 0.392,-0.7 0.392,-1.5586662 0,-0.8493333 -0.392,-1.54 -0.392,-0.6999999 -1.08266,-1.1013333 -0.68134,-0.4013333 -1.53067,-0.4013333 -0.85867,0 -1.54933,0.4013333 -0.68134,0.4013334 -1.07334,1.1013333 -0.392,0.6906667 -0.392,1.54 0,0.8586662 0.392,1.5586662 0.392,0.690667 1.07334,1.092 0.69066,0.401334 1.54933,0.401334 z"/><path style="font-weight:400;font-size:9.33333302px;font-family:Comfortaa,sans-serif;letter-spacing:2.5px;fill:#333" id="path223" d="m -355.26517,13 q -0.14933,0 -0.26133,-0.102667 -0.10267,-0.112 -0.10267,-0.261333 V 6.0746669 q 0,-0.1493333 0.10267,-0.252 0.112,-0.112 0.26133,-0.112 0.15867,0 0.26134,0.1026667 0.10266,0.1026666 0.10266,0.2613333 v 6.2346661 h 3.64934 q 0.15866,0 0.26133,0.102667 0.10267,0.09333 0.10267,0.242667 0,0.149333 -0.10267,0.252 Q -351.09317,13 -351.25183,13 Z"/><path style="font-weight:400;font-size:9.33333302px;font-family:Comfortaa,sans-serif;letter-spacing:2.5px;fill:#333" id="path225" d="m -346.85892,13 q -0.14933,0 -0.26133,-0.102667 -0.10267,-0.112 -0.10267,-0.261333 V 6.0746669 q 0,-0.1493333 0.10267,-0.252 0.112,-0.112 0.26133,-0.112 0.15867,0 0.26134,0.1026667 0.10266,0.1026666 0.10266,0.2613333 v 6.2346661 h 3.64934 q 0.15866,0 0.26133,0.102667 0.10267,0.09333 0.10267,0.242667 0,0.149333 -0.10267,0.252 Q -342.68692,13 -342.84558,13 Z"/><path style="font-weight:400;font-size:9.33333302px;font-family:Comfortaa,sans-serif;letter-spacing:2.5px;fill:#333" id="path227" d="m -336.10358,13.093333 q -1.064,0 -1.91334,-0.485333 -0.84933,-0.485333 -1.33466,-1.334667 -0.476,-0.858666 -0.476,-1.9226662 0,-1.064 0.476,-1.9133333 0.48533,-0.8493333 1.33466,-1.3346666 0.84934,-0.4853333 1.91334,-0.4853333 1.05466,0 1.904,0.4853333 0.85866,0.4853333 1.33466,1.3346666 0.48534,0.8493333 0.48534,1.9133333 0,1.0640002 -0.48534,1.9226662 -0.476,0.849334 -1.33466,1.334667 -0.84934,0.485333 -1.904,0.485333 z m 0,-0.690666 q 0.84933,0 1.53066,-0.401334 0.69067,-0.401333 1.08267,-1.092 0.392,-0.7 0.392,-1.5586662 0,-0.8493333 -0.392,-1.54 -0.392,-0.6999999 -1.08267,-1.1013333 -0.68133,-0.4013333 -1.53066,-0.4013333 -0.85867,0 -1.54934,0.4013333 -0.68133,0.4013334 -1.07333,1.1013333 -0.392,0.6906667 -0.392,1.54 0,0.8586662 0.392,1.5586662 0.392,0.690667 1.07333,1.092 0.69067,0.401334 1.54934,0.401334 z"/><path style="font-weight:400;font-size:9.33333302px;font-family:Comfortaa,sans-serif;letter-spacing:2.5px;fill:#333" id="path229" d="m -321.16123,5.7106669 q 0.14933,0 0.23333,0.1026667 0.084,0.093333 0.084,0.2426666 0,0.074667 -0.028,0.1773334 l -1.904,6.4586664 q -0.0467,0.149333 -0.14933,0.233333 -0.0933,0.07467 -0.224,0.07467 -0.13067,0 -0.23333,-0.084 -0.0933,-0.084 -0.13067,-0.214667 l -1.512,-5.5159995 -1.50267,5.5066665 q -0.0467,0.14 -0.14933,0.224 -0.0933,0.084 -0.224,0.084 -0.13067,0 -0.23333,-0.084 -0.0933,-0.084 -0.13067,-0.214667 l -1.91333,-6.4679994 q -0.028,-0.1026667 -0.028,-0.168 0,-0.1586667 0.0933,-0.252 0.0933,-0.1026667 0.24267,-0.1026667 0.26133,0 0.35466,0.28 l 1.61467,5.6280001 1.53067,-5.4693334 q 0.028,-0.1026667 0.12133,-0.168 0.10267,-0.065333 0.224,-0.065333 0.12133,0 0.21467,0.065333 0.0933,0.065333 0.13066,0.1773333 l 1.54,5.4693331 1.624,-5.6746664 q 0.0747,-0.2426667 0.35467,-0.2426667 z"/></g><g id="g93" transform="rotate(-90,200.5,175.5)"><g style="font-weight:700;font-size:9.33333302px;font-family:Audiowide,sans-serif;letter-spacing:2px;fill:#333" id="text89" aria-label="BGA"><path style="font-weight:700;font-size:9.33333302px;font-family:Audiowide,sans-serif;letter-spacing:2px;fill:#333" id="path232" d="m 7.2096352,-1.4355468 q 0,0.21875 -0.077474,0.469401 -0.072917,0.25065103 -0.2460937,0.46484373 -0.1686198,0.2141927 -0.4420573,0.36002603 Q 6.1705727,0 5.7740883,0 H 1.2760416 Q 1.1484375,0 1.0390625,-0.04557292 0.92968747,-0.09114583 0.84765622,-0.16861979 q -0.077474,-0.0820312 -0.12304687,-0.19140624 -0.0455729,-0.109375 -0.0455729,-0.23697916 V -5.9381508 q 0,-0.1230469 0.0455729,-0.2324219 0.0455729,-0.109375 0.12304687,-0.1914062 0.0820313,-0.082031 0.19140628,-0.1276042 0.109375,-0.045573 0.2369791,-0.045573 h 3.9648436 q 0.21875,0 0.4694011,0.077474 0.250651,0.077474 0.4648437,0.2506511 0.21875,0.1686197 0.360026,0.4420572 0.1458334,0.2734375 0.1458334,0.6699219 v 0.2233073 q 0,0.3144531 -0.1048177,0.6790364 -0.1048178,0.360026 -0.3372396,0.6835937 0.2005208,0.1230469 0.3736979,0.296224 0.1777344,0.1731771 0.3098958,0.4010416 0.1321615,0.2278646 0.2096354,0.514974 0.077474,0.2871093 0.077474,0.6334635 z M 6.0247394,-1.6634114 q 0,-0.2324219 -0.072917,-0.4147135 Q 5.878906,-2.2649739 5.7467446,-2.3971353 5.6145831,-2.5292968 5.4277342,-2.5976562 5.2408852,-2.6705728 5.0084634,-2.6705728 H 2.3378905 v -1.1940104 h 2.1373698 q 0.2324218,0 0.4192708,-0.068359 0.1868489,-0.072917 0.3190104,-0.2050781 0.1321614,-0.1321614 0.2005208,-0.3144531 0.072917,-0.186849 0.072917,-0.4192708 v -0.2233073 q 0,-0.2552083 -0.2460938,-0.2552083 h -3.376953 v 4.1653644 h 3.9101561 q 0.031901,0 0.077474,-0.00456 0.045573,-0.00456 0.082031,-0.027344 0.036458,-0.022787 0.063802,-0.077474 0.027344,-0.054687 0.027344,-0.1503906 z"/><path style="font-weight:700;font-size:9.33333302px;font-family:Audiowide,sans-serif;letter-spacing:2px;fill:#333" id="path234" d="m 16.683594,-0.59700519 q 0,0.12760416 -0.04557,0.23697916 -0.04557,0.109375 -0.127605,0.19140624 -0.07747,0.07747396 -0.186849,0.12304687 Q 16.214192,0 16.086588,0 h -4.274739 q -0.164063,0 -0.355469,-0.03645833 -0.186849,-0.04101563 -0.373698,-0.12304687 -0.182291,-0.0820313 -0.350911,-0.20963541 -0.16862,-0.13216146 -0.300781,-0.31445312 -0.127605,-0.18684895 -0.205079,-0.42838537 -0.07747,-0.2460938 -0.07747,-0.5514323 v -3.2083332 q 0,-0.1640625 0.03646,-0.3509115 0.04101,-0.1914062 0.123047,-0.3736979 0.08203,-0.1868489 0.214192,-0.3554687 0.132162,-0.1686198 0.314453,-0.296224 0.186849,-0.1321614 0.428386,-0.2096354 0.241536,-0.077474 0.546875,-0.077474 h 4.817057 v 1.1848958 h -4.817057 q -0.232422,0 -0.355469,0.1230468 -0.123047,0.1230469 -0.123047,0.3645834 v 3.1992186 q 0,0.2278646 0.123047,0.3554687 0.127604,0.1230469 0.355469,0.1230469 h 3.686849 v -1.485677 h -3.153646 v -1.1940104 h 3.741536 q 0.127604,0 0.236979,0.05013 0.109375,0.045573 0.186849,0.1276042 0.08203,0.082031 0.127605,0.1914062 0.04557,0.1048177 0.04557,0.2278646 z"/><path style="font-weight:700;font-size:9.33333302px;font-family:Audiowide,sans-serif;letter-spacing:2px;fill:#333" id="path236" d="M 26.339842,0 H 25.154946 V -1.6041666 H 20.989582 V 0 h -1.184896 v -3.267578 q 0,-0.7154948 0.246094,-1.3170573 0.246094,-0.6015624 0.683594,-1.0345051 0.4375,-0.4329427 1.034505,-0.6744792 0.597005,-0.2415364 1.303385,-0.2415364 h 2.670573 q 0.123047,0 0.232422,0.045573 0.109375,0.045573 0.191406,0.1276042 0.08203,0.082031 0.127604,0.1914062 0.04557,0.109375 0.04557,0.2324219 z m -5.35026,-2.7890624 h 4.165364 v -2.5611978 h -2.082682 q -0.05469,0 -0.232422,0.018229 -0.173177,0.013672 -0.405599,0.077474 -0.227864,0.063802 -0.483072,0.1959635 -0.255209,0.1321615 -0.469402,0.3645833 -0.214192,0.2324219 -0.355468,0.5833334 -0.136719,0.3463541 -0.136719,0.8430989 z"/></g><path style="fill:#ddd" id="rect91" d="M 0,0 H 3 V 3 H 0 Z" transform="translate(11.5,-5)"/></g><g style="font-weight:700;font-size:8px;font-family:Roboto,sans-serif;letter-spacing:2px;fill:#333" id="text97" aria-label="DAMP"><path style="font-weight:700;font-size:8px;font-family:Roboto,sans-serif;letter-spacing:2px;fill:#333" id="path240" d="m 9.0078125,25 v -5.6875 h 1.7500005 q 0.75,0 1.339843,0.339844 0.59375,0.335937 0.925782,0.960937 0.332031,0.621094 0.332031,1.414063 v 0.261718 q 0,0.792969 -0.328125,1.410157 -0.324219,0.617187 -0.917969,0.957031 Q 11.515625,24.996094 10.769531,25 Z m 1.1718755,-4.738281 v 3.796875 h 0.566406 q 0.6875,0 1.050781,-0.449219 0.363281,-0.449219 0.371094,-1.285156 v -0.300782 q 0,-0.867187 -0.359375,-1.3125 -0.359375,-0.449218 -1.050781,-0.449218 z"/><path style="font-weight:700;font-size:8px;font-family:Roboto,sans-serif;letter-spacing:2px;fill:#333" id="path242" d="M 19.34375,23.828125 H 17.289062 L 16.898437,25 h -1.246093 l 2.117187,-5.6875 h 1.085938 L 20.984375,25 h -1.246094 z m -1.738281,-0.949219 h 1.421875 L 18.3125,20.75 Z"/><path style="font-weight:700;font-size:8px;font-family:Roboto,sans-serif;letter-spacing:2px;fill:#333" id="path244" d="m 25.054687,19.3125 1.460938,4.125 1.453125,-4.125 h 1.539062 V 25 H 28.332031 V 23.445312 L 28.449219,20.761719 26.914062,25 h -0.804687 l -1.53125,-4.234375 0.117187,2.679687 V 25 h -1.171875 v -5.6875 z"/><path style="font-weight:700;font-size:8px;font-family:Roboto,sans-serif;letter-spacing:2px;fill:#333" id="path246" d="M 33.710937,22.996094 V 25 h -1.171875 v -5.6875 h 2.21875 q 0.640625,0 1.125,0.234375 0.488282,0.234375 0.75,0.667969 0.261719,0.429687 0.261719,0.980468 0,0.835938 -0.574219,1.320313 -0.570312,0.480469 -1.582031,0.480469 z m 0,-0.949219 h 1.046875 q 0.464844,0 0.707032,-0.21875 0.246093,-0.21875 0.246093,-0.625 0,-0.417969 -0.246093,-0.675781 -0.246094,-0.257813 -0.679688,-0.265625 h -1.074219 z"/></g><g id="use99" transform="translate(0,28)"><g id="g215" transform="translate(22.5,22.5)"><g style="font-weight:700;font-size:6.66666651px;font-family:Roboto,sans-serif;fill:#333" id="text193" aria-label="0" transform="translate(-12,19.320508)"><path style="font-weight:700;font-size:6.66666651px;font-family:Roboto,sans-serif;fill:#333" id="path249" d="m 3.5123697,-1.9596354 q 0,0.98307292 -0.406901,1.50390624 -0.4069011,0.52083333 -1.1914062,0.52083333 -0.7747396,0 -1.18489585,-0.5110677 -0.41015624,-0.5110677 -0.41992187,-1.46484367 v -0.8723959 q 0,-0.9928385 0.41015624,-1.5071614 0.41341148,-0.5143229 1.18815098,-0.5143229 0.7747396,0 1.1848958,0.5110677 0.4101563,0.5078125 0.4199219,1.4615885 z M 2.5716145,-2.9166666 q 0,-0.5891927 -0.1627604,-0.8561198 -0.1595052,-0.2701823 -0.5013021,-0.2701823 -0.3320312,0 -0.4915364,0.2571615 Q 1.2597656,-3.531901 1.25,-2.9882812 v 1.1523437 q 0,0.5794271 0.15625,0.86263023 0.1595052,0.27994791 0.5078125,0.27994791 0.345052,0 0.4980468,-0.27018228 0.1529948,-0.27018226 0.1595052,-0.82682286 z"/></g><path style="stroke:#333;stroke-width:.30000001" id="polyline195" d="M 0,0 H 2.5" transform="rotate(150,-8.5,2.2775681)"/><path style="stroke:#333;stroke-width:.30000001" id="polyline197" d="M 0,0 H 2.5" transform="rotate(-180,-8.5,0)"/><path style="stroke:#333;stroke-width:.30000001" id="polyline199" d="M 0,0 H 2.5" transform="rotate(-150,-8.5,-2.2775681)"/><path style="stroke:#333;stroke-width:.30000001" id="polyline201" d="M 0,0 H 2.5" transform="rotate(-120,-8.5,-4.9074773)"/><path style="stroke:#333;stroke-width:.30000001" id="polyline203" d="M 0,0 H 2.5" transform="rotate(-90,-8.5,-8.5)"/><path style="stroke:#333;stroke-width:.30000001" id="polyline205" d="M 0,0 H 2.5" transform="rotate(-60,-8.5,-14.722432)"/><path style="stroke:#333;stroke-width:.30000001" id="polyline207" d="M 0,0 H 2.5" transform="rotate(-30,-8.5,-31.722432)"/><path style="stroke:#333;stroke-width:.30000001" id="polyline209" d="M 0,0 H 2.5" transform="translate(17)"/><path style="stroke:#333;stroke-width:.30000001" id="polyline211" d="M 0,0 H 2.5" transform="rotate(30,-8.5,31.722432)"/><path style="stroke:#333;stroke-width:1" id="polyline213" d="M 0,0 H 3.5" transform="rotate(60,-8.5,14.722432)"/></g></g><g id="g105" transform="translate(5.5,74)"><path style="fill:#fafafa" id="rect101" d="m 5,0 h 24 c 2.77,0 5,2.23 5,5 v 29 c 0,2.77 -2.23,5 -5,5 H 5 C 2.23,39 0,36.77 0,34 V 5 C 0,2.23 2.23,0 5,0 Z"/><g style="font-weight:700;font-size:6.66666651px;font-family:Roboto,sans-serif;letter-spacing:2px;fill:#333" id="text103" aria-label="CV" transform="translate(11,35)"><path style="font-weight:700;font-size:6.66666651px;font-family:Roboto,sans-serif;letter-spacing:2px;fill:#333" id="path263" d="m 4.1438801,-1.578776 q -0.055338,0.76497394 -0.5664062,1.20442705 -0.5078125,0.43945312 -1.3411458,0.43945312 -0.9114583,0 -1.43554687,-0.61197916 Q 0.27994791,-1.1621093 0.27994791,-2.2330729 v -0.2897135 q 0,-0.6835937 0.24088541,-1.2044271 0.24088541,-0.5208333 0.68684898,-0.797526 0.4492187,-0.2799479 1.0416666,-0.2799479 0.8203125,0 1.3216146,0.4394531 0.501302,0.4394531 0.579427,1.233724 H 3.173828 q -0.035807,-0.4589844 -0.2571614,-0.6640625 -0.218099,-0.2083334 -0.6673177,-0.2083334 -0.4882812,0 -0.7324219,0.3515625 -0.2408854,0.3483073 -0.2473958,1.0839844 v 0.3580729 q 0,0.7682291 0.2311198,1.1230468 0.234375,0.35481774 0.7356771,0.35481774 0.4524739,0 0.6738281,-0.20507812 Q 3.1347656,-1.1458333 3.1673176,-1.578776 Z"/><path style="font-weight:700;font-size:6.66666651px;font-family:Roboto,sans-serif;letter-spacing:2px;fill:#333" id="path265" d="m 8.5364581,-1.1751302 1.0742187,-3.564453 H 10.697916 L 9.0475258,0 H 8.0286456 L 6.3847655,-4.7395832 h 1.0839843 z"/></g></g><g style="font-weight:700;font-size:8px;font-family:Roboto,sans-serif;letter-spacing:1px;fill:#333" id="text109" aria-label="SCALE"><path style="font-weight:700;font-size:8px;font-family:Roboto,sans-serif;letter-spacing:1px;fill:#333" id="path268" d="m 11.457031,129.50781 q 0,-0.33203 -0.234375,-0.50781 -0.234375,-0.17969 -0.84375,-0.375 -0.6093747,-0.19922 -0.9648435,-0.39063 -0.96875,-0.52343 -0.96875,-1.41015 0,-0.46094 0.2578125,-0.82031 0.2617188,-0.36328 0.7460938,-0.56641 0.4882812,-0.20312 1.0937502,-0.20312 0.609375,0 1.085937,0.22265 0.476563,0.21875 0.738282,0.6211 0.265625,0.40234 0.265625,0.91406 h -1.171875 q 0,-0.39063 -0.246094,-0.60547 -0.246094,-0.21875 -0.691406,-0.21875 -0.429688,0 -0.6679692,0.18359 -0.2382813,0.17969 -0.2382813,0.47657 0,0.27734 0.2773438,0.46484 0.2812497,0.1875 0.8242187,0.35156 1,0.30078 1.457031,0.74609 0.457032,0.44532 0.457032,1.10938 0,0.73828 -0.558594,1.16016 -0.558594,0.41796 -1.503906,0.41796 -0.6562505,0 -1.195313,-0.23828 -0.5390625,-0.24218 -0.8242187,-0.66015 -0.28125,-0.41797 -0.28125,-0.96875 h 1.1757812 q 0,0.9414 1.1250005,0.9414 0.417968,0 0.652343,-0.16797 0.234375,-0.17187 0.234375,-0.47656 z"/><path style="font-weight:700;font-size:8px;font-family:Roboto,sans-serif;letter-spacing:1px;fill:#333" id="path270" d="m 18.894531,129.10547 q -0.06641,0.91797 -0.679687,1.44531 -0.609375,0.52734 -1.609375,0.52734 -1.09375,0 -1.722656,-0.73437 -0.625,-0.73828 -0.625,-2.02344 v -0.34765 q 0,-0.82032 0.289062,-1.44532 0.289063,-0.625 0.824219,-0.95703 0.539062,-0.33593 1.25,-0.33593 0.984375,0 1.585937,0.52734 0.601563,0.52734 0.695313,1.48047 h -1.171875 q -0.04297,-0.55078 -0.308594,-0.79688 -0.261719,-0.25 -0.800781,-0.25 -0.585938,0 -0.878906,0.42188 -0.289063,0.41797 -0.296875,1.30078 v 0.42969 q 0,0.92187 0.277343,1.34765 0.28125,0.42578 0.882813,0.42578 0.542968,0 0.808593,-0.24609 0.269532,-0.25 0.308594,-0.76953 z"/><path style="font-weight:700;font-size:8px;font-family:Roboto,sans-serif;letter-spacing:1px;fill:#333" id="path272" d="M 23.875,129.82812 H 21.820312 L 21.429687,131 h -1.246093 l 2.117187,-5.6875 h 1.085938 L 25.515625,131 h -1.246094 z m -1.738281,-0.94921 h 1.421875 L 22.84375,126.75 Z"/><path style="font-weight:700;font-size:8px;font-family:Roboto,sans-serif;letter-spacing:1px;fill:#333" id="path274" d="m 28.226562,130.05859 h 2.488282 V 131 h -3.660157 v -5.6875 h 1.171875 z"/><path style="font-weight:700;font-size:8px;font-family:Roboto,sans-serif;letter-spacing:1px;fill:#333" id="path276" d="m 35.804687,128.53516 h -2.25 v 1.52343 h 2.640625 V 131 h -3.8125 v -5.6875 H 36.1875 v 0.94922 h -2.632813 v 1.35547 h 2.25 z"/></g><g id="use111" transform="translate(0,134)"><g id="g189" transform="translate(22.5,22.5)"><g style="font-weight:700;font-size:6.66666651px;font-family:Roboto,sans-serif;fill:#333" id="text167" aria-label="0" transform="translate(-12,19.320508)"><path style="font-weight:700;font-size:6.66666651px;font-family:Roboto,sans-serif;fill:#333" id="path279" d="m 3.5123697,-1.9596354 q 0,0.98307292 -0.406901,1.50390624 -0.4069011,0.52083333 -1.1914062,0.52083333 -0.7747396,0 -1.18489585,-0.5110677 -0.41015624,-0.5110677 -0.41992187,-1.46484367 v -0.8723959 q 0,-0.9928385 0.41015624,-1.5071614 0.41341148,-0.5143229 1.18815098,-0.5143229 0.7747396,0 1.1848958,0.5110677 0.4101563,0.5078125 0.4199219,1.4615885 z M 2.5716145,-2.9166666 q 0,-0.5891927 -0.1627604,-0.8561198 -0.1595052,-0.2701823 -0.5013021,-0.2701823 -0.3320312,0 -0.4915364,0.2571615 Q 1.2597656,-3.531901 1.25,-2.9882812 v 1.1523437 q 0,0.5794271 0.15625,0.86263023 0.1595052,0.27994791 0.5078125,0.27994791 0.345052,0 0.4980468,-0.27018228 0.1529948,-0.27018226 0.1595052,-0.82682286 z"/></g><path style="stroke:#333;stroke-width:.30000001" id="polyline169" d="M 0,0 H 2.5" transform="rotate(150,-8.5,2.2775681)"/><path style="stroke:#333;stroke-width:.30000001" id="polyline171" d="M 0,0 H 2.5" transform="rotate(-180,-8.5,0)"/><path style="stroke:#333;stroke-width:.30000001" id="polyline173" d="M 0,0 H 2.5" transform="rotate(-150,-8.5,-2.2775681)"/><path style="stroke:#333;stroke-width:.30000001" id="polyline175" d="M 0,0 H 2.5" transform="rotate(-120,-8.5,-4.9074773)"/><path style="stroke:#333;stroke-width:1" id="polyline177" d="M 0,0 H 3.5" transform="rotate(-90,-8.5,-8.5)"/><path style="stroke:#333;stroke-width:.30000001" id="polyline179" d="M 0,0 H 2.5" transform="rotate(-60,-8.5,-14.722432)"/><path style="stroke:#333;stroke-width:.30000001" id="polyline181" d="M 0,0 H 2.5" transform="rotate(-30,-8.5,-31.722432)"/><path style="stroke:#333;stroke-width:.30000001" id="polyline183" d="M 0,0 H 2.5" transform="translate(17)"/><path style="stroke:#333;stroke-width:.30000001" id="polyline185" d="M 0,0 H 2.5" transform="rotate(30,-8.5,31.722432)"/><g style="font-weight:700;font-size:6.66666651px;font-family:Roboto,sans-serif;fill:#333" id="text187" aria-label="1" transform="translate(8,19.320508)"><path style="font-weight:700;font-size:6.66666651px;font-family:Roboto,sans-serif;fill:#333" id="path291" d="M 2.6074218,0 H 1.6666666 v -3.626302 l -1.12304682,0.3483073 v -0.764974 L 2.5065104,-4.7460936 h 0.1009114 z"/></g></g></g><g id="g117" transform="translate(5.5,180)"><path style="fill:#fafafa" id="rect113" d="m 5,0 h 24 c 2.77,0 5,2.23 5,5 v 28 c 0,2.77 -2.23,5 -5,5 H 5 C 2.23,38 0,35.77 0,33 V 5 C 0,2.23 2.23,0 5,0 Z"/><g style="font-weight:700;font-size:6.66666651px;font-family:Roboto,sans-serif;letter-spacing:2px;fill:#333" id="text115" aria-label="CV" transform="translate(11,35)"><path style="font-weight:700;font-size:6.66666651px;font-family:Roboto,sans-serif;letter-spacing:2px;fill:#333" id="path295" d="m 4.1438801,-1.578776 q -0.055338,0.76497394 -0.5664062,1.20442705 -0.5078125,0.43945312 -1.3411458,0.43945312 -0.9114583,0 -1.43554687,-0.61197916 Q 0.27994791,-1.1621093 0.27994791,-2.2330729 v -0.2897135 q 0,-0.6835937 0.24088541,-1.2044271 0.24088541,-0.5208333 0.68684898,-0.797526 0.4492187,-0.2799479 1.0416666,-0.2799479 0.8203125,0 1.3216146,0.4394531 0.501302,0.4394531 0.579427,1.233724 H 3.173828 q -0.035807,-0.4589844 -0.2571614,-0.6640625 -0.218099,-0.2083334 -0.6673177,-0.2083334 -0.4882812,0 -0.7324219,0.3515625 -0.2408854,0.3483073 -0.2473958,1.0839844 v 0.3580729 q 0,0.7682291 0.2311198,1.1230468 0.234375,0.35481774 0.7356771,0.35481774 0.4524739,0 0.6738281,-0.20507812 Q 3.1347656,-1.1458333 3.1673176,-1.578776 Z"/><path style="font-weight:700;font-size:6.66666651px;font-family:Roboto,sans-serif;letter-spacing:2px;fill:#333" id="path297" d="m 8.5364581,-1.1751302 1.0742187,-3.564453 H 10.697916 L 9.0475258,0 H 8.0286456 L 6.3847655,-4.7395832 h 1.0839843 z"/></g></g><g id="g127" transform="translate(5.5,230)"><path style="fill:#fafafa" id="rect121" d="M 0,0 H 34 V 10 H 0 Z" transform="translate(0,28)"/><path style="fill:#fafafa" id="rect123" d="m 5,0 h 24 c 2.77,0 5,2.23 5,5 v 25 c 0,2.77 -2.23,5 -5,5 H 5 C 2.23,35 0,32.77 0,30 V 5 C 0,2.23 2.23,0 5,0 Z"/><g style="font-weight:700;font-size:6.66666651px;font-family:Roboto,sans-serif;letter-spacing:2px;fill:#333" id="text125" aria-label="IN" transform="translate(12.5,35)"><path style="font-weight:700;font-size:6.66666651px;font-family:Roboto,sans-serif;letter-spacing:2px;fill:#333" id="path302" d="M 1.4615885,0 H 0.48502603 V -4.7395832 H 1.4615885 Z"/><path style="font-weight:700;font-size:6.66666651px;font-family:Roboto,sans-serif;letter-spacing:2px;fill:#333" id="path304" d="M 8.2174477,0 H 7.2408852 L 5.3398436,-3.1184895 V 0 H 4.3632811 v -4.7395832 h 0.9765625 l 1.9042968,3.1249999 v -3.1249999 h 0.9733073 z"/></g></g><g id="g135" transform="translate(5.5,271)"><path style="fill:#bbb" id="rect129" d="M 0,0 H 34 V 10 H 0 Z" transform="translate(0,-3)"/><path style="fill:#bbb" id="rect131" d="m 5,0 h 24 c 2.77,0 5,2.23 5,5 v 25 c 0,2.77 -2.23,5 -5,5 H 5 C 2.23,35 0,32.77 0,30 V 5 C 0,2.23 2.23,0 5,0 Z"/><g style="font-weight:700;font-size:6.66666651px;font-family:Roboto,sans-serif;letter-spacing:2px;fill:#333" id="text133" aria-label="OUT" transform="translate(8.3,32)"><path style="font-weight:700;font-size:6.66666651px;font-family:Roboto,sans-serif;letter-spacing:2px;fill:#333" id="path309" d="m 4.3164061,-2.2623697 q 0,0.6998697 -0.2473958,1.2272135 -0.2473958,0.52734371 -0.7096354,0.81380204 -0.4589843,0.28645833 -1.0546875,0.28645833 -0.5891926,0 -1.0514322,-0.28320312 Q 0.79101561,-0.50130207 0.53710936,-1.0253906 0.28320312,-1.5527343 0.27994791,-2.2363281 v -0.234375 q 0,-0.6998697 0.25065104,-1.2304687 0.25390624,-0.5338541 0.71289065,-0.8170573 0.4622395,-0.2864583 1.0546874,-0.2864583 0.5924479,0 1.0514323,0.2864583 0.4622396,0.2832032 0.7128906,0.8170573 0.2539062,0.530599 0.2539062,1.2272135 z M 3.3268228,-2.4772135 q 0,-0.7454427 -0.266927,-1.1328125 -0.2669271,-0.3873697 -0.7617188,-0.3873697 -0.4915364,0 -0.7584635,0.3841145 -0.2669271,0.3808594 -0.2701823,1.1197917 v 0.2311198 q 0,0.7259114 0.2669271,1.126302 0.2669271,0.40039063 0.7682291,0.40039063 0.4915365,0 0.7552084,-0.38411453 0.2636718,-0.3873698 0.266927,-1.1263021 z"/><path style="font-weight:700;font-size:6.66666651px;font-family:Roboto,sans-serif;letter-spacing:2px;fill:#333" id="path311" d="m 10.619792,-4.7395832 v 3.1217447 q 0,0.77799477 -0.488282,1.23046872 -0.4850257,0.45247395 -1.3281246,0.45247395 -0.8300781,0 -1.3183594,-0.43945312 Q 6.9967448,-0.81380206 6.9869792,-1.5820312 v -3.157552 h 0.9765624 v 3.1282551 q 0,0.4654948 0.2213542,0.68033854 0.2246094,0.21158854 0.6184896,0.21158854 0.8235677,0 0.8365885,-0.86588538 v -3.1542968 z"/><path style="font-weight:700;font-size:6.66666651px;font-family:Roboto,sans-serif;letter-spacing:2px;fill:#333" id="path313" d="M 16.988281,-3.9485676 H 15.536458 V 0 h -0.976563 v -3.9485676 h -1.432291 v -0.7910156 h 3.860677 z"/></g></g></svg>