<svg xmlns="http://www.w3.org/2000/svg" xmlns:svg="http://www.w3.org/2000/svg" id="svg10" width="68" height="68" version="1.1" viewBox="0 0 68 68"><metadata id="metadata16"/><path style="fill:#333" id="circle2" d="M 67.799999,34 A 33.799999,33.799999 0 0 1 34,67.799999 33.799999,33.799999 0 0 1 0.20000076,34 33.799999,33.799999 0 0 1 34,0.20000076 33.799999,33.799999 0 0 1 67.799999,34 Z"/><path style="fill:#eee" id="circle4" d="M 61,34 A 27,27 0 0 1 34,61 27,27 0 0 1 7,34 27,27 0 0 1 34,7 27,27 0 0 1 61,34 Z"/><path style="fill:none;stroke:#fff;stroke-width:3;stroke-linecap:round" id="polyline8" d="M 34,2 V 4.5"/></svg>