<svg xmlns="http://www.w3.org/2000/svg" xmlns:svg="http://www.w3.org/2000/svg" id="svg10" width="45" height="45" version="1.1" viewBox="0 0 45 45"><metadata id="metadata16"/><path style="fill:#333" id="circle2" d="M 44.700001,22.5 A 22.200001,22.200001 0 0 1 22.5,44.700001 22.200001,22.200001 0 0 1 0.29999924,22.5 22.200001,22.200001 0 0 1 22.5,0.29999924 22.200001,22.200001 0 0 1 44.700001,22.5 Z"/><path style="fill:#eee" id="circle4" d="m 40.5,22.5 a 18,18 0 0 1 -18,18 18,18 0 0 1 -18,-18 18,18 0 0 1 18,-18 18,18 0 0 1 18,18 z"/><path style="fill:none;stroke:#fff;stroke-width:3;stroke-linecap:round" id="polyline8" d="M 22.5,2 V 2.7"/></svg>