<svg xmlns="http://www.w3.org/2000/svg" xmlns:svg="http://www.w3.org/2000/svg" id="svg360" width="330" height="380" version="1.1" viewBox="0 0 330 380"><metadata id="metadata364"/><style id="style2"/><defs id="defs72"><symbol id="knob19" viewBox="0 0 20 20"><g id="g10" transform="translate(10 10)"><polyline id="polyline4" stroke="#00f" stroke-width="1" points="-3 0 3 0"/><polyline id="polyline6" stroke="#00f" stroke-width="1" points="0 -3 0 3"/><circle id="circle8" cx="0" cy="0" r="9.3" fill="none" stroke="#00f" stroke-width="1"/></g></symbol><symbol id="knob-small" viewBox="0 0 45 45"><g id="g19" transform="translate(22.5 22.5)"><polyline id="polyline13" stroke="#00f" stroke-width="1" points="-3 0 3 0"/><polyline id="polyline15" stroke="#00f" stroke-width="1" points="0 -3 0 3"/><circle id="circle17" cx="0" cy="0" r="7.5" fill="none" stroke="#00f" stroke-width="1"/></g></symbol><symbol id="knobguide-centertick19" viewBox="0 0 40 40"><g id="g32" transform="translate(20 20)"><polyline id="polyline22" stroke="#333" stroke-width="1" points="0 0 4 0" transform="rotate(-90) translate(11.5 0)"/><path id="path24" fill="none" stroke="#333" stroke-linecap="round" stroke-width=".5" d="M 0 -13.5 A 13.5 13.5 0 0 1 13.5 0" transform="rotate(20)"/><path id="path26" fill="none" stroke="#333" stroke-linecap="round" stroke-width=".5" d="M 0 -13.5 A 13.5 13.5 0 0 1 13.5 0" transform="rotate(43)"/><path id="path28" fill="none" stroke="#333" stroke-linecap="round" stroke-width=".5" d="M 0 -13.5 A 13.5 13.5 0 0 0 -13.5 0" transform="rotate(-20)"/><path id="path30" fill="none" stroke="#333" stroke-linecap="round" stroke-width=".5" d="M 0 -13.5 A 13.5 13.5 0 0 0 -13.5 0" transform="rotate(-43)"/></g></symbol><symbol id="knobguide-maxtick" viewBox="0 0 40 40"><g id="g47" transform="translate(20 20)"><g id="g37" transform="rotate(60) translate(10 0)"><polyline id="polyline35" stroke="#333" stroke-width="1" points="0 0 4 0"/></g><path id="path39" fill="none" stroke="#333" stroke-linecap="round" stroke-width=".5" d="M 0 -12.5 A 12.5 12.5 0 0 1 12.5 0" transform="rotate(0)"/><path id="path41" fill="none" stroke="#333" stroke-linecap="round" stroke-width=".5" d="M 0 -12.5 A 12.5 12.5 0 0 1 12.5 0" transform="rotate(43)"/><path id="path43" fill="none" stroke="#333" stroke-linecap="round" stroke-width=".5" d="M 0 -12.5 A 12.5 12.5 0 0 0 -12.5 0" transform="rotate(0)"/><path id="path45" fill="none" stroke="#333" stroke-linecap="round" stroke-width=".5" d="M 0 -12.5 A 12.5 12.5 0 0 0 -12.5 0" transform="rotate(-43)"/></g></symbol><symbol id="input" viewBox="0 0 24 24"><g id="g58" transform="translate(12 12)"><circle id="circle50" cx="0" cy="0" r="5" fill="#0f0" stroke="#0f0" stroke-width="1"/><circle id="circle52" cx="0" cy="0" r="10.5" fill="none" stroke="#0f0" stroke-width="3"/><polyline id="polyline54" stroke="#00f" stroke-width="1" points="-3 0 3 0"/><polyline id="polyline56" stroke="#00f" stroke-width="1" points="0 -3 0 3"/></g></symbol><symbol id="output" viewBox="0 0 24 24"><g id="g69" transform="translate(12 12)"><circle id="circle61" cx="0" cy="0" r="5" fill="red" stroke="red" stroke-width="1"/><circle id="circle63" cx="0" cy="0" r="10.5" fill="none" stroke="red" stroke-width="3"/><polyline id="polyline65" stroke="#00f" stroke-width="1" points="-3 0 3 0"/><polyline id="polyline67" stroke="#00f" stroke-width="1" points="0 -3 0 3"/></g></symbol></defs><path id="rect74" d="M 0,0 H 330 V 380 H 0 Z" style="fill:#ddd"/><path id="polyline76" d="M 1,1 H 329 V 379 H 1 V 1" style="fill:none;stroke:#e4e4e4;stroke-width:.5"/><path id="polyline78" d="m 0.5,0.5 h 329 v 379 H 0.5 V 0.5" style="fill:none;stroke:#ebebeb;stroke-width:.80000001"/><path id="polyline80" d="M 0,0 H 330 V 380 H 0 V 0" style="fill:none;stroke:#f2f2f2;stroke-width:1"/><g id="text82" aria-label="MATRIX88" style="font-weight:400;font-size:16px;font-family:Comfortaa,sans-serif;letter-spacing:4px;fill:#333"><path id="path1364" d="m 123.988,6.504 q 0.256,0 0.432,0.176 0.176,0.176 0.176,0.448 v 11.248 q 0,0.256 -0.176,0.448 -0.176,0.176 -0.432,0.176 -0.272,0 -0.464,-0.176 -0.176,-0.192 -0.176,-0.448 V 9.32 l -4.448,9.088 q -0.192,0.304 -0.544,0.304 -0.4,0 -0.576,-0.384 l -4.432,-8.864 v 8.912 q 0,0.256 -0.176,0.448 Q 112.996,19 112.724,19 112.468,19 112.276,18.824 112.1,18.632 112.1,18.376 V 7.128 q 0,-0.272 0.176,-0.448 0.192,-0.176 0.448,-0.176 0.368,0 0.56,0.32 L 118.404,17 123.428,6.824 q 0.192,-0.32 0.56,-0.32 z" style="font-weight:400;font-size:16px;font-family:Comfortaa,sans-serif;letter-spacing:4px;fill:#333"/><path id="path1366" d="m 141.1635,18.12 q 0.064,0.112 0.064,0.256 0,0.256 -0.192,0.448 -0.176,0.176 -0.432,0.176 -0.416,0 -0.592,-0.384 l -1.072,-2.592 h -6.192 l -1.072,2.592 q -0.128,0.384 -0.576,0.384 -0.272,0 -0.448,-0.176 -0.16,-0.192 -0.16,-0.448 0,-0.16 0.048,-0.272 l 4.704,-11.168 q 0.176,-0.432 0.608,-0.432 0.432,0 0.592,0.432 z m -2.656,-3.168 -2.656,-6.416 -2.656,6.416 z" style="font-weight:400;font-size:16px;font-family:Comfortaa,sans-serif;letter-spacing:4px;fill:#333"/><path id="path1368" d="m 153.82025,6.504 q 0.256,0 0.416,0.16 0.16,0.16 0.16,0.416 0,0.24 -0.16,0.4 -0.16,0.16 -0.416,0.16 h -3.808 v 10.736 q 0,0.256 -0.176,0.448 -0.176,0.176 -0.448,0.176 -0.256,0 -0.448,-0.176 -0.176,-0.192 -0.176,-0.448 V 7.64 h -3.792 q -0.256,0 -0.416,-0.16 -0.16,-0.16 -0.16,-0.4 0,-0.256 0.16,-0.416 0.16,-0.16 0.416,-0.16 z" style="font-weight:400;font-size:16px;font-family:Comfortaa,sans-serif;letter-spacing:4px;fill:#333"/><path id="path1370" d="m 168.033,18.04 q 0.144,0.24 0.144,0.432 0,0.24 -0.176,0.384 -0.176,0.144 -0.464,0.144 -0.192,0 -0.32,-0.08 -0.128,-0.08 -0.224,-0.24 l -2.88,-4.576 h -0.272 -2.368 v 4.272 q 0,0.272 -0.176,0.448 -0.176,0.176 -0.448,0.176 -0.272,0 -0.448,-0.176 -0.176,-0.176 -0.176,-0.448 V 7.128 q 0,-0.272 0.176,-0.448 0.176,-0.176 0.448,-0.176 h 2.992 q 1.168,0 2.08,0.496 0.912,0.48 1.424,1.36 0.528,0.88 0.528,2 0,1.232 -0.672,2.16 -0.656,0.928 -1.792,1.328 z m -4.192,-5.136 q 0.8,0 1.44,-0.32 0.656,-0.336 1.008,-0.912 0.368,-0.576 0.368,-1.312 0,-0.768 -0.368,-1.376 -0.352,-0.608 -0.992,-0.944 -0.64,-0.336 -1.456,-0.336 h -2.368 v 5.2 z" style="font-weight:400;font-size:16px;font-family:Comfortaa,sans-serif;letter-spacing:4px;fill:#333"/><path id="path1372" d="m 174.724,19 q -0.256,0 -0.448,-0.176 Q 174.1,18.632 174.1,18.376 V 7.128 q 0,-0.272 0.176,-0.448 0.192,-0.176 0.448,-0.176 0.272,0 0.448,0.176 0.176,0.176 0.176,0.448 v 11.248 q 0,0.256 -0.176,0.448 Q 174.996,19 174.724,19 Z" style="font-weight:400;font-size:16px;font-family:Comfortaa,sans-serif;letter-spacing:4px;fill:#333"/><path id="path1374" d="m 191.3855,17.992 q 0.144,0.192 0.144,0.4 0,0.256 -0.16,0.432 -0.16,0.176 -0.432,0.176 -0.32,0 -0.48,-0.224 l -3.824,-5.296 -3.904,5.328 q -0.16,0.192 -0.448,0.192 -0.272,0 -0.432,-0.16 -0.16,-0.176 -0.16,-0.416 0,-0.24 0.144,-0.432 l 3.952,-5.376 -3.696,-5.136 q -0.128,-0.208 -0.128,-0.384 0,-0.24 0.16,-0.416 0.16,-0.176 0.416,-0.176 0.32,0 0.48,0.224 l 3.632,5.024 3.68,-5.024 q 0.176,-0.224 0.48,-0.224 0.256,0 0.416,0.192 0.16,0.176 0.16,0.416 0,0.208 -0.112,0.368 l -3.776,5.12 z" style="font-weight:400;font-size:16px;font-family:Comfortaa,sans-serif;letter-spacing:4px;fill:#333"/><path id="path1376" d="m 202.826,11.992 q 0.88,0.464 1.392,1.312 0.512,0.832 0.512,1.888 0,1.088 -0.496,1.968 -0.48,0.88 -1.344,1.392 -0.848,0.512 -1.888,0.512 -1.056,0 -1.92,-0.496 -0.848,-0.512 -1.344,-1.376 -0.48,-0.88 -0.48,-1.952 0,-1.072 0.512,-1.92 0.528,-0.864 1.408,-1.328 -0.592,-0.416 -0.928,-1.056 -0.336,-0.656 -0.336,-1.44 0,-0.848 0.4,-1.536 0.416,-0.704 1.12,-1.088 0.72,-0.4 1.6,-0.4 0.864,0 1.552,0.4 0.704,0.384 1.088,1.072 0.4,0.672 0.4,1.52 0,0.784 -0.336,1.456 -0.336,0.656 -0.912,1.072 z m -3.728,-2.48 q 0,0.832 0.544,1.408 0.544,0.56 1.36,0.56 0.816,0 1.344,-0.576 0.544,-0.592 0.544,-1.456 0,-0.784 -0.544,-1.312 -0.544,-0.528 -1.344,-0.528 -0.816,0 -1.36,0.544 -0.544,0.544 -0.544,1.36 z m 4.384,5.696 q 0,-0.72 -0.336,-1.296 -0.32,-0.576 -0.896,-0.912 -0.56,-0.336 -1.248,-0.336 -0.704,0 -1.28,0.352 -0.576,0.336 -0.896,0.928 -0.32,0.592 -0.32,1.328 0,0.736 0.32,1.36 0.336,0.608 0.896,0.96 0.576,0.352 1.28,0.352 0.704,0 1.264,-0.352 0.576,-0.368 0.896,-0.992 0.32,-0.64 0.32,-1.392 z" style="font-weight:400;font-size:16px;font-family:Comfortaa,sans-serif;letter-spacing:4px;fill:#333"/><path id="path1378" d="m 216.326,11.992 q 0.88,0.464 1.392,1.312 0.512,0.832 0.512,1.888 0,1.088 -0.496,1.968 -0.48,0.88 -1.344,1.392 -0.848,0.512 -1.888,0.512 -1.056,0 -1.92,-0.496 -0.848,-0.512 -1.344,-1.376 -0.48,-0.88 -0.48,-1.952 0,-1.072 0.512,-1.92 0.528,-0.864 1.408,-1.328 -0.592,-0.416 -0.928,-1.056 -0.336,-0.656 -0.336,-1.44 0,-0.848 0.4,-1.536 0.416,-0.704 1.12,-1.088 0.72,-0.4 1.6,-0.4 0.864,0 1.552,0.4 0.704,0.384 1.088,1.072 0.4,0.672 0.4,1.52 0,0.784 -0.336,1.456 -0.336,0.656 -0.912,1.072 z m -3.728,-2.48 q 0,0.832 0.544,1.408 0.544,0.56 1.36,0.56 0.816,0 1.344,-0.576 0.544,-0.592 0.544,-1.456 0,-0.784 -0.544,-1.312 -0.544,-0.528 -1.344,-0.528 -0.816,0 -1.36,0.544 -0.544,0.544 -0.544,1.36 z m 4.384,5.696 q 0,-0.72 -0.336,-1.296 -0.32,-0.576 -0.896,-0.912 -0.56,-0.336 -1.248,-0.336 -0.704,0 -1.28,0.352 -0.576,0.336 -0.896,0.928 -0.32,0.592 -0.32,1.328 0,0.736 0.32,1.36 0.336,0.608 0.896,0.96 0.576,0.352 1.28,0.352 0.704,0 1.264,-0.352 0.576,-0.368 0.896,-0.992 0.32,-0.64 0.32,-1.392 z" style="font-weight:400;font-size:16px;font-family:Comfortaa,sans-serif;letter-spacing:4px;fill:#333"/></g><g id="text84" aria-label="BOGAUDIO" style="font-weight:700;font-size:10.66666698px;font-family:Audiowide,sans-serif;letter-spacing:2px;fill:#333"><path id="path1381" d="m 133.23958,372.35937 q 0,0.25 -0.0885,0.53646 -0.0833,0.28646 -0.28125,0.53125 -0.19271,0.24479 -0.50521,0.41146 Q 132.05208,374 131.59896,374 h -5.14063 q -0.14583,0 -0.27083,-0.0521 -0.125,-0.0521 -0.21875,-0.14063 -0.0885,-0.0937 -0.14062,-0.21875 -0.0521,-0.125 -0.0521,-0.27083 v -6.10417 q 0,-0.14062 0.0521,-0.26562 0.0521,-0.125 0.14062,-0.21875 0.0937,-0.0937 0.21875,-0.14584 0.125,-0.0521 0.27083,-0.0521 h 4.53125 q 0.25,0 0.53646,0.0885 0.28646,0.0885 0.53125,0.28646 0.25,0.19271 0.41146,0.50521 0.16667,0.3125 0.16667,0.76562 v 0.25521 q 0,0.35938 -0.11979,0.77604 -0.1198,0.41146 -0.38542,0.78125 0.22917,0.14063 0.42708,0.33854 0.20313,0.19792 0.35417,0.45834 0.15104,0.26041 0.23958,0.58854 0.0885,0.32812 0.0885,0.72396 z m -1.35416,-0.26041 q 0,-0.26563 -0.0833,-0.47396 -0.0833,-0.21354 -0.23437,-0.36458 -0.15104,-0.15105 -0.36458,-0.22917 -0.21355,-0.0833 -0.47917,-0.0833 h -3.05208 v -1.36459 h 2.4427 q 0.26563,0 0.47917,-0.0781 0.21354,-0.0833 0.36458,-0.23438 0.15105,-0.15104 0.22917,-0.35937 0.0833,-0.21354 0.0833,-0.47917 v -0.25521 q 0,-0.29166 -0.28125,-0.29166 h -3.85937 v 4.76041 h 4.46875 q 0.0365,0 0.0885,-0.005 0.0521,-0.005 0.0937,-0.0312 0.0417,-0.026 0.0729,-0.0885 0.0312,-0.0625 0.0312,-0.17187 z" style="font-weight:700;font-size:10.66666698px;font-family:Audiowide,sans-serif;letter-spacing:2px;fill:#333"/><path id="path1383" d="m 144.25,370.97917 q 0,0.68229 -0.23437,1.2552 -0.23438,0.57292 -0.65105,0.98959 -0.41666,0.41666 -0.98958,0.65104 -0.56771,0.22917 -1.23958,0.22917 h -1.83334 q -0.67187,0 -1.24479,-0.22917 -0.57291,-0.23438 -0.98958,-0.65104 -0.41667,-0.41667 -0.65625,-0.98959 -0.23438,-0.57291 -0.23438,-1.2552 v -1.42709 q 0,-0.67708 0.23438,-1.25 0.23958,-0.57812 0.65625,-0.98958 0.41667,-0.41667 0.98958,-0.65104 0.57292,-0.23438 1.24479,-0.23438 h 1.83334 q 0.67187,0 1.23958,0.23438 0.57292,0.23437 0.98958,0.65104 0.41667,0.41146 0.65105,0.98958 0.23437,0.57292 0.23437,1.25 z m -1.35417,-1.42709 q 0,-0.40104 -0.1302,-0.72396 -0.125,-0.32812 -0.35938,-0.55729 -0.22917,-0.23437 -0.55729,-0.35937 -0.32292,-0.13021 -0.71354,-0.13021 h -1.83334 q -0.39583,0 -0.72395,0.13021 -0.32292,0.125 -0.5573,0.35937 -0.23437,0.22917 -0.36458,0.55729 -0.125,0.32292 -0.125,0.72396 v 1.42709 q 0,0.40104 0.125,0.72916 0.13021,0.32292 0.36458,0.55729 0.23438,0.22917 0.5573,0.35938 0.32812,0.125 0.72395,0.125 h 1.82292 q 0.39583,0 0.71875,-0.125 0.32813,-0.13021 0.5625,-0.35938 0.23438,-0.23437 0.35938,-0.55729 0.1302,-0.32812 0.1302,-0.72916 z" style="font-weight:700;font-size:10.66666698px;font-family:Audiowide,sans-serif;letter-spacing:2px;fill:#333"/><path id="path1385" d="m 154.96875,373.31771 q 0,0.14583 -0.0521,0.27083 -0.0521,0.125 -0.14584,0.21875 -0.0885,0.0885 -0.21354,0.14063 -0.125,0.0521 -0.27083,0.0521 h -4.88542 q -0.1875,0 -0.40625,-0.0417 -0.21354,-0.0469 -0.42708,-0.14062 -0.20833,-0.0937 -0.40104,-0.23959 -0.19271,-0.15104 -0.34375,-0.35937 -0.14584,-0.21354 -0.23438,-0.48958 -0.0885,-0.28125 -0.0885,-0.63021 v -3.66667 q 0,-0.1875 0.0417,-0.40104 0.0469,-0.21875 0.14062,-0.42708 0.0937,-0.21355 0.24479,-0.40625 0.15105,-0.19271 0.35938,-0.33855 0.21354,-0.15104 0.48958,-0.23958 0.27604,-0.0885 0.625,-0.0885 h 5.50521 v 1.35417 h -5.50521 q -0.26562,0 -0.40625,0.14062 -0.14062,0.14063 -0.14062,0.41667 v 3.65625 q 0,0.26041 0.14062,0.40625 0.14584,0.14062 0.40625,0.14062 h 4.21354 v -1.69791 h -3.60416 v -1.36459 h 4.27604 q 0.14583,0 0.27083,0.0573 0.125,0.0521 0.21354,0.14584 0.0937,0.0937 0.14584,0.21875 0.0521,0.11979 0.0521,0.26041 z" style="font-weight:700;font-size:10.66666698px;font-family:Audiowide,sans-serif;letter-spacing:2px;fill:#333"/><path id="path1387" d="m 165.71875,374 h -1.35417 v -1.83333 h -4.76041 V 374 H 158.25 v -3.73438 q 0,-0.8177 0.28125,-1.5052 0.28125,-0.6875 0.78125,-1.1823 0.5,-0.49479 1.18229,-0.77083 0.68229,-0.27604 1.48959,-0.27604 h 3.05208 q 0.14062,0 0.26562,0.0521 0.125,0.0521 0.21875,0.14584 0.0937,0.0937 0.14584,0.21875 0.0521,0.125 0.0521,0.26562 z m -6.11458,-3.1875 h 4.76041 v -2.92708 h -2.3802 q -0.0625,0 -0.26563,0.0208 -0.19792,0.0156 -0.46354,0.0885 -0.26042,0.0729 -0.55208,0.22396 -0.29167,0.15104 -0.53646,0.41667 -0.24479,0.26562 -0.40625,0.66666 -0.15625,0.39584 -0.15625,0.96354 z" style="font-weight:700;font-size:10.66666698px;font-family:Audiowide,sans-serif;letter-spacing:2px;fill:#333"/><path id="path1389" d="m 176.60417,373.31771 q 0,0.14583 -0.0521,0.27083 -0.0521,0.125 -0.14583,0.21875 -0.0937,0.0885 -0.21875,0.14063 Q 176.0625,374 175.92188,374 h -3.05209 q -0.43229,0 -0.875,-0.0937 -0.44271,-0.0937 -0.85937,-0.28646 -0.41146,-0.19792 -0.77604,-0.5 -0.36459,-0.30208 -0.64063,-0.71354 -0.27083,-0.41667 -0.42708,-0.94792 -0.15625,-0.53646 -0.15625,-1.19271 v -3.73437 h 1.35416 v 3.73437 q 0,0.57292 0.15625,0.96875 0.16146,0.39584 0.40625,0.66146 0.2448,0.26563 0.53646,0.41667 0.29167,0.15104 0.55209,0.22396 0.26562,0.0729 0.46354,0.0937 0.20312,0.0156 0.26562,0.0156 H 175.25 v -6.11458 h 1.35417 z" style="font-weight:700;font-size:10.66666698px;font-family:Audiowide,sans-serif;letter-spacing:2px;fill:#333"/><path id="path1391" d="m 187.63542,370.875 q 0,0.68229 -0.23958,1.25521 -0.23438,0.57291 -0.65105,0.98958 -0.41666,0.41146 -0.98958,0.64583 Q 185.18229,374 184.51042,374 h -3.65625 q -0.14583,0 -0.27083,-0.0521 -0.125,-0.0521 -0.21875,-0.14063 -0.0885,-0.0937 -0.14063,-0.21875 -0.0521,-0.125 -0.0521,-0.27083 v -6.10417 q 0,-0.14062 0.0521,-0.26562 0.0521,-0.125 0.14063,-0.21875 0.0937,-0.0937 0.21875,-0.14584 0.125,-0.0521 0.27083,-0.0521 h 3.65625 q 0.67187,0 1.24479,0.23437 0.57292,0.23438 0.98958,0.65105 0.41667,0.41145 0.65105,0.98958 0.23958,0.57292 0.23958,1.25 z m -1.35417,-1.21875 q 0,-0.39583 -0.13021,-0.72396 -0.125,-0.32812 -0.35937,-0.55729 -0.23438,-0.23438 -0.5625,-0.35938 -0.32292,-0.1302 -0.71875,-0.1302 h -2.98438 v 4.76041 h 2.98438 q 0.39583,0 0.71875,-0.125 0.32812,-0.13021 0.5625,-0.35937 0.23437,-0.23438 0.35937,-0.55729 0.13021,-0.32813 0.13021,-0.72917 z" style="font-weight:700;font-size:10.66666698px;font-family:Audiowide,sans-serif;letter-spacing:2px;fill:#333"/><path id="path1393" d="m 192.33854,374 h -1.35416 v -7.46875 h 1.35416 z" style="font-weight:700;font-size:10.66666698px;font-family:Audiowide,sans-serif;letter-spacing:2px;fill:#333"/><path id="path1395" d="m 203.77084,370.97917 q 0,0.68229 -0.23438,1.2552 -0.23437,0.57292 -0.65104,0.98959 -0.41667,0.41666 -0.98958,0.65104 -0.56771,0.22917 -1.23959,0.22917 h -1.83333 q -0.67188,0 -1.24479,-0.22917 -0.57292,-0.23438 -0.98959,-0.65104 -0.41666,-0.41667 -0.65625,-0.98959 -0.23437,-0.57291 -0.23437,-1.2552 v -1.42709 q 0,-0.67708 0.23437,-1.25 0.23959,-0.57812 0.65625,-0.98958 0.41667,-0.41667 0.98959,-0.65104 0.57291,-0.23438 1.24479,-0.23438 h 1.83333 q 0.67188,0 1.23959,0.23438 0.57291,0.23437 0.98958,0.65104 0.41667,0.41146 0.65104,0.98958 0.23438,0.57292 0.23438,1.25 z m -1.35417,-1.42709 q 0,-0.40104 -0.13021,-0.72396 -0.125,-0.32812 -0.35937,-0.55729 -0.22917,-0.23437 -0.5573,-0.35937 -0.32291,-0.13021 -0.71354,-0.13021 h -1.83333 q -0.39583,0 -0.72396,0.13021 -0.32292,0.125 -0.55729,0.35937 -0.23438,0.22917 -0.36458,0.55729 -0.125,0.32292 -0.125,0.72396 v 1.42709 q 0,0.40104 0.125,0.72916 0.1302,0.32292 0.36458,0.55729 0.23437,0.22917 0.55729,0.35938 0.32813,0.125 0.72396,0.125 h 1.82292 q 0.39583,0 0.71875,-0.125 0.32812,-0.13021 0.5625,-0.35938 0.23437,-0.23437 0.35937,-0.55729 0.13021,-0.32812 0.13021,-0.72916 z" style="font-weight:700;font-size:10.66666698px;font-family:Audiowide,sans-serif;letter-spacing:2px;fill:#333"/></g><path id="rect86" d="m 149,369 h 3 v 3 h -3 z" style="fill:#ddd"/><path id="rect90" d="m 10.5,25 h 24 c 2.77,0 5,2.23 5,5 v 283 c 0,2.77 -2.23,5 -5,5 h -24 c -2.77,0 -5,-2.23 -5,-5 V 30 c 0,-2.77 2.23,-5 5,-5 z" style="fill:#fafafa"/><path id="rect94" d="M 51.5,323 H 320 c 2.77,0 5,2.23 5,5 v 24 c 0,2.77 -2.23,5 -5,5 H 51.5 c -2.77,0 -5,-2.23 -5,-5 v -24 c 0,-2.77 2.23,-5 5,-5 z" style="fill:#bbb"/><g id="use98" transform="translate(43.5,22)"><g id="g1328" transform="translate(20,20)"><path id="polyline1318" d="M 0,0 H 4" transform="rotate(-90,-5.75,-5.75)" style="stroke:#333;stroke-width:1"/><path style="fill:none;stroke:#333;stroke-width:.5;stroke-linecap:round" id="path1320" d="M 0,-13.5 A 13.5,13.5 0 0 1 13.5,0" transform="rotate(20)"/><path style="fill:none;stroke:#333;stroke-width:.5;stroke-linecap:round" id="path1322" d="M 0,-13.5 A 13.5,13.5 0 0 1 13.5,0" transform="rotate(43)"/><path style="fill:none;stroke:#333;stroke-width:.5;stroke-linecap:round" id="path1324" d="M 0,-13.5 A 13.5,13.5 0 0 0 -13.5,0" transform="rotate(-20)"/><path style="fill:none;stroke:#333;stroke-width:.5;stroke-linecap:round" id="path1326" d="M 0,-13.5 A 13.5,13.5 0 0 0 -13.5,0" transform="rotate(-43)"/></g></g><g id="use102" transform="translate(43.5,59)"><g id="g1314" transform="translate(20,20)"><path id="polyline1304" d="M 0,0 H 4" transform="rotate(-90,-5.75,-5.75)" style="stroke:#333;stroke-width:1"/><path style="fill:none;stroke:#333;stroke-width:.5;stroke-linecap:round" id="path1306" d="M 0,-13.5 A 13.5,13.5 0 0 1 13.5,0" transform="rotate(20)"/><path style="fill:none;stroke:#333;stroke-width:.5;stroke-linecap:round" id="path1308" d="M 0,-13.5 A 13.5,13.5 0 0 1 13.5,0" transform="rotate(43)"/><path style="fill:none;stroke:#333;stroke-width:.5;stroke-linecap:round" id="path1310" d="M 0,-13.5 A 13.5,13.5 0 0 0 -13.5,0" transform="rotate(-20)"/><path style="fill:none;stroke:#333;stroke-width:.5;stroke-linecap:round" id="path1312" d="M 0,-13.5 A 13.5,13.5 0 0 0 -13.5,0" transform="rotate(-43)"/></g></g><g id="use106" transform="translate(43.5,96)"><g id="g1300" transform="translate(20,20)"><path id="polyline1290" d="M 0,0 H 4" transform="rotate(-90,-5.75,-5.75)" style="stroke:#333;stroke-width:1"/><path style="fill:none;stroke:#333;stroke-width:.5;stroke-linecap:round" id="path1292" d="M 0,-13.5 A 13.5,13.5 0 0 1 13.5,0" transform="rotate(20)"/><path style="fill:none;stroke:#333;stroke-width:.5;stroke-linecap:round" id="path1294" d="M 0,-13.5 A 13.5,13.5 0 0 1 13.5,0" transform="rotate(43)"/><path style="fill:none;stroke:#333;stroke-width:.5;stroke-linecap:round" id="path1296" d="M 0,-13.5 A 13.5,13.5 0 0 0 -13.5,0" transform="rotate(-20)"/><path style="fill:none;stroke:#333;stroke-width:.5;stroke-linecap:round" id="path1298" d="M 0,-13.5 A 13.5,13.5 0 0 0 -13.5,0" transform="rotate(-43)"/></g></g><g id="use110" transform="translate(43.5,133)"><g id="g1286" transform="translate(20,20)"><path id="polyline1276" d="M 0,0 H 4" transform="rotate(-90,-5.75,-5.75)" style="stroke:#333;stroke-width:1"/><path style="fill:none;stroke:#333;stroke-width:.5;stroke-linecap:round" id="path1278" d="M 0,-13.5 A 13.5,13.5 0 0 1 13.5,0" transform="rotate(20)"/><path style="fill:none;stroke:#333;stroke-width:.5;stroke-linecap:round" id="path1280" d="M 0,-13.5 A 13.5,13.5 0 0 1 13.5,0" transform="rotate(43)"/><path style="fill:none;stroke:#333;stroke-width:.5;stroke-linecap:round" id="path1282" d="M 0,-13.5 A 13.5,13.5 0 0 0 -13.5,0" transform="rotate(-20)"/><path style="fill:none;stroke:#333;stroke-width:.5;stroke-linecap:round" id="path1284" d="M 0,-13.5 A 13.5,13.5 0 0 0 -13.5,0" transform="rotate(-43)"/></g></g><g id="use114" transform="translate(43.5,170)"><g id="g1272" transform="translate(20,20)"><path id="polyline1262" d="M 0,0 H 4" transform="rotate(-90,-5.75,-5.75)" style="stroke:#333;stroke-width:1"/><path style="fill:none;stroke:#333;stroke-width:.5;stroke-linecap:round" id="path1264" d="M 0,-13.5 A 13.5,13.5 0 0 1 13.5,0" transform="rotate(20)"/><path style="fill:none;stroke:#333;stroke-width:.5;stroke-linecap:round" id="path1266" d="M 0,-13.5 A 13.5,13.5 0 0 1 13.5,0" transform="rotate(43)"/><path style="fill:none;stroke:#333;stroke-width:.5;stroke-linecap:round" id="path1268" d="M 0,-13.5 A 13.5,13.5 0 0 0 -13.5,0" transform="rotate(-20)"/><path style="fill:none;stroke:#333;stroke-width:.5;stroke-linecap:round" id="path1270" d="M 0,-13.5 A 13.5,13.5 0 0 0 -13.5,0" transform="rotate(-43)"/></g></g><g id="use118" transform="translate(43.5,207)"><g id="g1258" transform="translate(20,20)"><path id="polyline1248" d="M 0,0 H 4" transform="rotate(-90,-5.75,-5.75)" style="stroke:#333;stroke-width:1"/><path style="fill:none;stroke:#333;stroke-width:.5;stroke-linecap:round" id="path1250" d="M 0,-13.5 A 13.5,13.5 0 0 1 13.5,0" transform="rotate(20)"/><path style="fill:none;stroke:#333;stroke-width:.5;stroke-linecap:round" id="path1252" d="M 0,-13.5 A 13.5,13.5 0 0 1 13.5,0" transform="rotate(43)"/><path style="fill:none;stroke:#333;stroke-width:.5;stroke-linecap:round" id="path1254" d="M 0,-13.5 A 13.5,13.5 0 0 0 -13.5,0" transform="rotate(-20)"/><path style="fill:none;stroke:#333;stroke-width:.5;stroke-linecap:round" id="path1256" d="M 0,-13.5 A 13.5,13.5 0 0 0 -13.5,0" transform="rotate(-43)"/></g></g><g id="use122" transform="translate(43.5,244)"><g id="g1244" transform="translate(20,20)"><path id="polyline1234" d="M 0,0 H 4" transform="rotate(-90,-5.75,-5.75)" style="stroke:#333;stroke-width:1"/><path style="fill:none;stroke:#333;stroke-width:.5;stroke-linecap:round" id="path1236" d="M 0,-13.5 A 13.5,13.5 0 0 1 13.5,0" transform="rotate(20)"/><path style="fill:none;stroke:#333;stroke-width:.5;stroke-linecap:round" id="path1238" d="M 0,-13.5 A 13.5,13.5 0 0 1 13.5,0" transform="rotate(43)"/><path style="fill:none;stroke:#333;stroke-width:.5;stroke-linecap:round" id="path1240" d="M 0,-13.5 A 13.5,13.5 0 0 0 -13.5,0" transform="rotate(-20)"/><path style="fill:none;stroke:#333;stroke-width:.5;stroke-linecap:round" id="path1242" d="M 0,-13.5 A 13.5,13.5 0 0 0 -13.5,0" transform="rotate(-43)"/></g></g><g id="use126" transform="translate(43.5,281)"><g id="g1230" transform="translate(20,20)"><path id="polyline1220" d="M 0,0 H 4" transform="rotate(-90,-5.75,-5.75)" style="stroke:#333;stroke-width:1"/><path style="fill:none;stroke:#333;stroke-width:.5;stroke-linecap:round" id="path1222" d="M 0,-13.5 A 13.5,13.5 0 0 1 13.5,0" transform="rotate(20)"/><path style="fill:none;stroke:#333;stroke-width:.5;stroke-linecap:round" id="path1224" d="M 0,-13.5 A 13.5,13.5 0 0 1 13.5,0" transform="rotate(43)"/><path style="fill:none;stroke:#333;stroke-width:.5;stroke-linecap:round" id="path1226" d="M 0,-13.5 A 13.5,13.5 0 0 0 -13.5,0" transform="rotate(-20)"/><path style="fill:none;stroke:#333;stroke-width:.5;stroke-linecap:round" id="path1228" d="M 0,-13.5 A 13.5,13.5 0 0 0 -13.5,0" transform="rotate(-43)"/></g></g><g id="use130" transform="translate(78.5,22)"><g id="g1216" transform="translate(20,20)"><path id="polyline1206" d="M 0,0 H 4" transform="rotate(-90,-5.75,-5.75)" style="stroke:#333;stroke-width:1"/><path style="fill:none;stroke:#333;stroke-width:.5;stroke-linecap:round" id="path1208" d="M 0,-13.5 A 13.5,13.5 0 0 1 13.5,0" transform="rotate(20)"/><path style="fill:none;stroke:#333;stroke-width:.5;stroke-linecap:round" id="path1210" d="M 0,-13.5 A 13.5,13.5 0 0 1 13.5,0" transform="rotate(43)"/><path style="fill:none;stroke:#333;stroke-width:.5;stroke-linecap:round" id="path1212" d="M 0,-13.5 A 13.5,13.5 0 0 0 -13.5,0" transform="rotate(-20)"/><path style="fill:none;stroke:#333;stroke-width:.5;stroke-linecap:round" id="path1214" d="M 0,-13.5 A 13.5,13.5 0 0 0 -13.5,0" transform="rotate(-43)"/></g></g><g id="use134" transform="translate(78.5,59)"><g id="g1202" transform="translate(20,20)"><path id="polyline1192" d="M 0,0 H 4" transform="rotate(-90,-5.75,-5.75)" style="stroke:#333;stroke-width:1"/><path style="fill:none;stroke:#333;stroke-width:.5;stroke-linecap:round" id="path1194" d="M 0,-13.5 A 13.5,13.5 0 0 1 13.5,0" transform="rotate(20)"/><path style="fill:none;stroke:#333;stroke-width:.5;stroke-linecap:round" id="path1196" d="M 0,-13.5 A 13.5,13.5 0 0 1 13.5,0" transform="rotate(43)"/><path style="fill:none;stroke:#333;stroke-width:.5;stroke-linecap:round" id="path1198" d="M 0,-13.5 A 13.5,13.5 0 0 0 -13.5,0" transform="rotate(-20)"/><path style="fill:none;stroke:#333;stroke-width:.5;stroke-linecap:round" id="path1200" d="M 0,-13.5 A 13.5,13.5 0 0 0 -13.5,0" transform="rotate(-43)"/></g></g><g id="use138" transform="translate(78.5,96)"><g id="g1188" transform="translate(20,20)"><path id="polyline1178" d="M 0,0 H 4" transform="rotate(-90,-5.75,-5.75)" style="stroke:#333;stroke-width:1"/><path style="fill:none;stroke:#333;stroke-width:.5;stroke-linecap:round" id="path1180" d="M 0,-13.5 A 13.5,13.5 0 0 1 13.5,0" transform="rotate(20)"/><path style="fill:none;stroke:#333;stroke-width:.5;stroke-linecap:round" id="path1182" d="M 0,-13.5 A 13.5,13.5 0 0 1 13.5,0" transform="rotate(43)"/><path style="fill:none;stroke:#333;stroke-width:.5;stroke-linecap:round" id="path1184" d="M 0,-13.5 A 13.5,13.5 0 0 0 -13.5,0" transform="rotate(-20)"/><path style="fill:none;stroke:#333;stroke-width:.5;stroke-linecap:round" id="path1186" d="M 0,-13.5 A 13.5,13.5 0 0 0 -13.5,0" transform="rotate(-43)"/></g></g><g id="use142" transform="translate(78.5,133)"><g id="g1174" transform="translate(20,20)"><path id="polyline1164" d="M 0,0 H 4" transform="rotate(-90,-5.75,-5.75)" style="stroke:#333;stroke-width:1"/><path style="fill:none;stroke:#333;stroke-width:.5;stroke-linecap:round" id="path1166" d="M 0,-13.5 A 13.5,13.5 0 0 1 13.5,0" transform="rotate(20)"/><path style="fill:none;stroke:#333;stroke-width:.5;stroke-linecap:round" id="path1168" d="M 0,-13.5 A 13.5,13.5 0 0 1 13.5,0" transform="rotate(43)"/><path style="fill:none;stroke:#333;stroke-width:.5;stroke-linecap:round" id="path1170" d="M 0,-13.5 A 13.5,13.5 0 0 0 -13.5,0" transform="rotate(-20)"/><path style="fill:none;stroke:#333;stroke-width:.5;stroke-linecap:round" id="path1172" d="M 0,-13.5 A 13.5,13.5 0 0 0 -13.5,0" transform="rotate(-43)"/></g></g><g id="use146" transform="translate(78.5,170)"><g id="g1160" transform="translate(20,20)"><path id="polyline1150" d="M 0,0 H 4" transform="rotate(-90,-5.75,-5.75)" style="stroke:#333;stroke-width:1"/><path style="fill:none;stroke:#333;stroke-width:.5;stroke-linecap:round" id="path1152" d="M 0,-13.5 A 13.5,13.5 0 0 1 13.5,0" transform="rotate(20)"/><path style="fill:none;stroke:#333;stroke-width:.5;stroke-linecap:round" id="path1154" d="M 0,-13.5 A 13.5,13.5 0 0 1 13.5,0" transform="rotate(43)"/><path style="fill:none;stroke:#333;stroke-width:.5;stroke-linecap:round" id="path1156" d="M 0,-13.5 A 13.5,13.5 0 0 0 -13.5,0" transform="rotate(-20)"/><path style="fill:none;stroke:#333;stroke-width:.5;stroke-linecap:round" id="path1158" d="M 0,-13.5 A 13.5,13.5 0 0 0 -13.5,0" transform="rotate(-43)"/></g></g><g id="use150" transform="translate(78.5,207)"><g id="g1146" transform="translate(20,20)"><path id="polyline1136" d="M 0,0 H 4" transform="rotate(-90,-5.75,-5.75)" style="stroke:#333;stroke-width:1"/><path style="fill:none;stroke:#333;stroke-width:.5;stroke-linecap:round" id="path1138" d="M 0,-13.5 A 13.5,13.5 0 0 1 13.5,0" transform="rotate(20)"/><path style="fill:none;stroke:#333;stroke-width:.5;stroke-linecap:round" id="path1140" d="M 0,-13.5 A 13.5,13.5 0 0 1 13.5,0" transform="rotate(43)"/><path style="fill:none;stroke:#333;stroke-width:.5;stroke-linecap:round" id="path1142" d="M 0,-13.5 A 13.5,13.5 0 0 0 -13.5,0" transform="rotate(-20)"/><path style="fill:none;stroke:#333;stroke-width:.5;stroke-linecap:round" id="path1144" d="M 0,-13.5 A 13.5,13.5 0 0 0 -13.5,0" transform="rotate(-43)"/></g></g><g id="use154" transform="translate(78.5,244)"><g id="g1132" transform="translate(20,20)"><path id="polyline1122" d="M 0,0 H 4" transform="rotate(-90,-5.75,-5.75)" style="stroke:#333;stroke-width:1"/><path style="fill:none;stroke:#333;stroke-width:.5;stroke-linecap:round" id="path1124" d="M 0,-13.5 A 13.5,13.5 0 0 1 13.5,0" transform="rotate(20)"/><path style="fill:none;stroke:#333;stroke-width:.5;stroke-linecap:round" id="path1126" d="M 0,-13.5 A 13.5,13.5 0 0 1 13.5,0" transform="rotate(43)"/><path style="fill:none;stroke:#333;stroke-width:.5;stroke-linecap:round" id="path1128" d="M 0,-13.5 A 13.5,13.5 0 0 0 -13.5,0" transform="rotate(-20)"/><path style="fill:none;stroke:#333;stroke-width:.5;stroke-linecap:round" id="path1130" d="M 0,-13.5 A 13.5,13.5 0 0 0 -13.5,0" transform="rotate(-43)"/></g></g><g id="use158" transform="translate(78.5,281)"><g id="g1118" transform="translate(20,20)"><path id="polyline1108" d="M 0,0 H 4" transform="rotate(-90,-5.75,-5.75)" style="stroke:#333;stroke-width:1"/><path style="fill:none;stroke:#333;stroke-width:.5;stroke-linecap:round" id="path1110" d="M 0,-13.5 A 13.5,13.5 0 0 1 13.5,0" transform="rotate(20)"/><path style="fill:none;stroke:#333;stroke-width:.5;stroke-linecap:round" id="path1112" d="M 0,-13.5 A 13.5,13.5 0 0 1 13.5,0" transform="rotate(43)"/><path style="fill:none;stroke:#333;stroke-width:.5;stroke-linecap:round" id="path1114" d="M 0,-13.5 A 13.5,13.5 0 0 0 -13.5,0" transform="rotate(-20)"/><path style="fill:none;stroke:#333;stroke-width:.5;stroke-linecap:round" id="path1116" d="M 0,-13.5 A 13.5,13.5 0 0 0 -13.5,0" transform="rotate(-43)"/></g></g><g id="use162" transform="translate(113.5,22)"><g id="g1104" transform="translate(20,20)"><path id="polyline1094" d="M 0,0 H 4" transform="rotate(-90,-5.75,-5.75)" style="stroke:#333;stroke-width:1"/><path style="fill:none;stroke:#333;stroke-width:.5;stroke-linecap:round" id="path1096" d="M 0,-13.5 A 13.5,13.5 0 0 1 13.5,0" transform="rotate(20)"/><path style="fill:none;stroke:#333;stroke-width:.5;stroke-linecap:round" id="path1098" d="M 0,-13.5 A 13.5,13.5 0 0 1 13.5,0" transform="rotate(43)"/><path style="fill:none;stroke:#333;stroke-width:.5;stroke-linecap:round" id="path1100" d="M 0,-13.5 A 13.5,13.5 0 0 0 -13.5,0" transform="rotate(-20)"/><path style="fill:none;stroke:#333;stroke-width:.5;stroke-linecap:round" id="path1102" d="M 0,-13.5 A 13.5,13.5 0 0 0 -13.5,0" transform="rotate(-43)"/></g></g><g id="use166" transform="translate(113.5,59)"><g id="g1090" transform="translate(20,20)"><path id="polyline1080" d="M 0,0 H 4" transform="rotate(-90,-5.75,-5.75)" style="stroke:#333;stroke-width:1"/><path style="fill:none;stroke:#333;stroke-width:.5;stroke-linecap:round" id="path1082" d="M 0,-13.5 A 13.5,13.5 0 0 1 13.5,0" transform="rotate(20)"/><path style="fill:none;stroke:#333;stroke-width:.5;stroke-linecap:round" id="path1084" d="M 0,-13.5 A 13.5,13.5 0 0 1 13.5,0" transform="rotate(43)"/><path style="fill:none;stroke:#333;stroke-width:.5;stroke-linecap:round" id="path1086" d="M 0,-13.5 A 13.5,13.5 0 0 0 -13.5,0" transform="rotate(-20)"/><path style="fill:none;stroke:#333;stroke-width:.5;stroke-linecap:round" id="path1088" d="M 0,-13.5 A 13.5,13.5 0 0 0 -13.5,0" transform="rotate(-43)"/></g></g><g id="use170" transform="translate(113.5,96)"><g id="g1076" transform="translate(20,20)"><path id="polyline1066" d="M 0,0 H 4" transform="rotate(-90,-5.75,-5.75)" style="stroke:#333;stroke-width:1"/><path style="fill:none;stroke:#333;stroke-width:.5;stroke-linecap:round" id="path1068" d="M 0,-13.5 A 13.5,13.5 0 0 1 13.5,0" transform="rotate(20)"/><path style="fill:none;stroke:#333;stroke-width:.5;stroke-linecap:round" id="path1070" d="M 0,-13.5 A 13.5,13.5 0 0 1 13.5,0" transform="rotate(43)"/><path style="fill:none;stroke:#333;stroke-width:.5;stroke-linecap:round" id="path1072" d="M 0,-13.5 A 13.5,13.5 0 0 0 -13.5,0" transform="rotate(-20)"/><path style="fill:none;stroke:#333;stroke-width:.5;stroke-linecap:round" id="path1074" d="M 0,-13.5 A 13.5,13.5 0 0 0 -13.5,0" transform="rotate(-43)"/></g></g><g id="use174" transform="translate(113.5,133)"><g id="g1062" transform="translate(20,20)"><path id="polyline1052" d="M 0,0 H 4" transform="rotate(-90,-5.75,-5.75)" style="stroke:#333;stroke-width:1"/><path style="fill:none;stroke:#333;stroke-width:.5;stroke-linecap:round" id="path1054" d="M 0,-13.5 A 13.5,13.5 0 0 1 13.5,0" transform="rotate(20)"/><path style="fill:none;stroke:#333;stroke-width:.5;stroke-linecap:round" id="path1056" d="M 0,-13.5 A 13.5,13.5 0 0 1 13.5,0" transform="rotate(43)"/><path style="fill:none;stroke:#333;stroke-width:.5;stroke-linecap:round" id="path1058" d="M 0,-13.5 A 13.5,13.5 0 0 0 -13.5,0" transform="rotate(-20)"/><path style="fill:none;stroke:#333;stroke-width:.5;stroke-linecap:round" id="path1060" d="M 0,-13.5 A 13.5,13.5 0 0 0 -13.5,0" transform="rotate(-43)"/></g></g><g id="use178" transform="translate(113.5,170)"><g id="g1048" transform="translate(20,20)"><path id="polyline1038" d="M 0,0 H 4" transform="rotate(-90,-5.75,-5.75)" style="stroke:#333;stroke-width:1"/><path style="fill:none;stroke:#333;stroke-width:.5;stroke-linecap:round" id="path1040" d="M 0,-13.5 A 13.5,13.5 0 0 1 13.5,0" transform="rotate(20)"/><path style="fill:none;stroke:#333;stroke-width:.5;stroke-linecap:round" id="path1042" d="M 0,-13.5 A 13.5,13.5 0 0 1 13.5,0" transform="rotate(43)"/><path style="fill:none;stroke:#333;stroke-width:.5;stroke-linecap:round" id="path1044" d="M 0,-13.5 A 13.5,13.5 0 0 0 -13.5,0" transform="rotate(-20)"/><path style="fill:none;stroke:#333;stroke-width:.5;stroke-linecap:round" id="path1046" d="M 0,-13.5 A 13.5,13.5 0 0 0 -13.5,0" transform="rotate(-43)"/></g></g><g id="use182" transform="translate(113.5,207)"><g id="g1034" transform="translate(20,20)"><path id="polyline1024" d="M 0,0 H 4" transform="rotate(-90,-5.75,-5.75)" style="stroke:#333;stroke-width:1"/><path style="fill:none;stroke:#333;stroke-width:.5;stroke-linecap:round" id="path1026" d="M 0,-13.5 A 13.5,13.5 0 0 1 13.5,0" transform="rotate(20)"/><path style="fill:none;stroke:#333;stroke-width:.5;stroke-linecap:round" id="path1028" d="M 0,-13.5 A 13.5,13.5 0 0 1 13.5,0" transform="rotate(43)"/><path style="fill:none;stroke:#333;stroke-width:.5;stroke-linecap:round" id="path1030" d="M 0,-13.5 A 13.5,13.5 0 0 0 -13.5,0" transform="rotate(-20)"/><path style="fill:none;stroke:#333;stroke-width:.5;stroke-linecap:round" id="path1032" d="M 0,-13.5 A 13.5,13.5 0 0 0 -13.5,0" transform="rotate(-43)"/></g></g><g id="use186" transform="translate(113.5,244)"><g id="g1020" transform="translate(20,20)"><path id="polyline1010" d="M 0,0 H 4" transform="rotate(-90,-5.75,-5.75)" style="stroke:#333;stroke-width:1"/><path style="fill:none;stroke:#333;stroke-width:.5;stroke-linecap:round" id="path1012" d="M 0,-13.5 A 13.5,13.5 0 0 1 13.5,0" transform="rotate(20)"/><path style="fill:none;stroke:#333;stroke-width:.5;stroke-linecap:round" id="path1014" d="M 0,-13.5 A 13.5,13.5 0 0 1 13.5,0" transform="rotate(43)"/><path style="fill:none;stroke:#333;stroke-width:.5;stroke-linecap:round" id="path1016" d="M 0,-13.5 A 13.5,13.5 0 0 0 -13.5,0" transform="rotate(-20)"/><path style="fill:none;stroke:#333;stroke-width:.5;stroke-linecap:round" id="path1018" d="M 0,-13.5 A 13.5,13.5 0 0 0 -13.5,0" transform="rotate(-43)"/></g></g><g id="use190" transform="translate(113.5,281)"><g id="g1006" transform="translate(20,20)"><path id="polyline996" d="M 0,0 H 4" transform="rotate(-90,-5.75,-5.75)" style="stroke:#333;stroke-width:1"/><path style="fill:none;stroke:#333;stroke-width:.5;stroke-linecap:round" id="path998" d="M 0,-13.5 A 13.5,13.5 0 0 1 13.5,0" transform="rotate(20)"/><path style="fill:none;stroke:#333;stroke-width:.5;stroke-linecap:round" id="path1000" d="M 0,-13.5 A 13.5,13.5 0 0 1 13.5,0" transform="rotate(43)"/><path style="fill:none;stroke:#333;stroke-width:.5;stroke-linecap:round" id="path1002" d="M 0,-13.5 A 13.5,13.5 0 0 0 -13.5,0" transform="rotate(-20)"/><path style="fill:none;stroke:#333;stroke-width:.5;stroke-linecap:round" id="path1004" d="M 0,-13.5 A 13.5,13.5 0 0 0 -13.5,0" transform="rotate(-43)"/></g></g><g id="use194" transform="translate(148.5,22)"><g id="g992" transform="translate(20,20)"><path id="polyline982" d="M 0,0 H 4" transform="rotate(-90,-5.75,-5.75)" style="stroke:#333;stroke-width:1"/><path style="fill:none;stroke:#333;stroke-width:.5;stroke-linecap:round" id="path984" d="M 0,-13.5 A 13.5,13.5 0 0 1 13.5,0" transform="rotate(20)"/><path style="fill:none;stroke:#333;stroke-width:.5;stroke-linecap:round" id="path986" d="M 0,-13.5 A 13.5,13.5 0 0 1 13.5,0" transform="rotate(43)"/><path style="fill:none;stroke:#333;stroke-width:.5;stroke-linecap:round" id="path988" d="M 0,-13.5 A 13.5,13.5 0 0 0 -13.5,0" transform="rotate(-20)"/><path style="fill:none;stroke:#333;stroke-width:.5;stroke-linecap:round" id="path990" d="M 0,-13.5 A 13.5,13.5 0 0 0 -13.5,0" transform="rotate(-43)"/></g></g><g id="use198" transform="translate(148.5,59)"><g id="g978" transform="translate(20,20)"><path id="polyline968" d="M 0,0 H 4" transform="rotate(-90,-5.75,-5.75)" style="stroke:#333;stroke-width:1"/><path style="fill:none;stroke:#333;stroke-width:.5;stroke-linecap:round" id="path970" d="M 0,-13.5 A 13.5,13.5 0 0 1 13.5,0" transform="rotate(20)"/><path style="fill:none;stroke:#333;stroke-width:.5;stroke-linecap:round" id="path972" d="M 0,-13.5 A 13.5,13.5 0 0 1 13.5,0" transform="rotate(43)"/><path style="fill:none;stroke:#333;stroke-width:.5;stroke-linecap:round" id="path974" d="M 0,-13.5 A 13.5,13.5 0 0 0 -13.5,0" transform="rotate(-20)"/><path style="fill:none;stroke:#333;stroke-width:.5;stroke-linecap:round" id="path976" d="M 0,-13.5 A 13.5,13.5 0 0 0 -13.5,0" transform="rotate(-43)"/></g></g><g id="use202" transform="translate(148.5,96)"><g id="g964" transform="translate(20,20)"><path id="polyline954" d="M 0,0 H 4" transform="rotate(-90,-5.75,-5.75)" style="stroke:#333;stroke-width:1"/><path style="fill:none;stroke:#333;stroke-width:.5;stroke-linecap:round" id="path956" d="M 0,-13.5 A 13.5,13.5 0 0 1 13.5,0" transform="rotate(20)"/><path style="fill:none;stroke:#333;stroke-width:.5;stroke-linecap:round" id="path958" d="M 0,-13.5 A 13.5,13.5 0 0 1 13.5,0" transform="rotate(43)"/><path style="fill:none;stroke:#333;stroke-width:.5;stroke-linecap:round" id="path960" d="M 0,-13.5 A 13.5,13.5 0 0 0 -13.5,0" transform="rotate(-20)"/><path style="fill:none;stroke:#333;stroke-width:.5;stroke-linecap:round" id="path962" d="M 0,-13.5 A 13.5,13.5 0 0 0 -13.5,0" transform="rotate(-43)"/></g></g><g id="use206" transform="translate(148.5,133)"><g id="g950" transform="translate(20,20)"><path id="polyline940" d="M 0,0 H 4" transform="rotate(-90,-5.75,-5.75)" style="stroke:#333;stroke-width:1"/><path style="fill:none;stroke:#333;stroke-width:.5;stroke-linecap:round" id="path942" d="M 0,-13.5 A 13.5,13.5 0 0 1 13.5,0" transform="rotate(20)"/><path style="fill:none;stroke:#333;stroke-width:.5;stroke-linecap:round" id="path944" d="M 0,-13.5 A 13.5,13.5 0 0 1 13.5,0" transform="rotate(43)"/><path style="fill:none;stroke:#333;stroke-width:.5;stroke-linecap:round" id="path946" d="M 0,-13.5 A 13.5,13.5 0 0 0 -13.5,0" transform="rotate(-20)"/><path style="fill:none;stroke:#333;stroke-width:.5;stroke-linecap:round" id="path948" d="M 0,-13.5 A 13.5,13.5 0 0 0 -13.5,0" transform="rotate(-43)"/></g></g><g id="use210" transform="translate(148.5,170)"><g id="g936" transform="translate(20,20)"><path id="polyline926" d="M 0,0 H 4" transform="rotate(-90,-5.75,-5.75)" style="stroke:#333;stroke-width:1"/><path style="fill:none;stroke:#333;stroke-width:.5;stroke-linecap:round" id="path928" d="M 0,-13.5 A 13.5,13.5 0 0 1 13.5,0" transform="rotate(20)"/><path style="fill:none;stroke:#333;stroke-width:.5;stroke-linecap:round" id="path930" d="M 0,-13.5 A 13.5,13.5 0 0 1 13.5,0" transform="rotate(43)"/><path style="fill:none;stroke:#333;stroke-width:.5;stroke-linecap:round" id="path932" d="M 0,-13.5 A 13.5,13.5 0 0 0 -13.5,0" transform="rotate(-20)"/><path style="fill:none;stroke:#333;stroke-width:.5;stroke-linecap:round" id="path934" d="M 0,-13.5 A 13.5,13.5 0 0 0 -13.5,0" transform="rotate(-43)"/></g></g><g id="use214" transform="translate(148.5,207)"><g id="g922" transform="translate(20,20)"><path id="polyline912" d="M 0,0 H 4" transform="rotate(-90,-5.75,-5.75)" style="stroke:#333;stroke-width:1"/><path style="fill:none;stroke:#333;stroke-width:.5;stroke-linecap:round" id="path914" d="M 0,-13.5 A 13.5,13.5 0 0 1 13.5,0" transform="rotate(20)"/><path style="fill:none;stroke:#333;stroke-width:.5;stroke-linecap:round" id="path916" d="M 0,-13.5 A 13.5,13.5 0 0 1 13.5,0" transform="rotate(43)"/><path style="fill:none;stroke:#333;stroke-width:.5;stroke-linecap:round" id="path918" d="M 0,-13.5 A 13.5,13.5 0 0 0 -13.5,0" transform="rotate(-20)"/><path style="fill:none;stroke:#333;stroke-width:.5;stroke-linecap:round" id="path920" d="M 0,-13.5 A 13.5,13.5 0 0 0 -13.5,0" transform="rotate(-43)"/></g></g><g id="use218" transform="translate(148.5,244)"><g id="g908" transform="translate(20,20)"><path id="polyline898" d="M 0,0 H 4" transform="rotate(-90,-5.75,-5.75)" style="stroke:#333;stroke-width:1"/><path style="fill:none;stroke:#333;stroke-width:.5;stroke-linecap:round" id="path900" d="M 0,-13.5 A 13.5,13.5 0 0 1 13.5,0" transform="rotate(20)"/><path style="fill:none;stroke:#333;stroke-width:.5;stroke-linecap:round" id="path902" d="M 0,-13.5 A 13.5,13.5 0 0 1 13.5,0" transform="rotate(43)"/><path style="fill:none;stroke:#333;stroke-width:.5;stroke-linecap:round" id="path904" d="M 0,-13.5 A 13.5,13.5 0 0 0 -13.5,0" transform="rotate(-20)"/><path style="fill:none;stroke:#333;stroke-width:.5;stroke-linecap:round" id="path906" d="M 0,-13.5 A 13.5,13.5 0 0 0 -13.5,0" transform="rotate(-43)"/></g></g><g id="use222" transform="translate(148.5,281)"><g id="g894" transform="translate(20,20)"><path id="polyline884" d="M 0,0 H 4" transform="rotate(-90,-5.75,-5.75)" style="stroke:#333;stroke-width:1"/><path style="fill:none;stroke:#333;stroke-width:.5;stroke-linecap:round" id="path886" d="M 0,-13.5 A 13.5,13.5 0 0 1 13.5,0" transform="rotate(20)"/><path style="fill:none;stroke:#333;stroke-width:.5;stroke-linecap:round" id="path888" d="M 0,-13.5 A 13.5,13.5 0 0 1 13.5,0" transform="rotate(43)"/><path style="fill:none;stroke:#333;stroke-width:.5;stroke-linecap:round" id="path890" d="M 0,-13.5 A 13.5,13.5 0 0 0 -13.5,0" transform="rotate(-20)"/><path style="fill:none;stroke:#333;stroke-width:.5;stroke-linecap:round" id="path892" d="M 0,-13.5 A 13.5,13.5 0 0 0 -13.5,0" transform="rotate(-43)"/></g></g><g id="use226" transform="translate(183.5,22)"><g id="g880" transform="translate(20,20)"><path id="polyline870" d="M 0,0 H 4" transform="rotate(-90,-5.75,-5.75)" style="stroke:#333;stroke-width:1"/><path style="fill:none;stroke:#333;stroke-width:.5;stroke-linecap:round" id="path872" d="M 0,-13.5 A 13.5,13.5 0 0 1 13.5,0" transform="rotate(20)"/><path style="fill:none;stroke:#333;stroke-width:.5;stroke-linecap:round" id="path874" d="M 0,-13.5 A 13.5,13.5 0 0 1 13.5,0" transform="rotate(43)"/><path style="fill:none;stroke:#333;stroke-width:.5;stroke-linecap:round" id="path876" d="M 0,-13.5 A 13.5,13.5 0 0 0 -13.5,0" transform="rotate(-20)"/><path style="fill:none;stroke:#333;stroke-width:.5;stroke-linecap:round" id="path878" d="M 0,-13.5 A 13.5,13.5 0 0 0 -13.5,0" transform="rotate(-43)"/></g></g><g id="use230" transform="translate(183.5,59)"><g id="g866" transform="translate(20,20)"><path id="polyline856" d="M 0,0 H 4" transform="rotate(-90,-5.75,-5.75)" style="stroke:#333;stroke-width:1"/><path style="fill:none;stroke:#333;stroke-width:.5;stroke-linecap:round" id="path858" d="M 0,-13.5 A 13.5,13.5 0 0 1 13.5,0" transform="rotate(20)"/><path style="fill:none;stroke:#333;stroke-width:.5;stroke-linecap:round" id="path860" d="M 0,-13.5 A 13.5,13.5 0 0 1 13.5,0" transform="rotate(43)"/><path style="fill:none;stroke:#333;stroke-width:.5;stroke-linecap:round" id="path862" d="M 0,-13.5 A 13.5,13.5 0 0 0 -13.5,0" transform="rotate(-20)"/><path style="fill:none;stroke:#333;stroke-width:.5;stroke-linecap:round" id="path864" d="M 0,-13.5 A 13.5,13.5 0 0 0 -13.5,0" transform="rotate(-43)"/></g></g><g id="use234" transform="translate(183.5,96)"><g id="g852" transform="translate(20,20)"><path id="polyline842" d="M 0,0 H 4" transform="rotate(-90,-5.75,-5.75)" style="stroke:#333;stroke-width:1"/><path style="fill:none;stroke:#333;stroke-width:.5;stroke-linecap:round" id="path844" d="M 0,-13.5 A 13.5,13.5 0 0 1 13.5,0" transform="rotate(20)"/><path style="fill:none;stroke:#333;stroke-width:.5;stroke-linecap:round" id="path846" d="M 0,-13.5 A 13.5,13.5 0 0 1 13.5,0" transform="rotate(43)"/><path style="fill:none;stroke:#333;stroke-width:.5;stroke-linecap:round" id="path848" d="M 0,-13.5 A 13.5,13.5 0 0 0 -13.5,0" transform="rotate(-20)"/><path style="fill:none;stroke:#333;stroke-width:.5;stroke-linecap:round" id="path850" d="M 0,-13.5 A 13.5,13.5 0 0 0 -13.5,0" transform="rotate(-43)"/></g></g><g id="use238" transform="translate(183.5,133)"><g id="g838" transform="translate(20,20)"><path id="polyline828" d="M 0,0 H 4" transform="rotate(-90,-5.75,-5.75)" style="stroke:#333;stroke-width:1"/><path style="fill:none;stroke:#333;stroke-width:.5;stroke-linecap:round" id="path830" d="M 0,-13.5 A 13.5,13.5 0 0 1 13.5,0" transform="rotate(20)"/><path style="fill:none;stroke:#333;stroke-width:.5;stroke-linecap:round" id="path832" d="M 0,-13.5 A 13.5,13.5 0 0 1 13.5,0" transform="rotate(43)"/><path style="fill:none;stroke:#333;stroke-width:.5;stroke-linecap:round" id="path834" d="M 0,-13.5 A 13.5,13.5 0 0 0 -13.5,0" transform="rotate(-20)"/><path style="fill:none;stroke:#333;stroke-width:.5;stroke-linecap:round" id="path836" d="M 0,-13.5 A 13.5,13.5 0 0 0 -13.5,0" transform="rotate(-43)"/></g></g><g id="use242" transform="translate(183.5,170)"><g id="g824" transform="translate(20,20)"><path id="polyline814" d="M 0,0 H 4" transform="rotate(-90,-5.75,-5.75)" style="stroke:#333;stroke-width:1"/><path style="fill:none;stroke:#333;stroke-width:.5;stroke-linecap:round" id="path816" d="M 0,-13.5 A 13.5,13.5 0 0 1 13.5,0" transform="rotate(20)"/><path style="fill:none;stroke:#333;stroke-width:.5;stroke-linecap:round" id="path818" d="M 0,-13.5 A 13.5,13.5 0 0 1 13.5,0" transform="rotate(43)"/><path style="fill:none;stroke:#333;stroke-width:.5;stroke-linecap:round" id="path820" d="M 0,-13.5 A 13.5,13.5 0 0 0 -13.5,0" transform="rotate(-20)"/><path style="fill:none;stroke:#333;stroke-width:.5;stroke-linecap:round" id="path822" d="M 0,-13.5 A 13.5,13.5 0 0 0 -13.5,0" transform="rotate(-43)"/></g></g><g id="use246" transform="translate(183.5,207)"><g id="g810" transform="translate(20,20)"><path id="polyline800" d="M 0,0 H 4" transform="rotate(-90,-5.75,-5.75)" style="stroke:#333;stroke-width:1"/><path style="fill:none;stroke:#333;stroke-width:.5;stroke-linecap:round" id="path802" d="M 0,-13.5 A 13.5,13.5 0 0 1 13.5,0" transform="rotate(20)"/><path style="fill:none;stroke:#333;stroke-width:.5;stroke-linecap:round" id="path804" d="M 0,-13.5 A 13.5,13.5 0 0 1 13.5,0" transform="rotate(43)"/><path style="fill:none;stroke:#333;stroke-width:.5;stroke-linecap:round" id="path806" d="M 0,-13.5 A 13.5,13.5 0 0 0 -13.5,0" transform="rotate(-20)"/><path style="fill:none;stroke:#333;stroke-width:.5;stroke-linecap:round" id="path808" d="M 0,-13.5 A 13.5,13.5 0 0 0 -13.5,0" transform="rotate(-43)"/></g></g><g id="use250" transform="translate(183.5,244)"><g id="g796" transform="translate(20,20)"><path id="polyline786" d="M 0,0 H 4" transform="rotate(-90,-5.75,-5.75)" style="stroke:#333;stroke-width:1"/><path style="fill:none;stroke:#333;stroke-width:.5;stroke-linecap:round" id="path788" d="M 0,-13.5 A 13.5,13.5 0 0 1 13.5,0" transform="rotate(20)"/><path style="fill:none;stroke:#333;stroke-width:.5;stroke-linecap:round" id="path790" d="M 0,-13.5 A 13.5,13.5 0 0 1 13.5,0" transform="rotate(43)"/><path style="fill:none;stroke:#333;stroke-width:.5;stroke-linecap:round" id="path792" d="M 0,-13.5 A 13.5,13.5 0 0 0 -13.5,0" transform="rotate(-20)"/><path style="fill:none;stroke:#333;stroke-width:.5;stroke-linecap:round" id="path794" d="M 0,-13.5 A 13.5,13.5 0 0 0 -13.5,0" transform="rotate(-43)"/></g></g><g id="use254" transform="translate(183.5,281)"><g id="g782" transform="translate(20,20)"><path id="polyline772" d="M 0,0 H 4" transform="rotate(-90,-5.75,-5.75)" style="stroke:#333;stroke-width:1"/><path style="fill:none;stroke:#333;stroke-width:.5;stroke-linecap:round" id="path774" d="M 0,-13.5 A 13.5,13.5 0 0 1 13.5,0" transform="rotate(20)"/><path style="fill:none;stroke:#333;stroke-width:.5;stroke-linecap:round" id="path776" d="M 0,-13.5 A 13.5,13.5 0 0 1 13.5,0" transform="rotate(43)"/><path style="fill:none;stroke:#333;stroke-width:.5;stroke-linecap:round" id="path778" d="M 0,-13.5 A 13.5,13.5 0 0 0 -13.5,0" transform="rotate(-20)"/><path style="fill:none;stroke:#333;stroke-width:.5;stroke-linecap:round" id="path780" d="M 0,-13.5 A 13.5,13.5 0 0 0 -13.5,0" transform="rotate(-43)"/></g></g><g id="use258" transform="translate(218.5,22)"><g id="g768" transform="translate(20,20)"><path id="polyline758" d="M 0,0 H 4" transform="rotate(-90,-5.75,-5.75)" style="stroke:#333;stroke-width:1"/><path style="fill:none;stroke:#333;stroke-width:.5;stroke-linecap:round" id="path760" d="M 0,-13.5 A 13.5,13.5 0 0 1 13.5,0" transform="rotate(20)"/><path style="fill:none;stroke:#333;stroke-width:.5;stroke-linecap:round" id="path762" d="M 0,-13.5 A 13.5,13.5 0 0 1 13.5,0" transform="rotate(43)"/><path style="fill:none;stroke:#333;stroke-width:.5;stroke-linecap:round" id="path764" d="M 0,-13.5 A 13.5,13.5 0 0 0 -13.5,0" transform="rotate(-20)"/><path style="fill:none;stroke:#333;stroke-width:.5;stroke-linecap:round" id="path766" d="M 0,-13.5 A 13.5,13.5 0 0 0 -13.5,0" transform="rotate(-43)"/></g></g><g id="use262" transform="translate(218.5,59)"><g id="g754" transform="translate(20,20)"><path id="polyline744" d="M 0,0 H 4" transform="rotate(-90,-5.75,-5.75)" style="stroke:#333;stroke-width:1"/><path style="fill:none;stroke:#333;stroke-width:.5;stroke-linecap:round" id="path746" d="M 0,-13.5 A 13.5,13.5 0 0 1 13.5,0" transform="rotate(20)"/><path style="fill:none;stroke:#333;stroke-width:.5;stroke-linecap:round" id="path748" d="M 0,-13.5 A 13.5,13.5 0 0 1 13.5,0" transform="rotate(43)"/><path style="fill:none;stroke:#333;stroke-width:.5;stroke-linecap:round" id="path750" d="M 0,-13.5 A 13.5,13.5 0 0 0 -13.5,0" transform="rotate(-20)"/><path style="fill:none;stroke:#333;stroke-width:.5;stroke-linecap:round" id="path752" d="M 0,-13.5 A 13.5,13.5 0 0 0 -13.5,0" transform="rotate(-43)"/></g></g><g id="use266" transform="translate(218.5,96)"><g id="g740" transform="translate(20,20)"><path id="polyline730" d="M 0,0 H 4" transform="rotate(-90,-5.75,-5.75)" style="stroke:#333;stroke-width:1"/><path style="fill:none;stroke:#333;stroke-width:.5;stroke-linecap:round" id="path732" d="M 0,-13.5 A 13.5,13.5 0 0 1 13.5,0" transform="rotate(20)"/><path style="fill:none;stroke:#333;stroke-width:.5;stroke-linecap:round" id="path734" d="M 0,-13.5 A 13.5,13.5 0 0 1 13.5,0" transform="rotate(43)"/><path style="fill:none;stroke:#333;stroke-width:.5;stroke-linecap:round" id="path736" d="M 0,-13.5 A 13.5,13.5 0 0 0 -13.5,0" transform="rotate(-20)"/><path style="fill:none;stroke:#333;stroke-width:.5;stroke-linecap:round" id="path738" d="M 0,-13.5 A 13.5,13.5 0 0 0 -13.5,0" transform="rotate(-43)"/></g></g><g id="use270" transform="translate(218.5,133)"><g id="g726" transform="translate(20,20)"><path id="polyline716" d="M 0,0 H 4" transform="rotate(-90,-5.75,-5.75)" style="stroke:#333;stroke-width:1"/><path style="fill:none;stroke:#333;stroke-width:.5;stroke-linecap:round" id="path718" d="M 0,-13.5 A 13.5,13.5 0 0 1 13.5,0" transform="rotate(20)"/><path style="fill:none;stroke:#333;stroke-width:.5;stroke-linecap:round" id="path720" d="M 0,-13.5 A 13.5,13.5 0 0 1 13.5,0" transform="rotate(43)"/><path style="fill:none;stroke:#333;stroke-width:.5;stroke-linecap:round" id="path722" d="M 0,-13.5 A 13.5,13.5 0 0 0 -13.5,0" transform="rotate(-20)"/><path style="fill:none;stroke:#333;stroke-width:.5;stroke-linecap:round" id="path724" d="M 0,-13.5 A 13.5,13.5 0 0 0 -13.5,0" transform="rotate(-43)"/></g></g><g id="use274" transform="translate(218.5,170)"><g id="g712" transform="translate(20,20)"><path id="polyline702" d="M 0,0 H 4" transform="rotate(-90,-5.75,-5.75)" style="stroke:#333;stroke-width:1"/><path style="fill:none;stroke:#333;stroke-width:.5;stroke-linecap:round" id="path704" d="M 0,-13.5 A 13.5,13.5 0 0 1 13.5,0" transform="rotate(20)"/><path style="fill:none;stroke:#333;stroke-width:.5;stroke-linecap:round" id="path706" d="M 0,-13.5 A 13.5,13.5 0 0 1 13.5,0" transform="rotate(43)"/><path style="fill:none;stroke:#333;stroke-width:.5;stroke-linecap:round" id="path708" d="M 0,-13.5 A 13.5,13.5 0 0 0 -13.5,0" transform="rotate(-20)"/><path style="fill:none;stroke:#333;stroke-width:.5;stroke-linecap:round" id="path710" d="M 0,-13.5 A 13.5,13.5 0 0 0 -13.5,0" transform="rotate(-43)"/></g></g><g id="use278" transform="translate(218.5,207)"><g id="g698" transform="translate(20,20)"><path id="polyline688" d="M 0,0 H 4" transform="rotate(-90,-5.75,-5.75)" style="stroke:#333;stroke-width:1"/><path style="fill:none;stroke:#333;stroke-width:.5;stroke-linecap:round" id="path690" d="M 0,-13.5 A 13.5,13.5 0 0 1 13.5,0" transform="rotate(20)"/><path style="fill:none;stroke:#333;stroke-width:.5;stroke-linecap:round" id="path692" d="M 0,-13.5 A 13.5,13.5 0 0 1 13.5,0" transform="rotate(43)"/><path style="fill:none;stroke:#333;stroke-width:.5;stroke-linecap:round" id="path694" d="M 0,-13.5 A 13.5,13.5 0 0 0 -13.5,0" transform="rotate(-20)"/><path style="fill:none;stroke:#333;stroke-width:.5;stroke-linecap:round" id="path696" d="M 0,-13.5 A 13.5,13.5 0 0 0 -13.5,0" transform="rotate(-43)"/></g></g><g id="use282" transform="translate(218.5,244)"><g id="g684" transform="translate(20,20)"><path id="polyline674" d="M 0,0 H 4" transform="rotate(-90,-5.75,-5.75)" style="stroke:#333;stroke-width:1"/><path style="fill:none;stroke:#333;stroke-width:.5;stroke-linecap:round" id="path676" d="M 0,-13.5 A 13.5,13.5 0 0 1 13.5,0" transform="rotate(20)"/><path style="fill:none;stroke:#333;stroke-width:.5;stroke-linecap:round" id="path678" d="M 0,-13.5 A 13.5,13.5 0 0 1 13.5,0" transform="rotate(43)"/><path style="fill:none;stroke:#333;stroke-width:.5;stroke-linecap:round" id="path680" d="M 0,-13.5 A 13.5,13.5 0 0 0 -13.5,0" transform="rotate(-20)"/><path style="fill:none;stroke:#333;stroke-width:.5;stroke-linecap:round" id="path682" d="M 0,-13.5 A 13.5,13.5 0 0 0 -13.5,0" transform="rotate(-43)"/></g></g><g id="use286" transform="translate(218.5,281)"><g id="g670" transform="translate(20,20)"><path id="polyline660" d="M 0,0 H 4" transform="rotate(-90,-5.75,-5.75)" style="stroke:#333;stroke-width:1"/><path style="fill:none;stroke:#333;stroke-width:.5;stroke-linecap:round" id="path662" d="M 0,-13.5 A 13.5,13.5 0 0 1 13.5,0" transform="rotate(20)"/><path style="fill:none;stroke:#333;stroke-width:.5;stroke-linecap:round" id="path664" d="M 0,-13.5 A 13.5,13.5 0 0 1 13.5,0" transform="rotate(43)"/><path style="fill:none;stroke:#333;stroke-width:.5;stroke-linecap:round" id="path666" d="M 0,-13.5 A 13.5,13.5 0 0 0 -13.5,0" transform="rotate(-20)"/><path style="fill:none;stroke:#333;stroke-width:.5;stroke-linecap:round" id="path668" d="M 0,-13.5 A 13.5,13.5 0 0 0 -13.5,0" transform="rotate(-43)"/></g></g><g id="use290" transform="translate(253.5,22)"><g id="g656" transform="translate(20,20)"><path id="polyline646" d="M 0,0 H 4" transform="rotate(-90,-5.75,-5.75)" style="stroke:#333;stroke-width:1"/><path style="fill:none;stroke:#333;stroke-width:.5;stroke-linecap:round" id="path648" d="M 0,-13.5 A 13.5,13.5 0 0 1 13.5,0" transform="rotate(20)"/><path style="fill:none;stroke:#333;stroke-width:.5;stroke-linecap:round" id="path650" d="M 0,-13.5 A 13.5,13.5 0 0 1 13.5,0" transform="rotate(43)"/><path style="fill:none;stroke:#333;stroke-width:.5;stroke-linecap:round" id="path652" d="M 0,-13.5 A 13.5,13.5 0 0 0 -13.5,0" transform="rotate(-20)"/><path style="fill:none;stroke:#333;stroke-width:.5;stroke-linecap:round" id="path654" d="M 0,-13.5 A 13.5,13.5 0 0 0 -13.5,0" transform="rotate(-43)"/></g></g><g id="use294" transform="translate(253.5,59)"><g id="g642" transform="translate(20,20)"><path id="polyline632" d="M 0,0 H 4" transform="rotate(-90,-5.75,-5.75)" style="stroke:#333;stroke-width:1"/><path style="fill:none;stroke:#333;stroke-width:.5;stroke-linecap:round" id="path634" d="M 0,-13.5 A 13.5,13.5 0 0 1 13.5,0" transform="rotate(20)"/><path style="fill:none;stroke:#333;stroke-width:.5;stroke-linecap:round" id="path636" d="M 0,-13.5 A 13.5,13.5 0 0 1 13.5,0" transform="rotate(43)"/><path style="fill:none;stroke:#333;stroke-width:.5;stroke-linecap:round" id="path638" d="M 0,-13.5 A 13.5,13.5 0 0 0 -13.5,0" transform="rotate(-20)"/><path style="fill:none;stroke:#333;stroke-width:.5;stroke-linecap:round" id="path640" d="M 0,-13.5 A 13.5,13.5 0 0 0 -13.5,0" transform="rotate(-43)"/></g></g><g id="use298" transform="translate(253.5,96)"><g id="g628" transform="translate(20,20)"><path id="polyline618" d="M 0,0 H 4" transform="rotate(-90,-5.75,-5.75)" style="stroke:#333;stroke-width:1"/><path style="fill:none;stroke:#333;stroke-width:.5;stroke-linecap:round" id="path620" d="M 0,-13.5 A 13.5,13.5 0 0 1 13.5,0" transform="rotate(20)"/><path style="fill:none;stroke:#333;stroke-width:.5;stroke-linecap:round" id="path622" d="M 0,-13.5 A 13.5,13.5 0 0 1 13.5,0" transform="rotate(43)"/><path style="fill:none;stroke:#333;stroke-width:.5;stroke-linecap:round" id="path624" d="M 0,-13.5 A 13.5,13.5 0 0 0 -13.5,0" transform="rotate(-20)"/><path style="fill:none;stroke:#333;stroke-width:.5;stroke-linecap:round" id="path626" d="M 0,-13.5 A 13.5,13.5 0 0 0 -13.5,0" transform="rotate(-43)"/></g></g><g id="use302" transform="translate(253.5,133)"><g id="g614" transform="translate(20,20)"><path id="polyline604" d="M 0,0 H 4" transform="rotate(-90,-5.75,-5.75)" style="stroke:#333;stroke-width:1"/><path style="fill:none;stroke:#333;stroke-width:.5;stroke-linecap:round" id="path606" d="M 0,-13.5 A 13.5,13.5 0 0 1 13.5,0" transform="rotate(20)"/><path style="fill:none;stroke:#333;stroke-width:.5;stroke-linecap:round" id="path608" d="M 0,-13.5 A 13.5,13.5 0 0 1 13.5,0" transform="rotate(43)"/><path style="fill:none;stroke:#333;stroke-width:.5;stroke-linecap:round" id="path610" d="M 0,-13.5 A 13.5,13.5 0 0 0 -13.5,0" transform="rotate(-20)"/><path style="fill:none;stroke:#333;stroke-width:.5;stroke-linecap:round" id="path612" d="M 0,-13.5 A 13.5,13.5 0 0 0 -13.5,0" transform="rotate(-43)"/></g></g><g id="use306" transform="translate(253.5,170)"><g id="g600" transform="translate(20,20)"><path id="polyline590" d="M 0,0 H 4" transform="rotate(-90,-5.75,-5.75)" style="stroke:#333;stroke-width:1"/><path style="fill:none;stroke:#333;stroke-width:.5;stroke-linecap:round" id="path592" d="M 0,-13.5 A 13.5,13.5 0 0 1 13.5,0" transform="rotate(20)"/><path style="fill:none;stroke:#333;stroke-width:.5;stroke-linecap:round" id="path594" d="M 0,-13.5 A 13.5,13.5 0 0 1 13.5,0" transform="rotate(43)"/><path style="fill:none;stroke:#333;stroke-width:.5;stroke-linecap:round" id="path596" d="M 0,-13.5 A 13.5,13.5 0 0 0 -13.5,0" transform="rotate(-20)"/><path style="fill:none;stroke:#333;stroke-width:.5;stroke-linecap:round" id="path598" d="M 0,-13.5 A 13.5,13.5 0 0 0 -13.5,0" transform="rotate(-43)"/></g></g><g id="use310" transform="translate(253.5,207)"><g id="g586" transform="translate(20,20)"><path id="polyline576" d="M 0,0 H 4" transform="rotate(-90,-5.75,-5.75)" style="stroke:#333;stroke-width:1"/><path style="fill:none;stroke:#333;stroke-width:.5;stroke-linecap:round" id="path578" d="M 0,-13.5 A 13.5,13.5 0 0 1 13.5,0" transform="rotate(20)"/><path style="fill:none;stroke:#333;stroke-width:.5;stroke-linecap:round" id="path580" d="M 0,-13.5 A 13.5,13.5 0 0 1 13.5,0" transform="rotate(43)"/><path style="fill:none;stroke:#333;stroke-width:.5;stroke-linecap:round" id="path582" d="M 0,-13.5 A 13.5,13.5 0 0 0 -13.5,0" transform="rotate(-20)"/><path style="fill:none;stroke:#333;stroke-width:.5;stroke-linecap:round" id="path584" d="M 0,-13.5 A 13.5,13.5 0 0 0 -13.5,0" transform="rotate(-43)"/></g></g><g id="use314" transform="translate(253.5,244)"><g id="g572" transform="translate(20,20)"><path id="polyline562" d="M 0,0 H 4" transform="rotate(-90,-5.75,-5.75)" style="stroke:#333;stroke-width:1"/><path style="fill:none;stroke:#333;stroke-width:.5;stroke-linecap:round" id="path564" d="M 0,-13.5 A 13.5,13.5 0 0 1 13.5,0" transform="rotate(20)"/><path style="fill:none;stroke:#333;stroke-width:.5;stroke-linecap:round" id="path566" d="M 0,-13.5 A 13.5,13.5 0 0 1 13.5,0" transform="rotate(43)"/><path style="fill:none;stroke:#333;stroke-width:.5;stroke-linecap:round" id="path568" d="M 0,-13.5 A 13.5,13.5 0 0 0 -13.5,0" transform="rotate(-20)"/><path style="fill:none;stroke:#333;stroke-width:.5;stroke-linecap:round" id="path570" d="M 0,-13.5 A 13.5,13.5 0 0 0 -13.5,0" transform="rotate(-43)"/></g></g><g id="use318" transform="translate(253.5,281)"><g id="g558" transform="translate(20,20)"><path id="polyline548" d="M 0,0 H 4" transform="rotate(-90,-5.75,-5.75)" style="stroke:#333;stroke-width:1"/><path style="fill:none;stroke:#333;stroke-width:.5;stroke-linecap:round" id="path550" d="M 0,-13.5 A 13.5,13.5 0 0 1 13.5,0" transform="rotate(20)"/><path style="fill:none;stroke:#333;stroke-width:.5;stroke-linecap:round" id="path552" d="M 0,-13.5 A 13.5,13.5 0 0 1 13.5,0" transform="rotate(43)"/><path style="fill:none;stroke:#333;stroke-width:.5;stroke-linecap:round" id="path554" d="M 0,-13.5 A 13.5,13.5 0 0 0 -13.5,0" transform="rotate(-20)"/><path style="fill:none;stroke:#333;stroke-width:.5;stroke-linecap:round" id="path556" d="M 0,-13.5 A 13.5,13.5 0 0 0 -13.5,0" transform="rotate(-43)"/></g></g><g id="use322" transform="translate(288.5,22)"><g id="g544" transform="translate(20,20)"><path id="polyline534" d="M 0,0 H 4" transform="rotate(-90,-5.75,-5.75)" style="stroke:#333;stroke-width:1"/><path style="fill:none;stroke:#333;stroke-width:.5;stroke-linecap:round" id="path536" d="M 0,-13.5 A 13.5,13.5 0 0 1 13.5,0" transform="rotate(20)"/><path style="fill:none;stroke:#333;stroke-width:.5;stroke-linecap:round" id="path538" d="M 0,-13.5 A 13.5,13.5 0 0 1 13.5,0" transform="rotate(43)"/><path style="fill:none;stroke:#333;stroke-width:.5;stroke-linecap:round" id="path540" d="M 0,-13.5 A 13.5,13.5 0 0 0 -13.5,0" transform="rotate(-20)"/><path style="fill:none;stroke:#333;stroke-width:.5;stroke-linecap:round" id="path542" d="M 0,-13.5 A 13.5,13.5 0 0 0 -13.5,0" transform="rotate(-43)"/></g></g><g id="use326" transform="translate(288.5,59)"><g id="g530" transform="translate(20,20)"><path id="polyline520" d="M 0,0 H 4" transform="rotate(-90,-5.75,-5.75)" style="stroke:#333;stroke-width:1"/><path style="fill:none;stroke:#333;stroke-width:.5;stroke-linecap:round" id="path522" d="M 0,-13.5 A 13.5,13.5 0 0 1 13.5,0" transform="rotate(20)"/><path style="fill:none;stroke:#333;stroke-width:.5;stroke-linecap:round" id="path524" d="M 0,-13.5 A 13.5,13.5 0 0 1 13.5,0" transform="rotate(43)"/><path style="fill:none;stroke:#333;stroke-width:.5;stroke-linecap:round" id="path526" d="M 0,-13.5 A 13.5,13.5 0 0 0 -13.5,0" transform="rotate(-20)"/><path style="fill:none;stroke:#333;stroke-width:.5;stroke-linecap:round" id="path528" d="M 0,-13.5 A 13.5,13.5 0 0 0 -13.5,0" transform="rotate(-43)"/></g></g><g id="use330" transform="translate(288.5,96)"><g id="g516" transform="translate(20,20)"><path id="polyline506" d="M 0,0 H 4" transform="rotate(-90,-5.75,-5.75)" style="stroke:#333;stroke-width:1"/><path style="fill:none;stroke:#333;stroke-width:.5;stroke-linecap:round" id="path508" d="M 0,-13.5 A 13.5,13.5 0 0 1 13.5,0" transform="rotate(20)"/><path style="fill:none;stroke:#333;stroke-width:.5;stroke-linecap:round" id="path510" d="M 0,-13.5 A 13.5,13.5 0 0 1 13.5,0" transform="rotate(43)"/><path style="fill:none;stroke:#333;stroke-width:.5;stroke-linecap:round" id="path512" d="M 0,-13.5 A 13.5,13.5 0 0 0 -13.5,0" transform="rotate(-20)"/><path style="fill:none;stroke:#333;stroke-width:.5;stroke-linecap:round" id="path514" d="M 0,-13.5 A 13.5,13.5 0 0 0 -13.5,0" transform="rotate(-43)"/></g></g><g id="use334" transform="translate(288.5,133)"><g id="g502" transform="translate(20,20)"><path id="polyline492" d="M 0,0 H 4" transform="rotate(-90,-5.75,-5.75)" style="stroke:#333;stroke-width:1"/><path style="fill:none;stroke:#333;stroke-width:.5;stroke-linecap:round" id="path494" d="M 0,-13.5 A 13.5,13.5 0 0 1 13.5,0" transform="rotate(20)"/><path style="fill:none;stroke:#333;stroke-width:.5;stroke-linecap:round" id="path496" d="M 0,-13.5 A 13.5,13.5 0 0 1 13.5,0" transform="rotate(43)"/><path style="fill:none;stroke:#333;stroke-width:.5;stroke-linecap:round" id="path498" d="M 0,-13.5 A 13.5,13.5 0 0 0 -13.5,0" transform="rotate(-20)"/><path style="fill:none;stroke:#333;stroke-width:.5;stroke-linecap:round" id="path500" d="M 0,-13.5 A 13.5,13.5 0 0 0 -13.5,0" transform="rotate(-43)"/></g></g><g id="use338" transform="translate(288.5,170)"><g id="g488" transform="translate(20,20)"><path id="polyline478" d="M 0,0 H 4" transform="rotate(-90,-5.75,-5.75)" style="stroke:#333;stroke-width:1"/><path style="fill:none;stroke:#333;stroke-width:.5;stroke-linecap:round" id="path480" d="M 0,-13.5 A 13.5,13.5 0 0 1 13.5,0" transform="rotate(20)"/><path style="fill:none;stroke:#333;stroke-width:.5;stroke-linecap:round" id="path482" d="M 0,-13.5 A 13.5,13.5 0 0 1 13.5,0" transform="rotate(43)"/><path style="fill:none;stroke:#333;stroke-width:.5;stroke-linecap:round" id="path484" d="M 0,-13.5 A 13.5,13.5 0 0 0 -13.5,0" transform="rotate(-20)"/><path style="fill:none;stroke:#333;stroke-width:.5;stroke-linecap:round" id="path486" d="M 0,-13.5 A 13.5,13.5 0 0 0 -13.5,0" transform="rotate(-43)"/></g></g><g id="use342" transform="translate(288.5,207)"><g id="g474" transform="translate(20,20)"><path id="polyline464" d="M 0,0 H 4" transform="rotate(-90,-5.75,-5.75)" style="stroke:#333;stroke-width:1"/><path style="fill:none;stroke:#333;stroke-width:.5;stroke-linecap:round" id="path466" d="M 0,-13.5 A 13.5,13.5 0 0 1 13.5,0" transform="rotate(20)"/><path style="fill:none;stroke:#333;stroke-width:.5;stroke-linecap:round" id="path468" d="M 0,-13.5 A 13.5,13.5 0 0 1 13.5,0" transform="rotate(43)"/><path style="fill:none;stroke:#333;stroke-width:.5;stroke-linecap:round" id="path470" d="M 0,-13.5 A 13.5,13.5 0 0 0 -13.5,0" transform="rotate(-20)"/><path style="fill:none;stroke:#333;stroke-width:.5;stroke-linecap:round" id="path472" d="M 0,-13.5 A 13.5,13.5 0 0 0 -13.5,0" transform="rotate(-43)"/></g></g><g id="use346" transform="translate(288.5,244)"><g id="g460" transform="translate(20,20)"><path id="polyline450" d="M 0,0 H 4" transform="rotate(-90,-5.75,-5.75)" style="stroke:#333;stroke-width:1"/><path style="fill:none;stroke:#333;stroke-width:.5;stroke-linecap:round" id="path452" d="M 0,-13.5 A 13.5,13.5 0 0 1 13.5,0" transform="rotate(20)"/><path style="fill:none;stroke:#333;stroke-width:.5;stroke-linecap:round" id="path454" d="M 0,-13.5 A 13.5,13.5 0 0 1 13.5,0" transform="rotate(43)"/><path style="fill:none;stroke:#333;stroke-width:.5;stroke-linecap:round" id="path456" d="M 0,-13.5 A 13.5,13.5 0 0 0 -13.5,0" transform="rotate(-20)"/><path style="fill:none;stroke:#333;stroke-width:.5;stroke-linecap:round" id="path458" d="M 0,-13.5 A 13.5,13.5 0 0 0 -13.5,0" transform="rotate(-43)"/></g></g><g id="use350" transform="translate(288.5,281)"><g id="g446" transform="translate(20,20)"><path id="polyline436" d="M 0,0 H 4" transform="rotate(-90,-5.75,-5.75)" style="stroke:#333;stroke-width:1"/><path style="fill:none;stroke:#333;stroke-width:.5;stroke-linecap:round" id="path438" d="M 0,-13.5 A 13.5,13.5 0 0 1 13.5,0" transform="rotate(20)"/><path style="fill:none;stroke:#333;stroke-width:.5;stroke-linecap:round" id="path440" d="M 0,-13.5 A 13.5,13.5 0 0 1 13.5,0" transform="rotate(43)"/><path style="fill:none;stroke:#333;stroke-width:.5;stroke-linecap:round" id="path442" d="M 0,-13.5 A 13.5,13.5 0 0 0 -13.5,0" transform="rotate(-20)"/><path style="fill:none;stroke:#333;stroke-width:.5;stroke-linecap:round" id="path444" d="M 0,-13.5 A 13.5,13.5 0 0 0 -13.5,0" transform="rotate(-43)"/></g></g><g id="text354" aria-label="LEVEL" style="font-weight:700;font-size:8px;font-family:Roboto,sans-serif;letter-spacing:2px;fill:#333"><path id="path1348" d="M 8.6796875,329.05859 H 11.167969 V 330 H 7.5078125 v -5.6875 h 1.171875 z" style="font-weight:700;font-size:8px;font-family:Roboto,sans-serif;letter-spacing:2px;fill:#333"/><path id="path1350" d="m 17.257812,327.53516 h -2.249999 v 1.52343 h 2.640624 V 330 h -3.812499 v -5.6875 h 3.804687 v 0.94922 h -2.632812 v 1.35547 h 2.249999 z" style="font-weight:700;font-size:8px;font-family:Roboto,sans-serif;letter-spacing:2px;fill:#333"/><path id="path1352" d="m 22.4375,328.58984 1.289062,-4.27734 H 25.03125 L 23.050781,330 h -1.222656 l -1.972656,-5.6875 h 1.300781 z" style="font-weight:700;font-size:8px;font-family:Roboto,sans-serif;letter-spacing:2px;fill:#333"/><path id="path1354" d="m 30.992187,327.53516 h -2.25 v 1.52343 h 2.640625 V 330 h -3.8125 v -5.6875 H 31.375 v 0.94922 h -2.632813 v 1.35547 h 2.25 z" style="font-weight:700;font-size:8px;font-family:Roboto,sans-serif;letter-spacing:2px;fill:#333"/><path id="path1356" d="m 35.242187,329.05859 h 2.488282 V 330 h -3.660157 v -5.6875 h 1.171875 z" style="font-weight:700;font-size:8px;font-family:Roboto,sans-serif;letter-spacing:2px;fill:#333"/></g><g id="use356" transform="translate(2.5,327.5)"><g id="g1344" transform="translate(20,20)"><g id="g1334" transform="rotate(60,-5,8.660254)"><path id="polyline1332" d="M 0,0 H 4" style="stroke:#333;stroke-width:1"/></g><path style="fill:none;stroke:#333;stroke-width:.5;stroke-linecap:round" id="path1336" d="M 0,-12.5 A 12.5,12.5 0 0 1 12.5,0"/><path style="fill:none;stroke:#333;stroke-width:.5;stroke-linecap:round" id="path1338" d="M 0,-12.5 A 12.5,12.5 0 0 1 12.5,0" transform="rotate(43)"/><path style="fill:none;stroke:#333;stroke-width:.5;stroke-linecap:round" id="path1340" d="M 0,-12.5 A 12.5,12.5 0 0 0 -12.5,0"/><path style="fill:none;stroke:#333;stroke-width:.5;stroke-linecap:round" id="path1342" d="M 0,-12.5 A 12.5,12.5 0 0 0 -12.5,0" transform="rotate(-43)"/></g></g></svg>