<svg xmlns="http://www.w3.org/2000/svg" xmlns:svg="http://www.w3.org/2000/svg" id="svg166" width="90" height="380" version="1.1" viewBox="0 0 90 380"><metadata id="metadata170"/><style id="style2">text{fill:#333;font-family:&apos;Roboto&apos;,sans-serif;font-weight:700}</style><defs id="defs82"><symbol id="knob" viewBox="0 0 45 45"><g id="g10" transform="translate(22.5 22.5)"><polyline id="polyline4" stroke="#00f" stroke-width="1" points="-5 0 5 0"/><polyline id="polyline6" stroke="#00f" stroke-width="1" points="0 -5 0 5"/><circle id="circle8" cx="0" cy="0" r="14" fill="none" stroke="#00f" stroke-width="1"/></g></symbol><symbol id="knobguide-select" viewBox="0 0 45 45"><g id="g29" transform="translate(22.5 22.5)"><text id="text13" font-size="5pt" transform="rotate(-240) translate(20 0) rotate(240) translate(-2 2)">1</text><text id="text15" font-size="5pt" transform="rotate(-197.1) translate(20 0) rotate(197.1) translate(-2 2)">2</text><text id="text17" font-size="5pt" transform="rotate(-154.3) translate(20 0) rotate(154.3) translate(-2 2)">3</text><text id="text19" font-size="5pt" transform="rotate(-111.4) translate(20 0) rotate(111.4) translate(-2 2)">4</text><text id="text21" font-size="5pt" transform="rotate(-68.6) translate(20 0) rotate(68.6) translate(-2 2)">5</text><text id="text23" font-size="5pt" transform="rotate(-25.7) translate(20 0) rotate(25.7) translate(-2 2)">6</text><text id="text25" font-size="5pt" transform="rotate(17.1) translate(20 0) rotate(-17.1) translate(-2 2)">7</text><text id="text27" font-size="5pt" transform="rotate(60) translate(20 0) rotate(-60) translate(-2 2)">8</text></g></symbol><symbol id="knob-smallest" viewBox="0 0 16 16"><g id="g38" transform="translate(8 8)"><polyline id="polyline32" stroke="#00f" stroke-width="1" points="-3 0 3 0"/><polyline id="polyline34" stroke="#00f" stroke-width="1" points="0 -3 0 3"/><circle id="circle36" r="7.5" fill="none" stroke="#00f" stroke-width="1"/></g></symbol><symbol id="knobguide-steps" viewBox="0 0 40 40"><g id="g57" transform="translate(20 20)"><text id="text41" font-size="5pt" transform="rotate(-240) translate(13 0) rotate(240) translate(-2 2)">1</text><text id="text43" font-size="5pt" transform="rotate(-197.1) translate(13 0) rotate(197.1) translate(-2 2)">2</text><text id="text45" font-size="5pt" transform="rotate(-154.3) translate(13 0) rotate(154.3) translate(-2 2)">3</text><text id="text47" font-size="5pt" transform="rotate(-111.4) translate(13 0) rotate(111.4) translate(-2 2)">4</text><text id="text49" font-size="5pt" transform="rotate(-68.6) translate(13 0) rotate(68.6) translate(-2 2)">5</text><text id="text51" font-size="5pt" transform="rotate(-25.7) translate(13 0) rotate(25.7) translate(-2 2)">6</text><text id="text53" font-size="5pt" transform="rotate(17.1) translate(13 0) rotate(-17.1) translate(-2 2)">7</text><text id="text55" font-size="5pt" transform="rotate(60) translate(13 0) rotate(-60) translate(-2 2)">8</text></g></symbol><symbol id="switch" viewBox="0 0 14 24"><rect id="rect60" width="14" height="24" fill="#ddd" stroke="#000" stroke-width="1"/><rect id="rect62" width="14" height="12" fill="#000" stroke-width="0"/></symbol><symbol id="light-small" viewBox="0 0 6.4 6.4"><rect id="rect65" width="6.4" height="6.4" fill="#0f0"/></symbol><symbol id="input" viewBox="0 0 24 24"><g id="g72" transform="translate(12 12)"><circle id="circle68" cx="0" cy="0" r="5" fill="#0f0" stroke="#0f0" stroke-width="1"/><circle id="circle70" cx="0" cy="0" r="10.5" fill="none" stroke="#0f0" stroke-width="3"/></g></symbol><symbol id="output" viewBox="0 0 24 24"><g id="g79" transform="translate(12 12)"><circle id="circle75" cx="0" cy="0" r="5" fill="red" stroke="red" stroke-width="1"/><circle id="circle77" cx="0" cy="0" r="10.5" fill="none" stroke="red" stroke-width="3"/></g></symbol></defs><path style="fill:#ddd" id="rect84" d="M 0,0 H 90 V 380 H 0 Z"/><path style="fill:none;stroke:#e4e4e4;stroke-width:.5" id="polyline86" d="M 1,1 H 89 V 379 H 1 V 1"/><path style="fill:none;stroke:#ebebeb;stroke-width:.80000001" id="polyline88" d="m 0.5,0.5 h 89 v 379 H 0.5 V 0.5"/><path style="fill:none;stroke:#f2f2f2;stroke-width:1" id="polyline90" d="M 0,0 H 90 V 380 H 0 V 0"/><g style="font-weight:400;font-size:12px;font-family:Comfortaa,sans-serif;letter-spacing:3px;fill:#333" id="text92" aria-label="1:8"><path style="font-weight:400;font-size:12px;font-family:Comfortaa,sans-serif;letter-spacing:3px;fill:#333" id="path325" d="M 65.868,17 Q 65.676,17 65.532,16.868 65.4,16.724 65.4,16.532 v -7.8 l -1.2,0.42 q -0.12,0.06 -0.24,0.06 -0.204,0 -0.336,-0.12 -0.132,-0.132 -0.132,-0.336 0,-0.348 0.3,-0.444 L 65.64,7.676 q 0.18,-0.06 0.24,-0.06 0.192,0 0.324,0.132 0.132,0.132 0.132,0.336 v 8.448 q 0,0.192 -0.132,0.336 Q 66.072,17 65.868,17 Z"/><path style="font-weight:400;font-size:12px;font-family:Comfortaa,sans-serif;letter-spacing:3px;fill:#333" id="path327" d="m 71.626875,11.912 q -0.288,0 -0.504,-0.204 -0.204,-0.204 -0.204,-0.492 0,-0.3 0.204,-0.504 0.204,-0.204 0.504,-0.204 0.288,0 0.48,0.216 0.204,0.204 0.204,0.492 0,0.288 -0.204,0.492 -0.192,0.204 -0.48,0.204 z m 0.024,5.28 q -0.288,0 -0.492,-0.204 -0.204,-0.204 -0.204,-0.492 0,-0.3 0.204,-0.504 0.216,-0.204 0.492,-0.204 0.288,0 0.492,0.216 0.204,0.204 0.204,0.492 0,0.288 -0.204,0.492 -0.204,0.204 -0.492,0.204 z"/><path style="font-weight:400;font-size:12px;font-family:Comfortaa,sans-serif;letter-spacing:3px;fill:#333" id="path329" d="m 80.822625,11.744 q 0.66,0.348 1.044,0.984 0.384,0.624 0.384,1.416 0,0.816 -0.372,1.476 -0.36,0.66 -1.008,1.044 -0.636,0.384 -1.416,0.384 -0.792,0 -1.44,-0.372 -0.636,-0.384 -1.008,-1.032 -0.36,-0.66 -0.36,-1.464 0,-0.804 0.384,-1.44 0.396,-0.648 1.056,-0.996 -0.444,-0.312 -0.696,-0.792 -0.252,-0.492 -0.252,-1.08 0,-0.636 0.3,-1.152 0.312,-0.528 0.84,-0.816 0.54,-0.3 1.2,-0.3 0.648,0 1.164,0.3 0.528,0.288 0.816,0.804 0.3,0.504 0.3,1.14 0,0.588 -0.252,1.092 -0.252,0.492 -0.684,0.804 z m -2.796,-1.86 q 0,0.624 0.408,1.056 0.408,0.42 1.02,0.42 0.612,0 1.008,-0.432 0.408,-0.444 0.408,-1.092 0,-0.588 -0.408,-0.984 -0.408,-0.396 -1.008,-0.396 -0.612,0 -1.02,0.408 -0.408,0.408 -0.408,1.02 z m 3.288,4.272 q 0,-0.54 -0.252,-0.972 -0.24,-0.432 -0.672,-0.684 -0.42,-0.252 -0.936,-0.252 -0.528,0 -0.96,0.264 -0.432,0.252 -0.672,0.696 -0.24,0.444 -0.24,0.996 0,0.552 0.24,1.02 0.252,0.456 0.672,0.72 0.432,0.264 0.96,0.264 0.528,0 0.948,-0.264 0.432,-0.276 0.672,-0.744 0.24,-0.48 0.24,-1.044 z"/></g><g style="font-weight:700;font-size:8.66666698px;font-family:Audiowide,sans-serif;letter-spacing:2px;fill:#333" id="text94" aria-label="BOGAUDIO"><path style="font-weight:700;font-size:8.66666698px;font-family:Audiowide,sans-serif;letter-spacing:2px;fill:#333" id="path332" d="m 12.194662,372.66699 q 0,0.20313 -0.07194,0.43587 -0.06771,0.23275 -0.228516,0.43165 -0.156576,0.19889 -0.410482,0.33431 Q 11.229818,374 10.861654,374 H 6.6848959 q -0.1184896,0 -0.2200521,-0.0423 -0.1015625,-0.0423 -0.1777344,-0.11426 -0.07194,-0.0762 -0.1142578,-0.17773 -0.042318,-0.10156 -0.042318,-0.22005 V 368.486 q 0,-0.11426 0.042318,-0.21582 0.042318,-0.10156 0.1142578,-0.17773 0.076172,-0.0762 0.1777344,-0.11849 0.1015625,-0.0423 0.2200521,-0.0423 h 3.6816411 q 0.203125,0 0.435872,0.0719 0.232747,0.0719 0.431641,0.23275 0.203125,0.15657 0.33431,0.41048 0.135416,0.25391 0.135416,0.62207 v 0.20736 q 0,0.29199 -0.09733,0.63053 -0.09733,0.33431 -0.313152,0.63477 0.186198,0.11425 0.347006,0.27506 0.165039,0.16081 0.28776,0.3724 0.122721,0.21159 0.194662,0.47819 0.07194,0.2666 0.07194,0.58821 z m -1.100261,-0.21159 q 0,-0.21582 -0.06771,-0.38509 -0.06771,-0.1735 -0.19043,-0.29622 -0.122721,-0.12272 -0.296224,-0.1862 -0.173502,-0.0677 -0.389323,-0.0677 H 7.6708985 v -1.10872 h 1.9847006 q 0.2158203,0 0.3893229,-0.0635 0.173503,-0.0677 0.296224,-0.19043 0.122721,-0.12272 0.186198,-0.29199 0.06771,-0.1735 0.06771,-0.38932 v -0.20736 q 0,-0.23698 -0.228515,-0.23698 H 7.2307943 v 3.86784 h 3.6308597 q 0.02962,0 0.07194,-0.004 0.04232,-0.004 0.07617,-0.0254 0.03385,-0.0212 0.05924,-0.0719 0.02539,-0.0508 0.02539,-0.13965 z"/><path style="font-weight:700;font-size:8.66666698px;font-family:Audiowide,sans-serif;letter-spacing:2px;fill:#333" id="path334" d="m 21.515625,371.54557 q 0,0.55436 -0.190429,1.01986 -0.19043,0.46549 -0.528972,0.80404 -0.338541,0.33854 -0.804036,0.52897 -0.461263,0.1862 -1.007162,0.1862 h -1.489583 q -0.545899,0 -1.011393,-0.1862 -0.465495,-0.19043 -0.804037,-0.52897 -0.338542,-0.33855 -0.533203,-0.80404 -0.19043,-0.4655 -0.19043,-1.01986 v -1.1595 q 0,-0.55013 0.19043,-1.01563 0.194661,-0.46972 0.533203,-0.80403 0.338542,-0.33855 0.804037,-0.52898 0.465494,-0.19043 1.011393,-0.19043 h 1.489583 q 0.545899,0 1.007162,0.19043 0.465495,0.19043 0.804036,0.52898 0.338542,0.33431 0.528972,0.80403 0.190429,0.4655 0.190429,1.01563 z m -1.10026,-1.1595 q 0,-0.32585 -0.105794,-0.58822 -0.101563,-0.2666 -0.291993,-0.4528 -0.186198,-0.19043 -0.452799,-0.29199 -0.26237,-0.10579 -0.579753,-0.10579 h -1.489583 q -0.321615,0 -0.588216,0.10579 -0.26237,0.10156 -0.4528,0.29199 -0.19043,0.1862 -0.296224,0.4528 -0.101562,0.26237 -0.101562,0.58822 v 1.1595 q 0,0.32585 0.101562,0.59245 0.105794,0.26237 0.296224,0.4528 0.19043,0.1862 0.4528,0.29199 0.266601,0.10156 0.588216,0.10156 h 1.48112 q 0.321614,0 0.583984,-0.10156 0.266602,-0.10579 0.457031,-0.29199 0.19043,-0.19043 0.291993,-0.4528 0.105794,-0.2666 0.105794,-0.59245 z"/><path style="font-weight:700;font-size:8.66666698px;font-family:Audiowide,sans-serif;letter-spacing:2px;fill:#333" id="path336" d="m 30.59961,373.44564 q 0,0.11849 -0.04232,0.22005 -0.04232,0.10156 -0.11849,0.17773 -0.07194,0.0719 -0.173502,0.11426 Q 30.163737,374 30.045248,374 h -3.969402 q -0.152343,0 -0.330078,-0.0338 -0.173502,-0.0381 -0.347005,-0.11426 -0.169271,-0.0762 -0.325846,-0.19466 -0.156576,-0.12272 -0.279297,-0.292 -0.11849,-0.1735 -0.19043,-0.39778 -0.07194,-0.22852 -0.07194,-0.51205 v -2.97916 q 0,-0.15235 0.03385,-0.32585 0.03809,-0.17773 0.114258,-0.347 0.07617,-0.17351 0.198893,-0.33008 0.122722,-0.15658 0.291992,-0.27507 0.173503,-0.12272 0.397787,-0.19466 0.224284,-0.0719 0.507812,-0.0719 h 4.472982 v 1.10026 h -4.472982 q -0.21582,0 -0.330078,0.11426 -0.114258,0.11426 -0.114258,0.33854 v 2.9707 q 0,0.21159 0.114258,0.33008 0.11849,0.11426 0.330078,0.11426 h 3.423503 v -1.37956 h -2.928385 v -1.10872 h 3.474284 q 0.118489,0 0.220052,0.0466 0.101562,0.0423 0.173502,0.11849 0.07617,0.0762 0.11849,0.17773 0.04232,0.0973 0.04232,0.21159 z"/><path style="font-weight:700;font-size:8.66666698px;font-family:Audiowide,sans-serif;letter-spacing:2px;fill:#333" id="path338" d="m 39.708986,374 h -1.100261 v -1.48958 H 34.740887 V 374 h -1.100261 v -3.03418 q 0,-0.66439 0.228516,-1.22298 0.228516,-0.5586 0.634766,-0.96061 0.40625,-0.40202 0.960612,-0.62631 0.554362,-0.22428 1.210286,-0.22428 h 2.479818 q 0.114258,0 0.21582,0.0423 0.101563,0.0423 0.177735,0.11849 0.07617,0.0762 0.118489,0.17773 0.04232,0.10156 0.04232,0.21582 z m -4.968099,-2.58984 h 3.867838 v -2.37826 h -1.933919 q -0.05078,0 -0.21582,0.0169 -0.160808,0.0127 -0.376628,0.0719 -0.211588,0.0592 -0.448568,0.18196 -0.236979,0.12273 -0.435872,0.33855 -0.198893,0.21582 -0.330078,0.54166 -0.126953,0.32162 -0.126953,0.78288 z"/><path style="font-weight:700;font-size:8.66666698px;font-family:Audiowide,sans-serif;letter-spacing:2px;fill:#333" id="path340" d="m 48.928386,373.44564 q 0,0.11849 -0.04232,0.22005 -0.04232,0.10156 -0.11849,0.17773 -0.07617,0.0719 -0.177734,0.11426 Q 48.488281,374 48.374024,374 h -2.479818 q -0.351237,0 -0.710938,-0.0762 -0.3597,-0.0762 -0.698242,-0.23275 -0.33431,-0.16081 -0.630534,-0.40625 -0.296224,-0.24544 -0.520508,-0.57975 -0.220052,-0.33854 -0.347005,-0.77018 -0.126953,-0.43588 -0.126953,-0.96908 v -3.03418 h 1.100261 v 3.03418 q 0,0.4655 0.126953,0.78711 0.131185,0.32161 0.330078,0.53743 0.198893,0.21582 0.435872,0.33855 0.236979,0.12272 0.448568,0.18196 0.21582,0.0592 0.376628,0.0762 0.165039,0.0127 0.21582,0.0127 h 1.933919 v -4.9681 h 1.100261 z"/><path style="font-weight:700;font-size:8.66666698px;font-family:Audiowide,sans-serif;letter-spacing:2px;fill:#333" id="path342" d="m 58.266279,371.46094 q 0,0.55436 -0.194662,1.01985 -0.190429,0.4655 -0.528971,0.80404 -0.338542,0.33431 -0.804036,0.52474 Q 56.273115,374 55.727216,374 h -2.970703 q -0.11849,0 -0.220052,-0.0423 -0.101563,-0.0423 -0.177734,-0.11426 -0.07194,-0.0762 -0.114258,-0.17773 -0.04232,-0.10156 -0.04232,-0.22005 V 368.486 q 0,-0.11426 0.04232,-0.21582 0.04232,-0.10156 0.114258,-0.17773 0.07617,-0.0762 0.177734,-0.11849 0.101562,-0.0423 0.220052,-0.0423 h 2.970703 q 0.545899,0 1.011394,0.19043 0.465494,0.19043 0.804036,0.52897 0.338542,0.33431 0.528971,0.80404 0.194662,0.46549 0.194662,1.01562 z m -1.100261,-0.99024 q 0,-0.32161 -0.105794,-0.58821 -0.101562,-0.2666 -0.291992,-0.4528 -0.19043,-0.19043 -0.457031,-0.29199 -0.26237,-0.1058 -0.583985,-0.1058 h -2.424805 v 3.86784 h 2.424805 q 0.321615,0 0.583985,-0.10156 0.266601,-0.1058 0.457031,-0.292 0.19043,-0.19042 0.291992,-0.45279 0.105794,-0.26661 0.105794,-0.59245 z"/><path style="font-weight:700;font-size:8.66666698px;font-family:Audiowide,sans-serif;letter-spacing:2px;fill:#333" id="path344" d="m 62.462565,374 h -1.10026 v -6.06836 h 1.10026 z"/><path style="font-weight:700;font-size:8.66666698px;font-family:Audiowide,sans-serif;letter-spacing:2px;fill:#333" id="path346" d="m 72.126305,371.54557 q 0,0.55436 -0.19043,1.01986 -0.19043,0.46549 -0.528971,0.80404 -0.338542,0.33854 -0.804037,0.52897 -0.461263,0.1862 -1.007161,0.1862 h -1.489584 q -0.545898,0 -1.011393,-0.1862 -0.465495,-0.19043 -0.804036,-0.52897 -0.338542,-0.33855 -0.533203,-0.80404 -0.19043,-0.4655 -0.19043,-1.01986 v -1.1595 q 0,-0.55013 0.19043,-1.01563 0.194661,-0.46972 0.533203,-0.80403 0.338541,-0.33855 0.804036,-0.52898 0.465495,-0.19043 1.011393,-0.19043 h 1.489584 q 0.545898,0 1.007161,0.19043 0.465495,0.19043 0.804037,0.52898 0.338541,0.33431 0.528971,0.80403 0.19043,0.4655 0.19043,1.01563 z m -1.100261,-1.1595 q 0,-0.32585 -0.105794,-0.58822 -0.101562,-0.2666 -0.291992,-0.4528 -0.186198,-0.19043 -0.4528,-0.29199 -0.262369,-0.10579 -0.579752,-0.10579 h -1.489584 q -0.321614,0 -0.588216,0.10579 -0.26237,0.10156 -0.452799,0.29199 -0.19043,0.1862 -0.296224,0.4528 -0.101563,0.26237 -0.101563,0.58822 v 1.1595 q 0,0.32585 0.101563,0.59245 0.105794,0.26237 0.296224,0.4528 0.190429,0.1862 0.452799,0.29199 0.266602,0.10156 0.588216,0.10156 h 1.48112 q 0.321615,0 0.583985,-0.10156 0.266601,-0.10579 0.457031,-0.29199 0.19043,-0.19043 0.291992,-0.4528 0.105794,-0.2666 0.105794,-0.59245 z"/></g><path style="fill:#ddd" id="rect96" d="M 26.5,370 H 28 v 2 h -1.5 z"/><path style="fill:#fafafa" id="rect100" d="m 11.5,32 h 24 c 2.77,0 5,2.23 5,5 v 29 c 0,2.77 -2.23,5 -5,5 h -24 c -2.77,0 -5,-2.23 -5,-5 V 37 c 0,-2.77 2.23,-5 5,-5 z"/><path style="fill:#fafafa" id="rect102" d="m 6.5,62 h 34 v 10 h -34 z"/><g style="font-weight:700;font-size:6.66666651px;font-family:Roboto,sans-serif;letter-spacing:1px;fill:#333" id="text104" aria-label="CLOCK"><path style="font-weight:700;font-size:6.66666651px;font-family:Roboto,sans-serif;letter-spacing:1px;fill:#333" id="path352" d="m 14.64388,65.421224 q -0.05534,0.764974 -0.566406,1.204427 -0.507813,0.439453 -1.341146,0.439453 -0.911458,0 -1.435547,-0.611979 -0.520833,-0.615234 -0.520833,-1.686198 v -0.289713 q 0,-0.683594 0.240885,-1.204427 0.240886,-0.520834 0.686849,-0.797526 0.449219,-0.279948 1.041667,-0.279948 0.820312,0 1.321614,0.439453 0.501303,0.439453 0.579428,1.233724 h -0.976563 q -0.03581,-0.458985 -0.257161,-0.664063 -0.218099,-0.208333 -0.667318,-0.208333 -0.488281,0 -0.732422,0.351562 -0.240885,0.348308 -0.247396,1.083985 v 0.358073 q 0,0.768229 0.23112,1.123046 0.234375,0.354818 0.735677,0.354818 0.452474,0 0.673828,-0.205078 0.22461,-0.208333 0.257162,-0.641276 z"/><path style="font-weight:700;font-size:6.66666651px;font-family:Roboto,sans-serif;letter-spacing:1px;fill:#333" id="path354" d="m 17.261719,66.215495 h 2.073567 V 67 h -3.05013 v -4.739583 h 0.976563 z"/><path style="font-weight:700;font-size:6.66666651px;font-family:Roboto,sans-serif;letter-spacing:1px;fill:#333" id="path356" d="m 24.576822,64.73763 q 0,0.69987 -0.247396,1.227214 -0.247395,0.527344 -0.709635,0.813802 -0.458984,0.286458 -1.054688,0.286458 -0.589192,0 -1.051432,-0.283203 -0.462239,-0.283203 -0.716146,-0.807292 -0.253906,-0.527343 -0.257161,-1.210937 v -0.234375 q 0,-0.69987 0.250651,-1.230469 0.253906,-0.533854 0.712891,-0.817057 0.462239,-0.286458 1.054687,-0.286458 0.592448,0 1.051432,0.286458 0.46224,0.283203 0.712891,0.817057 0.253906,0.530599 0.253906,1.227214 z m -0.989583,-0.214843 q 0,-0.745443 -0.266927,-1.132813 -0.266927,-0.38737 -0.761719,-0.38737 -0.491536,0 -0.758463,0.384115 -0.266928,0.380859 -0.270183,1.119791 v 0.23112 q 0,0.725912 0.266927,1.126302 0.266927,0.400391 0.768229,0.400391 0.491537,0 0.755209,-0.384115 0.263672,-0.387369 0.266927,-1.126302 z"/><path style="font-weight:700;font-size:6.66666651px;font-family:Roboto,sans-serif;letter-spacing:1px;fill:#333" id="path358" d="m 30.013671,65.421224 q -0.05534,0.764974 -0.566406,1.204427 -0.507813,0.439453 -1.341146,0.439453 -0.911458,0 -1.435547,-0.611979 -0.520833,-0.615234 -0.520833,-1.686198 v -0.289713 q 0,-0.683594 0.240885,-1.204427 0.240886,-0.520834 0.686849,-0.797526 0.449219,-0.279948 1.041667,-0.279948 0.820312,0 1.321614,0.439453 0.501303,0.439453 0.579428,1.233724 h -0.976563 q -0.03581,-0.458985 -0.257161,-0.664063 -0.218099,-0.208333 -0.667318,-0.208333 -0.488281,0 -0.732422,0.351562 -0.240885,0.348308 -0.247396,1.083985 v 0.358073 q 0,0.768229 0.23112,1.123046 0.234375,0.354818 0.735677,0.354818 0.452474,0 0.673828,-0.205078 0.22461,-0.208333 0.257162,-0.641276 z"/><path style="font-weight:700;font-size:6.66666651px;font-family:Roboto,sans-serif;letter-spacing:1px;fill:#333" id="path360" d="m 33.139322,65.098958 -0.507813,0.546875 V 67 h -0.976562 v -4.739583 h 0.976562 v 2.148437 l 0.429688,-0.589192 1.207682,-1.559245 h 1.201172 L 33.787108,64.366537 35.518879,67 h -1.16211 z"/></g><path style="fill:#fafafa" id="rect108" d="m 11.5,69 h 24 c 2.77,0 5,2.23 5,5 v 29 c 0,2.77 -2.23,5 -5,5 h -24 c -2.77,0 -5,-2.23 -5,-5 V 74 c 0,-2.77 2.23,-5 5,-5 z"/><g style="font-weight:700;font-size:6.66666651px;font-family:Roboto,sans-serif;letter-spacing:1px;fill:#333" id="text110" aria-label="RESET"><path style="font-weight:700;font-size:6.66666651px;font-family:Roboto,sans-serif;letter-spacing:1px;fill:#333" id="path364" d="M 13.677734,102.26497 H 12.89974 V 104 h -0.976563 v -4.739583 h 1.761068 q 0.839843,0 1.295573,0.374349 0.455729,0.374344 0.455729,1.057944 0,0.48502 -0.211589,0.81055 -0.208333,0.32226 -0.634765,0.51432 l 1.02539,1.93685 V 104 h -1.048177 z m -0.777994,-0.79101 h 0.78776 q 0.367838,0 0.569661,-0.18555 0.201823,-0.1888 0.201823,-0.51758 0,-0.33528 -0.192057,-0.52734 -0.188802,-0.19206 -0.582682,-0.19206 H 12.89974 Z"/><path style="font-weight:700;font-size:6.66666651px;font-family:Roboto,sans-serif;letter-spacing:1px;fill:#333" id="path366" d="m 20.032552,101.94596 h -1.875 v 1.26953 h 2.200521 V 104 H 17.18099 v -4.739583 h 3.170572 v 0.791013 h -2.19401 v 1.12956 h 1.875 z"/><path style="font-weight:700;font-size:6.66666651px;font-family:Roboto,sans-serif;letter-spacing:1px;fill:#333" id="path368" d="m 24.388672,102.75651 q 0,-0.27669 -0.195313,-0.42318 -0.195312,-0.14974 -0.703125,-0.3125 -0.507812,-0.16601 -0.804036,-0.32552 -0.807292,-0.4362 -0.807292,-1.17513 0,-0.38411 0.214844,-0.683591 0.218099,-0.302735 0.621745,-0.472006 0.406901,-0.16927 0.911458,-0.16927 0.507813,0 0.904948,0.185546 0.397135,0.182292 0.615234,0.517579 0.221354,0.335282 0.221354,0.761722 h -0.976562 q 0,-0.32552 -0.205078,-0.50456 -0.205078,-0.182293 -0.576172,-0.182293 -0.358073,0 -0.556641,0.152993 -0.198567,0.14974 -0.198567,0.39714 0,0.23112 0.23112,0.38737 0.234374,0.15625 0.686848,0.29297 0.833334,0.25065 1.214193,0.62174 0.380859,0.37109 0.380859,0.92448 0,0.61523 -0.465494,0.9668 -0.465495,0.3483 -1.253255,0.3483 -0.546875,0 -0.996094,-0.19856 -0.449219,-0.20183 -0.686849,-0.55013 -0.234375,-0.34831 -0.234375,-0.8073 h 0.979818 q 0,0.78451 0.9375,0.78451 0.348307,0 0.543619,-0.13997 0.195313,-0.14323 0.195313,-0.39714 z"/><path style="font-weight:700;font-size:6.66666651px;font-family:Roboto,sans-serif;letter-spacing:1px;fill:#333" id="path370" d="m 29.884115,101.94596 h -1.875 v 1.26953 h 2.20052 V 104 h -3.177083 v -4.739583 h 3.170573 v 0.791013 h -2.19401 v 1.12956 h 1.875 z"/><path style="font-weight:700;font-size:6.66666651px;font-family:Roboto,sans-serif;letter-spacing:1px;fill:#333" id="path372" d="M 35.415364,100.05143 H 33.963541 V 104 h -0.976563 v -3.94857 h -1.432291 v -0.791013 h 3.860677 z"/></g><g style="font-weight:700;font-size:8px;font-family:Roboto,sans-serif;letter-spacing:1.5px;fill:#333" id="text114" aria-label="STEPS"><path style="font-weight:700;font-size:8px;font-family:Roboto,sans-serif;letter-spacing:1.5px;fill:#333" id="path375" d="m 11.957031,119.50781 q 0,-0.33203 -0.234375,-0.50781 -0.234375,-0.17969 -0.84375,-0.375 -0.609375,-0.19922 -0.9648435,-0.39062 -0.96875,-0.52344 -0.96875,-1.41016 0,-0.46094 0.2578125,-0.82031 0.2617188,-0.36328 0.7460938,-0.56641 0.4882812,-0.20312 1.0937502,-0.20312 0.609375,0 1.085937,0.22265 0.476563,0.21875 0.738282,0.6211 0.265625,0.40234 0.265625,0.91406 h -1.171875 q 0,-0.39063 -0.246094,-0.60547 -0.246094,-0.21875 -0.691406,-0.21875 -0.429688,0 -0.667969,0.18359 -0.238281,0.17969 -0.238281,0.47657 0,0.27734 0.277343,0.46484 0.28125,0.1875 0.824219,0.35156 1,0.30078 1.457031,0.7461 0.457032,0.44531 0.457032,1.10937 0,0.73828 -0.558594,1.16016 -0.558594,0.41797 -1.503906,0.41797 -0.65625,0 -1.195313,-0.23829 -0.5390625,-0.24218 -0.8242187,-0.66015 -0.28125,-0.41797 -0.28125,-0.96875 h 1.1757812 q 0,0.9414 1.1250005,0.9414 0.417968,0 0.652343,-0.16796 0.234375,-0.17188 0.234375,-0.47657 z"/><path style="font-weight:700;font-size:8px;font-family:Roboto,sans-serif;letter-spacing:1.5px;fill:#333" id="path377" d="M 19.710937,116.26172 H 17.96875 V 121 h -1.171875 v -4.73828 h -1.71875 v -0.94922 h 4.632812 z"/><path style="font-weight:700;font-size:8px;font-family:Roboto,sans-serif;letter-spacing:1.5px;fill:#333" id="path379" d="m 25.304687,118.53516 h -2.25 v 1.52343 h 2.640625 V 121 h -3.8125 v -5.6875 H 25.6875 v 0.94922 h -2.632813 v 1.35547 h 2.25 z"/><path style="font-weight:700;font-size:8px;font-family:Roboto,sans-serif;letter-spacing:1.5px;fill:#333" id="path381" d="M 29.054687,118.99609 V 121 h -1.171875 v -5.6875 h 2.21875 q 0.640625,0 1.125,0.23438 0.488282,0.23437 0.75,0.66796 0.261719,0.42969 0.261719,0.98047 0,0.83594 -0.574219,1.32032 -0.570312,0.48046 -1.582031,0.48046 z m 0,-0.94921 h 1.046875 q 0.464844,0 0.707032,-0.21875 0.246093,-0.21875 0.246093,-0.625 0,-0.41797 -0.246093,-0.67579 -0.246094,-0.25781 -0.679688,-0.26562 h -1.074219 z"/><path style="font-weight:700;font-size:8px;font-family:Roboto,sans-serif;letter-spacing:1.5px;fill:#333" id="path383" d="m 37.488281,119.50781 q 0,-0.33203 -0.234375,-0.50781 -0.234375,-0.17969 -0.84375,-0.375 -0.609375,-0.19922 -0.964844,-0.39062 -0.96875,-0.52344 -0.96875,-1.41016 0,-0.46094 0.257813,-0.82031 0.261719,-0.36328 0.746094,-0.56641 0.488281,-0.20312 1.09375,-0.20312 0.609375,0 1.085937,0.22265 0.476563,0.21875 0.738281,0.6211 0.265625,0.40234 0.265625,0.91406 h -1.171875 q 0,-0.39063 -0.246093,-0.60547 Q 37,116.16797 36.554687,116.16797 q -0.429687,0 -0.667968,0.18359 -0.238282,0.17969 -0.238282,0.47657 0,0.27734 0.277344,0.46484 0.28125,0.1875 0.824219,0.35156 1,0.30078 1.457031,0.7461 0.457031,0.44531 0.457031,1.10937 0,0.73828 -0.558593,1.16016 -0.558594,0.41797 -1.503907,0.41797 -0.65625,0 -1.195312,-0.23829 -0.539063,-0.24218 -0.824219,-0.66015 -0.28125,-0.41797 -0.28125,-0.96875 h 1.175781 q 0,0.9414 1.125,0.9414 0.417969,0 0.652344,-0.16796 0.234375,-0.17188 0.234375,-0.47657 z"/></g><g id="use116" transform="translate(3.5,120)"><g id="g216" transform="translate(20,20)"><g style="font-weight:700;font-size:6.66666651px;font-family:Roboto,sans-serif;fill:#333" id="text200" aria-label="1" transform="translate(-8.5,13.25833)"><path style="font-weight:700;font-size:6.66666651px;font-family:Roboto,sans-serif;fill:#333" id="path386" d="M 2.6074218,0 H 1.6666666 v -3.626302 l -1.12304682,0.3483073 v -0.764974 L 2.5065104,-4.7460936 h 0.1009114 z"/></g><g style="font-weight:700;font-size:6.66666651px;font-family:Roboto,sans-serif;fill:#333" id="text202" aria-label="2" transform="translate(-14.425309,5.8225242)"><path style="font-weight:700;font-size:6.66666651px;font-family:Roboto,sans-serif;fill:#333" id="path389" d="M 3.5709635,0 H 0.32226562 V -0.64453123 L 1.8554687,-2.2786458 q 0.3157552,-0.3450521 0.4654948,-0.6022135 0.1529948,-0.2571615 0.1529948,-0.4882812 0,-0.3157552 -0.1595052,-0.4947917 -0.1595052,-0.1822917 -0.4557292,-0.1822917 -0.3190104,0 -0.5045573,0.2213542 -0.1822916,0.218099 -0.1822916,0.5761719 H 0.22786458 q 0,-0.4329427 0.20507812,-0.7910156 0.20833333,-0.358073 0.5859375,-0.5598959 0.3776041,-0.2050781 0.8561198,-0.2050781 0.7324218,0 1.1360676,0.3515625 0.4069011,0.3515625 0.4069011,0.9928385 0,0.3515625 -0.1822917,0.7161458 -0.1822917,0.3645834 -0.625,0.8496094 l -1.0774739,1.13606768 h 2.0377604 z"/></g><g style="font-weight:700;font-size:6.66666651px;font-family:Roboto,sans-serif;fill:#333" id="text204" aria-label="3" transform="translate(-13.714001,-3.6375681)"><path style="font-weight:700;font-size:6.66666651px;font-family:Roboto,sans-serif;fill:#333" id="path392" d="m 1.2792968,-2.7864583 h 0.5013021 q 0.3580729,0 0.530599,-0.1790364 0.172526,-0.1790365 0.172526,-0.4752604 0,-0.2864584 -0.172526,-0.4459636 -0.1692709,-0.1595052 -0.46875,-0.1595052 -0.2701823,0 -0.452474,0.1497396 -0.1822916,0.1464844 -0.1822916,0.3841146 H 0.26692708 q 0,-0.3710937 0.1985677,-0.6640625 0.20182291,-0.2962239 0.55989582,-0.4622396 0.3613281,-0.1660156 0.7942708,-0.1660156 0.7519531,0 1.1783854,0.3613281 0.4264323,0.3580729 0.4264323,0.9895833 0,0.3255209 -0.1985677,0.5989584 -0.1985677,0.2734375 -0.5208333,0.4199218 0.4003906,0.1432292 0.5957031,0.4296875 0.1985677,0.2864583 0.1985677,0.6770833 0,0.63151043 -0.4622396,1.0123698 -0.4589844,0.38085937 -1.2174479,0.38085937 -0.7096354,0 -1.16210933,-0.37434895 Q 0.20833333,-0.68359373 0.20833333,-1.2988281 H 1.1490885 q 0,0.2669271 0.1985677,0.43619791 0.2018229,0.16927083 0.4947917,0.16927083 0.3352864,0 0.5240885,-0.17578124 0.1920573,-0.1790365 0.1920573,-0.4720052 0,-0.7096354 -0.78125,-0.7096354 H 1.2792968 Z"/></g><g style="font-weight:700;font-size:6.66666651px;font-family:Roboto,sans-serif;fill:#333" id="text206" aria-label="4" transform="translate(-6.7433982,-10.103726)"><path style="font-weight:700;font-size:6.66666651px;font-family:Roboto,sans-serif;fill:#333" id="path395" d="M 3.1054687,-1.7838541 H 3.642578 v 0.7584635 H 3.1054687 V 0 H 2.1647135 V -1.0253906 H 0.22135416 L 0.17903645,-1.6178385 2.1549479,-4.7395832 h 0.9505208 z m -1.9889323,0 h 1.0481771 v -1.6731771 l -0.061849,0.1074219 z"/></g><g style="font-weight:700;font-size:6.66666651px;font-family:Roboto,sans-serif;fill:#333" id="text208" aria-label="5" transform="translate(2.7433982,-10.103726)"><path style="font-weight:700;font-size:6.66666651px;font-family:Roboto,sans-serif;fill:#333" id="path398" d="m 0.46223957,-2.3307291 0.2734375,-2.4088541 H 3.391927 V -3.955078 H 1.5071614 l -0.1171875,1.0188802 q 0.3352865,-0.1790365 0.7128906,-0.1790365 0.6770834,0 1.0611979,0.4199219 0.3841146,0.4199218 0.3841146,1.1751301 0,0.4589844 -0.1953125,0.82356773 -0.1920573,0.36132812 -0.5533854,0.56315103 -0.3613281,0.19856771 -0.8528646,0.19856771 -0.4296875,0 -0.797526,-0.17252604 Q 0.78124998,-0.28320312 0.56640624,-0.59895832 0.3548177,-0.91471352 0.34179687,-1.3183593 H 1.2727864 q 0.029297,0.2962239 0.2050781,0.46223953 0.1790365,0.16276041 0.4654948,0.16276041 0.3190104,0 0.4915365,-0.22786458 0.172526,-0.23111976 0.172526,-0.65104166 0,-0.4036458 -0.1985677,-0.6184896 -0.1985677,-0.2148437 -0.563151,-0.2148437 -0.3352865,0 -0.5436198,0.1757812 l -0.091146,0.084636 z"/></g><g style="font-weight:700;font-size:6.66666651px;font-family:Roboto,sans-serif;fill:#333" id="text210" aria-label="6" transform="translate(9.7140013,-3.6375681)"><path style="font-weight:700;font-size:6.66666651px;font-family:Roboto,sans-serif;fill:#333" id="path401" d="m 2.8743489,-4.7884113 v 0.7747395 h -0.091146 q -0.6380209,0.00977 -1.0286459,0.3320313 -0.3873697,0.3222656 -0.4654947,0.8951822 0.3776041,-0.3841145 0.953776,-0.3841145 0.6184896,0 0.9830729,0.4427083 0.3645833,0.4427083 0.3645833,1.1653645 0,0.4622396 -0.2018229,0.83658856 -0.1985677,0.37434895 -0.5664062,0.58268228 -0.3645834,0.20833333 -0.8268229,0.20833333 -0.7486979,0 -1.21093751,-0.52083333 Q 0.32552083,-0.97656248 0.32552083,-1.8457031 v -0.3385416 q 0,-0.7714844 0.28971353,-1.3606771 0.29296874,-0.5924479 0.83658854,-0.9147135 0.546875,-0.3255208 1.266276,-0.328776 z m -0.9179687,2.3730468 q -0.2278646,0 -0.4134115,0.1204427 -0.1855469,0.1171875 -0.2734375,0.3125 v 0.2864583 q 0,0.4720052 0.1855469,0.73893227 0.1855469,0.26367187 0.5208333,0.26367187 0.3027344,0 0.4882812,-0.2376302 0.1888021,-0.24088544 0.1888021,-0.62174474 0,-0.3873698 -0.1888021,-0.625 -0.188802,-0.2376302 -0.5078124,-0.2376302 z"/></g><g style="font-weight:700;font-size:6.66666651px;font-family:Roboto,sans-serif;fill:#333" id="text212" aria-label="7" transform="translate(10.425309,5.8225242)"><path style="font-weight:700;font-size:6.66666651px;font-family:Roboto,sans-serif;fill:#333" id="path404" d="M 3.5449218,-4.2122395 1.7122395,0 H 0.71940102 L 2.5553385,-3.9778645 H 0.1985677 v -0.7617187 h 3.3463541 z"/></g><g style="font-weight:700;font-size:6.66666651px;font-family:Roboto,sans-serif;fill:#333" id="text214" aria-label="8" transform="translate(4.5,13.25833)"><path style="font-weight:700;font-size:6.66666651px;font-family:Roboto,sans-serif;fill:#333" id="path407" d="m 3.4114583,-3.4798176 q 0,0.345052 -0.1725261,0.6119791 -0.172526,0.2669271 -0.4752604,0.4264323 0.3450521,0.1660156 0.546875,0.4589844 0.2018229,0.2897135 0.2018229,0.6835937 0,0.63151041 -0.4296875,0.99934894 -0.4296875,0.36458333 -1.1686197,0.36458333 -0.7389323,0 -1.17187502,-0.36783854 -0.4329427,-0.36783853 -0.4329427,-0.99609373 0,-0.3938802 0.20182292,-0.6868489 0.20182291,-0.2929688 0.5436198,-0.4557292 -0.30273439,-0.1595052 -0.47526043,-0.4264323 -0.16927083,-0.2669271 -0.16927083,-0.6119791 0,-0.6054688 0.40364582,-0.9635417 0.40364584,-0.3613281 1.09700514,-0.3613281 0.6901042,0 1.09375,0.3580729 0.4069011,0.3548177 0.4069011,0.9667969 z m -0.843099,2.1126301 q 0,-0.3092448 -0.1790364,-0.4947916 Q 2.2102864,-2.047526 1.907552,-2.047526 q -0.2994791,0 -0.4785156,0.1855469 Q 1.25,-1.6796875 1.25,-1.3671875 q 0,0.3027344 0.1757812,0.48828127 0.1757813,0.18554687 0.4882813,0.18554687 0.3059895,0 0.4785156,-0.17903645 0.1757812,-0.17903649 0.1757812,-0.49479169 z m -0.097656,-2.0670572 q 0,-0.2766927 -0.1464844,-0.4427083 -0.1464844,-0.1692709 -0.4134115,-0.1692709 -0.2636718,0 -0.4101562,0.1627605 -0.1464844,0.1627604 -0.1464844,0.4492187 0,0.2832031 0.1464844,0.4557291 0.1464844,0.1725261 0.4134115,0.1725261 0.266927,0 0.4101562,-0.1725261 0.1464844,-0.172526 0.1464844,-0.4557291 z"/></g></g></g><g style="font-weight:700;font-size:6.66666651px;font-family:Roboto,sans-serif;letter-spacing:2px;fill:#333" id="text120" aria-label="FWD"><path style="font-weight:700;font-size:6.66666651px;font-family:Roboto,sans-serif;letter-spacing:2px;fill:#333" id="path410" d="m 17.974739,163.06315 h -1.875 V 165 h -0.976562 v -4.73958 h 3.085937 v 0.79101 h -2.109375 v 1.22396 h 1.875 z"/><path style="font-weight:700;font-size:6.66666651px;font-family:Roboto,sans-serif;letter-spacing:2px;fill:#333" id="path412" d="m 24.473437,163.63281 0.638021,-3.37239 h 0.973307 L 25.033333,165 H 24.05026 L 23.278776,161.82943 22.507291,165 h -0.983073 l -1.051432,-4.73958 h 0.973307 l 0.641276,3.36588 0.78125,-3.36588 h 0.826823 z"/><path style="font-weight:700;font-size:6.66666651px;font-family:Roboto,sans-serif;letter-spacing:2px;fill:#333" id="path414" d="m 28.615364,165 v -4.73958 h 1.458334 q 0.625,0 1.116536,0.2832 0.494792,0.27995 0.771484,0.80078 0.276693,0.51758 0.276693,1.17839 v 0.2181 q 0,0.6608 -0.273437,1.17513 -0.270183,0.51432 -0.764974,0.79752 -0.494792,0.2832 -1.116537,0.28646 z m 0.976563,-3.94857 v 3.16406 h 0.472005 q 0.572917,0 0.875651,-0.37434 0.302734,-0.37435 0.309245,-1.07097 v -0.25065 q 0,-0.72265 -0.299479,-1.09375 -0.299479,-0.37435 -0.875651,-0.37435 z"/></g><g style="font-weight:700;font-size:6.66666651px;font-family:Roboto,sans-serif;letter-spacing:2px;fill:#333" id="text122" aria-label="REV"><path style="font-weight:700;font-size:6.66666651px;font-family:Roboto,sans-serif;letter-spacing:2px;fill:#333" id="path417" d="M 17.377734,198.26497 H 16.599739 V 200 h -0.976562 v -4.73958 h 1.761068 q 0.839843,0 1.295572,0.37435 0.45573,0.37434 0.45573,1.05794 0,0.48502 -0.211589,0.81055 -0.208333,0.32226 -0.634766,0.51432 l 1.025391,1.93685 V 200 h -1.048177 z m -0.777995,-0.79101 H 17.3875 q 0.367838,0 0.569661,-0.18555 0.201823,-0.1888 0.201823,-0.51758 0,-0.33528 -0.192057,-0.52734 -0.188802,-0.19206 -0.582682,-0.19206 h -0.784506 z"/><path style="font-weight:700;font-size:6.66666651px;font-family:Roboto,sans-serif;letter-spacing:2px;fill:#333" id="path419" d="m 24.732552,197.94596 h -1.875 v 1.26953 h 2.200521 V 200 h -3.177084 v -4.73958 h 3.170573 v 0.79101 h -2.19401 v 1.12956 h 1.875 z"/><path style="font-weight:700;font-size:6.66666651px;font-family:Roboto,sans-serif;letter-spacing:2px;fill:#333" id="path421" d="m 29.382291,198.82487 1.074219,-3.56445 h 1.08724 L 29.893359,200 h -1.01888 l -1.64388,-4.73958 h 1.083984 z"/></g><g style="font-weight:700;font-size:8px;font-family:Roboto,sans-serif;letter-spacing:1.5px;fill:#333" id="text126" aria-label="SELECT"><path style="font-weight:700;font-size:8px;font-family:Roboto,sans-serif;letter-spacing:1.5px;fill:#333" id="path240" d="m 8.9570313,218.50781 q 0,-0.33203 -0.234375,-0.50781 -0.234375,-0.17969 -0.8437501,-0.375 -0.609375,-0.19922 -0.9648437,-0.39063 -0.96875,-0.52343 -0.96875,-1.41015 0,-0.46094 0.2578125,-0.82031 0.2617187,-0.36329 0.7460937,-0.56641 0.4882813,-0.20313 1.0937501,-0.20313 0.609375,0 1.0859375,0.22266 0.4765625,0.21875 0.7382812,0.62109 0.2656255,0.40235 0.2656255,0.91407 H 8.9609375 q 0,-0.39063 -0.2460937,-0.60547 -0.2460938,-0.21875 -0.6914063,-0.21875 -0.4296875,0 -0.6679688,0.18359 -0.2382812,0.17969 -0.2382812,0.47656 0,0.27735 0.2773437,0.46485 0.28125,0.1875 0.8242188,0.35156 1,0.30078 1.4570313,0.74609 0.4570317,0.44532 0.4570317,1.10938 0,0.73828 -0.5585942,1.16016 -0.5585938,0.41796 -1.5039063,0.41796 -0.65625,0 -1.1953125,-0.23828 -0.5390625,-0.24218 -0.8242188,-0.66015 -0.28125,-0.41797 -0.28125,-0.96875 h 1.1757813 q 0,0.9414 1.125,0.9414 0.4179688,0 0.6523438,-0.16797 0.234375,-0.17187 0.234375,-0.47656 z"/><path style="font-weight:700;font-size:8px;font-family:Roboto,sans-serif;letter-spacing:1.5px;fill:#333" id="path242" d="m 15.851563,217.53516 h -2.25 v 1.52343 h 2.640624 V 220 h -3.812499 v -5.6875 h 3.804687 v 0.94922 h -2.632812 v 1.35547 h 2.25 z"/><path style="font-weight:700;font-size:8px;font-family:Roboto,sans-serif;letter-spacing:1.5px;fill:#333" id="path244" d="m 19.601562,219.05859 h 2.488282 V 220 h -3.660157 v -5.6875 h 1.171875 z"/><path style="font-weight:700;font-size:8px;font-family:Roboto,sans-serif;letter-spacing:1.5px;fill:#333" id="path246" d="m 27.679687,217.53516 h -2.25 v 1.52343 h 2.640625 V 220 h -3.8125 v -5.6875 H 28.0625 v 0.94922 h -2.632813 v 1.35547 h 2.25 z"/><path style="font-weight:700;font-size:8px;font-family:Roboto,sans-serif;letter-spacing:1.5px;fill:#333" id="path248" d="m 34.722656,218.10547 q -0.06641,0.91797 -0.679687,1.44531 -0.609375,0.52734 -1.609375,0.52734 -1.09375,0 -1.722657,-0.73437 -0.625,-0.73828 -0.625,-2.02344 v -0.34765 q 0,-0.82032 0.289063,-1.44532 0.289062,-0.625 0.824219,-0.95703 0.539062,-0.33594 1.25,-0.33594 0.984375,0 1.585937,0.52735 0.601563,0.52734 0.695313,1.48047 h -1.171875 q -0.04297,-0.55078 -0.308594,-0.79688 -0.261719,-0.25 -0.800781,-0.25 -0.585938,0 -0.878907,0.42188 -0.289062,0.41797 -0.296875,1.30078 v 0.42969 q 0,0.92187 0.277344,1.34765 0.28125,0.42578 0.882813,0.42578 0.542968,0 0.808593,-0.24609 0.269532,-0.25 0.308594,-0.76953 z"/><path style="font-weight:700;font-size:8px;font-family:Roboto,sans-serif;letter-spacing:1.5px;fill:#333" id="path250" d="M 41.164062,215.26172 H 39.421875 V 220 H 38.25 v -4.73828 h -1.71875 v -0.94922 h 4.632812 z"/></g><g id="use128" transform="translate(1,222)"><g id="g236" transform="translate(22.5,22.5)"><g style="font-weight:700;font-size:6.66666651px;font-family:Roboto,sans-serif;fill:#333" id="text220" aria-label="1" transform="translate(-12,19.320508)"><path style="font-weight:700;font-size:6.66666651px;font-family:Roboto,sans-serif;fill:#333" id="path253" d="M 2.6074218,0 H 1.6666666 v -3.626302 l -1.12304682,0.3483073 v -0.764974 L 2.5065104,-4.7460936 h 0.1009114 z"/></g><g style="font-weight:700;font-size:6.66666651px;font-family:Roboto,sans-serif;fill:#333" id="text222" aria-label="2" transform="translate(-21.11586,7.8808065)"><path style="font-weight:700;font-size:6.66666651px;font-family:Roboto,sans-serif;fill:#333" id="path256" d="M 3.5709635,0 H 0.32226562 V -0.64453123 L 1.8554687,-2.2786458 q 0.3157552,-0.3450521 0.4654948,-0.6022135 0.1529948,-0.2571615 0.1529948,-0.4882812 0,-0.3157552 -0.1595052,-0.4947917 -0.1595052,-0.1822917 -0.4557292,-0.1822917 -0.3190104,0 -0.5045573,0.2213542 -0.1822916,0.218099 -0.1822916,0.5761719 H 0.22786458 q 0,-0.4329427 0.20507812,-0.7910156 0.20833333,-0.358073 0.5859375,-0.5598959 0.3776041,-0.2050781 0.8561198,-0.2050781 0.7324218,0 1.1360676,0.3515625 0.4069011,0.3515625 0.4069011,0.9928385 0,0.3515625 -0.1822917,0.7161458 -0.1822917,0.3645834 -0.625,0.8496094 l -1.0774739,1.13606768 h 2.0377604 z"/></g><g style="font-weight:700;font-size:6.66666651px;font-family:Roboto,sans-serif;fill:#333" id="text224" aria-label="3" transform="translate(-20.02154,-6.6731817)"><path style="font-weight:700;font-size:6.66666651px;font-family:Roboto,sans-serif;fill:#333" id="path259" d="m 1.2792968,-2.7864583 h 0.5013021 q 0.3580729,0 0.530599,-0.1790364 0.172526,-0.1790365 0.172526,-0.4752604 0,-0.2864584 -0.172526,-0.4459636 -0.1692709,-0.1595052 -0.46875,-0.1595052 -0.2701823,0 -0.452474,0.1497396 -0.1822916,0.1464844 -0.1822916,0.3841146 H 0.26692708 q 0,-0.3710937 0.1985677,-0.6640625 0.20182291,-0.2962239 0.55989582,-0.4622396 0.3613281,-0.1660156 0.7942708,-0.1660156 0.7519531,0 1.1783854,0.3613281 0.4264323,0.3580729 0.4264323,0.9895833 0,0.3255209 -0.1985677,0.5989584 -0.1985677,0.2734375 -0.5208333,0.4199218 0.4003906,0.1432292 0.5957031,0.4296875 0.1985677,0.2864583 0.1985677,0.6770833 0,0.63151043 -0.4622396,1.0123698 -0.4589844,0.38085937 -1.2174479,0.38085937 -0.7096354,0 -1.16210933,-0.37434895 Q 0.20833333,-0.68359373 0.20833333,-1.2988281 H 1.1490885 q 0,0.2669271 0.1985677,0.43619791 0.2018229,0.16927083 0.4947917,0.16927083 0.3352864,0 0.5240885,-0.17578124 0.1920573,-0.1790365 0.1920573,-0.4720052 0,-0.7096354 -0.78125,-0.7096354 H 1.2792968 Z"/></g><g style="font-weight:700;font-size:6.66666651px;font-family:Roboto,sans-serif;fill:#333" id="text226" aria-label="4" transform="translate(-9.2975357,-16.621116)"><path style="font-weight:700;font-size:6.66666651px;font-family:Roboto,sans-serif;fill:#333" id="path262" d="M 3.1054687,-1.7838541 H 3.642578 v 0.7584635 H 3.1054687 V 0 H 2.1647135 V -1.0253906 H 0.22135416 L 0.17903645,-1.6178385 2.1549479,-4.7395832 h 0.9505208 z m -1.9889323,0 h 1.0481771 v -1.6731771 l -0.061849,0.1074219 z"/></g><g style="font-weight:700;font-size:6.66666651px;font-family:Roboto,sans-serif;fill:#333" id="text228" aria-label="5" transform="translate(5.2975357,-16.621116)"><path style="font-weight:700;font-size:6.66666651px;font-family:Roboto,sans-serif;fill:#333" id="path265" d="m 0.46223957,-2.3307291 0.2734375,-2.4088541 H 3.391927 V -3.955078 H 1.5071614 l -0.1171875,1.0188802 q 0.3352865,-0.1790365 0.7128906,-0.1790365 0.6770834,0 1.0611979,0.4199219 0.3841146,0.4199218 0.3841146,1.1751301 0,0.4589844 -0.1953125,0.82356773 -0.1920573,0.36132812 -0.5533854,0.56315103 -0.3613281,0.19856771 -0.8528646,0.19856771 -0.4296875,0 -0.797526,-0.17252604 Q 0.78124998,-0.28320312 0.56640624,-0.59895832 0.3548177,-0.91471352 0.34179687,-1.3183593 H 1.2727864 q 0.029297,0.2962239 0.2050781,0.46223953 0.1790365,0.16276041 0.4654948,0.16276041 0.3190104,0 0.4915365,-0.22786458 0.172526,-0.23111976 0.172526,-0.65104166 0,-0.4036458 -0.1985677,-0.6184896 -0.1985677,-0.2148437 -0.563151,-0.2148437 -0.3352865,0 -0.5436198,0.1757812 l -0.091146,0.084636 z"/></g><g style="font-weight:700;font-size:6.66666651px;font-family:Roboto,sans-serif;fill:#333" id="text230" aria-label="6" transform="translate(16.02154,-6.6731817)"><path style="font-weight:700;font-size:6.66666651px;font-family:Roboto,sans-serif;fill:#333" id="path268" d="m 2.8743489,-4.7884113 v 0.7747395 h -0.091146 q -0.6380209,0.00977 -1.0286459,0.3320313 -0.3873697,0.3222656 -0.4654947,0.8951822 0.3776041,-0.3841145 0.953776,-0.3841145 0.6184896,0 0.9830729,0.4427083 0.3645833,0.4427083 0.3645833,1.1653645 0,0.4622396 -0.2018229,0.83658856 -0.1985677,0.37434895 -0.5664062,0.58268228 -0.3645834,0.20833333 -0.8268229,0.20833333 -0.7486979,0 -1.21093751,-0.52083333 Q 0.32552083,-0.97656248 0.32552083,-1.8457031 v -0.3385416 q 0,-0.7714844 0.28971353,-1.3606771 0.29296874,-0.5924479 0.83658854,-0.9147135 0.546875,-0.3255208 1.266276,-0.328776 z m -0.9179687,2.3730468 q -0.2278646,0 -0.4134115,0.1204427 -0.1855469,0.1171875 -0.2734375,0.3125 v 0.2864583 q 0,0.4720052 0.1855469,0.73893227 0.1855469,0.26367187 0.5208333,0.26367187 0.3027344,0 0.4882812,-0.2376302 0.1888021,-0.24088544 0.1888021,-0.62174474 0,-0.3873698 -0.1888021,-0.625 -0.188802,-0.2376302 -0.5078124,-0.2376302 z"/></g><g style="font-weight:700;font-size:6.66666651px;font-family:Roboto,sans-serif;fill:#333" id="text232" aria-label="7" transform="translate(17.11586,7.8808065)"><path style="font-weight:700;font-size:6.66666651px;font-family:Roboto,sans-serif;fill:#333" id="path271" d="M 3.5449218,-4.2122395 1.7122395,0 H 0.71940102 L 2.5553385,-3.9778645 H 0.1985677 v -0.7617187 h 3.3463541 z"/></g><g style="font-weight:700;font-size:6.66666651px;font-family:Roboto,sans-serif;fill:#333" id="text234" aria-label="8" transform="translate(8,19.320508)"><path style="font-weight:700;font-size:6.66666651px;font-family:Roboto,sans-serif;fill:#333" id="path274" d="m 3.4114583,-3.4798176 q 0,0.345052 -0.1725261,0.6119791 -0.172526,0.2669271 -0.4752604,0.4264323 0.3450521,0.1660156 0.546875,0.4589844 0.2018229,0.2897135 0.2018229,0.6835937 0,0.63151041 -0.4296875,0.99934894 -0.4296875,0.36458333 -1.1686197,0.36458333 -0.7389323,0 -1.17187502,-0.36783854 -0.4329427,-0.36783853 -0.4329427,-0.99609373 0,-0.3938802 0.20182292,-0.6868489 0.20182291,-0.2929688 0.5436198,-0.4557292 -0.30273439,-0.1595052 -0.47526043,-0.4264323 -0.16927083,-0.2669271 -0.16927083,-0.6119791 0,-0.6054688 0.40364582,-0.9635417 0.40364584,-0.3613281 1.09700514,-0.3613281 0.6901042,0 1.09375,0.3580729 0.4069011,0.3548177 0.4069011,0.9667969 z m -0.843099,2.1126301 q 0,-0.3092448 -0.1790364,-0.4947916 Q 2.2102864,-2.047526 1.907552,-2.047526 q -0.2994791,0 -0.4785156,0.1855469 Q 1.25,-1.6796875 1.25,-1.3671875 q 0,0.3027344 0.1757812,0.48828127 0.1757813,0.18554687 0.4882813,0.18554687 0.3059895,0 0.4785156,-0.17903645 0.1757812,-0.17903649 0.1757812,-0.49479169 z m -0.097656,-2.0670572 q 0,-0.2766927 -0.1464844,-0.4427083 -0.1464844,-0.1692709 -0.4134115,-0.1692709 -0.2636718,0 -0.4101562,0.1627605 -0.1464844,0.1627604 -0.1464844,0.4492187 0,0.2832031 0.1464844,0.4557291 0.1464844,0.1725261 0.4134115,0.1725261 0.266927,0 0.4101562,-0.1725261 0.1464844,-0.172526 0.1464844,-0.4557291 z"/></g></g></g><g id="g134" transform="translate(6.5,267)"><path style="fill:#fafafa" id="rect130" d="m 5,0 h 24 c 2.77,0 5,2.23 5,5 v 29 c 0,2.77 -2.23,5 -5,5 H 5 C 2.23,39 0,36.77 0,34 V 5 C 0,2.23 2.23,0 5,0 Z"/><g style="font-weight:700;font-size:6.66666651px;font-family:Roboto,sans-serif;letter-spacing:2px;fill:#333" id="text132" aria-label="CV" transform="translate(11.5,35)"><path style="font-weight:700;font-size:6.66666651px;font-family:Roboto,sans-serif;letter-spacing:2px;fill:#333" id="path278" d="m 4.1438801,-1.578776 q -0.055338,0.76497394 -0.5664062,1.20442705 -0.5078125,0.43945312 -1.3411458,0.43945312 -0.9114583,0 -1.43554687,-0.61197916 Q 0.27994791,-1.1621093 0.27994791,-2.2330729 v -0.2897135 q 0,-0.6835937 0.24088541,-1.2044271 0.24088541,-0.5208333 0.68684898,-0.797526 0.4492187,-0.2799479 1.0416666,-0.2799479 0.8203125,0 1.3216146,0.4394531 0.501302,0.4394531 0.579427,1.233724 H 3.173828 q -0.035807,-0.4589844 -0.2571614,-0.6640625 -0.218099,-0.2083334 -0.6673177,-0.2083334 -0.4882812,0 -0.7324219,0.3515625 -0.2408854,0.3483073 -0.2473958,1.0839844 v 0.3580729 q 0,0.7682291 0.2311198,1.1230468 0.234375,0.35481774 0.7356771,0.35481774 0.4524739,0 0.6738281,-0.20507812 Q 3.1347656,-1.1458333 3.1673176,-1.578776 Z"/><path style="font-weight:700;font-size:6.66666651px;font-family:Roboto,sans-serif;letter-spacing:2px;fill:#333" id="path280" d="m 8.5364581,-1.1751302 1.0742187,-3.564453 H 10.697916 L 9.0475258,0 H 8.0286456 L 6.3847655,-4.7395832 h 1.0839843 z"/></g></g><path style="fill:#fafafa" id="rect138" d="m 11.5,321 h 24 c 2.77,0 5,2.23 5,5 v 29 c 0,2.77 -2.23,5 -5,5 h -24 c -2.77,0 -5,-2.23 -5,-5 v -29 c 0,-2.77 2.23,-5 5,-5 z"/><g style="font-weight:700;font-size:6.66666651px;font-family:Roboto,sans-serif;letter-spacing:2px;fill:#333" id="text140" aria-label="IN"><path style="font-weight:700;font-size:6.66666651px;font-family:Roboto,sans-serif;letter-spacing:2px;fill:#333" id="path284" d="m 20.461589,356 h -0.976563 v -4.73958 h 0.976563 z"/><path style="font-weight:700;font-size:6.66666651px;font-family:Roboto,sans-serif;letter-spacing:2px;fill:#333" id="path286" d="m 27.217448,356 h -0.976563 l -1.901041,-3.11849 V 356 h -0.976563 v -4.73958 h 0.976563 l 1.904296,3.125 v -3.125 h 0.973308 z"/></g><path style="fill:#bbb" id="rect144" d="m 54.5,23 h 24 c 2.77,0 5,2.23 5,5 v 327 c 0,2.77 -2.23,5 -5,5 h -24 c -2.77,0 -5,-2.23 -5,-5 V 28 c 0,-2.77 2.23,-5 5,-5 z"/><g style="font-weight:700;font-size:6.66666651px;font-family:Roboto,sans-serif;letter-spacing:2px;fill:#333" id="text146" aria-label="OUT"><path style="font-weight:700;font-size:6.66666651px;font-family:Roboto,sans-serif;letter-spacing:2px;fill:#333" id="path290" d="m 62.316406,29.73763 q 0,0.69987 -0.247396,1.227214 -0.247396,0.527344 -0.709635,0.813802 -0.458984,0.286458 -1.054688,0.286458 -0.589192,0 -1.051432,-0.283203 -0.462239,-0.283203 -0.716146,-0.807292 -0.253906,-0.527343 -0.257161,-1.210937 v -0.234375 q 0,-0.69987 0.250651,-1.230469 0.253906,-0.533854 0.712891,-0.817057 0.462239,-0.286458 1.054687,-0.286458 0.592448,0 1.051432,0.286458 0.46224,0.283203 0.712891,0.817057 0.253906,0.530599 0.253906,1.227214 z m -0.989583,-0.214843 q 0,-0.745443 -0.266927,-1.132813 -0.266927,-0.38737 -0.761719,-0.38737 -0.491536,0 -0.758463,0.384115 -0.266928,0.380859 -0.270183,1.119791 v 0.23112 q 0,0.725912 0.266927,1.126302 0.266927,0.400391 0.768229,0.400391 0.491537,0 0.755209,-0.384115 0.263672,-0.387369 0.266927,-1.126302 z"/><path style="font-weight:700;font-size:6.66666651px;font-family:Roboto,sans-serif;letter-spacing:2px;fill:#333" id="path292" d="m 68.619792,27.260417 v 3.121744 q 0,0.777995 -0.488282,1.230469 -0.485026,0.452474 -1.328125,0.452474 -0.830078,0 -1.318359,-0.439453 -0.488281,-0.439453 -0.498047,-1.207682 v -3.157552 h 0.976563 v 3.128255 q 0,0.465495 0.221354,0.680338 0.224609,0.211589 0.618489,0.211589 0.823568,0 0.836589,-0.865885 v -3.154297 z"/><path style="font-weight:700;font-size:6.66666651px;font-family:Roboto,sans-serif;letter-spacing:2px;fill:#333" id="path294" d="M 74.988281,28.051432 H 73.536458 V 32 h -0.976563 v -3.948568 h -1.432291 v -0.791015 h 3.860677 z"/></g><g style="font-weight:700;font-size:6.66666651px;font-family:Roboto,sans-serif;letter-spacing:2px;fill:#333" id="text148" aria-label="1"><path style="font-weight:700;font-size:6.66666651px;font-family:Roboto,sans-serif;letter-spacing:2px;fill:#333" id="path297" d="m 63.107422,67 h -0.940755 v -3.626302 l -1.123047,0.348307 v -0.764974 l 1.96289,-0.703125 h 0.100912 z"/></g><g style="font-weight:700;font-size:6.66666651px;font-family:Roboto,sans-serif;letter-spacing:2px;fill:#333" id="text150" aria-label="2"><path style="font-weight:700;font-size:6.66666651px;font-family:Roboto,sans-serif;letter-spacing:2px;fill:#333" id="path300" d="m 64.070963,108.3 h -3.248697 v -0.64453 l 1.533203,-1.63411 q 0.315755,-0.34505 0.465494,-0.60222 0.152995,-0.25716 0.152995,-0.48828 0,-0.31575 -0.159505,-0.49479 -0.159505,-0.18229 -0.455729,-0.18229 -0.31901,0 -0.504557,0.22135 -0.182292,0.2181 -0.182292,0.57618 h -0.94401 q 0,-0.43295 0.205078,-0.79102 0.208333,-0.35807 0.585937,-0.5599 0.377604,-0.20507 0.85612,-0.20507 0.732422,0 1.136068,0.35156 0.406901,0.35156 0.406901,0.99284 0,0.35156 -0.182292,0.71614 -0.182292,0.36459 -0.625,0.84961 l -1.077474,1.13607 h 2.03776 z"/></g><g style="font-weight:700;font-size:6.66666651px;font-family:Roboto,sans-serif;letter-spacing:2px;fill:#333" id="text152" aria-label="3"><path style="font-weight:700;font-size:6.66666651px;font-family:Roboto,sans-serif;letter-spacing:2px;fill:#333" id="path303" d="m 61.779297,147.81355 h 0.501302 q 0.358073,0 0.530599,-0.17904 0.172526,-0.17904 0.172526,-0.47526 0,-0.28646 -0.172526,-0.44596 -0.169271,-0.15951 -0.46875,-0.15951 -0.270182,0 -0.452474,0.14974 -0.182292,0.14649 -0.182292,0.38412 h -0.940755 q 0,-0.3711 0.198568,-0.66407 0.201823,-0.29622 0.559896,-0.46224 0.361328,-0.16601 0.79427,-0.16601 0.751954,0 1.178386,0.36133 0.426432,0.35807 0.426432,0.98958 0,0.32552 -0.198568,0.59896 -0.198567,0.27344 -0.520833,0.41992 0.400391,0.14323 0.595703,0.42969 0.198568,0.28646 0.198568,0.67708 0,0.63151 -0.46224,1.01237 -0.458984,0.38086 -1.217448,0.38086 -0.709635,0 -1.162109,-0.37435 -0.449219,-0.37435 -0.449219,-0.98958 h 0.940756 q 0,0.26693 0.198567,0.4362 0.201823,0.16927 0.494792,0.16927 0.335286,0 0.524088,-0.17578 0.192058,-0.17904 0.192058,-0.47201 0,-0.70964 -0.78125,-0.70964 h -0.498047 z"/></g><g style="font-weight:700;font-size:6.66666651px;font-family:Roboto,sans-serif;letter-spacing:2px;fill:#333" id="text154" aria-label="4"><path style="font-weight:700;font-size:6.66666651px;font-family:Roboto,sans-serif;letter-spacing:2px;fill:#333" id="path306" d="m 63.605469,189.11614 h 0.537109 v 0.75846 h -0.537109 v 1.02539 h -0.940756 v -1.02539 h -1.943359 l -0.04232,-0.59244 1.975912,-3.12175 h 0.950521 z m -1.988933,0 h 1.048177 v -1.67318 l -0.06185,0.10742 z"/></g><g style="font-weight:700;font-size:6.66666651px;font-family:Roboto,sans-serif;letter-spacing:2px;fill:#333" id="text156" aria-label="5"><path style="font-weight:700;font-size:6.66666651px;font-family:Roboto,sans-serif;letter-spacing:2px;fill:#333" id="path309" d="m 60.96224,229.76928 0.273437,-2.40886 h 2.65625 v 0.78451 h -1.884766 l -0.117187,1.01888 q 0.335286,-0.17904 0.712891,-0.17904 0.677083,0 1.061197,0.41992 0.384115,0.41993 0.384115,1.17513 0,0.45899 -0.195312,0.82357 -0.192058,0.36133 -0.553386,0.56315 -0.361328,0.19857 -0.852864,0.19857 -0.429688,0 -0.797526,-0.17253 -0.367839,-0.17578 -0.582683,-0.49153 -0.211588,-0.31576 -0.224609,-0.7194 h 0.930989 q 0.0293,0.29622 0.205079,0.46224 0.179036,0.16276 0.465494,0.16276 0.319011,0 0.491537,-0.22787 0.172526,-0.23112 0.172526,-0.65104 0,-0.40365 -0.198568,-0.61849 -0.198568,-0.21484 -0.563151,-0.21484 -0.335286,0 -0.54362,0.17578 l -0.09115,0.0846 z"/></g><g style="font-weight:700;font-size:6.66666651px;font-family:Roboto,sans-serif;letter-spacing:2px;fill:#333" id="text158" aria-label="6"><path style="font-weight:700;font-size:6.66666651px;font-family:Roboto,sans-serif;letter-spacing:2px;fill:#333" id="path312" d="m 63.374349,268.61158 v 0.77474 h -0.09115 q -0.638021,0.01 -1.028646,0.33203 -0.38737,0.32227 -0.465495,0.89519 0.377605,-0.38412 0.953776,-0.38412 0.61849,0 0.983073,0.44271 0.364584,0.44271 0.364584,1.16536 0,0.46224 -0.201823,0.83659 -0.198568,0.37435 -0.566406,0.58268 -0.364584,0.20834 -0.826823,0.20834 -0.748698,0 -1.210938,-0.52084 -0.458984,-0.52083 -0.458984,-1.38997 v -0.33854 q 0,-0.77149 0.289713,-1.36068 0.292969,-0.59245 0.836589,-0.91471 0.546875,-0.32552 1.266276,-0.32878 z m -0.917969,2.37305 q -0.227864,0 -0.413411,0.12044 -0.185547,0.11719 -0.273438,0.3125 v 0.28646 q 0,0.47201 0.185547,0.73893 0.185547,0.26367 0.520833,0.26367 0.302735,0 0.488282,-0.23763 0.188802,-0.24088 0.188802,-0.62174 0,-0.38737 -0.188802,-0.625 -0.188802,-0.23763 -0.507813,-0.23763 z"/></g><g style="font-weight:700;font-size:6.66666651px;font-family:Roboto,sans-serif;letter-spacing:2px;fill:#333" id="text160" aria-label="7"><path style="font-weight:700;font-size:6.66666651px;font-family:Roboto,sans-serif;letter-spacing:2px;fill:#333" id="path315" d="m 64.044922,310.48777 -1.832682,4.21224 h -0.992839 l 1.835937,-3.97786 h -2.35677 v -0.76172 h 3.346354 z"/></g><g style="font-weight:700;font-size:6.66666651px;font-family:Roboto,sans-serif;letter-spacing:2px;fill:#333" id="text162" aria-label="8"><path style="font-weight:700;font-size:6.66666651px;font-family:Roboto,sans-serif;letter-spacing:2px;fill:#333" id="path318" d="m 63.911458,352.52018 q 0,0.34505 -0.172526,0.61198 -0.172526,0.26693 -0.47526,0.42643 0.345052,0.16602 0.546875,0.45899 0.201823,0.28971 0.201823,0.68359 0,0.63151 -0.429688,0.99935 -0.429687,0.36458 -1.16862,0.36458 -0.738932,0 -1.171875,-0.36783 -0.432942,-0.36784 -0.432942,-0.9961 0,-0.39388 0.201823,-0.68685 0.201823,-0.29297 0.543619,-0.45573 -0.302734,-0.1595 -0.47526,-0.42643 -0.169271,-0.26693 -0.169271,-0.61198 0,-0.60547 0.403646,-0.96354 0.403646,-0.36133 1.097005,-0.36133 0.690104,0 1.09375,0.35808 0.406901,0.35481 0.406901,0.96679 z m -0.843099,2.11263 q 0,-0.30924 -0.179036,-0.49479 -0.179037,-0.18555 -0.481771,-0.18555 -0.299479,0 -0.478516,0.18555 -0.179036,0.18229 -0.179036,0.49479 0,0.30274 0.175781,0.48828 0.175781,0.18555 0.488281,0.18555 0.30599,0 0.478516,-0.17904 0.175781,-0.17903 0.175781,-0.49479 z m -0.09766,-2.06705 q 0,-0.2767 -0.146484,-0.44271 -0.146485,-0.16927 -0.413412,-0.16927 -0.263672,0 -0.410156,0.16276 -0.146484,0.16276 -0.146484,0.44922 0,0.2832 0.146484,0.45572 0.146484,0.17253 0.413411,0.17253 0.266928,0 0.410157,-0.17253 0.146484,-0.17252 0.146484,-0.45572 z"/></g></svg>