<svg xmlns="http://www.w3.org/2000/svg" xmlns:svg="http://www.w3.org/2000/svg" id="svg16" width="24" height="24" version="1.1" viewBox="0 0 24 24"><metadata id="metadata22"/><path style="fill:#222;stroke:#222;stroke-width:1" id="circle2" d="m 18,12 a 6,6 0 0 1 -6,6 6,6 0 0 1 -6,-6 6,6 0 0 1 6,-6 6,6 0 0 1 6,6 z"/><path style="fill:none;stroke:#f0f0f0;stroke-width:4.5" id="circle4" d="m 21,12 a 9,9 0 0 1 -9,9 9,9 0 0 1 -9,-9 9,9 0 0 1 9,-9 9,9 0 0 1 9,9 z"/><path style="fill:none;stroke:#777;stroke-width:.5" id="circle6" d="m 18,12 a 6,6 0 0 1 -6,6 6,6 0 0 1 -6,-6 6,6 0 0 1 6,-6 6,6 0 0 1 6,6 z"/><path style="fill:none;stroke:#aaa;stroke-width:.5" id="circle8" d="M 18.5,12 A 6.5,6.5 0 0 1 12,18.5 6.5,6.5 0 0 1 5.5,12 6.5,6.5 0 0 1 12,5.5 6.5,6.5 0 0 1 18.5,12 Z"/><path style="fill:none;stroke:#bbb;stroke-width:.5" id="circle10" d="M 23.2,12 A 11.2,11.2 0 0 1 12,23.2 11.2,11.2 0 0 1 0.80000019,12 11.2,11.2 0 0 1 12,0.80000019 11.2,11.2 0 0 1 23.2,12 Z"/><path style="fill:none;stroke:#888;stroke-width:.5" id="circle12" d="M 23.7,12 A 11.7,11.7 0 0 1 12,23.7 11.7,11.7 0 0 1 0.30000019,12 11.7,11.7 0 0 1 12,0.30000019 11.7,11.7 0 0 1 23.7,12 Z"/></svg>