<svg xmlns="http://www.w3.org/2000/svg" xmlns:svg="http://www.w3.org/2000/svg" id="svg157" width="45" height="380" version="1.1" viewBox="0 0 45 380"><metadata id="metadata161"/><style id="style2">text{fill:#333;font-family:&apos;Roboto&apos;,sans-serif;font-weight:700}</style><defs id="defs95"><symbol id="knob-medium" viewBox="0 0 26 26"><g id="g10" transform="translate(13 13)"><polyline id="polyline4" stroke="#00f" stroke-width="1" points="-3 0 3 0"/><polyline id="polyline6" stroke="#00f" stroke-width="1" points="0 -3 0 3"/><circle id="circle8" cx="0" cy="0" r="12.5" fill="none" stroke="#00f" stroke-width="1"/></g></symbol><symbol id="knob-smallest" viewBox="0 0 16 16"><g id="g19" transform="translate(8 8)"><polyline id="polyline13" stroke="#00f" stroke-width="1" points="-3 0 3 0"/><polyline id="polyline15" stroke="#00f" stroke-width="1" points="0 -3 0 3"/><circle id="circle17" r="7.5" fill="none" stroke="#00f" stroke-width="1"/></g></symbol><symbol id="knobguide-time" viewBox="0 0 45 45"><g id="g36" transform="translate(22.5 22.5)"><text id="text22" font-size="5pt" transform="rotate(-240) translate(18 0) rotate(240) translate(-1.9 2.2)">0</text><polyline id="polyline24" stroke="#333" stroke-width=".3" points="0 0 1.5 0" transform="rotate(-172.92) translate(15 0)"/><text id="text26" font-size="5pt" transform="rotate(-145.13) translate(17 0) rotate(145.13) translate(-2.5 2.2)">1</text><polyline id="polyline28" stroke="#333" stroke-width=".3" points="0 0 2.5 0" transform="rotate(-75.68) translate(15 0)"/><text id="text30" font-size="5pt" transform="rotate(-27.87) translate(17 0) rotate(27.87) translate(-2 2.2)">5</text><polyline id="polyline32" stroke="#333" stroke-width=".3" points="0 0 2.5 0" transform="rotate(19.81) translate(15 0)"/><text id="text34" font-size="5pt" transform="rotate(60) translate(18 0) rotate(-60) translate(-1.9 2.2)">10</text></g></symbol><symbol id="knobguide-rise-shape" viewBox="0 0 45 45"><g id="g57" transform="translate(20 20)"><polyline id="polyline39" stroke="#333" stroke-width=".3" points="0 0 2.5 0" transform="rotate(-52.5) translate(10 0)"/><polyline id="polyline41" stroke="#333" stroke-width=".3" points="0 0 2.5 0" transform="rotate(-15) translate(10 0)"/><polyline id="polyline43" stroke="#333" stroke-width=".3" points="0 0 2.5 0" transform="rotate(22.5) translate(10 0)"/><polyline id="polyline45" stroke="#333" stroke-width=".3" points="0 0 2.5 0" transform="rotate(-127.5) translate(10 0)"/><polyline id="polyline47" stroke="#333" stroke-width=".3" points="0 0 2.5 0" transform="rotate(-165) translate(10 0)"/><polyline id="polyline49" stroke="#333" stroke-width=".3" points="0 0 2.5 0" transform="rotate(-202.5) translate(10 0)"/><path id="path51" fill="none" stroke="#333" stroke-width="1" d="M -3.5 0 Q 0 3.5, 3.5 0" transform="rotate(60) translate(13 0) rotate(-60) translate(2 0) rotate(-45) translate(0 0)"/><polyline id="polyline53" fill="none" stroke="#333" stroke-width="1" points="-3.5 0 3.5 0" transform="rotate(-90) translate(13 0) rotate(90) rotate(-45) translate(0 0)"/><path id="path55" fill="none" stroke="#333" stroke-width="1" d="M -3.5 0 Q 0 3.5, 3.5 0" transform="rotate(-240) translate(13 0) rotate(240) translate(-2 0) rotate(135) translate(0 0)"/></g></symbol><symbol id="knobguide-fall-shape" viewBox="0 0 45 45"><g id="g78" transform="translate(20 20)"><polyline id="polyline60" stroke="#333" stroke-width=".3" points="0 0 2.5 0" transform="rotate(-52.5) translate(10 0)"/><polyline id="polyline62" stroke="#333" stroke-width=".3" points="0 0 2.5 0" transform="rotate(-15) translate(10 0)"/><polyline id="polyline64" stroke="#333" stroke-width=".3" points="0 0 2.5 0" transform="rotate(22.5) translate(10 0)"/><polyline id="polyline66" stroke="#333" stroke-width=".3" points="0 0 2.5 0" transform="rotate(-127.5) translate(10 0)"/><polyline id="polyline68" stroke="#333" stroke-width=".3" points="0 0 2.5 0" transform="rotate(-165) translate(10 0)"/><polyline id="polyline70" stroke="#333" stroke-width=".3" points="0 0 2.5 0" transform="rotate(-202.5) translate(10 0)"/><path id="path72" fill="none" stroke="#333" stroke-width="1" d="M -3.5 0 Q 0 3.5, 3.5 0" transform="rotate(60) translate(13 0) rotate(-60) translate(2 0) rotate(-135) translate(0 0)"/><polyline id="polyline74" fill="none" stroke="#333" stroke-width="1" points="-3.5 0 3.5 0" transform="rotate(-90) translate(13 0) rotate(90) rotate(45) translate(0 0)"/><path id="path76" fill="none" stroke="#333" stroke-width="1" d="M -3.5 0 Q 0 3.5, 3.5 0" transform="rotate(-240) translate(13 0) rotate(240) translate(-2 0) rotate(45) translate(0 0)"/></g></symbol><symbol id="input" viewBox="0 0 24 24"><g id="g85" transform="translate(12 12)"><circle id="circle81" cx="0" cy="0" r="5" fill="#0f0" stroke="#0f0" stroke-width="1"/><circle id="circle83" cx="0" cy="0" r="10.5" fill="none" stroke="#0f0" stroke-width="3"/></g></symbol><symbol id="output" viewBox="0 0 24 24"><g id="g92" transform="translate(12 12)"><circle id="circle88" cx="0" cy="0" r="5" fill="red" stroke="red" stroke-width="1"/><circle id="circle90" cx="0" cy="0" r="10.5" fill="none" stroke="red" stroke-width="3"/></g></symbol></defs><path style="fill:#ddd" id="rect97" d="M 0,0 H 45 V 380 H 0 Z"/><path style="fill:none;stroke:#e4e4e4;stroke-width:.5" id="polyline99" d="M 1,1 H 44 V 379 H 1 V 1"/><path style="fill:none;stroke:#ebebeb;stroke-width:.80000001" id="polyline101" d="m 0.5,0.5 h 44 v 379 H 0.5 V 0.5"/><path style="fill:none;stroke:#f2f2f2;stroke-width:1" id="polyline103" d="M 0,0 H 45 V 380 H 0 V 0"/><g style="font-weight:400;font-size:9.33333302px;font-family:Comfortaa,sans-serif;letter-spacing:2.5px;fill:#333" id="text105" aria-label="SLEW" transform="rotate(-90)"><path style="font-weight:400;font-size:9.33333302px;font-family:Comfortaa,sans-serif;letter-spacing:2.5px;fill:#333" id="path265" d="m -372.82667,13.093333 q -0.88666,0 -1.57733,-0.373333 -0.68133,-0.382667 -0.98,-1.026667 -0.0373,-0.06533 -0.0373,-0.149333 0,-0.130667 0.0933,-0.214667 0.10267,-0.09333 0.27067,-0.09333 0.112,0 0.20533,0.06533 0.10267,0.056 0.14933,0.168 0.21467,0.42 0.70934,0.681334 0.504,0.252 1.16666,0.252 0.76534,0 1.232,-0.364 0.46667,-0.373334 0.46667,-1.036 0,-0.588 -0.43867,-0.989334 -0.42933,-0.4013329 -1.29733,-0.5133329 -1.08267,-0.1306666 -1.708,-0.672 -0.616,-0.5506666 -0.616,-1.3439999 0,-0.56 0.29867,-0.98 0.308,-0.4293333 0.84,-0.6533333 0.54133,-0.2333333 1.22266,-0.2333333 0.73734,0 1.29734,0.3266666 0.56,0.3266667 0.87733,0.8493333 0.0653,0.1026667 0.0653,0.224 0,0.1773334 -0.168,0.28 -0.0747,0.037333 -0.168,0.037333 -0.10266,0 -0.196,-0.046667 -0.084,-0.056 -0.14,-0.1493333 -0.52266,-0.8213333 -1.57733,-0.8306667 -0.756,0 -1.19467,0.3173334 -0.43866,0.3173333 -0.43866,0.9053333 0,1.0919999 1.764,1.3253332 1.15733,0.168 1.72666,0.7093334 0.56934,0.5413335 0.56934,1.4279995 0,0.653334 -0.31734,1.129334 -0.31733,0.476 -0.868,0.728 -0.55066,0.242666 -1.232,0.242666 z"/><path style="font-weight:400;font-size:9.33333302px;font-family:Comfortaa,sans-serif;letter-spacing:2.5px;fill:#333" id="path267" d="m -366.02298,13 q -0.14933,0 -0.26133,-0.102667 -0.10267,-0.112 -0.10267,-0.261333 V 6.0746669 q 0,-0.1493333 0.10267,-0.252 0.112,-0.112 0.26133,-0.112 0.15867,0 0.26133,0.1026667 0.10267,0.1026666 0.10267,0.2613333 v 6.2346661 h 3.64933 q 0.15867,0 0.26134,0.102667 0.10266,0.09333 0.10266,0.242667 0,0.149333 -0.10266,0.252 Q -361.85098,13 -362.00965,13 Z"/><path style="font-weight:400;font-size:9.33333302px;font-family:Comfortaa,sans-serif;letter-spacing:2.5px;fill:#333" id="path269" d="m -357.61673,13 q -0.14933,0 -0.26133,-0.102667 -0.10267,-0.112 -0.10267,-0.261333 V 6.0746669 q 0,-0.1586667 0.10267,-0.2613333 0.112,-0.1026667 0.26133,-0.1026667 h 4.37733 q 0.15867,0 0.26134,0.1026667 0.10266,0.1026666 0.10266,0.252 0,0.1493333 -0.10266,0.252 -0.10267,0.093333 -0.26134,0.093333 h -4.01333 v 2.5759999 h 2.92133 q 0.15867,0 0.26134,0.1026667 0.10266,0.1026666 0.10266,0.252 0,0.1493333 -0.112,0.2519999 -0.10266,0.1026667 -0.252,0.1026667 h -2.92133 V 12.3 h 4.01333 q 0.15867,0 0.26134,0.102667 0.10266,0.09333 0.10266,0.242666 0,0.149334 -0.10266,0.252 Q -353.08073,13 -353.2394,13 Z"/><path style="font-weight:400;font-size:9.33333302px;font-family:Comfortaa,sans-serif;letter-spacing:2.5px;fill:#333" id="path271" d="m -341.72894,5.7106669 q 0.14934,0 0.23334,0.1026667 0.084,0.093333 0.084,0.2426666 0,0.074667 -0.028,0.1773334 l -1.904,6.4586664 q -0.0467,0.149333 -0.14934,0.233333 -0.0933,0.07467 -0.224,0.07467 -0.13066,0 -0.23333,-0.084 -0.0933,-0.084 -0.13067,-0.214667 l -1.512,-5.5159995 -1.50266,5.5066665 q -0.0467,0.14 -0.14934,0.224 -0.0933,0.084 -0.224,0.084 -0.13066,0 -0.23333,-0.084 -0.0933,-0.084 -0.13067,-0.214667 l -1.91333,-6.4679994 q -0.028,-0.1026667 -0.028,-0.168 0,-0.1586667 0.0933,-0.252 0.0933,-0.1026667 0.24267,-0.1026667 0.26133,0 0.35467,0.28 l 1.61466,5.6280001 1.53067,-5.4693334 q 0.028,-0.1026667 0.12133,-0.168 0.10267,-0.065333 0.224,-0.065333 0.12134,0 0.21467,0.065333 0.0933,0.065333 0.13067,0.1773333 l 1.54,5.4693331 1.624,-5.6746664 q 0.0747,-0.2426667 0.35466,-0.2426667 z"/></g><g id="g111" transform="rotate(-90,200.5,175.5)"><g style="font-weight:700;font-size:9.33333302px;font-family:Audiowide,sans-serif;letter-spacing:2px;fill:#333" id="text107" aria-label="BGA"><path style="font-weight:700;font-size:9.33333302px;font-family:Audiowide,sans-serif;letter-spacing:2px;fill:#333" id="path274" d="m 7.2096352,-1.4355468 q 0,0.21875 -0.077474,0.469401 -0.072917,0.25065103 -0.2460937,0.46484373 -0.1686198,0.2141927 -0.4420573,0.36002603 Q 6.1705727,0 5.7740883,0 H 1.2760416 Q 1.1484375,0 1.0390625,-0.04557292 0.92968747,-0.09114583 0.84765622,-0.16861979 q -0.077474,-0.0820312 -0.12304687,-0.19140624 -0.0455729,-0.109375 -0.0455729,-0.23697916 V -5.9381508 q 0,-0.1230469 0.0455729,-0.2324219 0.0455729,-0.109375 0.12304687,-0.1914062 0.0820313,-0.082031 0.19140628,-0.1276042 0.109375,-0.045573 0.2369791,-0.045573 h 3.9648436 q 0.21875,0 0.4694011,0.077474 0.250651,0.077474 0.4648437,0.2506511 0.21875,0.1686197 0.360026,0.4420572 0.1458334,0.2734375 0.1458334,0.6699219 v 0.2233073 q 0,0.3144531 -0.1048177,0.6790364 -0.1048178,0.360026 -0.3372396,0.6835937 0.2005208,0.1230469 0.3736979,0.296224 0.1777344,0.1731771 0.3098958,0.4010416 0.1321615,0.2278646 0.2096354,0.514974 0.077474,0.2871093 0.077474,0.6334635 z M 6.0247394,-1.6634114 q 0,-0.2324219 -0.072917,-0.4147135 Q 5.878906,-2.2649739 5.7467446,-2.3971353 5.6145831,-2.5292968 5.4277342,-2.5976562 5.2408852,-2.6705728 5.0084634,-2.6705728 H 2.3378905 v -1.1940104 h 2.1373698 q 0.2324218,0 0.4192708,-0.068359 0.1868489,-0.072917 0.3190104,-0.2050781 0.1321614,-0.1321614 0.2005208,-0.3144531 0.072917,-0.186849 0.072917,-0.4192708 v -0.2233073 q 0,-0.2552083 -0.2460938,-0.2552083 h -3.376953 v 4.1653644 h 3.9101561 q 0.031901,0 0.077474,-0.00456 0.045573,-0.00456 0.082031,-0.027344 0.036458,-0.022787 0.063802,-0.077474 0.027344,-0.054687 0.027344,-0.1503906 z"/><path style="font-weight:700;font-size:9.33333302px;font-family:Audiowide,sans-serif;letter-spacing:2px;fill:#333" id="path276" d="m 16.683594,-0.59700519 q 0,0.12760416 -0.04557,0.23697916 -0.04557,0.109375 -0.127605,0.19140624 -0.07747,0.07747396 -0.186849,0.12304687 Q 16.214192,0 16.086588,0 h -4.274739 q -0.164063,0 -0.355469,-0.03645833 -0.186849,-0.04101563 -0.373698,-0.12304687 -0.182291,-0.0820313 -0.350911,-0.20963541 -0.16862,-0.13216146 -0.300781,-0.31445312 -0.127605,-0.18684895 -0.205079,-0.42838537 -0.07747,-0.2460938 -0.07747,-0.5514323 v -3.2083332 q 0,-0.1640625 0.03646,-0.3509115 0.04101,-0.1914062 0.123047,-0.3736979 0.08203,-0.1868489 0.214192,-0.3554687 0.132162,-0.1686198 0.314453,-0.296224 0.186849,-0.1321614 0.428386,-0.2096354 0.241536,-0.077474 0.546875,-0.077474 h 4.817057 v 1.1848958 h -4.817057 q -0.232422,0 -0.355469,0.1230468 -0.123047,0.1230469 -0.123047,0.3645834 v 3.1992186 q 0,0.2278646 0.123047,0.3554687 0.127604,0.1230469 0.355469,0.1230469 h 3.686849 v -1.485677 h -3.153646 v -1.1940104 h 3.741536 q 0.127604,0 0.236979,0.05013 0.109375,0.045573 0.186849,0.1276042 0.08203,0.082031 0.127605,0.1914062 0.04557,0.1048177 0.04557,0.2278646 z"/><path style="font-weight:700;font-size:9.33333302px;font-family:Audiowide,sans-serif;letter-spacing:2px;fill:#333" id="path278" d="M 26.339842,0 H 25.154946 V -1.6041666 H 20.989582 V 0 h -1.184896 v -3.267578 q 0,-0.7154948 0.246094,-1.3170573 0.246094,-0.6015624 0.683594,-1.0345051 0.4375,-0.4329427 1.034505,-0.6744792 0.597005,-0.2415364 1.303385,-0.2415364 h 2.670573 q 0.123047,0 0.232422,0.045573 0.109375,0.045573 0.191406,0.1276042 0.08203,0.082031 0.127604,0.1914062 0.04557,0.109375 0.04557,0.2324219 z m -5.35026,-2.7890624 h 4.165364 v -2.5611978 h -2.082682 q -0.05469,0 -0.232422,0.018229 -0.173177,0.013672 -0.405599,0.077474 -0.227864,0.063802 -0.483072,0.1959635 -0.255209,0.1321615 -0.469402,0.3645833 -0.214192,0.2324219 -0.355468,0.5833334 -0.136719,0.3463541 -0.136719,0.8430989 z"/></g><path style="fill:#ddd" id="rect109" d="M 0,0 H 3 V 3 H 0 Z" transform="translate(11.5,-5)"/></g><g style="font-weight:700;font-size:8px;font-family:Roboto,sans-serif;letter-spacing:2px;fill:#333" id="text115" aria-label="RISE"><path style="font-weight:700;font-size:8px;font-family:Roboto,sans-serif;letter-spacing:2px;fill:#333" id="path282" d="M 13.613281,22.917969 H 12.679688 V 25 h -1.171875 v -5.6875 h 2.113281 q 1.007812,0 1.554687,0.449219 0.546875,0.449218 0.546875,1.269531 0,0.582031 -0.253906,0.972656 -0.25,0.386719 -0.761719,0.617188 L 15.9375,24.945312 V 25 H 14.679688 Z M 12.679688,21.96875 H 13.625 q 0.441406,0 0.683594,-0.222656 0.242187,-0.226563 0.242187,-0.621094 0,-0.402344 -0.230468,-0.632813 -0.226563,-0.230468 -0.699219,-0.230468 h -0.941406 z"/><path style="font-weight:700;font-size:8px;font-family:Roboto,sans-serif;letter-spacing:2px;fill:#333" id="path284" d="m 19.863281,25 h -1.171875 v -5.6875 h 1.171875 z"/><path style="font-weight:700;font-size:8px;font-family:Roboto,sans-serif;letter-spacing:2px;fill:#333" id="path286" d="m 25.894531,23.507812 q 0,-0.332031 -0.234375,-0.507812 -0.234375,-0.179688 -0.84375,-0.375 -0.609375,-0.199219 -0.964844,-0.390625 -0.96875,-0.523438 -0.96875,-1.410156 0,-0.460938 0.257813,-0.820313 0.261719,-0.363281 0.746094,-0.566406 0.488281,-0.203125 1.09375,-0.203125 0.609375,0 1.085937,0.222656 0.476563,0.21875 0.738281,0.621094 0.265625,0.402344 0.265625,0.914062 h -1.171875 q 0,-0.390625 -0.246093,-0.605468 -0.246094,-0.21875 -0.691407,-0.21875 -0.429687,0 -0.667968,0.183593 -0.238282,0.179688 -0.238282,0.476563 0,0.277344 0.277344,0.464844 0.28125,0.1875 0.824219,0.351562 1,0.300781 1.457031,0.746094 0.457031,0.445312 0.457031,1.109375 0,0.738281 -0.558593,1.160156 -0.558594,0.417969 -1.503907,0.417969 -0.65625,0 -1.195312,-0.238281 -0.539063,-0.242188 -0.824219,-0.660157 -0.28125,-0.417968 -0.28125,-0.96875 h 1.175781 q 0,0.941407 1.125,0.941407 0.417969,0 0.652344,-0.167969 0.234375,-0.171875 0.234375,-0.476563 z"/><path style="font-weight:700;font-size:8px;font-family:Roboto,sans-serif;letter-spacing:2px;fill:#333" id="path288" d="m 33.289062,22.535156 h -2.25 v 1.523438 h 2.640625 V 25 h -3.8125 v -5.6875 h 3.804688 v 0.949219 h -2.632813 v 1.355468 h 2.25 z"/></g><g id="use117" transform="translate(0,24)"><g id="g261" transform="translate(22.5,22.5)"><g style="font-weight:700;font-size:6.66666651px;font-family:Roboto,sans-serif;fill:#333" id="text247" aria-label="0" transform="translate(-10.9,17.788457)"><path style="font-weight:700;font-size:6.66666651px;font-family:Roboto,sans-serif;fill:#333" id="path291" d="m 3.5123697,-1.9596354 q 0,0.98307292 -0.406901,1.50390624 -0.4069011,0.52083333 -1.1914062,0.52083333 -0.7747396,0 -1.18489585,-0.5110677 -0.41015624,-0.5110677 -0.41992187,-1.46484367 v -0.8723959 q 0,-0.9928385 0.41015624,-1.5071614 0.41341148,-0.5143229 1.18815098,-0.5143229 0.7747396,0 1.1848958,0.5110677 0.4101563,0.5078125 0.4199219,1.4615885 z M 2.5716145,-2.9166666 q 0,-0.5891927 -0.1627604,-0.8561198 -0.1595052,-0.2701823 -0.5013021,-0.2701823 -0.3320312,0 -0.4915364,0.2571615 Q 1.2597656,-3.531901 1.25,-2.9882812 v 1.1523437 q 0,0.5794271 0.15625,0.86263023 0.1595052,0.27994791 0.5078125,0.27994791 0.345052,0 0.4980468,-0.27018228 0.1529948,-0.27018226 0.1595052,-0.82682286 z"/></g><path style="stroke:#333;stroke-width:.30000001" id="polyline249" d="M 0,0 H 1.5" transform="rotate(-172.92,-7.5,-0.46397545)"/><g style="font-weight:700;font-size:6.66666651px;font-family:Roboto,sans-serif;fill:#333" id="text251" aria-label="1" transform="translate(-16.447673,-7.5191782)"><path style="font-weight:700;font-size:6.66666651px;font-family:Roboto,sans-serif;fill:#333" id="path295" d="M 2.6074218,0 H 1.6666666 v -3.626302 l -1.12304682,0.3483073 v -0.764974 L 2.5065104,-4.7460936 h 0.1009114 z"/></g><path style="stroke:#333;stroke-width:.30000001" id="polyline253" d="M 0,0 H 2.5" transform="rotate(-75.68,-7.5,-9.655016)"/><g style="font-weight:700;font-size:6.66666651px;font-family:Roboto,sans-serif;fill:#333" id="text255" aria-label="5" transform="translate(13.028179,-5.7469392)"><path style="font-weight:700;font-size:6.66666651px;font-family:Roboto,sans-serif;fill:#333" id="path299" d="m 0.46223957,-2.3307291 0.2734375,-2.4088541 H 3.391927 V -3.955078 H 1.5071614 l -0.1171875,1.0188802 q 0.3352865,-0.1790365 0.7128906,-0.1790365 0.6770834,0 1.0611979,0.4199219 0.3841146,0.4199218 0.3841146,1.1751301 0,0.4589844 -0.1953125,0.82356773 -0.1920573,0.36132812 -0.5533854,0.56315103 -0.3613281,0.19856771 -0.8528646,0.19856771 -0.4296875,0 -0.797526,-0.17252604 Q 0.78124998,-0.28320312 0.56640624,-0.59895832 0.3548177,-0.91471352 0.34179687,-1.3183593 H 1.2727864 q 0.029297,0.2962239 0.2050781,0.46223953 0.1790365,0.16276041 0.4654948,0.16276041 0.3190104,0 0.4915365,-0.22786458 0.172526,-0.23111976 0.172526,-0.65104166 0,-0.4036458 -0.1985677,-0.6184896 -0.1985677,-0.2148437 -0.563151,-0.2148437 -0.3352865,0 -0.5436198,0.1757812 l -0.091146,0.084636 z"/></g><path style="stroke:#333;stroke-width:.30000001" id="polyline257" d="M 0,0 H 2.5" transform="rotate(19.81,-7.5,42.950932)"/><g style="font-weight:700;font-size:6.66666651px;font-family:Roboto,sans-serif;fill:#333" id="text259" aria-label="10" transform="translate(7.1,17.788457)"><path style="font-weight:700;font-size:6.66666651px;font-family:Roboto,sans-serif;fill:#333" id="path303" d="M 2.6074218,0 H 1.6666666 v -3.626302 l -1.12304682,0.3483073 v -0.764974 L 2.5065104,-4.7460936 h 0.1009114 z"/><path style="font-weight:700;font-size:6.66666651px;font-family:Roboto,sans-serif;fill:#333" id="path305" d="m 7.3404947,-1.9596354 q 0,0.98307292 -0.406901,1.50390624 -0.4069011,0.52083333 -1.1914062,0.52083333 -0.7747396,0 -1.1848959,-0.5110677 -0.4101562,-0.5110677 -0.4199218,-1.46484367 v -0.8723959 q 0,-0.9928385 0.4101562,-1.5071614 0.4134115,-0.5143229 1.188151,-0.5143229 0.7747396,0 1.1848958,0.5110677 0.4101563,0.5078125 0.4199219,1.4615885 z M 6.3997395,-2.9166666 q 0,-0.5891927 -0.1627604,-0.8561198 -0.1595052,-0.2701823 -0.5013021,-0.2701823 -0.3320312,0 -0.4915364,0.2571615 -0.15625,0.2539062 -0.1660156,0.797526 v 1.1523437 q 0,0.5794271 0.15625,0.86263023 0.1595052,0.27994791 0.5078125,0.27994791 0.345052,0 0.4980468,-0.27018228 0.1529948,-0.27018226 0.1595052,-0.82682286 z"/></g></g></g><g id="use119" transform="translate(2.5,64)"><g id="g243" transform="translate(20,20)"><path style="stroke:#333;stroke-width:.30000001" id="polyline225" d="M 0,0 H 2.5" transform="rotate(-52.5,-5,-10.138997)"/><path style="stroke:#333;stroke-width:.30000001" id="polyline227" d="M 0,0 H 2.5" transform="rotate(-15,-5,-37.978771)"/><path style="stroke:#333;stroke-width:.30000001" id="polyline229" d="M 0,0 H 2.5" transform="rotate(22.5,-5,25.136697)"/><path style="stroke:#333;stroke-width:.30000001" id="polyline231" d="M 0,0 H 2.5" transform="rotate(-127.5,-5,-2.4657271)"/><path style="stroke:#333;stroke-width:.30000001" id="polyline233" d="M 0,0 H 2.5" transform="rotate(-165,-5,-0.65826249)"/><path style="stroke:#333;stroke-width:.30000001" id="polyline235" d="M 0,0 H 2.5" transform="rotate(157.5,-5,0.99456184)"/><path id="path237" d="M -3.5,0 Q 0,3.5 3.5,0" transform="rotate(-45,17.840007,-4.6312425)" style="fill:none;stroke:#333;stroke-width:1"/><path style="fill:none;stroke:#333;stroke-width:1" id="polyline239" d="m -3.5,0 h 7" transform="rotate(-45,-15.692388,-6.5)"/><path id="path241" d="M -3.5,0 Q 0,3.5 3.5,0" transform="rotate(135,-6.5816765,3.8687575)" style="fill:none;stroke:#333;stroke-width:1"/></g></g><g id="g123" transform="translate(7.5,102)"><path style="fill:#fafafa" id="rect121" d="m 5,0 h 20 c 2.77,0 5,2.23 5,5 v 20 c 0,2.77 -2.23,5 -5,5 H 5 C 2.23,30 0,27.77 0,25 V 5 C 0,2.23 2.23,0 5,0 Z"/></g><g style="font-weight:700;font-size:8px;font-family:Roboto,sans-serif;letter-spacing:2px;fill:#333" id="text127" aria-label="FALL"><path style="font-weight:700;font-size:8px;font-family:Roboto,sans-serif;letter-spacing:2px;fill:#333" id="path316" d="m 14.929688,143.67578 h -2.25 V 146 h -1.171875 v -5.6875 h 3.703125 v 0.94922 h -2.53125 v 1.46875 h 2.25 z"/><path style="font-weight:700;font-size:8px;font-family:Roboto,sans-serif;letter-spacing:2px;fill:#333" id="path318" d="M 20.359375,144.82812 H 18.304687 L 17.914062,146 h -1.246093 l 2.117187,-5.6875 h 1.085938 L 22,146 h -1.246094 z m -1.738281,-0.94921 h 1.421875 L 19.328125,141.75 Z"/><path style="font-weight:700;font-size:8px;font-family:Roboto,sans-serif;letter-spacing:2px;fill:#333" id="path320" d="m 25.710937,145.05859 h 2.488282 V 146 h -3.660157 v -5.6875 h 1.171875 z"/><path style="font-weight:700;font-size:8px;font-family:Roboto,sans-serif;letter-spacing:2px;fill:#333" id="path322" d="m 32.039062,145.05859 h 2.488282 V 146 h -3.660157 v -5.6875 h 1.171875 z"/></g><g id="use129" transform="translate(0,145)"><g id="g221" transform="translate(22.5,22.5)"><g style="font-weight:700;font-size:6.66666651px;font-family:Roboto,sans-serif;fill:#333" id="text207" aria-label="0" transform="translate(-10.9,17.788457)"><path style="font-weight:700;font-size:6.66666651px;font-family:Roboto,sans-serif;fill:#333" id="path325" d="m 3.5123697,-1.9596354 q 0,0.98307292 -0.406901,1.50390624 -0.4069011,0.52083333 -1.1914062,0.52083333 -0.7747396,0 -1.18489585,-0.5110677 -0.41015624,-0.5110677 -0.41992187,-1.46484367 v -0.8723959 q 0,-0.9928385 0.41015624,-1.5071614 0.41341148,-0.5143229 1.18815098,-0.5143229 0.7747396,0 1.1848958,0.5110677 0.4101563,0.5078125 0.4199219,1.4615885 z M 2.5716145,-2.9166666 q 0,-0.5891927 -0.1627604,-0.8561198 -0.1595052,-0.2701823 -0.5013021,-0.2701823 -0.3320312,0 -0.4915364,0.2571615 Q 1.2597656,-3.531901 1.25,-2.9882812 v 1.1523437 q 0,0.5794271 0.15625,0.86263023 0.1595052,0.27994791 0.5078125,0.27994791 0.345052,0 0.4980468,-0.27018228 0.1529948,-0.27018226 0.1595052,-0.82682286 z"/></g><path style="stroke:#333;stroke-width:.30000001" id="polyline209" d="M 0,0 H 1.5" transform="rotate(-172.92,-7.5,-0.46397545)"/><g style="font-weight:700;font-size:6.66666651px;font-family:Roboto,sans-serif;fill:#333" id="text211" aria-label="1" transform="translate(-16.447673,-7.5191782)"><path style="font-weight:700;font-size:6.66666651px;font-family:Roboto,sans-serif;fill:#333" id="path329" d="M 2.6074218,0 H 1.6666666 v -3.626302 l -1.12304682,0.3483073 v -0.764974 L 2.5065104,-4.7460936 h 0.1009114 z"/></g><path style="stroke:#333;stroke-width:.30000001" id="polyline213" d="M 0,0 H 2.5" transform="rotate(-75.68,-7.5,-9.655016)"/><g style="font-weight:700;font-size:6.66666651px;font-family:Roboto,sans-serif;fill:#333" id="text215" aria-label="5" transform="translate(13.028179,-5.7469392)"><path style="font-weight:700;font-size:6.66666651px;font-family:Roboto,sans-serif;fill:#333" id="path333" d="m 0.46223957,-2.3307291 0.2734375,-2.4088541 H 3.391927 V -3.955078 H 1.5071614 l -0.1171875,1.0188802 q 0.3352865,-0.1790365 0.7128906,-0.1790365 0.6770834,0 1.0611979,0.4199219 0.3841146,0.4199218 0.3841146,1.1751301 0,0.4589844 -0.1953125,0.82356773 -0.1920573,0.36132812 -0.5533854,0.56315103 -0.3613281,0.19856771 -0.8528646,0.19856771 -0.4296875,0 -0.797526,-0.17252604 Q 0.78124998,-0.28320312 0.56640624,-0.59895832 0.3548177,-0.91471352 0.34179687,-1.3183593 H 1.2727864 q 0.029297,0.2962239 0.2050781,0.46223953 0.1790365,0.16276041 0.4654948,0.16276041 0.3190104,0 0.4915365,-0.22786458 0.172526,-0.23111976 0.172526,-0.65104166 0,-0.4036458 -0.1985677,-0.6184896 -0.1985677,-0.2148437 -0.563151,-0.2148437 -0.3352865,0 -0.5436198,0.1757812 l -0.091146,0.084636 z"/></g><path style="stroke:#333;stroke-width:.30000001" id="polyline217" d="M 0,0 H 2.5" transform="rotate(19.81,-7.5,42.950932)"/><g style="font-weight:700;font-size:6.66666651px;font-family:Roboto,sans-serif;fill:#333" id="text219" aria-label="10" transform="translate(7.1,17.788457)"><path style="font-weight:700;font-size:6.66666651px;font-family:Roboto,sans-serif;fill:#333" id="path337" d="M 2.6074218,0 H 1.6666666 v -3.626302 l -1.12304682,0.3483073 v -0.764974 L 2.5065104,-4.7460936 h 0.1009114 z"/><path style="font-weight:700;font-size:6.66666651px;font-family:Roboto,sans-serif;fill:#333" id="path339" d="m 7.3404947,-1.9596354 q 0,0.98307292 -0.406901,1.50390624 -0.4069011,0.52083333 -1.1914062,0.52083333 -0.7747396,0 -1.1848959,-0.5110677 -0.4101562,-0.5110677 -0.4199218,-1.46484367 v -0.8723959 q 0,-0.9928385 0.4101562,-1.5071614 0.4134115,-0.5143229 1.188151,-0.5143229 0.7747396,0 1.1848958,0.5110677 0.4101563,0.5078125 0.4199219,1.4615885 z M 6.3997395,-2.9166666 q 0,-0.5891927 -0.1627604,-0.8561198 -0.1595052,-0.2701823 -0.5013021,-0.2701823 -0.3320312,0 -0.4915364,0.2571615 -0.15625,0.2539062 -0.1660156,0.797526 v 1.1523437 q 0,0.5794271 0.15625,0.86263023 0.1595052,0.27994791 0.5078125,0.27994791 0.345052,0 0.4980468,-0.27018228 0.1529948,-0.27018226 0.1595052,-0.82682286 z"/></g></g></g><g id="use131" transform="translate(2.5,185)"><g id="g203" transform="translate(20,20)"><path style="stroke:#333;stroke-width:.30000001" id="polyline185" d="M 0,0 H 2.5" transform="rotate(-52.5,-5,-10.138997)"/><path style="stroke:#333;stroke-width:.30000001" id="polyline187" d="M 0,0 H 2.5" transform="rotate(-15,-5,-37.978771)"/><path style="stroke:#333;stroke-width:.30000001" id="polyline189" d="M 0,0 H 2.5" transform="rotate(22.5,-5,25.136697)"/><path style="stroke:#333;stroke-width:.30000001" id="polyline191" d="M 0,0 H 2.5" transform="rotate(-127.5,-5,-2.4657271)"/><path style="stroke:#333;stroke-width:.30000001" id="polyline193" d="M 0,0 H 2.5" transform="rotate(-165,-5,-0.65826249)"/><path style="stroke:#333;stroke-width:.30000001" id="polyline195" d="M 0,0 H 2.5" transform="rotate(157.5,-5,0.99456184)"/><path id="path197" d="M -3.5,0 Q 0,3.5 3.5,0" transform="rotate(-135,6.5816765,3.8687575)" style="fill:none;stroke:#333;stroke-width:1"/><path style="fill:none;stroke:#333;stroke-width:1" id="polyline199" d="m -3.5,0 h 7" transform="rotate(45,15.692388,-6.5)"/><path id="path201" d="M -3.5,0 Q 0,3.5 3.5,0" transform="rotate(45,-17.840007,-4.6312425)" style="fill:none;stroke:#333;stroke-width:1"/></g></g><g id="g135" transform="translate(7.5,223)"><path style="fill:#fafafa" id="rect133" d="m 5,0 h 20 c 2.77,0 5,2.23 5,5 v 20 c 0,2.77 -2.23,5 -5,5 H 5 C 2.23,30 0,27.77 0,25 V 5 C 0,2.23 2.23,0 5,0 Z"/></g><g id="g145" transform="translate(5.5,260)"><path style="fill:#fafafa" id="rect139" d="M 0,0 H 34 V 10 H 0 Z" transform="translate(0,28)"/><path style="fill:#fafafa" id="rect141" d="m 5,0 h 24 c 2.77,0 5,2.23 5,5 v 25 c 0,2.77 -2.23,5 -5,5 H 5 C 2.23,35 0,32.77 0,30 V 5 C 0,2.23 2.23,0 5,0 Z"/><g style="font-weight:700;font-size:6.66666651px;font-family:Roboto,sans-serif;letter-spacing:2px;fill:#333" id="text143" aria-label="IN" transform="translate(12.5,35)"><path style="font-weight:700;font-size:6.66666651px;font-family:Roboto,sans-serif;letter-spacing:2px;fill:#333" id="path352" d="M 1.4615885,0 H 0.48502603 V -4.7395832 H 1.4615885 Z"/><path style="font-weight:700;font-size:6.66666651px;font-family:Roboto,sans-serif;letter-spacing:2px;fill:#333" id="path354" d="M 8.2174477,0 H 7.2408852 L 5.3398436,-3.1184895 V 0 H 4.3632811 v -4.7395832 h 0.9765625 l 1.9042968,3.1249999 v -3.1249999 h 0.9733073 z"/></g></g><g id="g153" transform="translate(5.5,301)"><path style="fill:#bbb" id="rect147" d="M 0,0 H 34 V 10 H 0 Z" transform="translate(0,-3)"/><path style="fill:#bbb" id="rect149" d="m 5,0 h 24 c 2.77,0 5,2.23 5,5 v 25 c 0,2.77 -2.23,5 -5,5 H 5 C 2.23,35 0,32.77 0,30 V 5 C 0,2.23 2.23,0 5,0 Z"/><g style="font-weight:700;font-size:6.66666651px;font-family:Roboto,sans-serif;letter-spacing:2px;fill:#333" id="text151" aria-label="OUT" transform="translate(8.3,32)"><path style="font-weight:700;font-size:6.66666651px;font-family:Roboto,sans-serif;letter-spacing:2px;fill:#333" id="path359" d="m 4.3164061,-2.2623697 q 0,0.6998697 -0.2473958,1.2272135 -0.2473958,0.52734371 -0.7096354,0.81380204 -0.4589843,0.28645833 -1.0546875,0.28645833 -0.5891926,0 -1.0514322,-0.28320312 Q 0.79101561,-0.50130207 0.53710936,-1.0253906 0.28320312,-1.5527343 0.27994791,-2.2363281 v -0.234375 q 0,-0.6998697 0.25065104,-1.2304687 0.25390624,-0.5338541 0.71289065,-0.8170573 0.4622395,-0.2864583 1.0546874,-0.2864583 0.5924479,0 1.0514323,0.2864583 0.4622396,0.2832032 0.7128906,0.8170573 0.2539062,0.530599 0.2539062,1.2272135 z M 3.3268228,-2.4772135 q 0,-0.7454427 -0.266927,-1.1328125 -0.2669271,-0.3873697 -0.7617188,-0.3873697 -0.4915364,0 -0.7584635,0.3841145 -0.2669271,0.3808594 -0.2701823,1.1197917 v 0.2311198 q 0,0.7259114 0.2669271,1.126302 0.2669271,0.40039063 0.7682291,0.40039063 0.4915365,0 0.7552084,-0.38411453 0.2636718,-0.3873698 0.266927,-1.1263021 z"/><path style="font-weight:700;font-size:6.66666651px;font-family:Roboto,sans-serif;letter-spacing:2px;fill:#333" id="path361" d="m 10.619792,-4.7395832 v 3.1217447 q 0,0.77799477 -0.488282,1.23046872 -0.4850257,0.45247395 -1.3281246,0.45247395 -0.8300781,0 -1.3183594,-0.43945312 Q 6.9967448,-0.81380206 6.9869792,-1.5820312 v -3.157552 h 0.9765624 v 3.1282551 q 0,0.4654948 0.2213542,0.68033854 0.2246094,0.21158854 0.6184896,0.21158854 0.8235677,0 0.8365885,-0.86588538 v -3.1542968 z"/><path style="font-weight:700;font-size:6.66666651px;font-family:Roboto,sans-serif;letter-spacing:2px;fill:#333" id="path363" d="M 16.988281,-3.9485676 H 15.536458 V 0 h -0.976563 v -3.9485676 h -1.432291 v -0.7910156 h 3.860677 z"/></g></g></svg>