<svg xmlns="http://www.w3.org/2000/svg" xmlns:svg="http://www.w3.org/2000/svg" id="svg217" width="45" height="380" version="1.1" viewBox="0 0 45 380"><metadata id="metadata221"/><style id="style2">text{fill:#333;font-family:&apos;Roboto&apos;,sans-serif;font-weight:700}</style><defs id="defs149"><symbol id="knob" viewBox="0 0 45 45"><g id="g10" transform="translate(22.5 22.5)"><polyline id="polyline4" stroke="#00f" stroke-width="1" points="-5 0 5 0"/><polyline id="polyline6" stroke="#00f" stroke-width="1" points="0 -5 0 5"/><circle id="circle8" cx="0" cy="0" r="12.5" fill="none" stroke="#00f" stroke-width="1"/></g></symbol><symbol id="knob-small" viewBox="0 0 45 45"><g id="g19" transform="translate(22.5 22.5)"><polyline id="polyline13" stroke="#00f" stroke-width="1" points="-3 0 3 0"/><polyline id="polyline15" stroke="#00f" stroke-width="1" points="0 -3 0 3"/><circle id="circle17" cx="0" cy="0" r="7.5" fill="none" stroke="#00f" stroke-width="1"/></g></symbol><symbol id="knobguide-interval" viewBox="0 0 45 45"><g id="g70" transform="translate(22.5 22.5)"><g id="g24" transform="rotate(-240) translate(15 0)"><text id="text22" font-size="5pt" transform="translate(2.5 0) rotate(240) translate(-2.2 2.2)">0</text></g><g id="g28" transform="rotate(-212.73) translate(15 0)"><polyline id="polyline26" stroke="#333" stroke-width=".3" points="0 0 2.5 0"/></g><g id="g32" transform="rotate(-185.45) translate(15 0)"><polyline id="polyline30" stroke="#333" stroke-width=".3" points="0 0 2.5 0"/></g><g id="g36" transform="rotate(-158.18) translate(15 0)"><polyline id="polyline34" stroke="#333" stroke-width=".3" points="0 0 2.5 0"/></g><g id="g40" transform="rotate(-130.91) translate(15 0)"><text id="text38" font-size="5pt" transform="translate(2.5 0) rotate(130.91) translate(-2.2 2.2)">4</text></g><g id="g44" transform="rotate(-103.64) translate(15 0)"><polyline id="polyline42" stroke="#333" stroke-width=".3" points="0 0 2.5 0"/></g><g id="g48" transform="rotate(-76.36) translate(15 0)"><polyline id="polyline46" stroke="#333" stroke-width=".3" points="0 0 2.5 0"/></g><g id="g52" transform="rotate(-49.09) translate(15 0)"><text id="text50" font-size="5pt" transform="translate(2.5 0) rotate(49.09) translate(-2.2 2.2)">7</text></g><g id="g56" transform="rotate(-21.82) translate(15 0)"><polyline id="polyline54" stroke="#333" stroke-width=".3" points="0 0 2.5 0"/></g><g id="g60" transform="rotate(5.45) translate(15 0)"><polyline id="polyline58" stroke="#333" stroke-width=".3" points="0 0 2.5 0"/></g><g id="g64" transform="rotate(32.73) translate(15 0)"><polyline id="polyline62" stroke="#333" stroke-width=".3" points="0 0 2.5 0"/></g><g id="g68" transform="rotate(60) translate(15 0)"><text id="text66" font-size="5pt" transform="translate(2.5 0) rotate(-60) translate(-4 2.2)">11</text></g></g></symbol><symbol id="knobguide-octave" viewBox="0 0 45 45"><g id="g101" transform="translate(22.5 22.5)"><g id="g75" transform="rotate(-180) translate(10 0)"><text id="text73" font-size="5pt" transform="translate(2 0) rotate(180) translate(-4 2.2)">-3</text></g><g id="g79" transform="rotate(-150) translate(11 0)"><polyline id="polyline77" stroke="#333" stroke-width=".3" points="0 0 2.5 0"/></g><g id="g83" transform="rotate(-120) translate(11 0)"><polyline id="polyline81" stroke="#333" stroke-width=".3" points="0 0 2.5 0"/></g><g id="g87" transform="rotate(-90) translate(10 0)"><text id="text85" font-size="5pt" transform="translate(2 0) rotate(90) translate(-2.2 2.2)">0</text></g><g id="g91" transform="rotate(-60) translate(11 0)"><polyline id="polyline89" stroke="#333" stroke-width=".3" points="0 0 2.5 0"/></g><g id="g95" transform="rotate(-30) translate(11 0)"><polyline id="polyline93" stroke="#333" stroke-width=".3" points="0 0 2.5 0"/></g><g id="g99" transform="rotate(0) translate(10 0)"><text id="text97" font-size="5pt" transform="translate(2 0) rotate(0) translate(-2.2 2.2)">3</text></g></g></symbol><symbol id="knobguide-fine" viewBox="0 0 45 45"><g id="g124" transform="translate(22.5 22.5)"><g id="g106" transform="rotate(-240) translate(10 0)"><text id="text104" font-size="5pt" transform="translate(2.5 0) rotate(240) translate(-1.5 2.2)">-</text></g><g id="g110" transform="rotate(-90) translate(10 0)"><text id="text108" font-size="5pt" transform="translate(2 0) rotate(90) translate(-1.9 2.2)">0</text></g><g id="g114" transform="rotate(60) translate(10 0)"><text id="text112" font-size="5pt" transform="translate(2.5 0) rotate(-60) translate(-1.9 2.2)">+</text></g><path id="path116" fill="none" stroke="#333" stroke-linecap="round" stroke-width=".5" d="M 0 -12.5 A 12.5 12.5 0 0 1 12.5 0" transform="rotate(20)"/><path id="path118" fill="none" stroke="#333" stroke-linecap="round" stroke-width=".5" d="M 0 -12.5 A 12.5 12.5 0 0 1 12.5 0" transform="rotate(43)"/><path id="path120" fill="none" stroke="#333" stroke-linecap="round" stroke-width=".5" d="M 0 -12.5 A 12.5 12.5 0 0 0 -12.5 0" transform="rotate(-20)"/><path id="path122" fill="none" stroke="#333" stroke-linecap="round" stroke-width=".5" d="M 0 -12.5 A 12.5 12.5 0 0 0 -12.5 0" transform="rotate(-43)"/></g></symbol><symbol id="button" viewBox="0 0 9 9"><g id="g129" transform="translate(4.5 4.5)"><circle id="circle127" cx="0" cy="0" r="4.1" fill="red" stroke="#00f" stroke-width="1"/></g></symbol><symbol id="light-small" viewBox="0 0 6.4 6.4"><rect id="rect132" width="6.4" height="6.4" fill="#0f0"/></symbol><symbol id="input" viewBox="0 0 24 24"><g id="g139" transform="translate(12 12)"><circle id="circle135" cx="0" cy="0" r="5" fill="#0f0" stroke="#0f0" stroke-width="1"/><circle id="circle137" cx="0" cy="0" r="10.5" fill="none" stroke="#0f0" stroke-width="3"/></g></symbol><symbol id="output" viewBox="0 0 24 24"><g id="g146" transform="translate(12 12)"><circle id="circle142" cx="0" cy="0" r="5" fill="red" stroke="red" stroke-width="1"/><circle id="circle144" cx="0" cy="0" r="10.5" fill="none" stroke="red" stroke-width="3"/></g></symbol></defs><path style="fill:#ddd" id="rect151" d="M 0,0 H 45 V 380 H 0 Z"/><path style="fill:none;stroke:#e4e4e4;stroke-width:.5" id="polyline153" d="M 1,1 H 44 V 379 H 1 V 1"/><path style="fill:none;stroke:#ebebeb;stroke-width:.80000001" id="polyline155" d="m 0.5,0.5 h 44 v 379 H 0.5 V 0.5"/><path style="fill:none;stroke:#f2f2f2;stroke-width:1" id="polyline157" d="M 0,0 H 45 V 380 H 0 V 0"/><g style="font-weight:400;font-size:9.33333302px;font-family:Comfortaa,sans-serif;letter-spacing:2.5px;fill:#333" id="text159" aria-label="STACK" transform="rotate(-90)"><path style="font-weight:400;font-size:9.33333302px;font-family:Comfortaa,sans-serif;letter-spacing:2.5px;fill:#333" id="path354" d="m -372.82667,13.093333 q -0.88666,0 -1.57733,-0.373333 -0.68133,-0.382667 -0.98,-1.026667 -0.0373,-0.06533 -0.0373,-0.149333 0,-0.130667 0.0933,-0.214667 0.10267,-0.09333 0.27067,-0.09333 0.112,0 0.20533,0.06533 0.10267,0.056 0.14933,0.168 0.21467,0.42 0.70934,0.681334 0.504,0.252 1.16666,0.252 0.76534,0 1.232,-0.364 0.46667,-0.373334 0.46667,-1.036 0,-0.588 -0.43867,-0.989334 -0.42933,-0.4013329 -1.29733,-0.5133329 -1.08267,-0.1306666 -1.708,-0.672 -0.616,-0.5506666 -0.616,-1.3439999 0,-0.56 0.29867,-0.98 0.308,-0.4293333 0.84,-0.6533333 0.54133,-0.2333333 1.22266,-0.2333333 0.73734,0 1.29734,0.3266666 0.56,0.3266667 0.87733,0.8493333 0.0653,0.1026667 0.0653,0.224 0,0.1773334 -0.168,0.28 -0.0747,0.037333 -0.168,0.037333 -0.10266,0 -0.196,-0.046667 -0.084,-0.056 -0.14,-0.1493333 -0.52266,-0.8213333 -1.57733,-0.8306667 -0.756,0 -1.19467,0.3173334 -0.43866,0.3173333 -0.43866,0.9053333 0,1.0919999 1.764,1.3253332 1.15733,0.168 1.72666,0.7093334 0.56934,0.5413335 0.56934,1.4279995 0,0.653334 -0.31734,1.129334 -0.31733,0.476 -0.868,0.728 -0.55066,0.242666 -1.232,0.242666 z"/><path style="font-weight:400;font-size:9.33333302px;font-family:Comfortaa,sans-serif;letter-spacing:2.5px;fill:#333" id="path356" d="m -362.04756,5.7106669 q 0.14933,0 0.24266,0.093333 0.0933,0.093333 0.0933,0.2426667 0,0.14 -0.0933,0.2333333 -0.0933,0.093333 -0.24266,0.093333 h -2.22134 V 12.636 q 0,0.149333 -0.10266,0.261333 Q -364.47423,13 -364.6329,13 q -0.14933,0 -0.26133,-0.102667 -0.10267,-0.112 -0.10267,-0.261333 V 6.3733336 h -2.212 q -0.14933,0 -0.24266,-0.093333 -0.0933,-0.093333 -0.0933,-0.2333333 0,-0.1493333 0.0933,-0.2426667 0.0933,-0.093333 0.24266,-0.093333 z"/><path style="font-weight:400;font-size:9.33333302px;font-family:Comfortaa,sans-serif;letter-spacing:2.5px;fill:#333" id="path358" d="m -353.42286,12.486667 q 0.0373,0.06533 0.0373,0.149333 0,0.149333 -0.112,0.261333 Q -353.60019,13 -353.74952,13 q -0.24267,0 -0.34533,-0.224 l -0.62534,-1.512 h -3.612 l -0.62533,1.512 q -0.0747,0.224 -0.336,0.224 -0.15867,0 -0.26133,-0.102667 -0.0933,-0.112 -0.0933,-0.261333 0,-0.09333 0.028,-0.158667 l 2.744,-6.5146661 q 0.10267,-0.252 0.35467,-0.252 0.252,0 0.34533,0.252 z m -1.54933,-1.848 -1.54933,-3.7426668 -1.54933,3.7426668 z"/><path style="font-weight:400;font-size:9.33333302px;font-family:Comfortaa,sans-serif;letter-spacing:2.5px;fill:#333" id="path360" d="m -346.73598,13.093333 q -0.98933,0 -1.82,-0.504 -0.83067,-0.504 -1.32533,-1.362666 -0.48534,-0.858667 -0.48534,-1.8760002 0,-1.008 0.48534,-1.8666666 0.48533,-0.8586666 1.316,-1.3626666 0.83066,-0.504 1.82933,-0.504 0.672,0 1.22267,0.196 0.55066,0.196 1.064,0.6253333 0.10266,0.074667 0.10266,0.2146666 0,0.074667 -0.0373,0.14 -0.0373,0.056 -0.10267,0.084 -0.0187,0.065333 -0.084,0.1026667 -0.0653,0.037333 -0.14,0.037333 -0.14,0 -0.23333,-0.084 -0.364,-0.3266666 -0.79333,-0.4759999 -0.42934,-0.1493334 -0.99867,-0.1493334 -0.784,0 -1.456,0.42 -0.672,0.4106667 -1.07333,1.1106666 -0.392,0.7 -0.392,1.512 0,0.8306662 0.392,1.5306662 0.392,0.7 1.064,1.110667 0.672,0.410667 1.46533,0.410667 1.01733,0 1.83867,-0.653334 0.10266,-0.07467 0.20533,-0.07467 0.14,0 0.24267,0.102666 0.10266,0.09333 0.10266,0.252 0,0.149334 -0.10266,0.261334 -0.87734,0.802666 -2.28667,0.802666 z"/><path style="font-weight:400;font-size:9.33333302px;font-family:Comfortaa,sans-serif;letter-spacing:2.5px;fill:#333" id="path362" d="m -339.94746,13 q -0.14933,0 -0.26133,-0.102667 -0.10267,-0.112 -0.10267,-0.261333 V 6.0746669 q 0,-0.1493333 0.10267,-0.252 0.112,-0.112 0.26133,-0.112 0.15867,0 0.26133,0.1026667 0.10267,0.1026666 0.10267,0.2613333 v 3.1733332 l 3.40667,-3.4066665 q 0.13066,-0.1306667 0.28933,-0.1306667 0.15867,0 0.24267,0.093333 0.0933,0.093333 0.0933,0.2333334 0,0.168 -0.12133,0.2986666 l -2.55734,2.5573333 2.58534,3.5279995 q 0.0747,0.121334 0.0747,0.224 0,0.14 -0.10266,0.252 Q -335.76613,13 -335.90613,13 q -0.20533,0 -0.308,-0.158667 l -2.53866,-3.4346662 -0.83067,0.8400002 V 12.636 q 0,0.149333 -0.10267,0.261333 Q -339.78879,13 -339.94746,13 Z"/></g><g id="g165" transform="rotate(-90,200.5,175.5)"><g style="font-weight:700;font-size:9.33333302px;font-family:Audiowide,sans-serif;letter-spacing:2px;fill:#333" id="text161" aria-label="BGA"><path style="font-weight:700;font-size:9.33333302px;font-family:Audiowide,sans-serif;letter-spacing:2px;fill:#333" id="path365" d="m 7.2096352,-1.4355468 q 0,0.21875 -0.077474,0.469401 -0.072917,0.25065103 -0.2460937,0.46484373 -0.1686198,0.2141927 -0.4420573,0.36002603 Q 6.1705727,0 5.7740883,0 H 1.2760416 Q 1.1484375,0 1.0390625,-0.04557292 0.92968747,-0.09114583 0.84765622,-0.16861979 q -0.077474,-0.0820312 -0.12304687,-0.19140624 -0.0455729,-0.109375 -0.0455729,-0.23697916 V -5.9381508 q 0,-0.1230469 0.0455729,-0.2324219 0.0455729,-0.109375 0.12304687,-0.1914062 0.0820313,-0.082031 0.19140628,-0.1276042 0.109375,-0.045573 0.2369791,-0.045573 h 3.9648436 q 0.21875,0 0.4694011,0.077474 0.250651,0.077474 0.4648437,0.2506511 0.21875,0.1686197 0.360026,0.4420572 0.1458334,0.2734375 0.1458334,0.6699219 v 0.2233073 q 0,0.3144531 -0.1048177,0.6790364 -0.1048178,0.360026 -0.3372396,0.6835937 0.2005208,0.1230469 0.3736979,0.296224 0.1777344,0.1731771 0.3098958,0.4010416 0.1321615,0.2278646 0.2096354,0.514974 0.077474,0.2871093 0.077474,0.6334635 z M 6.0247394,-1.6634114 q 0,-0.2324219 -0.072917,-0.4147135 Q 5.878906,-2.2649739 5.7467446,-2.3971353 5.6145831,-2.5292968 5.4277342,-2.5976562 5.2408852,-2.6705728 5.0084634,-2.6705728 H 2.3378905 v -1.1940104 h 2.1373698 q 0.2324218,0 0.4192708,-0.068359 0.1868489,-0.072917 0.3190104,-0.2050781 0.1321614,-0.1321614 0.2005208,-0.3144531 0.072917,-0.186849 0.072917,-0.4192708 v -0.2233073 q 0,-0.2552083 -0.2460938,-0.2552083 h -3.376953 v 4.1653644 h 3.9101561 q 0.031901,0 0.077474,-0.00456 0.045573,-0.00456 0.082031,-0.027344 0.036458,-0.022787 0.063802,-0.077474 0.027344,-0.054687 0.027344,-0.1503906 z"/><path style="font-weight:700;font-size:9.33333302px;font-family:Audiowide,sans-serif;letter-spacing:2px;fill:#333" id="path367" d="m 16.683594,-0.59700519 q 0,0.12760416 -0.04557,0.23697916 -0.04557,0.109375 -0.127605,0.19140624 -0.07747,0.07747396 -0.186849,0.12304687 Q 16.214192,0 16.086588,0 h -4.274739 q -0.164063,0 -0.355469,-0.03645833 -0.186849,-0.04101563 -0.373698,-0.12304687 -0.182291,-0.0820313 -0.350911,-0.20963541 -0.16862,-0.13216146 -0.300781,-0.31445312 -0.127605,-0.18684895 -0.205079,-0.42838537 -0.07747,-0.2460938 -0.07747,-0.5514323 v -3.2083332 q 0,-0.1640625 0.03646,-0.3509115 0.04101,-0.1914062 0.123047,-0.3736979 0.08203,-0.1868489 0.214192,-0.3554687 0.132162,-0.1686198 0.314453,-0.296224 0.186849,-0.1321614 0.428386,-0.2096354 0.241536,-0.077474 0.546875,-0.077474 h 4.817057 v 1.1848958 h -4.817057 q -0.232422,0 -0.355469,0.1230468 -0.123047,0.1230469 -0.123047,0.3645834 v 3.1992186 q 0,0.2278646 0.123047,0.3554687 0.127604,0.1230469 0.355469,0.1230469 h 3.686849 v -1.485677 h -3.153646 v -1.1940104 h 3.741536 q 0.127604,0 0.236979,0.05013 0.109375,0.045573 0.186849,0.1276042 0.08203,0.082031 0.127605,0.1914062 0.04557,0.1048177 0.04557,0.2278646 z"/><path style="font-weight:700;font-size:9.33333302px;font-family:Audiowide,sans-serif;letter-spacing:2px;fill:#333" id="path369" d="M 26.339842,0 H 25.154946 V -1.6041666 H 20.989582 V 0 h -1.184896 v -3.267578 q 0,-0.7154948 0.246094,-1.3170573 0.246094,-0.6015624 0.683594,-1.0345051 0.4375,-0.4329427 1.034505,-0.6744792 0.597005,-0.2415364 1.303385,-0.2415364 h 2.670573 q 0.123047,0 0.232422,0.045573 0.109375,0.045573 0.191406,0.1276042 0.08203,0.082031 0.127604,0.1914062 0.04557,0.109375 0.04557,0.2324219 z m -5.35026,-2.7890624 h 4.165364 v -2.5611978 h -2.082682 q -0.05469,0 -0.232422,0.018229 -0.173177,0.013672 -0.405599,0.077474 -0.227864,0.063802 -0.483072,0.1959635 -0.255209,0.1321615 -0.469402,0.3645833 -0.214192,0.2324219 -0.355468,0.5833334 -0.136719,0.3463541 -0.136719,0.8430989 z"/></g><path style="fill:#ddd" id="rect163" d="M 0,0 H 3 V 3 H 0 Z" transform="translate(11.5,-5)"/></g><g style="font-weight:700;font-size:8px;font-family:Roboto,sans-serif;letter-spacing:2px;fill:#333" id="text169" aria-label="SEMIS"><path style="font-weight:700;font-size:8px;font-family:Roboto,sans-serif;letter-spacing:2px;fill:#333" id="path373" d="m 9.8570313,23.507812 q 0,-0.332031 -0.234375,-0.507812 -0.234375,-0.179688 -0.84375,-0.375 -0.609375,-0.199219 -0.9648437,-0.390625 -0.96875,-0.523438 -0.96875,-1.410156 0,-0.460938 0.2578125,-0.820313 0.2617187,-0.363281 0.7460937,-0.566406 0.4882813,-0.203125 1.09375,-0.203125 0.609375,0 1.0859372,0.222656 0.476563,0.21875 0.738282,0.621094 0.265625,0.402344 0.265625,0.914062 H 9.8609376 q 0,-0.390625 -0.2460938,-0.605468 -0.2460937,-0.21875 -0.6914062,-0.21875 -0.4296875,0 -0.6679688,0.183593 -0.2382812,0.179688 -0.2382812,0.476563 0,0.277344 0.2773437,0.464844 0.28125,0.1875 0.8242188,0.351562 0.9999999,0.300781 1.4570309,0.746094 0.457032,0.445312 0.457032,1.109375 0,0.738281 -0.558594,1.160156 -0.5585939,0.417969 -1.5039064,0.417969 -0.65625,0 -1.1953125,-0.238281 -0.5390625,-0.242188 -0.8242188,-0.660157 -0.28125,-0.417968 -0.28125,-0.96875 h 1.1757813 q 0,0.941407 1.125,0.941407 0.4179687,0 0.6523437,-0.167969 0.234375,-0.171875 0.234375,-0.476563 z"/><path style="font-weight:700;font-size:8px;font-family:Roboto,sans-serif;letter-spacing:2px;fill:#333" id="path375" d="m 17.251563,22.535156 h -2.25 v 1.523438 h 2.640625 V 25 h -3.8125 v -5.6875 h 3.804687 v 0.949219 h -2.632812 v 1.355468 h 2.25 z"/><path style="font-weight:700;font-size:8px;font-family:Roboto,sans-serif;letter-spacing:2px;fill:#333" id="path377" d="m 21.860938,19.3125 1.460937,4.125 1.453125,-4.125 h 1.539063 V 25 H 25.138281 V 23.445312 L 25.255469,20.761719 23.720313,25 h -0.804688 l -1.53125,-4.234375 0.117188,2.679687 V 25 h -1.171875 v -5.6875 z"/><path style="font-weight:700;font-size:8px;font-family:Roboto,sans-serif;letter-spacing:2px;fill:#333" id="path379" d="m 30.591406,25 h -1.171875 v -5.6875 h 1.171875 z"/><path style="font-weight:700;font-size:8px;font-family:Roboto,sans-serif;letter-spacing:2px;fill:#333" id="path381" d="m 36.622656,23.507812 q 0,-0.332031 -0.234375,-0.507812 -0.234375,-0.179688 -0.84375,-0.375 -0.609375,-0.199219 -0.964843,-0.390625 -0.96875,-0.523438 -0.96875,-1.410156 0,-0.460938 0.257812,-0.820313 0.261719,-0.363281 0.746094,-0.566406 0.488281,-0.203125 1.09375,-0.203125 0.609375,0 1.085937,0.222656 0.476563,0.21875 0.738282,0.621094 0.265625,0.402344 0.265625,0.914062 h -1.171875 q 0,-0.390625 -0.246094,-0.605468 -0.246094,-0.21875 -0.691406,-0.21875 -0.429688,0 -0.667969,0.183593 -0.238281,0.179688 -0.238281,0.476563 0,0.277344 0.277343,0.464844 0.28125,0.1875 0.824219,0.351562 1,0.300781 1.457031,0.746094 0.457032,0.445312 0.457032,1.109375 0,0.738281 -0.558594,1.160156 -0.558594,0.417969 -1.503906,0.417969 -0.65625,0 -1.195313,-0.238281 -0.539062,-0.242188 -0.824219,-0.660157 -0.28125,-0.417968 -0.28125,-0.96875 h 1.175782 q 0,0.941407 1.125,0.941407 0.417968,0 0.652343,-0.167969 0.234375,-0.171875 0.234375,-0.476563 z"/></g><g id="use171" transform="translate(0,23)"><g id="g350" transform="translate(22.5,22.5)"><g id="g304" transform="rotate(120,-7.5,4.330127)"><g style="font-weight:700;font-size:6.66666651px;font-family:Roboto,sans-serif;fill:#333" id="text302" aria-label="0" transform="rotate(-120,2.9850853,-1.1866025)"><path style="font-weight:700;font-size:6.66666651px;font-family:Roboto,sans-serif;fill:#333" id="path384" d="m 3.5123697,-1.9596354 q 0,0.98307292 -0.406901,1.50390624 -0.4069011,0.52083333 -1.1914062,0.52083333 -0.7747396,0 -1.18489585,-0.5110677 -0.41015624,-0.5110677 -0.41992187,-1.46484367 v -0.8723959 q 0,-0.9928385 0.41015624,-1.5071614 0.41341148,-0.5143229 1.18815098,-0.5143229 0.7747396,0 1.1848958,0.5110677 0.4101563,0.5078125 0.4199219,1.4615885 z M 2.5716145,-2.9166666 q 0,-0.5891927 -0.1627604,-0.8561198 -0.1595052,-0.2701823 -0.5013021,-0.2701823 -0.3320312,0 -0.4915364,0.2571615 Q 1.2597656,-3.531901 1.25,-2.9882812 v 1.1523437 q 0,0.5794271 0.15625,0.86263023 0.1595052,0.27994791 0.5078125,0.27994791 0.345052,0 0.4980468,-0.27018228 0.1529948,-0.27018226 0.1595052,-0.82682286 z"/></g></g><g id="g308" transform="rotate(147.27,-7.5,2.2023926)"><path style="stroke:#333;stroke-width:.30000001" id="polyline306" d="M 0,0 H 2.5"/></g><g id="g312" transform="rotate(174.55,-7.5,0.35697086)"><path style="stroke:#333;stroke-width:.30000001" id="polyline310" d="M 0,0 H 2.5"/></g><g id="g316" transform="rotate(-158.18,-7.5,-1.4456299)"><path style="stroke:#333;stroke-width:.30000001" id="polyline314" d="M 0,0 H 2.5"/></g><g id="g320" transform="rotate(-130.91,-7.5,-3.4250633)"><g style="font-weight:700;font-size:6.66666651px;font-family:Roboto,sans-serif;fill:#333" id="text318" aria-label="4" transform="rotate(130.91,1.8476574,-1.0314987)"><path style="font-weight:700;font-size:6.66666651px;font-family:Roboto,sans-serif;fill:#333" id="path390" d="M 3.1054687,-1.7838541 H 3.642578 v 0.7584635 H 3.1054687 V 0 H 2.1647135 V -1.0253906 H 0.22135416 L 0.17903645,-1.6178385 2.1549479,-4.7395832 h 0.9505208 z m -1.9889323,0 h 1.0481771 v -1.6731771 l -0.061849,0.1074219 z"/></g></g><g id="g324" transform="rotate(-103.64,-7.5,-5.89768)"><path style="stroke:#333;stroke-width:.30000001" id="polyline322" d="M 0,0 H 2.5"/></g><g id="g328" transform="rotate(-76.36,-7.5,-9.5376487)"><path style="stroke:#333;stroke-width:.30000001" id="polyline326" d="M 0,0 H 2.5"/></g><g id="g332" transform="rotate(-49.09,-7.5,-16.423054)"><g style="font-weight:700;font-size:6.66666651px;font-family:Roboto,sans-serif;fill:#333" id="text330" aria-label="7" transform="rotate(49.09,-0.05871459,-0.77153892)"><path style="font-weight:700;font-size:6.66666651px;font-family:Roboto,sans-serif;fill:#333" id="path395" d="M 3.5449218,-4.2122395 1.7122395,0 H 0.71940102 L 2.5553385,-3.9778645 H 0.1985677 v -0.7617187 h 3.3463541 z"/></g></g><g id="g336" transform="rotate(-21.82,-7.5,-38.910373)"><path style="stroke:#333;stroke-width:.30000001" id="polyline334" d="M 0,0 H 2.5"/></g><g id="g340" transform="rotate(5.45,-7.5,157.57589)"><path style="stroke:#333;stroke-width:.30000001" id="polyline338" d="M 0,0 H 2.5"/></g><g id="g344" transform="rotate(32.73,-7.5,25.540406)"><path style="stroke:#333;stroke-width:.30000001" id="polyline342" d="M 0,0 H 2.5"/></g><g id="g348" transform="rotate(60,-7.5,12.990381)"><g style="font-weight:700;font-size:6.66666651px;font-family:Roboto,sans-serif;fill:#333" id="text346" aria-label="11" transform="rotate(-60,5.1552559,0.19903811)"><path style="font-weight:700;font-size:6.66666651px;font-family:Roboto,sans-serif;fill:#333" id="path401" d="M 2.6074218,0 H 1.6666666 v -3.626302 l -1.12304682,0.3483073 v -0.764974 L 2.5065104,-4.7460936 h 0.1009114 z"/><path style="font-weight:700;font-size:6.66666651px;font-family:Roboto,sans-serif;fill:#333" id="path403" d="M 6.4355468,0 H 5.4947916 v -3.626302 l -1.1230468,0.3483073 v -0.764974 l 1.9628906,-0.7031249 h 0.1009114 z"/></g></g></g></g><g style="font-weight:700;font-size:8px;font-family:Roboto,sans-serif;letter-spacing:2px;fill:#333" id="text175" aria-label="OCTAVE"><path style="font-weight:700;font-size:8px;font-family:Roboto,sans-serif;letter-spacing:2px;fill:#333" id="path406" d="m 7.3796875,74.285156 q 0,0.839844 -0.296875,1.472656 -0.296875,0.632813 -0.8515625,0.976563 -0.5507812,0.34375 -1.265625,0.34375 -0.7070312,0 -1.2617187,-0.339844 -0.5546875,-0.339844 -0.859375,-0.96875 -0.3046875,-0.632812 -0.3085938,-1.453125 v -0.28125 q 0,-0.839844 0.3007813,-1.476562 0.3046875,-0.640625 0.8554687,-0.980469 0.5546875,-0.34375 1.265625,-0.34375 0.7109375,0 1.2617188,0.34375 0.5546875,0.339844 0.8554687,0.980469 0.3046875,0.636718 0.3046875,1.472656 z m -1.1875,-0.257812 q 0,-0.894532 -0.3203125,-1.359375 -0.3203125,-0.464844 -0.9140625,-0.464844 -0.5898437,0 -0.9101562,0.460937 -0.3203125,0.457032 -0.3242188,1.34375 v 0.277344 q 0,0.871094 0.3203125,1.351563 0.3203125,0.480468 0.921875,0.480468 0.5898438,0 0.90625,-0.460937 0.3164063,-0.464844 0.3203125,-1.351563 z"/><path style="font-weight:700;font-size:8px;font-family:Roboto,sans-serif;letter-spacing:2px;fill:#333" id="path408" d="m 14.703906,75.105469 q -0.06641,0.917968 -0.679687,1.445312 -0.609375,0.527344 -1.609375,0.527344 -1.09375,0 -1.722656,-0.734375 -0.625,-0.738281 -0.625,-2.023438 v -0.347656 q 0,-0.820312 0.289062,-1.445312 0.289063,-0.625 0.824219,-0.957032 0.539062,-0.335937 1.25,-0.335937 0.984375,0 1.585937,0.527344 0.601563,0.527343 0.695313,1.480468 h -1.171875 q -0.04297,-0.550781 -0.308594,-0.796875 -0.261719,-0.25 -0.800781,-0.25 -0.585938,0 -0.878906,0.421875 -0.289063,0.417969 -0.296875,1.300782 v 0.429687 q 0,0.921875 0.277343,1.347656 0.28125,0.425782 0.882813,0.425782 0.542969,0 0.808594,-0.246094 0.269531,-0.25 0.308593,-0.769531 z"/><path style="font-weight:700;font-size:8px;font-family:Roboto,sans-serif;letter-spacing:2px;fill:#333" id="path410" d="M 21.645313,72.261719 H 19.903125 V 77 H 18.73125 V 72.261719 H 17.0125 V 71.3125 h 4.632813 z"/><path style="font-weight:700;font-size:8px;font-family:Roboto,sans-serif;letter-spacing:2px;fill:#333" id="path412" d="M 27.059375,75.828125 H 25.004688 L 24.614063,77 h -1.246094 l 2.117187,-5.6875 h 1.085938 L 28.7,77 h -1.246094 z m -1.738281,-0.949219 h 1.421875 L 26.028125,72.75 Z"/><path style="font-weight:700;font-size:8px;font-family:Roboto,sans-serif;letter-spacing:2px;fill:#333" id="path414" d="M 33.04375,75.589844 34.332813,71.3125 H 35.6375 L 33.657031,77 H 32.434375 L 30.461719,71.3125 H 31.7625 Z"/><path style="font-weight:700;font-size:8px;font-family:Roboto,sans-serif;letter-spacing:2px;fill:#333" id="path416" d="m 41.598438,74.535156 h -2.25 v 1.523438 h 2.640625 V 77 h -3.8125 v -5.6875 h 3.804687 v 0.949219 h -2.632812 v 1.355468 h 2.25 z"/></g><g id="use177" transform="translate(0,72)"><g id="g298" transform="translate(22.5,22.5)"><g id="g272" transform="rotate(-180,-5,0)"><g style="font-weight:700;font-size:6.66666651px;font-family:Roboto,sans-serif;fill:#333" id="text270" aria-label="-3" transform="rotate(180,3,-1.1)"><path style="font-weight:700;font-size:6.66666651px;font-family:Roboto,sans-serif;fill:#333" id="path419" d="M 2.1907552,-1.6503906 H 0.35807291 V -2.4088541 H 2.1907552 Z"/><path style="font-weight:700;font-size:6.66666651px;font-family:Roboto,sans-serif;fill:#333" id="path421" d="m 3.8704426,-2.7864583 h 0.5013021 q 0.3580729,0 0.5305989,-0.1790364 0.1725261,-0.1790365 0.1725261,-0.4752604 0,-0.2864584 -0.1725261,-0.4459636 -0.1692708,-0.1595052 -0.46875,-0.1595052 -0.2701823,0 -0.4524739,0.1497396 Q 3.798828,-3.7499999 3.798828,-3.5123697 H 2.8580728 q 0,-0.3710937 0.1985677,-0.6640625 0.2018229,-0.2962239 0.5598959,-0.4622396 0.3613281,-0.1660156 0.7942708,-0.1660156 0.7519531,0 1.1783854,0.3613281 0.4264322,0.3580729 0.4264322,0.9895833 0,0.3255209 -0.1985677,0.5989584 -0.1985677,0.2734375 -0.5208333,0.4199218 0.4003906,0.1432292 0.5957031,0.4296875 0.1985677,0.2864583 0.1985677,0.6770833 0,0.63151043 -0.4622395,1.0123698 -0.4589844,0.38085937 -1.2174479,0.38085937 -0.7096354,0 -1.1621094,-0.37434895 Q 2.7994791,-0.68359373 2.7994791,-1.2988281 h 0.9407552 q 0,0.2669271 0.1985677,0.43619791 0.2018229,0.16927083 0.4947916,0.16927083 0.3352865,0 0.5240886,-0.17578124 0.1920572,-0.1790365 0.1920572,-0.4720052 0,-0.7096354 -0.7812499,-0.7096354 H 3.8704426 Z"/></g></g><g id="g276" transform="rotate(-150,-5.5,-1.4737206)"><path style="stroke:#333;stroke-width:.30000001" id="polyline274" d="M 0,0 H 2.5"/></g><g id="g280" transform="rotate(-120,-5.5,-3.1754265)"><path style="stroke:#333;stroke-width:.30000001" id="polyline278" d="M 0,0 H 2.5"/></g><g id="g284" transform="rotate(-90,-5,-5)"><g style="font-weight:700;font-size:6.66666651px;font-family:Roboto,sans-serif;fill:#333" id="text282" aria-label="0" transform="rotate(90,1,-1.2)"><path style="font-weight:700;font-size:6.66666651px;font-family:Roboto,sans-serif;fill:#333" id="path426" d="m 3.5123697,-1.9596354 q 0,0.98307292 -0.406901,1.50390624 -0.4069011,0.52083333 -1.1914062,0.52083333 -0.7747396,0 -1.18489585,-0.5110677 -0.41015624,-0.5110677 -0.41992187,-1.46484367 v -0.8723959 q 0,-0.9928385 0.41015624,-1.5071614 0.41341148,-0.5143229 1.18815098,-0.5143229 0.7747396,0 1.1848958,0.5110677 0.4101563,0.5078125 0.4199219,1.4615885 z M 2.5716145,-2.9166666 q 0,-0.5891927 -0.1627604,-0.8561198 -0.1595052,-0.2701823 -0.5013021,-0.2701823 -0.3320312,0 -0.4915364,0.2571615 Q 1.2597656,-3.531901 1.25,-2.9882812 v 1.1523437 q 0,0.5794271 0.15625,0.86263023 0.1595052,0.27994791 0.5078125,0.27994791 0.345052,0 0.4980468,-0.27018228 0.1529948,-0.27018226 0.1595052,-0.82682286 z"/></g></g><g id="g288" transform="rotate(-60,-5.5,-9.5262794)"><path style="stroke:#333;stroke-width:.30000001" id="polyline286" d="M 0,0 H 2.5"/></g><g id="g292" transform="rotate(-30,-5.5,-20.526279)"><path style="stroke:#333;stroke-width:.30000001" id="polyline290" d="M 0,0 H 2.5"/></g><g id="g296" transform="translate(10)"><g style="font-weight:700;font-size:6.66666651px;font-family:Roboto,sans-serif;fill:#333" id="text294" aria-label="3" transform="translate(-0.2,2.2)"><path style="font-weight:700;font-size:6.66666651px;font-family:Roboto,sans-serif;fill:#333" id="path431" d="m 1.2792968,-2.7864583 h 0.5013021 q 0.3580729,0 0.530599,-0.1790364 0.172526,-0.1790365 0.172526,-0.4752604 0,-0.2864584 -0.172526,-0.4459636 -0.1692709,-0.1595052 -0.46875,-0.1595052 -0.2701823,0 -0.452474,0.1497396 -0.1822916,0.1464844 -0.1822916,0.3841146 H 0.26692708 q 0,-0.3710937 0.1985677,-0.6640625 0.20182291,-0.2962239 0.55989582,-0.4622396 0.3613281,-0.1660156 0.7942708,-0.1660156 0.7519531,0 1.1783854,0.3613281 0.4264323,0.3580729 0.4264323,0.9895833 0,0.3255209 -0.1985677,0.5989584 -0.1985677,0.2734375 -0.5208333,0.4199218 0.4003906,0.1432292 0.5957031,0.4296875 0.1985677,0.2864583 0.1985677,0.6770833 0,0.63151043 -0.4622396,1.0123698 -0.4589844,0.38085937 -1.2174479,0.38085937 -0.7096354,0 -1.16210933,-0.37434895 Q 0.20833333,-0.68359373 0.20833333,-1.2988281 H 1.1490885 q 0,0.2669271 0.1985677,0.43619791 0.2018229,0.16927083 0.4947917,0.16927083 0.3352864,0 0.5240885,-0.17578124 0.1920573,-0.1790365 0.1920573,-0.4720052 0,-0.7096354 -0.78125,-0.7096354 H 1.2792968 Z"/></g></g></g></g><g style="font-weight:700;font-size:8px;font-family:Roboto,sans-serif;letter-spacing:2px;fill:#333" id="text181" aria-label="FINE"><path style="font-weight:700;font-size:8px;font-family:Roboto,sans-serif;letter-spacing:2px;fill:#333" id="path434" d="m 14.929688,114.67578 h -2.25 V 117 h -1.171875 v -5.6875 h 3.703125 v 0.94922 h -2.53125 v 1.46875 h 2.25 z"/><path style="font-weight:700;font-size:8px;font-family:Roboto,sans-serif;letter-spacing:2px;fill:#333" id="path436" d="m 19.144531,117 h -1.171875 v -5.6875 h 1.171875 z"/><path style="font-weight:700;font-size:8px;font-family:Roboto,sans-serif;letter-spacing:2px;fill:#333" id="path438" d="m 26.851562,117 h -1.171875 l -2.28125,-3.74219 V 117 h -1.171875 v -5.6875 h 1.171875 l 2.285157,3.75 v -3.75 h 1.167968 z"/><path style="font-weight:700;font-size:8px;font-family:Roboto,sans-serif;letter-spacing:2px;fill:#333" id="path440" d="m 33.304687,114.53516 h -2.25 v 1.52343 h 2.640625 V 117 h -3.8125 v -5.6875 H 33.6875 v 0.94922 h -2.632813 v 1.35547 h 2.25 z"/></g><g id="use183" transform="translate(0,112)"><g id="g266" transform="translate(22.5,22.5)"><g id="g248" transform="rotate(120,-5,2.8867513)"><g style="font-weight:700;font-size:6.66666651px;font-family:Roboto,sans-serif;fill:#333" id="text246" aria-label="-" transform="rotate(-120,2.6350853,-1.3886751)"><path style="font-weight:700;font-size:6.66666651px;font-family:Roboto,sans-serif;fill:#333" id="path443" d="M 2.1907552,-1.6503906 H 0.35807291 V -2.4088541 H 2.1907552 Z"/></g></g><g id="g252" transform="rotate(-90,-5,-5)"><g style="font-weight:700;font-size:6.66666651px;font-family:Roboto,sans-serif;fill:#333" id="text250" aria-label="0" transform="rotate(90,0.85,-1.05)"><path style="font-weight:700;font-size:6.66666651px;font-family:Roboto,sans-serif;fill:#333" id="path446" d="m 3.5123697,-1.9596354 q 0,0.98307292 -0.406901,1.50390624 -0.4069011,0.52083333 -1.1914062,0.52083333 -0.7747396,0 -1.18489585,-0.5110677 -0.41015624,-0.5110677 -0.41992187,-1.46484367 v -0.8723959 q 0,-0.9928385 0.41015624,-1.5071614 0.41341148,-0.5143229 1.18815098,-0.5143229 0.7747396,0 1.1848958,0.5110677 0.4101563,0.5078125 0.4199219,1.4615885 z M 2.5716145,-2.9166666 q 0,-0.5891927 -0.1627604,-0.8561198 -0.1595052,-0.2701823 -0.5013021,-0.2701823 -0.3320312,0 -0.4915364,0.2571615 Q 1.2597656,-3.531901 1.25,-2.9882812 v 1.1523437 q 0,0.5794271 0.15625,0.86263023 0.1595052,0.27994791 0.5078125,0.27994791 0.345052,0 0.4980468,-0.27018228 0.1529948,-0.27018226 0.1595052,-0.82682286 z"/></g></g><g id="g256" transform="rotate(60,-5,8.660254)"><g style="font-weight:700;font-size:6.66666651px;font-family:Roboto,sans-serif;fill:#333" id="text254" aria-label="+" transform="rotate(-60,4.1052559,-1.6196152)"><path style="font-weight:700;font-size:6.66666651px;font-family:Roboto,sans-serif;fill:#333" id="path449" d="m 2.2591145,-2.6529947 h 1.1751302 v 0.8496093 H 2.2591145 v 1.32812499 H 1.3639323 V -1.8033854 H 0.18554687 V -2.6529947 H 1.3639323 v -1.2727865 h 0.8951822 z"/></g></g><path id="path258" d="M 0,-12.5 A 12.5,12.5 0 0 1 12.5,0" transform="rotate(20)" style="fill:none;stroke:#333;stroke-width:.5;stroke-linecap:round"/><path id="path260" d="M 0,-12.5 A 12.5,12.5 0 0 1 12.5,0" transform="rotate(43)" style="fill:none;stroke:#333;stroke-width:.5;stroke-linecap:round"/><path id="path262" d="M 0,-12.5 A 12.5,12.5 0 0 0 -12.5,0" transform="rotate(-20)" style="fill:none;stroke:#333;stroke-width:.5;stroke-linecap:round"/><path id="path264" d="M 0,-12.5 A 12.5,12.5 0 0 0 -12.5,0" transform="rotate(-43)" style="fill:none;stroke:#333;stroke-width:.5;stroke-linecap:round"/></g></g><path style="fill:#fafafa" id="rect187" d="m 10.5,154 h 24 c 2.77,0 5,2.23 5,5 v 40 c 0,2.77 -2.23,5 -5,5 h -24 c -2.77,0 -5,-2.23 -5,-5 v -40 c 0,-2.77 2.23,-5 5,-5 z"/><g style="font-weight:700;font-size:6.66666651px;font-family:Roboto,sans-serif;letter-spacing:2px;fill:#333" id="text189" aria-label="CV"><path style="font-weight:700;font-size:6.66666651px;font-family:Roboto,sans-serif;letter-spacing:2px;fill:#333" id="path453" d="m 20.64388,187.42122 q -0.05534,0.76498 -0.566406,1.20443 -0.507813,0.43945 -1.341146,0.43945 -0.911458,0 -1.435547,-0.61197 -0.520833,-0.61524 -0.520833,-1.6862 v -0.28972 q 0,-0.68359 0.240885,-1.20442 0.240886,-0.52084 0.686849,-0.79753 0.449219,-0.27995 1.041667,-0.27995 0.820312,0 1.321614,0.43946 0.501303,0.43945 0.579428,1.23372 h -0.976563 q -0.03581,-0.45898 -0.257161,-0.66406 -0.218099,-0.20834 -0.667318,-0.20834 -0.488281,0 -0.732422,0.35157 -0.240885,0.3483 -0.247396,1.08398 v 0.35807 q 0,0.76823 0.23112,1.12305 0.234375,0.35482 0.735677,0.35482 0.452474,0 0.673828,-0.20508 0.22461,-0.20833 0.257162,-0.64128 z"/><path style="font-weight:700;font-size:6.66666651px;font-family:Roboto,sans-serif;letter-spacing:2px;fill:#333" id="path455" d="m 25.036458,187.82487 1.074219,-3.56445 h 1.087239 L 25.547526,189 h -1.01888 l -1.643881,-4.73958 h 1.083985 z"/></g><g id="g193" transform="translate(8.5,193)"><g style="font-weight:700;font-size:6.66666651px;font-family:Roboto,sans-serif;letter-spacing:1px;fill:#333" id="text191" aria-label="QZ" transform="translate(8,6)"><path style="font-weight:700;font-size:6.66666651px;font-family:Roboto,sans-serif;letter-spacing:1px;fill:#333" id="path458" d="m 4.3098957,-2.2623697 q 0,0.6640624 -0.2148437,1.1555989 -0.2148438,0.48828123 -0.5957031,0.78450518 L 4.2871093,0.29622395 3.6653645,0.84635415 2.6562499,0.03580729 q -0.172526,0.02929688 -0.3580729,0.02929688 -0.5891927,0 -1.0514322,-0.28320312 Q 0.78450519,-0.50130207 0.53059895,-1.0253906 0.2766927,-1.5527343 0.27343749,-2.2363281 v -0.234375 q 0,-0.6998697 0.25065104,-1.2304687 0.25390624,-0.5338541 0.71289057,-0.8170573 0.4622396,-0.2864583 1.0546875,-0.2864583 0.5924479,0 1.0514323,0.2864583 0.4622396,0.2832032 0.7128906,0.8170573 0.2539062,0.530599 0.2539062,1.2272135 z M 3.3203124,-2.4772135 q 0,-0.7454427 -0.2669271,-1.1328125 -0.266927,-0.3873697 -0.7617187,-0.3873697 -0.4915364,0 -0.7584635,0.3841145 -0.2669271,0.3808594 -0.2701823,1.1197917 v 0.2311198 q 0,0.7259114 0.2669271,1.126302 0.2669271,0.40039063 0.7682291,0.40039063 0.4915365,0 0.7552083,-0.38411453 0.2636719,-0.3873698 0.2669271,-1.1263021 z"/><path style="font-weight:700;font-size:6.66666651px;font-family:Roboto,sans-serif;letter-spacing:1px;fill:#333" id="path460" d="M 7.0677083,-0.78450519 H 9.4570312 V 0 H 5.8470052 V -0.57291665 L 8.1907551,-3.9485676 H 5.8502604 v -0.7910156 h 3.5546874 v 0.5598958 z"/></g></g><g id="g203" transform="translate(5.5,212)"><path style="fill:#fafafa" id="rect197" d="M 0,0 H 34 V 10 H 0 Z" transform="translate(0,28)"/><path style="fill:#fafafa" id="rect199" d="m 5,0 h 24 c 2.77,0 5,2.23 5,5 v 25 c 0,2.77 -2.23,5 -5,5 H 5 C 2.23,35 0,32.77 0,30 V 5 C 0,2.23 2.23,0 5,0 Z"/><g style="font-weight:700;font-size:6.66666651px;font-family:Roboto,sans-serif;letter-spacing:2px;fill:#333" id="text201" aria-label="V/OCT" transform="translate(3,35)"><path style="font-weight:700;font-size:6.66666651px;font-family:Roboto,sans-serif;letter-spacing:2px;fill:#333" id="path465" d="m 2.1744791,-1.1751302 1.0742187,-3.564453 H 4.3359374 L 2.6855468,0 H 1.6666666 L 0.02278646,-4.7395832 H 1.1067708 Z"/><path style="font-weight:700;font-size:6.66666651px;font-family:Roboto,sans-serif;letter-spacing:2px;fill:#333" id="path467" d="M 7.0195311,0.40690103 H 6.3196613 L 8.0644529,-4.7395832 h 0.6998698 z"/><path style="font-weight:700;font-size:6.66666651px;font-family:Roboto,sans-serif;letter-spacing:2px;fill:#333" id="path469" d="m 15.165364,-2.2623697 q 0,0.6998697 -0.247396,1.2272135 -0.247395,0.52734371 -0.709635,0.81380204 -0.458984,0.28645833 -1.054688,0.28645833 -0.589192,0 -1.051432,-0.28320312 -0.462239,-0.28320312 -0.716146,-0.80729165 -0.253906,-0.5273437 -0.257161,-1.2109375 v -0.234375 q 0,-0.6998697 0.250651,-1.2304687 0.253906,-0.5338541 0.712891,-0.8170573 0.462239,-0.2864583 1.054687,-0.2864583 0.592448,0 1.051432,0.2864583 0.46224,0.2832032 0.712891,0.8170573 0.253906,0.530599 0.253906,1.2272135 z m -0.989583,-0.2148438 q 0,-0.7454427 -0.266927,-1.1328125 -0.266927,-0.3873697 -0.761719,-0.3873697 -0.491536,0 -0.758463,0.3841145 -0.266928,0.3808594 -0.270183,1.1197917 v 0.2311198 q 0,0.7259114 0.266927,1.126302 0.266927,0.40039063 0.768229,0.40039063 0.491537,0 0.755209,-0.38411453 0.263672,-0.3873698 0.266927,-1.1263021 z"/><path style="font-weight:700;font-size:6.66666651px;font-family:Roboto,sans-serif;letter-spacing:2px;fill:#333" id="path471" d="m 21.602212,-1.578776 q -0.05534,0.76497394 -0.566406,1.20442705 -0.507813,0.43945312 -1.341146,0.43945312 -0.911458,0 -1.435547,-0.61197916 Q 17.73828,-1.1621093 17.73828,-2.2330729 v -0.2897135 q 0,-0.6835937 0.240885,-1.2044271 0.240886,-0.5208333 0.686849,-0.797526 0.449219,-0.2799479 1.041667,-0.2799479 0.820312,0 1.321615,0.4394531 0.501302,0.4394531 0.579427,1.233724 H 20.63216 q -0.03581,-0.4589844 -0.257161,-0.6640625 -0.218099,-0.2083334 -0.667318,-0.2083334 -0.488281,0 -0.732422,0.3515625 -0.240885,0.3483073 -0.247396,1.0839844 v 0.3580729 q 0,0.7682291 0.23112,1.1230468 0.234375,0.35481774 0.735677,0.35481774 0.452474,0 0.673828,-0.20507812 0.22461,-0.20833332 0.257162,-0.64127602 z"/><path style="font-weight:700;font-size:6.66666651px;font-family:Roboto,sans-serif;letter-spacing:2px;fill:#333" id="path473" d="M 27.720051,-3.9485676 H 26.268228 V 0 h -0.976562 v -3.9485676 h -1.432292 v -0.7910156 h 3.860677 z"/></g></g><g id="g213" transform="translate(5.5,253)"><path style="fill:#bbb" id="rect205" d="M 0,0 H 34 V 10 H 0 Z" transform="translate(0,-3)"/><path style="fill:#bbb" id="rect207" d="m 5,0 h 24 c 2.77,0 5,2.23 5,5 v 62 c 0,2.77 -2.23,5 -5,5 H 5 C 2.23,72 0,69.77 0,67 V 5 C 0,2.23 2.23,0 5,0 Z"/><g style="font-weight:700;font-size:6.66666651px;font-family:Roboto,sans-serif;letter-spacing:2px;fill:#333" id="text209" aria-label="THRU" transform="translate(5.5,32)"><path style="font-weight:700;font-size:6.66666651px;font-family:Roboto,sans-serif;letter-spacing:2px;fill:#333" id="path478" d="M 3.9908853,-3.9485676 H 2.5390624 V 0 H 1.5625 V -3.9485676 H 0.13020833 V -4.7395832 H 3.9908853 Z"/><path style="font-weight:700;font-size:6.66666651px;font-family:Roboto,sans-serif;letter-spacing:2px;fill:#333" id="path480" d="M 10.408203,0 H 9.4316404 V -2.03125 H 7.5273436 V 0 H 6.5507811 v -4.7395832 h 0.9765625 v 1.9205729 h 1.9042968 v -1.9205729 h 0.9765626 z"/><path style="font-weight:700;font-size:6.66666651px;font-family:Roboto,sans-serif;letter-spacing:2px;fill:#333" id="path482" d="M 15.01888,-1.735026 H 14.240885 V 0 h -0.976562 v -4.7395832 h 1.761067 q 0.839844,0 1.295573,0.3743489 0.455729,0.374349 0.455729,1.0579427 0,0.485026 -0.211588,0.8105469 -0.208334,0.3222656 -0.634766,0.5143229 l 1.025391,1.93684888 V 0 h -1.048177 z m -0.777995,-0.7910156 h 0.78776 q 0.367839,0 0.569662,-0.1855469 0.201823,-0.1888021 0.201823,-0.5175781 0,-0.3352864 -0.192057,-0.5273437 -0.188803,-0.1920573 -0.582683,-0.1920573 h -0.784505 z"/><path style="font-weight:700;font-size:6.66666651px;font-family:Roboto,sans-serif;letter-spacing:2px;fill:#333" id="path484" d="m 23.109374,-4.7395832 v 3.1217447 q 0,0.77799477 -0.488282,1.23046872 -0.485026,0.45247395 -1.328125,0.45247395 -0.830078,0 -1.318359,-0.43945312 -0.488281,-0.43945311 -0.498047,-1.20768225 v -3.157552 h 0.976563 v 3.1282551 q 0,0.4654948 0.221354,0.68033854 0.224609,0.21158854 0.618489,0.21158854 0.823568,0 0.836589,-0.86588538 v -3.1542968 z"/></g><g style="font-weight:700;font-size:6.66666651px;font-family:Roboto,sans-serif;letter-spacing:2px;fill:#333" id="text211" aria-label="OUT" transform="translate(8.3,68)"><path style="font-weight:700;font-size:6.66666651px;font-family:Roboto,sans-serif;letter-spacing:2px;fill:#333" id="path487" d="m 4.3164061,-2.2623697 q 0,0.6998697 -0.2473958,1.2272135 -0.2473958,0.52734371 -0.7096354,0.81380204 -0.4589843,0.28645833 -1.0546875,0.28645833 -0.5891926,0 -1.0514322,-0.28320312 Q 0.79101561,-0.50130207 0.53710936,-1.0253906 0.28320312,-1.5527343 0.27994791,-2.2363281 v -0.234375 q 0,-0.6998697 0.25065104,-1.2304687 0.25390624,-0.5338541 0.71289065,-0.8170573 0.4622395,-0.2864583 1.0546874,-0.2864583 0.5924479,0 1.0514323,0.2864583 0.4622396,0.2832032 0.7128906,0.8170573 0.2539062,0.530599 0.2539062,1.2272135 z M 3.3268228,-2.4772135 q 0,-0.7454427 -0.266927,-1.1328125 -0.2669271,-0.3873697 -0.7617188,-0.3873697 -0.4915364,0 -0.7584635,0.3841145 -0.2669271,0.3808594 -0.2701823,1.1197917 v 0.2311198 q 0,0.7259114 0.2669271,1.126302 0.2669271,0.40039063 0.7682291,0.40039063 0.4915365,0 0.7552084,-0.38411453 0.2636718,-0.3873698 0.266927,-1.1263021 z"/><path style="font-weight:700;font-size:6.66666651px;font-family:Roboto,sans-serif;letter-spacing:2px;fill:#333" id="path489" d="m 10.619792,-4.7395832 v 3.1217447 q 0,0.77799477 -0.488282,1.23046872 -0.4850257,0.45247395 -1.3281246,0.45247395 -0.8300781,0 -1.3183594,-0.43945312 Q 6.9967448,-0.81380206 6.9869792,-1.5820312 v -3.157552 h 0.9765624 v 3.1282551 q 0,0.4654948 0.2213542,0.68033854 0.2246094,0.21158854 0.6184896,0.21158854 0.8235677,0 0.8365885,-0.86588538 v -3.1542968 z"/><path style="font-weight:700;font-size:6.66666651px;font-family:Roboto,sans-serif;letter-spacing:2px;fill:#333" id="path491" d="M 16.988281,-3.9485676 H 15.536458 V 0 h -0.976563 v -3.9485676 h -1.432291 v -0.7910156 h 3.860677 z"/></g></g></svg>