<svg xmlns="http://www.w3.org/2000/svg" xmlns:svg="http://www.w3.org/2000/svg" id="svg84" width="45" height="380" version="1.1" viewBox="0 0 45 380"><metadata id="metadata88"/><style id="style2"/><defs id="defs42"><symbol id="knob-small" viewBox="0 0 45 45"><g id="g10" transform="translate(22.5 22.5)"><polyline id="polyline4" stroke="#00f" stroke-width="1" points="-3 0 3 0"/><polyline id="polyline6" stroke="#00f" stroke-width="1" points="0 -3 0 3"/><circle id="circle8" cx="0" cy="0" r="7.5" fill="none" stroke="#00f" stroke-width="1"/></g></symbol><symbol id="knobguide-maxtick" viewBox="0 0 40 40"><g id="g25" transform="translate(20 20)"><g id="g15" transform="rotate(60) translate(10 0)"><polyline id="polyline13" stroke="#333" stroke-width="1" points="0 0 4 0"/></g><path id="path17" fill="none" stroke="#333" stroke-linecap="round" stroke-width=".5" d="M 0 -12.5 A 12.5 12.5 0 0 1 12.5 0" transform="rotate(0)"/><path id="path19" fill="none" stroke="#333" stroke-linecap="round" stroke-width=".5" d="M 0 -12.5 A 12.5 12.5 0 0 1 12.5 0" transform="rotate(43)"/><path id="path21" fill="none" stroke="#333" stroke-linecap="round" stroke-width=".5" d="M 0 -12.5 A 12.5 12.5 0 0 0 -12.5 0" transform="rotate(0)"/><path id="path23" fill="none" stroke="#333" stroke-linecap="round" stroke-width=".5" d="M 0 -12.5 A 12.5 12.5 0 0 0 -12.5 0" transform="rotate(-43)"/></g></symbol><symbol id="input" viewBox="0 0 24 24"><g id="g32" transform="translate(12 12)"><circle id="circle28" cx="0" cy="0" r="5" fill="#0f0" stroke="#0f0" stroke-width="1"/><circle id="circle30" cx="0" cy="0" r="10.5" fill="none" stroke="#0f0" stroke-width="3"/></g></symbol><symbol id="output" viewBox="0 0 24 24"><g id="g39" transform="translate(12 12)"><circle id="circle35" cx="0" cy="0" r="5" fill="red" stroke="red" stroke-width="1"/><circle id="circle37" cx="0" cy="0" r="10.5" fill="none" stroke="red" stroke-width="3"/></g></symbol></defs><path id="rect44" d="M 0,0 H 45 V 380 H 0 Z" style="fill:#ddd"/><path id="polyline46" d="M 1,1 H 44 V 379 H 1 V 1" style="fill:none;stroke:#e4e4e4;stroke-width:.5"/><path id="polyline48" d="m 0.5,0.5 h 44 v 379 H 0.5 V 0.5" style="fill:none;stroke:#ebebeb;stroke-width:.80000001"/><path id="polyline50" d="M 0,0 H 45 V 380 H 0 V 0" style="fill:none;stroke:#f2f2f2;stroke-width:1"/><g id="text52" aria-label="UMIX" transform="rotate(-90)" style="font-weight:400;font-size:9.33333302px;font-family:Comfortaa,sans-serif;letter-spacing:2.5px;fill:#333"><path id="path146" d="m -372.164,13.149333 q -0.84,0 -1.50267,-0.326666 -0.66266,-0.326667 -1.036,-0.905334 -0.364,-0.588 -0.364,-1.325333 V 6.0746669 q 0,-0.1586667 0.10267,-0.2613333 0.10267,-0.1026667 0.26133,-0.1026667 0.15867,0 0.26134,0.1026667 0.10266,0.1026666 0.10266,0.2613333 V 10.592 q 0,0.541333 0.27067,0.970667 0.28,0.42 0.77467,0.662666 0.49466,0.233334 1.12933,0.233334 0.62533,0 1.11067,-0.233334 0.48533,-0.242666 0.756,-0.662666 0.28,-0.429334 0.28,-0.970667 V 6.0746669 q 0,-0.1586667 0.10266,-0.2613333 0.10267,-0.1026667 0.26134,-0.1026667 0.15866,0 0.26133,0.1026667 0.10267,0.1026666 0.10267,0.2613333 V 10.592 q 0,0.737333 -0.37334,1.325333 -0.364,0.578667 -1.01733,0.905334 -0.65333,0.326666 -1.484,0.326666 z" style="font-weight:400;font-size:9.33333302px;font-family:Comfortaa,sans-serif;letter-spacing:2.5px;fill:#333"/><path id="path148" d="m -357.99398,5.7106669 q 0.14933,0 0.252,0.1026667 0.10267,0.1026666 0.10267,0.2613333 V 12.636 q 0,0.149333 -0.10267,0.261333 Q -357.84465,13 -357.99398,13 q -0.15867,0 -0.27067,-0.102667 -0.10266,-0.112 -0.10266,-0.261333 V 7.3533335 l -2.59467,5.3013335 q -0.112,0.177333 -0.31733,0.177333 -0.23334,0 -0.336,-0.224 l -2.58534,-5.1706665 V 12.636 q 0,0.149333 -0.10266,0.261333 Q -364.40598,13 -364.56465,13 q -0.14933,0 -0.26133,-0.102667 -0.10267,-0.112 -0.10267,-0.261333 V 6.0746669 q 0,-0.1586667 0.10267,-0.2613333 0.112,-0.1026667 0.26133,-0.1026667 0.21467,0 0.32667,0.1866667 l 2.98667,5.9359994 2.93066,-5.9359994 q 0.112,-0.1866667 0.32667,-0.1866667 z" style="font-weight:400;font-size:9.33333302px;font-family:Comfortaa,sans-serif;letter-spacing:2.5px;fill:#333"/><path id="path150" d="m -352.9136,13 q -0.14934,0 -0.26134,-0.102667 -0.10266,-0.112 -0.10266,-0.261333 V 6.0746669 q 0,-0.1586667 0.10266,-0.2613333 0.112,-0.1026667 0.26134,-0.1026667 0.15866,0 0.26133,0.1026667 0.10267,0.1026666 0.10267,0.2613333 V 12.636 q 0,0.149333 -0.10267,0.261333 Q -352.75494,13 -352.9136,13 Z" style="font-weight:400;font-size:9.33333302px;font-family:Comfortaa,sans-serif;letter-spacing:2.5px;fill:#333"/><path id="path152" d="m -343.02773,12.412 q 0.084,0.112 0.084,0.233333 0,0.149334 -0.0933,0.252 Q -343.1304,13 -343.28906,13 q -0.18667,0 -0.28,-0.130667 L -345.79973,9.7800001 -348.07706,12.888 Q -348.1704,13 -348.3384,13 q -0.15866,0 -0.252,-0.09333 -0.0933,-0.102667 -0.0933,-0.242667 0,-0.14 0.084,-0.252 l 2.30533,-3.1359999 -2.156,-2.9959999 q -0.0747,-0.1213333 -0.0747,-0.224 0,-0.14 0.0933,-0.2426666 0.0933,-0.1026667 0.24267,-0.1026667 0.18666,0 0.28,0.1306667 l 2.11866,2.9306665 2.14667,-2.9306665 q 0.10267,-0.1306667 0.28,-0.1306667 0.14933,0 0.24267,0.112 0.0933,0.1026667 0.0933,0.2426667 0,0.1213333 -0.0653,0.2146666 l -2.20267,2.9866666 z" style="font-weight:400;font-size:9.33333302px;font-family:Comfortaa,sans-serif;letter-spacing:2.5px;fill:#333"/></g><g id="g58" transform="rotate(-90,200.5,175.5)"><g id="text54" aria-label="BGA" style="font-weight:700;font-size:9.33333302px;font-family:Audiowide,sans-serif;letter-spacing:2px;fill:#333"><path id="path155" d="m 7.2096352,-1.4355468 q 0,0.21875 -0.077474,0.469401 -0.072917,0.25065103 -0.2460937,0.46484373 -0.1686198,0.2141927 -0.4420573,0.36002603 Q 6.1705727,0 5.7740883,0 H 1.2760416 Q 1.1484375,0 1.0390625,-0.04557292 0.92968747,-0.09114583 0.84765622,-0.16861979 q -0.077474,-0.0820312 -0.12304687,-0.19140624 -0.0455729,-0.109375 -0.0455729,-0.23697916 V -5.9381508 q 0,-0.1230469 0.0455729,-0.2324219 0.0455729,-0.109375 0.12304687,-0.1914062 0.0820313,-0.082031 0.19140628,-0.1276042 0.109375,-0.045573 0.2369791,-0.045573 h 3.9648436 q 0.21875,0 0.4694011,0.077474 0.250651,0.077474 0.4648437,0.2506511 0.21875,0.1686197 0.360026,0.4420572 0.1458334,0.2734375 0.1458334,0.6699219 v 0.2233073 q 0,0.3144531 -0.1048177,0.6790364 -0.1048178,0.360026 -0.3372396,0.6835937 0.2005208,0.1230469 0.3736979,0.296224 0.1777344,0.1731771 0.3098958,0.4010416 0.1321615,0.2278646 0.2096354,0.514974 0.077474,0.2871093 0.077474,0.6334635 z M 6.0247394,-1.6634114 q 0,-0.2324219 -0.072917,-0.4147135 Q 5.878906,-2.2649739 5.7467446,-2.3971353 5.6145831,-2.5292968 5.4277342,-2.5976562 5.2408852,-2.6705728 5.0084634,-2.6705728 H 2.3378905 v -1.1940104 h 2.1373698 q 0.2324218,0 0.4192708,-0.068359 0.1868489,-0.072917 0.3190104,-0.2050781 0.1321614,-0.1321614 0.2005208,-0.3144531 0.072917,-0.186849 0.072917,-0.4192708 v -0.2233073 q 0,-0.2552083 -0.2460938,-0.2552083 h -3.376953 v 4.1653644 h 3.9101561 q 0.031901,0 0.077474,-0.00456 0.045573,-0.00456 0.082031,-0.027344 0.036458,-0.022787 0.063802,-0.077474 0.027344,-0.054687 0.027344,-0.1503906 z" style="font-weight:700;font-size:9.33333302px;font-family:Audiowide,sans-serif;letter-spacing:2px;fill:#333"/><path id="path157" d="m 16.683594,-0.59700519 q 0,0.12760416 -0.04557,0.23697916 -0.04557,0.109375 -0.127605,0.19140624 -0.07747,0.07747396 -0.186849,0.12304687 Q 16.214192,0 16.086588,0 h -4.274739 q -0.164063,0 -0.355469,-0.03645833 -0.186849,-0.04101563 -0.373698,-0.12304687 -0.182291,-0.0820313 -0.350911,-0.20963541 -0.16862,-0.13216146 -0.300781,-0.31445312 -0.127605,-0.18684895 -0.205079,-0.42838537 -0.07747,-0.2460938 -0.07747,-0.5514323 v -3.2083332 q 0,-0.1640625 0.03646,-0.3509115 0.04101,-0.1914062 0.123047,-0.3736979 0.08203,-0.1868489 0.214192,-0.3554687 0.132162,-0.1686198 0.314453,-0.296224 0.186849,-0.1321614 0.428386,-0.2096354 0.241536,-0.077474 0.546875,-0.077474 h 4.817057 v 1.1848958 h -4.817057 q -0.232422,0 -0.355469,0.1230468 -0.123047,0.1230469 -0.123047,0.3645834 v 3.1992186 q 0,0.2278646 0.123047,0.3554687 0.127604,0.1230469 0.355469,0.1230469 h 3.686849 v -1.485677 h -3.153646 v -1.1940104 h 3.741536 q 0.127604,0 0.236979,0.05013 0.109375,0.045573 0.186849,0.1276042 0.08203,0.082031 0.127605,0.1914062 0.04557,0.1048177 0.04557,0.2278646 z" style="font-weight:700;font-size:9.33333302px;font-family:Audiowide,sans-serif;letter-spacing:2px;fill:#333"/><path id="path159" d="M 26.339842,0 H 25.154946 V -1.6041666 H 20.989582 V 0 h -1.184896 v -3.267578 q 0,-0.7154948 0.246094,-1.3170573 0.246094,-0.6015624 0.683594,-1.0345051 0.4375,-0.4329427 1.034505,-0.6744792 0.597005,-0.2415364 1.303385,-0.2415364 h 2.670573 q 0.123047,0 0.232422,0.045573 0.109375,0.045573 0.191406,0.1276042 0.08203,0.082031 0.127604,0.1914062 0.04557,0.109375 0.04557,0.2324219 z m -5.35026,-2.7890624 h 4.165364 v -2.5611978 h -2.082682 q -0.05469,0 -0.232422,0.018229 -0.173177,0.013672 -0.405599,0.077474 -0.227864,0.063802 -0.483072,0.1959635 -0.255209,0.1321615 -0.469402,0.3645833 -0.214192,0.2324219 -0.355468,0.5833334 -0.136719,0.3463541 -0.136719,0.8430989 z" style="font-weight:700;font-size:9.33333302px;font-family:Audiowide,sans-serif;letter-spacing:2px;fill:#333"/></g><path id="rect56" d="M 0,0 H 3 V 3 H 0 Z" transform="translate(11.5,-5)" style="fill:#ddd"/></g><g id="g66" transform="translate(5.5,18)"><path id="rect62" d="M 0,0 H 34 V 10 H 0 Z" transform="translate(0,232)" style="fill:#fafafa"/><path id="rect64" d="m 5,0 h 24 c 2.77,0 5,2.23 5,5 v 232 c 0,2.77 -2.23,5 -5,5 H 5 c -2.77,0 -5,-2.23 -5,-5 V 5 C 0,2.23 2.23,0 5,0 Z" style="fill:#fafafa"/></g><g id="g74" transform="translate(5.5,263)"><path id="rect68" d="M 0,0 H 34 V 10 H 0 Z" transform="translate(0,-3)" style="fill:#bbb"/><path id="rect70" d="m 5,0 h 24 c 2.77,0 5,2.23 5,5 v 26 c 0,2.77 -2.23,5 -5,5 H 5 C 2.23,36 0,33.77 0,31 V 5 C 0,2.23 2.23,0 5,0 Z" style="fill:#bbb"/><g id="text72" aria-label="OUT" transform="translate(8.5,32)" style="font-weight:700;font-size:6.66666651px;font-family:Roboto,sans-serif;letter-spacing:2px;fill:#333"><path id="path123" d="m 4.3164061,-2.2623697 q 0,0.6998697 -0.2473958,1.2272135 -0.2473958,0.52734371 -0.7096354,0.81380204 -0.4589843,0.28645833 -1.0546875,0.28645833 -0.5891926,0 -1.0514322,-0.28320312 Q 0.79101561,-0.50130207 0.53710936,-1.0253906 0.28320312,-1.5527343 0.27994791,-2.2363281 v -0.234375 q 0,-0.6998697 0.25065104,-1.2304687 0.25390624,-0.5338541 0.71289065,-0.8170573 0.4622395,-0.2864583 1.0546874,-0.2864583 0.5924479,0 1.0514323,0.2864583 0.4622396,0.2832032 0.7128906,0.8170573 0.2539062,0.530599 0.2539062,1.2272135 z M 3.3268228,-2.4772135 q 0,-0.7454427 -0.266927,-1.1328125 -0.2669271,-0.3873697 -0.7617188,-0.3873697 -0.4915364,0 -0.7584635,0.3841145 -0.2669271,0.3808594 -0.2701823,1.1197917 v 0.2311198 q 0,0.7259114 0.2669271,1.126302 0.2669271,0.40039063 0.7682291,0.40039063 0.4915365,0 0.7552084,-0.38411453 0.2636718,-0.3873698 0.266927,-1.1263021 z" style="font-weight:700;font-size:6.66666651px;font-family:Roboto,sans-serif;letter-spacing:2px;fill:#333"/><path id="path125" d="m 10.619792,-4.7395832 v 3.1217447 q 0,0.77799477 -0.488282,1.23046872 -0.4850257,0.45247395 -1.3281246,0.45247395 -0.8300781,0 -1.3183594,-0.43945312 Q 6.9967448,-0.81380206 6.9869792,-1.5820312 v -3.157552 h 0.9765624 v 3.1282551 q 0,0.4654948 0.2213542,0.68033854 0.2246094,0.21158854 0.6184896,0.21158854 0.8235677,0 0.8365885,-0.86588538 v -3.1542968 z" style="font-weight:700;font-size:6.66666651px;font-family:Roboto,sans-serif;letter-spacing:2px;fill:#333"/><path id="path127" d="M 16.988281,-3.9485676 H 15.536458 V 0 h -0.976563 v -3.9485676 h -1.432291 v -0.7910156 h 3.860677 z" style="font-weight:700;font-size:6.66666651px;font-family:Roboto,sans-serif;letter-spacing:2px;fill:#333"/></g></g><g id="text78" aria-label="LEVEL" style="font-weight:700;font-size:8px;font-family:Roboto,sans-serif;letter-spacing:2px;fill:#333"><path id="path130" d="M 8.6796875,310.05859 H 11.167969 V 311 H 7.5078125 v -5.6875 h 1.171875 z" style="font-weight:700;font-size:8px;font-family:Roboto,sans-serif;letter-spacing:2px;fill:#333"/><path id="path132" d="m 17.257812,308.53516 h -2.249999 v 1.52343 h 2.640624 V 311 h -3.812499 v -5.6875 h 3.804687 v 0.94922 h -2.632812 v 1.35547 h 2.249999 z" style="font-weight:700;font-size:8px;font-family:Roboto,sans-serif;letter-spacing:2px;fill:#333"/><path id="path134" d="m 22.4375,309.58984 1.289062,-4.27734 H 25.03125 L 23.050781,311 h -1.222656 l -1.972656,-5.6875 h 1.300781 z" style="font-weight:700;font-size:8px;font-family:Roboto,sans-serif;letter-spacing:2px;fill:#333"/><path id="path136" d="m 30.992187,308.53516 h -2.25 v 1.52343 h 2.640625 V 311 h -3.8125 v -5.6875 H 31.375 v 0.94922 h -2.632813 v 1.35547 h 2.25 z" style="font-weight:700;font-size:8px;font-family:Roboto,sans-serif;letter-spacing:2px;fill:#333"/><path id="path138" d="m 35.242187,310.05859 h 2.488282 V 311 h -3.660157 v -5.6875 h 1.171875 z" style="font-weight:700;font-size:8px;font-family:Roboto,sans-serif;letter-spacing:2px;fill:#333"/></g><g id="use80" transform="translate(2.2,308.5)"><g id="g115" transform="translate(20,20)"><g id="g105" transform="rotate(60,-5,8.660254)"><path id="polyline103" d="M 0,0 H 4" style="stroke:#333;stroke-width:1"/></g><path style="fill:none;stroke:#333;stroke-width:.5;stroke-linecap:round" id="path107" d="M 0,-12.5 A 12.5,12.5 0 0 1 12.5,0"/><path style="fill:none;stroke:#333;stroke-width:.5;stroke-linecap:round" id="path109" d="M 0,-12.5 A 12.5,12.5 0 0 1 12.5,0" transform="rotate(43)"/><path style="fill:none;stroke:#333;stroke-width:.5;stroke-linecap:round" id="path111" d="M 0,-12.5 A 12.5,12.5 0 0 0 -12.5,0"/><path style="fill:none;stroke:#333;stroke-width:.5;stroke-linecap:round" id="path113" d="M 0,-12.5 A 12.5,12.5 0 0 0 -12.5,0" transform="rotate(-43)"/></g></g></svg>