<svg xmlns="http://www.w3.org/2000/svg" xmlns:svg="http://www.w3.org/2000/svg" id="svg132" width="45" height="380" version="1.1" viewBox="0 0 45 380"><metadata id="metadata136"/><style id="style2">text{fill:#333;font-family:&apos;Roboto&apos;,sans-serif;font-weight:700}</style><defs id="defs60"><symbol id="knob" viewBox="0 0 45 45"><g id="g10" transform="translate(22.5 22.5)"><polyline id="polyline4" stroke="#00f" stroke-width="1" points="-5 0 5 0"/><polyline id="polyline6" stroke="#00f" stroke-width="1" points="0 -5 0 5"/><circle id="circle8" cx="0" cy="0" r="12.5" fill="none" stroke="#00f" stroke-width="1"/></g></symbol><symbol id="knobguide-linear" viewBox="0 0 45 45"><g id="g35" transform="translate(22.5 22.5)"><text id="text13" font-size="5pt" transform="rotate(-240) translate(18 0) rotate(240) translate(-2 2)">0</text><polyline id="polyline15" stroke="#333" stroke-width=".3" points="0 0 2.5 0" transform="rotate(-210) translate(15 0)"/><polyline id="polyline17" stroke="#333" stroke-width=".3" points="0 0 2.5 0" transform="rotate(-180) translate(15 0)"/><polyline id="polyline19" stroke="#333" stroke-width=".3" points="0 0 2.5 0" transform="rotate(-150) translate(15 0)"/><polyline id="polyline21" stroke="#333" stroke-width=".3" points="0 0 2.5 0" transform="rotate(-120) translate(15 0)"/><polyline id="polyline23" stroke="#333" stroke-width=".3" points="0 0 2.5 0" transform="rotate(-90) translate(15 0)"/><polyline id="polyline25" stroke="#333" stroke-width=".3" points="0 0 2.5 0" transform="rotate(-60) translate(15 0)"/><polyline id="polyline27" stroke="#333" stroke-width=".3" points="0 0 2.5 0" transform="rotate(-30) translate(15 0)"/><polyline id="polyline29" stroke="#333" stroke-width=".3" points="0 0 2.5 0" transform="rotate(0) translate(15 0)"/><polyline id="polyline31" stroke="#333" stroke-width=".3" points="0 0 2.5 0" transform="rotate(30) translate(15 0)"/><polyline id="polyline33" stroke="#333" stroke-width="1" points="0 0 3.5 0" transform="rotate(60) translate(15 0)"/></g></symbol><symbol id="button" viewBox="0 0 9 9"><g id="g40" transform="translate(4.5 4.5)"><circle id="circle38" cx="0" cy="0" r="4.1" fill="red" stroke="#00f" stroke-width="1"/></g></symbol><symbol id="light-small" viewBox="0 0 6.4 6.4"><rect id="rect43" width="6.4" height="6.4" fill="#0f0"/></symbol><symbol id="input" viewBox="0 0 24 24"><g id="g50" transform="translate(12 12)"><circle id="circle46" cx="0" cy="0" r="5" fill="#0f0" stroke="#0f0" stroke-width="1"/><circle id="circle48" cx="0" cy="0" r="10.5" fill="none" stroke="#0f0" stroke-width="3"/></g></symbol><symbol id="output" viewBox="0 0 24 24"><g id="g57" transform="translate(12 12)"><circle id="circle53" cx="0" cy="0" r="5" fill="red" stroke="red" stroke-width="1"/><circle id="circle55" cx="0" cy="0" r="10.5" fill="none" stroke="red" stroke-width="3"/></g></symbol></defs><path style="fill:#ddd" id="rect62" d="M 0,0 H 45 V 380 H 0 Z"/><path style="fill:none;stroke:#e4e4e4;stroke-width:.5" id="polyline64" d="M 1,1 H 44 V 379 H 1 V 1"/><path style="fill:none;stroke:#ebebeb;stroke-width:.80000001" id="polyline66" d="m 0.5,0.5 h 44 v 379 H 0.5 V 0.5"/><path style="fill:none;stroke:#f2f2f2;stroke-width:1" id="polyline68" d="M 0,0 H 45 V 380 H 0 V 0"/><g style="font-weight:400;font-size:9.33333302px;font-family:Comfortaa,sans-serif;letter-spacing:2.5px;fill:#333" id="text70" aria-label="VCA" transform="rotate(-90)"><path style="font-weight:400;font-size:9.33333302px;font-family:Comfortaa,sans-serif;letter-spacing:2.5px;fill:#333" id="path290" d="m -369.82133,5.7106669 q 0.14933,0 0.23333,0.093333 0.0933,0.093333 0.0933,0.2333334 0,0.093333 -0.0467,0.2053333 l -2.78134,6.5240001 Q -372.42533,13 -372.64933,13 q -0.12134,0 -0.20534,-0.04667 -0.0747,-0.056 -0.13066,-0.186666 l -2.772,-6.4866668 q -0.056,-0.14 -0.056,-0.2426666 0,-0.1493334 0.0933,-0.2333334 0.10267,-0.093333 0.26133,-0.093333 0.24267,0 0.336,0.2333333 l 2.47334,5.9173328 2.464,-5.8986661 q 0.056,-0.14 0.14,-0.196 0.084,-0.056 0.224,-0.056 z"/><path style="font-weight:400;font-size:9.33333302px;font-family:Comfortaa,sans-serif;letter-spacing:2.5px;fill:#333" id="path292" d="m -363.07452,13.093333 q -0.98933,0 -1.82,-0.504 -0.83067,-0.504 -1.32533,-1.362666 -0.48534,-0.858667 -0.48534,-1.8760002 0,-1.008 0.48534,-1.8666666 0.48533,-0.8586666 1.316,-1.3626666 0.83066,-0.504 1.82933,-0.504 0.672,0 1.22267,0.196 0.55066,0.196 1.064,0.6253333 0.10266,0.074667 0.10266,0.2146666 0,0.074667 -0.0373,0.14 -0.0373,0.056 -0.10267,0.084 -0.0187,0.065333 -0.084,0.1026667 -0.0653,0.037333 -0.14,0.037333 -0.14,0 -0.23333,-0.084 -0.364,-0.3266666 -0.79333,-0.4759999 -0.42934,-0.1493334 -0.99867,-0.1493334 -0.784,0 -1.456,0.42 -0.672,0.4106667 -1.07333,1.1106666 -0.392,0.7 -0.392,1.512 0,0.8306662 0.392,1.5306662 0.392,0.7 1.064,1.110667 0.672,0.410667 1.46533,0.410667 1.01733,0 1.83867,-0.653334 0.10266,-0.07467 0.20533,-0.07467 0.14,0 0.24267,0.102666 0.10266,0.09333 0.10266,0.252 0,0.149334 -0.10266,0.261334 -0.87734,0.802666 -2.28667,0.802666 z"/><path style="font-weight:400;font-size:9.33333302px;font-family:Comfortaa,sans-serif;letter-spacing:2.5px;fill:#333" id="path294" d="m -351.18067,12.486667 q 0.0373,0.06533 0.0373,0.149333 0,0.149333 -0.112,0.261333 Q -351.358,13 -351.50733,13 q -0.24267,0 -0.34534,-0.224 l -0.62533,-1.512 h -3.612 l -0.62533,1.512 q -0.0747,0.224 -0.336,0.224 -0.15867,0 -0.26134,-0.102667 -0.0933,-0.112 -0.0933,-0.261333 0,-0.09333 0.028,-0.158667 l 2.744,-6.5146661 q 0.10267,-0.252 0.35467,-0.252 0.252,0 0.34533,0.252 z m -1.54933,-1.848 -1.54933,-3.7426668 -1.54934,3.7426668 z"/></g><g id="g76" transform="rotate(-90,200.5,175.5)"><g style="font-weight:700;font-size:9.33333302px;font-family:Audiowide,sans-serif;letter-spacing:2px;fill:#333" id="text72" aria-label="BGA"><path style="font-weight:700;font-size:9.33333302px;font-family:Audiowide,sans-serif;letter-spacing:2px;fill:#333" id="path297" d="m 7.2096352,-1.4355468 q 0,0.21875 -0.077474,0.469401 -0.072917,0.25065103 -0.2460937,0.46484373 -0.1686198,0.2141927 -0.4420573,0.36002603 Q 6.1705727,0 5.7740883,0 H 1.2760416 Q 1.1484375,0 1.0390625,-0.04557292 0.92968747,-0.09114583 0.84765622,-0.16861979 q -0.077474,-0.0820312 -0.12304687,-0.19140624 -0.0455729,-0.109375 -0.0455729,-0.23697916 V -5.9381508 q 0,-0.1230469 0.0455729,-0.2324219 0.0455729,-0.109375 0.12304687,-0.1914062 0.0820313,-0.082031 0.19140628,-0.1276042 0.109375,-0.045573 0.2369791,-0.045573 h 3.9648436 q 0.21875,0 0.4694011,0.077474 0.250651,0.077474 0.4648437,0.2506511 0.21875,0.1686197 0.360026,0.4420572 0.1458334,0.2734375 0.1458334,0.6699219 v 0.2233073 q 0,0.3144531 -0.1048177,0.6790364 -0.1048178,0.360026 -0.3372396,0.6835937 0.2005208,0.1230469 0.3736979,0.296224 0.1777344,0.1731771 0.3098958,0.4010416 0.1321615,0.2278646 0.2096354,0.514974 0.077474,0.2871093 0.077474,0.6334635 z M 6.0247394,-1.6634114 q 0,-0.2324219 -0.072917,-0.4147135 Q 5.878906,-2.2649739 5.7467446,-2.3971353 5.6145831,-2.5292968 5.4277342,-2.5976562 5.2408852,-2.6705728 5.0084634,-2.6705728 H 2.3378905 v -1.1940104 h 2.1373698 q 0.2324218,0 0.4192708,-0.068359 0.1868489,-0.072917 0.3190104,-0.2050781 0.1321614,-0.1321614 0.2005208,-0.3144531 0.072917,-0.186849 0.072917,-0.4192708 v -0.2233073 q 0,-0.2552083 -0.2460938,-0.2552083 h -3.376953 v 4.1653644 h 3.9101561 q 0.031901,0 0.077474,-0.00456 0.045573,-0.00456 0.082031,-0.027344 0.036458,-0.022787 0.063802,-0.077474 0.027344,-0.054687 0.027344,-0.1503906 z"/><path style="font-weight:700;font-size:9.33333302px;font-family:Audiowide,sans-serif;letter-spacing:2px;fill:#333" id="path299" d="m 16.683594,-0.59700519 q 0,0.12760416 -0.04557,0.23697916 -0.04557,0.109375 -0.127605,0.19140624 -0.07747,0.07747396 -0.186849,0.12304687 Q 16.214192,0 16.086588,0 h -4.274739 q -0.164063,0 -0.355469,-0.03645833 -0.186849,-0.04101563 -0.373698,-0.12304687 -0.182291,-0.0820313 -0.350911,-0.20963541 -0.16862,-0.13216146 -0.300781,-0.31445312 -0.127605,-0.18684895 -0.205079,-0.42838537 -0.07747,-0.2460938 -0.07747,-0.5514323 v -3.2083332 q 0,-0.1640625 0.03646,-0.3509115 0.04101,-0.1914062 0.123047,-0.3736979 0.08203,-0.1868489 0.214192,-0.3554687 0.132162,-0.1686198 0.314453,-0.296224 0.186849,-0.1321614 0.428386,-0.2096354 0.241536,-0.077474 0.546875,-0.077474 h 4.817057 v 1.1848958 h -4.817057 q -0.232422,0 -0.355469,0.1230468 -0.123047,0.1230469 -0.123047,0.3645834 v 3.1992186 q 0,0.2278646 0.123047,0.3554687 0.127604,0.1230469 0.355469,0.1230469 h 3.686849 v -1.485677 h -3.153646 v -1.1940104 h 3.741536 q 0.127604,0 0.236979,0.05013 0.109375,0.045573 0.186849,0.1276042 0.08203,0.082031 0.127605,0.1914062 0.04557,0.1048177 0.04557,0.2278646 z"/><path style="font-weight:700;font-size:9.33333302px;font-family:Audiowide,sans-serif;letter-spacing:2px;fill:#333" id="path301" d="M 26.339842,0 H 25.154946 V -1.6041666 H 20.989582 V 0 h -1.184896 v -3.267578 q 0,-0.7154948 0.246094,-1.3170573 0.246094,-0.6015624 0.683594,-1.0345051 0.4375,-0.4329427 1.034505,-0.6744792 0.597005,-0.2415364 1.303385,-0.2415364 h 2.670573 q 0.123047,0 0.232422,0.045573 0.109375,0.045573 0.191406,0.1276042 0.08203,0.082031 0.127604,0.1914062 0.04557,0.109375 0.04557,0.2324219 z m -5.35026,-2.7890624 h 4.165364 v -2.5611978 h -2.082682 q -0.05469,0 -0.232422,0.018229 -0.173177,0.013672 -0.405599,0.077474 -0.227864,0.063802 -0.483072,0.1959635 -0.255209,0.1321615 -0.469402,0.3645833 -0.214192,0.2324219 -0.355468,0.5833334 -0.136719,0.3463541 -0.136719,0.8430989 z"/></g><path style="fill:#ddd" id="rect74" d="M 0,0 H 3 V 3 H 0 Z" transform="translate(11.5,-5)"/></g><g id="use80" transform="translate(0,13)"><g id="g211" transform="translate(22.5,22.5)"><g style="font-weight:700;font-size:6.66666651px;font-family:Roboto,sans-serif;fill:#333" id="text189" aria-label="0" transform="translate(-11,17.588457)"><path style="font-weight:700;font-size:6.66666651px;font-family:Roboto,sans-serif;fill:#333" id="path215" d="m 3.5123697,-1.9596354 q 0,0.98307292 -0.406901,1.50390624 -0.4069011,0.52083333 -1.1914062,0.52083333 -0.7747396,0 -1.18489585,-0.5110677 -0.41015624,-0.5110677 -0.41992187,-1.46484367 v -0.8723959 q 0,-0.9928385 0.41015624,-1.5071614 0.41341148,-0.5143229 1.18815098,-0.5143229 0.7747396,0 1.1848958,0.5110677 0.4101563,0.5078125 0.4199219,1.4615885 z M 2.5716145,-2.9166666 q 0,-0.5891927 -0.1627604,-0.8561198 -0.1595052,-0.2701823 -0.5013021,-0.2701823 -0.3320312,0 -0.4915364,0.2571615 Q 1.2597656,-3.531901 1.25,-2.9882812 v 1.1523437 q 0,0.5794271 0.15625,0.86263023 0.1595052,0.27994791 0.5078125,0.27994791 0.345052,0 0.4980468,-0.27018228 0.1529948,-0.27018226 0.1595052,-0.82682286 z"/></g><path style="stroke:#333;stroke-width:.30000001" id="polyline191" d="M 0,0 H 2.5" transform="rotate(150,-7.5,2.0096189)"/><path style="stroke:#333;stroke-width:.30000001" id="polyline193" d="M 0,0 H 2.5" transform="rotate(-180,-7.5,0)"/><path style="stroke:#333;stroke-width:.30000001" id="polyline195" d="M 0,0 H 2.5" transform="rotate(-150,-7.5,-2.0096189)"/><path style="stroke:#333;stroke-width:.30000001" id="polyline197" d="M 0,0 H 2.5" transform="rotate(-120,-7.5,-4.330127)"/><path style="stroke:#333;stroke-width:.30000001" id="polyline199" d="M 0,0 H 2.5" transform="rotate(-90,-7.5,-7.5)"/><path style="stroke:#333;stroke-width:.30000001" id="polyline201" d="M 0,0 H 2.5" transform="rotate(-60,-7.5,-12.990381)"/><path style="stroke:#333;stroke-width:.30000001" id="polyline203" d="M 0,0 H 2.5" transform="rotate(-30,-7.5,-27.990381)"/><path style="stroke:#333;stroke-width:.30000001" id="polyline205" d="M 0,0 H 2.5" transform="translate(15)"/><path style="stroke:#333;stroke-width:.30000001" id="polyline207" d="M 0,0 H 2.5" transform="rotate(30,-7.5,27.990381)"/><path style="stroke:#333;stroke-width:1" id="polyline209" d="M 0,0 H 3.5" transform="rotate(60,-7.5,12.990381)"/></g></g><g id="g92" transform="translate(5.5,57)"><path style="fill:#fafafa" id="rect84" d="M 0,0 H 34 V 10 H 0 Z" transform="translate(0,63)"/><path style="fill:#fafafa" id="rect86" d="m 5,0 h 24 c 2.77,0 5,2.23 5,5 v 60 c 0,2.77 -2.23,5 -5,5 H 5 C 2.23,70 0,67.77 0,65 V 5 C 0,2.23 2.23,0 5,0 Z"/><g style="font-weight:700;font-size:6.66666651px;font-family:Roboto,sans-serif;letter-spacing:2px;fill:#333" id="text88" aria-label="CV" transform="translate(12.5,35)"><path style="font-weight:700;font-size:6.66666651px;font-family:Roboto,sans-serif;letter-spacing:2px;fill:#333" id="path230" d="m 4.1438801,-1.578776 q -0.055338,0.76497394 -0.5664062,1.20442705 -0.5078125,0.43945312 -1.3411458,0.43945312 -0.9114583,0 -1.43554687,-0.61197916 Q 0.27994791,-1.1621093 0.27994791,-2.2330729 v -0.2897135 q 0,-0.6835937 0.24088541,-1.2044271 0.24088541,-0.5208333 0.68684898,-0.797526 0.4492187,-0.2799479 1.0416666,-0.2799479 0.8203125,0 1.3216146,0.4394531 0.501302,0.4394531 0.579427,1.233724 H 3.173828 q -0.035807,-0.4589844 -0.2571614,-0.6640625 -0.218099,-0.2083334 -0.6673177,-0.2083334 -0.4882812,0 -0.7324219,0.3515625 -0.2408854,0.3483073 -0.2473958,1.0839844 v 0.3580729 q 0,0.7682291 0.2311198,1.1230468 0.234375,0.35481774 0.7356771,0.35481774 0.4524739,0 0.6738281,-0.20507812 Q 3.1347656,-1.1458333 3.1673176,-1.578776 Z"/><path style="font-weight:700;font-size:6.66666651px;font-family:Roboto,sans-serif;letter-spacing:2px;fill:#333" id="path232" d="m 8.5364581,-1.1751302 1.0742187,-3.564453 H 10.697916 L 9.0475258,0 H 8.0286456 L 6.3847655,-4.7395832 h 1.0839843 z"/></g><g style="font-weight:700;font-size:6.66666651px;font-family:Roboto,sans-serif;letter-spacing:2px;fill:#333" id="text90" aria-label="IN" transform="translate(12.5,70)"><path style="font-weight:700;font-size:6.66666651px;font-family:Roboto,sans-serif;letter-spacing:2px;fill:#333" id="path235" d="M 1.4615885,0 H 0.48502603 V -4.7395832 H 1.4615885 Z"/><path style="font-weight:700;font-size:6.66666651px;font-family:Roboto,sans-serif;letter-spacing:2px;fill:#333" id="path237" d="M 8.2174477,0 H 7.2408852 L 5.3398436,-3.1184895 V 0 H 4.3632811 v -4.7395832 h 0.9765625 l 1.9042968,3.1249999 v -3.1249999 h 0.9733073 z"/></g></g><g id="g100" transform="translate(5.5,133)"><path style="fill:#bbb" id="rect94" d="M 0,0 H 34 V 10 H 0 Z" transform="translate(0,-3)"/><path style="fill:#bbb" id="rect96" d="m 5,0 h 24 c 2.77,0 5,2.23 5,5 v 25 c 0,2.77 -2.23,5 -5,5 H 5 C 2.23,35 0,32.77 0,30 V 5 C 0,2.23 2.23,0 5,0 Z"/><g style="font-weight:700;font-size:6.66666651px;font-family:Roboto,sans-serif;letter-spacing:2px;fill:#333" id="text98" aria-label="OUT" transform="translate(8.3,32)"><path style="font-weight:700;font-size:6.66666651px;font-family:Roboto,sans-serif;letter-spacing:2px;fill:#333" id="path242" d="m 4.3164061,-2.2623697 q 0,0.6998697 -0.2473958,1.2272135 -0.2473958,0.52734371 -0.7096354,0.81380204 -0.4589843,0.28645833 -1.0546875,0.28645833 -0.5891926,0 -1.0514322,-0.28320312 Q 0.79101561,-0.50130207 0.53710936,-1.0253906 0.28320312,-1.5527343 0.27994791,-2.2363281 v -0.234375 q 0,-0.6998697 0.25065104,-1.2304687 0.25390624,-0.5338541 0.71289065,-0.8170573 0.4622395,-0.2864583 1.0546874,-0.2864583 0.5924479,0 1.0514323,0.2864583 0.4622396,0.2832032 0.7128906,0.8170573 0.2539062,0.530599 0.2539062,1.2272135 z M 3.3268228,-2.4772135 q 0,-0.7454427 -0.266927,-1.1328125 -0.2669271,-0.3873697 -0.7617188,-0.3873697 -0.4915364,0 -0.7584635,0.3841145 -0.2669271,0.3808594 -0.2701823,1.1197917 v 0.2311198 q 0,0.7259114 0.2669271,1.126302 0.2669271,0.40039063 0.7682291,0.40039063 0.4915365,0 0.7552084,-0.38411453 0.2636718,-0.3873698 0.266927,-1.1263021 z"/><path style="font-weight:700;font-size:6.66666651px;font-family:Roboto,sans-serif;letter-spacing:2px;fill:#333" id="path244" d="m 10.619792,-4.7395832 v 3.1217447 q 0,0.77799477 -0.488282,1.23046872 -0.4850257,0.45247395 -1.3281246,0.45247395 -0.8300781,0 -1.3183594,-0.43945312 Q 6.9967448,-0.81380206 6.9869792,-1.5820312 v -3.157552 h 0.9765624 v 3.1282551 q 0,0.4654948 0.2213542,0.68033854 0.2246094,0.21158854 0.6184896,0.21158854 0.8235677,0 0.8365885,-0.86588538 v -3.1542968 z"/><path style="font-weight:700;font-size:6.66666651px;font-family:Roboto,sans-serif;letter-spacing:2px;fill:#333" id="path246" d="M 16.988281,-3.9485676 H 15.536458 V 0 h -0.976563 v -3.9485676 h -1.432291 v -0.7910156 h 3.860677 z"/></g></g><g id="use104" transform="translate(0,172)"><g id="g185" transform="translate(22.5,22.5)"><g style="font-weight:700;font-size:6.66666651px;font-family:Roboto,sans-serif;fill:#333" id="text163" aria-label="0" transform="translate(-11,17.588457)"><path style="font-weight:700;font-size:6.66666651px;font-family:Roboto,sans-serif;fill:#333" id="path249" d="m 3.5123697,-1.9596354 q 0,0.98307292 -0.406901,1.50390624 -0.4069011,0.52083333 -1.1914062,0.52083333 -0.7747396,0 -1.18489585,-0.5110677 -0.41015624,-0.5110677 -0.41992187,-1.46484367 v -0.8723959 q 0,-0.9928385 0.41015624,-1.5071614 0.41341148,-0.5143229 1.18815098,-0.5143229 0.7747396,0 1.1848958,0.5110677 0.4101563,0.5078125 0.4199219,1.4615885 z M 2.5716145,-2.9166666 q 0,-0.5891927 -0.1627604,-0.8561198 -0.1595052,-0.2701823 -0.5013021,-0.2701823 -0.3320312,0 -0.4915364,0.2571615 Q 1.2597656,-3.531901 1.25,-2.9882812 v 1.1523437 q 0,0.5794271 0.15625,0.86263023 0.1595052,0.27994791 0.5078125,0.27994791 0.345052,0 0.4980468,-0.27018228 0.1529948,-0.27018226 0.1595052,-0.82682286 z"/></g><path style="stroke:#333;stroke-width:.30000001" id="polyline165" d="M 0,0 H 2.5" transform="rotate(150,-7.5,2.0096189)"/><path style="stroke:#333;stroke-width:.30000001" id="polyline167" d="M 0,0 H 2.5" transform="rotate(-180,-7.5,0)"/><path style="stroke:#333;stroke-width:.30000001" id="polyline169" d="M 0,0 H 2.5" transform="rotate(-150,-7.5,-2.0096189)"/><path style="stroke:#333;stroke-width:.30000001" id="polyline171" d="M 0,0 H 2.5" transform="rotate(-120,-7.5,-4.330127)"/><path style="stroke:#333;stroke-width:.30000001" id="polyline173" d="M 0,0 H 2.5" transform="rotate(-90,-7.5,-7.5)"/><path style="stroke:#333;stroke-width:.30000001" id="polyline175" d="M 0,0 H 2.5" transform="rotate(-60,-7.5,-12.990381)"/><path style="stroke:#333;stroke-width:.30000001" id="polyline177" d="M 0,0 H 2.5" transform="rotate(-30,-7.5,-27.990381)"/><path style="stroke:#333;stroke-width:.30000001" id="polyline179" d="M 0,0 H 2.5" transform="translate(15)"/><path style="stroke:#333;stroke-width:.30000001" id="polyline181" d="M 0,0 H 2.5" transform="rotate(30,-7.5,27.990381)"/><path style="stroke:#333;stroke-width:1" id="polyline183" d="M 0,0 H 3.5" transform="rotate(60,-7.5,12.990381)"/></g></g><g id="g116" transform="translate(5.5,216)"><path style="fill:#fafafa" id="rect108" d="M 0,0 H 34 V 10 H 0 Z" transform="translate(0,63)"/><path style="fill:#fafafa" id="rect110" d="m 5,0 h 24 c 2.77,0 5,2.23 5,5 v 60 c 0,2.77 -2.23,5 -5,5 H 5 C 2.23,70 0,67.77 0,65 V 5 C 0,2.23 2.23,0 5,0 Z"/><g style="font-weight:700;font-size:6.66666651px;font-family:Roboto,sans-serif;letter-spacing:2px;fill:#333" id="text112" aria-label="CV" transform="translate(12.5,35)"><path style="font-weight:700;font-size:6.66666651px;font-family:Roboto,sans-serif;letter-spacing:2px;fill:#333" id="path264" d="m 4.1438801,-1.578776 q -0.055338,0.76497394 -0.5664062,1.20442705 -0.5078125,0.43945312 -1.3411458,0.43945312 -0.9114583,0 -1.43554687,-0.61197916 Q 0.27994791,-1.1621093 0.27994791,-2.2330729 v -0.2897135 q 0,-0.6835937 0.24088541,-1.2044271 0.24088541,-0.5208333 0.68684898,-0.797526 0.4492187,-0.2799479 1.0416666,-0.2799479 0.8203125,0 1.3216146,0.4394531 0.501302,0.4394531 0.579427,1.233724 H 3.173828 q -0.035807,-0.4589844 -0.2571614,-0.6640625 -0.218099,-0.2083334 -0.6673177,-0.2083334 -0.4882812,0 -0.7324219,0.3515625 -0.2408854,0.3483073 -0.2473958,1.0839844 v 0.3580729 q 0,0.7682291 0.2311198,1.1230468 0.234375,0.35481774 0.7356771,0.35481774 0.4524739,0 0.6738281,-0.20507812 Q 3.1347656,-1.1458333 3.1673176,-1.578776 Z"/><path style="font-weight:700;font-size:6.66666651px;font-family:Roboto,sans-serif;letter-spacing:2px;fill:#333" id="path266" d="m 8.5364581,-1.1751302 1.0742187,-3.564453 H 10.697916 L 9.0475258,0 H 8.0286456 L 6.3847655,-4.7395832 h 1.0839843 z"/></g><g style="font-weight:700;font-size:6.66666651px;font-family:Roboto,sans-serif;letter-spacing:2px;fill:#333" id="text114" aria-label="IN" transform="translate(12.5,70)"><path style="font-weight:700;font-size:6.66666651px;font-family:Roboto,sans-serif;letter-spacing:2px;fill:#333" id="path269" d="M 1.4615885,0 H 0.48502603 V -4.7395832 H 1.4615885 Z"/><path style="font-weight:700;font-size:6.66666651px;font-family:Roboto,sans-serif;letter-spacing:2px;fill:#333" id="path271" d="M 8.2174477,0 H 7.2408852 L 5.3398436,-3.1184895 V 0 H 4.3632811 v -4.7395832 h 0.9765625 l 1.9042968,3.1249999 v -3.1249999 h 0.9733073 z"/></g></g><g id="g124" transform="translate(5.5,292)"><path style="fill:#bbb" id="rect118" d="M 0,0 H 34 V 10 H 0 Z" transform="translate(0,-3)"/><path style="fill:#bbb" id="rect120" d="m 5,0 h 24 c 2.77,0 5,2.23 5,5 v 25 c 0,2.77 -2.23,5 -5,5 H 5 C 2.23,35 0,32.77 0,30 V 5 C 0,2.23 2.23,0 5,0 Z"/><g style="font-weight:700;font-size:6.66666651px;font-family:Roboto,sans-serif;letter-spacing:2px;fill:#333" id="text122" aria-label="OUT" transform="translate(8.3,32)"><path style="font-weight:700;font-size:6.66666651px;font-family:Roboto,sans-serif;letter-spacing:2px;fill:#333" id="path276" d="m 4.3164061,-2.2623697 q 0,0.6998697 -0.2473958,1.2272135 -0.2473958,0.52734371 -0.7096354,0.81380204 -0.4589843,0.28645833 -1.0546875,0.28645833 -0.5891926,0 -1.0514322,-0.28320312 Q 0.79101561,-0.50130207 0.53710936,-1.0253906 0.28320312,-1.5527343 0.27994791,-2.2363281 v -0.234375 q 0,-0.6998697 0.25065104,-1.2304687 0.25390624,-0.5338541 0.71289065,-0.8170573 0.4622395,-0.2864583 1.0546874,-0.2864583 0.5924479,0 1.0514323,0.2864583 0.4622396,0.2832032 0.7128906,0.8170573 0.2539062,0.530599 0.2539062,1.2272135 z M 3.3268228,-2.4772135 q 0,-0.7454427 -0.266927,-1.1328125 -0.2669271,-0.3873697 -0.7617188,-0.3873697 -0.4915364,0 -0.7584635,0.3841145 -0.2669271,0.3808594 -0.2701823,1.1197917 v 0.2311198 q 0,0.7259114 0.2669271,1.126302 0.2669271,0.40039063 0.7682291,0.40039063 0.4915365,0 0.7552084,-0.38411453 0.2636718,-0.3873698 0.266927,-1.1263021 z"/><path style="font-weight:700;font-size:6.66666651px;font-family:Roboto,sans-serif;letter-spacing:2px;fill:#333" id="path278" d="m 10.619792,-4.7395832 v 3.1217447 q 0,0.77799477 -0.488282,1.23046872 -0.4850257,0.45247395 -1.3281246,0.45247395 -0.8300781,0 -1.3183594,-0.43945312 Q 6.9967448,-0.81380206 6.9869792,-1.5820312 v -3.157552 h 0.9765624 v 3.1282551 q 0,0.4654948 0.2213542,0.68033854 0.2246094,0.21158854 0.6184896,0.21158854 0.8235677,0 0.8365885,-0.86588538 v -3.1542968 z"/><path style="font-weight:700;font-size:6.66666651px;font-family:Roboto,sans-serif;letter-spacing:2px;fill:#333" id="path280" d="M 16.988281,-3.9485676 H 15.536458 V 0 h -0.976563 v -3.9485676 h -1.432291 v -0.7910156 h 3.860677 z"/></g></g><g style="font-weight:700;font-size:6.66666651px;font-family:Roboto,sans-serif;letter-spacing:1px;fill:#333" id="text128" aria-label="LIN"><path style="font-weight:700;font-size:6.66666651px;font-family:Roboto,sans-serif;letter-spacing:1px;fill:#333" id="path283" d="m 15.89974,339.21549 h 2.073567 V 340 h -3.05013 v -4.73958 h 0.976563 z"/><path style="font-weight:700;font-size:6.66666651px;font-family:Roboto,sans-serif;letter-spacing:1px;fill:#333" id="path285" d="m 20.568359,340 h -0.976562 v -4.73958 h 0.976562 z"/><path style="font-weight:700;font-size:6.66666651px;font-family:Roboto,sans-serif;letter-spacing:1px;fill:#333" id="path287" d="m 26.324219,340 h -0.976563 l -1.901041,-3.11849 V 340 h -0.976563 v -4.73958 h 0.976563 l 1.904296,3.125 v -3.125 h 0.973308 z"/></g></svg>