<svg xmlns="http://www.w3.org/2000/svg" xmlns:svg="http://www.w3.org/2000/svg" id="svg9135" width="8mm" height="8mm" version="1.1" viewBox="0 0 8 8"><metadata id="metadata9132"/><g id="layer1" transform="translate(-75.004723,-51.723045)"><g style="display:inline" id="layer1-2-4" transform="translate(1.4647125e-4,-3.90938e-4)"><g id="g3117" transform="matrix(0.91529301,0,0,0.91525397,19.167296,-8.5740492)" style="display:inline"><path style="color:#000;font-style:normal;font-variant:normal;font-weight:400;font-stretch:normal;font-size:medium;line-height:normal;font-family:sans-serif;font-variant-ligatures:normal;font-variant-position:normal;font-variant-caps:normal;font-variant-numeric:normal;font-variant-alternates:normal;font-feature-settings:normal;text-indent:0;text-align:start;text-decoration:none;text-decoration-line:none;text-decoration-style:solid;text-decoration-color:#000;letter-spacing:normal;word-spacing:normal;text-transform:none;writing-mode:lr-tb;direction:ltr;text-orientation:mixed;dominant-baseline:auto;baseline-shift:baseline;text-anchor:start;white-space:normal;shape-padding:0;clip-rule:nonzero;display:inline;overflow:visible;visibility:visible;opacity:1;isolation:auto;mix-blend-mode:normal;color-interpolation:sRGB;color-interpolation-filters:linearRGB;solid-color:#000;solid-opacity:1;vector-effect:none;fill:#4c6f75;fill-opacity:1;fill-rule:nonzero;stroke:none;stroke-width:.52100003;stroke-linecap:round;stroke-linejoin:miter;stroke-miterlimit:4;stroke-dasharray:none;stroke-dashoffset:0;stroke-opacity:1;color-rendering:auto;image-rendering:auto;shape-rendering:auto;text-rendering:auto;enable-background:accumulate" id="path2460-0" d="m 65.375,65.880859 c -2.410553,0 -4.371094,1.958588 -4.371094,4.369141 0,2.410553 1.960541,4.371094 4.371094,4.371094 2.410553,0 4.371094,-1.960541 4.371094,-4.371094 0,-2.410553 -1.960541,-4.369141 -4.371094,-4.369141 z m 0,3.251014 c 2.128983,0 1.118243,-1.010856 1.118243,1.118127 0,2.128983 3.742106,1.118127 1.613123,1.118127 -2.128983,0 -3.849609,1.010856 -3.849609,-1.118127 0,-2.128983 -1.01074,-1.118127 1.118243,-1.118127 z"/><path style="fill:#415e66;fill-opacity:1;stroke:#415e66;stroke-width:.49793404;stroke-linecap:round;stroke-miterlimit:4;stroke-dasharray:none;stroke-opacity:1" id="path2460-3-9" d="m 67.609568,72.894379 c -1.610001,1.453425 -3.782022,1.686155 -5.231786,0.07209 -1.449763,-1.614071 -1.051683,-3.73781 0.558318,-5.191235 1.610001,-1.453425 -0.669764,2.41392 0.78,4.027991 1.449762,1.614067 5.503468,-0.36227 3.893468,1.091154 z"/><g id="g5877" transform="matrix(0.93315845,0,0,0.93315845,4.3697768,4.6956551)"><circle id="path2460-30-1" cx="65.375" cy="70.251" r="3.871" style="fill:#cdbc3f;fill-opacity:1;stroke:none;stroke-width:.49072546;stroke-linecap:round;stroke-miterlimit:4;stroke-dasharray:none;stroke-opacity:1"/><path id="circle2363-6" d="m 62.890073,70.506795 a 3.2297315,3.2297316 0 0 0 -1.342028,0.296422 3.8709646,3.8709647 0 0 0 3.827349,3.318229 3.8709646,3.8709647 0 0 0 0.728884,-0.07227 3.2297315,3.2297316 0 0 0 0.01524,-0.312228 3.2297315,3.2297316 0 0 0 -3.229449,-3.230152 z" style="fill:#b6a84b;fill-opacity:1;stroke:none;stroke-width:.49072543;stroke-linecap:round;stroke-miterlimit:4;stroke-dasharray:none;stroke-opacity:1"/><path id="circle2371-2" d="m 69.224761,69.880074 -7.703252,0.0271 a 3.8709646,3.8709647 0 0 0 -0.01524,0.297551 l 7.738256,5.64e-4 a 3.8709646,3.8709647 0 0 0 -0.01976,-0.325217 z" style="fill:#d9c952;fill-opacity:1;stroke:none;stroke-width:.49072543;stroke-linecap:round;stroke-miterlimit:4;stroke-dasharray:none;stroke-opacity:1"/></g><path id="path7757-3-7-8" d="m 62.391046,70.246857 c 0.0084,1.596501 1.282705,2.8718 2.878162,2.879206 1.589116,-0.0053 2.874989,-1.28798 2.872876,-2.879206 -0.0011,-1.587009 -1.285874,-2.867604 -2.872876,-2.871821 -1.593344,0.0062 -2.866539,1.277406 -2.878162,2.871821" style="fill:#666f29;fill-opacity:1;fill-rule:nonzero;stroke:none;stroke-width:.2704879"/><path style="fill:#405e63;fill-opacity:1;fill-rule:nonzero;stroke:#0f1511;stroke-width:.20877486;stroke-miterlimit:4;stroke-dasharray:none;stroke-opacity:1" id="path18715-7-8-0" d="m 62.885971,70.248098 c 0.0065,1.321904 1.061139,2.376476 2.383055,2.383023 1.315353,-0.005 2.379776,-1.066038 2.378133,-2.383023 0,-1.315348 -1.064419,-2.374878 -2.378133,-2.378151 -1.318633,0.0048 -2.373213,1.05785 -2.383055,2.378151"/><path style="fill:#395259;fill-opacity:1;stroke:none;stroke-width:.20836374;stroke-linecap:round;stroke-miterlimit:4;stroke-dasharray:none;stroke-opacity:1;paint-order:normal" id="path2944" d="m 97.224741,1.7842588 c 0,1.7787814 -1.066034,0.8036297 -1.549788,0.8036297 -0.483753,0 -1.145314,1.23196 -1.145314,-0.8974636 0,-0.163852 0.779249,-0.4399002 1.275941,-0.4399002 0.743027,0 1.419161,0.3698821 1.419161,0.5337341 z" transform="rotate(45)"/><path id="path7759-6-7-7" d="m 63.596182,70.248825 c 0.0046,0.927536 0.744565,1.667493 1.67211,1.672086 0.92294,-0.0033 1.66981,-0.747999 1.668657,-1.672086 0,-0.922936 -0.746867,-1.666375 -1.668657,-1.668671 -0.925241,0.0033 -1.665205,0.742261 -1.67211,1.668671" style="fill:#000;fill-opacity:1;fill-rule:nonzero;stroke:none;stroke-width:.29460451"/><path style="fill:#717761;fill-opacity:1;stroke:none;stroke-width:.15833059;stroke-linecap:round;stroke-miterlimit:4;stroke-dasharray:none;stroke-opacity:1;paint-order:normal" id="path2944-3" d="m 96.491704,5.4991469 c 0,0.1245072 -0.297993,0.2254403 -0.665586,0.2254401 -0.367592,0 -0.665585,-0.100933 -0.665585,-0.2254401 0,-0.1245071 0.316559,-0.1326095 0.684151,-0.1326095 0.367593,-2e-7 0.64702,0.0081 0.64702,0.1326095 z" transform="rotate(45)"/></g></g></g></svg>