<svg xmlns="http://www.w3.org/2000/svg" xmlns:svg="http://www.w3.org/2000/svg" id="svg9728" width="50" height="50" version="1.1" viewBox="0 0 13.229 13.229"><metadata id="metadata9725"/><g id="layer2" style="display:none"><g style="display:inline" id="g11936" transform="matrix(1.0404636,0,0,1.0404636,-80.01025,-11.38193)"><g id="g2800-4-9-1" transform="matrix(1.1873383,0,0,1.1873383,5.455491,-52.925146)"><circle style="fill:#759783;fill-opacity:1;stroke:#a9beb2;stroke-width:.52100003;stroke-linecap:round;stroke-miterlimit:4;stroke-dasharray:none;stroke-opacity:1" id="path2460-02-0-9" cx="65.525" cy="59.142" r="4.11"/><path style="fill:#a9beb2;fill-opacity:1;stroke:#91ac9d;stroke-width:.52100003;stroke-linecap:round;stroke-miterlimit:4;stroke-dasharray:none;stroke-opacity:1" id="path2460-3-87-6-8" d="m 67.952133,61.816945 c -1.686708,1.518836 -3.962214,1.76204 -5.48105,0.07533 -1.518836,-1.686709 -1.101791,-3.906024 0.584918,-5.42486 1.686709,-1.518835 -0.701673,2.522557 0.817163,4.209266 1.518835,1.686708 5.765677,-0.378573 4.078969,1.140262 z"/><circle style="fill:#759783;fill-opacity:1;stroke:none;stroke-width:.49072543;stroke-linecap:round;stroke-miterlimit:4;stroke-dasharray:none;stroke-opacity:1" id="path2460-30-7-0-3" cx="65.525" cy="59.142" r="3.871"/><circle style="fill:#0c100e;fill-opacity:1;stroke:#688b77;stroke-width:.20999999;stroke-linecap:round;stroke-miterlimit:4;stroke-dasharray:none;stroke-opacity:1" id="path2460-7-4-9-3" cx="65.525" cy="59.142" r="2.819"/><circle style="fill:none;fill-opacity:1;stroke:#9bc4ac;stroke-width:1.01668286;stroke-linecap:round;stroke-miterlimit:4;stroke-dasharray:none;stroke-opacity:1" id="path2460-30-45-2-9-7" cx="65.525" cy="59.142" r="4.846"/><path style="fill:#37664a;fill-opacity:.18224302;stroke:none;stroke-width:.26458332px;stroke-linecap:butt;stroke-linejoin:miter;stroke-opacity:1" id="path2680-4-6-9" d="m 63.74776,57.375416 3.537953,3.537953 -2.505026,2.034423 c -0.579664,0.579663 -1.937664,0.513851 -2.8416,-0.390085 -0.879539,-0.912813 -0.89836,-2.062559 -0.210093,-2.750826 z"/><path style="fill:#688b77;fill-opacity:1;stroke:#afc5b9;stroke-width:.1980086;stroke-linecap:round;stroke-linejoin:miter;stroke-miterlimit:4;stroke-dasharray:none;stroke-opacity:1" id="path2697-5-4-6" d="m 68.658892,59.223552 h 0.487505"/><path style="fill:#688b77;fill-opacity:1;stroke:#9eb9aa;stroke-width:.1980086;stroke-linecap:round;stroke-linejoin:miter;stroke-miterlimit:4;stroke-dasharray:none;stroke-opacity:1" id="path2697-7-1-6-2" d="m 61.906089,59.223552 h 0.487505"/><path style="fill:#688b77;fill-opacity:1;stroke:#94b2a2;stroke-width:.1980086;stroke-linecap:round;stroke-linejoin:miter;stroke-miterlimit:4;stroke-dasharray:none;stroke-opacity:1" id="path2697-9-8-4-0" d="m 65.526243,62.356201 v 0.487505"/><path style="fill:#688b77;fill-opacity:1;stroke:#bed0c6;stroke-width:.1980086;stroke-linecap:round;stroke-linejoin:miter;stroke-miterlimit:4;stroke-dasharray:none;stroke-opacity:1" id="path2697-7-7-8-6-9" d="m 65.526243,55.603398 v 0.487505"/><path style="fill:#688b77;fill-opacity:1;stroke:#aac2b5;stroke-width:.1980086;stroke-linecap:round;stroke-linejoin:miter;stroke-miterlimit:4;stroke-dasharray:none;stroke-opacity:1" id="path2697-3-4-1-2" d="m 67.74136,61.43867 0.344718,0.344718"/><path style="fill:#688b77;fill-opacity:1;stroke:#b3c8bd;stroke-width:.1980086;stroke-linecap:round;stroke-linejoin:miter;stroke-miterlimit:4;stroke-dasharray:none;stroke-opacity:1" id="path2697-7-2-7-3-0" d="m 62.966408,56.663718 0.344718,0.344718"/><path style="fill:#688b77;fill-opacity:1;stroke:#8aab9a;stroke-width:.1980086;stroke-linecap:round;stroke-linejoin:miter;stroke-miterlimit:4;stroke-dasharray:none;stroke-opacity:1" id="path2697-9-4-9-0-0" d="m 63.311126,61.43867 -0.344718,0.344718"/><path style="fill:#688b77;fill-opacity:1;stroke:#bbcec4;stroke-width:.1980086;stroke-linecap:round;stroke-linejoin:miter;stroke-miterlimit:4;stroke-dasharray:none;stroke-opacity:1" id="path2697-7-7-6-4-5-1" d="M 68.086078,56.663718 67.74136,57.008436"/></g></g></g><g id="layer1" transform="translate(-210.84542,-113.3553)"><g id="g1815"><path id="path2479-1-5-7" d="m 24.958984,-0.02929688 a 2.5760055,2.5760055 0 0 0 -2.53125,2.61328128 v 8.0761716 a 2.5760055,2.5760055 0 1 0 5.144532,0 V 2.5839844 a 2.5760055,2.5760055 0 0 0 -2.613282,-2.61328128 z m 0.04492,9.63281248 a 0.95105257,0.95105257 0 0 1 0.945313,0.9531254 0.95105257,0.95105257 0 0 1 -0.945313,0.953125 0.95105257,0.95105257 0 0 1 -0.953125,-0.953125 0.95105257,0.95105257 0 0 1 0.953125,-0.9531254 z" transform="matrix(0.26458333,0,0,0.26458333,210.84542,113.3553)" style="color:#000;font-style:normal;font-variant:normal;font-weight:400;font-stretch:normal;font-size:medium;line-height:normal;font-family:sans-serif;font-variant-ligatures:normal;font-variant-position:normal;font-variant-caps:normal;font-variant-numeric:normal;font-variant-alternates:normal;font-feature-settings:normal;text-indent:0;text-align:start;text-decoration:none;text-decoration-line:none;text-decoration-style:solid;text-decoration-color:#000;letter-spacing:normal;word-spacing:normal;text-transform:none;writing-mode:lr-tb;direction:ltr;text-orientation:mixed;dominant-baseline:auto;baseline-shift:baseline;text-anchor:start;white-space:normal;shape-padding:0;clip-rule:nonzero;display:inline;overflow:visible;visibility:visible;opacity:1;isolation:auto;mix-blend-mode:normal;color-interpolation:sRGB;color-interpolation-filters:linearRGB;solid-color:#000;solid-opacity:1;vector-effect:none;fill:#25332a;fill-opacity:1;fill-rule:nonzero;stroke:none;stroke-width:5.15149593;stroke-linecap:round;stroke-linejoin:miter;stroke-miterlimit:4;stroke-dasharray:none;stroke-dashoffset:0;stroke-opacity:1;paint-order:normal;color-rendering:auto;image-rendering:auto;shape-rendering:auto;text-rendering:auto;enable-background:accumulate"/><circle id="path2460-7-6-5-8-379" cx="217.46" cy="119.97" r="2.915" style="fill:#d44040;fill-opacity:1;stroke:#25332a;stroke-width:.61410081;stroke-linecap:round;stroke-miterlimit:4;stroke-dasharray:none;stroke-opacity:1"/><circle id="path2497" cx="217.46" cy="119.97" r="2.236" style="opacity:1;fill:#c63434;fill-opacity:1;stroke:none;stroke-width:1.25924873;stroke-linecap:round;stroke-linejoin:round;stroke-miterlimit:4;stroke-dasharray:none;stroke-opacity:1;paint-order:normal"/></g></g></svg>