<svg xmlns="http://www.w3.org/2000/svg" xmlns:svg="http://www.w3.org/2000/svg" id="svg9728" width="88" height="88" version="1.1" viewBox="0 0 23.283 23.283"><metadata id="metadata9725"/><g id="layer2" transform="translate(0,10.054167)" style="display:inline"><g id="g4613" transform="translate(0.05078913,-0.04912538)"><circle id="path2460-02-0-9" cx="11.591" cy="1.637" r="10.567" style="fill:#759783;fill-opacity:1;stroke:#a9beb2;stroke-width:1.33959281;stroke-linecap:round;stroke-miterlimit:4;stroke-dasharray:none;stroke-opacity:1"/><path id="path2460-3-87-6-8" d="M 18.081154,8.5139654 C 13.744299,12.419189 7.6435277,13.044514 3.7383038,8.7076492 -0.16692005,4.3707911 0.65538384,-1.3355016 4.9922426,-5.2407259 9.3291014,-9.1459477 3.4381031,1.2452613 7.343329,5.5821197 11.248551,9.9189747 18.081154,2.6779402 18.081154,8.5139553 Z" style="fill:#a9beb2;fill-opacity:1;stroke:#91ac9d;stroke-width:1.33959281;stroke-linecap:round;stroke-miterlimit:4;stroke-dasharray:none;stroke-opacity:1"/><circle id="path2460-30-7-0-3" cx="11.591" cy="1.637" r="10.878" style="fill:#759783;fill-opacity:1;stroke:none;stroke-width:1.37900913;stroke-linecap:round;stroke-miterlimit:4;stroke-dasharray:none;stroke-opacity:1"/><circle id="path2460-7-4-9-3" cx="11.591" cy="1.637" r="6.038" style="fill:#000;fill-opacity:1;stroke:#688b77;stroke-width:.44974971;stroke-linecap:round;stroke-miterlimit:4;stroke-dasharray:none;stroke-opacity:1"/><path id="path2680-4-6-9" d="M 7.2413253,-2.1680068 15.389288,6.192575 11.142619,9.4776967 C 9.8076448,10.847508 6.680149,10.691989 4.5983696,8.5558839 2.5727762,6.3988036 2.5294309,3.6818245 4.1145209,2.0553718 Z" style="fill:#000;fill-opacity:.10280373;stroke:none;stroke-width:.6172387px;stroke-linecap:butt;stroke-linejoin:miter;stroke-opacity:1"/><path id="path2697-5-4-6" d="m 20.397176,1.8652887 h 1.369958" style="fill:#688b77;fill-opacity:1;stroke:#afc5b9;stroke-width:.55643266;stroke-linecap:round;stroke-linejoin:miter;stroke-miterlimit:4;stroke-dasharray:none;stroke-opacity:1"/><path id="path2697-7-1-6-2" d="M 1.4208268,1.8652887 H 2.7907874" style="fill:#688b77;fill-opacity:1;stroke:#9eb9aa;stroke-width:.55643266;stroke-linecap:round;stroke-linejoin:miter;stroke-miterlimit:4;stroke-dasharray:none;stroke-opacity:1"/><path id="path2697-9-8-4-0" d="m 11.593981,10.668482 v 1.369959" style="fill:#688b77;fill-opacity:1;stroke:#94b2a2;stroke-width:.55643266;stroke-linecap:round;stroke-linejoin:miter;stroke-miterlimit:4;stroke-dasharray:none;stroke-opacity:1"/><path id="path2697-7-7-8-6-9" d="m 11.593981,-8.307865 v 1.3699593" style="fill:#688b77;fill-opacity:1;stroke:#bed0c6;stroke-width:.55643266;stroke-linecap:round;stroke-linejoin:miter;stroke-miterlimit:4;stroke-dasharray:none;stroke-opacity:1"/><path id="path2697-3-4-1-2" d="M 17.818778,8.0900883 18.787486,9.058795" style="fill:#688b77;fill-opacity:1;stroke:#aac2b5;stroke-width:.55643266;stroke-linecap:round;stroke-linejoin:miter;stroke-miterlimit:4;stroke-dasharray:none;stroke-opacity:1"/><path id="path2697-7-2-7-3-0" d="M 4.4004766,-5.3282131 5.3691832,-4.359506" style="fill:#688b77;fill-opacity:1;stroke:#b3c8bd;stroke-width:.55643266;stroke-linecap:round;stroke-linejoin:miter;stroke-miterlimit:4;stroke-dasharray:none;stroke-opacity:1"/><path id="path2697-9-4-9-0-0" d="M 5.3691832,8.0900883 4.4004766,9.058795" style="fill:#688b77;fill-opacity:1;stroke:#8aab9a;stroke-width:.55643266;stroke-linecap:round;stroke-linejoin:miter;stroke-miterlimit:4;stroke-dasharray:none;stroke-opacity:1"/><path id="path2697-7-7-6-4-5-1" d="M 18.787486,-5.3282131 17.818778,-4.359506" style="fill:#688b77;fill-opacity:1;stroke:#bbcec4;stroke-width:.55643266;stroke-linecap:round;stroke-linejoin:miter;stroke-miterlimit:4;stroke-dasharray:none;stroke-opacity:1"/></g></g><g id="layer1" transform="translate(-210.84542,-103.30113)" style="display:none"><g id="g1815"><path id="path2479-1-5-7" d="m 24.958984,-0.02929688 a 2.5760055,2.5760055 0 0 0 -2.53125,2.61328128 v 8.0761716 a 2.5760055,2.5760055 0 1 0 5.144532,0 V 2.5839844 a 2.5760055,2.5760055 0 0 0 -2.613282,-2.61328128 z m 0.04492,9.63281248 a 0.95105257,0.95105257 0 0 1 0.945313,0.9531254 0.95105257,0.95105257 0 0 1 -0.945313,0.953125 0.95105257,0.95105257 0 0 1 -0.953125,-0.953125 0.95105257,0.95105257 0 0 1 0.953125,-0.9531254 z" transform="matrix(0.26458333,0,0,0.26458333,210.84542,113.3553)" style="color:#000;font-style:normal;font-variant:normal;font-weight:400;font-stretch:normal;font-size:medium;line-height:normal;font-family:sans-serif;font-variant-ligatures:normal;font-variant-position:normal;font-variant-caps:normal;font-variant-numeric:normal;font-variant-alternates:normal;font-feature-settings:normal;text-indent:0;text-align:start;text-decoration:none;text-decoration-line:none;text-decoration-style:solid;text-decoration-color:#000;letter-spacing:normal;word-spacing:normal;text-transform:none;writing-mode:lr-tb;direction:ltr;text-orientation:mixed;dominant-baseline:auto;baseline-shift:baseline;text-anchor:start;white-space:normal;shape-padding:0;clip-rule:nonzero;display:inline;overflow:visible;visibility:visible;opacity:1;isolation:auto;mix-blend-mode:normal;color-interpolation:sRGB;color-interpolation-filters:linearRGB;solid-color:#000;solid-opacity:1;vector-effect:none;fill:#25332a;fill-opacity:1;fill-rule:nonzero;stroke:none;stroke-width:5.15149593;stroke-linecap:round;stroke-linejoin:miter;stroke-miterlimit:4;stroke-dasharray:none;stroke-dashoffset:0;stroke-opacity:1;paint-order:normal;color-rendering:auto;image-rendering:auto;shape-rendering:auto;text-rendering:auto;enable-background:accumulate"/><circle id="path2460-7-6-5-8-379" cx="217.46" cy="119.97" r="2.915" style="fill:#d44040;fill-opacity:1;stroke:#25332a;stroke-width:.61410081;stroke-linecap:round;stroke-miterlimit:4;stroke-dasharray:none;stroke-opacity:1"/><circle id="path2497" cx="217.46" cy="119.97" r="2.236" style="opacity:1;fill:#c63434;fill-opacity:1;stroke:none;stroke-width:1.25924873;stroke-linecap:round;stroke-linejoin:round;stroke-miterlimit:4;stroke-dasharray:none;stroke-opacity:1;paint-order:normal"/></g></g></svg>