<svg xmlns="http://www.w3.org/2000/svg" xmlns:svg="http://www.w3.org/2000/svg" id="svg9728" width="50" height="50" version="1.1" viewBox="0 0 13.229 13.229"><metadata id="metadata9725"/><g id="layer2" style="display:inline"><g id="g3797"><circle id="path2460-02-0-9" cx="6.615" cy="6.615" r="5.077" style="fill:#759783;fill-opacity:1;stroke:#a9beb2;stroke-width:.6436342;stroke-linecap:round;stroke-miterlimit:4;stroke-dasharray:none;stroke-opacity:1"/><path id="path2460-3-87-6-8" d="M 9.6128524,9.9189417 C 7.5291231,11.795285 4.7180033,12.095735 2.8416602,10.012003 0.96531709,7.9282726 1.4805271,5.1865701 3.5642575,3.310227 5.647988,1.4338851 2.6974231,6.4265493 4.5737663,8.5102797 6.4501081,10.594009 11.696582,8.0425973 9.6128524,9.9189392 Z" style="fill:#a9beb2;fill-opacity:1;stroke:#91ac9d;stroke-width:.6436342;stroke-linecap:round;stroke-miterlimit:4;stroke-dasharray:none;stroke-opacity:1"/><circle id="path2460-30-7-0-3" cx="6.615" cy="6.615" r="4.782" style="fill:#759783;fill-opacity:1;stroke:none;stroke-width:.60623354;stroke-linecap:round;stroke-miterlimit:4;stroke-dasharray:none;stroke-opacity:1"/><circle id="path2460-7-4-9-3" cx="6.615" cy="6.615" r="3.483" style="fill:#000;fill-opacity:1;stroke:#688b77;stroke-width:.25943029;stroke-linecap:round;stroke-miterlimit:4;stroke-dasharray:none;stroke-opacity:1"/><path id="path2680-4-6-9" d="M 4.6218666,4.4319554 8.7895689,8.7084132 5.8386527,11.167498 C 5.1558096,11.868157 3.556088,11.788608 2.4912531,10.695987 1.4551576,9.5926351 1.4329865,8.2028935 2.2437638,7.3709592 Z" style="fill:#000;fill-opacity:.10280374;stroke:none;stroke-width:.31571907px;stroke-linecap:butt;stroke-linejoin:miter;stroke-opacity:1"/><path id="path2697-5-4-6" d="m 10.48597,6.7151099 h 0.602255" style="fill:#688b77;fill-opacity:1;stroke:#afc5b9;stroke-width:.24461631;stroke-linecap:round;stroke-linejoin:miter;stroke-miterlimit:4;stroke-dasharray:none;stroke-opacity:1"/><path id="path2697-7-1-6-2" d="M 2.1436766,6.7151099 H 2.7459317" style="fill:#688b77;fill-opacity:1;stroke:#9eb9aa;stroke-width:.24461631;stroke-linecap:round;stroke-linejoin:miter;stroke-miterlimit:4;stroke-dasharray:none;stroke-opacity:1"/><path id="path2697-9-8-4-0" d="m 6.6159508,10.585129 v 0.602255" style="fill:#688b77;fill-opacity:1;stroke:#94b2a2;stroke-width:.24461631;stroke-linecap:round;stroke-linejoin:miter;stroke-miterlimit:4;stroke-dasharray:none;stroke-opacity:1"/><path id="path2697-7-7-8-6-9" d="M 6.6159508,2.2428357 V 2.8450908" style="fill:#688b77;fill-opacity:1;stroke:#bed0c6;stroke-width:.24461631;stroke-linecap:round;stroke-linejoin:miter;stroke-miterlimit:4;stroke-dasharray:none;stroke-opacity:1"/><path id="path2697-3-4-1-2" d="M 9.3524671,9.4516275 9.7783256,9.877486" style="fill:#688b77;fill-opacity:1;stroke:#aac2b5;stroke-width:.24461631;stroke-linecap:round;stroke-linejoin:miter;stroke-miterlimit:4;stroke-dasharray:none;stroke-opacity:1"/><path id="path2697-7-2-7-3-0" d="M 3.4535759,3.5527363 3.8794345,3.9785948" style="fill:#688b77;fill-opacity:1;stroke:#b3c8bd;stroke-width:.24461631;stroke-linecap:round;stroke-linejoin:miter;stroke-miterlimit:4;stroke-dasharray:none;stroke-opacity:1"/><path id="path2697-9-4-9-0-0" d="M 3.8794345,9.4516275 3.4535759,9.877486" style="fill:#688b77;fill-opacity:1;stroke:#8aab9a;stroke-width:.24461631;stroke-linecap:round;stroke-linejoin:miter;stroke-miterlimit:4;stroke-dasharray:none;stroke-opacity:1"/><path id="path2697-7-7-6-4-5-1" d="M 9.7783256,3.5527363 9.3524671,3.9785948" style="fill:#688b77;fill-opacity:1;stroke:#bbcec4;stroke-width:.24461631;stroke-linecap:round;stroke-linejoin:miter;stroke-miterlimit:4;stroke-dasharray:none;stroke-opacity:1"/></g></g><g id="layer1" transform="translate(-210.84542,-113.3553)" style="display:none"><g id="g1815"><path id="path2479-1-5-7" d="m 24.958984,-0.02929688 a 2.5760055,2.5760055 0 0 0 -2.53125,2.61328128 v 8.0761716 a 2.5760055,2.5760055 0 1 0 5.144532,0 V 2.5839844 a 2.5760055,2.5760055 0 0 0 -2.613282,-2.61328128 z m 0.04492,9.63281248 a 0.95105257,0.95105257 0 0 1 0.945313,0.9531254 0.95105257,0.95105257 0 0 1 -0.945313,0.953125 0.95105257,0.95105257 0 0 1 -0.953125,-0.953125 0.95105257,0.95105257 0 0 1 0.953125,-0.9531254 z" transform="matrix(0.26458333,0,0,0.26458333,210.84542,113.3553)" style="color:#000;font-style:normal;font-variant:normal;font-weight:400;font-stretch:normal;font-size:medium;line-height:normal;font-family:sans-serif;font-variant-ligatures:normal;font-variant-position:normal;font-variant-caps:normal;font-variant-numeric:normal;font-variant-alternates:normal;font-feature-settings:normal;text-indent:0;text-align:start;text-decoration:none;text-decoration-line:none;text-decoration-style:solid;text-decoration-color:#000;letter-spacing:normal;word-spacing:normal;text-transform:none;writing-mode:lr-tb;direction:ltr;text-orientation:mixed;dominant-baseline:auto;baseline-shift:baseline;text-anchor:start;white-space:normal;shape-padding:0;clip-rule:nonzero;display:inline;overflow:visible;visibility:visible;opacity:1;isolation:auto;mix-blend-mode:normal;color-interpolation:sRGB;color-interpolation-filters:linearRGB;solid-color:#000;solid-opacity:1;vector-effect:none;fill:#25332a;fill-opacity:1;fill-rule:nonzero;stroke:none;stroke-width:5.15149593;stroke-linecap:round;stroke-linejoin:miter;stroke-miterlimit:4;stroke-dasharray:none;stroke-dashoffset:0;stroke-opacity:1;paint-order:normal;color-rendering:auto;image-rendering:auto;shape-rendering:auto;text-rendering:auto;enable-background:accumulate"/><circle id="path2460-7-6-5-8-379" cx="217.46" cy="119.97" r="2.915" style="fill:#d44040;fill-opacity:1;stroke:#25332a;stroke-width:.61410081;stroke-linecap:round;stroke-miterlimit:4;stroke-dasharray:none;stroke-opacity:1"/><circle id="path2497" cx="217.46" cy="119.97" r="2.236" style="opacity:1;fill:#c63434;fill-opacity:1;stroke:none;stroke-width:1.25924873;stroke-linecap:round;stroke-linejoin:round;stroke-miterlimit:4;stroke-dasharray:none;stroke-opacity:1;paint-order:normal"/></g></g></svg>