<svg xmlns="http://www.w3.org/2000/svg" xmlns:svg="http://www.w3.org/2000/svg" id="svg9728" width="31.011" height="31.019" version="1.1" viewBox="0 0 8.205 8.207"><metadata id="metadata9725"/><g id="layer2" transform="translate(-1.175398,7.945547)" style="display:inline"><g style="display:inline;enable-background:new" id="g10459" transform="translate(-60.762102,91.656015)"><path id="path3507" d="m 66.039062,-99.101562 c 1.984027,0 3.603516,1.619489 3.603516,3.603515 0,1.984027 -1.619489,3.603516 -3.603516,3.603516 -1.984026,0 -3.601562,-1.619489 -3.601562,-3.603516 0,-1.984026 1.617536,-3.603516 3.601562,-3.603515 z" style="color:#000;font-style:normal;font-variant:normal;font-weight:400;font-stretch:normal;font-size:medium;line-height:normal;font-family:sans-serif;font-variant-ligatures:normal;font-variant-position:normal;font-variant-caps:normal;font-variant-numeric:normal;font-variant-alternates:normal;font-feature-settings:normal;text-indent:0;text-align:start;text-decoration:none;text-decoration-line:none;text-decoration-style:solid;text-decoration-color:#000;letter-spacing:normal;word-spacing:normal;text-transform:none;writing-mode:lr-tb;direction:ltr;text-orientation:mixed;dominant-baseline:auto;baseline-shift:baseline;text-anchor:start;white-space:normal;shape-padding:0;clip-rule:nonzero;display:inline;overflow:visible;visibility:visible;opacity:1;isolation:auto;mix-blend-mode:normal;color-interpolation:sRGB;color-interpolation-filters:linearRGB;solid-color:#000;solid-opacity:1;vector-effect:none;fill:#c63434;fill-opacity:1;fill-rule:nonzero;stroke:#4c6f75;stroke-width:1;stroke-linecap:round;stroke-linejoin:round;stroke-miterlimit:4;stroke-dasharray:none;stroke-dashoffset:0;stroke-opacity:1;paint-order:stroke markers fill;color-rendering:auto;image-rendering:auto;shape-rendering:auto;text-rendering:auto;enable-background:new"/><path id="circle3158-4" d="m 63.33608,-95.49763 a 2.7039218,2.7039218 0 0 0 2.703922,2.70392 2.7039218,2.7039218 0 0 0 2.703922,-2.70392 2.7039218,2.7039218 0 0 0 -2.703922,-2.70392 2.7039218,2.7039218 0 0 0 -2.703922,2.70392 z" style="display:inline;opacity:1;fill:#a8ccb7;fill-opacity:1;stroke:#9c5858;stroke-width:.37099999;stroke-linecap:round;stroke-linejoin:round;stroke-miterlimit:4;stroke-dasharray:none;stroke-opacity:1;paint-order:normal;enable-background:new"/></g></g><g id="layer1" transform="translate(-212.02082,-105.40976)" style="display:none"><g id="g1815"><path id="path2479-1-5-7" d="m 24.958984,-0.02929688 a 2.5760055,2.5760055 0 0 0 -2.53125,2.61328128 v 8.0761716 a 2.5760055,2.5760055 0 1 0 5.144532,0 V 2.5839844 a 2.5760055,2.5760055 0 0 0 -2.613282,-2.61328128 z m 0.04492,9.63281248 a 0.95105257,0.95105257 0 0 1 0.945313,0.9531254 0.95105257,0.95105257 0 0 1 -0.945313,0.953125 0.95105257,0.95105257 0 0 1 -0.953125,-0.953125 0.95105257,0.95105257 0 0 1 0.953125,-0.9531254 z" transform="matrix(0.26458333,0,0,0.26458333,210.84542,113.3553)" style="color:#000;font-style:normal;font-variant:normal;font-weight:400;font-stretch:normal;font-size:medium;line-height:normal;font-family:sans-serif;font-variant-ligatures:normal;font-variant-position:normal;font-variant-caps:normal;font-variant-numeric:normal;font-variant-alternates:normal;font-feature-settings:normal;text-indent:0;text-align:start;text-decoration:none;text-decoration-line:none;text-decoration-style:solid;text-decoration-color:#000;letter-spacing:normal;word-spacing:normal;text-transform:none;writing-mode:lr-tb;direction:ltr;text-orientation:mixed;dominant-baseline:auto;baseline-shift:baseline;text-anchor:start;white-space:normal;shape-padding:0;clip-rule:nonzero;display:inline;overflow:visible;visibility:visible;opacity:1;isolation:auto;mix-blend-mode:normal;color-interpolation:sRGB;color-interpolation-filters:linearRGB;solid-color:#000;solid-opacity:1;vector-effect:none;fill:#25332a;fill-opacity:1;fill-rule:nonzero;stroke:none;stroke-width:5.15149593;stroke-linecap:round;stroke-linejoin:miter;stroke-miterlimit:4;stroke-dasharray:none;stroke-dashoffset:0;stroke-opacity:1;paint-order:normal;color-rendering:auto;image-rendering:auto;shape-rendering:auto;text-rendering:auto;enable-background:accumulate"/><circle id="path2460-7-6-5-8-379" cx="217.46" cy="119.97" r="2.915" style="fill:#d44040;fill-opacity:1;stroke:#25332a;stroke-width:.61410081;stroke-linecap:round;stroke-miterlimit:4;stroke-dasharray:none;stroke-opacity:1"/><circle id="path2497" cx="217.46" cy="119.97" r="2.236" style="opacity:1;fill:#c63434;fill-opacity:1;stroke:none;stroke-width:1.25924873;stroke-linecap:round;stroke-linejoin:round;stroke-miterlimit:4;stroke-dasharray:none;stroke-opacity:1;paint-order:normal"/></g></g></svg>