<svg xmlns="http://www.w3.org/2000/svg" xmlns:svg="http://www.w3.org/2000/svg" id="svg15246" width="14" height="14" version="1.1" viewBox="0 0 3.704 3.704"><defs id="defs15240"><clipPath id="clip89"><rect id="rect4864" width="18" height="19" x="0" y="0"/></clipPath><clipPath id="clip90"><path id="path4861" d="m 0.898438,0.128906 h 16.25 v 17.882813 h -16.25 z m 0,0"/></clipPath><mask id="mask44"><g style="filter:url(#alpha)" id="g4858" transform="matrix(0.26458333,0,0,0.26458333,89.358789,128.57765)"><rect style="fill:#000;fill-opacity:.14999402;stroke:none" id="rect4856" width="3052.87" height="3351.5" x="0" y="0"/></g></mask><filter id="alpha" width="1" height="1" x="0" y="0" filterUnits="objectBoundingBox"><feColorMatrix id="feColorMatrix4149" in="SourceGraphic" type="matrix" values="0 0 0 0 1 0 0 0 0 1 0 0 0 0 1 0 0 0 1 0"/></filter><clipPath id="clipPath17821"><rect id="rect17819" width="18" height="19" x="0" y="0"/></clipPath><clipPath id="clipPath17825"><path id="path17823" d="m 0.898438,0.128906 h 16.25 v 17.882813 h -16.25 z m 0,0"/></clipPath><clipPath id="clip87"><rect id="rect4848" width="24" height="26" x="0" y="0"/></clipPath><clipPath id="clip88"><path id="path4845" d="m 0.683594,0.921875 h 22.679687 v 24.9375 H 0.683594 Z m 0,0"/></clipPath><mask id="mask43"><g style="filter:url(#alpha)" id="g4842" transform="matrix(0.26458333,0,0,0.26458333,89.358789,128.57765)"><rect style="fill:#000;fill-opacity:.14999402;stroke:none" id="rect4840" width="3052.87" height="3351.5" x="0" y="0"/></g></mask><filter id="filter17836" width="1" height="1" x="0" y="0" filterUnits="objectBoundingBox"><feColorMatrix id="feColorMatrix17834" in="SourceGraphic" type="matrix" values="0 0 0 0 1 0 0 0 0 1 0 0 0 0 1 0 0 0 1 0"/></filter><clipPath id="clipPath17840"><rect id="rect17838" width="24" height="26" x="0" y="0"/></clipPath><clipPath id="clipPath17844"><path id="path17842" d="m 0.683594,0.921875 h 22.679687 v 24.9375 H 0.683594 Z m 0,0"/></clipPath></defs><metadata id="metadata15243"/><g id="layer1" transform="translate(-88.611154,-123.85005)"><path id="path7265" d="m 92.315334,125.70213 c 0,1.02249 -0.829612,1.85212 -1.85209,1.85212 -1.022481,0 -1.852095,-0.82963 -1.852095,-1.85212 0,-1.02247 0.829614,-1.85205 1.852095,-1.85205 1.022478,0 1.85209,0.82958 1.85209,1.85205" style="fill:#3e3e3e;fill-opacity:1;fill-rule:nonzero;stroke:none;stroke-width:.36304399"/><path style="fill:#222;fill-opacity:1;fill-rule:nonzero;stroke:none;stroke-width:.30749732" id="path4761" d="m 92.044932,125.98325 c 0,0.85894 -0.708492,1.55586 -1.581688,1.55586 -0.873202,0 -1.581692,-0.69692 -1.581692,-1.55586 0,-0.85893 0.70849,-1.55583 1.581692,-1.55583 0.873196,0 1.581688,0.6969 1.581688,1.55583"/></g></svg>