<svg xmlns="http://www.w3.org/2000/svg" xmlns:svg="http://www.w3.org/2000/svg" id="svg8630" width="195.294" height="380" version="1.1" viewBox="0 0 51.671 100.542"><metadata id="metadata8627"/><g id="layer1" transform="translate(-44.467833,-88.735117)"><path id="path33449" d="M 44.541176,88.808436 H 96.065974 V 189.20454 H 44.541176 Z m 0,0" style="fill:#e6e6e6;fill-opacity:1;fill-rule:nonzero;stroke:none;stroke-width:.27602378"/><g id="logo" transform="translate(11.759859,53.053001)"><path id="path3737" d="m 55.047763,130.90923 v 1.43277 h 0.7016 q 0.38947,0 0.60216,-0.18644 0.21269,-0.18643 0.21269,-0.53122 0,-0.34223 -0.21269,-0.52867 -0.21269,-0.18644 -0.60216,-0.18644 z m -0.55797,-0.42396 h 1.25957 q 0.69332,0 1.04688,0.29115 0.35633,0.2886 0.35633,0.84792 0,0.56443 -0.35633,0.85302 -0.35356,0.2886 -1.04688,0.2886 h -0.7016 v 1.53239 h -0.55797 z" style="font-style:normal;font-weight:400;font-size:5.43959379px;line-height:1.25;font-family:sans-serif;letter-spacing:0;word-spacing:0;display:inline;fill:#000;fill-opacity:1;stroke:none;stroke-width:.13598984"/><path id="path3739" d="m 60.715833,133.75435 v -1.02414 h -0.91154 v -0.42396 h 1.46398 v 1.63709 q -0.32318,0.21198 -0.71265,0.3218 -0.38947,0.10726 -0.83143,0.10726 -0.96678,0 -1.5137,-0.521 -0.54415,-0.52356 -0.54415,-1.45576 0,-0.93476 0.54415,-1.45576 0.54692,-0.52357 1.5137,-0.52357 0.40328,0 0.76513,0.0919 0.36462,0.0919 0.67122,0.27072 v 0.5491 q -0.30936,-0.24263 -0.6574,-0.36522 -0.34804,-0.12259 -0.73199,-0.12259 -0.75685,0 -1.13804,0.39076 -0.37842,0.39075 -0.37842,1.16461 0,0.77129 0.37842,1.16205 0.38119,0.39076 1.13804,0.39076 0.29556,0 0.52758,-0.046 0.23203,-0.0486 0.4171,-0.14813 z" style="font-style:normal;font-weight:400;font-size:5.43959379px;line-height:1.25;font-family:sans-serif;letter-spacing:0;word-spacing:0;display:inline;fill:#000;fill-opacity:1;stroke:none;stroke-width:.13598984"/><path id="path3741" d="m 62.268193,131.4379 h 0.50825 v 2.86045 h -0.50825 z m 0,-1.11353 h 0.50825 v 0.59507 h -0.50825 z" style="font-style:normal;font-weight:400;font-size:5.43959379px;line-height:1.25;font-family:sans-serif;letter-spacing:0;word-spacing:0;display:inline;fill:#000;fill-opacity:1;stroke:none;stroke-width:.13598984"/></g><g style="font-style:normal;font-weight:400;font-size:11.10610676px;line-height:1.25;font-family:sans-serif;letter-spacing:0;word-spacing:0;fill:#000;fill-opacity:1;stroke:none;stroke-width:1.04119742" id="text928" aria-label="ECHO" transform="scale(0.9981775,1.0018258)"><path style="stroke-width:1.04119742" id="path986" d="m 56.206211,93.880373 h 5.119221 v 0.921894 h -4.023795 v 2.396923 h 3.855685 v 0.921894 h -3.855685 v 2.933786 h 4.121407 v 0.9219 h -5.216833 z"/><path style="stroke-width:1.04119742" id="path988" d="m 69.2971,94.504007 v 1.155079 q -0.553136,-0.515176 -1.182193,-0.770053 -0.623634,-0.254876 -1.328611,-0.254876 -1.388263,0 -2.125778,0.851396 -0.737515,0.845973 -0.737515,2.451152 0,1.599757 0.737515,2.451155 0.737515,0.84597 2.125778,0.84597 0.704977,0 1.328611,-0.25488 0.629057,-0.25487 1.182193,-0.77005 v 1.14423 q -0.574827,0.39045 -1.220153,0.58568 -0.639903,0.19522 -1.355726,0.19522 -1.838364,0 -2.89583,-1.12254 -1.057467,-1.127962 -1.057467,-3.074785 0,-1.952245 1.057467,-3.074786 1.057466,-1.127964 2.89583,-1.127964 0.726669,0 1.366572,0.195224 0.645325,0.189802 1.209307,0.574828 z"/><path style="stroke-width:1.04119742" id="path990" d="m 70.999893,93.880373 h 1.095426 v 3.318817 h 3.980412 v -3.318817 h 1.095426 v 8.096397 h -1.095426 v -3.855686 h -3.980412 v 3.855686 h -1.095426 z"/><path style="stroke-width:1.04119742" id="path992" d="m 82.637443,94.623311 q -1.193039,0 -1.898016,0.889356 -0.699555,0.889356 -0.699555,2.424038 0,1.529259 0.699555,2.418615 0.704977,0.88936 1.898016,0.88936 1.193039,0 1.887171,-0.88936 0.699554,-0.889356 0.699554,-2.418615 0,-1.534682 -0.699554,-2.424038 -0.694132,-0.889356 -1.887171,-0.889356 z m 0,-0.889356 q 1.702792,0 2.722298,1.144233 1.019506,1.138809 1.019506,3.058517 0,1.914285 -1.019506,3.058515 -1.019506,1.13881 -2.722298,1.13881 -1.708214,0 -2.733143,-1.13881 -1.019506,-1.138807 -1.019506,-3.058515 0,-1.919708 1.019506,-3.058517 1.024929,-1.144233 2.733143,-1.144233 z"/></g><g style="font-style:normal;font-weight:400;font-size:2.82222223px;line-height:1.25;font-family:sans-serif;letter-spacing:0;word-spacing:0;fill:#000;fill-opacity:1;stroke:none;stroke-width:.26458332" id="text932" aria-label="In" transform="translate(3.346277,0.09970174)"><path style="stroke-width:.26458332" id="path981" d="m 51.426556,109.17668 h 0.278364 v 2.05741 h -0.278364 z"/><path style="stroke-width:.26458332" id="path983" d="m 53.53082,110.30254 v 0.93155 h -0.253559 v -0.92328 q 0,-0.21911 -0.08544,-0.32798 -0.08544,-0.10886 -0.256315,-0.10886 -0.205328,0 -0.323839,0.13091 -0.118511,0.13092 -0.118511,0.35691 v 0.8723 h -0.254937 v -1.5434 h 0.254937 v 0.23978 q 0.09095,-0.13918 0.213596,-0.20809 0.124023,-0.0689 0.285254,-0.0689 0.265961,0 0.402387,0.16537 0.136425,0.16398 0.136425,0.48369 z"/></g><g style="font-style:normal;font-weight:400;font-size:2.82222223px;line-height:1.25;font-family:sans-serif;letter-spacing:0;word-spacing:0;fill:#000;fill-opacity:1;stroke:none;stroke-width:.26458332" id="text936" aria-label="Time" transform="translate(2.2395567,0.13362716)"><path style="stroke-width:.26458332" id="path972" d="m 60.228464,109.17668 h 1.740462 v 0.23427 h -0.73036 v 1.82314 h -0.279742 v -1.82314 h -0.73036 z"/><path style="stroke-width:.26458332" id="path974" d="m 62.139803,109.69069 h 0.253559 v 1.5434 h -0.253559 z m 0,-0.60082 h 0.253559 v 0.32108 h -0.253559 z"/><path style="stroke-width:.26458332" id="path976" d="m 64.124178,109.98697 q 0.09508,-0.17088 0.227377,-0.25218 0.132291,-0.0813 0.311436,-0.0813 0.241157,0 0.372071,0.1695 0.130913,0.16812 0.130913,0.47956 v 0.93155 h -0.254937 v -0.92328 q 0,-0.22187 -0.07855,-0.32935 -0.07855,-0.10749 -0.239779,-0.10749 -0.197059,0 -0.311436,0.13091 -0.114378,0.13092 -0.114378,0.35691 v 0.8723 H 63.91196 v -0.92328 q 0,-0.22325 -0.07855,-0.32935 -0.07855,-0.10749 -0.242535,-0.10749 -0.194303,0 -0.30868,0.13229 -0.114377,0.13091 -0.114377,0.35553 v 0.8723 h -0.254937 v -1.5434 h 0.254937 v 0.23978 q 0.08682,-0.14194 0.208084,-0.20946 0.121267,-0.0675 0.288009,-0.0675 0.168121,0 0.285254,0.0854 0.118512,0.0854 0.175011,0.24805 z"/><path style="stroke-width:.26458332" id="path978" d="m 66.993254,110.399 v 0.12403 h -1.16582 q 0.01654,0.26182 0.157096,0.39963 0.141938,0.13642 0.394119,0.13642 0.146072,0 0.282498,-0.0358 0.137804,-0.0358 0.272851,-0.10748 v 0.23977 q -0.136425,0.0579 -0.279741,0.0882 -0.143316,0.0303 -0.290766,0.0303 -0.369315,0 -0.585667,-0.21498 -0.214974,-0.21497 -0.214974,-0.58153 0,-0.37896 0.20395,-0.60082 0.205328,-0.22325 0.552593,-0.22325 0.311437,0 0.49196,0.2012 0.181901,0.19981 0.181901,0.54432 z m -0.253559,-0.0744 q -0.0028,-0.20809 -0.117133,-0.33211 -0.112999,-0.12402 -0.300412,-0.12402 -0.212218,0 -0.340376,0.11989 -0.126779,0.11989 -0.146072,0.33762 z"/></g><g style="font-style:normal;font-weight:400;font-size:2.82222223px;line-height:1.25;font-family:sans-serif;letter-spacing:0;word-spacing:0;fill:#000;fill-opacity:1;stroke:none;stroke-width:.26458332" id="text944" aria-label="Out" transform="translate(-1.7194991,0.09273174)"><path style="stroke-width:.26458332" id="path948" d="m 87.273957,109.36547 q -0.303168,0 -0.482313,0.226 -0.177767,0.226 -0.177767,0.61598 0,0.38861 0.177767,0.61461 0.179145,0.226 0.482313,0.226 0.303169,0 0.479558,-0.226 0.177767,-0.226 0.177767,-0.61461 0,-0.38998 -0.177767,-0.61598 -0.176389,-0.226 -0.479558,-0.226 z m 0,-0.226 q 0.432704,0 0.691775,0.29077 0.259072,0.28939 0.259072,0.77721 0,0.48645 -0.259072,0.77722 -0.259071,0.28939 -0.691775,0.28939 -0.434082,0 -0.694531,-0.28939 -0.259071,-0.28939 -0.259071,-0.77722 0,-0.48782 0.259071,-0.77721 0.260449,-0.29077 0.694531,-0.29077 z"/><path style="stroke-width:.26458332" id="path950" d="m 88.623057,110.625 v -0.93431 h 0.253559 v 0.92466 q 0,0.21911 0.08544,0.32935 0.08544,0.10887 0.256315,0.10887 0.205328,0 0.323839,-0.13091 0.11989,-0.13092 0.11989,-0.35692 v -0.87505 h 0.253559 v 1.5434 H 89.6621 v -0.23702 q -0.09233,0.14056 -0.214974,0.20946 -0.121268,0.0675 -0.282498,0.0675 -0.265962,0 -0.403765,-0.16537 -0.137804,-0.16536 -0.137804,-0.48369 z m 0.638031,-0.97152 z"/><path style="stroke-width:.26458332" id="path952" d="m 90.691492,109.25247 v 0.43822 h 0.522277 v 0.19706 h -0.522277 v 0.83785 q 0,0.18879 0.05099,0.24253 0.05236,0.0537 0.210839,0.0537 h 0.26045 v 0.21222 h -0.26045 q -0.293522,0 -0.405143,-0.10886 -0.111621,-0.11025 -0.111621,-0.39963 v -0.83785 H 90.25052 v -0.19706 h 0.186035 v -0.43822 z"/></g><g style="font-style:normal;font-weight:400;font-size:2.82222223px;line-height:1.25;font-family:sans-serif;letter-spacing:0;word-spacing:0;fill:#000;fill-opacity:1;stroke:none;stroke-width:.26458332" id="text997" aria-label="Fbk" transform="translate(1.0583333)"><path style="stroke-width:.26458332" id="path999" d="m 74.261986,109.27271 h 1.182357 v 0.23426 H 74.54035 v 0.60634 h 0.815799 v 0.23427 H 74.54035 v 0.98254 h -0.278364 z"/><path style="stroke-width:.26458332" id="path1001" d="m 76.98499,110.55979 q 0,-0.27974 -0.115755,-0.43821 -0.114378,-0.15986 -0.315571,-0.15986 -0.201194,0 -0.316949,0.15986 -0.114377,0.15847 -0.114377,0.43821 0,0.27974 0.114377,0.4396 0.115755,0.15847 0.316949,0.15847 0.201193,0 0.315571,-0.15847 0.115755,-0.15986 0.115755,-0.4396 z m -0.862652,-0.53881 q 0.07993,-0.1378 0.201193,-0.20395 0.122646,-0.0675 0.292145,-0.0675 0.281119,0 0.45613,0.22324 0.176389,0.22324 0.176389,0.58704 0,0.36381 -0.176389,0.58705 -0.175011,0.22324 -0.45613,0.22324 -0.169499,0 -0.292145,-0.0662 -0.121267,-0.0675 -0.201193,-0.20532 v 0.23151 h -0.254937 v -2.14423 h 0.254937 z"/><path style="stroke-width:.26458332" id="path1003" d="m 77.658851,109.18589 h 0.254937 v 1.26642 l 0.756543,-0.6656 h 0.323839 l -0.818555,0.7221 0.853006,0.82131 h -0.33073 l -0.784103,-0.75379 v 0.75379 h -0.254937 z"/></g></g></svg>