<svg xmlns="http://www.w3.org/2000/svg" xmlns:osb="http://www.openswatchbook.org/uri/2009/osb" xmlns:svg="http://www.w3.org/2000/svg" xmlns:xlink="http://www.w3.org/1999/xlink" id="svg4541" width="450" height="379.45" version="1.1" viewBox="0 0 119.063 100.396"><defs id="defs4535"><linearGradient id="linearGradient8491" osb:paint="solid"><stop style="stop-color:#000;stop-opacity:1" id="stop8489" offset="0"/></linearGradient><radialGradient id="radialGradient905" cx="109.563" cy="145.38" r="117.1" fx="38.284" fy="66.965" gradientTransform="matrix(1.0024419,0,0,0.99756404,-139.41784,99.706629)" gradientUnits="userSpaceOnUse" xlink:href="#svg_42"/><radialGradient id="svg_42" cx=".567" cy=".602" r=".7" fx=".141" fy=".133"><stop id="stop23" offset="0" stop-color="#fff"/><stop id="stop25" offset="1" stop-color="#333"/></radialGradient><radialGradient id="radialGradient4314" cx="159.837" cy="144.421" r="18.08" fx="159.837" fy="144.421" gradientTransform="matrix(4.1457072,4.1456678,-4.1456875,4.145687,130.23386,-876.22593)" gradientUnits="userSpaceOnUse" xlink:href="#linearGradient3869"/><linearGradient id="linearGradient3869"><stop id="stop3871" offset="0" stop-color="#dadada"/><stop id="stop3873" offset="1" stop-color="#212121"/></linearGradient><radialGradient id="radialGradient4308" cx="136.3" cy="144.424" r="18.08" fx="136.3" fy="144.424" gradientTransform="matrix(3.262608,3.2625769,-3.2625926,3.262592,134.27917,-617.13116)" gradientUnits="userSpaceOnUse" xlink:href="#linearGradient3869"/><filter style="color-interpolation-filters:sRGB" id="filter3973"><feGaussianBlur id="feGaussianBlur3975" stdDeviation=".5"/></filter><filter style="color-interpolation-filters:sRGB" id="filter1842" width="1.181" height="1.809" x="-.09" y="-.405"><feGaussianBlur id="feGaussianBlur1844" stdDeviation=".674"/></filter></defs><metadata id="metadata4538"/><path id="rect928-1-3-3" d="M 95.250008,0 H 119.06251 V 100.54168 H 95.250008 Z" style="opacity:.9;fill:#ccc;fill-opacity:1;stroke:none;stroke-width:.26458335;stroke-opacity:1"/><path id="rect928-1-3" d="M 71.437508,0 H 95.25001 V 100.54168 H 71.437508 Z" style="opacity:.9;fill:#ccc;fill-opacity:1;stroke:none;stroke-width:.26458335;stroke-opacity:1"/><path id="rect928-0" d="M 47.625004,0 H 71.437506 V 100.54168 H 47.625004 Z" style="opacity:.9;fill:#ccc;fill-opacity:1;stroke:none;stroke-width:.26458335;stroke-opacity:1"/><path id="rect928-1" d="M 23.812502,0 H 47.625004 V 100.54168 H 23.812502 Z" style="opacity:.9;fill:#ccc;fill-opacity:1;stroke:none;stroke-width:.26458335;stroke-opacity:1"/><path id="rect928" d="M 0,0 H 23.812502 V 100.54168 H 0 Z" style="opacity:.9;fill:#ccc;fill-opacity:1;stroke:none;stroke-width:.26458335;stroke-opacity:1"/><path style="fill:#2e2f31;fill-opacity:1;fill-rule:nonzero;stroke:none;stroke-width:.43996349" id="path25057" d="M -4e-6,0 H 119.06251 V 100.39611 H -4e-6 Z m 0,0"/><g style="font-style:normal;font-variant:normal;font-weight:500;font-stretch:normal;font-size:7.66842127px;line-height:125%;font-family:'Futura PT';-inkscape-font-specification:'Futura PT Medium';letter-spacing:0;word-spacing:0;opacity:.7;fill:#fff;fill-opacity:1;stroke:none;stroke-width:.95855266px;stroke-linecap:butt;stroke-linejoin:miter;stroke-opacity:1" id="text864" aria-label="MADE IN ITALY" transform="matrix(0.27602381,0,0,0.27602381,305.90998,-0.07321088)"><path style="font-style:normal;font-variant:normal;font-weight:500;font-stretch:normal;font-size:6.3903513px;font-family:'Futura PT';-inkscape-font-specification:'Futura PT Medium';fill:#fff;stroke-width:.95855266px" id="path5435" d="m -913.35319,359.03888 h 0.84353 l 0.43454,-2.62643 1.09275,2.62643 h 0.28118 l 1.14387,-2.62643 0.38342,2.62643 h 0.84353 l -0.71572,-4.26236 h -0.60069 l -1.18222,2.7095 -1.13109,-2.7095 h -0.60069 z"/><path style="font-style:normal;font-variant:normal;font-weight:500;font-stretch:normal;font-size:6.3903513px;font-family:'Futura PT';-inkscape-font-specification:'Futura PT Medium';fill:#fff;stroke-width:.95855266px" id="path5437" d="m -904.68058,359.03888 h 0.89465 l -1.78291,-4.26236 h -0.65182 l -1.83403,4.26236 h 0.90104 l 0.37703,-0.89465 h 1.71901 z m -1.83403,-1.57203 0.60708,-1.53368 0.60708,1.53368 z"/><path style="font-style:normal;font-variant:normal;font-weight:500;font-stretch:normal;font-size:6.3903513px;font-family:'Futura PT';-inkscape-font-specification:'Futura PT Medium';fill:#fff;stroke-width:.95855266px" id="path5439" d="m -903.28828,354.77652 v 4.26236 h 1.09914 c 0.5943,0 1.06079,-0.0575 1.55924,-0.40898 0.56235,-0.3962 0.85631,-1.00968 0.85631,-1.71901 0,-0.70933 -0.30035,-1.32919 -0.81797,-1.719 -0.47288,-0.35147 -0.9905,-0.41537 -1.5848,-0.41537 z m 0.83074,0.71571 h 0.25562 c 0.28117,0 0.70293,0.0256 1.04801,0.28118 0.33869,0.25561 0.52401,0.69016 0.52401,1.13748 0,0.45372 -0.19171,0.88826 -0.5304,1.13109 -0.37064,0.2684 -0.83074,0.28118 -1.04162,0.28118 h -0.25562 z"/><path style="font-style:normal;font-variant:normal;font-weight:500;font-stretch:normal;font-size:6.3903513px;font-family:'Futura PT';-inkscape-font-specification:'Futura PT Medium';fill:#fff;stroke-width:.95855266px" id="path5441" d="m -896.64282,354.77652 h -2.36443 v 4.26236 h 2.36443 v -0.71572 h -1.53368 v -1.16304 h 1.46978 v -0.71572 h -1.46978 v -0.95217 h 1.53368 z"/><path style="font-style:normal;font-variant:normal;font-weight:500;font-stretch:normal;font-size:6.3903513px;font-family:'Futura PT';-inkscape-font-specification:'Futura PT Medium';fill:#fff;stroke-width:.95855266px" id="path5443" d="m -894.35178,354.77652 v 4.26236 h 0.83075 v -4.26236 z"/><path style="font-style:normal;font-variant:normal;font-weight:500;font-stretch:normal;font-size:6.3903513px;font-family:'Futura PT';-inkscape-font-specification:'Futura PT Medium';fill:#fff;stroke-width:.95855266px" id="path5445" d="m -891.72374,359.03888 v -2.8501 l 2.59448,2.8501 h 0.57513 v -4.26236 h -0.83075 v 2.8437 l -2.59448,-2.8437 h -0.57513 v 4.26236 z"/><path style="font-style:normal;font-variant:normal;font-weight:500;font-stretch:normal;font-size:6.3903513px;font-family:'Futura PT';-inkscape-font-specification:'Futura PT Medium';fill:#fff;stroke-width:.95855266px" id="path5447" d="m -886.10173,354.77652 v 4.26236 h 0.83074 v -4.26236 z"/><path style="font-style:normal;font-variant:normal;font-weight:500;font-stretch:normal;font-size:6.3903513px;font-family:'Futura PT';-inkscape-font-specification:'Futura PT Medium';fill:#fff;stroke-width:.95855266px" id="path5449" d="m -882.00392,355.49223 v -0.71571 h -2.74785 v 0.71571 h 0.95855 v 3.54665 h 0.83075 v -3.54665 z"/><path style="font-style:normal;font-variant:normal;font-weight:500;font-stretch:normal;font-size:6.3903513px;font-family:'Futura PT';-inkscape-font-specification:'Futura PT Medium';fill:#fff;stroke-width:.95855266px" id="path5451" d="m -878.83211,359.03888 h 0.89465 l -1.78291,-4.26236 h -0.65182 l -1.83403,4.26236 h 0.90104 l 0.37703,-0.89465 h 1.71901 z m -1.83403,-1.57203 0.60708,-1.53368 0.60708,1.53368 z"/><path style="font-style:normal;font-variant:normal;font-weight:500;font-stretch:normal;font-size:6.3903513px;font-family:'Futura PT';-inkscape-font-specification:'Futura PT Medium';fill:#fff;stroke-width:.95855266px" id="path5453" d="m -877.43981,354.77652 v 4.26236 h 2.14715 v -0.71572 h -1.31641 v -3.54664 z"/><path style="font-style:normal;font-variant:normal;font-weight:500;font-stretch:normal;font-size:6.3903513px;font-family:'Futura PT';-inkscape-font-specification:'Futura PT Medium';fill:#fff;stroke-width:.95855266px" id="path5455" d="m -874.17834,359.03888 h 0.83075 v -1.94906 l 1.50173,-2.3133 h -0.98411 l -0.91382,1.48256 -0.91382,-1.48256 h -0.98412 l 1.46339,2.3133 z"/></g><g id="g1736" transform="matrix(0.27602381,0,0,0.27602381,305.1661,2.5726231)" style="opacity:.7;fill:#fff;stroke-width:.91882312"><g style="font-style:normal;font-variant:normal;font-weight:400;font-stretch:normal;font-size:12.78070068px;line-height:125%;font-family:'Squared Display';-inkscape-font-specification:'Squared Display';letter-spacing:0;word-spacing:0;fill:#fff;fill-opacity:1;stroke:none;stroke-width:.9585526px;stroke-linecap:butt;stroke-linejoin:miter;stroke-opacity:1" id="text4639-3" aria-label="sonus dept."><path style="font-style:normal;font-variant:normal;font-weight:500;font-stretch:normal;font-size:12.78070068px;font-family:'Futura PT';-inkscape-font-specification:'Futura PT Medium';fill:#fff;stroke-width:.9585526px" id="path5414" d="m -916.33104,336.95691 c -0.70294,-0.53679 -1.35475,-0.58791 -1.76374,-0.58791 -0.44732,0 -1.00967,0.0511 -1.44422,0.3962 -0.31951,0.26839 -0.57513,0.71572 -0.57513,1.25251 0,0.44732 0.16615,0.7924 0.42177,1.0608 0.33229,0.34507 0.7924,0.524 1.1886,0.66459 l 0.35786,0.12781 c 0.20449,0.0767 0.48567,0.21727 0.48567,0.56235 0,0.38342 -0.3323,0.60069 -0.76684,0.60069 -0.46011,0 -0.92022,-0.28117 -1.22695,-0.63903 l -0.81797,0.94577 c 0.34508,0.37064 0.9969,0.92021 2.14716,0.92021 0.67738,0 1.21417,-0.17893 1.66149,-0.58791 0.44733,-0.40898 0.61348,-0.90743 0.61348,-1.40588 0,-0.35786 -0.11503,-0.69016 -0.28118,-0.92021 -0.31952,-0.43454 -0.97133,-0.65182 -1.40588,-0.7924 l -0.37064,-0.11503 c -0.43454,-0.14059 -0.49844,-0.35786 -0.49844,-0.49845 0,-0.26839 0.23005,-0.44732 0.60069,-0.44732 0.16615,0 0.53679,0.0256 0.90743,0.37064 z"/><path style="font-style:normal;font-variant:normal;font-weight:500;font-stretch:normal;font-size:12.78070068px;font-family:'Futura PT';-inkscape-font-specification:'Futura PT Medium';fill:#fff;stroke-width:.9585526px" id="path5416" d="m -912.05849,336.369 c -1.04802,0 -1.76374,0.34508 -2.23662,0.77962 -0.54957,0.49845 -0.933,1.26529 -0.933,2.17272 0,0.89465 0.38343,1.66149 0.933,2.15994 0.47288,0.43454 1.1886,0.77962 2.23662,0.77962 1.04802,0 1.76374,-0.34508 2.23662,-0.77962 0.54957,-0.49845 0.93299,-1.26529 0.93299,-2.15994 0,-0.90743 -0.38342,-1.67427 -0.93299,-2.17272 -0.47288,-0.43454 -1.1886,-0.77962 -2.23662,-0.77962 z m 0,4.51158 c -0.90743,0 -1.55925,-0.71571 -1.55925,-1.55924 0,-0.86909 0.6646,-1.57203 1.55925,-1.57203 0.89465,0 1.55924,0.70294 1.55924,1.57203 0,0.84353 -0.65181,1.55924 -1.55924,1.55924 z"/><path style="font-style:normal;font-variant:normal;font-weight:500;font-stretch:normal;font-size:12.78070068px;font-family:'Futura PT';-inkscape-font-specification:'Futura PT Medium';fill:#fff;stroke-width:.9585526px" id="path5418" d="m -907.6829,342.08197 h 1.55925 v -2.82453 c 0,-0.31952 0.0128,-0.71572 0.24283,-1.07358 0.23005,-0.34508 0.54957,-0.48567 0.95855,-0.48567 0.15337,0 0.48567,0.0256 0.7285,0.28118 0.28118,0.29395 0.29396,0.77962 0.29396,1.08635 v 3.01625 h 1.55924 v -3.47635 c 0,-0.53679 -0.0511,-1.08636 -0.43454,-1.55925 -0.43454,-0.53679 -1.15026,-0.67737 -1.63593,-0.67737 -0.89465,0 -1.41866,0.48566 -1.71261,0.89465 v -0.71572 h -1.55925 z"/><path style="font-style:normal;font-variant:normal;font-weight:500;font-stretch:normal;font-size:12.78070068px;font-family:'Futura PT';-inkscape-font-specification:'Futura PT Medium';fill:#fff;stroke-width:.9585526px" id="path5420" d="m -900.86819,336.54793 v 3.38688 c 0,0.49845 0.0639,1.16305 0.67738,1.69984 0.51123,0.44732 1.32919,0.62625 2.00657,0.62625 0.67737,0 1.49534,-0.17893 2.00657,-0.62625 0.61347,-0.53679 0.67737,-1.20139 0.67737,-1.69984 v -3.38688 h -1.55924 v 3.13127 c 0,0.29395 -0.0256,0.69016 -0.3323,0.97133 -0.19171,0.16615 -0.49845,0.28118 -0.7924,0.28118 -0.29396,0 -0.6007,-0.11503 -0.79241,-0.28118 -0.30673,-0.28117 -0.33229,-0.67738 -0.33229,-0.97133 v -3.13127 z"/><path style="font-style:normal;font-variant:normal;font-weight:500;font-stretch:normal;font-size:12.78070068px;font-family:'Futura PT';-inkscape-font-specification:'Futura PT Medium';fill:#fff;stroke-width:.9585526px" id="path5422" d="m -890.24543,336.95691 c -0.70294,-0.53679 -1.35475,-0.58791 -1.76374,-0.58791 -0.44732,0 -1.00967,0.0511 -1.44422,0.3962 -0.31951,0.26839 -0.57513,0.71572 -0.57513,1.25251 0,0.44732 0.16615,0.7924 0.42177,1.0608 0.33229,0.34507 0.7924,0.524 1.1886,0.66459 l 0.35786,0.12781 c 0.20449,0.0767 0.48567,0.21727 0.48567,0.56235 0,0.38342 -0.3323,0.60069 -0.76685,0.60069 -0.4601,0 -0.92021,-0.28117 -1.22694,-0.63903 l -0.81797,0.94577 c 0.34508,0.37064 0.9969,0.92021 2.14716,0.92021 0.67738,0 1.21417,-0.17893 1.66149,-0.58791 0.44733,-0.40898 0.61348,-0.90743 0.61348,-1.40588 0,-0.35786 -0.11503,-0.69016 -0.28118,-0.92021 -0.31952,-0.43454 -0.97133,-0.65182 -1.40588,-0.7924 l -0.37064,-0.11503 c -0.43454,-0.14059 -0.49844,-0.35786 -0.49844,-0.49845 0,-0.26839 0.23005,-0.44732 0.60069,-0.44732 0.16615,0 0.53679,0.0256 0.90743,0.37064 z"/><path style="font-style:normal;font-variant:normal;font-weight:500;font-stretch:normal;font-size:12.78070068px;font-family:'Futura PT';-inkscape-font-specification:'Futura PT Medium';fill:#fff;stroke-width:.9585526px" id="path5424" d="m -881.64761,337.26365 c -0.52401,-0.81797 -1.35476,-0.89465 -1.77652,-0.89465 -1.63593,0 -2.74785,1.30363 -2.74785,2.93956 0,1.62315 1.1247,2.95234 2.82453,2.95234 0.3962,0 1.13748,-0.0895 1.69984,-0.89465 v 0.71572 h 1.55924 v -9.31713 h -1.55924 z m -1.38032,0.48566 c 0.89465,0 1.53368,0.67738 1.53368,1.55925 0,0.88187 -0.63903,1.57202 -1.53368,1.57202 -0.89465,0 -1.53368,-0.69015 -1.53368,-1.57202 0,-0.88187 0.63903,-1.55925 1.53368,-1.55925 z"/><path style="font-style:normal;font-variant:normal;font-weight:500;font-stretch:normal;font-size:12.78070068px;font-family:'Futura PT';-inkscape-font-specification:'Futura PT Medium';fill:#fff;stroke-width:.9585526px" id="path5426" d="m -874.60145,340.30545 c -0.25562,0.44733 -0.70294,0.7285 -1.29085,0.7285 -0.6007,0 -0.94578,-0.29395 -1.11193,-0.52401 -0.17893,-0.24283 -0.26839,-0.60069 -0.26839,-0.93299 h 4.14095 v -0.1278 c 0,-0.6007 -0.0767,-1.46978 -0.6646,-2.17272 -0.38342,-0.46011 -1.03524,-0.90743 -2.15994,-0.90743 -0.66459,0 -1.43144,0.14058 -2.08325,0.77962 -0.3962,0.3962 -0.84353,1.07358 -0.84353,2.17272 0,0.86909 0.25562,1.58481 0.86909,2.15994 0.54957,0.52401 1.22695,0.77962 2.1216,0.77962 1.92988,0 2.55614,-1.31641 2.72228,-1.72539 z m -2.62005,-1.72539 c 0.12781,-0.74128 0.7285,-1.11192 1.30363,-1.11192 0.57514,0 1.18861,0.35786 1.31642,1.11192 z"/><path style="font-style:normal;font-variant:normal;font-weight:500;font-stretch:normal;font-size:12.78070068px;font-family:'Futura PT';-inkscape-font-specification:'Futura PT Medium';fill:#fff;stroke-width:.9585526px" id="path5428" d="m -870.37763,341.36625 c 0.61347,0.83075 1.39309,0.89465 1.77652,0.89465 0.81796,0 1.457,-0.31952 1.87876,-0.71572 0.31952,-0.30674 0.86909,-0.98411 0.86909,-2.23662 0,-1.09914 -0.42177,-1.7893 -0.83075,-2.19828 -0.62625,-0.62626 -1.40588,-0.74128 -1.89154,-0.74128 -1.02246,0 -1.55925,0.54957 -1.80208,0.89465 v -0.71572 h -1.55925 v 8.46082 h 1.55925 z m 1.38031,-3.61694 c 0.37064,0 0.77963,0.14059 1.0608,0.3962 0.30674,0.29396 0.47289,0.75407 0.47289,1.16305 0,0.40898 -0.15337,0.86909 -0.48567,1.17582 -0.20449,0.19171 -0.53679,0.3962 -1.04802,0.3962 -0.48566,0 -0.81796,-0.19171 -1.02245,-0.37064 -0.30674,-0.26839 -0.51123,-0.69015 -0.51123,-1.20138 0,-0.51123 0.17893,-0.89465 0.52401,-1.18861 0.28117,-0.25561 0.60069,-0.37064 1.00967,-0.37064 z"/><path style="font-style:normal;font-variant:normal;font-weight:500;font-stretch:normal;font-size:12.78070068px;font-family:'Futura PT';-inkscape-font-specification:'Futura PT Medium';fill:#fff;stroke-width:.9585526px" id="path5430" d="m -862.01506,337.87712 v -1.32919 h -1.07358 v -1.89155 h -1.55924 v 1.89155 h -0.61348 v 1.32919 h 0.61348 v 4.20485 h 1.55924 v -4.20485 z"/><path style="font-style:normal;font-variant:normal;font-weight:500;font-stretch:normal;font-size:12.78070068px;font-family:'Futura PT';-inkscape-font-specification:'Futura PT Medium';fill:#fff;stroke-width:.9585526px" id="path5432" d="m -861.33089,341.25122 c 0,0.56236 0.43454,0.9969 0.99689,0.9969 0.56235,0 0.9969,-0.43454 0.9969,-0.9969 0,-0.56235 -0.43455,-0.99689 -0.9969,-0.99689 -0.56235,0 -0.99689,0.43454 -0.99689,0.99689 z"/></g></g><path style="opacity:.9;fill:#e3dbdb;fill-opacity:1;fill-rule:nonzero;stroke:none;stroke-width:.27081189" id="path25259" d="m 11.244794,23.083644 c 0,-0.425594 -0.406365,-0.773323 -0.902203,-0.773323 H 3.414504 c -0.495839,0 -0.900961,0.347729 -0.900961,0.773323 v 9.03562 c 0,0.425596 0.405122,0.774391 0.900961,0.774391 h 6.928087 c 0.495838,0 0.902203,-0.348795 0.902203,-0.774391 z m 0,0"/><path style="opacity:.9;fill:#e3dbdb;fill-opacity:1;fill-rule:nonzero;stroke:none;stroke-width:.27081189" id="path25259-7" d="m 21.298959,23.083644 c 0,-0.425594 -0.406365,-0.773323 -0.902203,-0.773323 H 13.46867 c -0.495839,0 -0.900961,0.347729 -0.900961,0.773323 v 9.03562 c 0,0.425596 0.405122,0.774391 0.900961,0.774391 h 6.928086 c 0.495838,0 0.902203,-0.348795 0.902203,-0.774391 z m 0,0"/><path style="opacity:.9;fill:#212121;fill-opacity:1;fill-rule:nonzero;stroke:none;stroke-width:.27081189" id="path25247" d="m 106.4948,23.194066 c 0,-0.425592 -0.40637,-0.773324 -0.90221,-0.773324 h -6.926844 c -0.495838,0 -0.9022,0.347732 -0.9022,0.773324 v 9.035618 c 0,0.425596 0.406362,0.77439 0.9022,0.77439 h 6.926844 c 0.49584,0 0.90221,-0.348794 0.90221,-0.77439 z m 0,0"/><path style="opacity:.9;fill:#212121;fill-opacity:1;fill-rule:nonzero;stroke:none;stroke-width:.27081189" id="path25247-3" d="m 116.54897,23.194066 c 0,-0.425592 -0.40637,-0.773324 -0.90221,-0.773324 h -6.92684 c -0.49584,0 -0.9022,0.347732 -0.9022,0.773324 v 9.035618 c 0,0.425596 0.40636,0.77439 0.9022,0.77439 h 6.92684 c 0.49584,0 0.90221,-0.348794 0.90221,-0.77439 z m 0,0"/><path style="opacity:.9;fill:#212121;fill-opacity:1;fill-rule:nonzero;stroke:none;stroke-width:.27081189" id="path25247-6" d="m 106.4948,44.974582 c 0,-0.425592 -0.40637,-0.773324 -0.90221,-0.773324 h -6.926838 c -0.49584,0 -0.9022,0.347732 -0.9022,0.773324 V 54.0102 c 0,0.425596 0.40636,0.77439 0.9022,0.77439 h 6.926838 c 0.49584,0 0.90221,-0.348794 0.90221,-0.77439 z m 0,0"/><path style="opacity:.9;fill:#212121;fill-opacity:1;fill-rule:nonzero;stroke:none;stroke-width:.27081189" id="path25247-3-7" d="m 116.54897,44.974582 c 0,-0.425592 -0.40637,-0.773324 -0.90221,-0.773324 h -6.92684 c -0.49584,0 -0.9022,0.347732 -0.9022,0.773324 V 54.0102 c 0,0.425596 0.40636,0.77439 0.9022,0.77439 h 6.92684 c 0.49584,0 0.90221,-0.348794 0.90221,-0.77439 z m 0,0"/><path style="opacity:.9;fill:#212121;fill-opacity:1;fill-rule:nonzero;stroke:none;stroke-width:.27081189" id="path25247-6-2" d="m 106.4948,59.791248 c 0,-0.425592 -0.40637,-0.773324 -0.90221,-0.773324 h -6.926837 c -0.49584,0 -0.9022,0.347732 -0.9022,0.773324 v 9.035618 c 0,0.425596 0.40636,0.77439 0.9022,0.77439 h 6.926837 c 0.49584,0 0.90221,-0.348794 0.90221,-0.77439 z m 0,0"/><path style="opacity:.9;fill:#212121;fill-opacity:1;fill-rule:nonzero;stroke:none;stroke-width:.27081189" id="path25247-3-7-9" d="m 116.54897,59.791248 c 0,-0.425592 -0.40637,-0.773324 -0.90221,-0.773324 h -6.92684 c -0.49584,0 -0.9022,0.347732 -0.9022,0.773324 v 9.035618 c 0,0.425596 0.40636,0.77439 0.9022,0.77439 h 6.92684 c 0.49584,0 0.90221,-0.348794 0.90221,-0.77439 z m 0,0"/><path style="opacity:.9;fill:#212121;fill-opacity:1;fill-rule:nonzero;stroke:none;stroke-width:.27081189" id="path25247-6-2-9" d="m 106.49479,74.607915 c 0,-0.425592 -0.40637,-0.773324 -0.90221,-0.773324 h -6.926825 c -0.49584,0 -0.9022,0.347732 -0.9022,0.773324 v 9.035618 c 0,0.425596 0.40636,0.77439 0.9022,0.77439 h 6.926825 c 0.49584,0 0.90221,-0.348794 0.90221,-0.77439 z m 0,0"/><path style="opacity:.9;fill:#212121;fill-opacity:1;fill-rule:nonzero;stroke:none;stroke-width:.27081189" id="path25247-3-7-9-3" d="m 116.54896,74.607915 c 0,-0.425592 -0.40637,-0.773324 -0.90221,-0.773324 h -6.92684 c -0.49584,0 -0.9022,0.347732 -0.9022,0.773324 v 9.035618 c 0,0.425596 0.40636,0.77439 0.9022,0.77439 h 6.92684 c 0.49584,0 0.90221,-0.348794 0.90221,-0.77439 z m 0,0"/><g id="g2789" transform="matrix(0.12882334,0,0,0.12882334,-32.924428,39.877929)" style="opacity:.9;fill:#fd5;stroke:#000;stroke-opacity:.58851677"><path id="path2657" d="m 328.92,27.166 c 0,0 -5.293,-3.279 0.526,-8.253 5.821,-4.976 11.429,-8.467 11.429,-8.467 l -1.479,-2.01 c 0,0 -11.641,7.197 -11.855,7.512 -0.212,0.32 -7.619,4.446 -7.619,4.446 l 2.962,6.458 6.04,0.314 z" style="fill:#fd5;stroke:#000;stroke-opacity:.58851677"/><g id="g2697" style="fill:#fd5;stroke:#000;stroke-width:1.18069994;stroke-linecap:round;stroke-linejoin:round;stroke-opacity:.58851677"><path id="path2659" d="m 305.43,14.025 c 0,0 -2.027,-0.747 -4.698,-0.428 -2.667,0.321 -4.377,0.428 -5.123,1.067 -0.747,0.642 -5.657,2.882 -5.657,2.882 0,0 -1.281,1.068 -1.495,1.708 -0.213,0.641 -0.213,2.348 -0.213,2.348 l 8.111,1.603 9.07,-9.18 z" style="fill:#fd5;stroke:#000;stroke-opacity:.58851677"/><path id="path2661" d="m 284.83,57.9 c 0,0 -3.31,2.243 -3.738,4.482 -0.427,2.24 -0.854,5.658 -0.212,6.402 0.641,0.749 3.628,1.603 5.765,0.214 2.132,-1.384 0.534,-5.76 0.534,-5.76 l -2.34,-5.338 z" style="fill:#fd5;stroke:#000;stroke-opacity:.58851677"/><path id="path2663" d="m 306.39,66.758 c 0,0 -1.493,4.482 -4.271,4.912 -2.774,0.424 -6.404,1.066 -6.938,0.533 -0.532,-0.533 -1.39,-2.456 -1.067,-3.096 0.321,-0.641 4.271,-3.203 5.231,-3.949 0.961,-0.75 2.881,-2.992 2.881,-2.992 l 4.17,4.592 z" style="fill:#fd5;stroke:#000;stroke-opacity:.58851677"/><path id="path2665" d="m 288.88,52.028 c 0,0 -2.989,3.629 -3.417,5.872 -0.428,2.243 -2.028,9.605 0,10.994 2.027,1.387 5.658,1.28 6.404,1.173 0.749,-0.106 0.855,-0.854 3.417,-1.6 2.561,-0.749 6.938,-6.301 6.938,-6.301 l -3.63,-6.405 -6.403,-5.014 -3.31,1.281 z" style="fill:#fd5;stroke:#000;stroke-opacity:.58851677"/><path id="path2667" d="m 278.53,41.673 c 0,0 -3.203,3.096 -4.375,5.445 -1.176,2.347 -1.493,7.256 -1.069,7.684 0.427,0.428 3.31,-0.64 4.377,-1.813 1.067,-1.173 2.882,-8.541 2.882,-8.541 l -1.82,-2.775 z" style="fill:#fd5;stroke:#000;stroke-opacity:.58851677"/><path id="path2669" d="m 278.63,45.407 c 0,0 -4.482,9.075 -3.842,12.81 0.641,3.738 0.641,4.378 0.641,4.378 l 3.736,2.137 c 0,0 2.56,-0.749 3.842,-1.177 1.281,-0.426 7.473,-11.74 7.473,-11.74 l 0.64,-1.814 z" style="fill:#fd5;stroke:#000;stroke-opacity:.58851677"/><path id="path2671" d="m 281.2,32.278 c 0,0 -9.03,8.491 -0.856,15.693 4.486,3.949 10.036,2.562 10.036,2.562 l 0.426,-12.81 -9.61,-5.445 z" style="fill:#fd5;stroke:#000;stroke-opacity:.58851677"/><path id="path2673" d="m 307.99,52.349 c 0,0 -1.815,5.655 -3.201,7.151 -1.388,1.493 -3.736,3.095 -5.872,2.455 -2.135,-0.643 -2.027,-6.726 -1.388,-9.606 0.64,-2.884 10.46,0 10.46,0 z" style="fill:#fd5;stroke:#000;stroke-opacity:.58851677"/><path id="path2675" d="m 298.17,21.39 c 0,0 -10.354,-1.173 -11.527,-0.854 -1.176,0.32 -5.98,1.71 -6.621,6.297 -0.637,4.59 2.351,7.261 2.351,7.261 0,0 3.094,3.202 4.908,3.308 1.815,0.108 4.591,-0.748 4.591,-0.748 l 6.3,-15.264 z" style="fill:#fd5;stroke:#000;stroke-opacity:.58851677"/><path id="path2677" d="m 309.59,48.72 c 0,0 -6.726,11.637 -16.333,4.802 -9.607,-6.831 -6.616,-12.169 -3.094,-18.574 3.523,-6.404 6.083,-5.443 6.083,-5.443 l 14.624,1.601 1.389,12.062 -2.67,5.552 z" style="fill:#fd5;stroke:#000;stroke-opacity:.58851677"/><path id="path2679" d="m 331.69,38.792 c 0,0 0.642,6.831 -0.853,9.18 -1.493,2.347 -3.31,4.377 -6.941,3.843 -3.627,-0.535 0.215,-15.585 0.215,-15.585 l 7.57,2.562 z" style="fill:#fd5;stroke:#000;stroke-opacity:.58851677"/><path id="path2681" d="m 326.35,39.43 c 0,0 0.214,10.57 -1.603,13.131 -1.815,2.563 -7.791,3.63 -7.791,3.63 l -0.854,-12.597 10.24,-4.164 z" style="fill:#fd5;stroke:#000;stroke-opacity:.58851677"/><path id="path2683" d="m 319.41,46.796 c 0,0 1.28,9.287 0.212,11.634 -1.068,2.353 -1.707,3.952 -4.908,5.553 -3.203,1.602 -5.019,2.029 -6.619,2.139 -1.603,0.104 -2.562,0.53 -3.523,-0.109 -0.962,-0.641 -2.881,-3.203 -2.457,-5.869 0.428,-2.67 6.193,-11.959 6.193,-11.959 l 11.11,-1.389 z" style="fill:#fd5;stroke:#000;stroke-opacity:.58851677"/><path id="path2685" d="m 325.71,37.617 c 0,0 -0.641,5.124 -3.735,8.967 -3.098,3.841 -5.553,4.803 -7.687,5.336 -2.135,0.533 -7.473,0.429 -7.473,0.429 0,0 -1.92,-10.354 1.068,-16.333 2.988,-5.978 4.482,-8.434 4.482,-8.434 l 8.434,0.641 4.91,9.394 z" style="fill:#fd5;stroke:#000;stroke-opacity:.58851677"/><path id="path2687" d="m 310.98,13.383 -7.048,-0.105 -1.922,1.281 -1.918,1.708 c 0,0 -0.641,-0.108 -1.388,0.32 -0.747,0.426 -1.815,0.64 -2.562,1.814 -0.748,1.174 -1.708,2.028 -2.562,3.31 -0.854,1.281 -2.67,3.736 -2.67,3.736 h -0.641 c 0,0 -1.921,1.601 -1.921,2.029 0,0.425 -0.533,2.562 0.215,3.094 0.748,0.535 2.347,2.135 2.347,2.135 0,0 2.456,2.777 10.143,2.456 7.685,-0.32 11.634,-4.591 11.634,-4.591 l 2.777,-2.988 -4.48,-14.199 z" style="fill:#fd5;stroke:#000;stroke-opacity:.58851677"/><path id="path2689" d="m 325.6,24.166 c 0,0 9.075,0 9.607,7.045 0.535,7.046 -3.203,10.036 -3.203,10.036 l -8.859,0.426 c 0,0 -4.375,-4.163 -4.698,-7.686 -0.32,-3.523 0.54,-8.967 7.15,-9.821 z" style="fill:#fd5;stroke:#000;stroke-opacity:.58851677"/><path id="path2691" d="m 321.65,20.536 c 0,0 1.174,-3.843 0.747,-5.229 -0.425,-1.389 -1.918,-3.417 -4.165,-5.126 -2.24,-1.706 -4.694,-2.453 -6.082,-2.346 -1.388,0.107 -3.095,0.212 -3.095,0.212 0,0 -0.854,4.269 -0.748,5.231 0.104,0.961 6.616,5.977 6.616,5.977 l 6.72,1.281 z" style="fill:#fd5;stroke:#000;stroke-opacity:.58851677"/><path id="path2693" d="m 322.4,19.362 c 0,0 -3.201,-4.484 -5.443,-4.803 -2.24,-0.319 -7.475,0 -7.475,0 l -2.988,3.736 c 0,0 0.215,4.804 1.388,6.404 1.176,1.602 0.854,3.95 2.988,4.059 2.137,0.104 4.057,1.067 4.485,1.173 0.427,0.108 1.816,0.534 1.816,0.534 h 4.375 c 0,0 1.174,-0.213 1.707,-0.96 0.535,-0.747 1.493,-1.708 1.493,-2.774 0,-1.07 -0.105,-1.923 -0.426,-3.312 -0.322,-1.385 -1.28,-2.135 -1.28,-2.135 l -0.65,-1.922 z" style="fill:#fd5;stroke:#000;stroke-opacity:.58851677"/><path style="fill:#fd5;stroke:#000;stroke-opacity:.58851677" id="line2695" d="m 323.04001,24.698999 -0.11002,-4.482"/></g><path id="path2699" d="m 332.82,15.29 c 0,0 -0.877,3.357 -0.072,6.06 0.801,2.699 2.117,5.036 2.117,5.036 0,0 -5.623,-4.745 -5.474,-5.913 0.145,-1.167 0.145,-3.285 0.145,-3.285" style="fill:#fd5;stroke:#000;stroke-width:1.18069994;stroke-linecap:round;stroke-linejoin:round;stroke-opacity:.58851677"/><path id="path2701" d="m 343.67,20.994 c 0,0 6.143,1.021 5.045,-6.556 C 347.617,6.86 345.703,0.536 345.703,0.536 L 348.133,0 c 0,0 4.01,13.086 3.961,13.464 -0.051,0.381 2.803,8.367 2.803,8.367 l -6.487,2.903 z" style="fill:#fd5;stroke:#000;stroke-opacity:.58851677"/><g id="g2741" style="fill:#fd5;stroke:#000;stroke-width:1.18069994;stroke-linecap:round;stroke-linejoin:round;stroke-opacity:.58851677"><path id="path2703" d="m 331.7,26.6 c 0,0 -2.018,0.772 -3.813,2.775 -1.797,1.999 -3.012,3.205 -3.151,4.179 -0.14,0.975 -2.354,5.896 -2.354,5.896 0,0 -0.26,1.649 0.004,2.269 0.26,0.624 1.385,1.908 1.385,1.908 l 7.156,-4.144 0.76,-12.883 z" style="fill:#fd5;stroke:#000;stroke-opacity:.58851677"/><path id="path2705" d="m 345.13,73.172 c 0,0 -1.013,3.868 0.143,5.834 1.159,1.966 3.09,4.816 4.063,4.958 0.973,0.138 3.786,-1.191 4.478,-3.644 0.686,-2.447 -3.401,-4.684 -3.401,-4.684 l -5.28,-2.464 z" style="fill:#fd5;stroke:#000;stroke-opacity:.58851677"/><path id="path2707" d="m 367.18,65.62 c 0,0 1.833,4.355 0.025,6.506 -1.808,2.153 -4.112,5.024 -4.863,4.979 -0.754,-0.053 -2.663,-0.935 -2.845,-1.626 -0.181,-0.692 1.099,-5.223 1.329,-6.417 0.23,-1.196 0.196,-4.15 0.196,-4.15 l 6.15,0.708 z" style="fill:#fd5;stroke:#000;stroke-opacity:.58851677"/><path id="path2709" d="m 344.31,66.081 c 0,0 0.141,4.701 1.299,6.671 1.158,1.965 4.809,8.561 7.248,8.267 2.44,-0.298 5.099,-2.768 5.592,-3.341 0.49,-0.573 0.08,-1.202 1.509,-3.456 1.436,-2.249 1.066,-9.311 1.066,-9.311 l -6.949,-2.421 -8.124,0.449 -1.65,3.142 z" style="fill:#fd5;stroke:#000;stroke-opacity:.58851677"/><path id="path2711" d="m 329.69,65.124 c 0,0 -0.367,4.439 0.299,6.976 0.667,2.543 3.661,6.445 4.263,6.486 0.603,0.038 2.068,-2.664 2.095,-4.249 0.029,-1.588 -3.461,-8.324 -3.461,-8.324 l -3.19,-0.889 z" style="fill:#fd5;stroke:#000;stroke-opacity:.58851677"/><path id="path2713" d="m 332.24,67.862 c 0,0 2.61,9.777 5.555,12.165 2.946,2.387 3.368,2.871 3.368,2.871 l 4.218,-0.86 c 0,0 1.433,-2.25 2.116,-3.418 0.68,-1.164 -2.123,-13.752 -2.123,-13.752 l -0.714,-1.787 -12.44,4.781 z" style="fill:#fd5;stroke:#000;stroke-opacity:.58851677"/><path id="path2715" d="m 325.51,56.297 c 0,0 -1.194,12.338 9.703,12.366 5.977,0.011 9.234,-4.69 9.234,-4.69 l -8.123,-9.914 -10.81,2.238 z" style="fill:#fd5;stroke:#000;stroke-opacity:.58851677"/><path id="path2717" d="m 358.89,53.726 c 0,0 2.364,5.454 2.307,7.489 -0.059,2.038 -0.767,4.793 -2.797,5.719 -2.028,0.925 -5.955,-3.725 -7.375,-6.31 -1.42,-2.591 7.87,-6.898 7.87,-6.898 z" style="fill:#fd5;stroke:#000;stroke-opacity:.58851677"/><path id="path2719" d="m 331.09,36.922 c 0,0 -8.557,5.943 -9.229,6.957 -0.674,1.017 -3.371,5.226 -0.829,9.1 2.546,3.872 6.553,3.912 6.553,3.912 0,0 4.438,0.366 5.873,-0.749 1.436,-1.117 2.959,-3.591 2.959,-3.591 l -5.32,-15.629 z" style="fill:#fd5;stroke:#000;stroke-opacity:.58851677"/><path id="path2721" d="m 357.7,49.941 c 0,0 2.612,13.185 -9.114,14.378 -11.73,1.195 -12.998,-4.788 -14.575,-11.924 -1.571,-7.139 0.988,-8.106 0.988,-8.106 l 12.054,-8.436 8.993,8.154 1.65,5.934 z" style="fill:#fd5;stroke:#000;stroke-opacity:.58851677"/><path id="path2723" d="m 367.77,27.914 c 0,0 4.987,4.712 5.408,7.464 0.426,2.751 0.397,5.473 -2.681,7.463 -3.084,1.992 -10.115,-11.86 -10.115,-11.86 l 7.39,-3.067 z" style="fill:#fd5;stroke:#000;stroke-opacity:.58851677"/><path id="path2725" d="m 364.18,31.909 c 0,0 7.126,7.808 7.447,10.931 0.329,3.122 -3.464,7.865 -3.464,7.865 l -8.946,-8.91 4.96,-9.886 z" style="fill:#fd5;stroke:#000;stroke-opacity:.58851677"/><path id="path2727" d="m 363.82,42.023 c 0,0 7.085,6.14 7.83,8.61 0.748,2.471 1.323,4.095 -0.03,7.411 -1.354,3.316 -2.435,4.832 -3.568,5.968 -1.136,1.136 -1.573,2.09 -2.72,2.242 -1.145,0.15 -4.278,-0.507 -5.717,-2.796 -1.438,-2.288 -3.226,-13.07 -3.226,-13.07 l 7.44,-8.365 z" style="fill:#fd5;stroke:#000;stroke-opacity:.58851677"/><path id="path2729" d="m 362.5,30.967 c 0,0 2.895,4.277 3.103,9.207 0.207,4.931 -1.009,7.272 -2.26,9.078 -1.254,1.809 -5.34,5.248 -5.34,5.248 0,0 -8.27,-6.521 -9.963,-12.983 -1.693,-6.466 -2.188,-9.297 -2.188,-9.297 l 6.765,-5.081 9.88,3.828 z" style="fill:#fd5;stroke:#000;stroke-opacity:.58851677"/><path id="path2731" d="m 335.45,22.457 -5.37,4.564 -0.598,2.23 -0.319,2.55 c 0,0 -0.552,0.341 -0.833,1.156 -0.28,0.814 -0.943,1.677 -0.728,3.055 0.209,1.374 0.05,2.649 0.253,4.174 0.201,1.529 0.453,4.572 0.453,4.572 l -0.48,0.422 c 0,0 -0.388,2.471 -0.108,2.793 0.281,0.319 1.29,2.277 2.203,2.186 0.914,-0.091 3.173,0.057 3.173,0.057 0,0 3.676,0.469 9.243,-4.839 5.569,-5.307 5.724,-11.121 5.724,-11.121 l 0.118,-4.077 -12.71,-7.722 z" style="fill:#fd5;stroke:#000;stroke-opacity:.58851677"/><path id="path2733" d="m 353.56,20.923 c 0,0 6.822,-5.981 11.87,-1.033 5.045,4.945 4.205,9.657 4.205,9.657 l -6.38,6.162 c 0,0 -6.039,-0.248 -8.601,-2.687 -2.57,-2.435 -5.52,-7.093 -1.1,-12.099 z" style="fill:#fd5;stroke:#000;stroke-opacity:.58851677"/><path id="path2735" d="m 348.19,20.797 c 0,0 -1.651,-3.662 -2.887,-4.425 -1.235,-0.761 -3.696,-1.301 -6.51,-1.108 -2.812,0.195 -5.147,1.248 -6.121,2.244 -0.973,0.997 -2.188,2.204 -2.188,2.204 0,0 2.171,3.771 2.885,4.423 0.714,0.653 8.917,0.134 8.917,0.134 l 5.91,-3.472 z" style="fill:#fd5;stroke:#000;stroke-opacity:.58851677"/><path id="path2737" d="m 347.98,19.424 c 0,0 -5.364,-1.261 -7.26,-0.024 -1.896,1.236 -5.619,4.928 -5.619,4.928 l 0.216,4.779 c 0,0 3.328,3.472 5.265,3.898 1.938,0.434 3.246,2.41 4.921,1.083 1.676,-1.328 3.753,-1.872 4.146,-2.074 0.396,-0.199 1.716,-0.794 1.716,-0.794 l 3.294,-2.887 c 0,0 0.74,-0.931 0.648,-1.844 -0.088,-0.917 0,-2.272 -0.707,-3.073 -0.702,-0.804 -1.346,-1.375 -2.505,-2.206 -1.152,-0.833 -2.366,-0.762 -2.366,-0.762 l -1.75,-1.024 z" style="fill:#fd5;stroke:#000;stroke-opacity:.58851677"/><path style="fill:#fd5;stroke:#000;stroke-opacity:.58851677" id="line2739" d="M 351.98001,23.014 348.94,19.714001"/></g><path id="path2743" d="m 348.56,9.49 c 0,0 -1.553,3.102 -3.938,4.604 -2.385,1.501 -4.913,2.392 -4.913,2.392 0,0 7.354,0.138 8.013,-0.837 0.66,-0.975 2.057,-2.565 2.057,-2.565" style="fill:#fd5;stroke:#000;stroke-width:1.18069994;stroke-linecap:round;stroke-linejoin:round;stroke-opacity:.58851677"/><path id="path2745" d="m 367.07,27.166 c 0,0 5.293,-3.279 -0.527,-8.253 -5.819,-4.976 -11.431,-8.467 -11.431,-8.467 l 1.484,-2.01 c 0,0 11.64,7.197 11.853,7.512 0.211,0.32 7.621,4.446 7.621,4.446 l -2.963,6.458 -6.03,0.314 z" style="fill:#fd5;stroke:#000;stroke-opacity:.58851677"/><g id="g2785" style="fill:#fd5;stroke:#000;stroke-width:1.18069994;stroke-linecap:round;stroke-linejoin:round;stroke-opacity:.58851677"><path id="path2747" d="m 390.57,14.025 c 0,0 2.026,-0.747 4.695,-0.428 2.669,0.321 4.376,0.428 5.125,1.067 0.744,0.642 5.655,2.882 5.655,2.882 0,0 1.282,1.068 1.493,1.708 0.213,0.641 0.213,2.348 0.213,2.348 l -8.11,1.603 -9.06,-9.18 z" style="fill:#fd5;stroke:#000;stroke-opacity:.58851677"/><path id="path2749" d="m 411.17,57.9 c 0,0 3.308,2.243 3.734,4.482 0.428,2.24 0.854,5.658 0.214,6.402 -0.641,0.749 -3.628,1.603 -5.765,0.214 -2.134,-1.384 -0.534,-5.76 -0.534,-5.76 l 2.36,-5.338 z" style="fill:#fd5;stroke:#000;stroke-opacity:.58851677"/><path id="path2751" d="m 389.61,66.758 c 0,0 1.494,4.482 4.267,4.912 2.779,0.424 6.407,1.066 6.941,0.533 0.53,-0.533 1.387,-2.456 1.066,-3.096 -0.32,-0.641 -4.27,-3.203 -5.229,-3.949 -0.964,-0.75 -2.883,-2.992 -2.883,-2.992 l -4.17,4.592 z" style="fill:#fd5;stroke:#000;stroke-opacity:.58851677"/><path id="path2753" d="m 407.11,52.028 c 0,0 2.99,3.629 3.418,5.872 0.427,2.243 2.026,9.605 0,10.994 -2.028,1.387 -5.658,1.28 -6.404,1.173 -0.75,-0.106 -0.854,-0.854 -3.416,-1.6 -2.562,-0.749 -6.938,-6.301 -6.938,-6.301 l 3.629,-6.405 6.402,-5.014 3.31,1.281 z" style="fill:#fd5;stroke:#000;stroke-opacity:.58851677"/><path id="path2755" d="m 417.47,41.673 c 0,0 3.203,3.096 4.379,5.445 1.171,2.347 1.493,7.256 1.067,7.684 -0.427,0.428 -3.31,-0.64 -4.376,-1.813 -1.07,-1.174 -2.882,-8.541 -2.882,-8.541 l 1.81,-2.775 z" style="fill:#fd5;stroke:#000;stroke-opacity:.58851677"/><path id="path2757" d="m 417.36,45.407 c 0,0 4.484,9.075 3.842,12.81 -0.644,3.738 -0.644,4.378 -0.644,4.378 l -3.734,2.137 c 0,0 -2.56,-0.749 -3.841,-1.177 -1.282,-0.426 -7.473,-11.74 -7.473,-11.74 L 404.86,50 417.35,45.407 Z" style="fill:#fd5;stroke:#000;stroke-opacity:.58851677"/><path id="path2759" d="m 414.8,32.278 c 0,0 9.034,8.491 0.86,15.693 -4.485,3.949 -10.037,2.562 -10.037,2.562 l -0.427,-12.81 9.61,-5.445 z" style="fill:#fd5;stroke:#000;stroke-opacity:.58851677"/><path id="path2761" d="m 388.01,52.349 c 0,0 1.814,5.655 3.201,7.151 1.388,1.493 3.736,3.095 5.872,2.455 2.134,-0.643 2.026,-6.726 1.389,-9.606 -0.64,-2.884 -10.46,0 -10.46,0 z" style="fill:#fd5;stroke:#000;stroke-opacity:.58851677"/><path id="path2763" d="m 397.83,21.39 c 0,0 10.354,-1.173 11.527,-0.854 1.176,0.32 5.979,1.71 6.619,6.297 0.639,4.59 -2.348,7.261 -2.348,7.261 0,0 -3.096,3.202 -4.912,3.308 -1.815,0.108 -4.588,-0.748 -4.588,-0.748 l -6.3,-15.264 z" style="fill:#fd5;stroke:#000;stroke-opacity:.58851677"/><path id="path2765" d="m 386.4,48.72 c 0,0 6.728,11.637 16.333,4.802 9.61,-6.831 6.618,-12.169 3.095,-18.574 -3.521,-6.404 -6.081,-5.443 -6.081,-5.443 l -14.626,1.601 -1.39,12.062 2.68,5.552 z" style="fill:#fd5;stroke:#000;stroke-opacity:.58851677"/><path id="path2767" d="m 364.31,38.792 c 0,0 -0.644,6.831 0.853,9.18 1.493,2.347 3.31,4.377 6.939,3.843 3.629,-0.535 -0.213,-15.585 -0.213,-15.585 l -7.58,2.562 z" style="fill:#fd5;stroke:#000;stroke-opacity:.58851677"/><path id="path2769" d="m 369.64,39.43 c 0,0 -0.213,10.57 1.604,13.131 1.816,2.563 7.792,3.63 7.792,3.63 l 0.853,-12.597 -10.24,-4.164 z" style="fill:#fd5;stroke:#000;stroke-opacity:.58851677"/><path id="path2771" d="m 376.58,46.796 c 0,0 -1.281,9.287 -0.21,11.634 1.065,2.353 1.705,3.952 4.904,5.553 3.206,1.602 5.022,2.029 6.619,2.139 1.604,0.104 2.562,0.53 3.521,-0.109 0.964,-0.641 2.886,-3.203 2.457,-5.869 -0.427,-2.67 -6.188,-11.959 -6.188,-11.959 l -11.1,-1.389 z" style="fill:#fd5;stroke:#000;stroke-opacity:.58851677"/><path id="path2773" d="m 370.28,37.617 c 0,0 0.643,5.124 3.735,8.967 3.096,3.841 5.553,4.803 7.686,5.336 2.138,0.533 7.475,0.429 7.475,0.429 0,0 1.923,-10.354 -1.069,-16.333 -2.986,-5.978 -4.479,-8.434 -4.479,-8.434 l -8.436,0.641 -4.91,9.394 z" style="fill:#fd5;stroke:#000;stroke-opacity:.58851677"/><path id="path2775" d="m 385.02,13.383 7.051,-0.105 1.92,1.281 1.918,1.708 c 0,0 0.641,-0.108 1.39,0.32 0.744,0.426 1.813,0.64 2.561,1.814 0.749,1.174 1.709,2.028 2.562,3.31 0.855,1.281 2.672,3.736 2.672,3.736 h 0.64 c 0,0 1.92,1.601 1.92,2.029 0,0.425 0.534,2.562 -0.214,3.094 -0.748,0.535 -2.346,2.135 -2.346,2.135 0,0 -2.455,2.777 -10.144,2.456 -7.686,-0.32 -11.634,-4.591 -11.634,-4.591 l -2.775,-2.988 4.48,-14.199 z" style="fill:#fd5;stroke:#000;stroke-opacity:.58851677"/><path id="path2777" d="m 370.39,24.166 c 0,0 -9.072,0 -9.609,7.045 -0.532,7.046 3.206,10.036 3.206,10.036 l 8.858,0.426 c 0,0 4.379,-4.163 4.699,-7.686 0.32,-3.523 -0.54,-8.967 -7.16,-9.821 z" style="fill:#fd5;stroke:#000;stroke-opacity:.58851677"/><path id="path2779" d="m 374.34,20.536 c 0,0 -1.173,-3.843 -0.746,-5.229 0.426,-1.389 1.919,-3.417 4.165,-5.126 2.242,-1.706 4.694,-2.453 6.084,-2.346 1.388,0.107 3.096,0.212 3.096,0.212 0,0 0.854,4.269 0.748,5.231 -0.107,0.961 -6.622,5.977 -6.622,5.977 l -6.73,1.281 z" style="fill:#fd5;stroke:#000;stroke-opacity:.58851677"/><path id="path2781" d="m 373.59,19.362 c 0,0 3.204,-4.484 5.445,-4.803 2.238,-0.319 7.475,0 7.475,0 l 2.986,3.736 c 0,0 -0.214,4.804 -1.39,6.404 -1.172,1.602 -0.852,3.95 -2.986,4.059 -2.134,0.104 -4.06,1.067 -4.485,1.173 -0.427,0.108 -1.816,0.534 -1.816,0.534 h -4.376 c 0,0 -1.173,-0.213 -1.706,-0.96 -0.536,-0.747 -1.493,-1.708 -1.493,-2.774 0,-1.07 0.104,-1.923 0.427,-3.312 0.323,-1.385 1.279,-2.135 1.279,-2.135 z" style="fill:#fd5;stroke:#000;stroke-opacity:.58851677"/><path style="fill:#fd5;stroke:#000;stroke-opacity:.58851677" id="line2783" d="m 372.95001,24.698999 0.10999,-4.482"/></g><path id="path2787" d="m 363.17,15.29 c 0,0 0.875,3.357 0.075,6.06 -0.808,2.699 -2.121,5.036 -2.121,5.036 0,0 5.625,-4.745 5.475,-5.913 -0.145,-1.167 -0.145,-3.285 -0.145,-3.285" style="fill:#fd5;stroke:#000;stroke-width:1.18069994;stroke-linecap:round;stroke-linejoin:round;stroke-opacity:.58851677"/></g><g style="font-style:normal;font-variant:normal;font-weight:400;font-stretch:normal;font-size:2.82222271px;line-height:125%;font-family:'Futura PT';-inkscape-font-specification:'Futura PT';letter-spacing:0;word-spacing:0;fill:#000;fill-opacity:1;stroke:none;stroke-width:.26458335px;stroke-linecap:butt;stroke-linejoin:miter;stroke-opacity:1" id="text1097" aria-label="VOLUME"><path style="font-style:normal;font-variant:normal;font-weight:400;font-stretch:normal;font-size:2.46944475px;font-family:Akashi;-inkscape-font-specification:Akashi;fill:#fff;stroke-width:.26458335px" id="path2167" d="m 54.596153,36.370657 0.420818,-1.436088 h 0.361735 l -0.530545,1.808675 h -0.505223 l -0.530545,-1.808675 h 0.361735 z"/><path style="font-style:normal;font-variant:normal;font-weight:400;font-stretch:normal;font-size:2.46944475px;font-family:Akashi;-inkscape-font-specification:Akashi;fill:#fff;stroke-width:.26458335px" id="path2169" d="m 56.94743,36.502087 q 0,0.241157 -0.241156,0.241157 h -0.964627 q -0.241157,0 -0.241157,-0.241157 v -1.326361 q 0,-0.241157 0.241157,-0.241157 h 0.964627 q 0.241156,0 0.241156,0.241157 z m -1.085205,-1.205783 v 1.085205 h 0.72347 v -1.085205 z"/><path style="font-style:normal;font-variant:normal;font-weight:400;font-stretch:normal;font-size:2.46944475px;font-family:Akashi;-inkscape-font-specification:Akashi;fill:#fff;stroke-width:.26458335px" id="path2171" d="m 58.394371,36.743244 h -0.964627 q -0.241157,0 -0.241157,-0.241157 v -1.567518 h 0.361735 v 1.44694 h 0.844049 z"/><path style="font-style:normal;font-variant:normal;font-weight:400;font-stretch:normal;font-size:2.46944475px;font-family:Akashi;-inkscape-font-specification:Akashi;fill:#fff;stroke-width:.26458335px" id="path2173" d="m 58.997263,34.934569 v 1.44694 h 0.72347 l 0.0012,-1.44694 h 0.361735 v 1.567518 q 0,0.241157 -0.241157,0.241157 h -0.965833 q -0.241156,0 -0.241156,-0.241157 v -1.567518 z"/><path style="font-style:normal;font-variant:normal;font-weight:400;font-stretch:normal;font-size:2.46944475px;font-family:Akashi;-inkscape-font-specification:Akashi;fill:#fff;stroke-width:.26458335px" id="path2175" d="m 61.530614,35.296304 v 1.44694 h -0.361735 v -1.44694 H 60.68536 v 1.44694 h -0.361735 v -1.567518 q 0,-0.241157 0.241156,-0.241157 H 62.1323 q 0.241157,0 0.241157,0.241157 v 1.567518 h -0.361735 l -0.0012,-1.44694 z"/><path style="font-style:normal;font-variant:normal;font-weight:400;font-stretch:normal;font-size:2.46944475px;font-family:Akashi;-inkscape-font-specification:Akashi;fill:#fff;stroke-width:.26458335px" id="path2177" d="m 62.976349,36.019774 v 0.361735 h 0.844048 v 0.361735 H 62.85577 q -0.241156,0 -0.241156,-0.241157 v -1.326361 q 0,-0.241157 0.241156,-0.241157 h 0.964627 v 0.361735 h -0.844048 v 0.361735 h 0.482313 l -0.120578,0.361735 z"/></g><g style="font-style:normal;font-variant:normal;font-weight:400;font-stretch:normal;font-size:2.82222271px;line-height:125%;font-family:'Futura PT';-inkscape-font-specification:'Futura PT';letter-spacing:0;word-spacing:0;fill:#fff;fill-opacity:1;stroke:none;stroke-width:.26458335px;stroke-linecap:butt;stroke-linejoin:miter;stroke-opacity:1" id="text1105" aria-label="LUPPOLO3"><path style="font-style:normal;font-variant:normal;font-weight:400;font-stretch:normal;font-size:3.52777815px;font-family:Akashi;-inkscape-font-specification:Akashi;fill:#fff;stroke-width:.26458335px" id="path2133" d="m 52.296553,6.2539544 h -1.378038 q -0.34451,0 -0.34451,-0.3445096 V 3.6701325 H 51.09077 V 5.73719 h 1.205783 z"/><path style="font-style:normal;font-variant:normal;font-weight:400;font-stretch:normal;font-size:3.52777815px;font-family:Akashi;-inkscape-font-specification:Akashi;fill:#fff;stroke-width:.26458335px" id="path2135" d="M 53.157827,3.6701325 V 5.73719 h 1.033529 l 0.0017,-2.0670575 h 0.516765 v 2.2393123 q 0,0.3445096 -0.34451,0.3445096 H 52.98555 q -0.344509,0 -0.344509,-0.3445096 V 3.6701325 Z"/><path style="font-style:normal;font-variant:normal;font-weight:400;font-stretch:normal;font-size:3.52777815px;font-family:Akashi;-inkscape-font-specification:Akashi;fill:#fff;stroke-width:.26458335px" id="path2137" d="m 55.05263,4.0146421 q 0,-0.3445096 0.34451,-0.3445096 h 1.378038 q 0.344509,0 0.344509,0.3445096 v 1.2057836 q 0,0.3445095 -0.344509,0.3445095 h -1.033529 l 0.172255,-0.5167643 h 0.689019 V 4.1868969 H 55.569394 V 6.2539544 H 55.05263 Z"/><path style="font-style:normal;font-variant:normal;font-weight:400;font-stretch:normal;font-size:3.52777815px;font-family:Akashi;-inkscape-font-specification:Akashi;fill:#fff;stroke-width:.26458335px" id="path2139" d="m 57.464197,4.0146421 q 0,-0.3445096 0.34451,-0.3445096 h 1.378038 q 0.34451,0 0.34451,0.3445096 v 1.2057836 q 0,0.3445095 -0.34451,0.3445095 h -1.033529 l 0.172255,-0.5167643 h 0.689019 v -0.861274 h -1.033528 v 2.0670575 h -0.516765 z"/><path style="font-style:normal;font-variant:normal;font-weight:400;font-stretch:normal;font-size:3.52777815px;font-family:Akashi;-inkscape-font-specification:Akashi;fill:#fff;stroke-width:.26458335px" id="path2141" d="m 61.942822,5.9094448 q 0,0.3445096 -0.344509,0.3445096 h -1.378039 q -0.344509,0 -0.344509,-0.3445096 V 4.0146421 q 0,-0.3445096 0.344509,-0.3445096 h 1.378039 q 0.344509,0 0.344509,0.3445096 z M 60.392529,4.1868969 V 5.73719 h 1.033529 V 4.1868969 Z"/><path style="font-style:normal;font-variant:normal;font-weight:400;font-stretch:normal;font-size:3.52777815px;font-family:Akashi;-inkscape-font-specification:Akashi;fill:#fff;stroke-width:.26458335px" id="path2143" d="m 64.00988,6.2539544 h -1.378039 q -0.344509,0 -0.344509,-0.3445096 V 3.6701325 h 0.516764 V 5.73719 h 1.205784 z"/><path style="font-style:normal;font-variant:normal;font-weight:400;font-stretch:normal;font-size:3.52777815px;font-family:Akashi;-inkscape-font-specification:Akashi;fill:#fff;stroke-width:.26458335px" id="path2145" d="m 66.421447,5.9094448 q 0,0.3445096 -0.34451,0.3445096 h -1.378038 q -0.34451,0 -0.34451,-0.3445096 V 4.0146421 q 0,-0.3445096 0.34451,-0.3445096 h 1.378038 q 0.34451,0 0.34451,0.3445096 z M 64.871154,4.1868969 V 5.73719 h 1.033528 V 4.1868969 Z"/><path style="font-size:3.52777815px;baseline-shift:super;fill:#fff" id="path2147" d="M 67.97174,3.29255 V 2.7757857 H 66.765957 V 2.2590213 h 1.378038 q 0.34451,0 0.34451,0.3445096 v 1.8948027 q 0,0.3445096 -0.34451,0.3445096 H 66.765957 V 4.3260788 H 67.97174 V 3.8093144 H 67.110466 L 67.282721,3.29255 Z"/></g><g style="font-style:normal;font-variant:normal;font-weight:400;font-stretch:normal;font-size:2.82222295px;line-height:125%;font-family:'Futura PT';-inkscape-font-specification:'Futura PT';letter-spacing:0;word-spacing:0;fill:#000;fill-opacity:1;stroke:none;stroke-width:.26458335px;stroke-linecap:butt;stroke-linejoin:miter;stroke-opacity:1" id="text1097-1" aria-label="IN"><path style="font-style:normal;font-variant:normal;font-weight:400;font-stretch:normal;font-size:2.46944475px;font-family:Akashi;-inkscape-font-specification:Akashi;fill:#fff;stroke-width:.26458335px" id="path2128" d="m 11.241564,17.688406 v 1.808676 h -0.361735 v -1.808676 z"/><path style="font-style:normal;font-variant:normal;font-weight:400;font-stretch:normal;font-size:2.46944475px;font-family:Akashi;-inkscape-font-specification:Akashi;fill:#fff;stroke-width:.26458335px" id="path2130" d="m 11.482721,19.497082 v -1.568725 q 0,-0.241156 0.241157,-0.241156 h 0.965833 q 0.241156,0 0.241156,0.241156 v 1.568725 h -0.361735 l -0.0012,-1.448146 h -0.72347 v 1.448146 z"/></g><g style="font-style:normal;font-variant:normal;font-weight:400;font-stretch:normal;font-size:2.82222295px;line-height:125%;font-family:'Futura PT';-inkscape-font-specification:'Futura PT';letter-spacing:0;word-spacing:0;fill:#000;fill-opacity:1;stroke:none;stroke-width:.26458335px;stroke-linecap:butt;stroke-linejoin:miter;stroke-opacity:1" id="text1097-1-0" aria-label="OUT"><path style="font-style:normal;font-variant:normal;font-weight:400;font-stretch:normal;font-size:2.46944475px;font-family:Akashi;-inkscape-font-specification:Akashi;fill:#fff;stroke-width:.26458335px" id="path2121" d="m 106.25193,19.255322 q 0,0.241157 -0.24115,0.241157 h -0.96463 q -0.24116,0 -0.24116,-0.241157 V 17.92896 q 0,-0.241156 0.24116,-0.241156 h 0.96463 q 0.24115,0 0.24115,0.241156 z m -1.0852,-1.205783 v 1.085205 h 0.72347 v -1.085205 z"/><path style="font-style:normal;font-variant:normal;font-weight:400;font-stretch:normal;font-size:2.46944475px;font-family:Akashi;-inkscape-font-specification:Akashi;fill:#fff;stroke-width:.26458335px" id="path2123" d="m 106.85482,17.687804 v 1.44694 h 0.72347 l 0.001,-1.44694 h 0.36174 v 1.567518 q 0,0.241157 -0.24116,0.241157 h -0.96583 q -0.24116,0 -0.24116,-0.241157 v -1.567518 z"/><path style="font-style:normal;font-variant:normal;font-weight:400;font-stretch:normal;font-size:2.46944475px;font-family:Akashi;-inkscape-font-specification:Akashi;fill:#fff;stroke-width:.26458335px" id="path2125" d="m 109.50755,17.687804 v 0.361735 h -0.48231 v 1.44694 h -0.36174 v -1.44694 h -0.48231 v -0.361735 z"/></g><g style="font-style:normal;font-variant:normal;font-weight:400;font-stretch:normal;font-size:2.82222295px;line-height:125%;font-family:'Futura PT';-inkscape-font-specification:'Futura PT';letter-spacing:0;word-spacing:0;fill:#000;fill-opacity:1;stroke:none;stroke-width:.26458335px;stroke-linecap:butt;stroke-linejoin:miter;stroke-opacity:1" id="text1097-15" aria-label="VOLUME"><path style="font-style:normal;font-variant:normal;font-weight:400;font-stretch:normal;font-size:2.46944475px;font-family:Akashi;-inkscape-font-specification:Akashi;fill:#fff;stroke-width:.26458335px" id="path2108" d="m 31.498512,36.370657 0.420818,-1.436088 h 0.361735 l -0.530545,1.808675 h -0.505223 l -0.530545,-1.808675 h 0.361735 z"/><path style="font-style:normal;font-variant:normal;font-weight:400;font-stretch:normal;font-size:2.46944475px;font-family:Akashi;-inkscape-font-specification:Akashi;fill:#fff;stroke-width:.26458335px" id="path2110" d="m 33.849789,36.502087 q 0,0.241157 -0.241156,0.241157 h -0.964627 q -0.241157,0 -0.241157,-0.241157 v -1.326361 q 0,-0.241157 0.241157,-0.241157 h 0.964627 q 0.241156,0 0.241156,0.241157 z m -1.085205,-1.205783 v 1.085205 h 0.72347 v -1.085205 z"/><path style="font-style:normal;font-variant:normal;font-weight:400;font-stretch:normal;font-size:2.46944475px;font-family:Akashi;-inkscape-font-specification:Akashi;fill:#fff;stroke-width:.26458335px" id="path2112" d="m 35.29673,36.743244 h -0.964627 q -0.241157,0 -0.241157,-0.241157 v -1.567518 h 0.361735 v 1.44694 h 0.844049 z"/><path style="font-style:normal;font-variant:normal;font-weight:400;font-stretch:normal;font-size:2.46944475px;font-family:Akashi;-inkscape-font-specification:Akashi;fill:#fff;stroke-width:.26458335px" id="path2114" d="m 35.899622,34.934569 v 1.44694 h 0.72347 l 0.0012,-1.44694 h 0.361735 v 1.567518 q 0,0.241157 -0.241157,0.241157 h -0.965833 q -0.241156,0 -0.241156,-0.241157 v -1.567518 z"/><path style="font-style:normal;font-variant:normal;font-weight:400;font-stretch:normal;font-size:2.46944475px;font-family:Akashi;-inkscape-font-specification:Akashi;fill:#fff;stroke-width:.26458335px" id="path2116" d="m 38.432973,35.296304 v 1.44694 h -0.361735 v -1.44694 h -0.483519 v 1.44694 h -0.361735 v -1.567518 q 0,-0.241157 0.241156,-0.241157 h 1.567519 q 0.241157,0 0.241157,0.241157 v 1.567518 h -0.361735 l -0.0012,-1.44694 z"/><path style="font-style:normal;font-variant:normal;font-weight:400;font-stretch:normal;font-size:2.46944475px;font-family:Akashi;-inkscape-font-specification:Akashi;fill:#fff;stroke-width:.26458335px" id="path2118" d="m 39.878708,36.019774 v 0.361735 h 0.844048 v 0.361735 h -0.964627 q -0.241156,0 -0.241156,-0.241157 v -1.326361 q 0,-0.241157 0.241156,-0.241157 h 0.964627 v 0.361735 h -0.844048 v 0.361735 h 0.482313 l -0.120578,0.361735 z"/></g><g style="font-style:normal;font-variant:normal;font-weight:400;font-stretch:normal;font-size:2.82222295px;line-height:125%;font-family:'Futura PT';-inkscape-font-specification:'Futura PT';letter-spacing:0;word-spacing:0;fill:#000;fill-opacity:1;stroke:none;stroke-width:.26458335px;stroke-linecap:butt;stroke-linejoin:miter;stroke-opacity:1" id="text1097-0" aria-label="VOLUME"><path style="font-style:normal;font-variant:normal;font-weight:400;font-stretch:normal;font-size:2.46944475px;font-family:Akashi;-inkscape-font-specification:Akashi;fill:#fff;stroke-width:.26458335px" id="path2095" d="m 79.123512,36.370657 0.420818,-1.436088 h 0.361735 l -0.530545,1.808675 h -0.505223 l -0.530545,-1.808675 h 0.361735 z"/><path style="font-style:normal;font-variant:normal;font-weight:400;font-stretch:normal;font-size:2.46944475px;font-family:Akashi;-inkscape-font-specification:Akashi;fill:#fff;stroke-width:.26458335px" id="path2097" d="m 81.474789,36.502087 q 0,0.241157 -0.241156,0.241157 h -0.964627 q -0.241157,0 -0.241157,-0.241157 v -1.326361 q 0,-0.241157 0.241157,-0.241157 h 0.964627 q 0.241156,0 0.241156,0.241157 z m -1.085205,-1.205783 v 1.085205 h 0.72347 v -1.085205 z"/><path style="font-style:normal;font-variant:normal;font-weight:400;font-stretch:normal;font-size:2.46944475px;font-family:Akashi;-inkscape-font-specification:Akashi;fill:#fff;stroke-width:.26458335px" id="path2099" d="m 82.92173,36.743244 h -0.964627 q -0.241157,0 -0.241157,-0.241157 v -1.567518 h 0.361735 v 1.44694 h 0.844049 z"/><path style="font-style:normal;font-variant:normal;font-weight:400;font-stretch:normal;font-size:2.46944475px;font-family:Akashi;-inkscape-font-specification:Akashi;fill:#fff;stroke-width:.26458335px" id="path2101" d="m 83.524622,34.934569 v 1.44694 h 0.72347 l 0.0012,-1.44694 h 0.361735 v 1.567518 q 0,0.241157 -0.241157,0.241157 h -0.965833 q -0.241156,0 -0.241156,-0.241157 v -1.567518 z"/><path style="font-style:normal;font-variant:normal;font-weight:400;font-stretch:normal;font-size:2.46944475px;font-family:Akashi;-inkscape-font-specification:Akashi;fill:#fff;stroke-width:.26458335px" id="path2103" d="m 86.057973,35.296304 v 1.44694 h -0.361735 v -1.44694 h -0.483519 v 1.44694 h -0.361735 v -1.567518 q 0,-0.241157 0.241156,-0.241157 h 1.567519 q 0.241157,0 0.241157,0.241157 v 1.567518 h -0.361735 l -0.0012,-1.44694 z"/><path style="font-style:normal;font-variant:normal;font-weight:400;font-stretch:normal;font-size:2.46944475px;font-family:Akashi;-inkscape-font-specification:Akashi;fill:#fff;stroke-width:.26458335px" id="path2105" d="m 87.503708,36.019774 v 0.361735 h 0.844048 v 0.361735 h -0.964627 q -0.241156,0 -0.241156,-0.241157 v -1.326361 q 0,-0.241157 0.241156,-0.241157 h 0.964627 v 0.361735 h -0.844048 v 0.361735 h 0.482313 l -0.120578,0.361735 z"/></g><g id="g8644"><g style="font-style:normal;font-variant:normal;font-weight:400;font-stretch:normal;font-size:2.46944451px;line-height:125%;font-family:Akashi;-inkscape-font-specification:Akashi;letter-spacing:0;word-spacing:0;fill:#fff;fill-opacity:1;stroke:none;stroke-width:.26458335px;stroke-linecap:butt;stroke-linejoin:miter;stroke-opacity:1" id="text8608" aria-label="L"><path style="fill:#fff;stroke-width:.26458335px" id="path2089" d="M 7.5674325,36.16814 H 6.6028057 q -0.2411567,0 -0.2411567,-0.241156 v -1.567519 h 0.3617351 v 1.44694 h 0.8440484 z"/></g><g style="font-style:normal;font-variant:normal;font-weight:400;font-stretch:normal;font-size:2.46944451px;line-height:125%;font-family:Akashi;-inkscape-font-specification:Akashi;letter-spacing:0;word-spacing:0;fill:#fff;fill-opacity:1;stroke:none;stroke-width:.26458335px;stroke-linecap:butt;stroke-linejoin:miter;stroke-opacity:1" id="text8608-3" aria-label="R"><path style="fill:#fff;stroke-width:.26458335px" id="path2092" d="m 17.36862,35.594248 0.289388,0.723471 h -0.361735 l -0.302652,-0.723471 h -0.42323 v 0.723471 H 16.208656 V 34.7502 q 0,-0.241157 0.241157,-0.241157 h 0.964627 q 0.241156,0 0.241156,0.241157 v 0.602892 q 0,0.241156 -0.241156,0.241156 z m -0.07476,-0.361735 v -0.361735 h -0.72347 v 0.361735 z"/></g></g><g style="font-style:normal;font-variant:normal;font-weight:400;font-stretch:normal;font-size:2.46944451px;line-height:125%;font-family:Akashi;-inkscape-font-specification:Akashi;letter-spacing:0;word-spacing:0;fill:#fff;fill-opacity:1;stroke:none;stroke-width:.26458335px;stroke-linecap:butt;stroke-linejoin:miter;stroke-opacity:1" id="text8608-5" aria-label="L"><path style="fill:#fff;stroke-width:.26458335px" id="path2086" d="m 102.73207,36.242928 h -0.96463 q -0.24116,0 -0.24116,-0.241157 v -1.567519 h 0.36174 v 1.446941 h 0.84405 z"/></g><g style="font-style:normal;font-variant:normal;font-weight:400;font-stretch:normal;font-size:2.46944451px;line-height:125%;font-family:Akashi;-inkscape-font-specification:Akashi;letter-spacing:0;word-spacing:0;fill:#fff;fill-opacity:1;stroke:none;stroke-width:.26458335px;stroke-linecap:butt;stroke-linejoin:miter;stroke-opacity:1" id="text8608-3-7" aria-label="R"><path style="fill:#fff;stroke-width:.26458335px" id="path2083" d="m 112.61864,35.519457 0.28938,0.723471 h -0.36173 l -0.30265,-0.723471 h -0.42323 v 0.723471 h -0.36174 v -1.567519 q 0,-0.241157 0.24116,-0.241157 h 0.96463 q 0.24115,0 0.24115,0.241157 v 0.602892 q 0,0.241156 -0.24115,0.241156 z m -0.0748,-0.361735 v -0.361735 h -0.72347 v 0.361735 z"/></g><g style="font-style:normal;font-variant:normal;font-weight:400;font-stretch:normal;font-size:2.46944451px;line-height:125%;font-family:Akashi;-inkscape-font-specification:Akashi;letter-spacing:0;word-spacing:0;fill:#fff;fill-opacity:1;stroke:none;stroke-width:.26458335px;stroke-linecap:butt;stroke-linejoin:miter;stroke-opacity:1" id="text8679" aria-label="MASTER"><path style="fill:#fff;stroke-width:.26458335px" id="path2070" d="m 103.29774,41.783384 v 1.44694 h -0.36173 v -1.44694 h -0.48352 v 1.44694 h -0.36174 v -1.567519 q 0,-0.241156 0.24116,-0.241156 h 1.56752 q 0.24115,0 0.24115,0.241156 v 1.567519 h -0.36173 l -0.001,-1.44694 z"/><path style="fill:#fff;stroke-width:.26458335px" id="path2072" d="M 104.38174,43.230324 V 41.6616 q 0,-0.241157 0.24116,-0.241157 h 0.96462 q 0.24116,0 0.24116,0.241157 v 1.568724 h -0.36173 v -0.483519 h -0.72347 v 0.483519 z m 1.08521,-1.448146 h -0.72347 v 0.602892 h 0.72347 z"/><path style="fill:#fff;stroke-width:.26458335px" id="path2074" d="m 107.3974,41.782178 h -0.96583 v 0.362941 h 0.84405 q 0.24116,0 0.24116,0.239951 v 0.602891 q 0,0.241157 -0.24116,0.241157 h -1.20578 v -0.360529 l 1.0852,-0.0012 v -0.361735 h -0.84405 q -0.24115,0 -0.24115,-0.239951 v -0.602892 q 0,-0.242362 0.24115,-0.242362 h 1.20579 z"/><path style="fill:#fff;stroke-width:.26458335px" id="path2076" d="m 109.0843,41.421649 v 0.361735 h -0.48232 v 1.44694 h -0.36173 v -1.44694 h -0.48232 v -0.361735 z"/><path style="fill:#fff;stroke-width:.26458335px" id="path2078" d="m 109.68719,42.506854 v 0.361735 h 0.84405 v 0.361735 h -0.96463 q -0.24116,0 -0.24116,-0.241157 v -1.326362 q 0,-0.241156 0.24116,-0.241156 h 0.96463 v 0.361735 h -0.84405 v 0.361735 h 0.48231 l -0.12058,0.361735 z"/><path style="fill:#fff;stroke-width:.26458335px" id="path2080" d="m 111.93236,42.506854 0.28938,0.72347 h -0.36173 l -0.30265,-0.72347 h -0.42323 v 0.72347 h -0.36174 v -1.567519 q 0,-0.241156 0.24116,-0.241156 h 0.96463 q 0.24115,0 0.24115,0.241156 v 0.602892 q 0,0.241157 -0.24115,0.241157 z m -0.0748,-0.361735 v -0.361735 h -0.72347 v 0.361735 z"/></g><g style="font-style:normal;font-variant:normal;font-weight:400;font-stretch:normal;font-size:2.46944451px;line-height:125%;font-family:Akashi;-inkscape-font-specification:Akashi;letter-spacing:0;word-spacing:0;fill:#fff;fill-opacity:1;stroke:none;stroke-width:.26458335px;stroke-linecap:butt;stroke-linejoin:miter;stroke-opacity:1" id="text8683" aria-label="SLAVE 1"><path style="fill:#fff;stroke-width:.26458335px" id="path2057" d="m 103.78186,56.613877 h -0.96583 v 0.362941 h 0.84405 q 0.24115,0 0.24115,0.239951 v 0.602892 q 0,0.241156 -0.24115,0.241156 h -1.20579 v -0.360529 l 1.08521,-0.0012 v -0.361735 h -0.84405 q -0.24116,0 -0.24116,-0.239951 v -0.602891 q 0,-0.242363 0.24116,-0.242363 h 1.20578 z"/><path style="fill:#fff;stroke-width:.26458335px" id="path2059" d="m 105.34817,58.062023 h -0.96462 q -0.24116,0 -0.24116,-0.241157 v -1.567518 h 0.36173 v 1.44694 h 0.84405 z"/><path style="fill:#fff;stroke-width:.26458335px" id="path2061" d="m 105.58933,58.062023 v -1.568724 q 0,-0.241157 0.24116,-0.241157 h 0.96462 q 0.24116,0 0.24116,0.241157 v 1.568724 h -0.36174 v -0.483519 h -0.72347 v 0.483519 z m 1.0852,-1.448146 h -0.72347 v 0.602892 h 0.72347 z"/><path style="fill:#fff;stroke-width:.26458335px" id="path2063" d="m 108.06119,57.689436 0.42081,-1.436088 h 0.36174 l -0.53055,1.808675 h -0.50522 l -0.53054,-1.808675 h 0.36173 z"/><path style="fill:#fff;stroke-width:.26458335px" id="path2065" d="m 109.32726,57.338553 v 0.361735 h 0.84405 v 0.361735 h -0.96463 q -0.24116,0 -0.24116,-0.241157 v -1.326361 q 0,-0.241157 0.24116,-0.241157 h 0.96463 v 0.361735 h -0.84405 v 0.361735 h 0.48231 l -0.12058,0.361735 z"/><path style="fill:#fff;stroke-width:.26458335px" id="path2067" d="m 111.37347,56.253348 h 0.24357 q 0.24116,0 0.24116,0.241157 v 1.567518 h -0.36174 v -1.44694 h -0.24115 z"/></g><g style="font-style:normal;font-variant:normal;font-weight:400;font-stretch:normal;font-size:2.46944451px;line-height:125%;font-family:Akashi;-inkscape-font-specification:Akashi;letter-spacing:0;word-spacing:0;fill:#000;fill-opacity:1;stroke:none;stroke-width:.26458335px;stroke-linecap:butt;stroke-linejoin:miter;stroke-opacity:1" id="text8687" aria-label="SLAVE 2"><path style="fill:#fff;stroke-width:.26458335px" id="path2044" d="M 103.35923,71.425359 H 102.3934 V 71.7883 h 0.84405 q 0.24115,0 0.24115,0.23995 v 0.602892 q 0,0.241157 -0.24115,0.241157 h -1.20579 V 72.51177 l 1.08521,-0.0012 v -0.361735 h -0.84405 q -0.24116,0 -0.24116,-0.239951 v -0.602892 q 0,-0.242362 0.24116,-0.242362 h 1.20578 z"/><path style="fill:#fff;stroke-width:.26458335px" id="path2046" d="m 104.92554,72.873505 h -0.96462 q -0.24116,0 -0.24116,-0.241157 v -1.567519 h 0.36173 v 1.446941 h 0.84405 z"/><path style="fill:#fff;stroke-width:.26458335px" id="path2048" d="M 105.1667,72.873505 V 71.30478 q 0,-0.241156 0.24116,-0.241156 h 0.96462 q 0.24116,0 0.24116,0.241156 v 1.568725 h -0.36174 v -0.48352 h -0.72347 v 0.48352 z m 1.0852,-1.448146 h -0.72347 v 0.602891 h 0.72347 z"/><path style="fill:#fff;stroke-width:.26458335px" id="path2050" d="m 107.63856,72.500918 0.42081,-1.436089 h 0.36174 l -0.53055,1.808676 h -0.50522 l -0.53054,-1.808676 h 0.36173 z"/><path style="fill:#fff;stroke-width:.26458335px" id="path2052" d="m 108.90463,72.150035 v 0.361735 h 0.84405 v 0.361735 h -0.96463 q -0.24116,0 -0.24116,-0.241157 v -1.326362 q 0,-0.241157 0.24116,-0.241157 h 0.96463 v 0.361735 h -0.84405 V 71.7883 h 0.48231 l -0.12058,0.361735 z"/><path style="fill:#fff;stroke-width:.26458335px" id="path2054" d="m 112.28082,72.872299 h -1.44694 v -0.845254 q 0,-0.239951 0.24116,-0.239951 h 0.84405 v -0.361735 l -0.96463,0.0012 -0.12058,-0.36294 h 1.20578 q 0.24116,0 0.24116,0.241156 v 0.602892 q 0,0.239951 -0.24116,0.239951 h -0.84404 v 0.362941 l 1.0852,-0.0012 z"/></g><g style="font-style:normal;font-variant:normal;font-weight:400;font-stretch:normal;font-size:2.82222271px;line-height:125%;font-family:Akashi;-inkscape-font-specification:Akashi;letter-spacing:0;word-spacing:0;fill:#fff;fill-opacity:1;stroke:none;stroke-width:.26458335px;stroke-linecap:butt;stroke-linejoin:miter;stroke-opacity:1" id="text1071" aria-label="REC/PLAY"><path style="font-size:2.46944475px;fill:#fff;stroke-width:.26458335px" id="path2027" d="m 54.601408,51.413687 0.289388,0.72347 h -0.361735 l -0.302651,-0.72347 h -0.423231 v 0.72347 h -0.361735 v -1.567518 q 0,-0.241157 0.241157,-0.241157 h 0.964627 q 0.241157,0 0.241157,0.241157 v 0.602892 q 0,0.241156 -0.241157,0.241156 z m -0.07476,-0.361735 v -0.361735 h -0.723471 v 0.361735 z"/><path style="font-size:2.46944475px;fill:#fff;stroke-width:.26458335px" id="path2029" d="m 55.491276,51.413687 v 0.361735 h 0.844049 v 0.361735 h -0.964627 q -0.241157,0 -0.241157,-0.241156 v -1.326362 q 0,-0.241157 0.241157,-0.241157 h 0.964627 v 0.361735 h -0.844049 v 0.361735 h 0.482314 l -0.120578,0.361735 z"/><path style="font-size:2.46944475px;fill:#fff;stroke-width:.26458335px" id="path2031" d="m 57.661687,50.690217 h -0.72347 v 1.085205 h 0.844048 v 0.361735 h -0.964626 q -0.241157,0 -0.241157,-0.241156 v -1.326362 q 0,-0.241157 0.241157,-0.241157 h 0.964626 z"/><path style="font-size:2.46944475px;fill:#fff;stroke-width:.26458335px" id="path2033" d="m 58.023422,52.257736 0.771702,-2.049832 h 0.361735 l -0.771702,2.049832 z"/><path style="font-size:2.46944475px;fill:#fff;stroke-width:.26458335px" id="path2035" d="m 59.349784,50.569639 q 0,-0.241157 0.241157,-0.241157 h 0.964626 q 0.241157,0 0.241157,0.241157 v 0.844048 q 0,0.241157 -0.241157,0.241157 h -0.72347 l 0.120579,-0.361735 h 0.482313 v -0.602892 h -0.72347 v 1.44694 h -0.361735 z"/><path style="font-size:2.46944475px;fill:#fff;stroke-width:.26458335px" id="path2037" d="m 62.243664,52.137157 h -0.964626 q -0.241157,0 -0.241157,-0.241156 v -1.567519 h 0.361735 v 1.44694 h 0.844048 z"/><path style="font-size:2.46944475px;fill:#fff;stroke-width:.26458335px" id="path2039" d="m 62.484821,52.137157 v -1.568724 q 0,-0.241157 0.241157,-0.241157 h 0.964627 q 0.241157,0 0.241157,0.241157 v 1.568724 h -0.361735 v -0.483519 h -0.723471 v 0.483519 z m 1.085206,-1.448146 h -0.723471 v 0.602892 h 0.723471 z"/><path style="font-size:2.46944475px;fill:#fff;stroke-width:.26458335px" id="path2041" d="m 65.619859,51.894795 q 0,0.241157 -0.241157,0.241157 h -0.964627 l 0.120578,-0.361735 h 0.723471 v -0.120579 h -0.844049 q -0.241157,0 -0.241157,-0.241156 v -1.085206 h 0.361735 v 0.964627 h 0.723471 v -0.964627 h 0.36294 z"/></g><g style="font-style:normal;font-variant:normal;font-weight:400;font-stretch:normal;font-size:2.82222295px;line-height:125%;font-family:Akashi;-inkscape-font-specification:Akashi;letter-spacing:0;word-spacing:0;fill:#fff;fill-opacity:1;stroke:none;stroke-width:.26458335px;stroke-linecap:butt;stroke-linejoin:miter;stroke-opacity:1" id="text1071-0" aria-label="REC/PLAY"><path style="font-size:2.46944475px;fill:#fff;stroke-width:.26458335px" id="path2010" d="m 78.413916,51.413687 0.289388,0.72347 h -0.361735 l -0.302652,-0.72347 h -0.42323 v 0.72347 h -0.361735 v -1.567518 q 0,-0.241157 0.241157,-0.241157 h 0.964627 q 0.241156,0 0.241156,0.241157 v 0.602892 q 0,0.241156 -0.241156,0.241156 z m -0.07476,-0.361735 v -0.361735 h -0.72347 v 0.361735 z"/><path style="font-size:2.46944475px;fill:#fff;stroke-width:.26458335px" id="path2012" d="m 79.303784,51.413687 v 0.361735 h 0.844049 v 0.361735 h -0.964627 q -0.241157,0 -0.241157,-0.241156 v -1.326362 q 0,-0.241157 0.241157,-0.241157 h 0.964627 v 0.361735 h -0.844049 v 0.361735 h 0.482314 l -0.120579,0.361735 z"/><path style="font-size:2.46944475px;fill:#fff;stroke-width:.26458335px" id="path2014" d="m 81.474195,50.690217 h -0.72347 v 1.085205 h 0.844048 v 0.361735 h -0.964627 q -0.241157,0 -0.241157,-0.241156 v -1.326362 q 0,-0.241157 0.241157,-0.241157 h 0.964627 z"/><path style="font-size:2.46944475px;fill:#fff;stroke-width:.26458335px" id="path2016" d="m 81.83593,52.257736 0.771701,-2.049832 h 0.361735 l -0.771701,2.049832 z"/><path style="font-size:2.46944475px;fill:#fff;stroke-width:.26458335px" id="path2018" d="m 83.162292,50.569639 q 0,-0.241157 0.241156,-0.241157 h 0.964627 q 0.241157,0 0.241157,0.241157 v 0.844048 q 0,0.241157 -0.241157,0.241157 h -0.72347 l 0.120578,-0.361735 h 0.482314 v -0.602892 h -0.72347 v 1.44694 h -0.361735 z"/><path style="font-size:2.46944475px;fill:#fff;stroke-width:.26458335px" id="path2020" d="m 86.056172,52.137157 h -0.964627 q -0.241156,0 -0.241156,-0.241156 v -1.567519 h 0.361735 v 1.44694 h 0.844048 z"/><path style="font-size:2.46944475px;fill:#fff;stroke-width:.26458335px" id="path2022" d="m 86.297329,52.137157 v -1.568724 q 0,-0.241157 0.241157,-0.241157 h 0.964627 q 0.241156,0 0.241156,0.241157 v 1.568724 h -0.361735 v -0.483519 h -0.72347 v 0.483519 z m 1.085205,-1.448146 h -0.72347 v 0.602892 h 0.72347 z"/><path style="font-size:2.46944475px;fill:#fff;stroke-width:.26458335px" id="path2024" d="m 89.432366,51.894795 q 0,0.241157 -0.241156,0.241157 h -0.964627 l 0.120578,-0.361735 h 0.72347 v -0.120579 h -0.844048 q -0.241157,0 -0.241157,-0.241156 v -1.085206 h 0.361735 v 0.964627 h 0.72347 v -0.964627 h 0.362941 z"/></g><g style="font-style:normal;font-variant:normal;font-weight:400;font-stretch:normal;font-size:2.82222295px;line-height:125%;font-family:Akashi;-inkscape-font-specification:Akashi;letter-spacing:0;word-spacing:0;fill:#fff;fill-opacity:1;stroke:none;stroke-width:.26458335px;stroke-linecap:butt;stroke-linejoin:miter;stroke-opacity:1" id="text1071-0-4" aria-label="REC/PLAY"><path style="font-size:2.46944475px;fill:#fff;stroke-width:.26458335px" id="path1993" d="m 30.788906,51.413687 0.289388,0.72347 h -0.361735 l -0.302651,-0.72347 h -0.42323 v 0.72347 h -0.361736 v -1.567518 q 0,-0.241157 0.241157,-0.241157 h 0.964627 q 0.241157,0 0.241157,0.241157 v 0.602892 q 0,0.241156 -0.241157,0.241156 z m -0.07476,-0.361735 v -0.361735 h -0.72347 v 0.361735 z"/><path style="font-size:2.46944475px;fill:#fff;stroke-width:.26458335px" id="path1995" d="m 31.678775,51.413687 v 0.361735 h 0.844048 v 0.361735 h -0.964627 q -0.241157,0 -0.241157,-0.241156 v -1.326362 q 0,-0.241157 0.241157,-0.241157 h 0.964627 v 0.361735 h -0.844048 v 0.361735 h 0.482313 l -0.120578,0.361735 z"/><path style="font-size:2.46944475px;fill:#fff;stroke-width:.26458335px" id="path1997" d="m 33.849185,50.690217 h -0.72347 v 1.085205 h 0.844048 v 0.361735 h -0.964626 q -0.241157,0 -0.241157,-0.241156 v -1.326362 q 0,-0.241157 0.241157,-0.241157 h 0.964626 z"/><path style="font-size:2.46944475px;fill:#fff;stroke-width:.26458335px" id="path1999" d="m 34.21092,52.257736 0.771702,-2.049832 h 0.361735 l -0.771702,2.049832 z"/><path style="font-size:2.46944475px;fill:#fff;stroke-width:.26458335px" id="path2001" d="m 35.537282,50.569639 q 0,-0.241157 0.241157,-0.241157 h 0.964627 q 0.241156,0 0.241156,0.241157 v 0.844048 q 0,0.241157 -0.241156,0.241157 h -0.723471 l 0.120579,-0.361735 h 0.482313 v -0.602892 h -0.72347 v 1.44694 h -0.361735 z"/><path style="font-size:2.46944475px;fill:#fff;stroke-width:.26458335px" id="path2003" d="m 38.431163,52.137157 h -0.964627 q -0.241157,0 -0.241157,-0.241156 v -1.567519 h 0.361735 v 1.44694 h 0.844049 z"/><path style="font-size:2.46944475px;fill:#fff;stroke-width:.26458335px" id="path2005" d="m 38.672319,52.137157 v -1.568724 q 0,-0.241157 0.241157,-0.241157 h 0.964627 q 0.241157,0 0.241157,0.241157 v 1.568724 h -0.361735 v -0.483519 h -0.723471 v 0.483519 z m 1.085206,-1.448146 h -0.723471 v 0.602892 h 0.723471 z"/><path style="font-size:2.46944475px;fill:#fff;stroke-width:.26458335px" id="path2007" d="m 41.807357,51.894795 q 0,0.241157 -0.241157,0.241157 h -0.964627 l 0.120578,-0.361735 h 0.723471 v -0.120579 h -0.844049 q -0.241157,0 -0.241157,-0.241156 v -1.085206 h 0.361735 v 0.964627 h 0.723471 v -0.964627 h 0.36294 z"/></g><g style="font-style:normal;font-variant:normal;font-weight:400;font-stretch:normal;font-size:2.46944475px;line-height:125%;font-family:Akashi;-inkscape-font-specification:Akashi;letter-spacing:0;word-spacing:0;fill:#fff;fill-opacity:1;stroke:none;stroke-width:.26458335px;stroke-linecap:butt;stroke-linejoin:miter;stroke-opacity:1" id="text1135" aria-label="OVERDUB"><path style="fill:#fff;stroke-width:.26458335px" id="path1978" d="m 79.123515,68.202805 q 0,0.241157 -0.241157,0.241157 h -0.964627 q -0.241156,0 -0.241156,-0.241157 v -1.326362 q 0,-0.241156 0.241156,-0.241156 h 0.964627 q 0.241157,0 0.241157,0.241156 z M 78.03831,66.997022 v 1.085205 h 0.72347 v -1.085205 z"/><path style="fill:#fff;stroke-width:.26458335px" id="path1980" d="m 80.148431,68.071375 0.420818,-1.436088 h 0.361736 l -0.530545,1.808675 h -0.505224 l -0.530544,-1.808675 h 0.361735 z"/><path style="fill:#fff;stroke-width:.26458335px" id="path1982" d="m 81.414504,67.720492 v 0.361735 h 0.844048 v 0.361735 h -0.964627 q -0.241156,0 -0.241156,-0.241157 v -1.326362 q 0,-0.241156 0.241156,-0.241156 h 0.964627 v 0.361735 h -0.844048 v 0.361735 h 0.482313 l -0.120578,0.361735 z"/><path style="fill:#fff;stroke-width:.26458335px" id="path1984" d="m 83.659673,67.720492 0.289388,0.72347 h -0.361735 l -0.302652,-0.72347 h -0.42323 v 0.72347 h -0.361735 v -1.567519 q 0,-0.241156 0.241157,-0.241156 h 0.964627 q 0.241156,0 0.241156,0.241156 v 0.602892 q 0,0.241157 -0.241156,0.241157 z m -0.07476,-0.361735 v -0.361735 h -0.72347 v 0.361735 z"/><path style="fill:#fff;stroke-width:.26458335px" id="path1986" d="m 84.187806,68.443962 v -1.808675 h 1.206989 q 0.241157,0 0.241157,0.241156 l -0.0012,1.326362 q 0,0.241157 -0.241156,0.241157 z m 1.085205,-1.445734 h -0.72347 v 1.083999 h 0.72347 z"/><path style="fill:#fff;stroke-width:.26458335px" id="path1988" d="m 86.237638,66.635287 v 1.44694 h 0.72347 l 0.0012,-1.44694 h 0.361735 v 1.567518 q 0,0.241157 -0.241157,0.241157 H 86.11706 q -0.241157,0 -0.241157,-0.241157 v -1.567518 z"/><path style="fill:#fff;stroke-width:.26458335px" id="path1990" d="m 88.531039,66.997022 h -0.605304 v 0.360529 h 0.605304 z m 0.118166,0.724676 h -0.72347 v 0.360529 h 0.72347 z m 0.243569,-0.160369 q 0.118166,0.05064 0.118166,0.219452 v 0.422024 q 0,0.241157 -0.241156,0.241157 H 87.564 v -1.808675 h 1.087617 q 0.241157,0 0.241157,0.241156 z"/></g><g style="font-style:normal;font-variant:normal;font-weight:400;font-stretch:normal;font-size:2.46944475px;line-height:125%;font-family:Akashi;-inkscape-font-specification:Akashi;letter-spacing:0;word-spacing:0;fill:#fff;fill-opacity:1;stroke:none;stroke-width:.26458335px;stroke-linecap:butt;stroke-linejoin:miter;stroke-opacity:1" id="text1135-2" aria-label="OVERDUB"><path style="fill:#fff;stroke-width:.26458335px" id="path1963" d="m 55.311011,68.202805 q 0,0.241157 -0.241157,0.241157 h -0.964626 q -0.241157,0 -0.241157,-0.241157 v -1.326362 q 0,-0.241156 0.241157,-0.241156 h 0.964626 q 0.241157,0 0.241157,0.241156 z m -1.085205,-1.205783 v 1.085205 h 0.72347 v -1.085205 z"/><path style="fill:#fff;stroke-width:.26458335px" id="path1965" d="m 56.335927,68.071375 0.420819,-1.436088 h 0.361735 l -0.530545,1.808675 h -0.505223 l -0.530545,-1.808675 h 0.361735 z"/><path style="fill:#fff;stroke-width:.26458335px" id="path1967" d="m 57.602,67.720492 v 0.361735 h 0.844048 v 0.361735 h -0.964626 q -0.241157,0 -0.241157,-0.241157 v -1.326362 q 0,-0.241156 0.241157,-0.241156 h 0.964626 v 0.361735 H 57.602 v 0.361735 h 0.482313 l -0.120578,0.361735 z"/><path style="fill:#fff;stroke-width:.26458335px" id="path1969" d="m 59.847169,67.720492 0.289388,0.72347 h -0.361735 l -0.302652,-0.72347 h -0.42323 v 0.72347 h -0.361735 v -1.567519 q 0,-0.241156 0.241157,-0.241156 h 0.964627 q 0.241157,0 0.241157,0.241156 v 0.602892 q 0,0.241157 -0.241157,0.241157 z m -0.07476,-0.361735 V 66.997022 H 59.04894 v 0.361735 z"/><path style="fill:#fff;stroke-width:.26458335px" id="path1971" d="m 60.375302,68.443962 v -1.808675 h 1.20699 q 0.241156,0 0.241156,0.241156 l -0.0012,1.326362 q 0,0.241157 -0.241157,0.241157 z m 1.085206,-1.445734 h -0.723471 v 1.083999 h 0.723471 z"/><path style="fill:#fff;stroke-width:.26458335px" id="path1973" d="m 62.425134,66.635287 v 1.44694 h 0.723471 l 0.0012,-1.44694 h 0.361735 v 1.567518 q 0,0.241157 -0.241156,0.241157 h -0.965833 q -0.241157,0 -0.241157,-0.241157 v -1.567518 z"/><path style="fill:#fff;stroke-width:.26458335px" id="path1975" d="m 64.718535,66.997022 h -0.605304 v 0.360529 h 0.605304 z m 0.118167,0.724676 h -0.723471 v 0.360529 h 0.723471 z m 0.243568,-0.160369 q 0.118167,0.05064 0.118167,0.219452 v 0.422024 q 0,0.241157 -0.241157,0.241157 h -1.205784 v -1.808675 h 1.087617 q 0.241157,0 0.241157,0.241156 z"/></g><g style="font-style:normal;font-variant:normal;font-weight:400;font-stretch:normal;font-size:2.46944475px;line-height:125%;font-family:Akashi;-inkscape-font-specification:Akashi;letter-spacing:0;word-spacing:0;fill:#fff;fill-opacity:1;stroke:none;stroke-width:.26458335px;stroke-linecap:butt;stroke-linejoin:miter;stroke-opacity:1" id="text1135-7" aria-label="OVERDUB"><path style="fill:#fff;stroke-width:.26458335px" id="path1948" d="m 31.498511,68.202805 q 0,0.241157 -0.241157,0.241157 h -0.964626 q -0.241157,0 -0.241157,-0.241157 v -1.326362 q 0,-0.241156 0.241157,-0.241156 h 0.964626 q 0.241157,0 0.241157,0.241156 z m -1.085205,-1.205783 v 1.085205 h 0.72347 v -1.085205 z"/><path style="fill:#fff;stroke-width:.26458335px" id="path1950" d="m 32.523427,68.071375 0.420819,-1.436088 h 0.361735 l -0.530545,1.808675 h -0.505223 l -0.530545,-1.808675 h 0.361735 z"/><path style="fill:#fff;stroke-width:.26458335px" id="path1952" d="m 33.7895,67.720492 v 0.361735 h 0.844048 v 0.361735 h -0.964626 q -0.241157,0 -0.241157,-0.241157 v -1.326362 q 0,-0.241156 0.241157,-0.241156 h 0.964626 v 0.361735 H 33.7895 v 0.361735 h 0.482313 l -0.120578,0.361735 z"/><path style="fill:#fff;stroke-width:.26458335px" id="path1954" d="m 36.034669,67.720492 0.289388,0.72347 h -0.361735 l -0.302652,-0.72347 h -0.42323 v 0.72347 h -0.361735 v -1.567519 q 0,-0.241156 0.241157,-0.241156 h 0.964627 q 0.241157,0 0.241157,0.241156 v 0.602892 q 0,0.241157 -0.241157,0.241157 z m -0.07476,-0.361735 V 66.997022 H 35.23644 v 0.361735 z"/><path style="fill:#fff;stroke-width:.26458335px" id="path1956" d="m 36.562802,68.443962 v -1.808675 h 1.20699 q 0.241156,0 0.241156,0.241156 l -0.0012,1.326362 q 0,0.241157 -0.241157,0.241157 z m 1.085206,-1.445734 h -0.723471 v 1.083999 h 0.723471 z"/><path style="fill:#fff;stroke-width:.26458335px" id="path1958" d="m 38.612634,66.635287 v 1.44694 h 0.723471 l 0.0012,-1.44694 h 0.361735 v 1.567518 q 0,0.241157 -0.241156,0.241157 h -0.965833 q -0.241157,0 -0.241157,-0.241157 v -1.567518 z"/><path style="fill:#fff;stroke-width:.26458335px" id="path1960" d="m 40.906035,66.997022 h -0.605304 v 0.360529 h 0.605304 z m 0.118167,0.724676 h -0.723471 v 0.360529 h 0.723471 z m 0.243568,-0.160369 q 0.118167,0.05064 0.118167,0.219452 v 0.422024 q 0,0.241157 -0.241157,0.241157 h -1.205784 v -1.808675 h 1.087617 q 0.241157,0 0.241157,0.241156 z"/></g><g style="font-style:normal;font-variant:normal;font-weight:400;font-stretch:normal;font-size:2.46944475px;line-height:125%;font-family:Akashi;-inkscape-font-specification:Akashi;letter-spacing:0;word-spacing:0;fill:#fff;fill-opacity:1;stroke:none;stroke-width:.26458335px;stroke-linecap:butt;stroke-linejoin:miter;stroke-opacity:1" id="text1219" aria-label="DIRECTION"><path style="fill:#fff;stroke-width:.26458335px" id="path1929" d="m 5.8164411,68.444565 v -1.808676 h 1.2069893 q 0.2411567,0 0.2411567,0.241157 l -0.00121,1.326362 q 0,0.241157 -0.2411567,0.241157 z M 6.9016463,66.99883 H 6.1781761 v 1.084 h 0.7234702 z"/><path style="fill:#fff;stroke-width:.26458335px" id="path1931" d="m 7.8662731,66.635889 v 1.808676 h -0.361735 v -1.808676 z"/><path style="fill:#fff;stroke-width:.26458335px" id="path1933" d="m 9.2673938,67.721095 0.289388,0.72347 h -0.361735 l -0.3026517,-0.72347 h -0.42323 v 0.72347 H 8.10743 v -1.567519 q 0,-0.241157 0.2411567,-0.241157 h 0.9646269 q 0.2411567,0 0.2411567,0.241157 v 0.602892 q 0,0.241157 -0.2411567,0.241157 z M 9.1926352,67.35936 V 66.997625 H 8.4691651 v 0.361735 z"/><path style="fill:#fff;stroke-width:.26458335px" id="path1935" d="m 10.157262,67.721095 v 0.361735 h 0.844049 v 0.361735 h -0.964627 q -0.241157,0 -0.241157,-0.241157 v -1.326362 q 0,-0.241157 0.241157,-0.241157 h 0.964627 v 0.361736 h -0.844049 v 0.361735 h 0.482313 l -0.120578,0.361735 z"/><path style="fill:#fff;stroke-width:.26458335px" id="path1937" d="m 12.327673,66.997625 h -0.723471 v 1.085205 h 0.844049 v 0.361735 h -0.964627 q -0.241157,0 -0.241157,-0.241157 v -1.326362 q 0,-0.241157 0.241157,-0.241157 h 0.964627 z"/><path style="fill:#fff;stroke-width:.26458335px" id="path1939" d="m 14.015769,66.635889 v 0.361736 h -0.482313 v 1.44694 h -0.361735 v -1.44694 h -0.482314 v -0.361736 z"/><path style="fill:#fff;stroke-width:.26458335px" id="path1941" d="m 14.618661,66.635889 v 1.808676 h -0.361735 v -1.808676 z"/><path style="fill:#fff;stroke-width:.26458335px" id="path1943" d="m 16.306758,68.203408 q 0,0.241157 -0.241156,0.241157 h -0.964627 q -0.241157,0 -0.241157,-0.241157 v -1.326362 q 0,-0.241157 0.241157,-0.241157 h 0.964627 q 0.241156,0 0.241156,0.241157 z m -1.085205,-1.205783 v 1.085205 h 0.72347 v -1.085205 z"/><path style="fill:#fff;stroke-width:.26458335px" id="path1945" d="M 16.547915,68.444565 V 66.87584 q 0,-0.241156 0.241157,-0.241156 h 0.965832 q 0.241157,0 0.241157,0.241156 v 1.568725 h -0.361735 l -0.0012,-1.448146 h -0.72347 v 1.448146 z"/></g><g style="font-style:normal;font-variant:normal;font-weight:400;font-stretch:normal;font-size:2.46944475px;line-height:125%;font-family:Akashi;-inkscape-font-specification:Akashi;letter-spacing:0;word-spacing:0;fill:#fff;fill-opacity:1;stroke:none;stroke-width:.26458335px;stroke-linecap:butt;stroke-linejoin:miter;stroke-opacity:1" id="text1223" aria-label="ERASE" transform="translate(0,-1.0583334)"><path style="fill:#fff;stroke-width:.26458335px" id="path1918" d="m 8.4094779,83.596087 v 0.361735 h 0.8440485 v 0.361735 H 8.2888996 q -0.2411568,0 -0.2411568,-0.241157 v -1.326361 q 0,-0.241157 0.2411568,-0.241157 h 0.9646268 v 0.361735 H 8.4094779 v 0.361735 H 8.8917913 L 8.771213,83.596087 Z"/><path style="fill:#fff;stroke-width:.26458335px" id="path1920" d="m 10.654647,83.596087 0.289388,0.72347 H 10.5823 l -0.302652,-0.72347 H 9.8564182 v 0.72347 H 9.4946831 v -1.567518 q 0,-0.241157 0.2411568,-0.241157 h 0.9646271 q 0.241156,0 0.241156,0.241157 v 0.602891 q 0,0.241157 -0.241156,0.241157 z m -0.07476,-0.361735 V 82.872617 H 9.8564182 v 0.361735 z"/><path style="fill:#fff;stroke-width:.26458335px" id="path1922" d="m 11.18278,84.319557 v -1.568724 q 0,-0.241157 0.241157,-0.241157 h 0.964627 q 0.241157,0 0.241157,0.241157 v 1.568724 h -0.361736 v -0.483519 h -0.72347 v 0.483519 z m 1.085205,-1.448146 h -0.72347 v 0.602892 h 0.72347 z"/><path style="fill:#fff;stroke-width:.26458335px" id="path1924" d="m 14.198445,82.871411 h -0.965833 v 0.362941 h 0.844049 q 0.241157,0 0.241157,0.239951 v 0.602892 q 0,0.241156 -0.241157,0.241156 h -1.205784 v -0.360529 l 1.085205,-0.0012 v -0.361735 h -0.844048 q -0.241157,0 -0.241157,-0.239951 v -0.602891 q 0,-0.242363 0.241157,-0.242363 h 1.205784 z"/><path style="fill:#fff;stroke-width:.26458335px" id="path1926" d="m 14.920709,83.596087 v 0.361735 h 0.844049 v 0.361735 h -0.964627 q -0.241157,0 -0.241157,-0.241157 v -1.326361 q 0,-0.241157 0.241157,-0.241157 h 0.964627 v 0.361735 h -0.844049 v 0.361735 h 0.482314 l -0.120579,0.361735 z"/></g><g style="font-style:normal;font-variant:normal;font-weight:400;font-stretch:normal;font-size:2.46944475px;line-height:125%;font-family:Akashi;-inkscape-font-specification:Akashi;letter-spacing:0;word-spacing:0;fill:#fff;fill-opacity:1;stroke:none;stroke-width:.26458335px;stroke-linecap:butt;stroke-linejoin:miter;stroke-opacity:1" id="text1227" aria-label="CLEAR" transform="translate(0,-1.0583334)"><path style="fill:#fff;stroke-width:.26458335px" id="path1907" d="m 33.064823,82.872625 h -0.72347 v 1.085205 h 0.844049 v 0.361735 h -0.964627 q -0.241157,0 -0.241157,-0.241157 v -1.326362 q 0,-0.241157 0.241157,-0.241157 h 0.964627 z"/><path style="fill:#fff;stroke-width:.26458335px" id="path1909" d="m 34.632342,84.319565 h -0.964627 q -0.241157,0 -0.241157,-0.241157 v -1.567519 h 0.361735 v 1.446941 h 0.844049 z"/><path style="fill:#fff;stroke-width:.26458335px" id="path1911" d="m 35.235234,83.596095 v 0.361735 h 0.844048 v 0.361735 h -0.964627 q -0.241156,0 -0.241156,-0.241157 v -1.326362 q 0,-0.241157 0.241156,-0.241157 h 0.964627 v 0.361736 h -0.844048 v 0.361735 h 0.482313 l -0.120578,0.361735 z"/><path style="fill:#fff;stroke-width:.26458335px" id="path1913" d="M 36.320439,84.319565 V 82.75084 q 0,-0.241156 0.241157,-0.241156 h 0.964626 q 0.241157,0 0.241157,0.241156 v 1.568725 h -0.361735 v -0.483519 h -0.72347 v 0.483519 z m 1.085205,-1.448146 h -0.72347 v 0.602892 h 0.72347 z"/><path style="fill:#fff;stroke-width:.26458335px" id="path1915" d="m 39.1685,83.596095 0.289388,0.72347 h -0.361735 l -0.302652,-0.72347 h -0.42323 v 0.72347 h -0.361735 v -1.567519 q 0,-0.241157 0.241157,-0.241157 h 0.964626 q 0.241157,0 0.241157,0.241157 v 0.602892 q 0,0.241157 -0.241157,0.241157 z M 39.09374,83.23436 v -0.361735 h -0.72347 v 0.361735 z"/></g><g style="font-style:normal;font-variant:normal;font-weight:400;font-stretch:normal;font-size:2.46944475px;line-height:125%;font-family:Akashi;-inkscape-font-specification:Akashi;letter-spacing:0;word-spacing:0;fill:#fff;fill-opacity:1;stroke:none;stroke-width:.26458335px;stroke-linecap:butt;stroke-linejoin:miter;stroke-opacity:1" id="text1231" aria-label="CLEAR" transform="translate(0,-1.0583334)"><path style="fill:#fff;stroke-width:.26458335px" id="path1896" d="m 56.877327,82.872625 h -0.72347 v 1.085205 h 0.844048 v 0.361735 h -0.964626 q -0.241157,0 -0.241157,-0.241157 v -1.326362 q 0,-0.241157 0.241157,-0.241157 h 0.964626 z"/><path style="fill:#fff;stroke-width:.26458335px" id="path1898" d="m 58.444846,84.319565 h -0.964627 q -0.241157,0 -0.241157,-0.241157 v -1.567519 h 0.361735 v 1.446941 h 0.844049 z"/><path style="fill:#fff;stroke-width:.26458335px" id="path1900" d="m 59.047738,83.596095 v 0.361735 h 0.844048 v 0.361735 h -0.964627 q -0.241157,0 -0.241157,-0.241157 v -1.326362 q 0,-0.241157 0.241157,-0.241157 h 0.964627 v 0.361736 h -0.844048 v 0.361735 h 0.482313 l -0.120578,0.361735 z"/><path style="fill:#fff;stroke-width:.26458335px" id="path1902" d="M 60.132943,84.319565 V 82.75084 q 0,-0.241156 0.241156,-0.241156 h 0.964627 q 0.241157,0 0.241157,0.241156 v 1.568725 h -0.361735 v -0.483519 h -0.72347 v 0.483519 z m 1.085205,-1.448146 h -0.72347 v 0.602892 h 0.72347 z"/><path style="fill:#fff;stroke-width:.26458335px" id="path1904" d="m 62.981003,83.596095 0.289389,0.72347 h -0.361736 l -0.302651,-0.72347 h -0.42323 v 0.72347 H 61.82104 v -1.567519 q 0,-0.241157 0.241156,-0.241157 h 0.964627 q 0.241157,0 0.241157,0.241157 v 0.602892 q 0,0.241157 -0.241157,0.241157 z m -0.07476,-0.361735 v -0.361735 h -0.72347 v 0.361735 z"/></g><g style="font-style:normal;font-variant:normal;font-weight:400;font-stretch:normal;font-size:2.46944475px;line-height:125%;font-family:Akashi;-inkscape-font-specification:Akashi;letter-spacing:0;word-spacing:0;fill:#fff;fill-opacity:1;stroke:none;stroke-width:.26458335px;stroke-linecap:butt;stroke-linejoin:miter;stroke-opacity:1" id="text1235" aria-label="CLEAR" transform="translate(0,-1.0583334)"><path style="fill:#fff;stroke-width:.26458335px" id="path1885" d="m 80.689827,82.872625 h -0.72347 v 1.085205 h 0.844048 v 0.361735 h -0.964626 q -0.241157,0 -0.241157,-0.241157 v -1.326362 q 0,-0.241157 0.241157,-0.241157 h 0.964626 z"/><path style="fill:#fff;stroke-width:.26458335px" id="path1887" d="m 82.257346,84.319565 h -0.964627 q -0.241157,0 -0.241157,-0.241157 v -1.567519 h 0.361735 v 1.446941 h 0.844049 z"/><path style="fill:#fff;stroke-width:.26458335px" id="path1889" d="m 82.860238,83.596095 v 0.361735 h 0.844048 v 0.361735 h -0.964627 q -0.241157,0 -0.241157,-0.241157 v -1.326362 q 0,-0.241157 0.241157,-0.241157 h 0.964627 v 0.361736 h -0.844048 v 0.361735 h 0.482313 l -0.120578,0.361735 z"/><path style="fill:#fff;stroke-width:.26458335px" id="path1891" d="M 83.945443,84.319565 V 82.75084 q 0,-0.241156 0.241156,-0.241156 h 0.964627 q 0.241157,0 0.241157,0.241156 v 1.568725 h -0.361735 v -0.483519 h -0.72347 v 0.483519 z m 1.085205,-1.448146 h -0.72347 v 0.602892 h 0.72347 z"/><path style="fill:#fff;stroke-width:.26458335px" id="path1893" d="m 86.793503,83.596095 0.289389,0.72347 h -0.361736 l -0.302651,-0.72347 h -0.42323 v 0.72347 H 85.63354 v -1.567519 q 0,-0.241157 0.241156,-0.241157 h 0.964627 q 0.241157,0 0.241157,0.241157 v 0.602892 q 0,0.241157 -0.241157,0.241157 z m -0.07476,-0.361735 v -0.361735 h -0.72347 v 0.361735 z"/></g><g style="font-style:normal;font-variant:normal;font-weight:400;font-stretch:normal;font-size:3.17500043px;line-height:125%;font-family:Akashi;-inkscape-font-specification:Akashi;letter-spacing:0;word-spacing:0;fill:#fff;fill-opacity:1;stroke:none;stroke-width:.26458335px;stroke-linecap:butt;stroke-linejoin:miter;stroke-opacity:1" id="text1239" aria-label="MASTER"><path style="font-size:3.17500043px;fill:#fff;stroke-width:.26458335px" id="path1872" d="m 30.757816,11.458999 v 1.860352 h -0.465088 v -1.860352 h -0.621667 v 1.860352 H 29.205973 V 11.30397 q 0,-0.310059 0.310058,-0.310059 h 2.015381 q 0.310059,0 0.310059,0.310059 v 2.015381 h -0.465088 l -0.0016,-1.860352 z"/><path style="font-size:3.17500043px;fill:#fff;stroke-width:.26458335px" id="path1874" d="M 32.15153,13.319351 V 11.30242 q 0,-0.310059 0.310058,-0.310059 h 1.240235 q 0.310059,0 0.310059,0.310059 v 2.016931 h -0.465088 v -0.621667 h -0.930176 v 0.621667 z m 1.395264,-1.861902 h -0.930176 v 0.775147 h 0.930176 z"/><path style="font-size:3.17500043px;fill:#fff;stroke-width:.26458335px" id="path1876" d="m 36.028813,11.457449 h -1.241785 v 0.466638 h 1.085206 q 0.310058,0 0.310058,0.308509 v 0.775146 q 0,0.310059 -0.310058,0.310059 H 34.32194 v -0.463538 l 1.395264,-0.0015 v -0.465088 h -1.085205 q -0.310059,0 -0.310059,-0.308508 V 11.30397 q 0,-0.311609 0.310059,-0.311609 h 1.550293 z"/><path style="font-size:3.17500043px;fill:#fff;stroke-width:.26458335px" id="path1878" d="m 38.197673,10.993911 v 0.465088 h -0.620117 v 1.860352 h -0.465088 v -1.860352 h -0.620117 v -0.465088 z"/><path style="font-size:3.17500043px;fill:#fff;stroke-width:.26458335px" id="path1880" d="m 38.972819,12.389175 v 0.465088 h 1.085206 v 0.465088 H 38.81779 q -0.310059,0 -0.310059,-0.310058 V 11.30397 q 0,-0.310059 0.310059,-0.310059 h 1.240235 v 0.465088 h -1.085206 v 0.465088 h 0.620118 l -0.15503,0.465088 z"/><path style="font-size:3.17500043px;fill:#fff;stroke-width:.26458335px" id="path1882" d="m 41.859466,12.389175 0.37207,0.930176 h -0.465088 l -0.389123,-0.930176 h -0.544153 v 0.930176 H 40.368084 V 11.30397 q 0,-0.310059 0.310059,-0.310059 h 1.240234 q 0.310059,0 0.310059,0.310059 v 0.775147 q 0,0.310058 -0.310059,0.310058 z m -0.09612,-0.465088 V 11.458999 H 40.83317 v 0.465088 z"/></g><g style="font-style:normal;font-variant:normal;font-weight:400;font-stretch:normal;font-size:3.17500043px;line-height:125%;font-family:Akashi;-inkscape-font-specification:Akashi;letter-spacing:0;word-spacing:0;fill:#fff;fill-opacity:1;stroke:none;stroke-width:.26458335px;stroke-linecap:butt;stroke-linejoin:miter;stroke-opacity:1" id="text1243" aria-label="SLAVE 1"><path style="font-size:3.17500043px;fill:#fff;stroke-width:.26458335px" id="path1859" d="m 55.192758,11.457449 h -1.241784 v 0.466638 h 1.085205 q 0.310058,0 0.310058,0.308509 v 0.775146 q 0,0.310059 -0.310058,0.310059 h -1.550293 v -0.463538 l 1.395263,-0.0015 v -0.465088 h -1.085205 q -0.310058,0 -0.310058,-0.308508 V 11.30397 q 0,-0.311609 0.310058,-0.311609 h 1.550293 z"/><path style="font-size:3.17500043px;fill:#fff;stroke-width:.26458335px" id="path1861" d="m 57.206589,13.319351 h -1.240234 q -0.310059,0 -0.310059,-0.310058 v -2.015382 h 0.465088 v 1.860352 h 1.085205 z"/><path style="font-size:3.17500043px;fill:#fff;stroke-width:.26458335px" id="path1863" d="M 57.516648,13.319351 V 11.30242 q 0,-0.310059 0.310058,-0.310059 h 1.240235 q 0.310059,0 0.310059,0.310059 v 2.016931 h -0.465088 v -0.621667 h -0.930176 v 0.621667 z m 1.395264,-1.861902 h -0.930176 v 0.775147 h 0.930176 z"/><path style="font-size:3.17500043px;fill:#fff;stroke-width:.26458335px" id="path1865" d="m 60.694749,12.840311 0.541052,-1.8464 h 0.465088 l -0.682129,2.32544 h -0.649573 l -0.682129,-2.32544 h 0.465088 z"/><path style="font-size:3.17500043px;fill:#fff;stroke-width:.26458335px" id="path1867" d="m 62.322557,12.389175 v 0.465088 h 1.085205 v 0.465088 h -1.240235 q -0.310058,0 -0.310058,-0.310058 V 11.30397 q 0,-0.310059 0.310058,-0.310059 h 1.240235 v 0.465088 h -1.085205 v 0.465088 h 0.620117 l -0.155029,0.465088 z"/><path style="font-size:3.17500043px;fill:#fff;stroke-width:.26458335px" id="path1869" d="m 64.953404,10.993911 h 0.313159 q 0.310059,0 0.310059,0.310059 v 2.015381 h -0.465088 v -1.860352 h -0.310059 z"/></g><g style="font-style:normal;font-variant:normal;font-weight:400;font-stretch:normal;font-size:3.17500043px;line-height:125%;font-family:Akashi;-inkscape-font-specification:Akashi;letter-spacing:0;word-spacing:0;fill:#fff;fill-opacity:1;stroke:none;stroke-width:.26458335px;stroke-linecap:butt;stroke-linejoin:miter;stroke-opacity:1" id="text1247" aria-label="SLAVE 2"><path style="font-size:3.17500043px;fill:#fff;stroke-width:.26458335px" id="path1846" d="M 78.461885,11.457449 H 77.2201 v 0.466638 h 1.085206 q 0.310058,0 0.310058,0.308509 v 0.775146 q 0,0.310059 -0.310058,0.310059 h -1.550293 v -0.463538 l 1.395263,-0.0015 v -0.465088 h -1.085205 q -0.310058,0 -0.310058,-0.308508 V 11.30397 q 0,-0.311609 0.310058,-0.311609 h 1.550293 z"/><path style="font-size:3.17500043px;fill:#fff;stroke-width:.26458335px" id="path1848" d="m 80.475716,13.319351 h -1.240234 q -0.310059,0 -0.310059,-0.310058 v -2.015382 h 0.465088 v 1.860352 h 1.085205 z"/><path style="font-size:3.17500043px;fill:#fff;stroke-width:.26458335px" id="path1850" d="M 80.785775,13.319351 V 11.30242 q 0,-0.310059 0.310058,-0.310059 h 1.240235 q 0.310059,0 0.310059,0.310059 v 2.016931 h -0.465088 v -0.621667 h -0.930176 v 0.621667 z m 1.395264,-1.861902 h -0.930176 v 0.775147 h 0.930176 z"/><path style="font-size:3.17500043px;fill:#fff;stroke-width:.26458335px" id="path1852" d="m 83.963876,12.840311 0.541052,-1.8464 h 0.465088 l -0.682129,2.32544 h -0.649573 l -0.682129,-2.32544 h 0.465088 z"/><path style="font-size:3.17500043px;fill:#fff;stroke-width:.26458335px" id="path1854" d="m 85.591683,12.389175 v 0.465088 h 1.085206 v 0.465088 h -1.240235 q -0.310059,0 -0.310059,-0.310058 V 11.30397 q 0,-0.310059 0.310059,-0.310059 h 1.240235 v 0.465088 h -1.085206 v 0.465088 h 0.620118 l -0.15503,0.465088 z"/><path style="font-size:3.17500043px;fill:#fff;stroke-width:.26458335px" id="path1856" d="m 89.932504,13.317801 h -1.860352 v -1.086756 q 0,-0.308508 0.310059,-0.308508 h 1.085205 v -0.465088 l -1.240235,0.0015 -0.155029,-0.466638 h 1.550293 q 0.310059,0 0.310059,0.310059 v 0.775146 q 0,0.308509 -0.310059,0.308509 H 88.53724 v 0.466638 l 1.395264,-0.0015 z"/></g></svg>