<svg xmlns="http://www.w3.org/2000/svg" xmlns:svg="http://www.w3.org/2000/svg" xmlns:xlink="http://www.w3.org/1999/xlink" id="svg4541" width="90" height="379.45" version="1.1" viewBox="0 0 23.813 100.396"><defs id="defs4535"><linearGradient id="linearGradient12146-4-2-5-6" x1="59.922" x2="72.286" y1="39.115" y2="95.153" gradientTransform="translate(-0.96555096,7.5674182)" gradientUnits="userSpaceOnUse" xlink:href="#linearGradient15046"/><linearGradient id="linearGradient15046"><stop id="stop15048" offset="0" style="stop-color:#000;stop-opacity:1"/><stop id="stop15050" offset="1" style="stop-color:#000;stop-opacity:0"/></linearGradient><filter id="filter15054-0-2-4-0" width="1.157" height="1.246" x="-.079" y="-.123"><feGaussianBlur id="feGaussianBlur15056-3-1-1-8" stdDeviation="1.194"/></filter><filter id="filter13703-7-7-5-0"><feGaussianBlur id="feGaussianBlur13705-8-5-4-4" stdDeviation=".745"/></filter><linearGradient id="linearGradient13089-8-1-1-1" x1="47.75" x2="47.081" y1="70.165" y2="38.964" gradientTransform="matrix(0.50336113,0,0,0.50434699,70.887789,55.07673)" gradientUnits="userSpaceOnUse" xlink:href="#XMLID_136_-6-7-5-1"/><radialGradient id="XMLID_136_-6-7-5-1" cx="85" cy="103.305" r="139.559" gradientTransform="translate(-72,-12)" gradientUnits="userSpaceOnUse"><stop id="stop6-0-4-5-3" offset="0" style="stop-color:#535557"/><stop id="stop8-4-1-4-5" offset=".03" style="stop-color:#6e7072"/><stop id="stop10-6-7-9-9" offset=".084" style="stop-color:#98999b"/><stop id="stop12-7-1-8-3" offset=".136" style="stop-color:#b9babc"/><stop id="stop14-6-1-3-4" offset=".186" style="stop-color:#d1d1d3"/><stop id="stop16-0-1-8-1" offset=".233" style="stop-color:#dfdfe1"/><stop id="stop18-9-7-5-5" offset=".272" style="stop-color:#e4e4e6"/><stop id="stop20-7-0-2-0" offset=".477" style="stop-color:#dfdfe1"/><stop id="stop22-5-4-2-8" offset=".725" style="stop-color:#d0d0d3"/><stop id="stop24-9-0-2-3" offset=".994" style="stop-color:#b8b8bc"/><stop id="stop26-7-8-7-5" offset="1" style="stop-color:#b7b7bb"/></radialGradient><clipPath id="clipPath13095-85-5-0-6" clipPathUnits="userSpaceOnUse"><polygon style="fill:none;stroke:none" id="polygon13097-3-1-3-5" points="62.988 57.737 61.966 58.573 62.607 59.726 61.49 60.427 61.983 61.649 60.786 62.204 61.121 63.481 59.863 63.882 60.037 65.191 58.739 65.43 58.746 66.75 57.43 66.826 57.271 68.136 55.955 68.044 55.634 69.325 54.34 69.069 53.86 70.3 52.608 69.884 51.979 71.045 50.789 70.476 50.02 71.548 48.909 70.834 48.011 71.802 47 70.953 45.988 71.802 45.09 70.834 43.98 71.548 43.211 70.476 42.02 71.045 41.391 69.884 40.138 70.3 39.66 69.069 38.365 69.325 38.044 68.044 36.729 68.136 36.57 66.826 35.253 66.75 35.261 65.43 33.963 65.191 34.136 63.882 32.878 63.481 33.215 62.204 32.017 61.649 32.51 60.427 31.392 59.726 32.035 58.573 31.012 57.737 31.793 56.674 30.884 55.719 31.793 54.762 31.012 53.699 32.035 52.864 31.392 51.711 32.51 51.011 32.017 49.786 33.215 49.232 32.878 47.956 34.136 47.555 33.963 46.247 35.261 46.007 35.253 44.687 36.57 44.613 36.729 43.302 38.044 43.393 38.365 42.112 39.66 42.367 40.138 41.137 41.391 41.552 42.02 40.393 43.211 40.961 43.98 39.889 45.09 40.603 45.988 39.636 47 40.482 47 40.482 48.011 39.636 48.909 40.603 50.02 39.889 50.789 40.961 51.979 40.393 52.608 41.552 53.86 41.137 54.34 42.367 55.634 42.112 55.955 43.393 57.271 43.302 57.43 44.613 58.746 44.687 58.739 46.007 60.037 46.247 59.863 47.555 61.121 47.956 60.786 49.232 61.983 49.786 61.49 51.011 62.607 51.711 61.966 52.864 62.988 53.699 62.205 54.762 63.113 55.719 62.205 56.674" transform="matrix(0.50336113,0,0,0.50434699,79.386145,47.604813)"/></clipPath><filter id="filter13123-3-6-4-9"><feGaussianBlur id="feGaussianBlur13125-8-6-6-9" stdDeviation=".592"/></filter><linearGradient id="linearGradient12146-4-2-5-6-7" x1="59.922" x2="72.286" y1="39.115" y2="95.153" gradientTransform="translate(-0.96554193,-21.513577)" gradientUnits="userSpaceOnUse" xlink:href="#linearGradient15046"/><filter id="filter15054-0-2-4-0-5" width="1.157" height="1.246" x="-.079" y="-.123"><feGaussianBlur id="feGaussianBlur15056-3-1-1-8-0" stdDeviation="1.194"/></filter><filter id="filter13703-7-7-5-0-8"><feGaussianBlur id="feGaussianBlur13705-8-5-4-4-0" stdDeviation=".745"/></filter><linearGradient id="linearGradient13089-8-1-1-1-4" x1="47.75" x2="47.081" y1="70.165" y2="38.964" gradientTransform="matrix(0.50336113,0,0,0.50434699,70.887794,39.350866)" gradientUnits="userSpaceOnUse" xlink:href="#XMLID_136_-6-7-5-1-1"/><radialGradient id="XMLID_136_-6-7-5-1-1" cx="85" cy="103.305" r="139.559" gradientTransform="translate(-72,-12)" gradientUnits="userSpaceOnUse"><stop id="stop6-0-4-5-3-1" offset="0" style="stop-color:#535557"/><stop id="stop8-4-1-4-5-3" offset=".03" style="stop-color:#6e7072"/><stop id="stop10-6-7-9-9-5" offset=".084" style="stop-color:#98999b"/><stop id="stop12-7-1-8-3-9" offset=".136" style="stop-color:#b9babc"/><stop id="stop14-6-1-3-4-3" offset=".186" style="stop-color:#d1d1d3"/><stop id="stop16-0-1-8-1-4" offset=".233" style="stop-color:#dfdfe1"/><stop id="stop18-9-7-5-5-1" offset=".272" style="stop-color:#e4e4e6"/><stop id="stop20-7-0-2-0-5" offset=".477" style="stop-color:#dfdfe1"/><stop id="stop22-5-4-2-8-0" offset=".725" style="stop-color:#d0d0d3"/><stop id="stop24-9-0-2-3-8" offset=".994" style="stop-color:#b8b8bc"/><stop id="stop26-7-8-7-5-3" offset="1" style="stop-color:#b7b7bb"/></radialGradient><clipPath id="clipPath13095-85-5-0-6-5" clipPathUnits="userSpaceOnUse"><polygon style="fill:none;stroke:none" id="polygon13097-3-1-3-5-6" points="62.205 56.674 62.988 57.737 61.966 58.573 62.607 59.726 61.49 60.427 61.983 61.649 60.786 62.204 61.121 63.481 59.863 63.882 60.037 65.191 58.739 65.43 58.746 66.75 57.43 66.826 57.271 68.136 55.955 68.044 55.634 69.325 54.34 69.069 53.86 70.3 52.608 69.884 51.979 71.045 50.789 70.476 50.02 71.548 48.909 70.834 48.011 71.802 47 70.953 45.988 71.802 45.09 70.834 43.98 71.548 43.211 70.476 42.02 71.045 41.391 69.884 40.138 70.3 39.66 69.069 38.365 69.325 38.044 68.044 36.729 68.136 36.57 66.826 35.253 66.75 35.261 65.43 33.963 65.191 34.136 63.882 32.878 63.481 33.215 62.204 32.017 61.649 32.51 60.427 31.392 59.726 32.035 58.573 31.012 57.737 31.793 56.674 30.884 55.719 31.793 54.762 31.012 53.699 32.035 52.864 31.392 51.711 32.51 51.011 32.017 49.786 33.215 49.232 32.878 47.956 34.136 47.555 33.963 46.247 35.261 46.007 35.253 44.687 36.57 44.613 36.729 43.302 38.044 43.393 38.365 42.112 39.66 42.367 40.138 41.137 41.391 41.552 42.02 40.393 43.211 40.961 43.98 39.889 45.09 40.603 45.988 39.636 47 40.482 47 40.482 48.011 39.636 48.909 40.603 50.02 39.889 50.789 40.961 51.979 40.393 52.608 41.552 53.86 41.137 54.34 42.367 55.634 42.112 55.955 43.393 57.271 43.302 57.43 44.613 58.746 44.687 58.739 46.007 60.037 46.247 59.863 47.555 61.121 47.956 60.786 49.232 61.983 49.786 61.49 51.011 62.607 51.711 61.966 52.864 62.988 53.699 62.205 54.762 63.113 55.719" transform="matrix(0.50336113,0,0,0.50434699,79.386145,47.604813)"/></clipPath><filter id="filter13123-3-6-4-9-5"><feGaussianBlur id="feGaussianBlur13125-8-6-6-9-9" stdDeviation=".592"/></filter></defs><metadata id="metadata4538"/><path style="fill:#2e2f31;fill-opacity:1;fill-rule:nonzero;stroke:none;stroke-width:.21998174" id="path25057" d="M 4.0136994e-8,-2.5108931e-6 H 23.812503 V 100.39611 H 4.0136994e-8 Z m 0,0"/><g style="font-style:normal;font-variant:normal;font-weight:500;font-stretch:normal;font-size:7.66842127px;line-height:125%;font-family:'Futura PT';-inkscape-font-specification:'Futura PT Medium';letter-spacing:0;word-spacing:0;opacity:.7;fill:#fff;fill-opacity:1;stroke:none;stroke-width:.95855266px;stroke-linecap:butt;stroke-linejoin:miter;stroke-opacity:1" id="text864" aria-label="MADE IN ITALY" transform="matrix(0.27602379,0,0,0.27602379,258.28496,-0.07331911)"><path style="font-style:normal;font-variant:normal;font-weight:500;font-stretch:normal;font-size:6.3903513px;font-family:'Futura PT';-inkscape-font-specification:'Futura PT Medium';fill:#fff;stroke-width:.95855266px" id="path5435" d="m -913.35319,359.03888 h 0.84353 l 0.43454,-2.62643 1.09275,2.62643 h 0.28118 l 1.14387,-2.62643 0.38342,2.62643 h 0.84353 l -0.71572,-4.26236 h -0.60069 l -1.18222,2.7095 -1.13109,-2.7095 h -0.60069 z"/><path style="font-style:normal;font-variant:normal;font-weight:500;font-stretch:normal;font-size:6.3903513px;font-family:'Futura PT';-inkscape-font-specification:'Futura PT Medium';fill:#fff;stroke-width:.95855266px" id="path5437" d="m -904.68058,359.03888 h 0.89465 l -1.78291,-4.26236 h -0.65182 l -1.83403,4.26236 h 0.90104 l 0.37703,-0.89465 h 1.71901 z m -1.83403,-1.57203 0.60708,-1.53368 0.60708,1.53368 z"/><path style="font-style:normal;font-variant:normal;font-weight:500;font-stretch:normal;font-size:6.3903513px;font-family:'Futura PT';-inkscape-font-specification:'Futura PT Medium';fill:#fff;stroke-width:.95855266px" id="path5439" d="m -903.28828,354.77652 v 4.26236 h 1.09914 c 0.5943,0 1.06079,-0.0575 1.55924,-0.40898 0.56235,-0.3962 0.85631,-1.00968 0.85631,-1.71901 0,-0.70933 -0.30035,-1.32919 -0.81797,-1.719 -0.47288,-0.35147 -0.9905,-0.41537 -1.5848,-0.41537 z m 0.83074,0.71571 h 0.25562 c 0.28117,0 0.70293,0.0256 1.04801,0.28118 0.33869,0.25561 0.52401,0.69016 0.52401,1.13748 0,0.45372 -0.19171,0.88826 -0.5304,1.13109 -0.37064,0.2684 -0.83074,0.28118 -1.04162,0.28118 h -0.25562 z"/><path style="font-style:normal;font-variant:normal;font-weight:500;font-stretch:normal;font-size:6.3903513px;font-family:'Futura PT';-inkscape-font-specification:'Futura PT Medium';fill:#fff;stroke-width:.95855266px" id="path5441" d="m -896.64282,354.77652 h -2.36443 v 4.26236 h 2.36443 v -0.71572 h -1.53368 v -1.16304 h 1.46978 v -0.71572 h -1.46978 v -0.95217 h 1.53368 z"/><path style="font-style:normal;font-variant:normal;font-weight:500;font-stretch:normal;font-size:6.3903513px;font-family:'Futura PT';-inkscape-font-specification:'Futura PT Medium';fill:#fff;stroke-width:.95855266px" id="path5443" d="m -894.35178,354.77652 v 4.26236 h 0.83075 v -4.26236 z"/><path style="font-style:normal;font-variant:normal;font-weight:500;font-stretch:normal;font-size:6.3903513px;font-family:'Futura PT';-inkscape-font-specification:'Futura PT Medium';fill:#fff;stroke-width:.95855266px" id="path5445" d="m -891.72374,359.03888 v -2.8501 l 2.59448,2.8501 h 0.57513 v -4.26236 h -0.83075 v 2.8437 l -2.59448,-2.8437 h -0.57513 v 4.26236 z"/><path style="font-style:normal;font-variant:normal;font-weight:500;font-stretch:normal;font-size:6.3903513px;font-family:'Futura PT';-inkscape-font-specification:'Futura PT Medium';fill:#fff;stroke-width:.95855266px" id="path5447" d="m -886.10173,354.77652 v 4.26236 h 0.83074 v -4.26236 z"/><path style="font-style:normal;font-variant:normal;font-weight:500;font-stretch:normal;font-size:6.3903513px;font-family:'Futura PT';-inkscape-font-specification:'Futura PT Medium';fill:#fff;stroke-width:.95855266px" id="path5449" d="m -882.00392,355.49223 v -0.71571 h -2.74785 v 0.71571 h 0.95855 v 3.54665 h 0.83075 v -3.54665 z"/><path style="font-style:normal;font-variant:normal;font-weight:500;font-stretch:normal;font-size:6.3903513px;font-family:'Futura PT';-inkscape-font-specification:'Futura PT Medium';fill:#fff;stroke-width:.95855266px" id="path5451" d="m -878.83211,359.03888 h 0.89465 l -1.78291,-4.26236 h -0.65182 l -1.83403,4.26236 h 0.90104 l 0.37703,-0.89465 h 1.71901 z m -1.83403,-1.57203 0.60708,-1.53368 0.60708,1.53368 z"/><path style="font-style:normal;font-variant:normal;font-weight:500;font-stretch:normal;font-size:6.3903513px;font-family:'Futura PT';-inkscape-font-specification:'Futura PT Medium';fill:#fff;stroke-width:.95855266px" id="path5453" d="m -877.43981,354.77652 v 4.26236 h 2.14715 v -0.71572 h -1.31641 v -3.54664 z"/><path style="font-style:normal;font-variant:normal;font-weight:500;font-stretch:normal;font-size:6.3903513px;font-family:'Futura PT';-inkscape-font-specification:'Futura PT Medium';fill:#fff;stroke-width:.95855266px" id="path5455" d="m -874.17834,359.03888 h 0.83075 v -1.94906 l 1.50173,-2.3133 h -0.98411 l -0.91382,1.48256 -0.91382,-1.48256 h -0.98412 l 1.46339,2.3133 z"/></g><g style="opacity:.7;fill:#fff;stroke-width:.91882312" id="g1736" transform="matrix(0.27602379,0,0,0.27602379,257.54108,2.5725145)"><g style="font-style:normal;font-variant:normal;font-weight:400;font-stretch:normal;font-size:12.78070068px;line-height:125%;font-family:'Squared Display';-inkscape-font-specification:'Squared Display';letter-spacing:0;word-spacing:0;fill:#fff;fill-opacity:1;stroke:none;stroke-width:.9585526px;stroke-linecap:butt;stroke-linejoin:miter;stroke-opacity:1" id="text4639-3" aria-label="sonus dept."><path style="font-style:normal;font-variant:normal;font-weight:500;font-stretch:normal;font-size:12.78070068px;font-family:'Futura PT';-inkscape-font-specification:'Futura PT Medium';fill:#fff;stroke-width:.9585526px" id="path5414" d="m -916.33104,336.95691 c -0.70294,-0.53679 -1.35475,-0.58791 -1.76374,-0.58791 -0.44732,0 -1.00967,0.0511 -1.44422,0.3962 -0.31951,0.26839 -0.57513,0.71572 -0.57513,1.25251 0,0.44732 0.16615,0.7924 0.42177,1.0608 0.33229,0.34507 0.7924,0.524 1.1886,0.66459 l 0.35786,0.12781 c 0.20449,0.0767 0.48567,0.21727 0.48567,0.56235 0,0.38342 -0.3323,0.60069 -0.76684,0.60069 -0.46011,0 -0.92022,-0.28117 -1.22695,-0.63903 l -0.81797,0.94577 c 0.34508,0.37064 0.9969,0.92021 2.14716,0.92021 0.67738,0 1.21417,-0.17893 1.66149,-0.58791 0.44733,-0.40898 0.61348,-0.90743 0.61348,-1.40588 0,-0.35786 -0.11503,-0.69016 -0.28118,-0.92021 -0.31952,-0.43454 -0.97133,-0.65182 -1.40588,-0.7924 l -0.37064,-0.11503 c -0.43454,-0.14059 -0.49844,-0.35786 -0.49844,-0.49845 0,-0.26839 0.23005,-0.44732 0.60069,-0.44732 0.16615,0 0.53679,0.0256 0.90743,0.37064 z"/><path style="font-style:normal;font-variant:normal;font-weight:500;font-stretch:normal;font-size:12.78070068px;font-family:'Futura PT';-inkscape-font-specification:'Futura PT Medium';fill:#fff;stroke-width:.9585526px" id="path5416" d="m -912.05849,336.369 c -1.04802,0 -1.76374,0.34508 -2.23662,0.77962 -0.54957,0.49845 -0.933,1.26529 -0.933,2.17272 0,0.89465 0.38343,1.66149 0.933,2.15994 0.47288,0.43454 1.1886,0.77962 2.23662,0.77962 1.04802,0 1.76374,-0.34508 2.23662,-0.77962 0.54957,-0.49845 0.93299,-1.26529 0.93299,-2.15994 0,-0.90743 -0.38342,-1.67427 -0.93299,-2.17272 -0.47288,-0.43454 -1.1886,-0.77962 -2.23662,-0.77962 z m 0,4.51158 c -0.90743,0 -1.55925,-0.71571 -1.55925,-1.55924 0,-0.86909 0.6646,-1.57203 1.55925,-1.57203 0.89465,0 1.55924,0.70294 1.55924,1.57203 0,0.84353 -0.65181,1.55924 -1.55924,1.55924 z"/><path style="font-style:normal;font-variant:normal;font-weight:500;font-stretch:normal;font-size:12.78070068px;font-family:'Futura PT';-inkscape-font-specification:'Futura PT Medium';fill:#fff;stroke-width:.9585526px" id="path5418" d="m -907.6829,342.08197 h 1.55925 v -2.82453 c 0,-0.31952 0.0128,-0.71572 0.24283,-1.07358 0.23005,-0.34508 0.54957,-0.48567 0.95855,-0.48567 0.15337,0 0.48567,0.0256 0.7285,0.28118 0.28118,0.29395 0.29396,0.77962 0.29396,1.08635 v 3.01625 h 1.55924 v -3.47635 c 0,-0.53679 -0.0511,-1.08636 -0.43454,-1.55925 -0.43454,-0.53679 -1.15026,-0.67737 -1.63593,-0.67737 -0.89465,0 -1.41866,0.48566 -1.71261,0.89465 v -0.71572 h -1.55925 z"/><path style="font-style:normal;font-variant:normal;font-weight:500;font-stretch:normal;font-size:12.78070068px;font-family:'Futura PT';-inkscape-font-specification:'Futura PT Medium';fill:#fff;stroke-width:.9585526px" id="path5420" d="m -900.86819,336.54793 v 3.38688 c 0,0.49845 0.0639,1.16305 0.67738,1.69984 0.51123,0.44732 1.32919,0.62625 2.00657,0.62625 0.67737,0 1.49534,-0.17893 2.00657,-0.62625 0.61347,-0.53679 0.67737,-1.20139 0.67737,-1.69984 v -3.38688 h -1.55924 v 3.13127 c 0,0.29395 -0.0256,0.69016 -0.3323,0.97133 -0.19171,0.16615 -0.49845,0.28118 -0.7924,0.28118 -0.29396,0 -0.6007,-0.11503 -0.79241,-0.28118 -0.30673,-0.28117 -0.33229,-0.67738 -0.33229,-0.97133 v -3.13127 z"/><path style="font-style:normal;font-variant:normal;font-weight:500;font-stretch:normal;font-size:12.78070068px;font-family:'Futura PT';-inkscape-font-specification:'Futura PT Medium';fill:#fff;stroke-width:.9585526px" id="path5422" d="m -890.24543,336.95691 c -0.70294,-0.53679 -1.35475,-0.58791 -1.76374,-0.58791 -0.44732,0 -1.00967,0.0511 -1.44422,0.3962 -0.31951,0.26839 -0.57513,0.71572 -0.57513,1.25251 0,0.44732 0.16615,0.7924 0.42177,1.0608 0.33229,0.34507 0.7924,0.524 1.1886,0.66459 l 0.35786,0.12781 c 0.20449,0.0767 0.48567,0.21727 0.48567,0.56235 0,0.38342 -0.3323,0.60069 -0.76685,0.60069 -0.4601,0 -0.92021,-0.28117 -1.22694,-0.63903 l -0.81797,0.94577 c 0.34508,0.37064 0.9969,0.92021 2.14716,0.92021 0.67738,0 1.21417,-0.17893 1.66149,-0.58791 0.44733,-0.40898 0.61348,-0.90743 0.61348,-1.40588 0,-0.35786 -0.11503,-0.69016 -0.28118,-0.92021 -0.31952,-0.43454 -0.97133,-0.65182 -1.40588,-0.7924 l -0.37064,-0.11503 c -0.43454,-0.14059 -0.49844,-0.35786 -0.49844,-0.49845 0,-0.26839 0.23005,-0.44732 0.60069,-0.44732 0.16615,0 0.53679,0.0256 0.90743,0.37064 z"/><path style="font-style:normal;font-variant:normal;font-weight:500;font-stretch:normal;font-size:12.78070068px;font-family:'Futura PT';-inkscape-font-specification:'Futura PT Medium';fill:#fff;stroke-width:.9585526px" id="path5424" d="m -881.64761,337.26365 c -0.52401,-0.81797 -1.35476,-0.89465 -1.77652,-0.89465 -1.63593,0 -2.74785,1.30363 -2.74785,2.93956 0,1.62315 1.1247,2.95234 2.82453,2.95234 0.3962,0 1.13748,-0.0895 1.69984,-0.89465 v 0.71572 h 1.55924 v -9.31713 h -1.55924 z m -1.38032,0.48566 c 0.89465,0 1.53368,0.67738 1.53368,1.55925 0,0.88187 -0.63903,1.57202 -1.53368,1.57202 -0.89465,0 -1.53368,-0.69015 -1.53368,-1.57202 0,-0.88187 0.63903,-1.55925 1.53368,-1.55925 z"/><path style="font-style:normal;font-variant:normal;font-weight:500;font-stretch:normal;font-size:12.78070068px;font-family:'Futura PT';-inkscape-font-specification:'Futura PT Medium';fill:#fff;stroke-width:.9585526px" id="path5426" d="m -874.60145,340.30545 c -0.25562,0.44733 -0.70294,0.7285 -1.29085,0.7285 -0.6007,0 -0.94578,-0.29395 -1.11193,-0.52401 -0.17893,-0.24283 -0.26839,-0.60069 -0.26839,-0.93299 h 4.14095 v -0.1278 c 0,-0.6007 -0.0767,-1.46978 -0.6646,-2.17272 -0.38342,-0.46011 -1.03524,-0.90743 -2.15994,-0.90743 -0.66459,0 -1.43144,0.14058 -2.08325,0.77962 -0.3962,0.3962 -0.84353,1.07358 -0.84353,2.17272 0,0.86909 0.25562,1.58481 0.86909,2.15994 0.54957,0.52401 1.22695,0.77962 2.1216,0.77962 1.92988,0 2.55614,-1.31641 2.72228,-1.72539 z m -2.62005,-1.72539 c 0.12781,-0.74128 0.7285,-1.11192 1.30363,-1.11192 0.57514,0 1.18861,0.35786 1.31642,1.11192 z"/><path style="font-style:normal;font-variant:normal;font-weight:500;font-stretch:normal;font-size:12.78070068px;font-family:'Futura PT';-inkscape-font-specification:'Futura PT Medium';fill:#fff;stroke-width:.9585526px" id="path5428" d="m -870.37763,341.36625 c 0.61347,0.83075 1.39309,0.89465 1.77652,0.89465 0.81796,0 1.457,-0.31952 1.87876,-0.71572 0.31952,-0.30674 0.86909,-0.98411 0.86909,-2.23662 0,-1.09914 -0.42177,-1.7893 -0.83075,-2.19828 -0.62625,-0.62626 -1.40588,-0.74128 -1.89154,-0.74128 -1.02246,0 -1.55925,0.54957 -1.80208,0.89465 v -0.71572 h -1.55925 v 8.46082 h 1.55925 z m 1.38031,-3.61694 c 0.37064,0 0.77963,0.14059 1.0608,0.3962 0.30674,0.29396 0.47289,0.75407 0.47289,1.16305 0,0.40898 -0.15337,0.86909 -0.48567,1.17582 -0.20449,0.19171 -0.53679,0.3962 -1.04802,0.3962 -0.48566,0 -0.81796,-0.19171 -1.02245,-0.37064 -0.30674,-0.26839 -0.51123,-0.69015 -0.51123,-1.20138 0,-0.51123 0.17893,-0.89465 0.52401,-1.18861 0.28117,-0.25561 0.60069,-0.37064 1.00967,-0.37064 z"/><path style="font-style:normal;font-variant:normal;font-weight:500;font-stretch:normal;font-size:12.78070068px;font-family:'Futura PT';-inkscape-font-specification:'Futura PT Medium';fill:#fff;stroke-width:.9585526px" id="path5430" d="m -862.01506,337.87712 v -1.32919 h -1.07358 v -1.89155 h -1.55924 v 1.89155 h -0.61348 v 1.32919 h 0.61348 v 4.20485 h 1.55924 v -4.20485 z"/><path style="font-style:normal;font-variant:normal;font-weight:500;font-stretch:normal;font-size:12.78070068px;font-family:'Futura PT';-inkscape-font-specification:'Futura PT Medium';fill:#fff;stroke-width:.9585526px" id="path5432" d="m -861.33089,341.25122 c 0,0.56236 0.43454,0.9969 0.99689,0.9969 0.56235,0 0.9969,-0.43454 0.9969,-0.9969 0,-0.56235 -0.43455,-0.99689 -0.9969,-0.99689 -0.56235,0 -0.99689,0.43454 -0.99689,0.99689 z"/></g></g><path style="opacity:.9;fill:#ff2a2a;fill-opacity:1;fill-rule:nonzero;stroke:none;stroke-width:.27081186" id="path25247" d="m 21.298961,69.342656 c 0,-0.425592 -0.406368,-0.773324 -0.902206,-0.773324 H 13.46991 c -0.495838,0 -0.9022,0.347732 -0.9022,0.773324 v 9.035617 c 0,0.425596 0.406362,0.77439 0.9022,0.77439 h 6.926845 c 0.495838,0 0.902206,-0.348794 0.902206,-0.77439 z m 0,0"/><path style="opacity:.9;fill:#212121;fill-opacity:1;fill-rule:nonzero;stroke:none;stroke-width:.27081186" id="path25259" d="m 11.244794,69.342654 c 0,-0.425594 -0.406365,-0.773323 -0.902203,-0.773323 H 3.4145033 c -0.4958381,0 -0.9009609,0.347729 -0.9009609,0.773323 v 9.035619 c 0,0.425596 0.4051228,0.774391 0.9009609,0.774391 h 6.9280877 c 0.495838,0 0.902203,-0.348795 0.902203,-0.774391 z m 0,0"/><g id="text1673" aria-label="LEFT" transform="translate(0.13229235,52.803839)" style="font-style:normal;font-variant:normal;font-weight:400;font-stretch:normal;font-size:2.46944451px;line-height:125%;font-family:Akashi;-inkscape-font-specification:Akashi;letter-spacing:0;word-spacing:0;fill:#fff;fill-opacity:1;stroke:none;stroke-width:.26458335px;stroke-linecap:butt;stroke-linejoin:miter;stroke-opacity:1"><path id="path1733" d="M 5.1190682,29.535915 H 4.1544415 q -0.2411567,0 -0.2411567,-0.241156 V 27.72724 h 0.361735 v 1.44694 h 0.8440484 z" style="fill:#fff;stroke-width:.26458335px"/><path id="path1735" d="m 5.72196,28.812445 v 0.361735 h 0.8440484 v 0.361735 H 5.6013817 q -0.2411567,0 -0.2411567,-0.241156 v -1.326362 q 0,-0.241157 0.2411567,-0.241157 h 0.9646267 v 0.361735 H 5.72196 V 28.45071 H 6.2042734 L 6.083695,28.812445 Z" style="fill:#fff;stroke-width:.26458335px"/><path id="path1737" d="m 7.1689002,28.812445 v 0.72347 H 6.8071651 v -1.567518 q 0,-0.241157 0.2411567,-0.241157 h 0.9646268 v 0.361735 H 7.1689002 v 0.361735 h 0.4823134 l -0.1205784,0.361735 z" style="fill:#fff;stroke-width:.26458335px"/><path id="path1739" d="m 9.5804669,27.72724 v 0.361735 H 9.0981535 v 1.44694 h -0.361735 v -1.44694 H 8.2541051 V 27.72724 Z" style="fill:#fff;stroke-width:.26458335px"/></g><g id="text1685" aria-label="RIGHT" transform="translate(0.1322975,52.803839)" style="font-style:normal;font-variant:normal;font-weight:400;font-stretch:normal;font-size:2.46944451px;line-height:125%;font-family:Akashi;-inkscape-font-specification:Akashi;letter-spacing:0;word-spacing:0;fill:#fff;fill-opacity:1;stroke:none;stroke-width:.26458335px;stroke-linecap:butt;stroke-linejoin:miter;stroke-opacity:1"><path id="path1758" d="m 14.46423,28.826733 0.289388,0.72347 h -0.361735 l -0.302652,-0.72347 h -0.42323 v 0.72347 h -0.361735 v -1.567518 q 0,-0.241157 0.241157,-0.241157 h 0.964626 q 0.241157,0 0.241157,0.241157 v 0.602892 q 0,0.241156 -0.241157,0.241156 z M 14.38947,28.464998 V 28.103263 H 13.666 v 0.361735 z" style="fill:#fff;stroke-width:.26458335px"/><path id="path1760" d="m 15.354098,27.741528 v 1.808675 h -0.361735 v -1.808675 z" style="fill:#fff;stroke-width:.26458335px"/><path id="path1762" d="m 16.801038,28.464998 q 0.241157,0 0.241157,0.241157 v 0.602892 q 0,0.241156 -0.241157,0.241156 h -0.964627 q -0.241156,0 -0.241156,-0.241156 v -1.326362 q 0,-0.241157 0.241156,-0.241157 h 1.205784 v 0.361735 H 15.95699 v 1.085205 h 0.72347 v -0.361735 h -0.481108 l 0.120579,-0.361735 z" style="fill:#fff;stroke-width:.26458335px"/><path id="path1764" d="m 17.645086,27.741528 v 0.72347 h 0.723471 v -0.72347 h 0.361735 v 1.808675 h -0.361735 v -0.72347 h -0.723471 v 0.72347 h -0.361735 v -1.808675 z" style="fill:#fff;stroke-width:.26458335px"/><path id="path1766" d="m 20.29781,27.741528 v 0.361735 h -0.482313 v 1.44694 h -0.361735 v -1.44694 h -0.482314 v -0.361735 z" style="fill:#fff;stroke-width:.26458335px"/></g><g style="font-style:normal;font-variant:normal;font-weight:400;font-stretch:normal;font-size:3.52777791px;line-height:125%;font-family:Akashi;-inkscape-font-specification:Akashi;letter-spacing:0;word-spacing:0;fill:#fff;fill-opacity:1;stroke:none;stroke-width:.26458335px;stroke-linecap:butt;stroke-linejoin:miter;stroke-opacity:1" id="text10450" aria-label="PITH"><path style="fill:#fff;stroke-width:.26458335px" id="path16905" d="m 8.1166468,3.9642611 q 0,-0.3445096 0.3445095,-0.3445096 h 1.3780383 q 0.3445094,0 0.3445094,0.3445096 v 1.2057834 q 0,0.3445096 -0.3445094,0.3445096 H 8.8056659 L 8.9779207,4.9977898 H 9.6669398 V 4.1365159 H 8.6334111 V 6.2035732 H 8.1166468 Z"/><path style="fill:#fff;stroke-width:.26458335px" id="path16907" d="M 11.044978,3.6197515 V 6.2035732 H 10.528214 V 3.6197515 Z"/><path style="fill:#fff;stroke-width:.26458335px" id="path16909" d="M 13.28429,3.6197515 V 4.1365159 H 12.595271 V 6.2035732 H 12.078507 V 4.1365159 H 11.389488 V 3.6197515 Z"/><path style="fill:#fff;stroke-width:.26458335px" id="path16911" d="m 14.145564,3.6197515 v 1.0335287 h 1.033529 V 3.6197515 h 0.516764 V 6.2035732 H 15.179093 V 5.1700445 H 14.145564 V 6.2035732 H 13.6288 V 3.6197515 Z"/></g><path id="path25259-1" d="m 16.271872,16.502786 c 0,-0.425594 -0.406362,-0.773323 -0.902184,-0.773323 H 8.4416006 c -0.4958491,0 -0.9009693,0.347729 -0.9009693,0.773323 v 9.035618 c 0,0.425597 0.4051202,0.774392 0.9009693,0.774392 h 6.9280874 c 0.495822,0 0.902184,-0.348795 0.902184,-0.774392 z m 0,0" style="opacity:.9;fill:#e3dbdb;fill-opacity:1;fill-rule:nonzero;stroke:none;stroke-width:.27081186"/><g style="font-style:normal;font-variant:normal;font-weight:400;font-stretch:normal;font-size:2.46944451px;line-height:125%;font-family:Akashi;-inkscape-font-specification:Akashi;letter-spacing:0;word-spacing:0;fill:#fff;fill-opacity:1;stroke:none;stroke-width:.26458335px;stroke-linecap:butt;stroke-linejoin:miter;stroke-opacity:1" id="text12255" aria-label="IN"><path style="font-size:2.46944451px;fill:#fff;stroke-width:.26458335px" id="path16900" d="m 11.242468,27.667737 v 1.808675 h -0.361735 v -1.808675 z"/><path style="font-size:2.46944451px;fill:#fff;stroke-width:.26458335px" id="path16902" d="m 11.483624,29.476412 v -1.568724 q 0,-0.241157 0.241157,-0.241157 h 0.965833 q 0.241156,0 0.241156,0.241157 v 1.568724 h -0.361735 l -0.0012,-1.448146 h -0.72347 v 1.448146 z"/></g><g style="font-style:normal;font-variant:normal;font-weight:400;font-stretch:normal;font-size:2.46944451px;line-height:125%;font-family:Akashi;-inkscape-font-specification:Akashi;letter-spacing:0;word-spacing:0;fill:#fff;fill-opacity:1;stroke:none;stroke-width:.26458335px;stroke-linecap:butt;stroke-linejoin:miter;stroke-opacity:1" id="text12259" aria-label="OUT"><path style="fill:#fff;stroke-width:.26458335px" id="path16925" d="m 16.028998,84.279946 q 0,0.241157 -0.241157,0.241157 h -0.964626 q -0.241157,0 -0.241157,-0.241157 v -1.326362 q 0,-0.241156 0.241157,-0.241156 h 0.964626 q 0.241157,0 0.241157,0.241156 z m -1.085205,-1.205783 v 1.085205 h 0.72347 v -1.085205 z"/><path style="fill:#fff;stroke-width:.26458335px" id="path16927" d="m 16.63189,82.712428 v 1.44694 h 0.72347 l 0.0012,-1.44694 h 0.361735 v 1.567518 q 0,0.241157 -0.241157,0.241157 h -0.965832 q -0.241157,0 -0.241157,-0.241157 v -1.567518 z"/><path style="fill:#fff;stroke-width:.26458335px" id="path16929" d="m 19.284614,82.712428 v 0.361735 H 18.8023 v 1.44694 h -0.361735 v -1.44694 h -0.482313 v -0.361735 z"/></g><g style="font-style:normal;font-variant:normal;font-weight:400;font-stretch:normal;font-size:2.46944451px;line-height:125%;font-family:Akashi;-inkscape-font-specification:Akashi;letter-spacing:0;word-spacing:0;fill:#fff;fill-opacity:1;stroke:none;stroke-width:.26458335px;stroke-linecap:butt;stroke-linejoin:miter;stroke-opacity:1" id="text12259-0" aria-label="OUT"><path style="fill:#fff;stroke-width:.26458335px" id="path16932" d="m 5.9748303,84.279946 q 0,0.241157 -0.2411566,0.241157 H 4.7690469 q -0.2411567,0 -0.2411567,-0.241157 v -1.326362 q 0,-0.241156 0.2411567,-0.241156 h 0.9646268 q 0.2411566,0 0.2411566,0.241156 z M 4.8896252,83.074163 v 1.085205 h 0.7234701 v -1.085205 z"/><path style="fill:#fff;stroke-width:.26458335px" id="path16934" d="m 6.5777221,82.712428 v 1.44694 h 0.7234701 l 0.00121,-1.44694 h 0.361735 v 1.567518 q 0,0.241157 -0.2411567,0.241157 H 6.4571438 q -0.2411567,0 -0.2411567,-0.241157 v -1.567518 z"/><path style="fill:#fff;stroke-width:.26458335px" id="path16936" d="m 9.2304458,82.712428 v 0.361735 H 8.7481324 v 1.44694 H 8.3863973 v -1.44694 H 7.904084 v -0.361735 z"/></g><g style="font-style:normal;font-variant:normal;font-weight:400;font-stretch:normal;font-size:2.46944451px;line-height:125%;font-family:Akashi;-inkscape-font-specification:Akashi;letter-spacing:0;word-spacing:0;fill:#fff;fill-opacity:1;stroke:none;stroke-width:.26458335px;stroke-linecap:butt;stroke-linejoin:miter;stroke-opacity:1" id="text12285" aria-label="DELAY"><path style="fill:#fff;stroke-width:.26458335px" id="path16914" d="m 8.1222,59.220112 v -1.808675 h 1.2069892 q 0.2411567,0 0.2411567,0.241156 l -0.00121,1.326362 q 0,0.241157 -0.2411567,0.241157 z M 9.2074051,57.774377 H 8.483935 v 1.084 h 0.7234701 z"/><path style="fill:#fff;stroke-width:.26458335px" id="path16916" d="m 10.172032,58.496642 v 0.361735 h 0.844048 v 0.361735 h -0.964626 q -0.2411571,0 -0.2411571,-0.241157 v -1.326362 q 0,-0.241156 0.2411571,-0.241156 h 0.964626 v 0.361735 h -0.844048 v 0.361735 h 0.482313 l -0.120578,0.361735 z"/><path style="fill:#fff;stroke-width:.26458335px" id="path16918" d="m 12.46302,59.220112 h -0.964626 q -0.241157,0 -0.241157,-0.241157 v -1.567518 h 0.361735 v 1.44694 h 0.844048 z"/><path style="fill:#fff;stroke-width:.26458335px" id="path16920" d="m 12.704177,59.220112 v -1.568724 q 0,-0.241157 0.241157,-0.241157 h 0.964627 q 0.241157,0 0.241157,0.241157 v 1.568724 h -0.361736 v -0.483519 h -0.72347 v 0.483519 z m 1.085205,-1.448146 h -0.72347 v 0.602892 h 0.72347 z"/><path style="fill:#fff;stroke-width:.26458335px" id="path16922" d="m 15.839214,58.977749 q 0,0.241157 -0.241157,0.241157 h -0.964626 l 0.120578,-0.361735 h 0.72347 v -0.120578 h -0.844048 q -0.241157,0 -0.241157,-0.241157 v -1.085205 h 0.361735 v 0.964627 h 0.72347 v -0.964627 h 0.362941 z"/></g></svg>