<svg xmlns="http://www.w3.org/2000/svg" xmlns:svg="http://www.w3.org/2000/svg" id="svg8" width="90" height="380" version="1.1" viewBox="0 0 90 380"><metadata id="metadata29"/><title id="title2">MyModule</title><path style="opacity:1;vector-effect:none;fill:#44423e;fill-opacity:1;fill-rule:evenodd;stroke:none;stroke-width:1.83711767;stroke-linecap:butt;stroke-linejoin:round;stroke-miterlimit:4;stroke-dasharray:none;stroke-dashoffset:0;stroke-opacity:1;paint-order:normal" id="rect817" d="M 0,1.4017578e-5 H 90 V 380.00003 H 0 Z"/><g id="g1661" data-name="Layer 2" transform="matrix(7.9299111,0,0,7.9299111,-430.58996,-2669.2158)" style="fill:#3c3835;fill-opacity:1"><g id="g1659" data-name="Layer 1-2" style="fill:#3c3835;fill-opacity:1"><path style="fill:#3c3835;fill-opacity:1" id="path1657" d="m 71.31,357 a 0.91,0.91 0 0 0 -0.41,-0.53 0.77,0.77 0 0 0 -0.64,-0.1 0.91,0.91 0 0 0 -0.53,0.41 43.94,43.94 0 0 1 -3.33,5.08 21.5,21.5 0 0 1 -2.08,-6.45 v -0.39 l 2,-2.81 c 0.24,-0.34 1.26,-1.56 -0.78,-2.45 a 3.15,3.15 0 0 0 -2.36,0.07 c -2.32,1 -1.92,4.26 -1.85,4.79 q 0,0.31 0.09,0.62 l -3.78,6.22 c 0,0 0.49,-3.26 0.58,-3.85 A 1.36,1.36 0 0 0 57.1,356 c -1,-0.24 -1.61,0.06 -2.27,2.65 -0.56,2.19 -2.54,7.64 -3.86,7.6 -0.78,0 -0.24,-3.41 0.68,-5.87 1.12,-2.95 3.78,-7 6.78,-8.83 0.69,-0.43 1.6,-1.5 0.66,-2.56 -1.19,-1.34 -2.46,-0.28 -3,0.13 a 14.68,14.68 0 0 0 -3.49,4.35 22.82,22.82 0 0 0 -2.81,6.33 c -1,3.25 -2.07,8.54 0.1,8.74 3,0.27 5.39,-5.56 5.39,-5.56 0,0 -0.13,3.05 1.4,3.13 1.53,0.08 4.51,-5.9 5.36,-7.92 a 22.36,22.36 0 0 0 2.5,5.55 2.87,2.87 0 0 1 0.14,0.39 c -0.34,0.47 -3.77,4.86 -4.77,7.5 a 0.82,0.82 0 0 0 0,0.72 0.79,0.79 0 0 0 0.5,0.42 1.12,1.12 0 0 0 0.74,-0.12 5.53,5.53 0 0 0 0.66,-0.35 c 4.83,-2.78 5.52,-6 5.17,-8.48 a 2.08,2.08 0 0 1 0.26,-0.4 42.2,42.2 0 0 0 3.89,-5.77 0.76,0.76 0 0 0 0.18,-0.65 z" class="cls-4"/></g></g><rect style="opacity:1;vector-effect:none;fill:#3c3835;fill-opacity:1;stroke:none;stroke-width:.84323591;stroke-linecap:butt;stroke-linejoin:miter;stroke-miterlimit:4;stroke-dasharray:none;stroke-dashoffset:0;stroke-opacity:1" id="rect1759" width="90" height="15" x="0" y="365"/><rect id="rect1806" width="90" height="15" x="0" y="0" style="opacity:1;vector-effect:none;fill:#3c3835;fill-opacity:1;stroke:none;stroke-width:.84323591;stroke-linecap:butt;stroke-linejoin:miter;stroke-miterlimit:4;stroke-dasharray:none;stroke-dashoffset:0;stroke-opacity:1"/><g id="g850"><rect id="rect861" width="18.898" height="9.449" x="13.243" y="2.803" ry="5.263" style="opacity:1;vector-effect:none;fill:#251e1e;fill-opacity:1;stroke:none;stroke-width:.57401633;stroke-linecap:butt;stroke-linejoin:miter;stroke-miterlimit:4;stroke-dasharray:none;stroke-dashoffset:0;stroke-opacity:1"/><rect style="opacity:1;vector-effect:none;fill:#251e1e;fill-opacity:1;stroke:none;stroke-width:.57401633;stroke-linecap:butt;stroke-linejoin:miter;stroke-miterlimit:4;stroke-dasharray:none;stroke-dashoffset:0;stroke-opacity:1" id="rect863" width="18.898" height="9.449" x="13.243" y="368.284" ry="5.263"/><rect style="opacity:1;vector-effect:none;fill:#251e1e;fill-opacity:1;stroke:none;stroke-width:.57401633;stroke-linecap:butt;stroke-linejoin:miter;stroke-miterlimit:4;stroke-dasharray:none;stroke-dashoffset:0;stroke-opacity:1" id="rect1497" width="18.898" height="9.449" x="59.243" y="2.803" ry="5.263"/><rect id="rect1499" width="18.898" height="9.449" x="59.243" y="368.284" ry="5.263" style="opacity:1;vector-effect:none;fill:#251e1e;fill-opacity:1;stroke:none;stroke-width:.57401633;stroke-linecap:butt;stroke-linejoin:miter;stroke-miterlimit:4;stroke-dasharray:none;stroke-dashoffset:0;stroke-opacity:1"/></g><circle style="opacity:1;vector-effect:none;fill:#3c3835;fill-opacity:1;stroke:none;stroke-width:.74390346;stroke-linecap:butt;stroke-linejoin:miter;stroke-miterlimit:4;stroke-dasharray:none;stroke-dashoffset:0;stroke-opacity:1" id="path1686" cx="45" cy="359.882" r="15.118"/><g style="fill:#fff7d4;fill-opacity:1" id="Layer_2-2" data-name="Layer 2" transform="matrix(0.66602928,0,0,0.66602928,5.0554325,118.99296)"><g style="fill:#fff7d4;fill-opacity:1" id="Layer_1-2-6" data-name="Layer 1-2"><path id="path8-4-6" d="m 71.31,357 a 0.91,0.91 0 0 0 -0.41,-0.53 0.77,0.77 0 0 0 -0.64,-0.1 0.91,0.91 0 0 0 -0.53,0.41 43.94,43.94 0 0 1 -3.33,5.08 21.5,21.5 0 0 1 -2.08,-6.45 v -0.39 l 2,-2.81 c 0.24,-0.34 1.26,-1.56 -0.78,-2.45 a 3.15,3.15 0 0 0 -2.36,0.07 c -2.32,1 -1.92,4.26 -1.85,4.79 q 0,0.31 0.09,0.62 l -3.78,6.22 c 0,0 0.49,-3.26 0.58,-3.85 A 1.36,1.36 0 0 0 57.1,356 c -1,-0.24 -1.61,0.06 -2.27,2.65 -0.56,2.19 -2.54,7.64 -3.86,7.6 -0.78,0 -0.24,-3.41 0.68,-5.87 1.12,-2.95 3.78,-7 6.78,-8.83 0.69,-0.43 1.6,-1.5 0.66,-2.56 -1.19,-1.34 -2.46,-0.28 -3,0.13 a 14.68,14.68 0 0 0 -3.49,4.35 22.82,22.82 0 0 0 -2.81,6.33 c -1,3.25 -2.07,8.54 0.1,8.74 3,0.27 5.39,-5.56 5.39,-5.56 0,0 -0.13,3.05 1.4,3.13 1.53,0.08 4.51,-5.9 5.36,-7.92 a 22.36,22.36 0 0 0 2.5,5.55 2.87,2.87 0 0 1 0.14,0.39 c -0.34,0.47 -3.77,4.86 -4.77,7.5 a 0.82,0.82 0 0 0 0,0.72 0.79,0.79 0 0 0 0.5,0.42 1.12,1.12 0 0 0 0.74,-0.12 5.53,5.53 0 0 0 0.66,-0.35 c 4.83,-2.78 5.52,-6 5.17,-8.48 a 2.08,2.08 0 0 1 0.26,-0.4 42.2,42.2 0 0 0 3.89,-5.77 0.76,0.76 0 0 0 0.18,-0.65 z" class="cls-4" style="fill:#fff7d4;fill-opacity:1"/></g></g></svg>