<svg xmlns="http://www.w3.org/2000/svg" xmlns:svg="http://www.w3.org/2000/svg" id="svg873" width="50" height="50" version="1.1" viewBox="0 0 13.229 13.229"><metadata id="metadata870"/><g id="layer1" transform="translate(0,-283.77083)"><path style="fill:#147cc0;fill-opacity:1;stroke:none;stroke-width:.06128326;stroke-miterlimit:4;stroke-dasharray:none;stroke-dashoffset:0;stroke-opacity:1" id="rect818" d="M 0.86300599,289.04326 H 12.331426 v 2.54581 H 0.86300599 Z"/><path style="fill:#147cc0;fill-opacity:1;stroke:none;stroke-width:.10600913;stroke-miterlimit:4;stroke-dasharray:none;stroke-dashoffset:0;stroke-opacity:1" id="ellipse820" d="m 12.33271,291.58632 a 5.7443254,2.2583117 0 0 1 -5.7443256,2.25831 5.7443254,2.2583117 0 0 1 -5.7443253,-2.25831 5.7443254,2.2583117 0 0 1 5.7443253,-2.25831 5.7443254,2.2583117 0 0 1 5.7443256,2.25831 z"/><path style="fill:#147cc0;fill-opacity:1;stroke:none;stroke-width:.10600913;stroke-miterlimit:4;stroke-dasharray:none;stroke-dashoffset:0;stroke-opacity:1" id="path1418" d="m 12.33271,289.3124 a 5.7443254,2.2583117 0 0 1 -5.7443256,2.25831 5.7443254,2.2583117 0 0 1 -5.7443253,-2.25831 5.7443254,2.2583117 0 0 1 5.7443253,-2.25831 5.7443254,2.2583117 0 0 1 5.7443256,2.25831 z"/><path style="fill:#1423c0;fill-opacity:1;stroke:none;stroke-width:.02697146;stroke-miterlimit:4;stroke-dasharray:none;stroke-dashoffset:0;stroke-opacity:1" id="ellipse1424" d="m 11.015993,289.34194 a 4.4830923,1.453452 0 0 1 -4.4830934,1.45345 4.4830923,1.453452 0 0 1 -4.4830919,-1.45345 4.4830923,1.453452 0 0 1 4.4830919,-1.45346 4.4830923,1.453452 0 0 1 4.4830934,1.45346 z"/></g></svg>