<svg xmlns="http://www.w3.org/2000/svg" xmlns:svg="http://www.w3.org/2000/svg" id="svg7595" width="18" height="18" version="1.1" viewBox="0 0 4.762 4.762"><defs id="defs7589"><clipPath id="clip444"><path id="path24586" d="m 1201.582,338.19922 h 18 v 18 h -18 z m 0,0"/></clipPath></defs><metadata id="metadata7592"/><g id="layer1" transform="translate(-46.755712,-67.833036)"><g style="font-style:normal;font-variant:normal;font-weight:400;font-stretch:normal;font-size:2.60581565px;line-height:1.25;font-family:monospace;-inkscape-font-specification:'monospace, Normal';font-variant-ligatures:normal;font-variant-caps:normal;font-variant-numeric:normal;font-feature-settings:normal;text-align:start;letter-spacing:0;word-spacing:0;writing-mode:lr-tb;text-anchor:start;fill:#1996fc;fill-opacity:1;stroke:none;stroke-width:.26458332" id="text4789" aria-label="RND" transform="translate(0,0.52916665)"><path style="font-style:normal;font-variant:normal;font-weight:400;font-stretch:normal;font-size:2.60581565px;font-family:monospace;-inkscape-font-specification:'monospace, Normal';font-variant-ligatures:normal;font-variant-caps:normal;font-variant-numeric:normal;font-feature-settings:normal;text-align:start;writing-mode:lr-tb;text-anchor:start;fill:#1996fc;fill-opacity:1;stroke-width:.26458332" id="path4826" d="m 47.805488,70.234334 q 0.09925,0.02545 0.169225,0.0967 0.06998,0.06998 0.174315,0.281194 l 0.258291,0.519127 h -0.276104 l -0.226482,-0.479684 q -0.09797,-0.204851 -0.17686,-0.26338 -0.07762,-0.0598 -0.203579,-0.0598 h -0.245568 v 0.802866 h -0.258291 v -1.89965 h 0.529306 q 0.313003,0 0.479684,0.141234 0.16668,0.141233 0.16668,0.408431 0,0.188311 -0.103062,0.307914 -0.101789,0.11833 -0.287555,0.14505 z m -0.526762,-0.791415 v 0.674357 h 0.281194 q 0.184494,0 0.274832,-0.0827 0.09034,-0.08271 0.09034,-0.253202 0,-0.164136 -0.0967,-0.250657 -0.09543,-0.08779 -0.278649,-0.08779 z"/><path style="font-style:normal;font-variant:normal;font-weight:400;font-stretch:normal;font-size:2.60581565px;font-family:monospace;-inkscape-font-specification:'monospace, Normal';font-variant-ligatures:normal;font-variant-caps:normal;font-variant-numeric:normal;font-feature-settings:normal;text-align:start;writing-mode:lr-tb;text-anchor:start;fill:#1996fc;fill-opacity:1;stroke-width:.26458332" id="path4828" d="m 48.582906,69.231705 h 0.325727 l 0.641275,1.563744 v -1.563744 h 0.248113 v 1.89965 h -0.325727 l -0.641275,-1.563744 v 1.563744 h -0.248113 z"/><path style="font-style:normal;font-variant:normal;font-weight:400;font-stretch:normal;font-size:2.60581565px;font-family:monospace;-inkscape-font-specification:'monospace, Normal';font-variant-ligatures:normal;font-variant-caps:normal;font-variant-numeric:normal;font-feature-settings:normal;text-align:start;writing-mode:lr-tb;text-anchor:start;fill:#1996fc;fill-opacity:1;stroke-width:.26458332" id="path4830" d="m 50.528362,70.920142 q 0.324454,0 0.452964,-0.159047 0.128509,-0.160318 0.128509,-0.577656 0,-0.421155 -0.128509,-0.580201 -0.127238,-0.160319 -0.452964,-0.160319 h -0.122148 v 1.477223 z m 0.0051,-1.688437 q 0.435151,0 0.641275,0.231572 0.206124,0.231572 0.206124,0.720162 0,0.486046 -0.206124,0.717617 -0.206124,0.230299 -0.641275,0.230299 h -0.385528 v -1.89965 z"/></g></g></svg>