<svg xmlns="http://www.w3.org/2000/svg" xmlns:svg="http://www.w3.org/2000/svg" id="svg6414" width="26" height="26" version="1.1" viewBox="0 0 6.879 6.879"><defs id="defs6408"><clipPath id="clip82"><path id="path22604" d="m 979.55859,272.09375 h 26.63281 v 27.13281 h -26.63281 z m 0,0"/></clipPath><clipPath id="clip83"><path id="path22607" d="m 992,272.09375 h 2 V 287 h -2 z m 0,0"/></clipPath></defs><metadata id="metadata6411"/><g id="layer1" transform="translate(-36.542344,-107.74599)"><path id="path28547" d="m 42.964642,111.86853 c -0.377046,1.64612 -2.018011,2.67649 -3.665272,2.29953 -1.647259,-0.37694 -2.67691,-2.01771 -2.299879,-3.66472 0.377029,-1.64702 2.018005,-2.67649 3.665265,-2.29955 1.647252,0.37697 2.676013,2.01772 2.299886,3.66474" style="clip-rule:nonzero;fill:#fff;fill-opacity:1;fill-rule:nonzero;stroke:#1996fc;stroke-width:.22979134;stroke-opacity:1"/><path id="path28549" d="m 42.964644,111.86796 c -0.377046,1.64611 -2.018012,2.67651 -3.665273,2.29955 -1.647257,-0.37698 -2.67691,-2.01772 -2.299878,-3.66473 0.377029,-1.64702 2.018005,-2.67651 3.665264,-2.29953 1.647253,0.37696 2.676015,2.01769 2.299887,3.66471" style="clip-rule:nonzero;fill:#fff;fill-opacity:1;fill-rule:nonzero;stroke:#1996fc;stroke-width:.22979134;stroke-opacity:1"/><g id="g28555" clip-path="url(#clip83)" transform="matrix(0.22980834,0,0,0.22977429,-188.18936,45.490677)" style="clip-rule:nonzero;stroke:#1996fc;stroke-opacity:1"><path style="fill:none;stroke:#1996fc;stroke-width:1;stroke-linecap:round;stroke-linejoin:round;stroke-miterlimit:10;stroke-opacity:1" id="path28553" d="M -0.0011146,-0.0015175 V 13.314889" transform="translate(992.87612,272.59527)"/></g></g></svg>