<svg xmlns="http://www.w3.org/2000/svg" xmlns:svg="http://www.w3.org/2000/svg" xmlns:xlink="http://www.w3.org/1999/xlink" id="Layer_1" width="30" height="30" x="0" y="0" enable-background="new 0 0 35 35" version="1.1" viewBox="0 0 30 30" xml:space="preserve"><metadata id="metadata3526"/><rect id="rect3452" width="25.291" height="25.291" x="2.323" y="2.386" style="fill:#e6e6e6"/><g id="g3454" transform="matrix(0.72261129,0,0,0.72261129,2.3229862,2.385686)"><defs id="defs3456"><rect id="SVGID_1_" width="35" height="35" x="0" y="0"/></defs><clipPath id="SVGID_2_"><use id="use3460" width="100%" height="100%" x="0" y="0" overflow="visible" xlink:href="#SVGID_1_" style="overflow:visible"/></clipPath><path id="path3462" d="m 34.75,17.5 c 0,9.526 -7.723,17.25 -17.25,17.25 C 7.973,34.75 0.25,27.026 0.25,17.5 0.25,7.973 7.973,0.25 17.5,0.25 c 9.527,0 17.25,7.724 17.25,17.25" clip-path="url(#SVGID_2_)" style="fill:#2d2a2b"/></g><g id="g3464" transform="matrix(0.72261129,0,0,0.72261129,2.3229862,2.385686)"><defs id="defs3466"><rect id="SVGID_3_" width="35" height="35" x="0" y="0"/></defs><clipPath id="SVGID_4_"><use id="use3470" width="100%" height="100%" x="0" y="0" overflow="visible" xlink:href="#SVGID_3_" style="overflow:visible"/></clipPath><path id="path3472" d="M 5.793,8.755 1.63,23.596 c 2.452,6.377 8.629,10.904 15.871,10.904 7.227,0 13.396,-4.513 15.855,-10.871 L 29.108,8.428 5.793,8.755 Z" clip-path="url(#SVGID_4_)" style="fill:#141414"/></g><g id="g3474" transform="matrix(0.72261129,0,0,0.72261129,2.3229862,2.385686)"><defs id="defs3476"><rect id="SVGID_5_" width="35" height="35" x="0" y="0"/></defs><clipPath id="SVGID_6_"><use id="use3480" width="100%" height="100%" x="0" y="0" overflow="visible" xlink:href="#SVGID_5_" style="overflow:visible"/></clipPath><path id="path3482" d="m 34.501,17.5 c 0,9.389 -7.612,17 -17,17 -9.39,0 -17,-7.61 -17,-17 0,-9.39 7.611,-17 17,-17 9.388,0 17,7.61 17,17 m -1.48,0 C 33.021,8.941 26.058,1.979 17.5,1.979 8.941,1.979 1.979,8.94 1.979,17.5 c 0,8.56 6.963,15.522 15.522,15.522 8.558,-10e-4 15.52,-6.962 15.52,-15.522" clip-path="url(#SVGID_6_)" style="fill:#414042"/><path id="path3484" d="m 19.548,34.364 c 0.368,-0.044 0.733,-0.1 1.094,-0.167 0.165,-0.029 0.329,-0.061 0.492,-0.097 0.396,-0.086 0.787,-0.187 1.173,-0.3 0.102,-0.031 0.207,-0.055 0.308,-0.086 0.474,-0.15 0.938,-0.322 1.393,-0.51 0.138,-0.059 0.272,-0.123 0.409,-0.186 0.319,-0.142 0.636,-0.293 0.945,-0.455 0.161,-0.084 0.32,-0.171 0.479,-0.261 0.292,-0.164 0.577,-0.339 0.857,-0.52 0.14,-0.091 0.282,-0.177 0.418,-0.271 0.389,-0.267 0.767,-0.547 1.131,-0.845 0.118,-0.098 0.229,-0.201 0.344,-0.301 0.253,-0.22 0.502,-0.442 0.742,-0.677 0.147,-0.142 0.289,-0.29 0.431,-0.437 0.201,-0.209 0.396,-0.424 0.585,-0.644 0.137,-0.156 0.272,-0.312 0.402,-0.475 0.214,-0.265 0.415,-0.541 0.613,-0.819 0.147,-0.208 0.29,-0.419 0.428,-0.634 0.188,-0.291 0.371,-0.586 0.541,-0.889 0.107,-0.192 0.206,-0.39 0.306,-0.585 0.125,-0.244 0.244,-0.491 0.357,-0.742 0.094,-0.207 0.185,-0.415 0.27,-0.625 0.031,-0.078 0.056,-0.158 0.086,-0.235 L 32.617,20.971 C 31.03,27.864 24.862,33.021 17.5,33.021 10.125,33.021 3.946,27.845 2.376,20.938 l -0.739,2.634 c 0.033,0.085 0.06,0.175 0.095,0.26 0.084,0.209 0.173,0.415 0.265,0.619 0.114,0.256 0.237,0.508 0.364,0.756 0.098,0.191 0.193,0.386 0.298,0.572 0.185,0.331 0.383,0.653 0.59,0.971 0.128,0.196 0.262,0.389 0.398,0.58 0.193,0.271 0.389,0.541 0.598,0.8 0.129,0.161 0.265,0.316 0.4,0.473 0.191,0.221 0.387,0.438 0.59,0.649 0.139,0.145 0.279,0.292 0.424,0.432 0.247,0.241 0.503,0.47 0.764,0.695 0.108,0.093 0.211,0.192 0.322,0.284 0.365,0.298 0.745,0.58 1.135,0.848 0.137,0.094 0.281,0.181 0.421,0.271 0.28,0.182 0.564,0.355 0.855,0.52 0.158,0.089 0.317,0.176 0.478,0.261 0.312,0.163 0.63,0.315 0.953,0.458 0.134,0.062 0.266,0.125 0.401,0.183 0.456,0.188 0.92,0.359 1.393,0.51 0.106,0.033 0.215,0.058 0.321,0.09 0.382,0.112 0.769,0.212 1.161,0.297 0.164,0.036 0.33,0.068 0.496,0.098 0.359,0.067 0.724,0.123 1.092,0.167 0.158,0.021 0.314,0.041 0.474,0.057 0.519,0.048 1.043,0.08 1.575,0.08 0.531,0 1.056,-0.032 1.574,-0.08 0.16,-0.018 0.317,-0.038 0.474,-0.059" clip-path="url(#SVGID_6_)" style="fill:#2d2d2d"/></g><g id="g3486" transform="matrix(0.72261129,0,0,0.72261129,2.3229862,2.385686)"><defs id="defs3488"><rect id="SVGID_7_" width="35" height="35" x="0" y="0"/></defs><clipPath id="SVGID_8_"><use id="use3492" width="100%" height="100%" x="0" y="0" overflow="visible" xlink:href="#SVGID_7_" style="overflow:visible"/></clipPath><path id="path3494" d="M 10.583,30.031 C 8.997,26.559 6.494,23.463 3.646,21.333 3.17,20.977 3.03,20.388 3.311,19.865 4.993,16.728 5.798,12.861 5.787,9.018 5.785,8.426 6.15,7.995 6.725,7.843 10.104,6.946 13.697,5.239 16.748,3.015 c 0.48,-0.349 1.047,-0.378 1.504,0 3.001,2.485 6.617,4.179 10.023,4.828 0.583,0.111 0.953,0.583 0.938,1.176 -0.091,3.731 0.766,7.61 2.476,10.846 0.277,0.525 0.136,1.106 -0.335,1.469 -2.928,2.248 -5.46,5.311 -6.937,8.698 -0.237,0.545 -0.783,0.8 -1.358,0.651 -3.936,-1.005 -7.976,-0.779 -11.116,-0.002 -0.58,0.143 -1.112,-0.107 -1.36,-0.65" clip-path="url(#SVGID_8_)" style="fill:#292728"/><path id="path3496" d="M 10.583,30.031 C 8.997,26.559 6.494,23.463 3.646,21.333 3.17,20.977 3.03,20.388 3.311,19.865 4.993,16.728 29.98,16.628 31.69,19.864 c 0.277,0.525 0.136,1.106 -0.335,1.469 -2.928,2.248 -5.46,5.311 -6.937,8.698 -0.237,0.545 -0.783,0.8 -1.358,0.651 -3.936,-1.005 -7.976,-0.779 -11.116,-0.002 -0.581,0.144 -1.113,-0.106 -1.361,-0.649" clip-path="url(#SVGID_8_)"/></g><g id="g3498" transform="matrix(0.72261129,0,0,0.72261129,2.3229862,2.385686)"><defs id="defs3500"><rect id="SVGID_9_" width="35" height="35" x="0" y="0"/></defs><clipPath id="SVGID_10_"><use id="use3504" width="100%" height="100%" x="0" y="0" overflow="visible" xlink:href="#SVGID_9_" style="overflow:visible"/></clipPath><path id="path3506" d="M 10.583,30.031 C 9.449,26.362 6.97,23.255 3.646,21.333 3.132,21.034 2.977,20.355 3.311,19.865 5.472,16.69 6.356,12.815 5.787,9.018 5.699,8.431 6.132,7.887 6.725,7.843 10.554,7.552 14.134,5.829 16.748,3.015 c 0.404,-0.434 1.101,-0.434 1.504,0 2.613,2.814 6.195,4.537 10.023,4.828 0.592,0.044 1.026,0.589 0.938,1.176 -0.57,3.797 0.314,7.672 2.476,10.846 0.334,0.491 0.179,1.17 -0.335,1.469 -3.324,1.922 -5.803,5.028 -6.937,8.698 -0.176,0.567 -0.805,0.867 -1.358,0.651 -3.905,-1.522 -7.949,-1.228 -11.116,-0.002 -0.556,0.215 -1.185,-0.078 -1.36,-0.65" clip-path="url(#SVGID_10_)" style="fill:#616264"/><path id="path3508" d="M 10.698,29.821 C 9.583,26.259 7.146,23.243 3.877,21.377 3.371,21.088 3.187,20.404 3.548,19.953 5.924,16.967 6.806,13.211 5.982,9.424 5.859,8.86 6.321,8.301 6.904,8.281 10.715,8.147 14.231,6.448 16.76,3.595 c 0.384,-0.433 1.092,-0.43 1.479,0 2.563,2.852 6.123,4.472 9.855,4.686 0.582,0.034 1.01,0.572 0.923,1.143 -0.561,3.685 0.31,7.447 2.435,10.528 0.328,0.476 0.176,1.136 -0.329,1.425 -3.27,1.866 -5.706,4.882 -6.821,8.443 -0.173,0.553 -0.791,0.843 -1.336,0.634 -3.839,-1.479 -7.815,-1.194 -10.93,-0.002 -0.547,0.21 -1.165,-0.076 -1.338,-0.631" clip-path="url(#SVGID_10_)" style="fill:#1c2224"/><path id="path3510" d="M 10.583,30.041 C 9.449,26.418 6.97,23.351 3.646,21.452 3.132,21.158 3.102,19.683 3.457,20.151 c 5.538,7.326 19.864,9.524 28.125,-0.037 0.385,-0.445 0.287,1.044 -0.227,1.338 -3.324,1.898 -5.803,4.966 -6.937,8.588 -0.176,0.562 -0.805,0.856 -1.358,0.645 -3.905,-1.503 -7.949,-1.213 -11.116,-0.002 -0.557,0.213 -1.186,-0.079 -1.361,-0.642" clip-path="url(#SVGID_10_)" style="fill:#373e48"/></g><g id="g3512" transform="matrix(0.72261129,0,0,0.72261129,2.3229862,2.385686)"><defs id="defs3514"><rect id="SVGID_11_" width="35" height="35" x="0" y="0"/></defs><clipPath id="SVGID_12_"><use id="use3518" width="100%" height="100%" x="0" y="0" overflow="visible" xlink:href="#SVGID_11_" style="overflow:visible"/></clipPath><path id="path3520" d="m 17.624,17.608 -0.248,0 c -0.346,0 -0.626,-0.28 -0.626,-0.626 l 0,-12.692 c 0,-0.347 0.364,-0.627 0.709,-0.627 l 0.08,0 c 0.346,0 0.711,0.28 0.711,0.627 l 0,12.692 c 0,0.346 -0.28,0.626 -0.626,0.626" clip-path="url(#SVGID_12_)" style="fill:#f0f0f0"/></g></svg>