<svg xmlns="http://www.w3.org/2000/svg" xmlns:svg="http://www.w3.org/2000/svg" xmlns:xlink="http://www.w3.org/1999/xlink" id="svg7595" width="13.5" height="13.5" x="0" y="0" enable-background="new 0 0 13.5 13.5" version="1.1" viewBox="0 0 13.5 13.5" xml:space="preserve"><g><path d="M16.606,16.729c0.787,0.807-15.735,0.807-14.948,0c-0.787,0.807-0.787-16.133,0-15.326c-0.787-0.807,15.735-0.807,14.948,0 C17.394,0.597,17.394,17.536,16.606,16.729z"/><path fill="none" stroke="#009800" stroke-miterlimit="10" stroke-width=".283" d="M16.606,16.729 c0.787,0.807-15.735,0.807-14.948,0c-0.787,0.807-0.787-16.133,0-15.326c-0.787-0.807,15.735-0.807,14.948,0 C17.394,0.597,17.394,17.536,16.606,16.729z"/></g><g><path d="M12.786,12.718c0.385,0.385-7.69,0.385-7.305,0c-0.385,0.385-0.385-7.687,0-7.302c-0.385-0.385,7.69-0.385,7.305,0 C13.171,5.031,13.171,13.103,12.786,12.718z"/><path fill="none" stroke="#009800" stroke-miterlimit="10" stroke-width=".283" d="M12.786,12.718 c0.385,0.385-7.69,0.385-7.305,0c-0.385,0.385-0.385-7.687,0-7.302c-0.385-0.385,7.69-0.385,7.305,0 C13.171,5.031,13.171,13.103,12.786,12.718z"/></g></svg>