<svg xmlns="http://www.w3.org/2000/svg" xmlns:svg="http://www.w3.org/2000/svg" xmlns:xlink="http://www.w3.org/1999/xlink" id="svg12553" width="19.415" height="17.334" x="0" y="0" enable-background="new 0 0 19.415 17.334" version="1.1" viewBox="0 0 19.415 17.334" xml:space="preserve"><path fill="#E6E6E6" d="M16.579-0.003H2.834C1.269-0.003,0,1.266,0,2.831v11.667c0,1.565,1.269,2.836,2.834,2.836h13.745	c1.565,0,2.836-1.271,2.836-2.836V2.831C19.415,1.265,18.144-0.003,16.579-0.003z M12.237,9.956H7.275V7.177h4.962V9.956z"/><g><path d="M16.581,1c1.012,0,1.834,0.822,1.834,1.834V14.5c0,1.013-0.822,1.835-1.834,1.835H2.834C1.823,16.334,1,15.511,1,14.499 V2.833C1,1.822,1.823,1,2.834,1H16.581 M16.581,0H2.834C1.269,0,0,1.268,0,2.833v11.666c0,1.564,1.269,2.835,2.834,2.835h13.747 c1.564,0,2.834-1.271,2.834-2.835V2.833C19.415,1.268,18.145,0,16.581,0L16.581,0z"/></g><rect width="19.315" height="9.689" x="-20.316" y="3.29" fill="none"/></svg>