<svg xmlns="http://www.w3.org/2000/svg" xmlns:svg="http://www.w3.org/2000/svg" id="svg12553" width="330.499" height="380" version="1.1" viewBox="0 0 87.445 100.542"><metadata id="metadata12550"/><g id="layer1" transform="translate(-26.543497,-161.30655)"><path style="opacity:1;fill:#4d4d4d;fill-opacity:1;fill-rule:nonzero;stroke:none;stroke-width:.27624694" id="path33453" d="M 26.543497,161.30654 H 113.856 V 261.84821 H 26.543497 Z m 0,0"/><rect id="rect6102" width="19.204" height="21.979" x="92.093" y="171.531" style="opacity:1;fill:#373737;fill-opacity:1;stroke:none;stroke-width:.20024505;stroke-miterlimit:4;stroke-dasharray:none;stroke-opacity:1"/><path style="fill:#ffe1e1;fill-opacity:1;stroke:#dedede;stroke-width:.17621782;stroke-linecap:round;stroke-linejoin:round;stroke-miterlimit:10;stroke-opacity:1" id="path35723" d="M 31.528092,254.33713 H 61.004934"/><path style="fill:#ffe1e1;fill-opacity:1;stroke:#dedede;stroke-width:.17781207;stroke-linecap:round;stroke-linejoin:round;stroke-miterlimit:10;stroke-opacity:1" id="path35725" d="m 78.98929,254.33713 h 30.01264"/><g id="text4685" aria-label="TAP SELECT" transform="translate(0,1.8521621)" style="font-style:normal;font-weight:400;font-size:2.46944427px;line-height:1.25;font-family:sans-serif;letter-spacing:0;word-spacing:0;fill:#ffe1e1;fill-opacity:1;stroke:none;stroke-width:.26458332"><path id="path4698" d="m 62.795309,251.57983 h 1.522904 v 0.20498 h -0.639065 v 1.59526 h -0.244774 v -1.59526 h -0.639065 z" style="fill:#ffe1e1;fill-opacity:1;stroke-width:.26458332"/><path id="path4700" d="m 64.963307,251.81978 -0.330384,0.8959 h 0.661975 z m -0.137459,-0.23995 h 0.276125 l 0.68609,1.80024 h -0.253214 l -0.163987,-0.46182 H 64.55937 l -0.163986,0.46182 h -0.256832 z" style="fill:#ffe1e1;fill-opacity:1;stroke-width:.26458332"/><path id="path4702" d="m 66.293287,251.77999 v 0.67645 h 0.306269 q 0.170015,0 0.26286,-0.088 0.09285,-0.088 0.09285,-0.2508 0,-0.16157 -0.09285,-0.2496 -0.09284,-0.088 -0.26286,-0.088 z m -0.243569,-0.20016 h 0.549838 q 0.302651,0 0.456991,0.13746 0.155546,0.13625 0.155546,0.40032 0,0.26648 -0.155546,0.40273 -0.15434,0.13626 -0.456991,0.13626 h -0.306269 v 0.72347 h -0.243569 z" style="fill:#ffe1e1;fill-opacity:1;stroke-width:.26458332"/><path id="path4704" d="m 69.405413,251.63891 v 0.23754 q -0.138665,-0.0663 -0.261655,-0.0989 -0.12299,-0.0326 -0.237539,-0.0326 -0.198954,0 -0.307475,0.0772 -0.107315,0.0772 -0.107315,0.21946 0,0.11937 0.07114,0.18086 0.07235,0.0603 0.272507,0.0977 l 0.147105,0.0302 q 0.272507,0.0518 0.401526,0.18328 0.130225,0.13022 0.130225,0.34967 0,0.26166 -0.176045,0.39671 -0.174838,0.13504 -0.513663,0.13504 -0.127813,0 -0.272507,-0.0289 -0.143489,-0.0289 -0.297829,-0.0856 v -0.2508 q 0.148312,0.0832 0.290594,0.1254 0.142282,0.0422 0.279742,0.0422 0.2086,0 0.321944,-0.082 0.113343,-0.082 0.113343,-0.23392 0,-0.13264 -0.08199,-0.20739 -0.08079,-0.0748 -0.266478,-0.11214 l -0.148311,-0.0289 q -0.272507,-0.0543 -0.394291,-0.17002 -0.121785,-0.11575 -0.121785,-0.32194 0,-0.23875 0.167604,-0.37621 0.16881,-0.13745 0.464227,-0.13745 0.126607,0 0.258038,0.0229 0.13143,0.0229 0.268889,0.0687 z" style="fill:#ffe1e1;fill-opacity:1;stroke-width:.26458332"/><path id="path4706" d="m 69.893755,251.57983 h 1.13826 v 0.20498 h -0.894691 v 0.53296 h 0.857312 v 0.20498 h -0.857312 v 0.65233 h 0.916395 v 0.20499 h -1.159964 z" style="fill:#ffe1e1;fill-opacity:1;stroke-width:.26458332"/><path id="path4708" d="m 71.456451,251.57983 h 0.243568 v 1.59525 h 0.876605 v 0.20499 h -1.120173 z" style="fill:#ffe1e1;fill-opacity:1;stroke-width:.26458332"/><path id="path4710" d="m 72.831044,251.57983 h 1.138259 v 0.20498 h -0.894691 v 0.53296 h 0.857312 v 0.20498 h -0.857312 v 0.65233 h 0.916395 v 0.20499 h -1.159963 z" style="fill:#ffe1e1;fill-opacity:1;stroke-width:.26458332"/><path id="path4712" d="m 75.741805,251.7185 v 0.25683 q -0.12299,-0.11455 -0.262861,-0.17122 -0.138665,-0.0567 -0.295417,-0.0567 -0.30868,0 -0.472667,0.1893 -0.163986,0.18811 -0.163986,0.54502 0,0.3557 0.163986,0.54501 0.163987,0.1881 0.472667,0.1881 0.156752,0 0.295417,-0.0567 0.139871,-0.0567 0.262861,-0.17122 v 0.25442 q -0.127813,0.0868 -0.271301,0.13023 -0.142283,0.0434 -0.301446,0.0434 -0.408761,0 -0.643888,-0.24959 -0.235128,-0.25081 -0.235128,-0.68368 0,-0.43408 0.235128,-0.68368 0.235127,-0.2508 0.643888,-0.2508 0.161575,0 0.303857,0.0434 0.143488,0.0422 0.26889,0.12782 z" style="fill:#ffe1e1;fill-opacity:1;stroke-width:.26458332"/><path id="path4714" d="m 75.870824,251.57983 h 1.522904 v 0.20498 h -0.639065 v 1.59526 h -0.244774 v -1.59526 h -0.639065 z" style="fill:#ffe1e1;fill-opacity:1;stroke-width:.26458332"/></g><g id="text4689" aria-label="RAM" transform="translate(0,1.0583333)" style="font-style:normal;font-variant:normal;font-weight:400;font-stretch:normal;font-size:2.46944427px;line-height:1.25;font-family:'Arial Black';-inkscape-font-specification:'Arial Black, ';letter-spacing:0;word-spacing:0;fill:#dedede;fill-opacity:1;stroke:none;stroke-width:.26458332"><path id="path4691" d="m 67.224723,259.53873 v -1.76768 h 0.910367 q 0.253214,0 0.387056,0.0434 0.133842,0.0434 0.215835,0.16157 0.08199,0.11696 0.08199,0.28577 0,0.14711 -0.0627,0.25442 -0.0627,0.10611 -0.172427,0.17243 -0.06994,0.0422 -0.19172,0.0699 0.09767,0.0326 0.142283,0.0651 0.03014,0.0217 0.08682,0.0928 0.05788,0.0711 0.07717,0.10973 l 0.264067,0.51246 h -0.617361 l -0.2918,-0.54019 q -0.05547,-0.10491 -0.09887,-0.13626 -0.05908,-0.041 -0.133842,-0.041 h -0.04823 v 0.71744 z m 0.548632,-1.05145 h 0.230304 q 0.03738,0 0.144694,-0.0241 0.05426,-0.0109 0.08802,-0.0555 0.03497,-0.0446 0.03497,-0.10249 0,-0.0856 -0.05426,-0.13143 -0.05426,-0.0458 -0.203777,-0.0458 h -0.239951 z" style="fill:#dedede;fill-opacity:1;stroke-width:.26458332"/><path id="path4693" d="m 70.224712,259.24693 h -0.622184 l -0.08561,0.2918 H 68.95864 l 0.664386,-1.76768 h 0.595657 l 0.664387,1.76768 h -0.571541 z m -0.114549,-0.38224 -0.195337,-0.63544 -0.194131,0.63544 z" style="fill:#dedede;fill-opacity:1;stroke-width:.26458332"/><path id="path4695" d="m 71.050674,257.77105 h 0.718647 l 0.27733,1.07556 0.276124,-1.07556 h 0.716235 v 1.76768 h -0.446139 v -1.34807 l -0.34606,1.34807 h -0.403938 l -0.344854,-1.34807 v 1.34807 h -0.447345 z" style="fill:#dedede;fill-opacity:1;stroke-width:.26458332"/></g><flowRoot style="fill:#000;fill-opacity:1;stroke:none;font-family:'Arial Black';font-style:normal;font-weight:400;font-size:9.33333333px;line-height:1.25;letter-spacing:0;word-spacing:0;-inkscape-font-specification:'Arial Black, ';font-stretch:normal;font-variant:normal" id="flowRoot4841" xml:space="preserve"><flowRegion id="flowRegion4843"><rect id="rect4845" width="32.858" height="16.648" x="-121.794" y="133.782"/></flowRegion><flowPara id="flowPara4847"/></flowRoot><rect id="rect5040" width="81.115" height="8.939" x="30.193" y="201.785" style="opacity:1;fill:#b00000;fill-opacity:1;stroke:none;stroke-width:.46033189;stroke-miterlimit:4;stroke-dasharray:none;stroke-opacity:.78571424"/><rect style="opacity:1;fill:#00b000;fill-opacity:1;stroke:none;stroke-width:.46033189;stroke-miterlimit:4;stroke-dasharray:none;stroke-opacity:.78571424" id="rect5062" width="81.115" height="8.939" x="30.193" y="212.554"/><rect id="rect5064" width="81.115" height="8.939" x="30.193" y="223.45" style="opacity:1;fill:#0000b0;fill-opacity:1;stroke:none;stroke-width:.46033189;stroke-miterlimit:4;stroke-dasharray:none;stroke-opacity:.78571424"/><rect style="opacity:1;fill:#b00000;fill-opacity:1;stroke:none;stroke-width:.13704112;stroke-miterlimit:4;stroke-dasharray:none;stroke-opacity:.78571424" id="rect5066" width="7.144" height="8.996" x="93.748" y="173.213"/><rect style="opacity:1;fill:#373737;fill-opacity:1;stroke:none;stroke-width:.20735358;stroke-miterlimit:4;stroke-dasharray:none;stroke-opacity:1" id="rect6104" width="20.592" height="21.979" x="70.337" y="171.531"/><rect id="rect5068" width="7.144" height="8.996" x="103.008" y="173.213" style="opacity:1;fill:#00b000;fill-opacity:1;stroke:none;stroke-width:.13704112;stroke-miterlimit:4;stroke-dasharray:none;stroke-opacity:.78571424"/><rect id="rect6106" width="8.45" height="23.483" x="60.826" y="171.531" style="opacity:1;fill:#373737;fill-opacity:1;stroke:none;stroke-width:.13729452;stroke-miterlimit:4;stroke-dasharray:none;stroke-opacity:1"/><rect style="opacity:1;fill:#0000b0;fill-opacity:1;stroke:none;stroke-width:.13704112;stroke-miterlimit:4;stroke-dasharray:none;stroke-opacity:.78571424" id="rect5070" width="7.144" height="8.996" x="103.008" y="183.796"/><rect style="opacity:1;fill:#373737;fill-opacity:1;stroke:none;stroke-width:.20323718;stroke-miterlimit:4;stroke-dasharray:none;stroke-opacity:1" id="rect6108" width="19.782" height="21.979" x="30.124" y="171.531"/><rect style="opacity:1;fill:#373737;fill-opacity:1;stroke:none;stroke-width:.13552649;stroke-miterlimit:4;stroke-dasharray:none;stroke-opacity:1" id="rect6110" width="8.797" height="21.979" x="50.968" y="171.531"/><flowRoot style="fill:#000;fill-opacity:1;stroke:none;font-family:sans-serif;font-style:normal;font-weight:400;font-size:9.33333333px;line-height:1.25;letter-spacing:0;word-spacing:0;-inkscape-font-specification:sans-serif;font-stretch:normal;font-variant:normal" id="flowRoot5131" xml:space="preserve"><flowRegion id="flowRegion5133"><rect id="rect5135" width="57.158" height="88.042" x="366.919" y="202.994"/></flowRegion><flowPara id="flowPara5137"/></flowRoot><path id="path4269" d="M 31.519042,243.88176 H 58.010631" style="fill:#ffe1e1;fill-opacity:1;stroke:#dedede;stroke-width:.1670565;stroke-linecap:round;stroke-linejoin:round;stroke-miterlimit:10;stroke-opacity:1"/><path id="path4271" d="M 83.025198,243.89068 H 109.01402" style="fill:#ffe1e1;fill-opacity:1;stroke:#dedede;stroke-width:.16546358;stroke-linecap:round;stroke-linejoin:round;stroke-miterlimit:10;stroke-opacity:1"/><g id="text4295" aria-label="GATE CONTROL" transform="translate(0,-0.79367118)" style="font-style:normal;font-weight:400;font-size:2.82222223px;line-height:6.61458302px;font-family:sans-serif;letter-spacing:0;word-spacing:0;fill:#ffe1e1;fill-opacity:1;stroke:none;stroke-width:.26458332"><path id="path4297" d="m 62.006757,245.31751 v -0.48352 h -0.397908 v -0.20016 h 0.639065 v 0.77291 q -0.141077,0.10008 -0.311092,0.15193 -0.170016,0.0506 -0.362941,0.0506 -0.422024,0 -0.660769,-0.24598 -0.23754,-0.24719 -0.23754,-0.6873 0,-0.44131 0.23754,-0.68729 0.238745,-0.24719 0.660769,-0.24719 0.176044,0 0.334002,0.0434 0.159163,0.0434 0.293005,0.12781 v 0.25924 q -0.135048,-0.11454 -0.286976,-0.17242 -0.151929,-0.0579 -0.319533,-0.0579 -0.330384,0 -0.496783,0.18449 -0.165192,0.18448 -0.165192,0.54983 0,0.36415 0.165192,0.54863 0.166399,0.18449 0.496783,0.18449 0.129019,0 0.230305,-0.0217 0.101286,-0.0229 0.182073,-0.0699 z" style="font-size:2.46944427px;fill:#ffe1e1;fill-opacity:1;stroke-width:.26458332"/><path id="path4299" d="m 63.295739,244.01406 -0.330384,0.89589 h 0.661975 z m -0.137459,-0.23995 h 0.276125 l 0.68609,1.80023 h -0.253214 l -0.163987,-0.46181 h -0.811492 l -0.163986,0.46181 h -0.256832 z" style="font-size:2.46944427px;fill:#ffe1e1;fill-opacity:1;stroke-width:.26458332"/><path id="path4301" d="m 63.939628,243.77411 h 1.522904 v 0.20498 h -0.639065 v 1.59525 h -0.244774 v -1.59525 h -0.639065 z" style="font-size:2.46944427px;fill:#ffe1e1;fill-opacity:1;stroke-width:.26458332"/><path id="path4303" d="m 65.698866,243.77411 h 1.138259 v 0.20498 h -0.894691 v 0.53296 h 0.857312 v 0.20498 h -0.857312 v 0.65233 h 0.916395 v 0.20498 h -1.159963 z" style="font-size:2.46944427px;fill:#ffe1e1;fill-opacity:1;stroke-width:.26458332"/><path id="path4305" d="m 69.395798,243.91277 v 0.25683 q -0.12299,-0.11455 -0.262861,-0.17122 -0.138665,-0.0567 -0.295417,-0.0567 -0.308681,0 -0.472667,0.18931 -0.163987,0.1881 -0.163987,0.54501 0,0.35571 0.163987,0.54502 0.163986,0.1881 0.472667,0.1881 0.156752,0 0.295417,-0.0567 0.139871,-0.0567 0.262861,-0.17122 v 0.25442 q -0.127813,0.0868 -0.271302,0.13022 -0.142282,0.0434 -0.301445,0.0434 -0.408761,0 -0.643889,-0.2496 -0.235128,-0.2508 -0.235128,-0.68368 0,-0.43408 0.235128,-0.68368 0.235128,-0.2508 0.643889,-0.2508 0.161574,0 0.303857,0.0434 0.143488,0.0422 0.26889,0.12781 z" style="font-size:2.46944427px;fill:#ffe1e1;fill-opacity:1;stroke-width:.26458332"/><path id="path4307" d="m 70.505118,243.9393 q -0.265272,0 -0.422024,0.19775 -0.155546,0.19775 -0.155546,0.53898 0,0.34003 0.155546,0.53778 0.156752,0.19775 0.422024,0.19775 0.265273,0 0.419613,-0.19775 0.155546,-0.19775 0.155546,-0.53778 0,-0.34123 -0.155546,-0.53898 -0.15434,-0.19775 -0.419613,-0.19775 z m 0,-0.19775 q 0.378616,0 0.605303,0.25442 0.226688,0.25321 0.226688,0.68006 0,0.42564 -0.226688,0.68006 -0.226687,0.25322 -0.605303,0.25322 -0.379822,0 -0.607715,-0.25322 -0.226687,-0.25321 -0.226687,-0.68006 0,-0.42685 0.226687,-0.68006 0.227893,-0.25442 0.607715,-0.25442 z" style="font-size:2.46944427px;fill:#ffe1e1;fill-opacity:1;stroke-width:.26458332"/><path id="path4309" d="m 71.718136,243.77411 h 0.327973 l 0.798229,1.50602 v -1.50602 h 0.236333 v 1.80023 h -0.327973 l -0.798228,-1.50602 v 1.50602 h -0.236334 z" style="font-size:2.46944427px;fill:#ffe1e1;fill-opacity:1;stroke-width:.26458332"/><path id="path4311" d="m 73.3158,243.77411 h 1.522904 v 0.20498 h -0.639065 v 1.59525 h -0.244774 v -1.59525 H 73.3158 Z" style="font-size:2.46944427px;fill:#ffe1e1;fill-opacity:1;stroke-width:.26458332"/><path id="path4313" d="m 75.928731,244.73029 q 0.07838,0.0265 0.151929,0.11335 0.07476,0.0868 0.149517,0.23874 l 0.247185,0.49196 h -0.261654 l -0.230305,-0.46181 q -0.08923,-0.18087 -0.173633,-0.23996 -0.0832,-0.0591 -0.227893,-0.0591 h -0.265272 v 0.76085 h -0.243569 v -1.80023 h 0.549838 q 0.30868,0 0.460609,0.12902 0.151929,0.12901 0.151929,0.38946 0,0.17002 -0.07958,0.28216 -0.07838,0.11213 -0.229099,0.15554 z m -0.610126,-0.75602 v 0.63906 h 0.306269 q 0.176044,0 0.265272,-0.0808 0.09043,-0.082 0.09043,-0.23995 0,-0.15795 -0.09043,-0.23754 -0.08923,-0.0808 -0.265272,-0.0808 z" style="font-size:2.46944427px;fill:#ffe1e1;fill-opacity:1;stroke-width:.26458332"/><path id="path4315" d="m 77.522776,243.9393 q -0.265272,0 -0.422024,0.19775 -0.155546,0.19775 -0.155546,0.53898 0,0.34003 0.155546,0.53778 0.156752,0.19775 0.422024,0.19775 0.265273,0 0.419613,-0.19775 0.155546,-0.19775 0.155546,-0.53778 0,-0.34123 -0.155546,-0.53898 -0.15434,-0.19775 -0.419613,-0.19775 z m 0,-0.19775 q 0.378616,0 0.605304,0.25442 0.226687,0.25321 0.226687,0.68006 0,0.42564 -0.226687,0.68006 -0.226688,0.25322 -0.605304,0.25322 -0.379821,0 -0.607714,-0.25322 -0.226688,-0.25321 -0.226688,-0.68006 0,-0.42685 0.226688,-0.68006 0.227893,-0.25442 0.607714,-0.25442 z" style="font-size:2.46944427px;fill:#ffe1e1;fill-opacity:1;stroke-width:.26458332"/><path id="path4317" d="m 78.735795,243.77411 h 0.243569 v 1.59525 h 0.876604 v 0.20498 h -1.120173 z" style="font-size:2.46944427px;fill:#ffe1e1;fill-opacity:1;stroke-width:.26458332"/></g><path id="path4351" d="M 34.83268,181.64768 V 188.968" style="fill:none;stroke:#ffe1e1;stroke-width:.26458332px;stroke-linecap:butt;stroke-linejoin:miter;stroke-opacity:1"/><g id="text4416" aria-label="CLOCK" style="font-style:normal;font-variant:normal;font-weight:400;font-stretch:normal;font-size:2.46944427px;line-height:6.61458302px;font-family:sans-serif;font-variant-ligatures:normal;font-variant-position:normal;font-variant-caps:normal;font-variant-numeric:normal;font-variant-alternates:normal;font-feature-settings:normal;text-indent:0;text-align:start;text-decoration:none;text-decoration-line:none;text-decoration-style:solid;text-decoration-color:#000;letter-spacing:0;word-spacing:0;text-transform:none;writing-mode:lr-tb;direction:ltr;text-orientation:mixed;dominant-baseline:auto;baseline-shift:baseline;text-anchor:start;white-space:normal;shape-padding:0;opacity:1;vector-effect:none;fill:#ffe1e1;fill-opacity:1;stroke:none;stroke-width:.26458332;stroke-linecap:butt;stroke-linejoin:miter;stroke-miterlimit:4;stroke-dasharray:none;stroke-dashoffset:0;stroke-opacity:1"><path id="path4532" d="m 32.643823,173.11091 v 0.25683 q -0.12299,-0.11455 -0.262861,-0.17122 -0.138665,-0.0567 -0.295417,-0.0567 -0.308681,0 -0.472667,0.1893 -0.163987,0.18811 -0.163987,0.54502 0,0.3557 0.163987,0.54501 0.163986,0.1881 0.472667,0.1881 0.156752,0 0.295417,-0.0567 0.139871,-0.0567 0.262861,-0.17122 v 0.25442 q -0.127813,0.0868 -0.271302,0.13023 -0.142282,0.0434 -0.301446,0.0434 -0.40876,0 -0.643888,-0.24959 -0.235128,-0.25081 -0.235128,-0.68368 0,-0.43408 0.235128,-0.68368 0.235128,-0.2508 0.643888,-0.2508 0.161575,0 0.303858,0.0434 0.143488,0.0422 0.26889,0.12782 z" style="stroke-width:.26458332"/><path id="path4534" d="m 33.022438,172.97224 h 0.243569 v 1.59525 h 0.876604 v 0.20499 h -1.120173 z" style="stroke-width:.26458332"/><path id="path4536" d="m 35.04092,173.13743 q -0.265272,0 -0.422024,0.19775 -0.155546,0.19775 -0.155546,0.53899 0,0.34003 0.155546,0.53778 0.156752,0.19775 0.422024,0.19775 0.265272,0 0.419612,-0.19775 0.155547,-0.19775 0.155547,-0.53778 0,-0.34124 -0.155547,-0.53899 -0.15434,-0.19775 -0.419612,-0.19775 z m 0,-0.19774 q 0.378616,0 0.605303,0.25442 0.226687,0.25321 0.226687,0.68006 0,0.42564 -0.226687,0.68006 -0.226687,0.25321 -0.605303,0.25321 -0.379822,0 -0.607715,-0.25321 -0.226687,-0.25322 -0.226687,-0.68006 0,-0.42685 0.226687,-0.68006 0.227893,-0.25442 0.607715,-0.25442 z" style="stroke-width:.26458332"/><path id="path4538" d="m 37.602004,173.11091 v 0.25683 q -0.12299,-0.11455 -0.262861,-0.17122 -0.138665,-0.0567 -0.295417,-0.0567 -0.30868,0 -0.472667,0.1893 -0.163986,0.18811 -0.163986,0.54502 0,0.3557 0.163986,0.54501 0.163987,0.1881 0.472667,0.1881 0.156752,0 0.295417,-0.0567 0.139871,-0.0567 0.262861,-0.17122 v 0.25442 q -0.127813,0.0868 -0.271301,0.13023 -0.142283,0.0434 -0.301446,0.0434 -0.408761,0 -0.643888,-0.24959 -0.235128,-0.25081 -0.235128,-0.68368 0,-0.43408 0.235128,-0.68368 0.235127,-0.2508 0.643888,-0.2508 0.161575,0 0.303857,0.0434 0.143488,0.0422 0.26889,0.12782 z" style="stroke-width:.26458332"/><path id="path4540" d="m 37.98062,172.97224 h 0.243568 v 0.76085 l 0.807875,-0.76085 h 0.313504 l -0.893486,0.83923 0.957392,0.96101 h -0.320738 l -0.864547,-0.86696 v 0.86696 H 37.98062 Z" style="stroke-width:.26458332"/></g><g id="text4420" aria-label="LFSR" transform="translate(-0.23668586,4.1768501)" style="font-style:normal;font-variant:normal;font-weight:400;font-stretch:normal;font-size:2.46944427px;line-height:6.61458302px;font-family:sans-serif;font-variant-ligatures:normal;font-variant-position:normal;font-variant-caps:normal;font-variant-numeric:normal;font-variant-alternates:normal;font-feature-settings:normal;text-indent:0;text-align:start;text-decoration:none;text-decoration-line:none;text-decoration-style:solid;text-decoration-color:#000;letter-spacing:0;word-spacing:0;text-transform:none;writing-mode:lr-tb;direction:ltr;text-orientation:mixed;dominant-baseline:auto;baseline-shift:baseline;text-anchor:start;white-space:normal;shape-padding:0;opacity:1;vector-effect:none;fill:#ffe1e1;fill-opacity:1;stroke:none;stroke-width:.26458332;stroke-linecap:butt;stroke-linejoin:miter;stroke-miterlimit:4;stroke-dasharray:none;stroke-dashoffset:0;stroke-opacity:1"><path id="path4473" d="m 62.451511,184.75348 h 0.243568 v 1.59525 h 0.876605 v 0.20498 h -1.120173 z" style="stroke-width:.26458332"/><path id="path4475" d="m 63.826104,184.75348 h 1.034562 v 0.20498 h -0.790994 v 0.53054 h 0.713824 v 0.20499 h -0.713824 v 0.85972 h -0.243568 z" style="stroke-width:.26458332"/><path id="path4477" d="m 66.287108,184.81256 v 0.23754 q -0.138666,-0.0663 -0.261655,-0.0989 -0.12299,-0.0326 -0.23754,-0.0326 -0.198954,0 -0.307474,0.0772 -0.107315,0.0772 -0.107315,0.21945 0,0.11937 0.07114,0.18087 0.07235,0.0603 0.272507,0.0977 l 0.147106,0.0301 q 0.272507,0.0519 0.401525,0.18328 0.130225,0.13023 0.130225,0.34968 0,0.26165 -0.176044,0.3967 -0.174839,0.13505 -0.513664,0.13505 -0.127813,0 -0.272507,-0.0289 -0.143488,-0.0289 -0.297829,-0.0856 v -0.2508 q 0.148312,0.0832 0.290594,0.1254 0.142283,0.0422 0.279742,0.0422 0.208601,0 0.321944,-0.082 0.113344,-0.082 0.113344,-0.23393 0,-0.13263 -0.08199,-0.20739 -0.08079,-0.0748 -0.266479,-0.11214 l -0.148311,-0.0289 q -0.272507,-0.0543 -0.394291,-0.17001 -0.121784,-0.11576 -0.121784,-0.32195 0,-0.23874 0.167604,-0.3762 0.168809,-0.13746 0.464226,-0.13746 0.126607,0 0.258038,0.0229 0.13143,0.0229 0.26889,0.0687 z" style="stroke-width:.26458332"/><path id="path4479" d="m 67.631556,185.70966 q 0.07838,0.0265 0.151929,0.11335 0.07476,0.0868 0.149517,0.23874 l 0.247186,0.49196 h -0.261655 l -0.230305,-0.46181 q -0.08923,-0.18087 -0.173633,-0.23995 -0.0832,-0.0591 -0.227893,-0.0591 H 67.02143 v 0.76085 h -0.243568 v -1.80023 h 0.549837 q 0.30868,0 0.460609,0.12902 0.151929,0.12901 0.151929,0.38946 0,0.17002 -0.07958,0.28216 -0.07838,0.11213 -0.229099,0.15554 z m -0.610126,-0.75602 v 0.63906 h 0.306269 q 0.176044,0 0.265272,-0.0808 0.09043,-0.082 0.09043,-0.23995 0,-0.15795 -0.09043,-0.23754 -0.08923,-0.0808 -0.265272,-0.0808 z" style="stroke-width:.26458332"/></g><g id="text4424" aria-label="ZERO" style="font-style:normal;font-variant:normal;font-weight:400;font-stretch:normal;font-size:2.46944427px;line-height:6.61458302px;font-family:sans-serif;font-variant-ligatures:normal;font-variant-position:normal;font-variant-caps:normal;font-variant-numeric:normal;font-variant-alternates:normal;font-feature-settings:normal;text-indent:0;text-align:start;text-decoration:none;text-decoration-line:none;text-decoration-style:solid;text-decoration-color:#000;letter-spacing:0;word-spacing:0;text-transform:none;writing-mode:lr-tb;direction:ltr;text-orientation:mixed;dominant-baseline:auto;baseline-shift:baseline;text-anchor:start;white-space:normal;shape-padding:0;opacity:1;vector-effect:none;fill:#ffe1e1;fill-opacity:1;stroke:none;stroke-width:.26458332;stroke-linecap:butt;stroke-linejoin:miter;stroke-miterlimit:4;stroke-dasharray:none;stroke-dashoffset:0;stroke-opacity:1"><path id="path4516" d="m 52.238248,172.97224 h 1.414384 v 0.18569 l -1.13826,1.40956 h 1.165993 v 0.20499 h -1.46985 v -0.18569 l 1.138259,-1.40957 h -1.110526 z" style="stroke-width:.26458332"/><path id="path4518" d="m 54.034865,172.97224 h 1.138259 v 0.20498 h -0.894691 v 0.53296 h 0.857312 v 0.20498 h -0.857312 v 0.65233 h 0.916396 v 0.20499 h -1.159964 z" style="stroke-width:.26458332"/><path id="path4520" d="m 56.451255,173.92843 q 0.07838,0.0265 0.151929,0.11334 0.07476,0.0868 0.149517,0.23875 l 0.247185,0.49196 h -0.261655 l -0.230304,-0.46182 q -0.08923,-0.18087 -0.173633,-0.23995 -0.0832,-0.0591 -0.227893,-0.0591 h -0.265272 v 0.76085 H 55.59756 v -1.80024 h 0.549838 q 0.30868,0 0.460609,0.12902 0.151928,0.12902 0.151928,0.38947 0,0.17001 -0.07958,0.28215 -0.07838,0.11214 -0.229099,0.15555 z m -0.610126,-0.75603 v 0.63907 h 0.306269 q 0.176044,0 0.265272,-0.0808 0.09043,-0.082 0.09043,-0.23995 0,-0.15796 -0.09043,-0.23754 -0.08923,-0.0808 -0.265272,-0.0808 z" style="stroke-width:.26458332"/><path id="path4522" d="m 58.0453,173.13743 q -0.265272,0 -0.422024,0.19775 -0.155546,0.19775 -0.155546,0.53899 0,0.34003 0.155546,0.53778 0.156752,0.19775 0.422024,0.19775 0.265273,0 0.419613,-0.19775 0.155546,-0.19775 0.155546,-0.53778 0,-0.34124 -0.155546,-0.53899 -0.15434,-0.19775 -0.419613,-0.19775 z m 0,-0.19774 q 0.378616,0 0.605304,0.25442 0.226687,0.25321 0.226687,0.68006 0,0.42564 -0.226687,0.68006 -0.226688,0.25321 -0.605304,0.25321 -0.379821,0 -0.607714,-0.25321 -0.226688,-0.25322 -0.226688,-0.68006 0,-0.42685 0.226688,-0.68006 0.227893,-0.25442 0.607714,-0.25442 z" style="stroke-width:.26458332"/></g><g id="text4428" aria-label="RUN" style="font-style:normal;font-variant:normal;font-weight:400;font-stretch:normal;font-size:2.46944427px;line-height:6.61458302px;font-family:sans-serif;font-variant-ligatures:normal;font-variant-position:normal;font-variant-caps:normal;font-variant-numeric:normal;font-variant-alternates:normal;font-feature-settings:normal;text-indent:0;text-align:start;text-decoration:none;text-decoration-line:none;text-decoration-style:solid;text-decoration-color:#000;letter-spacing:0;word-spacing:0;text-transform:none;writing-mode:lr-tb;direction:ltr;text-orientation:mixed;dominant-baseline:auto;baseline-shift:baseline;text-anchor:start;white-space:normal;shape-padding:0;opacity:1;vector-effect:none;fill:#ffe1e1;fill-opacity:1;stroke:none;stroke-width:.26458332;stroke-linecap:butt;stroke-linejoin:miter;stroke-miterlimit:4;stroke-dasharray:none;stroke-dashoffset:0;stroke-opacity:1"><path id="path4525" d="m 43.184127,173.91215 q 0.07838,0.0265 0.151929,0.11334 0.07476,0.0868 0.149517,0.23875 l 0.247185,0.49196 h -0.261655 l -0.230304,-0.46182 q -0.08923,-0.18087 -0.173633,-0.23995 -0.0832,-0.0591 -0.227893,-0.0591 h -0.265272 v 0.76085 h -0.243569 v -1.80024 h 0.549838 q 0.30868,0 0.460609,0.12902 0.151929,0.12902 0.151929,0.38947 0,0.17001 -0.07958,0.28215 -0.07838,0.11214 -0.229099,0.15555 z m -0.610126,-0.75603 v 0.63907 h 0.306269 q 0.176044,0 0.265272,-0.0808 0.09043,-0.082 0.09043,-0.23995 0,-0.15796 -0.09043,-0.23754 -0.08923,-0.0808 -0.265272,-0.0808 z" style="stroke-width:.26458332"/><path id="path4527" d="m 44.019735,172.95596 h 0.244774 v 1.09365 q 0,0.28938 0.104903,0.4172 0.104903,0.1266 0.340031,0.1266 0.233922,0 0.338825,-0.1266 0.104903,-0.12782 0.104903,-0.4172 v -1.09365 h 0.244774 v 1.12379 q 0,0.35209 -0.174838,0.53175 -0.173633,0.17966 -0.513664,0.17966 -0.341237,0 -0.516075,-0.17966 -0.173633,-0.17966 -0.173633,-0.53175 z" style="stroke-width:.26458332"/><path id="path4529" d="m 45.856143,172.95596 h 0.327973 l 0.798229,1.50602 v -1.50602 h 0.236333 v 1.80024 h -0.327973 l -0.798229,-1.50603 v 1.50603 h -0.236333 z" style="stroke-width:.26458332"/></g><g id="text4444" aria-label="GAL" style="font-style:normal;font-variant:normal;font-weight:400;font-stretch:normal;font-size:1.76388919px;line-height:6.61458302px;font-family:sans-serif;font-variant-ligatures:normal;font-variant-position:normal;font-variant-caps:normal;font-variant-numeric:normal;font-variant-alternates:normal;font-feature-settings:normal;text-indent:0;text-align:start;text-decoration:none;text-decoration-line:none;text-decoration-style:solid;text-decoration-color:#000;letter-spacing:0;word-spacing:0;text-transform:none;writing-mode:lr-tb;direction:ltr;text-orientation:mixed;dominant-baseline:auto;baseline-shift:baseline;text-anchor:start;white-space:normal;shape-padding:0;opacity:1;vector-effect:none;fill:#ffe1e1;fill-opacity:1;stroke:none;stroke-width:.26458332;stroke-linecap:butt;stroke-linejoin:miter;stroke-miterlimit:4;stroke-dasharray:none;stroke-dashoffset:0;stroke-opacity:1"><path id="path4509" d="m 64.135129,174.8203 v -0.34537 h -0.284221 v -0.14297 h 0.456475 v 0.55208 q -0.100769,0.0715 -0.222208,0.10852 -0.12144,0.0362 -0.259244,0.0362 -0.301446,0 -0.471978,-0.1757 -0.169671,-0.17656 -0.169671,-0.49093 0,-0.31522 0.169671,-0.49092 0.170532,-0.17656 0.471978,-0.17656 0.125746,0 0.238573,0.031 0.113688,0.031 0.20929,0.0913 v 0.18517 q -0.09646,-0.0818 -0.204983,-0.12316 -0.108521,-0.0413 -0.228238,-0.0413 -0.235989,0 -0.354845,0.13177 -0.117995,0.13178 -0.117995,0.39274 0,0.26011 0.117995,0.39188 0.118856,0.13178 0.354845,0.13178 0.09216,0 0.164503,-0.0155 0.07235,-0.0164 0.130053,-0.05 z" style="stroke-width:.26458332"/><path id="path4511" d="m 65.055831,173.88927 -0.235989,0.63992 h 0.472839 z m -0.09819,-0.1714 h 0.197232 l 0.490065,1.28588 h -0.180868 l -0.117133,-0.32986 h -0.579637 l -0.117133,0.32986 h -0.183452 z" style="stroke-width:.26458332"/><path id="path4513" d="m 65.831838,173.71787 h 0.173978 v 1.13947 h 0.626146 v 0.14641 h -0.800124 z" style="stroke-width:.26458332"/></g><g id="text4448" aria-label="FIBO" style="font-style:normal;font-variant:normal;font-weight:400;font-stretch:normal;font-size:1.76388919px;line-height:6.61458302px;font-family:sans-serif;font-variant-ligatures:normal;font-variant-position:normal;font-variant-caps:normal;font-variant-numeric:normal;font-variant-alternates:normal;font-feature-settings:normal;text-indent:0;text-align:start;text-decoration:none;text-decoration-line:none;text-decoration-style:solid;text-decoration-color:#000;letter-spacing:0;word-spacing:0;text-transform:none;writing-mode:lr-tb;direction:ltr;text-orientation:mixed;dominant-baseline:auto;baseline-shift:baseline;text-anchor:start;white-space:normal;shape-padding:0;opacity:1;vector-effect:none;fill:#ffe1e1;fill-opacity:1;stroke:none;stroke-width:.26458332;stroke-linecap:butt;stroke-linejoin:miter;stroke-miterlimit:4;stroke-dasharray:none;stroke-dashoffset:0;stroke-opacity:1"><path id="path4482" d="m 63.489633,182.27511 h 0.738973 v 0.14641 H 63.66361 v 0.37896 h 0.509875 v 0.14642 H 63.66361 v 0.61409 h -0.173977 z" style="stroke-width:.26458332"/><path id="path4484" d="m 64.505936,182.27511 h 0.173978 v 1.28588 h -0.173978 z" style="stroke-width:.26458332"/><path id="path4486" d="m 65.200123,182.9469 v 0.47112 h 0.279053 q 0.140388,0 0.207567,-0.0577 0.06804,-0.0586 0.06804,-0.17828 0,-0.12058 -0.06804,-0.17742 -0.06718,-0.0577 -0.207567,-0.0577 z m 0,-0.52882 v 0.38757 h 0.257521 q 0.127469,0 0.18948,-0.0474 0.06287,-0.0482 0.06287,-0.14641 0,-0.0973 -0.06287,-0.14556 -0.06201,-0.0482 -0.18948,-0.0482 z m -0.173977,-0.14297 h 0.444417 q 0.198954,0 0.306614,0.0827 0.107659,0.0827 0.107659,0.23513 0,0.11799 -0.05512,0.18776 -0.05512,0.0698 -0.161919,0.087 0.12833,0.0276 0.198954,0.11541 0.07149,0.087 0.07149,0.21791 0,0.17225 -0.117133,0.26613 -0.117134,0.0939 -0.333313,0.0939 h -0.461643 z" style="stroke-width:.26458332"/><path id="path4488" d="m 66.728023,182.3931 q -0.18948,0 -0.301446,0.14125 -0.111104,0.14125 -0.111104,0.38499 0,0.24288 0.111104,0.38413 0.111966,0.14125 0.301446,0.14125 0.189481,0 0.299724,-0.14125 0.111104,-0.14125 0.111104,-0.38413 0,-0.24374 -0.111104,-0.38499 -0.110243,-0.14125 -0.299724,-0.14125 z m 0,-0.14125 q 0.27044,0 0.43236,0.18173 0.161919,0.18087 0.161919,0.48576 0,0.30403 -0.161919,0.48576 -0.16192,0.18087 -0.43236,0.18087 -0.271301,0 -0.434082,-0.18087 -0.161919,-0.18087 -0.161919,-0.48576 0,-0.30489 0.161919,-0.48576 0.162781,-0.18173 0.434082,-0.18173 z" style="stroke-width:.26458332"/></g><g id="text4452" aria-label="DELTA" style="font-style:normal;font-variant:normal;font-weight:400;font-stretch:normal;font-size:1.76388919px;line-height:6.61458302px;font-family:sans-serif;font-variant-ligatures:normal;font-variant-position:normal;font-variant-caps:normal;font-variant-numeric:normal;font-variant-alternates:normal;font-feature-settings:normal;text-indent:0;text-align:start;text-decoration:none;text-decoration-line:none;text-decoration-style:solid;text-decoration-color:#000;letter-spacing:0;word-spacing:0;text-transform:none;writing-mode:lr-tb;direction:ltr;text-orientation:mixed;dominant-baseline:auto;baseline-shift:baseline;text-anchor:start;white-space:normal;shape-padding:0;opacity:1;vector-effect:none;fill:#ffe1e1;fill-opacity:1;stroke:none;stroke-width:.26458332;stroke-linecap:butt;stroke-linejoin:miter;stroke-miterlimit:4;stroke-dasharray:none;stroke-dashoffset:0;stroke-opacity:1"><path id="path4498" d="m 72.914682,173.8617 v 0.99994 h 0.210151 q 0.266134,0 0.389296,-0.12058 0.124023,-0.12058 0.124023,-0.38068 0,-0.25839 -0.124023,-0.3781 -0.123162,-0.12058 -0.389296,-0.12058 z m -0.173977,-0.14297 h 0.357429 q 0.373793,0 0.548631,0.15589 0.174839,0.15503 0.174839,0.48576 0,0.33245 -0.1757,0.48834 -0.1757,0.15589 -0.54777,0.15589 h -0.357429 z" style="stroke-width:.26458332"/><path id="path4500" d="m 74.098073,173.71873 h 0.813042 v 0.14641 H 74.27205 v 0.38069 h 0.612366 v 0.14641 H 74.27205 v 0.46595 h 0.654568 v 0.14642 h -0.828545 z" style="stroke-width:.26458332"/><path id="path4502" d="m 75.214284,173.71873 h 0.173977 v 1.13946 h 0.626146 v 0.14642 h -0.800123 z" style="stroke-width:.26458332"/><path id="path4504" d="m 75.776696,173.71873 h 1.087789 v 0.14641 H 76.40801 v 1.13947 h -0.174839 v -1.13947 h -0.456475 z" style="stroke-width:.26458332"/><path id="path4506" d="m 77.325267,173.89012 -0.235989,0.63993 h 0.472839 z m -0.09819,-0.17139 h 0.197232 l 0.490065,1.28588 h -0.180867 l -0.117134,-0.32987 H 77.03674 l -0.117133,0.32987 h -0.183452 z" style="stroke-width:.26458332"/></g><g id="text4456" aria-label="ALL" style="font-style:normal;font-variant:normal;font-weight:400;font-stretch:normal;font-size:1.76388919px;line-height:6.61458302px;font-family:sans-serif;font-variant-ligatures:normal;font-variant-position:normal;font-variant-caps:normal;font-variant-numeric:normal;font-variant-alternates:normal;font-feature-settings:normal;text-indent:0;text-align:start;text-decoration:none;text-decoration-line:none;text-decoration-style:solid;text-decoration-color:#000;letter-spacing:0;word-spacing:0;text-transform:none;writing-mode:lr-tb;direction:ltr;text-orientation:mixed;dominant-baseline:auto;baseline-shift:baseline;text-anchor:start;white-space:normal;shape-padding:0;opacity:1;vector-effect:none;fill:#ffe1e1;fill-opacity:1;stroke:none;stroke-width:.26458332;stroke-linecap:butt;stroke-linejoin:miter;stroke-miterlimit:4;stroke-dasharray:none;stroke-dashoffset:0;stroke-opacity:1"><path id="path4491" d="m 74.326868,182.44736 -0.235989,0.63992 h 0.472839 z m -0.09819,-0.1714 h 0.197231 l 0.490065,1.28588 h -0.180867 l -0.117133,-0.32986 h -0.579638 l -0.117133,0.32986 h -0.183451 z" style="stroke-width:.26458332"/><path id="path4493" d="m 75.102876,182.27596 h 0.173977 v 1.13947 h 0.626146 v 0.14641 h -0.800123 z" style="stroke-width:.26458332"/><path id="path4495" d="m 76.084728,182.27596 h 0.173977 v 1.13947 h 0.626147 v 0.14641 h -0.800124 z" style="stroke-width:.26458332"/></g><g id="text4460" aria-label="CLK IN" style="font-style:normal;font-variant:normal;font-weight:400;font-stretch:normal;font-size:2.46944427px;line-height:6.61458302px;font-family:sans-serif;font-variant-ligatures:normal;font-variant-position:normal;font-variant-caps:normal;font-variant-numeric:normal;font-variant-alternates:normal;font-feature-settings:normal;text-indent:0;text-align:start;text-decoration:none;text-decoration-line:none;text-decoration-style:solid;text-decoration-color:#000;letter-spacing:0;word-spacing:0;text-transform:none;writing-mode:lr-tb;direction:ltr;text-orientation:mixed;dominant-baseline:auto;baseline-shift:baseline;text-anchor:start;white-space:normal;shape-padding:0;opacity:1;vector-effect:none;fill:#ffe1e1;fill-opacity:1;stroke:none;stroke-width:.26458332;stroke-linecap:butt;stroke-linejoin:miter;stroke-miterlimit:4;stroke-dasharray:none;stroke-dashoffset:0;stroke-opacity:1"><path id="path4462" d="m 42.473092,183.05582 v 0.25683 q -0.12299,-0.11455 -0.262861,-0.17122 -0.138665,-0.0567 -0.295417,-0.0567 -0.30868,0 -0.472667,0.18931 -0.163986,0.1881 -0.163986,0.54501 0,0.35571 0.163986,0.54502 0.163987,0.1881 0.472667,0.1881 0.156752,0 0.295417,-0.0567 0.139871,-0.0567 0.262861,-0.17122 v 0.25442 q -0.127813,0.0868 -0.271301,0.13022 -0.142283,0.0434 -0.301446,0.0434 -0.408761,0 -0.643888,-0.2496 -0.235128,-0.2508 -0.235128,-0.68368 0,-0.43408 0.235128,-0.68368 0.235127,-0.2508 0.643888,-0.2508 0.161575,0 0.303857,0.0434 0.143488,0.0422 0.26889,0.12781 z" style="stroke-width:.26458332"/><path id="path4464" d="m 42.851708,182.91716 h 0.243568 v 1.59525 h 0.876605 v 0.20498 h -1.120173 z" style="stroke-width:.26458332"/><path id="path4466" d="m 44.226301,182.91716 h 0.243568 v 0.76085 l 0.807875,-0.76085 h 0.313504 l -0.893486,0.83922 0.957392,0.96101 h -0.320738 l -0.864547,-0.86696 v 0.86696 h -0.243568 z" style="stroke-width:.26458332"/><path id="path4468" d="m 46.633045,182.91716 h 0.243568 v 1.80023 h -0.243568 z" style="stroke-width:.26458332"/><path id="path4470" d="m 47.361338,182.91716 h 0.327973 l 0.798228,1.50602 v -1.50602 h 0.236334 v 1.80023 H 48.3959 l -0.798229,-1.50602 v 1.50602 h -0.236333 z" style="stroke-width:.26458332"/></g><g id="text4412" aria-label="GATE" transform="translate(10.01169,1.1826301)" style="font-style:normal;font-variant:normal;font-weight:400;font-stretch:normal;font-size:2.46944427px;line-height:6.61458302px;font-family:sans-serif;font-variant-ligatures:normal;font-variant-position:normal;font-variant-caps:normal;font-variant-numeric:normal;font-variant-alternates:normal;font-feature-settings:normal;text-indent:0;text-align:start;text-decoration:none;text-decoration-line:none;text-decoration-style:solid;text-decoration-color:#000;letter-spacing:0;word-spacing:0;text-transform:none;writing-mode:lr-tb;direction:ltr;text-orientation:mixed;dominant-baseline:auto;baseline-shift:baseline;text-anchor:start;white-space:normal;shape-padding:0;opacity:1;vector-effect:none;fill:#ffe1e1;fill-opacity:1;stroke:none;stroke-width:.26458332;stroke-linecap:butt;stroke-linejoin:miter;stroke-miterlimit:4;stroke-dasharray:none;stroke-dashoffset:0;stroke-opacity:1"><path id="path5315" d="m 63.555406,189.29117 v -0.48352 h -0.397909 v -0.20016 h 0.639066 v 0.77291 q -0.141077,0.10008 -0.311093,0.15193 -0.170015,0.0506 -0.36294,0.0506 -0.422024,0 -0.66077,-0.24598 -0.237539,-0.24718 -0.237539,-0.68729 0,-0.44132 0.237539,-0.6873 0.238746,-0.24719 0.66077,-0.24719 0.176044,0 0.334002,0.0434 0.159163,0.0434 0.293005,0.12781 v 0.25925 q -0.135048,-0.11455 -0.286976,-0.17243 -0.151929,-0.0579 -0.319533,-0.0579 -0.330385,0 -0.496783,0.18449 -0.165192,0.18448 -0.165192,0.54984 0,0.36414 0.165192,0.54863 0.166398,0.18448 0.496783,0.18448 0.129019,0 0.230305,-0.0217 0.101285,-0.0229 0.182073,-0.0699 z" style="stroke-width:.26458332"/><path id="path5317" d="m 64.844388,187.98772 -0.330384,0.8959 h 0.661975 z m -0.137459,-0.23995 h 0.276124 l 0.686091,1.80023 H 65.41593 l -0.163987,-0.46181 h -0.811492 l -0.163987,0.46181 h -0.256831 z" style="stroke-width:.26458332"/><path id="path5319" d="m 65.488277,187.74777 h 1.522904 v 0.20498 h -0.639065 v 1.59525 h -0.244774 v -1.59525 h -0.639065 z" style="stroke-width:.26458332"/><path id="path5321" d="m 67.247515,187.74777 h 1.138259 v 0.20498 h -0.894691 v 0.53296 h 0.857312 v 0.20498 h -0.857312 v 0.65233 h 0.916395 v 0.20498 h -1.159963 z" style="stroke-width:.26458332"/></g><g id="text5328" aria-label="MODE" style="font-style:normal;font-variant:normal;font-weight:400;font-stretch:normal;font-size:2.46944427px;line-height:6.61458302px;font-family:sans-serif;font-variant-ligatures:normal;font-variant-position:normal;font-variant-caps:normal;font-variant-numeric:normal;font-variant-alternates:normal;font-feature-settings:normal;text-indent:0;text-align:start;text-decoration:none;text-decoration-line:none;text-decoration-style:solid;text-decoration-color:#000;letter-spacing:0;word-spacing:0;text-transform:none;writing-mode:lr-tb;direction:ltr;text-orientation:mixed;dominant-baseline:auto;baseline-shift:baseline;text-anchor:start;white-space:normal;shape-padding:0;opacity:1;vector-effect:none;fill:#ffe1e1;fill-opacity:1;stroke:none;stroke-width:.26458332;stroke-linecap:butt;stroke-linejoin:miter;stroke-miterlimit:4;stroke-dasharray:none;stroke-dashoffset:0;stroke-opacity:1"><path id="path6084" d="m 72.081496,185.02454 h 0.311092 l 0.393774,1.05006 0.395842,-1.05006 h 0.311092 v 1.54306 h -0.203605 v -1.35496 l -0.397909,1.05833 h -0.209806 l -0.397909,-1.05833 v 1.35496 h -0.202571 z" style="font-size:2.11666656px;stroke-width:.26458332"/><path id="path6086" d="m 74.535092,185.16613 q -0.227376,0 -0.361735,0.1695 -0.133325,0.1695 -0.133325,0.46199 0,0.29145 0.133325,0.46095 0.134359,0.1695 0.361735,0.1695 0.227377,0 0.359668,-0.1695 0.133326,-0.1695 0.133326,-0.46095 0,-0.29249 -0.133326,-0.46199 -0.132291,-0.1695 -0.359668,-0.1695 z m 0,-0.1695 q 0.324528,0 0.518832,0.21808 0.194303,0.21704 0.194303,0.58291 0,0.36483 -0.194303,0.58291 -0.194304,0.21704 -0.518832,0.21704 -0.325561,0 -0.520898,-0.21704 -0.194303,-0.21704 -0.194303,-0.58291 0,-0.36587 0.194303,-0.58291 0.195337,-0.21808 0.520898,-0.21808 z" style="font-size:2.11666656px;stroke-width:.26458332"/><path id="path6088" d="m 75.783595,185.1961 v 1.19993 h 0.252181 q 0.31936,0 0.467155,-0.14469 0.148828,-0.1447 0.148828,-0.45682 0,-0.31006 -0.148828,-0.45372 -0.147795,-0.1447 -0.467155,-0.1447 z m -0.208773,-0.17156 h 0.428915 q 0.448551,0 0.658357,0.18707 0.209807,0.18603 0.209807,0.58291 0,0.39894 -0.21084,0.58601 -0.21084,0.18707 -0.657324,0.18707 h -0.428915 z" style="font-size:2.11666656px;stroke-width:.26458332"/><path id="path6090" d="m 77.203663,185.02454 h 0.975651 v 0.1757 h -0.766878 v 0.45682 h 0.734839 v 0.1757 h -0.734839 v 0.55914 h 0.785482 v 0.1757 h -0.994255 z" style="font-size:2.11666656px;stroke-width:.26458332"/></g><g id="text6069" aria-label="MODE" style="font-style:normal;font-variant:normal;font-weight:400;font-stretch:normal;font-size:2.46944427px;line-height:6.61458302px;font-family:sans-serif;font-variant-ligatures:normal;font-variant-position:normal;font-variant-caps:normal;font-variant-numeric:normal;font-variant-alternates:normal;font-feature-settings:normal;text-indent:0;text-align:start;text-decoration:none;text-decoration-line:none;text-decoration-style:solid;text-decoration-color:#000;letter-spacing:0;word-spacing:0;text-transform:none;writing-mode:lr-tb;direction:ltr;text-orientation:mixed;dominant-baseline:auto;baseline-shift:baseline;text-anchor:start;white-space:normal;shape-padding:0;opacity:1;vector-effect:none;fill:#ffe1e1;fill-opacity:1;stroke:none;stroke-width:.26458332;stroke-linecap:butt;stroke-linejoin:miter;stroke-miterlimit:4;stroke-dasharray:none;stroke-dashoffset:0;stroke-opacity:1"><path id="path6093" d="m 62.020953,185.02454 h 0.311092 l 0.393774,1.05006 0.395842,-1.05006 h 0.311092 v 1.54306 h -0.203605 v -1.35496 l -0.397909,1.05833 h -0.209806 l -0.397909,-1.05833 v 1.35496 h -0.202571 z" style="font-size:2.11666656px;stroke-width:.26458332"/><path id="path6095" d="m 64.474549,185.16613 q -0.227376,0 -0.361735,0.1695 -0.133325,0.1695 -0.133325,0.46199 0,0.29145 0.133325,0.46095 0.134359,0.1695 0.361735,0.1695 0.227377,0 0.359668,-0.1695 0.133326,-0.1695 0.133326,-0.46095 0,-0.29249 -0.133326,-0.46199 -0.132291,-0.1695 -0.359668,-0.1695 z m 0,-0.1695 q 0.324528,0 0.518832,0.21808 0.194303,0.21704 0.194303,0.58291 0,0.36483 -0.194303,0.58291 -0.194304,0.21704 -0.518832,0.21704 -0.325561,0 -0.520898,-0.21704 -0.194303,-0.21704 -0.194303,-0.58291 0,-0.36587 0.194303,-0.58291 0.195337,-0.21808 0.520898,-0.21808 z" style="font-size:2.11666656px;stroke-width:.26458332"/><path id="path6097" d="m 65.723052,185.1961 v 1.19993 h 0.252181 q 0.31936,0 0.467155,-0.14469 0.148828,-0.1447 0.148828,-0.45682 0,-0.31006 -0.148828,-0.45372 -0.147795,-0.1447 -0.467155,-0.1447 z m -0.208773,-0.17156 h 0.428915 q 0.448551,0 0.658357,0.18707 0.209807,0.18603 0.209807,0.58291 0,0.39894 -0.21084,0.58601 -0.21084,0.18707 -0.657324,0.18707 h -0.428915 z" style="font-size:2.11666656px;stroke-width:.26458332"/><path id="path6099" d="m 67.14312,185.02454 h 0.975651 v 0.1757 h -0.766878 v 0.45682 h 0.734839 v 0.1757 h -0.734839 v 0.55914 h 0.785482 v 0.1757 H 67.14312 Z" style="font-size:2.11666656px;stroke-width:.26458332"/></g><path style="fill:none;stroke:#ffe1e1;stroke-width:.26458332px;stroke-linecap:butt;stroke-linejoin:miter;stroke-opacity:1" id="path6075" d="m 55.069404,180.60693 v 7.32032"/><circle id="path6150" cx="34.754" cy="197.753" r="2.544" style="opacity:.63700005;fill:#869295;fill-opacity:1;stroke:none;stroke-width:.19999999;stroke-miterlimit:4;stroke-dasharray:none;stroke-opacity:1"/><circle style="opacity:.63700005;fill:#869295;fill-opacity:1;stroke:none;stroke-width:.19999999;stroke-miterlimit:4;stroke-dasharray:none;stroke-opacity:1" id="circle6152" cx="105.871" cy="197.753" r="2.544"/><rect style="opacity:1;fill:#373737;fill-opacity:1;stroke:none;stroke-width:.22349682;stroke-miterlimit:4;stroke-dasharray:none;stroke-opacity:1" id="rect6154" width="81.095" height="6.484" x="30.203" y="194.458"/><rect id="rect6234" width="7.144" height="8.996" x="82.176" y="183.796" style="opacity:1;fill:#b695d3;fill-opacity:1;stroke:none;stroke-width:.13704112;stroke-miterlimit:4;stroke-dasharray:none;stroke-opacity:.78571424"/><g id="text975" aria-label="FG8 LFSR Sequencer" transform="translate(0,0.52916665)" style="font-style:normal;font-variant:normal;font-weight:400;font-stretch:normal;font-size:2.46944427px;line-height:6.61458302px;font-family:sans-serif;font-variant-ligatures:normal;font-variant-position:normal;font-variant-caps:normal;font-variant-numeric:normal;font-variant-alternates:normal;font-feature-settings:normal;text-indent:0;text-align:start;text-decoration:none;text-decoration-line:none;text-decoration-style:solid;text-decoration-color:#000;letter-spacing:0;word-spacing:0;text-transform:none;writing-mode:lr-tb;direction:ltr;text-orientation:mixed;dominant-baseline:auto;baseline-shift:baseline;text-anchor:start;white-space:normal;shape-padding:0;opacity:1;vector-effect:none;fill:#b9b9b9;fill-opacity:1;stroke:none;stroke-width:.26458332;stroke-linecap:butt;stroke-linejoin:miter;stroke-miterlimit:4;stroke-dasharray:none;stroke-dashoffset:0;stroke-opacity:1"><path id="path977" d="m 52.061026,165.49368 h 1.477946 v 0.29283 h -1.129991 v 0.75793 h 1.019748 v 0.29283 h -1.019748 v 1.22817 h -0.347955 z" style="font-size:3.52777767px;fill:#b9b9b9;fill-opacity:1;stroke-width:.26458332"/><path id="path979" d="m 55.847186,167.69854 v -0.69074 h -0.568441 v -0.28594 h 0.912951 v 1.10415 q -0.201538,0.14297 -0.444418,0.21704 -0.242879,0.0724 -0.518486,0.0724 -0.602892,0 -0.943957,-0.3514 -0.339341,-0.35312 -0.339341,-0.98185 0,-0.63046 0.339341,-0.98186 0.341065,-0.35312 0.943957,-0.35312 0.251491,0 0.477145,0.062 0.227377,0.062 0.418579,0.18259 v 0.37035 q -0.192925,-0.16364 -0.409966,-0.24632 -0.217041,-0.0827 -0.456475,-0.0827 -0.471978,0 -0.70969,0.26355 -0.235989,0.26354 -0.235989,0.78548 0,0.52021 0.235989,0.78376 0.237712,0.26355 0.70969,0.26355 0.184312,0 0.329006,-0.031 0.144694,-0.0327 0.260105,-0.0999 z" style="font-size:3.52777767px;fill:#b9b9b9;fill-opacity:1;stroke-width:.26458332"/><path id="path981" d="m 57.604185,166.84416 q -0.248047,0 -0.391019,0.13263 -0.141248,0.13264 -0.141248,0.36518 0,0.23255 0.141248,0.36519 0.142972,0.13263 0.391019,0.13263 0.248047,0 0.391018,-0.13263 0.142972,-0.13436 0.142972,-0.36519 0,-0.23254 -0.142972,-0.36518 -0.141249,-0.13263 -0.391018,-0.13263 z m -0.347955,-0.14814 q -0.223931,-0.0551 -0.349677,-0.20843 -0.124023,-0.15331 -0.124023,-0.37379 0,-0.30834 0.218763,-0.48748 0.220486,-0.17915 0.602892,-0.17915 0.384128,0 0.602891,0.17915 0.218764,0.17914 0.218764,0.48748 0,0.22048 -0.125746,0.37379 -0.124023,0.15331 -0.346232,0.20843 0.251492,0.0586 0.391018,0.2291 0.141249,0.17053 0.141249,0.41685 0,0.3738 -0.229099,0.57361 -0.227376,0.19982 -0.652845,0.19982 -0.42547,0 -0.654568,-0.19982 -0.227377,-0.19981 -0.227377,-0.57361 0,-0.24632 0.141249,-0.41685 0.141249,-0.17053 0.392741,-0.2291 z m -0.127468,-0.54949 q 0,0.19981 0.124023,0.31178 0.125746,0.11196 0.3514,0.11196 0.223931,0 0.349677,-0.11196 0.127468,-0.11197 0.127468,-0.31178 0,-0.19982 -0.127468,-0.31178 -0.125746,-0.11197 -0.349677,-0.11197 -0.225654,0 -0.3514,0.11197 -0.124023,0.11196 -0.124023,0.31178 z" style="font-size:3.52777767px;fill:#b9b9b9;fill-opacity:1;stroke-width:.26458332"/><path id="path983" d="m 60.198342,165.49368 h 0.347955 v 2.27893 h 1.252292 v 0.29283 h -1.600247 z" style="font-size:3.52777767px;fill:#b9b9b9;fill-opacity:1;stroke-width:.26458332"/><path id="path985" d="m 62.162046,165.49368 h 1.477946 v 0.29283 h -1.129991 v 0.75793 h 1.019748 v 0.29283 h -1.019748 v 1.22817 h -0.347955 z" style="font-size:3.52777767px;fill:#b9b9b9;fill-opacity:1;stroke-width:.26458332"/><path id="path987" d="m 65.677765,165.57809 v 0.33934 q -0.198093,-0.0947 -0.373792,-0.14125 -0.1757,-0.0465 -0.339342,-0.0465 -0.284221,0 -0.43925,0.11024 -0.153307,0.11025 -0.153307,0.31351 0,0.17053 0.101631,0.25838 0.103352,0.0861 0.389295,0.13953 l 0.210151,0.0431 q 0.389296,0.0741 0.573609,0.26183 0.186035,0.18603 0.186035,0.49954 0,0.37379 -0.251492,0.56671 -0.24977,0.19293 -0.733806,0.19293 -0.18259,0 -0.389295,-0.0413 -0.204984,-0.0413 -0.42547,-0.1223 v -0.35829 q 0.211874,0.11885 0.415134,0.17914 0.203261,0.0603 0.399631,0.0603 0.298001,0 0.459921,-0.11713 0.161919,-0.11714 0.161919,-0.33418 0,-0.18948 -0.117133,-0.29627 -0.115411,-0.1068 -0.380683,-0.1602 l -0.211874,-0.0413 q -0.389295,-0.0775 -0.563273,-0.24288 -0.173977,-0.16537 -0.173977,-0.45992 0,-0.34107 0.239434,-0.53744 0.241157,-0.19637 0.663181,-0.19637 0.180868,0 0.368625,0.0327 0.187758,0.0327 0.384128,0.0982 z" style="font-size:3.52777767px;fill:#b9b9b9;fill-opacity:1;stroke-width:.26458332"/><path id="path989" d="m 67.598407,166.85966 q 0.111965,0.0379 0.217041,0.16192 0.106798,0.12402 0.213596,0.34107 l 0.353122,0.70279 h -0.373793 l -0.329007,-0.65973 q -0.127468,-0.25838 -0.248046,-0.34279 -0.118856,-0.0844 -0.325562,-0.0844 h -0.37896 v 1.08692 h -0.347955 v -2.57176 h 0.785482 q 0.440972,0 0.658013,0.18431 0.217041,0.18432 0.217041,0.55639 0,0.24288 -0.113688,0.40307 -0.111966,0.1602 -0.327284,0.22221 z m -0.871609,-1.08004 v 0.91295 h 0.437527 q 0.251492,0 0.37896,-0.11541 0.129191,-0.11713 0.129191,-0.34278 0,-0.22566 -0.129191,-0.33935 -0.127468,-0.11541 -0.37896,-0.11541 z" style="font-size:3.52777767px;fill:#b9b9b9;fill-opacity:1;stroke-width:.26458332"/><path id="path991" d="m 71.496532,165.57809 v 0.33934 q -0.198093,-0.0947 -0.373793,-0.14125 -0.1757,-0.0465 -0.339342,-0.0465 -0.28422,0 -0.439249,0.11024 -0.153307,0.11025 -0.153307,0.31351 0,0.17053 0.10163,0.25838 0.103353,0.0861 0.389296,0.13953 l 0.210151,0.0431 q 0.389295,0.0741 0.573608,0.26183 0.186035,0.18603 0.186035,0.49954 0,0.37379 -0.251492,0.56671 -0.249769,0.19293 -0.733805,0.19293 -0.18259,0 -0.389296,-0.0413 -0.204983,-0.0413 -0.425469,-0.1223 v -0.35829 q 0.211873,0.11885 0.415134,0.17914 0.203261,0.0603 0.399631,0.0603 0.298001,0 0.45992,-0.11713 0.16192,-0.11714 0.16192,-0.33418 0,-0.18948 -0.117134,-0.29627 -0.11541,-0.1068 -0.380683,-0.1602 l -0.211873,-0.0413 q -0.389296,-0.0775 -0.563273,-0.24288 -0.173977,-0.16537 -0.173977,-0.45992 0,-0.34107 0.239434,-0.53744 0.241156,-0.19637 0.663181,-0.19637 0.180867,0 0.368625,0.0327 0.187758,0.0327 0.384128,0.0982 z" style="font-size:3.52777767px;fill:#b9b9b9;fill-opacity:1;stroke-width:.26458332"/><path id="path993" d="m 73.830583,167.02158 v 0.15503 h -1.457275 q 0.02067,0.32728 0.19637,0.49954 0.177423,0.17053 0.492649,0.17053 0.18259,0 0.353122,-0.0448 0.172255,-0.0448 0.341065,-0.13436 v 0.29972 q -0.170532,0.0724 -0.349677,0.11024 -0.179145,0.0379 -0.363458,0.0379 -0.461643,0 -0.732083,-0.26872 -0.268717,-0.26872 -0.268717,-0.72691 0,-0.4737 0.254937,-0.75103 0.256659,-0.27906 0.690741,-0.27906 0.389296,0 0.61495,0.25149 0.227376,0.24977 0.227376,0.68041 z m -0.316948,-0.093 q -0.0034,-0.2601 -0.146417,-0.41513 -0.141249,-0.15503 -0.375515,-0.15503 -0.265273,0 -0.42547,0.14986 -0.158474,0.14986 -0.18259,0.42203 z" style="font-size:3.52777767px;fill:#b9b9b9;fill-opacity:1;stroke-width:.26458332"/><path id="path995" d="m 74.540273,167.10254 q 0,0.34968 0.142971,0.54949 0.144694,0.1981 0.396186,0.1981 0.251492,0 0.396186,-0.1981 0.144694,-0.19981 0.144694,-0.54949 0,-0.34968 -0.144694,-0.54777 -0.144694,-0.19981 -0.396186,-0.19981 -0.251492,0 -0.396186,0.19981 -0.142971,0.19809 -0.142971,0.54777 z m 1.080037,0.67352 q -0.09991,0.17225 -0.253214,0.25666 -0.151584,0.0827 -0.36518,0.0827 -0.349677,0 -0.570163,-0.27905 -0.218764,-0.27906 -0.218764,-0.73381 0,-0.45475 0.218764,-0.7338 0.220486,-0.27906 0.570163,-0.27906 0.213596,0 0.36518,0.0844 0.153307,0.0827 0.253214,0.25493 v -0.29283 h 0.316949 v 2.66306 H 75.62031 Z" style="font-size:3.52777767px;fill:#b9b9b9;fill-opacity:1;stroke-width:.26458332"/><path id="path997" d="m 76.557377,167.30408 v -1.16789 h 0.316949 v 1.15583 q 0,0.27389 0.106798,0.41169 0.106798,0.13608 0.320394,0.13608 0.25666,0 0.404799,-0.16364 0.149861,-0.16364 0.149861,-0.44614 v -1.09382 h 0.316949 v 1.92925 h -0.316949 v -0.29627 q -0.11541,0.1757 -0.268717,0.26182 -0.151584,0.0844 -0.353122,0.0844 -0.332452,0 -0.504707,-0.20671 -0.172255,-0.2067 -0.172255,-0.60461 z" style="font-size:3.52777767px;fill:#b9b9b9;fill-opacity:1;stroke-width:.26458332"/><path id="path999" d="m 80.479618,167.02158 v 0.15503 h -1.457276 q 0.02067,0.32728 0.196371,0.49954 0.177422,0.17053 0.492649,0.17053 0.18259,0 0.353122,-0.0448 0.172255,-0.0448 0.341064,-0.13436 v 0.29972 q -0.170532,0.0724 -0.349677,0.11024 -0.179145,0.0379 -0.363457,0.0379 -0.461643,0 -0.732083,-0.26872 -0.268718,-0.26872 -0.268718,-0.72691 0,-0.4737 0.254937,-0.75103 0.25666,-0.27906 0.690742,-0.27906 0.389296,0 0.61495,0.25149 0.227376,0.24977 0.227376,0.68041 z m -0.316949,-0.093 q -0.0034,-0.2601 -0.146417,-0.41513 -0.141248,-0.15503 -0.375515,-0.15503 -0.265272,0 -0.425469,0.14986 -0.158475,0.14986 -0.18259,0.42203 z" style="font-size:3.52777767px;fill:#b9b9b9;fill-opacity:1;stroke-width:.26458332"/><path id="path1001" d="m 82.603519,166.901 v 1.16444 H 82.28657 v -1.1541 q 0,-0.27389 -0.106798,-0.40997 -0.106798,-0.13608 -0.320393,-0.13608 -0.25666,0 -0.404799,0.16364 -0.148139,0.16364 -0.148139,0.44614 v 1.09037 h -0.318672 v -1.92925 h 0.318672 v 0.29972 q 0.113688,-0.17397 0.266995,-0.2601 0.155029,-0.0861 0.356567,-0.0861 0.332452,0 0.502984,0.20671 0.170532,0.20498 0.170532,0.60461 z" style="font-size:3.52777767px;fill:#b9b9b9;fill-opacity:1;stroke-width:.26458332"/><path id="path1003" d="m 84.627512,166.21026 v 0.29628 q -0.134359,-0.0741 -0.27044,-0.11024 -0.134359,-0.0379 -0.272163,-0.0379 -0.308336,0 -0.478868,0.19637 -0.170532,0.19465 -0.170532,0.54777 0,0.35312 0.170532,0.54949 0.170532,0.19465 0.478868,0.19465 0.137804,0 0.272163,-0.0362 0.136081,-0.0379 0.27044,-0.11197 v 0.29284 q -0.132636,0.062 -0.275608,0.093 -0.141249,0.031 -0.301446,0.031 -0.435804,0 -0.692464,-0.27389 -0.256659,-0.27388 -0.256659,-0.73897 0,-0.47198 0.258382,-0.74242 0.260105,-0.27044 0.711412,-0.27044 0.146417,0 0.285943,0.031 0.139526,0.0293 0.27044,0.0896 z" style="font-size:3.52777767px;fill:#b9b9b9;fill-opacity:1;stroke-width:.26458332"/><path id="path1005" d="m 86.832372,167.02158 v 0.15503 h -1.457275 q 0.02067,0.32728 0.19637,0.49954 0.177423,0.17053 0.492649,0.17053 0.18259,0 0.353122,-0.0448 0.172255,-0.0448 0.341065,-0.13436 v 0.29972 q -0.170532,0.0724 -0.349677,0.11024 -0.179145,0.0379 -0.363458,0.0379 -0.461643,0 -0.732083,-0.26872 -0.268717,-0.26872 -0.268717,-0.72691 0,-0.4737 0.254937,-0.75103 0.25666,-0.27906 0.690742,-0.27906 0.389295,0 0.614949,0.25149 0.227376,0.24977 0.227376,0.68041 z m -0.316948,-0.093 q -0.0034,-0.2601 -0.146417,-0.41513 -0.141249,-0.15503 -0.375515,-0.15503 -0.265273,0 -0.42547,0.14986 -0.158474,0.14986 -0.18259,0.42203 z" style="font-size:3.52777767px;fill:#b9b9b9;fill-opacity:1;stroke-width:.26458332"/><path id="path1007" d="m 88.470515,166.43247 q -0.0534,-0.031 -0.117133,-0.0448 -0.06201,-0.0155 -0.137804,-0.0155 -0.268717,0 -0.413411,0.1757 -0.142972,0.17398 -0.142972,0.50126 v 1.0163 h -0.318671 v -1.92925 h 0.318671 v 0.29972 q 0.09991,-0.1757 0.260105,-0.2601 0.160197,-0.0861 0.389296,-0.0861 0.03273,0 0.07235,0.005 0.03962,0.003 0.08785,0.0121 z" style="font-size:3.52777767px;fill:#b9b9b9;fill-opacity:1;stroke-width:.26458332"/></g><g id="text1023" aria-label="CHROMATIC" style="font-style:normal;font-variant:normal;font-weight:400;font-stretch:normal;font-size:2.46944427px;line-height:6.61458302px;font-family:sans-serif;font-variant-ligatures:normal;font-variant-position:normal;font-variant-caps:normal;font-variant-numeric:normal;font-variant-alternates:normal;font-feature-settings:normal;text-indent:0;text-align:start;text-decoration:none;text-decoration-line:none;text-decoration-style:solid;text-decoration-color:#000;letter-spacing:0;word-spacing:0;text-transform:none;writing-mode:lr-tb;direction:ltr;text-orientation:mixed;dominant-baseline:auto;baseline-shift:baseline;text-anchor:start;white-space:normal;shape-padding:0;opacity:1;vector-effect:none;fill:#ffe1e1;fill-opacity:1;stroke:none;stroke-width:.26458332;stroke-linecap:butt;stroke-linejoin:miter;stroke-miterlimit:4;stroke-dasharray:none;stroke-dashoffset:0;stroke-opacity:1"><path id="path1037" d="m 93.15562,191.95146 v 0.16878 q -0.08082,-0.0753 -0.172737,-0.11252 -0.09112,-0.0372 -0.194131,-0.0372 -0.202848,0 -0.31061,0.1244 -0.107763,0.12361 -0.107763,0.35815 0,0.23375 0.107763,0.35816 0.107762,0.12361 0.31061,0.12361 0.103008,0 0.194131,-0.0373 0.09192,-0.0372 0.172737,-0.11251 v 0.16719 q -0.08399,0.0571 -0.178284,0.0856 -0.0935,0.0285 -0.198093,0.0285 -0.268614,0 -0.423126,-0.16402 -0.154513,-0.16482 -0.154513,-0.44928 0,-0.28525 0.154513,-0.44927 0.154512,-0.16482 0.423126,-0.16482 0.106178,0 0.199678,0.0285 0.09429,0.0277 0.176699,0.084 z" style="font-size:1.6227777px;stroke-width:.26458332"/><path id="path1039" d="m 93.404425,191.86034 h 0.160059 v 0.48493 h 0.581601 v -0.48493 h 0.160059 v 1.18301 h -0.160059 v -0.56338 h -0.581601 v 0.56338 h -0.160059 z" style="font-size:1.6227777px;stroke-width:.26458332"/><path id="path1041" d="m 95.185677,192.48869 q 0.0515,0.0174 0.09984,0.0745 0.04913,0.057 0.09825,0.15689 l 0.162436,0.32329 h -0.171945 l -0.151343,-0.30348 q -0.05864,-0.11885 -0.114101,-0.15768 -0.05467,-0.0388 -0.149759,-0.0388 h -0.174321 v 0.49999 h -0.16006 v -1.18301 h 0.361322 q 0.202847,0 0.302686,0.0848 0.09984,0.0848 0.09984,0.25594 0,0.11172 -0.0523,0.18541 -0.0515,0.0737 -0.15055,0.10222 z m -0.40094,-0.49682 v 0.41996 h 0.201262 q 0.115686,0 0.174322,-0.0531 0.05943,-0.0539 0.05943,-0.15768 0,-0.1038 -0.05943,-0.1561 -0.05864,-0.0531 -0.174322,-0.0531 z" style="font-size:1.6227777px;stroke-width:.26458332"/><path id="path1043" d="m 96.233192,191.96889 q -0.174322,0 -0.27733,0.12995 -0.102216,0.12995 -0.102216,0.35419 0,0.22345 0.102216,0.3534 0.103008,0.12995 0.27733,0.12995 0.174322,0 0.275746,-0.12995 0.102216,-0.12995 0.102216,-0.3534 0,-0.22424 -0.102216,-0.35419 -0.101424,-0.12995 -0.275746,-0.12995 z m 0,-0.12995 q 0.248805,0 0.397771,0.1672 0.148966,0.16639 0.148966,0.44689 0,0.27971 -0.148966,0.4469 -0.148966,0.1664 -0.397771,0.1664 -0.249597,0 -0.399355,-0.1664 -0.148966,-0.1664 -0.148966,-0.4469 0,-0.2805 0.148966,-0.44689 0.149758,-0.1672 0.399355,-0.1672 z" style="font-size:1.6227777px;stroke-width:.26458332"/><path id="path1045" d="m 97.030319,191.86034 h 0.238503 l 0.301894,0.80505 0.303479,-0.80505 h 0.238504 v 1.18301 h -0.156098 v -1.0388 l -0.305063,0.81139 h -0.160851 l -0.305064,-0.81139 v 1.0388 h -0.155304 z" style="font-size:1.6227777px;stroke-width:.26458332"/><path id="path1047" d="m 98.826626,192.01802 -0.21711,0.58873 h 0.435012 z m -0.09033,-0.15768 h 0.181454 l 0.450859,1.18301 H 99.20221 l -0.107762,-0.30348 h -0.533267 l -0.107762,0.30348 h -0.168776 z" style="font-size:1.6227777px;stroke-width:.26458332"/><path id="path1049" d="m 99.249752,191.86034 h 1.000768 v 0.1347 h -0.419959 v 1.04831 h -0.160852 v -1.04831 h -0.419957 z" style="font-size:1.6227777px;stroke-width:.26458332"/><path id="path1051" d="m 100.40582,191.86034 h 0.16006 v 1.18301 h -0.16006 z" style="font-size:1.6227777px;stroke-width:.26458332"/><path id="path1053" d="m 101.77029,191.95146 v 0.16878 q -0.0808,-0.0753 -0.17274,-0.11252 -0.0911,-0.0372 -0.19413,-0.0372 -0.20285,0 -0.31061,0.1244 -0.10776,0.12361 -0.10776,0.35815 0,0.23375 0.10776,0.35816 0.10776,0.12361 0.31061,0.12361 0.10301,0 0.19413,-0.0373 0.0919,-0.0372 0.17274,-0.11251 v 0.16719 q -0.084,0.0571 -0.17829,0.0856 -0.0935,0.0285 -0.19809,0.0285 -0.26861,0 -0.42313,-0.16402 -0.15451,-0.16482 -0.15451,-0.44928 0,-0.28525 0.15451,-0.44927 0.15452,-0.16482 0.42313,-0.16482 0.10618,0 0.19968,0.0285 0.0943,0.0277 0.1767,0.084 z" style="font-size:1.6227777px;stroke-width:.26458332"/></g><g id="text1027" aria-label="DIATONIC" style="font-style:normal;font-variant:normal;font-weight:400;font-stretch:normal;font-size:2.46944427px;line-height:6.61458302px;font-family:sans-serif;font-variant-ligatures:normal;font-variant-position:normal;font-variant-caps:normal;font-variant-numeric:normal;font-variant-alternates:normal;font-feature-settings:normal;text-indent:0;text-align:start;text-decoration:none;text-decoration-line:none;text-decoration-style:solid;text-decoration-color:#000;letter-spacing:0;word-spacing:0;text-transform:none;writing-mode:lr-tb;direction:ltr;text-orientation:mixed;dominant-baseline:auto;baseline-shift:baseline;text-anchor:start;white-space:normal;shape-padding:0;opacity:1;vector-effect:none;fill:#ffe1e1;fill-opacity:1;stroke:none;stroke-width:.26458332;stroke-linecap:butt;stroke-linejoin:miter;stroke-miterlimit:4;stroke-dasharray:none;stroke-dashoffset:0;stroke-opacity:1"><path id="path1056" d="m 93.354917,183.78155 v 0.91994 h 0.193339 q 0.244843,0 0.358152,-0.11093 0.114101,-0.11093 0.114101,-0.35023 0,-0.23771 -0.114101,-0.34785 -0.113309,-0.11093 -0.358152,-0.11093 z m -0.160059,-0.13154 h 0.328834 q 0.34389,0 0.504741,0.14342 0.160852,0.14263 0.160852,0.4469 0,0.30585 -0.161644,0.44927 -0.161644,0.14342 -0.503949,0.14342 h -0.328834 z" style="font-size:1.6227777px;stroke-width:.26458332"/><path id="path1058" d="m 94.443636,183.65001 h 0.160059 v 1.18301 h -0.160059 z" style="font-size:1.6227777px;stroke-width:.26458332"/><path id="path1060" d="m 95.317622,183.80769 -0.21711,0.58874 h 0.435012 z m -0.09033,-0.15768 h 0.181453 l 0.45086,1.18301 h -0.166398 l -0.107763,-0.30348 h -0.533266 l -0.107763,0.30348 H 94.77564 Z" style="font-size:1.6227777px;stroke-width:.26458332"/><path id="path1062" d="m 95.740749,183.65001 h 1.000766 v 0.13471 h -0.419957 v 1.0483 h -0.160852 v -1.0483 h -0.419957 z" style="font-size:1.6227777px;stroke-width:.26458332"/><path id="path1064" d="m 97.376997,183.75857 q -0.174322,0 -0.27733,0.12995 -0.102216,0.12994 -0.102216,0.35419 0,0.22344 0.102216,0.35339 0.103008,0.12995 0.27733,0.12995 0.174322,0 0.275745,-0.12995 0.102216,-0.12995 0.102216,-0.35339 0,-0.22425 -0.102216,-0.35419 -0.101423,-0.12995 -0.275745,-0.12995 z m 0,-0.12995 q 0.248805,0 0.39777,0.16719 0.148966,0.1664 0.148966,0.4469 0,0.2797 -0.148966,0.44689 -0.148965,0.1664 -0.39777,0.1664 -0.249597,0 -0.399356,-0.1664 -0.148966,-0.16639 -0.148966,-0.44689 0,-0.2805 0.148966,-0.4469 0.149759,-0.16719 0.399356,-0.16719 z" style="font-size:1.6227777px;stroke-width:.26458332"/><path id="path1066" d="m 98.174123,183.65001 h 0.215525 l 0.52455,0.98967 v -0.98967 h 0.155305 v 1.18301 h -0.215525 l -0.52455,-0.98967 v 0.98967 h -0.155305 z" style="font-size:1.6227777px;stroke-width:.26458332"/><path id="path1068" d="m 99.388037,183.65001 h 0.160059 v 1.18301 h -0.160059 z" style="font-size:1.6227777px;stroke-width:.26458332"/><path id="path1070" d="m 100.7525,183.74113 v 0.16878 q -0.0808,-0.0753 -0.17274,-0.11252 -0.0911,-0.0372 -0.19413,-0.0372 -0.20284,0 -0.31061,0.1244 -0.107759,0.12361 -0.107759,0.35816 0,0.23375 0.107759,0.35815 0.10777,0.12361 0.31061,0.12361 0.10301,0 0.19413,-0.0372 0.0919,-0.0372 0.17274,-0.11252 v 0.16719 q -0.084,0.0571 -0.17828,0.0856 -0.0935,0.0285 -0.1981,0.0285 -0.26861,0 -0.423122,-0.16402 -0.154513,-0.16481 -0.154513,-0.44927 0,-0.28526 0.154513,-0.44928 0.154512,-0.16481 0.423122,-0.16481 0.10618,0 0.19968,0.0285 0.0943,0.0277 0.1767,0.084 z" style="font-size:1.6227777px;stroke-width:.26458332"/></g><flowRoot style="font-style:normal;font-variant:normal;font-weight:400;font-stretch:normal;font-size:9.33333301px;line-height:25px;font-family:sans-serif;font-variant-ligatures:normal;font-variant-position:normal;font-variant-caps:normal;font-variant-numeric:normal;font-variant-alternates:normal;font-variant-east_asian:normal;font-feature-settings:normal;text-indent:0;text-align:start;text-decoration:none;text-decoration-line:none;text-decoration-style:solid;text-decoration-color:#000;letter-spacing:0;word-spacing:0;text-transform:none;writing-mode:lr-tb;direction:ltr;text-orientation:mixed;dominant-baseline:auto;baseline-shift:baseline;text-anchor:start;white-space:normal;shape-padding:0;opacity:1;vector-effect:none;fill:#ffe1e1;fill-opacity:1;stroke:none;stroke-width:.99999999;stroke-linecap:butt;stroke-linejoin:miter;stroke-miterlimit:4;stroke-dasharray:none;stroke-dashoffset:0;stroke-opacity:1" id="flowRoot1029" xml:space="preserve"><flowRegion id="flowRegion1031"><rect id="rect1033" width="22.29" height="27.972" x="-59.877" y="143.551"/></flowRegion><flowPara id="flowPara1035"/></flowRoot></g></svg>