<svg xmlns="http://www.w3.org/2000/svg" xmlns:svg="http://www.w3.org/2000/svg" id="svg15246" width="40" height="40" version="1.1" viewBox="0 0 10.583 10.583"><defs id="defs15240"><clipPath id="clip89"><rect id="rect4864" width="18" height="19" x="0" y="0"/></clipPath><clipPath id="clip90"><path id="path4861" d="m 0.898438,0.128906 h 16.25 v 17.882813 h -16.25 z m 0,0"/></clipPath><mask id="mask44"><g style="filter:url(#alpha)" id="g4858" transform="matrix(0.26458333,0,0,0.26458333,89.358789,128.57765)"><rect style="fill:#000;fill-opacity:.14999402;stroke:none" id="rect4856" width="3052.87" height="3351.5" x="0" y="0"/></g></mask><filter id="alpha" width="1" height="1" x="0" y="0" filterUnits="objectBoundingBox"><feColorMatrix id="feColorMatrix4149" in="SourceGraphic" type="matrix" values="0 0 0 0 1 0 0 0 0 1 0 0 0 0 1 0 0 0 1 0"/></filter><clipPath id="clipPath17821"><rect id="rect17819" width="18" height="19" x="0" y="0"/></clipPath><clipPath id="clipPath17825"><path id="path17823" d="m 0.898438,0.128906 h 16.25 v 17.882813 h -16.25 z m 0,0"/></clipPath><clipPath id="clip87"><rect id="rect4848" width="24" height="26" x="0" y="0"/></clipPath><clipPath id="clip88"><path id="path4845" d="m 0.683594,0.921875 h 22.679687 v 24.9375 H 0.683594 Z m 0,0"/></clipPath><mask id="mask43"><g style="filter:url(#alpha)" id="g4842" transform="matrix(0.26458333,0,0,0.26458333,89.358789,128.57765)"><rect style="fill:#000;fill-opacity:.14999402;stroke:none" id="rect4840" width="3052.87" height="3351.5" x="0" y="0"/></g></mask><filter id="filter17836" width="1" height="1" x="0" y="0" filterUnits="objectBoundingBox"><feColorMatrix id="feColorMatrix17834" in="SourceGraphic" type="matrix" values="0 0 0 0 1 0 0 0 0 1 0 0 0 0 1 0 0 0 1 0"/></filter><clipPath id="clipPath17840"><rect id="rect17838" width="24" height="26" x="0" y="0"/></clipPath><clipPath id="clipPath17844"><path id="path17842" d="m 0.683594,0.921875 h 22.679687 v 24.9375 H 0.683594 Z m 0,0"/></clipPath><clipPath id="clip95"><rect id="rect4912" width="18" height="18" x="0" y="0"/></clipPath><clipPath id="clip96"><path id="path4909" d="M 0.140625,0.140625 H 17.199219 V 17.199219 H 0.140625 Z m 0,0"/></clipPath><mask id="mask47"><g style="filter:url(#alpha-3)" id="g4906" transform="matrix(0.26458333,0,0,0.26458333,88.611154,119.19859)"><rect style="fill:#000;fill-opacity:.33000201;stroke:none" id="rect4904" width="3052.87" height="3351.5" x="0" y="0"/></g></mask><filter id="alpha-3" width="1" height="1" x="0" y="0" filterUnits="objectBoundingBox"><feColorMatrix id="feColorMatrix4149-6" in="SourceGraphic" type="matrix" values="0 0 0 0 1 0 0 0 0 1 0 0 0 0 1 0 0 0 1 0"/></filter><clipPath id="clipPath18541"><rect id="rect18539" width="18" height="18" x="0" y="0"/></clipPath><clipPath id="clipPath18545"><path id="path18543" d="M 0.140625,0.140625 H 17.199219 V 17.199219 H 0.140625 Z m 0,0"/></clipPath><clipPath id="clip93"><rect id="rect4896" width="22" height="24" x="0" y="0"/></clipPath><clipPath id="clip94"><path id="path4893" d="M 0.0390625,0.0390625 H 21.300781 V 23.421875 H 0.0390625 Z m 0,0"/></clipPath><mask id="mask46"><g style="filter:url(#alpha-3)" id="g4890" transform="matrix(0.26458333,0,0,0.26458333,88.611154,119.19859)"><rect style="fill:#000;fill-opacity:.14999402;stroke:none" id="rect4888" width="3052.87" height="3351.5" x="0" y="0"/></g></mask><filter id="filter18556" width="1" height="1" x="0" y="0" filterUnits="objectBoundingBox"><feColorMatrix id="feColorMatrix18554" in="SourceGraphic" type="matrix" values="0 0 0 0 1 0 0 0 0 1 0 0 0 0 1 0 0 0 1 0"/></filter><clipPath id="clipPath18560"><rect id="rect18558" width="22" height="24" x="0" y="0"/></clipPath><clipPath id="clipPath18564"><path id="path18562" d="M 0.0390625,0.0390625 H 21.300781 V 23.421875 H 0.0390625 Z m 0,0"/></clipPath><clipPath id="clip91"><rect id="rect4880" width="29" height="32" x="0" y="0"/></clipPath><clipPath id="clip92"><path id="path4877" d="M 0.507812,0.5 H 28.855469 V 31.679688 H 0.507812 Z m 0,0"/></clipPath><mask id="mask45"><g style="filter:url(#alpha-3)" id="g4874" transform="matrix(0.26458333,0,0,0.26458333,88.611154,119.19859)"><rect style="fill:#000;fill-opacity:.14999402;stroke:none" id="rect4872" width="3052.87" height="3351.5" x="0" y="0"/></g></mask><filter id="filter18575" width="1" height="1" x="0" y="0" filterUnits="objectBoundingBox"><feColorMatrix id="feColorMatrix18573" in="SourceGraphic" type="matrix" values="0 0 0 0 1 0 0 0 0 1 0 0 0 0 1 0 0 0 1 0"/></filter><clipPath id="clipPath18579"><rect id="rect18577" width="29" height="32" x="0" y="0"/></clipPath><clipPath id="clipPath18583"><path id="path18581" d="M 0.507812,0.5 H 28.855469 V 31.679688 H 0.507812 Z m 0,0"/></clipPath><clipPath id="clip202"><rect id="rect5795" width="18" height="18" x="0" y="0"/></clipPath><clipPath id="clip203"><path id="path5792" d="M 0.855469,0.140625 H 17.914062 V 17.199219 H 0.855469 Z m 0,0"/></clipPath><mask id="mask104"><g style="filter:url(#alpha-7)" id="g5789" transform="matrix(0.26458333,0,0,0.26458333,74.416306,97.613551)"><rect style="fill:#000;fill-opacity:.33000201;stroke:none" id="rect5787" width="3052.87" height="3351.5" x="0" y="0"/></g></mask><filter id="alpha-7" width="1" height="1" x="0" y="0" filterUnits="objectBoundingBox"><feColorMatrix id="feColorMatrix4149-5" in="SourceGraphic" type="matrix" values="0 0 0 0 1 0 0 0 0 1 0 0 0 0 1 0 0 0 1 0"/></filter><clipPath id="clipPath18765"><rect id="rect18763" width="18" height="18" x="0" y="0"/></clipPath><clipPath id="clipPath18769"><path id="path18767" d="M 0.855469,0.140625 H 17.914062 V 17.199219 H 0.855469 Z m 0,0"/></clipPath></defs><metadata id="metadata15243"/><g id="layer1" transform="translate(-35.482976,-105.73706)"><path id="path8601" d="m 46.06631,111.02849 c 0,2.92245 -2.369093,5.2919 -5.291667,5.2919 -2.922574,0 -5.291667,-2.36945 -5.291667,-5.2919 0,-2.92198 2.369093,-5.29143 5.291667,-5.29143 2.922574,0 5.291667,2.36945 5.291667,5.29143" style="fill:#dcdcdc;fill-opacity:1;fill-rule:nonzero;stroke:none;stroke-width:.11719339"/><circle style="fill:#575757;fill-opacity:1;stroke-width:.38574767" id="path1133" cx="40.775" cy="111.029" r="4.774"/><path id="path8605" d="m 40.945702,105.99017 c 0,0.103 -0.08377,0.18586 -0.186318,0.18586 -0.102546,0 -0.185861,-0.0829 -0.185861,-0.18586 0,-0.10299 0.08331,-0.18585 0.185861,-0.18585 0.102547,0 0.186318,0.0829 0.186318,0.18585" style="fill:#000;fill-opacity:1;fill-rule:nonzero;stroke:none;stroke-width:.11719339"/><g style="font-style:normal;font-weight:400;font-size:1.35324597px;line-height:1.25;font-family:sans-serif;letter-spacing:0;word-spacing:0;fill:#000;fill-opacity:1;stroke:none;stroke-width:.16915575" id="text896" aria-label="HI Mom!" transform="matrix(0.62720305,0,0,0.66294248,14.493547,41.715608)"><path style="stroke-width:.16915575" id="path898" d="m 39.218358,108.43622 h 0.133475 v 0.40438 h 0.485001 v -0.40438 h 0.133474 v 0.98652 h -0.133474 v -0.46981 h -0.485001 v 0.46981 h -0.133475 z"/><path style="stroke-width:.16915575" id="path900" d="m 40.235936,108.43622 h 0.133474 v 0.98652 h -0.133474 z"/><path style="stroke-width:.16915575" id="path902" d="m 41.065856,108.43622 h 0.19889 l 0.251752,0.67133 0.253073,-0.67133 h 0.19889 v 0.98652 H 41.83829 v -0.86627 l -0.254394,0.67663 H 41.44976 l -0.254394,-0.67663 v 0.86627 h -0.12951 z"/><path style="stroke-width:.16915575" id="path904" d="m 42.515574,108.76792 q -0.09779,0 -0.154619,0.0767 -0.05683,0.076 -0.05683,0.2088 0,0.13281 0.05617,0.20946 0.05683,0.076 0.15528,0.076 0.09713,0 0.153958,-0.0767 0.05683,-0.0767 0.05683,-0.2088 0,-0.13149 -0.05683,-0.20814 -0.05683,-0.0773 -0.153958,-0.0773 z m 0,-0.10308 q 0.158583,0 0.249108,0.10308 0.09052,0.10308 0.09052,0.28545 0,0.18171 -0.09052,0.28545 -0.09052,0.10308 -0.249108,0.10308 -0.159245,0 -0.249769,-0.10308 -0.08986,-0.10374 -0.08986,-0.28545 0,-0.18237 0.08986,-0.28545 0.09052,-0.10308 0.249769,-0.10308 z"/><path style="stroke-width:.16915575" id="path906" d="m 43.632266,108.82475 q 0.04559,-0.0819 0.109026,-0.12092 0.06343,-0.039 0.149333,-0.039 0.115634,0 0.178406,0.0813 0.06277,0.0806 0.06277,0.22995 v 0.44668 H 44.00956 v -0.44272 q 0,-0.10638 -0.03766,-0.15792 -0.03766,-0.0515 -0.114973,-0.0515 -0.09449,0 -0.149333,0.0628 -0.05484,0.0628 -0.05484,0.17113 v 0.41827 h -0.122242 v -0.44272 q 0,-0.10704 -0.03766,-0.15792 -0.03766,-0.0515 -0.116295,-0.0515 -0.09317,0 -0.148011,0.0634 -0.05484,0.0628 -0.05484,0.17047 v 0.41827 h -0.122241 v -0.74006 h 0.122241 v 0.11497 q 0.04163,-0.068 0.09978,-0.10043 0.05815,-0.0324 0.1381,-0.0324 0.08061,0 0.136778,0.041 0.05683,0.041 0.08392,0.11894 z"/><path style="stroke-width:.16915575" id="path908" d="m 44.451614,109.2549 h 0.134135 v 0.16784 h -0.134135 z m 0,-0.81868 h 0.134135 v 0.4328 l -0.01322,0.23589 H 44.46549 l -0.01388,-0.23589 z"/></g></g></svg>