<svg xmlns="http://www.w3.org/2000/svg" xmlns:svg="http://www.w3.org/2000/svg" id="svg6" width="22.677" height="42.183" version="1.1" viewBox="0 0 6 11.161"><metadata id="metadata12"/><g id="text2" aria-label="±10" style="font-weight:700;font-size:2.37066674px;font-family:'Proxima Nova';dominant-baseline:alphabetic;text-anchor:middle;fill:#04c"><path id="path14" d="M 1.8843605,0.8076071 H 2.3087099 V 0.62269509 H 1.8843605 V 0.15567374 h -0.206248 v 0.46702135 h -0.42672 V 0.8076071 h 0.42672 v 0.483616 h 0.206248 z M 1.2513925,1.5804445 H 2.3087099 V 1.3955324 H 1.2513925 Z" style="font-weight:700;font-size:2.37066674px;font-family:'Proxima Nova';dominant-baseline:alphabetic;text-anchor:middle;fill:#04c"/><path id="path16" d="M 2.8584823,1.5804445 H 3.195117 V -7.9026198e-4 H 2.9011543 L 2.4033143,0.49942042 2.5953383,0.70092709 2.8584823,0.43304175 Z" style="font-weight:700;font-size:2.37066674px;font-family:'Proxima Nova';dominant-baseline:alphabetic;text-anchor:middle;fill:#04c"/><path id="path18" d="m 3.4301834,0.79101243 c 0,0.40775467 0.2015067,0.81788007 0.6543041,0.81788007 0.4504266,0 0.654304,-0.4101254 0.654304,-0.81788007 0,-0.40775468 -0.2038774,-0.81550936 -0.654304,-0.81550936 -0.4527974,0 -0.6543041,0.40775468 -0.6543041,0.81550936 z m 0.9648614,0 c 0,0.29159197 -0.085344,0.51917597 -0.3105573,0.51917597 -0.2275841,0 -0.3129281,-0.227584 -0.3129281,-0.51917597 0,-0.29159201 0.085344,-0.51680535 0.3129281,-0.51680535 0.2252133,0 0.3105573,0.22521334 0.3105573,0.51680535 z" style="font-weight:700;font-size:2.37066674px;font-family:'Proxima Nova';dominant-baseline:alphabetic;text-anchor:middle;fill:#04c"/></g><circle id="circle4" cx="3" cy="5.58" r="2.5" fill="#04c" stroke="#04c" stroke-width="1"/></svg>