<svg xmlns="http://www.w3.org/2000/svg" xmlns:svg="http://www.w3.org/2000/svg" id="svg6" width="22.677" height="42.183" version="1.1" viewBox="0 0 6 11.161"><metadata id="metadata12"/><g id="text2" aria-label="0–2" style="font-weight:700;font-size:2.37066674px;font-family:'Proxima Nova';dominant-baseline:alphabetic;text-anchor:middle;fill:#04c"><path id="path14" d="m 0.93218593,0.79101243 c 0,0.40775467 0.20150667,0.81788007 0.65430407,0.81788007 0.4504266,0 0.654304,-0.4101254 0.654304,-0.81788007 0,-0.40775468 -0.2038774,-0.81550936 -0.654304,-0.81550936 -0.4527974,0 -0.65430407,0.40775468 -0.65430407,0.81550936 z m 0.96486137,0 c 0,0.29159197 -0.085344,0.51917597 -0.3105573,0.51917597 -0.2275841,0 -0.3129281,-0.227584 -0.3129281,-0.51917597 0,-0.29159201 0.085344,-0.51680535 0.3129281,-0.51680535 0.2252133,0 0.3105573,0.22521334 0.3105573,0.51680535 z" style="font-weight:700;font-size:2.37066674px;font-family:'Proxima Nova';dominant-baseline:alphabetic;text-anchor:middle;fill:#04c"/><path id="path16" d="M 2.3904793,1.1347591 H 3.6540447 V 0.8787271 H 2.3904793 Z" style="font-weight:700;font-size:2.37066674px;font-family:'Proxima Nova';dominant-baseline:alphabetic;text-anchor:middle;fill:#04c"/><path id="path18" d="M 3.8383641,1.5804445 H 5.0284388 V 1.2841111 H 4.3836175 c 0.4101253,-0.298704 0.632968,-0.5334 0.632968,-0.80365601 0,-0.31529868 -0.2678853,-0.50495202 -0.60452,-0.50495202 -0.220472,0 -0.455168,0.08060267 -0.6092614,0.25840268 l 0.192024,0.22284267 c 0.10668,-0.11142134 0.2441787,-0.18254134 0.4243494,-0.18254134 0.1303867,0 0.256032,0.0687493 0.256032,0.20624801 0,0.19439467 -0.1896533,0.35797067 -0.8368454,0.83447471 z" style="font-weight:700;font-size:2.37066674px;font-family:'Proxima Nova';dominant-baseline:alphabetic;text-anchor:middle;fill:#04c"/></g><circle id="circle4" cx="3" cy="5.58" r="2.5" fill="#04c" stroke="#04c" stroke-width="1"/></svg>