<svg xmlns="http://www.w3.org/2000/svg" xmlns:svg="http://www.w3.org/2000/svg" id="svg11502" width="16" height="16" x="0" y="0" enable-background="new 0 0 100 100" version="1.1" viewBox="0 0 16 16" xml:space="preserve"><metadata id="metadata11508"/><path id="path11490" d="M 8.666667,4.04 V 3.333333 H 9.333333 V 2 H 6.666667 V 3.333333 H 7.333333 V 4.04 C 4.893333,4.373333 3,6.466667 3,9 c 0,2.76 2.24,5 5,5 2.76,0 5,-2.24 5,-5 C 13,6.466667 11.106667,4.373333 8.666667,4.04 Z M 8,12.666667 c -2.026667,0 -3.666667,-1.64 -3.666667,-3.666667 0,-2.026667 1.64,-3.666667 3.666667,-3.666667 2.026667,0 3.666667,1.64 3.666667,3.666667 0,2.026667 -1.64,3.666667 -3.666667,3.666667 z" style="fill:#b4b4b4;fill-opacity:1;stroke-width:.13333334"/><path id="path11492" d="M 3.013333,4.08 3.96,5.013333 C 4.493333,4.466667 5.12,4.053333 5.826667,3.76 L 5.32,2.533333 c -0.866667,0.36 -1.653333,0.88 -2.306667,1.546667 z" style="fill:#b4b4b4;fill-opacity:1;stroke-width:.13333334"/><path id="path11494" d="m 12.92,4.013333 c -0.653333,-0.64 -1.4,-1.133333 -2.24,-1.48 L 10.173333,3.76 c 0.68,0.28 1.293334,0.68 1.813334,1.2 z" style="fill:#b4b4b4;fill-opacity:1;stroke-width:.13333334"/><rect id="rect11496" width="1.333" height="2.827" x="-12.687" y="-.707" transform="rotate(-135.00405)" style="fill:#b4b4b4;fill-opacity:1;stroke-width:.13334148"/></svg>