<svg xmlns="http://www.w3.org/2000/svg" xmlns:svg="http://www.w3.org/2000/svg" xmlns:xlink="http://www.w3.org/1999/xlink" id="svg49872" width="48" height="48" version="1.1" viewBox="0 0 12.7 12.7"><defs id="defs49866"><linearGradient id="linearGradient840" x1="1021.89" x2="1031.1" y1="58.63" y2="58.63" gradientUnits="userSpaceOnUse"><stop id="stop836" offset="0" stop-color="#fffff5"/><stop id="stop838" offset="1" stop-color="#bebebe" style="stop-color:#dcdcd6;stop-opacity:1"/></linearGradient><clipPath id="clip12"><path id="path28860" d="m 143,129.75 h 3 V 158 h -3 z m 0,0"/></clipPath><clipPath id="clip11"><path id="path28857" d="m 117.39453,129.75 h 54 v 54.00391 h -54 z m 0,0"/></clipPath><clipPath id="clip150"><path id="path29465" d="m 176,208.92578 h 2 V 228 h -2 z m 0,0"/></clipPath><clipPath id="clip149"><path id="path29462" d="m 159.27734,208.92578 h 36 v 36 h -36 z m 0,0"/></clipPath><clipPath id="clip142"><path id="path29320" d="m 110,208.92578 h 3 V 228 h -3 z m 0,0"/></clipPath><clipPath id="clip141"><path id="path29317" d="m 93.511719,208.92578 h 36.000001 v 36 H 93.511719 Z m 0,0"/></clipPath><linearGradient id="linear-gradient-3" x1="1021.89" x2="1031.1" y1="58.63" y2="58.63" gradientUnits="userSpaceOnUse"><stop id="stop855" offset="0" stop-color="#fffff5"/><stop id="stop857" offset="1" stop-color="#bebebe"/></linearGradient><linearGradient id="linear-gradient-4" x1="985.99" x2="995.2" y1="58.63" y2="58.63" gradientTransform="matrix(-1,0,0,1,2043.88,0)" xlink:href="#linearGradient840"/></defs><metadata id="metadata49869"/><g id="layer1" transform="translate(-73.816227,-75.847289)"><g id="g2593" transform="matrix(0.26458334,0,0,0.26458334,-280.96667,-194.82102)"><g id="g870" transform="matrix(1.2972973,0,0,1.2972973,-399.01046,-318.03089)"><circle id="path3744" cx="1359.69" cy="1052.22" r="18" style="opacity:1;vector-effect:none;fill:#21211c;fill-opacity:1;stroke:none;stroke-width:.87136906;stroke-linecap:butt;stroke-linejoin:miter;stroke-miterlimit:4;stroke-dasharray:none;stroke-dashoffset:0;stroke-opacity:1;paint-order:stroke fill markers"/><g id="g2520" transform="translate(72.450016,93.654997)"><path style="fill:#1e1e1e;fill-opacity:1" id="path2508" d="m 980.83,-47 v 24 c -0.36,0.4 -0.75,0.78 -1.14,1.15 v -26.34 c 0.4,0.37 0.78,0.75 1.14,1.19 z" transform="translate(319.8,993.59)"/><path style="fill:#191919;fill-opacity:1" id="path2510" d="m 979.69,-48.19 v 26.33 q -0.51,0.48 -1.06,0.91 V -49.1 q 0.55,0.44 1.06,0.91 z" transform="translate(319.8,993.59)"/><path style="fill:#0f0f0f;fill-opacity:1" id="path2512" d="m 976.23,-50.72 q 0.51,0.29 1,0.6 v 30.19 q -0.49,0.32 -1,0.6 z" transform="translate(319.8,993.59)"/><path style="fill:#141414;fill-opacity:1" id="path2514" d="m 978.63,-49.1 v 28.15 c -0.45,0.36 -0.92,0.7 -1.4,1 v -30.17 c 0.48,0.32 0.95,0.66 1.4,1.02 z" transform="translate(319.8,993.59)"/><path style="fill:#282828;fill-opacity:1" id="path2516" d="m 985.44,-35 a 17.89,17.89 0 0 1 -3.6,10.79 v -21.61 a 17.89,17.89 0 0 1 3.6,10.82 z" transform="translate(319.8,993.59)"/><path style="fill:#232323;fill-opacity:1" id="path2518" d="m 980.83,-47 q 0.53,0.59 1,1.22 v 21.59 q -0.47,0.63 -1,1.22 z" transform="translate(319.8,993.59)"/></g><g id="g3709" transform="rotate(-180,1323.4649,1005.3925)"><path id="path3697" d="m 980.83,-47 v 24 c -0.36,0.4 -0.75,0.78 -1.14,1.15 v -26.34 c 0.4,0.37 0.78,0.75 1.14,1.19 z" transform="translate(319.8,993.59)" style="fill:#1e1e1e;fill-opacity:1"/><path id="path3699" d="m 979.69,-48.19 v 26.33 q -0.51,0.48 -1.06,0.91 V -49.1 q 0.55,0.44 1.06,0.91 z" transform="translate(319.8,993.59)" style="fill:#191919;fill-opacity:1"/><path id="path3701" d="m 976.23,-50.72 q 0.51,0.29 1,0.6 v 30.19 q -0.49,0.32 -1,0.6 z" transform="translate(319.8,993.59)" style="fill:#0f0f0f;fill-opacity:1"/><path id="path3703" d="m 978.63,-49.1 v 28.15 c -0.45,0.36 -0.92,0.7 -1.4,1 v -30.17 c 0.48,0.32 0.95,0.66 1.4,1.02 z" transform="translate(319.8,993.59)" style="fill:#141414;fill-opacity:1"/><path id="path3705" d="m 985.44,-35 a 17.89,17.89 0 0 1 -3.6,10.79 v -21.61 a 17.89,17.89 0 0 1 3.6,10.82 z" transform="translate(319.8,993.59)" style="fill:#282828;fill-opacity:1"/><path id="path3707" d="m 980.83,-47 q 0.53,0.59 1,1.22 v 21.59 q -0.47,0.63 -1,1.22 z" transform="translate(319.8,993.59)" style="fill:#232323;fill-opacity:1"/></g><path style="fill:#1e1e1e;fill-opacity:1;stroke-width:1.00027037" id="path2522" d="m 1359.69,1070.71 a 18.52,18.530016 0 0 1 -18.5,-18.49 18.52,18.530016 0 0 1 18.5,-18.51 18.52,18.530016 0 0 1 18.5,18.51 18.52,18.530016 0 0 1 -18.5,18.49 z m 0,-36.0195 a 17.52,17.529476 0 0 0 -17.5,17.5295 17.52,17.529476 0 0 0 17.5,17.5094 17.52,17.529476 0 0 0 17.5,-17.5094 17.52,17.529476 0 0 0 -17.5,-17.5295 z"/><path style="fill:#232323;fill-opacity:1" id="path2524" d="m 1367.48,1035.9701 a 17.88,17.88 0 0 0 -7.79,-1.75 v 0 a 17.88,17.88 0 0 0 -7.79,1.78 q -0.51,0.25 -1,0.52 v 31.4 q 0.49,0.28 1,0.52 a 17.88,17.88 0 0 0 7.79,1.78 17.88,17.88 0 0 0 7.79,-1.78 q 0.51,-0.25 1,-0.52 v -31.4 q -0.49,-0.3 -1,-0.55 z"/><path style="fill:#191919;fill-opacity:1" id="path2526" d="m 1359.69,1035.22 a 17.88,17.88 0 0 0 -7.79,1.78 v 30.46 a 17.88,17.88 0 0 0 7.79,1.76 17.88,17.88 0 0 0 7.79,-1.78 v -30.45 a 17.88,17.88 0 0 0 -7.79,-1.77 z"/><rect id="rect2716-2" width="1.34" height="13.91" x="1359.02" y="1034.2" data-name="rect2716" style="fill:#e8e8e8;fill-opacity:1;stroke-width:1.08417654"/></g></g></g></svg>