<svg xmlns="http://www.w3.org/2000/svg" xmlns:svg="http://www.w3.org/2000/svg" xmlns:xlink="http://www.w3.org/1999/xlink" id="svg18800" width="15" height="14.999" version="1.1" viewBox="0 0 3.969 3.968"><defs id="defs18794"><linearGradient id="SVGID_1_" x1="1.46" x2="14.755" y1="8.065" y2="8.065" gradientTransform="matrix(0.26458333,0,0,0.26458333,71.393636,-8.5724136)" gradientUnits="userSpaceOnUse"><stop style="stop-color:#53606c;stop-opacity:1" id="stop1199" offset="0"/><stop style="stop-color:#1c2936;stop-opacity:1" id="stop1201" offset="1"/></linearGradient><linearGradient id="SVGID_2_" x1="13.629" x2="2.585" y1="8.065" y2="8.065" gradientTransform="matrix(0.26458333,0,0,0.26458333,71.393636,-8.5724136)" gradientUnits="userSpaceOnUse" xlink:href="#SVGID_1_"><stop style="stop-color:#bfbfbf" id="stop1206" offset="0"/><stop style="stop-color:#2b2b2b" id="stop1208" offset="1"/></linearGradient><linearGradient id="SVGID_3_" x1="12.579" x2="3.635" y1="8.065" y2="8.065" gradientUnits="userSpaceOnUse"><stop style="stop-color:#363636" id="stop1213" offset="0"/><stop style="stop-color:#000" id="stop1215" offset="1"/></linearGradient><linearGradient id="SVGID_4_" x1="4.185" x2="12.03" y1="8.065" y2="8.065" gradientUnits="userSpaceOnUse"><stop style="stop-color:#212121" id="stop1220" offset="0"/><stop style="stop-color:#000" id="stop1222" offset="1"/></linearGradient><linearGradient id="linearGradient2160" x1="1.46" x2="14.755" y1="8.065" y2="8.065" gradientTransform="translate(1.8204335,-13.827566)" gradientUnits="userSpaceOnUse"><stop id="stop2156" offset="0" style="stop-color:#b5b5b5"/><stop id="stop2158" offset="1" style="stop-color:#000"/></linearGradient><linearGradient id="linearGradient2167" x1="13.629" x2="2.585" y1="8.065" y2="8.065" gradientTransform="translate(1.8204335,-13.827566)" gradientUnits="userSpaceOnUse"><stop id="stop2163" offset="0" style="stop-color:#bfbfbf"/><stop id="stop2165" offset="1" style="stop-color:#2b2b2b"/></linearGradient><linearGradient id="linearGradient2174" x1="12.579" x2="3.635" y1="8.065" y2="8.065" gradientUnits="userSpaceOnUse"><stop id="stop2170" offset="0" style="stop-color:#363636"/><stop id="stop2172" offset="1" style="stop-color:#000"/></linearGradient><linearGradient id="linearGradient2181" x1="4.185" x2="12.03" y1="8.065" y2="8.065" gradientUnits="userSpaceOnUse"><stop id="stop2177" offset="0" style="stop-color:#212121"/><stop id="stop2179" offset="1" style="stop-color:#000"/></linearGradient><linearGradient id="linearGradient903" x1="71.845" x2="74.532" y1="-3.157" y2="-2.275" gradientTransform="matrix(1.0307802,0,0,1.0307802,-149.82946,4.8001783)" gradientUnits="userSpaceOnUse" xlink:href="#SVGID_1_"/><linearGradient id="linearGradient913" x1="2.214" x2="1.784" y1="2.363" y2=".696" gradientUnits="userSpaceOnUse" xlink:href="#linearGradient2181"/><linearGradient id="linearGradient919" x1="-1.513" x2="14.331" y1="5.358" y2="9.739" gradientTransform="matrix(0.26458333,0,0,0.26458333,71.393636,-8.5724136)" gradientUnits="userSpaceOnUse" xlink:href="#SVGID_1_"/></defs><metadata id="metadata18797"/><g id="layer1" transform="translate(-27.124952,-67.361781)"><g id="g917" transform="translate(3.8663989,-0.02102353)"><circle id="circle1204" cx="73.537" cy="-6.429" r="1.746" transform="rotate(75.000001)" style="fill:url(#linearGradient919);stroke-width:.26458332"/><circle id="circle1211" cx="-73.784" cy="2.203" r="1.5" transform="rotate(-108.2861)" style="fill:url(#linearGradient903);fill-opacity:1;stroke-width:.27272728"/></g><g id="g846" transform="translate(3.3193529e-7,2.8676117e-6)"><path id="path530-2-7" d="M 2.4812359,2.0236509 2.2139407,2.3626892 1.7857463,2.3075242 1.358483,2.2455589 1.1921601,1.8471492 1.0321919,1.4461456 1.2940634,1.1029009 1.5613586,0.76386265 1.989553,0.81902769 2.4168163,0.88099294 2.5831392,1.2794027 2.7431074,1.6804062 Z" transform="matrix(1.2831458,0.33438423,-0.33465305,1.2841774,27.210352,66.707282)" style="fill:url(#linearGradient913);fill-opacity:1;stroke-width:.26458335"/><path style="fill:#101010;fill-opacity:1;stroke-width:.26458335" id="path905" d="M 2.4812359,2.0236509 2.2139407,2.3626892 1.7857463,2.3075242 1.358483,2.2455589 1.1921601,1.8471492 1.0321919,1.4461456 1.2940634,1.1029009 1.5613586,0.76386265 1.989553,0.81902769 2.4168163,0.88099294 2.5831392,1.2794027 2.7431074,1.6804062 Z" transform="matrix(1.1136524,0.29021472,-0.29044803,1.1145477,27.461782,67.06993)"/></g></g></svg>