<svg xmlns="http://www.w3.org/2000/svg" xmlns:svg="http://www.w3.org/2000/svg" id="svg15246" width="24" height="24" version="1.1" viewBox="0 0 6.35 6.35"><defs id="defs15240"><clipPath id="clip89"><rect id="rect4864" width="18" height="19" x="0" y="0"/></clipPath><clipPath id="clip90"><path id="path4861" d="m 0.898438,0.128906 h 16.25 v 17.882813 h -16.25 z m 0,0"/></clipPath><mask id="mask44"><g style="filter:url(#alpha)" id="g4858" transform="matrix(0.26458333,0,0,0.26458333,89.358789,128.57765)"><rect style="fill:#000;fill-opacity:.14999402;stroke:none" id="rect4856" width="3052.87" height="3351.5" x="0" y="0"/></g></mask><filter id="alpha" width="1" height="1" x="0" y="0" filterUnits="objectBoundingBox"><feColorMatrix id="feColorMatrix4149" in="SourceGraphic" type="matrix" values="0 0 0 0 1 0 0 0 0 1 0 0 0 0 1 0 0 0 1 0"/></filter><clipPath id="clipPath17821"><rect id="rect17819" width="18" height="19" x="0" y="0"/></clipPath><clipPath id="clipPath17825"><path id="path17823" d="m 0.898438,0.128906 h 16.25 v 17.882813 h -16.25 z m 0,0"/></clipPath><clipPath id="clip87"><rect id="rect4848" width="24" height="26" x="0" y="0"/></clipPath><clipPath id="clip88"><path id="path4845" d="m 0.683594,0.921875 h 22.679687 v 24.9375 H 0.683594 Z m 0,0"/></clipPath><mask id="mask43"><g style="filter:url(#alpha)" id="g4842" transform="matrix(0.26458333,0,0,0.26458333,89.358789,128.57765)"><rect style="fill:#000;fill-opacity:.14999402;stroke:none" id="rect4840" width="3052.87" height="3351.5" x="0" y="0"/></g></mask><filter id="filter17836" width="1" height="1" x="0" y="0" filterUnits="objectBoundingBox"><feColorMatrix id="feColorMatrix17834" in="SourceGraphic" type="matrix" values="0 0 0 0 1 0 0 0 0 1 0 0 0 0 1 0 0 0 1 0"/></filter><clipPath id="clipPath17840"><rect id="rect17838" width="24" height="26" x="0" y="0"/></clipPath><clipPath id="clipPath17844"><path id="path17842" d="m 0.683594,0.921875 h 22.679687 v 24.9375 H 0.683594 Z m 0,0"/></clipPath></defs><metadata id="metadata15243"/><g id="layer1" transform="translate(-88.611154,-121.20423)"><g id="g922" transform="matrix(0.92857145,0,0,0.92857145,5.8895549,9.5508327)"><path style="fill:#e6e6e6;fill-opacity:1;fill-rule:nonzero;stroke:#636663;stroke-width:.20460665;stroke-miterlimit:4;stroke-dasharray:none;stroke-opacity:1" id="path7255" d="m 92.504028,138.37571 c -1.82933,0 -3.316927,-1.48759 -3.316927,-3.31694 0,-1.82931 1.487597,-3.31692 3.316927,-3.31692 1.829327,0 3.316927,1.48761 3.316927,3.31692 0,1.82935 -1.4876,3.31694 -3.316927,3.31694"/><path style="fill:#4b4b4b;fill-opacity:1;fill-rule:nonzero;stroke:#636663;stroke-width:.21603572;stroke-miterlimit:4;stroke-dasharray:none;stroke-opacity:1" id="path7261" d="m 92.504029,137.58095 c -1.390879,0 -2.522161,-1.13131 -2.522161,-2.52218 0,-1.39088 1.131282,-2.52215 2.522161,-2.52215 1.39088,0 2.522158,1.13127 2.522158,2.52215 0,1.39087 -1.131278,2.52218 -2.522158,2.52218"/><path style="fill:#000;fill-opacity:1;fill-rule:nonzero;stroke:none;stroke-width:.32564101" id="path7265" d="m 94.165306,135.05876 c 0,0.91714 -0.744141,1.6613 -1.661277,1.6613 -0.917139,0 -1.66128,-0.74416 -1.66128,-1.6613 0,-0.91713 0.744141,-1.66125 1.66128,-1.66125 0.917136,0 1.661277,0.74412 1.661277,1.66125"/><g id="g24" transform="matrix(0.13676923,0,0,0.13676923,88.978209,112.80552)"><circle style="fill:#3c434a" id="circle4" cx="86.794" cy="26.327" r="24.96"/><path style="fill:#4b5053" id="path6" d="m 106.294,11.507333 a 24.94,24.94 0 0 0 -38.999996,0 32.94,32.94 0 0 1 38.999996,0 z"/><path style="fill:#3c4041" id="path8" d="m 86.794004,46.377333 c -12,0 -21.78,-7.19 -22.83,-16.35 a 14.27,14.27 0 0 0 -0.1,1.62 c 0,9.93 10.26,18 22.92,18 12.66,0 22.919996,-8 22.919996,-18 a 14.27,14.27 0 0 0 -0.1,-1.62 c -1.03,9.16 -10.809996,16.35 -22.809996,16.35 z"/><g id="g14" transform="translate(58.014004,1.3673334)"><path id="path10" d="M 45,65.78 A 15.46,15.46 0 1 1 60.46,50.31 15.48,15.48 0 0 1 45,65.78 Z" transform="translate(-16.22,-25.36)"/><path style="fill:#282828" id="path12" d="M 45,35.85 A 14.46,14.46 0 1 1 30.54,50.31 14.48,14.48 0 0 1 45,35.85 m 0,-2 A 16.46,16.46 0 1 0 61.46,50.31 16.46,16.46 0 0 0 45,33.85 Z" transform="translate(-16.22,-25.36)"/></g><path id="path22" d="m 86.794004,3.3673334 a 23,23 0 1 1 -23,22.9999996 23,23 0 0 1 23,-22.9999996 m 0,-2 A 25,25 0 1 0 111.794,26.367333 25,25 0 0 0 86.794004,1.3673334 Z"/><path id="path16" d="m 86.794004,37.797333 a 11.48,11.48 0 1 1 11.48,-11.48 11.49,11.49 0 0 1 -11.48,11.48 z"/><path id="path18" d="m 86.794004,15.347333 a 11,11 0 1 1 -11,11 11,11 0 0 1 11,-11 m 0,-1 a 12,12 0 1 0 12,12 12,12 0 0 0 -12,-12 z" style="fill:#646464"/><g id="g936" transform="translate(-6.1411973,60.790716)"><g id="g3696"><circle style="fill:#50575e;fill-opacity:1" id="circle868" cx="31.921" cy="18.543" r="24.96"/><path style="fill:#696e71;fill-opacity:1" id="path870" d="m 51.420524,3.7226045 a 24.94,24.94 0 0 0 -38.999996,0 32.94,32.94 0 0 1 38.999996,0 z"/><path style="fill:#3c4041;fill-opacity:1" id="path872" d="m 31.920528,39.425105 c -12,0 -21.78,-7.189999 -22.8300002,-16.35 a 14.27,14.27 0 0 0 -0.1,1.62 c 0,9.930001 10.2600002,18 22.9200002,18 12.66,0 22.919996,-8 22.919996,-18 a 14.27,14.27 0 0 0 -0.1,-1.62 c -1.03,9.16 -10.809996,16.35 -22.809996,16.35 z"/><path id="path884" d="M 31.920528,-4.4173948 A 23,23 0 1 1 8.9205278,18.582604 23,23 0 0 1 31.920528,-4.4173948 m 0,-2 A 25,25 0 1 0 56.920524,18.582604 25,25 0 0 0 31.920528,-6.4173948 Z"/><g style="fill:#000;fill-opacity:1;stroke:#636663;stroke-opacity:1" id="g878" transform="matrix(1.0758404,0,0,1.0758404,-14.566954,15.523047)"><path style="fill:#282828;fill-opacity:1;stroke:none;stroke-opacity:1" id="path876" d="m 43.210386,-11.616123 a 14.46,14.46 0 1 1 -14.46,14.4599997 14.48,14.48 0 0 1 14.46,-14.4599997 m 0,-2 a 16.46,16.46 0 1 0 16.46,16.4599997 16.46,16.46 0 0 0 -16.46,-16.4599997 z"/></g><path id="path874" d="M 31.920524,34.238381 A 15.655775,15.655775 0 1 1 47.576297,18.572479 15.676026,15.676026 0 0 1 31.920524,34.238381 Z" style="fill:#000;fill-opacity:1;stroke:none;stroke-width:1.01266325;stroke-opacity:1"/><g id="g923" transform="translate(2.9527041,-6.7505473)" style="fill:#000;fill-opacity:1;stroke:#646464;stroke-width:2.08333325;stroke-miterlimit:4;stroke-dasharray:none;stroke-opacity:1"><path id="path880" d="m 28.975333,36.820666 a 11.48,11.48 0 1 1 11.48,-11.48 11.49,11.49 0 0 1 -11.48,11.48 z" style="fill:#000;fill-opacity:1;stroke:#646464;stroke-width:2.08333325;stroke-miterlimit:4;stroke-dasharray:none;stroke-opacity:1"/></g></g></g></g></g></g></svg>