<svg xmlns="http://www.w3.org/2000/svg" xmlns:svg="http://www.w3.org/2000/svg" id="svg15246" width="24" height="24" version="1.1" viewBox="0 0 6.35 6.35"><defs id="defs15240"><clipPath id="clip89"><rect id="rect4864" width="18" height="19" x="0" y="0"/></clipPath><clipPath id="clip90"><path id="path4861" d="m 0.898438,0.128906 h 16.25 v 17.882813 h -16.25 z m 0,0"/></clipPath><mask id="mask44"><g style="filter:url(#alpha)" id="g4858" transform="matrix(0.26458333,0,0,0.26458333,89.358789,128.57765)"><rect style="fill:#000;fill-opacity:.14999402;stroke:none" id="rect4856" width="3052.87" height="3351.5" x="0" y="0"/></g></mask><filter id="alpha" width="1" height="1" x="0" y="0" filterUnits="objectBoundingBox"><feColorMatrix id="feColorMatrix4149" in="SourceGraphic" type="matrix" values="0 0 0 0 1 0 0 0 0 1 0 0 0 0 1 0 0 0 1 0"/></filter><clipPath id="clipPath17821"><rect id="rect17819" width="18" height="19" x="0" y="0"/></clipPath><clipPath id="clipPath17825"><path id="path17823" d="m 0.898438,0.128906 h 16.25 v 17.882813 h -16.25 z m 0,0"/></clipPath><clipPath id="clip87"><rect id="rect4848" width="24" height="26" x="0" y="0"/></clipPath><clipPath id="clip88"><path id="path4845" d="m 0.683594,0.921875 h 22.679687 v 24.9375 H 0.683594 Z m 0,0"/></clipPath><mask id="mask43"><g style="filter:url(#alpha)" id="g4842" transform="matrix(0.26458333,0,0,0.26458333,89.358789,128.57765)"><rect style="fill:#000;fill-opacity:.14999402;stroke:none" id="rect4840" width="3052.87" height="3351.5" x="0" y="0"/></g></mask><filter id="filter17836" width="1" height="1" x="0" y="0" filterUnits="objectBoundingBox"><feColorMatrix id="feColorMatrix17834" in="SourceGraphic" type="matrix" values="0 0 0 0 1 0 0 0 0 1 0 0 0 0 1 0 0 0 1 0"/></filter><clipPath id="clipPath17840"><rect id="rect17838" width="24" height="26" x="0" y="0"/></clipPath><clipPath id="clipPath17844"><path id="path17842" d="m 0.683594,0.921875 h 22.679687 v 24.9375 H 0.683594 Z m 0,0"/></clipPath></defs><metadata id="metadata15243"/><g id="layer8"><circle style="opacity:1;fill:#d4d4d4;fill-opacity:1;stroke:none;stroke-width:.2200384;stroke-linecap:square;stroke-linejoin:miter;stroke-miterlimit:4;stroke-dasharray:none;stroke-opacity:1;paint-order:stroke fill markers" id="path2340" cx="3.175" cy="3.175" r="2.64"/></g><g id="layer1" transform="translate(-88.611154,-121.20422)"><path id="path7265" d="m 93.246901,124.2086 c 0,0.80261 -0.651207,1.45382 -1.453801,1.45382 -0.802598,0 -1.453805,-0.65121 -1.453805,-1.45382 0,-0.80259 0.651207,-1.45377 1.453805,-1.45377 0.802594,0 1.453801,0.65118 1.453801,1.45377" style="fill:#b7b7b7;fill-opacity:1;fill-rule:nonzero;stroke:none;stroke-width:.28497198"/><path style="fill:#575757;fill-opacity:1;fill-rule:nonzero;stroke:none;stroke-width:.24336654" id="path4761" d="m 93.034649,124.44954 c 0,0.68543 -0.556132,1.24156 -1.241549,1.24156 -0.685421,0 -1.241552,-0.55613 -1.241552,-1.24156 0,-0.68541 0.556131,-1.24153 1.241552,-1.24153 0.685417,0 1.241549,0.55612 1.241549,1.24153"/></g></svg>