<svg xmlns="http://www.w3.org/2000/svg" xmlns:svg="http://www.w3.org/2000/svg" id="svg15246" width="24" height="24" version="1.1" viewBox="0 0 6.35 6.35"><defs id="defs15240"><clipPath id="clip89"><rect id="rect4864" width="18" height="19" x="0" y="0"/></clipPath><clipPath id="clip90"><path id="path4861" d="m 0.898438,0.128906 h 16.25 v 17.882813 h -16.25 z m 0,0"/></clipPath><mask id="mask44"><g style="filter:url(#alpha)" id="g4858" transform="matrix(0.26458333,0,0,0.26458333,89.358789,128.57765)"><rect style="fill:#000;fill-opacity:.14999402;stroke:none" id="rect4856" width="3052.87" height="3351.5" x="0" y="0"/></g></mask><filter id="alpha" width="1" height="1" x="0" y="0" filterUnits="objectBoundingBox"><feColorMatrix id="feColorMatrix4149" in="SourceGraphic" type="matrix" values="0 0 0 0 1 0 0 0 0 1 0 0 0 0 1 0 0 0 1 0"/></filter><clipPath id="clipPath17821"><rect id="rect17819" width="18" height="19" x="0" y="0"/></clipPath><clipPath id="clipPath17825"><path id="path17823" d="m 0.898438,0.128906 h 16.25 v 17.882813 h -16.25 z m 0,0"/></clipPath><clipPath id="clip87"><rect id="rect4848" width="24" height="26" x="0" y="0"/></clipPath><clipPath id="clip88"><path id="path4845" d="m 0.683594,0.921875 h 22.679687 v 24.9375 H 0.683594 Z m 0,0"/></clipPath><mask id="mask43"><g style="filter:url(#alpha)" id="g4842" transform="matrix(0.26458333,0,0,0.26458333,89.358789,128.57765)"><rect style="fill:#000;fill-opacity:.14999402;stroke:none" id="rect4840" width="3052.87" height="3351.5" x="0" y="0"/></g></mask><filter id="filter17836" width="1" height="1" x="0" y="0" filterUnits="objectBoundingBox"><feColorMatrix id="feColorMatrix17834" in="SourceGraphic" type="matrix" values="0 0 0 0 1 0 0 0 0 1 0 0 0 0 1 0 0 0 1 0"/></filter><clipPath id="clipPath17840"><rect id="rect17838" width="24" height="26" x="0" y="0"/></clipPath><clipPath id="clipPath17844"><path id="path17842" d="m 0.683594,0.921875 h 22.679687 v 24.9375 H 0.683594 Z m 0,0"/></clipPath></defs><metadata id="metadata15243"/><g id="layer8"><circle style="opacity:1;fill:#b7b7b7;fill-opacity:1;stroke:none;stroke-width:.25912476;stroke-linecap:square;stroke-linejoin:miter;stroke-miterlimit:4;stroke-dasharray:none;stroke-opacity:1;paint-order:stroke fill markers" id="path2340" cx="3.175" cy="3.175" r="3.109"/><path style="fill:none;fill-opacity:1;fill-rule:nonzero;stroke:#acacac;stroke-width:.39174768;stroke-miterlimit:4;stroke-dasharray:none;stroke-opacity:1" id="path4763" d="m 3.1749957,0.19899897 c 1.641168,0 2.9760226,1.33487973 2.9760226,2.97605443 0,1.6411521 -1.3348546,2.9759976 -2.9760226,2.9759976 -1.6411668,0 -2.97601804,-1.3348455 -2.97601804,-2.9759976 0,-1.6411747 1.33485124,-2.97605443 2.97601804,-2.97605443"/><path id="path7454" d="m 3.1749964,0.99151592 c 1.1672769,0 2.1166892,0.94943028 2.1166892,2.11671198 0,1.1672656 -0.9494123,2.1166714 -2.1166892,2.1166714 -1.1672761,0 -2.116686,-0.9494058 -2.116686,-2.1166714 0,-1.1672817 0.9494099,-2.11671198 2.116686,-2.11671198" style="fill:none;fill-opacity:1;fill-rule:nonzero;stroke:#acacac;stroke-width:.27862963;stroke-miterlimit:4;stroke-dasharray:none;stroke-opacity:1"/></g><g id="layer1" transform="translate(-88.611154,-121.20422)"><path id="path7265" d="m 93.317108,124.17629 c 0,0.84059 -0.682025,1.52262 -1.522602,1.52262 -0.840581,0 -1.522606,-0.68203 -1.522606,-1.52262 0,-0.84058 0.682025,-1.52258 1.522606,-1.52258 0.840577,0 1.522602,0.682 1.522602,1.52258" style="fill:#8a8a8a;fill-opacity:1;fill-rule:nonzero;stroke:none;stroke-width:.29845834"/><path style="fill:#323232;fill-opacity:1;fill-rule:nonzero;stroke:none;stroke-width:.25488389" id="path4761" d="m 93.094811,124.42863 c 0,0.71786 -0.582451,1.30032 -1.300305,1.30032 -0.717858,0 -1.300309,-0.58246 -1.300309,-1.30032 0,-0.71785 0.582451,-1.30028 1.300309,-1.30028 0.717854,0 1.300305,0.58243 1.300305,1.30028"/></g></svg>