<svg xmlns="http://www.w3.org/2000/svg" xmlns:svg="http://www.w3.org/2000/svg" id="svg15246" width="24" height="24" version="1.1" viewBox="0 0 6.35 6.35"><defs id="defs15240"><clipPath id="clip89"><rect id="rect4864" width="18" height="19" x="0" y="0"/></clipPath><clipPath id="clip90"><path id="path4861" d="m 0.898438,0.128906 h 16.25 v 17.882813 h -16.25 z m 0,0"/></clipPath><mask id="mask44"><g style="filter:url(#alpha)" id="g4858" transform="matrix(0.26458333,0,0,0.26458333,89.358789,128.57765)"><rect style="fill:#000;fill-opacity:.14999402;stroke:none" id="rect4856" width="3052.87" height="3351.5" x="0" y="0"/></g></mask><filter id="alpha" width="1" height="1" x="0" y="0" filterUnits="objectBoundingBox"><feColorMatrix id="feColorMatrix4149" in="SourceGraphic" type="matrix" values="0 0 0 0 1 0 0 0 0 1 0 0 0 0 1 0 0 0 1 0"/></filter><clipPath id="clipPath17821"><rect id="rect17819" width="18" height="19" x="0" y="0"/></clipPath><clipPath id="clipPath17825"><path id="path17823" d="m 0.898438,0.128906 h 16.25 v 17.882813 h -16.25 z m 0,0"/></clipPath><clipPath id="clip87"><rect id="rect4848" width="24" height="26" x="0" y="0"/></clipPath><clipPath id="clip88"><path id="path4845" d="m 0.683594,0.921875 h 22.679687 v 24.9375 H 0.683594 Z m 0,0"/></clipPath><mask id="mask43"><g style="filter:url(#alpha)" id="g4842" transform="matrix(0.26458333,0,0,0.26458333,89.358789,128.57765)"><rect style="fill:#000;fill-opacity:.14999402;stroke:none" id="rect4840" width="3052.87" height="3351.5" x="0" y="0"/></g></mask><filter id="filter17836" width="1" height="1" x="0" y="0" filterUnits="objectBoundingBox"><feColorMatrix id="feColorMatrix17834" in="SourceGraphic" type="matrix" values="0 0 0 0 1 0 0 0 0 1 0 0 0 0 1 0 0 0 1 0"/></filter><clipPath id="clipPath17840"><rect id="rect17838" width="24" height="26" x="0" y="0"/></clipPath><clipPath id="clipPath17844"><path id="path17842" d="m 0.683594,0.921875 h 22.679687 v 24.9375 H 0.683594 Z m 0,0"/></clipPath></defs><metadata id="metadata15243"/><g id="layer8"><rect id="rect9405" width="4.765" height="5" x=".793" y=".971" style="opacity:.58999999;fill:#1d1d1d;fill-opacity:.59215686;stroke:#1c1c1c;stroke-width:.73953342;stroke-linecap:square;stroke-linejoin:bevel;stroke-miterlimit:4;stroke-dasharray:none;stroke-opacity:1;paint-order:stroke fill markers"/><circle style="opacity:1;fill:#b7b7b7;fill-opacity:1;stroke:none;stroke-width:.25912476;stroke-linecap:square;stroke-linejoin:miter;stroke-miterlimit:4;stroke-dasharray:none;stroke-opacity:1;paint-order:stroke fill markers" id="path2340" cx="-4.626" cy="3.041" r="3.109"/><path style="fill:none;fill-opacity:1;fill-rule:nonzero;stroke:#acacac;stroke-width:.39174768;stroke-miterlimit:4;stroke-dasharray:none;stroke-opacity:1" id="path4763" d="m -4.6259336,0.06536421 c 1.641168,0 2.9760226,1.33487969 2.9760226,2.97605439 0,1.6411521 -1.3348546,2.9759976 -2.9760226,2.9759976 -1.6411668,0 -2.976018,-1.3348455 -2.976018,-2.9759976 0,-1.6411747 1.3348512,-2.97605439 2.976018,-2.97605439"/><path id="path7454" d="m 3.1749963,0.7586329 c 1.1836029,0 2.1462941,0.9883649 2.1462941,2.203515 0,1.2151334 -0.9626912,2.2034728 -2.1462941,2.2034728 -1.183602,0 -2.1462908,-0.9883394 -2.1462908,-2.2034728 0,-1.2151501 0.9626888,-2.203515 2.1462908,-2.203515" style="fill:none;fill-opacity:1;fill-rule:nonzero;stroke:#acacac;stroke-width:.28626648;stroke-miterlimit:4;stroke-dasharray:none;stroke-opacity:1"/><rect style="opacity:1;fill:#646464;fill-opacity:1;stroke:#4b4b4b;stroke-width:.54367042;stroke-linecap:square;stroke-linejoin:bevel;stroke-miterlimit:4;stroke-dasharray:none;stroke-opacity:1;paint-order:stroke fill markers" id="rect9403" width="4.959" height="5.091" x=".695" y=".486"/></g><g id="layer1" transform="translate(-88.611154,-121.20422)"><path id="path7265" d="m 93.372396,124.18983 c 0,0.87506 -0.691564,1.58506 -1.543898,1.58506 -0.852338,0 -1.543902,-0.71 -1.543902,-1.58506 0,-0.87505 0.691564,-1.58502 1.543902,-1.58502 0.852334,0 1.543898,0.70997 1.543898,1.58502" style="fill:#474747;fill-opacity:1;fill-rule:nonzero;stroke:none;stroke-width:.30663866"/><path style="fill:#1c1c1c;fill-opacity:1;fill-rule:nonzero;stroke:none;stroke-width:.26186991" id="path4761" d="m 93.14699,124.33948 c 0,0.7473 -0.590598,1.35365 -1.318492,1.35365 -0.727898,0 -1.318496,-0.60635 -1.318496,-1.35365 0,-0.74728 0.590598,-1.3536 1.318496,-1.3536 0.727894,0 1.318492,0.60632 1.318492,1.3536"/></g></svg>