<svg xmlns="http://www.w3.org/2000/svg" xmlns:svg="http://www.w3.org/2000/svg" id="svg15246" width="24" height="24" version="1.1" viewBox="0 0 6.35 6.35"><defs id="defs15240"><clipPath id="clip89"><rect id="rect4864" width="18" height="19" x="0" y="0"/></clipPath><clipPath id="clip90"><path id="path4861" d="m 0.898438,0.128906 h 16.25 v 17.882813 h -16.25 z m 0,0"/></clipPath><mask id="mask44"><g style="filter:url(#alpha)" id="g4858" transform="matrix(0.26458333,0,0,0.26458333,89.358789,128.57765)"><rect style="fill:#000;fill-opacity:.14999402;stroke:none" id="rect4856" width="3052.87" height="3351.5" x="0" y="0"/></g></mask><filter id="alpha" width="1" height="1" x="0" y="0" filterUnits="objectBoundingBox"><feColorMatrix id="feColorMatrix4149" in="SourceGraphic" type="matrix" values="0 0 0 0 1 0 0 0 0 1 0 0 0 0 1 0 0 0 1 0"/></filter><clipPath id="clipPath17821"><rect id="rect17819" width="18" height="19" x="0" y="0"/></clipPath><clipPath id="clipPath17825"><path id="path17823" d="m 0.898438,0.128906 h 16.25 v 17.882813 h -16.25 z m 0,0"/></clipPath><clipPath id="clip87"><rect id="rect4848" width="24" height="26" x="0" y="0"/></clipPath><clipPath id="clip88"><path id="path4845" d="m 0.683594,0.921875 h 22.679687 v 24.9375 H 0.683594 Z m 0,0"/></clipPath><mask id="mask43"><g style="filter:url(#alpha)" id="g4842" transform="matrix(0.26458333,0,0,0.26458333,89.358789,128.57765)"><rect style="fill:#000;fill-opacity:.14999402;stroke:none" id="rect4840" width="3052.87" height="3351.5" x="0" y="0"/></g></mask><filter id="filter17836" width="1" height="1" x="0" y="0" filterUnits="objectBoundingBox"><feColorMatrix id="feColorMatrix17834" in="SourceGraphic" type="matrix" values="0 0 0 0 1 0 0 0 0 1 0 0 0 0 1 0 0 0 1 0"/></filter><clipPath id="clipPath17840"><rect id="rect17838" width="24" height="26" x="0" y="0"/></clipPath><clipPath id="clipPath17844"><path id="path17842" d="m 0.683594,0.921875 h 22.679687 v 24.9375 H 0.683594 Z m 0,0"/></clipPath></defs><metadata id="metadata15243"/><g id="layer8"><circle style="opacity:1;fill:#646464;fill-opacity:1;stroke:none;stroke-width:.26458332;stroke-linecap:square;stroke-linejoin:miter;stroke-miterlimit:4;stroke-dasharray:none;stroke-opacity:1;paint-order:stroke fill markers" id="path2340" cx="3.175" cy="3.175" r="3.175"/><path style="fill:none;fill-opacity:1;fill-rule:nonzero;stroke:#4b4b4b;stroke-width:.4;stroke-miterlimit:4;stroke-dasharray:none;stroke-opacity:1" id="path4763" d="m 3.1749957,0.13630775 c 1.6757398,0 3.0387137,1.36299955 3.0387137,3.03874625 0,1.6757236 -1.3629739,3.0386882 -3.0387137,3.0386882 -1.6757387,0 -3.03870914,-1.3629646 -3.03870914,-3.0386882 0,-1.6757467 1.36297044,-3.03874625 3.03870914,-3.03874625"/></g><g id="layer1" transform="translate(-88.611154,-121.20422)"><path id="path7265" d="m 93.459911,124.15818 c 0,0.91943 -0.745991,1.66542 -1.665405,1.66542 -0.919418,0 -1.665409,-0.74599 -1.665409,-1.66542 0,-0.91941 0.745991,-1.66538 1.665409,-1.66538 0.919414,0 1.665405,0.74597 1.665405,1.66538" style="fill:#484848;fill-opacity:1;fill-rule:nonzero;stroke:none;stroke-width:.32645023"/><path style="fill:#222;fill-opacity:1;fill-rule:nonzero;stroke:none;stroke-width:.27878901" id="path4761" d="m 93.216765,124.43419 c 0,0.78519 -0.637078,1.42227 -1.422259,1.42227 -0.785185,0 -1.422263,-0.63708 -1.422263,-1.42227 0,-0.78518 0.637078,-1.42224 1.422263,-1.42224 0.785181,0 1.422259,0.63706 1.422259,1.42224"/></g></svg>