<svg xmlns="http://www.w3.org/2000/svg" xmlns:svg="http://www.w3.org/2000/svg" id="svg15246" width="24" height="24" version="1.1" viewBox="0 0 6.35 6.35"><defs id="defs15240"><clipPath id="clip89"><rect id="rect4864" width="18" height="19" x="0" y="0"/></clipPath><clipPath id="clip90"><path id="path4861" d="m 0.898438,0.128906 h 16.25 v 17.882813 h -16.25 z m 0,0"/></clipPath><mask id="mask44"><g style="filter:url(#alpha)" id="g4858" transform="matrix(0.26458333,0,0,0.26458333,89.358789,128.57765)"><rect style="fill:#000;fill-opacity:.14999402;stroke:none" id="rect4856" width="3052.87" height="3351.5" x="0" y="0"/></g></mask><filter id="alpha" width="1" height="1" x="0" y="0" filterUnits="objectBoundingBox"><feColorMatrix id="feColorMatrix4149" in="SourceGraphic" type="matrix" values="0 0 0 0 1 0 0 0 0 1 0 0 0 0 1 0 0 0 1 0"/></filter><clipPath id="clipPath17821"><rect id="rect17819" width="18" height="19" x="0" y="0"/></clipPath><clipPath id="clipPath17825"><path id="path17823" d="m 0.898438,0.128906 h 16.25 v 17.882813 h -16.25 z m 0,0"/></clipPath><clipPath id="clip87"><rect id="rect4848" width="24" height="26" x="0" y="0"/></clipPath><clipPath id="clip88"><path id="path4845" d="m 0.683594,0.921875 h 22.679687 v 24.9375 H 0.683594 Z m 0,0"/></clipPath><mask id="mask43"><g style="filter:url(#alpha)" id="g4842" transform="matrix(0.26458333,0,0,0.26458333,89.358789,128.57765)"><rect style="fill:#000;fill-opacity:.14999402;stroke:none" id="rect4840" width="3052.87" height="3351.5" x="0" y="0"/></g></mask><filter id="filter17836" width="1" height="1" x="0" y="0" filterUnits="objectBoundingBox"><feColorMatrix id="feColorMatrix17834" in="SourceGraphic" type="matrix" values="0 0 0 0 1 0 0 0 0 1 0 0 0 0 1 0 0 0 1 0"/></filter><clipPath id="clipPath17840"><rect id="rect17838" width="24" height="26" x="0" y="0"/></clipPath><clipPath id="clipPath17844"><path id="path17842" d="m 0.683594,0.921875 h 22.679687 v 24.9375 H 0.683594 Z m 0,0"/></clipPath></defs><metadata id="metadata15243"/><g id="layer1" transform="translate(-88.611154,-121.20422)"><path id="path7265" d="m 93.003072,124.37922 c 0,0.66283 -0.537798,1.20064 -1.200622,1.20064 -0.662825,0 -1.200625,-0.53781 -1.200625,-1.20064 0,-0.66282 0.5378,-1.20059 1.200625,-1.20059 0.662824,0 1.200622,0.53777 1.200622,1.20059" style="fill:#3e3e3e;fill-opacity:1;fill-rule:nonzero;stroke:none;stroke-width:.23534407"/><path style="fill:#222;fill-opacity:1;fill-rule:nonzero;stroke:none;stroke-width:.19933581" id="path4761" d="m 92.827783,124.56146 c 0,0.55681 -0.459282,1.00859 -1.025333,1.00859 -0.566055,0 -1.025335,-0.45178 -1.025335,-1.00859 0,-0.5568 0.45928,-1.00857 1.025335,-1.00857 0.566051,0 1.025333,0.45177 1.025333,1.00857"/></g></svg>