<svg xmlns="http://www.w3.org/2000/svg" xmlns:svg="http://www.w3.org/2000/svg" id="svg15246" width="24" height="24" version="1.1" viewBox="0 0 6.35 6.35"><defs id="defs15240"><clipPath id="clip89"><rect id="rect4864" width="18" height="19" x="0" y="0"/></clipPath><clipPath id="clip90"><path id="path4861" d="m 0.898438,0.128906 h 16.25 v 17.882813 h -16.25 z m 0,0"/></clipPath><mask id="mask44"><g style="filter:url(#alpha)" id="g4858" transform="matrix(0.26458333,0,0,0.26458333,89.358789,128.57765)"><rect style="fill:#000;fill-opacity:.14999402;stroke:none" id="rect4856" width="3052.87" height="3351.5" x="0" y="0"/></g></mask><filter id="alpha" width="1" height="1" x="0" y="0" filterUnits="objectBoundingBox"><feColorMatrix id="feColorMatrix4149" in="SourceGraphic" type="matrix" values="0 0 0 0 1 0 0 0 0 1 0 0 0 0 1 0 0 0 1 0"/></filter><clipPath id="clipPath17821"><rect id="rect17819" width="18" height="19" x="0" y="0"/></clipPath><clipPath id="clipPath17825"><path id="path17823" d="m 0.898438,0.128906 h 16.25 v 17.882813 h -16.25 z m 0,0"/></clipPath><clipPath id="clip87"><rect id="rect4848" width="24" height="26" x="0" y="0"/></clipPath><clipPath id="clip88"><path id="path4845" d="m 0.683594,0.921875 h 22.679687 v 24.9375 H 0.683594 Z m 0,0"/></clipPath><mask id="mask43"><g style="filter:url(#alpha)" id="g4842" transform="matrix(0.26458333,0,0,0.26458333,89.358789,128.57765)"><rect style="fill:#000;fill-opacity:.14999402;stroke:none" id="rect4840" width="3052.87" height="3351.5" x="0" y="0"/></g></mask><filter id="filter17836" width="1" height="1" x="0" y="0" filterUnits="objectBoundingBox"><feColorMatrix id="feColorMatrix17834" in="SourceGraphic" type="matrix" values="0 0 0 0 1 0 0 0 0 1 0 0 0 0 1 0 0 0 1 0"/></filter><clipPath id="clipPath17840"><rect id="rect17838" width="24" height="26" x="0" y="0"/></clipPath><clipPath id="clipPath17844"><path id="path17842" d="m 0.683594,0.921875 h 22.679687 v 24.9375 H 0.683594 Z m 0,0"/></clipPath></defs><metadata id="metadata15243"/><g id="layer1" transform="translate(-88.611154,-121.20422)"><path id="path7265" d="m 93.902821,124.37922 c 0,1.16855 -0.948126,2.11669 -2.116667,2.11669 -1.168545,0 -2.116671,-0.94814 -2.116671,-2.11669 0,-1.16854 0.948126,-2.11663 2.116671,-2.11663 1.168541,0 2.116667,0.94809 2.116667,2.11663" style="fill:#3e3e3e;fill-opacity:1;fill-rule:nonzero;stroke:none;stroke-width:.41490579"/><path style="fill:#222;fill-opacity:1;fill-rule:nonzero;stroke:none;stroke-width:.35433021" id="path4761" d="m 93.593791,124.73002 c 0,0.99794 -0.809701,1.80765 -1.807637,1.80765 -0.99794,0 -1.807641,-0.80971 -1.807641,-1.80765 0,-0.99794 0.809701,-1.80761 1.807641,-1.80761 0.997936,0 1.807637,0.80967 1.807637,1.80761"/></g><g id="layer8"><path id="path7261" d="m 3.174996,0.57631712 c 1.433091,0 2.5987049,1.16563578 2.5987049,2.59873268 0,1.4330771 -1.1656139,2.5986831 -2.5987049,2.5986831 -1.43309,0 -2.59870092,-1.165606 -2.59870092,-2.5986831 0,-1.4330969 1.16561092,-2.59873268 2.59870092,-2.59873268" style="fill:none;fill-opacity:1;fill-rule:nonzero;stroke:#646464;stroke-width:1.12834299;stroke-miterlimit:4;stroke-dasharray:none;stroke-opacity:1"/><path style="fill:none;fill-opacity:1;fill-rule:nonzero;stroke:#4b4b4b;stroke-width:.25322443;stroke-miterlimit:4;stroke-dasharray:none;stroke-opacity:1" id="path4763" d="m 3.1749957,0.13630775 c 1.6757398,0 3.0387137,1.36299955 3.0387137,3.03874625 0,1.6757236 -1.3629739,3.0386882 -3.0387137,3.0386882 -1.6757387,0 -3.03870914,-1.3629646 -3.03870914,-3.0386882 0,-1.6757467 1.36297044,-3.03874625 3.03870914,-3.03874625"/></g></svg>