<svg xmlns="http://www.w3.org/2000/svg" xmlns:svg="http://www.w3.org/2000/svg" id="svg15246" width="24" height="24" version="1.1" viewBox="0 0 6.35 6.35"><defs id="defs15240"><clipPath id="clip89"><rect id="rect4864" width="18" height="19" x="0" y="0"/></clipPath><clipPath id="clip90"><path id="path4861" d="m 0.898438,0.128906 h 16.25 v 17.882813 h -16.25 z m 0,0"/></clipPath><mask id="mask44"><g style="filter:url(#alpha)" id="g4858" transform="matrix(0.26458333,0,0,0.26458333,89.358789,128.57765)"><rect style="fill:#000;fill-opacity:.14999402;stroke:none" id="rect4856" width="3052.87" height="3351.5" x="0" y="0"/></g></mask><filter id="alpha" width="1" height="1" x="0" y="0" filterUnits="objectBoundingBox"><feColorMatrix id="feColorMatrix4149" in="SourceGraphic" type="matrix" values="0 0 0 0 1 0 0 0 0 1 0 0 0 0 1 0 0 0 1 0"/></filter><clipPath id="clipPath17821"><rect id="rect17819" width="18" height="19" x="0" y="0"/></clipPath><clipPath id="clipPath17825"><path id="path17823" d="m 0.898438,0.128906 h 16.25 v 17.882813 h -16.25 z m 0,0"/></clipPath><clipPath id="clip87"><rect id="rect4848" width="24" height="26" x="0" y="0"/></clipPath><clipPath id="clip88"><path id="path4845" d="m 0.683594,0.921875 h 22.679687 v 24.9375 H 0.683594 Z m 0,0"/></clipPath><mask id="mask43"><g style="filter:url(#alpha)" id="g4842" transform="matrix(0.26458333,0,0,0.26458333,89.358789,128.57765)"><rect style="fill:#000;fill-opacity:.14999402;stroke:none" id="rect4840" width="3052.87" height="3351.5" x="0" y="0"/></g></mask><filter id="filter17836" width="1" height="1" x="0" y="0" filterUnits="objectBoundingBox"><feColorMatrix id="feColorMatrix17834" in="SourceGraphic" type="matrix" values="0 0 0 0 1 0 0 0 0 1 0 0 0 0 1 0 0 0 1 0"/></filter><clipPath id="clipPath17840"><rect id="rect17838" width="24" height="26" x="0" y="0"/></clipPath><clipPath id="clipPath17844"><path id="path17842" d="m 0.683594,0.921875 h 22.679687 v 24.9375 H 0.683594 Z m 0,0"/></clipPath></defs><metadata id="metadata15243"/><g id="layer1" transform="translate(-88.611154,-121.20422)"><path style="opacity:1;fill:#1c1c1c;fill-opacity:1;stroke:#2d2d2d;stroke-width:1.05833328;stroke-linecap:square;stroke-linejoin:round;stroke-miterlimit:4;stroke-dasharray:none;stroke-opacity:1;paint-order:stroke fill markers;enable-background:new" id="path4629" d="m 6.7451738,90.996247 0,2.252852 -1.9510268,1.126426 -1.9510268,-1.126426 0,-2.252852 1.9510268,-1.126426 z" transform="matrix(1.2087711,0,0,1.1681456,85.989953,16.937866)"/><path id="path4621" d="m 93.702598,122.99178 0,2.25285 -1.951026,1.12642 -1.951027,-1.12642 0,-2.25285 1.951027,-1.12643 z" transform="matrix(1.3744159,0,0,1.2294886,-34.319832,-28.340702)" style="opacity:1;fill:#656565;fill-opacity:1;stroke:#575757;stroke-width:.4544796;stroke-linecap:square;stroke-linejoin:round;stroke-miterlimit:4;stroke-dasharray:none;stroke-opacity:1;paint-order:stroke fill markers;enable-background:new"/><path id="path7265" d="m 93.30076,124.32038 c 0,0.88109 -0.700553,1.59597 -1.563964,1.59597 -0.863416,0 -1.563968,-0.71488 -1.563968,-1.59597 0,-0.88107 0.700552,-1.59593 1.563968,-1.59593 0.863411,0 1.563964,0.71486 1.563964,1.59593" style="fill:#303030;fill-opacity:1;fill-rule:nonzero;stroke:none;stroke-width:.30968541"/><path style="fill:#191919;fill-opacity:1;fill-rule:nonzero;stroke:none;stroke-width:.2644718" id="path4761" d="m 93.072424,124.47107 c 0,0.75244 -0.598274,1.36296 -1.335628,1.36296 -0.737359,0 -1.335633,-0.61052 -1.335633,-1.36296 0,-0.75244 0.598274,-1.36293 1.335633,-1.36293 0.737354,0 1.335628,0.61049 1.335628,1.36293"/></g></svg>