<svg xmlns="http://www.w3.org/2000/svg" xmlns:svg="http://www.w3.org/2000/svg" id="svg15246" width="24" height="24" version="1.1" viewBox="0 0 6.35 6.35"><defs id="defs15240"><clipPath id="clip89"><rect id="rect4864" width="18" height="19" x="0" y="0"/></clipPath><clipPath id="clip90"><path id="path4861" d="m 0.898438,0.128906 h 16.25 v 17.882813 h -16.25 z m 0,0"/></clipPath><mask id="mask44"><g style="filter:url(#alpha)" id="g4858" transform="matrix(0.26458333,0,0,0.26458333,89.358789,128.57765)"><rect style="fill:#000;fill-opacity:.14999402;stroke:none" id="rect4856" width="3052.87" height="3351.5" x="0" y="0"/></g></mask><filter id="alpha" width="1" height="1" x="0" y="0" filterUnits="objectBoundingBox"><feColorMatrix id="feColorMatrix4149" in="SourceGraphic" type="matrix" values="0 0 0 0 1 0 0 0 0 1 0 0 0 0 1 0 0 0 1 0"/></filter><clipPath id="clipPath17821"><rect id="rect17819" width="18" height="19" x="0" y="0"/></clipPath><clipPath id="clipPath17825"><path id="path17823" d="m 0.898438,0.128906 h 16.25 v 17.882813 h -16.25 z m 0,0"/></clipPath><clipPath id="clip87"><rect id="rect4848" width="24" height="26" x="0" y="0"/></clipPath><clipPath id="clip88"><path id="path4845" d="m 0.683594,0.921875 h 22.679687 v 24.9375 H 0.683594 Z m 0,0"/></clipPath><mask id="mask43"><g style="filter:url(#alpha)" id="g4842" transform="matrix(0.26458333,0,0,0.26458333,89.358789,128.57765)"><rect style="fill:#000;fill-opacity:.14999402;stroke:none" id="rect4840" width="3052.87" height="3351.5" x="0" y="0"/></g></mask><filter id="filter17836" width="1" height="1" x="0" y="0" filterUnits="objectBoundingBox"><feColorMatrix id="feColorMatrix17834" in="SourceGraphic" type="matrix" values="0 0 0 0 1 0 0 0 0 1 0 0 0 0 1 0 0 0 1 0"/></filter><clipPath id="clipPath17840"><rect id="rect17838" width="24" height="26" x="0" y="0"/></clipPath><clipPath id="clipPath17844"><path id="path17842" d="m 0.683594,0.921875 h 22.679687 v 24.9375 H 0.683594 Z m 0,0"/></clipPath></defs><metadata id="metadata15243"/><g id="layer1" transform="translate(-88.611154,-121.20422)"><path style="opacity:.61499999;fill:#101010;fill-opacity:.59215686;stroke:#0f0f0f;stroke-width:1.05833328;stroke-linecap:square;stroke-linejoin:round;stroke-miterlimit:4;stroke-dasharray:none;stroke-opacity:1;paint-order:stroke fill markers;enable-background:new" id="path4629" d="m 6.7451738,90.996247 0,2.252852 -1.9510268,1.126426 -1.9510268,-1.126426 0,-2.252852 1.9510268,-1.126426 z" transform="matrix(1.1766053,0,0,1.1414487,86.14416,19.39058)"/><path id="path4621" d="m 93.702598,122.99178 0,2.25285 -1.951026,1.12642 -1.951027,-1.12642 0,-2.25285 1.951027,-1.12643 z" transform="matrix(1.3489066,0,0,1.2113257,-31.97932,-26.086422)" style="opacity:1;fill:#858585;fill-opacity:1;stroke:#b4b4b4;stroke-width:.46042442;stroke-linecap:square;stroke-linejoin:round;stroke-miterlimit:4;stroke-dasharray:none;stroke-opacity:1;paint-order:stroke fill markers;enable-background:new"/><path id="path7265" d="m 93.296412,124.31897 c 0,0.86095 -0.698543,1.55949 -1.559478,1.55949 -0.860939,0 -1.559483,-0.69854 -1.559483,-1.55949 0,-0.86094 0.698544,-1.55946 1.559483,-1.55946 0.860935,0 1.559478,0.69852 1.559478,1.55946" style="fill:#525252;fill-opacity:1;fill-rule:nonzero;stroke:none;stroke-width:.30568686"/><path style="fill:#191919;fill-opacity:1;fill-rule:nonzero;stroke:none;stroke-width:.26105705" id="path4761" d="m 93.068732,124.46621 c 0,0.73525 -0.596558,1.33181 -1.331798,1.33181 -0.735244,0 -1.331802,-0.59656 -1.331802,-1.33181 0,-0.73524 0.596558,-1.33177 1.331802,-1.33177 0.73524,0 1.331798,0.59653 1.331798,1.33177"/></g></svg>