<svg xmlns="http://www.w3.org/2000/svg" xmlns:svg="http://www.w3.org/2000/svg" id="svg258108" width="29" height="24" version="1.1" viewBox="0 0 7.673 6.35"><defs id="defs258102"><linearGradient id="linear20" x1="-.096" x2="1.325" y1="0" y2="0" gradientTransform="matrix(0,6.4087959,-6.4087959,0,102.632,66.415358)" gradientUnits="userSpaceOnUse"><stop style="stop-color:#414042;stop-opacity:1" id="stop217759" offset="0"/><stop style="stop-color:#414042;stop-opacity:1" id="stop217761" offset=".063"/><stop style="stop-color:#414042;stop-opacity:1" id="stop217763" offset=".078"/><stop style="stop-color:#403f41;stop-opacity:1" id="stop217765" offset=".094"/><stop style="stop-color:#403e40;stop-opacity:1" id="stop217767" offset=".109"/><stop style="stop-color:#3f3e40;stop-opacity:1" id="stop217769" offset=".125"/><stop style="stop-color:#3e3d3f;stop-opacity:1" id="stop217771" offset=".141"/><stop style="stop-color:#3e3c3e;stop-opacity:1" id="stop217773" offset=".156"/><stop style="stop-color:#3d3b3d;stop-opacity:1" id="stop217775" offset=".172"/><stop style="stop-color:#3c3b3d;stop-opacity:1" id="stop217777" offset=".188"/><stop style="stop-color:#3c3a3c;stop-opacity:1" id="stop217779" offset=".203"/><stop style="stop-color:#3b393b;stop-opacity:1" id="stop217781" offset=".219"/><stop style="stop-color:#3a393a;stop-opacity:1" id="stop217783" offset=".234"/><stop style="stop-color:#3a383a;stop-opacity:1" id="stop217785" offset=".25"/><stop style="stop-color:#393739;stop-opacity:1" id="stop217787" offset=".266"/><stop style="stop-color:#383638;stop-opacity:1" id="stop217789" offset=".281"/><stop style="stop-color:#383637;stop-opacity:1" id="stop217791" offset=".297"/><stop style="stop-color:#373537;stop-opacity:1" id="stop217793" offset=".313"/><stop style="stop-color:#363436;stop-opacity:1" id="stop217795" offset=".328"/><stop style="stop-color:#363335;stop-opacity:1" id="stop217797" offset=".344"/><stop style="stop-color:#353334;stop-opacity:1" id="stop217799" offset=".359"/><stop style="stop-color:#343234;stop-opacity:1" id="stop217801" offset=".375"/><stop style="stop-color:#343133;stop-opacity:1" id="stop217803" offset=".391"/><stop style="stop-color:#333032;stop-opacity:1" id="stop217805" offset=".406"/><stop style="stop-color:#323031;stop-opacity:1" id="stop217807" offset=".422"/><stop style="stop-color:#322f30;stop-opacity:1" id="stop217809" offset=".438"/><stop style="stop-color:#312e30;stop-opacity:1" id="stop217811" offset=".453"/><stop style="stop-color:#302e2f;stop-opacity:1" id="stop217813" offset=".469"/><stop style="stop-color:#302d2e;stop-opacity:1" id="stop217815" offset=".484"/><stop style="stop-color:#2f2c2d;stop-opacity:1" id="stop217817" offset=".5"/><stop style="stop-color:#2e2b2d;stop-opacity:1" id="stop217819" offset=".516"/><stop style="stop-color:#2e2b2c;stop-opacity:1" id="stop217821" offset=".531"/><stop style="stop-color:#2d2a2b;stop-opacity:1" id="stop217823" offset=".547"/><stop style="stop-color:#2c292a;stop-opacity:1" id="stop217825" offset=".563"/><stop style="stop-color:#2c282a;stop-opacity:1" id="stop217827" offset=".578"/><stop style="stop-color:#2b2829;stop-opacity:1" id="stop217829" offset=".594"/><stop style="stop-color:#2a2728;stop-opacity:1" id="stop217831" offset=".609"/><stop style="stop-color:#2a2627;stop-opacity:1" id="stop217833" offset=".625"/><stop style="stop-color:#292527;stop-opacity:1" id="stop217835" offset=".641"/><stop style="stop-color:#282526;stop-opacity:1" id="stop217837" offset=".656"/><stop style="stop-color:#282425;stop-opacity:1" id="stop217839" offset=".672"/><stop style="stop-color:#272324;stop-opacity:1" id="stop217841" offset=".688"/><stop style="stop-color:#262324;stop-opacity:1" id="stop217843" offset=".703"/><stop style="stop-color:#262223;stop-opacity:1" id="stop217845" offset=".719"/><stop style="stop-color:#252122;stop-opacity:1" id="stop217847" offset=".734"/><stop style="stop-color:#242021;stop-opacity:1" id="stop217849" offset=".75"/><stop style="stop-color:#242021;stop-opacity:1" id="stop217851" offset=".766"/><stop style="stop-color:#231f20;stop-opacity:1" id="stop217853" offset=".781"/><stop style="stop-color:#231f20;stop-opacity:1" id="stop217855" offset=".813"/><stop style="stop-color:#231f20;stop-opacity:1" id="stop217857" offset=".875"/><stop style="stop-color:#231f20;stop-opacity:1" id="stop217859" offset="1"/></linearGradient></defs><metadata id="metadata258105"/><g id="layer1" transform="translate(-100.25783,-69.005654)"><g id="g258244"><path id="path909" d="m 103.24028,72.181246 c 0.27813,0 0.47337,-0.14367 0.47337,-0.399695 v -0.0037 c 0,-0.224714 -0.14735,-0.318651 -0.40891,-0.386802 -0.22287,-0.0571 -0.27812,-0.08473 -0.27812,-0.169456 v -0.0037 c 0,-0.06262 0.0571,-0.112356 0.16577,-0.112356 0.0884,0 0.17682,0.03131 0.27076,0.08657 0.0221,0.01289 0.0442,0.02026 0.0718,0.02026 0.0737,0 0.13262,-0.0571 0.13262,-0.130776 0,-0.05526 -0.0313,-0.09394 -0.0626,-0.112357 -0.11604,-0.07368 -0.25235,-0.114198 -0.40891,-0.114198 -0.26339,0 -0.45127,0.15472 -0.45127,0.388643 v 0.0037 c 0,0.256026 0.16762,0.32786 0.42733,0.394169 0.2155,0.05526 0.25971,0.0921 0.25971,0.16393 v 0.0037 c 0,0.07552 -0.07,0.121567 -0.18604,0.121567 -0.12525,0 -0.23208,-0.04421 -0.3297,-0.116041 -0.0184,-0.01289 -0.0442,-0.02579 -0.081,-0.02579 -0.0737,0 -0.13262,0.0571 -0.13262,0.130776 0,0.04421 0.0221,0.08473 0.0534,0.106831 0.14367,0.103147 0.31497,0.154721 0.48443,0.154721 z" style="font-style:normal;font-variant:normal;font-weight:400;font-stretch:normal;font-size:medium;line-height:1.25;font-family:'Gotham Rounded';-inkscape-font-specification:'Gotham Rounded';text-align:center;letter-spacing:0;word-spacing:0;text-anchor:middle;fill:#ffd42a;fill-opacity:1;stroke:none;stroke-width:.26458329"/><path id="path911" d="m 103.95136,72.032051 c 0,0.0792 0.0626,0.141827 0.14183,0.141827 0.0792,0 0.14182,-0.06262 0.14182,-0.141827 v -1.027788 c 0,-0.0792 -0.0626,-0.141827 -0.14182,-0.141827 -0.0792,0 -0.14183,0.06262 -0.14183,0.141827 z" style="font-style:normal;font-variant:normal;font-weight:400;font-stretch:normal;font-size:medium;line-height:1.25;font-family:'Gotham Rounded';-inkscape-font-specification:'Gotham Rounded';text-align:center;letter-spacing:0;word-spacing:0;text-anchor:middle;fill:#ffd42a;fill-opacity:1;stroke:none;stroke-width:.26458329"/><path id="path913" d="m 104.48765,72.033893 c 0,0.07736 0.0575,0.139985 0.12873,0.139985 0.0712,0 0.12873,-0.06262 0.12873,-0.139985 v -0.690718 l 0.52169,0.744133 c 0.0356,0.04973 0.0728,0.08289 0.13551,0.08289 h 0.009 c 0.0728,0 0.13041,-0.06262 0.13041,-0.141827 v -1.025945 c 0,-0.07736 -0.0575,-0.139986 -0.12872,-0.139986 -0.0712,0 -0.12874,0.06262 -0.12874,0.139986 v 0.66493 l -0.50305,-0.718346 c -0.0356,-0.04973 -0.0729,-0.08289 -0.1355,-0.08289 h -0.0271 c -0.0728,0 -0.13042,0.06263 -0.13042,0.141827 z" style="font-style:normal;font-variant:normal;font-weight:400;font-stretch:normal;font-size:medium;line-height:1.25;font-family:'Gotham Rounded';-inkscape-font-specification:'Gotham Rounded';text-align:center;letter-spacing:0;word-spacing:0;text-anchor:middle;fill:#ffd42a;fill-opacity:1;stroke:none;stroke-width:.26458329"/></g></g></svg>