<svg xmlns="http://www.w3.org/2000/svg" xmlns:svg="http://www.w3.org/2000/svg" id="svg56722" width="13.125" height="19.351" version="1.1" viewBox="0 0 3.704 5.461"><metadata id="metadata56719"/><g id="layer1" transform="translate(-35.423779,-63.339207)"><path id="path5785" d="m 35.423779,63.729496 c 0,-0.214411 0.175878,-0.390289 0.390289,-0.390289 l 2.923589,0 c 0.214411,0 0.390289,0.175878 0.390289,0.390289 l 0,4.68099 c 0,0.214412 -0.175878,0.390014 -0.390289,0.390014 l -2.923589,0 c -0.214411,0 -0.390289,-0.175602 -0.390289,-0.390014 z" style="fill:#0a0b0e;fill-opacity:1;fill-rule:nonzero;stroke:none;stroke-width:1.2817142"/><g id="g5795" transform="matrix(0.27523902,0,0,-0.27523902,-180.22814,385.03395)" style="fill:#646464;fill-opacity:1;stroke-width:1.2817142"><g id="g5797" style="fill:#646464;fill-opacity:1;stroke-width:1.2817142"><path style="fill:#646464;fill-opacity:1;stroke:none;stroke-width:1.2817142" id="path5805" d="m 785.616,1167.502 c -0.468,0 -0.85,-0.382 -0.85,-0.85 l 0,0 0,-15.724 c 0,-0.468 0.382,-0.851 0.85,-0.851 l 0,0 9.241,0 c 0.466,0 0.849,0.383 0.849,0.851 l 0,0 0,15.724 c 0,0.468 -0.383,0.85 -0.849,0.85 l 0,0 z"/></g></g><path style="fill:#969696;fill-opacity:1;fill-rule:nonzero;stroke:none;stroke-width:1.2817142" id="path5815" d="m 35.77036,66.147251 3.011115,0 0,2.340633 -3.011115,0 z"/><rect style="opacity:1;fill:none;fill-opacity:1;fill-rule:nonzero;stroke:#414141;stroke-width:.5;stroke-miterlimit:4;stroke-dasharray:none;stroke-dashoffset:0;stroke-opacity:1" id="rect4142" width="2.541" height="1.687" x="36.022" y="66.495" ry=".205"/></g></svg>