<svg xmlns="http://www.w3.org/2000/svg" xmlns:svg="http://www.w3.org/2000/svg" id="svg18" width="9" height="9" version="1.1" viewBox="0 0 9 9"><metadata id="metadata24"/><path style="fill:#888" id="circle2" d="M 8.9000001,4.5 A 4.4000001,4.4000001 0 0 1 4.5,8.9000001 4.4000001,4.4000001 0 0 1 0.0999999,4.5 4.4000001,4.4000001 0 0 1 4.5,0.0999999 4.4000001,4.4000001 0 0 1 8.9000001,4.5 Z"/><path style="fill:#333" id="circle4" d="M 8.6999998,4.5 A 4.1999998,4.1999998 0 0 1 4.5,8.6999998 4.1999998,4.1999998 0 0 1 0.30000019,4.5 4.1999998,4.1999998 0 0 1 4.5,0.30000019 4.1999998,4.1999998 0 0 1 8.6999998,4.5 Z"/><path style="fill:#888" id="circle6" d="m 8.5,4.5 a 4,4 0 0 1 -4,4 4,4 0 0 1 -4,-4 4,4 0 0 1 4,-4 4,4 0 0 1 4,4 z"/><path style="fill:#999" id="circle8" d="M 8.3,4.5 A 3.8,3.8 0 0 1 4.5,8.3 3.8,3.8 0 0 1 0.70000005,4.5 3.8,3.8 0 0 1 4.5,0.70000005 3.8,3.8 0 0 1 8.3,4.5 Z"/><path style="fill:#aaa" id="circle10" d="M 8.0999999,4.5 A 3.5999999,3.5999999 0 0 1 4.5,8.0999999 3.5999999,3.5999999 0 0 1 0.9000001,4.5 3.5999999,3.5999999 0 0 1 4.5,0.9000001 3.5999999,3.5999999 0 0 1 8.0999999,4.5 Z"/><path style="fill:#bbb" id="circle12" d="M 7.9000001,4.5 A 3.4000001,3.4000001 0 0 1 4.5,7.9000001 3.4000001,3.4000001 0 0 1 1.0999999,4.5 3.4000001,3.4000001 0 0 1 4.5,1.0999999 3.4000001,3.4000001 0 0 1 7.9000001,4.5 Z"/><path style="fill:#ccc" id="circle14" d="M 7.7,4.5 A 3.2,3.2 0 0 1 4.5,7.7 3.2,3.2 0 0 1 1.3,4.5 3.2,3.2 0 0 1 4.5,1.3 3.2,3.2 0 0 1 7.7,4.5 Z"/></svg>