<svg xmlns="http://www.w3.org/2000/svg" xmlns:svg="http://www.w3.org/2000/svg" id="svg14" width="29" height="29" version="1.1" viewBox="0 0 29 29"><metadata id="metadata20"/><path style="fill:#333" id="circle2" d="M 28.8,14.5 A 14.3,14.3 0 0 1 14.5,28.8 14.3,14.3 0 0 1 0.19999981,14.5 14.3,14.3 0 0 1 14.5,0.19999981 14.3,14.3 0 0 1 28.8,14.5 Z"/><path style="fill:#eee" id="circle4" d="M 25.4,14.5 A 10.9,10.9 0 0 1 14.5,25.4 10.9,10.9 0 0 1 3.6000004,14.5 10.9,10.9 0 0 1 14.5,3.6000004 10.9,10.9 0 0 1 25.4,14.5 Z"/><path style="fill:#fff" id="circle8" d="M 15.8,1.6 A 1.3,1.3 0 0 1 14.5,2.9 1.3,1.3 0 0 1 13.2,1.6 1.3,1.3 0 0 1 14.5,0.30000007 1.3,1.3 0 0 1 15.8,1.6 Z"/><path style="fill:#fff" id="circle10" d="M 15.8,1.9 A 1.3,1.3 0 0 1 14.5,3.1999999 1.3,1.3 0 0 1 13.2,1.9 1.3,1.3 0 0 1 14.5,0.60000002 1.3,1.3 0 0 1 15.8,1.9 Z"/><path style="fill:#fff" id="circle12" d="M 15.8,2.2 A 1.3,1.3 0 0 1 14.5,3.5 1.3,1.3 0 0 1 13.2,2.2 1.3,1.3 0 0 1 14.5,0.9000001 1.3,1.3 0 0 1 15.8,2.2 Z"/></svg>