<svg xmlns="http://www.w3.org/2000/svg" xmlns:svg="http://www.w3.org/2000/svg" id="svg12" width="38" height="38" version="1.1" viewBox="0 0 38 38"><metadata id="metadata18"/><path style="fill:#333" id="circle2" d="M 37.700001,19 A 18.700001,18.700001 0 0 1 19,37.700001 18.700001,18.700001 0 0 1 0.29999924,19 18.700001,18.700001 0 0 1 19,0.29999924 18.700001,18.700001 0 0 1 37.700001,19 Z"/><path style="fill:#eee" id="circle6" d="M 33,19 A 14,14 0 0 1 19,33 14,14 0 0 1 5,19 14,14 0 0 1 19,5 14,14 0 0 1 33,19 Z"/><path style="fill:#fff" id="circle10" d="M 20.8,2.7 A 1.8,1.8 0 0 1 19,4.5 1.8,1.8 0 0 1 17.2,2.7 1.8,1.8 0 0 1 19,0.9000001 1.8,1.8 0 0 1 20.8,2.7 Z"/></svg>