<svg xmlns="http://www.w3.org/2000/svg" xmlns:svg="http://www.w3.org/2000/svg" id="svg12" width="19" height="19" version="1.1" viewBox="0 0 19 19"><metadata id="metadata18"/><path style="fill:#333" id="circle2" d="M 18.8,9.5 A 9.3000002,9.3000002 0 0 1 9.5,18.8 9.3000002,9.3000002 0 0 1 0.19999981,9.5 9.3000002,9.3000002 0 0 1 9.5,0.19999981 9.3000002,9.3000002 0 0 1 18.8,9.5 Z"/><path style="fill:#eee" id="circle4" d="M 16.8,9.5 A 7.3000002,7.3000002 0 0 1 9.5,16.8 7.3000002,7.3000002 0 0 1 2.1999998,9.5 7.3000002,7.3000002 0 0 1 9.5,2.1999998 7.3000002,7.3000002 0 0 1 16.8,9.5 Z"/><path style="fill:#fff" id="circle8" d="M 10.8,1.6 A 1.3,1.3 0 0 1 9.5,2.9 1.3,1.3 0 0 1 8.2,1.6 1.3,1.3 0 0 1 9.5,0.30000007 1.3,1.3 0 0 1 10.8,1.6 Z"/><path style="fill:#fff" id="circle10" d="M 10.8,1.9 A 1.3,1.3 0 0 1 9.5,3.1999999 1.3,1.3 0 0 1 8.2,1.9 1.3,1.3 0 0 1 9.5,0.60000002 1.3,1.3 0 0 1 10.8,1.9 Z"/></svg>