<svg xmlns="http://www.w3.org/2000/svg" xmlns:svg="http://www.w3.org/2000/svg" id="svg10" width="16" height="16" version="1.1" viewBox="0 0 16 16"><metadata id="metadata16"/><path style="fill:#555" id="circle2" d="M 15.8,8 A 7.8000002,7.8000002 0 0 1 8,15.8 7.8000002,7.8000002 0 0 1 0.19999981,8 7.8000002,7.8000002 0 0 1 8,0.19999981 7.8000002,7.8000002 0 0 1 15.8,8 Z"/><path style="fill:#333" id="circle4" d="M 14,8 A 6,6 0 0 1 8,14 6,6 0 0 1 2,8 6,6 0 0 1 8,2 6,6 0 0 1 14,8 Z"/><path style="stroke:#fff;stroke-width:2;stroke-linecap:round" id="polyline6" d="M 0,0 V -6.5" transform="translate(8,8)"/></svg>