<svg xmlns="http://www.w3.org/2000/svg" xmlns:svg="http://www.w3.org/2000/svg" id="svg12" width="26" height="26" version="1.1" viewBox="0 0 26 26"><metadata id="metadata18"/><path style="fill:#333" id="circle2" d="M 25.8,13 A 12.8,12.8 0 0 1 13,25.8 12.8,12.8 0 0 1 0.19999981,13 12.8,12.8 0 0 1 13,0.19999981 12.8,12.8 0 0 1 25.8,13 Z"/><path style="fill:#eee" id="circle4" d="M 22.7,13 A 9.6999998,9.6999998 0 0 1 13,22.7 9.6999998,9.6999998 0 0 1 3.3000002,13 9.6999998,9.6999998 0 0 1 13,3.3000002 9.6999998,9.6999998 0 0 1 22.7,13 Z"/><path style="fill:#fff" id="circle8" d="M 14.3,1.6 A 1.3,1.3 0 0 1 13,2.9 1.3,1.3 0 0 1 11.7,1.6 1.3,1.3 0 0 1 13,0.30000007 1.3,1.3 0 0 1 14.3,1.6 Z"/><path style="fill:#fff" id="circle10" d="M 14.3,1.9 A 1.3,1.3 0 0 1 13,3.1999999 1.3,1.3 0 0 1 11.7,1.9 1.3,1.3 0 0 1 13,0.60000002 1.3,1.3 0 0 1 14.3,1.9 Z"/></svg>