<svg xmlns="http://www.w3.org/2000/svg" xmlns:svg="http://www.w3.org/2000/svg" id="svg299" width="45" height="380" version="1.1" viewBox="0 0 45 380"><metadata id="metadata303"/><style id="style2">text{fill:#333;font-family:&apos;Roboto&apos;,sans-serif;font-weight:700}</style><defs id="defs237"><symbol id="knob" viewBox="0 0 45 45"><g id="g10" transform="translate(22.5 22.5)"><polyline id="polyline4" stroke="#00f" stroke-width="1" points="-5 0 5 0"/><polyline id="polyline6" stroke="#00f" stroke-width="1" points="0 -5 0 5"/><circle id="circle8" cx="0" cy="0" r="14" fill="none" stroke="#00f" stroke-width="1"/></g></symbol><symbol id="knobguide" viewBox="0 0 45 45"><g id="g111" transform="translate(22.5 22.5)"><g id="g15" transform="rotate(-240) translate(17 0)"><polyline id="polyline13" stroke="#333" stroke-width="1.5" points="0 0 4 0"/></g><g id="g19" transform="rotate(-225) translate(17 0)"><polyline id="polyline17" stroke="#333" stroke-width=".3" points="0 0 3 0"/></g><g id="g23" transform="rotate(-210) translate(17 0)"><polyline id="polyline21" stroke="#333" stroke-width=".3" points="0 0 3 0"/></g><g id="g27" transform="rotate(-195) translate(17 0)"><polyline id="polyline25" stroke="#333" stroke-width=".3" points="0 0 3 0"/></g><g id="g31" transform="rotate(-180) translate(17 0)"><polyline id="polyline29" stroke="#333" stroke-width=".3" points="0 0 3 0"/></g><g id="g35" transform="rotate(-165) translate(17 0)"><polyline id="polyline33" stroke="#333" stroke-width="1.5" points="0 0 4 0"/></g><g id="g39" transform="rotate(-150) translate(17 0)"><polyline id="polyline37" stroke="#333" stroke-width=".3" points="0 0 3 0"/></g><g id="g43" transform="rotate(-135) translate(17 0)"><polyline id="polyline41" stroke="#333" stroke-width=".3" points="0 0 3 0"/></g><g id="g47" transform="rotate(-120) translate(17 0)"><polyline id="polyline45" stroke="#333" stroke-width=".3" points="0 0 3 0"/></g><g id="g51" transform="rotate(-105) translate(17 0)"><polyline id="polyline49" stroke="#333" stroke-width=".3" points="0 0 3 0"/></g><g id="g57" transform="rotate(-90) translate(17 0)"><g id="g55" transform="translate(2.4 0) rotate(90)"><text id="text53" font-size="6.5pt" transform="translate(-2.3 3.3)">0</text></g></g><g id="g61" transform="rotate(-75) translate(17 0)"><polyline id="polyline59" stroke="#333" stroke-width=".3" points="0 0 3 0"/></g><g id="g65" transform="rotate(-60) translate(17 0)"><polyline id="polyline63" stroke="#333" stroke-width=".3" points="0 0 3 0"/></g><g id="g69" transform="rotate(-45) translate(17 0)"><polyline id="polyline67" stroke="#333" stroke-width=".3" points="0 0 3 0"/></g><g id="g73" transform="rotate(-30) translate(17 0)"><polyline id="polyline71" stroke="#333" stroke-width=".3" points="0 0 3 0"/></g><g id="g77" transform="rotate(-15) translate(17 0)"><polyline id="polyline75" stroke="#333" stroke-width="1.5" points="0 0 4 0"/></g><g id="g81" transform="rotate(0) translate(17 0)"><polyline id="polyline79" stroke="#333" stroke-width=".3" points="0 0 3 0"/></g><g id="g85" transform="rotate(15) translate(17 0)"><polyline id="polyline83" stroke="#333" stroke-width=".3" points="0 0 3 0"/></g><g id="g89" transform="rotate(30) translate(17 0)"><polyline id="polyline87" stroke="#333" stroke-width=".3" points="0 0 3 0"/></g><g id="g93" transform="rotate(45) translate(17 0)"><polyline id="polyline91" stroke="#333" stroke-width=".3" points="0 0 3 0"/></g><g id="g97" transform="rotate(60) translate(17 0)"><polyline id="polyline95" stroke="#333" stroke-width="1.5" points="0 0 4 0"/></g><g id="g103" transform="rotate(-225) translate(22 0)"><g id="g101" transform="translate(2.5 0) rotate(225)"><text id="text99" font-size="12" transform="translate(-2 3.4)">-</text></g></g><g id="g109" transform="rotate(45) translate(22 0)"><g id="g107" transform="translate(2.5 0) rotate(-45)"><text id="text105" font-size="7pt" transform="translate(-2.9 3)">+</text></g></g></g></symbol><symbol id="knobguide-exp" viewBox="0 0 45 45"><g id="g220" transform="translate(22.5 22.5)"><g id="g116" transform="rotate(-240) translate(17 0)"><polyline id="polyline114" stroke="#333" stroke-width="1.5" points="0 0 4 0"/></g><g id="g120" transform="rotate(-232.3) translate(17 0)"><polyline id="polyline118" stroke="#333" stroke-width=".3" points="0 0 3 0"/></g><g id="g124" transform="rotate(-224.2) translate(17 0)"><polyline id="polyline122" stroke="#333" stroke-width=".3" points="0 0 3 0"/></g><g id="g128" transform="rotate(-215.5) translate(17 0)"><polyline id="polyline126" stroke="#333" stroke-width=".3" points="0 0 3 0"/></g><g id="g132" transform="rotate(-206.2) translate(17 0)"><polyline id="polyline130" stroke="#333" stroke-width=".3" points="0 0 3 0"/></g><g id="g136" transform="rotate(-196.1) translate(17 0)"><polyline id="polyline134" stroke="#333" stroke-width="1.5" points="0 0 4 0"/></g><g id="g140" transform="rotate(-184.9) translate(17 0)"><polyline id="polyline138" stroke="#333" stroke-width=".3" points="0 0 3 0"/></g><g id="g144" transform="rotate(-172.2) translate(17 0)"><polyline id="polyline142" stroke="#333" stroke-width=".3" points="0 0 3 0"/></g><g id="g148" transform="rotate(-157.1) translate(17 0)"><polyline id="polyline146" stroke="#333" stroke-width=".3" points="0 0 3 0"/></g><g id="g152" transform="rotate(-137.4) translate(17 0)"><polyline id="polyline150" stroke="#333" stroke-width="1.5" points="0 0 4 0"/></g><g id="g156" transform="rotate(-123.5) translate(17 0)"><polyline id="polyline154" stroke="#333" stroke-width=".3" points="0 0 1 0"/></g><g id="g162" transform="rotate(-90) translate(17 0)"><g id="g160" transform="translate(2.4 0) rotate(90)"><text id="text158" font-size="6.5pt" transform="translate(-2.3 3.3)">0</text></g></g><g id="g166" transform="rotate(-56.5) translate(17 0)"><polyline id="polyline164" stroke="#333" stroke-width=".3" points="0 0 1 0"/></g><g id="g170" transform="rotate(-42.3) translate(17 0)"><polyline id="polyline168" stroke="#333" stroke-width="1.5" points="0 0 4 0"/></g><g id="g174" transform="rotate(-22.9) translate(17 0)"><polyline id="polyline172" stroke="#333" stroke-width=".3" points="0 0 3 0"/></g><g id="g178" transform="rotate(-7.8) translate(17 0)"><polyline id="polyline176" stroke="#333" stroke-width=".3" points="0 0 3 0"/></g><g id="g182" transform="rotate(4.8) translate(17 0)"><polyline id="polyline180" stroke="#333" stroke-width=".3" points="0 0 3 0"/></g><g id="g186" transform="rotate(16.1) translate(17 0)"><polyline id="polyline184" stroke="#333" stroke-width="1.5" points="0 0 4 0"/></g><g id="g190" transform="rotate(26.2) translate(17 0)"><polyline id="polyline188" stroke="#333" stroke-width=".3" points="0 0 3 0"/></g><g id="g194" transform="rotate(35.5) translate(17 0)"><polyline id="polyline192" stroke="#333" stroke-width=".3" points="0 0 3 0"/></g><g id="g198" transform="rotate(44.2) translate(17 0)"><polyline id="polyline196" stroke="#333" stroke-width=".3" points="0 0 3 0"/></g><g id="g202" transform="rotate(52.3) translate(17 0)"><polyline id="polyline200" stroke="#333" stroke-width=".3" points="0 0 3 0"/></g><g id="g206" transform="rotate(60) translate(17 0)"><polyline id="polyline204" stroke="#333" stroke-width="1.5" points="0 0 4 0"/></g><g id="g212" transform="rotate(-225) translate(22 0)"><g id="g210" transform="translate(2.5 0) rotate(225)"><text id="text208" font-size="12" transform="translate(-2 3.4)">-</text></g></g><g id="g218" transform="rotate(45) translate(22 0)"><g id="g216" transform="translate(2.5 0) rotate(-45)"><text id="text214" font-size="7pt" transform="translate(-2.9 3)">+</text></g></g></g></symbol><symbol id="input" viewBox="0 0 24 24"><g id="g227" transform="translate(12 12)"><circle id="circle223" cx="0" cy="0" r="5" fill="#0f0" stroke="#0f0" stroke-width="1"/><circle id="circle225" cx="0" cy="0" r="10.5" fill="none" stroke="#0f0" stroke-width="3"/></g></symbol><symbol id="output" viewBox="0 0 24 24"><g id="g234" transform="translate(12 12)"><circle id="circle230" cx="0" cy="0" r="5" fill="red" stroke="red" stroke-width="1"/><circle id="circle232" cx="0" cy="0" r="10.5" fill="none" stroke="red" stroke-width="3"/></g></symbol></defs><path style="fill:#ddd" id="rect239" d="M 0,0 H 45 V 380 H 0 Z"/><path style="fill:none;stroke:#e4e4e4;stroke-width:.5" id="polyline241" d="M 1,1 H 44 V 379 H 1 V 1"/><path style="fill:none;stroke:#ebebeb;stroke-width:.80000001" id="polyline243" d="m 0.5,0.5 h 44 v 379 H 0.5 V 0.5"/><path style="fill:none;stroke:#f2f2f2;stroke-width:1" id="polyline245" d="M 0,0 H 45 V 380 H 0 V 0"/><g style="font-weight:400;font-size:9.33333302px;font-family:Comfortaa,sans-serif;letter-spacing:2.5px;fill:#333" id="text247" aria-label="OFFSET" transform="rotate(-90)"><path style="font-weight:400;font-size:9.33333302px;font-family:Comfortaa,sans-serif;letter-spacing:2.5px;fill:#333" id="path543" d="m -371.69733,13.093333 q -1.064,0 -1.91334,-0.485333 -0.84933,-0.485333 -1.33466,-1.334667 -0.476,-0.858666 -0.476,-1.9226662 0,-1.064 0.476,-1.9133333 0.48533,-0.8493333 1.33466,-1.3346666 0.84934,-0.4853333 1.91334,-0.4853333 1.05466,0 1.904,0.4853333 0.85866,0.4853333 1.33466,1.3346666 0.48534,0.8493333 0.48534,1.9133333 0,1.0640002 -0.48534,1.9226662 -0.476,0.849334 -1.33466,1.334667 -0.84934,0.485333 -1.904,0.485333 z m 0,-0.690666 q 0.84933,0 1.53066,-0.401334 0.69067,-0.401333 1.08267,-1.092 0.392,-0.7 0.392,-1.5586662 0,-0.8493333 -0.392,-1.54 -0.392,-0.6999999 -1.08267,-1.1013333 -0.68133,-0.4013333 -1.53066,-0.4013333 -0.85867,0 -1.54934,0.4013333 -0.68133,0.4013334 -1.07333,1.1013333 -0.392,0.6906667 -0.392,1.54 0,0.8586662 0.392,1.5586662 0.392,0.690667 1.07333,1.092 0.69067,0.401334 1.54934,0.401334 z"/><path style="font-weight:400;font-size:9.33333302px;font-family:Comfortaa,sans-serif;letter-spacing:2.5px;fill:#333" id="path545" d="m -364.17717,13 q -0.14933,0 -0.26133,-0.102667 -0.10267,-0.112 -0.10267,-0.261333 V 6.0746669 q 0,-0.1586667 0.10267,-0.2613333 0.112,-0.1026667 0.26133,-0.1026667 h 4.37734 q 0.15866,0 0.26133,0.1026667 0.10267,0.1026666 0.10267,0.252 0,0.1493333 -0.10267,0.252 -0.10267,0.093333 -0.26133,0.093333 h -4.01334 v 2.5759999 h 2.92134 q 0.15866,0 0.26133,0.1026667 0.10267,0.093333 0.10267,0.252 0,0.1493333 -0.10267,0.2519999 -0.10267,0.1026667 -0.26133,0.1026667 h -2.92134 V 12.636 q 0,0.149333 -0.10266,0.261333 Q -364.0185,13 -364.17717,13 Z"/><path style="font-weight:400;font-size:9.33333302px;font-family:Comfortaa,sans-serif;letter-spacing:2.5px;fill:#333" id="path547" d="m -355.84383,13 q -0.14934,0 -0.26134,-0.102667 -0.10266,-0.112 -0.10266,-0.261333 V 6.0746669 q 0,-0.1586667 0.10266,-0.2613333 0.112,-0.1026667 0.26134,-0.1026667 h 4.37733 q 0.15867,0 0.26133,0.1026667 0.10267,0.1026666 0.10267,0.252 0,0.1493333 -0.10267,0.252 -0.10266,0.093333 -0.26133,0.093333 h -4.01333 v 2.5759999 h 2.92133 q 0.15867,0 0.26133,0.1026667 0.10267,0.093333 0.10267,0.252 0,0.1493333 -0.10267,0.2519999 -0.10266,0.1026667 -0.26133,0.1026667 h -2.92133 V 12.636 q 0,0.149333 -0.10267,0.261333 Q -355.68517,13 -355.84383,13 Z"/><path style="font-weight:400;font-size:9.33333302px;font-family:Comfortaa,sans-serif;letter-spacing:2.5px;fill:#333" id="path549" d="m -345.05583,13.093333 q -0.88667,0 -1.57734,-0.373333 -0.68133,-0.382667 -0.98,-1.026667 -0.0373,-0.06533 -0.0373,-0.149333 0,-0.130667 0.0933,-0.214667 0.10267,-0.09333 0.27067,-0.09333 0.112,0 0.20533,0.06533 0.10267,0.056 0.14934,0.168 0.21466,0.42 0.70933,0.681334 0.504,0.252 1.16667,0.252 0.76533,0 1.232,-0.364 0.46666,-0.373334 0.46666,-1.036 0,-0.588 -0.43866,-0.989334 -0.42934,-0.4013329 -1.29734,-0.5133329 -1.08266,-0.1306666 -1.708,-0.672 -0.616,-0.5506666 -0.616,-1.3439999 0,-0.56 0.29867,-0.98 0.308,-0.4293333 0.84,-0.6533333 0.54133,-0.2333333 1.22267,-0.2333333 0.73733,0 1.29733,0.3266666 0.56,0.3266667 0.87733,0.8493333 0.0653,0.1026667 0.0653,0.224 0,0.1773334 -0.168,0.28 -0.0747,0.037333 -0.168,0.037333 -0.10267,0 -0.196,-0.046667 -0.084,-0.056 -0.14,-0.1493333 -0.52267,-0.8213333 -1.57734,-0.8306667 -0.756,0 -1.19466,0.3173334 -0.43867,0.3173333 -0.43867,0.9053333 0,1.0919999 1.764,1.3253332 1.15733,0.168 1.72667,0.7093334 0.56933,0.5413335 0.56933,1.4279995 0,0.653334 -0.31733,1.129334 -0.31734,0.476 -0.868,0.728 -0.55067,0.242666 -1.232,0.242666 z"/><path style="font-weight:400;font-size:9.33333302px;font-family:Comfortaa,sans-serif;letter-spacing:2.5px;fill:#333" id="path551" d="m -338.25215,13 q -0.14933,0 -0.26133,-0.102667 -0.10267,-0.112 -0.10267,-0.261333 V 6.0746669 q 0,-0.1586667 0.10267,-0.2613333 0.112,-0.1026667 0.26133,-0.1026667 h 4.37734 q 0.15866,0 0.26133,0.1026667 0.10267,0.1026666 0.10267,0.252 0,0.1493333 -0.10267,0.252 -0.10267,0.093333 -0.26133,0.093333 h -4.01334 v 2.5759999 h 2.92134 q 0.15866,0 0.26133,0.1026667 0.10267,0.1026666 0.10267,0.252 0,0.1493333 -0.112,0.2519999 -0.10267,0.1026667 -0.252,0.1026667 h -2.92134 V 12.3 h 4.01334 q 0.15866,0 0.26133,0.102667 0.10267,0.09333 0.10267,0.242666 0,0.149334 -0.10267,0.252 Q -333.71615,13 -333.87481,13 Z"/><path style="font-weight:400;font-size:9.33333302px;font-family:Comfortaa,sans-serif;letter-spacing:2.5px;fill:#333" id="path553" d="m -324.95902,5.7106669 q 0.14933,0 0.24266,0.093333 0.0933,0.093333 0.0933,0.2426667 0,0.14 -0.0933,0.2333333 -0.0933,0.093333 -0.24266,0.093333 h -2.22134 V 12.636 q 0,0.149333 -0.10266,0.261333 Q -327.38569,13 -327.54436,13 q -0.14933,0 -0.26133,-0.102667 -0.10267,-0.112 -0.10267,-0.261333 V 6.3733336 h -2.212 q -0.14933,0 -0.24266,-0.093333 -0.0933,-0.093333 -0.0933,-0.2333333 0,-0.1493333 0.0933,-0.2426667 0.0933,-0.093333 0.24266,-0.093333 z"/></g><g id="g253" transform="rotate(-90,200.5,175.5)"><g style="font-weight:700;font-size:9.33333302px;font-family:Audiowide,sans-serif;letter-spacing:2px;fill:#333" id="text249" aria-label="BGA"><path style="font-weight:700;font-size:9.33333302px;font-family:Audiowide,sans-serif;letter-spacing:2px;fill:#333" id="path556" d="m 7.2096352,-1.4355468 q 0,0.21875 -0.077474,0.469401 -0.072917,0.25065103 -0.2460937,0.46484373 -0.1686198,0.2141927 -0.4420573,0.36002603 Q 6.1705727,0 5.7740883,0 H 1.2760416 Q 1.1484375,0 1.0390625,-0.04557292 0.92968747,-0.09114583 0.84765622,-0.16861979 q -0.077474,-0.0820312 -0.12304687,-0.19140624 -0.0455729,-0.109375 -0.0455729,-0.23697916 V -5.9381508 q 0,-0.1230469 0.0455729,-0.2324219 0.0455729,-0.109375 0.12304687,-0.1914062 0.0820313,-0.082031 0.19140628,-0.1276042 0.109375,-0.045573 0.2369791,-0.045573 h 3.9648436 q 0.21875,0 0.4694011,0.077474 0.250651,0.077474 0.4648437,0.2506511 0.21875,0.1686197 0.360026,0.4420572 0.1458334,0.2734375 0.1458334,0.6699219 v 0.2233073 q 0,0.3144531 -0.1048177,0.6790364 -0.1048178,0.360026 -0.3372396,0.6835937 0.2005208,0.1230469 0.3736979,0.296224 0.1777344,0.1731771 0.3098958,0.4010416 0.1321615,0.2278646 0.2096354,0.514974 0.077474,0.2871093 0.077474,0.6334635 z M 6.0247394,-1.6634114 q 0,-0.2324219 -0.072917,-0.4147135 Q 5.878906,-2.2649739 5.7467446,-2.3971353 5.6145831,-2.5292968 5.4277342,-2.5976562 5.2408852,-2.6705728 5.0084634,-2.6705728 H 2.3378905 v -1.1940104 h 2.1373698 q 0.2324218,0 0.4192708,-0.068359 0.1868489,-0.072917 0.3190104,-0.2050781 0.1321614,-0.1321614 0.2005208,-0.3144531 0.072917,-0.186849 0.072917,-0.4192708 v -0.2233073 q 0,-0.2552083 -0.2460938,-0.2552083 h -3.376953 v 4.1653644 h 3.9101561 q 0.031901,0 0.077474,-0.00456 0.045573,-0.00456 0.082031,-0.027344 0.036458,-0.022787 0.063802,-0.077474 0.027344,-0.054687 0.027344,-0.1503906 z"/><path style="font-weight:700;font-size:9.33333302px;font-family:Audiowide,sans-serif;letter-spacing:2px;fill:#333" id="path558" d="m 16.683594,-0.59700519 q 0,0.12760416 -0.04557,0.23697916 -0.04557,0.109375 -0.127605,0.19140624 -0.07747,0.07747396 -0.186849,0.12304687 Q 16.214192,0 16.086588,0 h -4.274739 q -0.164063,0 -0.355469,-0.03645833 -0.186849,-0.04101563 -0.373698,-0.12304687 -0.182291,-0.0820313 -0.350911,-0.20963541 -0.16862,-0.13216146 -0.300781,-0.31445312 -0.127605,-0.18684895 -0.205079,-0.42838537 -0.07747,-0.2460938 -0.07747,-0.5514323 v -3.2083332 q 0,-0.1640625 0.03646,-0.3509115 0.04101,-0.1914062 0.123047,-0.3736979 0.08203,-0.1868489 0.214192,-0.3554687 0.132162,-0.1686198 0.314453,-0.296224 0.186849,-0.1321614 0.428386,-0.2096354 0.241536,-0.077474 0.546875,-0.077474 h 4.817057 v 1.1848958 h -4.817057 q -0.232422,0 -0.355469,0.1230468 -0.123047,0.1230469 -0.123047,0.3645834 v 3.1992186 q 0,0.2278646 0.123047,0.3554687 0.127604,0.1230469 0.355469,0.1230469 h 3.686849 v -1.485677 h -3.153646 v -1.1940104 h 3.741536 q 0.127604,0 0.236979,0.05013 0.109375,0.045573 0.186849,0.1276042 0.08203,0.082031 0.127605,0.1914062 0.04557,0.1048177 0.04557,0.2278646 z"/><path style="font-weight:700;font-size:9.33333302px;font-family:Audiowide,sans-serif;letter-spacing:2px;fill:#333" id="path560" d="M 26.339842,0 H 25.154946 V -1.6041666 H 20.989582 V 0 h -1.184896 v -3.267578 q 0,-0.7154948 0.246094,-1.3170573 0.246094,-0.6015624 0.683594,-1.0345051 0.4375,-0.4329427 1.034505,-0.6744792 0.597005,-0.2415364 1.303385,-0.2415364 h 2.670573 q 0.123047,0 0.232422,0.045573 0.109375,0.045573 0.191406,0.1276042 0.08203,0.082031 0.127604,0.1914062 0.04557,0.109375 0.04557,0.2324219 z m -5.35026,-2.7890624 h 4.165364 v -2.5611978 h -2.082682 q -0.05469,0 -0.232422,0.018229 -0.173177,0.013672 -0.405599,0.077474 -0.227864,0.063802 -0.483072,0.1959635 -0.255209,0.1321615 -0.469402,0.3645833 -0.214192,0.2324219 -0.355468,0.5833334 -0.136719,0.3463541 -0.136719,0.8430989 z"/></g><path style="fill:#ddd" id="rect251" d="M 0,0 H 3 V 3 H 0 Z" transform="translate(11.5,-5)"/></g><g style="font-weight:700;font-size:8px;font-family:Roboto,sans-serif;letter-spacing:2px;fill:#333" id="text257" aria-label="OFFSET"><path style="font-weight:700;font-size:8px;font-family:Roboto,sans-serif;letter-spacing:2px;fill:#333" id="path564" d="m 8.1796875,22.285156 q 0,0.839844 -0.296875,1.472656 -0.296875,0.632813 -0.8515625,0.976563 -0.5507813,0.34375 -1.265625,0.34375 -0.7070313,0 -1.2617188,-0.339844 Q 3.9492188,24.398437 3.6445313,23.769531 3.3398438,23.136719 3.3359375,22.316406 v -0.28125 q 0,-0.839844 0.3007813,-1.476562 0.3046875,-0.640625 0.8554687,-0.980469 0.5546875,-0.34375 1.265625,-0.34375 0.7109375,0 1.2617187,0.34375 0.5546875,0.339844 0.8554688,0.980469 0.3046875,0.636718 0.3046875,1.472656 z m -1.1875,-0.257812 q 0,-0.894532 -0.3203125,-1.359375 -0.3203125,-0.464844 -0.9140625,-0.464844 -0.5898438,0 -0.9101563,0.460937 -0.3203125,0.457032 -0.3242187,1.34375 v 0.277344 q 0,0.871094 0.3203125,1.351563 0.3203125,0.480468 0.921875,0.480468 0.5898437,0 0.90625,-0.460937 0.3164062,-0.464844 0.3203125,-1.351563 z"/><path style="font-weight:700;font-size:8px;font-family:Roboto,sans-serif;letter-spacing:2px;fill:#333" id="path566" d="m 14.460938,22.675781 h -2.25 V 25 h -1.171875 v -5.6875 h 3.703125 v 0.949219 h -2.53125 v 1.46875 h 2.25 z"/><path style="font-weight:700;font-size:8px;font-family:Roboto,sans-serif;letter-spacing:2px;fill:#333" id="path568" d="m 20.851562,22.675781 h -2.25 V 25 h -1.171875 v -5.6875 h 3.703125 v 0.949219 h -2.53125 v 1.46875 h 2.25 z"/><path style="font-weight:700;font-size:8px;font-family:Roboto,sans-serif;letter-spacing:2px;fill:#333" id="path570" d="m 26.769531,23.507812 q 0,-0.332031 -0.234375,-0.507812 -0.234375,-0.179688 -0.84375,-0.375 -0.609375,-0.199219 -0.964844,-0.390625 -0.96875,-0.523438 -0.96875,-1.410156 0,-0.460938 0.257813,-0.820313 0.261719,-0.363281 0.746094,-0.566406 0.488281,-0.203125 1.09375,-0.203125 0.609375,0 1.085937,0.222656 0.476563,0.21875 0.738281,0.621094 0.265625,0.402344 0.265625,0.914062 h -1.171875 q 0,-0.390625 -0.246093,-0.605468 -0.246094,-0.21875 -0.691407,-0.21875 -0.429687,0 -0.667968,0.183593 -0.238282,0.179688 -0.238282,0.476563 0,0.277344 0.277344,0.464844 0.28125,0.1875 0.824219,0.351562 1,0.300781 1.457031,0.746094 0.457031,0.445312 0.457031,1.109375 0,0.738281 -0.558593,1.160156 -0.558594,0.417969 -1.503907,0.417969 -0.65625,0 -1.195312,-0.238281 -0.539063,-0.242188 -0.824219,-0.660157 -0.28125,-0.417968 -0.28125,-0.96875 h 1.175781 q 0,0.941407 1.125,0.941407 0.417969,0 0.652344,-0.167969 0.234375,-0.171875 0.234375,-0.476563 z"/><path style="font-weight:700;font-size:8px;font-family:Roboto,sans-serif;letter-spacing:2px;fill:#333" id="path572" d="m 34.164062,22.535156 h -2.25 v 1.523438 h 2.640625 V 25 h -3.8125 v -5.6875 h 3.804688 v 0.949219 h -2.632813 v 1.355468 h 2.25 z"/><path style="font-weight:700;font-size:8px;font-family:Roboto,sans-serif;letter-spacing:2px;fill:#333" id="path574" d="M 41.601562,20.261719 H 39.859375 V 25 H 38.6875 V 20.261719 H 36.96875 V 19.3125 h 4.632812 z"/></g><g id="use259" transform="translate(0,32)"><g id="g535" transform="translate(22.5,22.5)"><g id="g439" transform="rotate(120,-8.5,4.9074773)"><path style="stroke:#333;stroke-width:1.5" id="polyline437" d="M 0,0 H 4"/></g><g id="g443" transform="rotate(135,-8.5,3.5208153)"><path style="stroke:#333;stroke-width:.30000001" id="polyline441" d="M 0,0 H 3"/></g><g id="g447" transform="rotate(150,-8.5,2.2775681)"><path style="stroke:#333;stroke-width:.30000001" id="polyline445" d="M 0,0 H 3"/></g><g id="g451" transform="rotate(165,-8.5,1.1190462)"><path style="stroke:#333;stroke-width:.30000001" id="polyline449" d="M 0,0 H 3"/></g><g id="g455" transform="rotate(-180,-8.5,0)"><path style="stroke:#333;stroke-width:.30000001" id="polyline453" d="M 0,0 H 3"/></g><g id="g459" transform="rotate(-165,-8.5,-1.1190462)"><path style="stroke:#333;stroke-width:1.5" id="polyline457" d="M 0,0 H 4"/></g><g id="g463" transform="rotate(-150,-8.5,-2.2775681)"><path style="stroke:#333;stroke-width:.30000001" id="polyline461" d="M 0,0 H 3"/></g><g id="g467" transform="rotate(-135,-8.5,-3.5208153)"><path style="stroke:#333;stroke-width:.30000001" id="polyline465" d="M 0,0 H 3"/></g><g id="g471" transform="rotate(-120,-8.5,-4.9074773)"><path style="stroke:#333;stroke-width:.30000001" id="polyline469" d="M 0,0 H 3"/></g><g id="g475" transform="rotate(-105,-8.5,-6.5222794)"><path style="stroke:#333;stroke-width:.30000001" id="polyline473" d="M 0,0 H 3"/></g><g id="g481" transform="rotate(-90,-8.5,-8.5)"><g id="g479" transform="rotate(90,1.2,1.2)"><g style="font-weight:700;font-size:8.66666698px;font-family:Roboto,sans-serif;fill:#333" id="text477" aria-label="0" transform="translate(-2.3,3.3)"><path style="font-weight:700;font-size:8.66666698px;font-family:Roboto,sans-serif;fill:#333" id="path587" d="m 4.5660809,-2.5475261 q 0,1.2779948 -0.5289714,1.95507816 -0.5289714,0.67708336 -1.5488282,0.67708336 -1.0071615,0 -1.5403646,-0.66438805 Q 0.41471356,-1.2441407 0.40201824,-2.4840496 v -1.1341146 q 0,-1.2906901 0.53320315,-1.95931 0.53743491,-0.6686198 1.54459641,-0.6686198 1.0071615,0 1.5403646,0.6643881 0.5332032,0.6601562 0.5458985,1.9000651 z M 3.3430991,-3.7916668 q 0,-0.7659506 -0.2115886,-1.1129558 -0.2073567,-0.351237 -0.6516927,-0.351237 -0.4316406,0 -0.6389974,0.3343099 -0.203125,0.3300782 -0.2158203,1.0367839 v 1.498047 q 0,0.7532552 0.203125,1.1214193 0.2073567,0.36393228 0.6601562,0.36393228 0.4485678,0 0.647461,-0.35123698 0.1988932,-0.351237 0.2073568,-1.0748698 z"/></g></g></g><g id="g485" transform="rotate(-75,-8.5,-11.077416)"><path style="stroke:#333;stroke-width:.30000001" id="polyline483" d="M 0,0 H 3"/></g><g id="g489" transform="rotate(-60,-8.5,-14.722432)"><path style="stroke:#333;stroke-width:.30000001" id="polyline487" d="M 0,0 H 3"/></g><g id="g493" transform="rotate(-45,-8.5,-20.520815)"><path style="stroke:#333;stroke-width:.30000001" id="polyline491" d="M 0,0 H 3"/></g><g id="g497" transform="rotate(-30,-8.5,-31.722432)"><path style="stroke:#333;stroke-width:.30000001" id="polyline495" d="M 0,0 H 3"/></g><g id="g501" transform="rotate(-15,-8.5,-64.56391)"><path style="stroke:#333;stroke-width:1.5" id="polyline499" d="M 0,0 H 4"/></g><g id="g505" transform="translate(17)"><path style="stroke:#333;stroke-width:.30000001" id="polyline503" d="M 0,0 H 3"/></g><g id="g509" transform="rotate(15,-8.5,64.56391)"><path style="stroke:#333;stroke-width:.30000001" id="polyline507" d="M 0,0 H 3"/></g><g id="g513" transform="rotate(30,-8.5,31.722432)"><path style="stroke:#333;stroke-width:.30000001" id="polyline511" d="M 0,0 H 3"/></g><g id="g517" transform="rotate(45,-8.5,20.520815)"><path style="stroke:#333;stroke-width:.30000001" id="polyline515" d="M 0,0 H 3"/></g><g id="g521" transform="rotate(60,-8.5,14.722432)"><path style="stroke:#333;stroke-width:1.5" id="polyline519" d="M 0,0 H 4"/></g><g id="g527" transform="rotate(135,-11,4.5563492)"><g id="g525" transform="rotate(-135,1.25,-0.51776695)"><g style="font-weight:700;font-size:12px;font-family:Roboto,sans-serif;fill:#333" id="text523" aria-label="-" transform="translate(-2,3.4)"><path style="font-weight:700;font-size:12px;font-family:Roboto,sans-serif;fill:#333" id="path600" d="M 3.9433594,-2.9707031 H 0.64453125 V -4.3359375 H 3.9433594 Z"/></g></g></g><g id="g533" transform="rotate(45,-11,26.556349)"><g id="g531" transform="rotate(-45,1.25,-3.017767)"><g style="font-weight:700;font-size:9.33333302px;font-family:Roboto,sans-serif;fill:#333" id="text529" aria-label="+" transform="translate(-2.9,3)"><path style="font-weight:700;font-size:9.33333302px;font-family:Roboto,sans-serif;fill:#333" id="path603" d="m 3.1627603,-3.7141926 h 1.6451822 v 1.1894531 H 3.1627603 v 1.85937494 H 1.9095051 V -2.5247395 H 0.25976562 V -3.7141926 H 1.9095051 v -1.781901 h 1.2532552 z"/></g></g></g></g></g><g id="g265" transform="translate(5.5,78)"><path style="fill:#fafafa" id="rect261" d="m 5,0 h 24 c 2.77,0 5,2.23 5,5 v 29 c 0,2.77 -2.23,5 -5,5 H 5 C 2.23,39 0,36.77 0,34 V 5 C 0,2.23 2.23,0 5,0 Z"/><g style="font-weight:700;font-size:6.66666651px;font-family:Roboto,sans-serif;letter-spacing:2px;fill:#333" id="text263" aria-label="CV" transform="translate(11,35)"><path style="font-weight:700;font-size:6.66666651px;font-family:Roboto,sans-serif;letter-spacing:2px;fill:#333" id="path607" d="m 4.1438801,-1.578776 q -0.055338,0.76497394 -0.5664062,1.20442705 -0.5078125,0.43945312 -1.3411458,0.43945312 -0.9114583,0 -1.43554687,-0.61197916 Q 0.27994791,-1.1621093 0.27994791,-2.2330729 v -0.2897135 q 0,-0.6835937 0.24088541,-1.2044271 0.24088541,-0.5208333 0.68684898,-0.797526 0.4492187,-0.2799479 1.0416666,-0.2799479 0.8203125,0 1.3216146,0.4394531 0.501302,0.4394531 0.579427,1.233724 H 3.173828 q -0.035807,-0.4589844 -0.2571614,-0.6640625 -0.218099,-0.2083334 -0.6673177,-0.2083334 -0.4882812,0 -0.7324219,0.3515625 -0.2408854,0.3483073 -0.2473958,1.0839844 v 0.3580729 q 0,0.7682291 0.2311198,1.1230468 0.234375,0.35481774 0.7356771,0.35481774 0.4524739,0 0.6738281,-0.20507812 Q 3.1347656,-1.1458333 3.1673176,-1.578776 Z"/><path style="font-weight:700;font-size:6.66666651px;font-family:Roboto,sans-serif;letter-spacing:2px;fill:#333" id="path609" d="m 8.5364581,-1.1751302 1.0742187,-3.564453 H 10.697916 L 9.0475258,0 H 8.0286456 L 6.3847655,-4.7395832 h 1.0839843 z"/></g></g><g style="font-weight:700;font-size:8px;font-family:Roboto,sans-serif;letter-spacing:2px;fill:#333" id="text269" aria-label="SCALE"><path style="font-weight:700;font-size:8px;font-family:Roboto,sans-serif;letter-spacing:2px;fill:#333" id="path612" d="m 9.4570313,135.50781 q 0,-0.33203 -0.234375,-0.50781 -0.234375,-0.17969 -0.84375,-0.375 -0.6093751,-0.19922 -0.9648438,-0.39063 -0.96875,-0.52343 -0.96875,-1.41015 0,-0.46094 0.2578125,-0.82031 0.2617187,-0.36329 0.7460937,-0.56641 0.4882813,-0.20313 1.0937501,-0.20313 0.609375,0 1.0859375,0.22266 0.4765627,0.21875 0.7382817,0.62109 0.265625,0.40235 0.265625,0.91407 H 9.4609375 q 0,-0.39063 -0.2460937,-0.60547 -0.2460938,-0.21875 -0.6914063,-0.21875 -0.4296875,0 -0.6679688,0.18359 -0.2382812,0.17969 -0.2382812,0.47656 0,0.27735 0.2773437,0.46485 0.2812501,0.1875 0.8242188,0.35156 1,0.30078 1.457031,0.74609 0.457032,0.44532 0.457032,1.10938 0,0.73828 -0.558594,1.16016 -0.558594,0.41796 -1.5039065,0.41796 -0.65625,0 -1.1953125,-0.23828 -0.5390625,-0.24218 -0.8242188,-0.66015 -0.28125,-0.41797 -0.28125,-0.96875 h 1.1757813 q 0,0.9414 1.125,0.9414 0.4179688,0 0.6523438,-0.16797 0.234375,-0.17187 0.234375,-0.47656 z"/><path style="font-weight:700;font-size:8px;font-family:Roboto,sans-serif;letter-spacing:2px;fill:#333" id="path614" d="m 17.894531,135.10547 q -0.06641,0.91797 -0.679687,1.44531 -0.609375,0.52734 -1.609375,0.52734 -1.09375,0 -1.722656,-0.73437 -0.625,-0.73828 -0.625,-2.02344 v -0.34765 q 0,-0.82032 0.289062,-1.44532 0.289063,-0.625 0.824219,-0.95703 0.539062,-0.33594 1.25,-0.33594 0.984375,0 1.585937,0.52735 0.601563,0.52734 0.695313,1.48047 h -1.171875 q -0.04297,-0.55078 -0.308594,-0.79688 -0.261719,-0.25 -0.800781,-0.25 -0.585938,0 -0.878906,0.42188 -0.289063,0.41797 -0.296875,1.30078 v 0.42969 q 0,0.92187 0.277343,1.34765 0.28125,0.42578 0.882813,0.42578 0.542968,0 0.808593,-0.24609 0.269532,-0.25 0.308594,-0.76953 z"/><path style="font-weight:700;font-size:8px;font-family:Roboto,sans-serif;letter-spacing:2px;fill:#333" id="path616" d="M 23.875,135.82812 H 21.820312 L 21.429687,137 h -1.246093 l 2.117187,-5.6875 h 1.085938 L 25.515625,137 h -1.246094 z m -1.738281,-0.94921 h 1.421875 L 22.84375,132.75 Z"/><path style="font-weight:700;font-size:8px;font-family:Roboto,sans-serif;letter-spacing:2px;fill:#333" id="path618" d="m 29.226562,136.05859 h 2.488282 V 137 h -3.660157 v -5.6875 h 1.171875 z"/><path style="font-weight:700;font-size:8px;font-family:Roboto,sans-serif;letter-spacing:2px;fill:#333" id="path620" d="m 37.804687,134.53516 h -2.25 v 1.52343 h 2.640625 V 137 h -3.8125 v -5.6875 H 38.1875 v 0.94922 h -2.632813 v 1.35547 h 2.25 z"/></g><g id="use271" transform="translate(0,144)"><g id="g433" transform="translate(22.5,22.5)"><g id="g329" transform="rotate(120,-8.5,4.9074773)"><path style="stroke:#333;stroke-width:1.5" id="polyline327" d="M 0,0 H 4"/></g><g id="g333" transform="rotate(127.7,-8.5,4.1733088)"><path style="stroke:#333;stroke-width:.30000001" id="polyline331" d="M 0,0 H 3"/></g><g id="g337" transform="rotate(135.8,-8.5,3.4514921)"><path style="stroke:#333;stroke-width:.30000001" id="polyline335" d="M 0,0 H 3"/></g><g id="g341" transform="rotate(144.5,-8.5,2.7208715)"><path style="stroke:#333;stroke-width:.30000001" id="polyline339" d="M 0,0 H 3"/></g><g id="g345" transform="rotate(153.8,-8.5,1.978012)"><path style="stroke:#333;stroke-width:.30000001" id="polyline343" d="M 0,0 H 3"/></g><g id="g349" transform="rotate(163.9,-8.5,1.2021622)"><path style="stroke:#333;stroke-width:1.5" id="polyline347" d="M 0,0 H 4"/></g><g id="g353" transform="rotate(175.1,-8.5,0.36368651)"><path style="stroke:#333;stroke-width:.30000001" id="polyline351" d="M 0,0 H 3"/></g><g id="g357" transform="rotate(-172.2,-8.5,-0.57947187)"><path style="stroke:#333;stroke-width:.30000001" id="polyline355" d="M 0,0 H 3"/></g><g id="g361" transform="rotate(-157.1,-8.5,-1.7216212)"><path style="stroke:#333;stroke-width:.30000001" id="polyline359" d="M 0,0 H 3"/></g><g id="g365" transform="rotate(-137.4,-8.5,-3.3140115)"><path style="stroke:#333;stroke-width:1.5" id="polyline363" d="M 0,0 H 4"/></g><g id="g369" transform="rotate(-123.5,-8.5,-4.5672147)"><path style="stroke:#333;stroke-width:.30000001" id="polyline367" d="M 0,0 H 1"/></g><g id="g375" transform="rotate(-90,-8.5,-8.5)"><g id="g373" transform="rotate(90,1.2,1.2)"><g style="font-weight:700;font-size:8.66666698px;font-family:Roboto,sans-serif;fill:#333" id="text371" aria-label="0" transform="translate(-2.3,3.3)"><path style="font-weight:700;font-size:8.66666698px;font-family:Roboto,sans-serif;fill:#333" id="path634" d="m 4.5660809,-2.5475261 q 0,1.2779948 -0.5289714,1.95507816 -0.5289714,0.67708336 -1.5488282,0.67708336 -1.0071615,0 -1.5403646,-0.66438805 Q 0.41471356,-1.2441407 0.40201824,-2.4840496 v -1.1341146 q 0,-1.2906901 0.53320315,-1.95931 0.53743491,-0.6686198 1.54459641,-0.6686198 1.0071615,0 1.5403646,0.6643881 0.5332032,0.6601562 0.5458985,1.9000651 z M 3.3430991,-3.7916668 q 0,-0.7659506 -0.2115886,-1.1129558 -0.2073567,-0.351237 -0.6516927,-0.351237 -0.4316406,0 -0.6389974,0.3343099 -0.203125,0.3300782 -0.2158203,1.0367839 v 1.498047 q 0,0.7532552 0.203125,1.1214193 0.2073567,0.36393228 0.6601562,0.36393228 0.4485678,0 0.647461,-0.35123698 0.1988932,-0.351237 0.2073568,-1.0748698 z"/></g></g></g><g id="g379" transform="rotate(-56.5,-8.5,-15.819269)"><path style="stroke:#333;stroke-width:.30000001" id="polyline377" d="M 0,0 H 1"/></g><g id="g383" transform="rotate(-42.3,-8.5,-21.971158)"><path style="stroke:#333;stroke-width:1.5" id="polyline381" d="M 0,0 H 4"/></g><g id="g387" transform="rotate(-22.9,-8.5,-41.966258)"><path style="stroke:#333;stroke-width:.30000001" id="polyline385" d="M 0,0 H 3"/></g><g id="g391" transform="rotate(-7.8,-8.5,-124.6825)"><path style="stroke:#333;stroke-width:.30000001" id="polyline389" d="M 0,0 H 3"/></g><g id="g395" transform="rotate(4.8,-8.5,202.80386)"><path style="stroke:#333;stroke-width:.30000001" id="polyline393" d="M 0,0 H 3"/></g><g id="g399" transform="rotate(16.1,-8.5,60.100044)"><path style="stroke:#333;stroke-width:1.5" id="polyline397" d="M 0,0 H 4"/></g><g id="g403" transform="rotate(26.2,-8.5,36.526574)"><path style="stroke:#333;stroke-width:.30000001" id="polyline401" d="M 0,0 H 3"/></g><g id="g407" transform="rotate(35.5,-8.5,26.553992)"><path style="stroke:#333;stroke-width:.30000001" id="polyline405" d="M 0,0 H 3"/></g><g id="g411" transform="rotate(44.2,-8.5,20.932976)"><path style="stroke:#333;stroke-width:.30000001" id="polyline409" d="M 0,0 H 3"/></g><g id="g415" transform="rotate(52.3,-8.5,17.312402)"><path style="stroke:#333;stroke-width:.30000001" id="polyline413" d="M 0,0 H 3"/></g><g id="g419" transform="rotate(60,-8.5,14.722432)"><path style="stroke:#333;stroke-width:1.5" id="polyline417" d="M 0,0 H 4"/></g><g id="g425" transform="rotate(135,-11,4.5563492)"><g id="g423" transform="rotate(-135,1.25,-0.51776695)"><g style="font-weight:700;font-size:12px;font-family:Roboto,sans-serif;fill:#333" id="text421" aria-label="-" transform="translate(-2,3.4)"><path style="font-weight:700;font-size:12px;font-family:Roboto,sans-serif;fill:#333" id="path648" d="M 3.9433594,-2.9707031 H 0.64453125 V -4.3359375 H 3.9433594 Z"/></g></g></g><g id="g431" transform="rotate(45,-11,26.556349)"><g id="g429" transform="rotate(-45,1.25,-3.017767)"><g style="font-weight:700;font-size:9.33333302px;font-family:Roboto,sans-serif;fill:#333" id="text427" aria-label="+" transform="translate(-2.9,3)"><path style="font-weight:700;font-size:9.33333302px;font-family:Roboto,sans-serif;fill:#333" id="path651" d="m 3.1627603,-3.7141926 h 1.6451822 v 1.1894531 H 3.1627603 v 1.85937494 H 1.9095051 V -2.5247395 H 0.25976562 V -3.7141926 H 1.9095051 v -1.781901 h 1.2532552 z"/></g></g></g></g></g><g id="g277" transform="translate(5.5,190)"><path style="fill:#fafafa" id="rect273" d="m 5,0 h 24 c 2.77,0 5,2.23 5,5 v 28 c 0,2.77 -2.23,5 -5,5 H 5 C 2.23,38 0,35.77 0,33 V 5 C 0,2.23 2.23,0 5,0 Z"/><g style="font-weight:700;font-size:6.66666651px;font-family:Roboto,sans-serif;letter-spacing:2px;fill:#333" id="text275" aria-label="CV" transform="translate(11,35)"><path style="font-weight:700;font-size:6.66666651px;font-family:Roboto,sans-serif;letter-spacing:2px;fill:#333" id="path655" d="m 4.1438801,-1.578776 q -0.055338,0.76497394 -0.5664062,1.20442705 -0.5078125,0.43945312 -1.3411458,0.43945312 -0.9114583,0 -1.43554687,-0.61197916 Q 0.27994791,-1.1621093 0.27994791,-2.2330729 v -0.2897135 q 0,-0.6835937 0.24088541,-1.2044271 0.24088541,-0.5208333 0.68684898,-0.797526 0.4492187,-0.2799479 1.0416666,-0.2799479 0.8203125,0 1.3216146,0.4394531 0.501302,0.4394531 0.579427,1.233724 H 3.173828 q -0.035807,-0.4589844 -0.2571614,-0.6640625 -0.218099,-0.2083334 -0.6673177,-0.2083334 -0.4882812,0 -0.7324219,0.3515625 -0.2408854,0.3483073 -0.2473958,1.0839844 v 0.3580729 q 0,0.7682291 0.2311198,1.1230468 0.234375,0.35481774 0.7356771,0.35481774 0.4524739,0 0.6738281,-0.20507812 Q 3.1347656,-1.1458333 3.1673176,-1.578776 Z"/><path style="font-weight:700;font-size:6.66666651px;font-family:Roboto,sans-serif;letter-spacing:2px;fill:#333" id="path657" d="m 8.5364581,-1.1751302 1.0742187,-3.564453 H 10.697916 L 9.0475258,0 H 8.0286456 L 6.3847655,-4.7395832 h 1.0839843 z"/></g></g><g id="g287" transform="translate(5.5,240)"><path style="fill:#fafafa" id="rect281" d="M 0,0 H 34 V 10 H 0 Z" transform="translate(0,28)"/><path style="fill:#fafafa" id="rect283" d="m 5,0 h 24 c 2.77,0 5,2.23 5,5 v 25 c 0,2.77 -2.23,5 -5,5 H 5 C 2.23,35 0,32.77 0,30 V 5 C 0,2.23 2.23,0 5,0 Z"/><g style="font-weight:700;font-size:6.66666651px;font-family:Roboto,sans-serif;letter-spacing:2px;fill:#333" id="text285" aria-label="IN" transform="translate(12.5,35)"><path style="font-weight:700;font-size:6.66666651px;font-family:Roboto,sans-serif;letter-spacing:2px;fill:#333" id="path662" d="M 1.4615885,0 H 0.48502603 V -4.7395832 H 1.4615885 Z"/><path style="font-weight:700;font-size:6.66666651px;font-family:Roboto,sans-serif;letter-spacing:2px;fill:#333" id="path664" d="M 8.2174477,0 H 7.2408852 L 5.3398436,-3.1184895 V 0 H 4.3632811 v -4.7395832 h 0.9765625 l 1.9042968,3.1249999 v -3.1249999 h 0.9733073 z"/></g></g><g id="g295" transform="translate(5.5,281)"><path style="fill:#bbb" id="rect289" d="M 0,0 H 34 V 10 H 0 Z" transform="translate(0,-3)"/><path style="fill:#bbb" id="rect291" d="m 5,0 h 24 c 2.77,0 5,2.23 5,5 v 25 c 0,2.77 -2.23,5 -5,5 H 5 C 2.23,35 0,32.77 0,30 V 5 C 0,2.23 2.23,0 5,0 Z"/><g style="font-weight:700;font-size:6.66666651px;font-family:Roboto,sans-serif;letter-spacing:2px;fill:#333" id="text293" aria-label="OUT" transform="translate(8.3,32)"><path style="font-weight:700;font-size:6.66666651px;font-family:Roboto,sans-serif;letter-spacing:2px;fill:#333" id="path669" d="m 4.3164061,-2.2623697 q 0,0.6998697 -0.2473958,1.2272135 -0.2473958,0.52734371 -0.7096354,0.81380204 -0.4589843,0.28645833 -1.0546875,0.28645833 -0.5891926,0 -1.0514322,-0.28320312 Q 0.79101561,-0.50130207 0.53710936,-1.0253906 0.28320312,-1.5527343 0.27994791,-2.2363281 v -0.234375 q 0,-0.6998697 0.25065104,-1.2304687 0.25390624,-0.5338541 0.71289065,-0.8170573 0.4622395,-0.2864583 1.0546874,-0.2864583 0.5924479,0 1.0514323,0.2864583 0.4622396,0.2832032 0.7128906,0.8170573 0.2539062,0.530599 0.2539062,1.2272135 z M 3.3268228,-2.4772135 q 0,-0.7454427 -0.266927,-1.1328125 -0.2669271,-0.3873697 -0.7617188,-0.3873697 -0.4915364,0 -0.7584635,0.3841145 -0.2669271,0.3808594 -0.2701823,1.1197917 v 0.2311198 q 0,0.7259114 0.2669271,1.126302 0.2669271,0.40039063 0.7682291,0.40039063 0.4915365,0 0.7552084,-0.38411453 0.2636718,-0.3873698 0.266927,-1.1263021 z"/><path style="font-weight:700;font-size:6.66666651px;font-family:Roboto,sans-serif;letter-spacing:2px;fill:#333" id="path671" d="m 10.619792,-4.7395832 v 3.1217447 q 0,0.77799477 -0.488282,1.23046872 -0.4850257,0.45247395 -1.3281246,0.45247395 -0.8300781,0 -1.3183594,-0.43945312 Q 6.9967448,-0.81380206 6.9869792,-1.5820312 v -3.157552 h 0.9765624 v 3.1282551 q 0,0.4654948 0.2213542,0.68033854 0.2246094,0.21158854 0.6184896,0.21158854 0.8235677,0 0.8365885,-0.86588538 v -3.1542968 z"/><path style="font-weight:700;font-size:6.66666651px;font-family:Roboto,sans-serif;letter-spacing:2px;fill:#333" id="path673" d="M 16.988281,-3.9485676 H 15.536458 V 0 h -0.976563 v -3.9485676 h -1.432291 v -0.7910156 h 3.860677 z"/></g></g></svg>