<svg xmlns="http://www.w3.org/2000/svg" xmlns:svg="http://www.w3.org/2000/svg" id="svg104" width="45" height="380" version="1.1" viewBox="0 0 45 380"><metadata id="metadata108"/><style id="style2">text{fill:#333;font-family:&apos;Roboto&apos;,sans-serif;font-weight:700}</style><defs id="defs52"><symbol id="knob" viewBox="0 0 45 45"><g id="g10" transform="translate(22.5 22.5)"><polyline id="polyline4" stroke="#00f" stroke-width="1" points="-5 0 5 0"/><polyline id="polyline6" stroke="#00f" stroke-width="1" points="0 -5 0 5"/><circle id="circle8" cx="0" cy="0" r="12.5" fill="none" stroke="#00f" stroke-width="1"/></g></symbol><symbol id="knobguide-panner" viewBox="0 0 45 45"><g id="g35" transform="translate(22.5 22.5)"><text id="text13" font-size="5pt" transform="rotate(-240) translate(18 0) rotate(240) translate(-1.8 2)">L</text><polyline id="polyline15" stroke="#333" stroke-width=".3" points="0 0 2.5 0" transform="rotate(-210) translate(15 0)"/><polyline id="polyline17" stroke="#333" stroke-width=".3" points="0 0 2.5 0" transform="rotate(-180) translate(15 0)"/><polyline id="polyline19" stroke="#333" stroke-width=".3" points="0 0 2.5 0" transform="rotate(-150) translate(15 0)"/><polyline id="polyline21" stroke="#333" stroke-width=".3" points="0 0 2.5 0" transform="rotate(-120) translate(15 0)"/><polyline id="polyline23" stroke="#333" stroke-width="1" points="0 0 3.5 0" transform="rotate(-90) translate(15 0)"/><polyline id="polyline25" stroke="#333" stroke-width=".3" points="0 0 2.5 0" transform="rotate(-60) translate(15 0)"/><polyline id="polyline27" stroke="#333" stroke-width=".3" points="0 0 2.5 0" transform="rotate(-30) translate(15 0)"/><polyline id="polyline29" stroke="#333" stroke-width=".3" points="0 0 2.5 0" transform="rotate(0) translate(15 0)"/><polyline id="polyline31" stroke="#333" stroke-width=".3" points="0 0 2.5 0" transform="rotate(30) translate(15 0)"/><text id="text33" font-size="5pt" transform="rotate(60) translate(18 0) rotate(-60) translate(-2.1 2)">R</text></g></symbol><symbol id="input" viewBox="0 0 24 24"><g id="g42" transform="translate(12 12)"><circle id="circle38" cx="0" cy="0" r="5" fill="#0f0" stroke="#0f0" stroke-width="1"/><circle id="circle40" cx="0" cy="0" r="10.5" fill="none" stroke="#0f0" stroke-width="3"/></g></symbol><symbol id="output" viewBox="0 0 24 24"><g id="g49" transform="translate(12 12)"><circle id="circle45" cx="0" cy="0" r="5" fill="red" stroke="red" stroke-width="1"/><circle id="circle47" cx="0" cy="0" r="10.5" fill="none" stroke="red" stroke-width="3"/></g></symbol></defs><path style="fill:#ddd" id="rect54" d="M 0,0 H 45 V 380 H 0 Z"/><path style="fill:none;stroke:#e4e4e4;stroke-width:.5" id="polyline56" d="M 1,1 H 44 V 379 H 1 V 1"/><path style="fill:none;stroke:#ebebeb;stroke-width:.80000001" id="polyline58" d="m 0.5,0.5 h 44 v 379 H 0.5 V 0.5"/><path style="fill:none;stroke:#f2f2f2;stroke-width:1" id="polyline60" d="M 0,0 H 45 V 380 H 0 V 0"/><g style="font-weight:400;font-size:9.33333302px;font-family:Comfortaa,sans-serif;letter-spacing:2.5px;fill:#333" id="text62" aria-label="PAN" transform="rotate(-90)"><path style="font-weight:400;font-size:9.33333302px;font-family:Comfortaa,sans-serif;letter-spacing:2.5px;fill:#333" id="path179" d="m -374.70267,13 q -0.15866,0 -0.26133,-0.102667 -0.10267,-0.102666 -0.10267,-0.261333 V 6.0746669 q 0,-0.1586667 0.10267,-0.2613333 0.10267,-0.1026667 0.26133,-0.1026667 h 1.86667 q 0.68133,0 1.21333,0.308 0.54134,0.2986667 0.84,0.84 0.29867,0.532 0.29867,1.2226666 0,0.6813333 -0.29867,1.2133333 -0.29866,0.532 -0.84,0.8306662 -0.532,0.298667 -1.21333,0.298667 h -1.50267 v 2.212 q 0,0.158667 -0.10266,0.261333 Q -374.544,13 -374.70267,13 Z m 1.86667,-3.2759999 q 0.476,0 0.84933,-0.2053333 0.37334,-0.2146667 0.57867,-0.588 0.21467,-0.3733333 0.21467,-0.8493333 0,-0.4853333 -0.21467,-0.8586666 -0.20533,-0.3826667 -0.57867,-0.5973333 Q -372.36,6.4106669 -372.836,6.4106669 h -1.50267 v 3.3133332 z"/><path style="font-weight:400;font-size:9.33333302px;font-family:Comfortaa,sans-serif;letter-spacing:2.5px;fill:#333" id="path181" d="m -361.66504,12.486667 q 0.0373,0.06533 0.0373,0.149333 0,0.149333 -0.112,0.261333 Q -361.84238,13 -361.99171,13 q -0.24267,0 -0.34533,-0.224 l -0.62534,-1.512 h -3.612 l -0.62533,1.512 q -0.0747,0.224 -0.336,0.224 -0.15867,0 -0.26133,-0.102667 -0.0933,-0.112 -0.0933,-0.261333 0,-0.09333 0.028,-0.158667 l 2.744,-6.5146661 q 0.10267,-0.252 0.35467,-0.252 0.252,0 0.34533,0.252 z m -1.54934,-1.848 -1.54933,-3.7426668 -1.54933,3.7426668 z"/><path style="font-weight:400;font-size:9.33333302px;font-family:Comfortaa,sans-serif;letter-spacing:2.5px;fill:#333" id="path183" d="m -357.70788,13 q -0.15866,0 -0.26133,-0.102667 -0.10267,-0.102666 -0.10267,-0.261333 V 6.0746669 q 0,-0.1586667 0.10267,-0.2613333 0.10267,-0.1026667 0.26133,-0.1026667 0.168,0 0.28,0.1306667 l 4.46134,5.8613334 V 6.0746669 q 0,-0.1586667 0.10266,-0.2613333 0.112,-0.1026667 0.26134,-0.1026667 0.15866,0 0.26133,0.1026667 0.10267,0.1026666 0.10267,0.2613333 V 12.636 q 0,0.149333 -0.10267,0.261333 Q -352.44388,13 -352.60254,13 q -0.18667,0 -0.27067,-0.121333 l -4.47067,-5.8613335 V 12.636 q 0,0.149333 -0.10266,0.261333 Q -357.54921,13 -357.70788,13 Z"/></g><g id="g68" transform="rotate(-90,200.5,175.5)"><g style="font-weight:700;font-size:9.33333302px;font-family:Audiowide,sans-serif;letter-spacing:2px;fill:#333" id="text64" aria-label="BGA"><path style="font-weight:700;font-size:9.33333302px;font-family:Audiowide,sans-serif;letter-spacing:2px;fill:#333" id="path186" d="m 7.2096352,-1.4355468 q 0,0.21875 -0.077474,0.469401 -0.072917,0.25065103 -0.2460937,0.46484373 -0.1686198,0.2141927 -0.4420573,0.36002603 Q 6.1705727,0 5.7740883,0 H 1.2760416 Q 1.1484375,0 1.0390625,-0.04557292 0.92968747,-0.09114583 0.84765622,-0.16861979 q -0.077474,-0.0820312 -0.12304687,-0.19140624 -0.0455729,-0.109375 -0.0455729,-0.23697916 V -5.9381508 q 0,-0.1230469 0.0455729,-0.2324219 0.0455729,-0.109375 0.12304687,-0.1914062 0.0820313,-0.082031 0.19140628,-0.1276042 0.109375,-0.045573 0.2369791,-0.045573 h 3.9648436 q 0.21875,0 0.4694011,0.077474 0.250651,0.077474 0.4648437,0.2506511 0.21875,0.1686197 0.360026,0.4420572 0.1458334,0.2734375 0.1458334,0.6699219 v 0.2233073 q 0,0.3144531 -0.1048177,0.6790364 -0.1048178,0.360026 -0.3372396,0.6835937 0.2005208,0.1230469 0.3736979,0.296224 0.1777344,0.1731771 0.3098958,0.4010416 0.1321615,0.2278646 0.2096354,0.514974 0.077474,0.2871093 0.077474,0.6334635 z M 6.0247394,-1.6634114 q 0,-0.2324219 -0.072917,-0.4147135 Q 5.878906,-2.2649739 5.7467446,-2.3971353 5.6145831,-2.5292968 5.4277342,-2.5976562 5.2408852,-2.6705728 5.0084634,-2.6705728 H 2.3378905 v -1.1940104 h 2.1373698 q 0.2324218,0 0.4192708,-0.068359 0.1868489,-0.072917 0.3190104,-0.2050781 0.1321614,-0.1321614 0.2005208,-0.3144531 0.072917,-0.186849 0.072917,-0.4192708 v -0.2233073 q 0,-0.2552083 -0.2460938,-0.2552083 h -3.376953 v 4.1653644 h 3.9101561 q 0.031901,0 0.077474,-0.00456 0.045573,-0.00456 0.082031,-0.027344 0.036458,-0.022787 0.063802,-0.077474 0.027344,-0.054687 0.027344,-0.1503906 z"/><path style="font-weight:700;font-size:9.33333302px;font-family:Audiowide,sans-serif;letter-spacing:2px;fill:#333" id="path188" d="m 16.683594,-0.59700519 q 0,0.12760416 -0.04557,0.23697916 -0.04557,0.109375 -0.127605,0.19140624 -0.07747,0.07747396 -0.186849,0.12304687 Q 16.214192,0 16.086588,0 h -4.274739 q -0.164063,0 -0.355469,-0.03645833 -0.186849,-0.04101563 -0.373698,-0.12304687 -0.182291,-0.0820313 -0.350911,-0.20963541 -0.16862,-0.13216146 -0.300781,-0.31445312 -0.127605,-0.18684895 -0.205079,-0.42838537 -0.07747,-0.2460938 -0.07747,-0.5514323 v -3.2083332 q 0,-0.1640625 0.03646,-0.3509115 0.04101,-0.1914062 0.123047,-0.3736979 0.08203,-0.1868489 0.214192,-0.3554687 0.132162,-0.1686198 0.314453,-0.296224 0.186849,-0.1321614 0.428386,-0.2096354 0.241536,-0.077474 0.546875,-0.077474 h 4.817057 v 1.1848958 h -4.817057 q -0.232422,0 -0.355469,0.1230468 -0.123047,0.1230469 -0.123047,0.3645834 v 3.1992186 q 0,0.2278646 0.123047,0.3554687 0.127604,0.1230469 0.355469,0.1230469 h 3.686849 v -1.485677 h -3.153646 v -1.1940104 h 3.741536 q 0.127604,0 0.236979,0.05013 0.109375,0.045573 0.186849,0.1276042 0.08203,0.082031 0.127605,0.1914062 0.04557,0.1048177 0.04557,0.2278646 z"/><path style="font-weight:700;font-size:9.33333302px;font-family:Audiowide,sans-serif;letter-spacing:2px;fill:#333" id="path190" d="M 26.339842,0 H 25.154946 V -1.6041666 H 20.989582 V 0 h -1.184896 v -3.267578 q 0,-0.7154948 0.246094,-1.3170573 0.246094,-0.6015624 0.683594,-1.0345051 0.4375,-0.4329427 1.034505,-0.6744792 0.597005,-0.2415364 1.303385,-0.2415364 h 2.670573 q 0.123047,0 0.232422,0.045573 0.109375,0.045573 0.191406,0.1276042 0.08203,0.082031 0.127604,0.1914062 0.04557,0.109375 0.04557,0.2324219 z m -5.35026,-2.7890624 h 4.165364 v -2.5611978 h -2.082682 q -0.05469,0 -0.232422,0.018229 -0.173177,0.013672 -0.405599,0.077474 -0.227864,0.063802 -0.483072,0.1959635 -0.255209,0.1321615 -0.469402,0.3645833 -0.214192,0.2324219 -0.355468,0.5833334 -0.136719,0.3463541 -0.136719,0.8430989 z"/></g><path style="fill:#ddd" id="rect66" d="M 0,0 H 3 V 3 H 0 Z" transform="translate(11.5,-5)"/></g><g id="use72" transform="translate(0,15)"><g id="g175" transform="translate(22.5,22.5)"><g style="font-weight:700;font-size:6.66666651px;font-family:Roboto,sans-serif;fill:#333" id="text153" aria-label="L" transform="translate(-10.8,17.588457)"><path style="font-weight:700;font-size:6.66666651px;font-family:Roboto,sans-serif;fill:#333" id="path194" d="M 1.3997395,-0.78450519 H 3.4733072 V 0 H 0.42317707 V -4.7395832 H 1.3997395 Z"/></g><path style="stroke:#333;stroke-width:.30000001" id="polyline155" d="M 0,0 H 2.5" transform="rotate(150,-7.5,2.0096189)"/><path style="stroke:#333;stroke-width:.30000001" id="polyline157" d="M 0,0 H 2.5" transform="rotate(-180,-7.5,0)"/><path style="stroke:#333;stroke-width:.30000001" id="polyline159" d="M 0,0 H 2.5" transform="rotate(-150,-7.5,-2.0096189)"/><path style="stroke:#333;stroke-width:.30000001" id="polyline161" d="M 0,0 H 2.5" transform="rotate(-120,-7.5,-4.330127)"/><path style="stroke:#333;stroke-width:1" id="polyline163" d="M 0,0 H 3.5" transform="rotate(-90,-7.5,-7.5)"/><path style="stroke:#333;stroke-width:.30000001" id="polyline165" d="M 0,0 H 2.5" transform="rotate(-60,-7.5,-12.990381)"/><path style="stroke:#333;stroke-width:.30000001" id="polyline167" d="M 0,0 H 2.5" transform="rotate(-30,-7.5,-27.990381)"/><path style="stroke:#333;stroke-width:.30000001" id="polyline169" d="M 0,0 H 2.5" transform="translate(15)"/><path style="stroke:#333;stroke-width:.30000001" id="polyline171" d="M 0,0 H 2.5" transform="rotate(30,-7.5,27.990381)"/><g style="font-weight:700;font-size:6.66666651px;font-family:Roboto,sans-serif;fill:#333" id="text173" aria-label="R" transform="translate(6.9,17.588457)"><path style="font-weight:700;font-size:6.66666651px;font-family:Roboto,sans-serif;fill:#333" id="path206" d="M 2.1777343,-1.735026 H 1.3997395 V 0 H 0.42317707 V -4.7395832 H 2.1842447 q 0.8398438,0 1.2955729,0.3743489 0.4557292,0.374349 0.4557292,1.0579427 0,0.485026 -0.2115886,0.8105469 -0.2083333,0.3222656 -0.6347656,0.5143229 l 1.0253906,1.93684888 V 0 H 3.0664062 Z M 1.3997395,-2.5260416 h 0.7877604 q 0.3678386,0 0.5696615,-0.1855469 0.2018229,-0.1888021 0.2018229,-0.5175781 0,-0.3352864 -0.1920573,-0.5273437 Q 2.5781249,-3.9485676 2.1842447,-3.9485676 H 1.3997395 Z"/></g></g></g><g id="g80" transform="translate(5.5,59)"><path style="fill:#fafafa" id="rect74" d="m 5,0 h 24 c 2.77,0 5,2.23 5,5 v 63 c 0,2.77 -2.23,5 -5,5 H 5 C 2.23,73 0,70.77 0,68 V 5 C 0,2.23 2.23,0 5,0 Z"/><g style="font-weight:700;font-size:6.66666651px;font-family:Roboto,sans-serif;letter-spacing:2px;fill:#333" id="text76" aria-label="CV" transform="translate(11,35)"><path style="font-weight:700;font-size:6.66666651px;font-family:Roboto,sans-serif;letter-spacing:2px;fill:#333" id="path210" d="m 4.1438801,-1.578776 q -0.055338,0.76497394 -0.5664062,1.20442705 -0.5078125,0.43945312 -1.3411458,0.43945312 -0.9114583,0 -1.43554687,-0.61197916 Q 0.27994791,-1.1621093 0.27994791,-2.2330729 v -0.2897135 q 0,-0.6835937 0.24088541,-1.2044271 0.24088541,-0.5208333 0.68684898,-0.797526 0.4492187,-0.2799479 1.0416666,-0.2799479 0.8203125,0 1.3216146,0.4394531 0.501302,0.4394531 0.579427,1.233724 H 3.173828 q -0.035807,-0.4589844 -0.2571614,-0.6640625 -0.218099,-0.2083334 -0.6673177,-0.2083334 -0.4882812,0 -0.7324219,0.3515625 -0.2408854,0.3483073 -0.2473958,1.0839844 v 0.3580729 q 0,0.7682291 0.2311198,1.1230468 0.234375,0.35481774 0.7356771,0.35481774 0.4524739,0 0.6738281,-0.20507812 Q 3.1347656,-1.1458333 3.1673176,-1.578776 Z"/><path style="font-weight:700;font-size:6.66666651px;font-family:Roboto,sans-serif;letter-spacing:2px;fill:#333" id="path212" d="m 8.5364581,-1.1751302 1.0742187,-3.564453 H 10.697916 L 9.0475258,0 H 8.0286456 L 6.3847655,-4.7395832 h 1.0839843 z"/></g><g style="font-weight:700;font-size:6.66666651px;font-family:Roboto,sans-serif;letter-spacing:2px;fill:#333" id="text78" aria-label="IN" transform="translate(12.5,70)"><path style="font-weight:700;font-size:6.66666651px;font-family:Roboto,sans-serif;letter-spacing:2px;fill:#333" id="path215" d="M 1.4615885,0 H 0.48502603 V -4.7395832 H 1.4615885 Z"/><path style="font-weight:700;font-size:6.66666651px;font-family:Roboto,sans-serif;letter-spacing:2px;fill:#333" id="path217" d="M 8.2174477,0 H 7.2408852 L 5.3398436,-3.1184895 V 0 H 4.3632811 v -4.7395832 h 0.9765625 l 1.9042968,3.1249999 v -3.1249999 h 0.9733073 z"/></g></g><g id="use84" transform="translate(0,138)"><g id="g149" transform="translate(22.5,22.5)"><g style="font-weight:700;font-size:6.66666651px;font-family:Roboto,sans-serif;fill:#333" id="text127" aria-label="L" transform="translate(-10.8,17.588457)"><path style="font-weight:700;font-size:6.66666651px;font-family:Roboto,sans-serif;fill:#333" id="path220" d="M 1.3997395,-0.78450519 H 3.4733072 V 0 H 0.42317707 V -4.7395832 H 1.3997395 Z"/></g><path style="stroke:#333;stroke-width:.30000001" id="polyline129" d="M 0,0 H 2.5" transform="rotate(150,-7.5,2.0096189)"/><path style="stroke:#333;stroke-width:.30000001" id="polyline131" d="M 0,0 H 2.5" transform="rotate(-180,-7.5,0)"/><path style="stroke:#333;stroke-width:.30000001" id="polyline133" d="M 0,0 H 2.5" transform="rotate(-150,-7.5,-2.0096189)"/><path style="stroke:#333;stroke-width:.30000001" id="polyline135" d="M 0,0 H 2.5" transform="rotate(-120,-7.5,-4.330127)"/><path style="stroke:#333;stroke-width:1" id="polyline137" d="M 0,0 H 3.5" transform="rotate(-90,-7.5,-7.5)"/><path style="stroke:#333;stroke-width:.30000001" id="polyline139" d="M 0,0 H 2.5" transform="rotate(-60,-7.5,-12.990381)"/><path style="stroke:#333;stroke-width:.30000001" id="polyline141" d="M 0,0 H 2.5" transform="rotate(-30,-7.5,-27.990381)"/><path style="stroke:#333;stroke-width:.30000001" id="polyline143" d="M 0,0 H 2.5" transform="translate(15)"/><path style="stroke:#333;stroke-width:.30000001" id="polyline145" d="M 0,0 H 2.5" transform="rotate(30,-7.5,27.990381)"/><g style="font-weight:700;font-size:6.66666651px;font-family:Roboto,sans-serif;fill:#333" id="text147" aria-label="R" transform="translate(6.9,17.588457)"><path style="font-weight:700;font-size:6.66666651px;font-family:Roboto,sans-serif;fill:#333" id="path232" d="M 2.1777343,-1.735026 H 1.3997395 V 0 H 0.42317707 V -4.7395832 H 2.1842447 q 0.8398438,0 1.2955729,0.3743489 0.4557292,0.374349 0.4557292,1.0579427 0,0.485026 -0.2115886,0.8105469 -0.2083333,0.3222656 -0.6347656,0.5143229 l 1.0253906,1.93684888 V 0 H 3.0664062 Z M 1.3997395,-2.5260416 h 0.7877604 q 0.3678386,0 0.5696615,-0.1855469 0.2018229,-0.1888021 0.2018229,-0.5175781 0,-0.3352864 -0.1920573,-0.5273437 Q 2.5781249,-3.9485676 2.1842447,-3.9485676 H 1.3997395 Z"/></g></g></g><g id="g92" transform="translate(5.5,182)"><path style="fill:#fafafa" id="rect86" d="m 5,0 h 24 c 2.77,0 5,2.23 5,5 v 63 c 0,2.77 -2.23,5 -5,5 H 5 C 2.23,73 0,70.77 0,68 V 5 C 0,2.23 2.23,0 5,0 Z"/><g style="font-weight:700;font-size:6.66666651px;font-family:Roboto,sans-serif;letter-spacing:2px;fill:#333" id="text88" aria-label="CV" transform="translate(11,35)"><path style="font-weight:700;font-size:6.66666651px;font-family:Roboto,sans-serif;letter-spacing:2px;fill:#333" id="path236" d="m 4.1438801,-1.578776 q -0.055338,0.76497394 -0.5664062,1.20442705 -0.5078125,0.43945312 -1.3411458,0.43945312 -0.9114583,0 -1.43554687,-0.61197916 Q 0.27994791,-1.1621093 0.27994791,-2.2330729 v -0.2897135 q 0,-0.6835937 0.24088541,-1.2044271 0.24088541,-0.5208333 0.68684898,-0.797526 0.4492187,-0.2799479 1.0416666,-0.2799479 0.8203125,0 1.3216146,0.4394531 0.501302,0.4394531 0.579427,1.233724 H 3.173828 q -0.035807,-0.4589844 -0.2571614,-0.6640625 -0.218099,-0.2083334 -0.6673177,-0.2083334 -0.4882812,0 -0.7324219,0.3515625 -0.2408854,0.3483073 -0.2473958,1.0839844 v 0.3580729 q 0,0.7682291 0.2311198,1.1230468 0.234375,0.35481774 0.7356771,0.35481774 0.4524739,0 0.6738281,-0.20507812 Q 3.1347656,-1.1458333 3.1673176,-1.578776 Z"/><path style="font-weight:700;font-size:6.66666651px;font-family:Roboto,sans-serif;letter-spacing:2px;fill:#333" id="path238" d="m 8.5364581,-1.1751302 1.0742187,-3.564453 H 10.697916 L 9.0475258,0 H 8.0286456 L 6.3847655,-4.7395832 h 1.0839843 z"/></g><g style="font-weight:700;font-size:6.66666651px;font-family:Roboto,sans-serif;letter-spacing:2px;fill:#333" id="text90" aria-label="IN" transform="translate(12.5,70)"><path style="font-weight:700;font-size:6.66666651px;font-family:Roboto,sans-serif;letter-spacing:2px;fill:#333" id="path241" d="M 1.4615885,0 H 0.48502603 V -4.7395832 H 1.4615885 Z"/><path style="font-weight:700;font-size:6.66666651px;font-family:Roboto,sans-serif;letter-spacing:2px;fill:#333" id="path243" d="M 8.2174477,0 H 7.2408852 L 5.3398436,-3.1184895 V 0 H 4.3632811 v -4.7395832 h 0.9765625 l 1.9042968,3.1249999 v -3.1249999 h 0.9733073 z"/></g></g><path style="fill:#bbb" id="rect96" d="m 10.5,265 h 24 c 2.77,0 5,2.23 5,5 v 63 c 0,2.77 -2.23,5 -5,5 h -24 c -2.77,0 -5,-2.23 -5,-5 v -63 c 0,-2.77 2.23,-5 5,-5 z"/><g style="font-weight:700;font-size:6.66666651px;font-family:Roboto,sans-serif;letter-spacing:2px;fill:#333" id="text98" aria-label="L"><path style="font-weight:700;font-size:6.66666651px;font-family:Roboto,sans-serif;letter-spacing:2px;fill:#333" id="path247" d="m 21.89974,299.21549 h 2.073567 V 300 h -3.05013 v -4.73958 h 0.976563 z"/></g><g style="font-weight:700;font-size:6.66666651px;font-family:Roboto,sans-serif;letter-spacing:2px;fill:#333" id="text100" aria-label="R"><path style="font-weight:700;font-size:6.66666651px;font-family:Roboto,sans-serif;letter-spacing:2px;fill:#333" id="path250" d="M 22.677734,333.26497 H 21.89974 V 335 h -0.976563 v -4.73958 h 1.761068 q 0.839843,0 1.295573,0.37435 0.455729,0.37434 0.455729,1.05794 0,0.48502 -0.211589,0.81055 -0.208333,0.32226 -0.634765,0.51432 l 1.02539,1.93685 V 335 h -1.048177 z m -0.777994,-0.79101 h 0.78776 q 0.367838,0 0.569661,-0.18555 0.201823,-0.1888 0.201823,-0.51758 0,-0.33528 -0.192057,-0.52734 -0.188802,-0.19206 -0.582682,-0.19206 H 21.89974 Z"/></g></svg>