<svg xmlns="http://www.w3.org/2000/svg" xmlns:svg="http://www.w3.org/2000/svg" id="svg8" width="14" height="24" version="1.1" viewBox="0 0 14 24"><metadata id="metadata14"/><path id="path2" fill="#222" stroke="#888" stroke-width="1" d="M 7 0.5 a 6.5 6.5 0 0 1 6.5 6.5 v 10 a 6.5 6.5 0 0 1 -6.5 6.5 a 6.5 6.5 0 0 1 -6.5 -6.5 v -10 a 6.5 6.5 0 0 1 6.5 -6.5 z"/><path style="fill:#ccc;stroke:#777;stroke-width:1" id="circle4" d="M 11.5,7 A 4.5,4.5 0 0 1 7,11.5 4.5,4.5 0 0 1 2.5,7 4.5,4.5 0 0 1 7,2.5 4.5,4.5 0 0 1 11.5,7 Z"/></svg>