<svg xmlns="http://www.w3.org/2000/svg" xmlns:svg="http://www.w3.org/2000/svg" id="svg156" width="45" height="380" version="1.1" viewBox="0 0 45 380"><metadata id="metadata160"/><style id="style2">text{fill:#333;font-family:&apos;Roboto&apos;,sans-serif;font-weight:700}</style><defs id="defs110"><symbol id="vu" viewBox="0 0 18 180"><rect id="rect4" width="5" height="13" x="0" y="1" fill="#aaa" rx="0" transform="translate(3 0)"/><rect id="rect6" width="5" height="13" x="0" y="1" fill="#aaa" rx="0" transform="translate(10 0)"/><rect id="rect8" width="5" height="13" x="0" y="1" fill="#aaa" rx="0" transform="translate(3 15)"/><rect id="rect10" width="5" height="13" x="0" y="1" fill="#aaa" rx="0" transform="translate(10 15)"/><rect id="rect12" width="5" height="13" x="0" y="1" fill="#aaa" rx="0" transform="translate(3 30)"/><rect id="rect14" width="5" height="13" x="0" y="1" fill="#aaa" rx="0" transform="translate(10 30)"/><rect id="rect16" width="5" height="13" x="0" y="1" fill="#aaa" rx="0" transform="translate(3 45)"/><rect id="rect18" width="5" height="13" x="0" y="1" fill="#aaa" rx="0" transform="translate(10 45)"/><rect id="rect20" width="5" height="13" x="0" y="1" fill="#aaa" rx="0" transform="translate(3 60)"/><rect id="rect22" width="5" height="13" x="0" y="1" fill="#aaa" rx="0" transform="translate(10 60)"/><rect id="rect24" width="5" height="13" x="0" y="1" fill="#aaa" rx="0" transform="translate(3 75)"/><rect id="rect26" width="5" height="13" x="0" y="1" fill="#aaa" rx="0" transform="translate(10 75)"/><rect id="rect28" width="5" height="13" x="0" y="1" fill="#aaa" rx="0" transform="translate(3 90)"/><rect id="rect30" width="5" height="13" x="0" y="1" fill="#aaa" rx="0" transform="translate(10 90)"/><rect id="rect32" width="5" height="13" x="0" y="1" fill="#aaa" rx="0" transform="translate(3 105)"/><rect id="rect34" width="5" height="13" x="0" y="1" fill="#aaa" rx="0" transform="translate(10 105)"/><rect id="rect36" width="5" height="13" x="0" y="1" fill="#aaa" rx="0" transform="translate(3 120)"/><rect id="rect38" width="5" height="13" x="0" y="1" fill="#aaa" rx="0" transform="translate(10 120)"/><rect id="rect40" width="5" height="13" x="0" y="1" fill="#aaa" rx="0" transform="translate(3 135)"/><rect id="rect42" width="5" height="13" x="0" y="1" fill="#aaa" rx="0" transform="translate(10 135)"/><rect id="rect44" width="5" height="13" x="0" y="1" fill="#aaa" rx="0" transform="translate(3 150)"/><rect id="rect46" width="5" height="13" x="0" y="1" fill="#aaa" rx="0" transform="translate(10 150)"/><rect id="rect48" width="5" height="13" x="0" y="1" fill="#aaa" rx="0" transform="translate(3 165)"/><rect id="rect50" width="5" height="13" x="0" y="1" fill="#aaa" rx="0" transform="translate(10 165)"/></symbol><symbol id="guide-db" viewBox="0 0 20 183"><g id="g57" transform="translate(0 15)"><polyline id="polyline53" fill="none" stroke="#333" points="0 0 3 0" transform="translate(11 0)"/><text id="text55" font-size="8" transform="translate(7 0) rotate(0) translate(-2.5 2.6)">6</text></g><g id="g63" transform="translate(0 30)"><polyline id="polyline59" fill="none" stroke="#333" points="0 0 3 0" transform="translate(11 0)"/><text id="text61" font-size="8" transform="translate(7 0) rotate(0) translate(-2.5 2.6)">0</text></g><g id="g69" transform="translate(0 45)"><polyline id="polyline65" fill="none" stroke="#333" points="0 0 3 0" transform="translate(11 0)"/><text id="text67" font-size="8" transform="translate(7 0) rotate(-90) translate(-4 2.2)">-6</text></g><g id="g75" transform="translate(0 60)"><polyline id="polyline71" fill="none" stroke="#333" points="0 0 3 0" transform="translate(11 0)"/><text id="text73" font-size="8" transform="translate(7 0) rotate(-90) translate(-7 2.2)">-12</text></g><g id="g81" transform="translate(0 90)"><polyline id="polyline77" fill="none" stroke="#333" points="0 0 3 0" transform="translate(11 0)"/><text id="text79" font-size="8" transform="translate(7 0) rotate(-90) translate(-7 2.2)">-24</text></g><g id="g89" transform="translate(0 150)"><polyline id="polyline85" fill="none" stroke="#333" points="0 0 3 0" transform="translate(11 0)"/><text id="text87" font-size="8" transform="translate(7 0) rotate(-90) translate(-7 2.2)">-48</text></g><g id="g93" transform="translate(0 170)"><text id="text91" font-size="8" transform="translate(7 0) rotate(-90) translate(-9 4.5)">dB</text></g></symbol><symbol id="input" viewBox="0 0 24 24"><g id="g100" transform="translate(12 12)"><circle id="circle96" cx="0" cy="0" r="5" fill="#0f0" stroke="#0f0" stroke-width="1"/><circle id="circle98" cx="0" cy="0" r="10.5" fill="none" stroke="#0f0" stroke-width="3"/></g></symbol><symbol id="output" viewBox="0 0 24 24"><g id="g107" transform="translate(12 12)"><circle id="circle103" cx="0" cy="0" r="5" fill="red" stroke="red" stroke-width="1"/><circle id="circle105" cx="0" cy="0" r="10.5" fill="none" stroke="red" stroke-width="3"/></g></symbol></defs><path style="fill:#ddd" id="rect112" d="M 0,0 H 45 V 380 H 0 Z"/><path style="fill:none;stroke:#e4e4e4;stroke-width:.5" id="polyline114" d="M 1,1 H 44 V 379 H 1 V 1"/><path style="fill:none;stroke:#ebebeb;stroke-width:.80000001" id="polyline116" d="m 0.5,0.5 h 44 v 379 H 0.5 V 0.5"/><path style="fill:none;stroke:#f2f2f2;stroke-width:1" id="polyline118" d="M 0,0 H 45 V 380 H 0 V 0"/><g style="font-weight:400;font-size:9.33333302px;font-family:Comfortaa,sans-serif;letter-spacing:2.5px;fill:#333" id="text120" aria-label="VU" transform="rotate(-90)"><path style="font-weight:400;font-size:9.33333302px;font-family:Comfortaa,sans-serif;letter-spacing:2.5px;fill:#333" id="path221" d="m -369.82133,5.7106669 q 0.14933,0 0.23333,0.093333 0.0933,0.093333 0.0933,0.2333334 0,0.093333 -0.0467,0.2053333 l -2.78134,6.5240001 Q -372.42533,13 -372.64933,13 q -0.12134,0 -0.20534,-0.04667 -0.0747,-0.056 -0.13066,-0.186666 l -2.772,-6.4866668 q -0.056,-0.14 -0.056,-0.2426666 0,-0.1493334 0.0933,-0.2333334 0.10267,-0.093333 0.26133,-0.093333 0.24267,0 0.336,0.2333333 l 2.47334,5.9173328 2.464,-5.8986661 q 0.056,-0.14 0.14,-0.196 0.084,-0.056 0.224,-0.056 z"/><path style="font-weight:400;font-size:9.33333302px;font-family:Comfortaa,sans-serif;letter-spacing:2.5px;fill:#333" id="path223" d="m -362.9739,13.149333 q -0.84,0 -1.50266,-0.326666 -0.66267,-0.326667 -1.036,-0.905334 -0.364,-0.588 -0.364,-1.325333 V 6.0746669 q 0,-0.1586667 0.10266,-0.2613333 0.10267,-0.1026667 0.26134,-0.1026667 0.15866,0 0.26133,0.1026667 0.10267,0.1026666 0.10267,0.2613333 V 10.592 q 0,0.541333 0.27066,0.970667 0.28,0.42 0.77467,0.662666 0.49467,0.233334 1.12933,0.233334 0.62534,0 1.11067,-0.233334 0.48533,-0.242666 0.756,-0.662666 0.28,-0.429334 0.28,-0.970667 V 6.0746669 q 0,-0.1586667 0.10267,-0.2613333 0.10266,-0.1026667 0.26133,-0.1026667 0.15867,0 0.26133,0.1026667 0.10267,0.1026666 0.10267,0.2613333 V 10.592 q 0,0.737333 -0.37333,1.325333 -0.364,0.578667 -1.01734,0.905334 -0.65333,0.326666 -1.484,0.326666 z"/></g><g id="g126" transform="rotate(-90,200.5,175.5)"><g style="font-weight:700;font-size:9.33333302px;font-family:Audiowide,sans-serif;letter-spacing:2px;fill:#333" id="text122" aria-label="BGA"><path style="font-weight:700;font-size:9.33333302px;font-family:Audiowide,sans-serif;letter-spacing:2px;fill:#333" id="path226" d="m 7.2096352,-1.4355468 q 0,0.21875 -0.077474,0.469401 -0.072917,0.25065103 -0.2460937,0.46484373 -0.1686198,0.2141927 -0.4420573,0.36002603 Q 6.1705727,0 5.7740883,0 H 1.2760416 Q 1.1484375,0 1.0390625,-0.04557292 0.92968747,-0.09114583 0.84765622,-0.16861979 q -0.077474,-0.0820312 -0.12304687,-0.19140624 -0.0455729,-0.109375 -0.0455729,-0.23697916 V -5.9381508 q 0,-0.1230469 0.0455729,-0.2324219 0.0455729,-0.109375 0.12304687,-0.1914062 0.0820313,-0.082031 0.19140628,-0.1276042 0.109375,-0.045573 0.2369791,-0.045573 h 3.9648436 q 0.21875,0 0.4694011,0.077474 0.250651,0.077474 0.4648437,0.2506511 0.21875,0.1686197 0.360026,0.4420572 0.1458334,0.2734375 0.1458334,0.6699219 v 0.2233073 q 0,0.3144531 -0.1048177,0.6790364 -0.1048178,0.360026 -0.3372396,0.6835937 0.2005208,0.1230469 0.3736979,0.296224 0.1777344,0.1731771 0.3098958,0.4010416 0.1321615,0.2278646 0.2096354,0.514974 0.077474,0.2871093 0.077474,0.6334635 z M 6.0247394,-1.6634114 q 0,-0.2324219 -0.072917,-0.4147135 Q 5.878906,-2.2649739 5.7467446,-2.3971353 5.6145831,-2.5292968 5.4277342,-2.5976562 5.2408852,-2.6705728 5.0084634,-2.6705728 H 2.3378905 v -1.1940104 h 2.1373698 q 0.2324218,0 0.4192708,-0.068359 0.1868489,-0.072917 0.3190104,-0.2050781 0.1321614,-0.1321614 0.2005208,-0.3144531 0.072917,-0.186849 0.072917,-0.4192708 v -0.2233073 q 0,-0.2552083 -0.2460938,-0.2552083 h -3.376953 v 4.1653644 h 3.9101561 q 0.031901,0 0.077474,-0.00456 0.045573,-0.00456 0.082031,-0.027344 0.036458,-0.022787 0.063802,-0.077474 0.027344,-0.054687 0.027344,-0.1503906 z"/><path style="font-weight:700;font-size:9.33333302px;font-family:Audiowide,sans-serif;letter-spacing:2px;fill:#333" id="path228" d="m 16.683594,-0.59700519 q 0,0.12760416 -0.04557,0.23697916 -0.04557,0.109375 -0.127605,0.19140624 -0.07747,0.07747396 -0.186849,0.12304687 Q 16.214192,0 16.086588,0 h -4.274739 q -0.164063,0 -0.355469,-0.03645833 -0.186849,-0.04101563 -0.373698,-0.12304687 -0.182291,-0.0820313 -0.350911,-0.20963541 -0.16862,-0.13216146 -0.300781,-0.31445312 -0.127605,-0.18684895 -0.205079,-0.42838537 -0.07747,-0.2460938 -0.07747,-0.5514323 v -3.2083332 q 0,-0.1640625 0.03646,-0.3509115 0.04101,-0.1914062 0.123047,-0.3736979 0.08203,-0.1868489 0.214192,-0.3554687 0.132162,-0.1686198 0.314453,-0.296224 0.186849,-0.1321614 0.428386,-0.2096354 0.241536,-0.077474 0.546875,-0.077474 h 4.817057 v 1.1848958 h -4.817057 q -0.232422,0 -0.355469,0.1230468 -0.123047,0.1230469 -0.123047,0.3645834 v 3.1992186 q 0,0.2278646 0.123047,0.3554687 0.127604,0.1230469 0.355469,0.1230469 h 3.686849 v -1.485677 h -3.153646 v -1.1940104 h 3.741536 q 0.127604,0 0.236979,0.05013 0.109375,0.045573 0.186849,0.1276042 0.08203,0.082031 0.127605,0.1914062 0.04557,0.1048177 0.04557,0.2278646 z"/><path style="font-weight:700;font-size:9.33333302px;font-family:Audiowide,sans-serif;letter-spacing:2px;fill:#333" id="path230" d="M 26.339842,0 H 25.154946 V -1.6041666 H 20.989582 V 0 h -1.184896 v -3.267578 q 0,-0.7154948 0.246094,-1.3170573 0.246094,-0.6015624 0.683594,-1.0345051 0.4375,-0.4329427 1.034505,-0.6744792 0.597005,-0.2415364 1.303385,-0.2415364 h 2.670573 q 0.123047,0 0.232422,0.045573 0.109375,0.045573 0.191406,0.1276042 0.08203,0.082031 0.127604,0.1914062 0.04557,0.109375 0.04557,0.2324219 z m -5.35026,-2.7890624 h 4.165364 v -2.5611978 h -2.082682 q -0.05469,0 -0.232422,0.018229 -0.173177,0.013672 -0.405599,0.077474 -0.227864,0.063802 -0.483072,0.1959635 -0.255209,0.1321615 -0.469402,0.3645833 -0.214192,0.2324219 -0.355468,0.5833334 -0.136719,0.3463541 -0.136719,0.8430989 z"/></g><path style="fill:#ddd" id="rect124" d="M 0,0 H 3 V 3 H 0 Z" transform="translate(11.5,-5)"/></g><g id="use130" transform="translate(0,17)"><g id="g181" transform="translate(0,15)"><path style="fill:none;stroke:#333" id="polyline177" d="M 0,0 H 3" transform="translate(11)"/><g style="font-weight:700;font-size:8px;font-family:Roboto,sans-serif;fill:#333" id="text179" aria-label="6" transform="translate(4.5,2.6)"><path style="font-weight:700;font-size:8px;font-family:Roboto,sans-serif;fill:#333" id="path235" d="m 3.4492188,-5.7460937 v 0.9296875 h -0.109375 q -0.765625,0.011719 -1.234375,0.3984375 Q 1.640625,-4.03125 1.546875,-3.34375 2,-3.8046875 2.6914063,-3.8046875 q 0.7421875,0 1.1796875,0.53125 0.4374999,0.53125 0.4374999,1.3984375 0,0.5546875 -0.2421875,1.00390625 Q 3.828125,-0.421875 3.3867188,-0.171875 q -0.4375,0.25 -0.9921875,0.25 -0.8984376,0 -1.45312505,-0.625 Q 0.390625,-1.171875 0.390625,-2.2148438 v -0.40625 q 0,-0.9257812 0.34765625,-1.6328124 0.35156245,-0.7109375 1.00390625,-1.0976563 0.65625,-0.390625 1.5195313,-0.3945312 z m -1.1015625,2.8476562 q -0.2734375,0 -0.4960938,0.1445312 -0.2226563,0.140625 -0.328125,0.375 v 0.34375 q 0,0.5664063 0.2226562,0.8867188 0.2226563,0.31640625 0.6250001,0.31640625 0.3632812,0 0.5859375,-0.28515625 0.2265625,-0.2890625 0.2265625,-0.7460937 0,-0.4648438 -0.2265625,-0.7500001 -0.2265625,-0.2851562 -0.609375,-0.2851562 z"/></g></g><g id="g187" transform="translate(0,30)"><path style="fill:none;stroke:#333" id="polyline183" d="M 0,0 H 3" transform="translate(11)"/><g style="font-weight:700;font-size:8px;font-family:Roboto,sans-serif;fill:#333" id="text185" aria-label="0" transform="translate(4.5,2.6)"><path style="font-weight:700;font-size:8px;font-family:Roboto,sans-serif;fill:#333" id="path239" d="m 4.2148437,-2.3515625 q 0,1.1796875 -0.4882812,1.8046875 -0.4882812,0.625 -1.4296875,0.625 -0.9296875,0 -1.421875,-0.61328125 Q 0.3828125,-1.1484375 0.37109375,-2.2929688 v -1.046875 q 0,-1.1914062 0.4921875,-1.8085937 Q 1.359375,-5.765625 2.2890625,-5.765625 q 0.9296875,0 1.421875,0.6132813 0.4921875,0.609375 0.5039062,1.7539062 z M 3.0859375,-3.5 q 0,-0.7070312 -0.1953125,-1.0273437 -0.1914062,-0.3242188 -0.6015625,-0.3242188 -0.3984375,0 -0.5898438,0.3085938 Q 1.5117187,-4.2382812 1.5,-3.5859375 v 1.3828125 q 0,0.6953125 0.1875,1.0351563 0.1914062,0.33593745 0.609375,0.33593745 0.4140625,0 0.5976563,-0.32421875 0.1835937,-0.3242187 0.1914062,-0.9921875 z"/></g></g><g id="g193" transform="translate(0,45)"><path style="fill:none;stroke:#333" id="polyline189" d="M 0,0 H 3" transform="translate(11)"/><g style="font-weight:700;font-size:8px;font-family:Roboto,sans-serif;fill:#333" id="text191" aria-label="-6" transform="rotate(-90,6.6,-2.6)"><path style="font-weight:700;font-size:8px;font-family:Roboto,sans-serif;fill:#333" id="path243" d="M 2.6289063,-1.9804687 H 0.4296875 V -2.890625 h 2.1992188 z"/><path style="font-weight:700;font-size:8px;font-family:Roboto,sans-serif;fill:#333" id="path245" d="m 6.5585937,-5.7460937 v 0.9296875 h -0.109375 q -0.765625,0.011719 -1.234375,0.3984375 Q 4.75,-4.03125 4.65625,-3.34375 q 0.453125,-0.4609375 1.1445312,-0.4609375 0.7421875,0 1.1796875,0.53125 0.4375,0.53125 0.4375,1.3984375 0,0.5546875 -0.2421875,1.00390625 Q 6.9375,-0.421875 6.4960937,-0.171875 q -0.4375,0.25 -0.9921875,0.25 -0.8984375,0 -1.453125,-0.625 Q 3.5,-1.171875 3.5,-2.2148438 v -0.40625 q 0,-0.9257812 0.3476563,-1.6328124 0.3515624,-0.7109375 1.0039062,-1.0976563 0.65625,-0.390625 1.5195312,-0.3945312 z m -1.1015625,2.8476562 q -0.2734375,0 -0.4960937,0.1445312 -0.2226563,0.140625 -0.328125,0.375 v 0.34375 q 0,0.5664063 0.2226562,0.8867188 0.2226563,0.31640625 0.625,0.31640625 0.3632813,0 0.5859375,-0.28515625 0.2265625,-0.2890625 0.2265625,-0.7460937 0,-0.4648438 -0.2265625,-0.7500001 -0.2265625,-0.2851562 -0.609375,-0.2851562 z"/></g></g><g id="g199" transform="translate(0,60)"><path style="fill:none;stroke:#333" id="polyline195" d="M 0,0 H 3" transform="translate(11)"/><g style="font-weight:700;font-size:8px;font-family:Roboto,sans-serif;fill:#333" id="text197" aria-label="-12" transform="rotate(-90,8.1,-1.1)"><path style="font-weight:700;font-size:8px;font-family:Roboto,sans-serif;fill:#333" id="path249" d="M 2.6289063,-1.9804687 H 0.4296875 V -2.890625 h 2.1992188 z"/><path style="font-weight:700;font-size:8px;font-family:Roboto,sans-serif;fill:#333" id="path251" d="M 6.2382812,0 H 5.109375 v -4.3515625 l -1.3476562,0.4179687 v -0.9179687 l 2.3554687,-0.84375 h 0.1210937 z"/><path style="font-weight:700;font-size:8px;font-family:Roboto,sans-serif;fill:#333" id="path253" d="M 11.988281,0 H 8.0898438 V -0.7734375 L 9.9296875,-2.734375 q 0.3789065,-0.4140625 0.5585935,-0.7226563 0.183594,-0.3085937 0.183594,-0.5859374 0,-0.3789063 -0.191406,-0.59375 -0.191406,-0.21875 -0.5468752,-0.21875 -0.3828125,0 -0.6054688,0.265625 -0.21875,0.2617187 -0.21875,0.6914062 H 7.9765625 q 0,-0.5195312 0.2460938,-0.9492187 0.25,-0.4296875 0.703125,-0.671875 0.453125,-0.2460938 1.0273437,-0.2460938 0.878906,0 1.363281,0.421875 0.488282,0.421875 0.488282,1.1914063 0,0.4218749 -0.21875,0.8593749 -0.21875,0.4375 -0.75,1.0195313 l -1.2929692,1.36328125 h 2.4453122 z"/></g></g><g id="g205" transform="translate(0,90)"><path style="fill:none;stroke:#333" id="polyline201" d="M 0,0 H 3" transform="translate(11)"/><g style="font-weight:700;font-size:8px;font-family:Roboto,sans-serif;fill:#333" id="text203" aria-label="-24" transform="rotate(-90,8.1,-1.1)"><path style="font-weight:700;font-size:8px;font-family:Roboto,sans-serif;fill:#333" id="path257" d="M 2.6289063,-1.9804687 H 0.4296875 V -2.890625 h 2.1992188 z"/><path style="font-weight:700;font-size:8px;font-family:Roboto,sans-serif;fill:#333" id="path259" d="M 7.3945312,0 H 3.4960938 V -0.7734375 L 5.3359375,-2.734375 Q 5.7148437,-3.1484375 5.8945312,-3.4570313 6.078125,-3.765625 6.078125,-4.0429687 q 0,-0.3789063 -0.1914063,-0.59375 -0.1914062,-0.21875 -0.546875,-0.21875 -0.3828125,0 -0.6054687,0.265625 -0.21875,0.2617187 -0.21875,0.6914062 H 3.3828125 q 0,-0.5195312 0.2460938,-0.9492187 0.25,-0.4296875 0.7031249,-0.671875 0.453125,-0.2460938 1.0273438,-0.2460938 0.8789062,0 1.3632812,0.421875 0.4882813,0.421875 0.4882813,1.1914063 0,0.4218749 -0.21875,0.8593749 -0.21875,0.4375 -0.75,1.0195313 l -1.2929688,1.36328125 h 2.4453125 z"/><path style="font-weight:700;font-size:8px;font-family:Roboto,sans-serif;fill:#333" id="path261" d="m 11.429688,-2.140625 h 0.644531 v 0.9101563 H 11.429688 V 0 H 10.300781 V -1.2304687 H 7.96875 L 7.9179687,-1.9414062 10.289063,-5.6875 h 1.140625 z m -2.3867192,0 h 1.2578122 v -2.0078125 l -0.07422,0.1289063 z"/></g></g><g id="g213" transform="translate(0,150)"><path style="fill:none;stroke:#333" id="polyline209" d="M 0,0 H 3" transform="translate(11)"/><g style="font-weight:700;font-size:8px;font-family:Roboto,sans-serif;fill:#333" id="text211" aria-label="-48" transform="rotate(-90,8.1,-1.1)"><path style="font-weight:700;font-size:8px;font-family:Roboto,sans-serif;fill:#333" id="path265" d="M 2.6289063,-1.9804687 H 0.4296875 V -2.890625 h 2.1992188 z"/><path style="font-weight:700;font-size:8px;font-family:Roboto,sans-serif;fill:#333" id="path267" d="m 6.8359375,-2.140625 h 0.6445312 v 0.9101563 H 6.8359375 V 0 H 5.7070312 V -1.2304687 H 3.375 L 3.3242188,-1.9414062 5.6953125,-5.6875 h 1.140625 z m -2.3867188,0 h 1.2578125 v -2.0078125 l -0.074219,0.1289063 z"/><path style="font-weight:700;font-size:8px;font-family:Roboto,sans-serif;fill:#333" id="path269" d="m 11.796875,-4.1757812 q 0,0.4140624 -0.207031,0.7343749 -0.207031,0.3203125 -0.570313,0.5117188 0.414063,0.1992187 0.65625,0.5507812 0.242188,0.3476563 0.242188,0.8203126 0,0.75781245 -0.515625,1.1992187 -0.515625,0.4375 -1.402344,0.4375 -0.8867187,0 -1.40625,-0.44140625 -0.5195312,-0.44140625 -0.5195312,-1.19531245 0,-0.4726563 0.2421875,-0.8242188 0.2421875,-0.3515625 0.6523437,-0.546875 -0.3632812,-0.1914063 -0.5703125,-0.5117188 -0.203125,-0.3203125 -0.203125,-0.7343749 0,-0.7265625 0.484375,-1.15625 0.484375,-0.4335938 1.3164063,-0.4335938 0.8281252,0 1.3125002,0.4296875 0.488281,0.4257813 0.488281,1.1601563 z m -1.011719,2.5351562 q 0,-0.3710938 -0.214843,-0.59375 -0.214844,-0.2226563 -0.5781255,-0.2226563 -0.359375,0 -0.5742187,0.2226563 -0.2148438,0.21875 -0.2148438,0.59375 0,0.3632813 0.2109375,0.5859375 Q 9.625,-0.83203125 10,-0.83203125 q 0.367188,0 0.574219,-0.21484375 0.210937,-0.2148437 0.210937,-0.59375 z m -0.117187,-2.4804687 q 0,-0.3320313 -0.175781,-0.53125 -0.175782,-0.203125 -0.4960942,-0.203125 -0.3164063,0 -0.4921875,0.1953125 -0.1757813,0.1953125 -0.1757813,0.5390625 0,0.3398437 0.1757813,0.5468749 Q 9.6796875,-3.3671875 10,-3.3671875 q 0.320313,0 0.492188,-0.2070313 0.175781,-0.2070312 0.175781,-0.5468749 z"/></g></g><g id="g217" transform="translate(0,170)"><g style="font-weight:700;font-size:8px;font-family:Roboto,sans-serif;fill:#333" id="text215" aria-label="dB" transform="rotate(-90,10.25,-1.25)"><path style="font-weight:700;font-size:8px;font-family:Roboto,sans-serif;fill:#333" id="path272" d="m 0.2578125,-2.1445313 q 0,-0.9882812 0.44140625,-1.5742187 0.44531245,-0.5859375 1.21484375,-0.5859375 0.6171875,0 1.0195313,0.4609375 V -6 H 4.0664062 V 0 H 3.046875 L 2.9921875,-0.44921875 Q 2.5703125,0.078125 1.90625,0.078125 q -0.7460938,0 -1.19921875,-0.5859375 Q 0.2578125,-1.0976562 0.2578125,-2.1445313 Z M 1.3867187,-2.0625 q 0,0.59375 0.2070313,0.9101563 0.2070312,0.3164062 0.6015625,0.3164062 0.5234375,0 0.7382813,-0.4414062 V -2.9453125 Q 2.7226563,-3.3867188 2.203125,-3.3867188 q -0.8164063,0 -0.8164063,1.3242188 z"/><path style="font-weight:700;font-size:8px;font-family:Roboto,sans-serif;fill:#333" id="path274" d="M 5.0234375,0 V -5.6875 H 7.015625 q 1.0351563,0 1.5703125,0.3984375 0.5351563,0.3945313 0.5351563,1.1601563 0,0.4179687 -0.2148438,0.7382812 -0.2148437,0.3164062 -0.5976562,0.4648437 0.4375,0.109375 0.6875,0.4414063 Q 9.25,-2.1523438 9.25,-1.671875 9.25,-0.8515625 8.7265625,-0.4296875 8.203125,-0.0078125 7.234375,0 Z m 1.171875,-2.4765625 v 1.53515625 h 1.0039062 q 0.4140625,0 0.6445313,-0.19531245 0.234375,-0.1992188 0.234375,-0.546875 0,-0.7812501 -0.8085938,-0.7929688 z m 0,-0.828125 H 7.0625 q 0.8867187,-0.015625 0.8867187,-0.7070312 0,-0.3867188 -0.2265625,-0.5546875 Q 7.5,-4.7382812 7.015625,-4.7382812 H 6.1953125 Z"/></g></g></g><g id="g142" transform="translate(5.5,200)"><path style="fill:#fafafa" id="rect134" d="M 0,0 H 34 V 10 H 0 Z" transform="translate(0,63)"/><path style="fill:#fafafa" id="rect136" d="m 5,0 h 24 c 2.77,0 5,2.23 5,5 v 60 c 0,2.77 -2.23,5 -5,5 H 5 C 2.23,70 0,67.77 0,65 V 5 C 0,2.23 2.23,0 5,0 Z"/><g style="font-weight:700;font-size:6.66666651px;font-family:Roboto,sans-serif;letter-spacing:2px;fill:#333" id="text138" aria-label="L" transform="translate(15,35)"><path style="font-weight:700;font-size:6.66666651px;font-family:Roboto,sans-serif;letter-spacing:2px;fill:#333" id="path279" d="M 1.3997395,-0.78450519 H 3.4733072 V 0 H 0.42317707 V -4.7395832 H 1.3997395 Z"/></g><g style="font-weight:700;font-size:6.66666651px;font-family:Roboto,sans-serif;letter-spacing:.5px;fill:#333" id="text140" aria-label="R (L)" transform="translate(9,70)"><path style="font-weight:700;font-size:6.66666651px;font-family:Roboto,sans-serif;letter-spacing:.5px;fill:#333" id="path282" d="M 2.1777343,-1.735026 H 1.3997395 V 0 H 0.42317707 V -4.7395832 H 2.1842447 q 0.8398438,0 1.2955729,0.3743489 0.4557292,0.374349 0.4557292,1.0579427 0,0.485026 -0.2115886,0.8105469 -0.2083333,0.3222656 -0.6347656,0.5143229 l 1.0253906,1.93684888 V 0 H 3.0664062 Z M 1.3997395,-2.5260416 h 0.7877604 q 0.3678386,0 0.5696615,-0.1855469 0.2018229,-0.1888021 0.2018229,-0.5175781 0,-0.3352864 -0.1920573,-0.5273437 Q 2.5781249,-3.9485676 2.1842447,-3.9485676 H 1.3997395 Z"/><path style="font-weight:700;font-size:6.66666651px;font-family:Roboto,sans-serif;letter-spacing:.5px;fill:#333" id="path284" d="m 7.3281248,-1.9270833 q 0,-0.7454427 0.1985677,-1.4192708 0.1985677,-0.6738281 0.5859375,-1.1914062 0.3873698,-0.5208333 0.8398438,-0.7226562 l 0.1822916,0.5078124 q -0.4752604,0.3515625 -0.7421875,1.0872396 -0.266927,0.7356771 -0.266927,1.71875 v 0.1009114 q 0,0.98632812 0.2636718,1.72526039 0.2636719,0.73893228 0.7454427,1.1035156 L 8.9524738,1.4811198 Q 8.5097654,1.2825521 8.1256509,0.77799477 7.7447915,0.2766927 7.5429686,-0.38085937 7.3411457,-1.0384114 7.3281248,-1.7545572 Z"/><path style="font-weight:700;font-size:6.66666651px;font-family:Roboto,sans-serif;letter-spacing:.5px;fill:#333" id="path286" d="m 11.167969,-0.78450519 h 2.073568 V 0 h -3.05013 v -4.7395832 h 0.976562 z"/><path style="font-weight:700;font-size:6.66666651px;font-family:Roboto,sans-serif;letter-spacing:.5px;fill:#333" id="path288" d="m 15.857422,-1.8522135 q 0,0.7356771 -0.211589,1.41601559 Q 15.434245,0.24414062 15.037109,0.76497394 14.639974,1.2858073 14.1875,1.4811198 L 14.005208,0.98307289 q 0.46224,-0.34830728 0.729167,-1.07421872 0.266927,-0.72591144 0.276693,-1.66992187 v -0.172526 q 0,-0.9733073 -0.266927,-1.7154948 -0.263672,-0.7421874 -0.738933,-1.1132812 L 14.1875,-5.2604165 q 0.442708,0.1920572 0.833333,0.6966145 0.393881,0.5045573 0.608724,1.1751302 0.218099,0.6705729 0.227865,1.3899739 z"/></g></g><g id="g152" transform="translate(5.5,276)"><path style="fill:#bbb" id="rect144" d="M 0,0 H 34 V 10 H 0 Z" transform="translate(0,-3)"/><path style="fill:#bbb" id="rect146" d="m 5,0 h 24 c 2.77,0 5,2.23 5,5 v 60 c 0,2.77 -2.23,5 -5,5 H 5 C 2.23,70 0,67.77 0,65 V 5 C 0,2.23 2.23,0 5,0 Z"/><g style="font-weight:700;font-size:6.66666651px;font-family:Roboto,sans-serif;letter-spacing:2px;fill:#333" id="text148" aria-label="L" transform="translate(15,32)"><path style="font-weight:700;font-size:6.66666651px;font-family:Roboto,sans-serif;letter-spacing:2px;fill:#333" id="path293" d="M 1.3997395,-0.78450519 H 3.4733072 V 0 H 0.42317707 V -4.7395832 H 1.3997395 Z"/></g><g style="font-weight:700;font-size:6.66666651px;font-family:Roboto,sans-serif;letter-spacing:2px;fill:#333" id="text150" aria-label="R" transform="translate(15,67)"><path style="font-weight:700;font-size:6.66666651px;font-family:Roboto,sans-serif;letter-spacing:2px;fill:#333" id="path296" d="M 2.1777343,-1.735026 H 1.3997395 V 0 H 0.42317707 V -4.7395832 H 2.1842447 q 0.8398438,0 1.2955729,0.3743489 0.4557292,0.374349 0.4557292,1.0579427 0,0.485026 -0.2115886,0.8105469 -0.2083333,0.3222656 -0.6347656,0.5143229 l 1.0253906,1.93684888 V 0 H 3.0664062 Z M 1.3997395,-2.5260416 h 0.7877604 q 0.3678386,0 0.5696615,-0.1855469 0.2018229,-0.1888021 0.2018229,-0.5175781 0,-0.3352864 -0.1920573,-0.5273437 Q 2.5781249,-3.9485676 2.1842447,-3.9485676 H 1.3997395 Z"/></g></g></svg>