<svg xmlns="http://www.w3.org/2000/svg" xmlns:svg="http://www.w3.org/2000/svg" id="svg162" width="45" height="380" version="1.1" viewBox="0 0 45 380"><metadata id="metadata166"/><style id="style2">text{fill:#333;font-family:&apos;Roboto&apos;,sans-serif;font-weight:700}</style><defs id="defs100"><symbol id="knob" viewBox="0 0 45 45"><g id="g10" transform="translate(22.5 22.5)"><polyline id="polyline4" stroke="#00f" stroke-width="1" points="-5 0 5 0"/><polyline id="polyline6" stroke="#00f" stroke-width="1" points="0 -5 0 5"/><circle id="circle8" cx="0" cy="0" r="14" fill="none" stroke="#00f" stroke-width="1"/></g></symbol><symbol id="knob-smallest" viewBox="0 0 16 16"><g id="g19" transform="translate(8 8)"><polyline id="polyline13" stroke="#00f" stroke-width="1" points="-3 0 3 0"/><polyline id="polyline15" stroke="#00f" stroke-width="1" points="0 -3 0 3"/><circle id="circle17" r="7.5" fill="none" stroke="#00f" stroke-width="1"/></g></symbol><symbol id="knobguide-mixab" viewBox="0 0 45 45"><g id="g44" transform="translate(22.5 22.5)"><text id="text22" font-size="5pt" transform="rotate(-240) translate(20 0) rotate(240) translate(-2 2)">A</text><polyline id="polyline24" stroke="#333" stroke-width=".3" points="0 0 2.5 0" transform="rotate(-210) translate(17 0)"/><polyline id="polyline26" stroke="#333" stroke-width=".3" points="0 0 2.5 0" transform="rotate(-180) translate(17 0)"/><polyline id="polyline28" stroke="#333" stroke-width=".3" points="0 0 2.5 0" transform="rotate(-150) translate(17 0)"/><polyline id="polyline30" stroke="#333" stroke-width=".3" points="0 0 2.5 0" transform="rotate(-120) translate(17 0)"/><polyline id="polyline32" stroke="#333" stroke-width="1" points="0 0 3.5 0" transform="rotate(-90) translate(17 0)"/><polyline id="polyline34" stroke="#333" stroke-width=".3" points="0 0 2.5 0" transform="rotate(-60) translate(17 0)"/><polyline id="polyline36" stroke="#333" stroke-width=".3" points="0 0 2.5 0" transform="rotate(-30) translate(17 0)"/><polyline id="polyline38" stroke="#333" stroke-width=".3" points="0 0 2.5 0" transform="rotate(0) translate(17 0)"/><polyline id="polyline40" stroke="#333" stroke-width=".3" points="0 0 2.5 0" transform="rotate(30) translate(17 0)"/><text id="text42" font-size="5pt" transform="rotate(60) translate(20 0) rotate(-60) translate(-2 2)">B</text></g></symbol><symbol id="knobguide-curve" viewBox="0 0 45 45"><g id="g75" transform="translate(22.5 22.5)"><polyline id="polyline47" stroke="#333" stroke-width="1" points="0 0 2 0" transform="rotate(-180) translate(9.5 0)"/><g id="g53" transform="rotate(-180) translate(16 0) rotate(180) translate(-2.5 -2.5)"><polyline id="polyline49" fill="none" stroke="#333" stroke-linecap="round" stroke-width="1" points="0 0 2.5 5" transform="translate(0 0)"/><polyline id="polyline51" fill="none" stroke="#333" stroke-linecap="round" stroke-width="1" points="5 0 2.5 5" transform="translate(0 0)"/></g><polyline id="polyline55" stroke="#333" stroke-width=".3" points="0 0 2 0" transform="rotate(-135) translate(9.5 0)"/><polyline id="polyline57" stroke="#333" stroke-width="1" points="0 0 2 0" transform="rotate(-90) translate(9.5 0)"/><g id="g63" transform="rotate(-90) translate(16 0) rotate(90) translate(-2.5 -2.5)"><polyline id="polyline59" fill="none" stroke="#333" stroke-linecap="round" stroke-width="1" points="0 0 5 5" transform="translate(0 0)"/><polyline id="polyline61" fill="none" stroke="#333" stroke-linecap="round" stroke-width="1" points="5 0 0 5" transform="translate(0 0)"/></g><polyline id="polyline65" stroke="#333" stroke-width=".3" points="0 0 2 0" transform="rotate(-45) translate(9.5 0)"/><polyline id="polyline67" stroke="#333" stroke-width="1" points="0 0 2 0" transform="rotate(0) translate(9.5 0)"/><g id="g73" transform="rotate(0) translate(16 0) rotate(-0) translate(-2.5 -2.5)"><polyline id="polyline69" fill="none" stroke="#333" stroke-linecap="round" stroke-width="1" points="2.5 0 5 5" transform="translate(0 0)"/><polyline id="polyline71" fill="none" stroke="#333" stroke-linecap="round" stroke-width="1" points="2.5 0 0 5" transform="translate(0 0)"/></g></g></symbol><symbol id="button" viewBox="0 0 9 9"><g id="g80" transform="translate(4.5 4.5)"><circle id="circle78" cx="0" cy="0" r="4.1" fill="red" stroke="#00f" stroke-width="1"/></g></symbol><symbol id="light-small" viewBox="0 0 6.4 6.4"><rect id="rect83" width="6.4" height="6.4" fill="#0f0"/></symbol><symbol id="input" viewBox="0 0 24 24"><g id="g90" transform="translate(12 12)"><circle id="circle86" cx="0" cy="0" r="5" fill="#0f0" stroke="#0f0" stroke-width="1"/><circle id="circle88" cx="0" cy="0" r="10.5" fill="none" stroke="#0f0" stroke-width="3"/></g></symbol><symbol id="output" viewBox="0 0 24 24"><g id="g97" transform="translate(12 12)"><circle id="circle93" cx="0" cy="0" r="5" fill="red" stroke="red" stroke-width="1"/><circle id="circle95" cx="0" cy="0" r="10.5" fill="none" stroke="red" stroke-width="3"/></g></symbol></defs><path style="fill:#ddd" id="rect102" d="M 0,0 H 45 V 380 H 0 Z"/><path style="fill:none;stroke:#e4e4e4;stroke-width:.5" id="polyline104" d="M 1,1 H 44 V 379 H 1 V 1"/><path style="fill:none;stroke:#ebebeb;stroke-width:.80000001" id="polyline106" d="m 0.5,0.5 h 44 v 379 H 0.5 V 0.5"/><path style="fill:none;stroke:#f2f2f2;stroke-width:1" id="polyline108" d="M 0,0 H 45 V 380 H 0 V 0"/><g style="font-weight:400;font-size:9.33333302px;font-family:Comfortaa,sans-serif;letter-spacing:2.5px;fill:#333" id="text110" aria-label="XFADE" transform="rotate(-90)"><path style="font-weight:400;font-size:9.33333302px;font-family:Comfortaa,sans-serif;letter-spacing:2.5px;fill:#333" id="path247" d="m -369.90533,12.412 q 0.084,0.112 0.084,0.233333 0,0.149334 -0.0933,0.252 Q -370.008,13 -370.16667,13 q -0.18666,0 -0.28,-0.130667 L -372.67733,9.7800001 -374.95467,12.888 Q -375.048,13 -375.216,13 q -0.15867,0 -0.252,-0.09333 -0.0933,-0.102667 -0.0933,-0.242667 0,-0.14 0.084,-0.252 l 2.30533,-3.1359999 -2.156,-2.9959999 q -0.0747,-0.1213333 -0.0747,-0.224 0,-0.14 0.0933,-0.2426666 0.0933,-0.1026667 0.24266,-0.1026667 0.18667,0 0.28,0.1306667 l 2.11867,2.9306665 2.14667,-2.9306665 q 0.10266,-0.1306667 0.28,-0.1306667 0.14933,0 0.24266,0.112 0.0933,0.1026667 0.0933,0.2426667 0,0.1213333 -0.0653,0.2146666 l -2.20266,2.9866666 z"/><path style="font-weight:400;font-size:9.33333302px;font-family:Comfortaa,sans-serif;letter-spacing:2.5px;fill:#333" id="path249" d="m -366.18238,13 q -0.14933,0 -0.26133,-0.102667 -0.10267,-0.112 -0.10267,-0.261333 V 6.0746669 q 0,-0.1586667 0.10267,-0.2613333 0.112,-0.1026667 0.26133,-0.1026667 h 4.37734 q 0.15866,0 0.26133,0.1026667 0.10267,0.1026666 0.10267,0.252 0,0.1493333 -0.10267,0.252 -0.10267,0.093333 -0.26133,0.093333 h -4.01334 v 2.5759999 h 2.92134 q 0.15866,0 0.26133,0.1026667 0.10267,0.093333 0.10267,0.252 0,0.1493333 -0.10267,0.2519999 -0.10267,0.1026667 -0.26133,0.1026667 h -2.92134 V 12.636 q 0,0.149333 -0.10266,0.261333 Q -366.02371,13 -366.18238,13 Z"/><path style="font-weight:400;font-size:9.33333302px;font-family:Comfortaa,sans-serif;letter-spacing:2.5px;fill:#333" id="path251" d="m -353.27702,12.486667 q 0.0373,0.06533 0.0373,0.149333 0,0.149333 -0.112,0.261333 Q -353.45435,13 -353.60369,13 q -0.24266,0 -0.34533,-0.224 l -0.62533,-1.512 h -3.612 l -0.62534,1.512 q -0.0747,0.224 -0.336,0.224 -0.15866,0 -0.26133,-0.102667 -0.0933,-0.112 -0.0933,-0.261333 0,-0.09333 0.028,-0.158667 l 2.744,-6.5146661 q 0.10266,-0.252 0.35466,-0.252 0.252,0 0.34534,0.252 z m -1.54933,-1.848 -1.54934,-3.7426668 -1.54933,3.7426668 z"/><path style="font-weight:400;font-size:9.33333302px;font-family:Comfortaa,sans-serif;letter-spacing:2.5px;fill:#333" id="path253" d="m -349.31985,13 q -0.15867,0 -0.26134,-0.102667 -0.10266,-0.102666 -0.10266,-0.261333 V 6.0746669 q 0,-0.1586667 0.10266,-0.2613333 0.10267,-0.1026667 0.26134,-0.1026667 h 1.68 q 1.05466,0 1.88533,0.4666667 0.83067,0.4666666 1.288,1.2973333 0.46667,0.8213333 0.46667,1.8759999 0,1.0546662 -0.46667,1.8853332 -0.45733,0.830667 -1.288,1.297333 Q -346.58519,13 -347.63985,13 Z m 1.68,-0.653333 q 0.84933,0 1.512,-0.382667 0.66266,-0.392 1.036,-1.073333 0.37333,-0.681334 0.37333,-1.5400002 0,-0.8586666 -0.37333,-1.54 -0.37334,-0.6813333 -1.036,-1.0639999 -0.66267,-0.3826667 -1.512,-0.3826667 h -1.316 v 5.9826668 z"/><path style="font-weight:400;font-size:9.33333302px;font-family:Comfortaa,sans-serif;letter-spacing:2.5px;fill:#333" id="path255" d="m -339.63757,13 q -0.14933,0 -0.26133,-0.102667 -0.10267,-0.112 -0.10267,-0.261333 V 6.0746669 q 0,-0.1586667 0.10267,-0.2613333 0.112,-0.1026667 0.26133,-0.1026667 h 4.37734 q 0.15866,0 0.26133,0.1026667 0.10267,0.1026666 0.10267,0.252 0,0.1493333 -0.10267,0.252 -0.10267,0.093333 -0.26133,0.093333 h -4.01334 v 2.5759999 h 2.92134 q 0.15866,0 0.26133,0.1026667 0.10267,0.1026666 0.10267,0.252 0,0.1493333 -0.112,0.2519999 -0.10267,0.1026667 -0.252,0.1026667 h -2.92134 V 12.3 h 4.01334 q 0.15866,0 0.26133,0.102667 0.10267,0.09333 0.10267,0.242666 0,0.149334 -0.10267,0.252 Q -335.10157,13 -335.26023,13 Z"/></g><g id="g116" transform="rotate(-90,200.5,175.5)"><g style="font-weight:700;font-size:9.33333302px;font-family:Audiowide,sans-serif;letter-spacing:2px;fill:#333" id="text112" aria-label="BGA"><path style="font-weight:700;font-size:9.33333302px;font-family:Audiowide,sans-serif;letter-spacing:2px;fill:#333" id="path258" d="m 7.2096352,-1.4355468 q 0,0.21875 -0.077474,0.469401 -0.072917,0.25065103 -0.2460937,0.46484373 -0.1686198,0.2141927 -0.4420573,0.36002603 Q 6.1705727,0 5.7740883,0 H 1.2760416 Q 1.1484375,0 1.0390625,-0.04557292 0.92968747,-0.09114583 0.84765622,-0.16861979 q -0.077474,-0.0820312 -0.12304687,-0.19140624 -0.0455729,-0.109375 -0.0455729,-0.23697916 V -5.9381508 q 0,-0.1230469 0.0455729,-0.2324219 0.0455729,-0.109375 0.12304687,-0.1914062 0.0820313,-0.082031 0.19140628,-0.1276042 0.109375,-0.045573 0.2369791,-0.045573 h 3.9648436 q 0.21875,0 0.4694011,0.077474 0.250651,0.077474 0.4648437,0.2506511 0.21875,0.1686197 0.360026,0.4420572 0.1458334,0.2734375 0.1458334,0.6699219 v 0.2233073 q 0,0.3144531 -0.1048177,0.6790364 -0.1048178,0.360026 -0.3372396,0.6835937 0.2005208,0.1230469 0.3736979,0.296224 0.1777344,0.1731771 0.3098958,0.4010416 0.1321615,0.2278646 0.2096354,0.514974 0.077474,0.2871093 0.077474,0.6334635 z M 6.0247394,-1.6634114 q 0,-0.2324219 -0.072917,-0.4147135 Q 5.878906,-2.2649739 5.7467446,-2.3971353 5.6145831,-2.5292968 5.4277342,-2.5976562 5.2408852,-2.6705728 5.0084634,-2.6705728 H 2.3378905 v -1.1940104 h 2.1373698 q 0.2324218,0 0.4192708,-0.068359 0.1868489,-0.072917 0.3190104,-0.2050781 0.1321614,-0.1321614 0.2005208,-0.3144531 0.072917,-0.186849 0.072917,-0.4192708 v -0.2233073 q 0,-0.2552083 -0.2460938,-0.2552083 h -3.376953 v 4.1653644 h 3.9101561 q 0.031901,0 0.077474,-0.00456 0.045573,-0.00456 0.082031,-0.027344 0.036458,-0.022787 0.063802,-0.077474 0.027344,-0.054687 0.027344,-0.1503906 z"/><path style="font-weight:700;font-size:9.33333302px;font-family:Audiowide,sans-serif;letter-spacing:2px;fill:#333" id="path260" d="m 16.683594,-0.59700519 q 0,0.12760416 -0.04557,0.23697916 -0.04557,0.109375 -0.127605,0.19140624 -0.07747,0.07747396 -0.186849,0.12304687 Q 16.214192,0 16.086588,0 h -4.274739 q -0.164063,0 -0.355469,-0.03645833 -0.186849,-0.04101563 -0.373698,-0.12304687 -0.182291,-0.0820313 -0.350911,-0.20963541 -0.16862,-0.13216146 -0.300781,-0.31445312 -0.127605,-0.18684895 -0.205079,-0.42838537 -0.07747,-0.2460938 -0.07747,-0.5514323 v -3.2083332 q 0,-0.1640625 0.03646,-0.3509115 0.04101,-0.1914062 0.123047,-0.3736979 0.08203,-0.1868489 0.214192,-0.3554687 0.132162,-0.1686198 0.314453,-0.296224 0.186849,-0.1321614 0.428386,-0.2096354 0.241536,-0.077474 0.546875,-0.077474 h 4.817057 v 1.1848958 h -4.817057 q -0.232422,0 -0.355469,0.1230468 -0.123047,0.1230469 -0.123047,0.3645834 v 3.1992186 q 0,0.2278646 0.123047,0.3554687 0.127604,0.1230469 0.355469,0.1230469 h 3.686849 v -1.485677 h -3.153646 v -1.1940104 h 3.741536 q 0.127604,0 0.236979,0.05013 0.109375,0.045573 0.186849,0.1276042 0.08203,0.082031 0.127605,0.1914062 0.04557,0.1048177 0.04557,0.2278646 z"/><path style="font-weight:700;font-size:9.33333302px;font-family:Audiowide,sans-serif;letter-spacing:2px;fill:#333" id="path262" d="M 26.339842,0 H 25.154946 V -1.6041666 H 20.989582 V 0 h -1.184896 v -3.267578 q 0,-0.7154948 0.246094,-1.3170573 0.246094,-0.6015624 0.683594,-1.0345051 0.4375,-0.4329427 1.034505,-0.6744792 0.597005,-0.2415364 1.303385,-0.2415364 h 2.670573 q 0.123047,0 0.232422,0.045573 0.109375,0.045573 0.191406,0.1276042 0.08203,0.082031 0.127604,0.1914062 0.04557,0.109375 0.04557,0.2324219 z m -5.35026,-2.7890624 h 4.165364 v -2.5611978 h -2.082682 q -0.05469,0 -0.232422,0.018229 -0.173177,0.013672 -0.405599,0.077474 -0.227864,0.063802 -0.483072,0.1959635 -0.255209,0.1321615 -0.469402,0.3645833 -0.214192,0.2324219 -0.355468,0.5833334 -0.136719,0.3463541 -0.136719,0.8430989 z"/></g><path style="fill:#ddd" id="rect114" d="M 0,0 H 3 V 3 H 0 Z" transform="translate(11.5,-5)"/></g><g style="font-weight:700;font-size:8px;font-family:Roboto,sans-serif;letter-spacing:1px;fill:#333" id="text120" aria-label="MIX"><path style="font-weight:700;font-size:8px;font-family:Roboto,sans-serif;letter-spacing:1px;fill:#333" id="path266" d="m 16.039062,19.3125 1.460938,4.125 1.453125,-4.125 h 1.539062 V 25 H 19.316406 V 23.445312 L 19.433594,20.761719 17.898437,25 H 17.09375 l -1.53125,-4.234375 0.117188,2.679687 V 25 h -1.171875 v -5.6875 z"/><path style="font-weight:700;font-size:8px;font-family:Roboto,sans-serif;letter-spacing:1px;fill:#333" id="path268" d="m 23.769531,25 h -1.171875 v -5.6875 h 1.171875 z"/><path style="font-weight:700;font-size:8px;font-family:Roboto,sans-serif;letter-spacing:1px;fill:#333" id="path270" d="M 27.949219,21.273437 29.015625,19.3125 h 1.347656 L 28.707031,22.132812 30.40625,25 H 29.042969 L 27.949219,23.007812 26.855469,25 h -1.363282 l 1.699219,-2.867188 -1.65625,-2.820312 h 1.347656 z"/></g><g id="use122" transform="translate(0,28)"><g id="g243" transform="translate(22.5,22.5)"><g style="font-weight:700;font-size:6.66666651px;font-family:Roboto,sans-serif;fill:#333" id="text221" aria-label="A" transform="translate(-12,19.320508)"><path style="font-weight:700;font-size:6.66666651px;font-family:Roboto,sans-serif;fill:#333" id="path273" d="M 3.0989583,-0.97656248 H 1.3867187 L 1.0611979,0 H 0.02278646 L 1.7871093,-4.7395832 H 2.6920572 L 4.4661457,0 H 3.4277343 Z M 1.6503906,-1.7675781 H 2.8352864 L 2.2395833,-3.5416666 Z"/></g><path style="stroke:#333;stroke-width:.30000001" id="polyline223" d="M 0,0 H 2.5" transform="rotate(150,-8.5,2.2775681)"/><path style="stroke:#333;stroke-width:.30000001" id="polyline225" d="M 0,0 H 2.5" transform="rotate(-180,-8.5,0)"/><path style="stroke:#333;stroke-width:.30000001" id="polyline227" d="M 0,0 H 2.5" transform="rotate(-150,-8.5,-2.2775681)"/><path style="stroke:#333;stroke-width:.30000001" id="polyline229" d="M 0,0 H 2.5" transform="rotate(-120,-8.5,-4.9074773)"/><path style="stroke:#333;stroke-width:1" id="polyline231" d="M 0,0 H 3.5" transform="rotate(-90,-8.5,-8.5)"/><path style="stroke:#333;stroke-width:.30000001" id="polyline233" d="M 0,0 H 2.5" transform="rotate(-60,-8.5,-14.722432)"/><path style="stroke:#333;stroke-width:.30000001" id="polyline235" d="M 0,0 H 2.5" transform="rotate(-30,-8.5,-31.722432)"/><path style="stroke:#333;stroke-width:.30000001" id="polyline237" d="M 0,0 H 2.5" transform="translate(17)"/><path style="stroke:#333;stroke-width:.30000001" id="polyline239" d="M 0,0 H 2.5" transform="rotate(30,-8.5,31.722432)"/><g style="font-weight:700;font-size:6.66666651px;font-family:Roboto,sans-serif;fill:#333" id="text241" aria-label="B" transform="translate(8,19.320508)"><path style="font-weight:700;font-size:6.66666651px;font-family:Roboto,sans-serif;fill:#333" id="path285" d="M 0.42317707,0 V -4.7395832 H 2.0833333 q 0.8626302,0 1.3085937,0.3320312 0.4459635,0.3287761 0.4459635,0.9667969 0,0.3483073 -0.1790364,0.6152343 -0.1790365,0.2636719 -0.4980469,0.3873698 0.3645833,0.091146 0.5729167,0.3678385 0.2115885,0.2766928 0.2115885,0.6770834 0,0.6835937 -0.4361979,1.03515619 Q 3.0729166,-0.00651042 2.2656249,0 Z M 1.3997395,-2.063802 v 1.27929681 h 0.8365886 q 0.345052,0 0.5371093,-0.16276041 0.1953125,-0.1660156 0.1953125,-0.4557292 0,-0.6510416 -0.6738281,-0.6608072 z m 0,-0.6901042 h 0.7226563 q 0.7389323,-0.013021 0.7389323,-0.5891927 0,-0.3222656 -0.1888021,-0.4622396 Q 2.4869791,-3.9485676 2.0833333,-3.9485676 H 1.3997395 Z"/></g></g></g><g id="g128" transform="translate(5.5,74)"><path style="fill:#fafafa" id="rect124" d="m 5,0 h 24 c 2.77,0 5,2.23 5,5 v 28 c 0,2.77 -2.23,5 -5,5 H 5 C 2.23,38 0,35.77 0,33 V 5 C 0,2.23 2.23,0 5,0 Z"/><g style="font-weight:700;font-size:6.66666651px;font-family:Roboto,sans-serif;letter-spacing:2px;fill:#333" id="text126" aria-label="CV" transform="translate(11,35)"><path style="font-weight:700;font-size:6.66666651px;font-family:Roboto,sans-serif;letter-spacing:2px;fill:#333" id="path289" d="m 4.1438801,-1.578776 q -0.055338,0.76497394 -0.5664062,1.20442705 -0.5078125,0.43945312 -1.3411458,0.43945312 -0.9114583,0 -1.43554687,-0.61197916 Q 0.27994791,-1.1621093 0.27994791,-2.2330729 v -0.2897135 q 0,-0.6835937 0.24088541,-1.2044271 0.24088541,-0.5208333 0.68684898,-0.797526 0.4492187,-0.2799479 1.0416666,-0.2799479 0.8203125,0 1.3216146,0.4394531 0.501302,0.4394531 0.579427,1.233724 H 3.173828 q -0.035807,-0.4589844 -0.2571614,-0.6640625 -0.218099,-0.2083334 -0.6673177,-0.2083334 -0.4882812,0 -0.7324219,0.3515625 -0.2408854,0.3483073 -0.2473958,1.0839844 v 0.3580729 q 0,0.7682291 0.2311198,1.1230468 0.234375,0.35481774 0.7356771,0.35481774 0.4524739,0 0.6738281,-0.20507812 Q 3.1347656,-1.1458333 3.1673176,-1.578776 Z"/><path style="font-weight:700;font-size:6.66666651px;font-family:Roboto,sans-serif;letter-spacing:2px;fill:#333" id="path291" d="m 8.5364581,-1.1751302 1.0742187,-3.564453 H 10.697916 L 9.0475258,0 H 8.0286456 L 6.3847655,-4.7395832 h 1.0839843 z"/></g></g><g style="font-weight:700;font-size:8px;font-family:Roboto,sans-serif;letter-spacing:1px;fill:#333" id="text132" aria-label="SHAPE"><path style="font-weight:700;font-size:8px;font-family:Roboto,sans-serif;letter-spacing:1px;fill:#333" id="path294" d="m 10.957031,129.50781 q 0,-0.33203 -0.234375,-0.50781 -0.234375,-0.17969 -0.8437497,-0.375 -0.609375,-0.19922 -0.9648438,-0.39063 -0.96875,-0.52343 -0.96875,-1.41015 0,-0.46094 0.2578125,-0.82031 0.2617188,-0.36328 0.7460938,-0.56641 0.4882812,-0.20312 1.0937502,-0.20312 0.609375,0 1.085937,0.22265 0.476563,0.21875 0.738282,0.6211 0.265625,0.40234 0.265625,0.91406 h -1.171875 q 0,-0.39063 -0.246094,-0.60547 -0.246094,-0.21875 -0.691406,-0.21875 -0.429688,0 -0.6679692,0.18359 -0.2382813,0.17969 -0.2382813,0.47657 0,0.27734 0.2773438,0.46484 0.28125,0.1875 0.8242187,0.35156 1,0.30078 1.457031,0.74609 0.457032,0.44532 0.457032,1.10938 0,0.73828 -0.558594,1.16016 -0.558594,0.41796 -1.503906,0.41796 -0.6562505,0 -1.195313,-0.23828 -0.5390625,-0.24218 -0.8242187,-0.66015 -0.2812501,-0.41797 -0.2812501,-0.96875 h 1.1757813 q 0,0.9414 1.1250005,0.9414 0.417968,0 0.652343,-0.16797 0.234375,-0.17187 0.234375,-0.47656 z"/><path style="font-weight:700;font-size:8px;font-family:Roboto,sans-serif;letter-spacing:1px;fill:#333" id="path296" d="m 18.558594,131 h -1.171875 v -2.4375 H 15.101563 V 131 h -1.171875 v -5.6875 h 1.171875 v 2.30469 h 2.285156 v -2.30469 h 1.171875 z"/><path style="font-weight:700;font-size:8px;font-family:Roboto,sans-serif;letter-spacing:1px;fill:#333" id="path298" d="M 23.875,129.82812 H 21.820312 L 21.429687,131 h -1.246093 l 2.117187,-5.6875 h 1.085938 L 25.515625,131 h -1.246094 z m -1.738281,-0.94921 h 1.421875 L 22.84375,126.75 Z"/><path style="font-weight:700;font-size:8px;font-family:Roboto,sans-serif;letter-spacing:1px;fill:#333" id="path300" d="M 28.226562,128.99609 V 131 h -1.171875 v -5.6875 h 2.21875 q 0.640625,0 1.125,0.23438 0.488282,0.23437 0.75,0.66796 0.261719,0.42969 0.261719,0.98047 0,0.83594 -0.574219,1.32031 -0.570312,0.48047 -1.582031,0.48047 z m 0,-0.94922 h 1.046875 q 0.464844,0 0.707032,-0.21874 0.246093,-0.21875 0.246093,-0.625 0,-0.41797 -0.246093,-0.67579 -0.246094,-0.25781 -0.679688,-0.26562 h -1.074219 z"/><path style="font-weight:700;font-size:8px;font-family:Roboto,sans-serif;letter-spacing:1px;fill:#333" id="path302" d="m 36.632812,128.53516 h -2.25 v 1.52343 h 2.640625 V 131 h -3.8125 v -5.6875 h 3.804688 v 0.94922 h -2.632813 v 1.35547 h 2.25 z"/></g><g id="use134" transform="translate(0,134)"><g id="g217" transform="translate(22.5,22.5)"><path style="stroke:#333;stroke-width:1" id="polyline189" d="M 0,0 H 2" transform="rotate(-180,-4.75,0)"/><g id="g195" transform="translate(-18.5,-2.5)"><path style="fill:none;stroke:#333;stroke-width:1;stroke-linecap:round" id="polyline191" d="M 0,0 2.5,5"/><path style="fill:none;stroke:#333;stroke-width:1;stroke-linecap:round" id="polyline193" d="M 5,0 2.5,5"/></g><path style="stroke:#333;stroke-width:.30000001" id="polyline197" d="M 0,0 H 2" transform="rotate(-135,-4.75,-1.9675144)"/><path style="stroke:#333;stroke-width:1" id="polyline199" d="M 0,0 H 2" transform="rotate(-90,-4.75,-4.75)"/><g id="g205" transform="translate(-2.5,-18.5)"><path style="fill:none;stroke:#333;stroke-width:1;stroke-linecap:round" id="polyline201" d="M 0,0 5,5"/><path style="fill:none;stroke:#333;stroke-width:1;stroke-linecap:round" id="polyline203" d="M 5,0 0,5"/></g><path style="stroke:#333;stroke-width:.30000001" id="polyline207" d="M 0,0 H 2" transform="rotate(-45,-4.75,-11.467514)"/><path style="stroke:#333;stroke-width:1" id="polyline209" d="M 0,0 H 2" transform="translate(9.5)"/><g id="g215" transform="translate(13.5,-2.5)"><path style="fill:none;stroke:#333;stroke-width:1;stroke-linecap:round" id="polyline211" d="M 2.5,0 5,5"/><path style="fill:none;stroke:#333;stroke-width:1;stroke-linecap:round" id="polyline213" d="M 2.5,0 0,5"/></g></g></g><g style="font-weight:700;font-size:6.66666651px;font-family:Roboto,sans-serif;letter-spacing:1px;fill:#333" id="text138" aria-label="LIN"><path style="font-weight:700;font-size:6.66666651px;font-family:Roboto,sans-serif;letter-spacing:1px;fill:#333" id="path316" d="m 16.099739,183.21549 h 2.073568 V 184 h -3.05013 v -4.73958 h 0.976562 z"/><path style="font-weight:700;font-size:6.66666651px;font-family:Roboto,sans-serif;letter-spacing:1px;fill:#333" id="path318" d="m 20.768359,184 h -0.976563 v -4.73958 h 0.976563 z"/><path style="font-weight:700;font-size:6.66666651px;font-family:Roboto,sans-serif;letter-spacing:1px;fill:#333" id="path320" d="m 26.524218,184 h -0.976562 l -1.901042,-3.11849 V 184 h -0.976562 v -4.73958 h 0.976562 l 1.904297,3.125 v -3.125 h 0.973307 z"/></g><g id="g150" transform="translate(5.5,210)"><path style="fill:#fafafa" id="rect142" d="M 0,0 H 34 V 10 H 0 Z" transform="translate(0,63)"/><path style="fill:#fafafa" id="rect144" d="m 5,0 h 24 c 2.77,0 5,2.23 5,5 v 60 c 0,2.77 -2.23,5 -5,5 H 5 C 2.23,70 0,67.77 0,65 V 5 C 0,2.23 2.23,0 5,0 Z"/><g style="font-weight:700;font-size:6.66666651px;font-family:Roboto,sans-serif;letter-spacing:2px;fill:#333" id="text146" aria-label="A" transform="translate(15,35)"><path style="font-weight:700;font-size:6.66666651px;font-family:Roboto,sans-serif;letter-spacing:2px;fill:#333" id="path325" d="M 3.0989583,-0.97656248 H 1.3867187 L 1.0611979,0 H 0.02278646 L 1.7871093,-4.7395832 H 2.6920572 L 4.4661457,0 H 3.4277343 Z M 1.6503906,-1.7675781 H 2.8352864 L 2.2395833,-3.5416666 Z"/></g><g style="font-weight:700;font-size:6.66666651px;font-family:Roboto,sans-serif;letter-spacing:2px;fill:#333" id="text148" aria-label="B" transform="translate(15,70)"><path style="font-weight:700;font-size:6.66666651px;font-family:Roboto,sans-serif;letter-spacing:2px;fill:#333" id="path328" d="M 0.42317707,0 V -4.7395832 H 2.0833333 q 0.8626302,0 1.3085937,0.3320312 0.4459635,0.3287761 0.4459635,0.9667969 0,0.3483073 -0.1790364,0.6152343 -0.1790365,0.2636719 -0.4980469,0.3873698 0.3645833,0.091146 0.5729167,0.3678385 0.2115885,0.2766928 0.2115885,0.6770834 0,0.6835937 -0.4361979,1.03515619 Q 3.0729166,-0.00651042 2.2656249,0 Z M 1.3997395,-2.063802 v 1.27929681 h 0.8365886 q 0.345052,0 0.5371093,-0.16276041 0.1953125,-0.1660156 0.1953125,-0.4557292 0,-0.6510416 -0.6738281,-0.6608072 z m 0,-0.6901042 h 0.7226563 q 0.7389323,-0.013021 0.7389323,-0.5891927 0,-0.3222656 -0.1888021,-0.4622396 Q 2.4869791,-3.9485676 2.0833333,-3.9485676 H 1.3997395 Z"/></g></g><g id="g158" transform="translate(5.5,286)"><path style="fill:#bbb" id="rect152" d="M 0,0 H 34 V 10 H 0 Z" transform="translate(0,-3)"/><path style="fill:#bbb" id="rect154" d="m 5,0 h 24 c 2.77,0 5,2.23 5,5 v 25 c 0,2.77 -2.23,5 -5,5 H 5 C 2.23,35 0,32.77 0,30 V 5 C 0,2.23 2.23,0 5,0 Z"/><g style="font-weight:700;font-size:6.66666651px;font-family:Roboto,sans-serif;letter-spacing:2px;fill:#333" id="text156" aria-label="MIX" transform="translate(8.3,32)"><path style="font-weight:700;font-size:6.66666651px;font-family:Roboto,sans-serif;letter-spacing:2px;fill:#333" id="path333" d="m 1.6992187,-4.7395832 1.2174479,3.4374999 1.2109375,-3.4374999 h 1.282552 V 0 H 4.4303384 V -1.2955729 L 4.5279947,-3.531901 3.2486978,0 H 2.5781249 l -1.2760416,-3.5286457 0.097656,2.2330728 V 0 H 0.42317707 v -4.7395832 z"/><path style="font-weight:700;font-size:6.66666651px;font-family:Roboto,sans-serif;letter-spacing:2px;fill:#333" id="path335" d="M 9.3079425,0 H 8.33138 v -4.7395832 h 0.9765625 z"/><path style="font-weight:700;font-size:6.66666651px;font-family:Roboto,sans-serif;letter-spacing:2px;fill:#333" id="path337" d="m 13.957682,-3.1054687 0.888671,-1.6341145 H 15.9694 L 14.589192,-2.3893229 16.005208,0 H 14.86914 L 13.957682,-1.6601562 13.046223,0 h -1.136067 l 1.416015,-2.3893229 -1.380208,-2.3502603 h 1.123047 z"/></g></g></svg>