<svg xmlns="http://www.w3.org/2000/svg" xmlns:svg="http://www.w3.org/2000/svg" id="svg873" width="50" height="50" version="1.1" viewBox="0 0 13.229 13.229"><metadata id="metadata870"/><g id="layer1" transform="translate(0,-283.77083)"><path style="fill:#147cc0;fill-opacity:1;stroke:none;stroke-width:.06128326;stroke-miterlimit:4;stroke-dasharray:none;stroke-dashoffset:0;stroke-opacity:1" id="rect818" d="M 0.86300599,289.04326 H 12.331426 v 2.54581 H 0.86300599 Z"/><path style="fill:#147cc0;fill-opacity:1;stroke:none;stroke-width:.10600913;stroke-miterlimit:4;stroke-dasharray:none;stroke-dashoffset:0;stroke-opacity:1" id="ellipse820" d="m 12.33271,291.58632 a 5.7443254,2.2583117 0 0 1 -5.7443256,2.25831 5.7443254,2.2583117 0 0 1 -5.7443253,-2.25831 5.7443254,2.2583117 0 0 1 5.7443253,-2.25831 5.7443254,2.2583117 0 0 1 5.7443256,2.25831 z"/><path style="fill:#147cc0;fill-opacity:1;stroke:none;stroke-width:.10600913;stroke-miterlimit:4;stroke-dasharray:none;stroke-dashoffset:0;stroke-opacity:1" id="path1418" d="m 12.33271,289.3124 a 5.7443254,2.2583117 0 0 1 -5.7443256,2.25831 5.7443254,2.2583117 0 0 1 -5.7443253,-2.25831 5.7443254,2.2583117 0 0 1 5.7443253,-2.25831 5.7443254,2.2583117 0 0 1 5.7443256,2.25831 z"/><path style="fill:#1423c0;fill-opacity:1;stroke:none;stroke-width:.02697146;stroke-miterlimit:4;stroke-dasharray:none;stroke-dashoffset:0;stroke-opacity:1" id="ellipse1424" d="m 11.015993,289.34194 a 4.4830923,1.453452 0 0 1 -4.4830934,1.45345 4.4830923,1.453452 0 0 1 -4.4830919,-1.45345 4.4830923,1.453452 0 0 1 4.4830919,-1.45346 4.4830923,1.453452 0 0 1 4.4830934,1.45346 z"/><path style="fill:#9e6c36;fill-opacity:1;stroke:none;stroke-width:.09145167;stroke-miterlimit:4;stroke-dasharray:none;stroke-dashoffset:0;stroke-opacity:1" id="ellipse814" d="m 4.4040569,288.95802 a 1.1308874,1.4239204 0 0 1 -1.1308874,1.42393 1.1308874,1.4239204 0 0 1 -1.1308874,-1.42393 1.1308874,1.4239204 0 0 1 1.1308874,-1.42391 1.1308874,1.4239204 0 0 1 1.1308874,1.42391 z"/><path style="fill:#9e6c36;fill-opacity:1;stroke:none;stroke-width:.09145167;stroke-miterlimit:4;stroke-dasharray:none;stroke-dashoffset:0;stroke-opacity:1" id="ellipse822" d="m 5.6062267,289.43053 a 1.1308874,1.4239204 0 0 1 -1.1308875,1.42392 1.1308874,1.4239204 0 0 1 -1.1308875,-1.42392 1.1308874,1.4239204 0 0 1 1.1308875,-1.42392 1.1308874,1.4239204 0 0 1 1.1308875,1.42392 z"/><path style="fill:#9e6c36;fill-opacity:1;stroke:none;stroke-width:.09145167;stroke-miterlimit:4;stroke-dasharray:none;stroke-dashoffset:0;stroke-opacity:1" id="ellipse824" d="m 6.7159216,289.72584 a 1.1308874,1.4239204 0 0 1 -1.1308867,1.42392 1.1308874,1.4239204 0 0 1 -1.1308878,-1.42392 1.1308874,1.4239204 0 0 1 1.1308878,-1.42392 1.1308874,1.4239204 0 0 1 1.1308867,1.42392 z"/><path style="fill:#9e6c36;fill-opacity:1;stroke:none;stroke-width:.09145167;stroke-miterlimit:4;stroke-dasharray:none;stroke-dashoffset:0;stroke-opacity:1" id="ellipse826" d="m 5.5599892,288.24927 a 1.1308874,1.4239204 0 0 1 -1.1308873,1.42392 1.1308874,1.4239204 0 0 1 -1.1308875,-1.42392 1.1308874,1.4239204 0 0 1 1.1308875,-1.42392 1.1308874,1.4239204 0 0 1 1.1308873,1.42392 z"/><path style="fill:#9e6c36;fill-opacity:1;stroke:none;stroke-width:.09145167;stroke-miterlimit:4;stroke-dasharray:none;stroke-dashoffset:0;stroke-opacity:1" id="ellipse828" d="m 6.8546338,288.24927 a 1.1308874,1.4239204 0 0 1 -1.1308875,1.42392 1.1308874,1.4239204 0 0 1 -1.1308874,-1.42392 1.1308874,1.4239204 0 0 1 1.1308874,-1.42392 1.1308874,1.4239204 0 0 1 1.1308875,1.42392 z"/><path style="fill:#9e6c36;fill-opacity:1;stroke:none;stroke-width:.09145167;stroke-miterlimit:4;stroke-dasharray:none;stroke-dashoffset:0;stroke-opacity:1" id="ellipse830" d="m 7.5019564,289.19428 a 1.1308874,1.4239204 0 0 1 -1.1308871,1.42392 1.1308874,1.4239204 0 0 1 -1.1308875,-1.42392 1.1308874,1.4239204 0 0 1 1.1308875,-1.42392 1.1308874,1.4239204 0 0 1 1.1308871,1.42392 z"/><path style="fill:#9e6c36;fill-opacity:1;stroke:none;stroke-width:.09145167;stroke-miterlimit:4;stroke-dasharray:none;stroke-dashoffset:0;stroke-opacity:1" id="ellipse832" d="m 8.0105661,289.60772 a 1.1308874,1.4239204 0 0 1 -1.1308875,1.42392 1.1308874,1.4239204 0 0 1 -1.1308874,-1.42392 1.1308874,1.4239204 0 0 1 1.1308874,-1.42392 1.1308874,1.4239204 0 0 1 1.1308875,1.42392 z"/><path style="fill:#9e6c36;fill-opacity:1;stroke:none;stroke-width:.09145167;stroke-miterlimit:4;stroke-dasharray:none;stroke-dashoffset:0;stroke-opacity:1" id="ellipse834" d="m 9.212737,289.60772 a 1.1308874,1.4239204 0 0 1 -1.1308879,1.42392 1.1308874,1.4239204 0 0 1 -1.1308874,-1.42392 1.1308874,1.4239204 0 0 1 1.1308874,-1.42392 1.1308874,1.4239204 0 0 1 1.1308879,1.42392 z"/><path style="fill:#9e6c36;fill-opacity:1;stroke:none;stroke-width:.09145167;stroke-miterlimit:4;stroke-dasharray:none;stroke-dashoffset:0;stroke-opacity:1" id="ellipse836" d="m 8.1955164,288.07208 a 1.1308874,1.4239204 0 0 1 -1.1308878,1.42392 1.1308874,1.4239204 0 0 1 -1.1308871,-1.42392 1.1308874,1.4239204 0 0 1 1.1308871,-1.42392 1.1308874,1.4239204 0 0 1 1.1308878,1.42392 z"/><path style="fill:#9e6c36;fill-opacity:1;stroke:none;stroke-width:.09145167;stroke-miterlimit:4;stroke-dasharray:none;stroke-dashoffset:0;stroke-opacity:1" id="ellipse838" d="m 9.4901623,288.30833 a 1.1308874,1.4239204 0 0 1 -1.130887,1.42393 1.1308874,1.4239204 0 0 1 -1.1308878,-1.42393 1.1308874,1.4239204 0 0 1 1.1308878,-1.42392 1.1308874,1.4239204 0 0 1 1.130887,1.42392 z"/><path style="fill:#9e6c36;fill-opacity:1;stroke:none;stroke-width:.09145167;stroke-miterlimit:4;stroke-dasharray:none;stroke-dashoffset:0;stroke-opacity:1" id="ellipse840" d="m 10.137485,289.37147 a 1.1308874,1.4239204 0 0 1 -1.1308872,1.42392 1.1308874,1.4239204 0 0 1 -1.1308881,-1.42392 1.1308874,1.4239204 0 0 1 1.1308881,-1.42392 1.1308874,1.4239204 0 0 1 1.1308872,1.42392 z"/><path style="fill:#9e6c36;fill-opacity:1;stroke:none;stroke-width:.09145167;stroke-miterlimit:4;stroke-dasharray:none;stroke-dashoffset:0;stroke-opacity:1" id="ellipse842" d="m 10.92352,288.89897 a 1.1308874,1.4239204 0 0 1 -1.1308882,1.42392 1.1308874,1.4239204 0 0 1 -1.1308872,-1.42392 1.1308874,1.4239204 0 0 1 1.1308872,-1.42393 1.1308874,1.4239204 0 0 1 1.1308882,1.42393 z"/></g></svg>