<svg xmlns="http://www.w3.org/2000/svg" xmlns:svg="http://www.w3.org/2000/svg" id="svg12553" width="50" height="50" version="1.1" viewBox="0 0 13.229 13.229"><defs id="defs12547"><clipPath id="clip82"><path id="path22604" d="m 979.55859,272.09375 h 26.63281 v 27.13281 h -26.63281 z m 0,0"/></clipPath><clipPath id="clip83"><path id="path22607" d="m 992,272.09375 h 2 V 287 h -2 z m 0,0"/></clipPath></defs><metadata id="metadata12550"/><g id="layer1" transform="translate(-26.543497,-248.61904)" style="display:inline"><path style="fill:none;fill-rule:evenodd;stroke:#000;stroke-width:2.48498106;stroke-miterlimit:4;stroke-dasharray:none" id="path890" d="m 32.298183,254.24144 c 0.427822,0.36481 -0.280684,0.75668 -0.606337,0.71107 -0.882501,-0.12361 -1.11021,-1.22329 -0.815797,-1.92375 0.526637,-1.25294 2.13143,-1.52239 3.241147,-0.92052 1.628553,0.88327 1.94561,3.05146 1.025256,4.55855 -1.226687,2.00872 -3.97565,2.37345 -5.875956,1.12999 -2.39134,-1.56477 -2.803659,-4.90182 -1.234715,-7.19336 1.900201,-2.77538 5.829082,-3.23525 8.510764,-1.33945 3.16027,2.23414 3.667697,6.75704 1.444176,9.82817 -2.567144,3.54574 -7.685462,4.10072 -11.145574,1.5489 -3.9316,-2.89953 -4.53415,-8.6142 -1.653635,-12.46297 3.231502,-4.31775 9.543185,-4.96787 13.780383,-1.75837 4.704093,3.56316 5.401808,10.47234 1.863094,15.09779" transform="matrix(-0.20578633,0,0,-0.22035467,40.066758,310.5912)"/></g><g id="layer2" transform="translate(0,-87.312497)" style="display:none"><g style="display:inline" id="layer1-2" transform="translate(-30.721508,-88.352582)"><path style="clip-rule:nonzero;fill:#fff;fill-opacity:1;fill-rule:nonzero;stroke:#1996fc;stroke-width:.22979134;stroke-opacity:1" id="path28547" d="m 42.964642,111.86853 c -0.377046,1.64612 -2.018011,2.67649 -3.665272,2.29953 -1.647259,-0.37694 -2.67691,-2.01771 -2.299879,-3.66472 0.377029,-1.64702 2.018005,-2.67649 3.665265,-2.29955 1.647252,0.37697 2.676013,2.01772 2.299886,3.66474"/><path style="clip-rule:nonzero;fill:#fff;fill-opacity:1;fill-rule:nonzero;stroke:#1996fc;stroke-width:.22979134;stroke-opacity:1" id="path28549" d="m 42.964644,111.86796 c -0.377046,1.64611 -2.018012,2.67651 -3.665273,2.29955 -1.647257,-0.37698 -2.67691,-2.01772 -2.299878,-3.66473 0.377029,-1.64702 2.018005,-2.67651 3.665264,-2.29953 1.647253,0.37696 2.676015,2.01769 2.299887,3.66471"/><g style="clip-rule:nonzero;stroke:#1996fc;stroke-opacity:1" id="g28555" clip-path="url(#clip83)" transform="matrix(0.22980834,0,0,0.22977429,-188.18936,45.490677)"><path id="path28553" d="M -0.0011146,-0.0015175 V 13.314889" transform="translate(992.87612,272.59527)" style="fill:none;stroke:#1996fc;stroke-width:1;stroke-linecap:round;stroke-linejoin:round;stroke-miterlimit:10;stroke-opacity:1"/></g></g><g style="display:inline" id="g2008" transform="translate(-30.721508,-76.525903)"><path id="path2000" d="m 42.964642,111.86853 c -0.377046,1.64612 -2.018011,2.67649 -3.665272,2.29953 -1.647259,-0.37694 -2.67691,-2.01771 -2.299879,-3.66472 0.377029,-1.64702 2.018005,-2.67649 3.665265,-2.29955 1.647252,0.37697 2.676013,2.01772 2.299886,3.66474" style="clip-rule:nonzero;fill:#fff;fill-opacity:1;fill-rule:nonzero;stroke:#1996fc;stroke-width:.22979134;stroke-opacity:1"/><path id="path2002" d="m 42.964644,111.86796 c -0.377046,1.64611 -2.018012,2.67651 -3.665273,2.29955 -1.647257,-0.37698 -2.67691,-2.01772 -2.299878,-3.66473 0.377029,-1.64702 2.018005,-2.67651 3.665264,-2.29953 1.647253,0.37696 2.676015,2.01769 2.299887,3.66471" style="clip-rule:nonzero;fill:#fff;fill-opacity:1;fill-rule:nonzero;stroke:#1996fc;stroke-width:.22979134;stroke-opacity:1"/><g id="g2006" clip-path="url(#clip83)" transform="matrix(0.22980834,0,0,0.22977429,-188.18936,45.490677)" style="clip-rule:nonzero;stroke:#1996fc;stroke-opacity:1"><path style="fill:none;stroke:#1996fc;stroke-width:1;stroke-linecap:round;stroke-linejoin:round;stroke-miterlimit:10;stroke-opacity:1" id="path2004" d="M -0.0011146,-0.0015175 V 13.314889" transform="translate(992.87612,272.59527)"/></g></g><g style="display:inline" id="g2026" transform="translate(-30.721508,-64.699227)"><path style="clip-rule:nonzero;fill:#fff;fill-opacity:1;fill-rule:nonzero;stroke:#1996fc;stroke-width:.22979134;stroke-opacity:1" id="path2018" d="m 42.964642,111.86853 c -0.377046,1.64612 -2.018011,2.67649 -3.665272,2.29953 -1.647259,-0.37694 -2.67691,-2.01771 -2.299879,-3.66472 0.377029,-1.64702 2.018005,-2.67649 3.665265,-2.29955 1.647252,0.37697 2.676013,2.01772 2.299886,3.66474"/><path style="clip-rule:nonzero;fill:#fff;fill-opacity:1;fill-rule:nonzero;stroke:#1996fc;stroke-width:.22979134;stroke-opacity:1" id="path2020" d="m 42.964644,111.86796 c -0.377046,1.64611 -2.018012,2.67651 -3.665273,2.29955 -1.647257,-0.37698 -2.67691,-2.01772 -2.299878,-3.66473 0.377029,-1.64702 2.018005,-2.67651 3.665264,-2.29953 1.647253,0.37696 2.676015,2.01769 2.299887,3.66471"/><g style="clip-rule:nonzero;stroke:#1996fc;stroke-opacity:1" id="g2024" clip-path="url(#clip83)" transform="matrix(0.22980834,0,0,0.22977429,-188.18936,45.490677)"><path id="path2022" d="M -0.0011146,-0.0015175 V 13.314889" transform="translate(992.87612,272.59527)" style="fill:none;stroke:#1996fc;stroke-width:1;stroke-linecap:round;stroke-linejoin:round;stroke-miterlimit:10;stroke-opacity:1"/></g></g><g style="display:inline" id="g2044" transform="translate(-30.721508,-52.872551)"><path id="path2036" d="m 42.964642,111.86853 c -0.377046,1.64612 -2.018011,2.67649 -3.665272,2.29953 -1.647259,-0.37694 -2.67691,-2.01771 -2.299879,-3.66472 0.377029,-1.64702 2.018005,-2.67649 3.665265,-2.29955 1.647252,0.37697 2.676013,2.01772 2.299886,3.66474" style="clip-rule:nonzero;fill:#fff;fill-opacity:1;fill-rule:nonzero;stroke:#1996fc;stroke-width:.22979134;stroke-opacity:1"/><path id="path2038" d="m 42.964644,111.86796 c -0.377046,1.64611 -2.018012,2.67651 -3.665273,2.29955 -1.647257,-0.37698 -2.67691,-2.01772 -2.299878,-3.66473 0.377029,-1.64702 2.018005,-2.67651 3.665264,-2.29953 1.647253,0.37696 2.676015,2.01769 2.299887,3.66471" style="clip-rule:nonzero;fill:#fff;fill-opacity:1;fill-rule:nonzero;stroke:#1996fc;stroke-width:.22979134;stroke-opacity:1"/><g id="g2042" clip-path="url(#clip83)" transform="matrix(0.22980834,0,0,0.22977429,-188.18936,45.490677)" style="clip-rule:nonzero;stroke:#1996fc;stroke-opacity:1"><path style="fill:none;stroke:#1996fc;stroke-width:1;stroke-linecap:round;stroke-linejoin:round;stroke-miterlimit:10;stroke-opacity:1" id="path2040" d="M -0.0011146,-0.0015175 V 13.314889" transform="translate(992.87612,272.59527)"/></g></g><g style="display:inline" id="layer1-1" transform="translate(-112.31064,2.35821)"><g id="g3088" transform="matrix(0.27191367,0,0,-0.27191367,41.843143,587.85632)"><path id="path4639" d="m 288.34518,1844.2559 c -3.75572,0 -6.81129,3.0554 -6.81129,6.811 0,3.7555 3.05557,6.8116 6.81129,6.8116 3.75573,0 6.81129,-3.0561 6.81129,-6.8116 0,-3.7556 -3.05556,-6.811 -6.81129,-6.811" style="opacity:1;vector-effect:none;fill:#e7e7e7;fill-opacity:1;fill-rule:nonzero;stroke:#909290;stroke-width:.97304165;stroke-linecap:butt;stroke-linejoin:miter;stroke-miterlimit:4;stroke-dasharray:none;stroke-dashoffset:0;stroke-opacity:1"/><path id="path4647" d="m 288.34518,1846.1618 c -2.70459,0 -4.90526,2.2006 -4.90526,4.9051 0,2.7051 2.20067,4.9056 4.90526,4.9056 2.7046,0 4.90526,-2.2005 4.90526,-4.9056 0,-2.7045 -2.20066,-4.9051 -4.90526,-4.9051" style="fill:#e7e7e7;fill-opacity:1;fill-rule:nonzero;stroke:#909290;stroke-width:.97304165;stroke-miterlimit:4;stroke-dasharray:none;stroke-opacity:1"/><path id="path4655" d="m 291.37021,1851.0672 c 0,-1.67 -1.35466,-3.0252 -3.02532,-3.0252 -1.67007,0 -3.02474,1.3552 -3.02474,3.0252 0,1.6699 1.35467,3.0252 3.02474,3.0252 1.67066,0 3.02532,-1.3553 3.02532,-3.0252" style="opacity:1;vector-effect:none;fill:#000;fill-opacity:1;fill-rule:nonzero;stroke:#909290;stroke-width:.97304165;stroke-linecap:butt;stroke-linejoin:miter;stroke-miterlimit:4;stroke-dasharray:none;stroke-dashoffset:0;stroke-opacity:1"/></g></g><g style="display:inline" id="g1825" transform="translate(-112.31064,-4.991697)"><g id="g1823" transform="matrix(0.27191367,0,0,-0.27191367,41.843143,587.85632)"><path style="opacity:1;vector-effect:none;fill:#e7e7e7;fill-opacity:1;fill-rule:nonzero;stroke:#909290;stroke-width:.97304165;stroke-linecap:butt;stroke-linejoin:miter;stroke-miterlimit:4;stroke-dasharray:none;stroke-dashoffset:0;stroke-opacity:1" id="path1817" d="m 288.34518,1844.2559 c -3.75572,0 -6.81129,3.0554 -6.81129,6.811 0,3.7555 3.05557,6.8116 6.81129,6.8116 3.75573,0 6.81129,-3.0561 6.81129,-6.8116 0,-3.7556 -3.05556,-6.811 -6.81129,-6.811"/><path style="fill:#e7e7e7;fill-opacity:1;fill-rule:nonzero;stroke:#909290;stroke-width:.97304165;stroke-miterlimit:4;stroke-dasharray:none;stroke-opacity:1" id="path1819" d="m 288.34518,1846.1618 c -2.70459,0 -4.90526,2.2006 -4.90526,4.9051 0,2.7051 2.20067,4.9056 4.90526,4.9056 2.7046,0 4.90526,-2.2005 4.90526,-4.9056 0,-2.7045 -2.20066,-4.9051 -4.90526,-4.9051"/><path style="opacity:1;vector-effect:none;fill:#000;fill-opacity:1;fill-rule:nonzero;stroke:#909290;stroke-width:.97304165;stroke-linecap:butt;stroke-linejoin:miter;stroke-miterlimit:4;stroke-dasharray:none;stroke-dashoffset:0;stroke-opacity:1" id="path1821" d="m 291.37021,1851.0672 c 0,-1.67 -1.35466,-3.0252 -3.02532,-3.0252 -1.67007,0 -3.02474,1.3552 -3.02474,3.0252 0,1.6699 1.35467,3.0252 3.02474,3.0252 1.67066,0 3.02532,-1.3553 3.02532,-3.0252"/></g></g><g id="layer1-0" transform="matrix(0.26458332,0,0,0.26458332,-2.7750628,51.660689)"><g id="g5827" transform="matrix(0,0.94848839,0.97871979,0,48.810481,67.742514)" style="fill:#d8d8d8;fill-opacity:1;stroke:#fff;stroke-width:1.2817142;stroke-opacity:1"><path id="path5829" d="M 0,0 C 0,0.779 0.639,1.418 1.418,1.418 H 12.04 c 0.779,0 1.418,-0.639 1.418,-1.418 v -17.007 c 0,-0.779 -0.639,-1.417 -1.418,-1.417 H 1.418 C 0.639,-18.424 0,-17.786 0,-17.007 Z" style="fill:#d8d8d8;fill-opacity:1;fill-rule:nonzero;stroke:#fff;stroke-width:1.2817142;stroke-opacity:1"/></g><g style="fill:#a0a0a0;fill-opacity:1;stroke-width:1.2817142" id="g5839" transform="matrix(0,0.94848839,0.97871979,0,-1093.7129,-655.48728)"><g style="fill:#a0a0a0;fill-opacity:1;stroke-width:1.2817142" id="g5841"><path id="path5849" d="m 764.617,1167.502 c -0.468,0 -0.852,-0.382 -0.852,-0.85 v 0 -15.724 c 0,-0.468 0.384,-0.851 0.852,-0.851 v 0 h 9.239 c 0.467,0 0.85,0.383 0.85,0.851 v 0 15.724 c 0,0.468 -0.383,0.85 -0.85,0.85 v 0 z" style="fill:#a0a0a0;fill-opacity:1;stroke:none;stroke-width:1.2817142"/></g></g><path id="path5859" d="m 48.945349,68.936851 v 10.37646 h -8.323035 v -10.37646 z" style="fill:#013662;fill-opacity:1;fill-rule:nonzero;stroke:none;stroke-width:1.23491299"/><path id="path5861" d="m 45.241871,68.936851 v 10.37646 h -0.916082 v -10.37646 z" style="fill:#1996fc;fill-opacity:1;fill-rule:nonzero;stroke:none;stroke-width:1.23491299"/><path id="path5863" d="m 41.538397,68.936851 v 10.37646 h -0.916083 v -10.37646 z" style="fill:#1996fc;fill-opacity:1;fill-rule:nonzero;stroke:none;stroke-width:1.23491299"/><path id="path5865" d="m 43.389156,68.936851 v 10.37646 h -0.916082 v -10.37646 z" style="fill:#1996fc;fill-opacity:1;fill-rule:nonzero;stroke:none;stroke-width:1.23491299"/><path id="path5867" d="m 47.093608,68.936851 v 10.37646 h -0.916079 v -10.37646 z" style="fill:#1996fc;fill-opacity:1;fill-rule:nonzero;stroke:none;stroke-width:1.23491299"/><path id="path5869" d="m 48.945349,68.936851 v 10.37646 h -0.916083 v -10.37646 z" style="fill:#1996fc;fill-opacity:1;fill-rule:nonzero;stroke:none;stroke-width:1.23491299"/></g></g></svg>