<svg xmlns="http://www.w3.org/2000/svg" xmlns:svg="http://www.w3.org/2000/svg" style="fill-rule:evenodd;clip-rule:evenodd;stroke-linejoin:round;stroke-miterlimit:1.41421" id="svg12" width="12" height="12" version="1.1" viewBox="0 0 10 10" xml:space="preserve"><metadata id="metadata18"/><circle style="fill:#737373" id="circle2" cx="5" cy="5" r="5"/><g id="g6" transform="matrix(0.8,0,0,0.8,1,1)"><circle style="fill:#595959" id="circle4" cx="5" cy="5" r="5"/></g><g style="font-style:normal;font-variant:normal;font-weight:700;font-stretch:normal;font-size:8.88888931px;line-height:1.25;font-family:Arial;-inkscape-font-specification:'Arial, Bold';font-variant-ligatures:normal;font-variant-caps:normal;font-variant-numeric:normal;font-feature-settings:normal;text-align:start;letter-spacing:0;word-spacing:0;writing-mode:lr-tb;text-anchor:start;fill:#c8c8c8;fill-opacity:1;stroke:none;stroke-width:.83333331" id="text4519" aria-label="J" transform="matrix(0.85428789,0,0,0.85428789,0.84634283,0.71748762)"><path style="font-style:normal;font-variant:normal;font-weight:700;font-stretch:normal;font-size:8.88888931px;font-family:Arial;-inkscape-font-specification:'Arial, Bold';font-variant-ligatures:normal;font-variant-caps:normal;font-variant-numeric:normal;font-feature-settings:normal;text-align:start;writing-mode:lr-tb;text-anchor:start;fill:#c8c8c8;fill-opacity:1;stroke-width:.83333331" id="path4540" d="m 5.4003358,1.9422377 h 1.280382 v 4.0277779 q 0,0.7899306 -0.1388889,1.2152779 -0.186632,0.5555555 -0.6770834,0.8940972 -0.4904514,0.3342014 -1.2934028,0.3342014 -0.9418403,0 -1.4496529,-0.5251736 Q 2.6138773,7.3589046 2.609537,6.3389393 L 3.8204746,6.2000504 q 0.021701,0.546875 0.1605903,0.7725694 0.2083333,0.342882 0.6336806,0.342882 0.4296875,0 0.6076389,-0.2430556 0.1779514,-0.2473958 0.1779514,-1.0199653 z"/></g></svg>