<svg xmlns="http://www.w3.org/2000/svg" xmlns:svg="http://www.w3.org/2000/svg" id="svg56722" width="14" height="20.641" version="1.1" viewBox="0 0 3.704 5.461"><metadata id="metadata56719"/><g id="layer1" transform="translate(-30.16787,-65.374457)"><g style="fill:#d8d8d8;fill-opacity:1;stroke:#fff;stroke-width:1.2817142;stroke-opacity:1" id="g5827" transform="matrix(0.27523902,0,0,0.27523902,30.16787,70.445464)"><path style="fill:#d8d8d8;fill-opacity:1;fill-rule:nonzero;stroke:#fff;stroke-width:1.2817142;stroke-opacity:1" id="path5829" d="M 0,0 C 0,0.779 0.639,1.418 1.418,1.418 H 12.04 c 0.779,0 1.418,-0.639 1.418,-1.418 v -17.007 c 0,-0.779 -0.639,-1.417 -1.418,-1.417 H 1.418 C 0.639,-18.424 0,-17.786 0,-17.007 Z"/></g><g id="g5839" transform="matrix(0.27523902,0,0,0.27523902,-179.70403,-250.85899)" style="fill:#a0a0a0;fill-opacity:1;stroke-width:1.2817142"><g id="g5841" style="fill:#a0a0a0;fill-opacity:1;stroke-width:1.2817142"><path style="fill:#a0a0a0;fill-opacity:1;stroke:none;stroke-width:1.2817142" id="path5849" d="m 764.617,1167.502 c -0.468,0 -0.852,-0.382 -0.852,-0.85 v 0 -15.724 c 0,-0.468 0.384,-0.851 0.852,-0.851 v 0 h 9.239 c 0.467,0 0.85,0.383 0.85,0.851 v 0 15.724 c 0,0.468 -0.383,0.85 -0.85,0.85 v 0 z"/></g></g><path style="fill:#013662;fill-opacity:1;fill-rule:nonzero;stroke:none;stroke-width:.35277775" id="path5859" d="m 30.514451,70.483392 h 3.011114 v -2.340633 h -3.011114 z"/><path style="fill:#1996fc;fill-opacity:1;fill-rule:nonzero;stroke:none;stroke-width:.35277775" id="path5861" d="m 30.514451,69.441887 h 3.011114 v -0.257624 h -3.011114 z"/><path style="fill:#1996fc;fill-opacity:1;fill-rule:nonzero;stroke:none;stroke-width:.35277775" id="path5863" d="m 30.514451,68.400383 h 3.011114 v -0.257624 h -3.011114 z"/><path style="fill:#1996fc;fill-opacity:1;fill-rule:nonzero;stroke:none;stroke-width:.35277775" id="path5865" d="m 30.514451,68.92086 h 3.011114 v -0.257624 h -3.011114 z"/><path style="fill:#1996fc;fill-opacity:1;fill-rule:nonzero;stroke:none;stroke-width:.35277775" id="path5867" d="m 30.514451,69.962639 h 3.011114 v -0.257623 h -3.011114 z"/><path style="fill:#1996fc;fill-opacity:1;fill-rule:nonzero;stroke:none;stroke-width:.35277775" id="path5869" d="m 30.514451,70.483392 h 3.011114 v -0.257624 h -3.011114 z"/></g></svg>