<svg xmlns="http://www.w3.org/2000/svg" xmlns:svg="http://www.w3.org/2000/svg" id="svg56722" width="20.641" height="14" version="1.1" viewBox="0 0 20.641 14"><metadata id="metadata56719"/><g id="layer1" transform="translate(-30.16787,-67.131583)"><g style="fill:#d8d8d8;fill-opacity:1;stroke:#fff;stroke-width:1.2817142;stroke-opacity:1" id="g5827" transform="matrix(0,0.94848839,-0.97871979,0,32.166369,67.742514)"><path style="fill:#d8d8d8;fill-opacity:1;fill-rule:nonzero;stroke:#fff;stroke-width:1.2817142;stroke-opacity:1" id="path5829" d="M 0,0 C 0,0.779 0.639,1.418 1.418,1.418 H 12.04 c 0.779,0 1.418,-0.639 1.418,-1.418 v -17.007 c 0,-0.779 -0.639,-1.417 -1.418,-1.417 H 1.418 C 0.639,-18.424 0,-17.786 0,-17.007 Z"/></g><g id="g5839" transform="matrix(0,0.94848839,-0.97871979,0,1174.6898,-655.48728)" style="fill:#a0a0a0;fill-opacity:1;stroke-width:1.2817142"><g id="g5841" style="fill:#a0a0a0;fill-opacity:1;stroke-width:1.2817142"><path style="fill:#a0a0a0;fill-opacity:1;stroke:none;stroke-width:1.2817142" id="path5849" d="m 764.617,1167.502 c -0.468,0 -0.852,-0.382 -0.852,-0.85 v 0 -15.724 c 0,-0.468 0.384,-0.851 0.852,-0.851 v 0 h 9.239 c 0.467,0 0.85,0.383 0.85,0.851 v 0 15.724 c 0,0.468 -0.383,0.85 -0.85,0.85 v 0 z"/></g></g><path style="fill:#013662;fill-opacity:1;fill-rule:nonzero;stroke:none;stroke-width:1.23491299" id="path5859" d="m 32.031501,68.936851 v 10.37646 h 8.323035 v -10.37646 z"/><path style="fill:#1996fc;fill-opacity:1;fill-rule:nonzero;stroke:none;stroke-width:1.23491299" id="path5861" d="m 35.734979,68.936851 v 10.37646 h 0.916082 v -10.37646 z"/><path style="fill:#1996fc;fill-opacity:1;fill-rule:nonzero;stroke:none;stroke-width:1.23491299" id="path5863" d="m 39.438453,68.936851 v 10.37646 h 0.916083 v -10.37646 z"/><path style="fill:#1996fc;fill-opacity:1;fill-rule:nonzero;stroke:none;stroke-width:1.23491299" id="path5865" d="m 37.587694,68.936851 v 10.37646 h 0.916082 v -10.37646 z"/><path style="fill:#1996fc;fill-opacity:1;fill-rule:nonzero;stroke:none;stroke-width:1.23491299" id="path5867" d="m 33.883242,68.936851 v 10.37646 h 0.916079 v -10.37646 z"/><path style="fill:#1996fc;fill-opacity:1;fill-rule:nonzero;stroke:none;stroke-width:1.23491299" id="path5869" d="m 32.031501,68.936851 v 10.37646 h 0.916083 v -10.37646 z"/></g></svg>