<svg xmlns="http://www.w3.org/2000/svg" xmlns:svg="http://www.w3.org/2000/svg" id="svg6414" width="15" height="15" version="1.1" viewBox="0 0 3.969 3.969"><defs id="defs6408"><clipPath id="clip82"><path id="path22604" d="m 979.55859,272.09375 h 26.63281 v 27.13281 h -26.63281 z m 0,0"/></clipPath><clipPath id="clip83"><path id="path22607" d="m 992,272.09375 h 2 V 287 h -2 z m 0,0"/></clipPath></defs><metadata id="metadata6411"/><g id="layer1" transform="translate(-36.542344,-110.65641)"><g id="g843" transform="translate(-0.13228938,0.12236497)"><path style="clip-rule:nonzero;fill:#fff;fill-opacity:1;fill-rule:nonzero;stroke:#1996fc;stroke-width:.13367705;stroke-opacity:1" id="path28547" d="m 40.399152,112.91454 c -0.219972,0.95485 -1.177327,1.55252 -2.138354,1.33387 -0.961026,-0.21865 -1.561734,-1.17039 -1.34177,-2.12576 0.219962,-0.95537 1.177323,-1.55253 2.138349,-1.33388 0.961022,0.21867 1.561211,1.1704 1.341775,2.12577"/><path style="clip-rule:nonzero;fill:#fff;fill-opacity:1;fill-rule:nonzero;stroke:#1996fc;stroke-width:.13367705;stroke-opacity:1" id="path28549" d="m 40.399153,112.91421 c -0.219972,0.95484 -1.177327,1.55254 -2.138355,1.33388 -0.961024,-0.21867 -1.561733,-1.1704 -1.341769,-2.12577 0.219962,-0.95536 1.177323,-1.55253 2.138348,-1.33386 0.961023,0.21866 1.561213,1.17038 1.341776,2.12575"/><g style="clip-rule:nonzero;stroke:#1996fc;stroke-opacity:1" id="g28555" clip-path="url(#clip83)" transform="matrix(0.13407233,0,0,0.13328291,-94.458251,74.411396)"><path id="path28553" d="M -0.0011146,-0.0015175 V 13.314889" transform="translate(992.87612,272.59527)" style="fill:none;stroke:#1996fc;stroke-width:1;stroke-linecap:round;stroke-linejoin:round;stroke-miterlimit:10;stroke-opacity:1"/></g></g></g></svg>