<svg xmlns="http://www.w3.org/2000/svg" xmlns:svg="http://www.w3.org/2000/svg" id="svg5158" width="15" height="15" version="1.1" viewBox="0 0 3.969 3.969"><metadata id="metadata5155"/><g id="layer1" transform="translate(-118.26377,-82.541471)"><g id="g3088" transform="matrix(0.27191367,0,0,-0.27191367,41.843143,587.85632)"><path style="opacity:1;vector-effect:none;fill:#e7e7e7;fill-opacity:1;fill-rule:nonzero;stroke:#ff9709;stroke-width:.97304165;stroke-linecap:butt;stroke-linejoin:miter;stroke-miterlimit:4;stroke-dasharray:none;stroke-dashoffset:0;stroke-opacity:1" id="path4639" d="m 288.34518,1844.2559 c -3.75572,0 -6.81129,3.0554 -6.81129,6.811 0,3.7555 3.05557,6.8116 6.81129,6.8116 3.75573,0 6.81129,-3.0561 6.81129,-6.8116 0,-3.7556 -3.05556,-6.811 -6.81129,-6.811"/><path style="fill:#e7e7e7;fill-opacity:1;fill-rule:nonzero;stroke:#ff9709;stroke-width:.97304165;stroke-miterlimit:4;stroke-dasharray:none;stroke-opacity:1" id="path4647" d="m 288.34518,1846.1618 c -2.70459,0 -4.90526,2.2006 -4.90526,4.9051 0,2.7051 2.20067,4.9056 4.90526,4.9056 2.7046,0 4.90526,-2.2005 4.90526,-4.9056 0,-2.7045 -2.20066,-4.9051 -4.90526,-4.9051"/><path style="opacity:1;vector-effect:none;fill:#000;fill-opacity:1;fill-rule:nonzero;stroke:#909290;stroke-width:.97304165;stroke-linecap:butt;stroke-linejoin:miter;stroke-miterlimit:4;stroke-dasharray:none;stroke-dashoffset:0;stroke-opacity:1" id="path4655" d="m 291.37021,1851.0672 c 0,-1.67 -1.35466,-3.0252 -3.02532,-3.0252 -1.67007,0 -3.02474,1.3552 -3.02474,3.0252 0,1.6699 1.35467,3.0252 3.02474,3.0252 1.67066,0 3.02532,-1.3553 3.02532,-3.0252"/></g></g></svg>