<svg xmlns="http://www.w3.org/2000/svg" xmlns:svg="http://www.w3.org/2000/svg" id="svg8" width="30" height="55" version="1.1" viewBox="0 0 30 55" style="enable-background:new"><defs id="defs2"><clipPath id="clip89"><rect id="rect4864" width="18" height="19" x="0" y="0"/></clipPath><clipPath id="clip90"><path id="path4861" d="m 0.898438,0.128906 h 16.25 v 17.882813 h -16.25 z m 0,0"/></clipPath><mask id="mask44"><g id="g4858" transform="matrix(0.26458333,0,0,0.26458333,89.358789,128.57765)" style="filter:url(#alpha)"><rect id="rect4856" width="3052.87" height="3351.5" x="0" y="0" style="fill:#000;fill-opacity:.14999402;stroke:none"/></g></mask><filter id="alpha" width="1" height="1" x="0" y="0" filterUnits="objectBoundingBox"><feColorMatrix id="feColorMatrix4149" in="SourceGraphic" type="matrix" values="0 0 0 0 1 0 0 0 0 1 0 0 0 0 1 0 0 0 1 0"/></filter><clipPath id="clipPath17821"><rect id="rect17819" width="18" height="19" x="0" y="0"/></clipPath><clipPath id="clipPath17825"><path id="path17823" d="m 0.898438,0.128906 h 16.25 v 17.882813 h -16.25 z m 0,0"/></clipPath><clipPath id="clip87"><rect id="rect4848" width="24" height="26" x="0" y="0"/></clipPath><clipPath id="clip88"><path id="path4845" d="m 0.683594,0.921875 h 22.679687 v 24.9375 H 0.683594 Z m 0,0"/></clipPath><mask id="mask43"><g id="g4842" transform="matrix(0.26458333,0,0,0.26458333,89.358789,128.57765)" style="filter:url(#alpha)"><rect id="rect4840" width="3052.87" height="3351.5" x="0" y="0" style="fill:#000;fill-opacity:.14999402;stroke:none"/></g></mask><filter id="filter17836" width="1" height="1" x="0" y="0" filterUnits="objectBoundingBox"><feColorMatrix id="feColorMatrix17834" in="SourceGraphic" type="matrix" values="0 0 0 0 1 0 0 0 0 1 0 0 0 0 1 0 0 0 1 0"/></filter><clipPath id="clipPath17840"><rect id="rect17838" width="24" height="26" x="0" y="0"/></clipPath><clipPath id="clipPath17844"><path id="path17842" d="m 0.683594,0.921875 h 22.679687 v 24.9375 H 0.683594 Z m 0,0"/></clipPath></defs><metadata id="metadata5"/><g id="layer2" transform="translate(-20.000003,-15.000427)" style="display:inline"><rect style="display:inline;opacity:1;fill:#b3b3b3;fill-opacity:.50196078;fill-rule:evenodd;stroke:#000;stroke-width:.63977337;stroke-miterlimit:4;stroke-dasharray:none;stroke-dashoffset:0;stroke-opacity:1" id="rect830" width="49.287" height="24.36" x="17.857" y="-47.18" rx="2.266" ry="2.266" transform="rotate(90)"/></g><g id="layer9" transform="translate(-20.000003,-15.000427)" style="display:inline"><g id="g15873" style="display:inline;enable-background:new"><g id="text11659-7" aria-label="A" transform="translate(1e-6,1.5)" style="font-style:normal;font-variant:normal;font-weight:700;font-stretch:normal;font-size:10.66666698px;line-height:1.25;font-family:'Trebuchet MS';-inkscape-font-specification:'Trebuchet MS, Bold';font-variant-ligatures:normal;font-variant-caps:normal;font-variant-numeric:normal;font-feature-settings:normal;text-align:center;letter-spacing:0;word-spacing:0;writing-mode:lr-tb;text-anchor:middle;display:inline;fill:#000;fill-opacity:1;stroke:none;enable-background:new"><path id="path11675-4" d="m 36.856773,35.210457 -0.557291,-1.546875 h -2.614584 l -0.53125,1.546875 H 31.64844 l 3.041667,-7.734375 h 0.59375 l 3.067708,7.734375 z m -1.869791,-5.401042 -0.916667,2.817708 h 1.833333 z"/></g><g id="text11663-4" aria-label="L" transform="translate(0.499999,-0.061071)" style="font-style:normal;font-variant:normal;font-weight:700;font-stretch:normal;font-size:10.66666698px;line-height:1.25;font-family:'Trebuchet MS';-inkscape-font-specification:'Trebuchet MS, Bold';font-variant-ligatures:normal;font-variant-caps:normal;font-variant-numeric:normal;font-feature-settings:normal;text-align:center;letter-spacing:0;word-spacing:0;writing-mode:lr-tb;text-anchor:middle;display:inline;fill:#000;fill-opacity:1;stroke:none;enable-background:new"><path id="path11672-1" d="m 32.598962,46.376602 v -7.630208 h 1.354167 v 6.427083 h 3.447917 v 1.203125 z"/></g><g id="text11667-7" aria-label="T" transform="translate(1e-6,-1.5)" style="font-style:normal;font-variant:normal;font-weight:700;font-stretch:normal;font-size:10.66666698px;line-height:1.25;font-family:'Trebuchet MS';-inkscape-font-specification:'Trebuchet MS, Bold';font-variant-ligatures:normal;font-variant-caps:normal;font-variant-numeric:normal;font-feature-settings:normal;text-align:center;letter-spacing:0;word-spacing:0;writing-mode:lr-tb;text-anchor:middle;display:inline;fill:#000;fill-opacity:1;stroke:none;enable-background:new"><path id="path11669-8" d="m 35.622398,51.34764 v 6.427083 H 34.268232 V 51.34764 h -2.427084 v -1.203126 h 6.317709 v 1.203126 z"/></g></g></g></svg>