<svg xmlns="http://www.w3.org/2000/svg" xmlns:svg="http://www.w3.org/2000/svg" id="svg8" width="90" height="300" version="1.1" viewBox="0 0 90 300" style="enable-background:new"><metadata id="metadata5"/><g id="layer1" transform="translate(0,-276.45832)" style="display:inline;opacity:.79000005"><rect style="display:inline;opacity:1;fill:red;fill-opacity:1;fill-rule:evenodd;stroke:#000;stroke-width:.96094292;stroke-miterlimit:4;stroke-dasharray:0,10.57037265;stroke-dashoffset:0;stroke-opacity:.00485439" id="rect1547" width="91.039" height="300.607" x="-.52" y="275.372"/><g id="layer12-6" transform="translate(162.6489,278.65271)"><g id="g9069" transform="matrix(1.4452355,0,0,1.4452355,-205.71413,-84.790198)" style="display:inline;enable-background:new"><g id="g9055" aria-label="M" style="font-style:normal;font-variant:normal;font-weight:700;font-stretch:normal;font-size:42.66666794px;line-height:1.25;font-family:'Trebuchet MS';-inkscape-font-specification:'Trebuchet MS, Bold';font-variant-ligatures:normal;font-variant-caps:normal;font-variant-numeric:normal;font-feature-settings:normal;text-align:start;letter-spacing:0;word-spacing:0;writing-mode:lr-tb;text-anchor:start;fill:#000;fill-opacity:1;stroke:none"><path id="path9053" d="m 75.583334,127.26848 h -5.25 l -3.166667,-16.45833 -6.145833,16.85417 h -1.9375 L 52.9375,110.81015 49.645834,127.26848 H 44.416667 L 50.5625,96.726816 h 2.875 l 6.604167,20.562504 6.458334,-20.562504 h 2.854166 z"/></g><g id="g9059" aria-label="U" style="font-style:normal;font-variant:normal;font-weight:700;font-stretch:normal;font-size:42.66666794px;line-height:1.25;font-family:'Trebuchet MS';-inkscape-font-specification:'Trebuchet MS, Bold';font-variant-ligatures:normal;font-variant-caps:normal;font-variant-numeric:normal;font-feature-settings:normal;text-align:start;letter-spacing:0;word-spacing:0;writing-mode:lr-tb;text-anchor:start;fill:#000;fill-opacity:1;stroke:none"><path id="path9057" d="m 48.666668,130.72682 h 5.416667 v 20.6875 q 0,2.45833 1.5,4 1.5,1.54166 4.125,1.54166 2.9375,0 4.5625,-1.5 1.645834,-1.52083 1.645834,-4.14583 v -20.58333 h 5.416666 v 21 q 0,4.70833 -3.166666,7.375 -3.145834,2.66666 -8.416667,2.66666 -5.3125,0 -8.208334,-2.60416 -2.875,-2.60417 -2.875,-7.45834 z"/></g><g id="g9063" aria-label="T" style="font-style:normal;font-variant:normal;font-weight:700;font-stretch:normal;font-size:42.66666794px;line-height:1.25;font-family:'Trebuchet MS';-inkscape-font-specification:'Trebuchet MS, Bold';font-variant-ligatures:normal;font-variant-caps:normal;font-variant-numeric:normal;font-feature-settings:normal;text-align:start;letter-spacing:0;word-spacing:0;writing-mode:lr-tb;text-anchor:start;fill:#000;fill-opacity:1;stroke:none"><path id="path9061" d="m 62.489585,169.53932 v 25.70833 h -5.416667 v -25.70833 h -9.708333 v -4.8125 h 25.270834 v 4.8125 z"/></g><g id="g9067" aria-label="E" style="font-style:normal;font-variant:normal;font-weight:700;font-stretch:normal;font-size:42.66666794px;line-height:1.25;font-family:'Trebuchet MS';-inkscape-font-specification:'Trebuchet MS, Bold';font-variant-ligatures:normal;font-variant-caps:normal;font-variant-numeric:normal;font-feature-settings:normal;text-align:start;letter-spacing:0;word-spacing:0;writing-mode:lr-tb;text-anchor:start;display:inline;fill:#000;fill-opacity:1;stroke:none"><path id="path9065" d="m 55.677085,203.53932 v 7.14583 h 10.083333 v 4.60417 H 55.677085 v 9.14583 h 13.833334 v 4.8125 H 50.260418 v -30.52083 h 19.479167 v 4.8125 z"/></g></g></g></g></svg>