<svg xmlns="http://www.w3.org/2000/svg" xmlns:svg="http://www.w3.org/2000/svg" style="enable-background:new" id="svg8" width="90" height="380" version="1.1" viewBox="0 0 90 380"><metadata id="metadata5"/><g style="display:inline" id="layer10"><rect id="rect17450" width="92.915" height="382.978" x=".3" y="-1.191" style="display:inline;opacity:1;fill:#e6e6e6;fill-opacity:1;fill-rule:evenodd;stroke:#909290;stroke-width:.60000002;stroke-miterlimit:4;stroke-dasharray:none;stroke-dashoffset:54.20000076;stroke-opacity:.83009709"/><rect id="rect20476-6" width="31.791" height="48.316" x="57.014" y="306.68" ry="6.454" style="display:inline;opacity:1;fill:#6000f5;fill-opacity:1;fill-rule:evenodd;stroke:none;stroke-width:.49862966;stroke-miterlimit:4;stroke-dasharray:none;stroke-dashoffset:54.20000076;stroke-opacity:.83009709;enable-background:new"/><g id="text17527-0" aria-label="OUT" transform="translate(28.884892,55.35481)" style="font-style:normal;font-variant:normal;font-weight:700;font-stretch:normal;font-size:10.66666698px;line-height:1.25;font-family:'Trebuchet MS';-inkscape-font-specification:'Trebuchet MS, Bold';font-variant-ligatures:normal;font-variant-caps:normal;font-variant-numeric:normal;font-feature-settings:normal;text-align:center;letter-spacing:0;word-spacing:0;writing-mode:lr-tb;text-anchor:middle;display:inline;fill:#010002;fill-opacity:1;stroke:none;enable-background:new"><path style="fill:#010002;fill-opacity:1" id="path17529-8" d="m 33.656893,291.58686 q 0,-1.63021 0.890625,-2.75521 0.895833,-1.1302 2.390625,-1.1302 1.645834,0 2.515625,1.02083 0.869792,1.02083 0.869792,2.86458 0,1.84375 -0.911458,2.92709 -0.90625,1.08333 -2.578125,1.08333 -1.536459,0 -2.359376,-1.07292 -0.817708,-1.07291 -0.817708,-2.9375 z m 1.40625,0 q 0,1.33854 0.453125,2.07292 0.453125,0.73437 1.317709,0.73437 1.015625,0 1.546875,-0.71875 0.536458,-0.71875 0.536458,-2.08854 0,-2.68229 -1.979167,-2.68229 -0.90625,0 -1.390625,0.72917 -0.484375,0.72396 -0.484375,1.95312 z"/><path style="fill:#010002;fill-opacity:1" id="path17531-1" d="m 41.521476,287.83686 h 1.354167 v 5.17188 q 0,0.61458 0.375,1 0.375,0.38541 1.03125,0.38541 0.734375,0 1.140625,-0.375 0.411459,-0.3802 0.411459,-1.03645 v -5.14584 h 1.354166 v 5.25 q 0,1.17709 -0.791666,1.84375 -0.786459,0.66667 -2.104167,0.66667 -1.328125,0 -2.052084,-0.65104 -0.71875,-0.65104 -0.71875,-1.86459 z"/><path style="fill:#010002;fill-opacity:1" id="path17533-4" d="m 51.85481,289.03999 v 6.42708 h -1.354167 v -6.42708 H 48.07356 v -1.20313 h 6.317709 v 1.20313 z"/></g><g id="text11177-6" aria-label="off" transform="translate(-16.743275,56.27029)" style="font-style:normal;font-variant:normal;font-weight:400;font-stretch:normal;font-size:8px;line-height:1.25;font-family:'Trebuchet MS';-inkscape-font-specification:'Trebuchet MS, Normal';font-variant-ligatures:normal;font-variant-caps:normal;font-variant-numeric:normal;font-feature-settings:normal;text-align:center;letter-spacing:0;word-spacing:0;writing-mode:lr-tb;text-anchor:middle;display:inline;fill:#000;fill-opacity:1;stroke:none;enable-background:new"><path id="path11226-0" d="m 40.968197,289.0643 q 0,-0.96875 0.519531,-1.5625 0.523438,-0.59766 1.375,-0.59766 0.898438,0 1.394531,0.57422 0.496094,0.57032 0.496094,1.58594 0,1.01172 -0.507812,1.59766 -0.507813,0.58203 -1.382813,0.58203 -0.894531,0 -1.394531,-0.58985 -0.5,-0.58984 -0.5,-1.58984 z m 0.78125,0 q 0,1.57422 1.113281,1.57422 0.519531,0 0.8125,-0.42188 0.296875,-0.42187 0.296875,-1.15234 0,-1.55469 -1.109375,-1.55469 -0.507812,0 -0.8125,0.41407 -0.300781,0.41406 -0.300781,1.14062 z"/><path id="path11228-8" d="m 47.800228,285.93149 q -0.226562,-0.0781 -0.421875,-0.0781 -0.339844,0 -0.5625,0.25782 -0.21875,0.25781 -0.21875,0.65234 0,0.10547 0.01953,0.21875 h 0.851563 v 0.625 h -0.851563 v 3.55859 h -0.742187 v -3.55859 h -0.609375 v -0.625 h 0.609375 q 0,-0.80078 0.394531,-1.25781 0.394531,-0.45703 1.042969,-0.45703 0.324219,0 0.695312,0.11718 z"/><path id="path11230-3" d="m 50.753353,285.93149 q -0.226562,-0.0781 -0.421875,-0.0781 -0.339844,0 -0.5625,0.25782 -0.21875,0.25781 -0.21875,0.65234 0,0.10547 0.01953,0.21875 h 0.851563 v 0.625 h -0.851563 v 3.55859 h -0.742187 v -3.55859 h -0.609375 v -0.625 h 0.609375 q 0,-0.80078 0.394531,-1.25781 0.394531,-0.45703 1.042969,-0.45703 0.324219,0 0.695312,0.11718 z"/></g><g id="text12324" aria-label="on" transform="translate(1.9089733,-0.85776)" style="font-style:normal;font-variant:normal;font-weight:400;font-stretch:normal;font-size:8px;line-height:1.25;font-family:'Trebuchet MS';-inkscape-font-specification:'Trebuchet MS, Normal';font-variant-ligatures:normal;font-variant-caps:normal;font-variant-numeric:normal;font-feature-settings:normal;text-align:center;letter-spacing:0;word-spacing:0;writing-mode:lr-tb;text-anchor:middle;display:inline;fill:#000;fill-opacity:1;stroke:none;enable-background:new"><path id="path12360" d="m 23.599415,320.20688 q 0,-0.96875 0.519531,-1.5625 0.523438,-0.59766 1.375,-0.59766 0.898438,0 1.394531,0.57422 0.496094,0.57031 0.496094,1.58594 0,1.01172 -0.507812,1.59765 -0.507813,0.58204 -1.382813,0.58204 -0.894531,0 -1.394531,-0.58985 -0.5,-0.58984 -0.5,-1.58984 z m 0.78125,0 q 0,1.57422 1.113281,1.57422 0.519531,0 0.8125,-0.42188 0.296875,-0.42187 0.296875,-1.15234 0,-1.55469 -1.109375,-1.55469 -0.507812,0 -0.8125,0.41406 -0.300781,0.41407 -0.300781,1.14063 z"/><path id="path12362" d="m 30.743946,322.30844 v -2.43359 q 0,-0.66797 -0.203125,-0.9336 -0.199219,-0.26953 -0.671875,-0.26953 -0.253906,0 -0.53125,0.15235 -0.277344,0.15234 -0.425781,0.375 v 3.10937 h -0.742188 v -4.18359 h 0.507813 l 0.234375,0.53906 q 0.367187,-0.61719 1.199219,-0.61719 1.375,0 1.375,1.67188 v 2.58984 z"/></g><g id="text12328" aria-label="w/shift" transform="translate(1.9089733,-2.20962)" style="font-style:normal;font-variant:normal;font-weight:400;font-stretch:normal;font-size:8px;line-height:1.25;font-family:'Trebuchet MS';-inkscape-font-specification:'Trebuchet MS, Normal';font-variant-ligatures:normal;font-variant-caps:normal;font-variant-numeric:normal;font-feature-settings:normal;text-align:center;letter-spacing:0;word-spacing:0;writing-mode:lr-tb;text-anchor:middle;display:inline;fill:#000;fill-opacity:1;stroke:none;enable-background:new"><path id="path12365" d="m 26.99004,337.14035 h -0.195313 l -1.226562,-2.84766 -1.222656,2.84766 h -0.195313 l -1.496094,-4.27344 h 0.792969 l 0.894531,2.7461 1.113282,-2.7461 h 0.195312 l 1.148438,2.7461 0.960937,-2.7461 h 0.730469 z"/><path id="path12367" d="m 29.915821,337.06223 h -0.628906 l 2.074219,-5.7461 h 0.621093 z"/><path id="path12369" d="m 33.005665,336.81223 0.261719,-0.70313 q 0.621093,0.40625 1,0.40625 0.6875,0 0.6875,-0.57812 0,-0.41407 -0.664063,-0.71094 -0.511719,-0.23438 -0.691406,-0.35547 -0.175781,-0.12109 -0.308594,-0.27344 -0.128906,-0.15625 -0.195312,-0.32812 -0.0625,-0.17578 -0.0625,-0.375 0,-0.51563 0.375,-0.80469 0.375,-0.28906 0.980468,-0.28906 0.457032,0 1.152344,0.28906 l -0.210937,0.6875 q -0.441407,-0.35156 -0.886719,-0.35156 -0.265625,0 -0.449219,0.125 -0.179687,0.125 -0.179687,0.3164 0,0.40235 0.457031,0.60938 l 0.53125,0.24219 q 0.488281,0.22265 0.710937,0.50781 0.222657,0.28515 0.222657,0.71484 0,0.5625 -0.394532,0.88281 -0.394531,0.31641 -1.09375,0.31641 -0.660156,0 -1.242187,-0.32812 z"/><path id="path12371" d="m 39.091602,337.06223 v -2.62891 q 0,-0.46875 -0.230468,-0.73828 -0.230469,-0.26953 -0.648438,-0.26953 -0.269531,0 -0.542969,0.16015 -0.269531,0.15625 -0.414062,0.36719 v 3.10938 h -0.742188 v -5.89844 h 0.742188 v 2.17578 q 0.148437,-0.23047 0.476562,-0.38281 0.332032,-0.15625 0.683594,-0.15625 0.664063,0 1.039063,0.4375 0.378906,0.4375 0.378906,1.19531 v 2.62891 z"/><path id="path12373" d="m 41.654102,331.2966 q 0.191407,0 0.324219,0.13672 0.136719,0.13281 0.136719,0.32031 0,0.19141 -0.136719,0.32813 -0.132812,0.13281 -0.324219,0.13281 -0.1875,0 -0.324218,-0.13281 -0.132813,-0.13672 -0.132813,-0.32813 0,-0.1914 0.132813,-0.32422 0.132812,-0.13281 0.324218,-0.13281 z m -0.40625,5.76563 v -3.5586 h -0.574218 v -0.625 h 1.316406 v 4.1836 z"/><path id="path12375" d="m 45.431446,331.82785 q -0.226562,-0.0781 -0.421875,-0.0781 -0.339844,0 -0.5625,0.25781 -0.21875,0.25781 -0.21875,0.65234 0,0.10547 0.01953,0.21875 h 0.851563 v 0.625 h -0.851563 v 3.5586 h -0.742187 v -3.5586 H 42.89629 v -0.625 h 0.609375 q 0,-0.80078 0.394531,-1.25781 0.394531,-0.45703 1.042969,-0.45703 0.324219,0 0.695312,0.11719 z"/><path id="path12377" d="m 46.388477,333.46457 h -0.484375 v -0.58594 h 0.484375 v -0.875 l 0.742188,-0.28515 v 1.16015 h 1.148437 v 0.58594 h -1.148437 v 2.07812 q 0,0.52735 0.175781,0.75 0.179688,0.22266 0.574219,0.22266 0.285156,0 0.589844,-0.14453 l 0.109375,0.65234 q -0.460938,0.11719 -1.011719,0.11719 -0.496094,0 -0.839844,-0.36719 -0.339844,-0.37109 -0.339844,-0.93359 z"/></g><g style="font-style:normal;font-variant:normal;font-weight:700;font-stretch:normal;font-size:10.66666698px;line-height:1.25;font-family:'Trebuchet MS';-inkscape-font-specification:'Trebuchet MS, Bold';font-variant-ligatures:normal;font-variant-caps:normal;font-variant-numeric:normal;font-feature-settings:normal;text-align:center;letter-spacing:0;word-spacing:0;writing-mode:lr-tb;text-anchor:middle;display:inline;fill:#010002;fill-opacity:1;stroke:none;enable-background:new" id="g19703" aria-label="OUT" transform="translate(28.884892,55.35481)"><path id="path19697" d="m 33.656893,291.58686 q 0,-1.63021 0.890625,-2.75521 0.895833,-1.1302 2.390625,-1.1302 1.645834,0 2.515625,1.02083 0.869792,1.02083 0.869792,2.86458 0,1.84375 -0.911458,2.92709 -0.90625,1.08333 -2.578125,1.08333 -1.536459,0 -2.359376,-1.07292 -0.817708,-1.07291 -0.817708,-2.9375 z m 1.40625,0 q 0,1.33854 0.453125,2.07292 0.453125,0.73437 1.317709,0.73437 1.015625,0 1.546875,-0.71875 0.536458,-0.71875 0.536458,-2.08854 0,-2.68229 -1.979167,-2.68229 -0.90625,0 -1.390625,0.72917 -0.484375,0.72396 -0.484375,1.95312 z" style="fill:#010002;fill-opacity:1"/><path id="path19699" d="m 41.521476,287.83686 h 1.354167 v 5.17188 q 0,0.61458 0.375,1 0.375,0.38541 1.03125,0.38541 0.734375,0 1.140625,-0.375 0.411459,-0.3802 0.411459,-1.03645 v -5.14584 h 1.354166 v 5.25 q 0,1.17709 -0.791666,1.84375 -0.786459,0.66667 -2.104167,0.66667 -1.328125,0 -2.052084,-0.65104 -0.71875,-0.65104 -0.71875,-1.86459 z" style="fill:#010002;fill-opacity:1"/><path id="path19701" d="m 51.85481,289.03999 v 6.42708 h -1.354167 v -6.42708 H 48.07356 v -1.20313 h 6.317709 v 1.20313 z" style="fill:#010002;fill-opacity:1"/></g><g id="g20210" aria-label="OUT" transform="translate(28.884892,-10.14519)" style="font-style:normal;font-variant:normal;font-weight:700;font-stretch:normal;font-size:10.66666698px;line-height:1.25;font-family:'Trebuchet MS';-inkscape-font-specification:'Trebuchet MS, Bold';font-variant-ligatures:normal;font-variant-caps:normal;font-variant-numeric:normal;font-feature-settings:normal;text-align:center;letter-spacing:0;word-spacing:0;writing-mode:lr-tb;text-anchor:middle;display:inline;fill:#010002;fill-opacity:1;stroke:none;enable-background:new"><path style="fill:#010002;fill-opacity:1" id="path20204" d="m 33.656893,291.58686 q 0,-1.63021 0.890625,-2.75521 0.895833,-1.1302 2.390625,-1.1302 1.645834,0 2.515625,1.02083 0.869792,1.02083 0.869792,2.86458 0,1.84375 -0.911458,2.92709 -0.90625,1.08333 -2.578125,1.08333 -1.536459,0 -2.359376,-1.07292 -0.817708,-1.07291 -0.817708,-2.9375 z m 1.40625,0 q 0,1.33854 0.453125,2.07292 0.453125,0.73437 1.317709,0.73437 1.015625,0 1.546875,-0.71875 0.536458,-0.71875 0.536458,-2.08854 0,-2.68229 -1.979167,-2.68229 -0.90625,0 -1.390625,0.72917 -0.484375,0.72396 -0.484375,1.95312 z"/><path style="fill:#010002;fill-opacity:1" id="path20206" d="m 41.521476,287.83686 h 1.354167 v 5.17188 q 0,0.61458 0.375,1 0.375,0.38541 1.03125,0.38541 0.734375,0 1.140625,-0.375 0.411459,-0.3802 0.411459,-1.03645 v -5.14584 h 1.354166 v 5.25 q 0,1.17709 -0.791666,1.84375 -0.786459,0.66667 -2.104167,0.66667 -1.328125,0 -2.052084,-0.65104 -0.71875,-0.65104 -0.71875,-1.86459 z"/><path style="fill:#010002;fill-opacity:1" id="path20208" d="m 51.85481,289.03999 v 6.42708 h -1.354167 v -6.42708 H 48.07356 v -1.20313 h 6.317709 v 1.20313 z"/></g></g><g style="display:inline" id="layer4"><rect id="rect12410" width="92.913" height="202.206" x=".138" y="32.41" rx="0" ry="0" style="display:inline;opacity:1;fill:#a17ada;fill-opacity:1;fill-rule:evenodd;stroke:none;stroke-width:.66312212;stroke-miterlimit:4;stroke-dasharray:none;stroke-dashoffset:0;stroke-opacity:.83009709"/><rect style="display:none;opacity:1;fill:#00aad4;fill-opacity:1;fill-rule:evenodd;stroke:none;stroke-width:.82110524;stroke-miterlimit:4;stroke-dasharray:none;stroke-dashoffset:54.20000076;stroke-opacity:.83009709;enable-background:new" id="rect12250" width="31.366" height="51.568" x="56.929" y="246.41" rx="8.503" ry="8.58"/><rect id="rect19755" width="93.607" height="54.48" x="-1.019" y="234.11" ry="0" style="display:inline;opacity:1;fill:#00aad4;fill-opacity:.28310505;fill-rule:evenodd;stroke:none;stroke-width:.82110518;stroke-miterlimit:4;stroke-dasharray:none;stroke-dashoffset:54.20000076;stroke-opacity:1;enable-background:new"/></g><g style="display:none;opacity:.8" id="layer6"><path id="rect17453" d="m -1.2207031,32.880859 v 36 0.06641 40.808591 40 40 40 H 91.837891 v -40.875 -40 -40 -39.933591 -0.06641 -36 z" style="display:inline;opacity:.86499999;fill:#a17ada;fill-opacity:1;fill-rule:evenodd;stroke:none;stroke-width:.65882021;stroke-miterlimit:4;stroke-dasharray:none;stroke-dashoffset:54.20000076;stroke-opacity:.83009709"/><rect id="rect20476" width="31.791" height="48.316" x="29.105" y="307.537" ry="6.454" style="opacity:1;fill:#6000f5;fill-opacity:1;fill-rule:evenodd;stroke:none;stroke-width:.49862966;stroke-miterlimit:4;stroke-dasharray:none;stroke-dashoffset:54.20000076;stroke-opacity:.83009709"/><rect id="rect17461" width="93.106" height="42.181" x="-1.808" y="217.526" style="display:none;opacity:.86499999;fill:#ff8080;fill-opacity:1;fill-rule:evenodd;stroke:none;stroke-width:.56361371;stroke-miterlimit:4;stroke-dasharray:none;stroke-dashoffset:54.20000076;stroke-opacity:.83009709"/><rect style="display:none;opacity:1;fill:#59f;fill-opacity:1;fill-rule:evenodd;stroke:none;stroke-width:.49719679;stroke-miterlimit:4;stroke-dasharray:none;stroke-dashoffset:54.20000076;stroke-opacity:.83009709" id="rect20474" width="30.394" height="49.732" x="29.763" y="258.283"/><rect style="display:none;opacity:1;fill:#5d00eb;fill-opacity:1;fill-rule:evenodd;stroke:none;stroke-width:.25324097;stroke-miterlimit:4;stroke-dasharray:none;stroke-dashoffset:54.20000076;stroke-opacity:.83009709" id="rect17839" width="9.386" height="42.209" x="82.242" y="265.644" ry="0"/></g><g style="display:inline" id="layer8"><g id="text2027" aria-label="value" transform="translate(0,2)" style="font-style:normal;font-variant:normal;font-weight:700;font-stretch:normal;font-size:10.66666698px;line-height:1.25;font-family:'Trebuchet MS';-inkscape-font-specification:'Trebuchet MS, Bold';font-variant-ligatures:normal;font-variant-caps:normal;font-variant-numeric:normal;font-feature-settings:normal;text-align:center;letter-spacing:0;word-spacing:0;writing-mode:lr-tb;text-anchor:middle;display:none;opacity:.8;fill:#000;fill-opacity:1;stroke:none;enable-background:new"><path id="path2029" d="m 34.834165,67.195079 h -0.46875 l -2.520834,-5.682292 h 1.427084 l 1.333333,3.40625 1.432292,-3.40625 h 1.380208 z"/><path id="path2031" d="m 41.250831,66.53362 q -0.177083,0.291667 -0.619791,0.479167 -0.4375,0.182292 -0.916667,0.182292 -0.901042,0 -1.416667,-0.447917 -0.515625,-0.453125 -0.515625,-1.28125 0,-0.96875 0.723959,-1.515625 0.729166,-0.546875 2.067708,-0.546875 0.229167,0 0.541667,0.07813 0,-0.984375 -1.244792,-0.984375 -0.734375,0 -1.229167,0.244791 l -0.28125,-1.010416 q 0.671875,-0.322917 1.598959,-0.322917 1.276041,0 1.869791,0.583333 0.59375,0.578125 0.59375,2.197917 v 1.192708 q 0,1.114584 0.447917,1.401042 -0.161458,0.28125 -0.359375,0.34375 -0.197917,0.06771 -0.453125,0.06771 -0.28125,0 -0.505208,-0.208334 -0.223959,-0.208333 -0.302084,-0.453125 z m -0.125,-2.067708 q -0.333333,-0.06771 -0.5,-0.06771 -1.541666,0 -1.541666,1.010417 0,0.75 0.869791,0.75 1.171875,0 1.171875,-1.171875 z"/><path id="path2033" d="m 44.058123,59.434662 1.302083,-0.3125 v 6.270833 q 0,1.03125 0.614584,1.229167 -0.302084,0.572917 -1.03125,0.572917 -0.885417,0 -0.885417,-1.229167 z"/><path id="path2035" d="m 50.573749,67.09612 v -0.46875 q -0.276042,0.234375 -0.760417,0.401042 -0.484375,0.166667 -0.890625,0.166667 -1.942708,0 -1.942708,-2.062501 v -3.619791 h 1.302083 v 3.520833 q 0,1.072917 0.963542,1.072917 0.442708,0 0.822916,-0.229167 0.380209,-0.229167 0.505209,-0.53125 v -3.833333 h 1.302083 v 5.583333 z"/><path id="path2037" d="M 58.271665,64.700287 H 54.28729 q 0.03646,0.666666 0.458334,1.036458 0.421875,0.369792 1.135416,0.369792 0.890625,0 1.354167,-0.463542 l 0.505208,0.994792 q -0.6875,0.557292 -2.052083,0.557292 -1.276042,0 -2.020833,-0.744792 -0.739584,-0.75 -0.739584,-2.088542 0,-1.317708 0.8125,-2.135417 0.817709,-0.817708 1.958334,-0.817708 1.213541,0 1.947916,0.723958 0.734375,0.723959 0.734375,1.84375 0,0.239584 -0.109375,0.723959 z m -3.9375,-0.979167 h 2.739584 q -0.135417,-1.223958 -1.354167,-1.223958 -1.114583,0 -1.385417,1.223958 z"/></g><g id="text20002" aria-label="MIN" transform="translate(0,0.5)" style="font-style:normal;font-variant:normal;font-weight:700;font-stretch:normal;font-size:10.66666698px;line-height:1.25;font-family:'Trebuchet MS';-inkscape-font-specification:'Trebuchet MS, Bold';font-variant-ligatures:normal;font-variant-caps:normal;font-variant-numeric:normal;font-feature-settings:normal;text-align:center;letter-spacing:0;word-spacing:0;writing-mode:lr-tb;text-anchor:middle;fill:#000;fill-opacity:1;stroke:none"><path id="path20004" d="m 44.205728,108.75104 h -1.3125 l -0.791667,-4.11459 -1.536458,4.21354 h -0.484375 l -1.536459,-4.21354 -0.822916,4.11459 h -1.307292 l 1.536458,-7.63542 h 0.71875 l 1.651042,5.14062 1.614583,-5.14062 h 0.713542 z"/><path id="path20006" d="m 45.075519,108.74583 v -7.63021 h 1.354167 v 7.63021 z"/><path id="path20008" d="m 53.033853,108.84999 -3.703125,-4.82812 v 4.72917 h -1.302084 v -7.63542 h 0.651042 l 3.604167,4.60416 v -4.60416 h 1.302083 v 7.73437 z"/></g><g id="text20013" aria-label="MAX" style="font-style:normal;font-variant:normal;font-weight:700;font-stretch:normal;font-size:10.66666698px;line-height:1.25;font-family:'Trebuchet MS';-inkscape-font-specification:'Trebuchet MS, Bold';font-variant-ligatures:normal;font-variant-caps:normal;font-variant-numeric:normal;font-feature-settings:normal;text-align:center;letter-spacing:0;word-spacing:0;writing-mode:lr-tb;text-anchor:middle;fill:#000;fill-opacity:1;stroke:none"><path id="path20015" d="m 42.299478,149.39946 h -1.3125 l -0.791667,-4.11458 -1.536458,4.21354 h -0.484375 l -1.536459,-4.21354 -0.822916,4.11458 h -1.307292 l 1.536458,-7.63541 h 0.71875 l 1.651042,5.14062 1.614583,-5.14062 h 0.713542 z"/><path id="path20017" d="m 47.596353,149.39426 -0.557292,-1.54688 h -2.614583 l -0.53125,1.54688 h -1.505209 l 3.041667,-7.73438 h 0.59375 l 3.067709,7.73438 z m -1.869792,-5.40105 -0.916667,2.81771 h 1.833334 z"/><path id="path20019" d="m 54.018228,149.39426 -1.802083,-2.7448 -1.666667,2.7448 H 49.13802 l 2.286458,-3.95313 -2.104166,-3.68229 1.385416,0.005 1.546875,2.57812 1.703125,-2.57812 h 1.416667 l -2.416667,3.69791 2.536459,3.9323 z"/></g><g id="text20026" aria-label="DEFAULT" transform="translate(0,-0.5)" style="font-style:normal;font-variant:normal;font-weight:700;font-stretch:normal;font-size:10.66666698px;line-height:1.25;font-family:'Trebuchet MS';-inkscape-font-specification:'Trebuchet MS, Bold';font-variant-ligatures:normal;font-variant-caps:normal;font-variant-numeric:normal;font-feature-settings:normal;text-align:center;letter-spacing:0;word-spacing:0;writing-mode:lr-tb;text-anchor:middle;fill:#000;fill-opacity:1;stroke:none"><path id="path20028" d="m 24.361976,189.97397 h -1.692708 v -7.625 q 1.619791,-0.0573 2.036458,-0.0573 1.666667,0 2.640625,0.97916 0.979167,0.97396 0.979167,2.58855 0,4.11458 -3.963542,4.11458 z m -0.338542,-6.44271 v 5.20833 q 0.328125,0.0312 0.708334,0.0312 1.026041,0 1.604166,-0.74479 0.583334,-0.74479 0.583334,-2.08333 0,-2.44792 -2.276042,-2.44792 -0.21875,0 -0.619792,0.0365 z"/><path id="path20030" d="m 30.877601,183.54688 v 1.78646 h 2.520834 v 1.15105 h -2.520834 v 2.28645 h 3.458334 v 1.20313 h -4.8125 v -7.63021 h 4.869791 v 1.20312 z"/><path id="path20032" d="m 36.940101,183.54688 v 1.78646 h 2.682292 v 1.15105 h -2.682292 v 3.48958 h -1.354166 v -7.63021 h 5.026041 v 1.20312 z"/><path id="path20034" d="m 46.268227,189.97397 -0.557292,-1.54688 h -2.614583 l -0.53125,1.54688 h -1.505209 l 3.041667,-7.73438 h 0.59375 l 3.067708,7.73438 z m -1.869792,-5.40104 -0.916667,2.81771 h 1.833334 z"/><path id="path20036" d="m 48.565102,182.34376 h 1.354166 v 5.17188 q 0,0.61458 0.375,1 0.375,0.38541 1.03125,0.38541 0.734375,0 1.140625,-0.375 0.411459,-0.38021 0.411459,-1.03646 v -5.14583 h 1.354166 v 5.25 q 0,1.17708 -0.791666,1.84375 -0.786459,0.66667 -2.104167,0.66667 -1.328125,0 -2.052083,-0.65104 -0.71875,-0.65105 -0.71875,-1.86459 z"/><path id="path20038" d="m 55.794268,189.97397 v -7.63021 h 1.354166 v 6.42708 h 3.447917 v 1.20313 z"/><path id="path20040" d="m 64.79427,183.54688 v 6.42709 h -1.354166 v -6.42709 H 61.01302 v -1.20312 h 6.317709 v 1.20312 z"/></g><g id="text20045" aria-label="TYPE" transform="translate(0,1.5)" style="font-style:normal;font-variant:normal;font-weight:700;font-stretch:normal;font-size:10.66666698px;line-height:1.25;font-family:'Trebuchet MS';-inkscape-font-specification:'Trebuchet MS, Bold';font-variant-ligatures:normal;font-variant-caps:normal;font-variant-numeric:normal;font-feature-settings:normal;text-align:center;letter-spacing:0;word-spacing:0;writing-mode:lr-tb;text-anchor:middle;fill:#000;fill-opacity:1;stroke:none"><path id="path20047" d="m 36.341144,221.16377 v 6.42708 h -1.354166 v -6.42708 h -2.427084 v -1.20313 h 6.317709 v 1.20313 z"/><path id="path20049" d="m 42.929686,224.46064 v 3.13021 h -1.354167 v -3.13021 l -2.572916,-4.5 h 1.4375 l 1.807291,3.25521 1.8125,-3.25521 h 1.432292 z"/><path id="path20051" d="m 47.653644,224.78356 v 2.80729 h -1.354166 v -7.625 q 1.354166,-0.0573 1.583333,-0.0573 1.807292,0 2.640625,0.55729 0.838542,0.55208 0.838542,1.72917 0,2.625 -3.09375,2.625 -0.229167,0 -0.614584,-0.0365 z m 0,-3.64583 v 2.4427 q 0.34375,0.0365 0.541667,0.0365 0.927083,0 1.354167,-0.30729 0.427083,-0.3125 0.427083,-1.01042 0,-1.1875 -1.911458,-1.1875 -0.213542,0 -0.411459,0.026 z"/><path id="path20053" d="m 53.924478,221.16377 v 1.78646 h 2.520834 v 1.15104 h -2.520834 v 2.28646 h 3.458334 v 1.20312 h -4.8125 v -7.63021 h 4.869791 v 1.20313 z"/></g></g><g style="display:none;opacity:.169" id="layer5"><path id="path17444" d="M 0,0 V 380 M 15,0 V 380 M 30,0 V 380 M 45,0 V 380 M 60,0 V 380 M 75,0 V 380 M 90,0 V 380 M 0,0 H 90 M 0,15 H 90 M 0,30 H 90 M 0,45 H 90 M 0,60 H 90 M 0,75 H 90 M 0,90 H 90 M 0,105 H 90 M 0,120 H 90 M 0,135 H 90 M 0,150 H 90 M 0,165 H 90 M 0,180 H 90 M 0,195 H 90 M 0,210 H 90 M 0,225 H 90 M 0,240 H 90 M 0,255 H 90 M 0,270 H 90 M 0,285 H 90 M 0,300 H 90 M 0,315 H 90 M 0,330 H 90 M 0,345 H 90 M 0,360 H 90 M 0,375 h 90" style="display:inline;fill:none;stroke:#000;stroke-width:.5px"/><path id="path17446" d="M 0,0 V 380 M 3,0 V 380 M 6,0 V 380 M 9,0 V 380 M 12,0 V 380 M 15,0 V 380 M 18,0 V 380 M 21,0 V 380 M 24,0 V 380 M 27,0 V 380 M 30,0 V 380 M 33,0 V 380 M 36,0 V 380 M 39,0 V 380 M 42,0 V 380 M 45,0 V 380 M 48,0 V 380 M 51,0 V 380 M 54,0 V 380 M 57,0 V 380 M 60,0 V 380 M 63,0 V 380 M 66,0 V 380 M 69,0 V 380 M 72,0 V 380 M 75,0 V 380 M 78,0 V 380 M 81,0 V 380 M 84,0 V 380 M 87,0 V 380 M 90,0 V 380 M 0,0 H 90 M 0,15 H 90 M 0,30 H 90 M 0,45 H 90 M 0,60 H 90 M 0,75 H 90 M 0,90 H 90 M 0,105 H 90 M 0,120 H 90 M 0,135 H 90 M 0,150 H 90 M 0,165 H 90 M 0,180 H 90 M 0,195 H 90 M 0,210 H 90 M 0,225 H 90 M 0,240 H 90 M 0,255 H 90 M 0,270 H 90 M 0,285 H 90 M 0,300 H 90 M 0,315 H 90 M 0,330 H 90 M 0,345 H 90 M 0,360 H 90 M 0,375 h 90" style="display:inline;fill:none;stroke:#000;stroke-width:.2px"/><path id="path17448" d="M 0,0 V 380 M 3,0 V 380 M 6,0 V 380 M 9,0 V 380 M 12,0 V 380 M 15,0 V 380 M 18,0 V 380 M 21,0 V 380 M 24,0 V 380 M 27,0 V 380 M 30,0 V 380 M 33,0 V 380 M 36,0 V 380 M 39,0 V 380 M 42,0 V 380 M 45,0 V 380 M 48,0 V 380 M 51,0 V 380 M 54,0 V 380 M 57,0 V 380 M 60,0 V 380 M 63,0 V 380 M 66,0 V 380 M 69,0 V 380 M 72,0 V 380 M 75,0 V 380 M 78,0 V 380 M 81,0 V 380 M 84,0 V 380 M 87,0 V 380 M 90,0 V 380 M 0,0 H 90 M 0,3 H 90 M 0,6 H 90 M 0,9 H 90 M 0,12 H 90 M 0,15 H 90 M 0,18 H 90 M 0,21 H 90 M 0,24 H 90 M 0,27 H 90 M 0,30 H 90 M 0,33 H 90 M 0,36 H 90 M 0,39 H 90 M 0,42 H 90 M 0,45 H 90 M 0,48 H 90 M 0,51 H 90 M 0,54 H 90 M 0,57 H 90 M 0,60 H 90 M 0,63 H 90 M 0,66 H 90 M 0,69 H 90 M 0,72 H 90 M 0,75 H 90 M 0,78 H 90 M 0,81 H 90 M 0,84 H 90 M 0,87 H 90 M 0,90 H 90 M 0,93 H 90 M 0,96 H 90 M 0,99 h 90 m -90,3 h 90 m -90,3 h 90 m -90,3 h 90 m -90,3 h 90 m -90,3 h 90 m -90,3 h 90 m -90,3 h 90 m -90,3 h 90 m -90,3 h 90 m -90,3 h 90 m -90,3 h 90 m -90,3 h 90 m -90,3 h 90 m -90,3 h 90 m -90,3 h 90 m -90,3 h 90 m -90,3 h 90 m -90,3 h 90 m -90,3 h 90 m -90,3 h 90 m -90,3 h 90 m -90,3 h 90 m -90,3 h 90 m -90,3 h 90 m -90,3 h 90 m -90,3 h 90 m -90,3 h 90 m -90,3 h 90 m -90,3 h 90 m -90,3 h 90 m -90,3 h 90 m -90,3 h 90 m -90,3 h 90 m -90,3 h 90 m -90,3 h 90 m -90,3 h 90 m -90,3 h 90 m -90,3 h 90 m -90,3 h 90 m -90,3 h 90 m -90,3 h 90 m -90,3 h 90 m -90,3 h 90 m -90,3 h 90 m -90,3 h 90 m -90,3 h 90 m -90,3 h 90 m -90,3 h 90 m -90,3 h 90 m -90,3 h 90 m -90,3 h 90 m -90,3 h 90 m -90,3 h 90 m -90,3 h 90 m -90,3 h 90 m -90,3 h 90 m -90,3 h 90 m -90,3 h 90 m -90,3 h 90 m -90,3 h 90 m -90,3 h 90 m -90,3 h 90 m -90,3 h 90 m -90,3 h 90 m -90,3 h 90 m -90,3 h 90 m -90,3 h 90 m -90,3 h 90 m -90,3 h 90 m -90,3 h 90 m -90,3 h 90 m -90,3 h 90 m -90,3 h 90 m -90,3 h 90 m -90,3 h 90 m -90,3 h 90 m -90,3 h 90 m -90,3 h 90 m -90,3 h 90 m -90,3 h 90 m -90,3 h 90 m -90,3 h 90 m -90,3 h 90 m -90,3 h 90 m -90,3 h 90 m -90,3 h 90 m -90,3 h 90 m -90,3 h 90 m -90,3 h 90 m -90,3 h 90 m -90,3 h 90 m -90,3 h 90 m -90,3 h 90" style="display:inline;fill:#b7c8c4;stroke:#000;stroke-width:.1px"/></g><g style="display:inline" id="layer7"><g id="text17492" aria-label="1/HZ" style="font-style:normal;font-variant:normal;font-weight:700;font-stretch:normal;font-size:10.66666698px;line-height:1.25;font-family:'Trebuchet MS';-inkscape-font-specification:'Trebuchet MS, Bold';font-variant-ligatures:normal;font-variant-caps:normal;font-variant-numeric:normal;font-feature-settings:normal;text-align:center;letter-spacing:0;word-spacing:0;writing-mode:lr-tb;text-anchor:middle;display:none;fill:#000;fill-opacity:1;stroke:none"><path id="path17494" d="m 34.971999,169.57994 v -5.5 l -1.552084,0.93229 v -1.30208 q 1.494792,-0.72396 2.364584,-1.79167 h 0.541666 v 7.66146 z"/><path id="path17496" d="M 39.513665,169.57994 H 38.34179 l 2.880209,-7.66146 h 1.161458 z"/><path id="path17498" d="m 47.596999,169.57994 v -3.4375 h -3.036458 v 3.4375 h -1.354167 v -7.63021 h 1.354167 v 2.98959 h 3.036458 v -2.98959 h 1.338542 v 7.63021 z"/><path id="path17500" d="m 50.133457,169.57994 v -0.4375 l 3.182292,-5.98958 h -3.130208 v -1.20313 h 4.973958 v 0.4375 l -3.192708,5.98959 h 3.307292 v 1.20312 z"/></g><g id="text17569" aria-label="Alikins" transform="translate(-12,8)" style="font-style:normal;font-variant:normal;font-weight:700;font-stretch:normal;font-size:10.66666698px;line-height:1.25;font-family:'Trebuchet MS';-inkscape-font-specification:'Trebuchet MS, Bold';font-variant-ligatures:normal;font-variant-caps:normal;font-variant-numeric:normal;font-feature-settings:normal;text-align:center;letter-spacing:0;word-spacing:0;writing-mode:lr-tb;text-anchor:middle;opacity:.2681564;fill:#000;fill-opacity:1;stroke:none"><path id="path17571" d="m 32.985402,369.17804 -0.557292,-1.54688 h -2.614583 l -0.53125,1.54688 h -1.505208 l 3.041666,-7.73438 h 0.59375 l 3.067709,7.73438 z m -1.869792,-5.40104 -0.916666,2.81771 h 1.833333 z"/><path id="path17573" d="m 35.42811,361.52179 1.302084,-0.3125 v 6.27083 q 0,1.03125 0.614583,1.22917 -0.302083,0.57292 -1.03125,0.57292 -0.885417,0 -0.885417,-1.22917 z"/><path id="path17575" d="m 39.370819,361.43846 q 0.3125,0 0.53125,0.22395 0.223959,0.21875 0.223959,0.53125 0,0.3125 -0.223959,0.53646 -0.21875,0.21875 -0.53125,0.21875 -0.3125,0 -0.536458,-0.21875 -0.21875,-0.22396 -0.21875,-0.53646 0,-0.3125 0.21875,-0.53125 0.223958,-0.22395 0.536458,-0.22395 z m -0.671875,7.73958 v -4.51042 h -0.713541 v -1.06771 h 2.03125 v 5.57813 z"/><path id="path17577" d="m 45.105194,369.17804 -1.640625,-2.52604 -0.625,0.66146 v 1.86458 h -1.302083 v -7.65625 l 1.302083,-0.3125 v 4.53125 l 1.859375,-2.14063 h 1.567709 l -1.885417,2.11459 2.270833,3.46354 z"/><path id="path17579" d="m 48.412485,361.43846 q 0.3125,0 0.53125,0.22395 0.223959,0.21875 0.223959,0.53125 0,0.3125 -0.223959,0.53646 -0.21875,0.21875 -0.53125,0.21875 -0.3125,0 -0.536458,-0.21875 -0.21875,-0.22396 -0.21875,-0.53646 0,-0.3125 0.21875,-0.53125 0.223958,-0.22395 0.536458,-0.22395 z m -0.671875,7.73958 v -4.51042 h -0.713541 v -1.06771 h 2.03125 v 5.57813 z"/><path id="path17581" d="m 54.167694,369.17804 v -3.22396 q 0,-0.71354 -0.276042,-1.04167 -0.270833,-0.32812 -0.890625,-0.32812 -0.286458,0 -0.614583,0.16146 -0.322917,0.16146 -0.505209,0.40104 v 4.03125 h -1.302083 v -5.57813 h 0.9375 l 0.239583,0.52084 q 0.53125,-0.625 1.567709,-0.625 0.994791,0 1.567708,0.59896 0.578125,0.59375 0.578125,1.66145 v 3.42188 z"/><path id="path17583" d="m 56.52707,368.81866 0.463542,-1.03645 q 0.583333,0.46354 1.317708,0.46354 0.760417,0 0.760417,-0.54167 0,-0.31771 -0.229167,-0.52083 -0.229167,-0.20313 -0.890625,-0.47917 -1.442708,-0.59896 -1.442708,-1.67708 0,-0.72396 0.552083,-1.125 0.552083,-0.40625 1.411458,-0.40625 0.869792,0 1.635417,0.39062 l -0.375,1.01042 q -0.427083,-0.36458 -1.1875,-0.36458 -0.682292,0 -0.682292,0.54166 0,0.21354 0.223959,0.38542 0.223958,0.17187 0.958333,0.46354 0.734375,0.28646 1.057292,0.69792 0.322916,0.41146 0.322916,0.99479 0,0.77604 -0.578125,1.22396 -0.572916,0.44271 -1.5625,0.44271 -0.557291,0 -0.895833,-0.0937 -0.333333,-0.0885 -0.859375,-0.3698 z"/></g><g id="text20480" aria-label="OCT" style="font-style:normal;font-variant:normal;font-weight:700;font-stretch:normal;font-size:10.66666698px;line-height:1.25;font-family:'Trebuchet MS';-inkscape-font-specification:'Trebuchet MS, Bold';font-variant-ligatures:normal;font-variant-caps:normal;font-variant-numeric:normal;font-feature-settings:normal;text-align:center;letter-spacing:0;word-spacing:0;writing-mode:lr-tb;text-anchor:middle;display:none;fill:#000;fill-opacity:1;stroke:none;enable-background:new"><path id="path20488" d="m 35.41229,293.64527 q 0,-1.6302 0.890625,-2.7552 0.895833,-1.13021 2.390625,-1.13021 1.645833,0 2.515625,1.02083 0.869792,1.02083 0.869792,2.86458 0,1.84375 -0.911459,2.92709 -0.90625,1.08333 -2.578125,1.08333 -1.536458,0 -2.359375,-1.07292 -0.817708,-1.07291 -0.817708,-2.9375 z m 1.40625,0 q 0,1.33855 0.453125,2.07292 0.453125,0.73438 1.317708,0.73438 1.015625,0 1.546875,-0.71875 0.536458,-0.71875 0.536458,-2.08855 0,-2.68229 -1.979166,-2.68229 -0.90625,0 -1.390625,0.72917 -0.484375,0.72396 -0.484375,1.95312 z"/><path id="path20490" d="m 48.50604,290.30152 -0.557292,1.1198 q -0.453125,-0.45313 -1.458333,-0.45313 -0.953125,0 -1.5625,0.80208 -0.609375,0.79688 -0.609375,2.02084 0,1.22396 0.5625,1.94271 0.567708,0.71875 1.510416,0.71875 1.078125,0 1.6875,-0.77084 l 0.630209,1.09375 q -0.828125,0.88021 -2.427084,0.88021 -1.598958,0 -2.484375,-1.05208 -0.885416,-1.05209 -0.885416,-2.86979 0,-1.69271 0.979166,-2.82813 0.984375,-1.14062 2.515625,-1.14062 1.3125,0 2.098959,0.53645 z"/><path id="path20492" d="m 52.901874,291.0984 v 6.42708 h -1.354167 v -6.42708 h -2.427083 v -1.20313 h 6.317708 v 1.20313 z"/></g><g id="text2071" aria-label="Hovered Value" transform="translate(0,0.5)" style="font-style:normal;font-variant:normal;font-weight:700;font-stretch:normal;font-size:10.66666698px;line-height:1.25;font-family:'Trebuchet MS';-inkscape-font-specification:'Trebuchet MS, Bold';font-variant-ligatures:normal;font-variant-caps:normal;font-variant-numeric:normal;font-feature-settings:normal;text-align:center;letter-spacing:0;word-spacing:0;writing-mode:lr-tb;text-anchor:middle;fill:#000;fill-opacity:1;stroke:none"><path id="path2073" d="m 13.907081,27.256096 v -3.4375 h -3.036459 v 3.4375 H 9.5164555 v -7.630209 h 1.3541665 v 2.989584 h 3.036459 v -2.989584 h 1.338541 v 7.630209 z"/><path id="path2075" d="m 16.365414,24.454012 q 0,-1.276041 0.734375,-2.078125 0.739584,-0.802083 1.947917,-0.802083 1.270833,0 1.973958,0.770833 0.703125,0.770834 0.703125,2.109375 0,1.333334 -0.71875,2.119792 -0.713541,0.786459 -1.958333,0.786459 -1.270833,0 -1.979167,-0.791667 -0.703125,-0.796875 -0.703125,-2.114584 z m 1.354167,0 q 0,1.843751 1.328125,1.843751 0.609375,0 0.963542,-0.479167 0.359375,-0.479167 0.359375,-1.364584 0,-1.817708 -1.322917,-1.817708 -0.609375,0 -0.96875,0.479167 -0.359375,0.479166 -0.359375,1.338541 z"/><path id="path2077" d="m 25.084165,27.360263 h -0.46875 l -2.520834,-5.682292 h 1.427084 l 1.333333,3.40625 1.432292,-3.40625 h 1.380208 z"/><path id="path2079" d="m 33.375831,24.865471 h -3.984375 q 0.03646,0.666667 0.458334,1.036458 0.421875,0.369792 1.135416,0.369792 0.890625,0 1.354167,-0.463542 l 0.505208,0.994792 q -0.6875,0.557292 -2.052083,0.557292 -1.276042,0 -2.020833,-0.744792 -0.739584,-0.75 -0.739584,-2.088542 0,-1.317708 0.8125,-2.135417 0.817709,-0.817708 1.958334,-0.817708 1.213541,0 1.947916,0.723958 0.734375,0.723959 0.734375,1.84375 0,0.239584 -0.109375,0.723959 z m -3.9375,-0.979167 h 2.739584 q -0.135417,-1.223958 -1.354167,-1.223958 -1.114583,0 -1.385417,1.223958 z"/><path id="path2081" d="m 37.745623,22.891512 q -0.348958,-0.229166 -0.765625,-0.229166 -0.453125,0 -0.807292,0.411458 -0.348958,0.411458 -0.348958,1.005208 v 3.177084 h -1.302083 v -5.578125 h 1.302083 v 0.510416 q 0.546875,-0.614583 1.453125,-0.614583 0.666667,0 1.020833,0.203125 z"/><path id="path2083" d="m 44.063331,24.865471 h -3.984375 q 0.03646,0.666667 0.458334,1.036458 0.421875,0.369792 1.135416,0.369792 0.890625,0 1.354167,-0.463542 l 0.505208,0.994792 q -0.6875,0.557292 -2.052083,0.557292 -1.276042,0 -2.020833,-0.744792 -0.739584,-0.75 -0.739584,-2.088542 0,-1.317708 0.8125,-2.135417 0.817709,-0.817708 1.958334,-0.817708 1.213541,0 1.947916,0.723958 0.734375,0.723959 0.734375,1.84375 0,0.239584 -0.109375,0.723959 z m -3.9375,-0.979167 h 2.739584 q -0.135417,-1.223958 -1.354167,-1.223958 -1.114583,0 -1.385417,1.223958 z"/><path id="path2085" d="m 48.797708,27.256096 v -0.338542 q -0.161458,0.177084 -0.546875,0.3125 -0.385417,0.130209 -0.796875,0.130209 -1.166667,0 -1.838542,-0.739584 -0.666666,-0.739583 -0.666666,-2.0625 0,-1.322917 0.765625,-2.151042 0.770833,-0.833333 1.927083,-0.833333 0.635417,0 1.15625,0.260417 v -2.234375 l 1.302084,-0.3125 v 7.96875 z m 0,-4.244792 q -0.416666,-0.333333 -0.869792,-0.333333 -0.78125,0 -1.203125,0.479166 -0.421875,0.473959 -0.421875,1.364584 0,1.739583 1.677084,1.739583 0.1875,0 0.458333,-0.109375 0.276042,-0.114583 0.359375,-0.229166 z"/><path id="path2087" d="m 57.526874,27.360263 h -0.744792 l -2.854167,-7.734376 h 1.489583 l 1.765626,5.15625 1.864583,-5.15625 h 1.458333 z"/><path id="path2089" d="m 64.334165,26.698804 q -0.177083,0.291667 -0.619791,0.479167 -0.4375,0.182292 -0.916667,0.182292 -0.901042,0 -1.416667,-0.447917 -0.515625,-0.453125 -0.515625,-1.28125 0,-0.96875 0.723958,-1.515625 0.729167,-0.546875 2.067709,-0.546875 0.229167,0 0.541667,0.07813 0,-0.984375 -1.244792,-0.984375 -0.734375,0 -1.229167,0.244791 l -0.28125,-1.010416 q 0.671875,-0.322917 1.598959,-0.322917 1.276041,0 1.869791,0.583333 0.59375,0.578125 0.59375,2.197917 v 1.192709 q 0,1.114583 0.447917,1.401041 -0.161458,0.28125 -0.359375,0.34375 -0.197917,0.06771 -0.453125,0.06771 -0.28125,0 -0.505208,-0.208334 -0.223959,-0.208333 -0.302084,-0.453125 z m -0.125,-2.067708 q -0.333333,-0.06771 -0.5,-0.06771 -1.541666,0 -1.541666,1.010417 0,0.75 0.869791,0.75 1.171875,0 1.171875,-1.171875 z"/><path id="path2091" d="m 67.141457,19.599846 1.302083,-0.3125 v 6.270833 q 0,1.03125 0.614584,1.229167 -0.302084,0.572917 -1.03125,0.572917 -0.885417,0 -0.885417,-1.229167 z"/><path id="path2093" d="m 73.657081,27.261304 v -0.46875 q -0.276042,0.234375 -0.760417,0.401042 -0.484375,0.166667 -0.890625,0.166667 -1.942708,0 -1.942708,-2.062501 v -3.619791 h 1.302083 v 3.520833 q 0,1.072917 0.963542,1.072917 0.442708,0 0.822916,-0.229167 0.380209,-0.229166 0.505209,-0.53125 v -3.833333 h 1.302083 v 5.583333 z"/><path id="path2095" d="m 81.354997,24.865471 h -3.984375 q 0.03646,0.666667 0.458334,1.036458 0.421875,0.369792 1.135416,0.369792 0.890625,0 1.354167,-0.463542 l 0.505208,0.994792 q -0.6875,0.557292 -2.052083,0.557292 -1.276042,0 -2.020833,-0.744792 -0.739584,-0.75 -0.739584,-2.088542 0,-1.317708 0.8125,-2.135417 0.817709,-0.817708 1.958334,-0.817708 1.213541,0 1.947916,0.723958 0.734375,0.723959 0.734375,1.84375 0,0.239584 -0.109375,0.723959 z m -3.9375,-0.979167 h 2.739584 q -0.135417,-1.223958 -1.354167,-1.223958 -1.114583,0 -1.385417,1.223958 z"/></g><rect id="rect10669" width="14" height="20" x="14.429" y="321.67" style="display:none;opacity:1;fill:#6000f5;fill-opacity:1;fill-rule:evenodd;stroke:none;stroke-width:.60078484;stroke-miterlimit:4;stroke-dasharray:none;stroke-dashoffset:0;stroke-opacity:.83009709"/></g><g style="display:none" id="layer2"><rect id="rect11192" width="18.638" height="38.478" x="16.856" y="253.744" style="display:none;opacity:1;fill:#6000f5;fill-opacity:1;fill-rule:evenodd;stroke:none;stroke-width:.685;stroke-miterlimit:4;stroke-dasharray:none;stroke-dashoffset:0;stroke-opacity:.83009709"/></g><g style="display:inline" id="layer1"><g id="text19392" aria-label="VALUE" transform="translate(0,1)" style="font-style:normal;font-variant:normal;font-weight:700;font-stretch:normal;font-size:10.66666698px;line-height:1.25;font-family:'Trebuchet MS';-inkscape-font-specification:'Trebuchet MS, Bold';font-variant-ligatures:normal;font-variant-caps:normal;font-variant-numeric:normal;font-feature-settings:normal;text-align:center;letter-spacing:0;word-spacing:0;writing-mode:lr-tb;text-anchor:middle;display:inline;fill:#000;fill-opacity:1;stroke:none"><path id="path19394" d="m 32.536457,69.064868 h -0.744792 l -2.854167,-7.734376 h 1.489584 l 1.765625,5.156251 1.864583,-5.156251 h 1.458333 z"/><path id="path19396" d="M 40.770832,68.960701 40.21354,67.413826 h -2.614583 l -0.53125,1.546875 h -1.505209 l 3.041667,-7.734375 h 0.59375 l 3.067708,7.734375 z m -1.869792,-5.401042 -0.916667,2.817709 h 1.833334 z"/><path id="path19398" d="m 43.067707,68.960701 v -7.630209 h 1.354166 v 6.427084 h 3.447917 v 1.203125 z"/><path id="path19400" d="m 48.963541,61.330492 h 1.354166 v 5.171876 q 0,0.614583 0.375,1 0.375,0.385416 1.03125,0.385416 0.734375,0 1.140625,-0.375 0.411459,-0.380208 0.411459,-1.036458 v -5.145834 h 1.354166 v 5.250001 q 0,1.177083 -0.791666,1.84375 -0.786459,0.666666 -2.104167,0.666666 -1.328125,0 -2.052083,-0.651041 -0.71875,-0.651042 -0.71875,-1.864584 z"/><path id="path19402" d="m 57.546873,62.533617 v 1.786459 h 2.520834 v 1.151042 h -2.520834 v 2.286458 h 3.458334 v 1.203125 h -4.8125 v -7.630209 h 4.869791 v 1.203125 z"/></g><g style="font-style:normal;font-variant:normal;font-weight:700;font-stretch:normal;font-size:10.66666698px;line-height:1.25;font-family:'Trebuchet MS';-inkscape-font-specification:'Trebuchet MS, Bold';font-variant-ligatures:normal;font-variant-caps:normal;font-variant-numeric:normal;font-feature-settings:normal;text-align:center;letter-spacing:0;word-spacing:0;writing-mode:lr-tb;text-anchor:middle;display:none;fill:#010002;fill-opacity:1;stroke:none;enable-background:new" id="g19695" aria-label="OUT" transform="translate(28.884892,-3.64519)"><path id="path19689" d="m 33.656893,291.58686 q 0,-1.63021 0.890625,-2.75521 0.895833,-1.1302 2.390625,-1.1302 1.645834,0 2.515625,1.02083 0.869792,1.02083 0.869792,2.86458 0,1.84375 -0.911458,2.92709 -0.90625,1.08333 -2.578125,1.08333 -1.536459,0 -2.359376,-1.07292 -0.817708,-1.07291 -0.817708,-2.9375 z m 1.40625,0 q 0,1.33854 0.453125,2.07292 0.453125,0.73437 1.317709,0.73437 1.015625,0 1.546875,-0.71875 0.536458,-0.71875 0.536458,-2.08854 0,-2.68229 -1.979167,-2.68229 -0.90625,0 -1.390625,0.72917 -0.484375,0.72396 -0.484375,1.95312 z" style="fill:#010002;fill-opacity:1"/><path id="path19691" d="m 41.521476,287.83686 h 1.354167 v 5.17188 q 0,0.61458 0.375,1 0.375,0.38541 1.03125,0.38541 0.734375,0 1.140625,-0.375 0.411459,-0.3802 0.411459,-1.03645 v -5.14584 h 1.354166 v 5.25 q 0,1.17709 -0.791666,1.84375 -0.786459,0.66667 -2.104167,0.66667 -1.328125,0 -2.052084,-0.65104 -0.71875,-0.65104 -0.71875,-1.86459 z" style="fill:#010002;fill-opacity:1"/><path id="path19693" d="m 51.85481,289.03999 v 6.42708 h -1.354167 v -6.42708 H 48.07356 v -1.20313 h 6.317709 v 1.20313 z" style="fill:#010002;fill-opacity:1"/></g><g id="g19933" transform="translate(-1,2)" style="display:inline;enable-background:new"><g style="font-style:normal;font-variant:normal;font-weight:400;font-stretch:normal;font-size:8px;line-height:1.25;font-family:'Trebuchet MS';-inkscape-font-specification:'Trebuchet MS, Normal';font-variant-ligatures:normal;font-variant-caps:normal;font-variant-numeric:normal;font-feature-settings:normal;text-align:center;letter-spacing:0;word-spacing:0;writing-mode:lr-tb;text-anchor:middle;display:inline;fill:#000;fill-opacity:1;stroke:none;enable-background:new" id="text12284" aria-label="-5/+5" transform="translate(1.3616405,-3.00001)"><path id="path12338" d="m 22.38942,260.01215 v -0.6836 h 1.671875 v 0.6836 z" style="fill:#000;fill-opacity:1"/><path id="path12340" d="m 25.612076,259.19574 -0.265625,-0.18359 v -2.76954 h 2.847656 v 0.66407 h -2.105469 v 1.39062 q 0.289063,-0.21484 0.734375,-0.21484 0.796875,0 1.214844,0.47656 0.421875,0.47656 0.421875,1.35547 0,2.15234 -1.917969,2.15234 -0.800781,0 -1.328125,-0.44531 l 0.300782,-0.65234 q 0.53125,0.43359 1.023437,0.43359 1.101563,0 1.101563,-1.375 0,-1.28125 -1.085938,-1.28125 -0.523437,0 -0.941406,0.44922 z" style="fill:#000;fill-opacity:1"/><path id="path12342" d="m 30.276138,261.98871 h -0.628906 l 2.074219,-5.7461 h 0.621094 z" style="fill:#000;fill-opacity:1"/><path id="path12344" d="m 35.498795,259.2309 h 1.363281 v 0.55078 h -1.363281 v 1.34765 h -0.550782 v -1.34765 h -1.359375 v -0.55078 h 1.359375 v -1.33985 h 0.550782 z" style="fill:#000;fill-opacity:1"/><path id="path12346" d="m 38.221451,259.19574 -0.265625,-0.18359 v -2.76954 h 2.847656 v 0.66407 h -2.105469 v 1.39062 q 0.289063,-0.21484 0.734375,-0.21484 0.796875,0 1.214844,0.47656 0.421875,0.47656 0.421875,1.35547 0,2.15234 -1.917969,2.15234 -0.800781,0 -1.328125,-0.44531 l 0.300782,-0.65234 q 0.53125,0.43359 1.023437,0.43359 1.101563,0 1.101563,-1.375 0,-1.28125 -1.085938,-1.28125 -0.523437,0 -0.941406,0.44922 z" style="fill:#000;fill-opacity:1"/></g><g style="font-style:normal;font-variant:normal;font-weight:400;font-stretch:normal;font-size:8px;line-height:1.25;font-family:'Trebuchet MS';-inkscape-font-specification:'Trebuchet MS, Normal';font-variant-ligatures:normal;font-variant-caps:normal;font-variant-numeric:normal;font-feature-settings:normal;text-align:center;letter-spacing:0;word-spacing:0;writing-mode:lr-tb;text-anchor:middle;fill:#000;fill-opacity:1;stroke:none;enable-background:new" id="text12298" aria-label="0/+10" transform="translate(1.361641,-19.16922)"><path id="path12349" d="m 23.086021,284.53854 q 0,-1.23437 0.5,-2.01172 0.5,-0.77734 1.40625,-0.77734 0.898438,0 1.347657,0.64844 0.453125,0.64844 0.453125,2.26562 0,1.39063 -0.472657,2.19141 -0.472656,0.79687 -1.382812,0.79687 -0.910156,0 -1.382813,-0.64453 -0.46875,-0.64453 -0.46875,-2.46875 z m 0.78125,0.0703 q 0,2.3789 1.015625,2.3789 0.582032,0 0.855469,-0.52734 0.273438,-0.52735 0.273438,-1.84766 0,-0.91015 -0.105469,-1.33594 -0.105469,-0.42578 -0.339844,-0.64453 -0.234375,-0.21875 -0.59375,-0.21875 -1.105469,0 -1.105469,2.19532 z" style="fill:#000;fill-opacity:1"/><path id="path12351" d="m 28.406334,287.5737 h -0.628906 l 2.074218,-5.74609 h 0.621094 z" style="fill:#000;fill-opacity:1"/><path id="path12353" d="m 33.62899,284.81589 h 1.363281 v 0.55078 H 33.62899 v 1.34765 h -0.550781 v -1.34765 h -1.359375 v -0.55078 h 1.359375 v -1.33985 h 0.550781 z" style="fill:#000;fill-opacity:1"/><path id="path12355" d="m 37.390709,287.5737 v -4.38672 l -1.164063,0.72656 v -0.73047 q 0.441407,-0.22265 0.9375,-0.61328 0.5,-0.39062 0.773438,-0.74218 h 0.234375 v 5.74609 z" style="fill:#000;fill-opacity:1"/><path id="path12357" d="m 39.898521,284.53854 q 0,-1.23437 0.5,-2.01172 0.5,-0.77734 1.40625,-0.77734 0.898438,0 1.347657,0.64844 0.453125,0.64844 0.453125,2.26562 0,1.39063 -0.472657,2.19141 -0.472656,0.79687 -1.382812,0.79687 -0.910156,0 -1.382813,-0.64453 -0.46875,-0.64453 -0.46875,-2.46875 z m 0.78125,0.0703 q 0,2.3789 1.015625,2.3789 0.582032,0 0.855469,-0.52734 0.273438,-0.52735 0.273438,-1.84766 0,-0.91015 -0.105469,-1.33594 -0.105469,-0.42578 -0.339844,-0.64453 -0.234375,-0.21875 -0.59375,-0.21875 -1.105469,0 -1.105469,2.19532 z" style="fill:#000;fill-opacity:1"/></g><g style="font-style:normal;font-variant:normal;font-weight:400;font-stretch:normal;font-size:8px;line-height:1.25;font-family:'Trebuchet MS';-inkscape-font-specification:'Trebuchet MS, Normal';font-variant-ligatures:normal;font-variant-caps:normal;font-variant-numeric:normal;font-feature-settings:normal;text-align:center;letter-spacing:0;word-spacing:0;writing-mode:lr-tb;text-anchor:middle;display:inline;fill:#000;fill-opacity:1;stroke:none;enable-background:new" id="text12391" aria-label="-10/+10" transform="translate(-1.9999995,1)"><path id="path12393" d="m 25.75106,274.80463 v -0.6836 h 1.671875 v 0.6836 z" style="fill:#000;fill-opacity:1"/><path id="path12395" d="m 30.012779,276.78119 v -4.38672 l -1.164062,0.72656 v -0.73047 q 0.441406,-0.22265 0.9375,-0.61328 0.5,-0.39062 0.773437,-0.74218 h 0.234375 v 5.74609 z" style="fill:#000;fill-opacity:1"/><path id="path12397" d="m 32.520592,273.74603 q 0,-1.23437 0.5,-2.01172 0.5,-0.77734 1.40625,-0.77734 0.898437,0 1.347656,0.64844 0.453125,0.64844 0.453125,2.26562 0,1.39063 -0.472656,2.19141 -0.472657,0.79687 -1.382813,0.79687 -0.910156,0 -1.382812,-0.64453 -0.46875,-0.64453 -0.46875,-2.46875 z m 0.78125,0.0703 q 0,2.3789 1.015625,2.3789 0.582031,0 0.855468,-0.52734 0.273438,-0.52735 0.273438,-1.84766 0,-0.91015 -0.105469,-1.33594 -0.105469,-0.42578 -0.339844,-0.64453 -0.234375,-0.21875 -0.59375,-0.21875 -1.105468,0 -1.105468,2.19532 z" style="fill:#000;fill-opacity:1"/><path id="path12399" d="m 37.840904,276.78119 h -0.628906 l 2.074219,-5.74609 h 0.621093 z" style="fill:#000;fill-opacity:1"/><path id="path12401" d="m 43.06356,274.02338 h 1.363282 v 0.55078 H 43.06356 v 1.34765 h -0.550781 v -1.34765 h -1.359375 v -0.55078 h 1.359375 v -1.33985 h 0.550781 z" style="fill:#000;fill-opacity:1"/><path id="path12403" d="m 46.825279,276.78119 v -4.38672 l -1.164062,0.72656 v -0.73047 q 0.441406,-0.22265 0.9375,-0.61328 0.5,-0.39062 0.773437,-0.74218 h 0.234375 v 5.74609 z" style="fill:#000;fill-opacity:1"/><path id="path12405" d="m 49.333092,273.74603 q 0,-1.23437 0.5,-2.01172 0.5,-0.77734 1.40625,-0.77734 0.898437,0 1.347656,0.64844 0.453125,0.64844 0.453125,2.26562 0,1.39063 -0.472656,2.19141 -0.472657,0.79687 -1.382813,0.79687 -0.910156,0 -1.382812,-0.64453 -0.46875,-0.64453 -0.46875,-2.46875 z m 0.78125,0.0703 q 0,2.3789 1.015625,2.3789 0.582031,0 0.855468,-0.52734 0.273438,-0.52735 0.273438,-1.84766 0,-0.91015 -0.105469,-1.33594 -0.105469,-0.42578 -0.339844,-0.64453 -0.234375,-0.21875 -0.59375,-0.21875 -1.105468,0 -1.105468,2.19532 z" style="fill:#000;fill-opacity:1"/></g></g><g id="text19962" aria-label="SCALED OUTPUT" transform="translate(0,-8.5)" style="font-style:normal;font-variant:normal;font-weight:700;font-stretch:normal;font-size:8px;line-height:1.25;font-family:'Trebuchet MS';-inkscape-font-specification:'Trebuchet MS, Bold';font-variant-ligatures:normal;font-variant-caps:normal;font-variant-numeric:normal;font-feature-settings:normal;text-align:center;letter-spacing:0;word-spacing:0;writing-mode:lr-tb;text-anchor:middle;fill:#000;fill-opacity:1;stroke:none"><path id="path19968" d="m 14.435547,253.8703 0.375,-0.91016 q 0.601562,0.42188 1.183594,0.42188 0.894531,0 0.894531,-0.625 0,-0.29297 -0.210938,-0.55859 -0.210937,-0.26563 -0.871093,-0.59375 -0.65625,-0.33204 -0.886719,-0.54297 -0.226563,-0.21485 -0.351563,-0.50782 -0.121093,-0.29296 -0.121093,-0.64843 0,-0.66407 0.484375,-1.10157 0.488281,-0.4375 1.25,-0.4375 0.992187,0 1.457031,0.3711 l -0.308594,0.875 q -0.535156,-0.38281 -1.128906,-0.38281 -0.351563,0 -0.546875,0.1875 -0.191406,0.18359 -0.191406,0.48046 0,0.49219 1.089843,1.02344 0.574219,0.28125 0.828125,0.51953 0.253907,0.23438 0.386719,0.55078 0.132813,0.3125 0.132813,0.69922 0,0.69532 -0.550782,1.14453 -0.546875,0.44922 -1.46875,0.44922 -0.800781,0 -1.445312,-0.41406 z"/><path id="path19970" d="m 22.724609,248.76874 -0.417968,0.83984 q -0.339844,-0.33984 -1.09375,-0.33984 -0.714844,0 -1.171875,0.60156 -0.457032,0.59766 -0.457032,1.51563 0,0.91796 0.421875,1.45703 0.425782,0.53906 1.132813,0.53906 0.808594,0 1.265625,-0.57813 l 0.472656,0.82032 q -0.621094,0.66015 -1.820312,0.66015 -1.199219,0 -1.863282,-0.78906 -0.664062,-0.78906 -0.664062,-2.15234 0,-1.26953 0.734375,-2.1211 0.738281,-0.85547 1.886719,-0.85547 0.984375,0 1.574218,0.40235 z"/><path id="path19972" d="m 27.033203,254.18671 -0.417969,-1.16016 h -1.960937 l -0.398438,1.16016 h -1.128906 l 2.28125,-5.80078 h 0.445313 l 2.300781,5.80078 z m -1.402344,-4.05078 -0.6875,2.11328 h 1.375 z"/><path id="path19974" d="m 28.755859,254.18671 v -5.72266 h 1.015625 v 4.82031 h 2.585938 v 0.90235 z"/><path id="path19976" d="m 34.193359,249.36639 v 1.33985 h 1.890625 v 0.86328 h -1.890625 v 1.71484 h 2.59375 v 0.90235 h -3.609375 v -5.72266 h 3.652344 v 0.90234 z"/><path id="path19978" d="m 38.994141,254.18671 h -1.269532 v -5.71875 q 1.214844,-0.043 1.527344,-0.043 1.25,0 1.980469,0.73437 0.734375,0.73047 0.734375,1.94141 0,3.08594 -2.972656,3.08594 z m -0.253907,-4.83203 v 3.90625 q 0.246094,0.0234 0.53125,0.0234 0.769532,0 1.203125,-0.55859 0.4375,-0.55859 0.4375,-1.5625 0,-1.83594 -1.707031,-1.83594 -0.164062,0 -0.464844,0.0274 z"/><path id="path19980" d="m 44.998047,251.27655 q 0,-1.22266 0.667969,-2.06641 0.671875,-0.84765 1.792968,-0.84765 1.234375,0 1.886719,0.76562 0.652344,0.76563 0.652344,2.14844 0,1.38281 -0.683594,2.19531 -0.679687,0.8125 -1.933594,0.8125 -1.152343,0 -1.769531,-0.80468 -0.613281,-0.80469 -0.613281,-2.20313 z m 1.054687,0 q 0,1.00391 0.339844,1.55469 0.339844,0.55078 0.988281,0.55078 0.761719,0 1.160157,-0.53906 0.402343,-0.53907 0.402343,-1.56641 0,-2.01172 -1.484375,-2.01172 -0.679687,0 -1.042968,0.54688 -0.363282,0.54297 -0.363282,1.46484 z"/><path id="path19982" d="m 50.896484,248.46405 h 1.015625 v 3.87891 q 0,0.46093 0.28125,0.75 0.28125,0.28906 0.773438,0.28906 0.550781,0 0.855469,-0.28125 0.308593,-0.28516 0.308593,-0.77734 v -3.85938 h 1.015625 v 3.9375 q 0,0.88281 -0.59375,1.38281 -0.589843,0.5 -1.578125,0.5 -0.996093,0 -1.539062,-0.48828 -0.539063,-0.48828 -0.539063,-1.39844 z"/><path id="path19984" d="m 58.646484,249.36639 v 4.82032 h -1.015625 v -4.82032 h -1.820312 v -0.90234 h 4.738281 v 0.90234 z"/><path id="path19986" d="m 62.224609,252.08124 v 2.10547 h -1.015625 v -5.71875 q 1.015625,-0.043 1.1875,-0.043 1.355469,0 1.980469,0.41797 0.628906,0.41406 0.628906,1.29687 0,1.96875 -2.320312,1.96875 -0.171875,0 -0.460938,-0.0273 z m 0,-2.73438 v 1.83203 q 0.257813,0.0274 0.40625,0.0274 0.695313,0 1.015625,-0.23047 0.320313,-0.23438 0.320313,-0.75781 0,-0.89063 -1.433594,-0.89063 -0.160156,0 -0.308594,0.0195 z"/><path id="path19988" d="m 65.912109,248.46405 h 1.015625 v 3.87891 q 0,0.46093 0.28125,0.75 0.28125,0.28906 0.773438,0.28906 0.550781,0 0.855469,-0.28125 0.308593,-0.28516 0.308593,-0.77734 v -3.85938 h 1.015625 v 3.9375 q 0,0.88281 -0.59375,1.38281 -0.589843,0.5 -1.578125,0.5 -0.996093,0 -1.539062,-0.48828 -0.539063,-0.48828 -0.539063,-1.39844 z"/><path id="path19990" d="m 73.662109,249.36639 v 4.82032 h -1.015625 v -4.82032 h -1.820312 v -0.90234 h 4.738281 v 0.90234 z"/></g><g id="text19966" aria-label="OUT" style="font-style:normal;font-variant:normal;font-weight:700;font-stretch:normal;font-size:8px;line-height:1.25;font-family:'Trebuchet MS';-inkscape-font-specification:'Trebuchet MS, Bold';font-variant-ligatures:normal;font-variant-caps:normal;font-variant-numeric:normal;font-feature-settings:normal;text-align:center;letter-spacing:0;word-spacing:0;writing-mode:lr-tb;text-anchor:middle;display:none;fill:#000;fill-opacity:1;stroke:none"><path id="path19993" d="m 65.412201,291.93893 q 0,-1.22265 0.667969,-2.0664 0.671875,-0.84766 1.792968,-0.84766 1.234375,0 1.886719,0.76563 0.652344,0.76562 0.652344,2.14843 0,1.38282 -0.683594,2.19532 -0.679687,0.8125 -1.933594,0.8125 -1.152343,0 -1.769531,-0.80469 -0.613281,-0.80469 -0.613281,-2.20313 z m 1.054687,0 q 0,1.00391 0.339844,1.55469 0.339844,0.55078 0.988281,0.55078 0.761719,0 1.160157,-0.53906 0.402343,-0.53906 0.402343,-1.56641 0,-2.01171 -1.484375,-2.01171 -0.679687,0 -1.042968,0.54687 -0.363282,0.54297 -0.363282,1.46484 z"/><path id="path19995" d="m 71.310638,289.12643 h 1.015625 v 3.87891 q 0,0.46094 0.28125,0.75 0.28125,0.28906 0.773438,0.28906 0.550781,0 0.855469,-0.28125 0.308593,-0.28515 0.308593,-0.77734 v -3.85938 h 1.015625 v 3.9375 q 0,0.88282 -0.59375,1.38282 -0.589843,0.5 -1.578125,0.5 -0.996093,0 -1.539062,-0.48828 -0.539063,-0.48829 -0.539063,-1.39844 z"/><path id="path19997" d="m 79.060638,290.02878 v 4.82031 h -1.015625 v -4.82031 h -1.820312 v -0.90235 h 4.738281 v 0.90235 z"/></g></g></svg>