<svg xmlns="http://www.w3.org/2000/svg" xmlns:svg="http://www.w3.org/2000/svg" id="svg8" width="30" height="380" enable-background="new" version="1.1" viewBox="0 0 30 380" style="enable-background:new"><defs id="defs2"><filter style="color-interpolation-filters:sRGB" id="filter3142"><feBlend id="feBlend3144" in2="BackgroundImage" mode="luminosity"/></filter></defs><metadata id="metadata5"/><g id="layer2" style="display:inline;opacity:.8"><rect id="rect3211" width="34.34" height="388.732" x="-.684" y="-6.662" rx="0" ry="0" style="display:inline;opacity:1;fill:#ffe681;fill-opacity:1;fill-rule:evenodd;stroke:#000;stroke-width:.42512563;stroke-miterlimit:4;stroke-dasharray:0,4.67638157;stroke-dashoffset:0;stroke-opacity:.00485439;enable-background:new"/></g><g id="layer1" style="display:inline;filter:url(#filter3142)"><g style="font-style:normal;font-variant:normal;font-weight:700;font-stretch:normal;font-size:10.66666698px;line-height:1.25;font-family:'Trebuchet MS';-inkscape-font-specification:'Trebuchet MS, Bold';font-variant-ligatures:normal;font-variant-caps:normal;font-variant-numeric:normal;font-feature-settings:normal;text-align:center;letter-spacing:0;word-spacing:0;writing-mode:lr-tb;text-anchor:middle;display:inline;fill:#000;fill-opacity:1;stroke:none;enable-background:new" id="text3052" aria-label="-10V" transform="translate(-5.5e-7,313.18121)"><path id="path3201" d="m 3.7734381,39.552186 v -1.223958 h 2.7552084 v 1.223958 z"/><path id="path3203" d="m 10.085938,42.031353 v -5.5 l -1.5520831,0.932292 v -1.302084 q 1.4947921,-0.723958 2.3645831,-1.791667 h 0.541667 v 7.661459 z"/><path id="path3205" d="m 13.763022,37.984478 q 0,-1.5625 0.760416,-2.640625 0.765625,-1.078125 2.041667,-1.078125 2.661459,0 2.661459,3.885417 0,1.817708 -0.71875,2.901041 -0.71875,1.083334 -2.015625,1.083334 -1.395834,0 -2.062501,-1 -0.666666,-1 -0.666666,-3.151042 z m 1.40625,0.09375 q 0,1.526042 0.296875,2.244792 0.296875,0.71875 0.984375,0.71875 0.744792,0 1.057292,-0.645834 0.3125,-0.651041 0.3125,-2.3125 0,-1.546875 -0.302084,-2.135417 -0.296875,-0.588541 -0.979166,-0.588541 -1.369792,0 -1.369792,2.71875 z"/><path id="path3207" d="m 23.247396,42.13552 h -0.744792 l -2.854167,-7.734376 h 1.489584 l 1.765625,5.156251 1.864583,-5.156251 h 1.458334 z"/></g><g style="font-style:normal;font-variant:normal;font-weight:700;font-stretch:normal;font-size:10.66666698px;line-height:1.25;font-family:'Trebuchet MS';-inkscape-font-specification:'Trebuchet MS, Bold';font-variant-ligatures:normal;font-variant-caps:normal;font-variant-numeric:normal;font-feature-settings:normal;text-align:center;letter-spacing:0;word-spacing:0;writing-mode:lr-tb;text-anchor:middle;display:inline;fill:#000;fill-opacity:1;stroke:none;enable-background:new" id="text3058" aria-label="-5V" transform="translate(8.5e-7,212.63237)"><path id="path3194" d="m 6.8984363,90.179143 v -1.223958 h 2.7552084 v 1.223958 z"/><path id="path3196" d="m 11.10677,92.080185 0.536458,-1.114583 q 0.828125,0.645833 1.421875,0.645833 1.3125,0 1.3125,-1.614583 0,-0.776042 -0.296875,-1.130209 -0.296875,-0.359375 -0.994792,-0.359375 -0.630208,0 -1.229166,0.619792 l -0.536459,-0.348959 v -3.78125 h 4.109376 v 1.151042 h -2.807292 v 1.364583 q 0.34375,-0.15625 0.822916,-0.15625 1.125001,0 1.729167,0.651042 0.609375,0.651042 0.609375,1.84375 0,2.911459 -2.713542,2.911459 -1.125,0 -1.963541,-0.682292 z"/><path id="path3198" d="m 20.122395,92.762477 h -0.744792 l -2.854166,-7.734376 h 1.489583 l 1.765625,5.156251 1.864583,-5.156251 h 1.458334 z"/></g><g style="font-style:normal;font-variant:normal;font-weight:700;font-stretch:normal;font-size:10.66666698px;line-height:1.25;font-family:'Trebuchet MS';-inkscape-font-specification:'Trebuchet MS, Bold';font-variant-ligatures:normal;font-variant-caps:normal;font-variant-numeric:normal;font-feature-settings:normal;text-align:center;letter-spacing:0;word-spacing:0;writing-mode:lr-tb;text-anchor:middle;display:inline;fill:#000;fill-opacity:1;stroke:none;enable-background:new" id="text3064" aria-label="0V" transform="translate(8e-7,63.038895)"><path id="path3189" d="m 8.7682284,138.51739 q 0,-1.5625 0.7604166,-2.64062 0.765625,-1.07813 2.041667,-1.07813 2.661458,0 2.661458,3.88542 0,1.81771 -0.71875,2.90104 -0.71875,1.08334 -2.015625,1.08334 -1.395833,0 -2.0625,-1 -0.6666666,-1 -0.6666666,-3.15105 z m 1.4062496,0.0937 q 0,1.52605 0.296875,2.2448 0.296875,0.71875 0.984375,0.71875 0.744792,0 1.057292,-0.64584 0.3125,-0.65104 0.3125,-2.3125 0,-1.54687 -0.302083,-2.13541 -0.296875,-0.58855 -0.979167,-0.58855 -1.369792,0 -1.369792,2.71875 z"/><path id="path3191" d="m 18.252603,142.66844 h -0.744791 l -2.854167,-7.73438 h 1.489583 l 1.765625,5.15625 1.864584,-5.15625 h 1.458333 z"/></g><g style="font-style:normal;font-variant:normal;font-weight:700;font-stretch:normal;font-size:10.66666698px;line-height:1.25;font-family:'Trebuchet MS';-inkscape-font-specification:'Trebuchet MS, Bold';font-variant-ligatures:normal;font-variant-caps:normal;font-variant-numeric:normal;font-feature-settings:normal;text-align:center;letter-spacing:0;word-spacing:0;writing-mode:lr-tb;text-anchor:middle;display:inline;fill:#000;fill-opacity:1;stroke:none;enable-background:new" id="text3070" aria-label="+5V" transform="translate(-7e-7,-93.72458)"><path id="path3182" d="m 8.7343755,196.7496 v 1.84896 H 7.6875004 v -1.84896 h -1.8125 v -1.04688 h 1.8125 v -1.78646 h 1.0468751 v 1.78646 h 1.8177085 v 1.04688 z"/><path id="path3184" d="m 12.130209,198.95793 0.536458,-1.11458 q 0.828125,0.64583 1.421875,0.64583 1.3125,0 1.3125,-1.61458 0,-0.77604 -0.296875,-1.13021 -0.296875,-0.35938 -0.994792,-0.35938 -0.630208,0 -1.229166,0.6198 l -0.536459,-0.34896 v -3.78125 h 4.109376 v 1.15104 h -2.807292 v 1.36458 q 0.34375,-0.15625 0.822916,-0.15625 1.125,0 1.729167,0.65104 0.609375,0.65105 0.609375,1.84375 0,2.91146 -2.713542,2.91146 -1.125,0 -1.963541,-0.68229 z"/><path id="path3186" d="m 21.145834,199.64022 h -0.744792 l -2.854167,-7.73437 h 1.489584 l 1.765625,5.15625 1.864583,-5.15625 h 1.458334 z"/></g><g style="font-style:normal;font-variant:normal;font-weight:700;font-stretch:normal;font-size:10.66666698px;line-height:1.25;font-family:'Trebuchet MS';-inkscape-font-specification:'Trebuchet MS, Bold';font-variant-ligatures:normal;font-variant-caps:normal;font-variant-numeric:normal;font-feature-settings:normal;text-align:center;letter-spacing:0;word-spacing:0;writing-mode:lr-tb;text-anchor:middle;display:inline;fill:#000;fill-opacity:1;stroke:none;enable-background:new" id="text3076" aria-label="+10V" transform="translate(-1.5e-7,-193.87458)"><path id="path3173" d="m 5.6093754,247.08189 v 1.84896 H 4.5625003 v -1.84896 h -1.8125 v -1.04688 h 1.8125 v -1.78645 h 1.0468751 v 1.78645 h 1.8177084 v 1.04688 z"/><path id="path3175" d="m 11.109375,249.86835 v -5.5 l -1.552083,0.93229 v -1.30208 q 1.494792,-0.72396 2.364583,-1.79167 h 0.541667 v 7.66146 z"/><path id="path3177" d="m 14.786459,245.82147 q 0,-1.5625 0.760416,-2.64062 0.765625,-1.07813 2.041667,-1.07813 2.661458,0 2.661458,3.88542 0,1.81771 -0.71875,2.90104 -0.71875,1.08333 -2.015625,1.08333 -1.395833,0 -2.0625,-1 -0.666666,-1 -0.666666,-3.15104 z m 1.40625,0.0937 q 0,1.52604 0.296875,2.24479 0.296875,0.71875 0.984375,0.71875 0.744791,0 1.057291,-0.64583 0.3125,-0.65104 0.3125,-2.3125 0,-1.54687 -0.302083,-2.13542 -0.296875,-0.58854 -0.979167,-0.58854 -1.369791,0 -1.369791,2.71875 z"/><path id="path3179" d="m 24.270834,249.97251 h -0.744792 l -2.854167,-7.73437 h 1.489584 l 1.765625,5.15625 1.864583,-5.15625 H 27.25 Z"/></g><g style="font-style:normal;font-variant:normal;font-weight:700;font-stretch:normal;font-size:10.66666698px;line-height:1.25;font-family:'Trebuchet MS';-inkscape-font-specification:'Trebuchet MS, Bold';font-variant-ligatures:normal;font-variant-caps:normal;font-variant-numeric:normal;font-feature-settings:normal;text-align:start;letter-spacing:0;word-spacing:0;writing-mode:lr-tb;text-anchor:start;fill:#000;fill-opacity:1;stroke:none" id="text3277" aria-label="+1V" transform="translate(1.5e-7,-87.479159)"><path id="path3285" d="m 8.7343748,240.37397 v 1.84896 h -1.046875 v -1.84896 H 5.8749997 v -1.04687 h 1.8125001 v -1.78646 h 1.046875 v 1.78646 h 1.8177082 v 1.04687 z"/><path id="path3287" d="m 14.234375,243.16043 v -5.5 l -1.552084,0.93229 v -1.30208 q 1.494792,-0.72396 2.364584,-1.79167 h 0.541666 v 7.66146 z"/><path id="path3289" d="m 21.145833,243.2646 h -0.744792 l -2.854166,-7.73438 h 1.489583 l 1.765625,5.15625 1.864584,-5.15625 H 24.125 Z"/></g><g style="font-style:normal;font-variant:normal;font-weight:700;font-stretch:normal;font-size:10.66666698px;line-height:1.25;font-family:'Trebuchet MS';-inkscape-font-specification:'Trebuchet MS, Bold';font-variant-ligatures:normal;font-variant-caps:normal;font-variant-numeric:normal;font-feature-settings:normal;text-align:start;letter-spacing:0;word-spacing:0;writing-mode:lr-tb;text-anchor:start;fill:#000;fill-opacity:1;stroke:none" id="text3281" aria-label="-1V" transform="translate(-2e-7,107.89586)"><path id="path3292" d="m 6.8984374,145.04584 v -1.22396 h 2.7552084 v 1.22396 z"/><path id="path3294" d="m 13.210938,147.52501 v -5.5 l -1.552084,0.93229 v -1.30208 q 1.494792,-0.72396 2.364584,-1.79167 h 0.541666 v 7.66146 z"/><path id="path3296" d="m 20.122396,147.62918 h -0.744792 l -2.854166,-7.73438 h 1.489583 l 1.765625,5.15625 1.864583,-5.15625 h 1.458334 z"/></g></g></svg>