<svg xmlns="http://www.w3.org/2000/svg" xmlns:svg="http://www.w3.org/2000/svg" id="svg8" width="90" height="380" version="1.1" viewBox="0 0 23.813 100.542"><metadata id="metadata5"/><g style="display:inline" id="g1796" transform="translate(0,-196.45832)"><path style="opacity:1;vector-effect:none;fill:gray;fill-opacity:1;fill-rule:evenodd;stroke:none;stroke-width:.21073182;stroke-linecap:butt;stroke-linejoin:round;stroke-miterlimit:4;stroke-dasharray:none;stroke-dashoffset:0;stroke-opacity:1;paint-order:normal" id="path1187" d="m 0,365 v 15 H 30 60 90 V 365 H 60 30 Z m 7.5,4.25 h 15 c 1.8005,0 3.25,1.44951 3.25,3.25 0,1.80049 -1.4495,3.25 -3.25,3.25 h -15 c -1.8005,0 -3.25,-1.44951 -3.25,-3.25 0,-1.80049 1.4495,-3.25 3.25,-3.25 z m 30,0 h 15 c 1.800499,0 3.25,1.44951 3.25,3.25 0,1.80049 -1.449501,3.25 -3.25,3.25 h -15 c -1.8005,0 -3.25,-1.44951 -3.25,-3.25 0,-1.80049 1.4495,-3.25 3.25,-3.25 z m 30,0 h 15 c 1.800499,0 3.25,1.44951 3.25,3.25 0,1.80049 -1.449501,3.25 -3.25,3.25 h -15 c -1.800499,0 -3.25,-1.44951 -3.25,-3.25 0,-1.80049 1.449501,-3.25 3.25,-3.25 z" transform="matrix(0.26458334,0,0,0.26458334,0,196.45832)"/><path id="path1189" d="m 11.90625,200.42707 h 11.906251 v 92.60417 H 11.90625 Z m -11.90625,0 h 11.90625 v 92.60417 H 0 Z" style="opacity:1;vector-effect:none;fill:gray;fill-opacity:1;fill-rule:evenodd;stroke:none;stroke-width:.32985771;stroke-linecap:butt;stroke-linejoin:round;stroke-miterlimit:4;stroke-dasharray:none;stroke-dashoffset:0;stroke-opacity:1;paint-order:normal"/><path style="opacity:1;vector-effect:none;fill:gray;fill-opacity:1;fill-rule:evenodd;stroke:none;stroke-width:.21073182;stroke-linecap:butt;stroke-linejoin:round;stroke-miterlimit:4;stroke-dasharray:none;stroke-dashoffset:0;stroke-opacity:1;paint-order:normal" id="path1191" d="M 0,0 V 15 H 30 60 90 V 0 H 60 30 Z m 7.5,4.25 h 15 c 1.8005,0 3.25,1.4494709 3.25,3.25 0,1.8004913 -1.4495,3.25 -3.25,3.25 H 7.5 C 5.6995,10.75 4.25,9.3004913 4.25,7.5 4.25,5.6994709 5.6995,4.25 7.5,4.25 Z m 30,0 h 15 c 1.800499,0 3.25,1.4494709 3.25,3.25 0,1.8004913 -1.449501,3.25 -3.25,3.25 h -15 c -1.8005,0 -3.25,-1.4495087 -3.25,-3.25 0,-1.8005291 1.4495,-3.25 3.25,-3.25 z m 30,0 h 15 c 1.800499,0 3.25,1.4494709 3.25,3.25 0,1.8004913 -1.449501,3.25 -3.25,3.25 h -15 c -1.800499,0 -3.25,-1.4495087 -3.25,-3.25 0,-1.8005291 1.449501,-3.25 3.25,-3.25 z" transform="matrix(0.26458334,0,0,0.26458334,0,196.45832)"/><path id="path1193" d="m 11.90625,200.95623 h 11.906251 v 91.54584 H 11.90625 Z m -11.90625,0 h 11.90625 v 91.54584 H 0 Z" style="opacity:1;vector-effect:none;fill:#696969;fill-opacity:1;fill-rule:evenodd;stroke:none;stroke-width:.32796741;stroke-linecap:butt;stroke-linejoin:round;stroke-miterlimit:4;stroke-dasharray:none;stroke-dashoffset:0;stroke-opacity:1;paint-order:normal"/><g id="g963" style="display:none"><text id="text821" x="3.968" y="210.716" xml:space="preserve" style="font-style:normal;font-variant:normal;font-weight:400;font-stretch:normal;font-size:2.11666679px;line-height:1.25;font-family:'DejaVu Sans Mono';-inkscape-font-specification:'DejaVu Sans Mono, Normal';font-variant-ligatures:normal;font-variant-caps:normal;font-variant-numeric:normal;font-feature-settings:normal;text-align:center;letter-spacing:0;word-spacing:0;writing-mode:lr-tb;text-anchor:middle;fill:#000;fill-opacity:1;stroke:#dcdcdc;stroke-width:.00026458;stroke-miterlimit:4;stroke-dasharray:none"><tspan id="tspan999" x="3.968" y="210.716">A</tspan></text><text style="font-style:normal;font-variant:normal;font-weight:400;font-stretch:normal;font-size:2.11666679px;line-height:1.25;font-family:'DejaVu Sans Mono';-inkscape-font-specification:'DejaVu Sans Mono, Normal';font-variant-ligatures:normal;font-variant-caps:normal;font-variant-numeric:normal;font-feature-settings:normal;text-align:center;letter-spacing:0;word-spacing:0;writing-mode:lr-tb;text-anchor:middle;fill:#000;fill-opacity:1;stroke:#dcdcdc;stroke-width:.00026458;stroke-miterlimit:4;stroke-dasharray:none" id="text827" x="19.843" y="210.716" xml:space="preserve"><tspan id="tspan1001" x="19.843" y="210.716">B</tspan></text><text id="text833" x="11.905" y="210.716" xml:space="preserve" style="font-style:normal;font-variant:normal;font-weight:400;font-stretch:normal;font-size:2.11666679px;line-height:1.25;font-family:'DejaVu Sans Mono';-inkscape-font-specification:'DejaVu Sans Mono, Normal';font-variant-ligatures:normal;font-variant-caps:normal;font-variant-numeric:normal;font-feature-settings:normal;text-align:center;letter-spacing:0;word-spacing:0;writing-mode:lr-tb;text-anchor:middle;fill:#dcdcdc;fill-opacity:1;stroke:#000;stroke-width:.00026458;stroke-miterlimit:4;stroke-dasharray:none"><tspan id="tspan1003" x="11.905" y="210.716">OUT</tspan></text><text style="font-style:normal;font-variant:normal;font-weight:400;font-stretch:normal;font-size:2.11666679px;line-height:1.25;font-family:'DejaVu Sans Mono';-inkscape-font-specification:'DejaVu Sans Mono, Normal';font-variant-ligatures:normal;font-variant-caps:normal;font-variant-numeric:normal;font-feature-settings:normal;text-align:center;letter-spacing:0;word-spacing:0;writing-mode:lr-tb;text-anchor:middle;fill:#dcdcdc;fill-opacity:1;stroke:#000;stroke-width:.00026458;stroke-miterlimit:4;stroke-dasharray:none" id="text841" x="3.968" y="222.887" xml:space="preserve"><tspan id="tspan1005" x="3.968" y="222.887">A</tspan></text><text id="text847" x="19.843" y="222.887" xml:space="preserve" style="font-style:normal;font-variant:normal;font-weight:400;font-stretch:normal;font-size:2.11666679px;line-height:1.25;font-family:'DejaVu Sans Mono';-inkscape-font-specification:'DejaVu Sans Mono, Normal';font-variant-ligatures:normal;font-variant-caps:normal;font-variant-numeric:normal;font-feature-settings:normal;text-align:center;letter-spacing:0;word-spacing:0;writing-mode:lr-tb;text-anchor:middle;fill:#dcdcdc;fill-opacity:1;stroke:#000;stroke-width:.00026458;stroke-miterlimit:4;stroke-dasharray:none"><tspan id="tspan1007" x="19.843" y="222.887">B</tspan></text><text style="font-style:normal;font-variant:normal;font-weight:400;font-stretch:normal;font-size:2.11666679px;line-height:1.25;font-family:'DejaVu Sans Mono';-inkscape-font-specification:'DejaVu Sans Mono, Normal';font-variant-ligatures:normal;font-variant-caps:normal;font-variant-numeric:normal;font-feature-settings:normal;text-align:center;letter-spacing:0;word-spacing:0;writing-mode:lr-tb;text-anchor:middle;fill:#000;fill-opacity:1;stroke:#dcdcdc;stroke-width:.00026458;stroke-miterlimit:4;stroke-dasharray:none" id="text853" x="11.905" y="222.887" xml:space="preserve"><tspan id="tspan1009" x="11.905" y="222.887">IN</tspan></text><text style="font-style:normal;font-variant:normal;font-weight:400;font-stretch:normal;font-size:2.11666679px;line-height:1.25;font-family:'DejaVu Sans Mono';-inkscape-font-specification:'DejaVu Sans Mono, Normal';font-variant-ligatures:normal;font-variant-caps:normal;font-variant-numeric:normal;font-feature-settings:normal;text-align:center;letter-spacing:0;word-spacing:0;writing-mode:lr-tb;text-anchor:middle;fill:#000;fill-opacity:1;stroke:#dcdcdc;stroke-width:.00026458;stroke-miterlimit:4;stroke-dasharray:none" id="text869" x="3.968" y="284.27" xml:space="preserve"><tspan id="tspan1011" x="3.968" y="284.27">A</tspan></text><text id="text875" x="19.843" y="284.27" xml:space="preserve" style="font-style:normal;font-variant:normal;font-weight:400;font-stretch:normal;font-size:2.11666679px;line-height:1.25;font-family:'DejaVu Sans Mono';-inkscape-font-specification:'DejaVu Sans Mono, Normal';font-variant-ligatures:normal;font-variant-caps:normal;font-variant-numeric:normal;font-feature-settings:normal;text-align:center;letter-spacing:0;word-spacing:0;writing-mode:lr-tb;text-anchor:middle;fill:#000;fill-opacity:1;stroke:#dcdcdc;stroke-width:.00026458;stroke-miterlimit:4;stroke-dasharray:none"><tspan id="tspan1013" x="19.843" y="284.27">B</tspan></text><text style="font-style:normal;font-variant:normal;font-weight:400;font-stretch:normal;font-size:2.11666679px;line-height:1.25;font-family:'DejaVu Sans Mono';-inkscape-font-specification:'DejaVu Sans Mono, Normal';font-variant-ligatures:normal;font-variant-caps:normal;font-variant-numeric:normal;font-feature-settings:normal;text-align:center;letter-spacing:0;word-spacing:0;writing-mode:lr-tb;text-anchor:middle;fill:#dcdcdc;fill-opacity:1;stroke:#000;stroke-width:.00026458;stroke-miterlimit:4;stroke-dasharray:none" id="text881" x="11.905" y="284.27" xml:space="preserve"><tspan id="tspan1015" x="11.905" y="284.27">OUT</tspan></text><text id="text887" x="3.968" y="272.099" xml:space="preserve" style="font-style:normal;font-variant:normal;font-weight:400;font-stretch:normal;font-size:2.11666679px;line-height:1.25;font-family:'DejaVu Sans Mono';-inkscape-font-specification:'DejaVu Sans Mono, Normal';font-variant-ligatures:normal;font-variant-caps:normal;font-variant-numeric:normal;font-feature-settings:normal;text-align:center;letter-spacing:0;word-spacing:0;writing-mode:lr-tb;text-anchor:middle;fill:#dcdcdc;fill-opacity:1;stroke:#000;stroke-width:.00026458;stroke-miterlimit:4;stroke-dasharray:none"><tspan id="tspan1019" x="3.968" y="272.099">A</tspan></text><text style="font-style:normal;font-variant:normal;font-weight:400;font-stretch:normal;font-size:2.11666679px;line-height:1.25;font-family:'DejaVu Sans Mono';-inkscape-font-specification:'DejaVu Sans Mono, Normal';font-variant-ligatures:normal;font-variant-caps:normal;font-variant-numeric:normal;font-feature-settings:normal;text-align:center;letter-spacing:0;word-spacing:0;writing-mode:lr-tb;text-anchor:middle;fill:#dcdcdc;fill-opacity:1;stroke:#000;stroke-width:.00026458;stroke-miterlimit:4;stroke-dasharray:none" id="text893" x="19.843" y="272.099" xml:space="preserve"><tspan id="tspan1021" x="19.843" y="272.099">B</tspan></text><text id="text899" x="11.905" y="272.099" xml:space="preserve" style="font-style:normal;font-variant:normal;font-weight:400;font-stretch:normal;font-size:2.11666679px;line-height:1.25;font-family:'DejaVu Sans Mono';-inkscape-font-specification:'DejaVu Sans Mono, Normal';font-variant-ligatures:normal;font-variant-caps:normal;font-variant-numeric:normal;font-feature-settings:normal;text-align:center;letter-spacing:0;word-spacing:0;writing-mode:lr-tb;text-anchor:middle;fill:#000;fill-opacity:1;stroke:#dcdcdc;stroke-width:.00026458;stroke-miterlimit:4;stroke-dasharray:none"><tspan id="tspan1017" x="11.905" y="272.099">IN</tspan></text><text id="text1121" x="4.497" y="228.178" xml:space="preserve" style="font-style:normal;font-variant:normal;font-weight:400;font-stretch:normal;font-size:2.11666679px;line-height:1.25;font-family:'DejaVu Sans Mono';-inkscape-font-specification:'DejaVu Sans Mono, Normal';font-variant-ligatures:normal;font-variant-caps:normal;font-variant-numeric:normal;font-feature-settings:normal;text-align:center;letter-spacing:0;word-spacing:0;writing-mode:lr-tb;text-anchor:middle;fill:#dcdcdc;fill-opacity:1;stroke:#000;stroke-width:.00026458;stroke-miterlimit:4;stroke-dasharray:none"><tspan id="tspan1133" x="4.497" y="228.178">GATE</tspan></text><text style="font-style:normal;font-variant:normal;font-weight:400;font-stretch:normal;font-size:2.11666679px;line-height:1.25;font-family:'DejaVu Sans Mono';-inkscape-font-specification:'DejaVu Sans Mono, Normal';font-variant-ligatures:normal;font-variant-caps:normal;font-variant-numeric:normal;font-feature-settings:normal;text-align:center;letter-spacing:0;word-spacing:0;writing-mode:lr-tb;text-anchor:middle;fill:#dcdcdc;fill-opacity:1;stroke:#000;stroke-width:.00026458;stroke-miterlimit:4;stroke-dasharray:none" id="text1125" x="19.314" y="228.178" xml:space="preserve"><tspan id="tspan1137" x="19.314" y="228.178">FLIP</tspan></text><text id="text1129" x="11.905" y="228.178" xml:space="preserve" style="font-style:normal;font-variant:normal;font-weight:400;font-stretch:normal;font-size:2.11666679px;line-height:1.25;font-family:'DejaVu Sans Mono';-inkscape-font-specification:'DejaVu Sans Mono, Normal';font-variant-ligatures:normal;font-variant-caps:normal;font-variant-numeric:normal;font-feature-settings:normal;text-align:center;letter-spacing:0;word-spacing:0;writing-mode:lr-tb;text-anchor:middle;fill:#dcdcdc;fill-opacity:1;stroke:#000;stroke-width:.00026458;stroke-miterlimit:4;stroke-dasharray:none"><tspan id="tspan1135" x="11.905" y="228.178">TRIG</tspan></text><text style="font-style:normal;font-variant:normal;font-weight:400;font-stretch:normal;font-size:2.11666679px;line-height:1.25;font-family:'DejaVu Sans Mono';-inkscape-font-specification:'DejaVu Sans Mono, Normal';font-variant-ligatures:normal;font-variant-caps:normal;font-variant-numeric:normal;font-feature-settings:normal;text-align:center;letter-spacing:0;word-spacing:0;writing-mode:lr-tb;text-anchor:middle;fill:#dcdcdc;fill-opacity:1;stroke:#000;stroke-width:.00026458;stroke-miterlimit:4;stroke-dasharray:none" id="text1141" x="4.497" y="266.808" xml:space="preserve"><tspan id="tspan1151" x="4.497" y="266.808">FLOP</tspan></text><text id="text1145" x="19.314" y="266.808" xml:space="preserve" style="font-style:normal;font-variant:normal;font-weight:400;font-stretch:normal;font-size:2.11666679px;line-height:1.25;font-family:'DejaVu Sans Mono';-inkscape-font-specification:'DejaVu Sans Mono, Normal';font-variant-ligatures:normal;font-variant-caps:normal;font-variant-numeric:normal;font-feature-settings:normal;text-align:center;letter-spacing:0;word-spacing:0;writing-mode:lr-tb;text-anchor:middle;fill:#dcdcdc;fill-opacity:1;stroke:#000;stroke-width:.00026458;stroke-miterlimit:4;stroke-dasharray:none"><tspan id="tspan1153" x="19.314" y="266.808">GATE</tspan></text><text style="font-style:normal;font-variant:normal;font-weight:400;font-stretch:normal;font-size:2.11666679px;line-height:1.25;font-family:'DejaVu Sans Mono';-inkscape-font-specification:'DejaVu Sans Mono, Normal';font-variant-ligatures:normal;font-variant-caps:normal;font-variant-numeric:normal;font-feature-settings:normal;text-align:center;letter-spacing:0;word-spacing:0;writing-mode:lr-tb;text-anchor:middle;fill:#dcdcdc;fill-opacity:1;stroke:#000;stroke-width:.00026458;stroke-miterlimit:4;stroke-dasharray:none" id="text1149" x="11.905" y="266.808" xml:space="preserve"><tspan id="tspan1147" x="11.905" y="266.808">TRIG</tspan></text></g><g style="font-style:normal;font-variant:normal;font-weight:400;font-stretch:normal;font-size:2.11666679px;line-height:1.25;font-family:'DejaVu Sans Mono';-inkscape-font-specification:'DejaVu Sans Mono, Normal';font-variant-ligatures:normal;font-variant-caps:normal;font-variant-numeric:normal;font-feature-settings:normal;text-align:center;letter-spacing:0;word-spacing:0;writing-mode:lr-tb;text-anchor:middle;fill:#000;fill-opacity:1;stroke:#dcdcdc;stroke-width:.00026458;stroke-miterlimit:4;stroke-dasharray:none" id="text1025" aria-label="A"><path id="path1071" d="m 3.9678891,209.35662 -0.2201416,0.78962 h 0.4402832 z m -0.1260905,-0.18396 h 0.2532145 l 0.4723226,1.54305 H 4.3513282 L 4.2376401,210.31367 H 3.6971045 l -0.1116211,0.40204 H 3.3694759 Z"/></g><g style="font-style:normal;font-variant:normal;font-weight:400;font-stretch:normal;font-size:2.11666679px;line-height:1.25;font-family:'DejaVu Sans Mono';-inkscape-font-specification:'DejaVu Sans Mono, Normal';font-variant-ligatures:normal;font-variant-caps:normal;font-variant-numeric:normal;font-feature-settings:normal;text-align:center;letter-spacing:0;word-spacing:0;writing-mode:lr-tb;text-anchor:middle;fill:#000;fill-opacity:1;stroke:#dcdcdc;stroke-width:.00026458;stroke-miterlimit:4;stroke-dasharray:none" id="text1029" aria-label="B"><path id="path1074" d="m 19.587608,209.97881 v 0.56534 h 0.247014 q 0.181901,0 0.259415,-0.0631 0.07751,-0.0641 0.07751,-0.2098 0,-0.1509 -0.08165,-0.22118 -0.08165,-0.0713 -0.255281,-0.0713 z m 0,-0.63459 v 0.46509 h 0.242879 q 0.150896,0 0.218075,-0.0579 0.06821,-0.0579 0.06821,-0.18707 0,-0.11679 -0.06718,-0.16846 -0.06615,-0.0517 -0.219109,-0.0517 z m -0.209806,-0.17156 h 0.45682 q 0.236678,0 0.364835,0.10231 0.128158,0.10232 0.128158,0.28939 0,0.1416 -0.06821,0.22324 -0.06718,0.0816 -0.202572,0.10232 0.151929,0.0227 0.237712,0.13023 0.08682,0.10645 0.08682,0.27182 0,0.2098 -0.137459,0.31729 -0.137459,0.10645 -0.409277,0.10645 h -0.45682 z"/></g><g style="font-style:normal;font-variant:normal;font-weight:400;font-stretch:normal;font-size:2.11666679px;line-height:1.25;font-family:'DejaVu Sans Mono';-inkscape-font-specification:'DejaVu Sans Mono, Normal';font-variant-ligatures:normal;font-variant-caps:normal;font-variant-numeric:normal;font-feature-settings:normal;text-align:center;letter-spacing:0;word-spacing:0;writing-mode:lr-tb;text-anchor:middle;fill:#dcdcdc;fill-opacity:1;stroke:#000;stroke-width:.00026458;stroke-miterlimit:4;stroke-dasharray:none" id="text1033" aria-label="OUT"><path id="path1077" d="m 10.930768,209.94573 q 0,-0.34003 -0.07028,-0.48575 -0.06925,-0.14573 -0.228409,-0.14573 -0.15813,0 -0.22841,0.14573 -0.06925,0.14572 -0.06925,0.48575 0,0.339 0.06925,0.48473 0.07028,0.14573 0.22841,0.14573 0.159163,0 0.228409,-0.1447 0.07028,-0.14572 0.07028,-0.48576 z m 0.218075,0 q 0,0.40308 -0.128158,0.60152 -0.127124,0.19844 -0.388606,0.19844 -0.261483,0 -0.388607,-0.19741 -0.127124,-0.1974 -0.127124,-0.60255 0,-0.40411 0.127124,-0.60254 0.128157,-0.19844 0.388607,-0.19844 0.261482,0 0.388606,0.19844 0.128158,0.19843 0.128158,0.60254 z"/><path id="path1079" d="m 11.420661,210.1235 v -0.95084 h 0.209806 v 1.04593 q 0,0.11265 0.0062,0.16123 0.0062,0.0475 0.0217,0.0734 0.03307,0.061 0.09508,0.092 0.06305,0.031 0.151929,0.031 0.08992,0 0.151929,-0.031 0.06201,-0.031 0.09612,-0.092 0.0155,-0.0258 0.0217,-0.0734 0.0062,-0.0476 0.0062,-0.15917 v -1.04799 h 0.208773 v 0.95084 q 0,0.23668 -0.02997,0.33693 -0.02894,0.0992 -0.101286,0.16433 -0.06821,0.061 -0.156063,0.0909 -0.08785,0.03 -0.197404,0.03 -0.108521,0 -0.196371,-0.03 -0.08785,-0.03 -0.157096,-0.0909 -0.07131,-0.0641 -0.101286,-0.16536 -0.02997,-0.10232 -0.02997,-0.3359 z"/><path id="path1081" d="m 12.590615,209.17266 h 1.17719 v 0.1757 h -0.482658 v 1.36735 H 13.07534 v -1.36735 h -0.484725 z"/></g><g style="font-style:normal;font-variant:normal;font-weight:400;font-stretch:normal;font-size:2.11666679px;line-height:1.25;font-family:'DejaVu Sans Mono';-inkscape-font-specification:'DejaVu Sans Mono, Normal';font-variant-ligatures:normal;font-variant-caps:normal;font-variant-numeric:normal;font-feature-settings:normal;text-align:center;letter-spacing:0;word-spacing:0;writing-mode:lr-tb;text-anchor:middle;fill:#dcdcdc;fill-opacity:1;stroke:#000;stroke-width:.00026458;stroke-miterlimit:4;stroke-dasharray:none" id="text1037" aria-label="A" transform="translate(0,-0.52916669)"><path id="path1084" d="m 3.9678891,222.0566 -0.2201416,0.78962 h 0.4402832 z m -0.1260905,-0.18396 h 0.2532145 l 0.4723226,1.54306 H 4.3513282 L 4.2376401,223.01365 H 3.6971045 L 3.5854834,223.4157 H 3.3694759 Z"/></g><g style="font-style:normal;font-variant:normal;font-weight:400;font-stretch:normal;font-size:2.11666679px;line-height:1.25;font-family:'DejaVu Sans Mono';-inkscape-font-specification:'DejaVu Sans Mono, Normal';font-variant-ligatures:normal;font-variant-caps:normal;font-variant-numeric:normal;font-feature-settings:normal;text-align:center;letter-spacing:0;word-spacing:0;writing-mode:lr-tb;text-anchor:middle;fill:#dcdcdc;fill-opacity:1;stroke:#000;stroke-width:.00026458;stroke-miterlimit:4;stroke-dasharray:none" id="text1041" aria-label="B" transform="translate(0,-0.52916669)"><path id="path1087" d="m 19.587608,222.67879 v 0.56534 h 0.247014 q 0.181901,0 0.259415,-0.0631 0.07751,-0.0641 0.07751,-0.2098 0,-0.1509 -0.08165,-0.22118 -0.08165,-0.0713 -0.255281,-0.0713 z m 0,-0.63459 v 0.46509 h 0.242879 q 0.150896,0 0.218075,-0.0579 0.06821,-0.0579 0.06821,-0.18707 0,-0.11678 -0.06718,-0.16846 -0.06615,-0.0517 -0.219109,-0.0517 z m -0.209806,-0.17156 h 0.45682 q 0.236678,0 0.364835,0.10232 0.128158,0.10232 0.128158,0.28938 0,0.1416 -0.06821,0.22325 -0.06718,0.0816 -0.202572,0.10232 0.151929,0.0227 0.237712,0.13022 0.08682,0.10645 0.08682,0.27182 0,0.2098 -0.137459,0.31729 -0.137459,0.10646 -0.409277,0.10646 h -0.45682 z"/></g><g style="font-style:normal;font-variant:normal;font-weight:400;font-stretch:normal;font-size:2.11666679px;line-height:1.25;font-family:'DejaVu Sans Mono';-inkscape-font-specification:'DejaVu Sans Mono, Normal';font-variant-ligatures:normal;font-variant-caps:normal;font-variant-numeric:normal;font-feature-settings:normal;text-align:center;letter-spacing:0;word-spacing:0;writing-mode:lr-tb;text-anchor:middle;fill:#000;fill-opacity:1;stroke:#dcdcdc;stroke-width:.00026458;stroke-miterlimit:4;stroke-dasharray:none" id="text1045" aria-label="IN" transform="translate(0,-0.52916669)"><path id="path1090" d="m 10.839818,221.87264 h 0.856795 v 0.1757 H 11.373119 V 223.24 h 0.323494 v 0.1757 H 10.839818 V 223.24 h 0.323494 v -1.19166 h -0.323494 z"/><path id="path1092" d="m 12.049046,221.87264 h 0.264584 l 0.520898,1.2702 v -1.2702 h 0.201538 v 1.54306 h -0.264583 l -0.520898,-1.27021 v 1.27021 h -0.201539 z"/></g><g style="font-style:normal;font-variant:normal;font-weight:400;font-stretch:normal;font-size:2.11666679px;line-height:1.25;font-family:'DejaVu Sans Mono';-inkscape-font-specification:'DejaVu Sans Mono, Normal';font-variant-ligatures:normal;font-variant-caps:normal;font-variant-numeric:normal;font-feature-settings:normal;text-align:center;letter-spacing:0;word-spacing:0;writing-mode:lr-tb;text-anchor:middle;fill:#000;fill-opacity:1;stroke:#dcdcdc;stroke-width:.00026458;stroke-miterlimit:4;stroke-dasharray:none" id="text1049" aria-label="A"><path id="path1095" d="m 3.9678891,282.91081 -0.2201416,0.78961 h 0.4402832 z m -0.1260905,-0.18397 h 0.2532145 l 0.4723226,1.54306 H 4.3513282 L 4.2376401,283.86785 H 3.6971045 L 3.5854834,284.2699 H 3.3694759 Z"/></g><g style="font-style:normal;font-variant:normal;font-weight:400;font-stretch:normal;font-size:2.11666679px;line-height:1.25;font-family:'DejaVu Sans Mono';-inkscape-font-specification:'DejaVu Sans Mono, Normal';font-variant-ligatures:normal;font-variant-caps:normal;font-variant-numeric:normal;font-feature-settings:normal;text-align:center;letter-spacing:0;word-spacing:0;writing-mode:lr-tb;text-anchor:middle;fill:#000;fill-opacity:1;stroke:#dcdcdc;stroke-width:.00026458;stroke-miterlimit:4;stroke-dasharray:none" id="text1053" aria-label="B"><path id="path1098" d="m 19.587608,283.53299 v 0.56534 h 0.247014 q 0.181901,0 0.259415,-0.063 0.07751,-0.0641 0.07751,-0.20981 0,-0.1509 -0.08165,-0.22118 -0.08165,-0.0713 -0.255281,-0.0713 z m 0,-0.63459 v 0.46509 h 0.242879 q 0.150896,0 0.218075,-0.0579 0.06821,-0.0579 0.06821,-0.18707 0,-0.11679 -0.06718,-0.16847 -0.06615,-0.0517 -0.219109,-0.0517 z m -0.209806,-0.17156 h 0.45682 q 0.236678,0 0.364835,0.10232 0.128158,0.10232 0.128158,0.28939 0,0.14159 -0.06821,0.22324 -0.06718,0.0817 -0.202572,0.10232 0.151929,0.0227 0.237712,0.13022 0.08682,0.10646 0.08682,0.27182 0,0.20981 -0.137459,0.31729 -0.137459,0.10646 -0.409277,0.10646 h -0.45682 z"/></g><g style="font-style:normal;font-variant:normal;font-weight:400;font-stretch:normal;font-size:2.11666679px;line-height:1.25;font-family:'DejaVu Sans Mono';-inkscape-font-specification:'DejaVu Sans Mono, Normal';font-variant-ligatures:normal;font-variant-caps:normal;font-variant-numeric:normal;font-feature-settings:normal;text-align:center;letter-spacing:0;word-spacing:0;writing-mode:lr-tb;text-anchor:middle;fill:#dcdcdc;fill-opacity:1;stroke:#000;stroke-width:.00026458;stroke-miterlimit:4;stroke-dasharray:none" id="text1057" aria-label="OUT"><path id="path1101" d="m 10.930768,283.49992 q 0,-0.34003 -0.07028,-0.48576 -0.06925,-0.14573 -0.228409,-0.14573 -0.15813,0 -0.22841,0.14573 -0.06925,0.14573 -0.06925,0.48576 0,0.339 0.06925,0.48472 0.07028,0.14573 0.22841,0.14573 0.159163,0 0.228409,-0.14469 0.07028,-0.14573 0.07028,-0.48576 z m 0.218075,0 q 0,0.40307 -0.128158,0.60151 -0.127124,0.19844 -0.388606,0.19844 -0.261483,0 -0.388607,-0.1974 -0.127124,-0.19741 -0.127124,-0.60255 0,-0.40411 0.127124,-0.60255 0.128157,-0.19844 0.388607,-0.19844 0.261482,0 0.388606,0.19844 0.128158,0.19844 0.128158,0.60255 z"/><path id="path1103" d="m 11.420661,283.67769 v -0.95085 h 0.209806 v 1.04593 q 0,0.11265 0.0062,0.16123 0.0062,0.0475 0.0217,0.0734 0.03307,0.061 0.09508,0.092 0.06305,0.031 0.151929,0.031 0.08992,0 0.151929,-0.031 0.06201,-0.031 0.09612,-0.092 0.0155,-0.0258 0.0217,-0.0734 0.0062,-0.0475 0.0062,-0.15916 v -1.048 h 0.208773 v 0.95085 q 0,0.23667 -0.02997,0.33693 -0.02894,0.0992 -0.101286,0.16433 -0.06821,0.061 -0.156063,0.091 -0.08785,0.03 -0.197404,0.03 -0.108521,0 -0.196371,-0.03 -0.08785,-0.03 -0.157096,-0.091 -0.07131,-0.0641 -0.101286,-0.16537 -0.02997,-0.10232 -0.02997,-0.33589 z"/><path id="path1105" d="m 12.590615,282.72684 h 1.17719 v 0.1757 h -0.482658 v 1.36736 H 13.07534 v -1.36736 h -0.484725 z"/></g><g style="font-style:normal;font-variant:normal;font-weight:400;font-stretch:normal;font-size:2.11666679px;line-height:1.25;font-family:'DejaVu Sans Mono';-inkscape-font-specification:'DejaVu Sans Mono, Normal';font-variant-ligatures:normal;font-variant-caps:normal;font-variant-numeric:normal;font-feature-settings:normal;text-align:center;letter-spacing:0;word-spacing:0;writing-mode:lr-tb;text-anchor:middle;fill:#dcdcdc;fill-opacity:1;stroke:#000;stroke-width:.00026458;stroke-miterlimit:4;stroke-dasharray:none" id="text1061" aria-label="A"><path id="path1108" d="m 3.9678891,270.73957 -0.2201416,0.78962 H 4.1880307 Z M 3.8417986,270.5556 h 0.2532145 l 0.4723226,1.54306 H 4.3513282 L 4.2376401,271.69662 H 3.6971045 l -0.1116211,0.40204 H 3.3694759 Z"/></g><g style="font-style:normal;font-variant:normal;font-weight:400;font-stretch:normal;font-size:2.11666679px;line-height:1.25;font-family:'DejaVu Sans Mono';-inkscape-font-specification:'DejaVu Sans Mono, Normal';font-variant-ligatures:normal;font-variant-caps:normal;font-variant-numeric:normal;font-feature-settings:normal;text-align:center;letter-spacing:0;word-spacing:0;writing-mode:lr-tb;text-anchor:middle;fill:#dcdcdc;fill-opacity:1;stroke:#000;stroke-width:.00026458;stroke-miterlimit:4;stroke-dasharray:none" id="text1065" aria-label="B"><path id="path1111" d="m 19.587608,271.36176 v 0.56534 h 0.247014 q 0.181901,0 0.259415,-0.063 0.07751,-0.0641 0.07751,-0.2098 0,-0.1509 -0.08165,-0.22118 -0.08165,-0.0713 -0.255281,-0.0713 z m 0,-0.63459 v 0.46509 h 0.242879 q 0.150896,0 0.218075,-0.0579 0.06821,-0.0579 0.06821,-0.18707 0,-0.11679 -0.06718,-0.16846 -0.06615,-0.0517 -0.219109,-0.0517 z m -0.209806,-0.17157 h 0.45682 q 0.236678,0 0.364835,0.10232 0.128158,0.10232 0.128158,0.28939 0,0.1416 -0.06821,0.22324 -0.06718,0.0817 -0.202572,0.10232 0.151929,0.0227 0.237712,0.13023 0.08682,0.10645 0.08682,0.27182 0,0.2098 -0.137459,0.31729 -0.137459,0.10645 -0.409277,0.10645 h -0.45682 z"/></g><g style="font-style:normal;font-variant:normal;font-weight:400;font-stretch:normal;font-size:2.11666679px;line-height:1.25;font-family:'DejaVu Sans Mono';-inkscape-font-specification:'DejaVu Sans Mono, Normal';font-variant-ligatures:normal;font-variant-caps:normal;font-variant-numeric:normal;font-feature-settings:normal;text-align:center;letter-spacing:0;word-spacing:0;writing-mode:lr-tb;text-anchor:middle;fill:#000;fill-opacity:1;stroke:#dcdcdc;stroke-width:.00026458;stroke-miterlimit:4;stroke-dasharray:none" id="text1069" aria-label="IN"><path id="path1114" d="m 10.839818,270.5556 h 0.856795 v 0.1757 h -0.323494 v 1.19166 h 0.323494 v 0.1757 h -0.856795 v -0.1757 h 0.323494 v -1.19166 h -0.323494 z"/><path id="path1116" d="m 12.049046,270.5556 h 0.264584 l 0.520898,1.27021 v -1.27021 h 0.201538 v 1.54306 h -0.264583 l -0.520898,-1.2702 v 1.2702 h -0.201539 z"/></g><g style="font-style:normal;font-variant:normal;font-weight:400;font-stretch:normal;font-size:2.11666679px;line-height:1.25;font-family:'DejaVu Sans Mono';-inkscape-font-specification:'DejaVu Sans Mono, Normal';font-variant-ligatures:normal;font-variant-caps:normal;font-variant-numeric:normal;font-feature-settings:normal;text-align:center;letter-spacing:0;word-spacing:0;writing-mode:lr-tb;text-anchor:middle;fill:#dcdcdc;fill-opacity:1;stroke:#000;stroke-width:.00026458;stroke-miterlimit:4;stroke-dasharray:none" id="text1157" aria-label="GATE" transform="translate(0.52916669,-7.9375005)"><path id="path1179" d="m 2.56229,235.9884 q -0.083716,0.0775 -0.1891357,0.11782 -0.1043864,0.0393 -0.2263428,0.0393 -0.2935222,0 -0.4568197,-0.20981 -0.1632975,-0.21084 -0.1632975,-0.59014 0,-0.37828 0.1653646,-0.58912 0.1653645,-0.21187 0.4599202,-0.21187 0.097152,0 0.1860352,0.0279 0.088883,0.0269 0.1715658,0.0827 v 0.21394 q -0.083716,-0.0796 -0.1715658,-0.11679 -0.08785,-0.0382 -0.1860352,-0.0382 -0.2036051,0 -0.3059245,0.15813 -0.1012858,0.1571 -0.1012858,0.47336 0,0.32142 0.098185,0.47645 0.099219,0.154 0.3038575,0.154 0.069246,0 0.1209228,-0.0155 0.05271,-0.0165 0.095085,-0.0506 v -0.41444 H 2.1385433 v -0.17157 H 2.56229 Z"/><path id="path1181" d="m 3.3312353,234.75643 -0.2201416,0.78962 H 3.551377 Z m -0.1260905,-0.18396 h 0.2532146 l 0.4723226,1.54305 H 3.7146745 L 3.6009863,235.71348 H 3.0604508 l -0.1116211,0.40204 H 2.7328222 Z"/><path id="path1183" d="M 4.0164648,234.57247 H 5.193654 v 0.1757 H 4.7109961 v 1.36735 H 4.5011898 v -1.36735 h -0.484725 z"/><path id="path1185" d="m 5.4448015,234.57247 h 0.9157064 v 0.1757 H 5.6535743 v 0.45682 H 6.329502 v 0.1757 H 5.6535743 v 0.55913 h 0.7265706 v 0.1757 H 5.4448015 Z"/></g><g style="font-style:normal;font-variant:normal;font-weight:400;font-stretch:normal;font-size:2.11666679px;line-height:1.25;font-family:'DejaVu Sans Mono';-inkscape-font-specification:'DejaVu Sans Mono, Normal';font-variant-ligatures:normal;font-variant-caps:normal;font-variant-numeric:normal;font-feature-settings:normal;text-align:center;letter-spacing:0;word-spacing:0;writing-mode:lr-tb;text-anchor:middle;fill:#dcdcdc;fill-opacity:1;stroke:#000;stroke-width:.00026458;stroke-miterlimit:4;stroke-dasharray:none" id="text1161" aria-label="FLIP" transform="translate(-0.52916669,-7.9375005)"><path id="path1188" d="m 17.537087,234.57247 h 0.908472 v 0.1757 h -0.698665 v 0.45475 h 0.633553 v 0.1757 h -0.633553 v 0.7369 h -0.209807 z"/><path id="path1190" d="m 18.791791,234.57247 h 0.209806 v 1.36735 h 0.745175 v 0.1757 h -0.954981 z"/><path id="path1192" d="m 20.050629,234.57247 h 0.856795 v 0.1757 H 20.58393 v 1.19165 h 0.323494 v 0.1757 h -0.856795 v -0.1757 h 0.323494 v -1.19165 h -0.323494 z"/><path id="path1194" d="m 21.528575,234.74403 v 0.57981 h 0.241846 q 0.144694,0 0.225309,-0.0765 0.08165,-0.0765 0.08165,-0.21394 0,-0.13746 -0.08062,-0.21291 -0.08062,-0.0765 -0.226342,-0.0765 z m -0.208773,-0.17156 h 0.450619 q 0.258382,0 0.391707,0.11782 0.133325,0.11679 0.133325,0.34313 0,0.22841 -0.133325,0.3452 -0.132292,0.11679 -0.391707,0.11679 h -0.241846 v 0.62011 h -0.208773 z"/></g><g style="font-style:normal;font-variant:normal;font-weight:400;font-stretch:normal;font-size:2.11666679px;line-height:1.25;font-family:'DejaVu Sans Mono';-inkscape-font-specification:'DejaVu Sans Mono, Normal';font-variant-ligatures:normal;font-variant-caps:normal;font-variant-numeric:normal;font-feature-settings:normal;text-align:center;letter-spacing:0;word-spacing:0;writing-mode:lr-tb;text-anchor:middle;fill:#dcdcdc;fill-opacity:1;stroke:#000;stroke-width:.00026458;stroke-miterlimit:4;stroke-dasharray:none" id="text1165" aria-label="TRIG" transform="translate(0,-7.9375005)"><path id="path1197" d="m 9.4073471,234.57247 h 1.1771889 v 0.1757 h -0.482658 v 1.36735 H 9.892072 v -1.36735 H 9.4073471 Z"/><path id="path1199" d="m 11.41756,235.38689 q 0.08062,0.0207 0.13746,0.0785 0.05684,0.0568 0.141593,0.22841 l 0.209806,0.42168 h -0.224275 l -0.183968,-0.38964 q -0.07958,-0.16639 -0.143661,-0.21394 -0.06304,-0.0486 -0.165364,-0.0486 h -0.199472 v 0.65215 h -0.209806 v -1.54305 h 0.429948 q 0.254248,0 0.38964,0.11472 0.135393,0.11472 0.135393,0.33176 0,0.15296 -0.08372,0.25011 -0.08268,0.0961 -0.233578,0.11783 z m -0.427881,-0.64286 v 0.54777 h 0.22841 q 0.149862,0 0.223243,-0.0672 0.07338,-0.0672 0.07338,-0.20567 0,-0.13332 -0.07855,-0.2036 -0.07752,-0.0713 -0.226343,-0.0713 z"/><path id="path1201" d="m 12.113125,234.57247 h 0.856795 v 0.1757 h -0.323494 v 1.19165 h 0.323494 v 0.1757 h -0.856795 v -0.1757 h 0.323495 v -1.19165 h -0.323495 z"/><path id="path1203" d="m 14.319709,235.9884 q -0.08372,0.0775 -0.189136,0.11782 -0.104386,0.0393 -0.226343,0.0393 -0.293522,0 -0.456819,-0.20981 -0.163298,-0.21084 -0.163298,-0.59014 0,-0.37828 0.165365,-0.58912 0.165364,-0.21187 0.45992,-0.21187 0.09715,0 0.186035,0.0279 0.08888,0.0269 0.171566,0.0827 v 0.21394 q -0.08372,-0.0796 -0.171566,-0.11679 -0.08785,-0.0382 -0.186035,-0.0382 -0.203605,0 -0.305924,0.15813 -0.101286,0.1571 -0.101286,0.47336 0,0.32142 0.09818,0.47645 0.09922,0.154 0.303857,0.154 0.06925,0 0.120923,-0.0155 0.05271,-0.0165 0.09509,-0.0506 v -0.41444 h -0.224276 v -0.17157 h 0.423747 z"/></g><g style="font-style:normal;font-variant:normal;font-weight:400;font-stretch:normal;font-size:2.11666679px;line-height:1.25;font-family:'DejaVu Sans Mono';-inkscape-font-specification:'DejaVu Sans Mono, Normal';font-variant-ligatures:normal;font-variant-caps:normal;font-variant-numeric:normal;font-feature-settings:normal;text-align:center;letter-spacing:0;word-spacing:0;writing-mode:lr-tb;text-anchor:middle;fill:#dcdcdc;fill-opacity:1;stroke:#000;stroke-width:.00026458;stroke-miterlimit:4;stroke-dasharray:none" id="text1169" aria-label="FLOP" transform="translate(0.52916669,7.4083338)"><path id="path1206" d="m 1.6620865,257.85599 h 0.9084718 v 0.1757 H 1.8718929 v 0.45475 h 0.633553 v 0.1757 h -0.633553 v 0.73691 H 1.6620865 Z"/><path id="path1208" d="m 2.9167903,257.85599 h 0.2098064 v 1.36736 h 0.7451742 v 0.1757 H 2.9167903 Z"/><path id="path1210" d="m 4.9032325,258.62907 q 0,-0.34003 -0.07028,-0.48576 -0.069246,-0.14573 -0.2284098,-0.14573 -0.1581299,0 -0.2284099,0.14573 -0.069246,0.14573 -0.069246,0.48576 0,0.339 0.069246,0.48472 0.07028,0.14573 0.2284099,0.14573 0.1591634,0 0.2284098,-0.14469 0.07028,-0.14573 0.07028,-0.48576 z m 0.2180745,0 q 0,0.40308 -0.1281575,0.60151 -0.1271241,0.19844 -0.3886068,0.19844 -0.2614828,0 -0.3886068,-0.1974 -0.1271241,-0.19741 -0.1271241,-0.60255 0,-0.40411 0.1271241,-0.60255 0.1281575,-0.19844 0.3886068,-0.19844 0.2614827,0 0.3886068,0.19844 0.1281575,0.19844 0.1281575,0.60255 z"/><path id="path1212" d="m 5.6535743,258.02756 v 0.5798 H 5.89542 q 0.144694,0 0.2253092,-0.0765 0.081649,-0.0765 0.081649,-0.21394 0,-0.13746 -0.080615,-0.2129 -0.080615,-0.0765 -0.2263428,-0.0765 z M 5.4448015,257.85599 H 5.89542 q 0.2583822,0 0.3917074,0.11782 0.1333252,0.11679 0.1333252,0.34313 0,0.22841 -0.1333252,0.3452 -0.1322917,0.11679 -0.3917074,0.11679 H 5.6535743 v 0.62012 H 5.4448015 Z"/></g><g style="font-style:normal;font-variant:normal;font-weight:400;font-stretch:normal;font-size:2.11666679px;line-height:1.25;font-family:'DejaVu Sans Mono';-inkscape-font-specification:'DejaVu Sans Mono, Normal';font-variant-ligatures:normal;font-variant-caps:normal;font-variant-numeric:normal;font-feature-settings:normal;text-align:center;letter-spacing:0;word-spacing:0;writing-mode:lr-tb;text-anchor:middle;fill:#dcdcdc;fill-opacity:1;stroke:#000;stroke-width:.00026458;stroke-miterlimit:4;stroke-dasharray:none" id="text1173" aria-label="GATE" transform="translate(-0.52916669,7.4083338)"><path id="path1215" d="m 18.437291,259.27192 q -0.08372,0.0775 -0.189136,0.11783 -0.104386,0.0393 -0.226343,0.0393 -0.293522,0 -0.456819,-0.20981 -0.163298,-0.21084 -0.163298,-0.59014 0,-0.37827 0.165365,-0.58911 0.165364,-0.21188 0.45992,-0.21188 0.09715,0 0.186035,0.0279 0.08888,0.0269 0.171566,0.0827 v 0.21394 q -0.08372,-0.0796 -0.171566,-0.11679 -0.08785,-0.0382 -0.186035,-0.0382 -0.203605,0 -0.305925,0.15813 -0.101285,0.1571 -0.101285,0.47336 0,0.32143 0.09819,0.47646 0.09922,0.15399 0.303857,0.15399 0.06925,0 0.120923,-0.0155 0.05271,-0.0165 0.09509,-0.0506 v -0.41445 h -0.224276 v -0.17157 h 0.423747 z"/><path id="path1217" d="m 19.206236,258.03996 -0.220142,0.78961 h 0.440284 z m -0.12609,-0.18397 h 0.253214 l 0.472323,1.54306 h -0.216008 l -0.113688,-0.40204 h -0.540535 l -0.111622,0.40204 h -0.216007 z"/><path id="path1219" d="m 19.891466,257.85599 h 1.177189 v 0.1757 h -0.482658 v 1.36736 h -0.209806 v -1.36736 h -0.484725 z"/><path id="path1221" d="m 21.319802,257.85599 h 0.915707 v 0.1757 h -0.706934 v 0.45682 h 0.675928 v 0.1757 h -0.675928 v 0.55914 h 0.726571 v 0.1757 h -0.935344 z"/></g><g style="font-style:normal;font-variant:normal;font-weight:400;font-stretch:normal;font-size:2.11666679px;line-height:1.25;font-family:'DejaVu Sans Mono';-inkscape-font-specification:'DejaVu Sans Mono, Normal';font-variant-ligatures:normal;font-variant-caps:normal;font-variant-numeric:normal;font-feature-settings:normal;text-align:center;letter-spacing:0;word-spacing:0;writing-mode:lr-tb;text-anchor:middle;fill:#dcdcdc;fill-opacity:1;stroke:#000;stroke-width:.00026458;stroke-miterlimit:4;stroke-dasharray:none" id="text1177" aria-label="TRIG" transform="translate(0,7.4083338)"><path id="path1224" d="m 9.4073471,257.85599 h 1.1771889 v 0.1757 h -0.482658 v 1.36736 H 9.892072 v -1.36736 H 9.4073471 Z"/><path id="path1226" d="m 11.41756,258.67041 q 0.08062,0.0207 0.13746,0.0786 0.05684,0.0568 0.141593,0.22841 l 0.209806,0.42168 h -0.224275 l -0.183968,-0.38964 q -0.07958,-0.1664 -0.143661,-0.21394 -0.06304,-0.0486 -0.165364,-0.0486 h -0.199472 v 0.65216 h -0.209806 v -1.54306 h 0.429948 q 0.254248,0 0.38964,0.11472 0.135393,0.11472 0.135393,0.33176 0,0.15297 -0.08372,0.25012 -0.08268,0.0961 -0.233578,0.11782 z m -0.427881,-0.64285 v 0.54777 h 0.22841 q 0.149862,0 0.223243,-0.0672 0.07338,-0.0672 0.07338,-0.20568 0,-0.13332 -0.07855,-0.2036 -0.07752,-0.0713 -0.226343,-0.0713 z"/><path id="path1228" d="m 12.113125,257.85599 h 0.856795 v 0.1757 h -0.323494 v 1.19166 h 0.323494 v 0.1757 h -0.856795 v -0.1757 h 0.323495 v -1.19166 h -0.323495 z"/><path id="path1230" d="m 14.319709,259.27192 q -0.08372,0.0775 -0.189136,0.11783 -0.104386,0.0393 -0.226343,0.0393 -0.293522,0 -0.456819,-0.20981 -0.163298,-0.21084 -0.163298,-0.59014 0,-0.37827 0.165365,-0.58911 0.165364,-0.21188 0.45992,-0.21188 0.09715,0 0.186035,0.0279 0.08888,0.0269 0.171566,0.0827 v 0.21394 q -0.08372,-0.0796 -0.171566,-0.11679 -0.08785,-0.0382 -0.186035,-0.0382 -0.203605,0 -0.305924,0.15813 -0.101286,0.1571 -0.101286,0.47336 0,0.32143 0.09818,0.47646 0.09922,0.15399 0.303857,0.15399 0.06925,0 0.120923,-0.0155 0.05271,-0.0165 0.09509,-0.0506 v -0.41445 h -0.224276 v -0.17157 h 0.423747 z"/></g></g></svg>