<svg xmlns="http://www.w3.org/2000/svg" xmlns:svg="http://www.w3.org/2000/svg" id="svg8" width="60" height="380" version="1.1" viewBox="0 0 60 380"><metadata id="metadata5"/><g id="layer1" transform="translate(0,-196.45832)"><g id="layer1-8" transform="matrix(3.7795274,0,0,3.7795274,0,-546.06128)"><path id="rect817" d="m 0,200.42707 h 15.875001 v 92.60417 H 0 Z" style="display:inline;opacity:1;vector-effect:none;fill:gray;fill-opacity:1;fill-rule:evenodd;stroke:none;stroke-width:.38088688;stroke-linecap:butt;stroke-linejoin:round;stroke-miterlimit:4;stroke-dasharray:none;stroke-dashoffset:0;stroke-opacity:1;paint-order:normal"/><path style="display:inline;opacity:1;vector-effect:none;fill:gray;fill-opacity:1;fill-rule:evenodd;stroke:none;stroke-width:.4214637;stroke-linecap:butt;stroke-linejoin:round;stroke-miterlimit:4;stroke-dasharray:none;stroke-dashoffset:0;stroke-opacity:1;paint-order:normal" id="path835" d="m 0,365 v 15 h 60 v -15 z m 7.5,4.25 h 15 c 1.8005,0 3.25,1.4495 3.25,3.25 0,1.8005 -1.4495,3.25 -3.25,3.25 h -15 c -1.8005,0 -3.25,-1.4495 -3.25,-3.25 0,-1.8005 1.4495,-3.25 3.25,-3.25 z m 30,0 h 15 c 1.800499,0 3.25,1.44951 3.25,3.25 0,1.80053 -1.449501,3.25 -3.25,3.25 h -15 c -1.8005,0 -3.25,-1.44947 -3.25,-3.25 0,-1.80049 1.4495,-3.25 3.25,-3.25 z" transform="matrix(0.26458334,0,0,0.26458334,0,196.45832)"/><g style="display:none" id="g862"><path style="display:inline;opacity:1;vector-effect:none;fill:#a9a9a9;fill-opacity:1;fill-rule:evenodd;stroke:none;stroke-width:.11151227;stroke-linecap:butt;stroke-linejoin:round;stroke-miterlimit:4;stroke-dasharray:none;stroke-dashoffset:0;stroke-opacity:1;paint-order:normal" id="path849" d="m 0,293.03124 h 31.750001 v 3.96875 H 0 Z"/><g style="display:inline" id="g884"><rect id="rect851" width="1.72" height="1.72" x="1.124" y="294.156" rx=".86" ry=".86" style="opacity:1;fill:#000;fill-opacity:1;stroke:none;stroke-width:.5291667;stroke-linecap:butt;stroke-linejoin:miter;stroke-miterlimit:4;stroke-dasharray:none;stroke-opacity:1;paint-order:normal"/><rect style="opacity:1;fill:#000;fill-opacity:1;stroke:none;stroke-width:.5291667;stroke-linecap:butt;stroke-linejoin:miter;stroke-miterlimit:4;stroke-dasharray:none;stroke-opacity:1;paint-order:normal" id="rect855" width="1.72" height="1.72" x="5.093" y="294.156" rx=".86" ry=".86"/><rect id="rect857" width="3.969" height="1.72" x="1.984" y="294.156" style="opacity:1;fill:#000;fill-opacity:1;stroke:none;stroke-width:.23665054;stroke-linecap:butt;stroke-linejoin:miter;stroke-miterlimit:4;stroke-dasharray:none;stroke-opacity:1;paint-order:normal"/></g></g><path id="path1230" d="m 0,196.45832 v 3.96875 h 15.875 v -3.96875 z m 1.984375,1.12448 h 3.9687501 c 0.4763824,0 0.8598959,0.38351 0.8598959,0.8599 0,0.47638 -0.3835135,0.85989 -0.8598959,0.85989 H 1.984375 c -0.4763823,0 -0.8598958,-0.38351 -0.8598958,-0.85989 0,-0.47639 0.3835135,-0.8599 0.8598958,-0.8599 z m 7.9375002,0 h 3.9687498 c 0.476382,0 0.859896,0.38352 0.859896,0.8599 0,0.47639 -0.383514,0.85989 -0.859896,0.85989 H 9.9218752 c -0.4763823,0 -0.8598958,-0.3835 -0.8598958,-0.85989 0,-0.47638 0.3835135,-0.8599 0.8598958,-0.8599 z" style="display:inline;opacity:1;vector-effect:none;fill:gray;fill-opacity:1;fill-rule:evenodd;stroke:none;stroke-width:.11151227;stroke-linecap:butt;stroke-linejoin:round;stroke-miterlimit:4;stroke-dasharray:none;stroke-dashoffset:0;stroke-opacity:1;paint-order:normal"/></g><rect style="opacity:1;fill:#696969;fill-opacity:1;stroke:none;stroke-width:1.51877141;stroke-linecap:butt;stroke-linejoin:miter;stroke-miterlimit:4;stroke-dasharray:none;stroke-opacity:1;paint-order:normal" id="rect1019" width="60" height="346" x="0" y="213.458"/><rect style="display:inline;opacity:1;fill:#b22222;fill-opacity:1;stroke:none;stroke-width:1;stroke-linecap:butt;stroke-linejoin:miter;stroke-miterlimit:4;stroke-dasharray:none;stroke-opacity:1;paint-order:normal" id="rect1015" width="45" height="11" x="7.498" y="371.958" rx="5.5" ry="5.5"/><rect id="rect1009" width="45" height="11" x="7.498" y="307.958" rx="5.5" ry="5.5" style="display:inline;opacity:1;fill:#b22222;fill-opacity:1;stroke:none;stroke-width:1;stroke-linecap:butt;stroke-linejoin:miter;stroke-miterlimit:4;stroke-dasharray:none;stroke-opacity:1;paint-order:normal"/><rect style="opacity:1;fill:#000;fill-opacity:.25490196;stroke:silver;stroke-width:1;stroke-linecap:square;stroke-linejoin:round;stroke-miterlimit:1.29999995;stroke-dasharray:none;stroke-opacity:.25490196;paint-order:stroke markers fill" id="rect999" width="57" height="145" x="1.5" y="412.883" rx="3" ry="3"/><rect id="rect1001" width="57" height="39" x="1.5" y="214.883" rx="3" ry="3" style="opacity:1;fill:silver;fill-opacity:.25490196;stroke:#000;stroke-width:1;stroke-linecap:square;stroke-linejoin:round;stroke-miterlimit:1.29999995;stroke-dasharray:none;stroke-opacity:.25490196;paint-order:stroke markers fill"/><path style="opacity:1;fill:#000;fill-opacity:1;stroke:#dcdcdc;stroke-width:.001;stroke-linecap:butt;stroke-linejoin:miter;stroke-miterlimit:4;stroke-dasharray:none;stroke-opacity:1;paint-order:normal" id="path1195" d="m 32.556821,229.45831 -5.195865,2.99984 v -5.99967 z"/><path id="path1203" d="m 32.556821,295.45831 -5.195865,2.99984 v -5.99967 z" style="opacity:1;fill:#000;fill-opacity:1;stroke:#dcdcdc;stroke-width:.001;stroke-linecap:butt;stroke-linejoin:miter;stroke-miterlimit:4;stroke-dasharray:none;stroke-opacity:1;paint-order:normal"/><path style="opacity:1;fill:#000;fill-opacity:1;stroke:#dcdcdc;stroke-width:.001;stroke-linecap:butt;stroke-linejoin:miter;stroke-miterlimit:4;stroke-dasharray:none;stroke-opacity:1;paint-order:normal" id="path1205" d="m 32.556821,359.45831 -5.195865,2.99984 v -5.99967 z"/><rect style="opacity:1;fill:#dcdcdc;fill-opacity:1;stroke:none;stroke-width:.001;stroke-linecap:butt;stroke-linejoin:miter;stroke-miterlimit:4;stroke-dasharray:none;stroke-opacity:1;paint-order:normal" id="rect1052" width="22" height="22" x="4" y="218.458" rx="11" ry="11"/><rect id="rect1167" width="22" height="22" x="34" y="218.458" rx="11" ry="11" style="opacity:1;fill:#dcdcdc;fill-opacity:1;stroke:none;stroke-width:.001;stroke-linecap:butt;stroke-linejoin:miter;stroke-miterlimit:4;stroke-dasharray:none;stroke-opacity:1;paint-order:normal"/><text id="text923" x="14.996" y="250.458" xml:space="preserve" style="font-style:normal;font-variant:normal;font-weight:400;font-stretch:normal;font-size:8px;line-height:1.25;font-family:'DejaVu Sans Mono';-inkscape-font-specification:'DejaVu Sans Mono, Normal';font-variant-ligatures:normal;font-variant-caps:normal;font-variant-numeric:normal;font-feature-settings:normal;text-align:center;letter-spacing:0;word-spacing:0;writing-mode:lr-tb;text-anchor:middle;fill:#000;fill-opacity:1;stroke:#000;stroke-width:.001;stroke-miterlimit:4;stroke-dasharray:none"><tspan id="tspan925" x="14.996" y="250.458">A</tspan></text><text style="font-style:normal;font-variant:normal;font-weight:400;font-stretch:normal;font-size:8px;line-height:1.25;font-family:'DejaVu Sans Mono';-inkscape-font-specification:'DejaVu Sans Mono, Normal';font-variant-ligatures:normal;font-variant-caps:normal;font-variant-numeric:normal;font-feature-settings:normal;text-align:center;letter-spacing:0;word-spacing:0;writing-mode:lr-tb;text-anchor:middle;fill:#000;fill-opacity:1;stroke:#000;stroke-width:.001;stroke-miterlimit:4;stroke-dasharray:none" id="text929" x="44.864" y="250.458" xml:space="preserve"><tspan id="tspan931" x="44.864" y="250.458">B</tspan></text><text id="text943" x="14.995" y="422.458" xml:space="preserve" style="font-style:normal;font-variant:normal;font-weight:400;font-stretch:normal;font-size:8px;line-height:1.25;font-family:'DejaVu Sans Mono';-inkscape-font-specification:'DejaVu Sans Mono, Normal';font-variant-ligatures:normal;font-variant-caps:normal;font-variant-numeric:normal;font-feature-settings:normal;text-align:center;letter-spacing:0;word-spacing:0;writing-mode:lr-tb;text-anchor:middle;fill:snow;fill-opacity:1;stroke:#000;stroke-width:.001;stroke-miterlimit:4;stroke-dasharray:none"><tspan id="tspan945" x="14.995" y="422.458">A</tspan></text><text style="font-style:normal;font-variant:normal;font-weight:400;font-stretch:normal;font-size:8px;line-height:1.25;font-family:'DejaVu Sans Mono';-inkscape-font-specification:'DejaVu Sans Mono, Normal';font-variant-ligatures:normal;font-variant-caps:normal;font-variant-numeric:normal;font-feature-settings:normal;text-align:center;letter-spacing:0;word-spacing:0;writing-mode:lr-tb;text-anchor:middle;fill:snow;fill-opacity:1;stroke:#000;stroke-width:.001;stroke-miterlimit:4;stroke-dasharray:none" id="text949" x="44.862" y="422.458" xml:space="preserve"><tspan id="tspan951" x="44.862" y="422.458">B</tspan></text><text id="text957" x="-29.956" y="464.345" transform="scale(-1,1)" xml:space="preserve" style="font-style:normal;font-variant:normal;font-weight:400;font-stretch:normal;font-size:8px;line-height:1.25;font-family:'DejaVu Sans Mono';-inkscape-font-specification:'DejaVu Sans Mono, Normal';font-variant-ligatures:normal;font-variant-caps:normal;font-variant-numeric:normal;font-feature-settings:normal;text-align:center;letter-spacing:0;word-spacing:0;writing-mode:lr-tb;text-anchor:middle;fill:snow;fill-opacity:1;stroke:#000;stroke-width:.001;stroke-miterlimit:4;stroke-dasharray:none"><tspan id="tspan961" x="-29.956" y="464.345">G</tspan></text><text id="text965" x="14.961" y="524.458" xml:space="preserve" style="font-style:normal;font-variant:normal;font-weight:400;font-stretch:normal;font-size:8px;line-height:1.25;font-family:'DejaVu Sans Mono';-inkscape-font-specification:'DejaVu Sans Mono, Normal';font-variant-ligatures:normal;font-variant-caps:normal;font-variant-numeric:normal;font-feature-settings:normal;text-align:center;letter-spacing:0;word-spacing:0;writing-mode:lr-tb;text-anchor:middle;fill:snow;fill-opacity:1;stroke:#000;stroke-width:.001;stroke-miterlimit:4;stroke-dasharray:none"><tspan id="tspan967" x="14.961" y="524.458">XOR</tspan></text><text id="text971" x="44.774" y="482.458" xml:space="preserve" style="font-style:normal;font-variant:normal;font-weight:400;font-stretch:normal;font-size:8px;line-height:1.25;font-family:'DejaVu Sans Mono';-inkscape-font-specification:'DejaVu Sans Mono, Normal';font-variant-ligatures:normal;font-variant-caps:normal;font-variant-numeric:normal;font-feature-settings:normal;text-align:center;letter-spacing:0;word-spacing:0;writing-mode:lr-tb;text-anchor:middle;fill:snow;fill-opacity:1;stroke:#000;stroke-width:.001;stroke-miterlimit:4;stroke-dasharray:none"><tspan id="tspan973" x="44.774" y="482.458">OR</tspan></text><text style="font-style:normal;font-variant:normal;font-weight:400;font-stretch:normal;font-size:8px;line-height:1.25;font-family:'DejaVu Sans Mono';-inkscape-font-specification:'DejaVu Sans Mono, Normal';font-variant-ligatures:normal;font-variant-caps:normal;font-variant-numeric:normal;font-feature-settings:normal;text-align:center;letter-spacing:0;word-spacing:0;writing-mode:lr-tb;text-anchor:middle;fill:#000;fill-opacity:1;stroke:#dcdcdc;stroke-width:.001;stroke-miterlimit:4;stroke-dasharray:none" id="text1074" x="29.878" y="250.458" xml:space="preserve"><tspan id="tspan919" x="29.878" y="250.458">IN</tspan></text><text id="text1080" x="29.879" y="316.345" xml:space="preserve" style="font-style:normal;font-variant:normal;font-weight:400;font-stretch:normal;font-size:8px;line-height:1.25;font-family:'DejaVu Sans Mono';-inkscape-font-specification:'DejaVu Sans Mono, Normal';font-variant-ligatures:normal;font-variant-caps:normal;font-variant-numeric:normal;font-feature-settings:normal;text-align:center;letter-spacing:0;word-spacing:0;writing-mode:lr-tb;text-anchor:middle;fill:#000;fill-opacity:1;stroke:#000;stroke-width:.001;stroke-miterlimit:4;stroke-dasharray:none"><tspan id="tspan1013" x="29.879" y="316.345">POSITION</tspan></text><text style="font-style:normal;font-variant:normal;font-weight:400;font-stretch:normal;font-size:8px;line-height:1.25;font-family:'DejaVu Sans Mono';-inkscape-font-specification:'DejaVu Sans Mono, Normal';font-variant-ligatures:normal;font-variant-caps:normal;font-variant-numeric:normal;font-feature-settings:normal;text-align:center;letter-spacing:0;word-spacing:0;writing-mode:lr-tb;text-anchor:middle;fill:#000;fill-opacity:1;stroke:#000;stroke-width:.001;stroke-miterlimit:4;stroke-dasharray:none" id="text1098" x="29.981" y="380.345" xml:space="preserve"><tspan id="tspan1011" x="29.981" y="380.345">WIDTH</tspan></text><text style="font-style:normal;font-variant:normal;font-weight:400;font-stretch:normal;font-size:8px;line-height:1.25;font-family:'DejaVu Sans Mono';-inkscape-font-specification:'DejaVu Sans Mono, Normal';font-variant-ligatures:normal;font-variant-caps:normal;font-variant-numeric:normal;font-feature-settings:normal;text-align:center;letter-spacing:0;word-spacing:0;writing-mode:lr-tb;text-anchor:middle;fill:snow;fill-opacity:1;stroke:#000;stroke-width:.001;stroke-miterlimit:4;stroke-dasharray:none" id="text1116" x="30.057" y="440.345" xml:space="preserve"><tspan id="tspan939" x="30.057" y="440.345">G</tspan></text><text style="font-style:normal;font-variant:normal;font-weight:400;font-stretch:normal;font-size:8px;line-height:1.25;font-family:'DejaVu Sans Mono';-inkscape-font-specification:'DejaVu Sans Mono, Normal';font-variant-ligatures:normal;font-variant-caps:normal;font-variant-numeric:normal;font-feature-settings:normal;text-align:center;letter-spacing:0;word-spacing:0;writing-mode:lr-tb;text-anchor:middle;fill:snow;fill-opacity:1;stroke:#000;stroke-width:.001;stroke-miterlimit:4;stroke-dasharray:none" id="text1132" x="15.172" y="482.458" xml:space="preserve"><tspan id="tspan1134" x="15.172" y="482.458">AND</tspan></text><text style="font-style:normal;font-variant:normal;font-weight:400;font-stretch:normal;font-size:8px;line-height:1.25;font-family:'DejaVu Sans Mono';-inkscape-font-specification:'DejaVu Sans Mono, Normal';font-variant-ligatures:normal;font-variant-caps:normal;font-variant-numeric:normal;font-feature-settings:normal;text-align:center;letter-spacing:0;word-spacing:0;writing-mode:lr-tb;text-anchor:middle;fill:snow;fill-opacity:1;stroke:#000;stroke-width:.001;stroke-miterlimit:4;stroke-dasharray:none" id="text1152" x="44.723" y="524.458" xml:space="preserve"><tspan id="tspan1163" x="44.723" y="524.458">FLIP</tspan></text><g style="font-style:normal;font-variant:normal;font-weight:400;font-stretch:normal;font-size:8px;line-height:1.25;font-family:'DejaVu Sans Mono';-inkscape-font-specification:'DejaVu Sans Mono, Normal';font-variant-ligatures:normal;font-variant-caps:normal;font-variant-numeric:normal;font-feature-settings:normal;text-align:center;letter-spacing:0;word-spacing:0;writing-mode:lr-tb;text-anchor:middle;fill:#000;fill-opacity:1;stroke:#000;stroke-width:.001;stroke-miterlimit:4;stroke-dasharray:none" id="text1019" aria-label="A"><path id="path1069" d="m 14.996477,245.32111 -0.832031,2.98437 h 1.664062 z m -0.476562,-0.69532 h 0.957031 l 1.785156,5.83203 h -0.816406 l -0.429688,-1.51953 H 13.97304 l -0.421875,1.51953 h -0.816407 z"/></g><g style="font-style:normal;font-variant:normal;font-weight:400;font-stretch:normal;font-size:8px;line-height:1.25;font-family:'DejaVu Sans Mono';-inkscape-font-specification:'DejaVu Sans Mono, Normal';font-variant-ligatures:normal;font-variant-caps:normal;font-variant-numeric:normal;font-feature-settings:normal;text-align:center;letter-spacing:0;word-spacing:0;writing-mode:lr-tb;text-anchor:middle;fill:#000;fill-opacity:1;stroke:#000;stroke-width:.001;stroke-miterlimit:4;stroke-dasharray:none" id="text1023" aria-label="B"><path id="path1072" d="m 43.898819,247.67267 v 2.13672 h 0.933594 q 0.6875,0 0.980468,-0.23828 0.292969,-0.24219 0.292969,-0.79297 0,-0.57032 -0.308594,-0.83594 -0.308593,-0.26953 -0.964843,-0.26953 z m 0,-2.39844 v 1.75781 h 0.917969 q 0.570312,0 0.824218,-0.21875 0.257813,-0.21875 0.257813,-0.70703 0,-0.4414 -0.253906,-0.63672 -0.25,-0.19531 -0.828125,-0.19531 z m -0.792969,-0.64844 h 1.726563 q 0.894531,0 1.378906,0.38672 0.484375,0.38672 0.484375,1.09375 0,0.53516 -0.257813,0.84375 -0.253906,0.3086 -0.765625,0.38672 0.574219,0.0859 0.898438,0.49219 0.328125,0.40234 0.328125,1.02734 0,0.79297 -0.519531,1.19922 -0.519532,0.40234 -1.546875,0.40234 H 43.10585 Z"/></g><g style="font-style:normal;font-variant:normal;font-weight:400;font-stretch:normal;font-size:8px;line-height:1.25;font-family:'DejaVu Sans Mono';-inkscape-font-specification:'DejaVu Sans Mono, Normal';font-variant-ligatures:normal;font-variant-caps:normal;font-variant-numeric:normal;font-feature-settings:normal;text-align:center;letter-spacing:0;word-spacing:0;writing-mode:lr-tb;text-anchor:middle;fill:snow;fill-opacity:1;stroke:#000;stroke-width:.001;stroke-miterlimit:4;stroke-dasharray:none" id="text1027" aria-label="A" transform="translate(0,-2)"><path id="path1075" d="m 14.994616,419.32159 -0.832032,2.98438 h 1.664063 z m -0.476563,-0.69531 h 0.957031 l 1.785157,5.83203 h -0.816407 l -0.429687,-1.51953 h -2.042969 l -0.421875,1.51953 h -0.816406 z"/></g><g style="font-style:normal;font-variant:normal;font-weight:400;font-stretch:normal;font-size:8px;line-height:1.25;font-family:'DejaVu Sans Mono';-inkscape-font-specification:'DejaVu Sans Mono, Normal';font-variant-ligatures:normal;font-variant-caps:normal;font-variant-numeric:normal;font-feature-settings:normal;text-align:center;letter-spacing:0;word-spacing:0;writing-mode:lr-tb;text-anchor:middle;fill:snow;fill-opacity:1;stroke:#000;stroke-width:.001;stroke-miterlimit:4;stroke-dasharray:none" id="text1031" aria-label="B" transform="translate(0,-2)"><path id="path1078" d="m 43.896957,421.67316 v 2.13672 h 0.933594 q 0.6875,0 0.980469,-0.23829 0.292969,-0.24218 0.292969,-0.79296 0,-0.57032 -0.308594,-0.83594 -0.308594,-0.26953 -0.964844,-0.26953 z m 0,-2.39844 v 1.75781 h 0.917969 q 0.570313,0 0.824219,-0.21875 0.257812,-0.21875 0.257812,-0.70703 0,-0.44141 -0.253906,-0.63672 -0.25,-0.19531 -0.828125,-0.19531 z m -0.792968,-0.64844 h 1.726562 q 0.894531,0 1.378906,0.38672 0.484375,0.38672 0.484375,1.09375 0,0.53516 -0.257812,0.84375 -0.253906,0.30859 -0.765625,0.38672 0.574219,0.0859 0.898437,0.49219 0.328125,0.40234 0.328125,1.02734 0,0.79297 -0.519531,1.19922 -0.519531,0.40234 -1.546875,0.40234 h -1.726562 z"/></g><g style="font-style:normal;font-variant:normal;font-weight:400;font-stretch:normal;font-size:8px;line-height:1.25;font-family:'DejaVu Sans Mono';-inkscape-font-specification:'DejaVu Sans Mono, Normal';font-variant-ligatures:normal;font-variant-caps:normal;font-variant-numeric:normal;font-feature-settings:normal;text-align:center;letter-spacing:0;word-spacing:0;writing-mode:lr-tb;text-anchor:middle;fill:snow;fill-opacity:1;stroke:#000;stroke-width:.001;stroke-miterlimit:4;stroke-dasharray:none" id="text1035" aria-label="G" transform="scale(-1,1)"><path id="path1081" d="m -28.049303,463.86407 q -0.316406,0.29297 -0.714844,0.44532 -0.394531,0.14843 -0.855469,0.14843 -1.109375,0 -1.726562,-0.79296 -0.617188,-0.79688 -0.617188,-2.23047 0,-1.42969 0.625,-2.22657 0.625,-0.80078 1.738282,-0.80078 0.367187,0 0.703125,0.10547 0.335937,0.10156 0.648437,0.3125 v 0.8086 q -0.316406,-0.30079 -0.648437,-0.44141 -0.332032,-0.14453 -0.703125,-0.14453 -0.769532,0 -1.15625,0.59765 -0.382813,0.59375 -0.382813,1.78907 0,1.21484 0.371094,1.80078 0.375,0.58203 1.148437,0.58203 0.261719,0 0.457032,-0.0586 0.199218,-0.0625 0.359375,-0.19141 v -1.56641 h -0.847657 v -0.64843 h 1.601563 z"/></g><g style="font-style:normal;font-variant:normal;font-weight:400;font-stretch:normal;font-size:8px;line-height:1.25;font-family:'DejaVu Sans Mono';-inkscape-font-specification:'DejaVu Sans Mono, Normal';font-variant-ligatures:normal;font-variant-caps:normal;font-variant-numeric:normal;font-feature-settings:normal;text-align:center;letter-spacing:0;word-spacing:0;writing-mode:lr-tb;text-anchor:middle;fill:snow;fill-opacity:1;stroke:#000;stroke-width:.001;stroke-miterlimit:4;stroke-dasharray:none" id="text1039" aria-label="XOR"><path id="path1084" d="m 8.0785065,518.62579 h 0.8476562 l 1.2812503,2.19922 1.304687,-2.19922 h 0.847656 l -1.746093,2.74219 1.871093,3.08984 H 11.6371 l -1.429687,-2.51171 -1.542969,2.51171 H 7.8128815 l 1.953125,-3.08984 z"/><path id="path1086" d="m 16.090225,521.54767 q 0,-1.28516 -0.265625,-1.83594 -0.261719,-0.55078 -0.863281,-0.55078 -0.597656,0 -0.863281,0.55078 -0.261719,0.55078 -0.261719,1.83594 0,1.28125 0.261719,1.83203 0.265625,0.55078 0.863281,0.55078 0.601562,0 0.863281,-0.54687 0.265625,-0.55079 0.265625,-1.83594 z m 0.824219,0 q 0,1.52344 -0.484375,2.27344 -0.480469,0.75 -1.46875,0.75 -0.988281,0 -1.46875,-0.7461 -0.480469,-0.74609 -0.480469,-2.27734 0,-1.52735 0.480469,-2.27735 0.484375,-0.75 1.46875,-0.75 0.988281,0 1.46875,0.75 0.484375,0.75 0.484375,2.27735 z"/><path id="path1088" d="m 20.336319,521.70392 q 0.304687,0.0781 0.519531,0.29687 0.214844,0.21485 0.535156,0.86328 l 0.792969,1.59375 h -0.847656 l -0.695313,-1.47265 q -0.300781,-0.62891 -0.542968,-0.8086 -0.238282,-0.18359 -0.625,-0.18359 h -0.753907 v 2.46484 h -0.792968 v -5.83203 h 1.625 q 0.960937,0 1.472656,0.4336 0.511719,0.43359 0.511719,1.2539 0,0.57813 -0.316407,0.94532 -0.3125,0.36328 -0.882812,0.44531 z m -1.617188,-2.42969 v 2.07031 h 0.863282 q 0.566406,0 0.84375,-0.2539 0.277343,-0.25391 0.277343,-0.77735 0,-0.5039 -0.296875,-0.76953 -0.292968,-0.26953 -0.855468,-0.26953 z"/></g><g style="font-style:normal;font-variant:normal;font-weight:400;font-stretch:normal;font-size:8px;line-height:1.25;font-family:'DejaVu Sans Mono';-inkscape-font-specification:'DejaVu Sans Mono, Normal';font-variant-ligatures:normal;font-variant-caps:normal;font-variant-numeric:normal;font-feature-settings:normal;text-align:center;letter-spacing:0;word-spacing:0;writing-mode:lr-tb;text-anchor:middle;fill:snow;fill-opacity:1;stroke:#000;stroke-width:.001;stroke-miterlimit:4;stroke-dasharray:none" id="text1043" aria-label="OR" transform="translate(0,-2)"><path id="path1091" d="m 43.496475,481.54767 q 0,-1.28516 -0.265625,-1.83594 -0.261719,-0.55078 -0.863281,-0.55078 -0.597656,0 -0.863281,0.55078 -0.261719,0.55078 -0.261719,1.83594 0,1.28125 0.261719,1.83203 0.265625,0.55078 0.863281,0.55078 0.601562,0 0.863281,-0.54687 0.265625,-0.55079 0.265625,-1.83594 z m 0.824219,0 q 0,1.52344 -0.484375,2.27344 -0.480469,0.75 -1.46875,0.75 -0.988281,0 -1.46875,-0.7461 -0.480469,-0.74609 -0.480469,-2.27734 0,-1.52735 0.480469,-2.27735 0.484375,-0.75 1.46875,-0.75 0.988281,0 1.46875,0.75 0.484375,0.75 0.484375,2.27735 z"/><path id="path1093" d="m 47.742569,481.70392 q 0.304687,0.0781 0.519531,0.29687 0.214844,0.21485 0.535156,0.86328 l 0.792969,1.59375 h -0.847656 l -0.695313,-1.47265 q -0.300781,-0.62891 -0.542968,-0.8086 -0.238282,-0.18359 -0.625,-0.18359 h -0.753907 v 2.46484 h -0.792968 v -5.83203 h 1.625 q 0.960937,0 1.472656,0.4336 0.511719,0.43359 0.511719,1.2539 0,0.57813 -0.316407,0.94532 -0.3125,0.36328 -0.882812,0.44531 z m -1.617188,-2.42969 v 2.07031 h 0.863282 q 0.566406,0 0.84375,-0.2539 0.277343,-0.25391 0.277343,-0.77735 0,-0.5039 -0.296875,-0.76953 -0.292968,-0.26953 -0.855468,-0.26953 z"/></g><g style="font-style:normal;font-variant:normal;font-weight:400;font-stretch:normal;font-size:8px;line-height:1.25;font-family:'DejaVu Sans Mono';-inkscape-font-specification:'DejaVu Sans Mono, Normal';font-variant-ligatures:normal;font-variant-caps:normal;font-variant-numeric:normal;font-feature-settings:normal;text-align:center;letter-spacing:0;word-spacing:0;writing-mode:lr-tb;text-anchor:middle;fill:#000;fill-opacity:1;stroke:#dcdcdc;stroke-width:.001;stroke-miterlimit:4;stroke-dasharray:none" id="text1047" aria-label="IN"><path id="path1096" d="m 25.850956,244.62628 h 3.238281 v 0.66406 h -1.222656 v 4.50391 h 1.222656 v 0.66406 h -3.238281 v -0.66406 h 1.222656 v -4.50391 h -1.222656 z"/><path id="path1098" d="m 30.421268,244.62628 h 1 l 1.96875,4.80078 v -4.80078 h 0.761719 v 5.83203 h -1 l -1.96875,-4.80078 v 4.80078 h -0.761719 z"/></g><g style="font-style:normal;font-variant:normal;font-weight:400;font-stretch:normal;font-size:8px;line-height:1.25;font-family:'DejaVu Sans Mono';-inkscape-font-specification:'DejaVu Sans Mono, Normal';font-variant-ligatures:normal;font-variant-caps:normal;font-variant-numeric:normal;font-feature-settings:normal;text-align:center;letter-spacing:0;word-spacing:0;writing-mode:lr-tb;text-anchor:middle;fill:#000;fill-opacity:1;stroke:#000;stroke-width:.001;stroke-miterlimit:4;stroke-dasharray:none" id="text1051" aria-label="POSITION"><path id="path1101" d="m 12.187883,311.16095 v 2.19141 h 0.914063 q 0.546875,0 0.851562,-0.28907 0.308594,-0.28906 0.308594,-0.80859 0,-0.51953 -0.304687,-0.80469 -0.304688,-0.28906 -0.855469,-0.28906 z m -0.789062,-0.64844 h 1.703125 q 0.976562,0 1.480469,0.44531 0.503906,0.44141 0.503906,1.29688 0,0.86328 -0.503906,1.30469 -0.5,0.4414 -1.480469,0.4414 h -0.914063 v 2.34375 h -0.789062 z"/><path id="path1103" d="m 18.976946,313.43439 q 0,-1.28516 -0.265625,-1.83594 -0.261719,-0.55078 -0.863281,-0.55078 -0.597657,0 -0.863282,0.55078 -0.261718,0.55078 -0.261718,1.83594 0,1.28125 0.261718,1.83203 0.265625,0.55078 0.863282,0.55078 0.601562,0 0.863281,-0.54688 0.265625,-0.55078 0.265625,-1.83593 z m 0.824219,0 q 0,1.52343 -0.484375,2.27343 -0.480469,0.75 -1.46875,0.75 -0.988282,0 -1.46875,-0.74609 -0.480469,-0.74609 -0.480469,-2.27734 0,-1.52735 0.480469,-2.27735 0.484375,-0.75 1.46875,-0.75 0.988281,0 1.46875,0.75 0.484375,0.75 0.484375,2.27735 z"/><path id="path1105" d="m 24.207415,310.71173 v 0.80078 q -0.359375,-0.23047 -0.722657,-0.34765 -0.359375,-0.11719 -0.726562,-0.11719 -0.558594,0 -0.882813,0.26172 -0.324218,0.25781 -0.324218,0.69922 0,0.38671 0.210937,0.58984 0.214844,0.20312 0.796875,0.33984 l 0.414063,0.0937 q 0.820312,0.19141 1.195312,0.60157 0.375,0.41015 0.375,1.11718 0,0.83203 -0.515625,1.26953 -0.515625,0.4375 -1.5,0.4375 -0.410156,0 -0.824219,-0.0898 -0.414062,-0.0859 -0.832031,-0.26172 v -0.83984 q 0.449219,0.28515 0.847656,0.41797 0.402344,0.13281 0.808594,0.13281 0.597656,0 0.929688,-0.26563 0.332031,-0.26953 0.332031,-0.75 0,-0.4375 -0.230469,-0.66796 -0.226562,-0.23047 -0.792969,-0.35547 l -0.421875,-0.0977 q -0.8125,-0.18359 -1.179687,-0.55469 -0.367188,-0.37109 -0.367188,-0.99609 0,-0.78125 0.523438,-1.25 0.527344,-0.47266 1.398437,-0.47266 0.335938,0 0.707032,0.0781 0.371093,0.0742 0.78125,0.22656 z"/><path id="path1107" d="m 25.851946,310.51251 h 3.238281 v 0.66406 h -1.222656 v 4.50391 h 1.222656 v 0.66406 h -3.238281 v -0.66406 h 1.222656 v -4.50391 h -1.222656 z"/><path id="path1109" d="m 30.062883,310.51251 h 4.449219 v 0.66406 h -1.824219 v 5.16797 h -0.792968 v -5.16797 h -1.832032 z"/><path id="path1111" d="m 35.476946,310.51251 h 3.238281 v 0.66406 h -1.222656 v 4.50391 h 1.222656 v 0.66406 h -3.238281 v -0.66406 h 1.222656 v -4.50391 h -1.222656 z"/><path id="path1113" d="m 43.039446,313.43439 q 0,-1.28516 -0.265625,-1.83594 -0.261719,-0.55078 -0.863281,-0.55078 -0.597657,0 -0.863282,0.55078 -0.261718,0.55078 -0.261718,1.83594 0,1.28125 0.261718,1.83203 0.265625,0.55078 0.863282,0.55078 0.601562,0 0.863281,-0.54688 0.265625,-0.55078 0.265625,-1.83593 z m 0.824219,0 q 0,1.52343 -0.484375,2.27343 -0.480469,0.75 -1.46875,0.75 -0.988282,0 -1.46875,-0.74609 -0.480469,-0.74609 -0.480469,-2.27734 0,-1.52735 0.480469,-2.27735 0.484375,-0.75 1.46875,-0.75 0.988281,0 1.46875,0.75 0.484375,0.75 0.484375,2.27735 z"/><path id="path1115" d="m 44.859758,310.51251 h 1 l 1.96875,4.80078 v -4.80078 h 0.761719 v 5.83203 h -1 l -1.96875,-4.80078 v 4.80078 h -0.761719 z"/></g><g style="font-style:normal;font-variant:normal;font-weight:400;font-stretch:normal;font-size:8px;line-height:1.25;font-family:'DejaVu Sans Mono';-inkscape-font-specification:'DejaVu Sans Mono, Normal';font-variant-ligatures:normal;font-variant-caps:normal;font-variant-numeric:normal;font-feature-settings:normal;text-align:center;letter-spacing:0;word-spacing:0;writing-mode:lr-tb;text-anchor:middle;fill:#000;fill-opacity:1;stroke:#000;stroke-width:.001;stroke-miterlimit:4;stroke-dasharray:none" id="text1055" aria-label="WIDTH"><path id="path1118" d="m 17.949602,374.51251 h 0.769531 l 0.558594,4.73438 0.664063,-3.13282 h 0.824218 l 0.671875,3.14063 0.558594,-4.74219 h 0.769531 l -0.871093,5.83203 h -0.746094 l -0.792969,-3.46484 -0.789062,3.46484 h -0.746094 z"/><path id="path1120" d="m 23.547258,374.51251 h 3.238282 v 0.66406 h -1.222657 v 4.50391 h 1.222657 v 0.66406 h -3.238282 v -0.66406 h 1.222657 v -4.50391 h -1.222657 z"/><path id="path1122" d="m 29.277727,379.69611 q 0.996094,0 1.390625,-0.48829 0.394531,-0.49218 0.394531,-1.77343 0,-1.29297 -0.394531,-1.78125 -0.390625,-0.49219 -1.390625,-0.49219 h -0.375 v 4.53516 z m 0.01563,-5.1836 q 1.335938,0 1.96875,0.71094 0.632813,0.71094 0.632813,2.21094 0,1.49218 -0.632813,2.20312 -0.632812,0.70703 -1.96875,0.70703 h -1.183594 v -5.83203 z"/><path id="path1124" d="m 32.570696,374.51251 h 4.449219 v 0.66406 h -1.824219 v 5.16797 h -0.792969 v -5.16797 h -1.832031 z"/><path id="path1126" d="m 37.734758,374.51251 h 0.792969 v 2.39063 h 2.160156 v -2.39063 h 0.792969 v 5.83203 h -0.792969 v -2.77734 h -2.160156 v 2.77734 h -0.792969 z"/></g><g style="font-style:normal;font-variant:normal;font-weight:400;font-stretch:normal;font-size:8px;line-height:1.25;font-family:'DejaVu Sans Mono';-inkscape-font-specification:'DejaVu Sans Mono, Normal';font-variant-ligatures:normal;font-variant-caps:normal;font-variant-numeric:normal;font-feature-settings:normal;text-align:center;letter-spacing:0;word-spacing:0;writing-mode:lr-tb;text-anchor:middle;fill:snow;fill-opacity:1;stroke:#000;stroke-width:.001;stroke-miterlimit:4;stroke-dasharray:none" id="text1059" aria-label="G"><path id="path1129" d="m 31.963366,439.86407 q -0.316407,0.29297 -0.714844,0.44532 -0.394531,0.14843 -0.855469,0.14843 -1.109375,0 -1.726562,-0.79296 -0.617188,-0.79688 -0.617188,-2.23047 0,-1.42969 0.625,-2.22657 0.625,-0.80078 1.738281,-0.80078 0.367188,0 0.703125,0.10547 0.335938,0.10156 0.648438,0.3125 v 0.8086 q -0.316406,-0.30079 -0.648438,-0.44141 -0.332031,-0.14453 -0.703125,-0.14453 -0.769531,0 -1.15625,0.59765 -0.382812,0.59375 -0.382812,1.78907 0,1.21484 0.371094,1.80078 0.375,0.58203 1.148437,0.58203 0.261719,0 0.457031,-0.0586 0.199219,-0.0625 0.359375,-0.19141 v -1.56641 h -0.847656 v -0.64843 h 1.601563 z"/></g><g style="font-style:normal;font-variant:normal;font-weight:400;font-stretch:normal;font-size:8px;line-height:1.25;font-family:'DejaVu Sans Mono';-inkscape-font-specification:'DejaVu Sans Mono, Normal';font-variant-ligatures:normal;font-variant-caps:normal;font-variant-numeric:normal;font-feature-settings:normal;text-align:center;letter-spacing:0;word-spacing:0;writing-mode:lr-tb;text-anchor:middle;fill:snow;fill-opacity:1;stroke:#000;stroke-width:.001;stroke-miterlimit:4;stroke-dasharray:none" id="text1063" aria-label="AND" transform="translate(0,-2)"><path id="path1132" d="m 10.359758,479.32111 -0.8320309,2.98437 H 11.19179 Z m -0.4765621,-0.69532 h 0.9570311 l 1.785156,5.83203 H 11.808977 L 11.37929,482.93829 H 9.3363209 l -0.421875,1.51953 H 8.0980396 Z"/><path id="path1134" d="m 13.308977,478.62579 h 1 l 1.96875,4.80078 v -4.80078 h 0.761719 v 5.83203 h -1 l -1.96875,-4.80078 v 4.80078 h -0.761719 z"/><path id="path1136" d="m 19.281633,483.80939 q 0.996094,0 1.390625,-0.48828 0.394532,-0.49219 0.394532,-1.77344 0,-1.29297 -0.394532,-1.78125 -0.390625,-0.49219 -1.390625,-0.49219 h -0.375 v 4.53516 z m 0.01563,-5.1836 q 1.335938,0 1.96875,0.71094 0.632813,0.71094 0.632813,2.21094 0,1.49219 -0.632813,2.20312 -0.632812,0.70703 -1.96875,0.70703 H 18.11367 v -5.83203 z"/></g><g style="font-style:normal;font-variant:normal;font-weight:400;font-stretch:normal;font-size:8px;line-height:1.25;font-family:'DejaVu Sans Mono';-inkscape-font-specification:'DejaVu Sans Mono, Normal';font-variant-ligatures:normal;font-variant-caps:normal;font-variant-numeric:normal;font-feature-settings:normal;text-align:center;letter-spacing:0;word-spacing:0;writing-mode:lr-tb;text-anchor:middle;fill:snow;fill-opacity:1;stroke:#000;stroke-width:.001;stroke-miterlimit:4;stroke-dasharray:none" id="text1067" aria-label="FLIP"><path id="path1139" d="m 36.008194,518.62579 h 3.433594 v 0.66407 h -2.640625 v 1.71875 h 2.394531 v 0.66406 h -2.394531 v 2.78515 h -0.792969 z"/><path id="path1141" d="m 40.750381,518.62579 h 0.792969 v 5.16797 h 2.816406 v 0.66406 h -3.609375 z"/><path id="path1143" d="m 45.508194,518.62579 h 3.238281 v 0.66407 h -1.222656 v 4.5039 h 1.222656 v 0.66406 h -3.238281 v -0.66406 h 1.222656 v -4.5039 h -1.222656 z"/><path id="path1145" d="m 51.094131,519.27423 v 2.19141 h 0.914063 q 0.546875,0 0.851562,-0.28907 0.308594,-0.28906 0.308594,-0.80859 0,-0.51953 -0.304687,-0.80469 -0.304688,-0.28906 -0.855469,-0.28906 z m -0.789062,-0.64844 h 1.703125 q 0.976562,0 1.480469,0.44532 0.503906,0.4414 0.503906,1.29687 0,0.86328 -0.503906,1.30469 -0.5,0.4414 -1.480469,0.4414 h -0.914063 v 2.34375 h -0.789062 z"/></g><rect id="rect1076" width="22" height="22" x="4" y="284.458" rx="11" ry="11" style="opacity:1;fill:#dcdcdc;fill-opacity:1;stroke:none;stroke-width:.001;stroke-linecap:butt;stroke-linejoin:miter;stroke-miterlimit:4;stroke-dasharray:none;stroke-opacity:1;paint-order:normal"/><rect style="opacity:1;fill:#b22222;fill-opacity:1;stroke:none;stroke-width:.001;stroke-linecap:butt;stroke-linejoin:miter;stroke-miterlimit:4;stroke-dasharray:none;stroke-opacity:1;paint-order:normal" id="rect1088" width="22" height="22" x="4" y="260.458" rx="11" ry="11"/><rect style="opacity:1;fill:#dcdcdc;fill-opacity:1;stroke:none;stroke-width:.001;stroke-linecap:butt;stroke-linejoin:miter;stroke-miterlimit:4;stroke-dasharray:none;stroke-opacity:1;paint-order:normal" id="rect1094" width="22" height="22" x="4" y="348.458" rx="11" ry="11"/><rect id="rect1100" width="22" height="22" x="4" y="324.458" rx="11" ry="11" style="opacity:1;fill:#b22222;fill-opacity:1;stroke:none;stroke-width:.001;stroke-linecap:butt;stroke-linejoin:miter;stroke-miterlimit:4;stroke-dasharray:none;stroke-opacity:1;paint-order:normal"/><rect id="rect1104" width="22" height="22" x="4" y="426.458" rx="11" ry="11" style="opacity:1;fill:#dcdcdc;fill-opacity:1;stroke:none;stroke-width:.001;stroke-linecap:butt;stroke-linejoin:miter;stroke-miterlimit:4;stroke-dasharray:none;stroke-opacity:1;paint-order:normal"/><rect style="opacity:1;fill:#dcdcdc;fill-opacity:1;stroke:none;stroke-width:.001;stroke-linecap:butt;stroke-linejoin:miter;stroke-miterlimit:4;stroke-dasharray:none;stroke-opacity:1;paint-order:normal" id="rect1110" width="22" height="22" x="4" y="450.458" rx="11" ry="11"/><rect style="opacity:1;fill:#dcdcdc;fill-opacity:1;stroke:none;stroke-width:.001;stroke-linecap:butt;stroke-linejoin:miter;stroke-miterlimit:4;stroke-dasharray:none;stroke-opacity:1;paint-order:normal" id="rect1120" width="22" height="22" x="4" y="532.458" rx="11" ry="11"/><rect id="rect1128" width="22" height="22" x="4" y="490.458" rx="11" ry="11" style="opacity:1;fill:#dcdcdc;fill-opacity:1;stroke:none;stroke-width:.001;stroke-linecap:butt;stroke-linejoin:miter;stroke-miterlimit:4;stroke-dasharray:none;stroke-opacity:1;paint-order:normal"/><rect style="opacity:1;fill:#dcdcdc;fill-opacity:1;stroke:none;stroke-width:.001;stroke-linecap:butt;stroke-linejoin:miter;stroke-miterlimit:4;stroke-dasharray:none;stroke-opacity:1;paint-order:normal" id="rect1136" width="22" height="22" x="34" y="426.458" rx="11" ry="11"/><rect id="rect1142" width="22" height="22" x="34" y="450.458" rx="11" ry="11" style="opacity:1;fill:#dcdcdc;fill-opacity:1;stroke:none;stroke-width:.001;stroke-linecap:butt;stroke-linejoin:miter;stroke-miterlimit:4;stroke-dasharray:none;stroke-opacity:1;paint-order:normal"/><rect id="rect1148" width="22" height="22" x="34" y="532.458" rx="11" ry="11" style="opacity:1;fill:#dcdcdc;fill-opacity:1;stroke:none;stroke-width:.001;stroke-linecap:butt;stroke-linejoin:miter;stroke-miterlimit:4;stroke-dasharray:none;stroke-opacity:1;paint-order:normal"/><rect style="opacity:1;fill:#dcdcdc;fill-opacity:1;stroke:none;stroke-width:.001;stroke-linecap:butt;stroke-linejoin:miter;stroke-miterlimit:4;stroke-dasharray:none;stroke-opacity:1;paint-order:normal" id="rect1154" width="22" height="22" x="34" y="490.458" rx="11" ry="11"/><rect style="opacity:1;fill:#dcdcdc;fill-opacity:1;stroke:none;stroke-width:.001;stroke-linecap:butt;stroke-linejoin:miter;stroke-miterlimit:4;stroke-dasharray:none;stroke-opacity:1;paint-order:normal" id="rect1173" width="22" height="22" x="34" y="284.458" rx="11" ry="11"/><rect id="rect1175" width="22" height="22" x="34" y="260.458" rx="11" ry="11" style="opacity:1;fill:#b22222;fill-opacity:1;stroke:none;stroke-width:.001;stroke-linecap:butt;stroke-linejoin:miter;stroke-miterlimit:4;stroke-dasharray:none;stroke-opacity:1;paint-order:normal"/><rect id="rect1177" width="22" height="22" x="34" y="348.458" rx="11" ry="11" style="opacity:1;fill:#dcdcdc;fill-opacity:1;stroke:none;stroke-width:.001;stroke-linecap:butt;stroke-linejoin:miter;stroke-miterlimit:4;stroke-dasharray:none;stroke-opacity:1;paint-order:normal"/><rect style="opacity:1;fill:#b22222;fill-opacity:1;stroke:none;stroke-width:.001;stroke-linecap:butt;stroke-linejoin:miter;stroke-miterlimit:4;stroke-dasharray:none;stroke-opacity:1;paint-order:normal" id="rect1179" width="22" height="22" x="34" y="324.458" rx="11" ry="11"/><rect id="rect1185" width="22" height="22" x="4" y="386.458" rx="11" ry="11" style="opacity:1;fill:#000;fill-opacity:1;stroke:none;stroke-width:.001;stroke-linecap:butt;stroke-linejoin:miter;stroke-miterlimit:4;stroke-dasharray:none;stroke-opacity:1;paint-order:normal"/><rect style="display:inline;opacity:1;fill:#000;fill-opacity:1;stroke:none;stroke-width:.001;stroke-linecap:butt;stroke-linejoin:miter;stroke-miterlimit:4;stroke-dasharray:none;stroke-opacity:1;paint-order:normal" id="rect1187" width="22" height="22" x="34" y="386.458" rx="11" ry="11"/></g></svg>