<svg xmlns="http://www.w3.org/2000/svg" xmlns:svg="http://www.w3.org/2000/svg" id="svg8" width="60" height="380" version="1.1" viewBox="0 0 15.875 100.542"><metadata id="metadata5"/><g style="display:inline" id="g1796" transform="translate(0,-196.45832)"><path id="path857" d="m 0,196.45832 v 3.96875 h 7.9375005 7.9375005 v -3.96875 H 7.9375005 Z m 1.9843751,1.12448 h 3.9687503 c 0.4763823,0 0.8598959,0.38351 0.8598959,0.8599 0,0.47638 -0.3835136,0.85989 -0.8598959,0.85989 H 1.9843751 c -0.4763823,0 -0.8598959,-0.38351 -0.8598959,-0.85989 0,-0.47639 0.3835136,-0.8599 0.8598959,-0.8599 z m 7.9375005,0 h 3.9687504 c 0.476383,0 0.859896,0.38352 0.859896,0.8599 0,0.47637 -0.383513,0.85989 -0.859896,0.85989 H 9.9218756 c -0.4763823,0 -0.8598959,-0.38352 -0.8598959,-0.85989 0,-0.47638 0.3835136,-0.8599 0.8598959,-0.8599 z" style="opacity:1;vector-effect:none;fill:gray;fill-opacity:1;fill-rule:evenodd;stroke:none;stroke-width:.05575613;stroke-linecap:butt;stroke-linejoin:round;stroke-miterlimit:4;stroke-dasharray:none;stroke-dashoffset:0;stroke-opacity:1;paint-order:normal"/><rect style="opacity:1;fill:#48d1cc;fill-opacity:1;stroke:#000;stroke-width:.02645834;stroke-linecap:square;stroke-linejoin:round;stroke-miterlimit:1.29999995;stroke-dasharray:none;stroke-opacity:1;paint-order:stroke markers fill" id="rect859" width="5.821" height="5.821" x="1.072" y="202.266" rx="2.91" ry="2.91"/><rect id="rect861" width="5.821" height="5.821" x="9.009" y="202.266" rx="2.91" ry="2.91" style="opacity:1;fill:#48d1cc;fill-opacity:1;stroke:#000;stroke-width:.02645834;stroke-linecap:square;stroke-linejoin:round;stroke-miterlimit:1.29999995;stroke-dasharray:none;stroke-opacity:1;paint-order:stroke markers fill"/><rect id="rect882" width="5.821" height="5.821" x="1.072" y="213.378" rx="2.91" ry="2.91" style="opacity:1;fill:#b22222;fill-opacity:1;stroke:#000;stroke-width:.02645834;stroke-linecap:square;stroke-linejoin:round;stroke-miterlimit:1.29999995;stroke-dasharray:none;stroke-opacity:1;paint-order:stroke markers fill"/><rect style="opacity:1;fill:#b22222;fill-opacity:1;stroke:#000;stroke-width:.02645834;stroke-linecap:square;stroke-linejoin:round;stroke-miterlimit:1.29999995;stroke-dasharray:none;stroke-opacity:1;paint-order:stroke markers fill" id="rect886" width="5.821" height="5.821" x="9.009" y="213.378" rx="2.91" ry="2.91"/><rect style="opacity:1;fill:#b22222;fill-opacity:1;stroke:#000;stroke-width:.02645834;stroke-linecap:square;stroke-linejoin:round;stroke-miterlimit:1.29999995;stroke-dasharray:none;stroke-opacity:1;paint-order:stroke markers fill" id="rect888" width="5.821" height="5.821" x="5.04" y="223.962" rx="2.91" ry="2.91"/><rect id="rect896" width="5.821" height="5.821" x="1.072" y="262.591" rx="2.91" ry="2.91" style="opacity:1;fill:#adff2f;fill-opacity:1;stroke:#000;stroke-width:.02645834;stroke-linecap:square;stroke-linejoin:round;stroke-miterlimit:1.29999995;stroke-dasharray:none;stroke-opacity:1;paint-order:stroke markers fill"/><rect style="opacity:1;fill:#adff2f;fill-opacity:1;stroke:#000;stroke-width:.02645834;stroke-linecap:square;stroke-linejoin:round;stroke-miterlimit:1.29999995;stroke-dasharray:none;stroke-opacity:1;paint-order:stroke markers fill" id="rect898" width="5.821" height="5.821" x="9.009" y="262.591" rx="2.91" ry="2.91"/><rect style="opacity:1;fill:#ff4500;fill-opacity:1;stroke:#000;stroke-width:.02645834;stroke-linecap:square;stroke-linejoin:round;stroke-miterlimit:1.29999995;stroke-dasharray:none;stroke-opacity:1;paint-order:stroke markers fill" id="rect912" width="5.821" height="5.821" x="1.072" y="238.249" rx="2.91" ry="2.91"/><rect id="rect914" width="5.821" height="5.821" x="9.009" y="238.249" rx="2.91" ry="2.91" style="opacity:1;fill:#ff4500;fill-opacity:1;stroke:#000;stroke-width:.02645834;stroke-linecap:square;stroke-linejoin:round;stroke-miterlimit:1.29999995;stroke-dasharray:none;stroke-opacity:1;paint-order:stroke markers fill"/><rect id="rect928" width="5.821" height="5.821" x="5.04" y="247.245" rx="2.91" ry="2.91" style="opacity:1;fill:#b22222;fill-opacity:1;stroke:#000;stroke-width:.02645834;stroke-linecap:square;stroke-linejoin:round;stroke-miterlimit:1.29999995;stroke-dasharray:none;stroke-opacity:1;paint-order:stroke markers fill"/><rect id="rect936" width="5.821" height="5.821" x="1.072" y="272.645" rx="2.91" ry="2.91" style="opacity:1;fill:#ff4500;fill-opacity:1;stroke:#000;stroke-width:.02645834;stroke-linecap:square;stroke-linejoin:round;stroke-miterlimit:1.29999995;stroke-dasharray:none;stroke-opacity:1;paint-order:stroke markers fill"/><rect style="opacity:1;fill:#ff4500;fill-opacity:1;stroke:#000;stroke-width:.02645834;stroke-linecap:square;stroke-linejoin:round;stroke-miterlimit:1.29999995;stroke-dasharray:none;stroke-opacity:1;paint-order:stroke markers fill" id="rect938" width="5.821" height="5.821" x="9.009" y="272.645" rx="2.91" ry="2.91"/><rect style="opacity:1;fill:#ff4500;fill-opacity:1;stroke:#000;stroke-width:.02645834;stroke-linecap:square;stroke-linejoin:round;stroke-miterlimit:1.29999995;stroke-dasharray:none;stroke-opacity:1;paint-order:stroke markers fill" id="rect952" width="5.821" height="5.821" x="1.072" y="278.995" rx="2.91" ry="2.91"/><rect id="rect954" width="5.821" height="5.821" x="9.009" y="278.995" rx="2.91" ry="2.91" style="opacity:1;fill:#ff4500;fill-opacity:1;stroke:#000;stroke-width:.02645834;stroke-linecap:square;stroke-linejoin:round;stroke-miterlimit:1.29999995;stroke-dasharray:none;stroke-opacity:1;paint-order:stroke markers fill"/><rect id="rect956" width="5.821" height="5.821" x="1.072" y="285.345" rx="2.91" ry="2.91" style="opacity:1;fill:#ff4500;fill-opacity:1;stroke:#000;stroke-width:.02645834;stroke-linecap:square;stroke-linejoin:round;stroke-miterlimit:1.29999995;stroke-dasharray:none;stroke-opacity:1;paint-order:stroke markers fill"/><rect style="opacity:1;fill:#ff4500;fill-opacity:1;stroke:#000;stroke-width:.02645834;stroke-linecap:square;stroke-linejoin:round;stroke-miterlimit:1.29999995;stroke-dasharray:none;stroke-opacity:1;paint-order:stroke markers fill" id="rect958" width="5.821" height="5.821" x="9.009" y="285.345" rx="2.91" ry="2.91"/><rect style="opacity:1;fill:#000;fill-opacity:1;stroke:#000;stroke-width:0;stroke-linecap:square;stroke-linejoin:round;stroke-miterlimit:1.29999995;stroke-dasharray:none;stroke-opacity:1;paint-order:stroke markers fill" id="rect980" width="1.058" height="1.058" x="3.453" y="261.281" rx=".529" ry=".529"/><rect id="rect982" width="1.058" height="1.058" x="11.39" y="261.281" rx=".529" ry=".529" style="opacity:1;fill:#000;fill-opacity:1;stroke:#000;stroke-width:0;stroke-linecap:square;stroke-linejoin:round;stroke-miterlimit:1.29999995;stroke-dasharray:none;stroke-opacity:1;paint-order:stroke markers fill"/><path style="opacity:1;vector-effect:none;fill:gray;fill-opacity:1;fill-rule:evenodd;stroke:none;stroke-width:.21073182;stroke-linecap:butt;stroke-linejoin:round;stroke-miterlimit:4;stroke-dasharray:none;stroke-dashoffset:0;stroke-opacity:1;paint-order:normal" id="path1790" d="m 0,365 v 15 H 30 60 V 365 H 30 Z m 7.5,4.25 h 15 c 1.8005,0 3.25,1.4495 3.25,3.25 0,1.8005 -1.4495,3.25 -3.25,3.25 h -15 c -1.8005,0 -3.25,-1.4495 -3.25,-3.25 0,-1.8005 1.4495,-3.25 3.25,-3.25 z m 30,0 h 15 c 1.800503,0 3.25,1.44951 3.25,3.25 0,1.80049 -1.449497,3.25 -3.25,3.25 h -15 c -1.8005,0 -3.25,-1.44951 -3.25,-3.25 0,-1.80049 1.4495,-3.25 3.25,-3.25 z" transform="matrix(0.26458335,0,0,0.26458335,0,196.45832)"/><path id="path1792" d="m 0,200.42707 h 15.875001 v 92.60417 H 0 Z" style="opacity:1;vector-effect:none;fill:gray;fill-opacity:1;fill-rule:evenodd;stroke:none;stroke-width:.38088688;stroke-linecap:butt;stroke-linejoin:round;stroke-miterlimit:4;stroke-dasharray:none;stroke-dashoffset:0;stroke-opacity:1;paint-order:normal"/><path style="opacity:1;vector-effect:none;fill:#696969;fill-opacity:1;fill-rule:evenodd;stroke:none;stroke-width:.37870413;stroke-linecap:butt;stroke-linejoin:round;stroke-miterlimit:4;stroke-dasharray:none;stroke-dashoffset:0;stroke-opacity:1;paint-order:normal" id="path1808" d="m 0,200.95623 h 15.875001 v 91.54584 H 0 Z"/><rect id="rect1022" width="15.081" height="10.319" x=".397" y="234.691" rx=".794" ry=".794" style="opacity:1;fill:#000;fill-opacity:.25490196;stroke:silver;stroke-width:.26458335;stroke-linecap:square;stroke-linejoin:round;stroke-miterlimit:1.29999995;stroke-dasharray:none;stroke-opacity:.25490196;paint-order:stroke markers fill"/><rect id="rect1018" width="11.906" height="2.91" x="1.984" y="253.476" rx="1.455" ry="1.455" style="display:inline;opacity:1;fill:#b22222;fill-opacity:1;stroke:none;stroke-width:.26458335;stroke-linecap:butt;stroke-linejoin:miter;stroke-miterlimit:4;stroke-dasharray:none;stroke-opacity:1;paint-order:normal"/><rect style="opacity:1;fill:#000;fill-opacity:.25490196;stroke:silver;stroke-width:.26458335;stroke-linecap:square;stroke-linejoin:round;stroke-miterlimit:1.29999995;stroke-dasharray:none;stroke-opacity:.25490196;paint-order:stroke markers fill" id="rect999" width="15.081" height="34.131" x=".397" y="257.974" rx=".794" ry=".794"/><rect id="rect1010" width="11.906" height="2.91" x="1.984" y="219.61" rx="1.455" ry="1.455" style="display:inline;opacity:1;fill:#b22222;fill-opacity:1;stroke:none;stroke-width:.26458335;stroke-linecap:butt;stroke-linejoin:miter;stroke-miterlimit:4;stroke-dasharray:none;stroke-opacity:1;paint-order:normal"/><rect style="display:inline;opacity:1;fill:#b22222;fill-opacity:1;stroke:none;stroke-width:.26458335;stroke-linecap:butt;stroke-linejoin:miter;stroke-miterlimit:4;stroke-dasharray:none;stroke-opacity:1;paint-order:normal" id="rect1015" width="11.906" height="2.91" x="1.984" y="230.193" rx="1.455" ry="1.455"/><rect id="rect1001" width="15.081" height="10.319" x=".397" y="201.353" rx=".794" ry=".794" style="opacity:1;fill:silver;fill-opacity:.25490196;stroke:#000;stroke-width:.26458335;stroke-linecap:square;stroke-linejoin:round;stroke-miterlimit:1.29999995;stroke-dasharray:none;stroke-opacity:.25490196;paint-order:stroke markers fill"/><text style="font-style:normal;font-variant:normal;font-weight:400;font-stretch:normal;font-size:2.11666679px;line-height:1.25;font-family:'DejaVu Sans Mono';-inkscape-font-specification:'DejaVu Sans Mono, Normal';font-variant-ligatures:normal;font-variant-caps:normal;font-variant-numeric:normal;font-feature-settings:normal;text-align:center;letter-spacing:0;word-spacing:0;writing-mode:lr-tb;text-anchor:middle;display:none;fill:#000;fill-opacity:1;stroke:none;stroke-width:.001;stroke-miterlimit:4;stroke-dasharray:none;stroke-opacity:1" id="text835" x="3.927" y="210.745" xml:space="preserve"><tspan id="tspan1024" x="3.927" y="210.745">POS</tspan></text><text id="text874" x="11.865" y="210.745" xml:space="preserve" style="font-style:normal;font-variant:normal;font-weight:400;font-stretch:normal;font-size:2.11666679px;line-height:1.25;font-family:'DejaVu Sans Mono';-inkscape-font-specification:'DejaVu Sans Mono, Normal';font-variant-ligatures:normal;font-variant-caps:normal;font-variant-numeric:normal;font-feature-settings:normal;text-align:center;letter-spacing:0;word-spacing:0;writing-mode:lr-tb;text-anchor:middle;display:none;fill:#000;fill-opacity:1;stroke:none;stroke-width:.001;stroke-miterlimit:4;stroke-dasharray:none;stroke-opacity:1"><tspan id="tspan1026" x="11.865" y="210.745">NEG</tspan></text><text id="text880" x="7.896" y="221.858" xml:space="preserve" style="font-style:normal;font-variant:normal;font-weight:400;font-stretch:normal;font-size:2.11666679px;line-height:1.25;font-family:'DejaVu Sans Mono';-inkscape-font-specification:'DejaVu Sans Mono, Normal';font-variant-ligatures:normal;font-variant-caps:normal;font-variant-numeric:normal;font-feature-settings:normal;text-align:center;letter-spacing:0;word-spacing:0;writing-mode:lr-tb;text-anchor:middle;display:none;fill:#000;fill-opacity:1;stroke:none;stroke-width:.001;stroke-miterlimit:4;stroke-dasharray:none;stroke-opacity:1"><tspan id="tspan1008" x="7.896" y="221.858">LEVEL</tspan></text><text style="font-style:normal;font-variant:normal;font-weight:400;font-stretch:normal;font-size:2.11666679px;line-height:1.25;font-family:'DejaVu Sans Mono';-inkscape-font-specification:'DejaVu Sans Mono, Normal';font-variant-ligatures:normal;font-variant-caps:normal;font-variant-numeric:normal;font-feature-settings:normal;text-align:center;letter-spacing:0;word-spacing:0;writing-mode:lr-tb;text-anchor:middle;display:none;fill:#000;fill-opacity:1;stroke:none;stroke-width:.001;stroke-miterlimit:4;stroke-dasharray:none;stroke-opacity:1" id="text892" x="7.896" y="232.441" xml:space="preserve"><tspan id="tspan894" x="7.896" y="232.441">OFFSET</tspan></text><text style="font-style:normal;font-variant:normal;font-weight:400;font-stretch:normal;font-size:2.11666679px;line-height:1.25;font-family:'DejaVu Sans Mono';-inkscape-font-specification:'DejaVu Sans Mono, Normal';font-variant-ligatures:normal;font-variant-caps:normal;font-variant-numeric:normal;font-feature-settings:normal;text-align:center;letter-spacing:0;word-spacing:0;writing-mode:lr-tb;text-anchor:middle;display:none;fill:snow;fill-opacity:1;stroke:none;stroke-width:.001;stroke-miterlimit:4;stroke-dasharray:none;stroke-opacity:1" id="text902" x="11.865" y="260.487" xml:space="preserve"><tspan id="tspan904" x="11.865" y="260.487">NATE</tspan></text><text id="text908" x="3.927" y="260.487" xml:space="preserve" style="font-style:normal;font-variant:normal;font-weight:400;font-stretch:normal;font-size:2.11666679px;line-height:1.25;font-family:'DejaVu Sans Mono';-inkscape-font-specification:'DejaVu Sans Mono, Normal';font-variant-ligatures:normal;font-variant-caps:normal;font-variant-numeric:normal;font-feature-settings:normal;text-align:center;letter-spacing:0;word-spacing:0;writing-mode:lr-tb;text-anchor:middle;display:none;fill:snow;fill-opacity:1;stroke:none;stroke-width:.001;stroke-miterlimit:4;stroke-dasharray:none;stroke-opacity:1"><tspan id="tspan910" x="3.927" y="260.487">GATE</tspan></text><text id="text918" x="11.865" y="-235.663" transform="scale(1,-1)" xml:space="preserve" style="font-style:normal;font-variant:normal;font-weight:400;font-stretch:normal;font-size:2.11666679px;line-height:1.25;font-family:'DejaVu Sans Mono';-inkscape-font-specification:'DejaVu Sans Mono, Normal';font-variant-ligatures:normal;font-variant-caps:normal;font-variant-numeric:normal;font-feature-settings:normal;text-align:center;letter-spacing:0;word-spacing:0;writing-mode:lr-tb;text-anchor:middle;display:none;fill:snow;fill-opacity:1;stroke:none;stroke-width:.001;stroke-miterlimit:4;stroke-dasharray:none;stroke-opacity:1"><tspan id="tspan926" x="11.865" y="-235.663">SUM</tspan></text><text style="font-style:normal;font-variant:normal;font-weight:400;font-stretch:normal;font-size:2.11666679px;line-height:1.25;font-family:'DejaVu Sans Mono';-inkscape-font-specification:'DejaVu Sans Mono, Normal';font-variant-ligatures:normal;font-variant-caps:normal;font-variant-numeric:normal;font-feature-settings:normal;text-align:center;letter-spacing:0;word-spacing:0;writing-mode:lr-tb;text-anchor:middle;display:none;fill:snow;fill-opacity:1;stroke:none;stroke-width:.001;stroke-miterlimit:4;stroke-dasharray:none;stroke-opacity:1" id="text922" x="3.927" y="237.204" xml:space="preserve"><tspan id="tspan924" x="3.927" y="237.204">SUM</tspan></text><text id="text932" x="7.896" y="255.724" xml:space="preserve" style="font-style:normal;font-variant:normal;font-weight:400;font-stretch:normal;font-size:2.11666679px;line-height:1.25;font-family:'DejaVu Sans Mono';-inkscape-font-specification:'DejaVu Sans Mono, Normal';font-variant-ligatures:normal;font-variant-caps:normal;font-variant-numeric:normal;font-feature-settings:normal;text-align:center;letter-spacing:0;word-spacing:0;writing-mode:lr-tb;text-anchor:middle;display:none;fill:#000;fill-opacity:1;stroke:none;stroke-width:.001;stroke-miterlimit:4;stroke-dasharray:none;stroke-opacity:1"><tspan id="tspan1028" x="7.896" y="255.724">HYST GAP</tspan></text><text id="text946" x="7.896" y="271.599" xml:space="preserve" style="font-style:normal;font-variant:normal;font-weight:400;font-stretch:normal;font-size:2.11666679px;line-height:1.25;font-family:'DejaVu Sans Mono';-inkscape-font-specification:'DejaVu Sans Mono, Normal';font-variant-ligatures:normal;font-variant-caps:normal;font-variant-numeric:normal;font-feature-settings:normal;text-align:center;letter-spacing:0;word-spacing:0;writing-mode:lr-tb;text-anchor:middle;display:none;fill:snow;fill-opacity:1;stroke:none;stroke-width:.001;stroke-miterlimit:4;stroke-dasharray:none;stroke-opacity:1"><tspan id="tspan950" x="7.896" y="271.599">GATED OUTS</tspan></text><text style="font-style:normal;font-variant:normal;font-weight:400;font-stretch:normal;font-size:2.11666679px;line-height:1.25;font-family:'DejaVu Sans Mono';-inkscape-font-specification:'DejaVu Sans Mono, Normal';font-variant-ligatures:normal;font-variant-caps:normal;font-variant-numeric:normal;font-feature-settings:normal;text-align:center;letter-spacing:0;word-spacing:0;writing-mode:lr-tb;text-anchor:middle;display:none;fill:snow;fill-opacity:1;stroke:none;stroke-width:.001;stroke-miterlimit:4;stroke-dasharray:none;stroke-opacity:1" id="text962" x="7.896" y="276.362" xml:space="preserve"><tspan id="tspan964" x="7.896" y="276.362">S</tspan></text><text id="text968" x="7.896" y="282.712" xml:space="preserve" style="font-style:normal;font-variant:normal;font-weight:400;font-stretch:normal;font-size:2.11666679px;line-height:1.25;font-family:'DejaVu Sans Mono';-inkscape-font-specification:'DejaVu Sans Mono, Normal';font-variant-ligatures:normal;font-variant-caps:normal;font-variant-numeric:normal;font-feature-settings:normal;text-align:center;letter-spacing:0;word-spacing:0;writing-mode:lr-tb;text-anchor:middle;display:none;fill:snow;fill-opacity:1;stroke:none;stroke-width:.001;stroke-miterlimit:4;stroke-dasharray:none;stroke-opacity:1"><tspan id="tspan970" x="7.896" y="282.712">P</tspan></text><text style="font-style:normal;font-variant:normal;font-weight:400;font-stretch:normal;font-size:2.11666679px;line-height:1.25;font-family:'DejaVu Sans Mono';-inkscape-font-specification:'DejaVu Sans Mono, Normal';font-variant-ligatures:normal;font-variant-caps:normal;font-variant-numeric:normal;font-feature-settings:normal;text-align:center;letter-spacing:0;word-spacing:0;writing-mode:lr-tb;text-anchor:middle;display:none;fill:snow;fill-opacity:1;stroke:none;stroke-width:.001;stroke-miterlimit:4;stroke-dasharray:none;stroke-opacity:1" id="text974" x="7.896" y="289.062" xml:space="preserve"><tspan id="tspan976" x="7.896" y="289.062">N</tspan></text><g style="font-style:normal;font-variant:normal;font-weight:400;font-stretch:normal;font-size:2.11666679px;line-height:1.25;font-family:'DejaVu Sans Mono';-inkscape-font-specification:'DejaVu Sans Mono, Normal';font-variant-ligatures:normal;font-variant-caps:normal;font-variant-numeric:normal;font-feature-settings:normal;text-align:center;letter-spacing:0;word-spacing:0;writing-mode:lr-tb;text-anchor:middle;fill:#000;fill-opacity:1;stroke:none;stroke-width:.001;stroke-miterlimit:4;stroke-dasharray:none;stroke-opacity:1" id="text1032" aria-label="POS"><path id="path1082" d="m 2.4296194,209.37382 v 0.57981 h 0.2418457 q 0.144694,0 0.2253092,-0.0765 0.081649,-0.0765 0.081649,-0.21394 0,-0.13746 -0.080615,-0.21291 -0.080615,-0.0765 -0.2263428,-0.0765 z m -0.2087728,-0.17156 h 0.4506185 q 0.2583822,0 0.3917074,0.11782 0.1333252,0.11679 0.1333252,0.34313 0,0.22841 -0.1333252,0.3452 -0.1322917,0.11679 -0.3917074,0.11679 H 2.4296194 v 0.62012 H 2.2208466 Z"/><path id="path1084" d="m 4.2258922,209.97534 q 0,-0.34003 -0.07028,-0.48576 -0.069246,-0.14573 -0.2284099,-0.14573 -0.1581299,0 -0.2284098,0.14573 -0.069246,0.14573 -0.069246,0.48576 0,0.33899 0.069246,0.48472 0.07028,0.14573 0.2284098,0.14573 0.1591634,0 0.2284099,-0.14469 0.07028,-0.14573 0.07028,-0.48576 z m 0.2180746,0 q 0,0.40307 -0.1281576,0.60151 -0.127124,0.19844 -0.3886068,0.19844 -0.2614827,0 -0.3886068,-0.19741 -0.127124,-0.1974 -0.127124,-0.60254 0,-0.40411 0.127124,-0.60255 0.1281576,-0.19844 0.3886068,-0.19844 0.2614828,0 0.3886068,0.19844 0.1281576,0.19844 0.1281576,0.60255 z"/><path id="path1086" d="m 5.6097871,209.25497 v 0.21187 q -0.095085,-0.061 -0.1912028,-0.092 -0.095085,-0.031 -0.1922363,-0.031 -0.1477946,0 -0.2335775,0.0692 -0.085783,0.0682 -0.085783,0.185 0,0.10232 0.05581,0.15606 0.056844,0.0537 0.2108399,0.0899 l 0.109554,0.0248 q 0.2170411,0.0507 0.3162598,0.15917 0.099219,0.10852 0.099219,0.29559 0,0.22014 -0.1364258,0.33589 -0.1364258,0.11576 -0.396875,0.11576 -0.1085205,0 -0.2180746,-0.0238 -0.109554,-0.0227 -0.2201416,-0.0693 v -0.22221 q 0.1188558,0.0754 0.2242757,0.11059 0.1064535,0.0351 0.2139405,0.0351 0.1581299,0 0.2459798,-0.0703 0.08785,-0.0713 0.08785,-0.19844 0,-0.11575 -0.060978,-0.17673 -0.059945,-0.061 -0.2098063,-0.094 l -0.1116211,-0.0258 q -0.214974,-0.0486 -0.3121257,-0.14676 -0.097152,-0.0982 -0.097152,-0.26355 0,-0.20671 0.1384929,-0.33073 0.1395264,-0.12506 0.3700033,-0.12506 0.088883,0 0.1870687,0.0207 0.098185,0.0196 0.2067057,0.0599 z"/></g><g style="font-style:normal;font-variant:normal;font-weight:400;font-stretch:normal;font-size:2.11666679px;line-height:1.25;font-family:'DejaVu Sans Mono';-inkscape-font-specification:'DejaVu Sans Mono, Normal';font-variant-ligatures:normal;font-variant-caps:normal;font-variant-numeric:normal;font-feature-settings:normal;text-align:center;letter-spacing:0;word-spacing:0;writing-mode:lr-tb;text-anchor:middle;fill:#000;fill-opacity:1;stroke:none;stroke-width:.001;stroke-miterlimit:4;stroke-dasharray:none;stroke-opacity:1" id="text1036" aria-label="NEG"><path id="path1089" d="m 10.098405,209.20226 h 0.264583 l 0.520898,1.2702 v -1.2702 h 0.201538 v 1.54306 h -0.264583 l -0.520898,-1.27021 v 1.27021 h -0.201538 z"/><path id="path1091" d="m 11.431657,209.20226 h 0.915706 v 0.1757 h -0.706934 v 0.45682 h 0.675928 v 0.1757 h -0.675928 v 0.55914 H 12.367 v 0.1757 h -0.935343 z"/><path id="path1093" d="m 13.642374,210.61819 q -0.08371,0.0775 -0.189135,0.11782 -0.104387,0.0393 -0.226343,0.0393 -0.293522,0 -0.45682,-0.20981 -0.163297,-0.21084 -0.163297,-0.59014 0,-0.37827 0.165364,-0.58911 0.165365,-0.21188 0.45992,-0.21188 0.09715,0 0.186036,0.0279 0.08888,0.0269 0.171565,0.0827 v 0.21394 q -0.08372,-0.0796 -0.171565,-0.11679 -0.08785,-0.0382 -0.186036,-0.0382 -0.203605,0 -0.305924,0.15813 -0.101286,0.1571 -0.101286,0.47336 0,0.32142 0.09819,0.47645 0.09922,0.154 0.303858,0.154 0.06925,0 0.120923,-0.0155 0.05271,-0.0165 0.09508,-0.0507 v -0.41444 h -0.224275 v -0.17157 h 0.423746 z"/></g><g style="font-style:normal;font-variant:normal;font-weight:400;font-stretch:normal;font-size:2.11666679px;line-height:1.25;font-family:'DejaVu Sans Mono';-inkscape-font-specification:'DejaVu Sans Mono, Normal';font-variant-ligatures:normal;font-variant-caps:normal;font-variant-numeric:normal;font-feature-settings:normal;text-align:center;letter-spacing:0;word-spacing:0;writing-mode:lr-tb;text-anchor:middle;fill:#000;fill-opacity:1;stroke:none;stroke-width:.001;stroke-miterlimit:4;stroke-dasharray:none;stroke-opacity:1" id="text1040" aria-label="LEVEL"><path id="path1096" d="m 4.9349793,220.31476 h 0.2098063 v 1.36736 h 0.7451742 v 0.1757 H 4.9349793 Z"/><path id="path1098" d="m 6.1896831,220.31476 h 0.9157064 v 0.1757 H 6.3984559 v 0.45682 h 0.6759277 v 0.1757 H 6.3984559 v 0.55914 h 0.7265706 v 0.1757 H 6.1896831 Z"/><path id="path1100" d="m 7.8960389,221.68212 0.3627686,-1.36736 H 8.474815 l -0.451652,1.54306 H 7.7699484 l -0.451652,-1.54306 h 0.2160075 z"/><path id="path1102" d="m 8.7362977,220.31476 h 0.9157064 v 0.1757 H 8.9450705 v 0.45682 h 0.6759278 v 0.1757 H 8.9450705 v 0.55914 h 0.7265707 v 0.1757 H 8.7362977 Z"/><path id="path1104" d="m 10.028209,220.31476 h 0.209806 v 1.36736 h 0.745174 v 0.1757 h -0.95498 z"/></g><g style="font-style:normal;font-variant:normal;font-weight:400;font-stretch:normal;font-size:2.11666679px;line-height:1.25;font-family:'DejaVu Sans Mono';-inkscape-font-specification:'DejaVu Sans Mono, Normal';font-variant-ligatures:normal;font-variant-caps:normal;font-variant-numeric:normal;font-feature-settings:normal;text-align:center;letter-spacing:0;word-spacing:0;writing-mode:lr-tb;text-anchor:middle;fill:#000;fill-opacity:1;stroke:none;stroke-width:.001;stroke-miterlimit:4;stroke-dasharray:none;stroke-opacity:1" id="text1044" aria-label="OFFSET"><path id="path1107" d="m 5.0114604,231.67118 q 0,-0.34003 -0.07028,-0.48576 -0.069246,-0.14572 -0.2284098,-0.14572 -0.1581299,0 -0.2284099,0.14572 -0.069246,0.14573 -0.069246,0.48576 0,0.339 0.069246,0.48473 0.07028,0.14573 0.2284099,0.14573 0.1591634,0 0.2284098,-0.1447 0.07028,-0.14573 0.07028,-0.48576 z m 0.2180745,0 q 0,0.40308 -0.1281575,0.60152 -0.127124,0.19843 -0.3886068,0.19843 -0.2614828,0 -0.3886068,-0.1974 -0.127124,-0.1974 -0.127124,-0.60255 0,-0.40411 0.127124,-0.60254 0.1281576,-0.19844 0.3886068,-0.19844 0.2614828,0 0.3886068,0.19844 0.1281575,0.19843 0.1281575,0.60254 z"/><path id="path1109" d="m 5.5902364,230.8981 h 0.9084718 v 0.1757 H 5.8000427 v 0.45476 h 0.6335531 v 0.1757 H 5.8000427 v 0.7369 H 5.5902364 Z"/><path id="path1111" d="m 6.8635437,230.8981 h 0.9084718 v 0.1757 H 7.0733501 v 0.45476 h 0.6335531 v 0.1757 H 7.0733501 v 0.7369 H 6.8635437 Z"/><path id="path1113" d="m 8.9419699,230.95081 v 0.21188 q -0.095085,-0.061 -0.1912028,-0.092 -0.095085,-0.031 -0.1922363,-0.031 -0.1477946,0 -0.2335775,0.0692 -0.085783,0.0682 -0.085783,0.18501 0,0.10231 0.055811,0.15606 0.056844,0.0537 0.2108398,0.0899 l 0.1095541,0.0248 q 0.217041,0.0506 0.3162597,0.15916 0.099219,0.10852 0.099219,0.29559 0,0.22014 -0.1364258,0.3359 -0.1364258,0.11575 -0.396875,0.11575 -0.1085205,0 -0.2180746,-0.0238 -0.109554,-0.0227 -0.2201416,-0.0692 v -0.22221 q 0.1188558,0.0754 0.2242757,0.11059 0.1064535,0.0351 0.2139405,0.0351 0.1581299,0 0.2459798,-0.0703 0.08785,-0.0713 0.08785,-0.19844 0,-0.11576 -0.060978,-0.17674 -0.059945,-0.061 -0.2098064,-0.094 l -0.1116211,-0.0258 q -0.2149739,-0.0486 -0.3121256,-0.14677 -0.097152,-0.0982 -0.097152,-0.26355 0,-0.2067 0.1384928,-0.33072 0.1395264,-0.12506 0.3700033,-0.12506 0.088883,0 0.1870687,0.0207 0.098185,0.0196 0.2067057,0.0599 z"/><path id="path1115" d="m 9.3729514,230.8981 h 0.9157066 v 0.1757 H 9.5817242 v 0.45682 h 0.6759278 v 0.1757 H 9.5817242 v 0.55914 h 0.7265708 v 0.1757 H 9.3729514 Z"/><path id="path1117" d="m 10.491229,230.8981 h 1.17719 v 0.1757 h -0.482658 v 1.36736 h -0.209807 v -1.36736 h -0.484725 z"/></g><g style="font-style:normal;font-variant:normal;font-weight:400;font-stretch:normal;font-size:2.11666679px;line-height:1.25;font-family:'DejaVu Sans Mono';-inkscape-font-specification:'DejaVu Sans Mono, Normal';font-variant-ligatures:normal;font-variant-caps:normal;font-variant-numeric:normal;font-feature-settings:normal;text-align:center;letter-spacing:0;word-spacing:0;writing-mode:lr-tb;text-anchor:middle;fill:snow;fill-opacity:1;stroke:none;stroke-width:.001;stroke-miterlimit:4;stroke-dasharray:none;stroke-opacity:1" id="text1048" aria-label="NATE"><path id="path1120" d="m 9.4617508,258.94354 h 0.2645834 l 0.5208988,1.27021 v -1.27021 h 0.201538 v 1.54306 h -0.264584 l -0.5208981,-1.2702 v 1.2702 H 9.4617508 Z"/><path id="path1122" d="m 11.228051,259.12751 -0.220141,0.78962 h 0.440283 z m -0.12609,-0.18397 h 0.253214 l 0.472323,1.54306 h -0.216007 l -0.113689,-0.40204 h -0.540535 l -0.111621,0.40204 h -0.216008 z"/><path id="path1124" d="m 11.913281,258.94354 h 1.177189 v 0.1757 h -0.482658 v 1.36736 h -0.209806 v -1.36736 h -0.484725 z"/><path id="path1126" d="m 13.341617,258.94354 h 0.915707 v 0.1757 H 13.55039 v 0.45682 h 0.675928 v 0.1757 H 13.55039 v 0.55914 h 0.726571 v 0.1757 h -0.935344 z"/></g><g style="font-style:normal;font-variant:normal;font-weight:400;font-stretch:normal;font-size:2.11666679px;line-height:1.25;font-family:'DejaVu Sans Mono';-inkscape-font-specification:'DejaVu Sans Mono, Normal';font-variant-ligatures:normal;font-variant-caps:normal;font-variant-numeric:normal;font-feature-settings:normal;text-align:center;letter-spacing:0;word-spacing:0;writing-mode:lr-tb;text-anchor:middle;fill:snow;fill-opacity:1;stroke:none;stroke-width:.001;stroke-miterlimit:4;stroke-dasharray:none;stroke-opacity:1" id="text1052" aria-label="GATE"><path id="path1129" d="m 2.5216056,260.35948 q -0.083716,0.0775 -0.1891358,0.11782 -0.1043864,0.0393 -0.2263428,0.0393 -0.2935221,0 -0.4568197,-0.20981 -0.1632975,-0.21084 -0.1632975,-0.59015 0,-0.37827 0.1653646,-0.58911 0.1653646,-0.21187 0.4599203,-0.21187 0.097152,0 0.1860351,0.0279 0.088884,0.0269 0.1715658,0.0827 v 0.21394 q -0.083716,-0.0796 -0.1715658,-0.11679 -0.08785,-0.0382 -0.1860351,-0.0382 -0.2036052,0 -0.3059245,0.15813 -0.1012858,0.15709 -0.1012858,0.47335 0,0.32143 0.098185,0.47646 0.099219,0.154 0.3038574,0.154 0.069246,0 0.1209229,-0.0155 0.05271,-0.0165 0.095085,-0.0506 v -0.41444 H 2.0978588 v -0.17157 h 0.4237468 z"/><path id="path1131" d="m 3.2905509,259.12751 -0.2201416,0.78962 h 0.4402832 z m -0.1260905,-0.18397 h 0.2532145 l 0.4723226,1.54306 H 3.67399 L 3.5603019,260.08456 H 3.0197664 L 2.9081453,260.4866 H 2.6921378 Z"/><path id="path1133" d="m 3.9757804,258.94354 h 1.1771892 v 0.1757 H 4.6703117 v 1.36736 H 4.4605053 v -1.36736 H 3.9757804 Z"/><path id="path1135" d="m 5.404117,258.94354 h 0.9157064 v 0.1757 H 5.6128898 v 0.45682 h 0.6759278 v 0.1757 H 5.6128898 v 0.55914 h 0.7265707 v 0.1757 H 5.404117 Z"/></g><g style="font-style:normal;font-variant:normal;font-weight:400;font-stretch:normal;font-size:2.11666679px;line-height:1.25;font-family:'DejaVu Sans Mono';-inkscape-font-specification:'DejaVu Sans Mono, Normal';font-variant-ligatures:normal;font-variant-caps:normal;font-variant-numeric:normal;font-feature-settings:normal;text-align:center;letter-spacing:0;word-spacing:0;writing-mode:lr-tb;text-anchor:middle;fill:snow;fill-opacity:1;stroke:none;stroke-width:.001;stroke-miterlimit:4;stroke-dasharray:none;stroke-opacity:1" id="text1056" aria-label="SUM" transform="matrix(-1,0,0,1,23.783157,472.86665)"><path id="path1138" d="m 11.000675,-237.15305 v 0.21187 q -0.09508,-0.061 -0.191203,-0.092 -0.09508,-0.031 -0.192236,-0.031 -0.147795,0 -0.233578,0.0692 -0.08578,0.0682 -0.08578,0.185 0,0.10232 0.05581,0.15606 0.05684,0.0537 0.21084,0.0899 l 0.109554,0.0248 q 0.217041,0.0506 0.31626,0.15917 0.09922,0.10852 0.09922,0.29559 0,0.22014 -0.136426,0.33589 -0.136426,0.11576 -0.396875,0.11576 -0.108521,0 -0.218075,-0.0238 -0.109554,-0.0227 -0.220141,-0.0693 v -0.22221 q 0.118855,0.0754 0.224275,0.11059 0.106454,0.0351 0.213941,0.0351 0.15813,0 0.24598,-0.0703 0.08785,-0.0713 0.08785,-0.19844 0,-0.11575 -0.06098,-0.17673 -0.05994,-0.061 -0.209806,-0.0941 l -0.111621,-0.0258 q -0.214974,-0.0486 -0.312126,-0.14676 -0.09715,-0.0982 -0.09715,-0.26355 0,-0.20671 0.138492,-0.33073 0.139527,-0.12506 0.370004,-0.12506 0.08888,0 0.187068,0.0207 0.09819,0.0196 0.206706,0.0599 z"/><path id="path1140" d="m 11.37998,-236.25492 v -0.95084 h 0.209806 v 1.04593 q 0,0.11265 0.0062,0.16123 0.0062,0.0475 0.0217,0.0734 0.03307,0.061 0.09508,0.092 0.06305,0.031 0.151929,0.031 0.08992,0 0.151929,-0.031 0.06201,-0.031 0.09612,-0.092 0.0155,-0.0258 0.0217,-0.0734 0.0062,-0.0475 0.0062,-0.15916 v -1.048 h 0.208773 v 0.95084 q 0,0.23668 -0.02997,0.33693 -0.02894,0.0992 -0.101286,0.16434 -0.06821,0.061 -0.156063,0.0909 -0.08785,0.03 -0.197404,0.03 -0.10852,0 -0.19637,-0.03 -0.08785,-0.03 -0.157097,-0.0909 -0.07131,-0.0641 -0.101286,-0.16537 -0.02997,-0.10232 -0.02997,-0.3359 z"/><path id="path1142" d="m 12.590242,-237.20576 h 0.279053 l 0.26665,0.78548 0.268718,-0.78548 h 0.280086 v 1.54306 h -0.19327 v -1.36323 l -0.274918,0.81339 h -0.15813 l -0.275953,-0.81339 v 1.36323 h -0.192236 z"/></g><g style="font-style:normal;font-variant:normal;font-weight:400;font-stretch:normal;font-size:2.11666679px;line-height:1.25;font-family:'DejaVu Sans Mono';-inkscape-font-specification:'DejaVu Sans Mono, Normal';font-variant-ligatures:normal;font-variant-caps:normal;font-variant-numeric:normal;font-feature-settings:normal;text-align:center;letter-spacing:0;word-spacing:0;writing-mode:lr-tb;text-anchor:middle;fill:snow;fill-opacity:1;stroke:none;stroke-width:.001;stroke-miterlimit:4;stroke-dasharray:none;stroke-opacity:1" id="text1060" aria-label="SUM"><path id="path1145" d="m 3.0631746,235.7133 v 0.21187 q -0.095085,-0.061 -0.1912028,-0.092 -0.095085,-0.031 -0.1922363,-0.031 -0.1477946,0 -0.2335775,0.0693 -0.085783,0.0682 -0.085783,0.185 0,0.10232 0.05581,0.15606 0.056844,0.0537 0.2108399,0.0899 l 0.109554,0.0248 q 0.2170411,0.0506 0.3162598,0.15916 0.099219,0.10853 0.099219,0.29559 0,0.22015 -0.1364258,0.3359 -0.1364258,0.11576 -0.396875,0.11576 -0.1085205,0 -0.2180746,-0.0238 -0.109554,-0.0227 -0.2201416,-0.0692 v -0.22221 q 0.1188558,0.0755 0.2242757,0.11059 0.1064535,0.0351 0.2139405,0.0351 0.1581299,0 0.2459798,-0.0703 0.08785,-0.0713 0.08785,-0.19844 0,-0.11576 -0.060978,-0.17673 -0.059945,-0.061 -0.2098063,-0.0941 l -0.1116211,-0.0258 q -0.214974,-0.0486 -0.3121257,-0.14676 -0.097152,-0.0982 -0.097152,-0.26355 0,-0.20671 0.1384929,-0.33073 0.1395264,-0.12506 0.3700033,-0.12506 0.088883,0 0.1870687,0.0207 0.098185,0.0196 0.2067057,0.06 z"/><path id="path1147" d="m 3.4424796,236.61143 v -0.95084 h 0.2098063 v 1.04593 q 0,0.11265 0.0062,0.16123 0.0062,0.0475 0.021704,0.0734 0.033073,0.061 0.095085,0.092 0.063045,0.031 0.1519288,0.031 0.089917,0 0.1519287,-0.031 0.062012,-0.031 0.096118,-0.092 0.015503,-0.0258 0.021704,-0.0734 0.0062,-0.0476 0.0062,-0.15917 v -1.04799 h 0.2087728 v 0.95084 q 0,0.23668 -0.029972,0.33693 -0.028939,0.0992 -0.1012858,0.16433 -0.068213,0.061 -0.1560629,0.091 -0.08785,0.03 -0.1974039,0.03 -0.1085206,0 -0.1963705,-0.03 -0.08785,-0.03 -0.1570964,-0.091 -0.071313,-0.0641 -0.1012858,-0.16536 -0.029972,-0.10232 -0.029972,-0.3359 z"/><path id="path1149" d="m 4.6527417,235.66059 h 0.2790527 l 0.2666504,0.78548 0.2687175,-0.78548 h 0.2800863 v 1.54305 H 5.5539787 v -1.36322 l -0.2749186,0.81339 H 5.1209302 L 4.844978,235.84042 v 1.36322 H 4.6527417 Z"/></g><g style="font-style:normal;font-variant:normal;font-weight:400;font-stretch:normal;font-size:2.11666679px;line-height:1.25;font-family:'DejaVu Sans Mono';-inkscape-font-specification:'DejaVu Sans Mono, Normal';font-variant-ligatures:normal;font-variant-caps:normal;font-variant-numeric:normal;font-feature-settings:normal;text-align:center;letter-spacing:0;word-spacing:0;writing-mode:lr-tb;text-anchor:middle;fill:#000;fill-opacity:1;stroke:none;stroke-width:.001;stroke-miterlimit:4;stroke-dasharray:none;stroke-opacity:1" id="text1064" aria-label="HYST GAP"><path id="path1152" d="m 2.944403,254.18126 h 0.2098063 v 0.63252 h 0.5715414 v -0.63252 H 3.935557 v 1.54306 H 3.7257507 v -0.73484 H 3.1542093 v 0.73484 H 2.944403 Z"/><path id="path1154" d="m 4.1143574,254.18126 h 0.2222087 l 0.3762044,0.6811 0.375171,-0.6811 h 0.2242757 l -0.4950603,0.8506 v 0.69246 H 4.6073506 v -0.69246 z"/><path id="path1156" d="m 6.3953552,254.23397 v 0.21187 q -0.095085,-0.061 -0.1912028,-0.092 -0.095085,-0.031 -0.1922363,-0.031 -0.1477946,0 -0.2335775,0.0693 -0.085783,0.0682 -0.085783,0.185 0,0.10232 0.055811,0.15607 0.056844,0.0537 0.2108398,0.0899 l 0.1095541,0.0248 q 0.217041,0.0506 0.3162597,0.15916 0.099219,0.10852 0.099219,0.29559 0,0.22014 -0.1364258,0.3359 -0.1364258,0.11575 -0.396875,0.11575 -0.1085205,0 -0.2180746,-0.0238 -0.109554,-0.0227 -0.2201416,-0.0693 v -0.2222 q 0.1188558,0.0754 0.2242757,0.11058 0.1064535,0.0351 0.2139405,0.0351 0.1581299,0 0.2459798,-0.0703 0.08785,-0.0713 0.08785,-0.19843 0,-0.11576 -0.060978,-0.17674 -0.059945,-0.061 -0.2098064,-0.0941 l -0.1116211,-0.0258 q -0.2149739,-0.0486 -0.3121256,-0.14676 -0.097152,-0.0982 -0.097152,-0.26355 0,-0.2067 0.1384928,-0.33073 0.1395264,-0.12505 0.3700033,-0.12505 0.088883,0 0.1870687,0.0207 0.098185,0.0196 0.2067057,0.0599 z"/><path id="path1158" d="m 6.6713074,254.18126 h 1.1771892 v 0.1757 h -0.482658 v 1.36736 H 7.1560323 v -1.36736 H 6.6713074 Z"/><path id="path1160" d="m 10.310362,255.5972 q -0.08372,0.0775 -0.189136,0.11782 -0.104386,0.0393 -0.2263427,0.0393 -0.2935221,0 -0.4568197,-0.2098 -0.1632975,-0.21084 -0.1632975,-0.59015 0,-0.37827 0.1653646,-0.58911 0.1653646,-0.21187 0.4599203,-0.21187 0.097152,0 0.186035,0.0279 0.08888,0.0269 0.171566,0.0827 v 0.21394 q -0.08372,-0.0796 -0.171566,-0.11678 -0.08785,-0.0383 -0.186035,-0.0383 -0.2036052,0 -0.3059245,0.15813 -0.1012859,0.1571 -0.1012859,0.47336 0,0.32143 0.098185,0.47646 0.099219,0.15399 0.3038574,0.15399 0.069246,0 0.120923,-0.0155 0.05271,-0.0165 0.09509,-0.0506 V 255.1042 H 9.8866151 v -0.17156 h 0.4237469 z"/><path id="path1162" d="m 11.079307,254.36523 -0.220141,0.78962 h 0.440283 z m -0.12609,-0.18397 h 0.253214 l 0.472323,1.54306 h -0.216008 l -0.113688,-0.40204 h -0.540535 l -0.111621,0.40204 h -0.216008 z"/><path id="path1164" d="m 12.128338,254.35283 v 0.57981 h 0.241846 q 0.144694,0 0.225309,-0.0765 0.08165,-0.0765 0.08165,-0.21395 0,-0.13745 -0.08061,-0.2129 -0.08061,-0.0765 -0.226343,-0.0765 z m -0.208773,-0.17157 h 0.450619 q 0.258382,0 0.391707,0.11782 0.133326,0.11679 0.133326,0.34313 0,0.22841 -0.133326,0.3452 -0.132291,0.11679 -0.391707,0.11679 h -0.241846 v 0.62012 h -0.208773 z"/></g><g style="font-style:normal;font-variant:normal;font-weight:400;font-stretch:normal;font-size:2.11666679px;line-height:1.25;font-family:'DejaVu Sans Mono';-inkscape-font-specification:'DejaVu Sans Mono, Normal';font-variant-ligatures:normal;font-variant-caps:normal;font-variant-numeric:normal;font-feature-settings:normal;text-align:center;letter-spacing:0;word-spacing:0;writing-mode:lr-tb;text-anchor:middle;fill:snow;fill-opacity:1;stroke:none;stroke-width:.001;stroke-miterlimit:4;stroke-dasharray:none;stroke-opacity:1" id="text1068" aria-label="GATED OUTS"><path id="path1167" d="m 2.6703529,271.47221 q -0.083716,0.0775 -0.1891358,0.11782 -0.1043864,0.0393 -0.2263428,0.0393 -0.2935221,0 -0.4568197,-0.20981 -0.1632975,-0.21084 -0.1632975,-0.59014 0,-0.37828 0.1653646,-0.58912 0.1653646,-0.21187 0.4599203,-0.21187 0.097152,0 0.1860351,0.0279 0.088883,0.0269 0.1715658,0.0827 v 0.21394 q -0.083716,-0.0796 -0.1715658,-0.11679 -0.08785,-0.0382 -0.1860351,-0.0382 -0.2036052,0 -0.3059245,0.15813 -0.1012858,0.1571 -0.1012858,0.47336 0,0.32142 0.098185,0.47645 0.099219,0.154 0.3038574,0.154 0.069247,0 0.1209229,-0.0155 0.05271,-0.0165 0.095085,-0.0506 v -0.41444 H 2.2466061 v -0.17157 h 0.4237468 z"/><path id="path1169" d="m 3.4392982,270.24024 -0.2201416,0.78962 h 0.4402832 z m -0.1260905,-0.18396 h 0.2532145 l 0.4723226,1.54305 H 3.8227373 L 3.7090492,271.19729 H 3.1685137 l -0.1116211,0.40204 H 2.8408851 Z"/><path id="path1171" d="m 4.1245277,270.05628 h 1.1771892 v 0.1757 H 4.819059 v 1.36735 H 4.6092526 v -1.36735 H 4.1245277 Z"/><path id="path1173" d="m 5.5528643,270.05628 h 0.9157064 v 0.1757 H 5.7616371 v 0.45682 h 0.6759278 v 0.1757 H 5.7616371 v 0.55913 h 0.7265707 v 0.1757 H 5.5528643 Z"/><path id="path1175" d="m 7.073185,271.42777 q 0.2635498,0 0.3679362,-0.12919 0.1043864,-0.13023 0.1043864,-0.46922 0,-0.3421 -0.1043864,-0.47129 -0.1033529,-0.13023 -0.3679362,-0.13023 H 6.973966 v 1.19993 z m 0.00413,-1.37149 q 0.3534668,0 0.5208985,0.1881 0.1674316,0.1881 0.1674316,0.58498 0,0.3948 -0.1674316,0.58291 -0.1674317,0.18706 -0.5208985,0.18706 H 6.7641599 v -1.54305 z"/><path id="path1177" d="m 10.104525,270.82936 q 0,-0.34004 -0.07028,-0.48576 -0.069247,-0.14573 -0.2284102,-0.14573 -0.1581299,0 -0.2284098,0.14573 -0.069247,0.14572 -0.069247,0.48576 0,0.33899 0.069247,0.48472 0.07028,0.14573 0.2284098,0.14573 0.1591634,0 0.2284102,-0.1447 0.07028,-0.14572 0.07028,-0.48575 z m 0.218074,0 q 0,0.40307 -0.128157,0.60151 -0.127124,0.19844 -0.3886072,0.19844 -0.2614828,0 -0.3886068,-0.19741 -0.127124,-0.1974 -0.127124,-0.60254 0,-0.40411 0.127124,-0.60255 0.1281576,-0.19844 0.3886068,-0.19844 0.2614832,0 0.3886072,0.19844 0.128157,0.19844 0.128157,0.60255 z"/><path id="path1179" d="m 10.594417,271.00712 v -0.95084 h 0.209806 v 1.04593 q 0,0.11265 0.0062,0.16123 0.0062,0.0475 0.0217,0.0734 0.03307,0.061 0.09508,0.092 0.06305,0.031 0.151929,0.031 0.08992,0 0.151928,-0.031 0.06201,-0.031 0.09612,-0.092 0.0155,-0.0258 0.0217,-0.0734 0.0062,-0.0475 0.0062,-0.15917 v -1.04799 h 0.208773 v 0.95084 q 0,0.23668 -0.02997,0.33693 -0.02894,0.0992 -0.101286,0.16433 -0.06821,0.061 -0.156062,0.091 -0.08785,0.03 -0.197404,0.03 -0.108521,0 -0.196371,-0.03 -0.08785,-0.03 -0.157096,-0.091 -0.07131,-0.0641 -0.101286,-0.16536 -0.02997,-0.10232 -0.02997,-0.3359 z"/><path id="path1181" d="m 11.764372,270.05628 h 1.177189 v 0.1757 h -0.482658 v 1.36735 h -0.209806 v -1.36735 h -0.484725 z"/><path id="path1183" d="m 14.035035,270.10899 v 0.21187 q -0.09509,-0.061 -0.191203,-0.092 -0.09509,-0.031 -0.192237,-0.031 -0.147794,0 -0.233577,0.0692 -0.08578,0.0682 -0.08578,0.185 0,0.10232 0.05581,0.15606 0.05684,0.0537 0.21084,0.0899 l 0.109554,0.0248 q 0.217041,0.0507 0.316259,0.15917 0.09922,0.10852 0.09922,0.29559 0,0.22014 -0.136426,0.33589 -0.136425,0.11576 -0.396875,0.11576 -0.10852,0 -0.218074,-0.0238 -0.109554,-0.0227 -0.220142,-0.0693 v -0.22221 q 0.118856,0.0754 0.224276,0.11059 0.106453,0.0351 0.21394,0.0351 0.15813,0 0.24598,-0.0703 0.08785,-0.0713 0.08785,-0.19844 0,-0.11575 -0.06098,-0.17673 -0.05995,-0.061 -0.209806,-0.0941 l -0.111622,-0.0258 q -0.214974,-0.0486 -0.312125,-0.14676 -0.09715,-0.0982 -0.09715,-0.26355 0,-0.20671 0.138493,-0.33073 0.139526,-0.12506 0.370003,-0.12506 0.08888,0 0.187069,0.0207 0.09818,0.0196 0.206706,0.06 z"/></g><g style="font-style:normal;font-variant:normal;font-weight:400;font-stretch:normal;font-size:2.11666679px;line-height:1.25;font-family:'DejaVu Sans Mono';-inkscape-font-specification:'DejaVu Sans Mono, Normal';font-variant-ligatures:normal;font-variant-caps:normal;font-variant-numeric:normal;font-feature-settings:normal;text-align:center;letter-spacing:0;word-spacing:0;writing-mode:lr-tb;text-anchor:middle;fill:snow;fill-opacity:1;stroke:none;stroke-width:.001;stroke-miterlimit:4;stroke-dasharray:none;stroke-opacity:1" id="text1072" aria-label="S"><path id="path1186" d="m 8.3051514,274.87147 v 0.21187 q -0.095085,-0.061 -0.1912028,-0.092 -0.095085,-0.031 -0.1922364,-0.031 -0.1477946,0 -0.2335774,0.0693 -0.085783,0.0682 -0.085783,0.185 0,0.10232 0.05581,0.15606 0.056844,0.0538 0.2108399,0.0899 l 0.109554,0.0248 q 0.217041,0.0506 0.3162598,0.15917 0.099219,0.10852 0.099219,0.29559 0,0.22014 -0.1364258,0.33589 -0.1364258,0.11576 -0.3968751,0.11576 -0.1085205,0 -0.2180745,-0.0238 -0.1095541,-0.0227 -0.2201416,-0.0693 v -0.22221 q 0.1188558,0.0755 0.2242757,0.11059 0.1064535,0.0351 0.2139404,0.0351 0.1581299,0 0.2459799,-0.0703 0.08785,-0.0713 0.08785,-0.19844 0,-0.11575 -0.060978,-0.17673 -0.059945,-0.061 -0.2098063,-0.094 l -0.1116211,-0.0258 q -0.214974,-0.0486 -0.3121257,-0.14676 -0.097152,-0.0982 -0.097152,-0.26355 0,-0.20671 0.1384929,-0.33073 0.1395264,-0.12506 0.3700033,-0.12506 0.088883,0 0.1870687,0.0207 0.098185,0.0196 0.2067057,0.06 z"/></g><g style="font-style:normal;font-variant:normal;font-weight:400;font-stretch:normal;font-size:2.11666679px;line-height:1.25;font-family:'DejaVu Sans Mono';-inkscape-font-specification:'DejaVu Sans Mono, Normal';font-variant-ligatures:normal;font-variant-caps:normal;font-variant-numeric:normal;font-feature-settings:normal;text-align:center;letter-spacing:0;word-spacing:0;writing-mode:lr-tb;text-anchor:middle;fill:snow;fill-opacity:1;stroke:none;stroke-width:.001;stroke-miterlimit:4;stroke-dasharray:none;stroke-opacity:1" id="text1076" aria-label="P"><path id="path1189" d="m 7.6715983,281.34042 v 0.57981 H 7.913444 q 0.144694,0 0.2253093,-0.0765 0.081649,-0.0765 0.081649,-0.21394 0,-0.13746 -0.080615,-0.21291 -0.080615,-0.0765 -0.2263428,-0.0765 z M 7.4628255,281.16886 H 7.913444 q 0.2583822,0 0.3917074,0.11782 0.1333252,0.11679 0.1333252,0.34313 0,0.22841 -0.1333252,0.3452 -0.1322917,0.11679 -0.3917074,0.11679 H 7.6715983 v 0.62011 H 7.4628255 Z"/></g><g style="font-style:normal;font-variant:normal;font-weight:400;font-stretch:normal;font-size:2.11666679px;line-height:1.25;font-family:'DejaVu Sans Mono';-inkscape-font-specification:'DejaVu Sans Mono, Normal';font-variant-ligatures:normal;font-variant-caps:normal;font-variant-numeric:normal;font-feature-settings:normal;text-align:center;letter-spacing:0;word-spacing:0;writing-mode:lr-tb;text-anchor:middle;fill:snow;fill-opacity:1;stroke:none;stroke-width:.001;stroke-miterlimit:4;stroke-dasharray:none;stroke-opacity:1" id="text1080" aria-label="N"><path id="path1192" d="m 7.4028808,287.51886 h 0.2645834 l 0.5208984,1.27021 v -1.27021 h 0.2015381 v 1.54306 H 8.1253174 l -0.5208985,-1.27021 v 1.27021 H 7.4028808 Z"/></g></g></svg>