<svg xmlns="http://www.w3.org/2000/svg" xmlns:svg="http://www.w3.org/2000/svg" id="svg8" width="30" height="380" version="1.1" viewBox="0 0 7.938 100.542"><metadata id="metadata5"/><g style="display:inline" id="g1796" transform="translate(0,-196.45832)"><path id="path1790" d="m 0,365 v 15 h 30 v -15 z m 7.5,4.25 h 15 c 1.8005,0 3.25,1.4495 3.25,3.25 0,1.8005 -1.4495,3.25 -3.25,3.25 h -15 c -1.8005,0 -3.25,-1.4495 -3.25,-3.25 0,-1.8005 1.4495,-3.25 3.25,-3.25 z" transform="matrix(0.26458335,0,0,0.26458335,0,196.45832)" style="opacity:1;vector-effect:none;fill:gray;fill-opacity:1;fill-rule:evenodd;stroke:none;stroke-width:.21073182;stroke-linecap:butt;stroke-linejoin:round;stroke-miterlimit:4;stroke-dasharray:none;stroke-dashoffset:0;stroke-opacity:1;paint-order:normal"/><path id="path1792" d="m 0,200.42707 h 7.9375004 v 92.60417 H 0 Z" style="opacity:1;vector-effect:none;fill:gray;fill-opacity:1;fill-rule:evenodd;stroke:none;stroke-width:.2693277;stroke-linecap:butt;stroke-linejoin:round;stroke-miterlimit:4;stroke-dasharray:none;stroke-dashoffset:0;stroke-opacity:1;paint-order:normal"/><path style="opacity:1;vector-effect:none;fill:gray;fill-opacity:1;fill-rule:evenodd;stroke:none;stroke-width:.05575613;stroke-linecap:butt;stroke-linejoin:round;stroke-miterlimit:4;stroke-dasharray:none;stroke-dashoffset:0;stroke-opacity:1;paint-order:normal" id="path1794" d="m 0,196.45832 v 3.96875 h 7.9375005 v -3.96875 z m 1.9843751,1.12448 h 3.9687503 c 0.4763823,0 0.8598959,0.38351 0.8598959,0.8599 0,0.47638 -0.3835136,0.85989 -0.8598959,0.85989 H 1.9843751 c -0.4763823,0 -0.8598959,-0.38351 -0.8598959,-0.85989 0,-0.47639 0.3835136,-0.8599 0.8598959,-0.8599 z"/><path style="opacity:1;vector-effect:none;fill:#696969;fill-opacity:1;fill-rule:evenodd;stroke:none;stroke-width:.26778427;stroke-linecap:butt;stroke-linejoin:round;stroke-miterlimit:4;stroke-dasharray:none;stroke-dashoffset:0;stroke-opacity:1;paint-order:normal" id="path1808" d="m 0,200.95623 h 7.9375003 v 91.54584 H 0 Z"/></g></svg>