<svg xmlns="http://www.w3.org/2000/svg" xmlns:svg="http://www.w3.org/2000/svg" id="svg8" width="90" height="380" version="1.1" viewBox="0 0 23.813 100.542"><metadata id="metadata5"/><g style="display:inline" id="g1796" transform="translate(0,-196.45832)"><rect style="display:inline;opacity:1;fill:#ff0;fill-opacity:1;stroke:none;stroke-width:.26458335;stroke-linecap:butt;stroke-linejoin:miter;stroke-miterlimit:4;stroke-dasharray:none;stroke-opacity:1;paint-order:normal" id="rect877" width="5.821" height="5.821" x="16.933" y="281.654" rx="5.821" ry="5.821"/><rect style="display:inline;opacity:1;fill:#ff0;fill-opacity:1;stroke:none;stroke-width:.26458335;stroke-linecap:butt;stroke-linejoin:miter;stroke-miterlimit:4;stroke-dasharray:none;stroke-opacity:1;paint-order:normal" id="rect879" width="5.821" height="5.821" x="1.058" y="281.654" rx="5.821" ry="5.821"/><rect id="rect1309" width="5.821" height="5.821" x="8.996" y="281.654" rx="5.821" ry="5.821" style="display:inline;opacity:1;fill:#ff0;fill-opacity:1;stroke:none;stroke-width:.26458335;stroke-linecap:butt;stroke-linejoin:miter;stroke-miterlimit:4;stroke-dasharray:none;stroke-opacity:1;paint-order:normal"/><rect style="display:none;opacity:1;fill:#00bfff;fill-opacity:1;stroke:none;stroke-width:.26458335;stroke-linecap:butt;stroke-linejoin:miter;stroke-miterlimit:4;stroke-dasharray:none;stroke-opacity:1;paint-order:normal" id="rect849" width="5.821" height="5.821" x="1.058" y="203.337" rx="5.821" ry="5.821"/><rect id="rect851" width="5.821" height="5.821" x="13.758" y="203.338" rx="5.821" ry="5.821" style="display:none;opacity:1;fill:red;fill-opacity:1;stroke:none;stroke-width:.26458335;stroke-linecap:butt;stroke-linejoin:miter;stroke-miterlimit:4;stroke-dasharray:none;stroke-opacity:1;paint-order:normal"/><rect id="rect853" width="5.821" height="5.821" x="7.408" y="203.337" rx="5.821" ry="5.821" style="display:none;opacity:1;fill:#ff0;fill-opacity:1;stroke:none;stroke-width:.26458335;stroke-linecap:butt;stroke-linejoin:miter;stroke-miterlimit:4;stroke-dasharray:none;stroke-opacity:1;paint-order:normal"/><rect id="rect1119" width="5.821" height="5.821" x="1.058" y="212.862" rx="5.821" ry="5.821" style="display:none;opacity:1;fill:#00bfff;fill-opacity:1;stroke:none;stroke-width:.26458335;stroke-linecap:butt;stroke-linejoin:miter;stroke-miterlimit:4;stroke-dasharray:none;stroke-opacity:1;paint-order:normal"/><rect style="display:none;opacity:1;fill:red;fill-opacity:1;stroke:none;stroke-width:.26458335;stroke-linecap:butt;stroke-linejoin:miter;stroke-miterlimit:4;stroke-dasharray:none;stroke-opacity:1;paint-order:normal" id="rect1121" width="5.821" height="5.821" x="13.758" y="212.863" rx="5.821" ry="5.821"/><rect style="display:none;opacity:1;fill:#ff0;fill-opacity:1;stroke:none;stroke-width:.26458335;stroke-linecap:butt;stroke-linejoin:miter;stroke-miterlimit:4;stroke-dasharray:none;stroke-opacity:1;paint-order:normal" id="rect1123" width="5.821" height="5.821" x="7.408" y="212.862" rx="5.821" ry="5.821"/><rect id="rect1137" width="5.821" height="5.821" x="1.058" y="222.387" rx="5.821" ry="5.821" style="display:none;opacity:1;fill:#00bfff;fill-opacity:1;stroke:none;stroke-width:.26458335;stroke-linecap:butt;stroke-linejoin:miter;stroke-miterlimit:4;stroke-dasharray:none;stroke-opacity:1;paint-order:normal"/><rect style="display:none;opacity:1;fill:red;fill-opacity:1;stroke:none;stroke-width:.26458335;stroke-linecap:butt;stroke-linejoin:miter;stroke-miterlimit:4;stroke-dasharray:none;stroke-opacity:1;paint-order:normal" id="rect1139" width="5.821" height="5.821" x="13.758" y="222.388" rx="5.821" ry="5.821"/><rect style="display:none;opacity:1;fill:#ff0;fill-opacity:1;stroke:none;stroke-width:.26458335;stroke-linecap:butt;stroke-linejoin:miter;stroke-miterlimit:4;stroke-dasharray:none;stroke-opacity:1;paint-order:normal" id="rect1141" width="5.821" height="5.821" x="7.408" y="222.387" rx="5.821" ry="5.821"/><rect style="display:none;opacity:1;fill:#00bfff;fill-opacity:1;stroke:none;stroke-width:.26458335;stroke-linecap:butt;stroke-linejoin:miter;stroke-miterlimit:4;stroke-dasharray:none;stroke-opacity:1;paint-order:normal" id="rect1155" width="5.821" height="5.821" x="1.058" y="231.912" rx="5.821" ry="5.821"/><rect id="rect1157" width="5.821" height="5.821" x="13.758" y="231.913" rx="5.821" ry="5.821" style="display:none;opacity:1;fill:red;fill-opacity:1;stroke:none;stroke-width:.26458335;stroke-linecap:butt;stroke-linejoin:miter;stroke-miterlimit:4;stroke-dasharray:none;stroke-opacity:1;paint-order:normal"/><rect id="rect1159" width="5.821" height="5.821" x="7.408" y="231.912" rx="5.821" ry="5.821" style="display:none;opacity:1;fill:#ff0;fill-opacity:1;stroke:none;stroke-width:.26458335;stroke-linecap:butt;stroke-linejoin:miter;stroke-miterlimit:4;stroke-dasharray:none;stroke-opacity:1;paint-order:normal"/><rect id="rect1173" width="5.821" height="5.821" x="1.058" y="241.437" rx="5.821" ry="5.821" style="display:none;opacity:1;fill:#00bfff;fill-opacity:1;stroke:none;stroke-width:.26458335;stroke-linecap:butt;stroke-linejoin:miter;stroke-miterlimit:4;stroke-dasharray:none;stroke-opacity:1;paint-order:normal"/><rect style="display:none;opacity:1;fill:red;fill-opacity:1;stroke:none;stroke-width:.26458335;stroke-linecap:butt;stroke-linejoin:miter;stroke-miterlimit:4;stroke-dasharray:none;stroke-opacity:1;paint-order:normal" id="rect1175" width="5.821" height="5.821" x="13.758" y="241.438" rx="5.821" ry="5.821"/><rect style="display:none;opacity:1;fill:#ff0;fill-opacity:1;stroke:none;stroke-width:.26458335;stroke-linecap:butt;stroke-linejoin:miter;stroke-miterlimit:4;stroke-dasharray:none;stroke-opacity:1;paint-order:normal" id="rect1177" width="5.821" height="5.821" x="7.408" y="241.437" rx="5.821" ry="5.821"/><rect style="display:none;opacity:1;fill:#00bfff;fill-opacity:1;stroke:none;stroke-width:.26458335;stroke-linecap:butt;stroke-linejoin:miter;stroke-miterlimit:4;stroke-dasharray:none;stroke-opacity:1;paint-order:normal" id="rect1191" width="5.821" height="5.821" x="1.058" y="250.962" rx="5.821" ry="5.821"/><rect id="rect1193" width="5.821" height="5.821" x="13.758" y="250.963" rx="5.821" ry="5.821" style="display:none;opacity:1;fill:red;fill-opacity:1;stroke:none;stroke-width:.26458335;stroke-linecap:butt;stroke-linejoin:miter;stroke-miterlimit:4;stroke-dasharray:none;stroke-opacity:1;paint-order:normal"/><rect id="rect1195" width="5.821" height="5.821" x="7.408" y="250.962" rx="5.821" ry="5.821" style="display:none;opacity:1;fill:#ff0;fill-opacity:1;stroke:none;stroke-width:.26458335;stroke-linecap:butt;stroke-linejoin:miter;stroke-miterlimit:4;stroke-dasharray:none;stroke-opacity:1;paint-order:normal"/><rect style="display:none;opacity:1;fill:#00bfff;fill-opacity:1;stroke:none;stroke-width:.26458335;stroke-linecap:butt;stroke-linejoin:miter;stroke-miterlimit:4;stroke-dasharray:none;stroke-opacity:1;paint-order:normal" id="rect1209" width="5.821" height="5.821" x="1.058" y="260.487" rx="5.821" ry="5.821"/><rect id="rect1211" width="5.821" height="5.821" x="13.758" y="260.488" rx="5.821" ry="5.821" style="display:none;opacity:1;fill:red;fill-opacity:1;stroke:none;stroke-width:.26458335;stroke-linecap:butt;stroke-linejoin:miter;stroke-miterlimit:4;stroke-dasharray:none;stroke-opacity:1;paint-order:normal"/><rect id="rect1213" width="5.821" height="5.821" x="7.408" y="260.487" rx="5.821" ry="5.821" style="display:none;opacity:1;fill:#ff0;fill-opacity:1;stroke:none;stroke-width:.26458335;stroke-linecap:butt;stroke-linejoin:miter;stroke-miterlimit:4;stroke-dasharray:none;stroke-opacity:1;paint-order:normal"/><rect id="rect1227" width="5.821" height="5.821" x="1.058" y="270.012" rx="5.821" ry="5.821" style="display:none;opacity:1;fill:#00bfff;fill-opacity:1;stroke:none;stroke-width:.26458335;stroke-linecap:butt;stroke-linejoin:miter;stroke-miterlimit:4;stroke-dasharray:none;stroke-opacity:1;paint-order:normal"/><rect style="display:none;opacity:1;fill:red;fill-opacity:1;stroke:none;stroke-width:.26458335;stroke-linecap:butt;stroke-linejoin:miter;stroke-miterlimit:4;stroke-dasharray:none;stroke-opacity:1;paint-order:normal" id="rect1229" width="5.821" height="5.821" x="13.758" y="270.012" rx="5.821" ry="5.821"/><rect style="display:none;opacity:1;fill:#ff0;fill-opacity:1;stroke:none;stroke-width:.26458335;stroke-linecap:butt;stroke-linejoin:miter;stroke-miterlimit:4;stroke-dasharray:none;stroke-opacity:1;paint-order:normal" id="rect1231" width="5.821" height="5.821" x="7.408" y="270.012" rx="5.821" ry="5.821"/><path style="opacity:1;vector-effect:none;fill:gray;fill-opacity:1;fill-rule:evenodd;stroke:none;stroke-width:.21073182;stroke-linecap:butt;stroke-linejoin:round;stroke-miterlimit:4;stroke-dasharray:none;stroke-dashoffset:0;stroke-opacity:1;paint-order:normal" id="path1187" d="m 0,365 v 15 H 30 60 90 V 365 H 60 30 Z m 7.5,4.25 h 15 c 1.8005,0 3.25,1.44951 3.25,3.25 0,1.80049 -1.4495,3.25 -3.25,3.25 h -15 c -1.8005,0 -3.25,-1.44951 -3.25,-3.25 0,-1.80049 1.4495,-3.25 3.25,-3.25 z m 30,0 h 15 c 1.800499,0 3.25,1.44951 3.25,3.25 0,1.80049 -1.449501,3.25 -3.25,3.25 h -15 c -1.8005,0 -3.25,-1.44951 -3.25,-3.25 0,-1.80049 1.4495,-3.25 3.25,-3.25 z m 30,0 h 15 c 1.800499,0 3.25,1.44951 3.25,3.25 0,1.80049 -1.449501,3.25 -3.25,3.25 h -15 c -1.800499,0 -3.25,-1.44951 -3.25,-3.25 0,-1.80049 1.449501,-3.25 3.25,-3.25 z" transform="matrix(0.26458334,0,0,0.26458334,0,196.45832)"/><path id="path1189" d="m 11.90625,200.42707 h 11.906251 v 92.60417 H 11.90625 Z m -11.90625,0 h 11.90625 v 92.60417 H 0 Z" style="opacity:1;vector-effect:none;fill:gray;fill-opacity:1;fill-rule:evenodd;stroke:none;stroke-width:.32985771;stroke-linecap:butt;stroke-linejoin:round;stroke-miterlimit:4;stroke-dasharray:none;stroke-dashoffset:0;stroke-opacity:1;paint-order:normal"/><path style="opacity:1;vector-effect:none;fill:gray;fill-opacity:1;fill-rule:evenodd;stroke:none;stroke-width:.21073182;stroke-linecap:butt;stroke-linejoin:round;stroke-miterlimit:4;stroke-dasharray:none;stroke-dashoffset:0;stroke-opacity:1;paint-order:normal" id="path1191" d="M 0,0 V 15 H 30 60 90 V 0 H 60 30 Z m 7.5,4.25 h 15 c 1.8005,0 3.25,1.4494709 3.25,3.25 0,1.8004913 -1.4495,3.25 -3.25,3.25 H 7.5 C 5.6995,10.75 4.25,9.3004913 4.25,7.5 4.25,5.6994709 5.6995,4.25 7.5,4.25 Z m 30,0 h 15 c 1.800499,0 3.25,1.4494709 3.25,3.25 0,1.8004913 -1.449501,3.25 -3.25,3.25 h -15 c -1.8005,0 -3.25,-1.4495087 -3.25,-3.25 0,-1.8005291 1.4495,-3.25 3.25,-3.25 z m 30,0 h 15 c 1.800499,0 3.25,1.4494709 3.25,3.25 0,1.8004913 -1.449501,3.25 -3.25,3.25 h -15 c -1.800499,0 -3.25,-1.4495087 -3.25,-3.25 0,-1.8005291 1.449501,-3.25 3.25,-3.25 z" transform="matrix(0.26458334,0,0,0.26458334,0,196.45832)"/><path id="path1193" d="m 11.90625,200.95623 h 11.906251 v 91.54584 H 11.90625 Z m -11.90625,0 h 11.90625 v 91.54584 H 0 Z" style="opacity:1;vector-effect:none;fill:#696969;fill-opacity:1;fill-rule:evenodd;stroke:none;stroke-width:.32796741;stroke-linecap:butt;stroke-linejoin:round;stroke-miterlimit:4;stroke-dasharray:none;stroke-dashoffset:0;stroke-opacity:1;paint-order:normal"/><rect id="rect947" width="21.96" height="2.91" x=".926" y="278.347" rx="1.455" ry="1.455" style="display:inline;opacity:1;fill:#b2b2b2;fill-opacity:.50196081;stroke:none;stroke-width:.26458332;stroke-linecap:butt;stroke-linejoin:miter;stroke-miterlimit:4;stroke-dasharray:none;stroke-opacity:1;paint-order:normal"/><rect style="display:none;opacity:1;fill:silver;fill-opacity:.25490196;stroke:#000;stroke-width:.26458335;stroke-linecap:butt;stroke-linejoin:miter;stroke-miterlimit:4;stroke-dasharray:none;stroke-opacity:.25373134;paint-order:normal" id="rect1245" width="23.019" height="14.023" x=".397" y="278.082" rx=".794" ry=".794"/><rect id="rect961" width="6.085" height="2.91" x="16.801" y="288.93" rx="1.455" ry="1.455" style="display:inline;opacity:1;fill:#b2b2b2;fill-opacity:.50196078;stroke:none;stroke-width:.26458332;stroke-linecap:butt;stroke-linejoin:miter;stroke-miterlimit:4;stroke-dasharray:none;stroke-opacity:1;paint-order:normal"/><rect style="display:inline;opacity:1;fill:#b2b2b2;fill-opacity:.50196078;stroke:none;stroke-width:.26458332;stroke-linecap:butt;stroke-linejoin:miter;stroke-miterlimit:4;stroke-dasharray:none;stroke-opacity:1;paint-order:normal" id="rect923" width="6.085" height="2.91" x="8.864" y="288.93" rx="1.455" ry="1.455"/><rect style="opacity:1;fill:none;fill-opacity:.50196078;stroke:#414141;stroke-width:.26458335;stroke-linecap:square;stroke-linejoin:round;stroke-miterlimit:4;stroke-dasharray:none;stroke-dashoffset:0;stroke-opacity:1;paint-order:stroke markers fill" id="rect969" width="23.019" height="9.525" x=".397" y="201.353" rx=".794" ry=".794"/><rect id="rect1005" width="23.019" height="9.525" x=".397" y="210.878" rx=".794" ry=".794" style="opacity:1;fill:#000;fill-opacity:.02985074;stroke:#414141;stroke-width:.26458335;stroke-linecap:square;stroke-linejoin:round;stroke-miterlimit:4;stroke-dasharray:none;stroke-dashoffset:0;stroke-opacity:1;paint-order:stroke markers fill"/><rect style="opacity:1;fill:none;fill-opacity:.50196078;stroke:#414141;stroke-width:.26458335;stroke-linecap:square;stroke-linejoin:round;stroke-miterlimit:4;stroke-dasharray:none;stroke-dashoffset:0;stroke-opacity:1;paint-order:stroke markers fill" id="rect1007" width="23.019" height="9.525" x=".397" y="220.403" rx=".794" ry=".794"/><rect id="rect1009" width="23.019" height="9.525" x=".397" y="229.928" rx=".794" ry=".794" style="opacity:1;fill:#000;fill-opacity:.02985074;stroke:#414141;stroke-width:.26458335;stroke-linecap:square;stroke-linejoin:round;stroke-miterlimit:4;stroke-dasharray:none;stroke-dashoffset:0;stroke-opacity:1;paint-order:stroke markers fill"/><rect style="opacity:1;fill:none;fill-opacity:.50196078;stroke:#414141;stroke-width:.26458335;stroke-linecap:square;stroke-linejoin:round;stroke-miterlimit:4;stroke-dasharray:none;stroke-dashoffset:0;stroke-opacity:1;paint-order:stroke markers fill" id="rect1011" width="23.019" height="9.525" x=".397" y="239.453" rx=".794" ry=".794"/><rect id="rect1013" width="23.019" height="9.525" x=".397" y="248.978" rx=".794" ry=".794" style="opacity:1;fill:#000;fill-opacity:.02985074;stroke:#414141;stroke-width:.26458335;stroke-linecap:square;stroke-linejoin:round;stroke-miterlimit:4;stroke-dasharray:none;stroke-dashoffset:0;stroke-opacity:1;paint-order:stroke markers fill"/><rect style="opacity:1;fill:none;fill-opacity:.50196078;stroke:#414141;stroke-width:.26458335;stroke-linecap:square;stroke-linejoin:round;stroke-miterlimit:4;stroke-dasharray:none;stroke-dashoffset:0;stroke-opacity:1;paint-order:stroke markers fill" id="rect1015" width="23.019" height="9.525" x=".397" y="258.503" rx=".794" ry=".794"/><rect style="display:inline;opacity:1;fill:#b2b2b2;fill-opacity:.50196078;stroke:none;stroke-width:.26458332;stroke-linecap:butt;stroke-linejoin:miter;stroke-miterlimit:4;stroke-dasharray:none;stroke-opacity:1;paint-order:normal" id="rect965" width="6.085" height="2.91" x=".926" y="288.93" rx="1.455" ry="1.455"/><rect id="rect1017" width="23.019" height="9.525" x=".397" y="268.028" rx=".794" ry=".794" style="opacity:1;fill:#000;fill-opacity:.02985074;stroke:#414141;stroke-width:.26458335;stroke-linecap:square;stroke-linejoin:round;stroke-miterlimit:4;stroke-dasharray:none;stroke-dashoffset:0;stroke-opacity:1;paint-order:stroke markers fill"/><path style="opacity:1;fill:#414141;fill-opacity:1;stroke:none;stroke-width:.05259582;stroke-linecap:butt;stroke-linejoin:miter;stroke-miterlimit:4;stroke-dasharray:none;stroke-opacity:1;paint-order:normal" id="path1572" d="m 3.9687503,212.12045 -0.7937501,-1.37482 1.5875001,0 z"/><path id="path1588" d="m 10.31875,212.12045 -0.7937497,-1.37482 1.5874997,0 z" style="opacity:1;fill:#414141;fill-opacity:1;stroke:none;stroke-width:.05259582;stroke-linecap:butt;stroke-linejoin:miter;stroke-miterlimit:4;stroke-dasharray:none;stroke-opacity:1;paint-order:normal"/><path id="path1590" d="m 3.9687503,221.64541 -0.7937501,-1.37482 1.5875001,0 z" style="opacity:1;fill:#414141;fill-opacity:1;stroke:none;stroke-width:.05259582;stroke-linecap:butt;stroke-linejoin:miter;stroke-miterlimit:4;stroke-dasharray:none;stroke-opacity:1;paint-order:normal"/><path style="opacity:1;fill:#414141;fill-opacity:1;stroke:none;stroke-width:.05259582;stroke-linecap:butt;stroke-linejoin:miter;stroke-miterlimit:4;stroke-dasharray:none;stroke-opacity:1;paint-order:normal" id="path1592" d="m 10.31875,221.64541 -0.7937497,-1.37482 1.5874997,0 z"/><path style="opacity:1;fill:#414141;fill-opacity:1;stroke:none;stroke-width:.05259582;stroke-linecap:butt;stroke-linejoin:miter;stroke-miterlimit:4;stroke-dasharray:none;stroke-opacity:1;paint-order:normal" id="path1594" d="m 3.9687503,231.17042 -0.7937501,-1.37482 1.5875001,0 z"/><path id="path1596" d="m 10.31875,231.17042 -0.7937497,-1.37482 1.5874997,0 z" style="opacity:1;fill:#414141;fill-opacity:1;stroke:none;stroke-width:.05259582;stroke-linecap:butt;stroke-linejoin:miter;stroke-miterlimit:4;stroke-dasharray:none;stroke-opacity:1;paint-order:normal"/><path id="path1598" d="m 3.9687503,240.69543 -0.7937501,-1.37482 1.5875001,0 z" style="opacity:1;fill:#414141;fill-opacity:1;stroke:none;stroke-width:.05259582;stroke-linecap:butt;stroke-linejoin:miter;stroke-miterlimit:4;stroke-dasharray:none;stroke-opacity:1;paint-order:normal"/><path style="opacity:1;fill:#414141;fill-opacity:1;stroke:none;stroke-width:.05259582;stroke-linecap:butt;stroke-linejoin:miter;stroke-miterlimit:4;stroke-dasharray:none;stroke-opacity:1;paint-order:normal" id="path1600" d="m 10.31875,240.69543 -0.7937497,-1.37482 1.5874997,0 z"/><path style="opacity:1;fill:#414141;fill-opacity:1;stroke:none;stroke-width:.05259582;stroke-linecap:butt;stroke-linejoin:miter;stroke-miterlimit:4;stroke-dasharray:none;stroke-opacity:1;paint-order:normal" id="path1602" d="m 3.9687503,250.22044 -0.7937501,-1.37482 1.5875001,0 z"/><path id="path1604" d="m 10.31875,250.22044 -0.7937497,-1.37482 1.5874997,0 z" style="opacity:1;fill:#414141;fill-opacity:1;stroke:none;stroke-width:.05259582;stroke-linecap:butt;stroke-linejoin:miter;stroke-miterlimit:4;stroke-dasharray:none;stroke-opacity:1;paint-order:normal"/><path id="path1606" d="m 3.9687503,259.74543 -0.7937501,-1.37481 1.5875001,0 z" style="opacity:1;fill:#414141;fill-opacity:1;stroke:none;stroke-width:.05259582;stroke-linecap:butt;stroke-linejoin:miter;stroke-miterlimit:4;stroke-dasharray:none;stroke-opacity:1;paint-order:normal"/><path style="opacity:1;fill:#414141;fill-opacity:1;stroke:none;stroke-width:.05259582;stroke-linecap:butt;stroke-linejoin:miter;stroke-miterlimit:4;stroke-dasharray:none;stroke-opacity:1;paint-order:normal" id="path1608" d="m 10.31875,259.74543 -0.7937497,-1.37481 1.5874997,0 z"/><path style="opacity:1;fill:#414141;fill-opacity:1;stroke:none;stroke-width:.05259582;stroke-linecap:butt;stroke-linejoin:miter;stroke-miterlimit:4;stroke-dasharray:none;stroke-opacity:1;paint-order:normal" id="path1610" d="m 3.9687503,269.27039 -0.7937501,-1.37481 1.5875001,0 z"/><path id="path1612" d="m 10.31875,269.27039 -0.7937497,-1.37481 1.5874997,0 z" style="opacity:1;fill:#414141;fill-opacity:1;stroke:none;stroke-width:.05259582;stroke-linecap:butt;stroke-linejoin:miter;stroke-miterlimit:4;stroke-dasharray:none;stroke-opacity:1;paint-order:normal"/><rect id="rect967" width="6.085" height="2.91" x="269.88" y="-22.886" rx="1.455" ry="1.455" transform="rotate(90)" style="display:inline;opacity:1;fill:#b2b2b2;fill-opacity:.50196078;stroke:none;stroke-width:.26458332;stroke-linecap:butt;stroke-linejoin:miter;stroke-miterlimit:4;stroke-dasharray:none;stroke-opacity:1;paint-order:normal"/><rect style="display:inline;opacity:1;fill:#b2b2b2;fill-opacity:.50196078;stroke:none;stroke-width:.26458332;stroke-linecap:butt;stroke-linejoin:miter;stroke-miterlimit:4;stroke-dasharray:none;stroke-opacity:1;paint-order:normal" id="rect970" width="6.085" height="2.91" x="260.355" y="-22.886" rx="1.455" ry="1.455" transform="rotate(90)"/><rect id="rect972" width="6.085" height="2.91" x="250.83" y="-22.886" rx="1.455" ry="1.455" transform="rotate(90)" style="display:inline;opacity:1;fill:#b2b2b2;fill-opacity:.50196078;stroke:none;stroke-width:.26458332;stroke-linecap:butt;stroke-linejoin:miter;stroke-miterlimit:4;stroke-dasharray:none;stroke-opacity:1;paint-order:normal"/><rect style="display:inline;opacity:1;fill:#b2b2b2;fill-opacity:.50196078;stroke:none;stroke-width:.26458332;stroke-linecap:butt;stroke-linejoin:miter;stroke-miterlimit:4;stroke-dasharray:none;stroke-opacity:1;paint-order:normal" id="rect974" width="6.085" height="2.91" x="241.305" y="-22.886" rx="1.455" ry="1.455" transform="rotate(90)"/><rect id="rect976" width="6.085" height="2.91" x="231.78" y="-22.886" rx="1.455" ry="1.455" transform="rotate(90)" style="display:inline;opacity:1;fill:#b2b2b2;fill-opacity:.50196078;stroke:none;stroke-width:.26458332;stroke-linecap:butt;stroke-linejoin:miter;stroke-miterlimit:4;stroke-dasharray:none;stroke-opacity:1;paint-order:normal"/><rect style="display:inline;opacity:1;fill:#b2b2b2;fill-opacity:.50196078;stroke:none;stroke-width:.26458332;stroke-linecap:butt;stroke-linejoin:miter;stroke-miterlimit:4;stroke-dasharray:none;stroke-opacity:1;paint-order:normal" id="rect978" width="6.085" height="2.91" x="222.255" y="-22.886" rx="1.455" ry="1.455" transform="rotate(90)"/><rect id="rect980" width="6.085" height="2.91" x="212.73" y="-22.886" rx="1.455" ry="1.455" transform="rotate(90)" style="display:inline;opacity:1;fill:#b2b2b2;fill-opacity:.50196078;stroke:none;stroke-width:.26458332;stroke-linecap:butt;stroke-linejoin:miter;stroke-miterlimit:4;stroke-dasharray:none;stroke-opacity:1;paint-order:normal"/><rect style="display:inline;opacity:1;fill:#b2b2b2;fill-opacity:.50196078;stroke:none;stroke-width:.26458332;stroke-linecap:butt;stroke-linejoin:miter;stroke-miterlimit:4;stroke-dasharray:none;stroke-opacity:1;paint-order:normal" id="rect982" width="6.085" height="2.91" x="203.205" y="-22.886" rx="1.455" ry="1.455" transform="rotate(90)"/><text id="text1427" x="21.428" y="273.687" xml:space="preserve" style="font-style:normal;font-variant:normal;font-weight:400;font-stretch:normal;font-size:2.11666679px;line-height:1.25;font-family:'DejaVu Sans Mono';-inkscape-font-specification:'DejaVu Sans Mono, Normal';font-variant-ligatures:normal;font-variant-caps:normal;font-variant-numeric:normal;font-feature-settings:normal;text-align:center;letter-spacing:0;word-spacing:0;writing-mode:lr-tb;text-anchor:middle;fill:#000;fill-opacity:1;stroke:none;stroke-width:.26458335"><tspan id="tspan1429" x="21.428" y="273.687">8</tspan></text><text style="font-style:normal;font-variant:normal;font-weight:400;font-stretch:normal;font-size:2.11666679px;line-height:1.25;font-family:'DejaVu Sans Mono';-inkscape-font-specification:'DejaVu Sans Mono, Normal';font-variant-ligatures:normal;font-variant-caps:normal;font-variant-numeric:normal;font-feature-settings:normal;text-align:center;letter-spacing:0;word-spacing:0;writing-mode:lr-tb;text-anchor:middle;fill:#000;fill-opacity:1;stroke:none;stroke-width:.26458335" id="text1433" x="21.428" y="264.162" xml:space="preserve"><tspan id="tspan1435" x="21.428" y="264.162">7</tspan></text><text id="text1439" x="21.428" y="254.637" xml:space="preserve" style="font-style:normal;font-variant:normal;font-weight:400;font-stretch:normal;font-size:2.11666679px;line-height:1.25;font-family:'DejaVu Sans Mono';-inkscape-font-specification:'DejaVu Sans Mono, Normal';font-variant-ligatures:normal;font-variant-caps:normal;font-variant-numeric:normal;font-feature-settings:normal;text-align:center;letter-spacing:0;word-spacing:0;writing-mode:lr-tb;text-anchor:middle;fill:#000;fill-opacity:1;stroke:none;stroke-width:.26458335"><tspan id="tspan1441" x="21.428" y="254.637">6</tspan></text><text style="font-style:normal;font-variant:normal;font-weight:400;font-stretch:normal;font-size:2.11666679px;line-height:1.25;font-family:'DejaVu Sans Mono';-inkscape-font-specification:'DejaVu Sans Mono, Normal';font-variant-ligatures:normal;font-variant-caps:normal;font-variant-numeric:normal;font-feature-settings:normal;text-align:center;letter-spacing:0;word-spacing:0;writing-mode:lr-tb;text-anchor:middle;fill:#000;fill-opacity:1;stroke:none;stroke-width:.26458335" id="text1445" x="21.428" y="245.112" xml:space="preserve"><tspan id="tspan1447" x="21.428" y="245.112">5</tspan></text><text id="text1451" x="21.428" y="235.587" xml:space="preserve" style="font-style:normal;font-variant:normal;font-weight:400;font-stretch:normal;font-size:2.11666679px;line-height:1.25;font-family:'DejaVu Sans Mono';-inkscape-font-specification:'DejaVu Sans Mono, Normal';font-variant-ligatures:normal;font-variant-caps:normal;font-variant-numeric:normal;font-feature-settings:normal;text-align:center;letter-spacing:0;word-spacing:0;writing-mode:lr-tb;text-anchor:middle;fill:#000;fill-opacity:1;stroke:none;stroke-width:.26458335"><tspan id="tspan1453" x="21.428" y="235.587">4</tspan></text><text style="font-style:normal;font-variant:normal;font-weight:400;font-stretch:normal;font-size:2.11666679px;line-height:1.25;font-family:'DejaVu Sans Mono';-inkscape-font-specification:'DejaVu Sans Mono, Normal';font-variant-ligatures:normal;font-variant-caps:normal;font-variant-numeric:normal;font-feature-settings:normal;text-align:center;letter-spacing:0;word-spacing:0;writing-mode:lr-tb;text-anchor:middle;fill:#000;fill-opacity:1;stroke:none;stroke-width:.26458335" id="text1457" x="21.428" y="226.062" xml:space="preserve"><tspan id="tspan1459" x="21.428" y="226.062">3</tspan></text><text id="text1463" x="21.428" y="216.537" xml:space="preserve" style="font-style:normal;font-variant:normal;font-weight:400;font-stretch:normal;font-size:2.11666679px;line-height:1.25;font-family:'DejaVu Sans Mono';-inkscape-font-specification:'DejaVu Sans Mono, Normal';font-variant-ligatures:normal;font-variant-caps:normal;font-variant-numeric:normal;font-feature-settings:normal;text-align:center;letter-spacing:0;word-spacing:0;writing-mode:lr-tb;text-anchor:middle;fill:#000;fill-opacity:1;stroke:none;stroke-width:.26458335"><tspan id="tspan1465" x="21.428" y="216.537">2</tspan></text><text style="font-style:normal;font-variant:normal;font-weight:400;font-stretch:normal;font-size:2.11666679px;line-height:1.25;font-family:'DejaVu Sans Mono';-inkscape-font-specification:'DejaVu Sans Mono, Normal';font-variant-ligatures:normal;font-variant-caps:normal;font-variant-numeric:normal;font-feature-settings:normal;text-align:center;letter-spacing:0;word-spacing:0;writing-mode:lr-tb;text-anchor:middle;fill:#000;fill-opacity:1;stroke:none;stroke-width:.26458335" id="text1469" x="21.364" y="207.012" xml:space="preserve"><tspan id="tspan1471" x="21.364" y="207.012">1</tspan></text><text style="font-style:normal;font-variant:normal;font-weight:400;font-stretch:normal;font-size:2.11666679px;line-height:1.25;font-family:'DejaVu Sans Mono';-inkscape-font-specification:'DejaVu Sans Mono, Normal';font-variant-ligatures:normal;font-variant-caps:normal;font-variant-numeric:normal;font-feature-settings:normal;text-align:center;letter-spacing:0;word-spacing:0;writing-mode:lr-tb;text-anchor:middle;fill:#b22222;fill-opacity:1;stroke:none;stroke-width:.26458335" id="text1001" x="11.935" y="280.566" xml:space="preserve"><tspan id="tspan1003" x="11.935" y="280.566">ALL CHANNELS</tspan></text><text style="font-style:normal;font-variant:normal;font-weight:400;font-stretch:normal;font-size:2.11666679px;line-height:1.25;font-family:'DejaVu Sans Mono';-inkscape-font-specification:'DejaVu Sans Mono, Normal';font-variant-ligatures:normal;font-variant-caps:normal;font-variant-numeric:normal;font-feature-settings:normal;text-align:center;letter-spacing:0;word-spacing:0;writing-mode:lr-tb;text-anchor:middle;fill:#000;fill-opacity:1;stroke:none;stroke-width:.26458335" id="text1313" x="3.998" y="291.149" xml:space="preserve"><tspan id="tspan955" x="3.998" y="291.149">SHT</tspan></text><text id="text1319" x="11.935" y="291.149" xml:space="preserve" style="font-style:normal;font-variant:normal;font-weight:400;font-stretch:normal;font-size:2.11666679px;line-height:1.25;font-family:'DejaVu Sans Mono';-inkscape-font-specification:'DejaVu Sans Mono, Normal';font-variant-ligatures:normal;font-variant-caps:normal;font-variant-numeric:normal;font-feature-settings:normal;text-align:center;letter-spacing:0;word-spacing:0;writing-mode:lr-tb;text-anchor:middle;fill:#000;fill-opacity:1;stroke:none;stroke-width:.26458335"><tspan id="tspan957" x="11.935" y="291.149">FLP</tspan></text><text style="font-style:normal;font-variant:normal;font-weight:400;font-stretch:normal;font-size:2.11666679px;line-height:1.25;font-family:'DejaVu Sans Mono';-inkscape-font-specification:'DejaVu Sans Mono, Normal';font-variant-ligatures:normal;font-variant-caps:normal;font-variant-numeric:normal;font-feature-settings:normal;text-align:center;letter-spacing:0;word-spacing:0;writing-mode:lr-tb;text-anchor:middle;fill:#000;fill-opacity:1;stroke:none;stroke-width:.26458335" id="text1325" x="19.873" y="291.149" xml:space="preserve"><tspan id="tspan959" x="19.873" y="291.149">OPN</tspan></text><g style="font-style:normal;font-variant:normal;font-weight:400;font-stretch:normal;font-size:2.11666679px;line-height:1.25;font-family:'DejaVu Sans Mono';-inkscape-font-specification:'DejaVu Sans Mono, Normal';font-variant-ligatures:normal;font-variant-caps:normal;font-variant-numeric:normal;font-feature-settings:normal;text-align:center;letter-spacing:0;word-spacing:0;writing-mode:lr-tb;text-anchor:middle;fill:#000;fill-opacity:1;stroke:none;stroke-width:.26458335" id="text950" aria-label="8"><path id="path996" d="m 21.428024,272.95387 q -0.139526,0 -0.216007,0.0786 -0.07545,0.0775 -0.07545,0.22014 0,0.14263 0.07648,0.22221 0.07752,0.0786 0.214974,0.0786 0.14056,0 0.216008,-0.0775 0.07648,-0.0786 0.07648,-0.22325 0,-0.14159 -0.07752,-0.22014 -0.07648,-0.0786 -0.214974,-0.0786 z m -0.181901,-0.0868 q -0.133325,-0.0341 -0.208773,-0.12713 -0.07441,-0.093 -0.07441,-0.22427 0,-0.18397 0.125057,-0.29146 0.125057,-0.10852 0.340031,-0.10852 0.216008,0 0.341065,0.10852 0.125057,0.10749 0.125057,0.29146 0,0.13126 -0.07545,0.22427 -0.07441,0.093 -0.207739,0.12713 0.155029,0.0341 0.236678,0.13746 0.08268,0.10335 0.08268,0.26768 0,0.20877 -0.133325,0.3266 -0.133325,0.11782 -0.36897,0.11782 -0.235644,0 -0.368969,-0.11679 -0.132292,-0.11782 -0.132292,-0.32556 0,-0.16537 0.08165,-0.26872 0.08268,-0.10439 0.237711,-0.13849 z m -0.07545,-0.33177 q 0,0.12403 0.06614,0.18914 0.06615,0.0651 0.191203,0.0651 0.126091,0 0.192237,-0.0651 0.06615,-0.0651 0.06615,-0.18914 0,-0.12609 -0.06615,-0.19223 -0.06511,-0.0661 -0.192237,-0.0661 -0.125057,0 -0.191203,0.0672 -0.06614,0.0661 -0.06614,0.1912 z"/></g><g style="font-style:normal;font-variant:normal;font-weight:400;font-stretch:normal;font-size:2.11666679px;line-height:1.25;font-family:'DejaVu Sans Mono';-inkscape-font-specification:'DejaVu Sans Mono, Normal';font-variant-ligatures:normal;font-variant-caps:normal;font-variant-numeric:normal;font-feature-settings:normal;text-align:center;letter-spacing:0;word-spacing:0;writing-mode:lr-tb;text-anchor:middle;fill:#000;fill-opacity:1;stroke:none;stroke-width:.26458335" id="text954" aria-label="7"><path id="path999" d="m 20.935031,262.61862 h 0.971517 v 0.0889 l -0.551904,1.45417 h -0.218075 l 0.537435,-1.36736 h -0.738973 z"/></g><g style="font-style:normal;font-variant:normal;font-weight:400;font-stretch:normal;font-size:2.11666679px;line-height:1.25;font-family:'DejaVu Sans Mono';-inkscape-font-specification:'DejaVu Sans Mono, Normal';font-variant-ligatures:normal;font-variant-caps:normal;font-variant-numeric:normal;font-feature-settings:normal;text-align:center;letter-spacing:0;word-spacing:0;writing-mode:lr-tb;text-anchor:middle;fill:#000;fill-opacity:1;stroke:none;stroke-width:.26458335" id="text958" aria-label="6"><path id="path1002" d="m 21.815598,253.12784 v 0.19224 q -0.06511,-0.0382 -0.138493,-0.0579 -0.07338,-0.0207 -0.152963,-0.0207 -0.198437,0 -0.300756,0.14986 -0.10232,0.14883 -0.10232,0.43925 0.04961,-0.10335 0.13746,-0.15813 0.08785,-0.0558 0.201538,-0.0558 0.223242,0 0.345198,0.13746 0.12299,0.13643 0.12299,0.38757 0,0.25012 -0.12609,0.38758 -0.126091,0.13746 -0.354501,0.13746 -0.268717,0 -0.393774,-0.19224 -0.125057,-0.19327 -0.125057,-0.60771 0,-0.39068 0.149862,-0.59532 0.150895,-0.20567 0.436149,-0.20567 0.07648,0 0.152962,0.0165 0.07648,0.0155 0.147795,0.0455 z M 21.443527,253.78 q -0.133325,0 -0.209806,0.0961 -0.07648,0.0961 -0.07648,0.26561 0,0.1695 0.07648,0.26562 0.07648,0.0961 0.209806,0.0961 0.138493,0 0.208773,-0.0909 0.07028,-0.092 0.07028,-0.27079 0,-0.17983 -0.07028,-0.27078 -0.07028,-0.0909 -0.208773,-0.0909 z"/></g><g style="font-style:normal;font-variant:normal;font-weight:400;font-stretch:normal;font-size:2.11666679px;line-height:1.25;font-family:'DejaVu Sans Mono';-inkscape-font-specification:'DejaVu Sans Mono, Normal';font-variant-ligatures:normal;font-variant-caps:normal;font-variant-numeric:normal;font-feature-settings:normal;text-align:center;letter-spacing:0;word-spacing:0;writing-mode:lr-tb;text-anchor:middle;fill:#000;fill-opacity:1;stroke:none;stroke-width:.26458335" id="text962" aria-label="5"><path id="path1005" d="m 21.005311,243.56879 h 0.781348 v 0.1757 H 21.19548 v 0.3793 q 0.04444,-0.0165 0.08888,-0.0238 0.04547,-0.008 0.09095,-0.008 0.239779,0 0.380339,0.1416 0.14056,0.14159 0.14056,0.38344 0,0.24391 -0.147795,0.38447 -0.146761,0.14056 -0.402042,0.14056 -0.12299,0 -0.22531,-0.0165 -0.101286,-0.0165 -0.181901,-0.0496 v -0.21187 q 0.09509,0.0517 0.191203,0.0775 0.09612,0.0248 0.19637,0.0248 0.1726,0 0.265617,-0.0909 0.09405,-0.0909 0.09405,-0.25838 0,-0.16537 -0.09715,-0.25735 -0.09612,-0.092 -0.268718,-0.092 -0.08372,0 -0.163297,0.0196 -0.07958,0.0186 -0.151929,0.0568 z"/></g><g style="font-style:normal;font-variant:normal;font-weight:400;font-stretch:normal;font-size:2.11666679px;line-height:1.25;font-family:'DejaVu Sans Mono';-inkscape-font-specification:'DejaVu Sans Mono, Normal';font-variant-ligatures:normal;font-variant-caps:normal;font-variant-numeric:normal;font-feature-settings:normal;text-align:center;letter-spacing:0;word-spacing:0;writing-mode:lr-tb;text-anchor:middle;fill:#000;fill-opacity:1;stroke:none;stroke-width:.26458335" id="text966" aria-label="4"><path id="path1008" d="m 21.551014,234.23393 -0.486792,0.81546 h 0.486792 z m -0.03411,-0.19017 h 0.241845 v 1.00563 h 0.205673 v 0.1695 h -0.205673 v 0.36793 H 21.55101 v -0.36793 h -0.654223 v -0.19741 z"/></g><g style="font-style:normal;font-variant:normal;font-weight:400;font-stretch:normal;font-size:2.11666679px;line-height:1.25;font-family:'DejaVu Sans Mono';-inkscape-font-specification:'DejaVu Sans Mono, Normal';font-variant-ligatures:normal;font-variant-caps:normal;font-variant-numeric:normal;font-feature-settings:normal;text-align:center;letter-spacing:0;word-spacing:0;writing-mode:lr-tb;text-anchor:middle;fill:#000;fill-opacity:1;stroke:none;stroke-width:.26458335" id="text970" aria-label="3"><path id="path1011" d="m 21.593389,225.23601 q 0.151929,0.0403 0.232544,0.14366 0.08062,0.10232 0.08062,0.25631 0,0.21291 -0.14366,0.33487 -0.142627,0.12092 -0.395842,0.12092 -0.106453,0 -0.217041,-0.0196 -0.110588,-0.0196 -0.217041,-0.0568 v -0.20774 q 0.10542,0.0548 0.207739,0.0816 0.10232,0.0269 0.203605,0.0269 0.171566,0 0.26355,-0.0775 0.09198,-0.0775 0.09198,-0.22325 0,-0.13436 -0.09198,-0.2129 -0.09198,-0.0796 -0.24908,-0.0796 h -0.159164 v -0.17157 h 0.159164 q 0.14366,0 0.224276,-0.0631 0.08061,-0.063 0.08061,-0.1757 0,-0.11885 -0.07545,-0.1819 -0.07441,-0.0641 -0.212907,-0.0641 -0.09198,0 -0.190169,0.0207 -0.09818,0.0207 -0.205672,0.062 v -0.19224 q 0.125057,-0.0331 0.222209,-0.0496 0.09818,-0.0165 0.173632,-0.0165 0.22531,0 0.359668,0.11369 0.135393,0.11266 0.135393,0.29973 0,0.12712 -0.07131,0.21187 -0.07028,0.0848 -0.205672,0.11989 z"/></g><g style="font-style:normal;font-variant:normal;font-weight:400;font-stretch:normal;font-size:2.11666679px;line-height:1.25;font-family:'DejaVu Sans Mono';-inkscape-font-specification:'DejaVu Sans Mono, Normal';font-variant-ligatures:normal;font-variant-caps:normal;font-variant-numeric:normal;font-feature-settings:normal;text-align:center;letter-spacing:0;word-spacing:0;writing-mode:lr-tb;text-anchor:middle;fill:#000;fill-opacity:1;stroke:none;stroke-width:.26458335" id="text974" aria-label="2"><path id="path1014" d="m 21.176877,216.36107 h 0.709001 v 0.1757 h -0.937411 v -0.1757 q 0.19327,-0.2036 0.337964,-0.35966 0.144694,-0.15607 0.199471,-0.22015 0.103353,-0.12609 0.139526,-0.2036 0.03617,-0.0786 0.03617,-0.1602 0,-0.12919 -0.07648,-0.20257 -0.07545,-0.0734 -0.20774,-0.0734 -0.09405,0 -0.197404,0.0341 -0.103352,0.0341 -0.219108,0.10335 v -0.21084 q 0.106454,-0.0506 0.208773,-0.0765 0.103353,-0.0258 0.203605,-0.0258 0.226343,0 0.363802,0.12092 0.138493,0.11989 0.138493,0.31523 0,0.0992 -0.04651,0.19844 -0.04547,0.0992 -0.148828,0.2191 -0.05788,0.0672 -0.168465,0.18604 -0.109554,0.11886 -0.334863,0.35553 z"/></g><g style="font-style:normal;font-variant:normal;font-weight:400;font-stretch:normal;font-size:2.11666679px;line-height:1.25;font-family:'DejaVu Sans Mono';-inkscape-font-specification:'DejaVu Sans Mono, Normal';font-variant-ligatures:normal;font-variant-caps:normal;font-variant-numeric:normal;font-feature-settings:normal;text-align:center;letter-spacing:0;word-spacing:0;writing-mode:lr-tb;text-anchor:middle;fill:#000;fill-opacity:1;stroke:none;stroke-width:.26458335" id="text978" aria-label="1"><path id="path1017" d="m 21.006142,206.83605 h 0.324528 v -1.17926 l -0.349333,0.0786 v -0.19017 l 0.347266,-0.0765 h 0.208773 v 1.36736 h 0.320394 v 0.1757 h -0.851628 z"/></g><g style="font-style:normal;font-variant:normal;font-weight:400;font-stretch:normal;font-size:2.11666679px;line-height:1.25;font-family:'DejaVu Sans Mono';-inkscape-font-specification:'DejaVu Sans Mono, Normal';font-variant-ligatures:normal;font-variant-caps:normal;font-variant-numeric:normal;font-feature-settings:normal;text-align:center;letter-spacing:0;word-spacing:0;writing-mode:lr-tb;text-anchor:middle;fill:#000;fill-opacity:1;stroke:none;stroke-width:.26458335" id="text982" aria-label="ALL CHANNELS" transform="translate(0,-0.26464684)"><path id="path1020" d="M 4.9319997,279.47138 4.7118581,280.261 h 0.4402832 z m -0.1260905,-0.18396 h 0.2532145 l 0.4723226,1.54305 H 5.3154388 L 5.2017507,280.42843 H 4.6612152 l -0.1116211,0.40204 H 4.3335866 Z" style="fill:#000"/><path id="path1022" d="m 5.790862,279.28742 h 0.2098063 v 1.36735 h 0.7451742 v 0.1757 H 5.790862 Z" style="fill:#000"/><path id="path1024" d="m 7.0641693,279.28742 h 0.2098063 v 1.36735 h 0.7451742 v 0.1757 H 7.0641693 Z" style="fill:#000"/><path id="path1026" d="m 10.497552,280.7757 q -0.07958,0.0424 -0.163298,0.063 -0.08372,0.0217 -0.177767,0.0217 -0.2966226,0 -0.4609537,-0.20981 -0.1632975,-0.20981 -0.1632975,-0.59014 0,-0.37828 0.164331,-0.58912 0.1653646,-0.21187 0.4599202,-0.21187 0.09405,0 0.177767,0.0217 0.08372,0.0207 0.163298,0.063 v 0.21394 q -0.07648,-0.063 -0.164331,-0.0961 -0.08785,-0.0331 -0.176734,-0.0331 -0.203605,0 -0.3048909,0.1571 -0.1012858,0.15709 -0.1012858,0.47439 0,0.31626 0.1012858,0.47335 0.1012859,0.1571 0.3048909,0.1571 0.09095,0 0.177767,-0.0331 0.08785,-0.0331 0.163298,-0.0961 z" style="fill:#000"/><path id="path1028" d="m 10.803476,279.28742 h 0.209806 v 0.63252 h 0.571542 v -0.63252 h 0.209806 v 1.54305 h -0.209806 v -0.73483 h -0.571542 v 0.73483 h -0.209806 z" style="fill:#000"/><path id="path1030" d="m 12.571844,279.47138 -0.220142,0.78962 h 0.440283 z m -0.126091,-0.18396 h 0.253215 l 0.472322,1.54305 h -0.216007 l -0.113688,-0.40204 h -0.540536 l -0.111621,0.40204 H 11.97343 Z" style="fill:#000"/><path id="path1032" d="m 13.352157,279.28742 h 0.264584 l 0.520898,1.2702 v -1.2702 h 0.201538 v 1.54305 h -0.264583 l -0.520899,-1.2702 v 1.2702 h -0.201538 z" style="fill:#000"/><path id="path1034" d="m 14.625465,279.28742 h 0.264583 l 0.520899,1.2702 v -1.2702 h 0.201538 v 1.54305 h -0.264583 l -0.520899,-1.2702 v 1.2702 h -0.201538 z" style="fill:#000"/><path id="path1036" d="m 15.958718,279.28742 h 0.915706 v 0.1757 H 16.16749 v 0.45682 h 0.675928 v 0.1757 H 16.16749 v 0.55913 h 0.726571 v 0.1757 h -0.935343 z" style="fill:#000"/><path id="path1038" d="m 17.250628,279.28742 h 0.209806 v 1.36735 h 0.745174 v 0.1757 h -0.95498 z" style="fill:#000"/><path id="path1040" d="m 19.347657,279.34013 v 0.21187 q -0.09509,-0.061 -0.191203,-0.092 -0.09508,-0.031 -0.192236,-0.031 -0.147795,0 -0.233578,0.0693 -0.08578,0.0682 -0.08578,0.185 0,0.10232 0.05581,0.15606 0.05684,0.0537 0.21084,0.0899 l 0.109554,0.0248 q 0.217041,0.0506 0.31626,0.15917 0.09922,0.10852 0.09922,0.29559 0,0.22014 -0.136426,0.33589 -0.136426,0.11576 -0.396875,0.11576 -0.108521,0 -0.218075,-0.0238 -0.109554,-0.0227 -0.220141,-0.0693 v -0.22221 q 0.118855,0.0755 0.224275,0.11059 0.106454,0.0351 0.213941,0.0351 0.15813,0 0.24598,-0.0703 0.08785,-0.0713 0.08785,-0.19844 0,-0.11575 -0.06098,-0.17673 -0.05994,-0.061 -0.209806,-0.094 l -0.111621,-0.0258 q -0.214974,-0.0486 -0.312126,-0.14676 -0.09715,-0.0982 -0.09715,-0.26355 0,-0.20671 0.138492,-0.33073 0.139527,-0.12506 0.370004,-0.12506 0.08888,0 0.187068,0.0207 0.09819,0.0196 0.206706,0.06 z" style="fill:#000"/></g><g style="font-style:normal;font-variant:normal;font-weight:400;font-stretch:normal;font-size:2.11666679px;line-height:1.25;font-family:'DejaVu Sans Mono';-inkscape-font-specification:'DejaVu Sans Mono, Normal';font-variant-ligatures:normal;font-variant-caps:normal;font-variant-numeric:normal;font-feature-settings:normal;text-align:center;letter-spacing:0;word-spacing:0;writing-mode:lr-tb;text-anchor:middle;fill:#000;fill-opacity:1;stroke:none;stroke-width:.26458335" id="text986" aria-label="SHT" transform="translate(0,0.52916669)"><path id="path1043" d="m 3.1336619,289.12965 v 0.21187 q -0.095085,-0.061 -0.1912028,-0.092 -0.095085,-0.031 -0.1922364,-0.031 -0.1477946,0 -0.2335775,0.0693 -0.085783,0.0682 -0.085783,0.185 0,0.10232 0.055811,0.15606 0.056844,0.0537 0.2108399,0.0899 l 0.109554,0.0248 q 0.217041,0.0507 0.3162598,0.15917 0.099219,0.10852 0.099219,0.29559 0,0.22014 -0.1364258,0.33589 -0.1364257,0.11576 -0.396875,0.11576 -0.1085205,0 -0.2180745,-0.0238 -0.1095541,-0.0227 -0.2201416,-0.0693 v -0.22221 q 0.1188558,0.0754 0.2242757,0.11059 0.1064534,0.0351 0.2139404,0.0351 0.1581299,0 0.2459799,-0.0703 0.08785,-0.0713 0.08785,-0.19844 0,-0.11575 -0.060978,-0.17673 -0.059945,-0.061 -0.2098063,-0.094 l -0.1116211,-0.0258 q -0.214974,-0.0486 -0.3121257,-0.14676 -0.097152,-0.0982 -0.097152,-0.26355 0,-0.20671 0.1384929,-0.33073 0.1395263,-0.12506 0.3700032,-0.12506 0.088883,0 0.1870687,0.0207 0.098185,0.0196 0.2067058,0.06 z"/><path id="path1045" d="m 3.5026316,289.07694 h 0.2098063 v 0.63252 h 0.5715414 v -0.63252 H 4.4937856 V 290.62 H 4.2839793 v -0.73484 H 3.7124379 V 290.62 H 3.5026316 Z"/><path id="path1047" d="m 4.6829213,289.07694 h 1.1771892 v 0.1757 H 5.3774526 V 290.62 H 5.1676463 v -1.36736 h -0.484725 z"/></g><g style="font-style:normal;font-variant:normal;font-weight:400;font-stretch:normal;font-size:2.11666679px;line-height:1.25;font-family:'DejaVu Sans Mono';-inkscape-font-specification:'DejaVu Sans Mono, Normal';font-variant-ligatures:normal;font-variant-caps:normal;font-variant-numeric:normal;font-feature-settings:normal;text-align:center;letter-spacing:0;word-spacing:0;writing-mode:lr-tb;text-anchor:middle;fill:#000;fill-opacity:1;stroke:none;stroke-width:.26458335" id="text990" aria-label="FLP" transform="translate(0,0.52916669)"><path id="path1050" d="m 10.266041,289.07694 h 0.908472 v 0.1757 h -0.698665 v 0.45475 h 0.633553 v 0.1757 H 10.475848 V 290.62 h -0.209807 z"/><path id="path1052" d="m 11.520745,289.07694 h 0.209806 v 1.36736 h 0.745175 v 0.1757 h -0.954981 z"/><path id="path1054" d="m 12.984222,289.2485 v 0.57981 h 0.241845 q 0.144694,0 0.22531,-0.0765 0.08165,-0.0765 0.08165,-0.21394 0,-0.13746 -0.08061,-0.21291 -0.08061,-0.0765 -0.226343,-0.0765 z m -0.208773,-0.17156 h 0.450618 q 0.258383,0 0.391708,0.11782 0.133325,0.11679 0.133325,0.34313 0,0.22841 -0.133325,0.3452 -0.132292,0.11679 -0.391708,0.11679 H 12.984222 V 290.62 h -0.208773 z"/></g><g style="font-style:normal;font-variant:normal;font-weight:400;font-stretch:normal;font-size:2.11666679px;line-height:1.25;font-family:'DejaVu Sans Mono';-inkscape-font-specification:'DejaVu Sans Mono, Normal';font-variant-ligatures:normal;font-variant-caps:normal;font-variant-numeric:normal;font-feature-settings:normal;text-align:center;letter-spacing:0;word-spacing:0;writing-mode:lr-tb;text-anchor:middle;fill:#000;fill-opacity:1;stroke:none;stroke-width:.26458335" id="text994" aria-label="OPN" transform="translate(0,0.52916669)"><path id="path1057" d="m 18.898075,289.85002 q 0,-0.34003 -0.07028,-0.48576 -0.06925,-0.14573 -0.22841,-0.14573 -0.15813,0 -0.22841,0.14573 -0.06925,0.14573 -0.06925,0.48576 0,0.33899 0.06925,0.48472 0.07028,0.14573 0.22841,0.14573 0.159163,0 0.22841,-0.1447 0.07028,-0.14572 0.07028,-0.48575 z m 0.218074,0 q 0,0.40307 -0.128157,0.60151 -0.127124,0.19844 -0.388607,0.19844 -0.261483,0 -0.388607,-0.19741 -0.127124,-0.1974 -0.127124,-0.60254 0,-0.40411 0.127124,-0.60255 0.128158,-0.19844 0.388607,-0.19844 0.261483,0 0.388607,0.19844 0.128157,0.19844 0.128157,0.60255 z"/><path id="path1059" d="m 19.648416,289.2485 v 0.57981 h 0.241846 q 0.144694,0 0.225309,-0.0765 0.08165,-0.0765 0.08165,-0.21394 0,-0.13746 -0.08062,-0.21291 -0.08061,-0.0765 -0.226343,-0.0765 z m -0.208772,-0.17156 h 0.450618 q 0.258382,0 0.391707,0.11782 0.133326,0.11679 0.133326,0.34313 0,0.22841 -0.133326,0.3452 -0.132291,0.11679 -0.391707,0.11679 H 19.648416 V 290.62 h -0.208772 z"/><path id="path1061" d="m 20.653006,289.07694 h 0.264584 l 0.520898,1.2702 v -1.2702 h 0.201538 V 290.62 h -0.264583 l -0.520899,-1.27021 V 290.62 h -0.201538 z"/></g></g></svg>