<svg xmlns="http://www.w3.org/2000/svg" xmlns:svg="http://www.w3.org/2000/svg" id="svg8" width="30" height="380" version="1.1" viewBox="0 0 7.938 100.542"><metadata id="metadata5"/><g style="display:inline" id="g1796" transform="translate(0,-196.45832)"><text style="font-style:normal;font-variant:normal;font-weight:400;font-stretch:normal;font-size:2.11666679px;line-height:1.25;font-family:'DejaVu Sans Mono';-inkscape-font-specification:'DejaVu Sans Mono, Normal';font-variant-ligatures:normal;font-variant-caps:normal;font-variant-numeric:normal;font-feature-settings:normal;text-align:center;letter-spacing:0;word-spacing:0;writing-mode:lr-tb;text-anchor:middle;display:none;fill:#000;fill-opacity:1;stroke:#dcdcdc;stroke-width:.00026458;stroke-miterlimit:4;stroke-dasharray:none" id="text821" x="3.906" y="210.746" xml:space="preserve"><tspan id="tspan875" x="3.906" y="210.746">L</tspan></text><text id="text829" x="3.894" y="221.858" xml:space="preserve" style="font-style:normal;font-variant:normal;font-weight:400;font-stretch:normal;font-size:2.11666679px;line-height:1.25;font-family:'DejaVu Sans Mono';-inkscape-font-specification:'DejaVu Sans Mono, Normal';font-variant-ligatures:normal;font-variant-caps:normal;font-variant-numeric:normal;font-feature-settings:normal;text-align:center;letter-spacing:0;word-spacing:0;writing-mode:lr-tb;text-anchor:middle;display:none;fill:#000;fill-opacity:1;stroke:#dcdcdc;stroke-width:.00026458;stroke-miterlimit:4;stroke-dasharray:none"><tspan id="tspan877" x="3.894" y="221.858">R</tspan></text><text id="text837" x="3.895" y="273.717" xml:space="preserve" style="font-style:normal;font-variant:normal;font-weight:400;font-stretch:normal;font-size:2.11666679px;line-height:1.25;font-family:'DejaVu Sans Mono';-inkscape-font-specification:'DejaVu Sans Mono, Normal';font-variant-ligatures:normal;font-variant-caps:normal;font-variant-numeric:normal;font-feature-settings:normal;text-align:center;letter-spacing:0;word-spacing:0;writing-mode:lr-tb;text-anchor:middle;display:none;fill:snow;fill-opacity:1;stroke:#000;stroke-width:.00026458;stroke-miterlimit:4;stroke-dasharray:none"><tspan id="tspan879" x="3.895" y="273.717">L</tspan></text><text style="font-style:normal;font-variant:normal;font-weight:400;font-stretch:normal;font-size:2.11666679px;line-height:1.25;font-family:'DejaVu Sans Mono';-inkscape-font-specification:'DejaVu Sans Mono, Normal';font-variant-ligatures:normal;font-variant-caps:normal;font-variant-numeric:normal;font-feature-settings:normal;text-align:center;letter-spacing:0;word-spacing:0;writing-mode:lr-tb;text-anchor:middle;display:none;fill:snow;fill-opacity:1;stroke:#000;stroke-width:.00026458;stroke-miterlimit:4;stroke-dasharray:none" id="text843" x="3.895" y="284.3" xml:space="preserve"><tspan id="tspan881" x="3.895" y="284.3">R</tspan></text><text id="text853" x="3.93" y="248.846" xml:space="preserve" style="font-style:normal;font-variant:normal;font-weight:400;font-stretch:normal;font-size:2.11666679px;line-height:1.25;font-family:'DejaVu Sans Mono';-inkscape-font-specification:'DejaVu Sans Mono, Normal';font-variant-ligatures:normal;font-variant-caps:normal;font-variant-numeric:normal;font-feature-settings:normal;text-align:center;letter-spacing:0;word-spacing:0;writing-mode:lr-tb;text-anchor:middle;display:none;fill:#000;fill-opacity:1;stroke:#dcdcdc;stroke-width:.00026458;stroke-miterlimit:4;stroke-dasharray:none"><tspan id="tspan861" x="3.93" y="248.846">LIN</tspan></text><text style="font-style:normal;font-variant:normal;font-weight:400;font-stretch:normal;font-size:2.11666679px;line-height:1.25;font-family:'DejaVu Sans Mono';-inkscape-font-specification:'DejaVu Sans Mono, Normal';font-variant-ligatures:normal;font-variant-caps:normal;font-variant-numeric:normal;font-feature-settings:normal;text-align:center;letter-spacing:0;word-spacing:0;writing-mode:lr-tb;text-anchor:middle;display:none;fill:#000;fill-opacity:1;stroke:#dcdcdc;stroke-width:.00026458;stroke-miterlimit:4;stroke-dasharray:none" id="text859" x="3.915" y="259.958" xml:space="preserve"><tspan id="tspan863" x="3.915" y="259.958">EXP</tspan></text><text style="font-style:normal;font-variant:normal;font-weight:400;font-stretch:normal;font-size:2.11666679px;line-height:1.25;font-family:'DejaVu Sans Mono';-inkscape-font-specification:'DejaVu Sans Mono, Normal';font-variant-ligatures:normal;font-variant-caps:normal;font-variant-numeric:normal;font-feature-settings:normal;text-align:center;letter-spacing:0;word-spacing:0;writing-mode:lr-tb;text-anchor:middle;display:none;fill:#000;fill-opacity:1;stroke:#000;stroke-width:.00026458;stroke-miterlimit:4;stroke-dasharray:none" id="text871" x="3.906" y="237.204" xml:space="preserve"><tspan id="tspan873" x="3.906" y="237.204">LVL</tspan></text><path id="path1790" d="m 0,365 v 15 h 30 v -15 z m 7.5,4.25 h 15 c 1.8005,0 3.25,1.4495 3.25,3.25 0,1.8005 -1.4495,3.25 -3.25,3.25 h -15 c -1.8005,0 -3.25,-1.4495 -3.25,-3.25 0,-1.8005 1.4495,-3.25 3.25,-3.25 z" transform="matrix(0.26458335,0,0,0.26458335,0,196.45832)" style="opacity:1;vector-effect:none;fill:gray;fill-opacity:1;fill-rule:evenodd;stroke:none;stroke-width:.21073182;stroke-linecap:butt;stroke-linejoin:round;stroke-miterlimit:4;stroke-dasharray:none;stroke-dashoffset:0;stroke-opacity:1;paint-order:normal"/><path id="path1792" d="m 0,200.42707 h 7.9375004 v 92.60417 H 0 Z" style="opacity:1;vector-effect:none;fill:gray;fill-opacity:1;fill-rule:evenodd;stroke:none;stroke-width:.2693277;stroke-linecap:butt;stroke-linejoin:round;stroke-miterlimit:4;stroke-dasharray:none;stroke-dashoffset:0;stroke-opacity:1;paint-order:normal"/><path style="opacity:1;vector-effect:none;fill:gray;fill-opacity:1;fill-rule:evenodd;stroke:none;stroke-width:.05575613;stroke-linecap:butt;stroke-linejoin:round;stroke-miterlimit:4;stroke-dasharray:none;stroke-dashoffset:0;stroke-opacity:1;paint-order:normal" id="path1794" d="m 0,196.45832 v 3.96875 h 7.9375005 v -3.96875 z m 1.9843751,1.12448 h 3.9687503 c 0.4763823,0 0.8598959,0.38351 0.8598959,0.8599 0,0.47638 -0.3835136,0.85989 -0.8598959,0.85989 H 1.9843751 c -0.4763823,0 -0.8598959,-0.38351 -0.8598959,-0.85989 0,-0.47639 0.3835136,-0.8599 0.8598959,-0.8599 z"/><path style="opacity:1;vector-effect:none;fill:#696969;fill-opacity:1;fill-rule:evenodd;stroke:none;stroke-width:.26778427;stroke-linecap:butt;stroke-linejoin:round;stroke-miterlimit:4;stroke-dasharray:none;stroke-dashoffset:0;stroke-opacity:1;paint-order:normal" id="path1808" d="m 0,200.95623 h 7.9375003 v 91.54584 H 0 Z"/><rect id="rect882" width="6.085" height="2.91" x=".926" y="234.426" rx="1.455" ry="1.455" style="display:inline;opacity:1;fill:#b22222;fill-opacity:1;stroke:none;stroke-width:.26458335;stroke-linecap:butt;stroke-linejoin:miter;stroke-miterlimit:4;stroke-dasharray:none;stroke-opacity:1;paint-order:normal"/><rect style="display:inline;opacity:1;fill:#b22222;fill-opacity:1;stroke:none;stroke-width:.26458335;stroke-linecap:butt;stroke-linejoin:miter;stroke-miterlimit:4;stroke-dasharray:none;stroke-opacity:1;paint-order:normal" id="rect880" width="6.085" height="2.91" x=".926" y="246.068" rx="1.455" ry="1.455"/><rect id="rect923" width="6.085" height="2.91" x=".926" y="257.709" rx="1.455" ry="1.455" style="display:inline;opacity:1;fill:#b22222;fill-opacity:1;stroke:none;stroke-width:.26458335;stroke-linecap:butt;stroke-linejoin:miter;stroke-miterlimit:4;stroke-dasharray:none;stroke-opacity:1;paint-order:normal"/><rect id="rect912" width="7.144" height="21.431" x=".397" y="270.674" rx=".794" ry=".794" style="display:inline;opacity:1;fill:#000;fill-opacity:.25490196;stroke:silver;stroke-width:.26458335;stroke-linecap:square;stroke-linejoin:round;stroke-miterlimit:1.29999995;stroke-dasharray:none;stroke-opacity:.25490196;paint-order:stroke markers fill"/><rect id="rect1001" width="7.144" height="21.431" x=".397" y="201.353" rx=".794" ry=".794" style="display:inline;opacity:1;fill:silver;fill-opacity:.25490196;stroke:#000;stroke-width:.26458335;stroke-linecap:square;stroke-linejoin:round;stroke-miterlimit:1.29999995;stroke-dasharray:none;stroke-opacity:.25490196;paint-order:stroke markers fill"/><rect style="opacity:1;fill:#000;fill-opacity:1;stroke:none;stroke-width:.00026458;stroke-linecap:butt;stroke-linejoin:miter;stroke-miterlimit:4;stroke-dasharray:none;stroke-opacity:1;paint-order:normal" id="rect817" width="5.821" height="5.821" x="1.058" y="202.279" rx="2.91" ry="2.91"/><rect id="rect825" width="5.821" height="5.821" x="1.058" y="213.392" rx="2.91" ry="2.91" style="opacity:1;fill:#000;fill-opacity:1;stroke:none;stroke-width:.00026458;stroke-linecap:butt;stroke-linejoin:miter;stroke-miterlimit:4;stroke-dasharray:none;stroke-opacity:1;paint-order:normal"/><rect id="rect833" width="5.821" height="5.821" x="1.058" y="274.775" rx="2.91" ry="2.91" style="opacity:1;fill:#000;fill-opacity:1;stroke:none;stroke-width:.00026458;stroke-linecap:butt;stroke-linejoin:miter;stroke-miterlimit:4;stroke-dasharray:none;stroke-opacity:1;paint-order:normal"/><rect style="opacity:1;fill:#000;fill-opacity:1;stroke:none;stroke-width:.00026458;stroke-linecap:butt;stroke-linejoin:miter;stroke-miterlimit:4;stroke-dasharray:none;stroke-opacity:1;paint-order:normal" id="rect839" width="5.821" height="5.821" x="1.058" y="285.358" rx="2.91" ry="2.91"/><rect id="rect849" width="5.821" height="5.821" x="1.058" y="239.85" rx="2.91" ry="2.91" style="opacity:1;fill:#000;fill-opacity:1;stroke:none;stroke-width:.00026458;stroke-linecap:butt;stroke-linejoin:miter;stroke-miterlimit:4;stroke-dasharray:none;stroke-opacity:1;paint-order:normal"/><rect style="opacity:1;fill:#000;fill-opacity:1;stroke:none;stroke-width:.00026458;stroke-linecap:butt;stroke-linejoin:miter;stroke-miterlimit:4;stroke-dasharray:none;stroke-opacity:1;paint-order:normal" id="rect855" width="5.821" height="5.821" x="1.058" y="251.492" rx="2.91" ry="2.91"/><rect style="opacity:1;fill:#000;fill-opacity:1;stroke:none;stroke-width:.00026458;stroke-linecap:butt;stroke-linejoin:miter;stroke-miterlimit:4;stroke-dasharray:none;stroke-opacity:1;paint-order:normal" id="rect867" width="5.821" height="5.821" x="1.058" y="228.208" rx="2.91" ry="2.91"/><path style="opacity:1;fill:#000;fill-opacity:1;stroke:#b22222;stroke-width:.00010807;stroke-linecap:butt;stroke-linejoin:miter;stroke-miterlimit:4;stroke-dasharray:none;stroke-opacity:1;paint-order:normal" id="path860" d="m -25.535061,203.27733 -1.374653,0.79365 v -1.58731 z" transform="rotate(90,-15.572078,222.82536)"/><g style="font-style:normal;font-variant:normal;font-weight:400;font-stretch:normal;font-size:2.11666679px;line-height:1.25;font-family:'DejaVu Sans Mono';-inkscape-font-specification:'DejaVu Sans Mono, Normal';font-variant-ligatures:normal;font-variant-caps:normal;font-variant-numeric:normal;font-feature-settings:normal;text-align:center;letter-spacing:0;word-spacing:0;writing-mode:lr-tb;text-anchor:middle;fill:#000;fill-opacity:1;stroke:#dcdcdc;stroke-width:.00026458;stroke-miterlimit:4;stroke-dasharray:none" id="text893" aria-label="L"><path id="path919" d="m 3.4919032,209.20262 h 0.2098063 v 1.36736 h 0.7451742 v 0.1757 H 3.4919032 Z"/></g><g style="font-style:normal;font-variant:normal;font-weight:400;font-stretch:normal;font-size:2.11666679px;line-height:1.25;font-family:'DejaVu Sans Mono';-inkscape-font-specification:'DejaVu Sans Mono, Normal';font-variant-ligatures:normal;font-variant-caps:normal;font-variant-numeric:normal;font-feature-settings:normal;text-align:center;letter-spacing:0;word-spacing:0;writing-mode:lr-tb;text-anchor:middle;fill:#000;fill-opacity:1;stroke:#dcdcdc;stroke-width:.00026458;stroke-miterlimit:4;stroke-dasharray:none" id="text897" aria-label="R"><path id="path922" d="m 4.042452,221.12955 q 0.080615,0.0207 0.1374593,0.0786 0.056844,0.0568 0.1415934,0.22841 l 0.2098063,0.42167 H 4.3070353 l -0.1839681,-0.38964 q -0.079582,-0.16639 -0.1436605,-0.21394 -0.063045,-0.0486 -0.1653646,-0.0486 h -0.199471 v 0.65215 H 3.4047648 v -1.54305 h 0.4299479 q 0.2542481,0 0.3896403,0.11472 0.1353923,0.11472 0.1353923,0.33176 0,0.15296 -0.083716,0.25011 -0.082682,0.0961 -0.2335775,0.11783 z m -0.4278809,-0.64286 v 0.54777 h 0.2284098 q 0.1498617,0 0.2232422,-0.0672 0.073381,-0.0672 0.073381,-0.20567 0,-0.13332 -0.078548,-0.2036 -0.077515,-0.0713 -0.2263428,-0.0713 z"/></g><g style="font-style:normal;font-variant:normal;font-weight:400;font-stretch:normal;font-size:2.11666679px;line-height:1.25;font-family:'DejaVu Sans Mono';-inkscape-font-specification:'DejaVu Sans Mono, Normal';font-variant-ligatures:normal;font-variant-caps:normal;font-variant-numeric:normal;font-feature-settings:normal;text-align:center;letter-spacing:0;word-spacing:0;writing-mode:lr-tb;text-anchor:middle;fill:snow;fill-opacity:1;stroke:#000;stroke-width:.00026458;stroke-miterlimit:4;stroke-dasharray:none" id="text901" aria-label="L"><path id="path925" d="m 3.4806007,272.17346 h 0.2098064 v 1.36736 h 0.7451742 v 0.1757 H 3.4806007 Z"/></g><g style="font-style:normal;font-variant:normal;font-weight:400;font-stretch:normal;font-size:2.11666679px;line-height:1.25;font-family:'DejaVu Sans Mono';-inkscape-font-specification:'DejaVu Sans Mono, Normal';font-variant-ligatures:normal;font-variant-caps:normal;font-variant-numeric:normal;font-feature-settings:normal;text-align:center;letter-spacing:0;word-spacing:0;writing-mode:lr-tb;text-anchor:middle;fill:snow;fill-opacity:1;stroke:#000;stroke-width:.00026458;stroke-miterlimit:4;stroke-dasharray:none" id="text905" aria-label="R"><path id="path928" d="m 4.0438739,283.57123 q 0.080615,0.0207 0.1374593,0.0786 0.056844,0.0568 0.1415934,0.22841 l 0.2098064,0.42168 H 4.3084572 l -0.1839681,-0.38964 q -0.079582,-0.1664 -0.1436605,-0.21395 -0.063045,-0.0486 -0.1653646,-0.0486 H 3.615993 v 0.65216 H 3.4061867 v -1.54306 h 0.4299479 q 0.2542481,0 0.3896403,0.11472 0.1353923,0.11472 0.1353923,0.33176 0,0.15296 -0.083716,0.25012 -0.082682,0.0961 -0.2335775,0.11782 z M 3.615993,282.92837 v 0.54777 h 0.2284099 q 0.1498616,0 0.2232422,-0.0672 0.07338,-0.0672 0.07338,-0.20567 0,-0.13332 -0.078548,-0.2036 -0.077515,-0.0713 -0.2263428,-0.0713 z"/></g><g style="font-style:normal;font-variant:normal;font-weight:400;font-stretch:normal;font-size:2.11666679px;line-height:1.25;font-family:'DejaVu Sans Mono';-inkscape-font-specification:'DejaVu Sans Mono, Normal';font-variant-ligatures:normal;font-variant-caps:normal;font-variant-numeric:normal;font-feature-settings:normal;text-align:center;letter-spacing:0;word-spacing:0;writing-mode:lr-tb;text-anchor:middle;fill:#000;fill-opacity:1;stroke:#dcdcdc;stroke-width:.00026458;stroke-miterlimit:4;stroke-dasharray:none" id="text909" aria-label="LIN" transform="translate(0,-0.52916669)"><path id="path931" d="m 2.2424339,247.30272 h 0.2098063 v 1.36736 h 0.7451742 v 0.1757 H 2.2424339 Z"/><path id="path933" d="m 3.5012718,247.30272 h 0.8567953 v 0.1757 H 4.0345726 v 1.19166 h 0.3234945 v 0.1757 H 3.5012718 v -0.1757 h 0.3234945 v -1.19166 H 3.5012718 Z"/><path id="path935" d="m 4.7105004,247.30272 h 0.2645833 l 0.5208985,1.27021 v -1.27021 h 0.2015381 v 1.54306 H 5.4329369 l -0.5208984,-1.27021 v 1.27021 H 4.7105004 Z"/></g><g style="font-style:normal;font-variant:normal;font-weight:400;font-stretch:normal;font-size:2.11666679px;line-height:1.25;font-family:'DejaVu Sans Mono';-inkscape-font-specification:'DejaVu Sans Mono, Normal';font-variant-ligatures:normal;font-variant-caps:normal;font-variant-numeric:normal;font-feature-settings:normal;text-align:center;letter-spacing:0;word-spacing:0;writing-mode:lr-tb;text-anchor:middle;fill:#000;fill-opacity:1;stroke:#dcdcdc;stroke-width:.00026458;stroke-miterlimit:4;stroke-dasharray:none" id="text913" aria-label="EXP"><path id="path938" d="m 2.2083134,258.41504 h 0.9157064 v 0.1757 H 2.4170862 v 0.45682 H 3.093014 v 0.1757 H 2.4170862 v 0.55914 h 0.7265707 v 0.1757 H 2.2083134 Z"/><path id="path940" d="m 3.366899,258.41504 h 0.2242757 l 0.3389975,0.58188 0.3451985,-0.58188 h 0.2242758 l -0.4619874,0.72554 0.4950603,0.81752 H 4.3084437 L 3.9301722,259.29354 3.5219283,259.9581 H 3.2966191 l 0.5167643,-0.81752 z"/><path id="path942" d="m 4.9637008,258.58661 v 0.57981 h 0.2418457 q 0.1446941,0 0.2253093,-0.0765 0.081649,-0.0765 0.081649,-0.21395 0,-0.13745 -0.080615,-0.2129 -0.080615,-0.0765 -0.2263428,-0.0765 z M 4.754928,258.41504 h 0.4506185 q 0.2583822,0 0.3917074,0.11782 0.1333252,0.11679 0.1333252,0.34313 0,0.22841 -0.1333252,0.3452 -0.1322917,0.11679 -0.3917074,0.11679 H 4.9637008 v 0.62012 H 4.754928 Z"/></g><g style="font-style:normal;font-variant:normal;font-weight:400;font-stretch:normal;font-size:2.11666679px;line-height:1.25;font-family:'DejaVu Sans Mono';-inkscape-font-specification:'DejaVu Sans Mono, Normal';font-variant-ligatures:normal;font-variant-caps:normal;font-variant-numeric:normal;font-feature-settings:normal;text-align:center;letter-spacing:0;word-spacing:0;writing-mode:lr-tb;text-anchor:middle;fill:#000;fill-opacity:1;stroke:#000;stroke-width:.00026458;stroke-miterlimit:4;stroke-dasharray:none" id="text917" aria-label="LVL" transform="translate(0,-0.52916669)"><path id="path945" d="m 2.2187031,235.66106 h 0.2098064 v 1.36736 h 0.7451742 v 0.1757 H 2.2187031 Z"/><path id="path947" d="m 3.9064555,237.02842 0.3627685,-1.36736 h 0.2160075 l -0.451652,1.54306 H 3.780365 l -0.4516521,-1.54306 h 0.2160075 z"/><path id="path949" d="m 4.7653178,235.66106 h 0.2098063 v 1.36736 h 0.7451742 v 0.1757 H 4.7653178 Z"/></g></g></svg>