<svg xmlns="http://www.w3.org/2000/svg" xmlns:svg="http://www.w3.org/2000/svg" xmlns:xlink="http://www.w3.org/1999/xlink" id="svg12553" width="29.977" height="59.211" x="0" y="0" enable-background="new 0 0 29.977 59.211" version="1.1" viewBox="0 0 29.977 59.211" xml:space="preserve"><rect width="27.975" height="59.257" x="1.001" fill="#E6E6E6"/><path stroke="#000" d="M2.716,18.188c0.562-0.096,1.354-0.168,2.472-0.168c1.127,0,1.936,0.216,2.477,0.647	c0.516,0.408,0.857,1.08,0.857,1.871s-0.265,1.463-0.744,1.918c-0.624,0.589-1.547,0.853-2.627,0.853	c-0.235,0-0.456-0.012-0.624-0.036v2.892H2.716V18.188z M4.527,21.857c0.157,0.036,0.354,0.048,0.613,0.048	c0.971,0,1.57-0.492,1.57-1.318c0-0.743-0.521-1.187-1.426-1.187c-0.373,0-0.625,0.036-0.761,0.072L4.527,21.857L4.527,21.857z"/><path stroke="#000" d="M9.688,18.078h1.835v6.548h3.214v1.535H9.688V18.078z"/><path stroke="#000" d="M17.775,24.089L17.2,26.164h-1.896l2.47-8.083h2.4l2.507,8.083h-1.968l-0.624-2.075H17.775z M19.828,22.72	l-0.505-1.715c-0.146-0.48-0.288-1.08-0.407-1.56h-0.024c-0.12,0.48-0.24,1.091-0.372,1.559l-0.479,1.715L19.828,22.72L19.828,22.72	z"/><path stroke="#000" d="M24.496,26.161V22.85l-2.56-4.773h2.088l0.826,1.943c0.252,0.588,0.42,1.021,0.625,1.547H25.5	c0.184-0.504,0.373-0.972,0.606-1.547l0.812-1.943h2.055l-2.662,4.713v3.37L24.496,26.161L24.496,26.161z"/></svg>