<svg xmlns="http://www.w3.org/2000/svg" xmlns:svg="http://www.w3.org/2000/svg" xmlns:xlink="http://www.w3.org/1999/xlink" id="svg4541" width="90.135" height="380" x="0" y="0" enable-background="new 0 0 90.135 380" version="1.1" viewBox="0 0 90.135 380" xml:space="preserve"><path id="path33453" fill="#E6E6E6" d="M0,0.032h90.135v379.913H0V0.032z"/><line x1="47.069" x2="47.069" y1="63.833" y2="234.988" fill="none" stroke="#595A5A" stroke-miterlimit="10" stroke-width="1.5"/><g><path stroke="#231F20" stroke-miterlimit="10" stroke-width=".25" d="M44.021,367.67c-0.378,0.168-1.092,0.309-1.905,0.309 c-2.213,0-3.628-1.346-3.628-3.502c0-2.004,1.373-3.643,3.922-3.643c0.561,0,1.177,0.1,1.625,0.268l-0.336,1.582 c-0.252-0.104-0.63-0.211-1.19-0.211c-1.121,0-1.849,0.799-1.835,1.92c0,1.26,0.84,1.92,1.877,1.92 c0.504,0,0.896-0.086,1.219-0.211L44.021,367.67z"/><path stroke="#231F20" stroke-miterlimit="10" stroke-width=".25" d="M45.937,362.066h1.274l0.042-0.448 c0.111-0.938,0.63-3.039,3.039-3.039c0.477,0,0.911,0.098,1.163,0.224l-0.336,1.514c-0.169-0.062-0.394-0.127-0.659-0.127 c-0.7,0-1.036,0.506-1.12,1.271l-0.084,0.606h1.429v1.485H49.08l-0.312,2.493c-0.211,1.709-0.785,3.066-2.771,3.066 c-0.575-0.014-1.065-0.125-1.275-0.237l0.294-1.483c0.21,0.084,0.434,0.111,0.659,0.111c0.7-0.016,0.938-0.393,1.139-1.988 l0.229-1.962H45.94v-1.485H45.937L45.937,362.066z"/></g><line x1="31.043" x2="47.086" y1="146.756" y2="128.467" fill="none" stroke="#595A5A" stroke-miterlimit="10" stroke-width="1.586"/><line x1="82.76" x2="47.052" y1="163.5" y2="206.164" fill="none" stroke="#595A5A" stroke-miterlimit="10" stroke-width="1.586"/><path fill="none" stroke="#595A5A" stroke-miterlimit="10" stroke-width="1.586" d="M66.551,163.489"/><path fill="none" stroke="#595A5A" stroke-miterlimit="10" stroke-width="1.586" d="M82.76,145.487"/><g><path stroke="#231F20" stroke-miterlimit="10" d="M61.567,310.48l0.621,0.937c0.162,0.243,0.297,0.468,0.438,0.711h0.023 c0.146-0.261,0.287-0.485,0.436-0.72l0.611-0.928h0.854l-1.485,2.104l1.531,2.251h-0.898l-0.643-0.979 c-0.171-0.252-0.312-0.494-0.469-0.756h-0.02c-0.146,0.262-0.297,0.496-0.459,0.756l-0.631,0.979H60.61l1.549-2.226l-1.477-2.135 h0.885V310.48z"/><path stroke="#231F20" stroke-miterlimit="10" d="M68.741,309.725h-0.02l-1.021,0.549l-0.152-0.604l1.278-0.684h0.675v5.852H68.74 L68.741,309.725L68.741,309.725z"/><path stroke="#231F20" stroke-miterlimit="10" d="M71.638,314.838v-0.486l0.621-0.603c1.494-1.423,2.17-2.179,2.18-3.062 c0-0.598-0.289-1.146-1.162-1.146c-0.527,0-0.973,0.271-1.239,0.495l-0.252-0.56c0.401-0.343,0.979-0.597,1.653-0.597 c1.264,0,1.791,0.864,1.791,1.702c0,1.08-0.783,1.953-2.017,3.143l-0.468,0.436v0.02h2.629v0.655L71.638,314.838L71.638,314.838z"/></g><rect width="26.152" height="9.662" x="9.919" y="306.753" fill="#E6E6E6"/><g><path stroke="#231F20" stroke-miterlimit="10" d="M12.086,313.884c0.352,0.216,0.864,0.396,1.404,0.396 c0.802,0,1.27-0.422,1.27-1.031c0-0.564-0.324-0.895-1.144-1.206c-0.99-0.354-1.603-0.864-1.603-1.724 c0-0.941,0.783-1.646,1.963-1.646c0.621,0,1.071,0.146,1.342,0.298l-0.217,0.641c-0.198-0.106-0.603-0.287-1.152-0.287 c-0.828,0-1.143,0.494-1.143,0.908c0,0.565,0.368,0.849,1.206,1.17c1.026,0.396,1.548,0.894,1.548,1.783 c0,0.938-0.692,1.746-2.124,1.746c-0.585,0-1.225-0.173-1.549-0.389L12.086,313.884z"/><path stroke="#231F20" stroke-miterlimit="10" d="M17.784,309.438h-1.846v-0.666h4.492v0.666h-1.854v5.4h-0.792V309.438z"/><path stroke="#231F20" stroke-miterlimit="10" d="M21.411,312.93l-0.63,1.908H19.97l2.062-6.066h0.945l2.07,6.066H24.21 l-0.648-1.908H21.411z M23.401,312.316l-0.595-1.746c-0.135-0.396-0.225-0.756-0.314-1.107h-0.019 c-0.09,0.359-0.188,0.729-0.306,1.1l-0.595,1.756h1.829V312.316z"/><path stroke="#231F20" stroke-miterlimit="10" d="M25.938,308.852c0.396-0.08,0.963-0.127,1.503-0.127 c0.837,0,1.378,0.153,1.756,0.495c0.306,0.271,0.477,0.685,0.477,1.152c0,0.802-0.504,1.333-1.143,1.549v0.027 c0.468,0.161,0.747,0.594,0.891,1.225c0.198,0.847,0.343,1.431,0.469,1.665H29.08c-0.099-0.171-0.234-0.693-0.405-1.449 c-0.18-0.838-0.504-1.152-1.215-1.18h-0.738v2.629h-0.783L25.938,308.852L25.938,308.852z M26.721,311.615h0.801 c0.837,0,1.368-0.459,1.368-1.152c0-0.783-0.566-1.126-1.396-1.135c-0.378,0-0.647,0.035-0.773,0.072V311.615z"/><path stroke="#231F20" stroke-miterlimit="10" d="M32.013,309.438h-1.846v-0.666h4.492v0.666h-1.854v5.4h-0.792V309.438z"/></g><rect width="26.152" height="9.663" x="33.933" y="149.696" fill="#E6E6E6"/><g><path stroke="#000" stroke-miterlimit="10" d="M35.975,20.514H33v1.919h3.322v1.499h-5.157v-8.083h4.989v1.499H33v1.679h2.975 V20.514z"/><path stroke="#000" stroke-miterlimit="10" d="M39.456,21.857l-0.576,2.075h-1.895l2.471-8.083h2.398l2.507,8.083h-1.967 l-0.624-2.075H39.456z M41.507,20.49l-0.504-1.715c-0.144-0.479-0.288-1.079-0.407-1.559h-0.024c-0.12,0.48-0.24,1.091-0.372,1.559 l-0.48,1.715H41.507z"/><path stroke="#000" stroke-miterlimit="10" d="M51.081,23.704c-0.336,0.168-1.091,0.348-2.074,0.348 c-2.795,0-4.233-1.739-4.233-4.042c0-2.758,1.966-4.293,4.413-4.293c0.947,0,1.668,0.192,1.992,0.36l-0.373,1.451 c-0.371-0.156-0.888-0.3-1.535-0.3c-1.451,0-2.578,0.875-2.578,2.674c0,1.619,0.959,2.639,2.592,2.639 c0.552,0,1.162-0.12,1.521-0.264L51.081,23.704z"/><path stroke="#000" stroke-miterlimit="10" d="M54.12,15.848v3.106h3.01v-3.106h1.823v8.083H57.13v-3.382h-3.01v3.382h-1.835 v-8.083H54.12z"/></g><line x1="6.043" x2="6.043" y1="55.828" y2="317.029" fill="none" stroke="#595A5A" stroke-miterlimit="10" stroke-width="1.5"/><line x1="6.026" x2="15.737" y1="316.576" y2="327.406" fill="none" stroke="#595A5A" stroke-miterlimit="10" stroke-width="1.586"/><line x1="82.76" x2="82.76" y1="317.029" y2="55.828" fill="none" stroke="#595A5A" stroke-miterlimit="10" stroke-width="1.5"/><line x1="73.065" x2="82.776" y1="327.406" y2="316.576" fill="none" stroke="#595A5A" stroke-miterlimit="10" stroke-width="1.586"/><circle cx="23.465" cy="333.783" r="9.395" fill="#FFF" stroke="#000" stroke-miterlimit="10" stroke-width="10"/><circle cx="66.492" cy="333.782" r="9.396" fill="#FFF" stroke="#000" stroke-miterlimit="10" stroke-width="10"/><line x1="15.737" x2="6.026" y1="45.409" y2="56.239" fill="none" stroke="#595A5A" stroke-miterlimit="10" stroke-width="1.586"/><line x1="82.776" x2="73.065" y1="56.239" y2="45.409" fill="none" stroke="#595A5A" stroke-miterlimit="10" stroke-width="1.586"/><line x1="6.026" x2="23.465" y1="186.5" y2="205.71" fill="none" stroke="#595A5A" stroke-miterlimit="10" stroke-width="1.586"/><path fill="none" stroke="#595A5A" stroke-miterlimit="10" stroke-width="1.5" d="M66.551,183.939"/><path fill="none" stroke="#595A5A" stroke-miterlimit="10" stroke-width="1.5" d="M66.551,163.489"/><line x1="23.465" x2="23.523" y1="205.698" y2="263.986" fill="none" stroke="#595A5A" stroke-miterlimit="10" stroke-width="1.5"/><g><path stroke="#231F20" stroke-miterlimit="10" stroke-width="1.5" d="M40.486,151.524c0.477-0.072,1.044-0.126,1.665-0.126 c1.125,0,1.927,0.261,2.458,0.756c0.54,0.495,0.855,1.197,0.855,2.179c0,0.99-0.307,1.8-0.874,2.358 c-0.566,0.567-1.503,0.874-2.683,0.874c-0.558,0-1.026-0.027-1.422-0.072L40.486,151.524L40.486,151.524z M41.269,156.89 c0.197,0.036,0.485,0.045,0.792,0.045c1.675,0,2.584-0.937,2.584-2.575c0.009-1.432-0.802-2.341-2.458-2.341 c-0.405,0-0.711,0.036-0.918,0.081V156.89z"/><path stroke="#231F20" stroke-miterlimit="10" stroke-width="1.5" d="M47.263,151.443v6.068h-0.783v-6.068H47.263z"/><path stroke="#231F20" stroke-miterlimit="10" stroke-width="1.5" d="M49.962,157.511l-1.98-6.068h0.848l0.943,2.989 c0.264,0.819,0.486,1.558,0.648,2.269h0.02c0.17-0.703,0.422-1.468,0.691-2.26l1.026-2.998h0.838l-2.17,6.068H49.962z"/><path stroke="#231F20" stroke-miterlimit="10" stroke-width="1.5" d="M52.94,157.043c0-0.333,0.226-0.567,0.539-0.567 c0.314,0,0.53,0.234,0.53,0.567c0,0.324-0.206,0.567-0.538,0.567C53.157,157.61,52.94,157.367,52.94,157.043z"/></g><line x1="23.693" x2="41.132" y1="263.986" y2="283.195" fill="none" stroke="#595A5A" stroke-miterlimit="10" stroke-width="1.586"/><circle cx="47.481" cy="287.757" r="9.396" fill="#FFF" stroke="#000" stroke-miterlimit="10" stroke-width="10"/><circle cx="47.481" cy="247.733" r="9.396" fill="#FFF" stroke="#000" stroke-miterlimit="10" stroke-width="10"/></svg>