<svg xmlns="http://www.w3.org/2000/svg" xmlns:svg="http://www.w3.org/2000/svg" xmlns:xlink="http://www.w3.org/1999/xlink" id="svg48736" width="95.9" height="485.667" version="1.1" viewBox="0 0 25.374 128.499"><defs id="defs48730"><linearGradient id="linearGradient8686"><stop id="stop8682" offset="0" style="stop-color:#a5a5a5;stop-opacity:1"/><stop id="stop8684" offset="1" style="stop-color:#000;stop-opacity:1"/></linearGradient><linearGradient id="linearGradient8315"><stop style="stop-color:#d9d9d9;stop-opacity:0" id="stop8311" offset="0"/><stop style="stop-color:#dbdee3;stop-opacity:1" id="stop8313" offset="1"/></linearGradient><linearGradient id="linearGradient8309"><stop id="stop8305" offset="0" style="stop-color:#a3a3a3;stop-opacity:1"/><stop id="stop8307" offset="1" style="stop-color:#dcdcdc;stop-opacity:1"/></linearGradient><linearGradient id="linearGradient1499" x1="489.663" x2="445.564" y1="41.077" y2="-82.402" gradientTransform="matrix(0.49577225,0,0,1,120.24616,6.8478645e-4)" gradientUnits="userSpaceOnUse" xlink:href="#linearGradient8309"/><linearGradient id="linearGradient1503" x1="468.94" x2="468.95" y1="-4.235" y2="-87.593" gradientTransform="matrix(1,0,0,0.00643508,-103.16672,-84.018838)" gradientUnits="userSpaceOnUse" xlink:href="#linearGradient8315"/><linearGradient id="linearGradient3054" x1="468.95" x2="468.95" y1="-4.235" y2="-87.593" gradientTransform="matrix(1,0,0,-0.00643508,-103.16672,43.111856)" gradientUnits="userSpaceOnUse" xlink:href="#linearGradient8686"/><linearGradient id="linearGradient1458" x1="793.111" x2="793.111" y1="-151.884" y2="-123.204" gradientTransform="matrix(0.06635353,0,0,-0.06635353,312.45793,30.458784)" gradientUnits="userSpaceOnUse" xlink:href="#linearGradient13900"/><linearGradient id="linearGradient13900"><stop id="stop13896" offset="0" style="stop-color:#ccc;stop-opacity:1"/><stop id="stop13898" offset="1" style="stop-color:#ececec;stop-opacity:1"/></linearGradient><linearGradient id="linearGradient1460" x1="793.111" x2="793.111" y1="-151.884" y2="-123.204" gradientTransform="matrix(0.06133664,0,0,0.06133664,316.44007,46.260274)" gradientUnits="userSpaceOnUse" xlink:href="#linearGradient13900"/><linearGradient id="linearGradient1462" x1="793.111" x2="793.111" y1="-151.884" y2="-123.204" gradientTransform="matrix(0.06133664,0,0,-0.06133664,316.44007,31.079696)" gradientUnits="userSpaceOnUse" xlink:href="#linearGradient13900"/><linearGradient id="linearGradient1468" x1="546.964" x2="546.964" y1="-114.068" y2="-119.355" gradientUnits="userSpaceOnUse" xlink:href="#linearGradient14001"/><linearGradient id="linearGradient14001"><stop id="stop13997" offset="0" style="stop-color:#8d8d8d;stop-opacity:1"/><stop id="stop13999" offset="1" style="stop-color:#333;stop-opacity:1"/></linearGradient><linearGradient id="linearGradient1470" x1="93.682" x2="93.682" y1="463.187" y2="466.451" gradientUnits="userSpaceOnUse" xlink:href="#linearGradient13993"/><linearGradient id="linearGradient13993"><stop id="stop13989" offset="0" style="stop-color:#666;stop-opacity:1"/><stop id="stop13991" offset="1" style="stop-color:#b3b3b3;stop-opacity:1"/></linearGradient><linearGradient id="linearGradient1870" x1="546.964" x2="546.964" y1="-114.068" y2="-119.355" gradientUnits="userSpaceOnUse" xlink:href="#linearGradient14001"/><linearGradient id="linearGradient1872" x1="546.964" x2="546.964" y1="-114.068" y2="-119.355" gradientUnits="userSpaceOnUse" xlink:href="#linearGradient14001"/></defs><metadata id="metadata48733"/><g id="layer1" transform="translate(-339.725,84.74965)" style="display:inline"><path style="fill:#ffd714;fill-opacity:1;stroke:none;stroke-width:.35277775" id="path47866"/><path style="fill:#ffd714;fill-opacity:1;stroke:none;stroke-width:.35277775" id="path47814"/><path style="fill:#ffd714;fill-opacity:1;stroke:none;stroke-width:.35277775" id="path47770"/><path style="fill:#ffd714;fill-opacity:1;stroke:none;stroke-width:.35277775" id="path47726"/><path style="fill:#ffd714;fill-opacity:1;stroke:none;stroke-width:.35277775" id="path47690"/><path style="fill:#ffd714;fill-opacity:1;stroke:none;stroke-width:.35277775" id="path47662"/><path style="fill:#ffd714;fill-opacity:1;stroke:none;stroke-width:.35277775" id="path47630"/><path style="fill:url(#linearGradient1499);fill-opacity:1;fill-rule:nonzero;stroke:none;stroke-width:.24839468" id="path1168" d="M 339.91259,-84.563615 V 43.562412 h 25 V -84.563615 Z"/><path id="path40444" d="M 365.09863,-84.74965 H 339.725 v 128.4993 h 25.37363 z M 364.91259,43.56224 H 339.91241 V -84.563613 h 25.00018 z" style="fill:#515558;fill-opacity:1;fill-rule:nonzero;stroke:none;stroke-width:.35277775"/><path style="fill:url(#linearGradient1503);fill-opacity:1;fill-rule:nonzero;stroke:none;stroke-width:.02829946" id="path1501" d="m 339.91259,-84.563615 v 0.82579 h 25 v -0.82579 z"/><path style="fill:url(#linearGradient3054);fill-opacity:1;fill-rule:nonzero;stroke:none;stroke-width:.02829946" id="path3052" d="m 339.91259,42.830675 v 0.731737 h 25 v -0.731737 z"/><g style="display:inline" id="g1456" transform="matrix(1.5447831,0,0,1.5447831,-211.62794,-21.050937)"><path style="opacity:1;fill:url(#linearGradient1458);fill-opacity:1;stroke:none;stroke-width:.0303705;stroke-linecap:round;stroke-linejoin:round;stroke-miterlimit:4;stroke-dasharray:none;stroke-opacity:1" id="path1436" d="m 363.32707,40.332228 c -0.14857,0 -0.26833,-0.119763 -0.26833,-0.268336 v -1.394224 -1.393667 c 0,-0.148575 0.11976,-0.268335 0.26833,-0.268335 h 3.59793 c 0.14858,0 0.26833,0.11976 0.26833,0.268335 v 1.393667 1.394224 c 0,0.148573 -0.11975,0.268336 -0.26833,0.268336 z"/><path style="opacity:1;fill:url(#linearGradient1460);fill-opacity:1;stroke:none;stroke-width:.02807423;stroke-linecap:round;stroke-linejoin:round;stroke-miterlimit:4;stroke-dasharray:none;stroke-opacity:1" id="path1438" d="m 363.46288,37.133447 c -0.13734,0 -0.24798,0.110644 -0.24798,0.247982 v 1.288558 h 3.82191 v -1.288558 c 0,-0.137338 -0.11063,-0.247982 -0.24798,-0.247982 z"/><g id="g1444" transform="matrix(0.23182354,0,0,0.23182354,237.92646,65.907238)"><path style="font-style:normal;font-variant:normal;font-weight:600;font-stretch:normal;font-size:10.58333302px;line-height:1.25;font-family:FreeSans;-inkscape-font-specification:'FreeSans, Semi-Bold';font-variant-ligatures:normal;font-variant-caps:normal;font-variant-numeric:normal;font-feature-settings:normal;text-align:start;letter-spacing:0;word-spacing:0;writing-mode:lr-tb;text-anchor:start;fill:#000;fill-opacity:1;stroke:none;stroke-width:.26458332" id="path1440" d="m 547.88393,-119.04015 h -1.48166 q -0.0847,-1.2065 -1.61925,-1.2065 -0.61384,0 -0.97367,0.26458 -0.35983,0.254 -0.35983,0.68792 0,0.42333 0.30691,0.635 0.30692,0.20108 1.15359,0.37042 l 1.2065,0.23283 q 1.06891,0.21167 1.55575,0.71967 0.48683,0.49741 0.48683,1.40758 0,1.17475 -0.83608,1.8415 -0.83609,0.65617 -2.32834,0.65617 -1.48166,0 -2.30716,-0.65617 -0.81492,-0.65617 -0.889,-1.89442 h 1.54516 q 0.0423,0.62442 0.48684,0.9525 0.4445,0.32809 1.24883,0.32809 0.71967,0 1.13242,-0.27517 0.42333,-0.27517 0.42333,-0.762 0,-0.46567 -0.32808,-0.71967 -0.32809,-0.254 -1.12184,-0.40216 l -1.0795,-0.21167 q -1.17475,-0.22225 -1.67216,-0.6985 -0.49742,-0.47625 -0.49742,-1.37583 0,-1.13242 0.762,-1.74625 0.77258,-0.62442 2.159,-0.62442 0.40217,0 0.77258,0.0529 0.381,0.0529 0.80434,0.22225 0.42333,0.15875 0.73025,0.42333 0.30691,0.254 0.508,0.71967 0.21166,0.45508 0.21166,1.05833 z"/><path style="font-style:normal;font-variant:normal;font-weight:600;font-stretch:normal;font-size:10.58333302px;line-height:1.25;font-family:FreeSans;-inkscape-font-specification:'FreeSans, Semi-Bold';font-variant-ligatures:normal;font-variant-caps:normal;font-variant-numeric:normal;font-feature-settings:normal;text-align:start;letter-spacing:0;word-spacing:0;writing-mode:lr-tb;text-anchor:start;fill:#000;fill-opacity:1;stroke:none;stroke-width:.26458332" id="path1442" d="m 550.36525,-116.25673 v 2.58233 h -1.5875 v -7.71525 h 1.5875 v 3.38667 l 3.01625,-3.38667 h 1.87325 l -3.07975,3.32317 3.40783,4.39208 h -1.89441 l -2.52942,-3.40783 z"/></g><path id="path1446" d="m 363.46288,40.20652 c -0.13734,0 -0.24798,-0.110638 -0.24798,-0.247981 v -1.288552 h 3.82191 v 1.288552 c 0,0.137343 -0.11063,0.247981 -0.24798,0.247981 z" style="opacity:1;fill:url(#linearGradient1462);fill-opacity:1;stroke:none;stroke-width:.02807423;stroke-linecap:round;stroke-linejoin:round;stroke-miterlimit:4;stroke-dasharray:none;stroke-opacity:1"/><g id="g1452" transform="matrix(0.23182354,0,0,0.23182354,237.92646,65.907238)" style="fill:url(#linearGradient1468);fill-opacity:1"><path id="path1448" d="m 547.88393,-119.04015 h -1.48166 q -0.0847,-1.2065 -1.61925,-1.2065 -0.61384,0 -0.97367,0.26458 -0.35983,0.254 -0.35983,0.68792 0,0.42333 0.30691,0.635 0.30692,0.20108 1.15359,0.37042 l 1.2065,0.23283 q 1.06891,0.21167 1.55575,0.71967 0.48683,0.49741 0.48683,1.40758 0,1.17475 -0.83608,1.8415 -0.83609,0.65617 -2.32834,0.65617 -1.48166,0 -2.30716,-0.65617 -0.81492,-0.65617 -0.889,-1.89442 h 1.54516 q 0.0423,0.62442 0.48684,0.9525 0.4445,0.32809 1.24883,0.32809 0.71967,0 1.13242,-0.27517 0.42333,-0.27517 0.42333,-0.762 0,-0.46567 -0.32808,-0.71967 -0.32809,-0.254 -1.12184,-0.40216 l -1.0795,-0.21167 q -1.17475,-0.22225 -1.67216,-0.6985 -0.49742,-0.47625 -0.49742,-1.37583 0,-1.13242 0.762,-1.74625 0.77258,-0.62442 2.159,-0.62442 0.40217,0 0.77258,0.0529 0.381,0.0529 0.80434,0.22225 0.42333,0.15875 0.73025,0.42333 0.30691,0.254 0.508,0.71967 0.21166,0.45508 0.21166,1.05833 z" style="font-style:normal;font-variant:normal;font-weight:600;font-stretch:normal;font-size:10.58333302px;line-height:1.25;font-family:FreeSans;-inkscape-font-specification:'FreeSans, Semi-Bold';font-variant-ligatures:normal;font-variant-caps:normal;font-variant-numeric:normal;font-feature-settings:normal;text-align:start;letter-spacing:0;word-spacing:0;writing-mode:lr-tb;text-anchor:start;fill:url(#linearGradient1870);fill-opacity:1;stroke:none;stroke-width:.26458332"/><path id="path1450" d="m 550.36525,-116.25673 v 2.58233 h -1.5875 v -7.71525 h 1.5875 v 3.38667 l 3.01625,-3.38667 h 1.87325 l -3.07975,3.32317 3.40783,4.39208 h -1.89441 l -2.52942,-3.40783 z" style="font-style:normal;font-variant:normal;font-weight:600;font-stretch:normal;font-size:10.58333302px;line-height:1.25;font-family:FreeSans;-inkscape-font-specification:'FreeSans, Semi-Bold';font-variant-ligatures:normal;font-variant-caps:normal;font-variant-numeric:normal;font-feature-settings:normal;text-align:start;letter-spacing:0;word-spacing:0;writing-mode:lr-tb;text-anchor:start;fill:url(#linearGradient1872);fill-opacity:1;stroke:none;stroke-width:.26458332"/></g><path style="font-style:normal;font-variant:normal;font-weight:600;font-stretch:normal;font-size:10.58333302px;line-height:1.25;font-family:FreeSans;-inkscape-font-specification:'FreeSans, Semi-Bold';font-variant-ligatures:normal;font-variant-caps:normal;font-variant-numeric:normal;font-feature-settings:normal;text-align:start;letter-spacing:0;word-spacing:0;writing-mode:lr-tb;text-anchor:start;fill:url(#linearGradient1470);fill-opacity:1;stroke:none;stroke-width:.23182352" id="path1454" d="m 92.644531,462.94141 c -0.809827,0 -1.441277,0.18213 -1.892578,0.54687 -0.445077,0.35855 -0.666015,0.86783 -0.666015,1.5293 0,0.52546 0.145001,0.92884 0.435546,1.20703 0.08644,0.0828 0.196935,0.15702 0.31836,0.22656 h 4.089844 c -0.283116,-0.2161 -0.67233,-0.37766 -1.181641,-0.47851 l -1.056641,-0.20313 c -0.49469,-0.0989 -0.83257,-0.20675 -1.011718,-0.32422 -0.179402,-0.12363 -0.267579,-0.30936 -0.267579,-0.55664 0,-0.25347 0.104313,-0.45515 0.314453,-0.60351 0.210193,-0.15456 0.494965,-0.23047 0.853516,-0.23047 0.896454,0 1.368583,0.35189 1.417969,1.05664 h 1.298828 c 0,-0.35237 -0.06183,-0.66191 -0.185547,-0.92774 -0.117568,-0.27201 -0.266163,-0.4825 -0.445312,-0.63086 -0.179377,-0.15455 -0.393444,-0.27836 -0.640625,-0.37109 -0.247358,-0.0989 -0.48259,-0.16247 -0.705079,-0.19336 -0.216439,-0.0309 -0.440946,-0.0469 -0.675781,-0.0469 z m 3.435547,0.11132 v 3.39844 h 3.353516 l -0.376953,-0.48633 2.697269,-2.91211 h -1.64063 l -2.642577,2.9668 v -2.9668 z" transform="matrix(0.26458333,0,0,0.26458333,339.725,-84.74965)"/></g><g style="font-style:normal;font-variant:normal;font-weight:600;font-stretch:normal;font-size:6.77766514px;line-height:1.25;font-family:FreeSans;-inkscape-font-specification:'FreeSans, Semi-Bold';font-variant-ligatures:normal;font-variant-caps:normal;font-variant-numeric:normal;font-feature-settings:normal;text-align:center;letter-spacing:0;word-spacing:0;writing-mode:lr-tb;text-anchor:middle;display:inline;fill:#000;fill-opacity:1;stroke:none;stroke-width:.16944163" id="text131" aria-label="Volts"><path style="font-style:normal;font-variant:normal;font-weight:600;font-stretch:normal;font-size:6.77766514px;font-family:FreeSans;-inkscape-font-specification:'FreeSans, Semi-Bold';font-variant-ligatures:normal;font-variant-caps:normal;font-variant-numeric:normal;font-feature-settings:normal;text-align:center;writing-mode:lr-tb;text-anchor:middle;fill:#000;fill-opacity:1;stroke-width:.16944163" id="path3433" d="m 352.30804,-80.773559 -1.68117,4.818496 h -1.03254 l -1.67125,-4.818496 h 1.09872 l 1.0888,3.620491 1.0921,-3.620491 z"/><path style="font-style:normal;font-variant:normal;font-weight:600;font-stretch:normal;font-size:6.77766514px;font-family:FreeSans;-inkscape-font-specification:'FreeSans, Semi-Bold';font-variant-ligatures:normal;font-variant-caps:normal;font-variant-numeric:normal;font-feature-settings:normal;text-align:center;writing-mode:lr-tb;text-anchor:middle;fill:#000;fill-opacity:1;stroke-width:.16944163" id="path3435" d="m 352.37754,-77.709048 v -0.0695 q 0,-0.78102 0.44346,-1.300597 0.44346,-0.522886 1.25096,-0.522886 0.81742,0 1.25757,0.522886 0.44015,0.519577 0.44015,1.300597 v 0.0695 q 0,0.78102 -0.44015,1.300596 -0.44015,0.519577 -1.25095,0.519577 -0.81412,0 -1.25758,-0.519577 -0.44346,-0.519576 -0.44346,-1.300596 z m 0.95973,-0.0695 v 0.0695 q 0,0.436841 0.16547,0.744616 0.16878,0.304465 0.57584,0.304465 0.40043,0 0.56591,-0.304465 0.16877,-0.307775 0.16877,-0.744616 v -0.0695 q 0,-0.426913 -0.16877,-0.737998 -0.16548,-0.314393 -0.57253,-0.314393 -0.40375,0 -0.56922,0.314393 -0.16547,0.311085 -0.16547,0.737998 z"/><path style="font-style:normal;font-variant:normal;font-weight:600;font-stretch:normal;font-size:6.77766514px;font-family:FreeSans;-inkscape-font-specification:'FreeSans, Semi-Bold';font-variant-ligatures:normal;font-variant-caps:normal;font-variant-numeric:normal;font-feature-settings:normal;text-align:center;writing-mode:lr-tb;text-anchor:middle;fill:#000;fill-opacity:1;stroke-width:.16944163" id="path3437" d="m 357.37806,-81.038312 v 5.083249 h -0.95973 v -5.083249 z"/><path style="font-style:normal;font-variant:normal;font-weight:600;font-stretch:normal;font-size:6.77766514px;font-family:FreeSans;-inkscape-font-specification:'FreeSans, Semi-Bold';font-variant-ligatures:normal;font-variant-caps:normal;font-variant-numeric:normal;font-feature-settings:normal;text-align:center;writing-mode:lr-tb;text-anchor:middle;fill:#000;fill-opacity:1;stroke-width:.16944163" id="path3439" d="m 359.95939,-75.978229 q -0.11914,0.03971 -0.26144,0.06288 -0.139,0.02648 -0.31439,0.02648 -0.46994,0 -0.74793,-0.244896 -0.27799,-0.244896 -0.27799,-0.814114 v -1.889671 h -0.5262 v -0.698285 h 0.5262 v -0.883612 h 0.95642 v 0.883612 h 0.60893 v 0.698285 h -0.60893 v 1.790389 q 0,0.22504 0.0927,0.297847 0.0927,0.07281 0.27468,0.07281 0.0861,0 0.15554,-0.0066 0.0728,-0.0099 0.12245,-0.01986 z"/><path style="font-style:normal;font-variant:normal;font-weight:600;font-stretch:normal;font-size:6.77766514px;font-family:FreeSans;-inkscape-font-specification:'FreeSans, Semi-Bold';font-variant-ligatures:normal;font-variant-caps:normal;font-variant-numeric:normal;font-feature-settings:normal;text-align:center;writing-mode:lr-tb;text-anchor:middle;fill:#000;fill-opacity:1;stroke-width:.16944163" id="path3441" d="m 362.39512,-76.947885 q 0,-0.152233 -0.14231,-0.254824 -0.13899,-0.105901 -0.58907,-0.201874 -0.54936,-0.115829 -0.9134,-0.367344 -0.36072,-0.254825 -0.36072,-0.718141 0,-0.44677 0.37727,-0.777711 0.38058,-0.33425 1.04908,-0.33425 0.69828,0 1.09872,0.327631 0.40044,0.327631 0.40044,0.827352 h -0.95642 q 0,-0.205183 -0.13237,-0.340869 -0.13238,-0.135686 -0.41368,-0.135686 -0.23828,0 -0.37396,0.11252 -0.13238,0.10921 -0.13238,0.274681 0,0.155542 0.14561,0.254824 0.14893,0.09928 0.52289,0.172089 0.58246,0.11583 0.96635,0.354107 0.38389,0.238277 0.38389,0.771092 0,0.473245 -0.40706,0.784329 -0.40706,0.311084 -1.09872,0.311084 -0.75124,0 -1.14837,-0.383891 -0.39712,-0.387201 -0.39712,-0.824042 h 0.91008 q 0.0132,0.281299 0.20519,0.403747 0.19525,0.122448 0.45008,0.122448 0.55598,0 0.55598,-0.377272 z"/></g><g style="font-style:normal;font-variant:normal;font-weight:600;font-stretch:normal;font-size:2.8525424px;line-height:1.25;font-family:FreeSans;-inkscape-font-specification:'FreeSans, Semi-Bold';font-variant-ligatures:normal;font-variant-caps:normal;font-variant-numeric:normal;font-feature-settings:normal;text-align:start;letter-spacing:0;word-spacing:0;writing-mode:lr-tb;text-anchor:start;display:inline;fill:#000;fill-opacity:1;stroke:none;stroke-width:.07131357" id="text165" aria-label="XPND"><path style="font-style:normal;font-variant:normal;font-weight:600;font-stretch:normal;font-size:2.8525424px;font-family:FreeSans;-inkscape-font-specification:'FreeSans, Semi-Bold';font-variant-ligatures:normal;font-variant-caps:normal;font-variant-numeric:normal;font-feature-settings:normal;text-align:center;writing-mode:lr-tb;text-anchor:middle;fill:#000;fill-opacity:1;stroke-width:.07131357" id="path2628" d="m 349.2195,-71.995051 0.38024,0.697814 0.37885,-0.697814 h 0.48054 l -0.58918,1.005633 0.6045,1.022346 h -0.48611 l -0.3886,-0.710349 -0.38999,0.710349 h -0.48611 l 0.60589,-1.022346 -0.59057,-1.005633 z"/><path style="font-style:normal;font-variant:normal;font-weight:600;font-stretch:normal;font-size:2.8525424px;font-family:FreeSans;-inkscape-font-specification:'FreeSans, Semi-Bold';font-variant-ligatures:normal;font-variant-caps:normal;font-variant-numeric:normal;font-feature-settings:normal;text-align:center;writing-mode:lr-tb;text-anchor:middle;fill:#000;fill-opacity:1;stroke-width:.07131357" id="path2630" d="m 351.48147,-70.682993 h -0.37328 v 0.715921 h -0.41925 v -2.027979 h 0.79253 q 0.35936,0 0.55993,0.189427 0.20196,0.189426 0.20196,0.480531 0,0.293889 -0.20196,0.467995 -0.20057,0.174105 -0.55993,0.174105 z m -0.37328,-0.973597 v 0.636529 h 0.37328 q 0.17968,0 0.25907,-0.08496 0.0794,-0.08496 0.0794,-0.217284 0,-0.13232 -0.0794,-0.232605 -0.0794,-0.101677 -0.25907,-0.101677 z"/><path style="font-style:normal;font-variant:normal;font-weight:600;font-stretch:normal;font-size:2.8525424px;font-family:FreeSans;-inkscape-font-specification:'FreeSans, Semi-Bold';font-variant-ligatures:normal;font-variant-caps:normal;font-variant-numeric:normal;font-feature-settings:normal;text-align:center;writing-mode:lr-tb;text-anchor:middle;fill:#000;fill-opacity:1;stroke-width:.07131357" id="path2632" d="m 354.18359,-71.995051 v 2.027979 h -0.41786 l -0.81342,-1.335736 v 1.335736 h -0.41924 v -2.027979 h 0.41924 l 0.81342,1.337129 v -1.337129 z"/><path style="font-style:normal;font-variant:normal;font-weight:600;font-stretch:normal;font-size:2.8525424px;font-family:FreeSans;-inkscape-font-specification:'FreeSans, Semi-Bold';font-variant-ligatures:normal;font-variant-caps:normal;font-variant-numeric:normal;font-feature-settings:normal;text-align:center;writing-mode:lr-tb;text-anchor:middle;fill:#000;fill-opacity:1;stroke-width:.07131357" id="path2634" d="m 354.54991,-69.967072 v -2.027979 h 0.62538 q 0.4095,0 0.66717,0.267426 0.25907,0.267426 0.25907,0.701993 v 0.09054 q 0,0.434567 -0.25907,0.701992 -0.25767,0.266033 -0.67274,0.266033 z m 0.62538,-1.689518 h -0.20614 v 1.35245 h 0.20057 q 0.24932,0 0.37746,-0.162962 0.12954,-0.164356 0.12954,-0.467995 v -0.09332 q 0,-0.628172 -0.50143,-0.628173 z"/></g><g style="font-style:normal;font-variant:normal;font-weight:600;font-stretch:normal;font-size:2.12793255px;line-height:1.25;font-family:FreeSans;-inkscape-font-specification:'FreeSans, Semi-Bold';font-variant-ligatures:normal;font-variant-caps:normal;font-variant-numeric:normal;font-feature-settings:normal;text-align:start;letter-spacing:0;word-spacing:0;writing-mode:lr-tb;text-anchor:start;display:inline;fill:#666;fill-opacity:1;stroke:none;stroke-width:.05319832" id="text352" aria-label="EXPANDER"><path style="font-style:normal;font-variant:normal;font-weight:600;font-stretch:normal;font-size:2.12793255px;font-family:FreeSans;-inkscape-font-specification:'FreeSans, Semi-Bold';font-variant-ligatures:normal;font-variant-caps:normal;font-variant-numeric:normal;font-feature-settings:normal;text-align:start;writing-mode:lr-tb;text-anchor:start;fill:#666;fill-opacity:1;stroke-width:.05319832" id="path3416" d="m 352.87345,-73.594284 v -1.512827 h 1.01201 v 0.252484 h -0.69927 v 0.360543 h 0.59745 v 0.244172 h -0.59745 v 0.404183 h 0.70239 v 0.251445 z"/><path style="font-style:normal;font-variant:normal;font-weight:600;font-stretch:normal;font-size:2.12793255px;font-family:FreeSans;-inkscape-font-specification:'FreeSans, Semi-Bold';font-variant-ligatures:normal;font-variant-caps:normal;font-variant-numeric:normal;font-feature-settings:normal;text-align:start;writing-mode:lr-tb;text-anchor:start;fill:#666;fill-opacity:1;stroke-width:.05319832" id="path3418" d="m 354.32913,-75.107111 0.28365,0.520554 0.28262,-0.520554 h 0.35846 l -0.43951,0.750179 0.45094,0.762648 h -0.36262 l -0.28989,-0.529905 -0.29093,0.529905 h -0.36262 l 0.45198,-0.762648 -0.44055,-0.750179 z"/><path style="font-style:normal;font-variant:normal;font-weight:600;font-stretch:normal;font-size:2.12793255px;font-family:FreeSans;-inkscape-font-specification:'FreeSans, Semi-Bold';font-variant-ligatures:normal;font-variant-caps:normal;font-variant-numeric:normal;font-feature-settings:normal;text-align:start;writing-mode:lr-tb;text-anchor:start;fill:#666;fill-opacity:1;stroke-width:.05319832" id="path3420" d="m 356.01651,-74.128345 h -0.27846 v 0.534061 h -0.31275 v -1.512827 h 0.59121 q 0.26807,0 0.41769,0.141308 0.15066,0.141308 0.15066,0.358465 0,0.219235 -0.15066,0.349114 -0.14962,0.129879 -0.41769,0.129879 z m -0.27846,-0.726282 v 0.474837 h 0.27846 q 0.13404,0 0.19326,-0.06338 0.0592,-0.06338 0.0592,-0.162089 0,-0.09871 -0.0592,-0.173518 -0.0592,-0.07585 -0.19326,-0.07585 z"/><path style="font-style:normal;font-variant:normal;font-weight:600;font-stretch:normal;font-size:2.12793255px;font-family:FreeSans;-inkscape-font-specification:'FreeSans, Semi-Bold';font-variant-ligatures:normal;font-variant-caps:normal;font-variant-numeric:normal;font-feature-settings:normal;text-align:start;writing-mode:lr-tb;text-anchor:start;fill:#666;fill-opacity:1;stroke-width:.05319832" id="path3422" d="m 356.49966,-73.594284 0.56315,-1.512827 h 0.28885 l 0.56628,1.512827 h -0.33249 l -0.10391,-0.311709 h -0.54757 l -0.1039,0.311709 z m 0.51848,-0.564193 h 0.37924 l -0.1891,-0.568349 z"/><path style="font-style:normal;font-variant:normal;font-weight:600;font-stretch:normal;font-size:2.12793255px;font-family:FreeSans;-inkscape-font-specification:'FreeSans, Semi-Bold';font-variant-ligatures:normal;font-variant-caps:normal;font-variant-numeric:normal;font-feature-settings:normal;text-align:start;writing-mode:lr-tb;text-anchor:start;fill:#666;fill-opacity:1;stroke-width:.05319832" id="path3424" d="m 359.29153,-75.107111 v 1.512827 h -0.31171 l -0.60679,-0.996429 v 0.996429 h -0.31275 v -1.512827 h 0.31275 l 0.60679,0.997468 v -0.997468 z"/><path style="font-style:normal;font-variant:normal;font-weight:600;font-stretch:normal;font-size:2.12793255px;font-family:FreeSans;-inkscape-font-specification:'FreeSans, Semi-Bold';font-variant-ligatures:normal;font-variant-caps:normal;font-variant-numeric:normal;font-feature-settings:normal;text-align:start;writing-mode:lr-tb;text-anchor:start;fill:#666;fill-opacity:1;stroke-width:.05319832" id="path3426" d="m 359.5648,-73.594284 v -1.512827 h 0.46652 q 0.30548,0 0.4977,0.199494 0.19326,0.199493 0.19326,0.52367 v 0.06754 q 0,0.324178 -0.19326,0.523671 -0.19222,0.198455 -0.50185,0.198455 z m 0.46652,-1.260343 h -0.15377 v 1.008898 h 0.14962 q 0.18598,0 0.28157,-0.121567 0.0966,-0.122605 0.0966,-0.349114 v -0.06961 q 0,-0.468602 -0.37405,-0.468602 z"/><path style="font-style:normal;font-variant:normal;font-weight:600;font-stretch:normal;font-size:2.12793255px;font-family:FreeSans;-inkscape-font-specification:'FreeSans, Semi-Bold';font-variant-ligatures:normal;font-variant-caps:normal;font-variant-numeric:normal;font-feature-settings:normal;text-align:start;writing-mode:lr-tb;text-anchor:start;fill:#666;fill-opacity:1;stroke-width:.05319832" id="path3428" d="m 360.94879,-73.594284 v -1.512827 h 1.01201 v 0.252484 h -0.69927 v 0.360543 h 0.59744 v 0.244172 h -0.59744 v 0.404183 h 0.70239 v 0.251445 z"/><path style="font-style:normal;font-variant:normal;font-weight:600;font-stretch:normal;font-size:2.12793255px;font-family:FreeSans;-inkscape-font-specification:'FreeSans, Semi-Bold';font-variant-ligatures:normal;font-variant-caps:normal;font-variant-numeric:normal;font-feature-settings:normal;text-align:start;writing-mode:lr-tb;text-anchor:start;fill:#666;fill-opacity:1;stroke-width:.05319832" id="path3430" d="m 362.98944,-73.594284 -0.28262,-0.554842 h -0.24833 v 0.554842 h -0.31274 v -1.512827 h 0.56315 q 0.2608,0 0.40938,0.11741 0.14962,0.116372 0.14962,0.339763 0,0.164167 -0.0727,0.264952 -0.0727,0.100786 -0.19742,0.156894 l 0.32729,0.619262 v 0.01455 z m -0.53095,-1.260343 v 0.454056 h 0.25041 q 0.12261,0 0.18391,-0.0613 0.0623,-0.06234 0.0623,-0.164166 0,-0.104942 -0.0603,-0.166245 -0.0603,-0.06234 -0.18599,-0.06234 z"/></g><g id="g3414" transform="translate(-31.717161,56.875029)"><rect id="rect1883" width="9.377" height="13.456" x="379.441" y="-44.315" ry="1.469" style="display:inline;fill:#666;fill-opacity:1;stroke:none;stroke-width:.60442257;stroke-linecap:square;stroke-linejoin:miter;stroke-miterlimit:4;stroke-dasharray:none;stroke-opacity:1"/><g id="text1663" aria-label="OUT" transform="translate(18.48947,-62.66751)" style="font-style:normal;font-variant:normal;font-weight:600;font-stretch:normal;font-size:2.8525424px;line-height:1.25;font-family:FreeSans;-inkscape-font-specification:'FreeSans, Semi-Bold';font-variant-ligatures:normal;font-variant-caps:normal;font-variant-numeric:normal;font-feature-settings:normal;text-align:start;letter-spacing:0;word-spacing:0;writing-mode:lr-tb;text-anchor:start;display:inline;fill:#fff;fill-opacity:1;stroke:none;stroke-width:.07131357"><path id="path2616" d="m 364.13545,20.547089 v 0.09053 q 0,0.463817 -0.24096,0.72985 -0.23957,0.266033 -0.62121,0.266033 -0.38163,0 -0.62399,-0.266033 -0.24235,-0.266033 -0.24235,-0.72985 v -0.09053 q 0,-0.463816 0.24096,-0.729849 0.24096,-0.267426 0.6226,-0.267426 0.38164,0 0.6226,0.267426 0.24235,0.266033 0.24235,0.729849 z m -0.42342,0.09053 v -0.09332 q 0,-0.317569 -0.11561,-0.483317 -0.1156,-0.165748 -0.32592,-0.165748 -0.21171,0 -0.32593,0.165748 -0.11421,0.165748 -0.11421,0.483317 v 0.09332 q 0,0.316175 0.11561,0.484709 0.1156,0.167142 0.32731,0.167142 0.21172,0 0.32454,-0.167142 0.11421,-0.168534 0.11421,-0.484709 z" style="font-style:normal;font-variant:normal;font-weight:600;font-stretch:normal;font-size:2.8525424px;font-family:FreeSans;-inkscape-font-specification:'FreeSans, Semi-Bold';font-variant-ligatures:normal;font-variant-caps:normal;font-variant-numeric:normal;font-feature-settings:normal;text-align:center;writing-mode:lr-tb;text-anchor:middle;fill:#fff;fill-opacity:1;stroke-width:.07131357"/><path id="path2618" d="m 365.55755,19.577671 h 0.41924 V 20.9148 q 0,0.353782 -0.22007,0.536244 -0.22007,0.182463 -0.55713,0.182463 -0.34125,0 -0.55993,-0.182463 -0.21867,-0.182462 -0.21867,-0.536244 v -1.337129 h 0.41924 V 20.9148 q 0,0.200569 0.0947,0.291104 0.0961,0.09053 0.26464,0.09053 0.16853,0 0.26324,-0.09053 0.0947,-0.09053 0.0947,-0.291104 z" style="font-style:normal;font-variant:normal;font-weight:600;font-stretch:normal;font-size:2.8525424px;font-family:FreeSans;-inkscape-font-specification:'FreeSans, Semi-Bold';font-variant-ligatures:normal;font-variant-caps:normal;font-variant-numeric:normal;font-feature-settings:normal;text-align:center;writing-mode:lr-tb;text-anchor:middle;fill:#fff;fill-opacity:1;stroke-width:.07131357"/><path id="path2620" d="m 366.19408,19.916131 v -0.33846 h 1.65052 v 0.33846 h -0.61982 v 1.689519 h -0.41785 v -1.689519 z" style="font-style:normal;font-variant:normal;font-weight:600;font-stretch:normal;font-size:2.8525424px;font-family:FreeSans;-inkscape-font-specification:'FreeSans, Semi-Bold';font-variant-ligatures:normal;font-variant-caps:normal;font-variant-numeric:normal;font-feature-settings:normal;text-align:center;writing-mode:lr-tb;text-anchor:middle;fill:#fff;fill-opacity:1;stroke-width:.07131357"/></g></g></g><g id="layer6" style="display:none"><rect style="opacity:1;vector-effect:none;fill:#f0f;fill-opacity:.50196078;fill-rule:evenodd;stroke:none;stroke-width:.04378174;stroke-linecap:round;stroke-linejoin:miter;stroke-miterlimit:4;stroke-dasharray:none;stroke-dashoffset:0;stroke-opacity:1;paint-order:normal" id="rect49271" width="2.176" height="2.177" x="12.525" y="54.577"/><rect id="rect49816" width="2.176" height="2.177" x="35.726" y="54.577" style="opacity:1;vector-effect:none;fill:#f0f;fill-opacity:.50196078;fill-rule:evenodd;stroke:none;stroke-width:.04378174;stroke-linecap:round;stroke-linejoin:miter;stroke-miterlimit:4;stroke-dasharray:none;stroke-dashoffset:0;stroke-opacity:1;paint-order:normal"/><rect style="opacity:1;vector-effect:none;fill:#f0f;fill-opacity:.50196078;fill-rule:evenodd;stroke:none;stroke-width:.04378174;stroke-linecap:round;stroke-linejoin:miter;stroke-miterlimit:4;stroke-dasharray:none;stroke-dashoffset:0;stroke-opacity:1;paint-order:normal" id="rect49818" width="2.176" height="2.177" x="12.525" y="69.158"/><rect id="rect49820" width="2.176" height="2.177" x="35.726" y="69.158" style="opacity:1;vector-effect:none;fill:#f0f;fill-opacity:.50196078;fill-rule:evenodd;stroke:none;stroke-width:.04378174;stroke-linecap:round;stroke-linejoin:miter;stroke-miterlimit:4;stroke-dasharray:none;stroke-dashoffset:0;stroke-opacity:1;paint-order:normal"/><rect style="opacity:1;vector-effect:none;fill:#f0f;fill-opacity:.50196078;fill-rule:evenodd;stroke:none;stroke-width:.04378174;stroke-linecap:round;stroke-linejoin:miter;stroke-miterlimit:4;stroke-dasharray:none;stroke-dashoffset:0;stroke-opacity:1;paint-order:normal" id="rect49822" width="2.176" height="2.177" x="12.525" y="91.148"/><rect id="rect49824" width="2.176" height="2.177" x="35.726" y="91.148" style="opacity:1;vector-effect:none;fill:#f0f;fill-opacity:.50196078;fill-rule:evenodd;stroke:none;stroke-width:.04378174;stroke-linecap:round;stroke-linejoin:miter;stroke-miterlimit:4;stroke-dasharray:none;stroke-dashoffset:0;stroke-opacity:1;paint-order:normal"/><rect style="opacity:1;vector-effect:none;fill:#f0f;fill-opacity:.50196078;fill-rule:evenodd;stroke:none;stroke-width:.04378174;stroke-linecap:round;stroke-linejoin:miter;stroke-miterlimit:4;stroke-dasharray:none;stroke-dashoffset:0;stroke-opacity:1;paint-order:normal" id="rect49826" width="2.176" height="2.177" x="12.525" y="107.17"/><rect id="rect49828" width="2.176" height="2.177" x="35.726" y="107.17" style="opacity:1;vector-effect:none;fill:#f0f;fill-opacity:.50196078;fill-rule:evenodd;stroke:none;stroke-width:.04378174;stroke-linecap:round;stroke-linejoin:miter;stroke-miterlimit:4;stroke-dasharray:none;stroke-dashoffset:0;stroke-opacity:1;paint-order:normal"/><rect id="rect50704" width="44.001" height="28" x="3.212" y="14.837" style="opacity:1;vector-effect:none;fill:#ff0;fill-opacity:.50196078;fill-rule:evenodd;stroke:none;stroke-width:.70603204;stroke-linecap:round;stroke-linejoin:miter;stroke-miterlimit:4;stroke-dasharray:none;stroke-dashoffset:0;stroke-opacity:1;paint-order:normal"/><rect id="rect50717" width="8.212" height="8.212" x="3.707" y="55.531" style="opacity:1;vector-effect:none;fill:#0f0;fill-opacity:.50196078;fill-rule:evenodd;stroke:none;stroke-width:.16517603;stroke-linecap:round;stroke-linejoin:miter;stroke-miterlimit:4;stroke-dasharray:none;stroke-dashoffset:0;stroke-opacity:1;paint-order:normal"/><rect style="opacity:1;vector-effect:none;fill:#0f0;fill-opacity:.50196078;fill-rule:evenodd;stroke:none;stroke-width:.16517603;stroke-linecap:round;stroke-linejoin:miter;stroke-miterlimit:4;stroke-dasharray:none;stroke-dashoffset:0;stroke-opacity:1;paint-order:normal" id="rect50719" width="8.212" height="8.212" x="15.307" y="55.531"/><rect style="opacity:1;vector-effect:none;fill:#0f0;fill-opacity:.50196078;fill-rule:evenodd;stroke:none;stroke-width:.16517603;stroke-linecap:round;stroke-linejoin:miter;stroke-miterlimit:4;stroke-dasharray:none;stroke-dashoffset:0;stroke-opacity:1;paint-order:normal" id="rect50721" width="8.212" height="8.212" x="26.906" y="55.531"/><rect id="rect50723" width="8.212" height="8.212" x="38.507" y="55.531" style="opacity:1;vector-effect:none;fill:#0f0;fill-opacity:.50196078;fill-rule:evenodd;stroke:none;stroke-width:.16517603;stroke-linecap:round;stroke-linejoin:miter;stroke-miterlimit:4;stroke-dasharray:none;stroke-dashoffset:0;stroke-opacity:1;paint-order:normal"/><rect style="opacity:1;vector-effect:none;fill:#0f0;fill-opacity:.50196078;fill-rule:evenodd;stroke:none;stroke-width:.16517603;stroke-linecap:round;stroke-linejoin:miter;stroke-miterlimit:4;stroke-dasharray:none;stroke-dashoffset:0;stroke-opacity:1;paint-order:normal" id="rect50733" width="8.212" height="8.212" x="3.707" y="70.145"/><rect id="rect50735" width="8.212" height="8.212" x="15.307" y="70.145" style="opacity:1;vector-effect:none;fill:#0f0;fill-opacity:.50196078;fill-rule:evenodd;stroke:none;stroke-width:.16517603;stroke-linecap:round;stroke-linejoin:miter;stroke-miterlimit:4;stroke-dasharray:none;stroke-dashoffset:0;stroke-opacity:1;paint-order:normal"/><rect id="rect50737" width="8.212" height="8.212" x="26.906" y="70.145" style="opacity:1;vector-effect:none;fill:#0f0;fill-opacity:.50196078;fill-rule:evenodd;stroke:none;stroke-width:.16517603;stroke-linecap:round;stroke-linejoin:miter;stroke-miterlimit:4;stroke-dasharray:none;stroke-dashoffset:0;stroke-opacity:1;paint-order:normal"/><rect style="opacity:1;vector-effect:none;fill:#0f0;fill-opacity:.50196078;fill-rule:evenodd;stroke:none;stroke-width:.16517603;stroke-linecap:round;stroke-linejoin:miter;stroke-miterlimit:4;stroke-dasharray:none;stroke-dashoffset:0;stroke-opacity:1;paint-order:normal" id="rect50739" width="8.212" height="8.212" x="38.507" y="70.145"/><rect id="rect50741" width="8.212" height="8.212" x="3.707" y="92.144" style="opacity:1;vector-effect:none;fill:#00f;fill-opacity:.50196078;fill-rule:evenodd;stroke:none;stroke-width:.16517603;stroke-linecap:round;stroke-linejoin:miter;stroke-miterlimit:4;stroke-dasharray:none;stroke-dashoffset:0;stroke-opacity:1;paint-order:normal"/><rect style="opacity:1;vector-effect:none;fill:#00f;fill-opacity:.50196078;fill-rule:evenodd;stroke:none;stroke-width:.16517603;stroke-linecap:round;stroke-linejoin:miter;stroke-miterlimit:4;stroke-dasharray:none;stroke-dashoffset:0;stroke-opacity:1;paint-order:normal" id="rect50743" width="8.212" height="8.212" x="15.307" y="92.144"/><rect style="opacity:1;vector-effect:none;fill:#00f;fill-opacity:.50196078;fill-rule:evenodd;stroke:none;stroke-width:.16517603;stroke-linecap:round;stroke-linejoin:miter;stroke-miterlimit:4;stroke-dasharray:none;stroke-dashoffset:0;stroke-opacity:1;paint-order:normal" id="rect50745" width="8.212" height="8.212" x="26.906" y="92.144"/><rect id="rect50747" width="8.212" height="8.212" x="38.507" y="92.144" style="opacity:1;vector-effect:none;fill:#00f;fill-opacity:.50196078;fill-rule:evenodd;stroke:none;stroke-width:.16517603;stroke-linecap:round;stroke-linejoin:miter;stroke-miterlimit:4;stroke-dasharray:none;stroke-dashoffset:0;stroke-opacity:1;paint-order:normal"/><rect style="opacity:1;vector-effect:none;fill:#00f;fill-opacity:.50196078;fill-rule:evenodd;stroke:none;stroke-width:.16517603;stroke-linecap:round;stroke-linejoin:miter;stroke-miterlimit:4;stroke-dasharray:none;stroke-dashoffset:0;stroke-opacity:1;paint-order:normal" id="rect50749" width="8.212" height="8.212" x="3.707" y="108.144"/><rect id="rect50751" width="8.212" height="8.212" x="15.307" y="108.144" style="opacity:1;vector-effect:none;fill:#00f;fill-opacity:.50196078;fill-rule:evenodd;stroke:none;stroke-width:.16517603;stroke-linecap:round;stroke-linejoin:miter;stroke-miterlimit:4;stroke-dasharray:none;stroke-dashoffset:0;stroke-opacity:1;paint-order:normal"/><rect id="rect50753" width="8.212" height="8.212" x="26.906" y="108.144" style="opacity:1;vector-effect:none;fill:#00f;fill-opacity:.50196078;fill-rule:evenodd;stroke:none;stroke-width:.16517603;stroke-linecap:round;stroke-linejoin:miter;stroke-miterlimit:4;stroke-dasharray:none;stroke-dashoffset:0;stroke-opacity:1;paint-order:normal"/><rect style="opacity:1;vector-effect:none;fill:#00f;fill-opacity:.50196078;fill-rule:evenodd;stroke:none;stroke-width:.16517603;stroke-linecap:round;stroke-linejoin:miter;stroke-miterlimit:4;stroke-dasharray:none;stroke-dashoffset:0;stroke-opacity:1;paint-order:normal" id="rect50755" width="8.212" height="8.212" x="38.507" y="108.144"/></g></svg>