<svg xmlns="http://www.w3.org/2000/svg" xmlns:svg="http://www.w3.org/2000/svg" xmlns:xlink="http://www.w3.org/1999/xlink" id="svg3546" width="32.338" height="32.336" version="1.1" viewBox="0 0 8.556 8.556"><defs id="defs3540"><linearGradient id="linearGradient1217" x1="386.358" x2="386.405" y1="-142.498" y2="-148.924" gradientTransform="matrix(1.3615283,0,0,1.3615283,-96.178258,112.56274)" gradientUnits="userSpaceOnUse" xlink:href="#linearGradient1215"/><linearGradient id="linearGradient1215"><stop style="stop-color:#05060a;stop-opacity:1" id="stop1211" offset="0"/><stop style="stop-color:#373b3e;stop-opacity:1" id="stop1213" offset="1"/></linearGradient><linearGradient id="linearGradient1221" x1="386.358" x2="386.405" y1="-142.498" y2="-148.924" gradientTransform="matrix(1.0055842,0,0,1.0055842,41.200583,60.706209)" gradientUnits="userSpaceOnUse" xlink:href="#linearGradient1227"/><linearGradient id="linearGradient1227"><stop id="stop1223" offset="0" style="stop-color:#242529;stop-opacity:1"/><stop id="stop1225" offset="1" style="stop-color:#43474a;stop-opacity:1"/></linearGradient><linearGradient id="linearGradient1242" x1="174.378" x2="174.732" y1="-218.915" y2="-242.568" gradientTransform="matrix(0.25783596,0,0,0.25783596,384.25981,-26.41101)" gradientUnits="userSpaceOnUse" xlink:href="#linearGradient1240"/><linearGradient id="linearGradient1240"><stop style="stop-color:#0f1014;stop-opacity:1" id="stop1236" offset="0"/><stop style="stop-color:#565a5d;stop-opacity:1" id="stop1238" offset="1"/></linearGradient><linearGradient id="linearGradient1274" x1="429.353" x2="429.353" y1="-83.865" y2="-87.833" gradientUnits="userSpaceOnUse" xlink:href="#linearGradient1272"/><linearGradient id="linearGradient1272"><stop style="stop-color:#535659;stop-opacity:1" id="stop1268" offset="0"/><stop style="stop-color:#101115;stop-opacity:1" id="stop1270" offset="1"/></linearGradient><linearGradient id="linearGradient1291" x1="337.138" x2="338.085" y1="11.968" y2="-20.041" gradientUnits="userSpaceOnUse" xlink:href="#linearGradient1289"/><linearGradient id="linearGradient1289"><stop style="stop-color:#28292d;stop-opacity:1" id="stop1285" offset="0"/><stop style="stop-color:#54585b;stop-opacity:1" id="stop1287" offset="1"/></linearGradient></defs><metadata id="metadata3543"/><g id="layer1" transform="translate(-64.513632,-167.23406)"><g style="display:inline" id="g1300" transform="translate(-360.52037,257.30651)"><circle id="path1207" cx="429.312" cy="-85.795" r="4.278" style="opacity:1;fill:url(#linearGradient1217);fill-opacity:1;stroke:none;stroke-width:.68076414;stroke-linecap:round;stroke-linejoin:round;stroke-miterlimit:4;stroke-dasharray:none;stroke-opacity:1"/><circle id="circle1252" cx="429.312" cy="-85.795" r="3.325" style="opacity:1;fill:#000;fill-opacity:1;stroke:none;stroke-width:.52910787;stroke-linecap:round;stroke-linejoin:round;stroke-miterlimit:4;stroke-dasharray:none;stroke-opacity:1"/><circle style="opacity:1;fill:url(#linearGradient1221);fill-opacity:1;stroke:none;stroke-width:.50279212;stroke-linecap:round;stroke-linejoin:round;stroke-miterlimit:4;stroke-dasharray:none;stroke-opacity:1" id="circle1219" cx="429.312" cy="-85.795" r="3.159"/><path id="circle1229" d="m 429.31212,-88.953857 a 3.1594721,3.1594721 0 0 0 -3.1595,3.158993 3.1594721,3.1594721 0 0 0 3.1595,3.1595 3.1594721,3.1594721 0 0 0 3.1595,-3.1595 3.1594721,3.1594721 0 0 0 -3.1595,-3.158993 z m 5.1e-4,0.59121 c 1.42472,0 2.56576,1.143067 2.56576,2.567783 0,1.424717 -1.14104,2.567786 -2.56576,2.567786 -1.42472,0 -2.56729,-1.143069 -2.56729,-2.567786 0,-1.424716 1.14257,-2.567783 2.56729,-2.567783 z" style="color:#000;font-style:normal;font-variant:normal;font-weight:400;font-stretch:normal;font-size:medium;line-height:normal;font-family:sans-serif;font-variant-ligatures:normal;font-variant-position:normal;font-variant-caps:normal;font-variant-numeric:normal;font-variant-alternates:normal;font-feature-settings:normal;text-indent:0;text-align:start;text-decoration:none;text-decoration-line:none;text-decoration-style:solid;text-decoration-color:#000;letter-spacing:normal;word-spacing:normal;text-transform:none;writing-mode:lr-tb;direction:ltr;text-orientation:mixed;dominant-baseline:auto;baseline-shift:baseline;text-anchor:start;white-space:normal;shape-padding:0;clip-rule:nonzero;display:inline;overflow:visible;visibility:visible;opacity:1;isolation:auto;mix-blend-mode:normal;color-interpolation:sRGB;color-interpolation-filters:linearRGB;solid-color:#000;solid-opacity:1;vector-effect:none;fill:url(#linearGradient1242);fill-opacity:1;fill-rule:nonzero;stroke:none;stroke-width:1.18498969;stroke-linecap:round;stroke-linejoin:round;stroke-miterlimit:4;stroke-dasharray:none;stroke-dashoffset:0;stroke-opacity:1;color-rendering:auto;image-rendering:auto;shape-rendering:auto;text-rendering:auto;enable-background:accumulate"/><path style="fill:url(#linearGradient1274);fill-opacity:1;fill-rule:nonzero;stroke:none;stroke-width:.35277775" id="path1266" d="m 427.31251,-85.795299 c 0,-1.1038 0.89434,-1.99954 1.99953,-1.99954 1.10381,0 1.99953,0.89574 1.99953,1.99954 0,1.10519 -0.89572,2.00089 -1.99953,2.00089 -1.10519,0 -1.99953,-0.8957 -1.99953,-2.00089"/><path id="path1248" d="m 427.55853,-85.795216 c 0,-0.967989 0.78431,-1.753519 1.75351,-1.753519 0.968,0 1.75351,0.78553 1.75351,1.753519 0,0.969208 -0.78551,1.754703 -1.75351,1.754703 -0.9692,0 -1.75351,-0.785495 -1.75351,-1.754703" style="fill:#000;fill-opacity:1;fill-rule:nonzero;stroke:none;stroke-width:.30937231"/><path id="circle1276" d="M 338.59766,-20.117188 A 16.168148,16.168148 0 0 0 322.42773,-3.9492188 16.168148,16.168148 0 0 0 338.59766,12.21875 16.168148,16.168148 0 0 0 354.76562,-3.9492188 16.168148,16.168148 0 0 0 338.59766,-20.117188 Z m 0,1.285157 c 8.23415,0 14.88281,6.646705 14.88281,14.8808591 0,8.2341544 -6.64866,14.8828129 -14.88281,14.8828129 -8.23416,0 -14.88086,-6.6486585 -14.88086,-14.8828129 0,-8.2341541 6.6467,-14.8808591 14.88086,-14.8808591 z" transform="matrix(0.26458333,0,0,0.26458333,339.725,-84.74965)" style="color:#000;font-style:normal;font-variant:normal;font-weight:400;font-stretch:normal;font-size:medium;line-height:normal;font-family:sans-serif;font-variant-ligatures:normal;font-variant-position:normal;font-variant-caps:normal;font-variant-numeric:normal;font-variant-alternates:normal;font-feature-settings:normal;text-indent:0;text-align:start;text-decoration:none;text-decoration-line:none;text-decoration-style:solid;text-decoration-color:#000;letter-spacing:normal;word-spacing:normal;text-transform:none;writing-mode:lr-tb;direction:ltr;text-orientation:mixed;dominant-baseline:auto;baseline-shift:baseline;text-anchor:start;white-space:normal;shape-padding:0;clip-rule:nonzero;display:inline;overflow:visible;visibility:visible;opacity:1;isolation:auto;mix-blend-mode:normal;color-interpolation:sRGB;color-interpolation-filters:linearRGB;solid-color:#000;solid-opacity:1;vector-effect:none;fill:url(#linearGradient1291);fill-opacity:1;fill-rule:nonzero;stroke:none;stroke-width:2.57296681;stroke-linecap:round;stroke-linejoin:round;stroke-miterlimit:4;stroke-dasharray:none;stroke-dashoffset:0;stroke-opacity:1;color-rendering:auto;image-rendering:auto;shape-rendering:auto;text-rendering:auto;enable-background:accumulate"/></g></g></svg>