<svg xmlns="http://www.w3.org/2000/svg" xmlns:svg="http://www.w3.org/2000/svg" id="svg136" width="255" height="380" version="1.1" viewBox="0 0 67.469 100.542"><metadata id="metadata140"/><defs id="defs62"><filter id="a" width="1" height="1" x="0" y="0" filterUnits="objectBoundingBox"><feColorMatrix id="feColorMatrix2" in="SourceGraphic" values="0 0 0 0 1 0 0 0 0 1 0 0 0 0 1 0 0 0 1 0"/></filter><filter id="b" width="1" height="1" x="0" y="0" filterUnits="objectBoundingBox"><feColorMatrix id="feColorMatrix5" in="SourceGraphic" values="0 0 0 0 1 0 0 0 0 1 0 0 0 0 1 0 0 0 1 0"/></filter><filter id="c" width="1" height="1" x="0" y="0" filterUnits="objectBoundingBox"><feColorMatrix id="feColorMatrix8" in="SourceGraphic" values="0 0 0 0 1 0 0 0 0 1 0 0 0 0 1 0 0 0 1 0"/></filter><filter id="d" width="1" height="1" x="0" y="0" filterUnits="objectBoundingBox"><feColorMatrix id="feColorMatrix11" in="SourceGraphic" values="0 0 0 0 1 0 0 0 0 1 0 0 0 0 1 0 0 0 1 0"/></filter><filter id="e" width="1" height="1" x="0" y="0" filterUnits="objectBoundingBox"><feColorMatrix id="feColorMatrix14" in="SourceGraphic" values="0 0 0 0 1 0 0 0 0 1 0 0 0 0 1 0 0 0 1 0"/></filter><filter id="f" width="1" height="1" x="0" y="0" filterUnits="objectBoundingBox"><feColorMatrix id="feColorMatrix17" in="SourceGraphic" values="0 0 0 0 1 0 0 0 0 1 0 0 0 0 1 0 0 0 1 0"/></filter><filter id="g" width="1" height="1" x="0" y="0" filterUnits="objectBoundingBox"><feColorMatrix id="feColorMatrix20" in="SourceGraphic" values="0 0 0 0 1 0 0 0 0 1 0 0 0 0 1 0 0 0 1 0"/></filter><filter id="h" width="1" height="1" x="0" y="0" filterUnits="objectBoundingBox"><feColorMatrix id="feColorMatrix23" in="SourceGraphic" values="0 0 0 0 1 0 0 0 0 1 0 0 0 0 1 0 0 0 1 0"/></filter><filter id="i" width="1" height="1" x="0" y="0" filterUnits="objectBoundingBox"><feColorMatrix id="feColorMatrix26" in="SourceGraphic" values="0 0 0 0 1 0 0 0 0 1 0 0 0 0 1 0 0 0 1 0"/></filter><filter id="j" width="1" height="1" x="0" y="0" filterUnits="objectBoundingBox"><feColorMatrix id="feColorMatrix29" in="SourceGraphic" values="0 0 0 0 1 0 0 0 0 1 0 0 0 0 1 0 0 0 1 0"/></filter><filter id="k" width="1" height="1" x="0" y="0" filterUnits="objectBoundingBox"><feColorMatrix id="feColorMatrix32" in="SourceGraphic" values="0 0 0 0 1 0 0 0 0 1 0 0 0 0 1 0 0 0 1 0"/></filter><filter id="l" width="1" height="1" x="0" y="0" filterUnits="objectBoundingBox"><feColorMatrix id="feColorMatrix35" in="SourceGraphic" values="0 0 0 0 1 0 0 0 0 1 0 0 0 0 1 0 0 0 1 0"/></filter><filter id="m" width="1" height="1" x="0" y="0" filterUnits="objectBoundingBox"><feColorMatrix id="feColorMatrix38" in="SourceGraphic" values="0 0 0 0 1 0 0 0 0 1 0 0 0 0 1 0 0 0 1 0"/></filter><filter id="n" width="1" height="1" x="0" y="0" filterUnits="objectBoundingBox"><feColorMatrix id="feColorMatrix41" in="SourceGraphic" values="0 0 0 0 1 0 0 0 0 1 0 0 0 0 1 0 0 0 1 0"/></filter><filter id="o" width="1" height="1" x="0" y="0" filterUnits="objectBoundingBox"><feColorMatrix id="feColorMatrix44" in="SourceGraphic" values="0 0 0 0 1 0 0 0 0 1 0 0 0 0 1 0 0 0 1 0"/></filter><filter id="p" width="1" height="1" x="0" y="0" filterUnits="objectBoundingBox"><feColorMatrix id="feColorMatrix47" in="SourceGraphic" values="0 0 0 0 1 0 0 0 0 1 0 0 0 0 1 0 0 0 1 0"/></filter><filter id="q" width="1" height="1" x="0" y="0" filterUnits="objectBoundingBox"><feColorMatrix id="feColorMatrix50" in="SourceGraphic" values="0 0 0 0 1 0 0 0 0 1 0 0 0 0 1 0 0 0 1 0"/></filter><filter id="r" width="1" height="1" x="0" y="0" filterUnits="objectBoundingBox"><feColorMatrix id="feColorMatrix53" in="SourceGraphic" values="0 0 0 0 1 0 0 0 0 1 0 0 0 0 1 0 0 0 1 0"/></filter><filter id="s" width="1" height="1" x="0" y="0" filterUnits="objectBoundingBox"><feColorMatrix id="feColorMatrix56" in="SourceGraphic" values="0 0 0 0 1 0 0 0 0 1 0 0 0 0 1 0 0 0 1 0"/></filter><filter id="t" width="1" height="1" x="0" y="0" filterUnits="objectBoundingBox"><feColorMatrix id="feColorMatrix59" in="SourceGraphic" values="0 0 0 0 1 0 0 0 0 1 0 0 0 0 1 0 0 0 1 0"/></filter></defs><path style="fill:#dcdcdc" id="path64" d="M 0,0 H 67.47 V 100.541 H 0 Z m 0,0"/><rect style="fill:#999;stroke-width:.99999994;paint-order:stroke markers fill" id="rect68" width="33.708" height="19.308" x="26.162" y="70.713" rx="2.34" ry="2.34"/><g style="font-weight:400;letter-spacing:0;word-spacing:0;fill:#333" id="g78" font-weight="400" letter-spacing="0" transform="translate(-26.543,-161.307)" word-spacing="0"><g id="g72" style="line-height:1.25"><path id="path70" d="m 68.745,258.177 -1.63,0.115 v -2.06 q 0,-0.23 0.065,-0.333 0.063,-0.104 0.22,-0.147 0.153,-0.043 0.347,-0.002 0.224,0.047 0.357,0.19 0.133,0.146 0.133,0.33 0,0.186 -0.158,0.286 -0.158,0.103 -0.407,0.05 -0.082,-0.018 -0.144,-0.044 -0.063,-0.027 -0.205,-0.11 v 1.345 l 1.22,-0.085 v -1.554 q 0,-0.225 0.065,-0.337 0.065,-0.11 0.225,-0.151 0.16,-0.04 0.348,0 0.224,0.047 0.355,0.19 0.129,0.14 0.129,0.325 0,0.195 -0.156,0.294 -0.156,0.1 -0.407,0.047 -0.16,-0.034 -0.357,-0.16 z" aria-label="♫" font-size="3.528" style="font-size:3.52800012px;font-family:Arial;-inkscape-font-specification:'Arial, Normal';font-variant-ligatures:normal;font-variant-caps:normal;font-variant-numeric:normal;font-feature-settings:normal;text-align:start;stroke-width:.234"/></g><g id="g76" aria-label="IMPROMPT" font-size="3.528" style="font-size:3.52800012px;line-height:1.25;font-family:Sniglet;stroke-width:.26499999"><path id="path74" d="m 50.727,258.005 q -0.007,-0.127 -0.01,-0.265 0,-0.137 -0.004,-0.296 -0.004,-0.159 -0.004,-0.342 v -0.417 q 0,-0.25 0.004,-0.426 0.003,-0.18 0.02,-0.293 0.018,-0.113 0.054,-0.166 0.038,-0.053 0.102,-0.053 0.032,0 0.06,0.007 0.028,0.007 0.05,0.032 0.02,0.02 0.035,0.067 0.017,0.042 0.02,0.113 0.008,0.127 0.011,0.225 l 0.007,0.198 q 0.004,0.095 0.004,0.201 v 0.536 q 0,0.145 -0.004,0.286 l -0.007,0.286 q -0.003,0.144 -0.01,0.303 -0.004,0.085 -0.018,0.13 -0.014,0.047 -0.035,0.071 -0.021,0.025 -0.05,0.028 -0.028,0.007 -0.063,0.007 -0.064,0 -0.11,-0.042 -0.045,-0.046 -0.052,-0.19 z m 1.753,-0.381 q -0.162,-0.357 -0.289,-0.688 -0.123,-0.335 -0.211,-0.596 -0.082,0.437 -0.138,0.882 -0.053,0.444 -0.138,0.85 -0.02,0.092 -0.077,0.123 -0.057,0.028 -0.096,0.028 -0.063,0 -0.102,-0.038 -0.035,-0.04 -0.035,-0.1 0,-0.08 0.018,-0.246 0.02,-0.17 0.049,-0.381 0.032,-0.212 0.07,-0.445 l 0.078,-0.448 q 0.042,-0.218 0.078,-0.395 0.039,-0.176 0.067,-0.271 0.046,-0.163 0.187,-0.163 0.084,0 0.144,0.085 0.06,0.081 0.127,0.254 0.07,0.17 0.166,0.43 0.099,0.262 0.254,0.614 0.152,-0.352 0.244,-0.61 l 0.158,-0.43 q 0.067,-0.173 0.127,-0.254 0.06,-0.085 0.149,-0.085 0.08,0 0.123,0.042 0.042,0.039 0.063,0.12 0.025,0.099 0.06,0.275 0.036,0.173 0.075,0.388 0.042,0.212 0.08,0.445 0.04,0.233 0.071,0.444 0.032,0.212 0.05,0.385 0.02,0.17 0.02,0.261 0,0.056 -0.038,0.092 -0.039,0.031 -0.099,0.031 -0.039,0 -0.095,-0.028 -0.057,-0.032 -0.078,-0.123 -0.042,-0.201 -0.077,-0.417 l -0.064,-0.433 -0.056,-0.441 q -0.028,-0.223 -0.06,-0.441 -0.046,0.14 -0.106,0.31 -0.06,0.17 -0.127,0.342 -0.067,0.17 -0.138,0.335 -0.07,0.166 -0.137,0.3 -0.025,0.046 -0.067,0.07 -0.039,0.022 -0.081,0.022 -0.046,0 -0.089,-0.021 -0.038,-0.025 -0.06,-0.074 z m 2.005,0.377 q 0,0.085 -0.017,0.13 -0.014,0.047 -0.039,0.071 -0.021,0.025 -0.053,0.029 -0.028,0.007 -0.056,0.007 -0.096,0 -0.127,-0.043 -0.029,-0.042 -0.04,-0.19 -0.006,-0.078 -0.01,-0.226 l -0.007,-0.353 q 0,-0.204 -0.003,-0.451 v -0.522 q 0,-0.131 0.031,-0.265 0.032,-0.134 0.12,-0.243 0.092,-0.11 0.25,-0.177 0.163,-0.067 0.42,-0.067 0.18,0 0.343,0.039 0.162,0.039 0.286,0.134 0.123,0.095 0.197,0.254 0.074,0.159 0.074,0.395 0,0.247 -0.081,0.41 -0.081,0.162 -0.23,0.257 -0.147,0.095 -0.352,0.134 -0.205,0.039 -0.448,0.039 h -0.12 q -0.06,0 -0.134,-0.007 z m 1.016,-1.485 q 0,-0.236 -0.134,-0.356 -0.13,-0.12 -0.437,-0.12 -0.117,0 -0.201,0.021 -0.081,0.018 -0.134,0.067 -0.053,0.046 -0.081,0.127 -0.025,0.081 -0.025,0.205 v 0.275 q 0,0.151 0.003,0.286 0.082,0.004 0.18,0.004 h 0.19 q 0.107,0 0.22,-0.015 0.116,-0.014 0.208,-0.063 0.091,-0.053 0.151,-0.152 0.06,-0.102 0.06,-0.278 z m 1.452,0.84 -0.103,0.007 h -0.222 q -0.06,0 -0.134,-0.007 v 0.716 q 0,0.113 -0.056,0.14 -0.053,0.026 -0.135,0.026 -0.042,0 -0.067,-0.007 -0.024,-0.004 -0.042,-0.018 -0.014,-0.018 -0.025,-0.05 -0.007,-0.031 -0.01,-0.088 -0.007,-0.063 -0.01,-0.183 l -0.008,-0.318 q 0,-0.194 -0.003,-0.469 v -0.652 q 0,-0.145 0.035,-0.279 0.035,-0.138 0.127,-0.24 0.092,-0.106 0.247,-0.17 0.159,-0.063 0.402,-0.063 0.173,0 0.335,0.039 0.166,0.039 0.293,0.134 0.127,0.095 0.205,0.258 0.077,0.162 0.077,0.405 0,0.325 -0.14,0.505 -0.138,0.176 -0.382,0.25 l 0.473,0.65 q 0.063,0.084 0.063,0.172 0,0.07 -0.05,0.11 -0.045,0.042 -0.115,0.042 -0.078,0 -0.135,-0.042 -0.056,-0.046 -0.105,-0.117 z m 0.553,-0.822 q 0,-0.244 -0.148,-0.36 -0.144,-0.12 -0.462,-0.12 -0.116,0 -0.194,0.021 -0.077,0.018 -0.123,0.07 -0.046,0.054 -0.067,0.149 -0.018,0.091 -0.018,0.236 v 0.24 q 0,0.138 0.003,0.25 0.082,0.005 0.18,0.005 h 0.19 q 0.1,0 0.209,-0.011 0.113,-0.014 0.208,-0.064 0.095,-0.052 0.159,-0.148 0.063,-0.099 0.063,-0.268 z m 1.61,1.725 q -0.212,0 -0.399,-0.085 -0.183,-0.085 -0.32,-0.243 -0.139,-0.163 -0.22,-0.395 -0.077,-0.233 -0.077,-0.53 0,-0.278 0.067,-0.511 0.07,-0.233 0.204,-0.402 0.138,-0.17 0.339,-0.261 0.201,-0.096 0.466,-0.096 0.215,0 0.409,0.078 0.194,0.078 0.339,0.233 0.148,0.155 0.232,0.388 0.085,0.233 0.085,0.543 0,0.258 -0.07,0.49 -0.067,0.233 -0.209,0.41 -0.137,0.173 -0.349,0.278 -0.212,0.103 -0.497,0.103 z m 0.007,-0.332 q 0.194,0 0.338,-0.077 0.145,-0.082 0.24,-0.212 0.096,-0.13 0.141,-0.3 0.046,-0.173 0.046,-0.353 0,-0.218 -0.06,-0.388 -0.056,-0.173 -0.155,-0.29 -0.099,-0.115 -0.23,-0.175 -0.13,-0.064 -0.278,-0.064 -0.176,0 -0.31,0.074 -0.13,0.074 -0.223,0.201 -0.088,0.127 -0.134,0.3 -0.045,0.17 -0.045,0.363 0,0.209 0.052,0.381 0.053,0.17 0.142,0.29 0.091,0.12 0.215,0.187 0.123,0.063 0.26,0.063 z m 2.384,-0.303 q -0.163,-0.357 -0.29,-0.688 -0.123,-0.335 -0.211,-0.596 -0.081,0.437 -0.138,0.882 -0.053,0.444 -0.137,0.85 -0.022,0.092 -0.078,0.123 -0.057,0.028 -0.095,0.028 -0.064,0 -0.103,-0.038 -0.035,-0.04 -0.035,-0.1 0,-0.08 0.018,-0.246 0.02,-0.17 0.05,-0.381 0.03,-0.212 0.07,-0.445 0.038,-0.232 0.077,-0.448 l 0.078,-0.395 q 0.039,-0.176 0.067,-0.271 0.046,-0.163 0.187,-0.163 0.085,0 0.145,0.085 0.06,0.081 0.127,0.254 0.07,0.17 0.165,0.43 0.1,0.262 0.254,0.614 0.152,-0.352 0.244,-0.61 l 0.158,-0.43 q 0.068,-0.173 0.127,-0.254 0.06,-0.085 0.149,-0.085 0.08,0 0.123,0.042 0.042,0.039 0.064,0.12 0.024,0.099 0.06,0.275 0.035,0.173 0.074,0.388 0.042,0.212 0.08,0.445 0.04,0.233 0.071,0.444 0.032,0.212 0.05,0.385 0.02,0.17 0.02,0.261 0,0.056 -0.038,0.092 -0.039,0.031 -0.099,0.031 -0.038,0 -0.095,-0.028 -0.056,-0.032 -0.078,-0.123 -0.042,-0.201 -0.077,-0.417 l -0.064,-0.433 -0.056,-0.441 q -0.028,-0.223 -0.06,-0.441 -0.046,0.14 -0.106,0.31 -0.06,0.17 -0.127,0.342 -0.067,0.17 -0.137,0.335 -0.071,0.166 -0.138,0.3 -0.025,0.046 -0.067,0.07 -0.039,0.022 -0.081,0.022 -0.046,0 -0.088,-0.021 -0.04,-0.025 -0.06,-0.074 z m 2.005,0.377 q 0,0.085 -0.018,0.13 -0.014,0.047 -0.039,0.071 -0.021,0.025 -0.053,0.029 -0.028,0.007 -0.056,0.007 -0.096,0 -0.127,-0.043 -0.028,-0.042 -0.04,-0.19 -0.006,-0.078 -0.01,-0.226 l -0.007,-0.353 q 0,-0.204 -0.003,-0.451 v -0.522 q 0,-0.131 0.032,-0.265 0.031,-0.134 0.12,-0.243 0.091,-0.11 0.25,-0.177 0.162,-0.067 0.42,-0.067 0.18,0 0.342,0.039 0.162,0.039 0.286,0.134 0.123,0.095 0.197,0.254 0.074,0.159 0.074,0.395 0,0.247 -0.08,0.41 -0.082,0.162 -0.23,0.257 -0.148,0.095 -0.353,0.134 -0.205,0.039 -0.448,0.039 h -0.12 q -0.06,0 -0.134,-0.007 z m 1.016,-1.485 q 0,-0.236 -0.135,-0.356 -0.13,-0.12 -0.437,-0.12 -0.116,0 -0.201,0.021 -0.081,0.018 -0.134,0.067 -0.053,0.046 -0.081,0.127 -0.025,0.081 -0.025,0.205 v 0.275 q 0,0.151 0.004,0.286 0.08,0.004 0.18,0.004 h 0.19 q 0.106,0 0.219,-0.015 0.116,-0.014 0.208,-0.063 0.092,-0.053 0.152,-0.152 0.06,-0.102 0.06,-0.278 z m 1.974,-0.437 q -0.1,0.007 -0.212,0.01 l -0.243,0.007 0.007,0.18 0.007,0.166 q 0.003,0.085 0.003,0.176 0.004,0.092 0.004,0.205 v 0.307 q 0,0.144 -0.004,0.293 l -0.007,0.292 q -0.003,0.149 -0.01,0.307 -0.004,0.085 -0.018,0.13 -0.01,0.047 -0.032,0.072 -0.02,0.024 -0.05,0.028 -0.027,0.007 -0.063,0.007 -0.063,0 -0.109,-0.043 -0.042,-0.045 -0.05,-0.19 -0.007,-0.127 -0.01,-0.268 0,-0.141 -0.003,-0.304 -0.004,-0.162 -0.004,-0.349 v -0.42 -0.338 q 0.004,-0.145 0.01,-0.25 h -0.144 q -0.148,0 -0.254,-0.005 -0.102,-0.004 -0.17,-0.017 -0.066,-0.018 -0.098,-0.053 -0.028,-0.036 -0.028,-0.1 0,-0.03 0.007,-0.055 0.007,-0.029 0.031,-0.05 0.025,-0.025 0.067,-0.039 0.046,-0.014 0.117,-0.02 l 0.12,-0.008 0.106,-0.007 q 0.053,-0.004 0.109,-0.004 h 0.13 q 0.209,0 0.392,0.004 0.187,0.004 0.395,0.014 0.085,0.007 0.13,0.021 0.047,0.011 0.071,0.032 0.025,0.021 0.029,0.05 0.007,0.028 0.007,0.063 0,0.064 -0.046,0.106 -0.043,0.042 -0.187,0.05 z" style="-inkscape-font-specification:'Sniglet, Normal';font-variant-ligatures:normal;font-variant-caps:normal;font-variant-numeric:normal;font-feature-settings:normal;text-align:start"/></g></g><path style="fill:none;stroke:#000;stroke-width:.132" id="path80" d="m 5.2697373,78.164212 h 3.039"/><g id="g120" aria-label="RESET" font-size="2.822" font-weight="400" letter-spacing="0" transform="translate(-26.543,-161.307)" word-spacing="0" style="font-weight:400;font-size:2.82200003px;line-height:1.25;font-family:Sniglet;letter-spacing:0;word-spacing:0;stroke-width:.26499999"><path id="path118" d="m 30.856,233.289 -0.082,0.006 h -0.178 q -0.048,0 -0.107,-0.006 v 0.573 q 0,0.09 -0.045,0.113 -0.042,0.02 -0.107,0.02 -0.034,0 -0.054,-0.006 -0.02,-0.003 -0.034,-0.015 -0.011,-0.014 -0.02,-0.04 -0.005,-0.024 -0.008,-0.07 -0.006,-0.05 -0.008,-0.146 l -0.006,-0.254 q 0,-0.156 -0.003,-0.376 v -0.522 q 0,-0.116 0.028,-0.223 0.029,-0.11 0.102,-0.192 0.073,-0.084 0.197,-0.135 0.127,-0.051 0.322,-0.051 0.139,0 0.268,0.031 0.133,0.031 0.235,0.107 0.101,0.076 0.163,0.206 0.062,0.13 0.062,0.325 0,0.26 -0.113,0.403 -0.11,0.142 -0.304,0.2 l 0.378,0.52 q 0.05,0.068 0.05,0.138 0,0.057 -0.039,0.088 -0.037,0.034 -0.093,0.034 -0.062,0 -0.107,-0.034 -0.045,-0.037 -0.085,-0.093 z m 0.443,-0.658 q 0,-0.194 -0.118,-0.288 -0.116,-0.096 -0.37,-0.096 -0.093,0 -0.155,0.017 -0.062,0.014 -0.1,0.057 -0.036,0.042 -0.053,0.118 -0.014,0.074 -0.014,0.19 v 0.191 q 0,0.11 0.003,0.2 0.065,0.004 0.144,0.004 h 0.152 q 0.08,0 0.167,-0.008 0.09,-0.012 0.166,-0.051 0.077,-0.042 0.127,-0.119 0.051,-0.079 0.051,-0.214 z m 0.548,0.923 -0.011,-0.245 q -0.006,-0.156 -0.006,-0.32 v -0.191 l 0.006,-0.206 q 0.005,-0.209 0.025,-0.328 0.023,-0.118 0.085,-0.177 0.065,-0.06 0.18,-0.074 0.116,-0.014 0.308,-0.014 h 0.06 q 0.059,0 0.14,0.003 0.082,0 0.17,0.003 l 0.15,0.006 q 0.062,0.006 0.098,0.017 0.04,0.008 0.06,0.025 0.02,0.015 0.025,0.037 0.006,0.02 0.006,0.045 0,0.065 -0.037,0.096 -0.037,0.029 -0.15,0.037 -0.056,0.006 -0.166,0.008 h -0.22 q -0.113,0 -0.204,0.003 h -0.112 q -0.074,0.003 -0.105,0.034 -0.028,0.028 -0.028,0.138 l 0.003,0.124 q 0.005,0.096 0.005,0.271 h 0.235 q 0.15,0 0.242,0.006 0.096,0.003 0.147,0.017 0.054,0.014 0.073,0.045 0.02,0.031 0.02,0.082 0,0.026 -0.005,0.048 -0.003,0.02 -0.023,0.037 -0.02,0.014 -0.057,0.025 -0.036,0.008 -0.104,0.014 -0.082,0.006 -0.155,0.008 h -0.378 v 0.345 q 0.002,0.06 0.005,0.096 0.003,0.045 0.012,0.076 0.01,0.03 0.036,0.05 0.028,0.02 0.08,0.029 0.053,0.008 0.14,0.008 h 0.607 q 0.099,0 0.124,0.037 0.026,0.036 0.026,0.098 0,0.051 -0.023,0.08 -0.022,0.025 -0.11,0.036 -0.085,0.014 -0.257,0.017 -0.17,0.003 -0.468,0.003 -0.127,0 -0.21,-0.023 -0.08,-0.022 -0.132,-0.076 -0.05,-0.053 -0.076,-0.138 -0.022,-0.088 -0.03,-0.212 z m 2.221,-1.564 q 0.079,0 0.18,0.015 0.105,0.011 0.195,0.045 0.09,0.031 0.153,0.085 0.062,0.05 0.062,0.127 0,0.045 -0.026,0.076 -0.025,0.03 -0.082,0.03 -0.042,0 -0.087,-0.016 -0.042,-0.017 -0.099,-0.034 -0.054,-0.02 -0.127,-0.037 -0.07,-0.017 -0.166,-0.017 -0.187,0 -0.277,0.068 -0.088,0.065 -0.088,0.18 0,0.08 0.04,0.133 0.04,0.054 0.104,0.094 0.068,0.036 0.15,0.062 0.085,0.025 0.172,0.048 0.099,0.025 0.195,0.062 0.099,0.036 0.175,0.096 0.076,0.059 0.121,0.15 0.048,0.09 0.048,0.228 0,0.144 -0.053,0.26 -0.054,0.112 -0.147,0.194 -0.093,0.08 -0.223,0.124 -0.13,0.043 -0.282,0.043 -0.085,0 -0.198,-0.017 -0.113,-0.014 -0.214,-0.051 -0.102,-0.04 -0.173,-0.102 -0.07,-0.065 -0.07,-0.158 0,-0.056 0.028,-0.09 0.031,-0.034 0.09,-0.034 0.048,0 0.08,0.02 0.03,0.017 0.053,0.04 0.085,0.073 0.192,0.098 0.107,0.026 0.22,0.026 0.065,0 0.136,-0.008 0.073,-0.012 0.132,-0.043 0.06,-0.03 0.099,-0.087 0.04,-0.06 0.04,-0.158 0,-0.09 -0.037,-0.147 -0.034,-0.06 -0.093,-0.099 -0.06,-0.04 -0.141,-0.065 -0.08,-0.025 -0.173,-0.05 -0.104,-0.029 -0.206,-0.063 -0.101,-0.033 -0.18,-0.09 -0.08,-0.06 -0.13,-0.147 -0.048,-0.09 -0.048,-0.228 0,-0.138 0.05,-0.243 0.052,-0.104 0.14,-0.175 0.087,-0.07 0.205,-0.107 0.121,-0.037 0.26,-0.037 z m 0.971,1.564 q -0.006,-0.09 -0.012,-0.245 -0.005,-0.156 -0.005,-0.32 v -0.191 l 0.005,-0.206 q 0.006,-0.209 0.026,-0.328 0.022,-0.118 0.084,-0.177 0.065,-0.06 0.181,-0.074 0.116,-0.014 0.308,-0.014 h 0.059 q 0.06,0 0.141,0.003 0.082,0 0.17,0.003 l 0.149,0.006 q 0.062,0.006 0.099,0.017 0.04,0.008 0.059,0.025 0.02,0.015 0.025,0.037 0.006,0.02 0.006,0.045 0,0.065 -0.037,0.096 -0.036,0.029 -0.15,0.037 -0.056,0.006 -0.166,0.008 h -0.22 q -0.113,0 -0.203,0.003 h -0.113 q -0.073,0.003 -0.104,0.034 -0.029,0.028 -0.029,0.138 l 0.003,0.124 q 0.006,0.096 0.006,0.271 h 0.234 q 0.15,0 0.243,0.006 0.096,0.003 0.147,0.017 0.053,0.014 0.073,0.045 0.02,0.031 0.02,0.082 0,0.026 -0.006,0.048 -0.003,0.02 -0.023,0.037 -0.02,0.014 -0.056,0.025 -0.037,0.008 -0.104,0.014 -0.082,0.006 -0.156,0.008 h -0.378 v 0.345 l 0.006,0.096 q 0.003,0.045 0.011,0.076 0.011,0.03 0.037,0.05 0.028,0.02 0.079,0.029 0.053,0.008 0.14,0.008 h 0.608 q 0.098,0 0.124,0.037 0.025,0.036 0.025,0.098 0,0.051 -0.022,0.08 -0.023,0.025 -0.11,0.036 -0.085,0.014 -0.257,0.017 -0.17,0.003 -0.469,0.003 -0.127,0 -0.209,-0.023 -0.081,-0.022 -0.132,-0.076 -0.051,-0.053 -0.076,-0.138 -0.023,-0.088 -0.031,-0.212 z m 2.657,-1.287 q -0.079,0.006 -0.17,0.008 l -0.194,0.006 0.006,0.144 0.005,0.133 q 0.003,0.068 0.003,0.141 0.003,0.073 0.003,0.164 v 0.245 q 0,0.116 -0.003,0.234 l -0.006,0.235 q -0.002,0.118 -0.008,0.245 -0.003,0.068 -0.014,0.105 -0.009,0.036 -0.026,0.056 -0.017,0.02 -0.04,0.023 -0.022,0.006 -0.05,0.006 -0.05,0 -0.087,-0.034 -0.034,-0.037 -0.04,-0.153 -0.006,-0.101 -0.008,-0.214 0,-0.113 -0.003,-0.243 -0.003,-0.13 -0.003,-0.28 v -0.335 -0.271 q 0.003,-0.116 0.008,-0.2 h -0.115 q -0.119,0 -0.203,-0.003 -0.082,-0.003 -0.136,-0.015 -0.054,-0.014 -0.079,-0.042 -0.022,-0.028 -0.022,-0.079 0,-0.025 0.005,-0.045 0.006,-0.023 0.026,-0.04 0.02,-0.02 0.053,-0.03 0.037,-0.012 0.093,-0.017 l 0.096,-0.006 0.085,-0.006 q 0.042,-0.003 0.087,-0.003 h 0.105 q 0.166,0 0.313,0.003 0.15,0.003 0.316,0.01 0.068,0.007 0.105,0.018 0.036,0.008 0.056,0.025 0.02,0.017 0.023,0.04 0.005,0.022 0.005,0.05 0,0.051 -0.036,0.085 -0.034,0.034 -0.15,0.04 z" style="-inkscape-font-specification:'Sniglet, Normal';font-variant-ligatures:normal;font-variant-caps:normal;font-variant-numeric:normal;font-feature-settings:normal;text-align:start"/></g><text style="font-style:normal;font-weight:400;font-size:10.58337021px;line-height:1.25;font-family:sans-serif;letter-spacing:0;word-spacing:0;fill:#000;fill-opacity:1;stroke:none;stroke-width:.26458427" id="text949" x="24.967" y="6.53" xml:space="preserve"><tspan id="tspan947" x="24.967" y="6.53" style="font-style:normal;font-variant:normal;font-weight:400;font-stretch:normal;font-size:4.23334837px;font-family:Sniglet;-inkscape-font-specification:'Sniglet, Normal';font-variant-ligatures:normal;font-variant-caps:normal;font-variant-numeric:normal;font-feature-settings:normal;text-align:start;writing-mode:lr-tb;text-anchor:start;stroke-width:.26458427">MIDI-FILE</tspan></text></svg>