<svg xmlns="http://www.w3.org/2000/svg" xmlns:svg="http://www.w3.org/2000/svg" id="svg56722" width="16" height="24" version="1.1" viewBox="0 0 4.233 6.35"><metadata id="metadata56719"/><g id="layer1" transform="translate(-30.16787,-64.48575)"><g style="stroke-width:1.2817142" id="g5827" transform="matrix(-0.31455887,0,0,0.32002822,34.401196,70.381953)"><path style="fill:#000;fill-opacity:1;fill-rule:nonzero;stroke:none;stroke-width:1.2817142" id="path5829" d="M 0,0 C 0,0.779 0.639,1.418 1.418,1.418 H 12.04 c 0.779,0 1.418,-0.639 1.418,-1.418 v -17.007 c 0,-0.779 -0.639,-1.417 -1.418,-1.417 H 1.418 C 0.639,-18.424 0,-17.786 0,-17.007 Z"/></g><g id="g5839" transform="matrix(-0.31455887,0,0,0.32002822,274.25479,-303.20785)" style="fill:#1a1a1a;fill-opacity:1;stroke-width:1.2817142"><g id="g5841" style="fill:#1a1a1a;fill-opacity:1;stroke-width:1.2817142"><path style="fill:#1a1a1a;fill-opacity:1;stroke:none;stroke-width:1.2817142" id="path5849" d="m 764.617,1167.502 c -0.468,0 -0.852,-0.382 -0.852,-0.85 v 0 -15.724 c 0,-0.468 0.384,-0.851 0.852,-0.851 v 0 h 9.239 c 0.467,0 0.85,0.383 0.85,0.851 v 0 15.724 c 0,0.468 -0.383,0.85 -0.85,0.85 v 0 z"/></g></g><path style="fill:#2e2e2e;fill-opacity:1;fill-rule:nonzero;stroke:#424242;stroke-width:.13229167;stroke-miterlimit:4;stroke-dasharray:none;stroke-opacity:1" id="path5859" d="m 34.005104,70.426053 h -3.441275 v -2.72152 h 3.441275 z"/><rect id="rect828" width="2.117" height=".397" x="-33.343" y="-69.264" ry=".033" transform="scale(-1)" style="opacity:1;vector-effect:none;fill:#f40;fill-opacity:1;stroke:none;stroke-width:.04536014;stroke-linecap:round;stroke-linejoin:miter;stroke-miterlimit:4;stroke-dasharray:none;stroke-dashoffset:0;stroke-opacity:1;paint-order:markers fill stroke"/></g></svg>