<svg xmlns="http://www.w3.org/2000/svg" xmlns:svg="http://www.w3.org/2000/svg" id="svg4541" width="90" height="380" version="1.1" viewBox="0 0 23.813 100.542"><metadata id="metadata4538"/><g id="layer3" transform="translate(0,8.0744425e-6)"><rect style="opacity:1;vector-effect:none;fill:#44423e;fill-opacity:1;stroke:none;stroke-width:.22310616;stroke-linecap:butt;stroke-linejoin:miter;stroke-miterlimit:4;stroke-dasharray:none;stroke-dashoffset:0;stroke-opacity:1" id="rect1709" width="23.813" height="100.542" x="0" y="0"/><g id="g1661" data-name="Layer 2" transform="matrix(2.0981223,0,0,2.0981223,-113.92693,-706.23002)" style="fill:#3c3835;fill-opacity:1"><g id="g1659" data-name="Layer 1-2" style="fill:#3c3835;fill-opacity:1"><path style="fill:#3c3835;fill-opacity:1" id="path1657" d="m 71.31,357 a 0.91,0.91 0 0 0 -0.41,-0.53 0.77,0.77 0 0 0 -0.64,-0.1 0.91,0.91 0 0 0 -0.53,0.41 43.94,43.94 0 0 1 -3.33,5.08 21.5,21.5 0 0 1 -2.08,-6.45 v -0.39 l 2,-2.81 c 0.24,-0.34 1.26,-1.56 -0.78,-2.45 a 3.15,3.15 0 0 0 -2.36,0.07 c -2.32,1 -1.92,4.26 -1.85,4.79 q 0,0.31 0.09,0.62 l -3.78,6.22 c 0,0 0.49,-3.26 0.58,-3.85 A 1.36,1.36 0 0 0 57.1,356 c -1,-0.24 -1.61,0.06 -2.27,2.65 -0.56,2.19 -2.54,7.64 -3.86,7.6 -0.78,0 -0.24,-3.41 0.68,-5.87 1.12,-2.95 3.78,-7 6.78,-8.83 0.69,-0.43 1.6,-1.5 0.66,-2.56 -1.19,-1.34 -2.46,-0.28 -3,0.13 a 14.68,14.68 0 0 0 -3.49,4.35 22.82,22.82 0 0 0 -2.81,6.33 c -1,3.25 -2.07,8.54 0.1,8.74 3,0.27 5.39,-5.56 5.39,-5.56 0,0 -0.13,3.05 1.4,3.13 1.53,0.08 4.51,-5.9 5.36,-7.92 a 22.36,22.36 0 0 0 2.5,5.55 2.87,2.87 0 0 1 0.14,0.39 c -0.34,0.47 -3.77,4.86 -4.77,7.5 a 0.82,0.82 0 0 0 0,0.72 0.79,0.79 0 0 0 0.5,0.42 1.12,1.12 0 0 0 0.74,-0.12 5.53,5.53 0 0 0 0.66,-0.35 c 4.83,-2.78 5.52,-6 5.17,-8.48 a 2.08,2.08 0 0 1 0.26,-0.4 42.2,42.2 0 0 0 3.89,-5.77 0.76,0.76 0 0 0 0.18,-0.65 z" class="cls-4"/></g></g><rect style="opacity:1;vector-effect:none;fill:#3c3835;fill-opacity:1;stroke:none;stroke-width:.22310618;stroke-linecap:butt;stroke-linejoin:miter;stroke-miterlimit:4;stroke-dasharray:none;stroke-dashoffset:0;stroke-opacity:1" id="rect1759" width="23.813" height="3.969" x="0" y="96.573"/><rect id="rect1806" width="23.813" height="3.969" x="0" y="0" style="opacity:1;vector-effect:none;fill:#3c3835;fill-opacity:1;stroke:none;stroke-width:.22310618;stroke-linecap:butt;stroke-linejoin:miter;stroke-miterlimit:4;stroke-dasharray:none;stroke-dashoffset:0;stroke-opacity:1"/><g style="display:inline" id="g2195" transform="translate(0,6.7027791)"><circle style="opacity:1;vector-effect:none;fill:#3c3835;fill-opacity:1;stroke:none;stroke-width:.19682446;stroke-linecap:butt;stroke-linejoin:miter;stroke-miterlimit:4;stroke-dasharray:none;stroke-dashoffset:0;stroke-opacity:1" id="circle1732" cx="11.906" cy="88.516" r="4"/><g style="fill:#fff7d4;fill-opacity:1" id="g1738" data-name="Layer 2" transform="matrix(0.17622025,0,0,0.17622025,1.337592,24.780751)"><g style="fill:#fff7d4;fill-opacity:1" id="g1736" data-name="Layer 1-2"><path id="path1734" d="m 71.31,357 a 0.91,0.91 0 0 0 -0.41,-0.53 0.77,0.77 0 0 0 -0.64,-0.1 0.91,0.91 0 0 0 -0.53,0.41 43.94,43.94 0 0 1 -3.33,5.08 21.5,21.5 0 0 1 -2.08,-6.45 v -0.39 l 2,-2.81 c 0.24,-0.34 1.26,-1.56 -0.78,-2.45 a 3.15,3.15 0 0 0 -2.36,0.07 c -2.32,1 -1.92,4.26 -1.85,4.79 q 0,0.31 0.09,0.62 l -3.78,6.22 c 0,0 0.49,-3.26 0.58,-3.85 A 1.36,1.36 0 0 0 57.1,356 c -1,-0.24 -1.61,0.06 -2.27,2.65 -0.56,2.19 -2.54,7.64 -3.86,7.6 -0.78,0 -0.24,-3.41 0.68,-5.87 1.12,-2.95 3.78,-7 6.78,-8.83 0.69,-0.43 1.6,-1.5 0.66,-2.56 -1.19,-1.34 -2.46,-0.28 -3,0.13 a 14.68,14.68 0 0 0 -3.49,4.35 22.82,22.82 0 0 0 -2.81,6.33 c -1,3.25 -2.07,8.54 0.1,8.74 3,0.27 5.39,-5.56 5.39,-5.56 0,0 -0.13,3.05 1.4,3.13 1.53,0.08 4.51,-5.9 5.36,-7.92 a 22.36,22.36 0 0 0 2.5,5.55 2.87,2.87 0 0 1 0.14,0.39 c -0.34,0.47 -3.77,4.86 -4.77,7.5 a 0.82,0.82 0 0 0 0,0.72 0.79,0.79 0 0 0 0.5,0.42 1.12,1.12 0 0 0 0.74,-0.12 5.53,5.53 0 0 0 0.66,-0.35 c 4.83,-2.78 5.52,-6 5.17,-8.48 a 2.08,2.08 0 0 1 0.26,-0.4 42.2,42.2 0 0 0 3.89,-5.77 0.76,0.76 0 0 0 0.18,-0.65 z" class="cls-4" style="fill:#fff7d4;fill-opacity:1"/></g></g></g><rect id="rect863" width="5" height="2.5" x="3.504" y="97.442" ry="1.392" style="display:inline;opacity:1;vector-effect:none;fill:#000;fill-opacity:1;stroke:none;stroke-width:.15187515;stroke-linecap:butt;stroke-linejoin:miter;stroke-miterlimit:4;stroke-dasharray:none;stroke-dashoffset:0;stroke-opacity:1"/><path style="display:inline;opacity:1;vector-effect:none;fill:#000;fill-opacity:1;stroke:none;stroke-width:.15187515;stroke-linecap:butt;stroke-linejoin:miter;stroke-miterlimit:4;stroke-dasharray:none;stroke-dashoffset:0;stroke-opacity:1" id="rect865" d="m 16.731164,97.441595 c -0.771421,0 -1.392162,0.557551 -1.392162,1.25005 0,0.692499 0.620741,1.25005 1.392162,1.25005 h 2.215371 c 0.77142,0 1.39216,-0.557551 1.39216,-1.25005 0,-0.692499 -0.62074,-1.25005 -1.39216,-1.25005 z"/><rect style="display:inline;opacity:1;vector-effect:none;fill:#000;fill-opacity:1;stroke:none;stroke-width:.15187515;stroke-linecap:butt;stroke-linejoin:miter;stroke-miterlimit:4;stroke-dasharray:none;stroke-dashoffset:0;stroke-opacity:1" id="rect861" width="5" height="2.5" x="3.504" y=".742" ry="1.392"/><path style="display:inline;opacity:1;vector-effect:none;fill:#000;fill-opacity:1;stroke:none;stroke-width:.15187515;stroke-linecap:butt;stroke-linejoin:miter;stroke-miterlimit:4;stroke-dasharray:none;stroke-dashoffset:0;stroke-opacity:1" id="path1191" d="m 16.731164,0.74151318 c -0.771421,0 -1.392162,0.55756002 -1.392162,1.25006002 0,0.6925 0.620741,1.25005 1.392162,1.25005 h 2.215371 c 0.77142,0 1.39216,-0.55755 1.39216,-1.25005 0,-0.6925 -0.62074,-1.25006002 -1.39216,-1.25006002 z"/><g id="g4038" transform="matrix(0.26458333,0,0,0.26458333,-521.68834,-363.22872)"><path id="path4014" d="m 1661.48,710.24 a 0.9,0.9 0 0 1 -0.26,-0.67 v -6.07 h -1.94 q -0.89,0 -0.89,-0.77 0,-0.77 0.89,-0.76 h 5.72 q 0.89,0 0.89,0.76 0,0.76 -0.89,0.77 h -1.94 v 6.07 a 0.91,0.91 0 0 1 -0.25,0.67 1,1 0 0 1 -1.36,0 z" transform="translate(319.8,697.39)" style="fill:#fff7d4"/><path id="path4016" d="m 1670,704.58 a 0.71,0.71 0 0 1 0.21,0.56 0.8,0.8 0 0 1 -0.19,0.59 1.12,1.12 0 0 1 -0.68,0.24 h -0.36 a 1.37,1.37 0 0 0 -1,0.43 1.41,1.41 0 0 0 -0.29,0.92 v 2.29 a 0.78,0.78 0 0 1 -0.26,0.64 1,1 0 0 1 -0.64,0.22 1,1 0 0 1 -0.65,-0.22 0.78,0.78 0 0 1 -0.26,-0.64 v -4.4 a 0.75,0.75 0 0 1 0.26,-0.61 1,1 0 0 1 0.64,-0.22 0.87,0.87 0 0 1 0.6,0.21 0.73,0.73 0 0 1 0.24,0.58 v 0.32 a 1.68,1.68 0 0 1 0.65,-0.79 2,2 0 0 1 1,-0.31 h 0.17 a 0.75,0.75 0 0 1 0.56,0.19 z" transform="translate(319.8,697.39)" style="fill:#fff7d4"/><path id="path4018" d="m 1671.08,703.22 a 0.85,0.85 0 0 1 -0.28,-0.67 0.83,0.83 0 0 1 0.28,-0.66 1.11,1.11 0 0 1 0.76,-0.24 1.1,1.1 0 0 1 0.75,0.25 0.82,0.82 0 0 1 0.28,0.65 0.85,0.85 0 0 1 -0.28,0.67 1.29,1.29 0 0 1 -1.51,0 z m 0.1,7.07 a 0.78,0.78 0 0 1 -0.26,-0.64 v -4.38 a 0.77,0.77 0 0 1 0.26,-0.64 1,1 0 0 1 0.65,-0.22 1,1 0 0 1 0.64,0.22 0.78,0.78 0 0 1 0.26,0.64 v 4.38 a 0.78,0.78 0 0 1 -0.26,0.64 1,1 0 0 1 -0.64,0.22 1,1 0 0 1 -0.65,-0.22 z" transform="translate(319.8,697.39)" style="fill:#fff7d4"/><path id="path4020" d="m 1680.13,704.66 a 0.81,0.81 0 0 1 0.25,0.62 v 4.52 a 2.73,2.73 0 0 1 -0.83,2.16 3.55,3.55 0 0 1 -2.42,0.73 4.51,4.51 0 0 1 -2.21,-0.48 1,1 0 0 1 -0.34,-0.29 0.67,0.67 0 0 1 -0.12,-0.39 0.8,0.8 0 0 1 0.14,-0.49 0.46,0.46 0 0 1 0.38,-0.19 1.11,1.11 0 0 1 0.31,0.05 l 0.37,0.13 a 7.11,7.11 0 0 0 0.71,0.23 2.74,2.74 0 0 0 0.7,0.08 1.62,1.62 0 0 0 1.14,-0.35 1.38,1.38 0 0 0 0.37,-1.06 v -0.65 a 1.77,1.77 0 0 1 -0.76,0.72 2.39,2.39 0 0 1 -1.13,0.26 2.57,2.57 0 0 1 -1.36,-0.36 2.46,2.46 0 0 1 -0.93,-1 3.71,3.71 0 0 1 0,-3.08 2.5,2.5 0 0 1 0.93,-1 2.54,2.54 0 0 1 1.36,-0.37 2.38,2.38 0 0 1 1.11,0.26 1.84,1.84 0 0 1 0.76,0.71 v -0.12 a 0.77,0.77 0 0 1 0.25,-0.61 0.94,0.94 0 0 1 0.65,-0.22 0.91,0.91 0 0 1 0.67,0.19 z m -1.91,3.82 a 1.68,1.68 0 0 0 0.35,-1.14 1.71,1.71 0 0 0 -0.35,-1.15 1.23,1.23 0 0 0 -1,-0.41 1.25,1.25 0 0 0 -1,0.41 1.69,1.69 0 0 0 -0.36,1.15 1.67,1.67 0 0 0 0.36,1.14 1.26,1.26 0 0 0 1,0.41 1.24,1.24 0 0 0 1,-0.41 z" transform="translate(319.8,697.39)" style="fill:#fff7d4"/><path id="path4022" d="m 1687.78,704.66 a 0.81,0.81 0 0 1 0.25,0.62 v 4.52 a 2.73,2.73 0 0 1 -0.83,2.16 3.55,3.55 0 0 1 -2.42,0.73 4.51,4.51 0 0 1 -2.21,-0.48 1,1 0 0 1 -0.34,-0.29 0.67,0.67 0 0 1 -0.12,-0.39 0.8,0.8 0 0 1 0.14,-0.49 0.46,0.46 0 0 1 0.38,-0.19 1.11,1.11 0 0 1 0.31,0.05 l 0.37,0.13 a 7.11,7.11 0 0 0 0.71,0.23 2.74,2.74 0 0 0 0.7,0.08 1.62,1.62 0 0 0 1.14,-0.35 1.38,1.38 0 0 0 0.37,-1.06 v -0.65 a 1.77,1.77 0 0 1 -0.76,0.72 2.39,2.39 0 0 1 -1.13,0.26 2.57,2.57 0 0 1 -1.36,-0.36 2.46,2.46 0 0 1 -0.93,-1 3.71,3.71 0 0 1 0,-3.08 2.5,2.5 0 0 1 0.93,-1 2.54,2.54 0 0 1 1.36,-0.37 2.38,2.38 0 0 1 1.11,0.26 1.84,1.84 0 0 1 0.76,0.71 v -0.12 a 0.77,0.77 0 0 1 0.25,-0.61 0.94,0.94 0 0 1 0.65,-0.22 0.91,0.91 0 0 1 0.67,0.19 z m -1.91,3.82 a 1.68,1.68 0 0 0 0.35,-1.14 1.71,1.71 0 0 0 -0.35,-1.15 1.23,1.23 0 0 0 -1,-0.41 1.25,1.25 0 0 0 -1,0.41 1.69,1.69 0 0 0 -0.36,1.15 1.67,1.67 0 0 0 0.36,1.14 1.26,1.26 0 0 0 1,0.41 1.24,1.24 0 0 0 1,-0.41 z" transform="translate(319.8,697.39)" style="fill:#fff7d4"/><path id="path4024" d="m 1694.77,708.87 a 0.78,0.78 0 0 1 0.15,0.49 0.65,0.65 0 0 1 -0.12,0.38 1,1 0 0 1 -0.34,0.29 4.26,4.26 0 0 1 -0.95,0.35 4.06,4.06 0 0 1 -1,0.14 3.57,3.57 0 0 1 -1.67,-0.37 2.6,2.6 0 0 1 -1.1,-1.06 3.29,3.29 0 0 1 -0.38,-1.63 3.34,3.34 0 0 1 0.37,-1.6 2.73,2.73 0 0 1 1,-1.09 2.89,2.89 0 0 1 1.5,-0.39 2.75,2.75 0 0 1 1.41,0.35 2.42,2.42 0 0 1 0.94,1 3.31,3.31 0 0 1 0.34,1.53 0.58,0.58 0 0 1 -0.13,0.4 0.46,0.46 0 0 1 -0.35,0.14 h -3.36 a 1.6,1.6 0 0 0 0.43,1 1.43,1.43 0 0 0 1,0.32 2.12,2.12 0 0 0 0.62,-0.08 5.93,5.93 0 0 0 0.61,-0.23 l 0.32,-0.13 a 0.85,0.85 0 0 1 0.28,-0.05 0.47,0.47 0 0 1 0.43,0.24 z m -3.28,-2.9 a 1.57,1.57 0 0 0 -0.37,1 h 2.32 a 1.57,1.57 0 0 0 -0.32,-1 1,1 0 0 0 -0.8,-0.32 1.09,1.09 0 0 0 -0.83,0.35 z" transform="translate(319.8,697.39)" style="fill:#fff7d4"/><path id="path4026" d="m 1700.38,704.58 a 0.71,0.71 0 0 1 0.21,0.56 0.8,0.8 0 0 1 -0.19,0.59 1.12,1.12 0 0 1 -0.68,0.24 h -0.36 a 1.37,1.37 0 0 0 -1,0.43 1.42,1.42 0 0 0 -0.29,0.92 v 2.29 a 0.78,0.78 0 0 1 -0.26,0.64 1,1 0 0 1 -0.64,0.22 1,1 0 0 1 -0.65,-0.22 0.78,0.78 0 0 1 -0.26,-0.64 v -4.4 a 0.74,0.74 0 0 1 0.26,-0.61 1,1 0 0 1 0.64,-0.22 0.88,0.88 0 0 1 0.6,0.21 0.73,0.73 0 0 1 0.24,0.58 v 0.32 a 1.67,1.67 0 0 1 0.65,-0.79 2,2 0 0 1 1,-0.31 h 0.17 a 0.75,0.75 0 0 1 0.56,0.19 z" transform="translate(319.8,697.39)" style="fill:#fff7d4"/><path id="path4028" d="m 1702.24,710.41 a 2.88,2.88 0 0 1 -0.95,-0.38 0.74,0.74 0 0 1 -0.28,-0.29 0.85,0.85 0 0 1 -0.1,-0.41 0.69,0.69 0 0 1 0.16,-0.46 0.48,0.48 0 0 1 0.38,-0.19 0.94,0.94 0 0 1 0.31,0.05 l 0.32,0.13 a 4.31,4.31 0 0 0 0.66,0.25 3.07,3.07 0 0 0 0.8,0.09 1.34,1.34 0 0 0 0.65,-0.13 0.4,0.4 0 0 0 0.23,-0.36 0.36,0.36 0 0 0 -0.1,-0.27 1,1 0 0 0 -0.38,-0.19 q -0.28,-0.08 -0.88,-0.2 a 3.31,3.31 0 0 1 -1.54,-0.61 1.44,1.44 0 0 1 -0.47,-1.14 1.56,1.56 0 0 1 0.33,-1 2.19,2.19 0 0 1 0.91,-0.68 3.27,3.27 0 0 1 1.3,-0.25 3.88,3.88 0 0 1 1,0.13 3.2,3.2 0 0 1 0.88,0.37 0.8,0.8 0 0 1 0.22,1.15 0.48,0.48 0 0 1 -0.38,0.19 1.4,1.4 0 0 1 -0.66,-0.22 3.62,3.62 0 0 0 -0.55,-0.23 2,2 0 0 0 -0.58,-0.08 1.08,1.08 0 0 0 -0.59,0.14 0.43,0.43 0 0 0 -0.22,0.38 0.42,0.42 0 0 0 0.25,0.38 4,4 0 0 0 1,0.26 5.2,5.2 0 0 1 1.26,0.38 1.52,1.52 0 0 1 0.66,0.56 1.62,1.62 0 0 1 0.2,0.85 1.59,1.59 0 0 1 -0.7,1.36 3.16,3.16 0 0 1 -1.88,0.5 5.92,5.92 0 0 1 -1.26,-0.08 z" transform="translate(319.8,697.39)" style="fill:#fff7d4"/><path id="path4030" d="m 1719.25,702.17 a 0.93,0.93 0 0 1 0.25,0.67 v 6.82 a 0.84,0.84 0 0 1 -0.23,0.62 0.81,0.81 0 0 1 -0.6,0.23 0.79,0.79 0 0 1 -0.59,-0.23 0.84,0.84 0 0 1 -0.23,-0.62 v -4.24 l -1.7,3.2 a 1.33,1.33 0 0 1 -0.37,0.46 0.84,0.84 0 0 1 -0.94,0 1.28,1.28 0 0 1 -0.37,-0.46 l -1.7,-3.14 v 4.18 a 0.85,0.85 0 0 1 -0.23,0.62 0.88,0.88 0 0 1 -1.19,0 0.84,0.84 0 0 1 -0.23,-0.62 v -6.82 a 0.93,0.93 0 0 1 0.25,-0.67 0.85,0.85 0 0 1 0.64,-0.26 1,1 0 0 1 0.88,0.61 l 2.44,4.62 2.42,-4.62 a 1,1 0 0 1 0.86,-0.61 0.85,0.85 0 0 1 0.64,0.26 z" transform="translate(319.8,697.39)" style="fill:#fff7d4"/><path id="path4032" d="m 1728.57,709.63 a 0.8,0.8 0 0 1 -0.26,0.59 0.83,0.83 0 0 1 -0.59,0.25 0.93,0.93 0 0 1 -0.68,-0.31 l -3.72,-3.64 v 3 a 0.94,0.94 0 1 1 -1.87,0 v -6.73 a 0.91,0.91 0 0 1 0.25,-0.67 1.05,1.05 0 0 1 1.37,0 0.91,0.91 0 0 1 0.25,0.67 v 2.87 l 3.62,-3.52 a 0.83,0.83 0 0 1 0.6,-0.26 0.82,0.82 0 0 1 0.59,0.25 0.79,0.79 0 0 1 0.25,0.58 0.84,0.84 0 0 1 -0.29,0.62 l -2.86,2.68 3.06,3 a 0.84,0.84 0 0 1 0.28,0.62 z" transform="translate(319.8,697.39)" style="fill:#fff7d4"/><path id="path4034" d="m 1730.07,710.25 a 0.92,0.92 0 0 1 -0.25,-0.68 v -6.73 a 0.91,0.91 0 0 1 0.25,-0.67 1.05,1.05 0 0 1 1.37,0 0.91,0.91 0 0 1 0.25,0.67 v 6.73 a 1,1 0 0 1 -1.62,0.68 z" transform="translate(319.8,697.39)" style="fill:#fff7d4"/><path id="path4036" d="m 1733.86,710.25 a 0.92,0.92 0 0 1 -0.25,-0.68 v -6.73 a 0.91,0.91 0 0 1 0.25,-0.67 1.05,1.05 0 0 1 1.37,0 0.91,0.91 0 0 1 0.25,0.67 v 6.73 a 1,1 0 0 1 -1.62,0.68 z" transform="translate(319.8,697.39)" style="fill:#fff7d4"/></g><g id="g10005"><g id="g4004" transform="matrix(0.26458333,0,0,0.26458333,-516.46185,-327.41246)"><path style="fill:#fff7d4" id="path3994" d="m 1682.63,664.74 a 0.49,0.49 0 0 1 -0.13,-0.37 v -4.86 a 0.5,0.5 0 0 1 0.53,-0.53 0.53,0.53 0 0 1 0.39,0.15 0.52,0.52 0 0 1 0.15,0.39 V 664 h 2.33 q 0.5,0 0.5,0.44 0,0.44 -0.5,0.44 h -2.9 a 0.51,0.51 0 0 1 -0.37,-0.14 z" transform="translate(319.8,697.39)"/><path style="fill:#fff7d4" id="path3996" d="m 1693.23,664.45 a 0.41,0.41 0 0 1 -0.15,0.32 0.53,0.53 0 0 1 -0.35,0.13 0.46,0.46 0 0 1 -0.43,-0.29 l -0.5,-1.11 h -2.92 l -0.5,1.11 a 0.48,0.48 0 0 1 -0.18,0.22 0.49,0.49 0 0 1 -0.26,0.07 0.53,0.53 0 0 1 -0.35,-0.13 0.41,0.41 0 0 1 -0.16,-0.32 0.51,0.51 0 0 1 0,-0.22 l 2.29,-4.92 a 0.54,0.54 0 0 1 0.23,-0.25 0.66,0.66 0 0 1 0.66,0 0.54,0.54 0 0 1 0.23,0.25 l 2.3,4.92 a 0.51,0.51 0 0 1 0.09,0.22 z m -4,-1.78 h 2.19 l -1.1,-2.46 z" transform="translate(319.8,697.39)"/><path style="fill:#fff7d4" id="path3998" d="m 1699.25,662.36 a 1.49,1.49 0 0 1 0.28,0.91 1.41,1.41 0 0 1 -0.54,1.17 2.31,2.31 0 0 1 -1.47,0.42 h -2.14 a 0.52,0.52 0 0 1 -0.38,-0.13 0.49,0.49 0 0 1 -0.14,-0.37 v -4.84 a 0.49,0.49 0 0 1 0.14,-0.37 0.52,0.52 0 0 1 0.38,-0.13 h 2.06 a 2.28,2.28 0 0 1 1.43,0.4 1.47,1.47 0 0 1 0.27,1.93 0.54,0.54 0 1 0 0.11,1 z m -3.34,-0.88 h 1.35 q 1.1,0 1.1,-0.82 a 0.71,0.71 0 0 0 -0.27,-0.61 1.41,1.41 0 0 0 -0.83,-0.2 h -1.35 z m 2.34,2.35 a 0.77,0.77 0 0 0 0.27,-0.65 0.79,0.79 0 0 0 -0.27,-0.66 1.34,1.34 0 0 0 -0.84,-0.22 h -1.49 v 1.7 h 1.49 a 1.38,1.38 0 0 0 0.84,-0.17 z" transform="translate(319.8,697.39)"/><path style="fill:#fff7d4" id="path4000" d="m 1701.5,664.74 a 0.49,0.49 0 0 1 -0.14,-0.37 v -4.84 a 0.49,0.49 0 0 1 0.14,-0.37 0.52,0.52 0 0 1 0.38,-0.13 h 3 a 0.58,0.58 0 0 1 0.37,0.11 0.37,0.37 0 0 1 0.13,0.31 0.39,0.39 0 0 1 -0.13,0.32 0.56,0.56 0 0 1 -0.37,0.11 h -2.46 v 1.61 h 2.3 a 0.57,0.57 0 0 1 0.37,0.11 0.38,0.38 0 0 1 0.13,0.32 0.37,0.37 0 0 1 -0.13,0.31 0.58,0.58 0 0 1 -0.37,0.11 h -2.3 V 664 h 2.46 a 0.56,0.56 0 0 1 0.37,0.11 0.39,0.39 0 0 1 0.13,0.32 0.37,0.37 0 0 1 -0.13,0.31 0.57,0.57 0 0 1 -0.37,0.11 h -3 a 0.52,0.52 0 0 1 -0.38,-0.11 z" transform="translate(319.8,697.39)"/><path style="fill:#fff7d4" id="path4002" d="m 1707.22,664.74 a 0.49,0.49 0 0 1 -0.13,-0.37 v -4.86 a 0.5,0.5 0 0 1 0.53,-0.53 0.53,0.53 0 0 1 0.39,0.15 0.52,0.52 0 0 1 0.15,0.39 V 664 h 2.33 q 0.5,0 0.5,0.44 0,0.44 -0.5,0.44 h -2.9 a 0.51,0.51 0 0 1 -0.37,-0.14 z" transform="translate(319.8,697.39)"/></g><g id="g4012" transform="matrix(0.26458333,0,0,0.26458333,-523.07866,-341.90873)"><path style="fill:#fff7d4" id="path4006" d="m 1689.28,677.77 a 2,2 0 0 1 -0.81,-0.86 3.11,3.11 0 0 1 0,-2.6 2,2 0 0 1 0.81,-0.85 2.73,2.73 0 0 1 2.48,0 2,2 0 0 1 0.81,0.85 3.12,3.12 0 0 1 0,2.6 2,2 0 0 1 -0.81,0.86 2.7,2.7 0 0 1 -2.48,0 z m 2.18,-0.94 a 2.33,2.33 0 0 0 0,-2.43 1.27,1.27 0 0 0 -1.89,0 2.36,2.36 0 0 0 0,2.43 1.26,1.26 0 0 0 1.88,0 z" transform="translate(319.8,697.39)"/><path style="fill:#fff7d4" id="path4008" d="m 1694.85,677.55 a 2,2 0 0 1 -0.53,-1.52 v -2.33 a 0.49,0.49 0 0 1 0.52,-0.52 0.5,0.5 0 0 1 0.38,0.14 0.52,0.52 0 0 1 0.14,0.38 v 2.37 a 1.28,1.28 0 0 0 0.26,0.87 1.11,1.11 0 0 0 1.52,0 1.28,1.28 0 0 0 0.27,-0.87 v -2.37 a 0.52,0.52 0 0 1 0.14,-0.38 0.5,0.5 0 0 1 0.38,-0.14 0.49,0.49 0 0 1 0.52,0.52 v 2.3 a 2,2 0 0 1 -0.53,1.52 2.52,2.52 0 0 1 -3.07,0 z" transform="translate(319.8,697.39)"/><path style="fill:#fff7d4" id="path4010" d="m 1701.31,677.9 a 0.51,0.51 0 0 1 -0.15,-0.38 v -3.44 h -1.1 q -0.5,0 -0.5,-0.44 0,-0.44 0.5,-0.43 h 3.26 q 0.5,0 0.5,0.43 0,0.43 -0.5,0.44 h -1.1 v 3.44 a 0.51,0.51 0 0 1 -0.14,0.38 0.59,0.59 0 0 1 -0.77,0 z" transform="translate(319.8,697.39)"/></g><g id="g4047" transform="matrix(0.26458333,0,0,0.26458333,-523.91781,-338.14899)"><path style="fill:#fff7d4" id="path4041" d="m 1691.49,689.94 a 0.5,0.5 0 0 1 -0.13,-0.37 v -3.8 a 0.45,0.45 0 0 1 0.5,-0.5 h 2.41 q 0.5,0 0.5,0.41 0,0.41 -0.5,0.42 h -1.87 v 1.12 h 1.73 c 0.34,0 0.5,0.14 0.5,0.41 0,0.27 -0.17,0.41 -0.5,0.41 h -1.73 v 1.2 h 1.87 q 0.5,0 0.5,0.41 0,0.41 -0.5,0.41 h -2.41 a 0.5,0.5 0 0 1 -0.37,-0.12 z" transform="translate(319.8,697.39)"/><path style="fill:#fff7d4" id="path4043" d="m 1700,689.62 a 0.46,0.46 0 0 1 -0.15,0.34 0.49,0.49 0 0 1 -0.35,0.15 0.44,0.44 0 0 1 -0.35,-0.17 l -1.28,-1.56 -1.29,1.56 a 0.45,0.45 0 0 1 -0.35,0.17 0.48,0.48 0 0 1 -0.34,-0.15 0.46,0.46 0 0 1 -0.15,-0.34 0.48,0.48 0 0 1 0.12,-0.31 l 1.39,-1.66 -1.35,-1.61 a 0.47,0.47 0 0 1 -0.13,-0.31 0.46,0.46 0 0 1 0.15,-0.34 0.49,0.49 0 0 1 0.34,-0.15 0.45,0.45 0 0 1 0.35,0.18 l 1.24,1.5 1.23,-1.5 a 0.45,0.45 0 0 1 0.35,-0.18 0.48,0.48 0 0 1 0.34,0.15 0.46,0.46 0 0 1 0.15,0.34 0.47,0.47 0 0 1 -0.12,0.31 l -1.35,1.61 1.39,1.66 a 0.47,0.47 0 0 1 0.16,0.31 z" transform="translate(319.8,697.39)"/><path style="fill:#fff7d4" id="path4045" d="m 1702.56,690 a 0.51,0.51 0 0 1 -0.15,-0.38 v -3.44 h -1.1 q -0.5,0 -0.5,-0.44 0,-0.44 0.5,-0.43 h 3.26 q 0.5,0 0.5,0.43 0,0.43 -0.5,0.44 h -1.1 v 3.44 a 0.51,0.51 0 0 1 -0.14,0.38 0.59,0.59 0 0 1 -0.77,0 z" transform="translate(319.8,697.39)"/></g></g><g id="g10035" transform="translate(0,40.216667)"><g id="g10017" transform="matrix(0.26458333,0,0,0.26458333,-516.46185,-327.41246)"><path id="path10007" d="m 1682.63,664.74 a 0.49,0.49 0 0 1 -0.13,-0.37 v -4.86 a 0.5,0.5 0 0 1 0.53,-0.53 0.53,0.53 0 0 1 0.39,0.15 0.52,0.52 0 0 1 0.15,0.39 V 664 h 2.33 q 0.5,0 0.5,0.44 0,0.44 -0.5,0.44 h -2.9 a 0.51,0.51 0 0 1 -0.37,-0.14 z" transform="translate(319.8,697.39)" style="fill:#fff7d4"/><path id="path10009" d="m 1693.23,664.45 a 0.41,0.41 0 0 1 -0.15,0.32 0.53,0.53 0 0 1 -0.35,0.13 0.46,0.46 0 0 1 -0.43,-0.29 l -0.5,-1.11 h -2.92 l -0.5,1.11 a 0.48,0.48 0 0 1 -0.18,0.22 0.49,0.49 0 0 1 -0.26,0.07 0.53,0.53 0 0 1 -0.35,-0.13 0.41,0.41 0 0 1 -0.16,-0.32 0.51,0.51 0 0 1 0,-0.22 l 2.29,-4.92 a 0.54,0.54 0 0 1 0.23,-0.25 0.66,0.66 0 0 1 0.66,0 0.54,0.54 0 0 1 0.23,0.25 l 2.3,4.92 a 0.51,0.51 0 0 1 0.09,0.22 z m -4,-1.78 h 2.19 l -1.1,-2.46 z" transform="translate(319.8,697.39)" style="fill:#fff7d4"/><path id="path10011" d="m 1699.25,662.36 a 1.49,1.49 0 0 1 0.28,0.91 1.41,1.41 0 0 1 -0.54,1.17 2.31,2.31 0 0 1 -1.47,0.42 h -2.14 a 0.52,0.52 0 0 1 -0.38,-0.13 0.49,0.49 0 0 1 -0.14,-0.37 v -4.84 a 0.49,0.49 0 0 1 0.14,-0.37 0.52,0.52 0 0 1 0.38,-0.13 h 2.06 a 2.28,2.28 0 0 1 1.43,0.4 1.47,1.47 0 0 1 0.27,1.93 0.54,0.54 0 1 0 0.11,1 z m -3.34,-0.88 h 1.35 q 1.1,0 1.1,-0.82 a 0.71,0.71 0 0 0 -0.27,-0.61 1.41,1.41 0 0 0 -0.83,-0.2 h -1.35 z m 2.34,2.35 a 0.77,0.77 0 0 0 0.27,-0.65 0.79,0.79 0 0 0 -0.27,-0.66 1.34,1.34 0 0 0 -0.84,-0.22 h -1.49 v 1.7 h 1.49 a 1.38,1.38 0 0 0 0.84,-0.17 z" transform="translate(319.8,697.39)" style="fill:#fff7d4"/><path id="path10013" d="m 1701.5,664.74 a 0.49,0.49 0 0 1 -0.14,-0.37 v -4.84 a 0.49,0.49 0 0 1 0.14,-0.37 0.52,0.52 0 0 1 0.38,-0.13 h 3 a 0.58,0.58 0 0 1 0.37,0.11 0.37,0.37 0 0 1 0.13,0.31 0.39,0.39 0 0 1 -0.13,0.32 0.56,0.56 0 0 1 -0.37,0.11 h -2.46 v 1.61 h 2.3 a 0.57,0.57 0 0 1 0.37,0.11 0.38,0.38 0 0 1 0.13,0.32 0.37,0.37 0 0 1 -0.13,0.31 0.58,0.58 0 0 1 -0.37,0.11 h -2.3 V 664 h 2.46 a 0.56,0.56 0 0 1 0.37,0.11 0.39,0.39 0 0 1 0.13,0.32 0.37,0.37 0 0 1 -0.13,0.31 0.57,0.57 0 0 1 -0.37,0.11 h -3 a 0.52,0.52 0 0 1 -0.38,-0.11 z" transform="translate(319.8,697.39)" style="fill:#fff7d4"/><path id="path10015" d="m 1707.22,664.74 a 0.49,0.49 0 0 1 -0.13,-0.37 v -4.86 a 0.5,0.5 0 0 1 0.53,-0.53 0.53,0.53 0 0 1 0.39,0.15 0.52,0.52 0 0 1 0.15,0.39 V 664 h 2.33 q 0.5,0 0.5,0.44 0,0.44 -0.5,0.44 h -2.9 a 0.51,0.51 0 0 1 -0.37,-0.14 z" transform="translate(319.8,697.39)" style="fill:#fff7d4"/></g><g id="g10025" transform="matrix(0.26458333,0,0,0.26458333,-523.07866,-341.90873)"><path id="path10019" d="m 1689.28,677.77 a 2,2 0 0 1 -0.81,-0.86 3.11,3.11 0 0 1 0,-2.6 2,2 0 0 1 0.81,-0.85 2.73,2.73 0 0 1 2.48,0 2,2 0 0 1 0.81,0.85 3.12,3.12 0 0 1 0,2.6 2,2 0 0 1 -0.81,0.86 2.7,2.7 0 0 1 -2.48,0 z m 2.18,-0.94 a 2.33,2.33 0 0 0 0,-2.43 1.27,1.27 0 0 0 -1.89,0 2.36,2.36 0 0 0 0,2.43 1.26,1.26 0 0 0 1.88,0 z" transform="translate(319.8,697.39)" style="fill:#fff7d4"/><path id="path10021" d="m 1694.85,677.55 a 2,2 0 0 1 -0.53,-1.52 v -2.33 a 0.49,0.49 0 0 1 0.52,-0.52 0.5,0.5 0 0 1 0.38,0.14 0.52,0.52 0 0 1 0.14,0.38 v 2.37 a 1.28,1.28 0 0 0 0.26,0.87 1.11,1.11 0 0 0 1.52,0 1.28,1.28 0 0 0 0.27,-0.87 v -2.37 a 0.52,0.52 0 0 1 0.14,-0.38 0.5,0.5 0 0 1 0.38,-0.14 0.49,0.49 0 0 1 0.52,0.52 v 2.3 a 2,2 0 0 1 -0.53,1.52 2.52,2.52 0 0 1 -3.07,0 z" transform="translate(319.8,697.39)" style="fill:#fff7d4"/><path id="path10023" d="m 1701.31,677.9 a 0.51,0.51 0 0 1 -0.15,-0.38 v -3.44 h -1.1 q -0.5,0 -0.5,-0.44 0,-0.44 0.5,-0.43 h 3.26 q 0.5,0 0.5,0.43 0,0.43 -0.5,0.44 h -1.1 v 3.44 a 0.51,0.51 0 0 1 -0.14,0.38 0.59,0.59 0 0 1 -0.77,0 z" transform="translate(319.8,697.39)" style="fill:#fff7d4"/></g><g id="g10033" transform="matrix(0.26458333,0,0,0.26458333,-523.91781,-338.14899)"><path id="path10027" d="m 1691.49,689.94 a 0.5,0.5 0 0 1 -0.13,-0.37 v -3.8 a 0.45,0.45 0 0 1 0.5,-0.5 h 2.41 q 0.5,0 0.5,0.41 0,0.41 -0.5,0.42 h -1.87 v 1.12 h 1.73 c 0.34,0 0.5,0.14 0.5,0.41 0,0.27 -0.17,0.41 -0.5,0.41 h -1.73 v 1.2 h 1.87 q 0.5,0 0.5,0.41 0,0.41 -0.5,0.41 h -2.41 a 0.5,0.5 0 0 1 -0.37,-0.12 z" transform="translate(319.8,697.39)" style="fill:#fff7d4"/><path id="path10029" d="m 1700,689.62 a 0.46,0.46 0 0 1 -0.15,0.34 0.49,0.49 0 0 1 -0.35,0.15 0.44,0.44 0 0 1 -0.35,-0.17 l -1.28,-1.56 -1.29,1.56 a 0.45,0.45 0 0 1 -0.35,0.17 0.48,0.48 0 0 1 -0.34,-0.15 0.46,0.46 0 0 1 -0.15,-0.34 0.48,0.48 0 0 1 0.12,-0.31 l 1.39,-1.66 -1.35,-1.61 a 0.47,0.47 0 0 1 -0.13,-0.31 0.46,0.46 0 0 1 0.15,-0.34 0.49,0.49 0 0 1 0.34,-0.15 0.45,0.45 0 0 1 0.35,0.18 l 1.24,1.5 1.23,-1.5 a 0.45,0.45 0 0 1 0.35,-0.18 0.48,0.48 0 0 1 0.34,0.15 0.46,0.46 0 0 1 0.15,0.34 0.47,0.47 0 0 1 -0.12,0.31 l -1.35,1.61 1.39,1.66 a 0.47,0.47 0 0 1 0.16,0.31 z" transform="translate(319.8,697.39)" style="fill:#fff7d4"/><path id="path10031" d="m 1702.56,690 a 0.51,0.51 0 0 1 -0.15,-0.38 v -3.44 h -1.1 q -0.5,0 -0.5,-0.44 0,-0.44 0.5,-0.43 h 3.26 q 0.5,0 0.5,0.43 0,0.43 -0.5,0.44 h -1.1 v 3.44 a 0.51,0.51 0 0 1 -0.14,0.38 0.59,0.59 0 0 1 -0.77,0 z" transform="translate(319.8,697.39)" style="fill:#fff7d4"/></g></g></g></svg>