<svg xmlns="http://www.w3.org/2000/svg" xmlns:svg="http://www.w3.org/2000/svg" id="svg4541" width="90" height="380" version="1.1" viewBox="0 0 23.813 100.542"><metadata id="metadata4538"/><g id="layer3" transform="translate(0,8.0744425e-6)"><rect style="opacity:1;vector-effect:none;fill:#44423e;fill-opacity:1;stroke:none;stroke-width:.22310616;stroke-linecap:butt;stroke-linejoin:miter;stroke-miterlimit:4;stroke-dasharray:none;stroke-dashoffset:0;stroke-opacity:1" id="rect1709" width="23.813" height="100.542" x="0" y="0"/><g id="g1661" data-name="Layer 2" transform="matrix(2.0981223,0,0,2.0981223,-113.92693,-706.23002)" style="fill:#3c3835;fill-opacity:1"><g id="g1659" data-name="Layer 1-2" style="fill:#3c3835;fill-opacity:1"><path style="fill:#3c3835;fill-opacity:1" id="path1657" d="m 71.31,357 a 0.91,0.91 0 0 0 -0.41,-0.53 0.77,0.77 0 0 0 -0.64,-0.1 0.91,0.91 0 0 0 -0.53,0.41 43.94,43.94 0 0 1 -3.33,5.08 21.5,21.5 0 0 1 -2.08,-6.45 v -0.39 l 2,-2.81 c 0.24,-0.34 1.26,-1.56 -0.78,-2.45 a 3.15,3.15 0 0 0 -2.36,0.07 c -2.32,1 -1.92,4.26 -1.85,4.79 q 0,0.31 0.09,0.62 l -3.78,6.22 c 0,0 0.49,-3.26 0.58,-3.85 A 1.36,1.36 0 0 0 57.1,356 c -1,-0.24 -1.61,0.06 -2.27,2.65 -0.56,2.19 -2.54,7.64 -3.86,7.6 -0.78,0 -0.24,-3.41 0.68,-5.87 1.12,-2.95 3.78,-7 6.78,-8.83 0.69,-0.43 1.6,-1.5 0.66,-2.56 -1.19,-1.34 -2.46,-0.28 -3,0.13 a 14.68,14.68 0 0 0 -3.49,4.35 22.82,22.82 0 0 0 -2.81,6.33 c -1,3.25 -2.07,8.54 0.1,8.74 3,0.27 5.39,-5.56 5.39,-5.56 0,0 -0.13,3.05 1.4,3.13 1.53,0.08 4.51,-5.9 5.36,-7.92 a 22.36,22.36 0 0 0 2.5,5.55 2.87,2.87 0 0 1 0.14,0.39 c -0.34,0.47 -3.77,4.86 -4.77,7.5 a 0.82,0.82 0 0 0 0,0.72 0.79,0.79 0 0 0 0.5,0.42 1.12,1.12 0 0 0 0.74,-0.12 5.53,5.53 0 0 0 0.66,-0.35 c 4.83,-2.78 5.52,-6 5.17,-8.48 a 2.08,2.08 0 0 1 0.26,-0.4 42.2,42.2 0 0 0 3.89,-5.77 0.76,0.76 0 0 0 0.18,-0.65 z" class="cls-4"/></g></g><rect style="opacity:1;vector-effect:none;fill:#3c3835;fill-opacity:1;stroke:none;stroke-width:.22310618;stroke-linecap:butt;stroke-linejoin:miter;stroke-miterlimit:4;stroke-dasharray:none;stroke-dashoffset:0;stroke-opacity:1" id="rect1759" width="23.813" height="3.969" x="0" y="96.573"/><rect id="rect1806" width="23.813" height="3.969" x="0" y="0" style="opacity:1;vector-effect:none;fill:#3c3835;fill-opacity:1;stroke:none;stroke-width:.22310618;stroke-linecap:butt;stroke-linejoin:miter;stroke-miterlimit:4;stroke-dasharray:none;stroke-dashoffset:0;stroke-opacity:1"/><g style="display:inline" id="g2195" transform="translate(0,6.7027791)"><circle style="opacity:1;vector-effect:none;fill:#3c3835;fill-opacity:1;stroke:none;stroke-width:.19682446;stroke-linecap:butt;stroke-linejoin:miter;stroke-miterlimit:4;stroke-dasharray:none;stroke-dashoffset:0;stroke-opacity:1" id="circle1732" cx="11.906" cy="88.516" r="4"/><g style="fill:#fff7d4;fill-opacity:1" id="g1738" data-name="Layer 2" transform="matrix(0.17622025,0,0,0.17622025,1.337592,24.780751)"><g style="fill:#fff7d4;fill-opacity:1" id="g1736" data-name="Layer 1-2"><path id="path1734" d="m 71.31,357 a 0.91,0.91 0 0 0 -0.41,-0.53 0.77,0.77 0 0 0 -0.64,-0.1 0.91,0.91 0 0 0 -0.53,0.41 43.94,43.94 0 0 1 -3.33,5.08 21.5,21.5 0 0 1 -2.08,-6.45 v -0.39 l 2,-2.81 c 0.24,-0.34 1.26,-1.56 -0.78,-2.45 a 3.15,3.15 0 0 0 -2.36,0.07 c -2.32,1 -1.92,4.26 -1.85,4.79 q 0,0.31 0.09,0.62 l -3.78,6.22 c 0,0 0.49,-3.26 0.58,-3.85 A 1.36,1.36 0 0 0 57.1,356 c -1,-0.24 -1.61,0.06 -2.27,2.65 -0.56,2.19 -2.54,7.64 -3.86,7.6 -0.78,0 -0.24,-3.41 0.68,-5.87 1.12,-2.95 3.78,-7 6.78,-8.83 0.69,-0.43 1.6,-1.5 0.66,-2.56 -1.19,-1.34 -2.46,-0.28 -3,0.13 a 14.68,14.68 0 0 0 -3.49,4.35 22.82,22.82 0 0 0 -2.81,6.33 c -1,3.25 -2.07,8.54 0.1,8.74 3,0.27 5.39,-5.56 5.39,-5.56 0,0 -0.13,3.05 1.4,3.13 1.53,0.08 4.51,-5.9 5.36,-7.92 a 22.36,22.36 0 0 0 2.5,5.55 2.87,2.87 0 0 1 0.14,0.39 c -0.34,0.47 -3.77,4.86 -4.77,7.5 a 0.82,0.82 0 0 0 0,0.72 0.79,0.79 0 0 0 0.5,0.42 1.12,1.12 0 0 0 0.74,-0.12 5.53,5.53 0 0 0 0.66,-0.35 c 4.83,-2.78 5.52,-6 5.17,-8.48 a 2.08,2.08 0 0 1 0.26,-0.4 42.2,42.2 0 0 0 3.89,-5.77 0.76,0.76 0 0 0 0.18,-0.65 z" class="cls-4" style="fill:#fff7d4;fill-opacity:1"/></g></g></g><rect id="rect863" width="5" height="2.5" x="3.504" y="97.442" ry="1.392" style="display:inline;opacity:1;vector-effect:none;fill:#000;fill-opacity:1;stroke:none;stroke-width:.15187515;stroke-linecap:butt;stroke-linejoin:miter;stroke-miterlimit:4;stroke-dasharray:none;stroke-dashoffset:0;stroke-opacity:1"/><path style="display:inline;opacity:1;vector-effect:none;fill:#000;fill-opacity:1;stroke:none;stroke-width:.15187515;stroke-linecap:butt;stroke-linejoin:miter;stroke-miterlimit:4;stroke-dasharray:none;stroke-dashoffset:0;stroke-opacity:1" id="rect865" d="m 16.731164,97.441595 c -0.771421,0 -1.392162,0.557551 -1.392162,1.25005 0,0.692499 0.620741,1.25005 1.392162,1.25005 h 2.215371 c 0.77142,0 1.39216,-0.557551 1.39216,-1.25005 0,-0.692499 -0.62074,-1.25005 -1.39216,-1.25005 z"/><rect style="display:inline;opacity:1;vector-effect:none;fill:#000;fill-opacity:1;stroke:none;stroke-width:.15187515;stroke-linecap:butt;stroke-linejoin:miter;stroke-miterlimit:4;stroke-dasharray:none;stroke-dashoffset:0;stroke-opacity:1" id="rect861" width="5" height="2.5" x="3.504" y=".742" ry="1.392"/><path style="display:inline;opacity:1;vector-effect:none;fill:#000;fill-opacity:1;stroke:none;stroke-width:.15187515;stroke-linecap:butt;stroke-linejoin:miter;stroke-miterlimit:4;stroke-dasharray:none;stroke-dashoffset:0;stroke-opacity:1" id="path1191" d="m 16.731164,0.74151318 c -0.771421,0 -1.392162,0.55756002 -1.392162,1.25006002 0,0.6925 0.620741,1.25005 1.392162,1.25005 h 2.215371 c 0.77142,0 1.39216,-0.55755 1.39216,-1.25005 0,-0.6925 -0.62074,-1.25006002 -1.39216,-1.25006002 z"/><g id="g1646" transform="matrix(0.26458333,0,0,0.26458333,-84.945988,-41.613927)"><path style="fill:#fff8d5" id="path1630" d="M 25.48,67.79 A 0.9,0.9 0 0 1 25.22,67.12 V 61 h -1.94 q -0.89,0 -0.89,-0.77 0,-0.77 0.89,-0.76 H 29 q 0.89,0 0.89,0.76 0,0.76 -0.89,0.77 h -1.9 v 6.07 a 0.91,0.91 0 0 1 -0.25,0.67 1,1 0 0 1 -1.36,0 z" transform="translate(319.8,124.29)"/><path style="fill:#fff8d5" id="path1632" d="m 34,62.13 a 0.71,0.71 0 0 1 0.21,0.56 0.8,0.8 0 0 1 -0.19,0.59 1.12,1.12 0 0 1 -0.68,0.24 H 32.98 A 1.37,1.37 0 0 0 32,64 1.42,1.42 0 0 0 31.71,64.92 v 2.28 a 0.78,0.78 0 0 1 -0.26,0.64 1,1 0 0 1 -0.64,0.22 1,1 0 0 1 -0.65,-0.22 0.78,0.78 0 0 1 -0.26,-0.64 v -4.4 a 0.75,0.75 0 0 1 0.26,-0.61 1,1 0 0 1 0.64,-0.22 0.88,0.88 0 0 1 0.6,0.21 0.73,0.73 0 0 1 0.24,0.58 v 0.32 a 1.67,1.67 0 0 1 0.65,-0.79 2,2 0 0 1 1,-0.31 h 0.17 A 0.75,0.75 0 0 1 34,62.13 Z" transform="translate(319.8,124.29)"/><path style="fill:#fff8d5" id="path1634" d="m 35.08,60.77 a 0.85,0.85 0 0 1 -0.28,-0.67 0.83,0.83 0 0 1 0.28,-0.66 1.29,1.29 0 0 1 1.51,0 0.83,0.83 0 0 1 0.28,0.65 0.85,0.85 0 0 1 -0.28,0.67 1.29,1.29 0 0 1 -1.51,0 z m 0.1,7.07 A 0.78,0.78 0 0 1 34.92,67.2 v -4.38 a 0.77,0.77 0 0 1 0.26,-0.64 1,1 0 0 1 0.65,-0.22 1,1 0 0 1 0.64,0.22 0.78,0.78 0 0 1 0.26,0.64 v 4.38 a 0.78,0.78 0 0 1 -0.26,0.64 1,1 0 0 1 -0.64,0.22 1,1 0 0 1 -0.65,-0.22 z" transform="translate(319.8,124.29)"/><path style="fill:#fff8d5" id="path1636" d="m 44.13,62.21 a 0.81,0.81 0 0 1 0.25,0.62 v 4.52 a 2.73,2.73 0 0 1 -0.83,2.16 3.55,3.55 0 0 1 -2.42,0.73 4.52,4.52 0 0 1 -2.21,-0.48 1,1 0 0 1 -0.34,-0.29 0.67,0.67 0 0 1 -0.12,-0.39 0.8,0.8 0 0 1 0.14,-0.49 0.46,0.46 0 0 1 0.38,-0.19 1.1,1.1 0 0 1 0.31,0.05 l 0.37,0.13 a 7.12,7.12 0 0 0 0.71,0.23 2.76,2.76 0 0 0 0.7,0.08 1.62,1.62 0 0 0 1.14,-0.35 1.38,1.38 0 0 0 0.37,-1.06 v -0.65 a 1.78,1.78 0 0 1 -0.76,0.72 2.39,2.39 0 0 1 -1.13,0.26 2.58,2.58 0 0 1 -1.36,-0.36 2.46,2.46 0 0 1 -0.93,-1 3.71,3.71 0 0 1 0,-3.08 2.5,2.5 0 0 1 0.93,-1 2.54,2.54 0 0 1 1.36,-0.37 2.38,2.38 0 0 1 1.11,0.26 1.83,1.83 0 0 1 0.76,0.71 V 62.8 a 0.77,0.77 0 0 1 0.25,-0.61 0.94,0.94 0 0 1 0.65,-0.22 0.91,0.91 0 0 1 0.67,0.24 z M 42.22,66 a 1.68,1.68 0 0 0 0.35,-1.14 1.71,1.71 0 0 0 -0.35,-1.15 1.23,1.23 0 0 0 -1,-0.41 1.25,1.25 0 0 0 -1,0.41 1.69,1.69 0 0 0 -0.36,1.15 1.67,1.67 0 0 0 0.38,1.14 1.26,1.26 0 0 0 1,0.41 1.24,1.24 0 0 0 0.98,-0.41 z" transform="translate(319.8,124.29)"/><path style="fill:#fff8d5" id="path1638" d="m 51.77,62.21 a 0.81,0.81 0 0 1 0.25,0.62 v 4.52 a 2.73,2.73 0 0 1 -0.83,2.16 3.56,3.56 0 0 1 -2.42,0.73 4.51,4.51 0 0 1 -2.21,-0.48 1,1 0 0 1 -0.34,-0.29 0.67,0.67 0 0 1 -0.12,-0.39 0.8,0.8 0 0 1 0.14,-0.49 0.46,0.46 0 0 1 0.38,-0.19 1.11,1.11 0 0 1 0.31,0.05 l 0.37,0.13 a 7.12,7.12 0 0 0 0.71,0.23 2.76,2.76 0 0 0 0.7,0.08 1.62,1.62 0 0 0 1.14,-0.35 1.38,1.38 0 0 0 0.37,-1.06 v -0.65 a 1.78,1.78 0 0 1 -0.76,0.72 2.39,2.39 0 0 1 -1.13,0.26 2.58,2.58 0 0 1 -1.33,-0.35 2.46,2.46 0 0 1 -0.93,-1 3.7,3.7 0 0 1 0,-3.08 2.5,2.5 0 0 1 0.93,-1 2.54,2.54 0 0 1 1.36,-0.37 2.38,2.38 0 0 1 1.11,0.26 1.83,1.83 0 0 1 0.76,0.71 V 62.8 a 0.77,0.77 0 0 1 0.25,-0.61 0.94,0.94 0 0 1 0.65,-0.22 0.91,0.91 0 0 1 0.64,0.24 z M 49.87,66 a 1.68,1.68 0 0 0 0.35,-1.14 1.71,1.71 0 0 0 -0.35,-1.15 1.23,1.23 0 0 0 -1,-0.41 1.25,1.25 0 0 0 -1,0.41 1.69,1.69 0 0 0 -0.36,1.15 1.67,1.67 0 0 0 0.37,1.14 1.26,1.26 0 0 0 1,0.41 1.24,1.24 0 0 0 0.99,-0.41 z" transform="translate(319.8,124.29)"/><path style="fill:#fff8d5" id="path1640" d="m 58.77,66.42 a 0.78,0.78 0 0 1 0.15,0.49 0.66,0.66 0 0 1 -0.12,0.38 1,1 0 0 1 -0.34,0.29 4.28,4.28 0 0 1 -0.95,0.35 4.06,4.06 0 0 1 -1,0.14 3.57,3.57 0 0 1 -1.67,-0.37 2.6,2.6 0 0 1 -1.1,-1.06 3.29,3.29 0 0 1 -0.38,-1.64 3.33,3.33 0 0 1 0.37,-1.6 2.73,2.73 0 0 1 1,-1.09 2.89,2.89 0 0 1 1.5,-0.39 2.75,2.75 0 0 1 1.41,0.35 2.42,2.42 0 0 1 0.94,1 3.31,3.31 0 0 1 0.42,1.57 0.58,0.58 0 0 1 -0.13,0.4 0.45,0.45 0 0 1 -0.35,0.14 h -3.4 a 1.6,1.6 0 0 0 0.43,1 1.43,1.43 0 0 0 1,0.32 2.13,2.13 0 0 0 0.62,-0.08 5.93,5.93 0 0 0 0.61,-0.23 l 0.32,-0.13 a 0.86,0.86 0 0 1 0.28,-0.05 0.47,0.47 0 0 1 0.39,0.21 z m -3.28,-2.9 a 1.57,1.57 0 0 0 -0.37,1 h 2.32 a 1.57,1.57 0 0 0 -0.32,-1 1,1 0 0 0 -0.8,-0.32 1.09,1.09 0 0 0 -0.83,0.33 z" transform="translate(319.8,124.29)"/><path style="fill:#fff8d5" id="path1642" d="m 64.37,62.13 a 0.71,0.71 0 0 1 0.21,0.56 0.8,0.8 0 0 1 -0.19,0.59 1.12,1.12 0 0 1 -0.68,0.24 h -0.36 a 1.37,1.37 0 0 0 -1,0.43 1.42,1.42 0 0 0 -0.29,0.92 v 2.33 a 0.78,0.78 0 0 1 -0.26,0.64 1,1 0 0 1 -0.64,0.22 1,1 0 0 1 -0.65,-0.22 0.78,0.78 0 0 1 -0.26,-0.64 v -4.4 a 0.75,0.75 0 0 1 0.26,-0.61 1,1 0 0 1 0.64,-0.22 0.88,0.88 0 0 1 0.6,0.21 0.73,0.73 0 0 1 0.24,0.58 v 0.32 a 1.67,1.67 0 0 1 0.65,-0.79 2,2 0 0 1 1,-0.31 h 0.17 a 0.75,0.75 0 0 1 0.56,0.15 z" transform="translate(319.8,124.29)"/><path style="fill:#fff8d5" id="path1644" d="m 66.24,68 a 2.87,2.87 0 0 1 -0.95,-0.38 0.74,0.74 0 0 1 -0.28,-0.29 0.85,0.85 0 0 1 -0.1,-0.41 0.69,0.69 0 0 1 0.16,-0.46 0.48,0.48 0 0 1 0.38,-0.19 1,1 0 0 1 0.31,0.05 l 0.32,0.13 a 4.3,4.3 0 0 0 0.66,0.25 3,3 0 0 0 0.8,0.09 1.34,1.34 0 0 0 0.65,-0.13 0.4,0.4 0 0 0 0.23,-0.36 0.36,0.36 0 0 0 -0.1,-0.27 A 1,1 0 0 0 68,65.8 q -0.28,-0.08 -0.88,-0.2 a 3.31,3.31 0 0 1 -1.56,-0.6 1.43,1.43 0 0 1 -0.47,-1.14 1.56,1.56 0 0 1 0.33,-1 2.19,2.19 0 0 1 0.91,-0.68 3.27,3.27 0 0 1 1.3,-0.25 3.88,3.88 0 0 1 1,0.13 3.22,3.22 0 0 1 0.88,0.37 0.8,0.8 0 0 1 0.22,1.15 0.48,0.48 0 0 1 -0.38,0.19 1.4,1.4 0 0 1 -0.66,-0.22 3.52,3.52 0 0 0 -0.55,-0.23 1.94,1.94 0 0 0 -0.58,-0.08 1.08,1.08 0 0 0 -0.59,0.14 0.43,0.43 0 0 0 -0.22,0.38 0.42,0.42 0 0 0 0.25,0.38 4,4 0 0 0 1,0.26 5.24,5.24 0 0 1 1.26,0.38 1.52,1.52 0 0 1 0.66,0.56 1.62,1.62 0 0 1 0.2,0.85 1.59,1.59 0 0 1 -0.7,1.36 3.15,3.15 0 0 1 -1.88,0.5 6,6 0 0 1 -1.3,-0.05 z" transform="translate(319.8,124.29)"/></g><g id="g1386" transform="matrix(0.26458333,0,0,0.26458333,-83.257686,-14.794233)"><g id="g861" transform="translate(9.9484652,-0.19812208)"><path id="path1368" d="m 20.2,247 a 0.52,0.52 0 0 1 0.14,0.38 v 3.86 a 0.48,0.48 0 0 1 -0.13,0.35 0.46,0.46 0 0 1 -0.34,0.13 0.45,0.45 0 0 1 -0.33,-0.13 0.48,0.48 0 0 1 -0.13,-0.35 v -2.4 l -1,1.82 a 0.76,0.76 0 0 1 -0.21,0.26 0.48,0.48 0 0 1 -0.53,0 0.74,0.74 0 0 1 -0.21,-0.26 l -1,-1.78 v 2.37 a 0.48,0.48 0 0 1 -0.13,0.35 0.5,0.5 0 0 1 -0.67,0 0.48,0.48 0 0 1 -0.13,-0.35 v -3.86 a 0.52,0.52 0 0 1 0.14,-0.38 0.48,0.48 0 0 1 0.36,-0.15 0.54,0.54 0 0 1 0.5,0.35 l 1.47,2.56 1.37,-2.62 a 0.55,0.55 0 0 1 0.49,-0.35 0.48,0.48 0 0 1 0.34,0.2 z" transform="translate(319.8,124.29)" style="fill:#fff8d5"/><path id="path1370" d="m 22.94,251.4 a 2,2 0 0 1 -0.81,-0.86 3.11,3.11 0 0 1 0,-2.6 2,2 0 0 1 0.81,-0.85 2.73,2.73 0 0 1 2.48,0 2,2 0 0 1 0.81,0.85 3.11,3.11 0 0 1 0,2.6 2,2 0 0 1 -0.81,0.86 2.7,2.7 0 0 1 -2.48,0 z m 2.18,-0.94 a 2.33,2.33 0 0 0 0,-2.43 1.27,1.27 0 0 0 -1.89,0 2.35,2.35 0 0 0 0,2.43 1.26,1.26 0 0 0 1.88,0 z" transform="translate(319.8,124.29)" style="fill:#fff8d5"/><path id="path1372" d="m 32.63,247 a 0.52,0.52 0 0 1 0.14,0.38 v 3.86 a 0.48,0.48 0 0 1 -0.13,0.35 0.46,0.46 0 0 1 -0.34,0.13 0.45,0.45 0 0 1 -0.33,-0.13 0.48,0.48 0 0 1 -0.13,-0.35 v -2.4 l -1,1.82 a 0.76,0.76 0 0 1 -0.21,0.26 0.48,0.48 0 0 1 -0.53,0 0.74,0.74 0 0 1 -0.21,-0.26 l -1,-1.78 v 2.37 a 0.48,0.48 0 0 1 -0.13,0.35 0.5,0.5 0 0 1 -0.67,0 0.48,0.48 0 0 1 -0.13,-0.35 v -3.86 a 0.52,0.52 0 0 1 0.14,-0.38 0.48,0.48 0 0 1 0.36,-0.15 0.54,0.54 0 0 1 0.5,0.35 l 1.38,2.62 1.37,-2.62 a 0.55,0.55 0 0 1 0.49,-0.35 0.48,0.48 0 0 1 0.43,0.14 z" transform="translate(319.8,124.29)" style="fill:#fff8d5"/><path id="path1376" d="m 358.57309,371.29 a 0.52,0.52 0 0 1 0.14,0.38 v 3.81 a 0.54,0.54 0 0 1 -0.14,0.38 0.48,0.48 0 0 1 -0.36,0.15 0.49,0.49 0 0 1 -0.39,-0.18 l -2.28,-2.92 v 2.56 a 0.55,0.55 0 0 1 -0.13,0.38 0.46,0.46 0 0 1 -0.36,0.15 0.47,0.47 0 0 1 -0.36,-0.15 0.54,0.54 0 0 1 -0.14,-0.38 v -3.81 a 0.52,0.52 0 0 1 0.14,-0.38 0.48,0.48 0 0 1 0.36,-0.15 0.46,0.46 0 0 1 0.37,0.16 l 2.28,2.9 v -2.55 a 0.53,0.53 0 0 1 0.14,-0.38 0.46,0.46 0 0 1 0.35,-0.15 0.48,0.48 0 0 1 0.38,0.18 z" style="fill:#fff8d5"/><path id="path1378" d="m 361.60309,375.82 a 0.51,0.51 0 0 1 -0.15,-0.38 V 372 h -1.1 c -0.34,0 -0.5,-0.14 -0.5,-0.44 0,-0.3 0.17,-0.43 0.5,-0.43 h 3.27 q 0.5,0 0.5,0.43 c 0,0.29 -0.17,0.44 -0.5,0.44 h -1.1 v 3.44 a 0.51,0.51 0 0 1 -0.14,0.38 0.59,0.59 0 0 1 -0.77,0 z" style="fill:#fff8d5"/></g></g><g id="g1400" transform="matrix(0.26458333,0,0,0.26458333,-83.240166,-41.344549)"><path style="fill:#fff8d5" id="path1388" d="m 26.52,241.9 a 2,2 0 0 1 -0.81,-0.86 3.11,3.11 0 0 1 0,-2.6 2,2 0 0 1 0.81,-0.85 2.73,2.73 0 0 1 2.48,0 2,2 0 0 1 0.81,0.85 3.11,3.11 0 0 1 0,2.6 2,2 0 0 1 -0.81,0.86 2.7,2.7 0 0 1 -2.48,0 z M 28.7,241 a 2.33,2.33 0 0 0 0,-2.43 1.27,1.27 0 0 0 -1.89,0 2.35,2.35 0 0 0 0,2.43 1.26,1.26 0 0 0 1.88,0 z" transform="translate(319.8,124.29)"/><path style="fill:#fff8d5" id="path1390" d="m 35.61,237.46 a 0.52,0.52 0 0 1 0.14,0.38 v 3.81 a 0.54,0.54 0 0 1 -0.14,0.38 0.48,0.48 0 0 1 -0.36,0.15 0.49,0.49 0 0 1 -0.39,-0.18 l -2.28,-2.92 v 2.56 a 0.55,0.55 0 0 1 -0.13,0.38 0.46,0.46 0 0 1 -0.36,0.15 0.47,0.47 0 0 1 -0.36,-0.15 0.54,0.54 0 0 1 -0.14,-0.38 v -3.81 a 0.52,0.52 0 0 1 0.14,-0.38 0.48,0.48 0 0 1 0.36,-0.15 0.46,0.46 0 0 1 0.39,0.18 l 2.28,2.9 v -2.55 a 0.53,0.53 0 0 1 0.14,-0.38 0.46,0.46 0 0 1 0.35,-0.15 0.48,0.48 0 0 1 0.36,0.16 z" transform="translate(319.8,124.29)"/><path style="fill:#fff8d5" id="path1392" d="m 37.48,242.58 a 0.41,0.41 0 0 1 -0.23,0.07 0.42,0.42 0 0 1 -0.28,-0.11 0.34,0.34 0 0 1 -0.12,-0.27 0.56,0.56 0 0 1 0,-0.14 l 1.56,-4.9 a 0.4,0.4 0 0 1 0.15,-0.21 0.4,0.4 0 0 1 0.23,-0.07 0.42,0.42 0 0 1 0.29,0.11 0.34,0.34 0 0 1 0.12,0.27 0.54,0.54 0 0 1 0,0.14 l -1.56,4.9 a 0.37,0.37 0 0 1 -0.16,0.21 z" transform="translate(319.8,124.29)"/><path style="fill:#fff8d5" id="path1394" d="m 41.21,241.9 a 2,2 0 0 1 -0.81,-0.86 3.11,3.11 0 0 1 0,-2.6 2,2 0 0 1 0.81,-0.85 2.73,2.73 0 0 1 2.48,0 2,2 0 0 1 0.81,0.85 3.11,3.11 0 0 1 0,2.6 2,2 0 0 1 -0.81,0.86 2.7,2.7 0 0 1 -2.48,0 z m 2.18,-0.94 a 2.33,2.33 0 0 0 0,-2.43 1.27,1.27 0 0 0 -1.89,0 2.35,2.35 0 0 0 0,2.43 1.26,1.26 0 0 0 1.88,0 z" transform="translate(319.8,124.29)"/><path style="fill:#fff8d5" id="path1396" d="m 46.42,242 a 0.52,0.52 0 0 1 -0.15,-0.38 v -3.81 a 0.45,0.45 0 0 1 0.5,-0.5 h 2.34 a 0.59,0.59 0 0 1 0.38,0.1 0.39,0.39 0 0 1 0.12,0.32 0.38,0.38 0 0 1 -0.12,0.31 0.59,0.59 0 0 1 -0.38,0.1 h -1.79 v 1.1 H 49 a 0.59,0.59 0 0 1 0.38,0.1 0.39,0.39 0 0 1 0.12,0.32 0.38,0.38 0 0 1 -0.12,0.31 0.59,0.59 0 0 1 -0.38,0.1 h -1.68 v 1.53 a 0.53,0.53 0 0 1 -0.14,0.39 0.5,0.5 0 0 1 -0.38,0.14 0.52,0.52 0 0 1 -0.38,-0.13 z" transform="translate(319.8,124.29)"/><path style="fill:#fff8d5" id="path1398" d="m 51,242 a 0.52,0.52 0 0 1 -0.15,-0.38 v -3.81 a 0.45,0.45 0 0 1 0.5,-0.5 h 2.34 a 0.59,0.59 0 0 1 0.38,0.1 0.39,0.39 0 0 1 0.12,0.32 0.38,0.38 0 0 1 -0.12,0.31 0.59,0.59 0 0 1 -0.38,0.1 h -1.8 v 1.1 h 1.65 a 0.59,0.59 0 0 1 0.38,0.1 0.39,0.39 0 0 1 0.12,0.32 0.38,0.38 0 0 1 -0.12,0.31 0.59,0.59 0 0 1 -0.38,0.1 h -1.65 v 1.53 a 0.53,0.53 0 0 1 -0.14,0.39 0.5,0.5 0 0 1 -0.38,0.14 A 0.52,0.52 0 0 1 51,242 Z" transform="translate(319.8,124.29)"/></g><g id="g366" transform="matrix(0.26458333,0,0,0.26458333,-83.461695,-74.41009)"><path style="fill:#fff8d5" id="path356" d="m 31.43,261.76 a 0.59,0.59 0 0 1 0.37,0.13 0.41,0.41 0 0 1 0.17,0.33 0.54,0.54 0 0 1 0,0.21 l -2.3,4.95 a 0.54,0.54 0 0 1 -0.23,0.25 0.66,0.66 0 0 1 -0.66,0 0.54,0.54 0 0 1 -0.23,-0.25 l -2.29,-4.95 a 0.53,0.53 0 0 1 0,-0.2 0.41,0.41 0 0 1 0.17,-0.34 0.62,0.62 0 0 1 0.39,-0.13 0.5,0.5 0 0 1 0.26,0.07 0.47,0.47 0 0 1 0.19,0.21 l 1.91,4.24 L 31,262 a 0.45,0.45 0 0 1 0.43,-0.24 z" transform="translate(319.8,124.29)"/><path style="fill:#fff8d5" id="path358" d="m 34.46,267.37 a 2.44,2.44 0 0 1 -1,-1 3.92,3.92 0 0 1 0,-3.18 2.41,2.41 0 0 1 1,-1 3.2,3.2 0 0 1 3,0 2.42,2.42 0 0 1 1,1 3.91,3.91 0 0 1 0,3.18 2.44,2.44 0 0 1 -1,1 3.17,3.17 0 0 1 -3,0 z m 2.74,-1 a 3,3 0 0 0 0,-3.18 1.72,1.72 0 0 0 -2.52,0 3,3 0 0 0 0,3.18 1.71,1.71 0 0 0 2.52,0 z" transform="translate(319.8,124.29)"/><path style="fill:#fff8d5" id="path360" d="m 40.77,267.53 a 0.49,0.49 0 0 1 -0.13,-0.37 v -4.86 a 0.5,0.5 0 0 1 0.53,-0.53 0.53,0.53 0 0 1 0.39,0.15 0.52,0.52 0 0 1 0.15,0.39 v 4.48 H 44 c 0.33,0 0.5,0.15 0.5,0.44 0,0.29 -0.17,0.44 -0.5,0.44 h -2.9 a 0.5,0.5 0 0 1 -0.33,-0.14 z" transform="translate(319.8,124.29)"/><path style="fill:#fff8d5" id="path362" d="m 46.55,267.56 a 0.52,0.52 0 0 1 -0.15,-0.39 v -4.48 h -1.5 q -0.5,0 -0.5,-0.44 c 0,-0.29 0.17,-0.44 0.5,-0.44 H 49 c 0.33,0 0.5,0.15 0.5,0.44 0,0.29 -0.17,0.44 -0.5,0.44 h -1.52 v 4.48 a 0.5,0.5 0 0 1 -0.53,0.53 0.53,0.53 0 0 1 -0.4,-0.14 z" transform="translate(319.8,124.29)"/><path style="fill:#fff8d5" id="path364" d="m 51.58,267.57 a 2.67,2.67 0 0 1 -0.92,-0.46 0.46,0.46 0 0 1 -0.19,-0.4 0.47,0.47 0 0 1 0.1,-0.3 0.31,0.31 0 0 1 0.25,-0.13 0.68,0.68 0 0 1 0.34,0.12 2.46,2.46 0 0 0 0.75,0.37 3,3 0 0 0 0.86,0.12 1.7,1.7 0 0 0 0.93,-0.21 0.69,0.69 0 0 0 0.32,-0.62 0.53,0.53 0 0 0 -0.3,-0.49 4,4 0 0 0 -1,-0.33 6,6 0 0 1 -1.19,-0.36 1.68,1.68 0 0 1 -0.69,-0.53 1.37,1.37 0 0 1 -0.23,-0.82 1.54,1.54 0 0 1 0.29,-0.92 1.9,1.9 0 0 1 0.81,-0.63 3.21,3.21 0 0 1 3.1,0.4 0.63,0.63 0 0 1 0.15,0.18 0.48,0.48 0 0 1 0,0.22 0.47,0.47 0 0 1 -0.1,0.3 0.31,0.31 0 0 1 -0.25,0.13 h -0.15 l -0.19,-0.09 a 2.83,2.83 0 0 0 -0.66,-0.37 2.25,2.25 0 0 0 -0.79,-0.12 1.54,1.54 0 0 0 -0.89,0.23 0.73,0.73 0 0 0 -0.33,0.63 0.58,0.58 0 0 0 0.29,0.52 3.4,3.4 0 0 0 1,0.34 6.68,6.68 0 0 1 1.2,0.37 1.79,1.79 0 0 1 0.71,0.52 1.25,1.25 0 0 1 0.24,0.79 1.5,1.5 0 0 1 -0.29,0.91 1.87,1.87 0 0 1 -0.8,0.61 3,3 0 0 1 -1.19,0.22 4.2,4.2 0 0 1 -1.18,-0.2 z" transform="translate(319.8,124.29)"/></g></g></svg>