<svg xmlns="http://www.w3.org/2000/svg" xmlns:svg="http://www.w3.org/2000/svg" id="svg15246" width="31.58" height="31.58" version="1.1" viewBox="0 0 8.356 8.356"><metadata id="metadata15243"/><g id="layer1" transform="translate(-88.611154,-119.19859)"><path id="path7255" d="m 92.788964,127.42922 c -2.235179,0 -4.05281,-1.81762 -4.05281,-4.05282 0,-2.23516 1.817631,-4.05281 4.05281,-4.05281 2.235176,0 4.05281,1.81765 4.05281,4.05281 0,2.2352 -1.817634,4.05282 -4.05281,4.05282" style="fill:#e6e6e6;fill-opacity:1;fill-rule:nonzero;stroke:#636663;stroke-width:.25;stroke-miterlimit:4;stroke-dasharray:none;stroke-opacity:1"/><path id="path7261" d="m 92.788964,126.29511 c -1.609548,0 -2.918685,-1.30916 -2.918685,-2.91871 0,-1.60954 1.309137,-2.91867 2.918685,-2.91867 1.609549,0 2.918682,1.30913 2.918682,2.91867 0,1.60955 -1.309133,2.91871 -2.918682,2.91871" style="fill:#c8c8c8;fill-opacity:1;fill-rule:nonzero;stroke:#636663;stroke-width:.25;stroke-miterlimit:4;stroke-dasharray:none;stroke-opacity:1"/><path id="path7265" d="m 94.588681,123.3764 c 0,0.99357 -0.806153,1.79974 -1.799717,1.79974 -0.993567,0 -1.79972,-0.80617 -1.79972,-1.79974 0,-0.99356 0.806153,-1.79969 1.79972,-1.79969 0.993564,0 1.799717,0.80613 1.799717,1.79969" style="fill:#000;fill-opacity:1;fill-rule:nonzero;stroke:none;stroke-width:.35277775"/></g></svg>