<svg xmlns="http://www.w3.org/2000/svg" xmlns:svg="http://www.w3.org/2000/svg" id="svg16908" width="13mm" height="13mm" version="1.1" viewBox="0 0 13 13"><defs id="defs16902"><clipPath id="clipPath6367" clipPathUnits="userSpaceOnUse"><path id="path6365" d="M 0,3193 H 2089 V 0 H 0 Z"/></clipPath></defs><metadata id="metadata16905"/><g id="layer1" transform="translate(-230.09585,-119.75783)" style="display:inline"><path id="path6449" d="M 12.780098,2.3892771 C 12.50279,1.9403221 12.035939,1.4987435 11.776184,0.87041738 11.516429,0.24420331 11.533637,-0.39639345 11.413584,-0.90818097 11.13101,-1.258151 10.813,-1.5758158 10.462685,-1.8587352 9.9505398,-1.9784035 9.3106327,-1.9615544 8.6837277,-2.2213354 8.0554026,-2.481793 7.6138239,-2.9475971 7.165572,-3.2252488 6.946189,-3.2484662 6.7232903,-3.261733 6.4979371,-3.261733 c -0.2260564,0 -0.448955,0.0134 -0.667993,0.036484 C 5.3810022,-2.9475971 4.9394103,-2.481793 4.3110989,-2.2213354 3.6848835,-1.961581 3.0449765,-1.97843 2.5324859,-1.8587352 2.1825292,-1.5758158 1.8641478,-1.258151 1.5819323,-0.90818097 1.4618661,-0.39639345 1.4787151,0.24420331 1.2186291,0.87041738 0.95887465,1.4987435 0.49236733,1.9403221 0.21541884,2.3892771 c -0.0232172,0.2193831 -0.0362189,0.4422818 -0.0362189,0.667635 0,0.2257113 0.013267,0.4485968 0.0362189,0.668683 0.27694849,0.4482519 0.74345579,0.8898305 1.00321026,1.5181552 0.2600993,0.6262154 0.2432503,1.2668255 0.3633032,1.7782548 0.2822155,0.350315 0.6005969,0.6683381 0.9505536,0.9509118 0.5124906,0.1200663 1.1523976,0.1028191 1.778613,0.3622419 0.6283114,0.2608158 1.0699033,0.726965 1.5188452,1.0042716 0.219038,0.022819 0.4419366,0.03622 0.667993,0.03622 0.2253532,0 0.4482519,-0.0134 0.6676349,-0.03622 C 7.6138239,9.0621238 8.0554026,8.5959746 8.6837277,8.3351588 9.3106327,8.0757626 9.9505398,8.0929567 10.462685,7.9729169 10.813,7.6903432 11.13101,7.3723201 11.413584,7.0220051 c 0.120067,-0.5114293 0.102819,-1.1520394 0.3626,-1.7782548 0.259755,-0.6283247 0.726606,-1.0699033 1.003914,-1.5181552 0.02282,-0.2200862 0.03582,-0.4429717 0.03582,-0.668683 0,-0.2253532 -0.01327,-0.4482519 -0.03582,-0.667635" transform="translate(230.09585,123.23243)" style="display:inline;fill:#000;fill-opacity:1;fill-rule:evenodd;stroke:#4f4f4f;stroke-width:.20298499;stroke-linecap:round;stroke-linejoin:round;stroke-miterlimit:4;stroke-dasharray:none;stroke-opacity:1"/><path style="display:inline;opacity:1;fill:#e7e7e7;fill-opacity:1;stroke:none;stroke-width:.42333677;stroke-linejoin:round;stroke-miterlimit:4;stroke-dasharray:none;stroke-dashoffset:0;stroke-opacity:1;paint-order:normal" id="path833" d="m 6.0207262,-1.9323014 a 0.61322403,0.61322403 0 0 1 0.077079,-0.8635859 0.61322403,0.61322403 0 0 1 0.8636233,0.076659 0.61322403,0.61322403 0 0 1 -0.07624,0.8636605 0.61322403,0.61322403 0 0 1 -0.8636974,-0.07582" transform="translate(230.09585,123.23243)"/><circle style="display:inline;opacity:1;fill:#636363;fill-opacity:1;stroke:none;stroke-width:.12466589;stroke-miterlimit:4;stroke-dasharray:none;stroke-opacity:1" id="path6739" cx="6.498" cy="3.057" r="4.581" transform="translate(230.09585,123.23243)"/><circle style="display:inline;opacity:1;fill:#acacac;fill-opacity:1;stroke:none;stroke-width:.11577436;stroke-miterlimit:4;stroke-dasharray:none;stroke-opacity:1" id="path6739-8" cx="236.591" cy="126.286" r="4.255"/></g></svg>