<svg xmlns="http://www.w3.org/2000/svg" xmlns:svg="http://www.w3.org/2000/svg" id="svg10" width="30" height="20" version="1.1" viewBox="0 0 7.939 5.292"><metadata id="metadata16"/><g id="layer1" transform="translate(0,0.19318015)" style="display:none"><g id="g8" transform="translate(-156.6,-100.2)"><g id="g6" transform="matrix(0.2566,0,0,-0.2566,-287.79305,710.89305)" style="fill:#009ab2;fill-opacity:1"><g id="g4" transform="translate(1744,2370)" style="fill:#009ab2;fill-opacity:1"><path id="path2" d="m 0,0 c -0.072,-5.55 -1.296,-9.915 -5.786,-9.935 -4.598,-0.02 -6.277,4.247 -6.277,9.843 0,5.502 1.494,10.03 6.178,10.03 4.422,0 5.956,-4.44 5.885,-9.935" style="fill:#009ab2;fill-opacity:1"/></g></g></g></g><g id="layer2" transform="translate(0,0.19318015)" style="display:inline"><rect style="display:inline;opacity:1;fill:#333;fill-opacity:1;fill-rule:nonzero;stroke:none;stroke-width:.9242934;stroke-linecap:square;stroke-linejoin:miter;stroke-miterlimit:4;stroke-dasharray:none;stroke-dashoffset:0;stroke-opacity:1;paint-order:markers stroke fill" id="rect4514-4" width="5.196" height="5.102" x="1.372" y="-.037" ry=".637"/></g><g id="layer3" transform="translate(0,0.19318015)"><rect style="display:inline;opacity:1;fill:#4d4d4d;fill-opacity:1;fill-rule:nonzero;stroke:none;stroke-width:.39580977;stroke-linecap:square;stroke-linejoin:miter;stroke-miterlimit:4;stroke-dasharray:none;stroke-dashoffset:0;stroke-opacity:1;paint-order:markers stroke fill" id="rect4514" width="5.196" height=".936" x="1.372" y="2.046" ry="0"/><path style="display:inline;fill:none;stroke:#fff;stroke-width:.25251672;stroke-linecap:butt;stroke-linejoin:miter;stroke-miterlimit:4;stroke-dasharray:none;stroke-opacity:1" id="path4516" d="M 1.3685435,2.5109647 H 6.6157693"/><rect style="display:inline;opacity:1;fill:none;fill-opacity:1;fill-rule:nonzero;stroke:#000;stroke-width:.13684921;stroke-linecap:square;stroke-linejoin:miter;stroke-miterlimit:4;stroke-dasharray:none;stroke-dashoffset:0;stroke-opacity:1;paint-order:markers stroke fill" id="rect4514-3" width="5.196" height="5.102" x="1.372" y="-.037" ry=".637"/></g></svg>