<svg xmlns="http://www.w3.org/2000/svg" xmlns:svg="http://www.w3.org/2000/svg" id="svg6414" width="9mm" height="9mm" version="1.1" viewBox="0 0 9 9"><defs id="defs6408"><clipPath id="clip82"><path id="path22604" d="m 979.55859,272.09375 h 26.63281 v 27.13281 h -26.63281 z m 0,0"/></clipPath><clipPath id="clip83"><path id="path22607" d="m 992,272.09375 h 2 V 287 h -2 z m 0,0"/></clipPath></defs><metadata id="metadata6411"/><g id="layer1" transform="translate(-36.542344,-105.62516)"><g id="g6344" transform="matrix(0.44990991,0,0,-0.44554886,-615.09478,1187.2857)"><g style="clip-rule:nonzero;fill:#8d05db;fill-opacity:1" id="g28551" clip-path="url(#clip82)" transform="matrix(0.75000002,0,0,-0.75000002,713.70253,2631.9236)"><path id="path28547" d="m 1005.8555,288.88281 c -1.6407,7.16406 -8.78128,11.64844 -15.94925,10.00781 -7.16797,-1.64062 -11.64844,-8.78125 -10.00781,-15.94921 1.64062,-7.16797 8.78125,-11.64844 15.94922,-10.00782 7.16794,1.64063 11.64454,8.78125 10.00784,15.94922" style="fill:#8d05db;fill-opacity:1;fill-rule:nonzero;stroke:none"/><path id="path28549" d="m 1005.8555,288.88281 c -1.6407,7.16406 -8.78128,11.64844 -15.94925,10.00781 -7.16797,-1.64062 -11.64844,-8.78125 -10.00781,-15.94921 1.64062,-7.16797 8.78125,-11.64844 15.94922,-10.00782 7.16794,1.64063 11.64454,8.78125 10.00784,15.94922" style="fill:#8d05db;fill-opacity:1;fill-rule:nonzero;stroke:none"/></g><g style="clip-rule:nonzero" id="g28555" clip-path="url(#clip83)" transform="matrix(0.75000002,0,0,-0.75000002,713.70253,2631.9236)"><path id="path28553" d="M -0.0011146,-0.0015175 V 13.314889" transform="translate(992.87612,272.59527)" style="fill:none;stroke:#fff;stroke-width:1;stroke-linecap:round;stroke-linejoin:round;stroke-miterlimit:10;stroke-opacity:1"/></g></g></g></svg>