<svg xmlns="http://www.w3.org/2000/svg" xmlns:svg="http://www.w3.org/2000/svg" id="svg6414" width="26.632" height="27.133" version="1.1" viewBox="0 0 7.046 7.179"><defs id="defs6408"><clipPath id="clip82"><path id="path22604" d="m 979.55859,272.09375 h 26.63281 v 27.13281 h -26.63281 z m 0,0"/></clipPath><clipPath id="clip83"><path id="path22607" d="m 992,272.09375 h 2 V 287 h -2 z m 0,0"/></clipPath></defs><metadata id="metadata6411"/><g id="layer1" transform="translate(-36.542344,-107.44627)"><g id="g6344" transform="matrix(0.35277777,0,0,-0.35277777,-474.41126,963.93894)" style="stroke:#fff;stroke-opacity:1"><g style="clip-rule:nonzero;stroke:#0e0e0e;stroke-opacity:1;fill:#000;fill-opacity:1" id="g28551" clip-path="url(#clip82)" transform="matrix(0.75000002,0,0,-0.75000002,713.70253,2631.9236)"><path id="path28547" d="m 1005.3296,288.76244 c -1.5742,6.8738 -8.42546,11.1765 -15.30301,9.60234 -6.87755,-1.57415 -11.17649,-8.42547 -9.60233,-15.30301 1.57414,-6.87755 8.42546,-11.17649 15.30301,-9.60234 6.87753,1.57415 11.17273,8.42546 9.60233,15.30301" style="fill:#2d2d2d;fill-opacity:1;fill-rule:nonzero;stroke:#0c0c0c;stroke-width:.95948386;stroke-opacity:1"/></g><g style="clip-rule:nonzero;stroke:#fff;stroke-opacity:1" id="g28555" clip-path="url(#clip83)" transform="matrix(0.75000002,0,0,-0.75000002,713.70253,2631.9236)"><path id="path28553" d="M -0.0011146,-0.0015175 V 13.314889" transform="translate(992.87612,272.59527)" style="fill:none;stroke:#fff;stroke-width:1;stroke-linecap:round;stroke-linejoin:round;stroke-miterlimit:10;stroke-opacity:1"/></g></g></g></svg>