<svg xmlns="http://www.w3.org/2000/svg" xmlns:svg="http://www.w3.org/2000/svg" id="svg56722" width="14" height="20.641" version="1.1" viewBox="0 0 3.704 5.461"><metadata id="metadata56719"/><g id="layer1" transform="translate(-35.423779,-63.339207)"><g id="g56714" transform="matrix(0.27523902,0,0,-0.27523902,-180.22814,385.03395)" style="stroke-width:1.2817142"><path style="fill:#000;fill-opacity:1;fill-rule:nonzero;stroke:none;stroke-width:1.2817142" id="path5785" d="m 783.5078,1167.3652 c 0,0.779 0.639,1.418 1.418,1.418 h 10.622 c 0.779,0 1.418,-0.639 1.418,-1.418 v -17.007 c 0,-0.779 -0.639,-1.417 -1.418,-1.417 h -10.622 c -0.779,0 -1.418,0.638 -1.418,1.417 z"/><g style="fill:#282828;fill-opacity:1;stroke-width:1.2817142" id="g5795"><g style="fill:#282828;fill-opacity:1;stroke-width:1.2817142" id="g5797"><path id="path5805" d="m 785.616,1167.502 c -0.468,0 -0.85,-0.382 -0.85,-0.85 v 0 -15.724 c 0,-0.468 0.382,-0.851 0.85,-0.851 v 0 h 9.241 c 0.466,0 0.849,0.383 0.849,0.851 v 0 15.724 c 0,0.468 -0.383,0.85 -0.849,0.85 v 0 z" style="fill:#282828;fill-opacity:1;stroke:none;stroke-width:1.2817142"/></g></g><path id="path5815" d="m 784.767,1158.581 h 10.94 v -8.504 h -10.94 z" style="fill:#444;fill-opacity:1;fill-rule:nonzero;stroke:none;stroke-width:1.2817142"/><path id="path5817" d="m 784.767,1154.797 h 10.94 v -0.936 h -10.94 z" style="fill:#999;fill-opacity:1;fill-rule:nonzero;stroke:none;stroke-width:1.2817142"/><path id="path5819" d="m 784.767,1151.013 h 10.94 v -0.936 h -10.94 z" style="fill:#999;fill-opacity:1;fill-rule:nonzero;stroke:none;stroke-width:1.2817142"/><path id="path5821" d="m 784.767,1152.904 h 10.94 v -0.936 h -10.94 z" style="fill:#999;fill-opacity:1;fill-rule:nonzero;stroke:none;stroke-width:1.2817142"/><path id="path5823" d="m 784.767,1156.689 h 10.94 v -0.936 h -10.94 z" style="fill:#999;fill-opacity:1;fill-rule:nonzero;stroke:none;stroke-width:1.2817142"/><path id="path5825" d="m 784.767,1158.581 h 10.94 v -0.936 h -10.94 z" style="fill:#999;fill-opacity:1;fill-rule:nonzero;stroke:none;stroke-width:1.2817142"/></g><path style="opacity:1;fill:#ae0c0c;fill-opacity:1;stroke:none;stroke-width:.5;stroke-linecap:square;stroke-linejoin:bevel;stroke-miterlimit:4;stroke-dasharray:none;stroke-opacity:1;paint-order:normal" id="path823" d="m 1.3360661,6.3005869 c 0,-2.917451 0.015138,-4.322873 0.047483,-4.4084822 0.067506,-0.1786701 0.2580643,-0.3689151 0.4659099,-0.4651445 0.1704387,-0.078911 0.4052693,-0.082676 5.15625,-0.082676 4.745129,0 4.986021,0.00385 5.15625,0.082416 0.216115,0.099743 0.352125,0.2410725 0.444298,0.4616735 0.06073,0.1453438 0.0691,0.6817778 0.0691,4.4301942 V 10.583395 H 7.005709 1.3360661 Z" transform="matrix(0.26458333,0,0,0.26458333,35.423779,63.339207)"/><g style="font-style:normal;font-variant:normal;font-weight:400;font-stretch:normal;font-size:4.23333311px;line-height:1.25;font-family:Matematica;-inkscape-font-specification:'Matematica, Normal';font-variant-ligatures:normal;font-variant-caps:normal;font-variant-numeric:normal;font-feature-settings:normal;text-align:start;letter-spacing:0;word-spacing:0;writing-mode:lr-tb;text-anchor:start;fill:#000;fill-opacity:1;stroke:none;stroke-width:.26458332" id="text827" aria-label="-"><path style="font-style:normal;font-variant:normal;font-weight:400;font-stretch:normal;font-size:4.23333311px;font-family:Matematica;-inkscape-font-specification:'Matematica, Normal';font-variant-ligatures:normal;font-variant-caps:normal;font-variant-numeric:normal;font-feature-settings:normal;text-align:start;writing-mode:lr-tb;text-anchor:start;stroke-width:.26458332" id="path826" d="m 37.898296,65.143813 c 0,0.02963 -0.0254,0.05927 -0.05927,0.05927 h -1.0668 c -0.03387,0 -0.05927,-0.02963 -0.05927,-0.05927 v -0.474134 c 0,-0.03387 0.0254,-0.05927 0.05927,-0.05927 h 1.0668 c 0.03387,0 0.05927,0.0254 0.05927,0.05927 z"/></g></g></svg>