<svg xmlns="http://www.w3.org/2000/svg" xmlns:svg="http://www.w3.org/2000/svg" id="svg8" width="28" height="28" version="1.1" viewBox="0 0 7.408 7.408"><metadata id="metadata5"/><g id="layer1" transform="translate(-1.0583337,-288.53332)"><path style="fill:#0a0a0a;fill-opacity:1;stroke:none;stroke-width:.2657699;stroke-opacity:1" id="path4520" d="m 4.7625004,288.53332 c 0.442323,0 0.2273981,0.29369 0.661222,0.37998 0.433824,0.0863 0.3476479,-0.26728 0.7563012,-0.098 0.4086532,0.16926 0.0977,0.35835 0.4654779,0.60409 0.3677783,0.24574 0.4234705,-0.1139 0.7362402,0.19887 0.3127696,0.31277 -0.046872,0.36846 0.1988691,0.73624 0.2457416,0.36778 0.4348236,0.0568 0.6040933,0.46548 0.1692697,0.40865 -0.1843087,0.32247 -0.098016,0.7563 0.086293,0.43382 0.3799786,0.2189 0.3799786,0.66122 0,0.44232 -0.2936857,0.2274 -0.3799786,0.66122 -0.086293,0.43382 0.2672854,0.34765 0.098016,0.7563 -0.1692697,0.40866 -0.3583516,0.0977 -0.6040931,0.46548 -0.2457416,0.36778 0.1139004,0.42347 -0.1988693,0.73624 -0.3127696,0.31277 -0.3684618,-0.0469 -0.73624,0.19887 -0.3677783,0.24574 -0.056825,0.43482 -0.4654782,0.60409 -0.4086531,0.16927 -0.322477,-0.18431 -0.7563009,-0.098 -0.4338241,0.0863 -0.2188991,0.37998 -0.6612223,0.37998 -0.442323,0 -0.2273981,-0.29369 -0.661222,-0.37998 -0.433824,-0.0863 -0.3476479,0.26728 -0.7563012,0.098 -0.4086532,-0.16927 -0.0977,-0.35835 -0.4654779,-0.60409 -0.3677783,-0.24574 -0.4234705,0.1139 -0.7362402,-0.19887 -0.3127696,-0.31277 0.046872,-0.36846 -0.1988691,-0.73624 -0.2457416,-0.36778 -0.4348235,-0.0568 -0.6040933,-0.46548 -0.1692697,-0.40865 0.1843087,-0.32248 0.098016,-0.7563 -0.086293,-0.43382 -0.3799786,-0.2189 -0.3799786,-0.66122 0,-0.44232 0.2936856,-0.2274 0.3799785,-0.66122 0.086293,-0.43383 -0.2672853,-0.34765 -0.098016,-0.7563 0.1692697,-0.40866 0.3583516,-0.0977 0.6040931,-0.46548 0.2457416,-0.36778 -0.1139004,-0.42347 0.1988693,-0.73624 0.3127696,-0.31277 0.3684619,0.0469 0.73624,-0.19887 0.3677783,-0.24574 0.056825,-0.43483 0.4654782,-0.60409 0.4086532,-0.16927 0.3224771,0.1843 0.7563009,0.098 0.4338241,-0.0863 0.2188992,-0.37998 0.6612223,-0.37998 z"/><circle style="fill:#43506f;fill-opacity:1;stroke:none;stroke-width:.26458338;stroke-opacity:1" id="path827" cx="4.762" cy="292.237" r="3.087"/><rect style="fill:#fcfcfc;fill-opacity:1;stroke:none;stroke-width:.41155916;stroke-opacity:1" id="rect829" width=".412" height="2.469" x="4.557" y="289.151"/></g></svg>