<svg xmlns="http://www.w3.org/2000/svg" xmlns:svg="http://www.w3.org/2000/svg" id="svg8" width="15" height="15" version="1.1" viewBox="0 0 3.969 3.969"><metadata id="metadata5"/><g id="layer1" transform="translate(0,-293.03123)"><path style="opacity:1;fill:#4a4a4a;fill-opacity:1;stroke:none;stroke-width:.02645833;stroke-linecap:square;stroke-linejoin:bevel;stroke-miterlimit:4;stroke-dasharray:none;stroke-opacity:1;paint-order:normal" id="rect819" d="m 1.8851563,293.82498 c -0.054967,0 -0.099219,0.0443 -0.099219,0.0992 v 0.89298 H 0.89296875 c -0.0549672,0 -0.0992188,0.0443 -0.0992188,0.0992 v 0.19844 c 0,0.055 0.0442516,0.0992 0.0992188,0.0992 H 1.7859375 v 0.89297 c 0,0.055 0.044251,0.0992 0.099219,0.0992 H 2.083594 c 0.054968,0 0.099219,-0.0443 0.099219,-0.0992 V 295.214 h 0.8929687 c 0.054968,0 0.099219,-0.0443 0.099219,-0.0992 v -0.19844 c 0,-0.055 -0.044251,-0.0992 -0.099219,-0.0992 H 2.1828126 v -0.89298 c 0,-0.055 -0.04425,-0.0992 -0.099219,-0.0992 z"/></g></svg>