<svg xmlns="http://www.w3.org/2000/svg" xmlns:svg="http://www.w3.org/2000/svg" id="svg928" width="24" height="24" version="1.1" viewBox="0 0 6.35 6.35"><metadata id="metadata925"/><g id="layer2" style="display:inline"><path id="path5755" d="m 3.175,1.2587854 c -1.4331294,0 -2.59491041,1.0702815 -2.59491041,2.3905404 0,1.3202588 1.16178101,2.3905403 2.59491041,2.3905403 1.4331293,0 2.5949103,-1.0702815 2.5949103,-2.3905403 0,-1.3202589 -1.161781,-2.3905404 -2.5949103,-2.3905404 z" style="opacity:1;fill:none;fill-opacity:1;stroke:#000;stroke-width:.62265754;stroke-linecap:square;stroke-linejoin:bevel;stroke-miterlimit:4;stroke-dasharray:none;stroke-opacity:.19607843;paint-order:stroke fill markers"/><path style="opacity:1;fill:#7a7a7a;fill-opacity:1;stroke:none;stroke-width:.72760415;stroke-linecap:square;stroke-linejoin:bevel;stroke-miterlimit:4;stroke-dasharray:none;stroke-opacity:1;paint-order:stroke fill markers" id="path11059" d="m 3.175,0.35079126 c -1.6073787,0 -2.91041667,1.30303794 -2.91041667,2.91041664 0,1.6073786 1.30303797,2.9104166 2.91041667,2.9104166 1.6073786,0 2.9104166,-1.303038 2.9104166,-2.9104166 0,-1.6073787 -1.303038,-2.91041664 -2.9104166,-2.91041664 z m 0,1.69774294 A 1.2126736,1.2126736 0 0 1 4.3876736,3.2612079 1.2126736,1.2126736 0 0 1 3.175,4.4738815 1.2126736,1.2126736 0 0 1 1.9623263,3.2612079 1.2126736,1.2126736 0 0 1 3.175,2.0485342 Z"/></g></svg>