<svg xmlns="http://www.w3.org/2000/svg" xmlns:svg="http://www.w3.org/2000/svg" id="svg928" width="24" height="24" version="1.1" viewBox="0 0 6.35 6.35"><metadata id="metadata925"/><g id="layer1" transform="translate(0,-290.64998)"><path style="opacity:1;fill:#7f7f7f;fill-opacity:1;stroke:none;stroke-width:.26458332;stroke-linecap:square;stroke-linejoin:miter;stroke-miterlimit:4;stroke-dasharray:none;stroke-opacity:1;paint-order:stroke fill markers" id="path1478" d="m 5.5562499,293.82498 c 0,-1.31513 -1.06612,-2.38125 -2.3812499,-2.38125 -1.31513,0 -2.38125001,1.06612 -2.38125001,2.38125 0,1.31513 1.06612001,2.38125 2.38125001,2.38125 1.3151299,0 2.3812499,-1.06612 2.3812499,-2.38125 z m -1.2598714,0.30437 -0.4299479,0.34365 -0.1725991,-0.21394 -0.5193483,-0.65009 -0.5188315,0.65009 -0.1715656,0.21394 -0.4299479,-0.34365 0.1715656,-0.21445 0.9487794,-1.18701 0.9503296,1.18701 z"/><path id="path3037" d="m 3.175,279.20675 c -1.3151281,0 -2.38125,1.06612 -2.38125,2.38125 0,1.31513 1.0661219,2.38125 2.38125,2.38125 1.315128,0 2.3812499,-1.06612 2.3812499,-2.38125 0,-1.31513 -1.0661219,-2.38125 -2.3812499,-2.38125 z m -0.6615876,1.38867 1.2317078,0.71081 v -0.71042 h 0.4220672 v 1.98438 H 3.7451202 v -0.71042 l -1.2317078,0.7108 z" style="opacity:1;fill:#7f7f7f;fill-opacity:1;stroke:none;stroke-width:.26458332;stroke-linecap:square;stroke-linejoin:miter;stroke-miterlimit:4;stroke-dasharray:none;stroke-opacity:1;paint-order:stroke fill markers"/></g></svg>