<svg xmlns="http://www.w3.org/2000/svg" xmlns:svg="http://www.w3.org/2000/svg" id="svg11543" width="25" height="25" version="1.1" viewBox="0 0 6.615 6.615"><metadata id="metadata11540"/><g id="layer1" transform="translate(-33.337496,-58.988395)"><g id="g6703" transform="matrix(0.22180737,0,0,-0.22180737,-187.44188,317.8558)" style="stroke-width:1.59046912"><path style="opacity:1;vector-effect:none;fill:#e7e7e7;fill-opacity:1;fill-rule:nonzero;stroke:#909290;stroke-width:1.05972111;stroke-linecap:butt;stroke-linejoin:miter;stroke-miterlimit:4;stroke-dasharray:none;stroke-dashoffset:0;stroke-opacity:1" id="path4505" d="m 1010.1877,1137.7906 c -7.8809,0 -14.29247,6.425 -14.29247,14.32 0,7.881 6.41157,14.2925 14.29247,14.2925 7.896,0 14.3199,-6.4115 14.3199,-14.2925 0,-7.895 -6.4239,-14.32 -14.3199,-14.32"/><path style="opacity:1;vector-effect:none;fill:#05668d;fill-opacity:1;fill-rule:nonzero;stroke:#044c69;stroke-width:1.05972111;stroke-linecap:butt;stroke-linejoin:miter;stroke-miterlimit:4;stroke-dasharray:none;stroke-dashoffset:0;stroke-opacity:1" id="path6735" d="m 1010.2432,1140.07 c -6.6318,0 -12.02704,5.3952 -12.02704,12.0271 0,6.6318 5.39524,12.028 12.02704,12.028 6.6319,0 12.0271,-5.3962 12.0271,-12.028 0,-6.6319 -5.3952,-12.0271 -12.0271,-12.0271"/></g></g></svg>