<svg xmlns="http://www.w3.org/2000/svg" xmlns:svg="http://www.w3.org/2000/svg" id="svg56722" width="6" height="15" version="1.1" viewBox="0 0 1.587 3.969"><metadata id="metadata56719"/><g id="layer1" transform="translate(-30.16787,-66.867)"><g id="g56702" transform="matrix(0.11906604,0,0,-0.19999202,-60.620909,300.61482)" style="stroke-width:1.2817142"><g id="g5827" transform="translate(762.5078,1167.3652)" style="stroke-width:1.2817142"><path id="path5829" d="M 0,0 C 0,0.779 0.639,1.418 1.418,1.418 H 12.04 c 0.779,0 1.418,-0.639 1.418,-1.418 v -17.007 c 0,-0.779 -0.639,-1.417 -1.418,-1.417 H 1.418 C 0.639,-18.424 0,-17.786 0,-17.007 Z" style="fill:#000;fill-opacity:1;fill-rule:nonzero;stroke:none;stroke-width:1.2817142"/></g><g style="fill:#282828;fill-opacity:1;stroke-width:1.2817142" id="g5839"><g style="fill:#282828;fill-opacity:1;stroke-width:1.2817142" id="g5841"><path id="path5849" d="m 764.617,1167.502 c -0.468,0 -0.852,-0.382 -0.852,-0.85 v 0 -15.724 c 0,-0.468 0.384,-0.851 0.852,-0.851 v 0 h 9.239 c 0.467,0 0.85,0.383 0.85,0.851 v 0 15.724 c 0,0.468 -0.383,0.85 -0.85,0.85 v 0 z" style="fill:#282828;fill-opacity:1;stroke:none;stroke-width:1.2817142"/></g></g><path id="path5859" d="m 763.767,1167.503 h 10.94 v -8.504 h -10.94 z" style="fill:#444;fill-opacity:1;fill-rule:nonzero;stroke:none;stroke-width:1.2817142"/><path id="path5861" d="m 763.767,1163.719 h 10.94 v -0.936 h -10.94 z" style="fill:#999;fill-opacity:1;fill-rule:nonzero;stroke:none;stroke-width:1.2817142"/><path id="path5863" d="m 763.767,1159.935 h 10.94 v -0.936 h -10.94 z" style="fill:#999;fill-opacity:1;fill-rule:nonzero;stroke:none;stroke-width:1.2817142"/><path id="path5865" d="m 763.767,1161.826 h 10.94 v -0.936 h -10.94 z" style="fill:#999;fill-opacity:1;fill-rule:nonzero;stroke:none;stroke-width:1.2817142"/><path id="path5867" d="m 763.767,1165.611 h 10.94 v -0.936 h -10.94 z" style="fill:#999;fill-opacity:1;fill-rule:nonzero;stroke:none;stroke-width:1.2817142"/><path id="path5869" d="m 763.767,1167.503 h 10.94 v -0.936 h -10.94 z" style="fill:#999;fill-opacity:1;fill-rule:nonzero;stroke:none;stroke-width:1.2817142"/></g></g></svg>