<svg xmlns="http://www.w3.org/2000/svg" xmlns:svg="http://www.w3.org/2000/svg" id="svg16908" width="10" height="10" version="1.1" viewBox="0 0 2.646 2.646"><defs id="defs16902"><clipPath id="clipPath6367" clipPathUnits="userSpaceOnUse"><path id="path6365" d="M 0,3193 H 2089 V 0 H 0 Z"/></clipPath><clipPath id="clip89"><rect id="rect4864" width="18" height="19" x="0" y="0"/></clipPath><clipPath id="clip90"><path id="path4861" d="m 0.898438,0.128906 h 16.25 v 17.882813 h -16.25 z m 0,0"/></clipPath><mask id="mask44"><g id="g4858" transform="matrix(0.26458333,0,0,0.26458333,89.358789,128.57765)" style="filter:url(#alpha)"><rect id="rect4856" width="3052.87" height="3351.5" x="0" y="0" style="fill:#000;fill-opacity:.14999402;stroke:none"/></g></mask><filter id="alpha" width="1" height="1" x="0" y="0" filterUnits="objectBoundingBox"><feColorMatrix id="feColorMatrix4149" in="SourceGraphic" type="matrix" values="0 0 0 0 1 0 0 0 0 1 0 0 0 0 1 0 0 0 1 0"/></filter><clipPath id="clipPath17821"><rect id="rect17819" width="18" height="19" x="0" y="0"/></clipPath><clipPath id="clipPath17825"><path id="path17823" d="m 0.898438,0.128906 h 16.25 v 17.882813 h -16.25 z m 0,0"/></clipPath><clipPath id="clip87"><rect id="rect4848" width="24" height="26" x="0" y="0"/></clipPath><clipPath id="clip88"><path id="path4845" d="m 0.683594,0.921875 h 22.679687 v 24.9375 H 0.683594 Z m 0,0"/></clipPath><mask id="mask43"><g id="g4842" transform="matrix(0.26458333,0,0,0.26458333,89.358789,128.57765)" style="filter:url(#alpha)"><rect id="rect4840" width="3052.87" height="3351.5" x="0" y="0" style="fill:#000;fill-opacity:.14999402;stroke:none"/></g></mask><filter id="filter17836" width="1" height="1" x="0" y="0" filterUnits="objectBoundingBox"><feColorMatrix id="feColorMatrix17834" in="SourceGraphic" type="matrix" values="0 0 0 0 1 0 0 0 0 1 0 0 0 0 1 0 0 0 1 0"/></filter><clipPath id="clipPath17840"><rect id="rect17838" width="24" height="26" x="0" y="0"/></clipPath><clipPath id="clipPath17844"><path id="path17842" d="m 0.683594,0.921875 h 22.679687 v 24.9375 H 0.683594 Z m 0,0"/></clipPath><clipPath id="clip95"><rect id="rect4912" width="18" height="18" x="0" y="0"/></clipPath><clipPath id="clip96"><path id="path4909" d="M 0.140625,0.140625 H 17.199219 V 17.199219 H 0.140625 Z m 0,0"/></clipPath><mask id="mask47"><g id="g4906" transform="matrix(0.26458333,0,0,0.26458333,88.611154,119.19859)" style="filter:url(#alpha-3)"><rect id="rect4904" width="3052.87" height="3351.5" x="0" y="0" style="fill:#000;fill-opacity:.33000201;stroke:none"/></g></mask><filter id="alpha-3" width="1" height="1" x="0" y="0" filterUnits="objectBoundingBox"><feColorMatrix id="feColorMatrix4149-6" in="SourceGraphic" type="matrix" values="0 0 0 0 1 0 0 0 0 1 0 0 0 0 1 0 0 0 1 0"/></filter><clipPath id="clipPath18541"><rect id="rect18539" width="18" height="18" x="0" y="0"/></clipPath><clipPath id="clipPath18545"><path id="path18543" d="M 0.140625,0.140625 H 17.199219 V 17.199219 H 0.140625 Z m 0,0"/></clipPath><clipPath id="clip93"><rect id="rect4896" width="22" height="24" x="0" y="0"/></clipPath><clipPath id="clip94"><path id="path4893" d="M 0.0390625,0.0390625 H 21.300781 V 23.421875 H 0.0390625 Z m 0,0"/></clipPath><mask id="mask46"><g id="g4890" transform="matrix(0.26458333,0,0,0.26458333,88.611154,119.19859)" style="filter:url(#alpha-3)"><rect id="rect4888" width="3052.87" height="3351.5" x="0" y="0" style="fill:#000;fill-opacity:.14999402;stroke:none"/></g></mask><filter id="filter18556" width="1" height="1" x="0" y="0" filterUnits="objectBoundingBox"><feColorMatrix id="feColorMatrix18554" in="SourceGraphic" type="matrix" values="0 0 0 0 1 0 0 0 0 1 0 0 0 0 1 0 0 0 1 0"/></filter><clipPath id="clipPath18560"><rect id="rect18558" width="22" height="24" x="0" y="0"/></clipPath><clipPath id="clipPath18564"><path id="path18562" d="M 0.0390625,0.0390625 H 21.300781 V 23.421875 H 0.0390625 Z m 0,0"/></clipPath><clipPath id="clip91"><rect id="rect4880" width="29" height="32" x="0" y="0"/></clipPath><clipPath id="clip92"><path id="path4877" d="M 0.507812,0.5 H 28.855469 V 31.679688 H 0.507812 Z m 0,0"/></clipPath><mask id="mask45"><g id="g4874" transform="matrix(0.26458333,0,0,0.26458333,88.611154,119.19859)" style="filter:url(#alpha-3)"><rect id="rect4872" width="3052.87" height="3351.5" x="0" y="0" style="fill:#000;fill-opacity:.14999402;stroke:none"/></g></mask><filter id="filter18575" width="1" height="1" x="0" y="0" filterUnits="objectBoundingBox"><feColorMatrix id="feColorMatrix18573" in="SourceGraphic" type="matrix" values="0 0 0 0 1 0 0 0 0 1 0 0 0 0 1 0 0 0 1 0"/></filter><clipPath id="clipPath18579"><rect id="rect18577" width="29" height="32" x="0" y="0"/></clipPath><clipPath id="clipPath18583"><path id="path18581" d="M 0.507812,0.5 H 28.855469 V 31.679688 H 0.507812 Z m 0,0"/></clipPath><clipPath id="clip202"><rect id="rect5795" width="18" height="18" x="0" y="0"/></clipPath><clipPath id="clip203"><path id="path5792" d="M 0.855469,0.140625 H 17.914062 V 17.199219 H 0.855469 Z m 0,0"/></clipPath><mask id="mask104"><g id="g5789" transform="matrix(0.26458333,0,0,0.26458333,74.416306,97.613551)" style="filter:url(#alpha-7)"><rect id="rect5787" width="3052.87" height="3351.5" x="0" y="0" style="fill:#000;fill-opacity:.33000201;stroke:none"/></g></mask><filter id="alpha-7" width="1" height="1" x="0" y="0" filterUnits="objectBoundingBox"><feColorMatrix id="feColorMatrix4149-5" in="SourceGraphic" type="matrix" values="0 0 0 0 1 0 0 0 0 1 0 0 0 0 1 0 0 0 1 0"/></filter><clipPath id="clipPath18765"><rect id="rect18763" width="18" height="18" x="0" y="0"/></clipPath><clipPath id="clipPath18769"><path id="path18767" d="M 0.855469,0.140625 H 17.914062 V 17.199219 H 0.855469 Z m 0,0"/></clipPath></defs><metadata id="metadata16905"/><g id="layer2" transform="translate(0,-6.8795647)" style="display:inline"><ellipse style="display:inline;fill:#9ce2d9;fill-opacity:1;stroke:none;stroke-width:.18894145;stroke-linejoin:round;stroke-miterlimit:4;stroke-dasharray:none;stroke-opacity:1;paint-order:stroke markers fill" id="path821-6" cx="1.331" cy="8.237" rx="1.32" ry="1.32"/><g id="layer1-9" transform="matrix(0.23873194,0,0,0.23597445,-11.890236,-13.527496)" style="fill:#f3f3f3;fill-opacity:1"><path style="fill:#f3f3f3;fill-opacity:1;fill-rule:nonzero;stroke:none;stroke-width:.35277775" id="path8217" d="m 60.020116,92.23473 c 0,2.532835 -2.053272,4.586111 -4.58611,4.586111 -2.534215,0 -4.586111,-2.053276 -4.586111,-4.586111 0,-2.532835 2.051896,-4.586111 4.586111,-4.586111 2.532838,0 4.58611,2.053276 4.58611,4.586111"/><path style="clip-rule:nonzero;fill:#f3f3f3;fill-opacity:1;fill-rule:nonzero;stroke:none;stroke-width:.35277775" id="path47002" d="m 55.434006,96.820841 c 0.549839,0 1.07763,-0.101974 1.566827,-0.279742 l -1.566827,-4.306369 -1.568204,4.306369 c 0.489197,0.177768 1.016988,0.279742 1.568204,0.279742"/><path style="clip-rule:nonzero;fill:#f3f3f3;fill-opacity:1;fill-rule:nonzero;stroke:none;stroke-width:.35277775" id="path47006" d="m 55.434006,92.23473 1.566827,-4.304993 c -0.489197,-0.179144 -1.016988,-0.281118 -1.566827,-0.281118 -0.551216,0 -1.079007,0.101974 -1.568204,0.281118 z m 0,0"/></g><path style="fill:#fff;fill-opacity:1;stroke:#000;stroke-width:.11566175;stroke-linecap:butt;stroke-linejoin:miter;stroke-miterlimit:4;stroke-dasharray:none;stroke-opacity:1" id="path4695" d="M 1.3436317,8.2375443 V 7.1473782"/></g></svg>