<svg xmlns="http://www.w3.org/2000/svg" xmlns:svg="http://www.w3.org/2000/svg" id="svg15246" width="26" height="26" version="1.1" viewBox="0 0 6.879 6.879"><defs id="defs15240"><clipPath id="clip89"><rect id="rect4864" width="18" height="19" x="0" y="0"/></clipPath><clipPath id="clip90"><path id="path4861" d="m 0.898438,0.128906 h 16.25 v 17.882813 h -16.25 z m 0,0"/></clipPath><mask id="mask44"><g style="filter:url(#alpha)" id="g4858" transform="matrix(0.26458333,0,0,0.26458333,89.358789,128.57765)"><rect style="fill:#000;fill-opacity:.14999402;stroke:none" id="rect4856" width="3052.87" height="3351.5" x="0" y="0"/></g></mask><filter id="alpha" width="1" height="1" x="0" y="0" filterUnits="objectBoundingBox"><feColorMatrix id="feColorMatrix4149" in="SourceGraphic" type="matrix" values="0 0 0 0 1 0 0 0 0 1 0 0 0 0 1 0 0 0 1 0"/></filter><clipPath id="clipPath17821"><rect id="rect17819" width="18" height="19" x="0" y="0"/></clipPath><clipPath id="clipPath17825"><path id="path17823" d="m 0.898438,0.128906 h 16.25 v 17.882813 h -16.25 z m 0,0"/></clipPath><clipPath id="clip87"><rect id="rect4848" width="24" height="26" x="0" y="0"/></clipPath><clipPath id="clip88"><path id="path4845" d="m 0.683594,0.921875 h 22.679687 v 24.9375 H 0.683594 Z m 0,0"/></clipPath><mask id="mask43"><g style="filter:url(#alpha)" id="g4842" transform="matrix(0.26458333,0,0,0.26458333,89.358789,128.57765)"><rect style="fill:#000;fill-opacity:.14999402;stroke:none" id="rect4840" width="3052.87" height="3351.5" x="0" y="0"/></g></mask><filter id="filter17836" width="1" height="1" x="0" y="0" filterUnits="objectBoundingBox"><feColorMatrix id="feColorMatrix17834" in="SourceGraphic" type="matrix" values="0 0 0 0 1 0 0 0 0 1 0 0 0 0 1 0 0 0 1 0"/></filter><clipPath id="clipPath17840"><rect id="rect17838" width="24" height="26" x="0" y="0"/></clipPath><clipPath id="clipPath17844"><path id="path17842" d="m 0.683594,0.921875 h 22.679687 v 24.9375 H 0.683594 Z m 0,0"/></clipPath></defs><metadata id="metadata15243"/><g id="layer1" transform="translate(-88.611154,-120.67505)"><path id="path7261" d="m 92.056498,127.38399 c -1.806104,0 -3.275111,-1.46901 -3.275111,-3.27512 0,-1.8061 1.469007,-3.27509 3.275111,-3.27509 1.806106,0 3.275109,1.46899 3.275109,3.27509 0,1.80611 -1.469003,3.27512 -3.275109,3.27512" style="fill:#c2d8c3;fill-opacity:1;fill-rule:nonzero;stroke:#237b60;stroke-width:.28052977;stroke-miterlimit:4;stroke-dasharray:none;stroke-opacity:1"/><path id="path7261-6" d="m 92.056498,126.34769 c -1.23462,0 -2.238806,-1.00419 -2.238806,-2.23882 0,-1.23461 1.004186,-2.23879 2.238806,-2.23879 1.234621,0 2.238804,1.00418 2.238804,2.23879 0,1.23463 -1.004183,2.23882 -2.238804,2.23882" style="fill:#fff;fill-opacity:1;fill-rule:nonzero;stroke:#237b60;stroke-width:.19176503;stroke-miterlimit:4;stroke-dasharray:none;stroke-opacity:1"/><path id="path7265" d="m 93.564599,124.10887 c 0,0.83258 -0.675528,1.50812 -1.508101,1.50812 -0.832575,0 -1.508103,-0.67554 -1.508103,-1.50812 0,-0.83257 0.675528,-1.50808 1.508103,-1.50808 0.832573,0 1.508101,0.67551 1.508101,1.50808" style="fill:#000;fill-opacity:1;fill-rule:nonzero;stroke:none;stroke-width:.29561555"/></g></svg>