<svg xmlns="http://www.w3.org/2000/svg" xmlns:svg="http://www.w3.org/2000/svg" id="svg49872" width="37.557" height="37.557" version="1.1" viewBox="0 0 9.937 9.937"><defs id="defs49866"><clipPath id="clip12"><path id="path28860" d="m 143,129.75 h 3 V 158 h -3 z m 0,0"/></clipPath><clipPath id="clip11"><path id="path28857" d="m 117.39453,129.75 h 54 v 54.00391 h -54 z m 0,0"/></clipPath><clipPath id="clip150"><path id="path29465" d="m 176,208.92578 h 2 V 228 h -2 z m 0,0"/></clipPath><clipPath id="clip149"><path id="path29462" d="m 159.27734,208.92578 h 36 v 36 h -36 z m 0,0"/></clipPath><clipPath id="clip142"><path id="path29320" d="m 110,208.92578 h 3 V 228 h -3 z m 0,0"/></clipPath><clipPath id="clip141"><path id="path29317" d="m 93.511719,208.92578 h 36.000001 v 36 H 93.511719 Z m 0,0"/></clipPath></defs><metadata id="metadata49869"/><g id="layer1" transform="translate(-73.816227,-78.610433)"><path style="clip-rule:nonzero;fill:#000;fill-opacity:1;fill-rule:nonzero;stroke:#00477e;stroke-width:.38163272;stroke-miterlimit:4;stroke-dasharray:none;stroke-opacity:1" id="path38955" d="m 83.56227,83.578859 c 0,2.638678 -2.138935,4.777614 -4.777614,4.777614 -2.638677,0 -4.777613,-2.138936 -4.777613,-4.777614 0,-2.638677 2.138936,-4.777612 4.777613,-4.777612 2.638679,0 4.777614,2.138935 4.777614,4.777612"/><path style="opacity:1;vector-effect:none;fill:none;fill-opacity:1;fill-rule:evenodd;stroke:#fff;stroke-width:.39687499;stroke-linecap:butt;stroke-linejoin:round;stroke-miterlimit:4;stroke-dasharray:none;stroke-dashoffset:0;stroke-opacity:1;paint-order:normal" id="path53181" d="M 78.784655,83.578861 V 78.610433"/></g></svg>