<svg xmlns="http://www.w3.org/2000/svg" xmlns:svg="http://www.w3.org/2000/svg" xmlns:xlink="http://www.w3.org/1999/xlink" id="svg8" width="90" height="380" version="1.1" viewBox="0 0 23.813 100.542"><defs id="defs2"><linearGradient id="linearGradient4189"><stop id="stop4191" offset="0" style="stop-color:#fff;stop-opacity:1"/><stop id="stop4193" offset="1" style="stop-color:#000;stop-opacity:0"/></linearGradient><linearGradient id="linearGradient5349"><stop id="stop5351" offset="0" style="stop-color:#fdfdfd;stop-opacity:1"/><stop id="stop5353" offset="1" style="stop-color:#fdfdfd;stop-opacity:1"/></linearGradient><radialGradient id="radialGradient5357" cx="285.494" cy="856.052" r="69.827" fx="285.494" fy="856.052" gradientTransform="matrix(0.42180436,0,0,0.0267339,-105.98218,272.19192)" gradientUnits="userSpaceOnUse" xlink:href="#linearGradient5349"/><linearGradient id="linearGradient4195" x1="268.967" x2="279.915" y1="830.884" y2="832.532" gradientTransform="matrix(0.26458334,0,0,0.26458334,-59.861442,72.341009)" gradientUnits="userSpaceOnUse" xlink:href="#linearGradient4189"/><clipPath id="clipPath4626" clipPathUnits="userSpaceOnUse"><rect style="opacity:1;fill:#1500ae;fill-opacity:1;stroke:none;stroke-width:1;stroke-miterlimit:4;stroke-dasharray:none;stroke-opacity:1" id="rect4628" width="120" height="101.823" x="173.658" y="-14.577"/></clipPath><clipPath id="clipPath4630" clipPathUnits="userSpaceOnUse"><rect style="opacity:1;fill:#1500ae;fill-opacity:1;stroke:none;stroke-width:1;stroke-miterlimit:4;stroke-dasharray:none;stroke-opacity:1" id="rect4632" width="31.75" height="26.941" x="0" y="274.579"/></clipPath><clipPath id="clipPath4634" clipPathUnits="userSpaceOnUse"><rect style="opacity:1;fill:#1500ae;fill-opacity:1;stroke:none;stroke-width:1;stroke-miterlimit:4;stroke-dasharray:none;stroke-opacity:1" id="rect4636" width="31.75" height="26.941" x="0" y="274.579"/></clipPath><clipPath id="clipPath4638" clipPathUnits="userSpaceOnUse"><rect style="opacity:1;fill:#1500ae;fill-opacity:1;stroke:none;stroke-width:1;stroke-miterlimit:4;stroke-dasharray:none;stroke-opacity:1" id="rect4640" width="133.152" height="112.983" x="216.698" y="-81.335"/></clipPath><clipPath id="clipPath4642" clipPathUnits="userSpaceOnUse"><rect style="opacity:1;fill:#1500ae;fill-opacity:1;stroke:none;stroke-width:1;stroke-miterlimit:4;stroke-dasharray:none;stroke-opacity:1" id="rect4644" width="31.75" height="26.941" x="0" y="274.579"/></clipPath><clipPath id="clipPath4646" clipPathUnits="userSpaceOnUse"><rect style="opacity:1;fill:#1500ae;fill-opacity:1;stroke:none;stroke-width:1;stroke-miterlimit:4;stroke-dasharray:none;stroke-opacity:1" id="rect4648" width="31.75" height="26.941" x="0" y="274.579"/></clipPath><clipPath id="clipPath5173" clipPathUnits="userSpaceOnUse"><rect style="opacity:1;fill:#fff;fill-opacity:1;stroke:gray;stroke-width:1.66364133;stroke-miterlimit:4;stroke-dasharray:none;stroke-opacity:1" id="rect5175" width="115.198" height="45.223" x="176.059" y="41.761"/></clipPath><clipPath id="clipPath5177" clipPathUnits="userSpaceOnUse"><rect style="opacity:1;fill:#fff;fill-opacity:1;stroke:gray;stroke-width:.3880538;stroke-miterlimit:4;stroke-dasharray:none;stroke-opacity:1" id="rect5179" width="23.689" height="11.965" x="4.03" y="289.485"/></clipPath><clipPath id="clipPath5181" clipPathUnits="userSpaceOnUse"><rect style="opacity:1;fill:#fff;fill-opacity:1;stroke:gray;stroke-width:.3880538;stroke-miterlimit:4;stroke-dasharray:none;stroke-opacity:1" id="rect5183" width="23.689" height="11.965" x="4.03" y="289.485"/></clipPath><clipPath id="clipPath5185" clipPathUnits="userSpaceOnUse"><rect style="opacity:1;fill:#fff;fill-opacity:1;stroke:gray;stroke-width:1.62740862;stroke-miterlimit:4;stroke-dasharray:none;stroke-opacity:1" id="rect5187" width="99.346" height="50.18" x="233.601" y="-18.821"/></clipPath><clipPath id="clipPath5189" clipPathUnits="userSpaceOnUse"><rect style="opacity:1;fill:#fff;fill-opacity:1;stroke:gray;stroke-width:.3880538;stroke-miterlimit:4;stroke-dasharray:none;stroke-opacity:1" id="rect5191" width="23.689" height="11.965" x="4.03" y="289.485"/></clipPath><clipPath id="clipPath5193" clipPathUnits="userSpaceOnUse"><rect style="opacity:1;fill:#fff;fill-opacity:1;stroke:gray;stroke-width:.3880538;stroke-miterlimit:4;stroke-dasharray:none;stroke-opacity:1" id="rect5195" width="23.689" height="11.965" x="4.03" y="289.485"/></clipPath></defs><metadata id="metadata5"/><g id="layer1" transform="translate(0,-196.45832)" style="display:inline"><g id="g5028" transform="translate(-3.9687498,0)"><path id="path5329" d="m 31.483446,294.93321 -17.042828,-0.12503 -14.4172474,0.12503 -0.87873195,-3.46985 c 4.80992545,-1.00484 10.75039865,-1.72449 16.17117335,-1.71947 5.715286,0.005 9.886121,0.46573 17.046366,1.84449 z" clip-path="url(#clipPath5193)" style="opacity:1;fill:url(#radialGradient5357);fill-opacity:1;stroke:#8b8b8b;stroke-width:.39687502;stroke-linejoin:miter;stroke-miterlimit:4;stroke-dasharray:none;stroke-opacity:1"/><path style="opacity:1;fill:#000;fill-opacity:1;stroke:none;stroke-width:1.00699997;stroke-linejoin:miter;stroke-miterlimit:4;stroke-dasharray:none;stroke-opacity:1" id="rect5381" d="M -1.0865176e-6,291.9933 C 10.904412,290.78346 21.545669,291.00362 31.750002,292.11599 l -0.03339,3.29649 -31.7166130865176,0 z" clip-path="url(#clipPath5189)" transform="matrix(1,0,0,1.365928,0,-106.55059)"/><g id="g5442" transform="matrix(0.20349343,0,0,0.39075303,20.813637,177.78859)" style="stroke-width:.53158021;stroke-miterlimit:4;stroke-dasharray:none"><path id="path5444" d="m 14.983377,294.24124 c 0.20915,-1.01247 1.870548,-3.90915 3.617048,-3.86235 0.375386,0.12341 0.384796,2.70824 0.429141,3.78052 l -1.430471,0.33719 z" style="fill:#000;fill-opacity:1;fill-rule:evenodd;stroke:#fff;stroke-width:.53158021;stroke-linecap:butt;stroke-linejoin:miter;stroke-miterlimit:4;stroke-dasharray:none;stroke-opacity:1"/><path id="path5446" d="m 18.590207,290.43006 c -0.449576,1.15119 -1.001329,2.80304 -1.001329,4.03597" style="fill:none;fill-rule:evenodd;stroke:#fff;stroke-width:.53158021;stroke-linecap:butt;stroke-linejoin:miter;stroke-miterlimit:4;stroke-dasharray:none;stroke-opacity:1"/><path style="fill:none;fill-rule:evenodd;stroke:#fff;stroke-width:.53158021;stroke-linecap:butt;stroke-linejoin:miter;stroke-miterlimit:4;stroke-dasharray:none;stroke-opacity:1" id="path5448" d="m 18.375636,290.39941 c -1.123897,1.65973 -1.840905,2.74056 -1.788088,3.96443"/><path id="path5450" d="m 17.823883,290.52202 c -1.317216,1.67113 -1.953336,2.56573 -2.0844,3.76008" style="fill:none;fill-rule:evenodd;stroke:#fff;stroke-width:.53158021;stroke-linecap:butt;stroke-linejoin:miter;stroke-miterlimit:4;stroke-dasharray:none;stroke-opacity:1"/></g><g id="g5432" transform="matrix(0.50086081,0,0,0.81335643,12.728395,54.142102)" style="stroke-width:.28798857;stroke-miterlimit:4;stroke-dasharray:none"><path style="fill:#000;fill-opacity:1;fill-rule:evenodd;stroke:#fff;stroke-width:.28798857;stroke-linecap:butt;stroke-linejoin:miter;stroke-miterlimit:4;stroke-dasharray:none;stroke-opacity:1" id="path5434" d="m 14.983377,294.24124 c 0.20915,-1.01247 1.870548,-3.90915 3.617048,-3.86235 0.375386,0.12341 0.384796,2.70824 0.429141,3.78052 l -1.430471,0.33719 z"/><path style="fill:none;fill-rule:evenodd;stroke:#fff;stroke-width:.28798857;stroke-linecap:butt;stroke-linejoin:miter;stroke-miterlimit:4;stroke-dasharray:none;stroke-opacity:1" id="path5436" d="m 18.590207,290.43006 c -0.449576,1.15119 -1.001329,2.80304 -1.001329,4.03597"/><path id="path5438" d="m 18.375636,290.39941 c -1.123897,1.65973 -1.840905,2.74056 -1.788088,3.96443" style="fill:none;fill-rule:evenodd;stroke:#fff;stroke-width:.28798857;stroke-linecap:butt;stroke-linejoin:miter;stroke-miterlimit:4;stroke-dasharray:none;stroke-opacity:1"/><path style="fill:none;fill-rule:evenodd;stroke:#fff;stroke-width:.28798857;stroke-linecap:butt;stroke-linejoin:miter;stroke-miterlimit:4;stroke-dasharray:none;stroke-opacity:1" id="path5440" d="m 17.823883,290.52202 c -1.317216,1.67113 -1.953336,2.56573 -2.0844,3.76008"/></g><path style="opacity:0;fill:url(#linearGradient4195);fill-opacity:1;stroke:none;stroke-width:.2;stroke-miterlimit:4;stroke-dasharray:none;stroke-opacity:1" id="path4187" d="m 14.199453,292.6152 a 2.800842,1.0121423 0 0 1 -2.800842,1.01215 2.800842,1.0121423 0 0 1 -2.800842,-1.01215 2.800842,1.0121423 0 0 1 2.800842,-1.01214 2.800842,1.0121423 0 0 1 2.800842,1.01214 z" clip-path="url(#clipPath5181)"/><path style="fill:#000;fill-opacity:1;fill-rule:evenodd;stroke:none;stroke-width:1px;stroke-linecap:butt;stroke-linejoin:miter;stroke-opacity:1" id="path4209" d="m 2.826339,292.08697 3.148468,-1.95398 0.6343206,1.31705 0.6173183,-1.15103 0.3763457,0.8637 -0.00717,-1.08548 1.0063768,1.04201 0.5568003,-1.20587 0.6385414,1.08288 0.4341889,-0.67455 0.5568,0.75592 0.720283,-1.04239 0.148094,1.08288 1.292471,-1.12413 -0.469431,1.82691 -8.4407986,0.25065 z" clip-path="url(#clipPath5177)" transform="matrix(1.3757714,0,0,1.300851,-1.514541,-87.749882)"/><g style="font-style:normal;font-variant:normal;font-weight:400;font-stretch:normal;font-size:1.98437524px;font-family:Luminari;-inkscape-font-specification:Luminari;fill:#fff;fill-opacity:1;stroke:none;stroke-width:10.62992096;stroke-miterlimit:4;stroke-dasharray:none;stroke-opacity:1" id="text5389"><path id="path5457" d="m 6.774207,296.1717 q -0.015875,0.01 -0.029766,0.0337 -0.013891,0.0218 -0.017859,0.0337 -0.00198,0.004 -0.011906,0.006 -0.00794,0.004 -0.011906,0.004 -0.017859,0 -0.017859,-0.0179 0,-0.006 0.015875,-0.0317 0.011906,-0.0199 0.037703,-0.0615 0.025797,-0.0437 0.051594,-0.0873 0.027781,-0.0456 0.049609,-0.0814 0.023813,-0.0377 0.033734,-0.0496 0.00992,-0.01 0.023813,-0.002 0.013891,0.006 0.00794,0.0159 -0.00397,0.004 -0.00595,0.01 -0.00198,0.006 -0.00198,0.0198 0,0.0179 0.029766,0.0456 0.03175,0.0258 0.079375,0.0516 0.047625,0.0238 0.1051719,0.0417 0.057547,0.0179 0.1131094,0.0179 0.065484,0 0.1031875,-0.0377 0.039687,-0.0377 0.039687,-0.0992 0,-0.0694 -0.043656,-0.10319 -0.043656,-0.0337 -0.1091407,-0.0516 -0.0635,-0.0179 -0.1408906,-0.0278 -0.075406,-0.0119 -0.1408907,-0.0337 -0.0635,-0.0218 -0.1071562,-0.0635 -0.043656,-0.0417 -0.043656,-0.12105 0,-0.0615 0.041672,-0.12501 0.043656,-0.0635 0.1131094,-0.11311 0.071438,-0.0496 0.1627187,-0.0814 0.091281,-0.0317 0.1905001,-0.0317 0.029766,0 0.069453,0.006 0.039687,0.006 0.077391,0.0159 0.039687,0.008 0.071438,0.0179 0.033734,0.008 0.049609,0.0139 0.00397,0 -0.00198,0.0159 -0.00595,0.0179 -0.029766,0.0556 -0.023813,0.0357 -0.053578,0.0714 -0.027781,0.0357 -0.053578,0.0635 -0.023813,0.0278 -0.033734,0.0278 -0.00198,0 -0.011906,0 -0.00992,0 -0.013891,-0.004 0.00198,-0.01 0.00198,-0.0258 0,-0.0695 -0.0635,-0.10914 -0.061516,-0.0397 -0.1805782,-0.0397 -0.057547,0 -0.09525,0.0337 -0.035719,0.0337 -0.035719,0.0813 0,0.0774 0.043656,0.1151 0.043656,0.0377 0.1091407,0.0575 0.065484,0.0179 0.1408906,0.0278 0.075406,0.01 0.1408906,0.0317 0.065484,0.0198 0.1091407,0.0615 0.043656,0.0417 0.043656,0.12502 0,0.0377 -0.015875,0.0734 -0.015875,0.0357 -0.041672,0.0675 -0.025797,0.0317 -0.057547,0.0595 -0.03175,0.0258 -0.0635,0.0456 -0.029766,0.0198 -0.067469,0.0417 -0.037703,0.0198 -0.081359,0.0377 -0.043656,0.0178 -0.089297,0.0278 -0.045641,0.0119 -0.091281,0.0119 -0.021828,0 -0.069453,-0.01 -0.047625,-0.008 -0.097234,-0.0198 -0.047625,-0.0119 -0.085328,-0.0218 -0.037703,-0.0119 -0.039688,-0.0159 z"/><path id="path5459" d="m 8.482351,296.06256 q -0.021828,0.0179 -0.059531,0.0476 -0.037703,0.0298 -0.087312,0.0595 -0.049609,0.0298 -0.1091407,0.0516 -0.059531,0.0198 -0.1250156,0.0198 -0.099219,0 -0.1766094,-0.0337 -0.077391,-0.0357 -0.1309688,-0.0933 -0.051594,-0.0595 -0.079375,-0.13891 -0.025797,-0.0794 -0.025797,-0.16867 0,-0.10517 0.03175,-0.18653 0.03175,-0.0814 0.077391,-0.14089 0.047625,-0.0615 0.1012031,-0.10121 0.053578,-0.0417 0.097234,-0.0655 0.019844,-0.0119 0.049609,-0.0258 0.03175,-0.0139 0.067469,-0.0258 0.037703,-0.0119 0.079375,-0.0198 0.043656,-0.01 0.089297,-0.01 0.085328,0 0.1647032,0.0218 0.081359,0.0218 0.142875,0.0694 0.061516,0.0456 0.099219,0.11906 0.037703,0.0734 0.037703,0.17661 0,0.0833 -0.03175,0.15677 -0.029766,0.0734 -0.071438,0.13097 -0.041672,0.0575 -0.083344,0.0992 -0.039687,0.0397 -0.057547,0.0575 z m -0.2242344,0.0317 q 0.1131094,0 0.1726407,-0.0853 0.061516,-0.0853 0.061516,-0.26194 0,-0.0893 -0.025797,-0.16471 -0.023813,-0.0774 -0.069453,-0.13493 -0.043656,-0.0575 -0.1031875,-0.0893 -0.059531,-0.0337 -0.1289844,-0.0337 -0.049609,0 -0.09525,0.0258 -0.043656,0.0258 -0.077391,0.0754 -0.033734,0.0476 -0.053578,0.11708 -0.019844,0.0694 -0.019844,0.15676 0,0.0933 0.027781,0.16669 0.029766,0.0734 0.077391,0.12502 0.047625,0.0496 0.1071563,0.0774 0.061516,0.0258 0.127,0.0258 z"/><path id="path5461" d="m 8.8120984,295.40177 q -0.015875,-0.004 -0.015875,-0.0159 0.00198,-0.0119 0.015875,-0.0139 0.00595,-0.002 0.037703,-0.0139 0.03175,-0.0119 0.075406,-0.0278 0.045641,-0.0159 0.093266,-0.0337 0.049609,-0.0178 0.087313,-0.0298 0.023813,-0.008 0.03175,-0.01 0.00992,-0.004 0.015875,-0.004 0.00595,0 0.013891,0.006 0.00794,0.004 0.00397,0.0139 -0.00595,0.0159 -0.013891,0.0754 -0.00595,0.0595 -0.011906,0.13295 -0.00595,0.0714 -0.011906,0.14288 -0.00397,0.0714 -0.00397,0.11311 0,0.15875 0.067469,0.24606 0.067469,0.0853 0.2103437,0.0853 0.073422,0 0.1210469,-0.0298 0.049609,-0.0298 0.075406,-0.0695 0.017859,-0.0258 0.023813,-0.11311 0,-0.0159 0,-0.0417 0.00198,-0.0258 0.00198,-0.0536 0.00198,-0.0298 0.00198,-0.0556 0.00198,-0.0278 0.00198,-0.0456 0.00198,-0.0913 -0.00595,-0.16868 -0.00595,-0.0794 -0.019844,-0.11707 -0.00595,-0.0238 -0.023813,-0.0238 -0.011906,0 -0.023813,0.002 -0.00992,0 -0.011906,-0.0179 0,-0.006 0.011906,-0.0119 0.011906,-0.008 0.045641,-0.0218 0.03175,-0.0119 0.069453,-0.0238 0.039688,-0.0119 0.077391,-0.0198 0.037703,-0.008 0.067469,-0.01 0.029766,-0.004 0.043656,0.002 0,0.002 0.00198,0.006 0.00397,0.002 0.00595,0.0119 0.00397,0.0119 -0.00595,0.0754 -0.00794,0.0615 -0.017859,0.2024 -0.00794,0.0972 -0.013891,0.18852 -0.00595,0.0913 -0.00595,0.1389 0,0.0933 0.033734,0.14883 0.035719,0.0536 0.087313,0.0536 0.033734,0 0.0635,-0.0139 0.03175,-0.0139 0.04564,-0.0238 0.01587,0 0.01587,0.0139 0.002,0.0139 -0.006,0.0179 -0.02977,0.0198 -0.083344,0.0496 -0.051594,0.0298 -0.1091406,0.0575 -0.055562,0.0258 -0.1071563,0.0456 -0.051594,0.0179 -0.083344,0.0179 -0.015875,0 -0.029766,-0.0198 -0.011906,-0.0218 -0.019844,-0.0516 -0.00794,-0.0298 -0.011906,-0.0615 -0.00397,-0.0317 -0.00397,-0.0556 -0.041672,0.0298 -0.09525,0.0635 -0.053578,0.0317 -0.111125,0.0615 -0.057547,0.0278 -0.1150938,0.0456 -0.055563,0.0179 -0.1031875,0.0179 -0.1210469,0 -0.1984375,-0.0635 -0.077391,-0.0655 -0.077391,-0.16867 0,-0.0218 0.00397,-0.0655 0.00397,-0.0437 0.00992,-0.0992 0.00595,-0.0556 0.00992,-0.11906 0.00397,-0.0635 0.00397,-0.12304 0,-0.0913 -0.029766,-0.1389 -0.027781,-0.0496 -0.073422,-0.0556 l -0.03175,-0.004 z"/><path id="path5463" d="m 10.995283,295.94549 q 0.004,-0.004 0.006,0.002 0.004,0.004 0.004,0.0139 0.002,0.008 0,0.0179 -0.002,0.01 -0.0079,0.0159 -0.03969,0.0377 -0.09922,0.0794 -0.05953,0.0417 -0.123031,0.0774 -0.01786,0.01 -0.04961,0.0258 -0.03175,0.0159 -0.07144,0.0317 -0.0377,0.0139 -0.07938,0.0238 -0.03969,0.0119 -0.07541,0.0119 -0.07144,0 -0.134937,-0.0278 -0.0635,-0.0278 -0.111125,-0.0754 -0.04763,-0.0496 -0.07541,-0.11708 -0.0258,-0.0675 -0.0258,-0.14684 0,-0.0853 0.02381,-0.16074 0.02381,-0.0754 0.05358,-0.13494 0.03175,-0.0595 0.05953,-0.0992 0.02778,-0.0417 0.0377,-0.0615 -0.0377,-0.002 -0.06945,-0.002 -0.02977,-0.002 -0.05755,-0.002 -0.0635,0 -0.107156,0.002 -0.04366,0 -0.07739,0.008 -0.015875,0.004 -0.029766,0.0159 -0.013891,0.0119 -0.023813,0.0179 -0.00397,-0.004 -0.00992,-0.01 -0.00794,-0.008 -0.00794,-0.0159 0,-0.004 0.00198,-0.006 0,-0.002 0.025797,-0.0218 0.025797,-0.0218 0.0635,-0.0496 0.03969,-0.0298 0.08533,-0.0635 0.04763,-0.0357 0.0893,-0.0655 0.04366,-0.0298 0.07342,-0.0496 0.03175,-0.0218 0.04167,-0.0258 0.01191,-0.004 0.02381,0.004 0.01191,0.008 0.0079,0.0119 -0.006,0.004 -0.01786,0.0159 -0.01191,0.01 -0.0079,0.0179 0.02183,0.0179 0.07541,0.0317 0.05358,0.0139 0.121047,0.0238 0.06747,0.008 0.138906,0.0139 0.07144,0.004 0.128984,0.004 0.08533,0 0.136922,-0.004 0.05159,-0.006 0.08533,-0.0139 0.03175,-0.008 0.04167,-0.0119 0.002,0 0.0079,0.006 0.006,0.006 0.006,0.0139 0,0.004 -0.02977,0.0198 -0.02778,0.0159 -0.05755,0.0337 -0.01786,0.01 -0.04366,0.0258 -0.02381,0.0159 -0.05358,0.0317 -0.02778,0.0139 -0.05953,0.0258 -0.03175,0.0119 -0.06152,0.0139 -0.02977,0.004 -0.06945,0.006 -0.03969,0.002 -0.08334,0.004 -0.04366,0 -0.0893,0.002 -0.04366,0 -0.08136,0 -0.006,0.01 -0.01984,0.0337 -0.01191,0.0218 -0.02381,0.0575 -0.01191,0.0357 -0.02183,0.0814 -0.0099,0.0456 -0.0099,0.0992 0,0.0814 0.02381,0.15081 0.0258,0.0675 0.06945,0.11708 0.04564,0.0496 0.107157,0.0774 0.06151,0.0278 0.132953,0.0278 0.04167,0 0.07937,-0.01 0.03969,-0.01 0.07342,-0.0258 0.03572,-0.0159 0.06548,-0.0337 0.02977,-0.0199 0.05159,-0.0377 l 0.02381,-0.0218 z"/><path id="path5465" d="m 11.302365,295.44939 q 0.03969,-0.0357 0.0893,-0.0734 0.04961,-0.0397 0.103188,-0.0714 0.05556,-0.0337 0.115093,-0.0536 0.05953,-0.0218 0.121047,-0.0218 0.07144,0 0.132953,0.0238 0.0635,0.0218 0.111125,0.0655 0.04763,0.0437 0.07541,0.10517 0.02778,0.0595 0.02778,0.13494 0,0.1528 -0.05358,0.28178 -0.05159,0.127 -0.123031,0.22424 -0.06945,0.0953 -0.138907,0.15875 -0.06945,0.0635 -0.103187,0.0833 -0.0099,0.006 -0.01984,-0.004 -0.0099,-0.01 0,-0.0218 0.01587,-0.0119 0.04763,-0.0595 0.03373,-0.0456 0.06747,-0.11707 0.03373,-0.0714 0.05953,-0.16272 0.0258,-0.0913 0.0258,-0.19646 0,-0.0873 -0.02183,-0.15478 -0.01984,-0.0675 -0.05556,-0.11311 -0.03572,-0.0456 -0.08334,-0.0695 -0.04564,-0.0238 -0.09922,-0.0238 -0.03572,0 -0.07541,0.0119 -0.03969,0.01 -0.07342,0.0298 -0.03572,0.0218 -0.06945,0.0536 -0.03373,0.0318 -0.04961,0.0655 -0.004,0.008 -0.0079,0.0159 -0.002,0.006 -0.006,0.0198 -0.002,0.0119 -0.006,0.0317 -0.002,0.0198 -0.004,0.0536 -0.006,0.0575 -0.0099,0.11311 -0.002,0.0536 -0.002,0.12898 0,0.0972 0.01191,0.15081 0.01191,0.0516 0.06945,0.0595 0.006,0 0.01389,0 0.0079,-0.002 0.01786,-0.004 0.0079,-0.002 0.01984,-0.006 0.006,0 0.0079,0.006 0.004,0.006 0.004,0.0119 0,0.006 -0.02183,0.0179 -0.02183,0.0119 -0.05556,0.0258 -0.03373,0.0119 -0.07541,0.0258 -0.03969,0.0119 -0.07541,0.0238 -0.0377,0.01 -0.06549,0.0179 -0.0258,0.008 -0.03572,0.008 -0.05953,0 -0.05953,-0.0456 0,-0.01 0.0099,-0.0377 0.0099,-0.0278 0.01587,-0.0853 0.0079,-0.0833 0.01587,-0.18256 0.0079,-0.1012 0.01191,-0.2024 0.006,-0.10121 0.0079,-0.19844 0.004,-0.0972 0.004,-0.17463 0,-0.14287 -0.006,-0.24209 -0.004,-0.0992 -0.0079,-0.14089 -0.006,-0.0516 -0.01191,-0.0675 -0.006,-0.0179 -0.01389,-0.0317 -0.0099,-0.0179 -0.0258,-0.0238 -0.01389,-0.008 -0.02778,-0.01 -0.01191,-0.002 -0.02183,0 -0.0079,0 -0.0079,-0.004 0,-0.0278 0.01786,-0.0456 0.01786,-0.0179 0.04763,-0.0179 0.05755,0 0.119062,-0.002 0.06152,-0.002 0.11311,-0.006 0.04366,-0.004 0.07937,-0.0119 0.0377,-0.008 0.04961,-0.0119 0.01587,-0.002 0.01587,0.006 0.002,0.006 0.002,0.0238 0,0.0119 -0.0099,0.0179 -0.0099,0.006 -0.02183,0.01 -0.01191,0.004 -0.02381,0.008 -0.0099,0.002 -0.01389,0.008 -0.0079,0.0119 -0.01587,0.0734 -0.0079,0.0615 -0.01588,0.15677 -0.006,0.0933 -0.01191,0.20836 -0.004,0.11509 -0.006,0.23217 l 0.002,0.002 z"/><path id="path5468" d="m 12.977364,296.13003 q -0.0635,0.0397 -0.156766,0.0714 -0.09327,0.0318 -0.180578,0.0318 -0.02778,0 -0.0635,-0.004 -0.03373,-0.004 -0.05556,-0.008 -0.002,0.0377 -0.004,0.0774 0,0.0397 -0.002,0.0754 0,0.0377 -0.002,0.0695 0,0.0317 0,0.0536 0,0.1012 0.01588,0.13692 0.01786,0.0357 0.05358,0.0357 0.01786,0 0.04763,-0.006 0.03175,-0.004 0.05556,-0.0159 0.004,-0.004 0.0079,0.008 0.006,0.0119 0.006,0.0218 0,0.002 -0.02778,0.01 -0.02778,0.01 -0.07144,0.0218 -0.04167,0.0139 -0.09128,0.0278 -0.04961,0.0159 -0.09525,0.0278 -0.04564,0.0139 -0.07937,0.0218 -0.03175,0.008 -0.03969,0.008 -0.01191,0 -0.02183,-0.002 -0.0099,-0.002 -0.0099,-0.0179 0,-0.01 0.006,-0.0139 0.0079,-0.002 0.01191,-0.008 0.0099,-0.0119 0.01191,-0.0456 0.002,-0.0317 0.006,-0.0635 0.006,-0.0774 0.01191,-0.18455 0.0079,-0.10517 0.01389,-0.22225 0.006,-0.1151 0.0099,-0.23019 0.006,-0.11708 0.006,-0.21233 0,-0.13493 -0.01191,-0.21034 -0.0099,-0.0774 -0.02977,-0.11311 -0.01984,-0.0377 -0.04564,-0.0456 -0.02381,-0.01 -0.05159,-0.01 -0.006,0 -0.01786,0.002 -0.0099,0 -0.01984,0 -0.0079,0 -0.0079,-0.0139 0,-0.01 0.002,-0.0119 0,-0.004 0.0079,-0.008 0.0099,-0.006 0.03572,-0.0199 0.02778,-0.0139 0.06152,-0.0298 0.03572,-0.0179 0.07541,-0.0357 0.03969,-0.0198 0.07342,-0.0337 0.03572,-0.0159 0.06152,-0.0258 0.0258,-0.01 0.03572,-0.01 0.02977,0 0.03969,0.0258 0.01191,0.0258 0.01389,0.0695 0,0.0179 -0.002,0.0575 0,0.0377 -0.002,0.0873 0.0258,-0.0278 0.06945,-0.0675 0.04564,-0.0417 0.101203,-0.0794 0.05755,-0.0377 0.119062,-0.0635 0.0635,-0.0278 0.123032,-0.0278 0.08533,0 0.150812,0.0317 0.06747,0.0298 0.111125,0.0814 0.04366,0.0496 0.06549,0.11509 0.02381,0.0635 0.02381,0.13097 0,0.0953 -0.02977,0.17661 -0.02778,0.0794 -0.06945,0.14288 -0.04167,0.0615 -0.09128,0.10715 -0.04961,0.0456 -0.09128,0.0714 l -0.0635,0.0417 z m -0.446485,-0.15279 q 0.006,0.0218 0.03175,0.0456 0.0258,0.0218 0.06549,0.0417 0.04167,0.0179 0.09327,0.0317 0.05358,0.0119 0.11311,0.0119 0.05358,0 0.101203,-0.0198 0.04961,-0.0218 0.08533,-0.0655 0.03572,-0.0456 0.05556,-0.11708 0.02183,-0.0714 0.02183,-0.17264 0,-0.0714 -0.01984,-0.13494 -0.01984,-0.0635 -0.05755,-0.11113 -0.0377,-0.0476 -0.0893,-0.0734 -0.05159,-0.0278 -0.113109,-0.0278 -0.03175,0 -0.07144,0.0139 -0.0377,0.0139 -0.07342,0.0377 -0.03572,0.0238 -0.06747,0.0556 -0.02977,0.0318 -0.04366,0.0675 -0.0099,0.0238 -0.01786,0.0754 -0.006,0.0496 -0.0099,0.11113 -0.002,0.0595 -0.004,0.12104 0,0.0615 0,0.10915 z"/><path id="path5470" d="m 14.199057,296.06256 q -0.02183,0.0179 -0.05953,0.0476 -0.0377,0.0298 -0.08731,0.0595 -0.04961,0.0298 -0.10914,0.0516 -0.05953,0.0198 -0.125016,0.0198 -0.09922,0 -0.176609,-0.0337 -0.07739,-0.0357 -0.130969,-0.0933 -0.05159,-0.0595 -0.07938,-0.13891 -0.0258,-0.0794 -0.0258,-0.16867 0,-0.10517 0.03175,-0.18653 0.03175,-0.0814 0.07739,-0.14089 0.04763,-0.0615 0.101203,-0.10121 0.05358,-0.0417 0.09723,-0.0655 0.01984,-0.0119 0.04961,-0.0258 0.03175,-0.0139 0.06747,-0.0258 0.0377,-0.0119 0.07938,-0.0198 0.04366,-0.01 0.0893,-0.01 0.08533,0 0.164703,0.0218 0.08136,0.0218 0.142875,0.0694 0.06152,0.0456 0.09922,0.11906 0.0377,0.0734 0.0377,0.17661 0,0.0833 -0.03175,0.15677 -0.02976,0.0734 -0.07144,0.13097 -0.04167,0.0575 -0.08334,0.0992 -0.03969,0.0397 -0.05755,0.0575 z m -0.224234,0.0317 q 0.113109,0 0.17264,-0.0853 0.06152,-0.0853 0.06152,-0.26194 0,-0.0893 -0.0258,-0.16471 -0.02381,-0.0774 -0.06945,-0.13493 -0.04366,-0.0575 -0.103187,-0.0893 -0.05953,-0.0337 -0.128985,-0.0337 -0.04961,0 -0.09525,0.0258 -0.04366,0.0258 -0.07739,0.0754 -0.03373,0.0476 -0.05358,0.11708 -0.01984,0.0694 -0.01984,0.15676 0,0.0933 0.02778,0.16669 0.02976,0.0734 0.07739,0.12502 0.04763,0.0496 0.107157,0.0774 0.06151,0.0258 0.127,0.0258 z"/><path id="path5472" d="m 15.221351,296.01891 q 0.01191,0.008 0.01191,0.0198 0,0.0159 -0.04564,0.0417 -0.04763,0.0278 -0.127,0.0655 -0.07739,0.0377 -0.154781,0.0655 -0.0377,0.0139 -0.06747,0.0238 -0.02977,0.01 -0.05358,0.01 -0.02778,0 -0.06945,-0.0139 -0.03969,-0.0119 -0.06945,-0.0298 -0.02381,-0.0159 -0.0377,-0.0238 -0.01389,-0.01 -0.01389,-0.0199 0,-0.008 0.004,-0.0139 0.006,-0.008 0.0099,-0.0179 0.002,-0.006 0.004,-0.0159 0.002,-0.01 0.002,-0.0198 0.006,-0.0496 0.01191,-0.14287 0.0079,-0.0953 0.01191,-0.20836 0.004,-0.11509 0.006,-0.23614 0.004,-0.12303 0.004,-0.2282 0,-0.12899 -0.002,-0.20836 0,-0.0794 -0.004,-0.127 -0.006,-0.0655 -0.01587,-0.0853 -0.0099,-0.0218 -0.02183,-0.0317 -0.01389,-0.0119 -0.02778,-0.0139 -0.01191,-0.004 -0.02381,-0.004 -0.0099,-0.002 -0.01786,-0.002 -0.006,0 -0.006,-0.004 0,-0.0655 0.05556,-0.0655 0.04167,0 0.09723,0.002 0.05755,0 0.09525,0 0.02381,0 0.04961,-0.002 0.02778,-0.004 0.05358,-0.006 0.0258,-0.004 0.04763,-0.008 0.02183,-0.004 0.03175,-0.008 0.0079,-0.002 0.01191,0.006 0.006,0.008 0.006,0.0198 0.002,0.0119 -0.004,0.0218 -0.004,0.01 -0.01191,0.0119 -0.01191,0.002 -0.02183,0.002 -0.0079,0 -0.02977,0.008 -0.0099,0.004 -0.01786,0.0258 -0.0079,0.0199 -0.01389,0.0655 -0.006,0.0437 -0.01191,0.11708 -0.006,0.0714 -0.01191,0.18057 -0.006,0.0873 -0.0099,0.1786 -0.002,0.0893 -0.006,0.17462 -0.002,0.0853 -0.004,0.15875 0,0.0734 0,0.12502 0,0.0575 0,0.11708 0.002,0.0575 0.01191,0.0913 0.0099,0.0317 0.05159,0.0595 0.04167,0.0278 0.08731,0.0278 0.03572,0 0.07342,-0.01 0.0377,-0.01 0.06945,-0.0238 0.03175,-0.0139 0.05556,-0.0278 0.0258,-0.0139 0.0377,-0.0218 z"/><path id="path5474" d="m 16.013985,295.98914 q -0.02183,0.0238 -0.06747,0.0655 -0.04564,0.0417 -0.111125,0.0833 -0.0635,0.0417 -0.142875,0.0714 -0.07937,0.0298 -0.168672,0.0298 -0.08136,0 -0.15875,-0.0238 -0.07739,-0.0258 -0.138906,-0.0754 -0.06151,-0.0516 -0.09922,-0.12898 -0.03572,-0.0794 -0.03572,-0.18852 0,-0.0893 0.01191,-0.15279 0.01191,-0.0655 0.03175,-0.11311 0.01984,-0.0496 0.04366,-0.0833 0.0258,-0.0357 0.05159,-0.0635 0.03175,-0.0357 0.07739,-0.0675 0.04564,-0.0317 0.09723,-0.0575 0.05358,-0.0258 0.111125,-0.0397 0.05953,-0.0159 0.119063,-0.0159 0.107156,0 0.166687,0.0357 0.06152,0.0357 0.06152,0.0992 0,0.0397 -0.02381,0.0734 0.01984,-0.006 0.04961,-0.0199 0.03175,-0.0139 0.0635,-0.0278 0.03175,-0.0159 0.05556,-0.0278 0.0258,-0.0119 0.03373,-0.0179 0.004,-0.004 0.0079,-0.002 0.006,0 0.006,0.006 0,0.0258 -0.0099,0.0437 -0.0099,0.0159 -0.02381,0.0258 -0.03175,0.0199 -0.09128,0.0496 -0.05953,0.0298 -0.132953,0.0635 -0.07144,0.0317 -0.148828,0.0655 -0.07739,0.0317 -0.146844,0.0615 -0.06747,0.0298 -0.119062,0.0536 -0.04961,0.0218 -0.06747,0.0318 0,0.0675 0.0258,0.127 0.02778,0.0576 0.07541,0.1012 0.04763,0.0437 0.11311,0.0695 0.06747,0.0238 0.146843,0.0238 0.07144,0 0.128985,-0.0139 0.05755,-0.0159 0.09723,-0.0337 0.03969,-0.0198 0.06152,-0.0337 0.02381,-0.0159 0.0258,-0.0159 0.0079,0 0.01587,0.008 0.0079,0.006 0.0079,0.0139 z m -0.6985,-0.30361 q 0.03373,-0.0119 0.07541,-0.0278 0.04366,-0.0179 0.08334,-0.0377 0.04167,-0.0199 0.07541,-0.0377 0.03374,-0.0179 0.05159,-0.0317 0.03572,-0.0258 0.03572,-0.0873 0,-0.0238 -0.0099,-0.0496 -0.0079,-0.0258 -0.0258,-0.0456 -0.01786,-0.0218 -0.04366,-0.0337 -0.0258,-0.0139 -0.05755,-0.0139 -0.02778,0 -0.05953,0.0198 -0.03175,0.0179 -0.05953,0.0615 -0.02778,0.0417 -0.04763,0.11311 -0.01786,0.0695 -0.01786,0.17065 z"/><path id="path5476" d="m 16.616925,295.54067 q -0.02183,0.0337 -0.04167,0.0814 -0.01984,0.0476 -0.0377,0.0853 -0.08334,-0.006 -0.142875,-0.006 -0.05755,0 -0.109141,0 -0.05755,0 -0.125015,0.004 -0.06549,0.004 -0.09922,0.008 0.01984,-0.0397 0.04167,-0.0873 0.02381,-0.0496 0.04564,-0.0893 0.03175,0.008 0.09723,0.0119 0.06548,0.002 0.128984,0.002 0.0258,0 0.05755,0 0.03374,0 0.06747,0 0.03373,-0.002 0.0635,-0.004 0.03175,-0.002 0.05358,-0.006 z"/><path id="path5478" d="m 17.496468,296.13003 q -0.0635,0.0397 -0.156765,0.0714 -0.09327,0.0318 -0.180578,0.0318 -0.02778,0 -0.0635,-0.004 -0.03374,-0.004 -0.05556,-0.008 -0.002,0.0377 -0.004,0.0774 0,0.0397 -0.002,0.0754 0,0.0377 -0.002,0.0695 0,0.0317 0,0.0536 0,0.1012 0.01587,0.13692 0.01786,0.0357 0.05358,0.0357 0.01786,0 0.04763,-0.006 0.03175,-0.004 0.05556,-0.0159 0.004,-0.004 0.0079,0.008 0.006,0.0119 0.006,0.0218 0,0.002 -0.02778,0.01 -0.02778,0.01 -0.07144,0.0218 -0.04167,0.0139 -0.09128,0.0278 -0.04961,0.0159 -0.09525,0.0278 -0.04564,0.0139 -0.07937,0.0218 -0.03175,0.008 -0.03969,0.008 -0.01191,0 -0.02183,-0.002 -0.0099,-0.002 -0.0099,-0.0179 0,-0.01 0.006,-0.0139 0.0079,-0.002 0.01191,-0.008 0.0099,-0.0119 0.01191,-0.0456 0.002,-0.0317 0.006,-0.0635 0.006,-0.0774 0.01191,-0.18455 0.0079,-0.10517 0.01389,-0.22225 0.006,-0.1151 0.0099,-0.23019 0.006,-0.11708 0.006,-0.21233 0,-0.13493 -0.01191,-0.21034 -0.0099,-0.0774 -0.02977,-0.11311 -0.01984,-0.0377 -0.04564,-0.0456 -0.02381,-0.01 -0.05159,-0.01 -0.006,0 -0.01786,0.002 -0.0099,0 -0.01984,0 -0.0079,0 -0.0079,-0.0139 0,-0.01 0.002,-0.0119 0,-0.004 0.0079,-0.008 0.0099,-0.006 0.03572,-0.0199 0.02778,-0.0139 0.06151,-0.0298 0.03572,-0.0179 0.07541,-0.0357 0.03969,-0.0198 0.07342,-0.0337 0.03572,-0.0159 0.06152,-0.0258 0.0258,-0.01 0.03572,-0.01 0.02977,0 0.03969,0.0258 0.01191,0.0258 0.01389,0.0695 0,0.0179 -0.002,0.0575 0,0.0377 -0.002,0.0873 0.0258,-0.0278 0.06945,-0.0675 0.04564,-0.0417 0.101203,-0.0794 0.05755,-0.0377 0.119063,-0.0635 0.0635,-0.0278 0.123031,-0.0278 0.08533,0 0.150813,0.0317 0.06747,0.0298 0.111125,0.0814 0.04366,0.0496 0.06548,0.11509 0.02381,0.0635 0.02381,0.13097 0,0.0953 -0.02977,0.17661 -0.02778,0.0794 -0.06945,0.14288 -0.04167,0.0615 -0.09128,0.10715 -0.04961,0.0456 -0.09128,0.0714 l -0.0635,0.0417 z m -0.446484,-0.15279 q 0.006,0.0218 0.03175,0.0456 0.0258,0.0218 0.06548,0.0417 0.04167,0.0179 0.09327,0.0317 0.05358,0.0119 0.113109,0.0119 0.05358,0 0.101203,-0.0198 0.04961,-0.0218 0.08533,-0.0655 0.03572,-0.0456 0.05556,-0.11708 0.02183,-0.0714 0.02183,-0.17264 0,-0.0714 -0.01984,-0.13494 -0.01984,-0.0635 -0.05755,-0.11113 -0.0377,-0.0476 -0.0893,-0.0734 -0.05159,-0.0278 -0.11311,-0.0278 -0.03175,0 -0.07144,0.0139 -0.0377,0.0139 -0.07342,0.0377 -0.03572,0.0238 -0.06747,0.0556 -0.02977,0.0318 -0.04366,0.0675 -0.0099,0.0238 -0.01786,0.0754 -0.006,0.0496 -0.0099,0.11113 -0.002,0.0595 -0.004,0.12104 0,0.0615 0,0.10915 z"/><path id="path5480" d="m 18.579255,295.91175 q -0.006,-0.0337 -0.01191,-0.0734 -0.006,-0.0397 -0.01191,-0.0754 -0.006,-0.0357 -0.01191,-0.0615 -0.004,-0.0258 -0.006,-0.0337 -0.03175,0.0119 -0.07144,0.0278 -0.03969,0.0159 -0.07937,0.0357 -0.03969,0.0179 -0.07541,0.0377 -0.03572,0.0179 -0.05953,0.0337 -0.04564,0.0298 -0.06945,0.0595 -0.02381,0.0298 -0.02381,0.0714 0,0.0575 0.03374,0.1012 0.03373,0.0437 0.105172,0.0437 0.0377,0 0.07739,-0.0139 0.04167,-0.0139 0.07541,-0.0317 0.03572,-0.0179 0.06151,-0.0357 0.0258,-0.0179 0.03572,-0.0278 0.01587,-0.0159 0.02381,-0.0258 0.0099,-0.0119 0.0079,-0.0317 z m -0.05755,-0.30758 q -0.01191,-0.0615 -0.02778,-0.10914 -0.01587,-0.0496 -0.03969,-0.0814 -0.02381,-0.0337 -0.05755,-0.0496 -0.03373,-0.0179 -0.08334,-0.0179 -0.04366,0 -0.08136,0.0159 -0.03572,0.0159 -0.0635,0.0377 -0.0258,0.0218 -0.04167,0.0437 -0.01389,0.0218 -0.01587,0.0337 -0.002,0.0159 -0.01786,0.0159 -0.02778,0 -0.05159,-0.0198 -0.02381,-0.0198 -0.02381,-0.0476 0,-0.0159 0.004,-0.0238 0.04564,-0.0258 0.111125,-0.0556 0.06548,-0.0298 0.134938,-0.0556 0.07144,-0.0258 0.140891,-0.0417 0.06945,-0.0179 0.125015,-0.0179 0.08334,0 0.127,0.0238 0.04564,0.0238 0.06747,0.0675 0.02183,0.0437 0.0258,0.10319 0.006,0.0575 0.0099,0.12501 0.006,0.10121 0.01588,0.19646 0.0099,0.0933 0.02977,0.16669 0.01984,0.0714 0.04961,0.11707 0.03175,0.0437 0.07739,0.0437 0.02183,0 0.04763,-0.008 0.0258,-0.008 0.04961,-0.0179 0.02381,-0.0119 0.04167,-0.0218 0.01984,-0.0119 0.0258,-0.0159 0.01786,0 0.02183,0.0179 0,0.01 -0.004,0.0179 -0.004,0.004 -0.02977,0.0198 -0.0258,0.0159 -0.0635,0.0377 -0.0377,0.0218 -0.08334,0.0476 -0.04564,0.0238 -0.09128,0.0456 -0.04366,0.0218 -0.08136,0.0357 -0.0377,0.0139 -0.05953,0.0139 -0.0258,0 -0.04564,-0.0218 -0.01786,-0.0198 -0.03175,-0.0536 -0.01389,-0.0357 -0.02381,-0.0814 -0.0099,-0.0456 -0.01786,-0.0953 -0.03572,0.0298 -0.09128,0.0714 -0.05556,0.0397 -0.121047,0.0754 -0.06548,0.0357 -0.134938,0.0615 -0.06747,0.0238 -0.130968,0.0238 -0.05358,0 -0.09327,-0.0159 -0.03969,-0.0179 -0.06747,-0.0456 -0.0258,-0.0278 -0.03969,-0.0635 -0.01191,-0.0377 -0.01191,-0.0774 0,-0.0635 0.0377,-0.10319 0.03969,-0.0417 0.121047,-0.0853 0.0377,-0.0198 0.105171,-0.0516 0.06747,-0.0337 0.136922,-0.0675 0.07144,-0.0337 0.130969,-0.0635 0.06152,-0.0317 0.0893,-0.0496 z"/><path id="path5482" d="m 19.940102,295.37795 q -0.02183,0.0179 -0.05159,0.0456 -0.02977,0.0258 -0.0635,0.0516 -0.03175,0.0238 -0.06548,0.0417 -0.03373,0.0179 -0.06548,0.0179 -0.02778,0 -0.04961,-0.0119 -0.02183,-0.0139 -0.04167,-0.0278 -0.01786,-0.0159 -0.03572,-0.0278 -0.01786,-0.0139 -0.0377,-0.0139 -0.05358,0 -0.09128,0.0437 -0.03572,0.0436 -0.05953,0.11112 -0.02183,0.0675 -0.03373,0.14685 -0.0099,0.0794 -0.0099,0.15279 0,0.0615 0.004,0.10121 0.006,0.0377 0.01588,0.0615 0.0099,0.0218 0.0258,0.0298 0.01786,0.008 0.04167,0.008 0.0258,0 0.05556,-0.008 0.006,-0.002 0.0079,0.008 0.004,0.01 0.004,0.0159 0,0.004 -0.006,0.01 -0.006,0.004 -0.0079,0.004 -0.04366,0.0179 -0.0893,0.0397 -0.04564,0.0198 -0.07541,0.0337 -0.02778,0.0119 -0.06747,0.0258 -0.0377,0.0139 -0.06548,0.0139 -0.03175,0 -0.05358,-0.01 -0.01984,-0.01 -0.01984,-0.0198 0,-0.01 0.004,-0.0179 0.006,-0.008 0.0099,-0.0298 0.004,-0.0298 0.0079,-0.0695 0.006,-0.0417 0.0099,-0.0893 0.006,-0.0476 0.0079,-0.0972 0.004,-0.0516 0.004,-0.1012 0,-0.11112 -0.0079,-0.18851 -0.006,-0.0774 -0.02381,-0.12502 -0.01786,-0.0476 -0.04961,-0.0675 -0.02977,-0.0218 -0.07739,-0.0218 -0.0099,0 -0.01786,0 -0.0079,0 -0.01588,0.002 -0.01191,0 -0.01191,-0.0119 0,-0.0119 0.01191,-0.0179 0.02183,-0.0139 0.06747,-0.0397 0.04564,-0.0278 0.09327,-0.0516 0.04961,-0.0258 0.09525,-0.0456 0.04564,-0.0198 0.06747,-0.0198 0.0258,0 0.04366,0.0179 0.01786,0.0159 0.0258,0.0417 0.0099,0.0258 0.01389,0.0595 0.004,0.0317 0.004,0.0635 0,0.0238 -0.002,0.0496 0,0.0258 0,0.0556 0.0893,-0.13097 0.160735,-0.20241 0.07144,-0.0734 0.134937,-0.0734 0.02381,0 0.04564,0.0198 0.02381,0.0198 0.04961,0.0456 0.0258,0.0238 0.05358,0.0437 0.02778,0.0199 0.05755,0.0199 0.0258,0 0.0377,-0.006 0.01191,-0.006 0.01984,-0.01 0.01588,0 0.01588,0.0218 l 0,0.002 z"/><path id="path5485" d="m 20.493868,295.91175 q -0.006,-0.0337 -0.01191,-0.0734 -0.006,-0.0397 -0.01191,-0.0754 -0.006,-0.0357 -0.01191,-0.0615 -0.004,-0.0258 -0.006,-0.0337 -0.03175,0.0119 -0.07144,0.0278 -0.03969,0.0159 -0.07937,0.0357 -0.03969,0.0179 -0.07541,0.0377 -0.03572,0.0179 -0.05953,0.0337 -0.04564,0.0298 -0.06945,0.0595 -0.02381,0.0298 -0.02381,0.0714 0,0.0575 0.03374,0.1012 0.03373,0.0437 0.105171,0.0437 0.0377,0 0.07739,-0.0139 0.04167,-0.0139 0.07541,-0.0317 0.03572,-0.0179 0.06152,-0.0357 0.0258,-0.0179 0.03572,-0.0278 0.01588,-0.0159 0.02381,-0.0258 0.0099,-0.0119 0.0079,-0.0317 z m -0.05755,-0.30758 q -0.01191,-0.0615 -0.02778,-0.10914 -0.01587,-0.0496 -0.03969,-0.0814 -0.02381,-0.0337 -0.05755,-0.0496 -0.03373,-0.0179 -0.08334,-0.0179 -0.04366,0 -0.08136,0.0159 -0.03572,0.0159 -0.0635,0.0377 -0.0258,0.0218 -0.04167,0.0437 -0.01389,0.0218 -0.01587,0.0337 -0.002,0.0159 -0.01786,0.0159 -0.02778,0 -0.05159,-0.0198 -0.02381,-0.0198 -0.02381,-0.0476 0,-0.0159 0.004,-0.0238 0.04564,-0.0258 0.111125,-0.0556 0.06548,-0.0298 0.134938,-0.0556 0.07144,-0.0258 0.14089,-0.0417 0.06945,-0.0179 0.125016,-0.0179 0.08334,0 0.127,0.0238 0.04564,0.0238 0.06747,0.0675 0.02183,0.0437 0.0258,0.10319 0.006,0.0575 0.0099,0.12501 0.006,0.10121 0.01587,0.19646 0.0099,0.0933 0.02977,0.16669 0.01984,0.0714 0.04961,0.11707 0.03175,0.0437 0.07739,0.0437 0.02183,0 0.04763,-0.008 0.0258,-0.008 0.04961,-0.0179 0.02381,-0.0119 0.04167,-0.0218 0.01984,-0.0119 0.0258,-0.0159 0.01786,0 0.02183,0.0179 0,0.01 -0.004,0.0179 -0.004,0.004 -0.02977,0.0198 -0.0258,0.0159 -0.0635,0.0377 -0.0377,0.0218 -0.08334,0.0476 -0.04564,0.0238 -0.09128,0.0456 -0.04366,0.0218 -0.08136,0.0357 -0.0377,0.0139 -0.05953,0.0139 -0.0258,0 -0.04564,-0.0218 -0.01786,-0.0198 -0.03175,-0.0536 -0.01389,-0.0357 -0.02381,-0.0814 -0.0099,-0.0456 -0.01786,-0.0953 -0.03572,0.0298 -0.09128,0.0714 -0.05556,0.0397 -0.121047,0.0754 -0.06548,0.0357 -0.134938,0.0615 -0.06747,0.0238 -0.130968,0.0238 -0.05358,0 -0.09327,-0.0159 -0.03969,-0.0179 -0.06747,-0.0456 -0.0258,-0.0278 -0.03969,-0.0635 -0.01191,-0.0377 -0.01191,-0.0774 0,-0.0635 0.0377,-0.10319 0.03969,-0.0417 0.121047,-0.0853 0.0377,-0.0198 0.105172,-0.0516 0.06747,-0.0337 0.136922,-0.0675 0.07144,-0.0337 0.130969,-0.0635 0.06152,-0.0317 0.0893,-0.0496 z"/><path id="path5487" d="m 20.943887,296.1717 q -0.01588,0.01 -0.02977,0.0337 -0.01389,0.0218 -0.01786,0.0337 -0.002,0.004 -0.01191,0.006 -0.0079,0.004 -0.01191,0.004 -0.01786,0 -0.01786,-0.0179 0,-0.006 0.01587,-0.0317 0.01191,-0.0199 0.0377,-0.0615 0.0258,-0.0437 0.05159,-0.0873 0.02778,-0.0456 0.04961,-0.0814 0.02381,-0.0377 0.03373,-0.0496 0.0099,-0.01 0.02381,-0.002 0.01389,0.006 0.0079,0.0159 -0.004,0.004 -0.006,0.01 -0.002,0.006 -0.002,0.0198 0,0.0179 0.02977,0.0456 0.03175,0.0258 0.07937,0.0516 0.04763,0.0238 0.105171,0.0417 0.05755,0.0179 0.11311,0.0179 0.06548,0 0.103187,-0.0377 0.03969,-0.0377 0.03969,-0.0992 0,-0.0694 -0.04366,-0.10319 -0.04366,-0.0337 -0.109141,-0.0516 -0.0635,-0.0179 -0.140891,-0.0278 -0.07541,-0.0119 -0.14089,-0.0337 -0.0635,-0.0218 -0.107157,-0.0635 -0.04366,-0.0417 -0.04366,-0.12105 0,-0.0615 0.04167,-0.12501 0.04366,-0.0635 0.113109,-0.11311 0.07144,-0.0496 0.162719,-0.0814 0.09128,-0.0317 0.1905,-0.0317 0.02977,0 0.06945,0.006 0.03969,0.006 0.07739,0.0159 0.03969,0.008 0.07144,0.0179 0.03374,0.008 0.04961,0.0139 0.004,0 -0.002,0.0159 -0.006,0.0179 -0.02976,0.0556 -0.02381,0.0357 -0.05358,0.0714 -0.02778,0.0357 -0.05358,0.0635 -0.02381,0.0278 -0.03374,0.0278 -0.002,0 -0.01191,0 -0.0099,0 -0.01389,-0.004 0.002,-0.01 0.002,-0.0258 0,-0.0695 -0.0635,-0.10914 -0.06152,-0.0397 -0.180578,-0.0397 -0.05755,0 -0.09525,0.0337 -0.03572,0.0337 -0.03572,0.0813 0,0.0774 0.04366,0.1151 0.04366,0.0377 0.109141,0.0575 0.06548,0.0179 0.14089,0.0278 0.07541,0.01 0.140891,0.0317 0.06548,0.0198 0.109141,0.0615 0.04366,0.0417 0.04366,0.12502 0,0.0377 -0.01588,0.0734 -0.01588,0.0357 -0.04167,0.0675 -0.0258,0.0317 -0.05755,0.0595 -0.03175,0.0258 -0.0635,0.0456 -0.02977,0.0198 -0.06747,0.0417 -0.0377,0.0198 -0.08136,0.0377 -0.04366,0.0178 -0.0893,0.0278 -0.04564,0.0119 -0.09128,0.0119 -0.02183,0 -0.06945,-0.01 -0.04763,-0.008 -0.09723,-0.0198 -0.04763,-0.0119 -0.08533,-0.0218 -0.0377,-0.0119 -0.03969,-0.0159 z"/><path id="path5489" d="m 22.171812,295.87603 q 0,0.0417 0.002,0.0814 0.002,0.0377 0.01389,0.0655 0.01191,0.0278 0.03572,0.0456 0.02381,0.0159 0.06747,0.0159 0.02183,0 0.04961,-0.004 0.02778,-0.006 0.05159,-0.0139 0.0258,-0.008 0.04366,-0.0159 0.01984,-0.008 0.02381,-0.0119 0.006,-0.006 0.0079,0 0.002,0.006 0,0.0159 0,0.008 -0.004,0.0179 -0.004,0.008 -0.0099,0.0119 -0.01984,0.01 -0.06945,0.0357 -0.04961,0.0258 -0.117078,0.0536 -0.0635,0.0278 -0.125016,0.0476 -0.05953,0.0179 -0.09922,0.0179 -0.04564,0 -0.07144,-0.0278 -0.0258,-0.0278 -0.0258,-0.0695 0,-0.0139 0,-0.0238 0.002,-0.01 0.004,-0.0258 0.002,-0.0198 0.006,-0.0714 0.006,-0.0536 0.0099,-0.11906 0.006,-0.0655 0.0099,-0.13097 0.004,-0.0675 0.004,-0.11509 l 0,-0.0695 q 0,-0.0516 -0.006,-0.0913 -0.006,-0.0397 -0.01984,-0.0615 -0.0099,-0.0139 -0.0258,-0.0218 -0.01389,-0.01 -0.03572,-0.01 -0.01191,0 -0.02381,0.006 -0.01191,0.004 -0.01786,0.004 -0.004,0 -0.01389,-0.0119 -0.0079,-0.0119 0.002,-0.0179 0.01389,-0.01 0.05755,-0.0317 0.04366,-0.0218 0.09525,-0.0476 0.05556,-0.0278 0.107156,-0.0476 0.05159,-0.0218 0.07342,-0.0218 0.02183,0 0.02977,0.0139 0.0079,0.0119 0.0079,0.0278 l 0,0.008 q 0,0.0199 -0.006,0.0635 -0.006,0.0437 -0.01389,0.10716 -0.006,0.0635 -0.01191,0.14684 -0.006,0.0834 -0.006,0.18058 l 0,0.0953 z m -0.07937,-1.03187 q 0.0099,0.002 0.03175,0.0218 0.02381,0.0198 0.04763,0.0456 0.02381,0.0258 0.04167,0.0496 0.01786,0.0238 0.01786,0.0318 0,0.01 -0.02381,0.0298 -0.02381,0.0198 -0.05556,0.0417 -0.02977,0.0199 -0.05953,0.0357 -0.02778,0.0159 -0.03969,0.0159 -0.006,0 -0.02976,-0.0179 -0.02183,-0.0199 -0.04564,-0.0437 -0.02381,-0.0238 -0.04366,-0.0456 -0.01786,-0.0238 -0.01786,-0.0318 0,-0.01 0.0258,-0.0298 0.0258,-0.0218 0.05556,-0.0437 0.03175,-0.0238 0.05953,-0.0397 0.02977,-0.0179 0.03572,-0.0198 z"/><path id="path5491" d="m 23.339492,295.94549 q 0.004,-0.004 0.006,0.002 0.004,0.004 0.004,0.0139 0.002,0.008 0,0.0179 -0.002,0.01 -0.0079,0.0159 -0.03969,0.0377 -0.09922,0.0794 -0.05953,0.0417 -0.123031,0.0774 -0.01786,0.01 -0.04961,0.0258 -0.03175,0.0159 -0.07144,0.0317 -0.0377,0.0139 -0.07938,0.0238 -0.03969,0.0119 -0.07541,0.0119 -0.07144,0 -0.134938,-0.0278 -0.0635,-0.0278 -0.111125,-0.0754 -0.04763,-0.0496 -0.07541,-0.11708 -0.0258,-0.0675 -0.0258,-0.14684 0,-0.0853 0.02381,-0.16074 0.02381,-0.0754 0.05358,-0.13494 0.03175,-0.0595 0.05953,-0.0992 0.02778,-0.0417 0.0377,-0.0615 -0.0377,-0.002 -0.06945,-0.002 -0.02977,-0.002 -0.05755,-0.002 -0.0635,0 -0.107156,0.002 -0.04366,0 -0.07739,0.008 -0.01587,0.004 -0.02977,0.0159 -0.01389,0.0119 -0.02381,0.0179 -0.004,-0.004 -0.0099,-0.01 -0.0079,-0.008 -0.0079,-0.0159 0,-0.004 0.002,-0.006 0,-0.002 0.0258,-0.0218 0.0258,-0.0218 0.0635,-0.0496 0.03969,-0.0298 0.08533,-0.0635 0.04763,-0.0357 0.0893,-0.0655 0.04366,-0.0298 0.07342,-0.0496 0.03175,-0.0218 0.04167,-0.0258 0.01191,-0.004 0.02381,0.004 0.01191,0.008 0.0079,0.0119 -0.006,0.004 -0.01786,0.0159 -0.01191,0.01 -0.0079,0.0179 0.02183,0.0179 0.07541,0.0317 0.05358,0.0139 0.121047,0.0238 0.06747,0.008 0.138906,0.0139 0.07144,0.004 0.128985,0.004 0.08533,0 0.136921,-0.004 0.05159,-0.006 0.08533,-0.0139 0.03175,-0.008 0.04167,-0.0119 0.002,0 0.0079,0.006 0.006,0.006 0.006,0.0139 0,0.004 -0.02977,0.0198 -0.02778,0.0159 -0.05755,0.0337 -0.01786,0.01 -0.04366,0.0258 -0.02381,0.0159 -0.05358,0.0317 -0.02778,0.0139 -0.05953,0.0258 -0.03175,0.0119 -0.06152,0.0139 -0.02976,0.004 -0.06945,0.006 -0.03969,0.002 -0.08334,0.004 -0.04366,0 -0.0893,0.002 -0.04366,0 -0.08136,0 -0.006,0.01 -0.01984,0.0337 -0.01191,0.0218 -0.02381,0.0575 -0.01191,0.0357 -0.02183,0.0814 -0.0099,0.0456 -0.0099,0.0992 0,0.0814 0.02381,0.15081 0.0258,0.0675 0.06945,0.11708 0.04564,0.0496 0.107156,0.0774 0.06151,0.0278 0.132953,0.0278 0.04167,0 0.07937,-0.01 0.03969,-0.01 0.07342,-0.0258 0.03572,-0.0159 0.06548,-0.0337 0.02977,-0.0199 0.05159,-0.0377 l 0.02381,-0.0218 z"/><path id="path5493" d="m 24.253793,295.98914 q -0.02183,0.0238 -0.06747,0.0655 -0.04564,0.0417 -0.111125,0.0833 -0.0635,0.0417 -0.142875,0.0714 -0.07938,0.0298 -0.168671,0.0298 -0.08136,0 -0.15875,-0.0238 -0.07739,-0.0258 -0.138907,-0.0754 -0.06151,-0.0516 -0.09922,-0.12898 -0.03572,-0.0794 -0.03572,-0.18852 0,-0.0893 0.01191,-0.15279 0.01191,-0.0655 0.03175,-0.11311 0.01984,-0.0496 0.04366,-0.0833 0.0258,-0.0357 0.05159,-0.0635 0.03175,-0.0357 0.07739,-0.0675 0.04564,-0.0317 0.09723,-0.0575 0.05358,-0.0258 0.111125,-0.0397 0.05953,-0.0159 0.119063,-0.0159 0.107156,0 0.166687,0.0357 0.06152,0.0357 0.06152,0.0992 0,0.0397 -0.02381,0.0734 0.01984,-0.006 0.04961,-0.0199 0.03175,-0.0139 0.0635,-0.0278 0.03175,-0.0159 0.05556,-0.0278 0.0258,-0.0119 0.03374,-0.0179 0.004,-0.004 0.0079,-0.002 0.006,0 0.006,0.006 0,0.0258 -0.0099,0.0437 -0.0099,0.0159 -0.02381,0.0258 -0.03175,0.0199 -0.09128,0.0496 -0.05953,0.0298 -0.132953,0.0635 -0.07144,0.0317 -0.148828,0.0655 -0.07739,0.0317 -0.146844,0.0615 -0.06747,0.0298 -0.119062,0.0536 -0.04961,0.0218 -0.06747,0.0318 0,0.0675 0.0258,0.127 0.02778,0.0576 0.07541,0.1012 0.04763,0.0437 0.11311,0.0695 0.06747,0.0238 0.146843,0.0238 0.07144,0 0.128985,-0.0139 0.05755,-0.0159 0.09723,-0.0337 0.03969,-0.0198 0.06152,-0.0337 0.02381,-0.0159 0.0258,-0.0159 0.0079,0 0.01588,0.008 0.0079,0.006 0.0079,0.0139 z m -0.6985,-0.30361 q 0.03374,-0.0119 0.07541,-0.0278 0.04366,-0.0179 0.08334,-0.0377 0.04167,-0.0199 0.07541,-0.0377 0.03374,-0.0179 0.05159,-0.0317 0.03572,-0.0258 0.03572,-0.0873 0,-0.0238 -0.0099,-0.0496 -0.0079,-0.0258 -0.0258,-0.0456 -0.01786,-0.0218 -0.04366,-0.0337 -0.0258,-0.0139 -0.05755,-0.0139 -0.02778,0 -0.05953,0.0198 -0.03175,0.0179 -0.05953,0.0615 -0.02778,0.0417 -0.04763,0.11311 -0.01786,0.0695 -0.01786,0.17065 z"/><path id="path5495" d="m 24.265389,296.1717 q -0.01587,0.01 -0.02976,0.0337 -0.01389,0.0218 -0.01786,0.0337 -0.002,0.004 -0.01191,0.006 -0.0079,0.004 -0.01191,0.004 -0.01786,0 -0.01786,-0.0179 0,-0.006 0.01588,-0.0317 0.01191,-0.0199 0.0377,-0.0615 0.0258,-0.0437 0.05159,-0.0873 0.02778,-0.0456 0.04961,-0.0814 0.02381,-0.0377 0.03373,-0.0496 0.0099,-0.01 0.02381,-0.002 0.01389,0.006 0.0079,0.0159 -0.004,0.004 -0.006,0.01 -0.002,0.006 -0.002,0.0198 0,0.0179 0.02976,0.0456 0.03175,0.0258 0.07938,0.0516 0.04763,0.0238 0.105172,0.0417 0.05755,0.0179 0.11311,0.0179 0.06548,0 0.103187,-0.0377 0.03969,-0.0377 0.03969,-0.0992 0,-0.0694 -0.04366,-0.10319 -0.04366,-0.0337 -0.10914,-0.0516 -0.0635,-0.0179 -0.140891,-0.0278 -0.07541,-0.0119 -0.140891,-0.0337 -0.0635,-0.0218 -0.107156,-0.0635 -0.04366,-0.0417 -0.04366,-0.12105 0,-0.0615 0.04167,-0.12501 0.04366,-0.0635 0.113109,-0.11311 0.07144,-0.0496 0.162719,-0.0814 0.09128,-0.0317 0.1905,-0.0317 0.02977,0 0.06945,0.006 0.03969,0.006 0.07739,0.0159 0.03969,0.008 0.07144,0.0179 0.03374,0.008 0.04961,0.0139 0.004,0 -0.002,0.0159 -0.006,0.0179 -0.02976,0.0556 -0.02381,0.0357 -0.05358,0.0714 -0.02778,0.0357 -0.05358,0.0635 -0.02381,0.0278 -0.03373,0.0278 -0.002,0 -0.01191,0 -0.0099,0 -0.01389,-0.004 0.002,-0.01 0.002,-0.0258 0,-0.0695 -0.0635,-0.10914 -0.06151,-0.0397 -0.180578,-0.0397 -0.05755,0 -0.09525,0.0337 -0.03572,0.0337 -0.03572,0.0813 0,0.0774 0.04366,0.1151 0.04366,0.0377 0.10914,0.0575 0.06548,0.0179 0.140891,0.0278 0.07541,0.01 0.140891,0.0317 0.06548,0.0198 0.10914,0.0615 0.04366,0.0417 0.04366,0.12502 0,0.0377 -0.01588,0.0734 -0.01588,0.0357 -0.04167,0.0675 -0.0258,0.0317 -0.05755,0.0595 -0.03175,0.0258 -0.0635,0.0456 -0.02977,0.0198 -0.06747,0.0417 -0.0377,0.0198 -0.08136,0.0377 -0.04366,0.0178 -0.0893,0.0278 -0.04564,0.0119 -0.09128,0.0119 -0.02183,0 -0.06945,-0.01 -0.04763,-0.008 -0.09723,-0.0198 -0.04763,-0.0119 -0.08533,-0.0218 -0.0377,-0.0119 -0.03969,-0.0159 z"/></g><g id="g5426" transform="matrix(0.89623809,0,0,1.1743718,3.501766,-51.238147)" style="stroke-width:.15351227;stroke-miterlimit:4;stroke-dasharray:none"><path id="path5417" d="m 14.983377,294.24124 c 0.20915,-1.01247 1.870548,-3.90915 3.617048,-3.86235 0.375386,0.12341 0.384796,2.70824 0.429141,3.78052 l -1.430471,0.33719 z" style="fill:#000;fill-opacity:1;fill-rule:evenodd;stroke:#fff;stroke-width:.15351227;stroke-linecap:butt;stroke-linejoin:miter;stroke-miterlimit:4;stroke-dasharray:none;stroke-opacity:1"/><path id="path5419" d="m 18.590207,290.43006 c -0.449576,1.15119 -1.001329,2.80304 -1.001329,4.03597" style="fill:none;fill-rule:evenodd;stroke:#fff;stroke-width:.15351227;stroke-linecap:butt;stroke-linejoin:miter;stroke-miterlimit:4;stroke-dasharray:none;stroke-opacity:1"/><path style="fill:none;fill-rule:evenodd;stroke:#fff;stroke-width:.15351227;stroke-linecap:butt;stroke-linejoin:miter;stroke-miterlimit:4;stroke-dasharray:none;stroke-opacity:1" id="path5421" d="m 18.375636,290.39941 c -1.123897,1.65973 -1.840905,2.74056 -1.788088,3.96443"/><path id="path5424" d="m 17.823883,290.52202 c -1.317216,1.67113 -1.953336,2.56573 -2.0844,3.76008" style="fill:none;fill-rule:evenodd;stroke:#fff;stroke-width:.15351227;stroke-linecap:butt;stroke-linejoin:miter;stroke-miterlimit:4;stroke-dasharray:none;stroke-opacity:1"/></g></g></g><g id="layer3" style="display:none"><rect style="display:inline;opacity:1;fill:#ff0200;fill-opacity:1;stroke:none;stroke-width:1;stroke-miterlimit:4;stroke-dasharray:none;stroke-opacity:1" id="rect5091" width="5.643" height="5.557" x="22.004" y="51.12"/><rect style="display:inline;opacity:1;fill:#0f0;fill-opacity:1;stroke:none;stroke-width:1;stroke-miterlimit:4;stroke-dasharray:none;stroke-opacity:1" id="rect5093" width="5.215" height="5.215" x="22.084" y="45.009"/><rect style="display:inline;opacity:1;fill:#00f;fill-opacity:1;stroke:none;stroke-width:1;stroke-miterlimit:4;stroke-dasharray:none;stroke-opacity:1" id="rect4969" width="5.386" height="5.386" x="22.383" y="83.223"/><rect style="display:inline;opacity:1;fill:#0f0;fill-opacity:1;stroke:none;stroke-width:1;stroke-miterlimit:4;stroke-dasharray:none;stroke-opacity:1" id="rect4975" width="5.355" height="5.591" x="2.329" y="75.109"/><rect style="display:inline;opacity:1;fill:#0f0;fill-opacity:1;stroke:none;stroke-width:1;stroke-miterlimit:4;stroke-dasharray:none;stroke-opacity:1" id="rect4979" width="5.557" height="5.557" x="2.44" y="44.96"/><rect style="display:inline;opacity:1;fill:#0f0;fill-opacity:1;stroke:none;stroke-width:1;stroke-miterlimit:4;stroke-dasharray:none;stroke-opacity:1" id="rect4981" width="5.728" height="5.728" x="11.819" y="44.461"/><rect style="display:inline;opacity:1;fill:#0f0;fill-opacity:1;stroke:none;stroke-width:1;stroke-miterlimit:4;stroke-dasharray:none;stroke-opacity:1" id="rect4983" width="5.814" height="5.814" x="21.571" y="27.209"/><rect style="display:inline;opacity:1;fill:#0f0;fill-opacity:1;stroke:none;stroke-width:1;stroke-miterlimit:4;stroke-dasharray:none;stroke-opacity:1" id="rect4989" width="5.557" height="5.557" x="12.466" y="27.43"/><rect style="display:inline;opacity:1;fill:#0f0;fill-opacity:1;stroke:none;stroke-width:1;stroke-miterlimit:4;stroke-dasharray:none;stroke-opacity:1" id="rect4991" width="5.301" height="5.301" x="2.329" y="17.041"/><rect style="display:inline;opacity:1;fill:#0f0;fill-opacity:1;stroke:none;stroke-width:1;stroke-miterlimit:4;stroke-dasharray:none;stroke-opacity:1" id="rect5041" width="5.728" height="5.728" x="2.757" y="27.47"/><rect style="display:inline;opacity:1;fill:red;fill-opacity:1;stroke:none;stroke-width:1;stroke-miterlimit:4;stroke-dasharray:none;stroke-opacity:1" id="rect5043" width="5.728" height="5.728" x="2.757" y="34.257"/><rect style="display:inline;opacity:1;fill:red;fill-opacity:1;stroke:none;stroke-width:1;stroke-miterlimit:4;stroke-dasharray:none;stroke-opacity:1" id="rect5045" width="5.044" height="5.386" x="12.722" y="34.046"/><rect style="display:inline;opacity:1;fill:red;fill-opacity:1;stroke:none;stroke-width:1;stroke-miterlimit:4;stroke-dasharray:none;stroke-opacity:1" id="rect5047" width="5.386" height="5.386" x="21.785" y="34.081"/><rect style="display:inline;opacity:1;fill:red;fill-opacity:1;stroke:none;stroke-width:1;stroke-miterlimit:4;stroke-dasharray:none;stroke-opacity:1" id="rect5049" width="5.472" height="5.472" x="12.204" y="51.206"/><rect style="display:inline;opacity:1;fill:red;fill-opacity:1;stroke:none;stroke-width:1;stroke-miterlimit:4;stroke-dasharray:none;stroke-opacity:1" id="rect5053" width="5.301" height="5.472" x="12.046" y="77.942"/><rect style="display:inline;opacity:1;fill:#0f0;fill-opacity:1;stroke:none;stroke-width:1;stroke-miterlimit:4;stroke-dasharray:none;stroke-opacity:1" id="rect4923" width="5.643" height="5.459" x="2.329" y="83.48"/><rect style="display:inline;opacity:1;fill:red;fill-opacity:1;stroke:none;stroke-width:1;stroke-miterlimit:4;stroke-dasharray:none;stroke-opacity:1" id="rect4945" width="5.215" height="5.215" x="10.158" y="17.127"/><rect style="display:inline;opacity:1;fill:#00f;fill-opacity:1;stroke:none;stroke-width:1;stroke-miterlimit:4;stroke-dasharray:none;stroke-opacity:1" id="rect4947" width="5.63" height="5.472" x="22.383" y="74.895"/><rect style="display:inline;opacity:1;fill:#0f0;fill-opacity:1;stroke:none;stroke-width:1;stroke-miterlimit:4;stroke-dasharray:none;stroke-opacity:1" id="rect5332" width="5.472" height="5.472" x="2.223" y="10.317"/></g></svg>