<svg xmlns="http://www.w3.org/2000/svg" xmlns:svg="http://www.w3.org/2000/svg" id="svg49872" width="18" height="18" version="1.1" viewBox="0 0 4.763 4.763"><defs id="defs49866"><clipPath id="clip12"><path id="path28860" d="m 143,129.75 3,0 0,28.25 -3,0 z m 0,0"/></clipPath><clipPath id="clip11"><path id="path28857" d="m 117.39453,129.75 54,0 0,54.00391 -54,0 z m 0,0"/></clipPath><clipPath id="clip150"><path id="path29465" d="m 176,208.92578 2,0 0,19.07422 -2,0 z m 0,0"/></clipPath><clipPath id="clip149"><path id="path29462" d="m 159.27734,208.92578 36,0 0,36 -36,0 z m 0,0"/></clipPath><clipPath id="clip142"><path id="path29320" d="m 110,208.92578 3,0 0,19.07422 -3,0 z m 0,0"/></clipPath><clipPath id="clip141"><path id="path29317" d="m 93.511719,208.92578 36.000001,0 0,36 -36.000001,0 z m 0,0"/></clipPath></defs><metadata id="metadata49869"/><g id="layer1" transform="translate(-73.816227,-83.784789)"><ellipse style="fill:#000;fill-opacity:1;stroke:#515151;stroke-width:.25090745;stroke-miterlimit:4;stroke-dasharray:none;stroke-opacity:1" id="path8708" cx="76.203" cy="86.161" rx="2.258" ry="2.26"/><g style="fill:#fff;fill-opacity:1;stroke:#fff;stroke-width:.98729372;stroke-miterlimit:4;stroke-dasharray:none;stroke-opacity:1" id="g900" transform="matrix(0.16156551,0,0,-0.10519188,76.294093,83.814271)"><path style="fill:#fff;fill-opacity:1;fill-rule:evenodd;stroke:#fff;stroke-width:.98729372;stroke-miterlimit:4;stroke-dasharray:none;stroke-opacity:1" id="path898" d="M 0,0 C -0.195,0.045 -0.393,0.069 -0.598,0.069 -0.804,0.069 -1.002,0.045 -1.196,0 l 0,-18.157 1.196,0 z"/></g><g id="g8643" transform="matrix(0.5533819,0,0,0.5533819,32.625257,39.903491)" style="fill:#383838;fill-opacity:1;stroke:none;stroke-width:.21907996;stroke-miterlimit:4;stroke-dasharray:none;stroke-opacity:1"><path style="fill:#383838;fill-opacity:1;stroke:none;stroke-width:.21917348;stroke-miterlimit:4;stroke-dasharray:none;stroke-opacity:1" id="rect4312" d="m 82.361481,83.153915 0.983024,0 0,0.849892 -0.983024,0 z" transform="matrix(-0.050417,0.998301,-0.998301,-0.050417,170.27267,5.05401)"/><path style="fill:#383838;fill-opacity:1;stroke:none;stroke-width:.21916503;stroke-miterlimit:4;stroke-dasharray:none;stroke-opacity:1" id="rect0769" d="m 82.361481,83.153915 0.983024,0 0,0.849892 -0.983024,0 z" transform="matrix(-0.519038,0.854297,-0.854297,-0.519038,196.55364,58.098063)"/><path style="fill:#383838;fill-opacity:1;stroke:none;stroke-width:.2191651;stroke-miterlimit:4;stroke-dasharray:none;stroke-opacity:1" id="rect5887" d="m 82.361481,83.153915 0.983024,0 0,0.849892 -0.983024,0 z" transform="matrix(-0.854313,0.519011,-0.519011,-0.854313,194.88297,115.33286)"/><path style="fill:#383838;fill-opacity:1;stroke:none;stroke-width:.21917349;stroke-miterlimit:4;stroke-dasharray:none;stroke-opacity:1" id="rect0708" d="m 82.361481,83.153915 0.983024,0 0,0.849892 -0.983024,0 z" transform="matrix(-0.998301,0.050416,-0.050416,-0.998301,165.70503,166.71165)"/><path style="fill:#383838;fill-opacity:1;stroke:none;stroke-width:.219165;stroke-miterlimit:4;stroke-dasharray:none;stroke-opacity:1" id="rect2594" d="m 82.361481,83.153915 0.983024,0 0,0.849892 -0.983024,0 z" transform="matrix(-0.854313,-0.519012,0.519012,-0.854313,104.3045,201.35814)"/><path style="fill:#383838;fill-opacity:1;stroke:none;stroke-width:.219165;stroke-miterlimit:4;stroke-dasharray:none;stroke-opacity:1" id="rect8323" d="m 82.361481,83.153915 0.983024,0 0,0.849892 -0.983024,0 z" transform="matrix(-0.519012,-0.854313,0.854313,-0.519012,47.059226,199.69544)"/><path style="fill:#383838;fill-opacity:1;stroke:none;stroke-width:.21917354;stroke-miterlimit:4;stroke-dasharray:none;stroke-opacity:1" id="rect1932" d="m 82.361481,83.153915 0.983024,0 0,0.849892 -0.983024,0 z" transform="matrix(-0.050411,-0.998301,0.998301,-0.050411,-4.329946,170.52016)"/><path style="fill:#383838;fill-opacity:1;stroke:none;stroke-width:.219165;stroke-miterlimit:4;stroke-dasharray:none;stroke-opacity:1" id="rect2743" d="m 82.361481,83.153915 0.983024,0 0,0.849892 -0.983024,0 z" transform="matrix(0.519012,-0.854313,0.854313,0.519012,-38.988084,109.11694)"/><path style="fill:#383838;fill-opacity:1;stroke:none;stroke-width:.219165;stroke-miterlimit:4;stroke-dasharray:none;stroke-opacity:1" id="rect2330" d="m 82.361481,83.153915 0.983024,0 0,0.849892 -0.983024,0 z" transform="matrix(0.854313,-0.519012,0.519012,0.854313,-37.332484,51.86456)"/><path style="fill:#383838;fill-opacity:1;stroke:none;stroke-width:.2191651;stroke-miterlimit:4;stroke-dasharray:none;stroke-opacity:1" id="rect2657" d="m 82.361481,83.153915 0.983024,0 0,0.849892 -0.983024,0 z" transform="matrix(0.854313,0.519011,-0.519011,0.854313,53.245865,-34.204648)"/><path style="fill:#383838;fill-opacity:1;stroke:none;stroke-width:.21916503;stroke-miterlimit:4;stroke-dasharray:none;stroke-opacity:1" id="rect9535" d="m 82.361481,83.153915 0.983024,0 0,0.849892 -0.983024,0 z" transform="matrix(0.519038,0.854297,-0.854297,0.519038,110.50197,-32.557023)"/></g><ellipse style="fill:none;fill-opacity:1;stroke:none;stroke-width:1.41732287;stroke-miterlimit:4;stroke-dasharray:none;stroke-opacity:1" id="path8698" cx="76.197" cy="86.166" rx=".203" ry=".055"/><ellipse style="fill:none;fill-opacity:1;stroke:none;stroke-width:1.41732287;stroke-miterlimit:4;stroke-dasharray:none;stroke-opacity:1" id="path8700" cx="76.197" cy="86.166" rx="6.707" ry="6.117"/></g></svg>