<svg xmlns="http://www.w3.org/2000/svg" xmlns:svg="http://www.w3.org/2000/svg" id="svg8" version="1.1" viewBox="0 0 120 380"><metadata id="metadata39"/><defs id="defs4"><style id="style2">.cls-3{fill:#251e1e}.cls-4{fill:#fff7d4}</style></defs><title id="title6">BlankPanel8</title><rect style="opacity:1;vector-effect:none;fill:#44423e;fill-opacity:1;stroke:none;stroke-width:.97368497;stroke-linecap:butt;stroke-linejoin:miter;stroke-miterlimit:4;stroke-dasharray:none;stroke-dashoffset:0;stroke-opacity:1" id="rect1709" width="120" height="380" x="0" y="0"/><g id="g1661" data-name="Layer 2" transform="matrix(7.9299111,0,0,7.9299111,-415.58996,-2669.2158)" style="fill:#3c3835;fill-opacity:1"><g id="g1659" data-name="Layer 1-2" style="fill:#3c3835;fill-opacity:1"><path style="fill:#3c3835;fill-opacity:1" id="path1657" d="m 71.31,357 a 0.91,0.91 0 0 0 -0.41,-0.53 0.77,0.77 0 0 0 -0.64,-0.1 0.91,0.91 0 0 0 -0.53,0.41 43.94,43.94 0 0 1 -3.33,5.08 21.5,21.5 0 0 1 -2.08,-6.45 v -0.39 l 2,-2.81 c 0.24,-0.34 1.26,-1.56 -0.78,-2.45 a 3.15,3.15 0 0 0 -2.36,0.07 c -2.32,1 -1.92,4.26 -1.85,4.79 q 0,0.31 0.09,0.62 l -3.78,6.22 c 0,0 0.49,-3.26 0.58,-3.85 A 1.36,1.36 0 0 0 57.1,356 c -1,-0.24 -1.61,0.06 -2.27,2.65 -0.56,2.19 -2.54,7.64 -3.86,7.6 -0.78,0 -0.24,-3.41 0.68,-5.87 1.12,-2.95 3.78,-7 6.78,-8.83 0.69,-0.43 1.6,-1.5 0.66,-2.56 -1.19,-1.34 -2.46,-0.28 -3,0.13 a 14.68,14.68 0 0 0 -3.49,4.35 22.82,22.82 0 0 0 -2.81,6.33 c -1,3.25 -2.07,8.54 0.1,8.74 3,0.27 5.39,-5.56 5.39,-5.56 0,0 -0.13,3.05 1.4,3.13 1.53,0.08 4.51,-5.9 5.36,-7.92 a 22.36,22.36 0 0 0 2.5,5.55 2.87,2.87 0 0 1 0.14,0.39 c -0.34,0.47 -3.77,4.86 -4.77,7.5 a 0.82,0.82 0 0 0 0,0.72 0.79,0.79 0 0 0 0.5,0.42 1.12,1.12 0 0 0 0.74,-0.12 5.53,5.53 0 0 0 0.66,-0.35 c 4.83,-2.78 5.52,-6 5.17,-8.48 a 2.08,2.08 0 0 1 0.26,-0.4 42.2,42.2 0 0 0 3.89,-5.77 0.76,0.76 0 0 0 0.18,-0.65 z" class="cls-4"/></g></g><rect style="opacity:1;vector-effect:none;fill:#3c3835;fill-opacity:1;stroke:none;stroke-width:.97368497;stroke-linecap:butt;stroke-linejoin:miter;stroke-miterlimit:4;stroke-dasharray:none;stroke-dashoffset:0;stroke-opacity:1" id="rect1759" width="120" height="15" x="0" y="365"/><rect id="rect1806" width="120" height="15" x="0" y="0" style="opacity:1;vector-effect:none;fill:#3c3835;fill-opacity:1;stroke:none;stroke-width:.97368497;stroke-linecap:butt;stroke-linejoin:miter;stroke-miterlimit:4;stroke-dasharray:none;stroke-dashoffset:0;stroke-opacity:1"/><g id="g1810"><path style="fill:#202020;fill-opacity:1" id="rect861" d="m 18.51,2.7999981 h 8.37 a 5,5 0 0 1 5.26,4.72 v 0 A 5,5 0 0 1 26.88,12.239998 H 18.51 A 5,5 0 0 1 13.25,7.5199981 v 0 a 5,5 0 0 1 5.26,-4.72 z" class="cls-3"/><path style="fill:#202020;fill-opacity:1" id="rect863" d="m 18.51,368.28 h 8.37 a 5,5 0 0 1 5.26,4.72 v 0 a 5,5 0 0 1 -5.26,4.72 H 18.51 A 5,5 0 0 1 13.24,373 v 0 a 5,5 0 0 1 5.27,-4.72 z" class="cls-3"/></g><g id="g1814"><path style="fill:#202020;fill-opacity:1" id="rect1497" d="m 93.31,2.7999981 h 8.37 a 5,5 0 0 1 5.26,4.72 v 0 a 5,5 0 0 1 -5.26,4.7199999 H 93.31 A 5,5 0 0 1 88.05,7.5199981 v 0 a 5,5 0 0 1 5.26,-4.72 z" class="cls-3"/><path style="fill:#202020;fill-opacity:1" id="rect1499" d="m 93.31,368.28 h 8.37 a 5,5 0 0 1 5.26,4.72 v 0 a 5,5 0 0 1 -5.26,4.72 H 93.31 A 5,5 0 0 1 88.05,373 v 0 a 5,5 0 0 1 5.26,-4.72 z" class="cls-3"/></g><g style="display:inline" id="g1614" transform="translate(15.000011,-4.7631836e-6)"><circle id="path1686" cx="45" cy="359.882" r="15.118" style="opacity:1;vector-effect:none;fill:#3c3835;fill-opacity:1;stroke:none;stroke-width:.74390346;stroke-linecap:butt;stroke-linejoin:miter;stroke-miterlimit:4;stroke-dasharray:none;stroke-dashoffset:0;stroke-opacity:1"/><g id="Layer_2-2" data-name="Layer 2" transform="matrix(0.66602928,0,0,0.66602928,5.0554261,118.9929)" style="fill:#fff7d4;fill-opacity:1"><g id="Layer_1-2-6" data-name="Layer 1-2" style="fill:#fff7d4;fill-opacity:1"><path style="fill:#fff7d4;fill-opacity:1" id="path8-4-6" d="m 71.31,357 a 0.91,0.91 0 0 0 -0.41,-0.53 0.77,0.77 0 0 0 -0.64,-0.1 0.91,0.91 0 0 0 -0.53,0.41 43.94,43.94 0 0 1 -3.33,5.08 21.5,21.5 0 0 1 -2.08,-6.45 v -0.39 l 2,-2.81 c 0.24,-0.34 1.26,-1.56 -0.78,-2.45 a 3.15,3.15 0 0 0 -2.36,0.07 c -2.32,1 -1.92,4.26 -1.85,4.79 q 0,0.31 0.09,0.62 l -3.78,6.22 c 0,0 0.49,-3.26 0.58,-3.85 A 1.36,1.36 0 0 0 57.1,356 c -1,-0.24 -1.61,0.06 -2.27,2.65 -0.56,2.19 -2.54,7.64 -3.86,7.6 -0.78,0 -0.24,-3.41 0.68,-5.87 1.12,-2.95 3.78,-7 6.78,-8.83 0.69,-0.43 1.6,-1.5 0.66,-2.56 -1.19,-1.34 -2.46,-0.28 -3,0.13 a 14.68,14.68 0 0 0 -3.49,4.35 22.82,22.82 0 0 0 -2.81,6.33 c -1,3.25 -2.07,8.54 0.1,8.74 3,0.27 5.39,-5.56 5.39,-5.56 0,0 -0.13,3.05 1.4,3.13 1.53,0.08 4.51,-5.9 5.36,-7.92 a 22.36,22.36 0 0 0 2.5,5.55 2.87,2.87 0 0 1 0.14,0.39 c -0.34,0.47 -3.77,4.86 -4.77,7.5 a 0.82,0.82 0 0 0 0,0.72 0.79,0.79 0 0 0 0.5,0.42 1.12,1.12 0 0 0 0.74,-0.12 5.53,5.53 0 0 0 0.66,-0.35 c 4.83,-2.78 5.52,-6 5.17,-8.48 a 2.08,2.08 0 0 1 0.26,-0.4 42.2,42.2 0 0 0 3.89,-5.77 0.76,0.76 0 0 0 0.18,-0.65 z" class="cls-4"/></g></g></g></svg>