<svg xmlns="http://www.w3.org/2000/svg" xmlns:osb="http://www.openswatchbook.org/uri/2009/osb" xmlns:svg="http://www.w3.org/2000/svg" id="svg11791" width="240" height="380" version="1.1"><defs id="defs3"><marker id="DotM" orient="auto" refX="0" refY="0" style="overflow:visible"><path id="path4782" d="m -2.5,-1 c 0,2.76 -2.24,5 -5,5 -2.76,0 -5,-2.24 -5,-5 0,-2.76 2.24,-5 5,-5 2.76,0 5,2.24 5,5 z" transform="matrix(0.4,0,0,0.4,2.96,0.4)" style="fill-rule:evenodd;stroke:#000;stroke-width:1.00000003pt"/></marker><marker id="Arrow1Sstart" orient="auto" refX="0" refY="0" style="overflow:visible"><path id="path4730" d="M 0,0 5,-5 -12.5,0 5,5 Z" transform="matrix(0.2,0,0,0.2,1.2,0)" style="fill-rule:evenodd;stroke:#000;stroke-width:1.00000003pt"/></marker><marker id="Arrow2Mend" orient="auto" refX="0" refY="0" style="overflow:visible"><path id="path5158" d="M 8.7185878,4.0337352 -2.2072895,0.01601326 8.7185884,-4.0017078 c -1.7454984,2.3720609 -1.7354408,5.6174519 -6e-7,8.035443 z" transform="scale(-0.6)" style="fill-rule:evenodd;stroke-width:.625;stroke-linejoin:round"/></marker><marker id="Arrow2Mstart" orient="auto" refX="0" refY="0" style="overflow:visible"><path id="path5155" d="M 8.7185878,4.0337352 -2.2072895,0.01601326 8.7185884,-4.0017078 c -1.7454984,2.3720609 -1.7354408,5.6174519 -6e-7,8.035443 z" transform="scale(0.6)" style="fill-rule:evenodd;stroke-width:.625;stroke-linejoin:round"/></marker><marker id="Arrow1Mstart" orient="auto" refX="0" refY="0" style="overflow:visible"><path id="path6730" d="M 0,0 5,-5 -12.5,0 5,5 Z" transform="matrix(0.4,0,0,0.4,4,0)" style="fill-rule:evenodd;stroke:#000;stroke-width:1.00000003pt"/></marker><marker id="TriangleOutM" orient="auto" refX="0" refY="0" style="overflow:visible"><path id="path6869" d="M 5.77,0 -2.88,5 V -5 Z" transform="scale(0.4)" style="fill-rule:evenodd;stroke:#000;stroke-width:1.00000003pt"/></marker><marker id="TriangleOutS" orient="auto" refX="0" refY="0" style="overflow:visible"><path id="path6872" d="M 5.77,0 -2.88,5 V -5 Z" transform="scale(0.2)" style="fill-rule:evenodd;stroke:#000;stroke-width:1.00000003pt"/></marker><marker id="SquareL" orient="auto" refX="0" refY="0" style="overflow:visible"><path id="path7539" d="M -5,-5 V 5 H 5 V -5 Z" transform="scale(0.8)" style="fill-rule:evenodd;stroke:#000;stroke-width:1.00000003pt"/></marker><marker id="Arrow1Send" orient="auto" refX="0" refY="0" style="overflow:visible"><path id="path6739" d="M 0,0 5,-5 -12.5,0 5,5 Z" transform="matrix(-0.2,0,0,-0.2,-1.2,0)" style="fill-rule:evenodd;stroke:#000;stroke-width:1.00000003pt"/></marker><marker id="Arrow1Mend" orient="auto" refX="0" refY="0" style="overflow:visible"><path id="path6733" d="M 0,0 5,-5 -12.5,0 5,5 Z" transform="matrix(-0.4,0,0,-0.4,-4,0)" style="fill-rule:evenodd;stroke:#000;stroke-width:1.00000003pt"/></marker><marker id="Arrow1Lend" orient="auto" refX="0" refY="0" style="overflow:visible"><path id="path6727" d="M 0,0 5,-5 -12.5,0 5,5 Z" transform="matrix(-0.8,0,0,-0.8,-10,0)" style="fill-rule:evenodd;stroke:#000;stroke-width:1.00000003pt"/></marker><filter id="filter3998" width="1" height="1" x="0" y="0" style="color-interpolation-filters:sRGB"><feConvolveMatrix id="feConvolveMatrix4000" bias="0" divisor="1" in="SourceGraphic" kernelMatrix="0 1 0 0 -2 0 0 1 0" order="3 3" preserveAlpha="true" result="result0" targetX="1" targetY="1"/></filter><filter id="filter3286" width="1" height="1" x="0" y="0" style="color-interpolation-filters:sRGB"><feFlood id="feFlood3288" flood-color="gray" flood-opacity="0" result="result1"/><feBlend id="feBlend3290" in2="SourceGraphic" mode="normal" result="result2"/><feComposite id="feComposite3292" in2="SourceGraphic" k1="0" k2="1" k3="0" k4="0" operator="arithmetic" result="result3"/><feComposite id="feComposite3294" in2="SourceGraphic" operator="in"/></filter><clipPath id="clipPath6603" clipPathUnits="userSpaceOnUse"><path id="path6605" d="M 402,402 H 9515 V 13631 H 402 Z" style="clip-rule:evenodd"/></clipPath><clipPath id="clipPath6613" clipPathUnits="userSpaceOnUse"><path id="path6615" d="M 402,402 H 9515 V 13631 H 402 Z" style="clip-rule:evenodd"/></clipPath><clipPath id="clipPath6619" clipPathUnits="userSpaceOnUse"><path id="path6621" d="M 614,402 H 9303 V 6057 H 614 Z" style="clip-rule:evenodd"/></clipPath><clipPath id="clipPath6290" clipPathUnits="userSpaceOnUse"><path id="path6292" d="M 402,402 H 9515 V 13631 H 402 Z" style="clip-rule:evenodd"/></clipPath><clipPath id="clipPath6300" clipPathUnits="userSpaceOnUse"><path id="path6302" d="M 402,402 H 9515 V 13631 H 402 Z" style="clip-rule:evenodd"/></clipPath><clipPath id="clipPath6306" clipPathUnits="userSpaceOnUse"><path id="path6308" d="M 614,402 H 9303 V 6655 H 614 Z" style="clip-rule:evenodd"/></clipPath><clipPath id="clipPath5977" clipPathUnits="userSpaceOnUse"><path id="path5979" d="M 402,402 H 9515 V 13631 H 402 Z" style="clip-rule:evenodd"/></clipPath><clipPath id="clipPath5987" clipPathUnits="userSpaceOnUse"><path id="path5989" d="M 402,402 H 9515 V 13631 H 402 Z" style="clip-rule:evenodd"/></clipPath><clipPath id="clipPath5993" clipPathUnits="userSpaceOnUse"><path id="path5995" d="M 614,402 H 9303 V 6645 H 614 Z" style="clip-rule:evenodd"/></clipPath><clipPath id="clipPath5664" clipPathUnits="userSpaceOnUse"><path id="path5666" d="M 402,402 H 9515 V 13631 H 402 Z" style="clip-rule:evenodd"/></clipPath><clipPath id="clipPath5674" clipPathUnits="userSpaceOnUse"><path id="path5676" d="M 402,402 H 9515 V 13631 H 402 Z" style="clip-rule:evenodd"/></clipPath><clipPath id="clipPath5680" clipPathUnits="userSpaceOnUse"><path id="path5682" d="M 614,402 H 9303 V 6655 H 614 Z" style="clip-rule:evenodd"/></clipPath><clipPath id="clipPath5363" clipPathUnits="userSpaceOnUse"><path id="path5365" d="M 402,402 H 9515 V 13631 H 402 Z" style="clip-rule:evenodd"/></clipPath><clipPath id="clipPath5373" clipPathUnits="userSpaceOnUse"><path id="path5375" d="M 402,402 H 9515 V 13631 H 402 Z" style="clip-rule:evenodd"/></clipPath><clipPath id="clipPath5379" clipPathUnits="userSpaceOnUse"><path id="path5381" d="M 614,402 H 9303 V 6051 H 614 Z" style="clip-rule:evenodd"/></clipPath><clipPath id="clipPath5062" clipPathUnits="userSpaceOnUse"><path id="path5064" d="M 402,402 H 9515 V 13631 H 402 Z" style="clip-rule:evenodd"/></clipPath><clipPath id="clipPath5072" clipPathUnits="userSpaceOnUse"><path id="path5074" d="M 402,402 H 9515 V 13631 H 402 Z" style="clip-rule:evenodd"/></clipPath><clipPath id="clipPath5078" clipPathUnits="userSpaceOnUse"><path id="path5080" d="M 614,402 H 9303 V 6051 H 614 Z" style="clip-rule:evenodd"/></clipPath><clipPath id="clipPath4761" clipPathUnits="userSpaceOnUse"><path id="path4763" d="M 402,402 H 9515 V 13631 H 402 Z" style="clip-rule:evenodd"/></clipPath><clipPath id="clipPath4771" clipPathUnits="userSpaceOnUse"><path id="path4773" d="M 402,402 H 9515 V 13631 H 402 Z" style="clip-rule:evenodd"/></clipPath><clipPath id="clipPath4777" clipPathUnits="userSpaceOnUse"><path id="path4779" d="M 614,402 H 9303 V 6051 H 614 Z" style="clip-rule:evenodd"/></clipPath><clipPath id="clipPath4159" clipPathUnits="userSpaceOnUse"><path id="path4161" d="M 402,402 H 9515 V 13631 H 402 Z" style="clip-rule:evenodd"/></clipPath><clipPath id="clipPath4169" clipPathUnits="userSpaceOnUse"><path id="path4171" d="M 402,402 H 9515 V 13631 H 402 Z" style="clip-rule:evenodd"/></clipPath><clipPath id="clipPath4175" clipPathUnits="userSpaceOnUse"><path id="path4177" d="M 614,402 H 9303 V 6051 H 614 Z" style="clip-rule:evenodd"/></clipPath><linearGradient id="linearGradient8170" osb:paint="solid"><stop id="stop8172" offset="0" style="stop-color:#000;stop-opacity:1"/></linearGradient><filter id="filter3998-0" width="1" height="1" x="0" y="0" style="color-interpolation-filters:sRGB"><feConvolveMatrix id="feConvolveMatrix4000-2" bias="0" divisor="1" in="SourceGraphic" kernelMatrix="0 1 0 0 -2 0 0 1 0" order="3 3" preserveAlpha="true" result="result0" targetX="1" targetY="1"/></filter><filter id="filter3286-2" width="1" height="1" x="0" y="0" style="color-interpolation-filters:sRGB"><feFlood id="feFlood3288-2" flood-color="gray" flood-opacity="0" result="result1"/><feBlend id="feBlend3290-7" in2="SourceGraphic" mode="normal" result="result2"/><feComposite id="feComposite3292-9" in2="SourceGraphic" k1="0" k2="1" k3="0" k4="0" operator="arithmetic" result="result3"/><feComposite id="feComposite3294-7" in2="SourceGraphic" operator="in"/></filter><clipPath id="clipPath6603-6" clipPathUnits="userSpaceOnUse"><path id="path6605-9" d="M 402,402 H 9515 V 13631 H 402 Z" style="clip-rule:evenodd"/></clipPath><clipPath id="clipPath6613-4" clipPathUnits="userSpaceOnUse"><path id="path6615-8" d="M 402,402 H 9515 V 13631 H 402 Z" style="clip-rule:evenodd"/></clipPath><clipPath id="clipPath6619-1" clipPathUnits="userSpaceOnUse"><path id="path6621-7" d="M 614,402 H 9303 V 6057 H 614 Z" style="clip-rule:evenodd"/></clipPath><clipPath id="clipPath6290-7" clipPathUnits="userSpaceOnUse"><path id="path6292-5" d="M 402,402 H 9515 V 13631 H 402 Z" style="clip-rule:evenodd"/></clipPath><clipPath id="clipPath6300-0" clipPathUnits="userSpaceOnUse"><path id="path6302-9" d="M 402,402 H 9515 V 13631 H 402 Z" style="clip-rule:evenodd"/></clipPath><clipPath id="clipPath6306-6" clipPathUnits="userSpaceOnUse"><path id="path6308-7" d="M 614,402 H 9303 V 6655 H 614 Z" style="clip-rule:evenodd"/></clipPath><clipPath id="clipPath5977-5" clipPathUnits="userSpaceOnUse"><path id="path5979-9" d="M 402,402 H 9515 V 13631 H 402 Z" style="clip-rule:evenodd"/></clipPath><clipPath id="clipPath5987-8" clipPathUnits="userSpaceOnUse"><path id="path5989-4" d="M 402,402 H 9515 V 13631 H 402 Z" style="clip-rule:evenodd"/></clipPath><clipPath id="clipPath5993-8" clipPathUnits="userSpaceOnUse"><path id="path5995-7" d="M 614,402 H 9303 V 6645 H 614 Z" style="clip-rule:evenodd"/></clipPath><clipPath id="clipPath5664-9" clipPathUnits="userSpaceOnUse"><path id="path5666-9" d="M 402,402 H 9515 V 13631 H 402 Z" style="clip-rule:evenodd"/></clipPath><clipPath id="clipPath5674-5" clipPathUnits="userSpaceOnUse"><path id="path5676-5" d="M 402,402 H 9515 V 13631 H 402 Z" style="clip-rule:evenodd"/></clipPath><clipPath id="clipPath5680-8" clipPathUnits="userSpaceOnUse"><path id="path5682-9" d="M 614,402 H 9303 V 6655 H 614 Z" style="clip-rule:evenodd"/></clipPath><clipPath id="clipPath5363-3" clipPathUnits="userSpaceOnUse"><path id="path5365-2" d="M 402,402 H 9515 V 13631 H 402 Z" style="clip-rule:evenodd"/></clipPath><clipPath id="clipPath5373-7" clipPathUnits="userSpaceOnUse"><path id="path5375-5" d="M 402,402 H 9515 V 13631 H 402 Z" style="clip-rule:evenodd"/></clipPath><clipPath id="clipPath5379-4" clipPathUnits="userSpaceOnUse"><path id="path5381-8" d="M 614,402 H 9303 V 6051 H 614 Z" style="clip-rule:evenodd"/></clipPath><clipPath id="clipPath5062-2" clipPathUnits="userSpaceOnUse"><path id="path5064-2" d="M 402,402 H 9515 V 13631 H 402 Z" style="clip-rule:evenodd"/></clipPath><clipPath id="clipPath5072-4" clipPathUnits="userSpaceOnUse"><path id="path5074-9" d="M 402,402 H 9515 V 13631 H 402 Z" style="clip-rule:evenodd"/></clipPath><clipPath id="clipPath5078-8" clipPathUnits="userSpaceOnUse"><path id="path5080-7" d="M 614,402 H 9303 V 6051 H 614 Z" style="clip-rule:evenodd"/></clipPath><clipPath id="clipPath4761-5" clipPathUnits="userSpaceOnUse"><path id="path4763-2" d="M 402,402 H 9515 V 13631 H 402 Z" style="clip-rule:evenodd"/></clipPath><clipPath id="clipPath4771-1" clipPathUnits="userSpaceOnUse"><path id="path4773-7" d="M 402,402 H 9515 V 13631 H 402 Z" style="clip-rule:evenodd"/></clipPath><clipPath id="clipPath4777-0" clipPathUnits="userSpaceOnUse"><path id="path4779-9" d="M 614,402 H 9303 V 6051 H 614 Z" style="clip-rule:evenodd"/></clipPath><clipPath id="clipPath4159-1" clipPathUnits="userSpaceOnUse"><path id="path4161-2" d="M 402,402 H 9515 V 13631 H 402 Z" style="clip-rule:evenodd"/></clipPath><clipPath id="clipPath4169-5" clipPathUnits="userSpaceOnUse"><path id="path4171-5" d="M 402,402 H 9515 V 13631 H 402 Z" style="clip-rule:evenodd"/></clipPath><clipPath id="clipPath4175-8" clipPathUnits="userSpaceOnUse"><path id="path4177-8" d="M 614,402 H 9303 V 6051 H 614 Z" style="clip-rule:evenodd"/></clipPath><linearGradient id="linearGradient8170-5" osb:paint="solid"><stop id="stop8172-0" offset="0" style="stop-color:#000;stop-opacity:1"/></linearGradient><clipPath id="clip89"><rect id="rect4864" width="18" height="19" x="0" y="0"/></clipPath><clipPath id="clip90"><path id="path4861" d="m 0.898438,0.128906 h 16.25 v 17.882813 h -16.25 z m 0,0"/></clipPath><mask id="mask44"><g id="g4858" transform="matrix(0.26458333,0,0,0.26458333,89.358789,128.57765)" style="filter:url(#alpha)"><rect id="rect4856" width="3052.87" height="3351.5" x="0" y="0" style="fill:#000;fill-opacity:.14999402;stroke:none"/></g></mask><filter id="alpha" width="1" height="1" x="0" y="0" filterUnits="objectBoundingBox"><feColorMatrix id="feColorMatrix4149" in="SourceGraphic" type="matrix" values="0 0 0 0 1 0 0 0 0 1 0 0 0 0 1 0 0 0 1 0"/></filter><clipPath id="clipPath17821"><rect id="rect17819" width="18" height="19" x="0" y="0"/></clipPath><clipPath id="clipPath17825"><path id="path17823" d="m 0.898438,0.128906 h 16.25 v 17.882813 h -16.25 z m 0,0"/></clipPath><clipPath id="clip87"><rect id="rect4848" width="24" height="26" x="0" y="0"/></clipPath><clipPath id="clip88"><path id="path4845" d="m 0.683594,0.921875 h 22.679687 v 24.9375 H 0.683594 Z m 0,0"/></clipPath><mask id="mask43"><g id="g4842" transform="matrix(0.26458333,0,0,0.26458333,89.358789,128.57765)" style="filter:url(#alpha)"><rect id="rect4840" width="3052.87" height="3351.5" x="0" y="0" style="fill:#000;fill-opacity:.14999402;stroke:none"/></g></mask><filter id="filter17836" width="1" height="1" x="0" y="0" filterUnits="objectBoundingBox"><feColorMatrix id="feColorMatrix17834" in="SourceGraphic" type="matrix" values="0 0 0 0 1 0 0 0 0 1 0 0 0 0 1 0 0 0 1 0"/></filter><clipPath id="clipPath17840"><rect id="rect17838" width="24" height="26" x="0" y="0"/></clipPath><clipPath id="clipPath17844"><path id="path17842" d="m 0.683594,0.921875 h 22.679687 v 24.9375 H 0.683594 Z m 0,0"/></clipPath><filter style="color-interpolation-filters:sRGB" id="filter3933-6" width="1.027" height="1.021" x="-.014" y="-.011"><feGaussianBlur id="feGaussianBlur3935-4" stdDeviation=".2"/></filter><filter style="color-interpolation-filters:sRGB" id="filter3933" width="1.027" height="1.021" x="-.014" y="-.011"><feGaussianBlur id="feGaussianBlur3935" stdDeviation=".2"/></filter></defs><metadata id="metadata4"/><g id="layer2" transform="translate(0.01175524,-74.386765)" style="display:inline"><path style="fill:#000;fill-opacity:1;stroke-width:16.2095356" id="rect7953" d="M -0.01175524,74.386765 H 239.98824 V 454.38676 H -0.01175524 Z"/><g style="font-style:normal;font-weight:400;font-size:40px;line-height:1.25;font-family:sans-serif;letter-spacing:0;word-spacing:0;fill:#d4af37;fill-opacity:1;stroke:none" id="text7961" aria-label="Bombe"><path style="font-style:normal;font-variant:normal;font-weight:400;font-stretch:normal;font-size:18.66666603px;font-family:'Cooper Black';-inkscape-font-specification:'Cooper Black, Normal';font-variant-ligatures:normal;font-variant-caps:normal;font-variant-numeric:normal;font-feature-settings:normal;text-align:start;writing-mode:lr-tb;text-anchor:start;fill:#d4af37;fill-opacity:1" id="path2174" d="m 93.127571,93.692935 -1.221354,0.0091 q -1.285156,0.01823 -1.877604,0.05469 -0.528646,0.04557 -0.756511,0.04557 -0.555989,0 -0.884114,-0.282552 -0.319011,-0.282552 -0.319011,-0.67448 0,-0.255208 0.11849,-0.401041 0.11849,-0.145834 0.574219,-0.455729 0.264323,-0.182292 0.364583,-0.565105 0.10026,-0.391927 0.21875,-1.667968 0.173177,-1.986979 0.173177,-4.894531 0,-1.066406 -0.145833,-1.412761 -0.136719,-0.355468 -0.65625,-0.583333 -0.601563,-0.255208 -0.601563,-0.747396 0,-0.401041 0.355469,-0.65625 0.364583,-0.255208 0.929687,-0.255208 0.309896,0 0.792969,0.02734 0.802083,0.03646 1.731771,0.03646 0.683594,0 2.688802,-0.05469 0.628906,-0.01823 1.139323,-0.01823 1.212239,0 1.950521,0.200521 0.747395,0.191406 1.29427,0.65625 0.89323,0.756511 0.89323,2.023438 0,0.628906 -0.264323,1.230468 -0.264323,0.592448 -0.710938,0.947917 -0.31901,0.255208 -0.31901,0.464844 0,0.227864 0.382812,0.382812 0.747396,0.300781 1.358077,1.011719 0.6289,0.738281 0.6289,1.85026 0,1.3125 -0.95703,2.397136 -1.266926,1.430989 -3.746093,1.430989 -0.337239,0 -1.658854,-0.04557 -1.203125,-0.04557 -1.476562,-0.05469 z m 0.628906,-9.889323 v 1.877604 q 0,0.446615 0.109375,0.628906 0.11849,0.182292 0.401042,0.182292 0.674479,0 0.993489,-0.410156 0.319011,-0.419271 0.319011,-1.303386 0,-0.85677 -0.328125,-1.321614 -0.328125,-0.473958 -0.929688,-0.473958 -0.31901,0 -0.446614,0.182291 -0.11849,0.173177 -0.11849,0.638021 z m 0,5.25 v 0.865885 q 0,1.194011 0.173177,1.585938 0.173177,0.391927 0.701823,0.391927 1.385417,0 1.385417,-1.622396 0,-2.023437 -1.549479,-2.023437 -0.401042,0 -0.55599,0.173177 -0.154948,0.173177 -0.154948,0.628906 z"/><path style="font-style:normal;font-variant:normal;font-weight:400;font-stretch:normal;font-size:18.66666603px;font-family:'Cooper Black';-inkscape-font-specification:'Cooper Black, Normal';font-variant-ligatures:normal;font-variant-caps:normal;font-variant-numeric:normal;font-feature-settings:normal;text-align:start;writing-mode:lr-tb;text-anchor:start;fill:#d4af37;fill-opacity:1" id="path2176" d="m 107.19137,84.61481 q 1.66797,0 2.92578,0.865885 0.90235,0.619792 1.44922,1.613282 0.56511,1.039062 0.56511,2.16927 0,1.977865 -1.81381,3.363281 -1.73177,1.321615 -3.96484,1.321615 -2.17838,0 -3.52734,-1.239583 -1.3125,-1.203125 -1.3125,-3.135417 0,-2.151041 1.60416,-3.518229 1.67709,-1.440104 4.07422,-1.440104 z m -0.72916,2.105469 q -0.40105,0 -0.64714,0.300781 -0.23698,0.291667 -0.23698,0.783854 0,0.546875 0.20052,1.494792 0.20964,0.938802 0.49219,1.667968 0.28255,0.747396 0.92057,0.747396 0.8112,0 0.8112,-1.029948 0,-0.765625 -0.20963,-1.740885 -0.20053,-0.97526 -0.49219,-1.585938 -0.30078,-0.619791 -0.83854,-0.63802 z"/><path style="font-style:normal;font-variant:normal;font-weight:400;font-stretch:normal;font-size:18.66666603px;font-family:'Cooper Black';-inkscape-font-specification:'Cooper Black, Normal';font-variant-ligatures:normal;font-variant-caps:normal;font-variant-numeric:normal;font-feature-settings:normal;text-align:start;writing-mode:lr-tb;text-anchor:start;fill:#d4af37;fill-opacity:1" id="path2178" d="m 117.19919,84.687727 q 0.51953,0 0.51953,0.738281 0,0.0091 0,0.154948 -0.009,0.145833 -0.009,0.236979 0,0.492187 0.29167,0.492187 0.15495,0 0.48307,-0.391927 0.49219,-0.565104 1.23959,-0.893229 0.74739,-0.337239 1.53124,-0.337239 1.52214,0 2.11459,1.111979 0.22786,0.410156 0.3737,0.410156 0.10026,0 0.47395,-0.364583 1.1849,-1.157552 2.68881,-1.157552 1.17578,0 1.92317,0.647135 0.78386,0.674479 0.78386,2.023437 0,0.291667 -0.0182,0.984375 -0.0182,0.23698 -0.0182,1.43099 0,0.765625 -0.009,1.075521 -0.009,0.191406 -0.009,0.273437 0,0.583334 0.36458,1.020834 0.21875,0.264322 0.26433,0.355468 0.0547,0.08203 0.0547,0.227865 0,1.166666 -2.74349,1.166666 -1.21224,0 -1.95963,-0.291666 -0.73828,-0.291667 -0.73828,-0.765625 0,-0.182292 0.0456,-0.273438 0.0547,-0.10026 0.35547,-0.510416 0.28255,-0.373698 0.28255,-2.488281 0,-1.230469 -0.17318,-1.713542 -0.20052,-0.574219 -0.80208,-0.574219 -0.30078,0 -0.53776,0.191406 -0.22786,0.182292 -0.30078,0.464844 -0.082,0.328125 -0.0911,1.75 0.0273,1.53125 0.0911,1.859375 0.0729,0.328125 0.46484,0.911458 0.0911,0.136719 0.0911,0.346355 0,1.084635 -2.83464,1.084635 -1.70442,0 -2.29687,-0.255208 -0.47396,-0.200521 -0.47396,-0.710938 0,-0.227864 0.0547,-0.31901 0.0638,-0.09115 0.41015,-0.419271 0.20053,-0.191406 0.25521,-0.355469 0.0638,-0.173177 0.0911,-0.619791 0.0638,-1.002605 0.0638,-2.023438 0,-1.786458 -0.91146,-1.786458 -0.68359,0 -0.8112,0.765625 -0.10937,0.720052 -0.10937,2.059896 0,1.002604 0.0365,1.312499 0.0456,0.309896 0.22786,0.647136 0.21875,0.391927 0.21875,0.638021 0,0.592448 -0.82942,0.820312 -0.90235,0.246094 -1.98698,0.246094 -1.40365,0 -2.0599,-0.21875 -0.65625,-0.227865 -0.65625,-0.710938 0,-0.182291 0.082,-0.309895 0.0911,-0.127605 0.40104,-0.401042 0.41016,-0.373698 0.47396,-1.029948 0.10026,-1.130208 0.10026,-2.342448 0,-0.865885 -0.0911,-1.203125 -0.082,-0.346354 -0.36459,-0.555989 -0.27343,-0.209636 -0.35547,-0.319011 -0.0729,-0.109375 -0.0729,-0.300781 0,-0.610677 0.95703,-0.966146 2.30599,-0.829427 3.45443,-0.838541 z"/><path style="font-style:normal;font-variant:normal;font-weight:400;font-stretch:normal;font-size:18.66666603px;font-family:'Cooper Black';-inkscape-font-specification:'Cooper Black, Normal';font-variant-ligatures:normal;font-variant-caps:normal;font-variant-numeric:normal;font-feature-settings:normal;text-align:start;writing-mode:lr-tb;text-anchor:start;fill:#d4af37;fill-opacity:1" id="path2180" d="m 135.74736,81.807518 -0.11849,3.554688 q 0,0.127604 0,0.200521 0,0.182291 0.11849,0.182291 0.0638,0 0.36458,-0.246093 1.06641,-0.875 2.35157,-0.875 1.27604,0 2.2513,0.920572 1.22135,1.157552 1.22135,3.016927 0,2.652344 -1.97786,4.238282 -1.42188,1.148437 -3.33594,1.148437 -0.94792,0 -1.71354,-0.246094 -0.75651,-0.236979 -1.65886,-0.820312 -0.13671,-0.08203 -0.21875,-0.08203 -0.10026,0 -0.5651,0.173177 -0.23698,0.09114 -0.55599,0.09114 -0.5651,0 -0.5651,-0.364583 0,-0.118489 0.0456,-0.273437 0.18229,-0.592448 0.24609,-1.467448 0.0638,-0.875 0.0638,-2.770833 v -2.515625 q 0,-0.938802 -0.0729,-1.175782 -0.0729,-0.236979 -0.41016,-0.373698 -0.47396,-0.20052 -0.65625,-0.391927 -0.18229,-0.20052 -0.18229,-0.501302 0,-0.610677 1.30339,-1.19401 0.71093,-0.309896 1.76823,-0.53776 1.0664,-0.23698 1.82291,-0.23698 0.48307,0 0.47396,0.546875 z m 0.78385,5.559896 q -0.49218,0 -0.71093,0.33724 -0.17318,0.255208 -0.17318,1.039062 0,2.141927 0.14583,2.889323 0.12761,0.692708 0.77474,0.692708 0.66537,0 1.01172,-0.565104 0.34636,-0.565104 0.34636,-1.640625 0,-1.585937 -0.58334,-2.315104 -0.33724,-0.419271 -0.8112,-0.4375 z"/><path style="font-style:normal;font-variant:normal;font-weight:400;font-stretch:normal;font-size:18.66666603px;font-family:'Cooper Black';-inkscape-font-specification:'Cooper Black, Normal';font-variant-ligatures:normal;font-variant-caps:normal;font-variant-numeric:normal;font-feature-settings:normal;text-align:start;writing-mode:lr-tb;text-anchor:start;fill:#d4af37;fill-opacity:1" id="path2182" d="m 151.0234,89.618716 h -4.28385 q -0.28255,0 -0.28255,0.246094 0,0.592448 0.63802,1.121094 0.64713,0.519531 1.38541,0.519531 0.4375,0 0.96615,-0.164063 0.53776,-0.173177 0.88411,-0.419271 0.3099,-0.21875 0.49219,-0.21875 0.23698,0 0.46484,0.291667 0.22787,0.291667 0.22787,0.601563 0,0.65625 -0.82031,1.266927 -1.44922,1.084635 -3.34506,1.084635 -1.91406,0 -3.20833,-1.111979 -0.6289,-0.546875 -1.03906,-1.321615 -0.53776,-1.029948 -0.53776,-2.16927 0,-1.53125 0.92969,-2.752605 0.80208,-1.057291 2.04166,-1.576822 0.92969,-0.391927 2.01433,-0.391927 1.73177,0 2.94401,0.984375 0.61067,0.492187 0.98437,1.166666 0.42839,0.765625 0.42839,1.494792 0,0.592448 -0.2461,0.97526 -0.24609,0.373698 -0.63802,0.373698 z m -4.04687,-1.704427 h 0.92057 q 0.58333,0 0.58333,-0.53776 0,-0.492188 -0.28255,-0.802084 -0.28255,-0.309895 -0.73828,-0.309895 -0.51042,0 -0.80208,0.401041 -0.27344,0.373698 -0.27344,0.756511 0,0.273437 0.1276,0.382812 0.13672,0.109375 0.46485,0.109375 z"/></g><g id="g6059" transform="translate(-0.88332558,1.5004978)"><g style="font-style:normal;font-weight:400;font-size:40px;line-height:1.25;font-family:sans-serif;letter-spacing:0;word-spacing:0;fill:#000;fill-opacity:1;stroke:none" id="text6049" aria-label="A"><path style="font-style:normal;font-variant:normal;font-weight:400;font-stretch:normal;font-size:18.66666603px;font-family:'Cooper Black';-inkscape-font-specification:'Cooper Black, Normal';font-variant-ligatures:normal;font-variant-caps:normal;font-variant-numeric:normal;font-feature-settings:normal;text-align:start;writing-mode:lr-tb;text-anchor:start;fill:#d4af37;fill-opacity:1" id="path2186" d="m 118.10668,438.4268 1.72266,3.6914 q 0.24609,0.51042 0.41015,0.67448 0.16407,0.15495 0.50131,0.20964 0.65625,0.10026 0.65625,0.66536 0,0.66537 -0.80209,0.95704 -0.80208,0.29166 -2.625,0.29166 -2.05989,0 -3.05338,-0.17318 -0.45573,-0.082 -0.72917,-0.32812 -0.26432,-0.25521 -0.26432,-0.61068 0,-0.27343 0.13672,-0.41927 0.14583,-0.15495 0.52864,-0.28255 0.42839,-0.14583 0.42839,-0.49219 0,-0.61067 -0.73828,-0.72005 -0.79297,-0.10937 -2.23308,-0.10937 -1.21224,0 -1.44922,0.14583 -0.14583,0.0911 -0.2552,0.32812 -0.10938,0.23698 -0.10938,0.45573 0,0.20052 0.0729,0.26433 0.082,0.0547 0.51041,0.1914 0.55599,0.16406 0.55599,0.65625 0,1.08464 -2.59765,1.08464 -1.47656,0 -2.16927,-0.20052 -0.63802,-0.19141 -0.63802,-0.83855 0,-0.28255 0.13672,-0.4375 0.14583,-0.15494 0.51041,-0.28255 0.59245,-0.20963 0.89323,-0.58333 0.3099,-0.38281 0.875,-1.6224 l 1.28516,-2.8164 q 0.71094,-1.54948 0.94791,-2.31511 0.2461,-0.77474 0.25521,-1.51302 0.009,-0.78385 0.0911,-1.08463 0.0911,-0.3099 0.39193,-0.60157 0.6289,-0.63802 1.60416,-0.63802 0.92057,0 1.75912,0.72006 1.16666,0.98437 3.39062,5.73307 z m -6.34375,1.14844 h 1.78646 q 0.49219,0 0.49219,-0.21875 0,-0.30079 -0.6836,-1.47657 -0.30989,-0.53776 -0.47395,-0.72005 -0.16407,-0.18229 -0.34636,-0.18229 -0.32812,0 -0.54687,0.61068 -0.0365,0.082 -0.26433,0.64713 -0.38281,0.92969 -0.38281,1.11198 0,0.22787 0.41927,0.22787 z"/></g><g style="font-style:normal;font-weight:400;font-size:40px;line-height:1.25;font-family:sans-serif;letter-spacing:0;word-spacing:0;fill:#000;fill-opacity:1;stroke:none" id="text6053" aria-label="H"><path style="font-style:normal;font-variant:normal;font-weight:400;font-stretch:normal;font-size:18.66666603px;font-family:'Cooper Black';-inkscape-font-specification:'Cooper Black, Normal';font-variant-ligatures:normal;font-variant-caps:normal;font-variant-numeric:normal;font-feature-settings:normal;text-align:start;writing-mode:lr-tb;text-anchor:start;fill:#d4af37;fill-opacity:1" id="path2189" d="m 125.35,438.08305 q 2.84375,0 2.84375,1.17578 0,0.31901 -0.14583,0.51953 -0.14584,0.20052 -0.55599,0.44662 -0.35547,0.21875 -0.45573,0.57421 -0.0911,0.35547 -0.0911,1.44011 0,0.63802 0.23698,0.78385 0.13672,0.0912 0.41016,0.10938 0.28255,0.0182 1.3125,0.0182 0.9388,0 1.16666,-0.10026 0.22787,-0.10026 0.22787,-0.50131 0,-1.20312 -0.10938,-1.67708 -0.10937,-0.47396 -0.42838,-0.64713 -0.40104,-0.22787 -0.52865,-0.38282 -0.1276,-0.16406 -0.1276,-0.42838 0,-0.3737 0.28255,-0.67448 0.28255,-0.3099 0.73828,-0.41927 0.94792,-0.22787 2.37891,-0.22787 1.67708,0 2.47005,0.3099 0.80208,0.30078 0.80208,0.94792 0,0.54687 -0.5651,0.82031 -0.35547,0.16406 -0.46484,0.31901 -0.10938,0.14583 -0.17318,0.55599 -0.0365,0.22786 -0.0911,2.02344 -0.0547,1.79557 -0.0547,2.85286 0,1.85026 0.13671,2.35156 0.0729,0.27344 0.16407,0.36459 0.0911,0.0911 0.57422,0.36458 0.34635,0.19141 0.34635,0.58333 0,0.69271 -0.82943,1.01172 -0.82031,0.3099 -2.67057,0.3099 -1.6224,0 -2.39714,-0.31901 -0.70182,-0.29167 -0.70182,-0.90235 0,-0.51953 0.53776,-0.81119 0.26432,-0.14584 0.35547,-0.29167 0.10026,-0.14583 0.19141,-0.53776 0.16406,-0.76563 0.16406,-1.87761 0,-0.57421 -0.17318,-0.71093 -0.16406,-0.13672 -0.875,-0.13672 -1.63151,0 -2.07812,0.18229 -0.18229,0.0729 -0.22787,0.42838 -0.0547,0.4375 -0.0547,1.07553 0,1.03906 0.29166,1.49479 0.10026,0.14583 0.47396,0.3737 0.38281,0.21875 0.38281,0.72005 0,0.63802 -0.88411,0.97526 -0.88412,0.33724 -2.52474,0.33724 -1.49479,0 -2.44271,-0.3099 -0.41016,-0.13672 -0.64713,-0.38281 -0.22787,-0.25521 -0.22787,-0.55599 0,-0.30078 0.14583,-0.46484 0.14584,-0.16407 0.63802,-0.41928 0.25521,-0.1276 0.35547,-0.32812 0.10938,-0.20052 0.16407,-0.67448 0.13671,-1.06641 0.13671,-2.78906 0,-0.31901 -0.009,-0.75651 -0.0365,-2.1875 -0.0365,-2.4974 0.009,-0.78385 -0.13672,-1.02995 -0.13672,-0.2552 -0.73828,-0.55599 -0.40104,-0.1914 -0.40104,-0.57421 0,-0.92058 1.78646,-1.27605 1.03906,-0.20963 2.13281,-0.20963 z"/></g></g><path style="fill:#d4af37;fill-opacity:1;stroke-width:1.922966" id="rect1115" d="M 19.206995,-432.38678 H 220.7695 c 2.33718,0 4.21875,1.88156 4.21875,4.21875 v 36.5625 c 0,2.33719 -1.88157,4.21875 -4.21875,4.21875 H 19.206995 c -2.337188,0 -4.21875,-1.88156 -4.21875,-4.21875 v -36.5625 c 0,-2.33719 1.881562,-4.21875 4.21875,-4.21875 z" transform="scale(1,-1)"/><g style="font-style:normal;font-weight:400;font-size:39.76836014px;line-height:1.25;font-family:sans-serif;letter-spacing:0;word-spacing:0;fill:#000;fill-opacity:1;stroke:none;stroke-width:.99420899" id="text1119" aria-label="P1" transform="scale(0.99420903,1.0058247)"><path style="font-style:normal;font-variant:normal;font-weight:700;font-stretch:normal;font-size:10.60489655px;font-family:Eurostile;-inkscape-font-specification:'Eurostile, Bold';font-variant-ligatures:normal;font-variant-caps:normal;font-variant-numeric:normal;font-feature-settings:normal;text-align:start;writing-mode:lr-tb;text-anchor:start;fill:#000;fill-opacity:1;stroke-width:.99420899" id="path2193" d="m 27.403512,396.01755 v -7.06821 h 2.847995 0.352115 q 1.434354,0 1.931458,0.50229 0.502283,0.4971 0.502283,1.92628 0,1.41881 -0.476392,1.88485 -0.476392,0.46604 -1.92628,0.46604 l -0.31069,0.005 h -1.579343 v 2.28358 z m 1.341146,-3.41242 h 1.527561 q 0.911359,0 1.154733,-0.20712 0.248552,-0.21231 0.248552,-0.99421 0,-0.89583 -0.207127,-1.10813 -0.201949,-0.21749 -1.061525,-0.21749 h -1.662194 z"/><path style="font-style:normal;font-variant:normal;font-weight:700;font-stretch:normal;font-size:10.60489655px;font-family:Eurostile;-inkscape-font-specification:'Eurostile, Bold';font-variant-ligatures:normal;font-variant-caps:normal;font-variant-numeric:normal;font-feature-settings:normal;text-align:start;writing-mode:lr-tb;text-anchor:start;fill:#000;fill-opacity:1;stroke-width:.99420899" id="path2195" d="m 37.951448,388.94934 v 7.06821 h -1.341146 v -5.89794 l -1.838251,1.82272 -0.797439,-0.86476 2.283574,-2.12823 z"/></g><g style="font-style:normal;font-weight:400;font-size:40px;line-height:1.25;font-family:sans-serif;letter-spacing:0;word-spacing:0;fill:#000;fill-opacity:1;stroke:none" id="text1110" aria-label="P2"><path style="font-style:normal;font-variant:normal;font-weight:700;font-stretch:normal;font-size:10.66666698px;font-family:Eurostile;-inkscape-font-specification:'Eurostile, Bold';font-variant-ligatures:normal;font-variant-caps:normal;font-variant-numeric:normal;font-feature-settings:normal;text-align:start;writing-mode:lr-tb;text-anchor:start;fill:#000;fill-opacity:1" id="path2198" d="m 61.548138,398.32425 v -7.10938 h 2.864583 0.354167 q 1.442708,0 1.942708,0.50521 0.505209,0.5 0.505209,1.9375 0,1.42709 -0.479167,1.89584 -0.479167,0.46875 -1.9375,0.46875 l -0.3125,0.005 h -1.588542 v 2.29688 z m 1.348958,-3.43229 h 1.536458 q 0.916667,0 1.161459,-0.20834 0.25,-0.21354 0.25,-1 0,-0.90104 -0.208334,-1.11458 -0.203125,-0.21875 -1.067708,-0.21875 h -1.671875 z"/><path style="font-style:normal;font-variant:normal;font-weight:700;font-stretch:normal;font-size:10.66666698px;font-family:Eurostile;-inkscape-font-specification:'Eurostile, Bold';font-variant-ligatures:normal;font-variant-caps:normal;font-variant-numeric:normal;font-feature-settings:normal;text-align:start;writing-mode:lr-tb;text-anchor:start;fill:#000;fill-opacity:1" id="path2200" d="m 73.428346,397.25654 v 1.06771 h -5.375 v -1.44792 q 0,-1.125 0.401042,-1.49479 0.40625,-0.36979 1.921875,-0.64062 1.255208,-0.22396 1.484375,-0.40625 0.234375,-0.1875 0.234375,-0.95834 0,-0.73958 -0.234375,-0.9375 -0.229167,-0.19791 -1.098958,-0.19791 -0.895834,0 -1.130209,0.20312 -0.234375,0.19792 -0.234375,0.97396 v 0.30208 H 68.07418 v -0.29687 q 0,-1.33854 0.552083,-1.80209 0.552083,-0.46354 2.140625,-0.46354 1.552083,0 2.104167,0.46875 0.557291,0.46875 0.557291,1.78125 0,1.23959 -0.421875,1.66146 -0.421875,0.41667 -1.942708,0.69792 -1.255208,0.22916 -1.458333,0.39062 -0.203125,0.15625 -0.203125,0.90625 v 0.19271 z"/></g><g style="font-style:normal;font-weight:400;font-size:40px;line-height:1.25;font-family:sans-serif;letter-spacing:0;word-spacing:0;fill:#000;fill-opacity:1;stroke:none" id="text1116" aria-label="P5"><path style="font-style:normal;font-variant:normal;font-weight:700;font-stretch:normal;font-size:10.66666698px;font-family:Eurostile;-inkscape-font-specification:'Eurostile, Bold';font-variant-ligatures:normal;font-variant-caps:normal;font-variant-numeric:normal;font-feature-settings:normal;text-align:start;writing-mode:lr-tb;text-anchor:start;fill:#000;fill-opacity:1" id="path2203" d="m 166.49867,398.32425 v -7.10938 h 2.86459 0.35416 q 1.44271,0 1.94271,0.50521 0.50521,0.5 0.50521,1.9375 0,1.42709 -0.47917,1.89584 -0.47916,0.46875 -1.9375,0.46875 l -0.3125,0.005 h -1.58854 v 2.29688 z m 1.34896,-3.43229 h 1.53646 q 0.91667,0 1.16146,-0.20834 0.25,-0.21354 0.25,-1 0,-0.90104 -0.20834,-1.11458 -0.20312,-0.21875 -1.0677,-0.21875 h -1.67188 z"/><path style="font-style:normal;font-variant:normal;font-weight:700;font-stretch:normal;font-size:10.66666698px;font-family:Eurostile;-inkscape-font-specification:'Eurostile, Bold';font-variant-ligatures:normal;font-variant-caps:normal;font-variant-numeric:normal;font-feature-settings:normal;text-align:start;writing-mode:lr-tb;text-anchor:start;fill:#000;fill-opacity:1" id="path2205" d="m 178.17055,391.21487 v 1.06771 h -3.73438 l -0.0156,1.71354 h 0.026 q 0.39583,-0.55208 1.625,-0.55208 1.40104,0 1.90104,0.51563 0.50521,0.51562 0.50521,1.9427 0,1.46355 -0.5625,1.97396 -0.5625,0.50521 -2.17708,0.50521 -1.59375,0 -2.14584,-0.43229 -0.55208,-0.43229 -0.55208,-1.67708 h 1.31771 q 0.0365,0.6875 0.26041,0.85937 0.22917,0.16667 1.11459,0.16667 0.98437,0 1.19791,-0.22396 0.21355,-0.22917 0.21355,-1.27604 0,-0.81771 -0.23959,-1.04167 -0.23958,-0.22917 -1.10937,-0.22917 -1.26563,0 -1.39063,0.4948 h -1.21875 v -3.8073 z"/></g><g style="font-style:normal;font-weight:400;font-size:40px;line-height:1.25;font-family:sans-serif;letter-spacing:0;word-spacing:0;fill:#000;fill-opacity:1;stroke:none" id="text18932" aria-label="P4"><path style="font-style:normal;font-variant:normal;font-weight:700;font-stretch:normal;font-size:10.66666698px;font-family:Eurostile;-inkscape-font-specification:'Eurostile, Bold';font-variant-ligatures:normal;font-variant-caps:normal;font-variant-numeric:normal;font-feature-settings:normal;text-align:start;writing-mode:lr-tb;text-anchor:start;fill:#000;fill-opacity:1" id="path2208" d="m 131.3997,398.32425 v -7.10938 h 2.86459 0.35416 q 1.44271,0 1.94271,0.50521 0.50521,0.5 0.50521,1.9375 0,1.42709 -0.47917,1.89584 -0.47916,0.46875 -1.9375,0.46875 l -0.3125,0.005 h -1.58854 v 2.29688 z m 1.34896,-3.43229 h 1.53646 q 0.91667,0 1.16146,-0.20834 0.25,-0.21354 0.25,-1 0,-0.90104 -0.20833,-1.11458 -0.20313,-0.21875 -1.06771,-0.21875 h -1.67188 z"/><path style="font-style:normal;font-variant:normal;font-weight:700;font-stretch:normal;font-size:10.66666698px;font-family:Eurostile;-inkscape-font-specification:'Eurostile, Bold';font-variant-ligatures:normal;font-variant-caps:normal;font-variant-numeric:normal;font-feature-settings:normal;text-align:start;writing-mode:lr-tb;text-anchor:start;fill:#000;fill-opacity:1" id="path2210" d="m 142.75908,391.21487 v 4.54167 h 0.81771 v 1.04167 h -0.81771 v 1.52604 h -1.34896 v -1.52604 h -3.83854 v -1.51563 l 3.10417,-4.06771 z m -1.34896,4.54167 v -3.52083 h -0.0417 l -2.6927,3.52083 z"/></g><g style="font-style:normal;font-weight:400;font-size:40px;line-height:1.25;font-family:sans-serif;letter-spacing:0;word-spacing:0;fill:#000;fill-opacity:1;stroke:none" id="text1135" aria-label="P3"><path style="font-style:normal;font-variant:normal;font-weight:700;font-stretch:normal;font-size:10.66666698px;font-family:Eurostile;-inkscape-font-specification:'Eurostile, Bold';font-variant-ligatures:normal;font-variant-caps:normal;font-variant-numeric:normal;font-feature-settings:normal;text-align:start;writing-mode:lr-tb;text-anchor:start;fill:#000;fill-opacity:1" id="path2214" d="m 96.514282,398.32425 v -7.10938 h 2.864584 0.354166 q 1.442708,0 1.942708,0.50521 0.50521,0.5 0.50521,1.9375 0,1.42709 -0.47917,1.89584 -0.47916,0.46875 -1.937498,0.46875 l -0.3125,0.005 h -1.588541 v 2.29688 z m 1.348959,-3.43229 h 1.536458 q 0.916671,0 1.161461,-0.20834 0.25,-0.21354 0.25,-1 0,-0.90104 -0.20834,-1.11458 -0.20312,-0.21875 -1.067704,-0.21875 h -1.671875 z"/><path style="font-style:normal;font-variant:normal;font-weight:700;font-stretch:normal;font-size:10.66666698px;font-family:Eurostile;-inkscape-font-specification:'Eurostile, Bold';font-variant-ligatures:normal;font-variant-caps:normal;font-variant-numeric:normal;font-feature-settings:normal;text-align:start;writing-mode:lr-tb;text-anchor:start;fill:#000;fill-opacity:1" id="path2216" d="M 105.16532,395.21487 V 394.168 l 0.22917,0.005 q 1.13542,0 1.38021,-0.13542 0.25,-0.13542 0.25,-0.76562 0,-0.70313 -0.22396,-0.86459 -0.21875,-0.16666 -1.16667,-0.16666 -0.85937,0 -1.08333,0.18229 -0.22396,0.17708 -0.22396,0.875 v 0.20833 h -1.30208 v -0.26562 q 0,-1.2448 0.52604,-1.66146 0.52604,-0.42188 2.07813,-0.42188 1.5625,0 2.14583,0.39584 0.58333,0.39583 0.58333,1.46354 0,1.47396 -1.18229,1.65625 v 0.0365 q 1.28646,0.14062 1.28646,1.55208 0,1.25521 -0.56771,1.6875 -0.56771,0.43229 -2.21354,0.43229 -1.61458,0 -2.19792,-0.43229 -0.57812,-0.43229 -0.57812,-1.63542 l 0.005,-0.39583 h 1.3177 q 0.0156,0.23437 0.0156,0.28125 0,0.73437 0.24479,0.91667 0.25,0.18229 1.24479,0.18229 0.91146,0 1.15104,-0.19792 0.2448,-0.19792 0.2448,-0.94792 0,-0.57291 -0.22396,-0.7552 -0.21875,-0.1823 -0.91667,-0.1823 h -0.58854 z"/></g><g style="font-style:normal;font-weight:400;font-size:40px;line-height:1.25;font-family:sans-serif;letter-spacing:0;word-spacing:0;fill:#000;fill-opacity:1;stroke:none" id="text2886" aria-label="P6"><path style="font-style:normal;font-variant:normal;font-weight:700;font-stretch:normal;font-size:10.66666698px;font-family:Eurostile;-inkscape-font-specification:'Eurostile, Bold';font-variant-ligatures:normal;font-variant-caps:normal;font-variant-numeric:normal;font-feature-settings:normal;text-align:start;writing-mode:lr-tb;text-anchor:start;fill:#000;fill-opacity:1" id="path2219" d="m 201.50388,398.32425 v -7.10938 h 2.86458 0.35417 q 1.4427,0 1.9427,0.50521 0.50521,0.5 0.50521,1.9375 0,1.42709 -0.47916,1.89584 -0.47917,0.46875 -1.9375,0.46875 l -0.3125,0.005 h -1.58855 v 2.29688 z m 1.34895,-3.43229 h 1.53646 q 0.91667,0 1.16146,-0.20834 0.25,-0.21354 0.25,-1 0,-0.90104 -0.20833,-1.11458 -0.20313,-0.21875 -1.06771,-0.21875 h -1.67188 z"/><path style="font-style:normal;font-variant:normal;font-weight:700;font-stretch:normal;font-size:10.66666698px;font-family:Eurostile;-inkscape-font-specification:'Eurostile, Bold';font-variant-ligatures:normal;font-variant-caps:normal;font-variant-numeric:normal;font-feature-settings:normal;text-align:start;writing-mode:lr-tb;text-anchor:start;fill:#000;fill-opacity:1" id="path2221" d="m 213.41013,393.20967 h -1.33855 l 0.005,-0.16146 q 0,-0.5 -0.22396,-0.65104 -0.22395,-0.15625 -0.94791,-0.15625 -1.05209,0 -1.3125,0.20312 -0.26042,0.19792 -0.26042,1.00521 v 1.22396 h 0.026 q 0.34896,-0.6875 1.74479,-0.6875 1.3698,0 1.8698,0.4375 0.5,0.43229 0.5,1.625 0,1.38021 -0.53646,1.85937 -0.53646,0.47917 -2.08334,0.47917 -1.90625,0 -2.39583,-0.5625 -0.48958,-0.56771 -0.48958,-2.76042 0,-2.70833 0.4375,-3.30729 0.44271,-0.59896 2.44271,-0.59896 1.45833,0 2.01041,0.40104 0.55209,0.40105 0.55209,1.46355 z m -2.6198,1.85937 q -0.95312,0 -1.22395,0.17188 -0.26563,0.16666 -0.26563,0.76562 0,0.86979 0.23958,1.08333 0.23959,0.21355 1.20834,0.21355 0.92708,0 1.15625,-0.1875 0.23437,-0.19271 0.23437,-0.95834 0,-0.72396 -0.22916,-0.90625 -0.22396,-0.18229 -1.1198,-0.18229 z"/></g><path style="display:inline;fill:#000;fill-opacity:1;stroke-width:.78504759" id="rect10536" d="m 194.207,-371.88672 h 26.5625 c 2.33719,0 4.21875,1.88156 4.21875,4.21875 v 36.5625 c 0,2.33719 -1.88156,4.21875 -4.21875,4.21875 H 194.207 c -2.33719,0 -4.21875,-1.88156 -4.21875,-4.21875 v -36.5625 c 0,-2.33719 1.88156,-4.21875 4.21875,-4.21875 z" transform="scale(1,-1)"/><path style="display:inline;fill:#000;fill-opacity:1;stroke-width:.78504759;filter:url(#filter3933-6)" id="rect10538" d="m 154.707,-432.38678 h 26.5625 c 2.33719,0 4.21875,1.88156 4.21875,4.21875 v 36.5625 c 0,2.33719 -1.88156,4.21875 -4.21875,4.21875 H 154.707 c -2.33719,0 -4.21875,-1.88156 -4.21875,-4.21875 v -36.5625 c 0,-2.33719 1.88156,-4.21875 4.21875,-4.21875 z" transform="matrix(0.97358875,0,0,-0.97911468,8.9432919,-51.939454)"/><path style="display:inline;fill:#000;fill-opacity:1;stroke-width:.78504759" id="rect10540" d="m 54.206993,-371.88672 h 26.562501 c 2.337187,0 4.218749,1.88156 4.218749,4.21875 v 36.5625 c 0,2.33719 -1.881562,4.21875 -4.218749,4.21875 H 54.206993 c -2.337188,0 -4.21875,-1.88156 -4.21875,-4.21875 v -36.5625 c 0,-2.33719 1.881562,-4.21875 4.21875,-4.21875 z" transform="scale(1,-1)"/><path style="display:inline;fill:#000;fill-opacity:1;stroke-width:.78504759" id="rect11947" d="m 89.206993,-371.88672 h 26.562497 c 2.33719,0 4.21875,1.88156 4.21875,4.21875 v 36.5625 c 0,2.33719 -1.88156,4.21875 -4.21875,4.21875 H 89.206993 c -2.337188,0 -4.21875,-1.88156 -4.21875,-4.21875 v -36.5625 c 0,-2.33719 1.881562,-4.21875 4.21875,-4.21875 z" transform="scale(1,-1)"/><g style="font-style:normal;font-weight:400;font-size:40px;line-height:1.25;font-family:sans-serif;letter-spacing:0;word-spacing:0;display:inline;fill:#d4af37;fill-opacity:1;stroke:none" id="text10544" aria-label="LEN"><path style="font-style:normal;font-variant:normal;font-weight:700;font-stretch:normal;font-size:10.66666698px;font-family:Eurostile;-inkscape-font-specification:'Eurostile, Bold';font-variant-ligatures:normal;font-variant-caps:normal;font-variant-numeric:normal;font-feature-settings:normal;text-align:start;writing-mode:lr-tb;text-anchor:start;fill:#d4af37;fill-opacity:1" id="path2231" d="m 199.96482,330.71484 v 5.90105 h 3.33333 v 1.20833 h -4.68229 v -7.10938 z"/><path style="font-style:normal;font-variant:normal;font-weight:700;font-stretch:normal;font-size:10.66666698px;font-family:Eurostile;-inkscape-font-specification:'Eurostile, Bold';font-variant-ligatures:normal;font-variant-caps:normal;font-variant-numeric:normal;font-feature-settings:normal;text-align:start;writing-mode:lr-tb;text-anchor:start;fill:#d4af37;fill-opacity:1" id="path2233" d="m 205.19919,331.85026 v 1.83333 h 3.33334 v 0.9948 h -3.33334 v 2.01041 h 3.54688 v 1.13542 h -4.89584 v -7.10938 h 4.86459 v 1.13542 z"/><path style="font-style:normal;font-variant:normal;font-weight:700;font-stretch:normal;font-size:10.66666698px;font-family:Eurostile;-inkscape-font-specification:'Eurostile, Bold';font-variant-ligatures:normal;font-variant-caps:normal;font-variant-numeric:normal;font-feature-settings:normal;text-align:start;writing-mode:lr-tb;text-anchor:start;fill:#d4af37;fill-opacity:1" id="path2235" d="m 216.36065,330.71484 v 7.10938 h -2.28646 l -2.03125,-3.90104 q -0.15104,-0.29167 -0.47395,-1.02084 l -0.22917,-0.51041 -0.22396,-0.51042 h -0.0521 l 0.0208,0.46875 0.0156,0.46354 0.0104,0.93229 v 4.07813 h -1.34896 v -7.10938 h 2.28646 l 1.84896,3.60417 q 0.24479,0.47917 0.56771,1.16146 l 0.27083,0.57812 0.27084,0.58334 h 0.0469 l -0.0156,-0.45834 -0.0156,-0.45833 -0.0104,-0.91667 v -4.09375 z"/></g><path style="display:inline;fill:#000;fill-opacity:1;stroke-width:.78504759" id="rect10546" d="m 19.206995,-371.88672 h 26.5625 c 2.337188,0 4.21875,1.88156 4.21875,4.21875 v 36.5625 c 0,2.33719 -1.881562,4.21875 -4.21875,4.21875 h -26.5625 c -2.337188,0 -4.21875,-1.88156 -4.21875,-4.21875 v -36.5625 c 0,-2.33719 1.881562,-4.21875 4.21875,-4.21875 z" transform="scale(1,-1)"/><g style="font-style:normal;font-weight:400;font-size:40px;line-height:1.25;font-family:sans-serif;letter-spacing:0;word-spacing:0;display:inline;fill:#d4af37;fill-opacity:1;stroke:none" id="text10554" aria-label="ROOT"><path style="font-style:normal;font-variant:normal;font-weight:700;font-stretch:normal;font-size:10.66666698px;font-family:Eurostile;-inkscape-font-specification:'Eurostile, Bold';font-variant-ligatures:normal;font-variant-caps:normal;font-variant-numeric:normal;font-feature-settings:normal;text-align:start;writing-mode:lr-tb;text-anchor:start;fill:#d4af37;fill-opacity:1" id="path2239" d="m 19.654911,337.82422 v -7.10938 h 3.505208 q 1.307292,0 1.802084,0.45313 0.494792,0.45312 0.494792,1.64062 0,1.07813 -0.25,1.47396 -0.244792,0.39584 -1.010417,0.54688 v 0.0469 q 1.182292,0.0729 1.182292,1.38021 v 1.56771 h -1.348959 v -1.29688 q 0,-1.09895 -1.083333,-1.09895 h -1.942709 v 2.39583 z m 1.348958,-3.53125 h 1.9375 q 0.692709,0 0.916667,-0.24479 0.229167,-0.25 0.229167,-0.99479 0,-0.76042 -0.197917,-0.97917 -0.192708,-0.22396 -0.854167,-0.22396 h -2.03125 z"/><path style="font-style:normal;font-variant:normal;font-weight:700;font-stretch:normal;font-size:10.66666698px;font-family:Eurostile;-inkscape-font-specification:'Eurostile, Bold';font-variant-ligatures:normal;font-variant-caps:normal;font-variant-numeric:normal;font-feature-settings:normal;text-align:start;writing-mode:lr-tb;text-anchor:start;fill:#d4af37;fill-opacity:1" id="path2241" d="m 29.483036,330.65234 q 1.9375,0 2.494792,0.64584 0.557292,0.64062 0.557292,2.875 0,2.44271 -0.5625,3.07812 -0.557292,0.63542 -2.708334,0.63542 -1.9375,0 -2.505208,-0.625 -0.567709,-0.63021 -0.567709,-2.76563 0,-2.54166 0.557292,-3.1927 0.557292,-0.65105 2.734375,-0.65105 z m -0.104167,1.15625 q -1.359375,0 -1.588541,0.34896 -0.229167,0.34896 -0.229167,2.41667 0,1.53125 0.265625,1.84375 0.270833,0.3125 1.583333,0.3125 1.255209,0 1.505209,-0.34896 0.25,-0.35417 0.25,-2.13542 0,-1.78645 -0.239583,-2.10937 -0.234375,-0.32813 -1.546876,-0.32813 z"/><path style="font-style:normal;font-variant:normal;font-weight:700;font-stretch:normal;font-size:10.66666698px;font-family:Eurostile;-inkscape-font-specification:'Eurostile, Bold';font-variant-ligatures:normal;font-variant-caps:normal;font-variant-numeric:normal;font-feature-settings:normal;text-align:start;writing-mode:lr-tb;text-anchor:start;fill:#d4af37;fill-opacity:1" id="path2243" d="m 36.399703,330.65234 q 1.9375,0 2.494792,0.64584 0.557292,0.64062 0.557292,2.875 0,2.44271 -0.5625,3.07812 -0.557292,0.63542 -2.708334,0.63542 -1.9375,0 -2.505208,-0.625 -0.567709,-0.63021 -0.567709,-2.76563 0,-2.54166 0.557292,-3.1927 0.557292,-0.65105 2.734375,-0.65105 z m -0.104167,1.15625 q -1.359375,0 -1.588541,0.34896 -0.229167,0.34896 -0.229167,2.41667 0,1.53125 0.265625,1.84375 0.270833,0.3125 1.583333,0.3125 1.255209,0 1.505209,-0.34896 0.25,-0.35417 0.25,-2.13542 0,-1.78645 -0.239583,-2.10937 -0.234375,-0.32813 -1.546876,-0.32813 z"/><path style="font-style:normal;font-variant:normal;font-weight:700;font-stretch:normal;font-size:10.66666698px;font-family:Eurostile;-inkscape-font-specification:'Eurostile, Bold';font-variant-ligatures:normal;font-variant-caps:normal;font-variant-numeric:normal;font-feature-settings:normal;text-align:start;writing-mode:lr-tb;text-anchor:start;fill:#d4af37;fill-opacity:1" id="path2245" d="m 43.196578,331.92318 v 5.90104 H 41.84762 v -5.90104 h -2.052083 v -1.20834 h 5.526042 v 1.20834 z"/></g><g style="font-style:normal;font-weight:400;font-size:40px;line-height:1.25;font-family:sans-serif;letter-spacing:0;word-spacing:0;display:inline;fill:#d4af37;fill-opacity:1;stroke:none" id="text10558" aria-label="MODE"><path style="font-style:normal;font-variant:normal;font-weight:700;font-stretch:normal;font-size:10.66666698px;font-family:Eurostile;-inkscape-font-specification:'Eurostile, Bold';font-variant-ligatures:normal;font-variant-caps:normal;font-variant-numeric:normal;font-feature-settings:normal;text-align:start;writing-mode:lr-tb;text-anchor:start;fill:#d4af37;fill-opacity:1" id="path2248" d="m 96.60022,330.71484 v 7.10938 h -1.348958 v -3.875 q 0,-0.46354 0.02604,-1.05208 l 0.02604,-0.53125 0.02604,-0.52605 h -0.04167 l -0.161458,0.4948 -0.15625,0.49479 q -0.21875,0.66666 -0.338542,0.98437 l -1.5625,4.01042 h -1.229167 l -1.578125,-3.97917 q -0.130208,-0.32812 -0.34375,-0.98437 l -0.161458,-0.49479 -0.161459,-0.48959 h -0.04167 l 0.02604,0.51563 0.02604,0.52083 q 0.03125,0.60417 0.03125,1.03646 v 3.875 H 88.28772 v -7.10938 h 2.197916 l 1.270834,3.29167 q 0.130208,0.34375 0.34375,0.98438 l 0.15625,0.49479 0.161458,0.48958 h 0.04687 l 0.151042,-0.48958 0.15625,-0.48959 q 0.192708,-0.61979 0.333333,-0.97916 l 1.25,-3.30209 z"/><path style="font-style:normal;font-variant:normal;font-weight:700;font-stretch:normal;font-size:10.66666698px;font-family:Eurostile;-inkscape-font-specification:'Eurostile, Bold';font-variant-ligatures:normal;font-variant-caps:normal;font-variant-numeric:normal;font-feature-settings:normal;text-align:start;writing-mode:lr-tb;text-anchor:start;fill:#d4af37;fill-opacity:1" id="path2250" d="m 100.80334,330.65234 q 1.9375,0 2.4948,0.64584 0.55729,0.64062 0.55729,2.875 0,2.44271 -0.5625,3.07812 -0.55729,0.63542 -2.70834,0.63542 -1.937495,0 -2.505204,-0.625 -0.567708,-0.63021 -0.567708,-2.76563 0,-2.54166 0.557292,-3.1927 0.557291,-0.65105 2.73437,-0.65105 z m -0.10416,1.15625 q -1.359377,0 -1.588544,0.34896 -0.229166,0.34896 -0.229166,2.41667 0,1.53125 0.265625,1.84375 0.270833,0.3125 1.583335,0.3125 1.25521,0 1.50521,-0.34896 0.25,-0.35417 0.25,-2.13542 0,-1.78645 -0.23959,-2.10937 -0.23437,-0.32813 -1.54687,-0.32813 z"/><path style="font-style:normal;font-variant:normal;font-weight:700;font-stretch:normal;font-size:10.66666698px;font-family:Eurostile;-inkscape-font-specification:'Eurostile, Bold';font-variant-ligatures:normal;font-variant-caps:normal;font-variant-numeric:normal;font-feature-settings:normal;text-align:start;writing-mode:lr-tb;text-anchor:start;fill:#d4af37;fill-opacity:1" id="path2252" d="m 104.76689,337.82422 v -7.10938 h 3.49479 q 1.48958,0 2.08333,0.65105 0.59896,0.65104 0.59896,2.28125 0,2.66145 -0.47917,3.42187 -0.47916,0.75521 -2.16145,0.75521 z m 1.34896,-1.13542 h 1.92187 q 0.96875,0 1.25,-0.44271 0.28646,-0.44791 0.28646,-1.96875 0,-1.57291 -0.25521,-2 -0.25521,-0.42708 -1.19792,-0.42708 h -2.0052 z"/><path style="font-style:normal;font-variant:normal;font-weight:700;font-stretch:normal;font-size:10.66666698px;font-family:Eurostile;-inkscape-font-specification:'Eurostile, Bold';font-variant-ligatures:normal;font-variant-caps:normal;font-variant-numeric:normal;font-feature-settings:normal;text-align:start;writing-mode:lr-tb;text-anchor:start;fill:#d4af37;fill-opacity:1" id="path2254" d="m 113.14189,331.85026 v 1.83333 h 3.33333 v 0.9948 h -3.33333 v 2.01041 h 3.54687 v 1.13542 h -4.89583 v -7.10938 h 4.86458 v 1.13542 z"/></g><path style="display:inline;fill:#000;fill-opacity:1;stroke-width:.78504759;filter:url(#filter3933-6)" id="rect1129" d="m 154.707,-432.38678 h 26.5625 c 2.33719,0 4.21875,1.88156 4.21875,4.21875 v 36.5625 c 0,2.33719 -1.88156,4.21875 -4.21875,4.21875 H 154.707 c -2.33719,0 -4.21875,-1.88156 -4.21875,-4.21875 v -36.5625 c 0,-2.33719 1.88156,-4.21875 4.21875,-4.21875 z" transform="matrix(0.97359181,0,0,-0.97888701,-26.05856,-51.840964)"/><g style="font-style:normal;font-weight:400;font-size:40px;line-height:1.25;font-family:sans-serif;letter-spacing:0;word-spacing:0;display:inline;fill:#d4af37;fill-opacity:1;stroke:none" id="text1150" aria-label="CLK"><path style="font-style:normal;font-variant:normal;font-weight:700;font-stretch:normal;font-size:10.66666698px;font-family:Eurostile;-inkscape-font-specification:'Eurostile, Bold';font-variant-ligatures:normal;font-variant-caps:normal;font-variant-numeric:normal;font-feature-settings:normal;text-align:start;writing-mode:lr-tb;text-anchor:start;fill:#d4af37;fill-opacity:1" id="path2258" d="m 167.86455,335.28776 h 1.35416 v 0.24479 q 0,1.48438 -0.54166,1.92188 -0.54167,0.43229 -2.39584,0.43229 -2.10416,0 -2.58854,-0.6875 -0.48437,-0.6875 -0.48437,-3.67708 0,-1.76042 0.65625,-2.3125 0.65625,-0.5573 2.74479,-0.5573 1.52083,0 2.03125,0.45834 0.51042,0.45312 0.51042,1.80729 l 0.005,0.16146 h -1.35416 v -0.18229 q 0,-0.69792 -0.26563,-0.89063 -0.26041,-0.19792 -1.19791,-0.19792 -1.25521,0 -1.51042,0.3073 -0.25,0.30729 -0.25,1.82291 0,2.04167 0.22396,2.41667 0.22916,0.375 1.46875,0.375 1.00521,0 1.30208,-0.20833 0.30208,-0.20834 0.30208,-0.91667 z"/><path style="font-style:normal;font-variant:normal;font-weight:700;font-stretch:normal;font-size:10.66666698px;font-family:Eurostile;-inkscape-font-specification:'Eurostile, Bold';font-variant-ligatures:normal;font-variant-caps:normal;font-variant-numeric:normal;font-feature-settings:normal;text-align:start;writing-mode:lr-tb;text-anchor:start;fill:#d4af37;fill-opacity:1" id="path2260" d="m 171.42705,330.71484 v 5.90105 h 3.33333 v 1.20833 h -4.68229 v -7.10938 z"/><path style="font-style:normal;font-variant:normal;font-weight:700;font-stretch:normal;font-size:10.66666698px;font-family:Eurostile;-inkscape-font-specification:'Eurostile, Bold';font-variant-ligatures:normal;font-variant-caps:normal;font-variant-numeric:normal;font-feature-settings:normal;text-align:start;writing-mode:lr-tb;text-anchor:start;fill:#d4af37;fill-opacity:1" id="path2262" d="m 176.80205,330.71484 v 2.89584 h 0.63541 l 2.36459,-2.89584 h 1.67708 l -2.86979,3.45313 3.17187,3.65625 h -1.72916 l -2.60417,-3.07813 h -0.64583 v 3.07813 h -1.34896 v -7.10938 z"/></g><path style="display:inline;opacity:1;fill:red;fill-opacity:1;stroke:none;stroke-width:.81170827;stroke-linejoin:round;stroke-miterlimit:4;stroke-dasharray:none;stroke-opacity:1" id="rect1152" d="m 107.0831,359.65869 h 31.91291 v 2.728 H 107.0831 Z"/><path style="display:inline;opacity:1;fill:red;fill-opacity:1;stroke:none;stroke-width:.81170827;stroke-linejoin:round;stroke-miterlimit:4;stroke-dasharray:none;stroke-opacity:1" id="rect2805" d="m 33.083099,359.65869 h 31.912909 v 2.728 H 33.083099 Z"/><path style="display:inline;fill:#000;fill-opacity:1;stroke-width:.78504759" id="rect4098" d="m 194.207,-315.88672 h 26.5625 c 2.33719,0 4.21875,1.88156 4.21875,4.21875 v 36.5625 c 0,2.33719 -1.88156,4.21875 -4.21875,4.21875 H 194.207 c -2.33719,0 -4.21875,-1.88156 -4.21875,-4.21875 v -36.5625 c 0,-2.33719 1.88156,-4.21875 4.21875,-4.21875 z" transform="scale(1,-1)"/><path style="display:inline;fill:#000;fill-opacity:1;stroke-width:.78504759;filter:url(#filter3933)" id="rect4100" d="m 154.707,-432.38678 h 26.5625 c 2.33719,0 4.21875,1.88156 4.21875,4.21875 v 36.5625 c 0,2.33719 -1.88156,4.21875 -4.21875,4.21875 H 154.707 c -2.33719,0 -4.21875,-1.88156 -4.21875,-4.21875 v -36.5625 c 0,-2.33719 1.88156,-4.21875 4.21875,-4.21875 z" transform="matrix(0.97358875,0,0,-0.97911468,8.943291,-107.93945)"/><path style="display:inline;fill:#000;fill-opacity:1;stroke-width:.78504759" id="rect4102" d="m 54.206993,-315.88672 h 26.562501 c 2.337187,0 4.218749,1.88156 4.218749,4.21875 v 36.5625 c 0,2.33719 -1.881562,4.21875 -4.218749,4.21875 H 54.206993 c -2.337188,0 -4.21875,-1.88156 -4.21875,-4.21875 v -36.5625 c 0,-2.33719 1.881562,-4.21875 4.21875,-4.21875 z" transform="scale(1,-1)"/><path style="display:inline;fill:#000;fill-opacity:1;stroke-width:.78504759" id="rect4104" d="m 89.206993,-315.88672 h 26.562497 c 2.33719,0 4.21875,1.88156 4.21875,4.21875 v 36.5625 c 0,2.33719 -1.88156,4.21875 -4.21875,4.21875 H 89.206993 c -2.337188,0 -4.21875,-1.88156 -4.21875,-4.21875 v -36.5625 c 0,-2.33719 1.881562,-4.21875 4.21875,-4.21875 z" transform="scale(1,-1)"/><g style="font-style:normal;font-weight:400;font-size:40px;line-height:1.25;font-family:sans-serif;letter-spacing:0;word-spacing:0;display:inline;fill:#d4af37;fill-opacity:1;stroke:none" id="text4108" aria-label="Y"><path style="font-style:normal;font-variant:normal;font-weight:700;font-stretch:normal;font-size:10.66666698px;font-family:Eurostile;-inkscape-font-specification:'Eurostile, Bold';font-variant-ligatures:normal;font-variant-caps:normal;font-variant-numeric:normal;font-feature-settings:normal;text-align:start;writing-mode:lr-tb;text-anchor:start;fill:#d4af37;fill-opacity:1" id="path2271" d="m 175.7682,219.27739 -2.63541,4.39583 v 2.71354 h -1.34896 v -2.71354 l -2.5625,-4.39583 h 1.5625 l 1.07292,1.875 q 0.0885,0.15625 0.30208,0.57812 l 0.15104,0.28646 0.14583,0.28646 h 0.0365 l 0.15104,-0.28646 0.15105,-0.28646 q 0.1927,-0.38541 0.30729,-0.57812 l 1.08333,-1.875 z"/></g><path style="display:inline;fill:#000;fill-opacity:1;stroke-width:.78504759" id="rect4110" d="m 19.206995,-315.88672 h 26.5625 c 2.337188,0 4.21875,1.88156 4.21875,4.21875 v 36.5625 c 0,2.33719 -1.881562,4.21875 -4.21875,4.21875 h -26.5625 c -2.337188,0 -4.21875,-1.88156 -4.21875,-4.21875 v -36.5625 c 0,-2.33719 1.881562,-4.21875 4.21875,-4.21875 z" transform="scale(1,-1)"/><g style="font-style:normal;font-weight:400;font-size:40px;line-height:1.25;font-family:sans-serif;letter-spacing:0;word-spacing:0;display:inline;fill:#d4af37;fill-opacity:1;stroke:none" id="text4118" aria-label="X"><path style="font-style:normal;font-variant:normal;font-weight:700;font-stretch:normal;font-size:10.66666698px;font-family:Eurostile;-inkscape-font-specification:'Eurostile, Bold';font-variant-ligatures:normal;font-variant-caps:normal;font-variant-numeric:normal;font-feature-settings:normal;text-align:start;writing-mode:lr-tb;text-anchor:start;fill:#d4af37;fill-opacity:1" id="path2275" d="m 70.74085,219.27739 -2.135417,3.44271 2.276042,3.66666 h -1.583333 l -1.020834,-1.70833 q -0.234375,-0.39583 -0.447916,-0.80208 l -0.145834,-0.28125 -0.151041,-0.27604 h -0.02083 l -0.151041,0.28125 q -0.270834,0.51041 -0.614584,1.07812 l -1.026041,1.70833 h -1.625001 l 2.333334,-3.66666 -2.166667,-3.44271 h 1.609375 l 0.947917,1.58333 q 0.223958,0.375 0.421875,0.73959 l 0.130208,0.25 0.130209,0.25 h 0.02083 q 0.08854,-0.16667 0.130208,-0.25 l 0.130209,-0.2448 q 0.166666,-0.32291 0.416666,-0.73958 l 0.947917,-1.58854 z"/></g><path style="display:inline;fill:#000;fill-opacity:1;stroke-width:.78504759;filter:url(#filter3933)" id="rect4120" d="m 154.707,-432.38678 h 26.5625 c 2.33719,0 4.21875,1.88156 4.21875,4.21875 v 36.5625 c 0,2.33719 -1.88156,4.21875 -4.21875,4.21875 H 154.707 c -2.33719,0 -4.21875,-1.88156 -4.21875,-4.21875 v -36.5625 c 0,-2.33719 1.88156,-4.21875 4.21875,-4.21875 z" transform="matrix(0.97359181,0,0,-0.97888701,-26.058561,-107.84096)"/><g style="font-style:normal;font-weight:400;font-size:40px;line-height:1.25;font-family:sans-serif;letter-spacing:0;word-spacing:0;display:inline;fill:#d4af37;fill-opacity:1;stroke:none" id="text4124" aria-label="P. ST"><path style="font-style:normal;font-variant:normal;font-weight:700;font-stretch:normal;font-size:10.66666698px;font-family:Eurostile;-inkscape-font-specification:'Eurostile, Bold';font-variant-ligatures:normal;font-variant-caps:normal;font-variant-numeric:normal;font-feature-settings:normal;text-align:start;writing-mode:lr-tb;text-anchor:start;fill:#000;fill-opacity:1" id="path2279" d="m 126.08717,281.82422 v -7.10938 h 2.86459 0.35416 q 1.44271,0 1.94271,0.50521 0.50521,0.5 0.50521,1.9375 0,1.42709 -0.47917,1.89584 -0.47916,0.46875 -1.9375,0.46875 l -0.3125,0.005 h -1.58854 v 2.29688 z m 1.34896,-3.43229 h 1.53646 q 0.91667,0 1.16146,-0.20834 0.25,-0.21354 0.25,-1 0,-0.90104 -0.20833,-1.11458 -0.20313,-0.21875 -1.06771,-0.21875 h -1.67188 z"/><path style="font-style:normal;font-variant:normal;font-weight:700;font-stretch:normal;font-size:10.66666698px;font-family:Eurostile;-inkscape-font-specification:'Eurostile, Bold';font-variant-ligatures:normal;font-variant-caps:normal;font-variant-numeric:normal;font-feature-settings:normal;text-align:start;writing-mode:lr-tb;text-anchor:start;fill:#000;fill-opacity:1" id="path2281" d="m 133.71217,280.54297 v 1.28125 h -1.1927 v -1.28125 z"/><path style="font-style:normal;font-variant:normal;font-weight:700;font-stretch:normal;font-size:10.66666698px;font-family:Eurostile;-inkscape-font-specification:'Eurostile, Bold';font-variant-ligatures:normal;font-variant-caps:normal;font-variant-numeric:normal;font-feature-settings:normal;text-align:start;writing-mode:lr-tb;text-anchor:start;fill:#000;fill-opacity:1" id="path2283" d="m 142.82155,276.78776 h -1.31771 q -0.0104,-0.099 -0.0104,-0.14583 -0.0469,-0.59896 -0.26562,-0.75 -0.21875,-0.15625 -1.03125,-0.15625 -0.95833,0 -1.25521,0.17708 -0.29167,0.17708 -0.29167,0.74479 0,0.67188 0.23959,0.80729 0.23958,0.13542 1.58333,0.20834 1.58854,0.0885 2.05208,0.45312 0.46875,0.36459 0.46875,1.51563 0,1.41666 -0.54687,1.83333 -0.54688,0.41146 -2.41146,0.41146 -1.67708,0 -2.22917,-0.40625 -0.54687,-0.40625 -0.54687,-1.64583 l -0.005,-0.26042 h 1.3125 l 0.005,0.15104 q 0,0.74479 0.26042,0.91146 0.26041,0.16667 1.42187,0.16667 0.90625,0 1.15625,-0.19271 0.25,-0.19271 0.25,-0.89063 0,-0.51562 -0.19271,-0.68229 -0.1875,-0.17187 -0.81771,-0.20833 l -0.74479,-0.0469 q -1.6875,-0.099 -2.15625,-0.46875 -0.46875,-0.36979 -0.46875,-1.58854 0,-1.24479 0.5625,-1.65625 0.56771,-0.41667 2.26042,-0.41667 1.60417,0 2.16146,0.38021 0.55729,0.38021 0.55729,1.48438 z"/><path style="font-style:normal;font-variant:normal;font-weight:700;font-stretch:normal;font-size:10.66666698px;font-family:Eurostile;-inkscape-font-specification:'Eurostile, Bold';font-variant-ligatures:normal;font-variant-caps:normal;font-variant-numeric:normal;font-feature-settings:normal;text-align:start;writing-mode:lr-tb;text-anchor:start;fill:#000;fill-opacity:1" id="path2285" d="m 146.77467,275.92318 v 5.90104 h -1.34895 v -5.90104 h -2.05209 v -1.20834 h 5.52604 v 1.20834 z"/></g></g></svg>