<svg xmlns="http://www.w3.org/2000/svg" xmlns:svg="http://www.w3.org/2000/svg" id="svg2415" width="36" height="36" version="1.1" viewBox="0 0 9.525 9.525"><metadata id="metadata2412"/><g id="layer1" transform="translate(0,-287.47499)"><g id="g5131" transform="matrix(0.6997845,0.71403777,-0.7145964,0.69923745,210.26259,84.496328)"><path id="path7097" d="m 4.766108,296.87629 a 4.6387987,4.6387987 0 0 1 -4.64240509,-4.6347 4.6387987,4.6387987 0 0 1 4.63420229,-4.6429 4.6387987,4.6387987 0 0 1 4.6433905,4.63371 4.6387987,4.6387987 0 0 1 -4.6332148,4.64388" style="opacity:1;fill:#1a1a1a;fill-opacity:1;stroke:#333;stroke-width:.24740264;stroke-linejoin:round;stroke-miterlimit:4;stroke-dasharray:none;stroke-opacity:1"/><path id="path8206-5" d="m 2.350995,290.31778 c -0.148227,-0.12352 -1.156354,-1.11217 -1.156354,-1.13402 0,-0.0217 0.09507,-0.11085 0.118287,-0.11085 0.03635,0 1.23555,1.1709 1.251779,1.22222 0.0046,0.0147 -0.0026,0.0433 -0.01607,0.0639 -0.03888,0.0596 -0.0893,0.0491 -0.197646,-0.0412 z" style="opacity:1;fill:#ff4200;fill-opacity:1;fill-rule:nonzero;stroke:#ff4301;stroke-width:.14873548;stroke-miterlimit:4;stroke-dasharray:none;stroke-opacity:1;paint-order:markers stroke fill"/></g></g></svg>