<svg xmlns="http://www.w3.org/2000/svg" id="svg4275" width="15" height="380" version="1.1"><g id="background"><rect style="fill:#294f77;stroke:none" id="rect4255" width="15" height="380" x="0" y="0"/><path style="fill:#3a6ea5;fill-rule:nonzero;stroke:none" id="path4279" d="m 0 380 v -380 h 15 l -1 1 h -13 v 378 z"/><path style="fill:#182d44;fill-rule:nonzero;stroke:none" id="path4281" d="m 0 380 h 15 v -380 l -1 1 v 378 h -13 z"/></g><g id="logo" fill="#719fcf" font-family="DejaVu Sans" font-size="12"><path id="path4136" d="M 1,10.64609 A 2.2519786,1.9846094 0 0 0 3.25192,12.63074 2.2519786,1.9846094 0 0 0 3.78359,12.57194 5.1693144,8.1692063 0 0 0 8.83071,19 5.1693144,8.1692063 0 0 0 14,10.83085 5.1693144,8.1692063 0 0 0 11.11985,3.51722 4.2480502,3.0461447 0 0 0 12.97641,1 L 10.61869,1 A 1.9448905,1.3384576 0 0 1 8.67718,2.2923 1.9448905,1.3384576 0 0 1 6.73455,1 L 4.48039,1 a 4.2480502,3.0461447 0 0 0 1.97944,2.57413 5.1693144,8.1692063 0 0 0 -2.79842,7.25672 5.1693144,8.1692063 0 0 0 0.0119,0.37318 2.0472531,1.7538409 0 0 1 -1.00162,-0.69638 l -1.66609,0 A 2.2519786,1.9846094 0 0 0 1,10.64609 Z m 5.83461,3.27707 A 1.8425278,1.6615335 0 0 1 8.67718,12.2616 1.8425278,1.6615335 0 0 1 10.51975,13.92316 1.8425278,1.6615335 0 0 1 8.67718,15.58461 1.8425278,1.6615335 0 0 1 6.83461,13.92316 Z M 7.2441,10.13851 A 1.4330772,1.2923038 0 0 1 8.67718,8.8462 1.4330772,1.2923038 0 0 1 10.11026,10.13851 1.4330772,1.2923038 0 0 1 8.67718,11.43081 1.4330772,1.2923038 0 0 1 7.2441,10.13851 Z M 7.63302,7.12923 A 1.0236265,0.92307415 0 0 1 8.65675,6.20619 1.0236265,0.92307415 0 0 1 9.68034,7.12923 1.0236265,0.92307415 0 0 1 8.65675,8.0524 1.0236265,0.92307415 0 0 1 7.63302,7.12923 Z"/><g id="logotext"><text id="text4286" x="-377.65" y="11.117" transform="matrix(0,-1,1,0,0,0)">submarine</text></g></g></svg>