<svg xmlns="http://www.w3.org/2000/svg" id="svg4226" width="300" height="380" version="1.1"><g id="background"><rect style="fill:#294f77;stroke:none" id="rect4255" width="300" height="380" x="0" y="0"/><path style="fill:#3a6ea5;fill-rule:nonzero;stroke:none" id="path4230" d="m 0 380 v -380 h 300 l -1 1 h -298 v 378 z"/><path style="fill:#182d44;fill-rule:nonzero;stroke:none" id="path4232" d="m 0 380 h 300 v -380 l -1 1 v 378 h -298 z"/></g><g id="logo" fill="#719fcf" font-family="DejaVu Sans" font-size="12"><path id="path4136" d="m 140.30865,85 a 29.769141,33.779679 0 0 0 -29.76975,33.7788 29.769141,33.779679 0 0 0 0.882,7.97505 A 122.53809,77.539716 0 0 0 15,202.46065 122.53809,77.539716 0 0 0 137.53725,280 122.53809,77.539716 0 0 0 247.2417,236.79775 45.692171,63.720753 0 0 0 285,264.64615 l 0,-35.3658 A 20.076864,29.173357 0 0 1 265.6155,200.1577 20.076864,29.173357 0 0 1 285,171.01825 l 0,-33.8124 a 45.692171,63.720753 0 0 0 -38.61195,29.6916 122.53809,77.539716 0 0 0 -108.8508,-41.9763 122.53809,77.539716 0 0 0 -5.5977,0.1785 26.307613,30.708796 0 0 1 10.4457,-15.0243 l 0,-24.99135 A 29.769141,33.779679 0 0 0 140.30865,85 Z M 91.1526,172.51915 A 24.923002,27.637917 0 0 1 116.076,200.1577 24.923002,27.637917 0 0 1 91.1526,227.79625 24.923002,27.637917 0 0 1 66.23085,200.1577 24.923002,27.637917 0 0 1 91.1526,172.51915 Z m 56.76975,6.14235 a 19.384557,21.496158 0 0 1 19.38465,21.4962 19.384557,21.496158 0 0 1 -19.38465,21.4962 19.384557,21.496158 0 0 1 -19.3845,-21.4962 19.384557,21.496158 0 0 1 19.3845,-21.4962 z m 45.1392,5.8338 a 13.846112,15.354397 0 0 1 13.8456,15.35595 13.846112,15.354397 0 0 1 -13.8456,15.35385 13.846112,15.354397 0 0 1 -13.84755,-15.35385 13.846112,15.354397 0 0 1 13.84755,-15.35595 z"/><text id="text4236" x="150" y="377" text-anchor="middle">submarine</text></g></svg>