<svg xmlns="http://www.w3.org/2000/svg" xmlns:svg="http://www.w3.org/2000/svg" width="405" height="380"><g id="background"><rect style="fill:#294f77;stroke:none" id="rect4255" width="405" height="380" x="0" y="0"/><path style="fill:#3a6ea5;fill-rule:nonzero;stroke:none" id="path4230" d="m 0 380 v -380 h 405 l -1 1 h -403 v 378 z"/><path style="fill:#182d44;fill-rule:nonzero;stroke:none" id="path4232" d="m 0 380 h 405 v -380 l -1 1 v 378 h -403 z"/></g><g id="logo" fill="#719fcf" font-family="DejaVu Sans" font-size="12"><path id="path4136" d="m 394.35391,366 a 1.9846094,2.2519786 0 0 0 -1.98465,2.25192 1.9846094,2.2519786 0 0 0 0.0588,0.53167 A 8.1692063,5.1693144 0 0 0 386,373.83071 8.1692063,5.1693144 0 0 0 394.16915,379 8.1692063,5.1693144 0 0 0 401.48278,376.11985 3.0461447,4.2480502 0 0 0 404,377.97641 l 0,-2.35772 a 1.3384576,1.9448905 0 0 1 -1.2923,-1.94151 1.3384576,1.9448905 0 0 1 1.2923,-1.94263 l 0,-2.25416 a 3.0461447,4.2480502 0 0 0 -2.57413,1.97944 8.1692063,5.1693144 0 0 0 -7.25672,-2.79842 8.1692063,5.1693144 0 0 0 -0.37318,0.0119 1.7538409,2.0472531 0 0 1 0.69638,-1.00162 l 0,-1.66609 A 1.9846094,2.2519786 0 0 0 394.35391,366 Z m -3.27707,5.83461 a 1.6615335,1.8425278 0 0 1 1.66156,1.84257 1.6615335,1.8425278 0 0 1 -1.66156,1.84257 1.6615335,1.8425278 0 0 1 -1.66145,-1.84257 1.6615335,1.8425278 0 0 1 1.66145,-1.84257 z m 3.78465,0.40949 a 1.2923038,1.4330772 0 0 1 1.29231,1.43308 1.2923038,1.4330772 0 0 1 -1.29231,1.43308 1.2923038,1.4330772 0 0 1 -1.2923,-1.43308 1.2923038,1.4330772 0 0 1 1.2923,-1.43308 z m 3.00928,0.38892 a 0.92307415,1.0236265 0 0 1 0.92304,1.02373 0.92307415,1.0236265 0 0 1 -0.92304,1.02359 0.92307415,1.0236265 0 0 1 -0.92317,-1.02359 0.92307415,1.0236265 0 0 1 0.92317,-1.02373 z"/><text id="text4236" x="3" y="377">submarine</text><text id="text4241" x="202.5" y="12" text-anchor="middle">EO-102</text></g><g id="scope" fill="#000" stroke="none"><rect id="rect4244" width="400" height="236" x="2.5" y="14" rx="2" ry="2"/><rect id="rect4247" width="54" height="16" x="284" y="272" rx="2" ry="2"/><rect id="rect4247" width="62" height="16" x="341" y="254" rx="2" ry="2"/><rect id="rect4247" width="62" height="16" x="341" y="272" rx="2" ry="2"/></g><g id="labels" fill="#fff" stroke="none"><rect width="65" height="10" x="5" y="355" rx="5" ry="5"/><rect width="65" height="10" x="80" y="355" rx="5" ry="5"/><rect width="35" height="10" x="155" y="355" rx="5" ry="5"/><rect width="65" height="10" x="200" y="355" rx="5" ry="5"/><rect width="125" height="10" x="275" y="355" rx="5" ry="5"/></g><g id="screen" fill="#fff" stroke="none" font-family="DejaVu Sans" font-size="8"><text x="37.5" y="363" fill="#719fcf" text-anchor="middle">CHANNEL A</text><text x="112.5" y="363" fill="#ed2c24" text-anchor="middle">CHANNEL B</text><text x="172.5" y="363" fill="#294f77" text-anchor="middle">TIME</text><text x="232.5" y="363" fill="#294f77" text-anchor="middle">TRIGGER</text><text x="337.5" y="363" fill="#294f77" text-anchor="middle">INDICES</text><text x="16.5" y="265" text-anchor="middle">CV</text><text x="16.5" y="302" font-size="11" text-anchor="middle">♪</text><text x="50" y="298" text-anchor="middle">SCALE</text><text x="50" y="350" text-anchor="middle">OFFSET</text><text x="91.5" y="265" text-anchor="middle">CV</text><text x="91.5" y="302" font-size="11" text-anchor="middle">♪</text><text x="125" y="298" text-anchor="middle">SCALE</text><text x="125" y="350" text-anchor="middle">OFFSET</text><text x="172.5" y="298" text-anchor="middle">PRE</text><text x="172.5" y="350" text-anchor="middle">TIME</text><text x="211.5" y="265" text-anchor="middle">CONT.</text><text x="211.5" y="302" text-anchor="middle">ONCE</text><text x="245" y="265" text-anchor="middle">RUN</text><text x="245" y="350" text-anchor="middle">LEVEL</text><text x="290" y="350" text-anchor="middle">LEFT</text><text x="332" y="350" text-anchor="middle">RIGHT</text><text x="376" y="350" text-anchor="middle">HORZ</text></g></svg>