<svg xmlns="http://www.w3.org/2000/svg" id="svg4226" width="180" height="380" version="1.1"><g id="background"><rect style="fill:#294f77;stroke:none" id="rect4255" width="180" height="380" x="0" y="0"/><path style="fill:#3a6ea5;fill-rule:nonzero;stroke:none" id="path4230" d="m 0 380 v -380 h 180 l -1 1 h -178 v 378 z"/><path style="fill:#182d44;fill-rule:nonzero;stroke:none" id="path4232" d="m 0 380 h 180 v -380 l -1 1 v 378 h -178 z"/></g><g id="logo" fill="#719fcf" font-family="DejaVu Sans" font-size="12"><path id="path4136" d="m 169.35391,366 a 1.9846094,2.2519786 0 0 0 -1.98465,2.25192 1.9846094,2.2519786 0 0 0 0.0588,0.53167 A 8.1692063,5.1693144 0 0 0 161,373.83071 8.1692063,5.1693144 0 0 0 169.16915,379 8.1692063,5.1693144 0 0 0 176.48278,376.11985 3.0461447,4.2480502 0 0 0 179,377.97641 l 0,-2.35772 a 1.3384576,1.9448905 0 0 1 -1.2923,-1.94151 1.3384576,1.9448905 0 0 1 1.2923,-1.94263 l 0,-2.25416 a 3.0461447,4.2480502 0 0 0 -2.57413,1.97944 8.1692063,5.1693144 0 0 0 -7.25672,-2.79842 8.1692063,5.1693144 0 0 0 -0.37318,0.0119 1.7538409,2.0472531 0 0 1 0.69638,-1.00162 l 0,-1.66609 A 1.9846094,2.2519786 0 0 0 169.35391,366 Z m -3.27707,5.83461 a 1.6615335,1.8425278 0 0 1 1.66156,1.84257 1.6615335,1.8425278 0 0 1 -1.66156,1.84257 1.6615335,1.8425278 0 0 1 -1.66145,-1.84257 1.6615335,1.8425278 0 0 1 1.66145,-1.84257 z m 3.78465,0.40949 a 1.2923038,1.4330772 0 0 1 1.29231,1.43308 1.2923038,1.4330772 0 0 1 -1.29231,1.43308 1.2923038,1.4330772 0 0 1 -1.2923,-1.43308 1.2923038,1.4330772 0 0 1 1.2923,-1.43308 z m 3.00928,0.38892 a 0.92307415,1.0236265 0 0 1 0.92304,1.02373 0.92307415,1.0236265 0 0 1 -0.92304,1.02359 0.92307415,1.0236265 0 0 1 -0.92317,-1.02359 0.92307415,1.0236265 0 0 1 0.92317,-1.02373 z"/><text id="text4236" x="3" y="377">submarine</text><text x="90" y="12" text-anchor="middle">PO-102</text></g><g id="group1" fill="none" stroke="#fff" stroke-linecap="round" stroke-linejoin="round" stroke-width="1" font-family="DejaVu Sans" font-size="10"><line x1="155" x2="25" y1="112.5" y2="242.5"/><line x1="25" x2="155" y1="112.5" y2="242.5"/><circle cx="90" cy="177.5" r="65" fill="#294f77"/><line x1="22.5" x2="22.5" y1="272.5" y2="345.5"/><line x1="67.5" x2="67.5" y1="272.5" y2="345.5"/><line x1="112.5" x2="112.5" y1="272.5" y2="345.5"/><line x1="157.5" x2="157.5" y1="272.5" y2="345.5"/><path d="M 140 58 m -25 20 a 2.5 2.5 0 0 1 5 0 a 2.5 2.5 0 0 0 5 0"/><path d="M 140 58 m -31 -11 l 2.5 -2.5 l 5 5 l 2.5 -2.5"/><path d="M 140 58 m -5 -28.5 v 2.5 l 10 -5 v 2.5"/><path d="M 140 58 m 21 -11 v -2.5 h 5 v 5 h 5 v -2.5"/><path d="M 140 58 m 15 22.5 a 2.5 5 0 0 1 5 0 a 2.5 5 0 0 1 5 0"/><g fill="#fff" stroke="none"><text x="30" y="89" text-anchor="middle">TUNE</text><text x="85" y="89" text-anchor="middle">FINE</text><text x="90" y="177" text-anchor="middle">PHASED</text><text x="90" y="187" text-anchor="middle">OUTPUT</text><text x="90" y="135" text-anchor="middle">0</text><text x="90" y="229" text-anchor="middle">π</text><text x="38" y="182" text-anchor="start">3π/2</text><text x="142" y="182" text-anchor="end">π/2</text></g></g></svg>