<svg xmlns="http://www.w3.org/2000/svg" xmlns:svg="http://www.w3.org/2000/svg" width="300" height="380" version="1.1"><g id="background"><rect style="fill:#294f77;stroke:none" id="rect4255" width="300" height="380" x="0" y="0"/><path style="fill:#3a6ea5;fill-rule:nonzero;stroke:none" id="path4230" d="m 0 380 v -380 h 300 l -1 1 h -298 v 378 z"/><path style="fill:#182d44;fill-rule:nonzero;stroke:none" id="path4232" d="m 0 380 h 300 v -380 l -1 1 v 378 h -298 z"/></g><g id="logo" fill="#719fcf" font-family="DejaVu Sans" font-size="12"><path id="path4136" d="m 289.35391,366 a 1.9846094,2.2519786 0 0 0 -1.98465,2.25192 1.9846094,2.2519786 0 0 0 0.0588,0.53167 A 8.1692063,5.1693144 0 0 0 281,373.83071 8.1692063,5.1693144 0 0 0 289.16915,379 8.1692063,5.1693144 0 0 0 296.48278,376.11985 3.0461447,4.2480502 0 0 0 299,377.97641 l 0,-2.35772 a 1.3384576,1.9448905 0 0 1 -1.2923,-1.94151 1.3384576,1.9448905 0 0 1 1.2923,-1.94263 l 0,-2.25416 a 3.0461447,4.2480502 0 0 0 -2.57413,1.97944 8.1692063,5.1693144 0 0 0 -7.25672,-2.79842 8.1692063,5.1693144 0 0 0 -0.37318,0.0119 1.7538409,2.0472531 0 0 1 0.69638,-1.00162 l 0,-1.66609 A 1.9846094,2.2519786 0 0 0 289.35391,366 Z m -3.27707,5.83461 a 1.6615335,1.8425278 0 0 1 1.66156,1.84257 1.6615335,1.8425278 0 0 1 -1.66156,1.84257 1.6615335,1.8425278 0 0 1 -1.66145,-1.84257 1.6615335,1.8425278 0 0 1 1.66145,-1.84257 z m 3.78465,0.40949 a 1.2923038,1.4330772 0 0 1 1.29231,1.43308 1.2923038,1.4330772 0 0 1 -1.29231,1.43308 1.2923038,1.4330772 0 0 1 -1.2923,-1.43308 1.2923038,1.4330772 0 0 1 1.2923,-1.43308 z m 3.00928,0.38892 a 0.92307415,1.0236265 0 0 1 0.92304,1.02373 0.92307415,1.0236265 0 0 1 -0.92304,1.02359 0.92307415,1.0236265 0 0 1 -0.92317,-1.02359 0.92307415,1.0236265 0 0 1 0.92317,-1.02373 z"/><text id="text4236" x="3" y="377">submarine</text><text id="text4241" x="150" y="12" text-anchor="middle">SS-220</text><rect width="296" height="28" x="2" y="17" rx="2" ry="2"/><rect width="296" height="28" x="2" y="75" rx="2" ry="2"/><rect width="296" height="28" x="2" y="133" rx="2" ry="2"/><rect width="296" height="28" x="2" y="162" rx="2" ry="2"/><rect width="296" height="28" x="2" y="220" rx="2" ry="2"/><rect width="296" height="28" x="2" y="278" rx="2" ry="2"/><rect width="296" height="28" x="2" y="336" rx="2" ry="2"/></g><g id="screen" fill="none" stroke="#fff" font-family="DejaVu Sans" font-size="8"><rect width="29" height="352" x="150.5" y="14.5" rx="2" ry="2"/></g></svg>