<svg xmlns="http://www.w3.org/2000/svg" width="75" height="380"><g id="background"><rect style="fill:#294f77;stroke:none" id="rect4255" width="75" height="380" x="0" y="0"/><path style="fill:#3a6ea5;fill-rule:nonzero;stroke:none" id="path4356" d="m 0 380 v -380 h 75 l -1 1 h -73 v 378 z"/><path style="fill:#182d44;fill-rule:nonzero;stroke:none" id="path4358" d="m 0 380 h 75 v -380 l -1 1 v 378 h -73 z"/></g><g id="logo" fill="#719fcf" font-family="DejaVu Sans" font-size="12"><text id="text4239" x="37.5" y="12" text-anchor="middle">SS-221</text><text x="37.5" y="377" text-anchor="middle">submarine</text></g><g id="group1" fill="#fff" stroke="none" font-family="DejaVu Sans" font-size="8"><text id="text4242" x="37.5" y="34" text-anchor="middle">10V</text><text id="text4244" x="37.5" y="50" text-anchor="middle">9V</text><text id="text4246" x="37.5" y="66" text-anchor="middle">8V</text><text id="text4248" x="37.5" y="82" text-anchor="middle">7V</text><text id="text4250" x="37.5" y="98" text-anchor="middle">6V</text><text id="text4252" x="37.5" y="114" text-anchor="middle">5V</text><text id="text4254" x="37.5" y="130" text-anchor="middle">4V</text><text id="text4256" x="37.5" y="146" text-anchor="middle">3V</text><text id="text4258" x="37.5" y="162" text-anchor="middle">2V</text><text id="text4260" x="37.5" y="178" text-anchor="middle">1V</text><text id="text4262" x="37.5" y="194" text-anchor="middle">0V</text><text id="text4264" x="37.5" y="210" text-anchor="middle">-1V</text><text id="text4266" x="37.5" y="226" text-anchor="middle">-2V</text><text id="text4268" x="37.5" y="242" text-anchor="middle">-3V</text><text id="text4270" x="37.5" y="258" text-anchor="middle">-4V</text><text id="text4272" x="37.5" y="274" text-anchor="middle">-5V</text><text id="text4274" x="37.5" y="290" text-anchor="middle">-6V</text><text id="text4276" x="37.5" y="306" text-anchor="middle">-7V</text><text id="text4278" x="37.5" y="322" text-anchor="middle">-8V</text><text id="text4280" x="37.5" y="338" text-anchor="middle">-9V</text><text id="text4282" x="37.5" y="354" text-anchor="middle">-10</text></g></svg>