<svg xmlns="http://www.w3.org/2000/svg" id="svg4226" width="180" height="380" version="1.1"><g id="background"><rect style="fill:#294f77;stroke:none" id="rect4255" width="180" height="380" x="0" y="0"/><path style="fill:#3a6ea5;fill-rule:nonzero;stroke:none" id="path4230" d="m 0 380 v -380 h 180 l -1 1 h -178 v 378 z"/><path style="fill:#182d44;fill-rule:nonzero;stroke:none" id="path4232" d="m 0 380 h 180 v -380 l -1 1 v 378 h -178 z"/></g><g id="logo" fill="#719fcf" font-family="DejaVu Sans" font-size="12"><path id="path4136" d="m 169.35391,366 a 1.9846094,2.2519786 0 0 0 -1.98465,2.25192 1.9846094,2.2519786 0 0 0 0.0588,0.53167 A 8.1692063,5.1693144 0 0 0 161,373.83071 8.1692063,5.1693144 0 0 0 169.16915,379 8.1692063,5.1693144 0 0 0 176.48278,376.11985 3.0461447,4.2480502 0 0 0 179,377.97641 l 0,-2.35772 a 1.3384576,1.9448905 0 0 1 -1.2923,-1.94151 1.3384576,1.9448905 0 0 1 1.2923,-1.94263 l 0,-2.25416 a 3.0461447,4.2480502 0 0 0 -2.57413,1.97944 8.1692063,5.1693144 0 0 0 -7.25672,-2.79842 8.1692063,5.1693144 0 0 0 -0.37318,0.0119 1.7538409,2.0472531 0 0 1 0.69638,-1.00162 l 0,-1.66609 A 1.9846094,2.2519786 0 0 0 169.35391,366 Z m -3.27707,5.83461 a 1.6615335,1.8425278 0 0 1 1.66156,1.84257 1.6615335,1.8425278 0 0 1 -1.66156,1.84257 1.6615335,1.8425278 0 0 1 -1.66145,-1.84257 1.6615335,1.8425278 0 0 1 1.66145,-1.84257 z m 3.78465,0.40949 a 1.2923038,1.4330772 0 0 1 1.29231,1.43308 1.2923038,1.4330772 0 0 1 -1.29231,1.43308 1.2923038,1.4330772 0 0 1 -1.2923,-1.43308 1.2923038,1.4330772 0 0 1 1.2923,-1.43308 z m 3.00928,0.38892 a 0.92307415,1.0236265 0 0 1 0.92304,1.02373 0.92307415,1.0236265 0 0 1 -0.92304,1.02359 0.92307415,1.0236265 0 0 1 -0.92317,-1.02359 0.92307415,1.0236265 0 0 1 0.92317,-1.02373 z"/><text id="text4236" x="3" y="377">submarine</text><text x="90" y="12" text-anchor="middle">XF-101</text></g><g id="group1" fill="none" stroke="#fff" stroke-linecap="round" stroke-linejoin="round" stroke-width="1" font-family="DejaVu Sans" font-size="8"><path d="M 65 83.5 l 4 -4 a 30 30 0 1 1 42 0 l 4 4"/><rect width="48.5" height="24" x="3.5" y="18.5" rx="12" ry="12"/><rect width="48.5" height="24" x="3.5" y="74.5" rx="12" ry="12"/><rect width="48.5" height="24" x="128" y="18.5" rx="12" ry="12"/><rect width="49.5" height="25" x="127.5" y="74" fill="#fff" stroke="none" rx="12.5" ry="12.5"/><g fill="#fff" stroke="none"><text x="58" y="87" font-size="10">A</text><text x="116" y="87" font-size="10">B</text><text x="39" y="55" text-anchor="end">UNI</text><text x="39" y="67" text-anchor="end">BI</text><text x="25" y="36" font-size="16" text-anchor="end">A</text><text x="27" y="92" font-size="16" text-anchor="end">CV</text><text x="155" y="36" font-size="16">B</text><text x="155" y="92" fill="#294f77" font-size="18">↦</text><text x="146" y="52">LIN</text><text x="146" y="61">LOG</text><text x="146" y="70">AUTO</text></g></g></svg>