<svg xmlns="http://www.w3.org/2000/svg" xmlns:svg="http://www.w3.org/2000/svg" id="svg11543" width="28" height="28" version="1.1" viewBox="0 0 7.408 7.408"><metadata id="metadata11540"/><g id="layer1" transform="translate(-33.337496,-58.194645)"><g id="g6703" transform="matrix(0.22180737,0,0,-0.22180737,-187.44188,317.8558)" style="stroke-width:1.59046912"><path style="opacity:1;vector-effect:none;fill:#e7e7e7;fill-opacity:1;fill-rule:nonzero;stroke:#909290;stroke-width:1.19285178;stroke-linecap:butt;stroke-linejoin:miter;stroke-miterlimit:4;stroke-dasharray:none;stroke-dashoffset:0;stroke-opacity:1" id="path4505" d="m 1012.0498,1137.8572 c -8.871,0 -16.088,7.232 -16.088,16.119 0,8.871 7.217,16.088 16.088,16.088 8.888,0 16.119,-7.217 16.119,-16.088 0,-8.887 -7.231,-16.119 -16.119,-16.119"/><path style="opacity:1;vector-effect:none;fill:#e7e7e7;fill-opacity:1;fill-rule:nonzero;stroke:#909290;stroke-width:1.19285178;stroke-linecap:butt;stroke-linejoin:miter;stroke-miterlimit:4;stroke-dasharray:none;stroke-dashoffset:0;stroke-opacity:1" id="path6735" d="m 1012.1123,1140.4229 c -7.465,0 -13.538,6.073 -13.538,13.538 0,7.465 6.073,13.539 13.538,13.539 7.465,0 13.538,-6.074 13.538,-13.539 0,-7.465 -6.073,-13.538 -13.538,-13.538"/><path style="fill:red;fill-opacity:1;fill-rule:nonzero;stroke:#940a1d;stroke-width:1.59046912;stroke-opacity:1" id="path6743" d="m 1012.0654,1163.9658 c 5.525,0 10.005,-4.479 10.005,-10.005 0,-5.525 -4.48,-10.005 -10.005,-10.005 -5.526,0 -10.006,4.48 -10.006,10.005 0,5.526 4.48,10.005 10.006,10.005"/></g></g></svg>