<svg xmlns="http://www.w3.org/2000/svg" xmlns:svg="http://www.w3.org/2000/svg" id="svg56722" width="14" height="20.641" version="1.1" viewBox="0 0 3.704 5.461"><metadata id="metadata56719"/><g id="layer1" transform="translate(-35.423779,-63.339207)"><g id="g56714" transform="matrix(0.27523902,0,0,-0.27523902,-180.22814,385.03395)" style="stroke-width:1.2817142"><path style="fill:#000;fill-opacity:1;fill-rule:nonzero;stroke:none;stroke-width:1.2817142" id="path5785" d="m 783.5078,1167.3652 c 0,0.779 0.639,1.418 1.418,1.418 h 10.622 c 0.779,0 1.418,-0.639 1.418,-1.418 v -17.007 c 0,-0.779 -0.639,-1.417 -1.418,-1.417 h -10.622 c -0.779,0 -1.418,0.638 -1.418,1.417 z"/><g style="fill:#282828;fill-opacity:1;stroke-width:1.2817142" id="g5795"><g style="fill:#282828;fill-opacity:1;stroke-width:1.2817142" id="g5797"><path id="path5805" d="m 785.616,1167.502 c -0.468,0 -0.85,-0.382 -0.85,-0.85 v 0 -15.724 c 0,-0.468 0.382,-0.851 0.85,-0.851 v 0 h 9.241 c 0.466,0 0.849,0.383 0.849,0.851 v 0 15.724 c 0,0.468 -0.383,0.85 -0.849,0.85 v 0 z" style="fill:#282828;fill-opacity:1;stroke:none;stroke-width:1.2817142"/></g></g><path id="path5815" d="m 784.767,1158.581 h 10.94 v -8.504 h -10.94 z" style="fill:#444;fill-opacity:1;fill-rule:nonzero;stroke:none;stroke-width:1.2817142"/><path id="path5817" d="m 784.767,1154.797 h 10.94 v -0.936 h -10.94 z" style="fill:#999;fill-opacity:1;fill-rule:nonzero;stroke:none;stroke-width:1.2817142"/><path id="path5819" d="m 784.767,1151.013 h 10.94 v -0.936 h -10.94 z" style="fill:#999;fill-opacity:1;fill-rule:nonzero;stroke:none;stroke-width:1.2817142"/><path id="path5821" d="m 784.767,1152.904 h 10.94 v -0.936 h -10.94 z" style="fill:#999;fill-opacity:1;fill-rule:nonzero;stroke:none;stroke-width:1.2817142"/><path id="path5823" d="m 784.767,1156.689 h 10.94 v -0.936 h -10.94 z" style="fill:#999;fill-opacity:1;fill-rule:nonzero;stroke:none;stroke-width:1.2817142"/><path id="path5825" d="m 784.767,1158.581 h 10.94 v -0.936 h -10.94 z" style="fill:#999;fill-opacity:1;fill-rule:nonzero;stroke:none;stroke-width:1.2817142"/></g></g></svg>