<svg xmlns="http://www.w3.org/2000/svg" xmlns:svg="http://www.w3.org/2000/svg" id="svg15246" width="118.818" height="118.828" version="1.1" viewBox="0 0 31.437 31.44"><defs id="defs15240"><clipPath id="clip89"><rect id="rect4864" width="18" height="19" x="0" y="0"/></clipPath><clipPath id="clip90"><path id="path4861" d="m 0.898438,0.128906 h 16.25 v 17.882813 h -16.25 z m 0,0"/></clipPath><mask id="mask44"><g style="filter:url(#alpha)" id="g4858" transform="matrix(0.26458333,0,0,0.26458333,89.358789,128.57765)"><rect style="fill:#000;fill-opacity:.14999402;stroke:none" id="rect4856" width="3052.87" height="3351.5" x="0" y="0"/></g></mask><filter id="alpha" width="1" height="1" x="0" y="0" filterUnits="objectBoundingBox"><feColorMatrix id="feColorMatrix4149" in="SourceGraphic" type="matrix" values="0 0 0 0 1 0 0 0 0 1 0 0 0 0 1 0 0 0 1 0"/></filter><clipPath id="clipPath17821"><rect id="rect17819" width="18" height="19" x="0" y="0"/></clipPath><clipPath id="clipPath17825"><path id="path17823" d="m 0.898438,0.128906 h 16.25 v 17.882813 h -16.25 z m 0,0"/></clipPath><clipPath id="clip87"><rect id="rect4848" width="24" height="26" x="0" y="0"/></clipPath><clipPath id="clip88"><path id="path4845" d="m 0.683594,0.921875 h 22.679687 v 24.9375 H 0.683594 Z m 0,0"/></clipPath><mask id="mask43"><g style="filter:url(#alpha)" id="g4842" transform="matrix(0.26458333,0,0,0.26458333,89.358789,128.57765)"><rect style="fill:#000;fill-opacity:.14999402;stroke:none" id="rect4840" width="3052.87" height="3351.5" x="0" y="0"/></g></mask><filter id="filter17836" width="1" height="1" x="0" y="0" filterUnits="objectBoundingBox"><feColorMatrix id="feColorMatrix17834" in="SourceGraphic" type="matrix" values="0 0 0 0 1 0 0 0 0 1 0 0 0 0 1 0 0 0 1 0"/></filter><clipPath id="clipPath17840"><rect id="rect17838" width="24" height="26" x="0" y="0"/></clipPath><clipPath id="clipPath17844"><path id="path17842" d="m 0.683594,0.921875 h 22.679687 v 24.9375 H 0.683594 Z m 0,0"/></clipPath><clipPath id="clip95"><rect id="rect4912" width="18" height="18" x="0" y="0"/></clipPath><clipPath id="clip96"><path id="path4909" d="M 0.140625,0.140625 H 17.199219 V 17.199219 H 0.140625 Z m 0,0"/></clipPath><mask id="mask47"><g style="filter:url(#alpha-3)" id="g4906" transform="matrix(0.26458333,0,0,0.26458333,88.611154,119.19859)"><rect style="fill:#000;fill-opacity:.33000201;stroke:none" id="rect4904" width="3052.87" height="3351.5" x="0" y="0"/></g></mask><filter id="alpha-3" width="1" height="1" x="0" y="0" filterUnits="objectBoundingBox"><feColorMatrix id="feColorMatrix4149-6" in="SourceGraphic" type="matrix" values="0 0 0 0 1 0 0 0 0 1 0 0 0 0 1 0 0 0 1 0"/></filter><clipPath id="clipPath18541"><rect id="rect18539" width="18" height="18" x="0" y="0"/></clipPath><clipPath id="clipPath18545"><path id="path18543" d="M 0.140625,0.140625 H 17.199219 V 17.199219 H 0.140625 Z m 0,0"/></clipPath><clipPath id="clip93"><rect id="rect4896" width="22" height="24" x="0" y="0"/></clipPath><clipPath id="clip94"><path id="path4893" d="M 0.0390625,0.0390625 H 21.300781 V 23.421875 H 0.0390625 Z m 0,0"/></clipPath><mask id="mask46"><g style="filter:url(#alpha-3)" id="g4890" transform="matrix(0.26458333,0,0,0.26458333,88.611154,119.19859)"><rect style="fill:#000;fill-opacity:.14999402;stroke:none" id="rect4888" width="3052.87" height="3351.5" x="0" y="0"/></g></mask><filter id="filter18556" width="1" height="1" x="0" y="0" filterUnits="objectBoundingBox"><feColorMatrix id="feColorMatrix18554" in="SourceGraphic" type="matrix" values="0 0 0 0 1 0 0 0 0 1 0 0 0 0 1 0 0 0 1 0"/></filter><clipPath id="clipPath18560"><rect id="rect18558" width="22" height="24" x="0" y="0"/></clipPath><clipPath id="clipPath18564"><path id="path18562" d="M 0.0390625,0.0390625 H 21.300781 V 23.421875 H 0.0390625 Z m 0,0"/></clipPath><clipPath id="clip91"><rect id="rect4880" width="29" height="32" x="0" y="0"/></clipPath><clipPath id="clip92"><path id="path4877" d="M 0.507812,0.5 H 28.855469 V 31.679688 H 0.507812 Z m 0,0"/></clipPath><mask id="mask45"><g style="filter:url(#alpha-3)" id="g4874" transform="matrix(0.26458333,0,0,0.26458333,88.611154,119.19859)"><rect style="fill:#000;fill-opacity:.14999402;stroke:none" id="rect4872" width="3052.87" height="3351.5" x="0" y="0"/></g></mask><filter id="filter18575" width="1" height="1" x="0" y="0" filterUnits="objectBoundingBox"><feColorMatrix id="feColorMatrix18573" in="SourceGraphic" type="matrix" values="0 0 0 0 1 0 0 0 0 1 0 0 0 0 1 0 0 0 1 0"/></filter><clipPath id="clipPath18579"><rect id="rect18577" width="29" height="32" x="0" y="0"/></clipPath><clipPath id="clipPath18583"><path id="path18581" d="M 0.507812,0.5 H 28.855469 V 31.679688 H 0.507812 Z m 0,0"/></clipPath><clipPath id="clip202"><rect id="rect5795" width="18" height="18" x="0" y="0"/></clipPath><clipPath id="clip203"><path id="path5792" d="M 0.855469,0.140625 H 17.914062 V 17.199219 H 0.855469 Z m 0,0"/></clipPath><mask id="mask104"><g style="filter:url(#alpha-7)" id="g5789" transform="matrix(0.26458333,0,0,0.26458333,74.416306,97.613551)"><rect style="fill:#000;fill-opacity:.33000201;stroke:none" id="rect5787" width="3052.87" height="3351.5" x="0" y="0"/></g></mask><filter id="alpha-7" width="1" height="1" x="0" y="0" filterUnits="objectBoundingBox"><feColorMatrix id="feColorMatrix4149-5" in="SourceGraphic" type="matrix" values="0 0 0 0 1 0 0 0 0 1 0 0 0 0 1 0 0 0 1 0"/></filter><clipPath id="clipPath18765"><rect id="rect18763" width="18" height="18" x="0" y="0"/></clipPath><clipPath id="clipPath18769"><path id="path18767" d="M 0.855469,0.140625 H 17.914062 V 17.199219 H 0.855469 Z m 0,0"/></clipPath></defs><metadata id="metadata15243"/><g id="layer1" transform="translate(-39.100501,-84.072924)"><path id="path7553" d="m 70.537684,99.794962 c -0.0014,8.680258 -7.041771,15.719278 -15.720658,15.717898 -8.680259,-0.001 -15.717901,-7.04315 -15.716525,-15.723408 0.0028,-8.68026 7.041776,-15.717905 15.722039,-15.716526 8.680263,0.0014 15.717904,7.043156 15.715144,15.722036" style="fill:#000;fill-opacity:1;fill-rule:nonzero;stroke:none;stroke-width:.35277775"/><path id="path7555" d="m 66.81905,99.793582 c -0.0013,6.626988 -5.37297,11.999958 -12.001332,11.998578 -6.626987,0 -11.999955,-5.37572 -11.998579,-12.002708 0.0014,-6.62699 5.375726,-11.995824 12.001334,-11.995824 6.628366,0.0014 11.999958,5.374354 11.998577,11.999954" style="fill:#fff;fill-opacity:1;fill-rule:nonzero;stroke:none;stroke-width:.35277775"/><path id="path7557" d="m 68.684913,99.795652 c -0.0014,7.657748 -6.210814,13.864438 -13.868575,13.863058 -7.657758,-0.001 -13.864441,-6.21082 -13.863062,-13.868568 0.0014,-7.65638 6.209439,-13.863069 13.868576,-13.863069 7.656378,0.0014 13.864442,6.212199 13.863061,13.868579 z m 0,0" style="fill:none;stroke:#636363;stroke-width:.29999998;stroke-linecap:butt;stroke-linejoin:miter;stroke-miterlimit:10;stroke-dasharray:none;stroke-opacity:1"/><path id="path7559" d="m 55.820238,84.108754 c -0.330729,-0.02067 -0.661459,-0.03583 -0.997698,-0.03583 -0.334864,0 -0.666972,0.01517 -0.997702,0.03583 l -0.0014,8.203458 h 1.99402 z m 0,0" style="fill:#fff;fill-opacity:1;fill-rule:nonzero;stroke:none;stroke-width:.35277775"/></g></svg>