<svg xmlns="http://www.w3.org/2000/svg" xmlns:svg="http://www.w3.org/2000/svg" id="svg15246" width="57.792" height="57.797" version="1.1" viewBox="0 0 15.291 15.292"><defs id="defs15240"><clipPath id="clip89"><rect id="rect4864" width="18" height="19" x="0" y="0"/></clipPath><clipPath id="clip90"><path id="path4861" d="m 0.898438,0.128906 h 16.25 v 17.882813 h -16.25 z m 0,0"/></clipPath><mask id="mask44"><g style="filter:url(#alpha)" id="g4858" transform="matrix(0.26458333,0,0,0.26458333,89.358789,128.57765)"><rect style="fill:#000;fill-opacity:.14999402;stroke:none" id="rect4856" width="3052.87" height="3351.5" x="0" y="0"/></g></mask><filter id="alpha" width="1" height="1" x="0" y="0" filterUnits="objectBoundingBox"><feColorMatrix id="feColorMatrix4149" in="SourceGraphic" type="matrix" values="0 0 0 0 1 0 0 0 0 1 0 0 0 0 1 0 0 0 1 0"/></filter><clipPath id="clipPath17821"><rect id="rect17819" width="18" height="19" x="0" y="0"/></clipPath><clipPath id="clipPath17825"><path id="path17823" d="m 0.898438,0.128906 h 16.25 v 17.882813 h -16.25 z m 0,0"/></clipPath><clipPath id="clip87"><rect id="rect4848" width="24" height="26" x="0" y="0"/></clipPath><clipPath id="clip88"><path id="path4845" d="m 0.683594,0.921875 h 22.679687 v 24.9375 H 0.683594 Z m 0,0"/></clipPath><mask id="mask43"><g style="filter:url(#alpha)" id="g4842" transform="matrix(0.26458333,0,0,0.26458333,89.358789,128.57765)"><rect style="fill:#000;fill-opacity:.14999402;stroke:none" id="rect4840" width="3052.87" height="3351.5" x="0" y="0"/></g></mask><filter id="filter17836" width="1" height="1" x="0" y="0" filterUnits="objectBoundingBox"><feColorMatrix id="feColorMatrix17834" in="SourceGraphic" type="matrix" values="0 0 0 0 1 0 0 0 0 1 0 0 0 0 1 0 0 0 1 0"/></filter><clipPath id="clipPath17840"><rect id="rect17838" width="24" height="26" x="0" y="0"/></clipPath><clipPath id="clipPath17844"><path id="path17842" d="m 0.683594,0.921875 h 22.679687 v 24.9375 H 0.683594 Z m 0,0"/></clipPath><clipPath id="clip95"><rect id="rect4912" width="18" height="18" x="0" y="0"/></clipPath><clipPath id="clip96"><path id="path4909" d="M 0.140625,0.140625 H 17.199219 V 17.199219 H 0.140625 Z m 0,0"/></clipPath><mask id="mask47"><g style="filter:url(#alpha-3)" id="g4906" transform="matrix(0.26458333,0,0,0.26458333,88.611154,119.19859)"><rect style="fill:#000;fill-opacity:.33000201;stroke:none" id="rect4904" width="3052.87" height="3351.5" x="0" y="0"/></g></mask><filter id="alpha-3" width="1" height="1" x="0" y="0" filterUnits="objectBoundingBox"><feColorMatrix id="feColorMatrix4149-6" in="SourceGraphic" type="matrix" values="0 0 0 0 1 0 0 0 0 1 0 0 0 0 1 0 0 0 1 0"/></filter><clipPath id="clipPath18541"><rect id="rect18539" width="18" height="18" x="0" y="0"/></clipPath><clipPath id="clipPath18545"><path id="path18543" d="M 0.140625,0.140625 H 17.199219 V 17.199219 H 0.140625 Z m 0,0"/></clipPath><clipPath id="clip93"><rect id="rect4896" width="22" height="24" x="0" y="0"/></clipPath><clipPath id="clip94"><path id="path4893" d="M 0.0390625,0.0390625 H 21.300781 V 23.421875 H 0.0390625 Z m 0,0"/></clipPath><mask id="mask46"><g style="filter:url(#alpha-3)" id="g4890" transform="matrix(0.26458333,0,0,0.26458333,88.611154,119.19859)"><rect style="fill:#000;fill-opacity:.14999402;stroke:none" id="rect4888" width="3052.87" height="3351.5" x="0" y="0"/></g></mask><filter id="filter18556" width="1" height="1" x="0" y="0" filterUnits="objectBoundingBox"><feColorMatrix id="feColorMatrix18554" in="SourceGraphic" type="matrix" values="0 0 0 0 1 0 0 0 0 1 0 0 0 0 1 0 0 0 1 0"/></filter><clipPath id="clipPath18560"><rect id="rect18558" width="22" height="24" x="0" y="0"/></clipPath><clipPath id="clipPath18564"><path id="path18562" d="M 0.0390625,0.0390625 H 21.300781 V 23.421875 H 0.0390625 Z m 0,0"/></clipPath><clipPath id="clip91"><rect id="rect4880" width="29" height="32" x="0" y="0"/></clipPath><clipPath id="clip92"><path id="path4877" d="M 0.507812,0.5 H 28.855469 V 31.679688 H 0.507812 Z m 0,0"/></clipPath><mask id="mask45"><g style="filter:url(#alpha-3)" id="g4874" transform="matrix(0.26458333,0,0,0.26458333,88.611154,119.19859)"><rect style="fill:#000;fill-opacity:.14999402;stroke:none" id="rect4872" width="3052.87" height="3351.5" x="0" y="0"/></g></mask><filter id="filter18575" width="1" height="1" x="0" y="0" filterUnits="objectBoundingBox"><feColorMatrix id="feColorMatrix18573" in="SourceGraphic" type="matrix" values="0 0 0 0 1 0 0 0 0 1 0 0 0 0 1 0 0 0 1 0"/></filter><clipPath id="clipPath18579"><rect id="rect18577" width="29" height="32" x="0" y="0"/></clipPath><clipPath id="clipPath18583"><path id="path18581" d="M 0.507812,0.5 H 28.855469 V 31.679688 H 0.507812 Z m 0,0"/></clipPath><clipPath id="clip202"><rect id="rect5795" width="18" height="18" x="0" y="0"/></clipPath><clipPath id="clip203"><path id="path5792" d="M 0.855469,0.140625 H 17.914062 V 17.199219 H 0.855469 Z m 0,0"/></clipPath><mask id="mask104"><g style="filter:url(#alpha-7)" id="g5789" transform="matrix(0.26458333,0,0,0.26458333,74.416306,97.613551)"><rect style="fill:#000;fill-opacity:.33000201;stroke:none" id="rect5787" width="3052.87" height="3351.5" x="0" y="0"/></g></mask><filter id="alpha-7" width="1" height="1" x="0" y="0" filterUnits="objectBoundingBox"><feColorMatrix id="feColorMatrix4149-5" in="SourceGraphic" type="matrix" values="0 0 0 0 1 0 0 0 0 1 0 0 0 0 1 0 0 0 1 0"/></filter><clipPath id="clipPath18765"><rect id="rect18763" width="18" height="18" x="0" y="0"/></clipPath><clipPath id="clipPath18769"><path id="path18767" d="M 0.855469,0.140625 H 17.914062 V 17.199219 H 0.855469 Z m 0,0"/></clipPath></defs><metadata id="metadata15243"/><g id="layer1" transform="translate(-46.186697,-89.82936)"><path id="path7481" d="m 61.477408,97.474714 c 0,4.222306 -3.423045,7.646736 -7.645354,7.646736 -4.220933,0 -7.645357,-3.42443 -7.645357,-7.646736 0,-4.22093 3.424424,-7.645354 7.645357,-7.645354 4.222309,0 7.645354,3.424424 7.645354,7.645354" style="fill:#000;fill-opacity:1;fill-rule:nonzero;stroke:none;stroke-width:.35277775"/><path id="path7483" d="m 58.147377,97.475405 c 0,2.38263 -1.932009,4.314635 -4.314638,4.314635 -2.382626,0 -4.316014,-1.932005 -4.316014,-4.314635 0,-2.384005 1.933388,-4.314638 4.316014,-4.314638 2.382629,0 4.314638,1.930633 4.314638,4.314638" style="fill:#545454;fill-opacity:1;fill-rule:nonzero;stroke:none;stroke-width:.35277775"/><path id="path7485" d="m 59.880951,97.474714 c 0,3.341746 -2.707848,6.049586 -6.048212,6.049586 -3.341741,0 -6.049585,-2.70784 -6.049585,-6.049586 0,-3.340365 2.707844,-6.048209 6.049585,-6.048209 3.340364,0 6.048212,2.707844 6.048212,6.048209 z m 0,0" style="fill:none;stroke:#636363;stroke-width:.29999998;stroke-linecap:butt;stroke-linejoin:miter;stroke-miterlimit:10;stroke-dasharray:none;stroke-opacity:1"/></g></svg>