<svg xmlns="http://www.w3.org/2000/svg" width="19.66" height="19.65" version="1.1" viewBox="0 0 5.201 5.2"><defs><clipPath id="clipPath5989"><path d="m423.3 1154h11.34v-5.84h-11.34z"/></clipPath></defs><g><g><g><path fill="#212221" d="m0 0c0-4.07-3.301-7.369-7.372-7.369-4.069 0-7.37 3.299-7.37 7.369 0 4.071 3.301 7.37 7.37 7.37 4.071 0 7.372-3.299 7.372-7.37" transform="translate(-73.78 -88.75) matrix(.3528 0 0 -.3528 -74.94 498.4) translate(436.3 1154)"/></g><g clip-path="url(#clipPath5989)" opacity=".5" transform="translate(-73.78 -88.75) matrix(.3528 0 0 -.3528 -74.94 498.4)"><g><path fill="#c1c1c1" d="m0 0c-3.072 0-5.569 2.345-5.66 5.396-.001-.056-.008-.113-.008-.169 0-3.131 2.538-5.668 5.668-5.668 3.132 0 5.67 2.537 5.67 5.668 0 .056-.007.113-.008.169-.091-3.051-2.588-5.396-5.662-5.396" transform="translate(428.9 1149)"/></g></g></g></g></svg>