<svg xmlns="http://www.w3.org/2000/svg" xmlns:svg="http://www.w3.org/2000/svg" id="svg276" width="30" height="380" x="0" y="0" enable-background="new 0 0 90 380" version="1.1" viewBox="0 0 30 380" xml:space="preserve"><metadata id="metadata282"/><defs id="defs280"><filter style="color-interpolation-filters:sRGB" id="filter3899"><feBlend id="feBlend3901" in2="BackgroundImage" mode="color-dodge"/></filter><filter style="color-interpolation-filters:sRGB" id="filter3899-5"><feBlend id="feBlend3901-6" in2="BackgroundImage" mode="color-dodge"/></filter></defs><g id="layer3"><g id="g3859" transform="matrix(0.16584279,0,0,1.0003745,-1.6988661e-6,0.25184314)" style="fill:#e6e6e6;fill-opacity:1"><rect id="background" width="90" height="380" x="0" y="0" style="fill:#e6e6e6;fill-opacity:1"/><rect id="background-4" width="90" height="380" x="90" y="0" style="fill:#e6e6e6;fill-opacity:1"/></g></g><g id="layer5" style="display:inline;opacity:1"><rect id="rect3871" width="30.279" height="95" x="0" y="270" style="fill:#b3b3b3;stroke-width:.48807886"/><rect id="rect3871-0" width="180" height="95" x="0" y="140" style="display:inline;opacity:1;fill:#fff;stroke-width:1.19002068;filter:url(#filter3899)"/><rect id="rect3871-0-6" width="180" height="95" x="0" y="20" style="display:inline;opacity:1;fill:#fff;stroke-width:1.19002068;filter:url(#filter3899-5)"/><rect style="opacity:1;fill:#000;fill-opacity:1;stroke:none" id="rect2696" width="30.457" height="35.011" x="0" y="234.976"/></g><g id="layer6" style="display:inline"><path style="fill:none;stroke:#b3b3b3;stroke-width:1.05549932px;stroke-linecap:butt;stroke-linejoin:miter;stroke-opacity:1" id="path3981-4" d="m 22.075613,252.35658 h 5.595434 l 0.07975,-140.5927 h -8.235992 -5.960533"/><path style="fill:gray;stroke:#b3b3b3;stroke-width:1px;stroke-linecap:butt;stroke-linejoin:miter;stroke-opacity:1" id="path3983-4" d="M 11.402552,207.5079 V 140.33276"/><path style="fill:#ccc;stroke:#b3b3b3;stroke-width:1px;stroke-linecap:butt;stroke-linejoin:miter;stroke-opacity:1" id="path3985-3" d="M 11.402552,115.2844 V 45.832131"/><path style="display:inline;opacity:1;fill:none;stroke:#b3b3b3;stroke-width:1px;stroke-linecap:butt;stroke-linejoin:miter;stroke-opacity:1" id="path4006-0" d="M 27.627057,143.32148 H 13.252715"/></g><g id="layer7"><text style="font-style:normal;font-weight:400;font-size:40px;line-height:1.25;font-family:sans-serif;letter-spacing:0;word-spacing:0;fill:#000;fill-opacity:1;stroke:none" id="text5048-7" x="14.389" y="14.035" xml:space="preserve"><tspan id="tspan5046-3" x="14.389" y="14.035" style="font-size:10.66666698px;text-align:center;text-anchor:middle">Bsl1r</tspan></text><text style="font-style:normal;font-weight:400;font-size:40px;line-height:1.25;font-family:sans-serif;letter-spacing:0;word-spacing:0;fill:#000;fill-opacity:1;stroke:none" id="text5048" x="14.905" y="376.222" xml:space="preserve"><tspan id="tspan5046" x="14.905" y="376.222" style="font-size:10.66666698px;text-align:center;text-anchor:middle">nh</tspan></text></g><g id="decoupe" display="none" style="display:none"><path id="path226" stroke-miterlimit="10" d="m 17.448,371.129 c 0,2.612 2.118,4.73 4.731,4.73 2.612,0 4.731,-2.118 4.731,-4.73 0,-2.612 -2.119,-4.73 -4.731,-4.73 -2.613,-10e-4 -4.731,2.118 -4.731,4.73" display="inline" style="display:inline;fill:none;stroke:#ec1c24;stroke-width:.28349999;stroke-linecap:round;stroke-linejoin:round;stroke-miterlimit:10"/><path id="path228" stroke-miterlimit="10" d="m 17.448,8.873 c 0,2.612 2.118,4.73 4.731,4.73 2.612,0 4.731,-2.118 4.731,-4.73 0,-2.614 -2.119,-4.731 -4.731,-4.731 -2.613,0 -4.731,2.116 -4.731,4.731" display="inline" style="display:inline;fill:none;stroke:#ec1c24;stroke-width:.28349999;stroke-linecap:round;stroke-linejoin:round;stroke-miterlimit:10"/><polyline id="polyline230" stroke-miterlimit="10" points="0 380 0 0 88.716 0 88.716 380 0 380" display="inline" style="display:inline;fill:none;stroke:#ec1c24;stroke-width:.28349999;stroke-linecap:round;stroke-linejoin:round;stroke-miterlimit:10"/><path id="path232" stroke-miterlimit="10" d="m 11.568,328.516 c 0,5.144 4.171,9.314 9.314,9.314 5.145,0 9.316,-4.171 9.316,-9.314 0,-5.145 -4.171,-9.315 -9.316,-9.315 -5.143,-0.001 -9.314,4.17 -9.314,9.315" display="inline" style="display:inline;fill:none;stroke:#ec1c24;stroke-width:.28349999;stroke-linecap:round;stroke-linejoin:round;stroke-miterlimit:10"/><path id="path234" stroke-miterlimit="10" d="m 11.568,290.959 c 0,5.145 4.171,9.315 9.314,9.315 5.145,0 9.316,-4.171 9.316,-9.315 0,-5.144 -4.171,-9.315 -9.316,-9.315 -5.143,0 -9.314,4.17 -9.314,9.315" display="inline" style="display:inline;fill:none;stroke:#ec1c24;stroke-width:.28349999;stroke-linecap:round;stroke-linejoin:round;stroke-miterlimit:10"/><path id="path236" stroke-miterlimit="10" d="m 58.528,290.959 c 0,5.145 4.171,9.315 9.315,9.315 5.144,0 9.314,-4.171 9.314,-9.315 0,-5.144 -4.17,-9.315 -9.314,-9.315 -5.144,0 -9.315,4.17 -9.315,9.315" display="inline" style="display:inline;fill:none;stroke:#ec1c24;stroke-width:.28349999;stroke-linecap:round;stroke-linejoin:round;stroke-miterlimit:10"/><path id="path238" stroke-miterlimit="10" d="m 58.528,328.516 c 0,5.144 4.171,9.314 9.315,9.314 5.144,0 9.314,-4.171 9.314,-9.314 0,-5.145 -4.17,-9.315 -9.314,-9.315 -5.144,0 -9.315,4.17 -9.315,9.315" display="inline" style="display:inline;fill:none;stroke:#ec1c24;stroke-width:.28349999;stroke-linecap:round;stroke-linejoin:round;stroke-miterlimit:10"/><path id="path240" stroke-miterlimit="10" d="m 39.927,328.545 c 0,2.449 1.985,4.437 4.436,4.437 2.451,0 4.436,-1.987 4.436,-4.437 0,-2.45 -1.985,-4.436 -4.436,-4.436 -2.45,0 -4.436,1.986 -4.436,4.436" display="inline" style="display:inline;fill:none;stroke:#ec1c24;stroke-width:.28349999;stroke-linecap:round;stroke-linejoin:round;stroke-miterlimit:10"/><path id="path242" stroke-miterlimit="10" d="m 33.288,240.258 c 0,6.125 4.966,11.09 11.091,11.09 6.124,0 11.089,-4.965 11.089,-11.09 0,-6.125 -4.966,-11.09 -11.089,-11.09 -6.126,0 -11.091,4.965 -11.091,11.09" display="inline" style="display:inline;fill:none;stroke:#ec1c24;stroke-width:.28349999;stroke-linecap:round;stroke-linejoin:round;stroke-miterlimit:10"/><path id="path244" stroke-miterlimit="10" d="m 11.568,172.671 c 0,5.144 4.171,9.315 9.314,9.315 5.145,0 9.316,-4.171 9.316,-9.315 0,-5.145 -4.171,-9.315 -9.316,-9.315 -5.143,0 -9.314,4.171 -9.314,9.315" display="inline" style="display:inline;fill:none;stroke:#ec1c24;stroke-width:.28349999;stroke-linecap:round;stroke-linejoin:round;stroke-miterlimit:10"/><path id="path246" stroke-miterlimit="10" d="m 11.568,135.114 c 0,5.145 4.171,9.315 9.314,9.315 5.145,0 9.316,-4.171 9.316,-9.315 0,-5.144 -4.171,-9.315 -9.316,-9.315 -5.143,0 -9.314,4.171 -9.314,9.315" display="inline" style="display:inline;fill:none;stroke:#ec1c24;stroke-width:.28349999;stroke-linecap:round;stroke-linejoin:round;stroke-miterlimit:10"/><path id="path248" stroke-miterlimit="10" d="m 58.528,135.114 c 0,5.145 4.171,9.315 9.315,9.315 5.144,0 9.314,-4.171 9.314,-9.315 0,-5.144 -4.17,-9.315 -9.314,-9.315 -5.144,0 -9.315,4.171 -9.315,9.315" display="inline" style="display:inline;fill:none;stroke:#ec1c24;stroke-width:.28349999;stroke-linecap:round;stroke-linejoin:round;stroke-miterlimit:10"/><path id="path250" stroke-miterlimit="10" d="m 58.528,172.671 c 0,5.144 4.171,9.315 9.315,9.315 5.144,0 9.314,-4.171 9.314,-9.315 0,-5.145 -4.17,-9.315 -9.314,-9.315 -5.144,0 -9.315,4.171 -9.315,9.315" display="inline" style="display:inline;fill:none;stroke:#ec1c24;stroke-width:.28349999;stroke-linecap:round;stroke-linejoin:round;stroke-miterlimit:10"/><path id="path252" stroke-miterlimit="10" d="m 39.927,172.701 c 0,2.449 1.985,4.435 4.436,4.435 2.451,0 4.436,-1.985 4.436,-4.435 0,-2.45 -1.985,-4.436 -4.436,-4.436 -2.45,0 -4.436,1.986 -4.436,4.436" display="inline" style="display:inline;fill:none;stroke:#ec1c24;stroke-width:.28349999;stroke-linecap:round;stroke-linejoin:round;stroke-miterlimit:10"/><path id="path254" stroke-miterlimit="10" d="m 33.288,84.413 c 0,6.124 4.966,11.09 11.091,11.09 6.124,0 11.089,-4.966 11.089,-11.09 0,-6.125 -4.966,-11.089 -11.089,-11.089 -6.126,0 -11.091,4.965 -11.091,11.089" display="inline" style="display:inline;fill:none;stroke:#ec1c24;stroke-width:.28349999;stroke-linecap:round;stroke-linejoin:round;stroke-miterlimit:10"/><path id="path256" stroke-miterlimit="10" d="m 68.761,65.621 c 0,4.164 3.376,7.541 7.541,7.541 4.165,0 7.541,-3.377 7.541,-7.541 0,-4.165 -3.376,-7.54 -7.541,-7.54 -4.165,0 -7.541,3.375 -7.541,7.54" display="inline" style="display:inline;fill:none;stroke:#ec1c24;stroke-width:.28349999;stroke-linecap:round;stroke-linejoin:round;stroke-miterlimit:10"/><path id="path258" stroke-miterlimit="10" d="m 68.761,221.495 c 0,4.164 3.376,7.541 7.541,7.541 4.165,0 7.541,-3.377 7.541,-7.541 0,-4.165 -3.376,-7.541 -7.541,-7.541 -4.165,0 -7.541,3.376 -7.541,7.541" display="inline" style="display:inline;fill:none;stroke:#ec1c24;stroke-width:.28349999;stroke-linecap:round;stroke-linejoin:round;stroke-miterlimit:10"/></g><g id="widgets" display="none" style="display:none"><rect id="Rogan_3_" width="38.987" height="39.995" x="24.864" y="64.416" stroke-miterlimit="10" display="inline" style="display:inline;fill:none;stroke:#000;stroke-miterlimit:10"/><rect id="SmallLight_4_" width="7" height="7" x="40.864" y="169.201" stroke-miterlimit="10" display="inline" style="display:inline;fill:none;stroke:#000;stroke-miterlimit:10"/><rect id="PJ301_2_" width="22.992" height="22.996" x="56.348" y="161.202" stroke-miterlimit="10" display="inline" style="display:inline;fill:none;stroke:#000;stroke-miterlimit:10"/><rect id="PJ301_3_" width="22.992" height="22.996" x="56.348" y="123.616" stroke-miterlimit="10" display="inline" style="display:inline;fill:none;stroke:#000;stroke-miterlimit:10"/><rect id="PJ301_1_" width="22.992" height="22.996" x="9.555" y="161.202" stroke-miterlimit="10" display="inline" style="display:inline;fill:none;stroke:#000;stroke-miterlimit:10"/><rect id="PJ301_11_" width="22.992" height="22.996" x="9.555" y="123.616" stroke-miterlimit="10" display="inline" style="display:inline;fill:none;stroke:#000;stroke-miterlimit:10"/><rect id="TL1105_1_" width="16" height="15.998" x="68.302" y="57.608" stroke-miterlimit="10" display="inline" style="display:inline;fill:none;stroke:#000;stroke-miterlimit:10"/><rect id="Rogan_1_" width="38.987" height="39.996" x="24.864" y="220.249" stroke-miterlimit="10" display="inline" style="display:inline;fill:none;stroke:#000;stroke-miterlimit:10"/><rect id="SmallLight_1_" width="7" height="7" x="40.864" y="325.034" stroke-miterlimit="10" display="inline" style="display:inline;fill:none;stroke:#000;stroke-miterlimit:10"/><rect id="PJ301_7_" width="22.992" height="22.996" x="56.348" y="317.036" stroke-miterlimit="10" display="inline" style="display:inline;fill:none;stroke:#000;stroke-miterlimit:10"/><rect id="PJ301_6_" width="22.992" height="22.996" x="56.348" y="279.45" stroke-miterlimit="10" display="inline" style="display:inline;fill:none;stroke:#000;stroke-miterlimit:10"/><rect id="PJ301_5_" width="22.992" height="22.996" x="9.555" y="317.036" stroke-miterlimit="10" display="inline" style="display:inline;fill:none;stroke:#000;stroke-miterlimit:10"/><rect id="PJ301_4_" width="22.992" height="22.996" x="9.555" y="279.45" stroke-miterlimit="10" display="inline" style="display:inline;fill:none;stroke:#000;stroke-miterlimit:10"/><rect id="TL1105_2_" width="16" height="15.998" x="68.302" y="213.442" stroke-miterlimit="10" display="inline" style="display:inline;fill:none;stroke:#000;stroke-miterlimit:10"/></g></svg>