<svg xmlns="http://www.w3.org/2000/svg" xmlns:svg="http://www.w3.org/2000/svg" id="svg64" width="82" height="82" x="0" y="0" version="1.1" viewBox="0 0 82 82" xml:space="preserve"><title id="title4560">Golden Knob</title><metadata id="metadata68"/><style id="style2" type="text/css">.st0{fill:none}.st1{fill:#5d5d5d}.st2{fill:#807474}.st3{fill:#fff7c2}.st4{fill:#b1a496}.st6{stroke-width:.2782}.st6,.st7,.st8,.st9{fill:none;stroke:#000;stroke-miterlimit:10}.st7{stroke-width:.2618}.st8{stroke-width:.241}.st9{stroke-width:.2189}.st10{stroke-width:.1951}.st10,.st11,.st12,.st13,.st14,.st15,.st16,.st17{fill:none;stroke:#000;stroke-miterlimit:10}.st11{stroke-width:.1718}.st12{stroke-width:.1483}.st13{stroke-width:.1205}.st14{stroke-width:.0959}.st15{stroke-width:.0722}.st16{stroke-width:.0531}.st17{stroke-width:.0359}</style><g id="g62" transform="translate(0,-136.517)"><line style="fill:none;stroke-width:.5" id="line6" x1="10.017" x2="10.01" y1="177.967" y2="177.967" class="st0"/><path style="fill:#5d5d5d;stroke-width:.5" id="path8" d="m 72.355384,152.12185 c 0.460523,1.87078 0.213556,3.96723 -1.058231,5.96984 -2.062199,3.25676 -1.384982,7.27087 1.079231,9.7419 0.99558,0.99833 2.284943,1.74605 3.801353,2.09098 1.608331,0.36641 2.894034,1.11111 3.865149,2.08394 0.427066,0.42824 0.794545,0.90263 1.094084,1.40872 -0.763921,-7.60558 -3.695625,-15.0339 -8.781586,-21.29538 z m 3.801977,33.08376 c -1.517033,0.34073 -2.80862,1.08503 -3.806953,2.08061 -2.471207,2.46468 -3.158898,6.47626 -1.105873,9.73888 1.266732,2.00628 1.507726,4.10324 1.042191,5.97291 5.103114,-6.24724 8.054894,-13.66819 8.839356,-21.27179 -0.995916,1.64972 -2.655959,2.95934 -4.968721,3.47939 z m -15.732079,22.60947 c -3.256766,-2.0622 -7.270876,-1.38499 -9.741903,1.07923 -0.998333,0.99558 -1.746051,2.28494 -2.090974,3.80135 -0.366418,1.60833 -1.110186,2.89439 -2.083947,3.86515 -0.428237,0.42706 -0.902453,0.79408 -1.408715,1.09408 7.606045,-0.76374 15.034361,-3.69544 21.296025,-8.78187 -1.871428,0.46081 -3.967407,0.21402 -5.970486,-1.05794 z m -29.194535,1.05325 c -2.46468,-2.47121 -6.47626,-3.1589 -9.738873,-1.10587 -2.006284,1.26673 -4.103251,1.50772 -5.972921,1.04219 6.247243,5.10311 13.668193,8.05489 21.271794,8.83935 -1.649713,-0.99591 -2.959332,-2.65595 -3.479389,-4.96872 -0.340261,-1.51685 -1.084565,-2.80844 -2.080611,-3.80695 z" class="st1"/><path style="fill:#5d5d5d;stroke-width:.5" id="path10" d="m 66.480379,146.23089 c -1.869669,-0.46553 -3.966635,-0.22454 -5.972919,1.04219 -3.262612,2.05303 -7.274372,1.3658 -9.738872,-1.10587 -0.995579,-0.99833 -1.739884,-2.28992 -2.080611,-3.80695 -0.520057,-2.31277 -1.829677,-3.97281 -3.479391,-4.96873 3.443049,0.35122 6.850494,1.15491 10.129764,2.39682 0.484384,0.18776 0.967756,0.38371 1.445166,0.58539 3.433951,1.45371 6.698293,3.41005 9.696863,5.85715 z" class="st1"/><path style="fill:#5d5d5d;stroke-width:.5" id="path12" d="m 36.899769,137.38018 c -0.06005,0.039 -0.120378,0.0704 -0.176947,0.11292 -0.438793,0.2751 -0.85314,0.60357 -1.231767,0.98116 -0.973761,0.97076 -1.717529,2.25682 -2.083947,3.86515 -1.201947,5.27357 -7.258377,7.77539 -11.832877,4.88059 -2.003079,-1.27197 -4.099059,-1.51876 -5.96984,-1.05823 1.479615,-1.20019 3.022685,-2.28 4.618301,-3.24311 0.442267,-0.26465 0.888014,-0.52582 1.341002,-0.77241 4.716321,-2.59928 9.841634,-4.17981 15.053683,-4.73827 0.09496,-0.01 0.186609,-0.017 0.282392,-0.0278 z" class="st1"/><path style="fill:#5d5d5d;stroke-width:.5" id="path14" d="m 9.7127868,152.03706 c -0.4655347,1.86967 -0.2245414,3.96663 1.0421902,5.97292 2.053026,3.26261 1.365801,7.27437 -1.1054063,9.73905 -0.9983327,0.99558 -2.28992,1.73988 -3.8069521,2.08061 -2.2315493,0.50259 -3.8526984,1.73772 -4.85516144,3.30292 -0.0426501,0.0564 -0.0743899,0.11655 -0.11356039,0.17647 0.0105847,-0.0956 0.0181514,-0.18752 0.0285563,-0.28264 0.59416223,-5.38029 2.27363063,-10.6638 5.03805053,-15.49646 0.2551184,-0.45199 0.5208556,-0.894 0.7938437,-1.33535 0.895896,-1.43052 1.8878279,-2.82241 2.9784395,-4.15752 z" class="st1"/><path style="stroke-width:.5" id="path16" d="m 66.480379,146.23089 c -1.869669,-0.46553 -3.966635,-0.22454 -5.972919,1.04219 -3.262612,2.05303 -7.274372,1.3658 -9.738872,-1.10587 -0.995579,-0.99833 -1.739884,-2.28992 -2.080611,-3.80695 -0.520057,-2.31277 -1.829677,-3.97281 -3.479391,-4.96873 -2.343998,-0.24699 -4.705516,-0.28586 -7.049625,-0.11547 -0.420884,0.0243 -0.841777,0.0625 -1.258725,0.1043 -0.06005,0.039 -0.120379,0.0704 -0.176948,0.11292 -0.438792,0.2751 -0.853139,0.60357 -1.231767,0.98116 -0.973761,0.97076 -1.717529,2.25682 -2.083947,3.86515 -1.201947,5.27357 -7.258376,7.77539 -11.832877,4.88059 -2.003078,-1.27197 -4.099058,-1.51876 -5.96984,-1.05823 -1.068743,0.86127 -2.102606,1.79332 -3.097454,2.78542 -0.994848,0.9921 -1.929774,2.02337 -2.7936831,3.09005 -0.4655347,1.86967 -0.2245414,3.96663 1.0421901,5.97292 2.053026,3.26261 1.365801,7.27437 -1.1054062,9.73905 -0.9983327,0.99558 -2.28992,1.73988 -3.8069521,2.08061 -2.2315493,0.50259 -3.8526984,1.73772 -4.85516144,3.30292 -0.0426502,0.0564 -0.0743899,0.11655 -0.11356039,0.17647 -0.0428296,0.41699 -0.0823594,0.83794 -0.10778092,1.25843 -0.17624082,2.34394 -0.14435772,4.7054 0.0966066,7.04992 0.30000515,0.50626 0.66701805,0.98048 1.09408435,1.40871 0.970755,0.97376 2.256818,1.71753 3.8651483,2.08395 1.5164107,0.34492 2.8057736,1.09264 3.8013528,2.09097 2.46468,2.47121 3.141431,6.48514 1.079231,9.74191 -1.2719665,2.00308 -1.5187534,4.09905 -1.0582304,5.96984 0.8612724,1.06874 1.7933234,2.1026 2.7854224,3.09745 0.9921,0.99485 2.02337,1.92977 3.090049,2.79368 1.869669,0.46554 3.966637,0.22455 5.972921,-1.04219 3.262612,-2.05302 7.274372,-1.3658 9.738872,1.10588 0.995579,0.99833 1.739884,2.28992 2.080611,3.80695 0.520057,2.31276 1.829677,3.9728 3.479389,4.96872 2.760815,0.29029 5.546885,0.29399 8.30835,0.0112 0.506262,-0.30001 0.980478,-0.66702 1.408715,-1.09409 0.973761,-0.97075 1.717529,-2.25682 2.083947,-3.86515 0.344922,-1.51641 1.092641,-2.80577 2.090974,-3.80135 2.471207,-2.46468 6.485137,-3.14143 9.741903,-1.07923 2.003079,1.27197 4.099058,1.51875 5.96984,1.05823 1.068743,-0.86127 2.102606,-1.79332 3.097454,-2.78542 0.994848,-0.9921 1.929774,-2.02337 2.793683,-3.09005 0.465535,-1.86967 0.224542,-3.96664 -1.04219,-5.97292 -2.053026,-3.26261 -1.365334,-7.27419 1.105873,-9.73887 0.998333,-0.99558 2.28992,-1.73989 3.806952,-2.08061 2.312762,-0.52006 3.972805,-1.82968 4.968722,-3.47939 0.290292,-2.76082 0.293992,-5.54689 0.01117,-8.30835 -0.300005,-0.50627 -0.667018,-0.98048 -1.094084,-1.40872 -0.970755,-0.97376 -2.256818,-1.71753 -3.865149,-2.08395 -1.51641,-0.34492 -2.805773,-1.09264 -3.801352,-2.09097 -2.464681,-2.47121 -3.141431,-6.48514 -1.079232,-9.7419 1.271967,-2.00308 1.518754,-4.09906 1.058231,-5.96984 -0.861272,-1.06875 -1.793323,-2.10261 -2.785422,-3.09746 -0.9921,-0.99484 -2.024483,-1.92966 -3.090516,-2.79386 z m -1.398644,11.78176 c 2.710878,3.33397 4.62186,7.10555 5.733811,11.05252 0.496156,1.73662 0.8297,3.51559 1.010995,5.30447 0.09055,0.89816 0.142804,1.79977 0.15564,2.69798 l -30.982477,0.44936 -21.59319,22.22705 c -0.116341,-0.10968 -0.233143,-0.2265 -0.349478,-0.34314 -0.762442,-0.76487 -1.475648,-1.55738 -2.139259,-2.37847 -2.710877,-3.33397 -4.621859,-7.10555 -5.733631,-11.05298 -0.496155,-1.73662 -0.8297,-3.5156 -1.010994,-5.30448 -0.09056,-0.89816 -0.142338,-1.79959 -0.15564,-2.69798 l 30.982479,-0.44935 21.593187,-22.22705 c 0.116341,0.10967 0.233143,0.22649 0.349479,0.34314 0.762441,0.76487 1.475467,1.55784 2.139078,2.37893 z"/><path style="fill:#807474;stroke-width:.5" id="path18" d="m 62.942477,155.63418 c 0.762441,0.76487 1.475647,1.55738 2.139258,2.37847 2.710878,3.33397 4.62186,7.10555 5.733811,11.05252 l -29.816022,8.45228 21.593188,-22.22705 c 0.116807,0.10985 0.233429,0.22714 0.349765,0.34378 z" class="st2"/><path style="fill:#fff7c2;stroke-width:.5" id="path20" d="m 70.815833,169.06581 c 0.496156,1.73662 0.8297,3.5156 1.010994,5.30448 0.09056,0.89816 0.142804,1.79977 0.15564,2.69798 l -30.982476,0.44936 z" class="st3"/><path style="fill:#fff7c2;stroke-width:.5" id="path22" d="M 40.999524,177.51745 11.1835,185.96973 c -0.496156,-1.73662 -0.8297,-3.5156 -1.010994,-5.30448 -0.09056,-0.89816 -0.142338,-1.79959 -0.15564,-2.69798 z" class="st3"/><path style="fill:#807474;stroke-width:.5" id="path24" d="m 40.999524,177.51745 -21.59319,22.22705 c -0.11634,-0.10968 -0.233143,-0.2265 -0.349478,-0.34314 -0.762442,-0.76487 -1.475648,-1.55739 -2.139259,-2.37848 -2.710877,-3.33397 -4.621859,-7.10555 -5.733631,-11.05297 z" class="st2"/><path style="fill:#b1a496;stroke-width:.5" id="path26" d="m 71.982001,177.06809 c 0.01935,1.23027 -0.03506,2.4573 -0.163998,3.68025 -0.601913,5.83974 -2.868997,11.53979 -6.789235,16.33905 -0.665724,0.81941 -1.38111,1.61057 -2.14598,2.37301 -0.76487,0.76244 -1.557382,1.47565 -2.378938,2.13908 -4.8101,3.90758 -10.515919,6.15871 -16.357637,6.74509 -2.121789,0.21642 -4.257031,0.21332 -6.378048,-0.009 -4.118307,-0.42607 -8.168193,-1.67617 -11.874424,-3.75674 -1.554459,-0.86489 -3.048904,-1.87438 -4.46463,-3.0325 -0.695633,-0.56283 -1.366504,-1.16487 -2.023243,-1.80219 l 21.593189,-22.22705 z" class="st4"/><path style="fill:#b1a496;stroke-width:.5" id="path28" d="m 62.593178,155.29058 -21.593187,22.22705 -30.982479,0.44935 c -0.019353,-1.23027 0.03506,-2.4573 0.163997,-3.68025 0.601914,-5.83974 2.868998,-11.53979 6.789236,-16.33905 0.665723,-0.81941 1.38111,-1.61057 2.14598,-2.37301 0.764869,-0.76244 1.557382,-1.47565 2.378937,-2.13908 4.809921,-3.90711 10.51592,-6.15871 16.357638,-6.74509 2.121789,-0.21642 4.257031,-0.21332 6.37805,0.009 4.118307,0.42607 8.168193,1.67616 11.874423,3.75673 1.554459,0.8649 3.048904,1.87438 4.464629,3.0325 0.694986,0.56311 1.365858,1.16516 2.022776,1.80202 z" class="st4"/><line style="fill:none;stroke-width:.5" id="line32" x1="71.989" x2="71.982" y1="177.068" y2="177.068" class="st0"/><circle style="fill:none;stroke:#000;stroke-width:.13909215;stroke-miterlimit:10" id="ellipse34" cx="-96.329" cy="154.64" r="0" class="st6" transform="rotate(-44.923422)"/><circle style="fill:none;stroke:#000;stroke-width:.1308926;stroke-miterlimit:10" id="ellipse36" cx="-96.329" cy="154.64" r="0" class="st7" transform="rotate(-44.923422)"/><circle style="fill:none;stroke:#000;stroke-width:.1204932;stroke-miterlimit:10" id="ellipse38" cx="-96.329" cy="154.64" r="0" class="st8" transform="rotate(-44.923422)"/><circle style="fill:none;stroke:#000;stroke-width:.10944382;stroke-miterlimit:10" id="ellipse40" cx="-96.329" cy="154.64" r="0" class="st9" transform="rotate(-44.923422)"/><circle style="fill:none;stroke:#000;stroke-width:.09754449;stroke-miterlimit:10" id="ellipse42" cx="-96.329" cy="154.64" r="0" class="st10" transform="rotate(-44.923422)"/><circle style="fill:none;stroke:#000;stroke-width:.08589515;stroke-miterlimit:10" id="ellipse44" cx="-96.329" cy="154.64" r="0" class="st11" transform="rotate(-44.923422)"/><circle style="fill:none;stroke:#000;stroke-width:.07414582;stroke-miterlimit:10" id="ellipse46" cx="-96.329" cy="154.64" r="0" class="st12" transform="rotate(-44.923422)"/><circle style="fill:none;stroke:#000;stroke-width:.0602466;stroke-miterlimit:10" id="ellipse48" cx="-96.329" cy="154.64" r="0" class="st13" transform="rotate(-44.923422)"/><circle style="fill:none;stroke:#000;stroke-width:.0479473;stroke-miterlimit:10" id="ellipse50" cx="-96.329" cy="154.64" r="0" class="st14" transform="rotate(-44.923422)"/><circle style="fill:none;stroke:#000;stroke-width:.03609796;stroke-miterlimit:10" id="ellipse52" cx="-96.329" cy="154.64" r="0" class="st15" transform="rotate(-44.923422)"/><circle style="fill:none;stroke:#000;stroke-width:.0265485;stroke-miterlimit:10" id="ellipse54" cx="-96.329" cy="154.64" r="0" class="st16" transform="rotate(-44.923422)"/><circle style="fill:none;stroke:#000;stroke-width:.01794899;stroke-miterlimit:10" id="ellipse56" cx="-96.329" cy="154.64" r="0" class="st17" transform="rotate(-44.923422)"/><circle style="fill:none;stroke-width:.49997178" id="ellipse58" cx="-96.329" cy="154.64" r="0" class="st0" transform="rotate(-44.923422)"/><path style="fill:#5d5d5d;stroke-width:.5" id="path60" d="m 9.6226616,187.2013 c 2.4646804,2.47121 3.1414304,6.48514 1.0792314,9.7419 -1.271967,2.00308 -1.5187539,4.09906 -1.0582308,5.96984 -2.452847,-3.01911 -4.4072418,-6.30961 -5.8557195,-9.76576 -0.2006596,-0.47762 -0.3948168,-0.96238 -0.5780586,-1.45043 -1.2225617,-3.26512 -2.0063987,-6.6564 -2.34827451,-10.07937 0.30000511,0.50627 0.66701801,0.98048 1.09408431,1.40872 0.970755,0.97376 2.256818,1.71753 3.8651483,2.08395 1.5168773,0.3451 2.8062402,1.09282 3.8018194,2.09115 z" class="st1"/></g></svg>