<svg xmlns="http://www.w3.org/2000/svg" xmlns:svg="http://www.w3.org/2000/svg" id="svg64581" width="22" height="22" version="1.1" viewBox="0 0 5.821 5.821"><metadata id="metadata64578"/><g id="layer1" transform="translate(-94.523732,-122.57203)"><path id="path9729" d="m 94.765106,124.51101 c -0.535458,1.47383 0.225472,3.10426 1.697201,3.64078 1.474857,0.53444 3.104211,-0.22441 3.639683,-1.6983 0.53753,-1.47383 -0.222355,-3.10318 -1.696169,-3.63974 -1.473815,-0.53547 -3.103171,0.22235 -3.640715,1.69726" style="opacity:1;fill:#0e0e0e;fill-opacity:1;fill-rule:nonzero;stroke:#000;stroke-width:.14025562;stroke-miterlimit:4;stroke-dasharray:none"/><path style="opacity:1;fill:#191919;fill-opacity:1;fill-rule:nonzero;stroke:#151515;stroke-width:.66892636;stroke-miterlimit:4;stroke-dasharray:none" id="path836" d="m 95.696512,124.85003 c -0.348609,0.95953 0.146791,2.02104 1.104953,2.37031 0.960201,0.34795 2.020986,-0.14608 2.369601,-1.10567 0.349961,-0.95953 -0.14476,-2.02031 -1.104282,-2.36963 -0.959521,-0.34864 -2.020308,0.14474 -2.370272,1.10499"/><path id="path840" d="m 96.750412,125.23362 c -0.137162,0.37752 0.05775,0.79518 0.434766,0.9326 0.377809,0.13698 0.795196,-0.0574 0.932365,-0.43503 0.1377,-0.37752 -0.05696,-0.7949 -0.4345,-0.93235 -0.377543,-0.13726 -0.794932,0.0569 -0.932631,0.43478" style="opacity:1;fill:#1e1e1e;fill-opacity:1;fill-rule:nonzero;stroke:none;stroke-width:.26319808;stroke-miterlimit:4;stroke-dasharray:none"/><path style="opacity:1;fill:#212121;fill-opacity:1;fill-rule:nonzero;stroke:none;stroke-width:.06579584;stroke-miterlimit:4;stroke-dasharray:none" id="path842" d="m 97.263203,125.42026 c -0.0343,0.0943 0.01444,0.19877 0.108697,0.23312 0.09446,0.0342 0.198799,-0.0143 0.233092,-0.10882 0.03444,-0.0943 -0.01423,-0.19871 -0.10863,-0.23306 -0.09439,-0.0344 -0.198732,0.0144 -0.233156,0.10869"/></g></svg>