<svg xmlns="http://www.w3.org/2000/svg" xmlns:svg="http://www.w3.org/2000/svg" id="svg15246" width="22" height="22" version="1.1" viewBox="0 0 5.821 5.821"><defs id="defs15240"><clipPath id="clip89"><rect id="rect4864" width="18" height="19" x="0" y="0"/></clipPath><clipPath id="clip90"><path id="path4861" d="m 0.898438,0.128906 h 16.25 v 17.882813 h -16.25 z m 0,0"/></clipPath><mask id="mask44"><g id="g4858" transform="matrix(0.26458333,0,0,0.26458333,89.358789,128.57765)" style="filter:url(#alpha)"><rect id="rect4856" width="3052.87" height="3351.5" x="0" y="0" style="fill:#000;fill-opacity:.14999402;stroke:none"/></g></mask><filter id="alpha" width="1" height="1" x="0" y="0" filterUnits="objectBoundingBox"><feColorMatrix id="feColorMatrix4149" in="SourceGraphic" type="matrix" values="0 0 0 0 1 0 0 0 0 1 0 0 0 0 1 0 0 0 1 0"/></filter><clipPath id="clipPath17821"><rect id="rect17819" width="18" height="19" x="0" y="0"/></clipPath><clipPath id="clipPath17825"><path id="path17823" d="m 0.898438,0.128906 h 16.25 v 17.882813 h -16.25 z m 0,0"/></clipPath><clipPath id="clip87"><rect id="rect4848" width="24" height="26" x="0" y="0"/></clipPath><clipPath id="clip88"><path id="path4845" d="m 0.683594,0.921875 h 22.679687 v 24.9375 H 0.683594 Z m 0,0"/></clipPath><mask id="mask43"><g id="g4842" transform="matrix(0.26458333,0,0,0.26458333,89.358789,128.57765)" style="filter:url(#alpha)"><rect id="rect4840" width="3052.87" height="3351.5" x="0" y="0" style="fill:#000;fill-opacity:.14999402;stroke:none"/></g></mask><filter id="filter17836" width="1" height="1" x="0" y="0" filterUnits="objectBoundingBox"><feColorMatrix id="feColorMatrix17834" in="SourceGraphic" type="matrix" values="0 0 0 0 1 0 0 0 0 1 0 0 0 0 1 0 0 0 1 0"/></filter><clipPath id="clipPath17840"><rect id="rect17838" width="24" height="26" x="0" y="0"/></clipPath><clipPath id="clipPath17844"><path id="path17842" d="m 0.683594,0.921875 h 22.679687 v 24.9375 H 0.683594 Z m 0,0"/></clipPath></defs><metadata id="metadata15243"/><g id="layer1" transform="translate(-88.611154,-121.73339)"><g id="g864" transform="translate(-10.583333)" style="display:inline"><path id="path858" d="m 104.88625,124.6438 c 0,1.53557 -1.24586,2.78136 -2.78134,2.78136 -1.5355,0 -2.781363,-1.24579 -2.781363,-2.78136 0,-1.53556 1.245863,-2.78135 2.781363,-2.78135 1.53548,0 2.78134,1.24579 2.78134,2.78135" style="display:inline;fill:silver;fill-opacity:1;fill-rule:nonzero;stroke:#4169e1;stroke-width:.25811988;stroke-miterlimit:4;stroke-dasharray:none;stroke-opacity:1"/><path style="display:inline;fill:#4169e1;fill-opacity:1;fill-rule:nonzero;stroke:none;stroke-width:.07854818;stroke-miterlimit:4;stroke-dasharray:none;stroke-opacity:1" id="path860" d="m 103.99006,124.64377 c 0,1.04075 -0.84442,1.88519 -1.88515,1.88519 -1.04074,0 -1.88516,-0.84444 -1.88516,-1.88519 0,-1.04072 0.84442,-1.88513 1.88516,-1.88513 1.04073,0 1.88515,0.84441 1.88515,1.88513"/><path id="path862" d="m 103.66,124.64378 c 0,0.85854 -0.69658,1.55513 -1.55509,1.55513 -0.85853,0 -1.55511,-0.69659 -1.55511,-1.55513 0,-0.85851 0.69658,-1.55507 1.55511,-1.55507 0.85851,0 1.55509,0.69656 1.55509,1.55507" style="display:inline;fill:#000;fill-opacity:1;fill-rule:nonzero;stroke:silver;stroke-width:.06479591;stroke-miterlimit:4;stroke-dasharray:none;stroke-opacity:1"/></g></g></svg>