<svg xmlns="http://www.w3.org/2000/svg" xmlns:svg="http://www.w3.org/2000/svg" id="svg7595" width="16" height="16" version="1.1" viewBox="0 0 4.233 4.233"><defs id="defs7589"><clipPath id="clip444"><path id="path24586" d="m 1201.582,338.19922 h 18 v 18 h -18 z m 0,0"/></clipPath></defs><metadata id="metadata7592"/><g id="layer1" transform="translate(-46.755712,-68.362203)"><text id="text825" x="48.057" y="71.47" xml:space="preserve" style="font-style:normal;font-variant:normal;font-weight:400;font-stretch:normal;font-size:2.82222199px;line-height:1.25;font-family:'DejaVu Sans Mono';-inkscape-font-specification:'DejaVu Sans Mono, Normal';font-variant-ligatures:normal;font-variant-caps:normal;font-variant-numeric:normal;font-feature-settings:normal;text-align:start;letter-spacing:0;word-spacing:0;writing-mode:lr-tb;text-anchor:start;clip-rule:nonzero;fill:#b22222;fill-opacity:1;stroke:none;stroke-width:.26458332"><tspan id="tspan856" x="48.057" y="71.47">2</tspan></text><ellipse style="opacity:1;fill:none;fill-opacity:1;stroke:#b22222;stroke-width:.18754056;stroke-linecap:butt;stroke-linejoin:miter;stroke-miterlimit:4;stroke-dasharray:none;stroke-opacity:1;paint-order:normal" id="path845" cx="48.872" cy="70.479" rx="1.626" ry="1.626"/><g style="font-style:normal;font-variant:normal;font-weight:400;font-stretch:normal;font-size:2.82222199px;line-height:1.25;font-family:'DejaVu Sans Mono';-inkscape-font-specification:'DejaVu Sans Mono, Normal';font-variant-ligatures:normal;font-variant-caps:normal;font-variant-numeric:normal;font-feature-settings:normal;text-align:start;letter-spacing:0;word-spacing:0;writing-mode:lr-tb;text-anchor:start;clip-rule:nonzero;fill:#b22222;fill-opacity:1;stroke:none;stroke-width:.26458332" id="text860" aria-label="2"><path id="path862" d="m 48.570599,71.235369 h 0.945334 v 0.234266 h -1.24988 v -0.234266 q 0.257693,-0.271474 0.450618,-0.479558 0.192926,-0.208083 0.265962,-0.293522 0.137803,-0.16812 0.186035,-0.271473 0.04823,-0.104731 0.04823,-0.213596 0,-0.172255 -0.101975,-0.270096 -0.100596,-0.09784 -0.276985,-0.09784 -0.125402,0 -0.263206,0.04547 -0.137803,0.04547 -0.292144,0.137804 v -0.28112 q 0.141938,-0.06752 0.278364,-0.101975 0.137804,-0.03445 0.271473,-0.03445 0.301791,0 0.48507,0.161231 0.184657,0.159852 0.184657,0.420301 0,0.132292 -0.06201,0.264584 -0.06063,0.132291 -0.198437,0.292144 -0.07717,0.08957 -0.22462,0.248046 -0.146072,0.158475 -0.446485,0.474046 z"/></g></g></svg>