<svg xmlns="http://www.w3.org/2000/svg" xmlns:svg="http://www.w3.org/2000/svg" id="svg2526" width="30" height="16" version="1.1" viewBox="0 0 7.937 4.233"><metadata id="metadata2523"/><g id="layer1" transform="translate(0,-292.76665)"><rect style="fill:#000;fill-opacity:.99447512;stroke-width:.50718451" id="rect3071" width="7.317" height="4.253" x="0" y="292.765"/><path style="fill:#7d0000;fill-opacity:1;stroke-width:.52900535" id="rect3071-1" d="m 2.4068404e-4,292.76542 v 4.25297 H 7.9601461 v -4.25297 z M 0.65059228,293.07496 H 7.3086907 v 3.63389 H 0.65059228 Z"/></g><g id="layer2"><flowRoot id="flowRoot815" transform="scale(0.26458333)" xml:space="preserve" style="font-style:normal;font-variant:normal;font-weight:400;font-stretch:normal;font-size:8px;line-height:1.25;font-family:'Segoe Script';-inkscape-font-specification:'Segoe Script';letter-spacing:0;word-spacing:0;fill:#000;fill-opacity:1;stroke:none"><flowRegion id="flowRegion817"><rect id="rect819" width="9.312" height="8.744" x="1.705" y="-5.687"/></flowRegion><flowPara id="flowPara821">sdffds</flowPara></flowRoot><flowRoot id="flowRoot823" transform="scale(0.26458333)" xml:space="preserve" style="font-style:normal;font-variant:normal;font-weight:400;font-stretch:normal;font-size:8px;line-height:1.25;font-family:'Segoe Script';-inkscape-font-specification:'Segoe Script';letter-spacing:0;word-spacing:0;fill:#000;fill-opacity:1;stroke:none"><flowRegion id="flowRegion825" style="font-style:normal;font-variant:normal;font-weight:400;font-stretch:normal;font-family:'Segoe Script';-inkscape-font-specification:'Segoe Script'"><rect id="rect827" width="20.759" height="9.598" x="-7.455" y="-5.563" style="font-style:normal;font-variant:normal;font-weight:400;font-stretch:normal;font-family:'Segoe Script';-inkscape-font-specification:'Segoe Script'"/></flowRegion><flowPara id="flowPara829">sdfds</flowPara></flowRoot><g style="font-style:normal;font-variant:normal;font-weight:400;font-stretch:normal;font-size:12px;line-height:1.25;font-family:'Alien Encounters';-inkscape-font-specification:'Alien Encounters';letter-spacing:0;word-spacing:0;fill:#fff;fill-opacity:1;stroke:none" id="flowRoot831" aria-label="OFF" transform="matrix(0.26458333,0,0,0.26458333,1.8426339,2.1615513)"><path style="font-size:12px" id="path827" d="m 4.4799219,-1.7310036 h -1.8 v -0.72 h 1.8 z m -0.096,-1.92 h -7.008 q 0.312,-0.72 1.104,-0.72 h 4.8 q 0.792,0 1.104,0.72 z m 0.096,2.87999999 h -1.8 V -1.4910036 h 1.8 z m 0,-1.91999999 h -7.2 v -0.48 q 0,-0.12 0.024,-0.24 h 7.152 q 0.024,0.12 0.024,0.24 z m 0,2.87999999 h -1.8 v -0.72 h 1.8 z m 0,0.96000001 h -1.8 V 0.42899639 h 1.8 z m 0,0.96 h -1.8 v -0.72 h 1.8 z m -5.40000002,-3.84 H -2.7200781 v -0.72 h 1.79999998 z m 0,0.95999999 H -2.7200781 V -1.4910036 h 1.79999998 z m 0,0.96 H -2.7200781 v -0.72 h 1.79999998 z M 4.4799219,2.8289964 q 0,0.12 -0.024,0.24 h -7.152 q -0.024,-0.12 -0.024,-0.24 v -0.48 h 7.2 z m -5.40000002,-1.68 H -2.7200781 V 0.42899639 h 1.79999998 z m 5.30400002,2.16 q -0.312,0.72 -1.104,0.72 h -4.8 q -0.792,0 -1.104,-0.72 z m -5.30400002,-1.2 H -2.7200781 v -0.72 h 1.79999998 z"/><path style="font-size:12px" id="path829" d="M 11.801797,-3.6510036 H 5.2977969 q 0.312,-0.72 1.104,-0.72 h 5.4000001 z m 0,0.96 H 5.2017969 v -0.48 q 0,-0.12 0.024,-0.24 h 6.5760001 z m 0,1.91999999 H 5.2017969 V -1.4910036 h 6.6000001 z m 0,0.96 H 5.2017969 v -0.72 H 11.801797 Z M 7.0017969,-1.7310036 h -1.8 v -0.72 h 1.8 z m 0,2.88 h -1.8 V 0.42899639 h 1.8 z m 0,0.96 h -1.8 v -0.72 h 1.8 z m 0,0.96 h -1.8 v -0.72 h 1.8 z m 0,0.96 h -1.8 v -0.72 h 1.8 z"/><path style="font-size:12px" id="path831" d="m 19.114297,-3.6510036 h -6.504 q 0.312,-0.72 1.104,-0.72 h 5.4 z m 0,0.96 h -6.6 v -0.48 q 0,-0.12 0.024,-0.24 h 6.576 z m 0,1.91999999 h -6.6 V -1.4910036 h 6.6 z m 0,0.96 h -6.6 v -0.72 h 6.6 z m -4.8,-1.91999999 h -1.8 v -0.72 h 1.8 z m 0,2.88 h -1.8 V 0.42899639 h 1.8 z m 0,0.96 h -1.8 v -0.72 h 1.8 z m 0,0.96 h -1.8 v -0.72 h 1.8 z m 0,0.96 h -1.8 v -0.72 h 1.8 z"/></g></g></svg>