<svg xmlns="http://www.w3.org/2000/svg" xmlns:svg="http://www.w3.org/2000/svg" id="svg2526" width="30" height="16" version="1.1" viewBox="0 0 7.937 4.233"><metadata id="metadata2523"/><g id="layer1" transform="translate(0,-292.76665)"><rect style="fill:#000;fill-opacity:.99447512;stroke-width:.50718451" id="rect3071" width="7.317" height="4.253" x="0" y="292.765"/><path style="fill:#7d0000;fill-opacity:1;stroke-width:.52900535" id="rect3071-1" d="m 2.4068404e-4,292.76542 v 4.25297 H 7.9601461 v -4.25297 z M 0.65059228,293.07496 H 7.3086907 v 3.63389 H 0.65059228 Z"/></g><g id="layer2"><flowRoot id="flowRoot815" transform="scale(0.26458333)" xml:space="preserve" style="font-style:normal;font-variant:normal;font-weight:400;font-stretch:normal;font-size:8px;line-height:1.25;font-family:'Segoe Script';-inkscape-font-specification:'Segoe Script';letter-spacing:0;word-spacing:0;fill:#000;fill-opacity:1;stroke:none"><flowRegion id="flowRegion817"><rect id="rect819" width="9.312" height="8.744" x="1.705" y="-5.687"/></flowRegion><flowPara id="flowPara821">sdffds</flowPara></flowRoot><flowRoot id="flowRoot823" transform="scale(0.26458333)" xml:space="preserve" style="font-style:normal;font-variant:normal;font-weight:400;font-stretch:normal;font-size:8px;line-height:1.25;font-family:'Segoe Script';-inkscape-font-specification:'Segoe Script';letter-spacing:0;word-spacing:0;fill:#000;fill-opacity:1;stroke:none"><flowRegion id="flowRegion825" style="font-style:normal;font-variant:normal;font-weight:400;font-stretch:normal;font-family:'Segoe Script';-inkscape-font-specification:'Segoe Script'"><rect id="rect827" width="20.759" height="9.598" x="-7.455" y="-5.563" style="font-style:normal;font-variant:normal;font-weight:400;font-stretch:normal;font-family:'Segoe Script';-inkscape-font-specification:'Segoe Script'"/></flowRegion><flowPara id="flowPara829">sdfds</flowPara></flowRoot><g style="font-style:normal;font-variant:normal;font-weight:400;font-stretch:normal;font-size:12px;line-height:1.25;font-family:'Alien Encounters';-inkscape-font-specification:'Alien Encounters';letter-spacing:0;word-spacing:0;fill:#fff;fill-opacity:1;stroke:none" id="flowRoot831" aria-label="LP" transform="matrix(0.26458333,0,0,0.26458333,2.6340215,2.1733631)"><path style="font-size:12px" id="path1397" d="M -0.92007812,-3.6510036 H -2.7200781 v -0.72 h 1.79999998 z m 0,0.96 H -2.7200781 v -0.72 h 1.79999998 z m 0,0.96 H -2.7200781 v -0.72 h 1.79999998 z m 0,0.95999999 H -2.7200781 V -1.4910036 h 1.79999998 z m 0,0.96 H -2.7200781 v -0.72 h 1.79999998 z M 3.8799219,3.0689964 h -6.576 q -0.024,-0.12 -0.024,-0.24 v -0.48 h 6.6 z m -4.80000002,-1.92 H -2.7200781 V 0.42899639 h 1.79999998 z m 4.80000002,2.88 h -5.4 q -0.792,0 -1.104,-0.72 h 6.504 z m -4.80000002,-1.92 H -2.7200781 v -0.72 h 1.79999998 z"/><path style="font-size:12px" id="path1399" d="M 11.792422,-1.7310036 H 9.9924219 v -0.72 h 1.8000001 z m -0.096,-1.92 H 4.5924219 v -0.72 h 6.0000001 q 0.792,0 1.104,0.72 z m 0.096,0.96 H 4.5924219 v -0.72 h 7.1760001 q 0.024,0.12 0.024,0.24 z m 0,1.68 q 0,0.11999999 -0.024,0.23999999 H 4.5924219 V -1.4910036 h 7.2000001 z m -0.096,0.47999999 q -0.312,0.72 -1.104,0.72 H 4.5924219 v -0.72 z M 6.3924219,-1.7310036 h -1.8 v -0.72 h 1.8 z m 0,2.88 h -1.8 V 0.42899639 h 1.8 z m 0,0.96 h -1.8 v -0.72 h 1.8 z m 0,0.96 h -1.8 v -0.72 h 1.8 z m 0,0.96 h -1.8 v -0.72 h 1.8 z"/></g></g></svg>