<svg xmlns="http://www.w3.org/2000/svg" xmlns:svg="http://www.w3.org/2000/svg" id="svg8" width="17" height="17" version="1.1" viewBox="0 0 4.498 4.498"><metadata id="metadata5"/><g id="layer1" transform="translate(0,-292.50208)"><ellipse style="fill:#e6e6e6;fill-opacity:1;stroke-width:.07590488" id="path817" cx="2.254" cy="294.756" rx="2.238" ry="2.229"/><ellipse style="fill:#666;fill-opacity:1;stroke-width:.06261296" id="path817-2" cx="2.254" cy="294.747" rx="1.846" ry="1.838"/><ellipse style="fill:#000;fill-opacity:1;stroke-width:.03772731" id="path817-2-7" cx="2.254" cy="294.747" rx="1.112" ry="1.108"/><path style="fill:#999;fill-opacity:1;stroke-width:.06748317" id="path817-2-78" d="m 2.2544695,292.7745 a 1.9894166,1.9813946 0 0 0 -1.98953838,1.98148 1.9894166,1.9813946 0 0 0 1.98953838,1.98133 1.9894166,1.9813946 0 0 0 1.9893916,-1.98133 1.9894166,1.9813946 0 0 0 -1.9893916,-1.98148 z m 0,0.37202 a 1.6160151,1.6094987 0 0 1 1.6159046,1.60946 1.6160151,1.6094987 0 0 1 -1.6159046,1.60945 1.6160151,1.6094987 0 0 1 -1.6160511,-1.60945 1.6160151,1.6094987 0 0 1 1.6160511,-1.60946 z"/></g></svg>