<svg xmlns="http://www.w3.org/2000/svg" xmlns:svg="http://www.w3.org/2000/svg" id="svg8" width="17" height="17" version="1.1" viewBox="0 0 4.498 4.498"><metadata id="metadata5"/><g id="layer1" transform="translate(0,-292.50208)"><ellipse style="fill:#e6e6e6;fill-opacity:1;stroke-width:.07590164" id="path817" cx="2.254" cy="294.736" rx="2.238" ry="2.229"/><ellipse style="fill:#ccc;fill-opacity:1;stroke-width:.0626103" id="path817-2" cx="2.254" cy="294.727" rx="1.846" ry="1.838"/><ellipse style="fill:#000;fill-opacity:1;stroke-width:.03772571" id="path817-2-7" cx="2.254" cy="294.727" rx="1.112" ry="1.108"/><path style="fill:#999;fill-opacity:1;stroke-width:.06748028" id="path817-2-78" d="m 2.2543741,292.75481 a 1.9893319,1.9813102 0 0 0 -1.98945356,1.98138 1.9893319,1.9813102 0 0 0 1.98945356,1.98125 1.9893319,1.9813102 0 0 0 1.9893068,-1.98125 1.9893319,1.9813102 0 0 0 -1.9893068,-1.98138 z m 0,0.37199 a 1.6159462,1.6094301 0 0 1 1.6158357,1.60939 1.6159462,1.6094301 0 0 1 -1.6158357,1.60938 1.6159462,1.6094301 0 0 1 -1.61598217,-1.60938 1.6159462,1.6094301 0 0 1 1.61598217,-1.60939 z"/></g></svg>