<svg xmlns="http://www.w3.org/2000/svg" xmlns:svg="http://www.w3.org/2000/svg" id="svg2526" width="30" height="16" version="1.1" viewBox="0 0 7.937 4.233"><metadata id="metadata2523"/><g id="layer1" transform="translate(0,-292.76665)"><rect style="fill:#000;fill-opacity:.99447512;stroke-width:.50718451" id="rect3071" width="7.317" height="4.253" x="0" y="292.765"/><path style="fill:#7d0000;fill-opacity:1;stroke-width:.52900535" id="rect3071-1" d="m 2.4068404e-4,292.76542 v 4.25297 H 7.9601461 v -4.25297 z M 0.65059228,293.07496 H 7.3086907 v 3.63389 H 0.65059228 Z"/></g><g id="layer2"><flowRoot id="flowRoot815" transform="scale(0.26458333)" xml:space="preserve" style="font-style:normal;font-variant:normal;font-weight:400;font-stretch:normal;font-size:8px;line-height:1.25;font-family:'Segoe Script';-inkscape-font-specification:'Segoe Script';letter-spacing:0;word-spacing:0;fill:#000;fill-opacity:1;stroke:none"><flowRegion id="flowRegion817"><rect id="rect819" width="9.312" height="8.744" x="1.705" y="-5.687"/></flowRegion><flowPara id="flowPara821">sdffds</flowPara></flowRoot><flowRoot id="flowRoot823" transform="scale(0.26458333)" xml:space="preserve" style="font-style:normal;font-variant:normal;font-weight:400;font-stretch:normal;font-size:8px;line-height:1.25;font-family:'Segoe Script';-inkscape-font-specification:'Segoe Script';letter-spacing:0;word-spacing:0;fill:#000;fill-opacity:1;stroke:none"><flowRegion id="flowRegion825" style="font-style:normal;font-variant:normal;font-weight:400;font-stretch:normal;font-family:'Segoe Script';-inkscape-font-specification:'Segoe Script'"><rect id="rect827" width="20.759" height="9.598" x="-7.455" y="-5.563" style="font-style:normal;font-variant:normal;font-weight:400;font-stretch:normal;font-family:'Segoe Script';-inkscape-font-specification:'Segoe Script'"/></flowRegion><flowPara id="flowPara829">sdfds</flowPara></flowRoot><g style="font-style:normal;font-variant:normal;font-weight:400;font-stretch:normal;font-size:8px;line-height:1.25;font-family:'Alien Encounters';-inkscape-font-specification:'Alien Encounters';letter-spacing:0;word-spacing:0;fill:#fff;fill-opacity:1;stroke:none" id="flowRoot831" aria-label="NOTCH" transform="matrix(0.22940553,0,0,0.30254969,1.7191027,2.9198101)"><path style="font-size:8px" id="path3101" d="M 1.9599219,-5.1807472 H 0.75992187 v -0.48 H 1.9599219 Z m 0,0.64 H 0.75992187 v -0.48 H 1.9599219 Z m 0,0.64 H 0.75992187 v -0.48 H 1.9599219 Z m 0,0.64 H 0.75992187 v -0.48 H 1.9599219 Z m 0,0.64 H 0.75992187 v -0.48 H 1.9599219 Z m -3.256,-2.56 h -1.544 v -0.48 h 1.2 z m 0.45599998,0.64 H -2.8400781 v -0.48 h 1.656 z m 2.80000002,2.56 h -2.56800002 l -0.344,-0.48 h 1.6 l 0.11199999,0.16 v -0.16 H 1.9599219 Z m -2.34400002,-1.92 H -2.8400781 v -0.48 h 2.11199997 z m 0.912,1.28 H -1.0720781 l -0.336,-0.48 h 1.59999998 z m 1.43200002,1.28 h -2.11200003 l -0.34399999,-0.48 H 1.9599219 Z m -1.88800002,-1.92 H -1.5280781 l -0.112,-0.16 v 0.16 h -1.2 v -0.48 h 2.56799998 z m 1.88800002,2.56 H 0.30392187 l -0.34399999,-0.48 H 1.9599219 Z m 0,0.64 H 0.75992187 l -0.34399999,-0.48 H 1.9599219 Z m -3.6,-2.56 h -1.2 v -0.48 h 1.2 z m 0,0.64 h -1.2 v -0.48 h 1.2 z m 0,0.64 h -1.2 v -0.48 h 1.2 z m 0,0.64 h -1.2 v -0.48 h 1.2 z m 0,0.64 h -1.2 v -0.48 h 1.2 z"/><path style="font-size:8px" id="path3103" d="m 7.2411719,-3.9007472 h -1.2 v -0.48 h 1.2 z m -0.064,-1.28 h -4.672 q 0.208,-0.48 0.736,-0.48 h 3.2 q 0.528,0 0.736,0.48 z m 0.064,1.92 h -1.2 v -0.48 h 1.2 z m 0,-1.28 h -4.8 v -0.32 q 0,-0.08 0.016,-0.16 h 4.768 q 0.016,0.08 0.016,0.16 z m 0,1.92 h -1.2 v -0.48 h 1.2 z m 0,0.64 h -1.2 v -0.48 h 1.2 z m 0,0.64 h -1.2 v -0.48 h 1.2 z m -3.6,-2.56 h -1.2 v -0.48 h 1.2 z m 0,0.64 h -1.2 v -0.48 h 1.2 z m 0,0.64 h -1.2 v -0.48 h 1.2 z m 3.6,1.76 q 0,0.08 -0.016,0.16 h -4.768 q -0.016,-0.08 -0.016,-0.16 v -0.32 h 4.8 z m -3.6,-1.12 h -1.2 v -0.48 h 1.2 z m 3.536,1.44 q -0.208,0.48 -0.736,0.48 h -3.2 q -0.528,0 -0.736,-0.48 z m -3.536,-0.8 h -1.2 v -0.48 h 1.2 z"/><path style="font-size:8px" id="path3105" d="M 12.522422,-5.1807472 H 7.7224219 v -0.48 h 4.8000001 z m 0,0.64 H 7.7224219 v -0.48 h 4.8000001 z m -1.72,0.64 H 9.6024219 v -0.48 h 1.2000001 z m 0,0.64 H 9.6024219 v -0.48 h 1.2000001 z m 0,0.64 H 9.6024219 v -0.48 h 1.2000001 z m 0,0.64 H 9.6024219 v -0.48 h 1.2000001 z m 0,0.64 H 9.6024219 v -0.48 h 1.2000001 z m 0,0.64 H 9.6024219 v -0.48 h 1.2000001 z m 0,0.64 H 9.6024219 v -0.48 h 1.2000001 z"/><path style="font-size:8px" id="path3107" d="m 17.403672,-5.1807472 h -4.336 q 0.208,-0.48 0.736,-0.48 h 3.6 z m 0,0.64 h -4.4 v -0.32 q 0,-0.08 0.016,-0.16 h 4.384 z m -3.2,0.64 h -1.2 v -0.48 h 1.2 z m 0,0.64 h -1.2 v -0.48 h 1.2 z m 0,0.64 h -1.2 v -0.48 h 1.2 z m 3.2,1.92 h -4.384 q -0.016,-0.08 -0.016,-0.16 v -0.32 h 4.4 z m -3.2,-1.28 h -1.2 v -0.48 h 1.2 z m 3.2,1.92 h -3.6 q -0.528,0 -0.736,-0.48 h 4.336 z m -3.2,-1.28 h -1.2 v -0.48 h 1.2 z"/><path style="font-size:8px" id="path3109" d="m 22.678672,-5.1807472 h -1.2 v -0.48 h 1.2 z m 0,0.64 h -1.2 v -0.48 h 1.2 z m 0,0.64 h -1.2 v -0.48 h 1.2 z m 0,1.92 h -1.2 v -0.48 h 1.2 z m -3.6,-3.2 h -1.2 v -0.48 h 1.2 z m 3.6,1.92 h -4.8 v -0.48 h 4.8 z m 0,1.92 h -1.2 v -0.48 h 1.2 z m -3.6,-3.2 h -1.2 v -0.48 h 1.2 z m 3.6,1.92 h -4.8 v -0.48 h 4.8 z m 0,1.92 h -1.2 v -0.48 h 1.2 z m -3.6,-3.2 h -1.2 v -0.48 h 1.2 z m 3.6,3.84 h -1.2 v -0.48 h 1.2 z m -3.6,-1.92 h -1.2 v -0.48 h 1.2 z m 0,0.64 h -1.2 v -0.48 h 1.2 z m 0,0.64 h -1.2 v -0.48 h 1.2 z m 0,0.64 h -1.2 v -0.48 h 1.2 z"/></g></g></svg>