<svg xmlns="http://www.w3.org/2000/svg" xmlns:svg="http://www.w3.org/2000/svg" id="svg111794" width="28" height="28" version="1.1" viewBox="0 0 7.408 7.408"><metadata id="metadata111791"/><g id="layer1" transform="translate(-168.09312,-67.987779)"><path style="fill:#7a7a7a;fill-opacity:1;fill-rule:nonzero;stroke:none;stroke-width:.32668692" id="path110598" d="m 175.501,71.692809 c 0,2.045621 -1.65767,3.703303 -3.70329,3.703303 -2.04564,0 -3.70459,-1.657682 -3.70459,-3.703303 0,-2.046897 1.65895,-3.704578 3.70459,-3.704578 2.04562,0 3.70329,1.657681 3.70329,3.704578"/><path id="path837" d="m 175.23287,71.692765 c 0,1.897545 -1.53765,3.435228 -3.4352,3.435228 -1.89757,0 -3.43642,-1.537683 -3.43642,-3.435228 0,-1.898731 1.53885,-3.436415 3.43642,-3.436415 1.89755,0 3.4352,1.537684 3.4352,3.436415" style="fill:#ddd;fill-opacity:1;fill-rule:nonzero;stroke:none;stroke-width:.30303925"/><path style="fill:#fcfcfc;fill-opacity:1;fill-rule:nonzero;stroke:none;stroke-width:.30844381" id="path839" d="m 175.29407,71.692853 c 0,1.931385 -1.56508,3.496496 -3.49644,3.496496 -1.93146,0 -3.49772,-1.565111 -3.49772,-3.496496 0,-1.932593 1.56626,-3.497704 3.49772,-3.497704 1.93136,0 3.49644,1.565111 3.49644,3.497704"/><rect style="opacity:1;fill:#e5e5e5;fill-opacity:1;stroke:none;stroke-width:.53254229;stroke-linecap:butt;stroke-linejoin:miter;stroke-miterlimit:4;stroke-dasharray:none;stroke-opacity:1;paint-order:stroke fill markers" id="rect847" width="4.968" height="4.968" x="68.301" y="169.689" transform="rotate(-45)"/><rect id="rect851" width="4.968" height="4.968" x="169.313" y="69.208" style="opacity:1;fill:#ddd;fill-opacity:1;stroke:none;stroke-width:.53254229;stroke-linecap:butt;stroke-linejoin:miter;stroke-miterlimit:4;stroke-dasharray:none;stroke-opacity:1;paint-order:stroke fill markers"/><path id="path1671" d="m 173.91395,71.692536 c 0,1.169135 -0.94738,2.11655 -2.11651,2.11655 -1.16918,0 -2.11726,-0.947415 -2.11726,-2.11655 0,-1.169864 0.94808,-2.117279 2.11726,-2.117279 1.16913,0 2.11651,0.947415 2.11651,2.117279" style="fill:#bababa;fill-opacity:1;fill-rule:nonzero;stroke:#fafafa;stroke-width:.18671156;stroke-opacity:1"/><rect style="opacity:1;fill:#030303;fill-opacity:1;stroke:none;stroke-width:.21330523;stroke-linecap:butt;stroke-linejoin:miter;stroke-miterlimit:4;stroke-dasharray:none;stroke-opacity:1;paint-order:stroke fill markers" id="rect824" width=".468" height="1.588" x="171.563" y="67.988"/></g></svg>