<svg xmlns="http://www.w3.org/2000/svg" xmlns:svg="http://www.w3.org/2000/svg" id="svg2062" width="17.854" height="6.58" version="1.1" viewBox="0 0 4.724 1.741"><defs id="defs2056"><clipPath id="clipPath2002" clipPathUnits="userSpaceOnUse"><rect style="display:inline;opacity:.68900003;fill:maroon;fill-opacity:1;fill-rule:nonzero;stroke:none;stroke-width:.06352611;stroke-linecap:butt;stroke-linejoin:miter;stroke-miterlimit:4;stroke-dasharray:none;stroke-dashoffset:0;stroke-opacity:1;paint-order:markers stroke fill" id="rect2004" width="8.973" height="8.973" x="170.965" y="218.58" rx=".314" ry=".319"/></clipPath><filter style="color-interpolation-filters:sRGB" id="filter1827" width="2.595" height="2.578" x="-.797" y="-.789"><feGaussianBlur id="feGaussianBlur1829" stdDeviation="1.962"/></filter><clipPath id="clipPath2006" clipPathUnits="userSpaceOnUse"><rect style="display:inline;opacity:.68900003;fill:maroon;fill-opacity:1;fill-rule:nonzero;stroke:none;stroke-width:.06352611;stroke-linecap:butt;stroke-linejoin:miter;stroke-miterlimit:4;stroke-dasharray:none;stroke-dashoffset:0;stroke-opacity:1;paint-order:markers stroke fill" id="rect2008" width="8.973" height="8.973" x="170.965" y="218.58" rx=".314" ry=".319"/></clipPath></defs><metadata id="metadata2059"/><g id="layer1" transform="translate(-101.3526,-120.17705)"><g id="g2659" transform="translate(-2.0198103,-1.1100656)"><rect id="rect1450-0-5-1" width="2.731" height="2.731" x="106.485" y="117.241" rx=".095" ry=".097" style="opacity:1;fill:#1a1a1a;fill-opacity:1;fill-rule:nonzero;stroke:none;stroke-width:.0193361;stroke-linecap:butt;stroke-linejoin:miter;stroke-miterlimit:4;stroke-dasharray:none;stroke-dashoffset:0;stroke-opacity:1;paint-order:markers stroke fill"/><path id="rect1450-7-9-8-0-1" d="m 106.70646,117.37715 c -0.0476,0 -0.0858,0.0389 -0.0858,0.0874 v 2.2847 c 0,0.0485 0.0382,0.0874 0.0858,0.0874 h 2.28742 c 0.0476,0 0.0863,-0.0389 0.0863,-0.0874 v -2.2847 c 0,-0.0485 -0.0387,-0.0874 -0.0863,-0.0874 z m 0.0689,0.0738 h 2.15006 c 0.0447,0 0.0804,0.037 0.0804,0.0825 v 2.1468 c 0,0.0456 -0.0356,0.0825 -0.0804,0.0825 h -2.15006 c -0.0447,0 -0.0809,-0.037 -0.0809,-0.0825 v -2.1468 c 0,-0.0455 0.0362,-0.0825 0.0809,-0.0825 z" style="display:inline;opacity:1;fill:#3d3d3d;fill-opacity:1;fill-rule:nonzero;stroke:none;stroke-width:.01741343;stroke-linecap:butt;stroke-linejoin:miter;stroke-miterlimit:4;stroke-dasharray:none;stroke-dashoffset:0;stroke-opacity:1;paint-order:markers stroke fill"/><rect id="rect1450-7-9-2-9" width="2.374" height="2.374" x="106.663" y="117.42" rx=".083" ry=".084" style="display:inline;opacity:1;fill:maroon;fill-opacity:1;fill-rule:nonzero;stroke:none;stroke-width:.01680795;stroke-linecap:butt;stroke-linejoin:miter;stroke-miterlimit:4;stroke-dasharray:none;stroke-dashoffset:0;stroke-opacity:1;paint-order:markers stroke fill"/></g><g id="g2667" transform="translate(0,-1.0866815)"><ellipse style="opacity:1;fill:#f2f2f2;fill-opacity:.80319148;fill-rule:nonzero;stroke:none;stroke-width:.2;stroke-linecap:butt;stroke-linejoin:miter;stroke-miterlimit:4;stroke-dasharray:none;stroke-dashoffset:0;stroke-opacity:1;paint-order:markers stroke fill;filter:url(#filter1827)" id="ellipse2000" cx="175.451" cy="223.066" clip-path="url(#clipPath2002)" rx="2.953" ry="2.984" transform="matrix(0.26458333,0,0,0.26458333,55.88294,59.563863)"/><rect id="rect1450-0-5" width="2.731" height="2.731" x="100.939" y="117.218" rx=".095" ry=".097" style="opacity:1;fill:#1a1a1a;fill-opacity:1;fill-rule:nonzero;stroke:none;stroke-width:.0193361;stroke-linecap:butt;stroke-linejoin:miter;stroke-miterlimit:4;stroke-dasharray:none;stroke-dashoffset:0;stroke-opacity:1;paint-order:markers stroke fill"/><rect id="rect1450-7-9-2" width="2.374" height="2.374" x="101.117" y="117.397" rx=".083" ry=".084" style="display:inline;opacity:1;fill:maroon;fill-opacity:1;fill-rule:nonzero;stroke:none;stroke-width:.01680795;stroke-linecap:butt;stroke-linejoin:miter;stroke-miterlimit:4;stroke-dasharray:none;stroke-dashoffset:0;stroke-opacity:1;paint-order:markers stroke fill"/><path id="rect1450-7-9-8-0" d="m 101.16034,117.35377 c -0.0476,0 -0.0858,0.0389 -0.0858,0.0874 v 2.28471 c 0,0.0485 0.0382,0.0874 0.0858,0.0874 h 2.28742 c 0.0476,0 0.0863,-0.0389 0.0863,-0.0874 v -2.28471 c 0,-0.0485 -0.0387,-0.0874 -0.0863,-0.0874 z m 0.069,0.0738 h 2.15006 c 0.0447,0 0.0803,0.037 0.0803,0.0825 v 2.14679 c 0,0.0456 -0.0356,0.0825 -0.0803,0.0825 h -2.15006 c -0.0448,0 -0.0809,-0.037 -0.0809,-0.0825 v -2.14679 c 0,-0.0456 0.0361,-0.0825 0.0809,-0.0825 z" style="display:inline;opacity:1;fill:#3d3d3d;fill-opacity:1;fill-rule:nonzero;stroke:none;stroke-width:.01741343;stroke-linecap:butt;stroke-linejoin:miter;stroke-miterlimit:4;stroke-dasharray:none;stroke-dashoffset:0;stroke-opacity:1;paint-order:markers stroke fill"/><ellipse id="path1636" cx="175.451" cy="223.066" clip-path="url(#clipPath2006)" rx="2.953" ry="2.984" transform="matrix(0.26458333,0,0,0.26458333,55.88294,59.563863)" style="opacity:1;fill:#f2f2f2;fill-opacity:.80319148;fill-rule:nonzero;stroke:none;stroke-width:.2;stroke-linecap:butt;stroke-linejoin:miter;stroke-miterlimit:4;stroke-dasharray:none;stroke-dashoffset:0;stroke-opacity:1;paint-order:markers stroke fill;filter:url(#filter1827)"/><rect style="display:inline;opacity:.58399999;fill:maroon;fill-opacity:1;fill-rule:nonzero;stroke:none;stroke-width:.01680795;stroke-linecap:butt;stroke-linejoin:miter;stroke-miterlimit:4;stroke-dasharray:none;stroke-dashoffset:0;stroke-opacity:1;paint-order:markers stroke fill" id="rect2012" width="2.374" height="2.374" x="101.117" y="117.397" rx=".083" ry=".084"/></g></g></svg>