<svg xmlns="http://www.w3.org/2000/svg" xmlns:svg="http://www.w3.org/2000/svg" xmlns:xlink="http://www.w3.org/1999/xlink" id="svg2199" width="9.157" height="5.77" version="1.1" viewBox="0 0 9.157 5.77"><defs id="defs2193"><linearGradient id="linearGradient839"><stop style="stop-color:#fffcd0;stop-opacity:1" id="stop835" offset="0"/><stop style="stop-color:#fffcd0;stop-opacity:0" id="stop837" offset="1"/></linearGradient><radialGradient id="radialGradient841" cx="524.332" cy="906.787" r="4.324" fx="524.332" fy="906.787" gradientTransform="matrix(1,0,0,0.11563849,-6.3765875,820.86752)" gradientUnits="userSpaceOnUse" xlink:href="#linearGradient839"/><filter style="color-interpolation-filters:sRGB" id="filter1059" width="1.082" height="1.92" x="-.041" y="-.46"><feGaussianBlur id="feGaussianBlur1061" stdDeviation=".145"/></filter><filter style="color-interpolation-filters:sRGB" id="filter1091" width="1.176" height="1.086" x="-.088" y="-.043"><feGaussianBlur id="feGaussianBlur1093" stdDeviation=".088"/></filter></defs><metadata id="metadata2196"/><g id="layer1" transform="translate(-509.60644,-893.46498)"><rect style="opacity:1;fill:#000;fill-opacity:1;fill-rule:evenodd;stroke:none;stroke-width:.94499999;stroke-linecap:butt;stroke-linejoin:round;stroke-miterlimit:4;stroke-dasharray:none;stroke-dashoffset:0;stroke-opacity:1;paint-order:fill markers stroke" id="rect825" width="23.107" height="18.435" x="502.584" y="911.011" rx="1.158" ry="1.291"/><path id="path5462" d="m 513.63207,925.22695 h 8.64764 v 1 h -8.64764 z" style="display:inline;opacity:.531;fill:url(#radialGradient841);fill-opacity:1;fill-rule:evenodd;stroke:none;stroke-width:.27716106"/><g style="display:inline;opacity:.5979996;fill:#c4c0a2;fill-opacity:1;filter:url(#filter1091)" id="g2160" transform="matrix(-1,0,0,1,448.34356,127.76497)"><path style="fill:#c4c0a2;fill-opacity:1" id="path2156" d="m -66.558004,765.91247 v 3.14453 l 0.5,1.8125 h 0.4375 l 0.5,-1.8125 v -2.65625 l 0.488281,-0.48828 z"/><g id="g1096"><path style="fill:#c4c0a2;fill-opacity:1" id="path2158" d="m -65.124385,765.91247 v 3.14453 l -0.5,1.8125 h -0.4375 l -0.5,-1.8125 v -2.65625 l -0.488281,-0.48828 z"/></g></g><path style="opacity:1;fill:#767361;fill-opacity:1;fill-rule:evenodd;stroke:none;stroke-width:.56141371;stroke-linecap:butt;stroke-linejoin:round;stroke-miterlimit:4;stroke-dasharray:none;stroke-dashoffset:0;stroke-opacity:1;paint-order:fill markers stroke;filter:url(#filter1059)" id="path853" d="m 509.96293,907.63895 a 4.2300138,0.37880725 0 0 1 4.41011,-0.35478 4.2300138,0.37880725 0 0 1 4.04017,0.3885 4.2300138,0.37880725 0 0 1 -4.26519,0.36872 4.2300138,0.37880725 0 0 1 -4.19316,-0.37528"/></g></svg>