<svg xmlns="http://www.w3.org/2000/svg" xmlns:svg="http://www.w3.org/2000/svg" xmlns:xlink="http://www.w3.org/1999/xlink" id="svg3542" width="24" height="26.116" version="1.1" viewBox="0 0 6.35 6.91"><defs id="defs3536"><clipPath id="clipPath2926" clipPathUnits="userSpaceOnUse"><ellipse style="opacity:1;fill:#ccc;fill-opacity:1;fill-rule:evenodd;stroke:none;stroke-width:.25423375;stroke-linecap:butt;stroke-linejoin:round;stroke-miterlimit:4;stroke-dasharray:none;stroke-dashoffset:0;stroke-opacity:1;paint-order:fill markers stroke" id="ellipse2928" cx="35.756" cy="213.664" rx="3.942" ry="4.076"/></clipPath><filter style="color-interpolation-filters:sRGB" id="filter972" width="1.883" height="1.543" x="-.441" y="-.271"><feGaussianBlur id="feGaussianBlur974" stdDeviation=".477"/></filter><filter style="color-interpolation-filters:sRGB" id="filter1298" width="2.193" height="2.193" x="-.596" y="-.596"><feGaussianBlur id="feGaussianBlur1300" stdDeviation=".131"/></filter><linearGradient id="linearGradient3321" x1="42.902" x2="49.952" y1="197.156" y2="197.156" gradientUnits="userSpaceOnUse" xlink:href="#linearGradient3146"/><linearGradient id="linearGradient3146"><stop style="stop-color:#636363;stop-opacity:1" id="stop3142" offset="0"/><stop style="stop-color:#636363;stop-opacity:0" id="stop3144" offset="1"/></linearGradient><filter style="color-interpolation-filters:sRGB" id="filter3236" width="1.032" height="1.041" x="-.016" y="-.021"><feGaussianBlur id="feGaussianBlur3238" stdDeviation=".047"/></filter><filter style="color-interpolation-filters:sRGB" id="filter3138" width="1.094" height="1.304" x="-.047" y="-.152"><feGaussianBlur id="feGaussianBlur3140" stdDeviation=".462"/></filter><filter style="color-interpolation-filters:sRGB" id="filter3069" width="1.048" height="1.048" x="-.024" y="-.024"><feGaussianBlur id="feGaussianBlur3071" stdDeviation=".423"/></filter><filter style="color-interpolation-filters:sRGB" id="filter2990" width="1.048" height="1.048" x="-.024" y="-.024"><feGaussianBlur id="feGaussianBlur2992" stdDeviation=".083"/></filter><filter style="color-interpolation-filters:sRGB" id="filter1796" width="1.024" height="1.024" x="-.012" y="-.012"><feGaussianBlur id="feGaussianBlur1798" stdDeviation=".101"/></filter><filter style="color-interpolation-filters:sRGB" id="filter3018" width="1.024" height="1.024" x="-.012" y="-.012"><feGaussianBlur id="feGaussianBlur3020" stdDeviation=".078"/></filter><filter style="color-interpolation-filters:sRGB" id="filter3056" width="1.192" height="1.192" x="-.096" y="-.096"><feGaussianBlur id="feGaussianBlur3058" stdDeviation=".59"/></filter><filter style="color-interpolation-filters:sRGB" id="filter3008" width="1.048" height="1.048" x="-.024" y="-.024"><feGaussianBlur id="feGaussianBlur3010" stdDeviation=".171"/></filter><filter style="color-interpolation-filters:sRGB" id="filter1861" width="1.216" height="1.216" x="-.108" y="-.108"><feGaussianBlur id="feGaussianBlur1863" stdDeviation=".757"/></filter><clipPath id="clipPath1004" clipPathUnits="userSpaceOnUse"><path style="opacity:1;fill:#f37b00;fill-opacity:1;fill-rule:evenodd;stroke:none;stroke-width:.25453717;stroke-linecap:butt;stroke-linejoin:round;stroke-miterlimit:4;stroke-dasharray:none;stroke-dashoffset:0;stroke-opacity:1;paint-order:fill markers stroke" id="path1006" d="m 17.856479,206.76442 c -0.412244,0.23801 -11.4882188,0.23801 -11.900463,0 -0.4122441,-0.23801 -5.95023103,-9.83009 -5.95023101,-10.30611 2e-8,-0.47602 5.53798791,-10.06809 5.95023201,-10.3061 0.4122442,-0.23801 11.488219,-0.23801 11.900463,0 0.412244,0.23801 5.950231,9.83009 5.950231,10.3061 0,0.47602 -5.537988,10.0681 -5.950232,10.30611 z"/></clipPath><filter style="color-interpolation-filters:sRGB" id="filter1790" width="1.288" height="1.256" x="-.144" y="-.128"><feGaussianBlur id="feGaussianBlur1792" stdDeviation="1.242"/></filter><clipPath id="clipPath3505" clipPathUnits="userSpaceOnUse"><path style="opacity:1;fill:#f37b00;fill-opacity:1;fill-rule:evenodd;stroke:none;stroke-width:.25453717;stroke-linecap:butt;stroke-linejoin:round;stroke-miterlimit:4;stroke-dasharray:none;stroke-dashoffset:0;stroke-opacity:1;paint-order:fill markers stroke" id="path3503" d="m 17.856479,206.76442 c -0.412244,0.23801 -11.4882188,0.23801 -11.900463,0 -0.4122441,-0.23801 -5.95023103,-9.83009 -5.95023101,-10.30611 2e-8,-0.47602 5.53798791,-10.06809 5.95023201,-10.3061 0.4122442,-0.23801 11.488219,-0.23801 11.900463,0 0.412244,0.23801 5.950231,9.83009 5.950231,10.3061 0,0.47602 -5.537988,10.0681 -5.950232,10.30611 z"/></clipPath><filter style="color-interpolation-filters:sRGB" id="filter996" width="1.038" height="1.034" x="-.019" y="-.017"><feGaussianBlur id="feGaussianBlur998" stdDeviation=".165"/></filter><linearGradient id="linearGradient4249" x1="42.902" x2="49.952" y1="197.156" y2="197.156" gradientUnits="userSpaceOnUse" xlink:href="#linearGradient3146"/><clipPath id="clipPath2926-9" clipPathUnits="userSpaceOnUse"><ellipse style="opacity:1;fill:#ccc;fill-opacity:1;fill-rule:evenodd;stroke:none;stroke-width:.25423375;stroke-linecap:butt;stroke-linejoin:round;stroke-miterlimit:4;stroke-dasharray:none;stroke-dashoffset:0;stroke-opacity:1;paint-order:fill markers stroke" id="ellipse2928-0" cx="35.756" cy="213.664" rx="3.942" ry="4.076"/></clipPath><filter style="color-interpolation-filters:sRGB" id="filter972-6" width="1.883" height="1.543" x="-.441" y="-.271"><feGaussianBlur id="feGaussianBlur974-1" stdDeviation=".477"/></filter><filter style="color-interpolation-filters:sRGB" id="filter1298-1" width="2.193" height="2.193" x="-.596" y="-.596"><feGaussianBlur id="feGaussianBlur1300-7" stdDeviation=".131"/></filter><clipPath id="clipPath2920" clipPathUnits="userSpaceOnUse"><ellipse style="opacity:1;fill:#ccc;fill-opacity:1;fill-rule:evenodd;stroke:none;stroke-width:.19216982;stroke-linecap:butt;stroke-linejoin:round;stroke-miterlimit:4;stroke-dasharray:none;stroke-dashoffset:0;stroke-opacity:1;paint-order:fill markers stroke" id="ellipse2922" cx="35.756" cy="213.688" rx="3.994" ry="3.994"/></clipPath><linearGradient id="linearGradient3150" x1="42.902" x2="49.952" y1="197.156" y2="197.156" gradientUnits="userSpaceOnUse" xlink:href="#linearGradient3146"/><filter style="color-interpolation-filters:sRGB" id="filter3236-6" width="1.032" height="1.041" x="-.016" y="-.021"><feGaussianBlur id="feGaussianBlur3238-3" stdDeviation=".047"/></filter><filter style="color-interpolation-filters:sRGB" id="filter3138-9" width="1.094" height="1.304" x="-.047" y="-.152"><feGaussianBlur id="feGaussianBlur3140-5" stdDeviation=".462"/></filter><filter style="color-interpolation-filters:sRGB" id="filter3069-3" width="1.048" height="1.048" x="-.024" y="-.024"><feGaussianBlur id="feGaussianBlur3071-7" stdDeviation=".423"/></filter><filter style="color-interpolation-filters:sRGB" id="filter2990-1" width="1.048" height="1.048" x="-.024" y="-.024"><feGaussianBlur id="feGaussianBlur2992-9" stdDeviation=".083"/></filter><filter style="color-interpolation-filters:sRGB" id="filter1796-8" width="1.024" height="1.024" x="-.012" y="-.012"><feGaussianBlur id="feGaussianBlur1798-9" stdDeviation=".101"/></filter><filter style="color-interpolation-filters:sRGB" id="filter3018-1" width="1.024" height="1.024" x="-.012" y="-.012"><feGaussianBlur id="feGaussianBlur3020-3" stdDeviation=".078"/></filter><filter style="color-interpolation-filters:sRGB" id="filter3056-2" width="1.192" height="1.192" x="-.096" y="-.096"><feGaussianBlur id="feGaussianBlur3058-2" stdDeviation=".59"/></filter><filter style="color-interpolation-filters:sRGB" id="filter3008-0" width="1.048" height="1.048" x="-.024" y="-.024"><feGaussianBlur id="feGaussianBlur3010-4" stdDeviation=".171"/></filter><filter style="color-interpolation-filters:sRGB" id="filter1861-3" width="1.216" height="1.216" x="-.108" y="-.108"><feGaussianBlur id="feGaussianBlur1863-4" stdDeviation=".757"/></filter><clipPath id="clipPath1004-7" clipPathUnits="userSpaceOnUse"><path style="opacity:1;fill:#f37b00;fill-opacity:1;fill-rule:evenodd;stroke:none;stroke-width:.25453717;stroke-linecap:butt;stroke-linejoin:round;stroke-miterlimit:4;stroke-dasharray:none;stroke-dashoffset:0;stroke-opacity:1;paint-order:fill markers stroke" id="path1006-9" d="m 17.856479,206.76442 c -0.412244,0.23801 -11.4882188,0.23801 -11.900463,0 -0.4122441,-0.23801 -5.95023103,-9.83009 -5.95023101,-10.30611 2e-8,-0.47602 5.53798791,-10.06809 5.95023201,-10.3061 0.4122442,-0.23801 11.488219,-0.23801 11.900463,0 0.412244,0.23801 5.950231,9.83009 5.950231,10.3061 0,0.47602 -5.537988,10.0681 -5.950232,10.30611 z"/></clipPath><filter style="color-interpolation-filters:sRGB" id="filter1790-2" width="1.288" height="1.256" x="-.144" y="-.128"><feGaussianBlur id="feGaussianBlur1792-6" stdDeviation="1.242"/></filter><clipPath id="clipPath4359" clipPathUnits="userSpaceOnUse"><path style="opacity:1;fill:#f37b00;fill-opacity:1;fill-rule:evenodd;stroke:none;stroke-width:.25453717;stroke-linecap:butt;stroke-linejoin:round;stroke-miterlimit:4;stroke-dasharray:none;stroke-dashoffset:0;stroke-opacity:1;paint-order:fill markers stroke" id="path4357" d="m 17.856479,206.76442 c -0.412244,0.23801 -11.4882188,0.23801 -11.900463,0 -0.4122441,-0.23801 -5.95023103,-9.83009 -5.95023101,-10.30611 2e-8,-0.47602 5.53798791,-10.06809 5.95023201,-10.3061 0.4122442,-0.23801 11.488219,-0.23801 11.900463,0 0.412244,0.23801 5.950231,9.83009 5.950231,10.3061 0,0.47602 -5.537988,10.0681 -5.950232,10.30611 z"/></clipPath><filter style="color-interpolation-filters:sRGB" id="filter996-7" width="1.038" height="1.034" x="-.019" y="-.017"><feGaussianBlur id="feGaussianBlur998-2" stdDeviation=".165"/></filter><linearGradient id="linearGradient4559" x1="42.902" x2="49.952" y1="197.156" y2="197.156" gradientUnits="userSpaceOnUse" xlink:href="#linearGradient3146"/><filter style="color-interpolation-filters:sRGB" id="filter2838" width="1.338" height="1.598" x="-.169" y="-.299"><feGaussianBlur id="feGaussianBlur2840" stdDeviation=".279"/></filter></defs><metadata id="metadata3539"/><g id="layer1" transform="translate(-72.219533,-119.049)"><g id="g969"><path id="path3265" d="m 17.751148,206.58197 c -0.404947,0.2338 -11.2848503,0.2338 -11.6897967,0 -0.4049464,-0.23379 -5.84489777,-9.65607 -5.84489775,-10.12366 3e-8,-0.46759 5.43995225,-9.88986 5.84489875,-10.12366 0.4049464,-0.23379 11.2848497,-0.23379 11.6897967,0 0.404946,0.2338 5.844897,9.65607 5.844897,10.12366 0,0.4676 -5.439952,9.88987 -5.844898,10.12366 z" clip-path="url(#clipPath1004)" transform="matrix(0.25603354,-0.14515899,0.14782104,0.25142274,43.305462,74.838132)" style="opacity:.9;fill:#999;fill-opacity:1;fill-rule:evenodd;stroke:none;stroke-width:.25003123;stroke-linecap:butt;stroke-linejoin:round;stroke-miterlimit:4;stroke-dasharray:none;stroke-dashoffset:0;stroke-opacity:1;paint-order:fill markers stroke;filter:url(#filter996)"/><path style="opacity:.18500001;fill:#1a1a1a;fill-opacity:1;fill-rule:evenodd;stroke:none;stroke-width:.25003123;stroke-linecap:butt;stroke-linejoin:round;stroke-miterlimit:4;stroke-dasharray:none;stroke-dashoffset:0;stroke-opacity:1;paint-order:fill markers stroke;filter:url(#filter1790)" id="path3267" d="m 17.751148,206.58197 c -0.404947,0.2338 -11.2848503,0.2338 -11.6897967,0 -0.4049464,-0.23379 -5.84489777,-9.65607 -5.84489775,-10.12366 3e-8,-0.46759 5.43995225,-9.88986 5.84489875,-10.12366 0.4049464,-0.23379 11.2848497,-0.23379 11.6897967,0 0.404946,0.2338 5.844897,9.65607 5.844897,10.12366 0,0.4676 -5.439952,9.88987 -5.844898,10.12366 z" clip-path="url(#clipPath1004)" transform="matrix(0.24531697,-0.13908319,0.14163382,0.24089915,44.648587,76.833239)"/><path style="opacity:1;fill:#000;fill-opacity:1;fill-rule:evenodd;stroke:none;stroke-width:.07505643;stroke-linecap:butt;stroke-linejoin:round;stroke-miterlimit:4;stroke-dasharray:none;stroke-dashoffset:0;stroke-opacity:1;paint-order:fill markers stroke" id="path3269" d="m 75.394534,119.99357 a 2.5103914,2.5103914 0 0 0 -2.510327,2.51032 2.5103914,2.5103914 0 0 0 2.510327,2.51048 2.5103914,2.5103914 0 0 0 2.510327,-2.51048 2.5103914,2.5103914 0 0 0 -2.510327,-2.51032 z m 0,0.0686 a 2.4692375,2.4418016 0 0 1 2.469216,2.44176 2.4692375,2.4418016 0 0 1 -2.469216,2.44176 2.4692375,2.4418016 0 0 1 -2.469216,-2.44176 2.4692375,2.4418016 0 0 1 2.469216,-2.44176 z"/><circle style="opacity:.91000001;fill:#1a1a1a;fill-opacity:1;fill-rule:evenodd;stroke:none;stroke-width:.28713265;stroke-linecap:butt;stroke-linejoin:round;stroke-miterlimit:4;stroke-dasharray:none;stroke-dashoffset:0;stroke-opacity:1;paint-order:fill markers stroke;filter:url(#filter1861)" id="circle3271" cx="46.302" cy="197.025" r="8.41" transform="matrix(0.31046719,0,0,0.31046719,61.019256,61.334031)"/><ellipse style="opacity:1;fill:#f2f2f2;fill-opacity:1;fill-rule:evenodd;stroke:none;stroke-width:.26902479;stroke-linecap:butt;stroke-linejoin:round;stroke-miterlimit:4;stroke-dasharray:none;stroke-dashoffset:0;stroke-opacity:1;paint-order:fill markers stroke;filter:url(#filter3008)" id="ellipse3273" cx="46.302" cy="197.025" rx="8.578" ry="8.514" transform="matrix(0.27547352,0,0,0.27547352,62.639536,68.228675)"/><circle style="opacity:1;fill:#4d4d4d;fill-opacity:1;fill-rule:evenodd;stroke:none;stroke-width:.25003123;stroke-linecap:butt;stroke-linejoin:round;stroke-miterlimit:4;stroke-dasharray:none;stroke-dashoffset:0;stroke-opacity:1;paint-order:fill markers stroke;filter:url(#filter3056)" id="circle3275" cx="83.155" cy="114.06" r="7.371" transform="matrix(0.29034601,0,0,0.29034601,51.25088,89.387192)"/><circle style="opacity:.19599998;fill:#4d4d4d;fill-opacity:1;fill-rule:evenodd;stroke:none;stroke-width:.25003123;stroke-linecap:butt;stroke-linejoin:round;stroke-miterlimit:4;stroke-dasharray:none;stroke-dashoffset:0;stroke-opacity:1;paint-order:fill markers stroke;filter:url(#filter3018)" id="circle3277" cx="83.155" cy="114.06" r="7.771" transform="matrix(0.29034601,0,0,0.29034601,51.25088,89.387192)"/><circle style="opacity:.41699997;fill:#000;fill-opacity:1;fill-rule:evenodd;stroke:none;stroke-width:.38040465;stroke-linecap:butt;stroke-linejoin:round;stroke-miterlimit:4;stroke-dasharray:none;stroke-dashoffset:0;stroke-opacity:1;paint-order:fill markers stroke;filter:url(#filter1796)" id="circle3279" cx="83.155" cy="114.06" r="10.064" transform="matrix(0.29034601,0,0,0.29034601,51.25088,89.387192)"/><path style="opacity:1;fill:#a80000;fill-opacity:1;fill-rule:evenodd;stroke:none;stroke-width:.27108648;stroke-linecap:butt;stroke-linejoin:round;stroke-miterlimit:4;stroke-dasharray:none;stroke-dashoffset:0;stroke-opacity:1;paint-order:fill markers stroke;filter:url(#filter2990)" id="path3281" d="m 83.154761,109.89803 a 4.1616481,4.1616481 0 0 0 -4.161504,4.1615 4.1616481,4.1616481 0 0 0 4.161504,4.16151 4.1616481,4.1616481 0 0 0 4.161502,-4.16151 4.1616481,4.1616481 0 0 0 -4.161502,-4.1615 z m 0,0.24236 a 3.9192221,3.9192221 0 0 1 3.919141,3.91914 3.9192221,3.9192221 0 0 1 -3.919141,3.91914 3.9192221,3.9192221 0 0 1 -3.919141,-3.91914 3.9192221,3.9192221 0 0 1 3.919141,-3.91914 z" transform="matrix(0.29034601,0,0,0.29034601,51.25088,89.387192)"/><path style="opacity:1;fill:#1a1a1a;fill-opacity:1;fill-rule:evenodd;stroke:none;stroke-width:.86546892;stroke-linecap:butt;stroke-linejoin:round;stroke-miterlimit:4;stroke-dasharray:none;stroke-dashoffset:0;stroke-opacity:1;paint-order:fill markers stroke;filter:url(#filter3069)" id="path3283" d="m 41.32999,24.024585 a 21.3804,20.948473 0 0 0 -21.38086,20.94922 21.3804,20.948473 0 0 0 21.38086,20.94922 21.3804,20.948473 0 0 0 21.38086,-20.94922 21.3804,20.948473 0 0 0 -21.38086,-20.94922 z m 0,3.45508 A 17.853737,17.493055 0 0 1 59.1835,44.973805 17.853737,17.493055 0 0 1 41.32999,62.465995 17.853737,17.493055 0 0 1 23.47647,44.973805 17.853737,17.493055 0 0 1 41.32999,27.479665 Z" transform="matrix(0.07682071,0,0,0.07682071,72.219534,119.049)"/><g id="g3291" transform="matrix(0.28939618,0,0,-0.33636548,61.994881,188.48951)"><path id="path3285" d="m 44.474311,195.45241 c -0.543168,1.09743 -1.88245,3.97364 -1.506269,4.33984 -0.07523,0.38903 0.71524,-1.98112 3.182842,-2.01084 2.983501,0.19297 2.624402,1.30654 3.766844,2.07565 0.335288,0.22875 -1.895862,-4.46474 -2.162919,-4.62629 -0.357196,-1.14892 -2.832048,-0.98022 -3.239157,0.14264 z" style="opacity:1;fill:url(#linearGradient4249);fill-opacity:1;fill-rule:evenodd;stroke:none;stroke-width:.26916227px;stroke-linecap:butt;stroke-linejoin:miter;stroke-opacity:1;filter:url(#filter3236)"/><path style="opacity:1;fill:url(#linearGradient3321);fill-opacity:1;fill-rule:evenodd;stroke:none;stroke-width:.26916227px;stroke-linecap:butt;stroke-linejoin:miter;stroke-opacity:1;filter:url(#filter3236)" id="path3287" d="m 44.474311,195.45241 c -0.543168,1.09743 -1.88245,3.97364 -1.506269,4.33984 -0.07523,0.38903 0.71524,-1.98112 3.182842,-2.01084 2.983501,0.19297 2.624402,1.30654 3.766844,2.07565 0.335288,0.22875 -1.895862,-4.46474 -2.162919,-4.62629 -0.357196,-1.14892 -2.832048,-0.98022 -3.239157,0.14264 z" transform="matrix(-1,0,0,1,92.589769,0)"/><path id="path3289" d="m 202.3418,683.46094 a 13.133005,13.133005 0 0 0 -11.66992,7.23047 l 1.13476,0.002 a 13.133005,13.133005 0 0 1 10.63086,-5.40039 13.133005,13.133005 0 0 1 10.59961,5.45508 l 1.12695,0.002 a 13.133005,13.133005 0 0 0 -11.72656,-7.28906 13.133005,13.133005 0 0 0 -0.0957,0 z" transform="matrix(0.20418954,0,0,0.30228317,4.9136742,-12.651137)" style="opacity:.69199997;fill:#1a1a1a;fill-opacity:1;fill-rule:evenodd;stroke:none;stroke-width:.94499993;stroke-linecap:butt;stroke-linejoin:round;stroke-miterlimit:4;stroke-dasharray:none;stroke-dashoffset:0;stroke-opacity:1;paint-order:fill markers stroke;filter:url(#filter3138)"/></g><g id="g3351" clip-path="url(#clipPath2926)" transform="matrix(0.25793763,0,0,0.25793763,66.169058,65.896105)" style="opacity:1;fill:#ccc"><ellipse style="opacity:1;fill:#ccc;fill-opacity:.73544976;fill-rule:evenodd;stroke:none;stroke-width:.25306204;stroke-linecap:butt;stroke-linejoin:round;stroke-miterlimit:4;stroke-dasharray:none;stroke-dashoffset:0;stroke-opacity:1;paint-order:fill markers stroke" id="ellipse3341" cx="35.813" cy="213.656" rx="3.874" ry="3.969"/><path style="opacity:1;fill:#ccc;fill-opacity:1;fill-rule:evenodd;stroke:none;stroke-width:.25003123;stroke-linecap:butt;stroke-linejoin:round;stroke-miterlimit:4;stroke-dasharray:none;stroke-dashoffset:0;stroke-opacity:1;paint-order:fill markers stroke;filter:url(#filter972)" id="path3343" d="m 34.437401,215.9988 a 1.842634,2.4095981 0 0 1 -2.30073,-0.89876 1.842634,2.4095981 0 0 1 0.33217,-3.10983 l 1.218285,1.80778 z"/><path id="path3345" d="m 34.437401,215.9988 a 1.842634,2.4095981 0 0 1 -2.30073,-0.89876 1.842634,2.4095981 0 0 1 0.33217,-3.10983 l 1.218285,1.80778 z" transform="matrix(-1,0,0,1,71.512476,0.11643869)" style="opacity:1;fill:#ccc;fill-opacity:1;fill-rule:evenodd;stroke:none;stroke-width:.25003123;stroke-linecap:butt;stroke-linejoin:round;stroke-miterlimit:4;stroke-dasharray:none;stroke-dashoffset:0;stroke-opacity:1;paint-order:fill markers stroke;filter:url(#filter972)"/><path style="opacity:1;fill:#ccc;fill-opacity:1;fill-rule:evenodd;stroke:none;stroke-width:.25003123;stroke-linecap:butt;stroke-linejoin:round;stroke-miterlimit:4;stroke-dasharray:none;stroke-dashoffset:0;stroke-opacity:1;paint-order:fill markers stroke;filter:url(#filter972)" id="path3347" d="m 34.437401,215.9988 a 1.842634,2.4095981 0 0 1 -2.30073,-0.89876 1.842634,2.4095981 0 0 1 0.33217,-3.10983 l 1.218285,1.80778 z" transform="matrix(0.44041635,0.89779365,0.89779365,-0.44041635,-171.24725,275.58042)"/><circle style="opacity:1;fill:#ccc;fill-opacity:.73544976;fill-rule:evenodd;stroke:none;stroke-width:.03500438;stroke-linecap:butt;stroke-linejoin:round;stroke-miterlimit:4;stroke-dasharray:none;stroke-dashoffset:0;stroke-opacity:1;paint-order:fill markers stroke;filter:url(#filter1298)" id="circle3349" cx="35.605" cy="212.494" r=".265"/></g><ellipse style="opacity:1;fill:#99999f;fill-opacity:.73544976;fill-rule:evenodd;stroke:none;stroke-width:.06373268;stroke-linecap:butt;stroke-linejoin:round;stroke-miterlimit:4;stroke-dasharray:none;stroke-dashoffset:0;stroke-opacity:1;paint-order:fill markers stroke" id="ellipse1315" cx="75.392" cy="120.993" rx=".976" ry="1"/><path style="opacity:1;fill:#fff;fill-opacity:.62433861;fill-rule:evenodd;stroke:none;stroke-width:.25003123;stroke-linecap:butt;stroke-linejoin:round;stroke-miterlimit:4;stroke-dasharray:none;stroke-dashoffset:0;stroke-opacity:1;paint-order:fill markers stroke;filter:url(#filter972)" id="path1317" d="m -7.13998,223.08585 a 1.842634,2.4095981 0 0 1 -2.3007297,-0.89876 1.842634,2.4095981 0 0 1 0.3321696,-3.10983 l 1.2182851,1.80778 z" transform="matrix(0.22746872,0,0,0.22746872,76.661753,70.883104)"/><path id="path1319" d="m 34.437401,215.9988 a 1.842634,2.4095981 0 0 1 -2.30073,-0.89876 1.842634,2.4095981 0 0 1 0.33217,-3.10983 l 1.218285,1.80778 z" transform="matrix(-0.24087189,0,0,0.24087189,83.992171,69.599411)" style="opacity:1;fill:#fff;fill-opacity:.60846564;fill-rule:evenodd;stroke:none;stroke-width:.25003123;stroke-linecap:butt;stroke-linejoin:round;stroke-miterlimit:4;stroke-dasharray:none;stroke-dashoffset:0;stroke-opacity:1;paint-order:fill markers stroke;filter:url(#filter972)"/><path style="opacity:1;fill:#fff;fill-opacity:.64021164;fill-rule:evenodd;stroke:none;stroke-width:.25003123;stroke-linecap:butt;stroke-linejoin:round;stroke-miterlimit:4;stroke-dasharray:none;stroke-dashoffset:0;stroke-opacity:1;paint-order:fill markers stroke;filter:url(#filter2838)" id="path1321" d="m 34.437401,215.9988 a 1.842634,2.4095981 0 0 1 -2.30073,-0.89876 1.842634,2.4095981 0 0 1 0.33217,-3.10983 l 1.218285,1.80778 z" transform="matrix(0.11588487,0.27601985,0.2362326,-0.13540266,20.899896,140.28985)"/><circle style="opacity:1;fill:#ececec;fill-opacity:.73544976;fill-rule:evenodd;stroke:none;stroke-width:.03500438;stroke-linecap:butt;stroke-linejoin:round;stroke-miterlimit:4;stroke-dasharray:none;stroke-dashoffset:0;stroke-opacity:1;paint-order:fill markers stroke;filter:url(#filter1298)" id="circle1323" cx="26.865" cy="214.62" r=".265" transform="matrix(0.25184605,0,0,0.25184605,68.573824,66.958753)"/><circle style="opacity:1;fill:#2b1100;fill-opacity:.10052909;fill-rule:evenodd;stroke:none;stroke-width:.09743089;stroke-linecap:butt;stroke-linejoin:round;stroke-miterlimit:4;stroke-dasharray:none;stroke-dashoffset:0;stroke-opacity:1;paint-order:fill markers stroke" id="circle3367" cx="75.392" cy="120.993" r=".979"/></g><g id="g4590" transform="matrix(0.29034601,0,0,0.29034601,56.35239,87.084585)"><path style="opacity:.9;fill:#999;fill-opacity:1;fill-rule:evenodd;stroke:none;stroke-width:.25003123;stroke-linecap:butt;stroke-linejoin:round;stroke-miterlimit:4;stroke-dasharray:none;stroke-dashoffset:0;stroke-opacity:1;paint-order:fill markers stroke;filter:url(#filter996-7)" id="path944" d="m 17.751148,206.58197 c -0.404947,0.2338 -11.2848503,0.2338 -11.6897967,0 -0.4049464,-0.23379 -5.84489777,-9.65607 -5.84489775,-10.12366 3e-8,-0.46759 5.43995225,-9.88986 5.84489875,-10.12366 0.4049464,-0.23379 11.2848497,-0.23379 11.6897967,0 0.404946,0.2338 5.844897,9.65607 5.844897,10.12366 0,0.4676 -5.439952,9.88987 -5.844898,10.12366 z" clip-path="url(#clipPath1004-7)" transform="matrix(0.88182216,-0.49995172,0.50912028,0.86594178,-20.176612,-42.178826)"/><path id="path1008" d="m 17.751148,206.58197 c -0.404947,0.2338 -11.2848503,0.2338 -11.6897967,0 -0.4049464,-0.23379 -5.84489777,-9.65607 -5.84489775,-10.12366 3e-8,-0.46759 5.43995225,-9.88986 5.84489875,-10.12366 0.4049464,-0.23379 11.2848497,-0.23379 11.6897967,0 0.404946,0.2338 5.844897,9.65607 5.844897,10.12366 0,0.4676 -5.439952,9.88987 -5.844898,10.12366 z" clip-path="url(#clipPath1004-7)" transform="matrix(0.84491249,-0.47902567,0.48781047,0.8296968,-15.550669,-35.307351)" style="opacity:.18500001;fill:#1a1a1a;fill-opacity:1;fill-rule:evenodd;stroke:none;stroke-width:.25003123;stroke-linecap:butt;stroke-linejoin:round;stroke-miterlimit:4;stroke-dasharray:none;stroke-dashoffset:0;stroke-opacity:1;paint-order:fill markers stroke;filter:url(#filter1790-2)"/><path id="path1810" d="m 90.343495,113.344 a 8.6462059,8.6462059 0 0 0 -8.645983,8.64599 8.6462059,8.6462059 0 0 0 8.645983,8.6465 8.6462059,8.6462059 0 0 0 8.645982,-8.6465 8.6462059,8.6462059 0 0 0 -8.645982,-8.64599 z m 0,0.23616 a 8.5044651,8.4099713 0 0 1 8.504391,8.40983 8.5044651,8.4099713 0 0 1 -8.504391,8.40982 8.5044651,8.4099713 0 0 1 -8.504391,-8.40982 8.5044651,8.4099713 0 0 1 8.504391,-8.40983 z" style="opacity:1;fill:#000;fill-opacity:1;fill-rule:evenodd;stroke:none;stroke-width:.25850686;stroke-linecap:butt;stroke-linejoin:round;stroke-miterlimit:4;stroke-dasharray:none;stroke-dashoffset:0;stroke-opacity:1;paint-order:fill markers stroke"/><circle id="path1815" cx="46.302" cy="197.025" r="8.41" transform="matrix(1.0693007,0,0,1.0693007,40.832643,-88.689201)" style="opacity:.91000001;fill:#1a1a1a;fill-opacity:1;fill-rule:evenodd;stroke:none;stroke-width:.28713265;stroke-linecap:butt;stroke-linejoin:round;stroke-miterlimit:4;stroke-dasharray:none;stroke-dashoffset:0;stroke-opacity:1;paint-order:fill markers stroke;filter:url(#filter1861-3)"/><ellipse id="path2994" cx="46.302" cy="197.025" rx="8.578" ry="8.514" transform="matrix(0.94877669,0,0,0.94877669,46.413156,-64.942902)" style="opacity:1;fill:#f2f2f2;fill-opacity:1;fill-rule:evenodd;stroke:none;stroke-width:.26902479;stroke-linecap:butt;stroke-linejoin:round;stroke-miterlimit:4;stroke-dasharray:none;stroke-dashoffset:0;stroke-opacity:1;paint-order:fill markers stroke;filter:url(#filter3008-0)"/><circle id="path3022" cx="90.343" cy="121.99" r="7.371" style="opacity:1;fill:#4d4d4d;fill-opacity:1;fill-rule:evenodd;stroke:none;stroke-width:.25003123;stroke-linecap:butt;stroke-linejoin:round;stroke-miterlimit:4;stroke-dasharray:none;stroke-dashoffset:0;stroke-opacity:1;paint-order:fill markers stroke;filter:url(#filter3056-2)"/><circle id="path3012" cx="90.343" cy="121.99" r="7.771" style="opacity:.19599998;fill:#4d4d4d;fill-opacity:1;fill-rule:evenodd;stroke:none;stroke-width:.25003123;stroke-linecap:butt;stroke-linejoin:round;stroke-miterlimit:4;stroke-dasharray:none;stroke-dashoffset:0;stroke-opacity:1;paint-order:fill markers stroke;filter:url(#filter3018-1)"/><circle id="path1794" cx="90.343" cy="121.99" r="10.064" style="opacity:.41699997;fill:#000;fill-opacity:1;fill-rule:evenodd;stroke:none;stroke-width:.38040465;stroke-linecap:butt;stroke-linejoin:round;stroke-miterlimit:4;stroke-dasharray:none;stroke-dashoffset:0;stroke-opacity:1;paint-order:fill markers stroke;filter:url(#filter1796-8)"/><path id="path2977" d="m 90.343492,117.82858 a 4.1616482,4.1616482 0 0 0 -4.161503,4.1615 4.1616482,4.1616482 0 0 0 4.161503,4.16151 4.1616482,4.1616482 0 0 0 4.161502,-4.16151 4.1616482,4.1616482 0 0 0 -4.161502,-4.1615 z m 0,0.24236 a 3.9192222,3.9192222 0 0 1 3.919141,3.91914 3.9192222,3.9192222 0 0 1 -3.919141,3.91914 3.9192222,3.9192222 0 0 1 -3.91914,-3.91914 3.9192222,3.9192222 0 0 1 3.91914,-3.91914 z" style="opacity:1;fill:#a80000;fill-opacity:1;fill-rule:evenodd;stroke:none;stroke-width:.27108648;stroke-linecap:butt;stroke-linejoin:round;stroke-miterlimit:4;stroke-dasharray:none;stroke-dashoffset:0;stroke-opacity:1;paint-order:fill markers stroke;filter:url(#filter2990-1)"/><path id="path3060" d="m 41.329989,24.024585 a 21.3804,20.948473 0 0 0 -21.38086,20.94922 21.3804,20.948473 0 0 0 21.38086,20.94922 21.3804,20.948473 0 0 0 21.38086,-20.94922 21.3804,20.948473 0 0 0 -21.38086,-20.94922 z m 0,3.45508 a 17.853737,17.493055 0 0 1 17.85351,17.49414 17.853737,17.493055 0 0 1 -17.85351,17.49219 17.853737,17.493055 0 0 1 -17.85352,-17.49219 17.853737,17.493055 0 0 1 17.85352,-17.49414 z" transform="matrix(0.26458334,0,0,0.26458334,79.408264,110.09077)" style="opacity:1;fill:#1a1a1a;fill-opacity:1;fill-rule:evenodd;stroke:none;stroke-width:.86546892;stroke-linecap:butt;stroke-linejoin:round;stroke-miterlimit:4;stroke-dasharray:none;stroke-dashoffset:0;stroke-opacity:1;paint-order:fill markers stroke;filter:url(#filter3069-3)"/><g id="g3261" transform="matrix(0.97131551,0,0,1.1595967,45.369356,-105.95027)"><path style="opacity:1;fill:url(#linearGradient4559);fill-opacity:1;fill-rule:evenodd;stroke:none;stroke-width:.26916227px;stroke-linecap:butt;stroke-linejoin:miter;stroke-opacity:1;filter:url(#filter3236-6)" id="path1344" d="m 44.474311,195.45241 c -0.543168,1.09743 -1.88245,3.97364 -1.506269,4.33984 -0.07523,0.38903 0.71524,-1.98112 3.182842,-2.01084 2.983501,0.19297 2.624402,1.30654 3.766844,2.07565 0.335288,0.22875 -1.895862,-4.46474 -2.162919,-4.62629 -0.357196,-1.14892 -2.832048,-0.98022 -3.239157,0.14264 z"/><path id="path3240" d="m 44.474311,195.45241 c -0.543168,1.09743 -1.88245,3.97364 -1.506269,4.33984 -0.07523,0.38903 0.71524,-1.98112 3.182842,-2.01084 2.983501,0.19297 2.624402,1.30654 3.766844,2.07565 0.335288,0.22875 -1.895862,-4.46474 -2.162919,-4.62629 -0.357196,-1.14892 -2.832048,-0.98022 -3.239157,0.14264 z" transform="matrix(-1,0,0,1,92.589769,0)" style="opacity:1;fill:url(#linearGradient3150);fill-opacity:1;fill-rule:evenodd;stroke:none;stroke-width:.26916227px;stroke-linecap:butt;stroke-linejoin:miter;stroke-opacity:1;filter:url(#filter3236-6)"/><path style="opacity:.69199997;fill:#1a1a1a;fill-opacity:1;fill-rule:evenodd;stroke:none;stroke-width:.94499993;stroke-linecap:butt;stroke-linejoin:round;stroke-miterlimit:4;stroke-dasharray:none;stroke-dashoffset:0;stroke-opacity:1;paint-order:fill markers stroke;filter:url(#filter3138-9)" id="path3101" d="m 202.3418,683.46094 a 13.133005,13.133005 0 0 0 -11.66992,7.23047 l 1.13476,0.002 a 13.133005,13.133005 0 0 1 10.63086,-5.40039 13.133005,13.133005 0 0 1 10.59961,5.45508 l 1.12695,0.002 a 13.133005,13.133005 0 0 0 -11.72656,-7.28906 13.133005,13.133005 0 0 0 -0.0957,0 z" transform="matrix(0.20418954,0,0,0.30228317,4.9136742,-12.651137)"/></g><g id="g3339" transform="translate(44.041412,-73.802097)"><g id="g3256" transform="matrix(0.93851633,0,0,0.93851633,2.8082725,12.243303)"><g style="opacity:1;fill:#ccc" id="g2860" clip-path="url(#clipPath2926-9)" transform="matrix(0.94657933,0,0,0.94657933,12.489373,-1.5433115)"><ellipse id="ellipse2850" cx="35.813" cy="213.656" rx="3.874" ry="3.969" style="opacity:1;fill:#ccc;fill-opacity:.73544976;fill-rule:evenodd;stroke:none;stroke-width:.25306204;stroke-linecap:butt;stroke-linejoin:round;stroke-miterlimit:4;stroke-dasharray:none;stroke-dashoffset:0;stroke-opacity:1;paint-order:fill markers stroke"/><path id="path2852" d="m 34.437401,215.9988 a 1.842634,2.4095981 0 0 1 -2.30073,-0.89876 1.842634,2.4095981 0 0 1 0.33217,-3.10983 l 1.218285,1.80778 z" style="opacity:1;fill:#ccc;fill-opacity:1;fill-rule:evenodd;stroke:none;stroke-width:.25003123;stroke-linecap:butt;stroke-linejoin:round;stroke-miterlimit:4;stroke-dasharray:none;stroke-dashoffset:0;stroke-opacity:1;paint-order:fill markers stroke;filter:url(#filter972-6)"/><path style="opacity:1;fill:#ccc;fill-opacity:1;fill-rule:evenodd;stroke:none;stroke-width:.25003123;stroke-linecap:butt;stroke-linejoin:round;stroke-miterlimit:4;stroke-dasharray:none;stroke-dashoffset:0;stroke-opacity:1;paint-order:fill markers stroke;filter:url(#filter972-6)" id="path2854" d="m 34.437401,215.9988 a 1.842634,2.4095981 0 0 1 -2.30073,-0.89876 1.842634,2.4095981 0 0 1 0.33217,-3.10983 l 1.218285,1.80778 z" transform="matrix(-1,0,0,1,71.512476,0.11643869)"/><path id="path2856" d="m 34.437401,215.9988 a 1.842634,2.4095981 0 0 1 -2.30073,-0.89876 1.842634,2.4095981 0 0 1 0.33217,-3.10983 l 1.218285,1.80778 z" transform="matrix(0.44041635,0.89779365,0.89779365,-0.44041635,-171.24725,275.58042)" style="opacity:1;fill:#ccc;fill-opacity:1;fill-rule:evenodd;stroke:none;stroke-width:.25003123;stroke-linecap:butt;stroke-linejoin:round;stroke-miterlimit:4;stroke-dasharray:none;stroke-dashoffset:0;stroke-opacity:1;paint-order:fill markers stroke;filter:url(#filter972-6)"/><circle id="circle2858" cx="35.605" cy="212.494" r=".265" style="opacity:1;fill:#ccc;fill-opacity:.73544976;fill-rule:evenodd;stroke:none;stroke-width:.03500438;stroke-linecap:butt;stroke-linejoin:round;stroke-miterlimit:4;stroke-dasharray:none;stroke-dashoffset:0;stroke-opacity:1;paint-order:fill markers stroke;filter:url(#filter1298-1)"/></g><g style="opacity:1" id="g1313" clip-path="url(#clipPath2920)" transform="matrix(0.92461849,0,0,0.92461849,13.242325,3.1498573)"><ellipse style="opacity:1;fill:#99999f;fill-opacity:.73544976;fill-rule:evenodd;stroke:none;stroke-width:.25306204;stroke-linecap:butt;stroke-linejoin:round;stroke-miterlimit:4;stroke-dasharray:none;stroke-dashoffset:0;stroke-opacity:1;paint-order:fill markers stroke" id="path840" cx="35.813" cy="213.656" rx="3.874" ry="3.969"/><path style="opacity:1;fill:#fff;fill-opacity:1;fill-rule:evenodd;stroke:none;stroke-width:.25003123;stroke-linecap:butt;stroke-linejoin:round;stroke-miterlimit:4;stroke-dasharray:none;stroke-dashoffset:0;stroke-opacity:1;paint-order:fill markers stroke;filter:url(#filter972-6)" id="path842" d="m 34.437401,215.9988 a 1.842634,2.4095981 0 0 1 -2.30073,-0.89876 1.842634,2.4095981 0 0 1 0.33217,-3.10983 l 1.218285,1.80778 z"/><path id="path976" d="m 34.437401,215.9988 a 1.842634,2.4095981 0 0 1 -2.30073,-0.89876 1.842634,2.4095981 0 0 1 0.33217,-3.10983 l 1.218285,1.80778 z" transform="matrix(-1,0,0,1,71.512476,0.11643869)" style="opacity:1;fill:#fff;fill-opacity:1;fill-rule:evenodd;stroke:none;stroke-width:.25003123;stroke-linecap:butt;stroke-linejoin:round;stroke-miterlimit:4;stroke-dasharray:none;stroke-dashoffset:0;stroke-opacity:1;paint-order:fill markers stroke;filter:url(#filter972-6)"/><path style="opacity:1;fill:#fff;fill-opacity:1;fill-rule:evenodd;stroke:none;stroke-width:.25003123;stroke-linecap:butt;stroke-linejoin:round;stroke-miterlimit:4;stroke-dasharray:none;stroke-dashoffset:0;stroke-opacity:1;paint-order:fill markers stroke;filter:url(#filter972-6)" id="path978" d="m 34.437401,215.9988 a 1.842634,2.4095981 0 0 1 -2.30073,-0.89876 1.842634,2.4095981 0 0 1 0.33217,-3.10983 l 1.218285,1.80778 z" transform="matrix(0.44041635,0.89779365,0.89779365,-0.44041635,-171.24725,275.58042)"/><circle style="opacity:1;fill:#ececec;fill-opacity:.73544976;fill-rule:evenodd;stroke:none;stroke-width:.03500438;stroke-linecap:butt;stroke-linejoin:round;stroke-miterlimit:4;stroke-dasharray:none;stroke-dashoffset:0;stroke-opacity:1;paint-order:fill markers stroke;filter:url(#filter1298-1)" id="path980" cx="35.605" cy="212.494" r=".265"/></g></g><circle style="opacity:.05899999;fill:#2b1100;fill-opacity:1;fill-rule:evenodd;stroke:none;stroke-width:.33556822;stroke-linecap:butt;stroke-linejoin:round;stroke-miterlimit:4;stroke-dasharray:none;stroke-dashoffset:0;stroke-opacity:1;paint-order:fill markers stroke" id="path3263" cx="46.295" cy="200.592" r="3.373"/></g></g></g></svg>