<svg xmlns="http://www.w3.org/2000/svg" xmlns:svg="http://www.w3.org/2000/svg" id="svg3669" width="70.749" height="70.75" version="1.1" viewBox="0 0 18.719 18.719"><metadata id="metadata3666"/><g id="layer1" transform="translate(-86.646497,-150.057)"><g style="display:inline" id="g1064" transform="matrix(-1.2412045,0,0,-1.2412045,110.75505,497.52948)"><path id="rect8303" d="m 11.886077,279.81681 0.0388,-0.14574 0.004,0.001 10e-7,-7.6848 c -2.5e-5,-0.0115 -0.009,-0.0207 -0.02071,-0.0207 l -0.06199,-4e-5 c -0.01151,2e-5 -0.02071,0.009 -0.02072,0.0207 l 1e-6,7.6848 0.005,-7.5e-4 0.0387,0.14575 z" style="opacity:1;fill:#373737;fill-opacity:1;fill-rule:evenodd;stroke:none;stroke-width:.22598952;stroke-linecap:butt;stroke-linejoin:round;stroke-miterlimit:4;stroke-dasharray:none;stroke-dashoffset:0;stroke-opacity:1;paint-order:fill markers stroke"/><path id="path8301" d="m 11.063095,279.94781 0.725659,-7.683 0.188125,-1.2e-4 0.731616,7.67678 a 7.5649897,7.5408364 89.977372 0 0 6.715019,-7.51326 7.5649897,7.5408364 89.977372 0 0 -7.543559,-7.56199 7.5649897,7.5408364 89.977372 0 0 -7.5376889,7.56784 7.5649897,7.5408364 89.977372 0 0 6.7208449,7.51374 z" style="opacity:1;fill:#fff;fill-opacity:1;fill-rule:evenodd;stroke:none;stroke-width:.08614217;stroke-linecap:butt;stroke-linejoin:round;stroke-miterlimit:4;stroke-dasharray:none;stroke-dashoffset:0;stroke-opacity:1;paint-order:fill markers stroke"/></g><rect style="opacity:1;fill:#4d4d4d;fill-opacity:1;fill-rule:nonzero;stroke:none;stroke-width:.12791415;stroke-linecap:butt;stroke-linejoin:miter;stroke-miterlimit:4;stroke-dasharray:none;stroke-dashoffset:0;stroke-opacity:1;paint-order:markers stroke fill" id="rect815" width="18.719" height="18.719" x="86.646" y="122.929"/></g></svg>