<svg xmlns="http://www.w3.org/2000/svg" xmlns:svg="http://www.w3.org/2000/svg" id="svg1656" width="7.5" height="7.465" version="1.1" viewBox="0 0 1.984 1.975"><metadata id="metadata1653"/><g id="layer1" transform="translate(-68.640472,-212.76254)" style="display:inline"><path style="opacity:1;fill:#fff;fill-opacity:1;fill-rule:evenodd;stroke:none;stroke-width:.01133465;stroke-linecap:butt;stroke-linejoin:round;stroke-miterlimit:4;stroke-dasharray:none;stroke-dashoffset:0;stroke-opacity:1;paint-order:fill markers stroke" id="path4301" d="m 69.803375,212.76254 -0.145179,0.99841 h -0.05107 l -0.144851,-0.99677 a 0.99540653,0.99222839 89.977372 0 0 -0.821803,0.9786 0.99540653,0.99222839 89.977372 0 0 0.992515,0.99497 0.99540653,0.99222839 89.977372 0 0 0.99186,-0.99579 0.99540653,0.99222839 89.977372 0 0 -0.821476,-0.97942 z"/></g><g id="layer9" transform="translate(4e-6,-4.31386)" style="display:none"><path id="path2793" d="m 71.797293,208.8068 -0.02072,0.0554 -0.0022,-3.7e-4 -10e-7,2.91725 c 1.4e-5,0.005 0.0047,0.009 0.01105,0.009 l 0.03311,1e-5 c 0.0062,0 0.01105,-0.004 0.01105,-0.009 l -10e-7,-2.91726 -0.0027,2.8e-4 -0.02067,-0.0555 z" transform="translate(-68.640476,-208.44868)" style="opacity:1;fill:#373737;fill-opacity:1;fill-rule:evenodd;stroke:none;stroke-width:.10176518;stroke-linecap:butt;stroke-linejoin:round;stroke-miterlimit:4;stroke-dasharray:none;stroke-dashoffset:0;stroke-opacity:1;paint-order:fill markers stroke"/></g></svg>