<svg xmlns="http://www.w3.org/2000/svg" xmlns:svg="http://www.w3.org/2000/svg" id="svg261903" width="57.599" height="485.667" version="1.1" viewBox="0 0 15.24 128.499"><defs id="defs261897"><linearGradient id="linear20" x1="-.096" x2="1.325" y1="0" y2="0" gradientTransform="matrix(0,6.4087959,-6.4087959,0,64.256445,118.95198)" gradientUnits="userSpaceOnUse"><stop style="stop-color:#414042;stop-opacity:1" id="stop217759" offset="0"/><stop style="stop-color:#414042;stop-opacity:1" id="stop217761" offset=".063"/><stop style="stop-color:#414042;stop-opacity:1" id="stop217763" offset=".078"/><stop style="stop-color:#403f41;stop-opacity:1" id="stop217765" offset=".094"/><stop style="stop-color:#403e40;stop-opacity:1" id="stop217767" offset=".109"/><stop style="stop-color:#3f3e40;stop-opacity:1" id="stop217769" offset=".125"/><stop style="stop-color:#3e3d3f;stop-opacity:1" id="stop217771" offset=".141"/><stop style="stop-color:#3e3c3e;stop-opacity:1" id="stop217773" offset=".156"/><stop style="stop-color:#3d3b3d;stop-opacity:1" id="stop217775" offset=".172"/><stop style="stop-color:#3c3b3d;stop-opacity:1" id="stop217777" offset=".188"/><stop style="stop-color:#3c3a3c;stop-opacity:1" id="stop217779" offset=".203"/><stop style="stop-color:#3b393b;stop-opacity:1" id="stop217781" offset=".219"/><stop style="stop-color:#3a393a;stop-opacity:1" id="stop217783" offset=".234"/><stop style="stop-color:#3a383a;stop-opacity:1" id="stop217785" offset=".25"/><stop style="stop-color:#393739;stop-opacity:1" id="stop217787" offset=".266"/><stop style="stop-color:#383638;stop-opacity:1" id="stop217789" offset=".281"/><stop style="stop-color:#383637;stop-opacity:1" id="stop217791" offset=".297"/><stop style="stop-color:#373537;stop-opacity:1" id="stop217793" offset=".313"/><stop style="stop-color:#363436;stop-opacity:1" id="stop217795" offset=".328"/><stop style="stop-color:#363335;stop-opacity:1" id="stop217797" offset=".344"/><stop style="stop-color:#353334;stop-opacity:1" id="stop217799" offset=".359"/><stop style="stop-color:#343234;stop-opacity:1" id="stop217801" offset=".375"/><stop style="stop-color:#343133;stop-opacity:1" id="stop217803" offset=".391"/><stop style="stop-color:#333032;stop-opacity:1" id="stop217805" offset=".406"/><stop style="stop-color:#323031;stop-opacity:1" id="stop217807" offset=".422"/><stop style="stop-color:#322f30;stop-opacity:1" id="stop217809" offset=".438"/><stop style="stop-color:#312e30;stop-opacity:1" id="stop217811" offset=".453"/><stop style="stop-color:#302e2f;stop-opacity:1" id="stop217813" offset=".469"/><stop style="stop-color:#302d2e;stop-opacity:1" id="stop217815" offset=".484"/><stop style="stop-color:#2f2c2d;stop-opacity:1" id="stop217817" offset=".5"/><stop style="stop-color:#2e2b2d;stop-opacity:1" id="stop217819" offset=".516"/><stop style="stop-color:#2e2b2c;stop-opacity:1" id="stop217821" offset=".531"/><stop style="stop-color:#2d2a2b;stop-opacity:1" id="stop217823" offset=".547"/><stop style="stop-color:#2c292a;stop-opacity:1" id="stop217825" offset=".563"/><stop style="stop-color:#2c282a;stop-opacity:1" id="stop217827" offset=".578"/><stop style="stop-color:#2b2829;stop-opacity:1" id="stop217829" offset=".594"/><stop style="stop-color:#2a2728;stop-opacity:1" id="stop217831" offset=".609"/><stop style="stop-color:#2a2627;stop-opacity:1" id="stop217833" offset=".625"/><stop style="stop-color:#292527;stop-opacity:1" id="stop217835" offset=".641"/><stop style="stop-color:#282526;stop-opacity:1" id="stop217837" offset=".656"/><stop style="stop-color:#282425;stop-opacity:1" id="stop217839" offset=".672"/><stop style="stop-color:#272324;stop-opacity:1" id="stop217841" offset=".688"/><stop style="stop-color:#262324;stop-opacity:1" id="stop217843" offset=".703"/><stop style="stop-color:#262223;stop-opacity:1" id="stop217845" offset=".719"/><stop style="stop-color:#252122;stop-opacity:1" id="stop217847" offset=".734"/><stop style="stop-color:#242021;stop-opacity:1" id="stop217849" offset=".75"/><stop style="stop-color:#242021;stop-opacity:1" id="stop217851" offset=".766"/><stop style="stop-color:#231f20;stop-opacity:1" id="stop217853" offset=".781"/><stop style="stop-color:#231f20;stop-opacity:1" id="stop217855" offset=".813"/><stop style="stop-color:#231f20;stop-opacity:1" id="stop217857" offset=".875"/><stop style="stop-color:#231f20;stop-opacity:1" id="stop217859" offset="1"/></linearGradient></defs><metadata id="metadata261900"/><g id="layer1" transform="translate(-56.636094,-70.97654)"><path id="path227414" d="M 56.636094,70.97654 H 71.689792 V 199.2898 H 56.636094 Z m 0,0" style="fill:#e6e6e6;fill-opacity:1;fill-rule:nonzero;stroke:none;stroke-width:.35277775"/><path id="path227416" d="M 71.875811,70.97654 H 56.636094 v 128.4993 H 71.875811 Z M 71.689756,199.28981 H 56.823489 V 71.163954 h 14.866267 z m 0,0" style="fill:#ababab;fill-opacity:1;fill-rule:nonzero;stroke:none;stroke-width:.35277775"/><rect style="display:inline;fill:#000;fill-opacity:1;fill-rule:evenodd;stroke:none;stroke-width:.20018744;stroke-linecap:butt;stroke-linejoin:round;stroke-miterlimit:4;stroke-dasharray:none;stroke-opacity:1;paint-order:normal" id="rect866-0-0" width="10.706" height="10.538" x="59.101" y="179.875" ry="1.28"/><flowRoot id="flowRoot1039" xml:space="preserve" style="fill:#000;fill-opacity:1;stroke:none;font-family:sans-serif;font-style:normal;font-weight:400;font-size:40px;line-height:1.25;letter-spacing:0;word-spacing:0"><flowRegion id="flowRegion1041"><rect id="rect1043" width="96.429" height="133.929" x="144.643" y="181.381"/></flowRegion><flowPara id="flowPara1045"/></flowRoot><g style="font-style:normal;font-weight:400;font-size:3.75125003px;line-height:1.25;font-family:sans-serif;letter-spacing:0;word-spacing:0;fill:#8b8b8b;fill-opacity:1;stroke:none;stroke-width:.09378125" id="text1097" aria-label="BIAS"><path style="fill:#8b8b8b;fill-opacity:1;stroke-width:.09378125" id="path1123" d="m 60.984747,80.84597 v 1.001921 h 0.593459 q 0.298562,0 0.441432,-0.122722 0.144701,-0.124553 0.144701,-0.379155 0,-0.256433 -0.144701,-0.377323 -0.14287,-0.122721 -0.441432,-0.122721 z m 0,-1.124643 v 0.82425 h 0.547668 q 0.271086,0 0.402966,-0.100742 0.133712,-0.102573 0.133712,-0.311383 0,-0.206978 -0.133712,-0.309551 -0.13188,-0.102574 -0.402966,-0.102574 z m -0.369996,-0.304056 h 0.945139 q 0.423114,0 0.652072,0.17584 0.228959,0.17584 0.228959,0.500045 0,0.250938 -0.117227,0.399302 -0.117227,0.148365 -0.344353,0.184999 0.272918,0.05861 0.423115,0.245443 0.152028,0.184998 0.152028,0.463411 0,0.366333 -0.249107,0.565985 -0.249106,0.199651 -0.708854,0.199651 h -0.981772 z"/><path style="fill:#8b8b8b;fill-opacity:1;stroke-width:.09378125" id="path1125" d="m 63.186408,79.417271 h 0.369997 v 2.734676 h -0.369997 z"/><path style="fill:#8b8b8b;fill-opacity:1;stroke-width:.09378125" id="path1127" d="M 65.206735,79.781772 64.704858,81.1427 h 1.005585 z m -0.20881,-0.364501 h 0.419451 l 1.042218,2.734676 h -0.38465 l -0.249107,-0.701528 h -1.23271 l -0.249107,0.701528 h -0.390144 z"/><path style="fill:#8b8b8b;fill-opacity:1;stroke-width:.09378125" id="path1129" d="m 68.496405,79.507023 v 0.360838 q -0.210641,-0.100742 -0.397471,-0.150197 -0.18683,-0.04945 -0.360838,-0.04945 -0.302225,0 -0.467075,0.117227 -0.163018,0.117226 -0.163018,0.333363 0,0.181335 0.108068,0.27475 0.1099,0.09158 0.413957,0.148364 l 0.223463,0.04579 q 0.413956,0.07876 0.609944,0.278413 0.19782,0.19782 0.19782,0.531183 0,0.397471 -0.267423,0.602618 -0.265592,0.205146 -0.780289,0.205146 -0.194157,0 -0.413957,-0.04396 -0.217968,-0.04396 -0.452421,-0.130048 v -0.380986 q 0.225295,0.126385 0.441431,0.190493 0.216137,0.06411 0.424947,0.06411 0.316878,0 0.489054,-0.124553 0.172177,-0.124553 0.172177,-0.355343 0,-0.201483 -0.124554,-0.315046 -0.122721,-0.113564 -0.404798,-0.170345 l -0.225294,-0.04396 Q 67.106171,80.813 66.921173,80.63716 q -0.184998,-0.17584 -0.184998,-0.489055 0,-0.362669 0.254601,-0.571479 0.256434,-0.20881 0.705191,-0.20881 0.192325,0 0.391977,0.0348 0.199651,0.0348 0.408461,0.104405 z"/></g><g style="font-style:normal;font-weight:400;font-size:3.75125003px;line-height:1.25;font-family:sans-serif;letter-spacing:0;word-spacing:0;fill:#8b8b8b;fill-opacity:1;stroke:none;stroke-width:.09378125" id="text1113" aria-label="CTR" transform="translate(0,5.3453905)"><path style="fill:#8b8b8b;fill-opacity:1;stroke-width:.09378125" id="path1132" d="m 63.261387,99.962759 v 0.390141 q -0.18683,-0.174 -0.399303,-0.26009 -0.210641,-0.0861 -0.448758,-0.0861 -0.468906,0 -0.718013,0.28757 -0.249106,0.28574 -0.249106,0.82791 0,0.54034 0.249106,0.82792 0.249107,0.28574 0.718013,0.28574 0.238117,0 0.448758,-0.0861 0.212473,-0.0861 0.399303,-0.2601 v 0.38648 q -0.194156,0.13188 -0.412125,0.19782 -0.216136,0.0659 -0.457916,0.0659 -0.620934,0 -0.978109,-0.37915 -0.357175,-0.38099 -0.357175,-1.03856 0,-0.6594 0.357175,-1.03855 0.357175,-0.380987 0.978109,-0.380987 0.245443,0 0.46158,0.06594 0.217968,0.06411 0.408461,0.194156 z"/><path style="fill:#8b8b8b;fill-opacity:1;stroke-width:.09378125" id="path1134" d="m 63.457375,99.752118 h 2.313393 v 0.311382 h -0.970782 v 2.42329 h -0.371828 v -2.42329 h -0.970783 z"/><path style="fill:#8b8b8b;fill-opacity:1;stroke-width:.09378125" id="path1136" d="m 67.426594,101.20463 q 0.119058,0.0403 0.230789,0.17217 0.113564,0.13188 0.227127,0.36267 l 0.375491,0.74732 H 67.86253 l -0.349848,-0.70152 q -0.135543,-0.27475 -0.26376,-0.36451 -0.126385,-0.0897 -0.346185,-0.0897 h -0.402966 v 1.15578 h -0.369996 v -2.734672 h 0.835239 q 0.468906,0 0.699696,0.195988 0.23079,0.195984 0.23079,0.591624 0,0.25827 -0.12089,0.42861 -0.119058,0.17035 -0.348016,0.23629 z m -0.926823,-1.14846 v 0.97079 h 0.465243 q 0.267423,0 0.402966,-0.12273 0.137375,-0.12455 0.137375,-0.3645 0,-0.23994 -0.137375,-0.36083 -0.135543,-0.12273 -0.402966,-0.12273 z"/></g><g style="font-style:normal;font-weight:400;font-size:3.75125003px;line-height:1.25;font-family:sans-serif;letter-spacing:0;word-spacing:0;fill:#8b8b8b;fill-opacity:1;stroke:none;stroke-width:.09378125" id="text1117" aria-label="NEG" transform="translate(0,2.80633)"><path style="fill:#8b8b8b;fill-opacity:1;stroke-width:.09378125" id="path1139" d="m 60.802609,119.50848 h 0.498213 l 1.212562,2.28775 v -2.28775 h 0.359007 v 2.73468 h -0.498213 l -1.212563,-2.28775 v 2.28775 h -0.359006 z"/><path style="fill:#8b8b8b;fill-opacity:1;stroke-width:.09378125" id="path1141" d="m 63.60872,119.50848 h 1.729092 v 0.31138 h -1.359096 v 0.8096 h 1.302314 v 0.31138 h -1.302314 v 0.99093 h 1.392066 v 0.31139 H 63.60872 Z"/><path style="fill:#8b8b8b;fill-opacity:1;stroke-width:.09378125" id="path1143" d="m 67.847193,121.85301 v -0.7345 h -0.60445 v -0.30405 h 0.970783 v 1.17409 q -0.214305,0.15203 -0.47257,0.23079 -0.258264,0.0769 -0.551331,0.0769 -0.641083,0 -1.003752,-0.37365 -0.360838,-0.3755 -0.360838,-1.04405 0,-0.67039 0.360838,-1.04405 0.362669,-0.37549 1.003752,-0.37549 0.267423,0 0.507371,0.0659 0.24178,0.0659 0.445095,0.19415 v 0.39381 q -0.205146,-0.17401 -0.435936,-0.26193 -0.23079,-0.0879 -0.485392,-0.0879 -0.501876,0 -0.754646,0.28025 -0.250938,0.28024 -0.250938,0.83524 0,0.55316 0.250938,0.8334 0.25277,0.28025 0.754646,0.28025 0.195989,0 0.349849,-0.033 0.153859,-0.0348 0.276581,-0.10624 z"/></g><g style="font-style:normal;font-weight:400;font-size:3.75125003px;line-height:1.25;font-family:sans-serif;letter-spacing:0;word-spacing:0;fill:#8b8b8b;fill-opacity:1;stroke:none;stroke-width:.09378125" id="text1121" aria-label="POS" transform="translate(0,-1.3363476)"><path style="fill:#8b8b8b;fill-opacity:1;stroke-width:.09378125" id="path1146" d="m 61.477156,141.08786 v 1.02756 h 0.465243 q 0.258264,0 0.399303,-0.13371 0.141038,-0.13371 0.141038,-0.38098 0,-0.24545 -0.141038,-0.37916 -0.141039,-0.13371 -0.399303,-0.13371 z m -0.369997,-0.30406 h 0.83524 q 0.459747,0 0.694201,0.20881 0.236284,0.20698 0.236284,0.60812 0,0.40479 -0.236284,0.61177 -0.234454,0.20698 -0.694201,0.20698 h -0.465243 v 1.099 h -0.369997 z"/><path style="fill:#8b8b8b;fill-opacity:1;stroke-width:.09378125" id="path1148" d="m 64.481086,141.03474 q -0.402966,0 -0.641083,0.30039 -0.236284,0.3004 -0.236284,0.81876 0,0.51653 0.236284,0.81692 0.238117,0.30039 0.641083,0.30039 0.402967,0 0.63742,-0.30039 0.236284,-0.30039 0.236284,-0.81692 0,-0.51836 -0.236284,-0.81876 -0.234453,-0.30039 -0.63742,-0.30039 z m 0,-0.30039 q 0.575143,0 0.919496,0.38648 0.344353,0.38465 0.344353,1.03306 0,0.64658 -0.344353,1.03306 -0.344353,0.38465 -0.919496,0.38465 -0.576974,0 -0.923159,-0.38465 -0.344353,-0.38465 -0.344353,-1.03306 0,-0.64841 0.344353,-1.03306 0.346185,-0.38648 0.923159,-0.38648 z"/><path style="fill:#8b8b8b;fill-opacity:1;stroke-width:.09378125" id="path1150" d="m 67.963082,140.87355 v 0.36084 q -0.210642,-0.10074 -0.397472,-0.15019 -0.186829,-0.0495 -0.360838,-0.0495 -0.302224,0 -0.467074,0.11723 -0.163018,0.11722 -0.163018,0.33336 0,0.18134 0.108068,0.27475 0.1099,0.0916 0.413956,0.14836 l 0.223463,0.0458 q 0.413957,0.0788 0.609945,0.27841 0.19782,0.19782 0.19782,0.53118 0,0.39747 -0.267423,0.60262 -0.265592,0.20515 -0.78029,0.20515 -0.194156,0 -0.413956,-0.044 -0.217968,-0.044 -0.452421,-0.13005 v -0.38099 q 0.225294,0.12639 0.441431,0.1905 0.216136,0.0641 0.424946,0.0641 0.316878,0 0.489055,-0.12455 0.172176,-0.12455 0.172176,-0.35534 0,-0.20149 -0.124553,-0.31505 -0.122721,-0.11356 -0.404798,-0.17034 l -0.225295,-0.044 q -0.413956,-0.0824 -0.598954,-0.25827 -0.184998,-0.17584 -0.184998,-0.48905 0,-0.36267 0.254601,-0.57148 0.256433,-0.20881 0.705191,-0.20881 0.192325,0 0.391976,0.0348 0.199652,0.0348 0.408462,0.1044 z"/></g><g style="font-style:normal;font-weight:400;font-size:3.84308147px;line-height:1.25;font-family:sans-serif;letter-spacing:0;word-spacing:0;fill:#8b8b8b;fill-opacity:1;stroke:none;stroke-width:.09607703" id="text1057" aria-label="SCL" transform="translate(4.56e-4,10.423098)"><path style="fill:#8b8b8b;fill-opacity:1;stroke-width:.09607703" id="path1059" d="m 62.957959,150.67961 v 0.36967 q -0.215798,-0.10321 -0.407201,-0.15387 -0.191404,-0.0507 -0.369672,-0.0507 -0.309623,0 -0.478509,0.1201 -0.167008,0.12009 -0.167008,0.34152 0,0.18578 0.110713,0.28148 0.112591,0.0938 0.42409,0.15199 l 0.228934,0.0469 q 0.42409,0.0807 0.624876,0.28523 0.202662,0.20266 0.202662,0.54418 0,0.4072 -0.273969,0.61737 -0.272093,0.21017 -0.799391,0.21017 -0.19891,0 -0.42409,-0.045 -0.223304,-0.045 -0.463497,-0.13323 v -0.39031 q 0.23081,0.12948 0.452238,0.19516 0.221427,0.0657 0.435349,0.0657 0.324635,0 0.501027,-0.1276 0.176391,-0.1276 0.176391,-0.36404 0,-0.20642 -0.127602,-0.32276 -0.125726,-0.11634 -0.414708,-0.17451 l -0.23081,-0.045 q -0.42409,-0.0844 -0.613617,-0.26459 -0.189527,-0.18014 -0.189527,-0.50102 0,-0.37155 0.260834,-0.58547 0.262711,-0.21392 0.722455,-0.21392 0.197033,0 0.401572,0.0357 0.204539,0.0357 0.41846,0.10696 z"/><path style="fill:#8b8b8b;fill-opacity:1;stroke-width:.09607703" id="path1061" d="m 65.815876,150.80346 v 0.39969 q -0.191404,-0.17826 -0.409078,-0.26646 -0.215798,-0.0882 -0.459744,-0.0882 -0.480385,0 -0.73559,0.29462 -0.255205,0.29273 -0.255205,0.84818 0,0.55357 0.255205,0.84818 0.255205,0.29273 0.73559,0.29273 0.243946,0 0.459744,-0.0882 0.217674,-0.0882 0.409078,-0.26647 v 0.39594 q -0.19891,0.13511 -0.422214,0.20267 -0.221428,0.0676 -0.469126,0.0676 -0.636135,0 -1.002054,-0.38844 -0.365918,-0.39031 -0.365918,-1.06397 0,-0.67555 0.365918,-1.06398 0.365919,-0.39031 1.002054,-0.39031 0.251451,0 0.472879,0.0675 0.223304,0.0657 0.418461,0.19891 z"/><path style="fill:#8b8b8b;fill-opacity:1;stroke-width:.09607703" id="path1063" d="m 66.405098,150.58766 h 0.379054 v 2.48262 h 1.364219 v 0.319 h -1.743273 z"/></g></g><g id="layer2" style="display:none"><rect style="opacity:1;vector-effect:none;fill:red;fill-opacity:.50196078;fill-rule:evenodd;stroke:none;stroke-width:.19901438;stroke-linecap:round;stroke-linejoin:miter;stroke-miterlimit:10;stroke-dasharray:none;stroke-dashoffset:0;stroke-opacity:1;paint-order:normal" id="rect262182" width="4.747" height="10" x="5.246" y="46.915"/><rect id="rect262989" width="8.212" height="8.21" x="3.514" y="17.694" style="opacity:1;vector-effect:none;fill:#0f0;fill-opacity:.50196078;fill-rule:evenodd;stroke:none;stroke-width:.23716429;stroke-linecap:round;stroke-linejoin:miter;stroke-miterlimit:10;stroke-dasharray:none;stroke-dashoffset:0;stroke-opacity:1;paint-order:normal"/><rect style="opacity:1;vector-effect:none;fill:#0f0;fill-opacity:.50196078;fill-rule:evenodd;stroke:none;stroke-width:.23716429;stroke-linecap:round;stroke-linejoin:miter;stroke-miterlimit:10;stroke-dasharray:none;stroke-dashoffset:0;stroke-opacity:1;paint-order:normal" id="rect262991" width="8.212" height="8.21" x="3.514" y="32.19"/><rect id="rect262993" width="8.212" height="8.21" x="3.515" y="62.81" style="opacity:1;vector-effect:none;fill:#0f0;fill-opacity:.50196078;fill-rule:evenodd;stroke:none;stroke-width:.23716429;stroke-linecap:round;stroke-linejoin:miter;stroke-miterlimit:10;stroke-dasharray:none;stroke-dashoffset:0;stroke-opacity:1;paint-order:normal"/><rect style="opacity:1;vector-effect:none;fill:#00f;fill-opacity:.50196078;fill-rule:evenodd;stroke:none;stroke-width:.23716429;stroke-linecap:round;stroke-linejoin:miter;stroke-miterlimit:10;stroke-dasharray:none;stroke-dashoffset:0;stroke-opacity:1;paint-order:normal" id="rect262995" width="8.212" height="8.21" x="3.515" y="77.81"/><rect id="rect262997" width="8.212" height="8.21" x="3.514" y="87.811" style="opacity:1;vector-effect:none;fill:#00f;fill-opacity:.50196078;fill-rule:evenodd;stroke:none;stroke-width:.23716429;stroke-linecap:round;stroke-linejoin:miter;stroke-miterlimit:10;stroke-dasharray:none;stroke-dashoffset:0;stroke-opacity:1;paint-order:normal"/><rect style="opacity:1;vector-effect:none;fill:#00f;fill-opacity:.50196078;fill-rule:evenodd;stroke:none;stroke-width:.23716429;stroke-linecap:round;stroke-linejoin:miter;stroke-miterlimit:10;stroke-dasharray:none;stroke-dashoffset:0;stroke-opacity:1;paint-order:normal" id="rect262999" width="8.212" height="8.21" x="3.514" y="97.809"/><rect id="rect263001" width="8.212" height="8.21" x="3.514" y="107.809" style="opacity:1;vector-effect:none;fill:#00f;fill-opacity:.50196078;fill-rule:evenodd;stroke:none;stroke-width:.23716429;stroke-linecap:round;stroke-linejoin:miter;stroke-miterlimit:10;stroke-dasharray:none;stroke-dashoffset:0;stroke-opacity:1;paint-order:normal"/><rect id="rect263003" width=".999" height=".999" x="10.82" y="77.716" style="opacity:1;vector-effect:none;fill:#f0f;fill-opacity:.50196078;fill-rule:evenodd;stroke:none;stroke-width:.02885729;stroke-linecap:round;stroke-linejoin:miter;stroke-miterlimit:10;stroke-dasharray:none;stroke-dashoffset:0;stroke-opacity:1;paint-order:normal"/><rect style="opacity:1;vector-effect:none;fill:#f0f;fill-opacity:.50196078;fill-rule:evenodd;stroke:none;stroke-width:.02885729;stroke-linecap:round;stroke-linejoin:miter;stroke-miterlimit:10;stroke-dasharray:none;stroke-dashoffset:0;stroke-opacity:1;paint-order:normal" id="rect263005" width=".999" height=".999" x="10.82" y="87.716"/><rect id="rect263007" width=".999" height=".999" x="10.82" y="97.717" style="opacity:1;vector-effect:none;fill:#f0f;fill-opacity:.50196078;fill-rule:evenodd;stroke:none;stroke-width:.02885729;stroke-linecap:round;stroke-linejoin:miter;stroke-miterlimit:10;stroke-dasharray:none;stroke-dashoffset:0;stroke-opacity:1;paint-order:normal"/><rect style="opacity:1;vector-effect:none;fill:#f0f;fill-opacity:.50196078;fill-rule:evenodd;stroke:none;stroke-width:.02885729;stroke-linecap:round;stroke-linejoin:miter;stroke-miterlimit:10;stroke-dasharray:none;stroke-dashoffset:0;stroke-opacity:1;paint-order:normal" id="rect263009" width=".999" height=".999" x="10.82" y="107.716"/></g></svg>