<svg xmlns="http://www.w3.org/2000/svg" xmlns:svg="http://www.w3.org/2000/svg" id="svg839" width="12mm" height="12mm" version="1.1" viewBox="0 0 300 300"><metadata id="metadata836"/><g id="layer1"><polygon style="fill:#000" id="SvgjsPolygon1006" points="19.319 7.071 16.73 2.588 12.247 0 7.071 0 2.588 2.588 0 7.071 0 12.247 2.588 16.73 7.071 19.319 12.247 19.319 16.73 16.73 19.319 12.247" transform="matrix(15.508009,0,0,15.507189,-0.33318043,0.04083357)"/><polygon style="fill:#f3f3f3" id="SvgjsPolygon1007" points="16.989 7.803 15.048 4.441 11.686 2.5 7.803 2.5 4.441 4.441 2.5 7.803 2.5 11.686 4.441 15.048 7.803 16.989 11.686 16.989 15.048 15.048 16.989 11.686" transform="matrix(15.508009,0,0,15.507189,-0.33318043,0.04083357)"/><ellipse style="fill:silver;stroke-width:15.50759792" id="SvgjsCircle1008" cx="150.869" cy="151.235" rx="100.802" ry="100.797"/><rect style="fill:#000;stroke-width:15.50759792" id="SvgjsRect1009" width="31.016" height="108.55" x="135.36" y="15.548"/></g></svg>