<svg xmlns="http://www.w3.org/2000/svg" xmlns:svg="http://www.w3.org/2000/svg" id="svg3976" width="57" height="57" version="1.1" viewBox="0 0 15.081 15.081"><defs id="defs3970"><clipPath id="clip12"><path id="path28860" d="m 143,129.75 h 3 V 158 h -3 z m 0,0"/></clipPath><clipPath id="clip11"><path id="path28857" d="m 117.39453,129.75 h 54 v 54.00391 h -54 z m 0,0"/></clipPath><clipPath id="clip150"><path id="path29465" d="m 176,208.92578 h 2 V 228 h -2 z m 0,0"/></clipPath><clipPath id="clip149"><path id="path29462" d="m 159.27734,208.92578 h 36 v 36 h -36 z m 0,0"/></clipPath><clipPath id="clip142"><path id="path29320" d="m 110,208.92578 h 3 V 228 h -3 z m 0,0"/></clipPath><clipPath id="clip141"><path id="path29317" d="m 93.511719,208.92578 h 36.000001 v 36 H 93.511719 Z m 0,0"/></clipPath></defs><metadata id="metadata3973"/><g id="layer1" transform="translate(-141.36322,-119.36481)"><path style="opacity:1;fill:#383838;fill-opacity:1;fill-rule:evenodd;stroke:none;stroke-width:.22287095;stroke-linecap:butt;stroke-linejoin:round;stroke-miterlimit:4;stroke-dasharray:none;stroke-dashoffset:0;stroke-opacity:1;paint-order:fill markers stroke" id="rect8303" d="m 148.89445,119.60045 -0.0388,0.14174 -0.004,-9.8e-4 v 7.47428 c 0,0.0112 0.009,0.0202 0.0207,0.0202 h 0.062 c 0.0115,0 0.0207,-0.009 0.0207,-0.0202 v -7.47428 l -0.005,9.8e-4 -0.0387,-0.14174 z"/><path style="opacity:1;fill:#fff;fill-opacity:1;fill-rule:evenodd;stroke:none;stroke-width:.08614109;stroke-linecap:butt;stroke-linejoin:round;stroke-miterlimit:4;stroke-dasharray:none;stroke-dashoffset:0;stroke-opacity:1;paint-order:fill markers stroke" id="path8301" d="m 149.72643,119.36481 -0.72863,7.68264 h -0.1881 l -0.72863,-7.67696 a 7.5648944,7.5407414 89.999592 0 0 -6.71785,7.51056 7.5648944,7.5407414 89.999592 0 0 7.54053,7.56482 7.5648944,7.5407414 89.999592 0 0 7.54053,-7.56482 7.5648944,7.5407414 89.999592 0 0 -6.71785,-7.51624 z"/></g></svg>