<svg xmlns="http://www.w3.org/2000/svg" xmlns:svg="http://www.w3.org/2000/svg" id="svg2974" width="30" height="30" version="1.1" viewBox="0 0 7.937 7.938"><metadata id="metadata2971"/><g id="layer1" transform="translate(-154.81905,-185.64829)"><path style="opacity:1;fill:#373737;fill-opacity:1;fill-rule:evenodd;stroke:none;stroke-width:.11266308;stroke-linecap:butt;stroke-linejoin:round;stroke-miterlimit:4;stroke-dasharray:none;stroke-dashoffset:0;stroke-opacity:1;paint-order:fill markers stroke" id="path2707" d="m 158.78626,186.03468 -0.0199,0.0708 -0.002,-4.7e-4 v 3.7338 c 2e-5,0.006 0.005,0.0101 0.0106,0.0101 l 0.0317,2e-5 c 0.006,-1e-5 0.0106,-0.005 0.0106,-0.0101 v -3.73385 l -0.003,3.5e-4 -0.0199,-0.0708 z"/><path style="opacity:1;fill:#fff;fill-opacity:1;fill-rule:evenodd;stroke:none;stroke-width:.04533747;stroke-linecap:butt;stroke-linejoin:round;stroke-miterlimit:4;stroke-dasharray:none;stroke-dashoffset:0;stroke-opacity:1;paint-order:fill markers stroke" id="path2709" d="m 159.21927,185.64829 -0.38193,4.0436 -0.099,6e-5 -0.38506,-4.04032 a 3.9814837,3.9688616 89.97721 0 0 -3.53422,3.95426 3.9814837,3.9688616 89.97721 0 0 3.97029,3.9799 3.9814837,3.9688616 89.97721 0 0 3.96721,-3.98298 3.9814837,3.9688616 89.97721 0 0 -3.53729,-3.95451 z"/></g></svg>