<svg xmlns="http://www.w3.org/2000/svg" xmlns:svg="http://www.w3.org/2000/svg" id="svg3976" width="12.3" height="12.3" version="1.1" viewBox="0 0 3.254 3.254"><defs id="defs3970"><filter style="color-interpolation-filters:sRGB" id="filter10495" width="1.048" height="1.048" x="-.024" y="-.024"><feGaussianBlur id="feGaussianBlur10497" stdDeviation=".033"/></filter><filter style="color-interpolation-filters:sRGB" id="filter10522" width="1.012" height="1.012" x="-.006" y="-.006"><feGaussianBlur id="feGaussianBlur10524" stdDeviation=".028"/></filter><filter style="color-interpolation-filters:sRGB" id="filter10530" width="1.005" height="1.005" x="-.002" y="-.002"><feGaussianBlur id="feGaussianBlur10532" stdDeviation=".003"/></filter><clipPath id="clipPath10891" clipPathUnits="userSpaceOnUse"><circle style="opacity:1;fill:red;fill-opacity:1;fill-rule:evenodd;stroke:none;stroke-width:.3998315;stroke-linecap:butt;stroke-linejoin:round;stroke-miterlimit:4;stroke-dasharray:none;stroke-dashoffset:0;stroke-opacity:1;paint-order:fill markers stroke" id="circle10893" cx="88.801" cy="-113.594" r="1.683" transform="rotate(75)"/></clipPath></defs><metadata id="metadata3973"/><g id="layer1" transform="translate(-147.27666,-125.27825)"><g id="g10965" clip-path="url(#clipPath10891)" transform="matrix(0.13769163,-0.95705315,0.95705315,0.13769163,76.677928,246.15091)"><circle style="opacity:1;fill:#c8beb7;fill-opacity:1;fill-rule:evenodd;stroke:none;stroke-width:.41750669;stroke-linecap:butt;stroke-linejoin:round;stroke-miterlimit:4;stroke-dasharray:none;stroke-dashoffset:0;stroke-opacity:1;paint-order:fill markers stroke;filter:url(#filter10495)" id="circle10949" cx="132.707" cy="56.374" r="1.627"/><path style="opacity:.322;fill:#000;fill-opacity:1;fill-rule:evenodd;stroke:none;stroke-width:.96438462;stroke-linecap:butt;stroke-linejoin:round;stroke-miterlimit:4;stroke-dasharray:none;stroke-dashoffset:0;stroke-opacity:1;paint-order:fill markers stroke;filter:url(#filter10522)" id="path10951" d="m -51.216797,-262.12695 a 5.5524552,5.5524552 0 0 0 -5.550781,5.55273 5.5524552,5.5524552 0 0 0 5.550781,5.55274 5.5524552,5.5524552 0 0 0 0.65625,-0.043 h 0.01172 c 0.0022,0 0.0036,-0.002 0.0059,-0.002 a 5.5524552,5.5524552 0 0 0 4.878907,-5.50781 5.5524552,5.5524552 0 0 0 -4.841797,-5.5 c -0.01432,-0.007 -0.02592,-0.0195 -0.04297,-0.0195 h -0.113281 a 5.5524552,5.5524552 0 0 0 -0.554688,-0.0332 z" transform="matrix(0.26458333,0,0,0.26458333,146.25801,124.2596)"/><rect style="opacity:.16799999;fill:#88817c;fill-opacity:1;fill-rule:evenodd;stroke:none;stroke-width:.24253808;stroke-linecap:butt;stroke-linejoin:round;stroke-miterlimit:4;stroke-dasharray:none;stroke-dashoffset:0;stroke-opacity:1;paint-order:fill markers stroke" id="rect10953" width=".32" height="2.824" x="132.586" y="54.961" rx=".021"/><path style="opacity:.322;fill:#ccc;fill-opacity:1;fill-rule:evenodd;stroke:none;stroke-width:.96438462;stroke-linecap:butt;stroke-linejoin:round;stroke-miterlimit:4;stroke-dasharray:none;stroke-dashoffset:0;stroke-opacity:1;paint-order:fill markers stroke;filter:url(#filter10522)" id="path10955" d="m -51.705078,-262.01758 c -0.0042,0.0116 -0.01367,0.0201 -0.01367,0.0332 v 10.8125 c 0,0.0169 0.01071,0.0287 0.01758,0.043 a 5.4687502,5.4687502 0 0 1 -4.984375,-5.44531 5.4687502,5.4687502 0 0 1 4.980469,-5.44336 z" transform="matrix(0.25900038,0,0,0.25900038,145.97206,122.82716)"/><path style="opacity:.322;fill:#ccc;fill-opacity:1;fill-rule:evenodd;stroke:none;stroke-width:.96438462;stroke-linecap:butt;stroke-linejoin:round;stroke-miterlimit:4;stroke-dasharray:none;stroke-dashoffset:0;stroke-opacity:1;paint-order:fill markers stroke;filter:url(#filter10522)" id="path10957" d="m -50.439453,-261.98047 a 5.4687502,5.4687502 0 0 1 4.691406,5.40625 5.4687502,5.4687502 0 0 1 -4.693359,5.4082 c 1.3e-4,-0.002 0.002,-0.004 0.002,-0.006 z" transform="matrix(0.25900038,0,0,0.25900038,145.97206,122.82716)"/><path id="path10959" d="m 132.70686,54.701594 a 1.6726611,1.6726611 0 0 0 -1.67215,1.672744 1.6726611,1.6726611 0 0 0 1.67215,1.672747 1.6726611,1.6726611 0 0 0 1.67275,-1.672747 1.6726611,1.6726611 0 0 0 -1.67275,-1.672744 z m 0,0.0253 a 1.6474452,1.6474452 0 0 1 1.64745,1.647445 1.6474452,1.6474452 0 0 1 -1.64745,1.647445 1.6474452,1.6474452 0 0 1 -1.64744,-1.647445 1.6474452,1.6474452 0 0 1 1.64744,-1.647445 z" style="opacity:.322;fill:#ac9d93;fill-opacity:1;fill-rule:evenodd;stroke:none;stroke-width:.29051808;stroke-linecap:butt;stroke-linejoin:round;stroke-miterlimit:4;stroke-dasharray:none;stroke-dashoffset:0;stroke-opacity:1;paint-order:fill markers stroke;filter:url(#filter10530)"/><path id="path10961" d="m 132.56556,55.055501 c -9.9e-4,0.0028 -0.003,0.0049 -0.003,0.008 v 2.619735 c 0,0.0041 0.003,0.007 0.004,0.01042 a 1.2997533,1.3250107 0 0 1 -1.18463,-1.319332 1.2997533,1.3250107 0 0 1 1.18371,-1.318859 z" style="opacity:.12900002;fill:#fff;fill-opacity:1;fill-rule:evenodd;stroke:none;stroke-width:.23142077;stroke-linecap:butt;stroke-linejoin:round;stroke-miterlimit:4;stroke-dasharray:none;stroke-dashoffset:0;stroke-opacity:1;paint-order:fill markers stroke"/><path id="path10963" d="m 132.91822,55.064492 a 1.2981871,1.3250107 0 0 1 1.11366,1.309868 1.2981871,1.3250107 0 0 1 -1.11412,1.31034 c 3e-5,-4.84e-4 4.7e-4,-9.69e-4 4.7e-4,-0.0015 z" style="opacity:.12900002;fill:#fff;fill-opacity:1;fill-rule:evenodd;stroke:none;stroke-width:.23128131;stroke-linecap:butt;stroke-linejoin:round;stroke-miterlimit:4;stroke-dasharray:none;stroke-dashoffset:0;stroke-opacity:1;paint-order:fill markers stroke"/></g></g></svg>