<svg xmlns="http://www.w3.org/2000/svg" xmlns:svg="http://www.w3.org/2000/svg" xmlns:xlink="http://www.w3.org/1999/xlink" id="svg3976" width="30.32" height="26.267" version="1.1" viewBox="0 0 8.022 6.95"><defs id="defs3970"><linearGradient id="linearGradient1131"><stop style="stop-color:#000;stop-opacity:1" id="stop1127" offset="0"/><stop style="stop-color:#000;stop-opacity:0" id="stop1129" offset="1"/></linearGradient><linearGradient id="linearGradient7119"><stop style="stop-color:#d40000;stop-opacity:1" id="stop7115" offset="0"/><stop style="stop-color:#d40000;stop-opacity:0" id="stop7117" offset="1"/></linearGradient><clipPath id="clipPath10891" clipPathUnits="userSpaceOnUse"><circle style="opacity:1;fill:red;fill-opacity:1;fill-rule:evenodd;stroke:none;stroke-width:.3998315;stroke-linecap:butt;stroke-linejoin:round;stroke-miterlimit:4;stroke-dasharray:none;stroke-dashoffset:0;stroke-opacity:1;paint-order:fill markers stroke" id="circle10893" cx="88.801" cy="-113.594" r="1.683" transform="rotate(75)"/></clipPath><radialGradient id="radialGradient3570" cx="75.967" cy="29.773" r="4.166" fx="75.967" fy="29.773" gradientTransform="matrix(0.30768762,0,0,0.30768762,125.91061,125.60189)" gradientUnits="userSpaceOnUse" xlink:href="#linearGradient7119"/><radialGradient id="radialGradient3578" cx="75.967" cy="29.773" r="4.166" fx="75.967" fy="29.773" gradientTransform="matrix(0.30768762,0,0,0.30768762,125.91061,125.60189)" gradientUnits="userSpaceOnUse" xlink:href="#linearGradient7119"/><filter style="color-interpolation-filters:sRGB" id="filter3792" width="1.033" height="1.035" x="-.016" y="-.017"><feGaussianBlur id="feGaussianBlur3794" stdDeviation=".204"/></filter><clipPath id="clipPath3862" clipPathUnits="userSpaceOnUse"><path id="path3864" d="M 3.3515717,66.257803 -11.609386,68.70705 -16.968756,82.886704 -7.369134,94.619151 7.5917859,92.169904 12.953121,77.99025 Z m -5.3593701,4.585965 a 9.5949374,9.5949374 0 0 1 9.5937261,9.595692 9.5949374,9.5949374 0 0 1 -9.5937261,9.593726 9.5949374,9.5949374 0 0 1 -9.5957296,-9.593726 9.5949374,9.5949374 0 0 1 9.5957296,-9.595692 z" style="opacity:1;fill:#ccc;fill-opacity:1;fill-rule:evenodd;stroke:none;stroke-width:.87701327;stroke-linecap:butt;stroke-linejoin:round;stroke-miterlimit:4;stroke-dasharray:none;stroke-dashoffset:0;stroke-opacity:1;paint-order:fill markers stroke"/></clipPath><clipPath id="clipPath901" clipPathUnits="userSpaceOnUse"><circle style="opacity:.69599998;fill:#a8a8a8;fill-opacity:1;fill-rule:evenodd;stroke:none;stroke-width:.24327363;stroke-linecap:butt;stroke-linejoin:round;stroke-miterlimit:4;stroke-dasharray:none;stroke-dashoffset:0;stroke-opacity:1;paint-order:fill markers stroke" id="circle903" cx="141.932" cy="125.788" r="2.381"/></clipPath><radialGradient id="radialGradient1133" cx="149.274" cy="126.581" r="2.441" fx="149.274" fy="126.581" gradientTransform="matrix(0.78809029,0,0,0.78809029,31.632558,26.823832)" gradientUnits="userSpaceOnUse" xlink:href="#linearGradient1131"/></defs><metadata id="metadata3973"/><g id="layer1" transform="translate(-145.2627,-123.10653)"><g id="g879" transform="rotate(9.2602241,149.27376,126.58142)"><path id="path3531" d="M 3.3515625,66.257812 -11.609375,68.707031 -16.96875,82.886719 -7.3691406,94.619141 7.5917969,92.169922 12.953125,77.990234 Z m -5.359375,4.585938 a 9.5949374,9.5949374 0 0 1 9.59375,9.595703 9.5949374,9.5949374 0 0 1 -9.59375,9.59375 9.5949374,9.5949374 0 0 1 -9.5957035,-9.59375 9.5949374,9.5949374 0 0 1 9.5957035,-9.595703 z" clip-path="url(#clipPath3862)" transform="matrix(0.26458333,0,0,0.26458333,149.805,105.29874)" style="opacity:1;fill:#ccc;fill-opacity:1;fill-rule:evenodd;stroke:none;stroke-width:.87701327;stroke-linecap:butt;stroke-linejoin:round;stroke-miterlimit:4;stroke-dasharray:none;stroke-dashoffset:0;stroke-opacity:1;paint-order:fill markers stroke;filter:url(#filter3792)"/><path style="opacity:.42300002;fill:#1a1a1a;fill-opacity:1;fill-rule:evenodd;stroke:none;stroke-width:.87701327;stroke-linecap:butt;stroke-linejoin:round;stroke-miterlimit:4;stroke-dasharray:none;stroke-dashoffset:0;stroke-opacity:1;paint-order:fill markers stroke;filter:url(#filter3792)" id="path905" d="M 3.3515625,66.257812 -11.609375,68.707031 -16.96875,82.886719 -7.3691406,94.619141 7.5917969,92.169922 12.953125,77.990234 Z m -5.359375,4.585938 a 9.5949374,9.5949374 0 0 1 9.59375,9.595703 9.5949374,9.5949374 0 0 1 -9.59375,9.59375 9.5949374,9.5949374 0 0 1 -9.5957035,-9.59375 9.5949374,9.5949374 0 0 1 9.5957035,-9.595703 z" clip-path="url(#clipPath3862)" transform="matrix(0.25676762,0,0,0.25676762,149.78931,105.92742)"/><path style="opacity:1;fill:#ececec;fill-opacity:1;fill-rule:evenodd;stroke:none;stroke-width:.87701327;stroke-linecap:butt;stroke-linejoin:round;stroke-miterlimit:4;stroke-dasharray:none;stroke-dashoffset:0;stroke-opacity:1;paint-order:fill markers stroke;filter:url(#filter3792)" id="path3866" d="M 3.3515625,66.257812 -11.609375,68.707031 -16.96875,82.886719 -7.3691406,94.619141 7.5917969,92.169922 12.953125,77.990234 Z m -5.359375,4.585938 a 9.5949374,9.5949374 0 0 1 9.59375,9.595703 9.5949374,9.5949374 0 0 1 -9.59375,9.59375 9.5949374,9.5949374 0 0 1 -9.5957035,-9.59375 9.5949374,9.5949374 0 0 1 9.5957035,-9.595703 z" clip-path="url(#clipPath3862)" transform="matrix(0.2489519,0,0,0.2489519,149.77361,106.55611)"/><path id="path3868" d="M 3.3515625,66.257812 -11.609375,68.707031 -16.96875,82.886719 -7.3691406,94.619141 7.5917969,92.169922 12.953125,77.990234 Z m -5.359375,4.585938 a 9.5949374,9.5949374 0 0 1 9.59375,9.595703 9.5949374,9.5949374 0 0 1 -9.59375,9.59375 9.5949374,9.5949374 0 0 1 -9.5957035,-9.59375 9.5949374,9.5949374 0 0 1 9.5957035,-9.595703 z" clip-path="url(#clipPath3862)" transform="matrix(0.22751293,0,0,0.22751293,149.73056,108.28063)" style="opacity:1;fill:#ededed;fill-opacity:1;fill-rule:evenodd;stroke:none;stroke-width:.87701327;stroke-linecap:butt;stroke-linejoin:round;stroke-miterlimit:4;stroke-dasharray:none;stroke-dashoffset:0;stroke-opacity:1;paint-order:fill markers stroke;filter:url(#filter3792)"/></g><g id="g905" transform="translate(7.2282502e-6,-4.586333e-5)"><path style="opacity:.77100004;fill:#000;fill-opacity:1;fill-rule:evenodd;stroke:none;stroke-width:.22953653;stroke-linecap:butt;stroke-linejoin:round;stroke-miterlimit:4;stroke-dasharray:none;stroke-dashoffset:0;stroke-opacity:1;paint-order:fill markers stroke" id="path995" d="m 141.93158,123.16847 a 2.6192374,2.6192374 0 0 0 -2.61919,2.6192 2.6192374,2.6192374 0 0 0 2.61919,2.61919 2.6192374,2.6192374 0 0 0 2.6192,-2.61919 2.6192374,2.6192374 0 0 0 -2.6192,-2.6192 z m 0,0.45638 a 2.1630984,2.1630984 0 0 1 2.16282,2.16282 2.1630984,2.1630984 0 0 1 -2.16282,2.16329 2.1630984,2.1630984 0 0 1 -2.16329,-2.16329 2.1630984,2.1630984 0 0 1 2.16329,-2.16282 z" clip-path="url(#clipPath901)" transform="matrix(1.3009941,0,0,1.3009941,-35.37839,-37.067586)"/><path style="opacity:.619;fill:#b6b6b6;fill-opacity:1;fill-rule:evenodd;stroke:none;stroke-width:.24415322;stroke-linecap:butt;stroke-linejoin:round;stroke-miterlimit:4;stroke-dasharray:none;stroke-dashoffset:0;stroke-opacity:1;paint-order:fill markers stroke" id="path999" d="m 152.28815,126.58142 a 3.0143908,3.0143908 0 0 1 -3.0144,3.0144 3.0143908,3.0143908 0 0 1 -3.0144,-3.0144 3.0143908,3.0143908 0 0 1 3.0144,-3.0144 3.0143908,3.0143908 0 0 1 3.0144,3.0144 z"/><path style="opacity:.619;fill:#fff;fill-opacity:1;fill-rule:evenodd;stroke:none;stroke-width:.20409098;stroke-linecap:butt;stroke-linejoin:round;stroke-miterlimit:4;stroke-dasharray:none;stroke-dashoffset:0;stroke-opacity:1;paint-order:fill markers stroke" id="circle1010" d="m 151.79353,126.58142 a 2.5197702,2.5197702 0 0 1 -2.51978,2.51977 2.5197702,2.5197702 0 0 1 -2.51976,-2.51977 2.5197702,2.5197702 0 0 1 2.51976,-2.51977 2.5197702,2.5197702 0 0 1 2.51978,2.51977 z"/><path id="path3703" d="m 141.93158,123.16847 a 2.6192374,2.6192374 0 0 0 -2.61919,2.6192 2.6192374,2.6192374 0 0 0 2.61919,2.61919 2.6192374,2.6192374 0 0 0 2.6192,-2.61919 2.6192374,2.6192374 0 0 0 -2.6192,-2.6192 z m 0,0.45638 a 2.1630984,2.1630984 0 0 1 2.16282,2.16282 2.1630984,2.1630984 0 0 1 -2.16282,2.16329 2.1630984,2.1630984 0 0 1 -2.16329,-2.16329 2.1630984,2.1630984 0 0 1 2.16329,-2.16282 z" clip-path="url(#clipPath901)" transform="matrix(1.0500063,0,0,1.0500063,0.24469585,-5.4964268)" style="opacity:.778;fill:#000;fill-opacity:1;fill-rule:evenodd;stroke:none;stroke-width:.22953653;stroke-linecap:butt;stroke-linejoin:round;stroke-miterlimit:4;stroke-dasharray:none;stroke-dashoffset:0;stroke-opacity:1;paint-order:fill markers stroke"/><path style="opacity:.619;fill:#b0b0b0;fill-opacity:1;fill-rule:evenodd;stroke:none;stroke-width:.19355866;stroke-linecap:butt;stroke-linejoin:round;stroke-miterlimit:4;stroke-dasharray:none;stroke-dashoffset:0;stroke-opacity:1;paint-order:fill markers stroke" id="circle1012" d="m 151.6635,126.58142 a 2.3897349,2.3897349 0 0 1 -2.38975,2.38975 2.3897349,2.3897349 0 0 1 -2.38974,-2.38975 2.3897349,2.3897349 0 0 1 2.38974,-2.38974 2.3897349,2.3897349 0 0 1 2.38975,2.38974 z"/><circle style="opacity:1;fill:#000;fill-opacity:1;stroke-width:.47448623" id="circle3710" cx="149.274" cy="126.581" r="1.977"/><circle id="circle3700" cx="149.274" cy="126.581" r="1.882" style="opacity:.33300003;fill:#a8a8a8;fill-opacity:1;stroke-width:.45165837"/></g><g id="g896" transform="rotate(11.951348,149.27396,126.58143)"><circle style="opacity:.69599998;fill:url(#radialGradient1133);fill-opacity:1;stroke-width:.46176159;paint-order:stroke fill markers" id="circle3549-4" cx="149.274" cy="126.581" r="1.924"/><g style="opacity:1" id="g3697" transform="matrix(0.84535838,-0.18618662,0.09310222,0.42050485,18.069716,93.521621)"><path style="opacity:.497;fill:#999;fill-opacity:1;fill-rule:evenodd;stroke:none;stroke-width:.25003123;stroke-linecap:butt;stroke-linejoin:round;stroke-miterlimit:4;stroke-dasharray:none;stroke-dashoffset:0;stroke-opacity:1;paint-order:fill markers stroke" id="rect3674" d="m 140.22785,138.22391 c 0.21609,-0.13859 0.39206,-0.35543 0.54936,-0.59375 l 1e-5,-0.86299 c -0.077,-0.11734 -0.15963,-0.22809 -0.24803,-0.32919 l -1.58751,-1e-5 c -0.0884,0.10114 -0.17053,0.21218 -0.24802,0.32919 v 0.86301 c 0.15719,0.23823 0.33335,0.4551 0.54934,0.59374 z"/><rect id="rect3678" width="1.596" height=".242" x="-140.533" y="-136.694" transform="scale(-1)" style="opacity:.497;fill:#f2f2f2;fill-opacity:1;fill-rule:evenodd;stroke:none;stroke-width:.080599;stroke-linecap:butt;stroke-linejoin:round;stroke-miterlimit:4;stroke-dasharray:none;stroke-dashoffset:0;stroke-opacity:1;paint-order:fill markers stroke"/></g></g></g></svg>