<svg xmlns="http://www.w3.org/2000/svg" xmlns:svg="http://www.w3.org/2000/svg" id="svg5280" width="40" height="40.001" version="1.1" viewBox="0 0 10.583 10.584"><metadata id="metadata5277"/><g id="layer1" transform="translate(-155.88291,-250.73004)"><g id="g6400" transform="matrix(1.025641,0,0,1.025641,-3.996999,-6.700351)"><path style="opacity:1;fill:#373737;fill-opacity:1;fill-rule:evenodd;stroke:none;stroke-width:.15036647;stroke-linecap:butt;stroke-linejoin:round;stroke-miterlimit:4;stroke-dasharray:none;stroke-dashoffset:0;stroke-opacity:1;paint-order:fill markers stroke" id="path5072" d="m 161.03651,251.37485 -0.0264,0.0947 -0.003,-6.6e-4 -1e-5,4.99609 c 2e-5,0.008 0.006,0.0135 0.0141,0.0135 l 0.0422,2e-5 c 0.008,-10e-6 0.0141,-0.006 0.0141,-0.0135 v -4.9961 l -0.003,4.9e-4 -0.0264,-0.0948 z"/><path style="opacity:1;fill:#fff;fill-opacity:1;fill-rule:evenodd;stroke:none;stroke-width:.05893935;stroke-linecap:butt;stroke-linejoin:round;stroke-miterlimit:4;stroke-dasharray:none;stroke-dashoffset:0;stroke-opacity:1;paint-order:fill markers stroke" id="path5074" d="m 161.60321,250.99464 -0.49651,5.25679 -0.12871,9e-5 -0.50058,-5.25254 a 5.1760431,5.1595171 89.977372 0 0 -4.59449,5.14065 5.1760431,5.1595171 89.977372 0 0 5.16138,5.17399 5.1760431,5.1595171 89.977372 0 0 5.15737,-5.17799 5.1760431,5.1595171 89.977372 0 0 -4.59847,-5.14098 z"/></g></g></svg>