<svg xmlns="http://www.w3.org/2000/svg" xmlns:svg="http://www.w3.org/2000/svg" id="svg1656" width="23.88" height="23.77" version="1.1" viewBox="0 0 6.318 6.289"><metadata id="metadata1653"/><g id="layer1" transform="translate(-68.640476,-208.44868)" style="display:inline"><path style="opacity:1;fill:#fff;fill-opacity:1;fill-rule:evenodd;stroke:none;stroke-width:.03608952;stroke-linecap:butt;stroke-linejoin:round;stroke-miterlimit:4;stroke-dasharray:none;stroke-dashoffset:0;stroke-opacity:1;paint-order:fill markers stroke" id="path4301" d="m 72.343145,208.44868 -0.462247,3.17893 h -0.162594 l -0.461206,-3.17372 a 3.1693745,3.1592553 89.977372 0 0 -2.616622,3.11587 3.1693745,3.1592553 89.977372 0 0 3.160167,3.16799 3.1693745,3.1592553 89.977372 0 0 3.158083,-3.17059 3.1693745,3.1592553 89.977372 0 0 -2.615581,-3.11848 z"/></g><g id="layer9" style="display:none"><path id="path2793" d="m 71.797293,208.8068 -0.02072,0.0554 -0.0022,-3.7e-4 -10e-7,2.91725 c 1.4e-5,0.005 0.0047,0.009 0.01105,0.009 l 0.03311,1e-5 c 0.0062,0 0.01105,-0.004 0.01105,-0.009 l -10e-7,-2.91726 -0.0027,2.8e-4 -0.02067,-0.0555 z" transform="translate(-68.640476,-208.44868)" style="opacity:1;fill:#373737;fill-opacity:1;fill-rule:evenodd;stroke:none;stroke-width:.10176518;stroke-linecap:butt;stroke-linejoin:round;stroke-miterlimit:4;stroke-dasharray:none;stroke-dashoffset:0;stroke-opacity:1;paint-order:fill markers stroke"/></g></svg>