<svg xmlns="http://www.w3.org/2000/svg" xmlns:xlink="http://www.w3.org/1999/xlink" width="45" height="380" version="1.1" viewBox="0 0 45 380"><style>text{fill:#333;font-family:&apos;Roboto&apos;,sans-serif;font-weight:700}text.title{font-family:&apos;Comfortaa&apos;,sans-serif;font-weight:400}text.brand{font-family:&apos;Audiowide&apos;,sans-serif;font-weight:700}</style><defs><symbol id="knob" viewBox="0 0 45 45"><g transform="translate(22.5 22.5)"><polyline stroke="#00f" stroke-width="1" points="-5 0 5 0"/><polyline stroke="#00f" stroke-width="1" points="0 -5 0 5"/><circle cx="0" cy="0" r="14" fill="none" stroke="#00f" stroke-width="1"/></g></symbol><symbol id="knobguide" viewBox="0 0 45 45"><g><g><g><text font-size="6.5pt" transform="translate(22.5 22.5) rotate(-240) translate(17 0) translate(3 0) rotate(240) translate(-2.8 3.3)">0</text></g></g><g transform="translate(22.5 22.5) rotate(-172.92) translate(17 0)"><polyline stroke="#333" stroke-width=".3" points="0 0 1.5 0"/></g><g><g><text font-size="6.5pt" transform="translate(22.5 22.5) rotate(-145.13) translate(17 0) translate(3 0) rotate(145.13) translate(-2.8 3.3)">1</text></g></g><g transform="translate(22.5 22.5) rotate(-105.84) translate(17 0)"><polyline stroke="#333" stroke-width=".3" points="0 0 3 0"/></g><g transform="translate(22.5 22.5) rotate(-75.68) translate(17 0)"><polyline stroke="#333" stroke-width=".3" points="0 0 3 0"/></g><g transform="translate(22.5 22.5) rotate(-50.26) translate(17 0)"><polyline stroke="#333" stroke-width=".3" points="0 0 3 0"/></g><g><g><text font-size="6.5pt" transform="translate(22.5 22.5) rotate(-27.87) translate(17 0) translate(3 0) rotate(27.87) translate(-2.8 3.3)">5</text></g></g><g transform="translate(22.5 22.5) rotate(-7.62) translate(17 0)"><polyline stroke="#333" stroke-width=".3" points="0 0 3 0"/></g><g transform="translate(22.5 22.5) rotate(11) translate(17 0)"><polyline stroke="#333" stroke-width=".3" points="0 0 3 0"/></g><g transform="translate(22.5 22.5) rotate(28.33) translate(17 0)"><polyline stroke="#333" stroke-width=".3" points="0 0 3 0"/></g><g transform="translate(22.5 22.5) rotate(44.6) translate(17 0)"><polyline stroke="#333" stroke-width=".3" points="0 0 3 0"/></g><g transform="translate(22.5 22.5) rotate(60) translate(17 0)"><polyline stroke="#333" stroke-width=".3" points="0 0 3 0"/></g></g></symbol><symbol id="input" viewBox="0 0 24 24"><g transform="translate(12 12)"><circle cx="0" cy="0" r="5" fill="#0f0" stroke="#0f0" stroke-width="1"/><circle cx="0" cy="0" r="10.5" fill="none" stroke="#0f0" stroke-width="3"/></g></symbol><symbol id="output" viewBox="0 0 24 24"><g transform="translate(12 12)"><circle cx="0" cy="0" r="5" fill="red" stroke="red" stroke-width="1"/><circle cx="0" cy="0" r="10.5" fill="none" stroke="red" stroke-width="3"/></g></symbol><symbol id="button-small" viewBox="0 0 9 9"><g transform="translate(4.5 4.5)"><circle r="4" fill="red" stroke="#00f" stroke-width="1"/></g></symbol><symbol id="light-small" viewBox="0 0 6.4 6.4"><rect width="6.4" height="6.4" fill="#0f0"/></symbol><symbol id="light-tiny" viewBox="0 0 1.1 1.1"><rect width="3.2" height="3.2" fill="#0f0"/></symbol></defs><rect width="100%" height="100%" fill="#ddd"/><polyline fill="none" stroke="#e4e4e4" stroke-width=".5" points="1 1 44 1 44 379 1 379 1 1"/><polyline fill="none" stroke="#ebebeb" stroke-width=".8" points=".5 .5 44.5 .5 44.5 379.5 .5 379.5 .5 .5"/><polyline fill="none" stroke="#f2f2f2" stroke-width="1" points="0 0 45 0 45 380 0 380 0 0"/><g><text class="title" font-size="7pt" letter-spacing="2.5" transform="rotate(-90) translate(-376 13)">AD</text><g transform="rotate(-90) translate(-376 13) translate(0 12)"><text class="brand" font-size="7pt" letter-spacing="2">BGA</text><rect width="3" height="3" fill="#ddd" transform="translate(11.5 -5)"/></g></g><g transform="translate(0 25)"><text font-size="8" letter-spacing="1.5" transform="translate(3.5 0)">ATTACK</text><use id="ATTACK_PARAM" transform="translate(0 0)" xlink:href="#knob"/><use transform="translate(0 0)" xlink:href="#knobguide"/><use id="ATTACK_LIGHT" transform="translate(20.8 40)" xlink:href="#light-tiny"/></g><g transform="translate(0 82)"><text font-size="8" letter-spacing="2" transform="translate(6 0)">DECAY</text><use id="DECAY_PARAM" transform="translate(0 0)" xlink:href="#knob"/><use transform="translate(0 0)" xlink:href="#knobguide"/><use id="DECAY_LIGHT" transform="translate(20.8 40)" xlink:href="#light-tiny"/></g><g transform="translate(2.5 132.5)"><use id="LOOP_PARAM" transform="translate(31 -1.3)" xlink:href="#button-small"/><use id="LOOP_LIGHT" transform="translate(0 0)" xlink:href="#light-small"/><text font-size="8" letter-spacing=".5" transform="translate(8 6.1)">LOOP</text></g><g transform="translate(2.5 147)"><use id="LINEAR_PARAM" transform="translate(31 -1.3)" xlink:href="#button-small"/><use id="LINEAR_LIGHT" transform="translate(0 0)" xlink:href="#light-small"/><text font-size="8" letter-spacing="2" transform="translate(8 6.1)">LIN</text></g><g><g transform="translate(0 160.5) translate(5.5 0)"><rect width="34" height="10" fill="#fafafa" transform="translate(0 98)"/><rect width="34" height="108" fill="#fafafa" rx="5"/><use id="TRIGGER_INPUT" transform="translate(5 3)" xlink:href="#input"/><text font-size="5pt" letter-spacing="2" transform="translate(6.5 35)">TRIG</text><use id="ATTACK_INPUT" transform="translate(5 38)" xlink:href="#input"/><text font-size="5pt" letter-spacing="1" transform="translate(2 70)">ATTACK</text><use id="DECAY_INPUT" transform="translate(5 73)" xlink:href="#input"/><text font-size="5pt" letter-spacing="2" transform="translate(2.5 105)">DECAY</text></g><g transform="translate(0 160.5) translate(5.5 111)"><rect width="34" height="10" fill="#bbb" transform="translate(0 -3)"/><rect width="34" height="70" fill="#bbb" rx="5"/><use id="ENV_OUTPUT" transform="translate(5 0)" xlink:href="#output"/><text font-size="5pt" letter-spacing="2" transform="translate(8.5 32)">ENV</text><use id="EOC_OUTPUT" transform="translate(5 35)" xlink:href="#output"/><text font-size="5pt" letter-spacing="2" transform="translate(8.5 67)">EOC</text></g></g></svg>