<svg xmlns="http://www.w3.org/2000/svg" xmlns:xlink="http://www.w3.org/1999/xlink" width="225" height="380" version="1.1" viewBox="0 0 225 380"><style>text{fill:#333;font-family:&apos;Roboto&apos;,sans-serif;font-weight:700}text.title{font-family:&apos;Comfortaa&apos;,sans-serif;font-weight:400}text.brand{font-family:&apos;Audiowide&apos;,sans-serif;font-weight:700}</style><defs><symbol id="knob-large" viewBox="0 0 68 68"><g transform="translate(34 34)"><polyline stroke="#00f" stroke-width="1" points="-10 0 10 0"/><polyline stroke="#00f" stroke-width="1" points="0 -10 0 10"/><circle cx="0" cy="0" r="33.5" fill="none" stroke="#00f" stroke-width="1"/></g></symbol><symbol id="knob" viewBox="0 0 38 38"><g transform="translate(19 19)"><polyline stroke="#00f" stroke-width="1" points="-5 0 5 0"/><polyline stroke="#00f" stroke-width="1" points="0 -5 0 5"/><circle cx="0" cy="0" r="18.5" fill="none" stroke="#00f" stroke-width="1"/></g></symbol><symbol id="knob-medium" viewBox="0 0 26 26"><g transform="translate(13 13)"><polyline stroke="#00f" stroke-width="1" points="-3 0 3 0"/><polyline stroke="#00f" stroke-width="1" points="0 -3 0 3"/><circle cx="0" cy="0" r="12.5" fill="none" stroke="#00f" stroke-width="1"/></g></symbol><symbol id="knob-smallest" viewBox="0 0 16 16"><g transform="translate(8 8)"><polyline stroke="#00f" stroke-width="1" points="-3 0 3 0"/><polyline stroke="#00f" stroke-width="1" points="0 -3 0 3"/><circle r="7.5" fill="none" stroke="#00f" stroke-width="1"/></g></symbol><symbol id="knobguide-frequency" viewBox="0 0 108 108"><g><g transform="translate(54 54) rotate(-240) translate(34 0)"><polyline stroke="#333" stroke-width="1" points="0 0 5 0" transform="translate(3 0)"/><text font-size="7pt" transform="translate(14 0) rotate(240) translate(-6 3)">-3</text></g><g transform="translate(54 54) rotate(-220.56) translate(34 0)"><polyline stroke="#333" stroke-width=".7" points="0 0 3 0" transform="translate(3 0)"/></g><g transform="translate(54 54) rotate(-206.667) translate(34 0)"><polyline stroke="#333" stroke-width="1" points="0 0 5 0" transform="translate(3 0)"/><text font-size="7pt" transform="translate(14 0) rotate(206.667) translate(-5.5 3)">-2</text></g><g transform="translate(54 54) rotate(-187.23) translate(34 0)"><polyline stroke="#333" stroke-width=".7" points="0 0 3 0" transform="translate(3 0)"/></g><g transform="translate(54 54) rotate(-173.333) translate(34 0)"><polyline stroke="#333" stroke-width="1" points="0 0 5 0" transform="translate(3 0)"/><text font-size="7pt" transform="translate(14 0) rotate(173.333) translate(-4 3)">-1</text></g><g transform="translate(54 54) rotate(-153.89) translate(34 0)"><polyline stroke="#333" stroke-width=".7" points="0 0 3 0" transform="translate(3 0)"/></g><g transform="translate(54 54) rotate(-140) translate(34 0)"><polyline stroke="#333" stroke-width="1" points="0 0 5 0" transform="translate(3 0)"/><text font-size="7pt" letter-spacing="1" transform="translate(16 0) rotate(140) translate(-6 3.5)">0V</text></g><g transform="translate(54 54) rotate(-120.56) translate(34 0)"><polyline stroke="#333" stroke-width=".7" points="0 0 3 0" transform="translate(3 0)"/></g><g transform="translate(54 54) rotate(-106.667) translate(34 0)"><polyline stroke="#333" stroke-width="1" points="0 0 5 0" transform="translate(3 0)"/><text font-size="7pt" transform="translate(14 0) rotate(106.667) translate(-2.7 3)">1</text></g><g transform="translate(54 54) rotate(-87.23) translate(34 0)"><polyline stroke="#333" stroke-width=".7" points="0 0 3 0" transform="translate(3 0)"/></g><g transform="translate(54 54) rotate(-73.33) translate(34 0)"><polyline stroke="#333" stroke-width="1" points="0 0 5 0" transform="translate(3 0)"/><text font-size="7pt" transform="translate(14 0) rotate(73.333) translate(-2.7 3)">2</text></g><g transform="translate(54 54) rotate(-53.89) translate(34 0)"><polyline stroke="#333" stroke-width=".7" points="0 0 3 0" transform="translate(3 0)"/></g><g transform="translate(54 54) rotate(-40) translate(34 0)"><polyline stroke="#333" stroke-width="1" points="0 0 5 0" transform="translate(3 0)"/><text font-size="7pt" transform="translate(14 0) rotate(40) translate(-2.7 3)">3</text></g><g transform="translate(54 54) rotate(-20.56) translate(34 0)"><polyline stroke="#333" stroke-width=".7" points="0 0 3 0" transform="translate(3 0)"/></g><g transform="translate(54 54) rotate(-6.667) translate(34 0)"><polyline stroke="#333" stroke-width="1" points="0 0 5 0" transform="translate(3 0)"/><text font-size="7pt" transform="translate(14 0) rotate(6.667) translate(-2.7 3)">4</text></g><g transform="translate(54 54) rotate(12.77) translate(34 0)"><polyline stroke="#333" stroke-width=".7" points="0 0 3 0" transform="translate(3 0)"/></g><g transform="translate(54 54) rotate(26.667) translate(34 0)"><polyline stroke="#333" stroke-width="1" points="0 0 5 0" transform="translate(3 0)"/><text font-size="7pt" transform="translate(14 0) rotate(-26.667) translate(-2.7 3)">5</text></g><g transform="translate(54 54) rotate(46.11) translate(34 0)"><polyline stroke="#333" stroke-width=".7" points="0 0 3 0" transform="translate(3 0)"/></g><g transform="translate(54 54) rotate(60) translate(34 0)"><polyline stroke="#333" stroke-width="1" points="0 0 5 0" transform="translate(3 0)"/><text font-size="7pt" transform="translate(14 0) rotate(-60) translate(-2.7 3)">6</text></g></g></symbol><symbol id="knobguide-partials" viewBox="0 0 70 70"><g transform="translate(35 35)"><text font-size="8" transform="rotate(-240) translate(25.5 0) rotate(240) translate(-2.5 2.5)">1</text><polyline stroke="#333" stroke-width=".3" points="0 0 3 0" transform="rotate(-212.73) translate(21 0)"/><text font-size="8" transform="rotate(-182.42) translate(25 0) rotate(182.42) translate(-7 2.8)">20</text><polyline stroke="#333" stroke-width=".3" points="0 0 3 0" transform="rotate(-152.12) translate(21 0)"/><text font-size="8" transform="rotate(-121.82) translate(25 0) rotate(121.82) translate(-7 2.5)">40</text><polyline stroke="#333" stroke-width=".3" points="0 0 3 0" transform="rotate(-91.52) translate(21 0)"/><text font-size="8" transform="rotate(-61.21) translate(25 0) rotate(61.21) translate(-3 2.5)">60</text><polyline stroke="#333" stroke-width=".3" points="0 0 3 0" transform="rotate(-30.91) translate(21 0)"/><text font-size="8" transform="rotate(-0.61) translate(25 0) rotate(0.61) translate(-2.5 2.8)">80</text><polyline stroke="#333" stroke-width=".3" points="0 0 3 0" transform="rotate(29.7) translate(21 0)"/><text font-size="8" transform="rotate(60) translate(25.5 0) rotate(-60) translate(-2 2.5)">100</text></g></symbol><symbol id="knobguide-attenuverter" viewBox="0 0 45 45"><g><g><text font-size="12" transform="translate(22.5 22.5) rotate(-240) translate(15 0) translate(3 0) rotate(240) translate(-2.2 3.6)">-</text></g><g transform="translate(22.5 22.5) rotate(-210) translate(15 0)"><polyline stroke="#333" stroke-width=".3" points="0 0 2.5 0"/></g><g transform="translate(22.5 22.5) rotate(-180) translate(15 0)"><polyline stroke="#333" stroke-width=".3" points="0 0 2.5 0"/></g><g transform="translate(22.5 22.5) rotate(-150) translate(15 0)"><polyline stroke="#333" stroke-width=".3" points="0 0 2.5 0"/></g><g transform="translate(22.5 22.5) rotate(-120) translate(15 0)"><polyline stroke="#333" stroke-width=".3" points="0 0 2.5 0"/></g><g><text font-size="5pt" transform="translate(22.5 22.5) rotate(-90) translate(15 0) translate(2 0) rotate(90) translate(-2 2)">0</text></g><g transform="translate(22.5 22.5) rotate(-60) translate(15 0)"><polyline stroke="#333" stroke-width=".3" points="0 0 2.5 0"/></g><g transform="translate(22.5 22.5) rotate(-30) translate(15 0)"><polyline stroke="#333" stroke-width=".3" points="0 0 2.5 0"/></g><g transform="translate(22.5 22.5) rotate(0) translate(15 0)"><polyline stroke="#333" stroke-width=".3" points="0 0 2.5 0"/></g><g transform="translate(22.5 22.5) rotate(30) translate(15 0)"><polyline stroke="#333" stroke-width=".3" points="0 0 2.5 0"/></g><g><text font-size="5pt" transform="translate(22.5 22.5) rotate(60) translate(15 0) translate(3 0) rotate(-60) translate(-2 2)">+</text></g></g></symbol><symbol id="knobguide-linear" viewBox="0 0 45 45"><g transform="translate(22.5 22.5)"><text font-size="5pt" transform="rotate(-240) translate(18 0) rotate(240) translate(-2 2)">0</text><polyline stroke="#333" stroke-width=".3" points="0 0 2.5 0" transform="rotate(-210) translate(15 0)"/><polyline stroke="#333" stroke-width=".3" points="0 0 2.5 0" transform="rotate(-180) translate(15 0)"/><polyline stroke="#333" stroke-width=".3" points="0 0 2.5 0" transform="rotate(-150) translate(15 0)"/><polyline stroke="#333" stroke-width=".3" points="0 0 2.5 0" transform="rotate(-120) translate(15 0)"/><polyline stroke="#333" stroke-width=".3" points="0 0 2.5 0" transform="rotate(-90) translate(15 0)"/><polyline stroke="#333" stroke-width=".3" points="0 0 2.5 0" transform="rotate(-60) translate(15 0)"/><polyline stroke="#333" stroke-width=".3" points="0 0 2.5 0" transform="rotate(-30) translate(15 0)"/><polyline stroke="#333" stroke-width=".3" points="0 0 2.5 0" transform="rotate(0) translate(15 0)"/><polyline stroke="#333" stroke-width=".3" points="0 0 2.5 0" transform="rotate(30) translate(15 0)"/><polyline stroke="#333" stroke-width="1" points="0 0 3.5 0" transform="rotate(60) translate(15 0)"/></g></symbol><symbol id="knobguide-centertick" viewBox="0 0 40 40"><g><g transform="translate(20 20) rotate(-90) translate(10 0)"><polyline stroke="#333" stroke-width="1" points="0 0 4 0"/></g><path fill="none" stroke="#333" stroke-linecap="round" stroke-width=".5" d="M 0 -12.5 A 12.5 12.5 0 0 1 12.5 0" transform="translate(20 20) rotate(20)"/><path fill="none" stroke="#333" stroke-linecap="round" stroke-width=".5" d="M 0 -12.5 A 12.5 12.5 0 0 1 12.5 0" transform="translate(20 20) rotate(43)"/><path fill="none" stroke="#333" stroke-linecap="round" stroke-width=".5" d="M 0 -12.5 A 12.5 12.5 0 0 0 -12.5 0" transform="translate(20 20) rotate(-20)"/><path fill="none" stroke="#333" stroke-linecap="round" stroke-width=".5" d="M 0 -12.5 A 12.5 12.5 0 0 0 -12.5 0" transform="translate(20 20) rotate(-43)"/></g></symbol><symbol id="input" viewBox="0 0 24 24"><g transform="translate(12 12)"><circle cx="0" cy="0" r="5" fill="#0f0" stroke="#0f0" stroke-width="1"/><circle cx="0" cy="0" r="10.5" fill="none" stroke="#0f0" stroke-width="3"/></g></symbol><symbol id="output" viewBox="0 0 24 24"><g transform="translate(12 12)"><circle cx="0" cy="0" r="5" fill="red" stroke="red" stroke-width="1"/><circle cx="0" cy="0" r="10.5" fill="none" stroke="red" stroke-width="3"/></g></symbol><symbol id="button-small" viewBox="0 0 9 9"><g transform="translate(4.5 4.5)"><circle r="4" fill="red" stroke="#00f" stroke-width="1"/></g></symbol><symbol id="light-small" viewBox="0 0 6.4 6.4"><rect width="6.4" height="6.4" fill="#0f0"/></symbol></defs><rect width="100%" height="100%" fill="#ddd"/><polyline fill="none" stroke="#e4e4e4" stroke-width=".5" points="1 1 224 1 224 379 1 379 1 1"/><polyline fill="none" stroke="#ebebeb" stroke-width=".8" points=".5 .5 224.5 .5 224.5 379.5 .5 379.5 .5 .5"/><polyline fill="none" stroke="#f2f2f2" stroke-width="1" points="0 0 225 0 225 380 0 380 0 0"/><text x="49" y="19" class="title" font-size="16" letter-spacing="4">ADDITATOR</text><g transform="translate(72.5 374)"><text class="brand" font-size="8pt" letter-spacing="2">BOGAUDIO</text><rect width="3" height="3" fill="#ddd" transform="translate(24 -5)"/></g><g transform="translate(20 25)"><use id="FREQUENCY_PARAM" transform="translate(20 20)" xlink:href="#knob-large"/></g><use transform="translate(20 25)" xlink:href="#knobguide-frequency"/><text font-size="8" letter-spacing="1" transform="translate(30 135)">0V = C4 = 261.63HZ</text><g transform="translate(144 60)"><text font-size="8pt" letter-spacing="2" transform="translate(4 50) rotate(270)">PARTIALS</text><use id="PARTIALS_PARAM" transform="translate(21 0)" xlink:href="#knob"/><use transform="translate(5 -16)" xlink:href="#knobguide-partials"/></g><g transform="translate(10 155)"><g transform="translate(10 5)"><text font-size="8pt" letter-spacing="2" transform="translate(-3 22.5) rotate(270)">FINE</text><use id="FINE_PARAM" transform="translate(10 0)" xlink:href="#knob-smallest"/></g><use transform="translate(8 -7)" xlink:href="#knobguide-centertick"/><g transform="translate(53 0)"><text font-size="8pt" letter-spacing="2" transform="translate(8 33) rotate(270)">WIDTH</text><use id="WIDTH_PARAM" transform="translate(16 0)" xlink:href="#knob-medium"/></g><use transform="translate(59.5 -9.5)" xlink:href="#knobguide-linear"/><g transform="translate(106 0)"><text font-size="8pt" letter-spacing="2" transform="translate(8 38) rotate(270)">O-SKEW</text><use id="ODD_SKEW_PARAM" transform="translate(16 0)" xlink:href="#knob-medium"/></g><use transform="translate(112.5 -9.5)" xlink:href="#knobguide-attenuverter"/><g transform="translate(158 0)"><text font-size="8pt" letter-spacing="2" transform="translate(8 37.5) rotate(270)">E-SKEW</text><use id="EVEN_SKEW_PARAM" transform="translate(16 0)" xlink:href="#knob-medium"/></g><use transform="translate(164.5 -9.5)" xlink:href="#knobguide-attenuverter"/></g><g transform="translate(10 218)"><g transform="translate(-1 0)"><text font-size="8pt" letter-spacing="2" transform="translate(8 28.5) rotate(270)">GAIN</text><use id="GAIN_PARAM" transform="translate(16 0)" xlink:href="#knob-medium"/></g><use transform="translate(5.5 -9.5)" xlink:href="#knobguide-linear"/><g transform="translate(53 0)"><text font-size="8pt" letter-spacing="2" transform="translate(8 33.5) rotate(270)">DECAY</text><use id="DECAY_PARAM" transform="translate(16 0)" xlink:href="#knob-medium"/></g><use transform="translate(59.5 -9.5)" xlink:href="#knobguide-attenuverter"/><g transform="translate(106 0)"><text font-size="8pt" letter-spacing="2" transform="translate(8 43) rotate(270)">BALANCE</text><use id="BALANCE_PARAM" transform="translate(16 0)" xlink:href="#knob-medium"/></g><use transform="translate(112.5 -9.5)" xlink:href="#knobguide-attenuverter"/><g transform="translate(158 0)"><text font-size="8pt" letter-spacing="2" transform="translate(8 34.5) rotate(270)">FILTER</text><use id="FILTER_PARAM" transform="translate(16 0)" xlink:href="#knob-medium"/></g><use transform="translate(164.5 -9.5)" xlink:href="#knobguide-attenuverter"/></g><g transform="translate(185 272)"><use id="SINE_LIGHT" transform="translate(0 0)" xlink:href="#light-small"/><text font-size="8" letter-spacing="2" transform="translate(9 6.1)">SIN</text><use id="COSINE_LIGHT" transform="translate(0 15)" xlink:href="#light-small"/><text font-size="8" letter-spacing="2" transform="translate(9 21.1)">COS</text><use id="PHASE_PARAM" transform="translate(9 27)" xlink:href="#button-small"/></g><g transform="translate(0 269)"><rect width="205" height="47" fill="#bbb" rx="5" transform="translate(10 44)"/><rect width="171" height="91" fill="#fafafa" rx="5" transform="translate(10 0)"/><rect width="10" height="10" fill="#fafafa" transform="translate(171 81)"/><g><g transform="translate(10 0) translate(3 0)"><use id="SYNC_INPUT" transform="translate(3 5)" xlink:href="#input"/><text font-size="8" letter-spacing="1" transform="translate(3 40)">SYNC</text></g><g transform="translate(10 0) translate(37 0)"><use id="PARTIALS_INPUT" transform="translate(3 5)" xlink:href="#input"/><text font-size="8" letter-spacing="1" transform="translate(0.5 40)">PRTLS</text></g><g transform="translate(10 0) translate(71 0)"><use id="WIDTH_INPUT" transform="translate(3 5)" xlink:href="#input"/><text font-size="8" letter-spacing="1" transform="translate(0.5 40)">WIDTH</text></g><g transform="translate(10 0) translate(105 0)"><use id="ODD_SKEW_INPUT" transform="translate(3 5)" xlink:href="#input"/><text font-size="8" letter-spacing="2" transform="translate(5 40)">OSK</text></g><g transform="translate(10 0) translate(139 0)"><use id="EVEN_SKEW_INPUT" transform="translate(3 5)" xlink:href="#input"/><text font-size="8" letter-spacing="2" transform="translate(5.5 40)">ESK</text></g></g><g><g transform="translate(10 44) translate(3 0)"><use id="PITCH_INPUT" transform="translate(3 5)" xlink:href="#input"/><text font-size="8" letter-spacing="1" transform="translate(1 40)">V/OCT</text></g><g transform="translate(10 44) translate(37 0)"><use id="GAIN_INPUT" transform="translate(3 5)" xlink:href="#input"/><text font-size="8" letter-spacing="2" transform="translate(2 40)">GAIN</text></g><g transform="translate(10 44) translate(71 0)"><use id="DECAY_INPUT" transform="translate(3 5)" xlink:href="#input"/><text font-size="8" letter-spacing="1" transform="translate(1 40)">DECAY</text></g><g transform="translate(10 44) translate(105 0)"><use id="BALANCE_INPUT" transform="translate(3 5)" xlink:href="#input"/><text font-size="8" letter-spacing="2" transform="translate(5.5 40)">BAL</text></g><g transform="translate(10 44) translate(139 0)"><use id="FILTER_INPUT" transform="translate(3 5)" xlink:href="#input"/><text font-size="8" letter-spacing="2" transform="translate(3 40)">FLTR</text></g><g transform="translate(10 44) translate(173 0)"><use id="AUDIO_OUTPUT" transform="translate(3 5)" xlink:href="#output"/><text font-size="8" letter-spacing="2" transform="translate(5 40)">OUT</text></g></g></g></svg>