<svg xmlns="http://www.w3.org/2000/svg" xmlns:xlink="http://www.w3.org/1999/xlink" width="90" height="380" version="1.1" viewBox="0 0 90 380"><style>text{fill:#333;font-family:&apos;Roboto&apos;,sans-serif;font-weight:700}text.title{font-family:&apos;Comfortaa&apos;,sans-serif;font-weight:400}text.brand{font-family:&apos;Audiowide&apos;,sans-serif;font-weight:700}</style><defs><symbol id="knob45" viewBox="0 0 90 90"><g transform="translate(45 45)"><polyline stroke="#00f" stroke-width="1" points="-5 0 5 0"/><polyline stroke="#00f" stroke-width="1" points="0 -5 0 5"/><circle cx="0" cy="0" r="22" fill="none" stroke="#00f" stroke-width="1"/></g></symbol><symbol id="knobguide-rectify" viewBox="0 0 90 90"><g transform="translate(45 45)"><text font-size="8" transform="rotate(-240) translate(29 0) rotate(240) translate(-4 3)">0</text><polyline stroke="#333" stroke-width=".3" points="0 0 3.5 0" transform="rotate(-210) translate(26 0)"/><polyline stroke="#333" stroke-width=".3" points="0 0 3.5 0" transform="rotate(-180) translate(26 0)"/><polyline stroke="#333" stroke-width=".3" points="0 0 3.5 0" transform="rotate(-150) translate(26 0)"/><polyline stroke="#333" stroke-width=".3" points="0 0 3.5 0" transform="rotate(-120) translate(26 0)"/><polyline stroke="#333" stroke-width=".3" points="0 0 3.5 0" transform="rotate(-90) translate(26 0)"/><polyline stroke="#333" stroke-width=".3" points="0 0 3.5 0" transform="rotate(-60) translate(26 0)"/><polyline stroke="#333" stroke-width=".3" points="0 0 3.5 0" transform="rotate(-30) translate(26 0)"/><polyline stroke="#333" stroke-width=".3" points="0 0 3.5 0" transform="rotate(0) translate(26 0)"/><polyline stroke="#333" stroke-width=".3" points="0 0 3.5 0" transform="rotate(30) translate(26 0)"/><polyline stroke="#333" stroke-width="1.5" points="0 0 5.5 0" transform="rotate(60) translate(26 0)"/></g></symbol><symbol id="knobguide-drywet" viewBox="0 0 90 90"><g transform="translate(45 45)"><text font-size="8" transform="rotate(-240) translate(29 0) rotate(240) translate(-4 3)">D</text><polyline stroke="#333" stroke-width=".3" points="0 0 3.5 0" transform="rotate(-210) translate(26 0)"/><polyline stroke="#333" stroke-width=".3" points="0 0 3.5 0" transform="rotate(-180) translate(26 0)"/><polyline stroke="#333" stroke-width=".3" points="0 0 3.5 0" transform="rotate(-150) translate(26 0)"/><polyline stroke="#333" stroke-width=".3" points="0 0 3.5 0" transform="rotate(-120) translate(26 0)"/><polyline stroke="#333" stroke-width="1.5" points="0 0 5.5 0" transform="rotate(-90) translate(26 0)"/><polyline stroke="#333" stroke-width=".3" points="0 0 3.5 0" transform="rotate(-60) translate(26 0)"/><polyline stroke="#333" stroke-width=".3" points="0 0 3.5 0" transform="rotate(-30) translate(26 0)"/><polyline stroke="#333" stroke-width=".3" points="0 0 3.5 0" transform="rotate(0) translate(26 0)"/><polyline stroke="#333" stroke-width=".3" points="0 0 3.5 0" transform="rotate(30) translate(26 0)"/><text font-size="8" transform="rotate(60) translate(29 0) rotate(-60) translate(-1 3)">W</text></g></symbol><symbol id="input" viewBox="0 0 24 24"><g transform="translate(12 12)"><circle cx="0" cy="0" r="5" fill="#0f0" stroke="#0f0" stroke-width="1"/><circle cx="0" cy="0" r="10.5" fill="none" stroke="#0f0" stroke-width="3"/></g></symbol><symbol id="output" viewBox="0 0 24 24"><g transform="translate(12 12)"><circle cx="0" cy="0" r="5" fill="red" stroke="red" stroke-width="1"/><circle cx="0" cy="0" r="10.5" fill="none" stroke="red" stroke-width="3"/></g></symbol></defs><rect width="100%" height="100%" fill="#ddd"/><polyline fill="none" stroke="#e4e4e4" stroke-width=".5" points="1 1 89 1 89 379 1 379 1 1"/><polyline fill="none" stroke="#ebebeb" stroke-width=".8" points=".5 .5 89.5 .5 89.5 379.5 .5 379.5 .5 .5"/><polyline fill="none" stroke="#f2f2f2" stroke-width="1" points="0 0 90 0 90 380 0 380 0 0"/><text x="26.5" y="17" class="title" font-size="12" letter-spacing="3">AM/RM</text><g transform="translate(5.5 374)"><text class="brand" font-size="6.5pt" letter-spacing="2">BOGAUDIO</text><rect width="1.5" height="2" fill="#ddd" transform="translate(21 -4)"/></g><g transform="translate(0 49)"><text font-size="8pt" letter-spacing="2" transform="translate(18 0)">RECTIFY</text><use id="RECTIFY_PARAM" transform="translate(0 -5)" xlink:href="#knob45"/><use transform="translate(0 -5)" xlink:href="#knobguide-rectify"/></g><g transform="translate(0 148)"><text font-size="8pt" letter-spacing="2" transform="translate(15.5 0)">DRY/WET</text><use id="DRYWET_PARAM" transform="translate(0 -5)" xlink:href="#knob45"/><use transform="translate(0 -5)" xlink:href="#knobguide-drywet"/></g><g><g transform="translate(11 240) translate(0 0)"><rect width="68" height="10" fill="#fafafa" transform="translate(0 66)"/><rect width="68" height="73" fill="#fafafa" rx="5"/><use id="MODULATOR_INPUT" transform="translate(5 4)" xlink:href="#input"/><text font-size="5pt" letter-spacing="2" transform="translate(7.5 36)">MOD</text><use id="CARRIER_INPUT" transform="translate(39 4)" xlink:href="#input"/><text font-size="5pt" letter-spacing="2" transform="translate(42.5 36)">CAR</text><use id="RECTIFY_INPUT" transform="translate(5 40)" xlink:href="#input"/><text font-size="5pt" letter-spacing="2" transform="translate(5.5 72)">RECT</text><use id="DRYWET_INPUT" transform="translate(39 40)" xlink:href="#input"/><text font-size="5pt" letter-spacing="2" transform="translate(42 72)">D/W</text></g><g transform="translate(11 240) translate(0 79)"><rect width="68" height="10" fill="#bbb" transform="translate(0 -3)"/><rect width="68" height="37" fill="#bbb" rx="5"/><use id="RECTIFY_OUTPUT" transform="translate(5 1)" xlink:href="#output"/><text font-size="5pt" letter-spacing="2" transform="translate(5.5 33)">RECT</text><use id="OUT_OUTPUT" transform="translate(39 1)" xlink:href="#output"/><text font-size="5pt" letter-spacing="2" transform="translate(42.5 33)">OUT</text></g></g></svg>