<svg xmlns="http://www.w3.org/2000/svg" xmlns:xlink="http://www.w3.org/1999/xlink" width="300" height="380" version="1.1" viewBox="0 0 300 380"><style>text{fill:#333;font-family:&apos;Roboto&apos;,sans-serif;font-weight:700}text.title{font-family:&apos;Comfortaa&apos;,sans-serif;font-weight:400}text.brand{font-family:&apos;Audiowide&apos;,sans-serif;font-weight:700}</style><defs><symbol id="display" viewBox="0 0 280 230"><rect width="280" height="230" cx="0" cy="0" fill="#222"/></symbol><symbol id="knob" viewBox="0 0 100 100"><g transform="translate(50.5 50.5)"><polyline stroke="#00f" stroke-width="1" points="-20 0 20 0"/><polyline stroke="#00f" stroke-width="1" points="0 -20 0 20"/><circle cx="0" cy="0" r="49.8" fill="none" stroke="#00f" stroke-width="1"/></g></symbol><symbol id="knobguide-range" viewBox="0 0 100 100"><g><path fill="none" stroke="#333" stroke-linecap="round" stroke-width=".5" d="M 0 -32 A 32 32 0 0 1 32 0" transform="translate(50.5 50.5) rotate(15)"/><path fill="none" stroke="#333" stroke-linecap="round" stroke-width=".5" d="M 0 -32 A 32 32 0 0 1 32 0" transform="translate(50.5 50.5) rotate(50)"/><path fill="none" stroke="#333" stroke-linecap="round" stroke-width=".5" d="M 0 -32 A 32 32 0 0 0 -32 0" transform="translate(50.5 50.5) rotate(-15)"/><path fill="none" stroke="#333" stroke-linecap="round" stroke-width=".5" d="M 0 -32 A 32 32 0 0 0 -32 0" transform="translate(50.5 50.5) rotate(-50)"/><g transform="translate(50.5 50.5) rotate(-90) translate(29 0)"><polyline stroke="#333" stroke-width="1.5" points="0 0 6 0"/></g></g></symbol><symbol id="knobguide-smooth" viewBox="0 0 100 100"><g><g><g><text font-size="7pt" transform="translate(50.5 50.5) rotate(-240) translate(31 0) translate(2 0) rotate(240) translate(-4 4)">0</text></g></g><g transform="translate(50.5 50.5) rotate(-210) translate(30 0)"><polyline stroke="#333" stroke-width=".5" points="0 0 4 0"/></g><g transform="translate(50.5 50.5) rotate(-180) translate(30 0)"><polyline stroke="#333" stroke-width=".5" points="0 0 4 0"/></g><g transform="translate(50.5 50.5) rotate(-150) translate(30 0)"><polyline stroke="#333" stroke-width=".5" points="0 0 5 0"/></g><g transform="translate(50.5 50.5) rotate(-120) translate(30 0)"><polyline stroke="#333" stroke-width=".5" points="0 0 4 0"/></g><g transform="translate(50.5 50.5) rotate(-90) translate(30 0)"><polyline stroke="#333" stroke-width=".5" points="0 0 4 0"/></g><g transform="translate(50.5 50.5) rotate(-60) translate(30 0)"><polyline stroke="#333" stroke-width=".5" points="0 0 4 0"/></g><g transform="translate(50.5 50.5) rotate(-30) translate(30 0)"><polyline stroke="#333" stroke-width=".5" points="0 0 4 0"/></g><g transform="translate(50.5 50.5) rotate(0) translate(30 0)"><polyline stroke="#333" stroke-width=".5" points="0 0 4 0"/></g><g transform="translate(50.5 50.5) rotate(30) translate(30 0)"><polyline stroke="#333" stroke-width=".5" points="0 0 4 0"/></g><g><g><text font-size="7pt" transform="translate(50.5 50.5) rotate(60) translate(31 0) translate(2 0) rotate(-60) translate(-5 4.3)">0.5s</text></g></g></g></symbol><symbol id="button" viewBox="0 0 100 100"><g transform="translate(50.5 50.5)"><circle cx="0" cy="0" r="49.8" fill="red" stroke="#00f" stroke-width="1"/></g></symbol><symbol id="input" viewBox="0 0 24 24"><g transform="translate(12 12)"><circle cx="0" cy="0" r="5" fill="#0f0" stroke="#0f0" stroke-width="1"/><circle cx="0" cy="0" r="10.5" fill="none" stroke="#0f0" stroke-width="3"/></g></symbol><symbol id="output" viewBox="0 0 24 24"><g transform="translate(12 12)"><circle cx="0" cy="0" r="5" fill="red" stroke="red" stroke-width="1"/><circle cx="0" cy="0" r="10.5" fill="none" stroke="red" stroke-width="3"/></g></symbol><symbol id="light-small" viewBox="0 0 6.4 6.4"><rect width="6.4" height="6.4" fill="#0f0"/></symbol></defs><rect width="100%" height="100%" fill="#ddd"/><polyline fill="none" stroke="#e4e4e4" stroke-width=".5" points="1 1 299 1 299 379 1 379 1 1"/><polyline fill="none" stroke="#ebebeb" stroke-width=".8" points=".5 .5 299.5 .5 299.5 379.5 .5 379.5 .5 .5"/><polyline fill="none" stroke="#f2f2f2" stroke-width="1" points="0 0 300 0 300 380 0 380 0 0"/><text x="92.5" y="19" class="title" font-size="16" letter-spacing="4">ANALYZER</text><g transform="translate(110 374)"><text class="brand" font-size="8pt" letter-spacing="2">BOGAUDIO</text><rect width="3" height="3" fill="#ddd" transform="translate(24 -5)"/></g><g transform="translate(10 25)"><use id="DISPLAY_WIDGET" xlink:href="#display"/></g><g><g transform="translate(0 320) translate(10 0)"><rect width="62" height="40" fill="#fafafa" rx="5"/><rect width="23" height="40" fill="#bbb" rx="5" transform="translate(40)"/><rect width="20" height="40" fill="#bbb" transform="translate(31)"/><use id="SIGNALA_INPUT" transform="translate(3.5 3)" xlink:href="#input"/><use id="SIGNALA_OUTPUT" transform="translate(34.5 3)" xlink:href="#output"/><text font-size="8" letter-spacing="2" transform="translate(10.5 36)">IN</text><text font-size="8" letter-spacing="2" transform="translate(33.5 36)">THRU</text></g><g transform="translate(0 320) translate(82.5 0)"><rect width="62" height="40" fill="#fafafa" rx="5"/><rect width="23" height="40" fill="#bbb" rx="5" transform="translate(40)"/><rect width="20" height="40" fill="#bbb" transform="translate(31)"/><use id="SIGNALB_INPUT" transform="translate(3.5 3)" xlink:href="#input"/><use id="SIGNALB_OUTPUT" transform="translate(34.5 3)" xlink:href="#output"/><text font-size="8" letter-spacing="2" transform="translate(10.5 36)">IN</text><text font-size="8" letter-spacing="2" transform="translate(33.5 36)">THRU</text></g><g transform="translate(0 320) translate(155 0)"><rect width="62" height="40" fill="#fafafa" rx="5"/><rect width="23" height="40" fill="#bbb" rx="5" transform="translate(40)"/><rect width="20" height="40" fill="#bbb" transform="translate(31)"/><use id="SIGNALC_INPUT" transform="translate(3.5 3)" xlink:href="#input"/><use id="SIGNALC_OUTPUT" transform="translate(34.5 3)" xlink:href="#output"/><text font-size="8" letter-spacing="2" transform="translate(10.5 36)">IN</text><text font-size="8" letter-spacing="2" transform="translate(33.5 36)">THRU</text></g><g transform="translate(0 320) translate(227 0)"><rect width="62" height="40" fill="#fafafa" rx="5"/><rect width="23" height="40" fill="#bbb" rx="5" transform="translate(40)"/><rect width="20" height="40" fill="#bbb" transform="translate(31)"/><use id="SIGNALD_INPUT" transform="translate(3.5 3)" xlink:href="#input"/><use id="SIGNALD_OUTPUT" transform="translate(34.5 3)" xlink:href="#output"/><text font-size="8" letter-spacing="2" transform="translate(10.5 36)">IN</text><text font-size="8" letter-spacing="2" transform="translate(33.5 36)">THRU</text></g></g><g><g transform="translate(0 271) translate(30 0)"><use id="RANGE2_PARAM" transform="translate(0 0) scale(0.38)" xlink:href="#knob"/><text font-size="7pt" letter-spacing="2" transform="rotate(-90) translate(-38 -11)">RANGE</text></g><g transform="translate(0 271) translate(103 0)"><use id="SMOOTH_PARAM" transform="translate(0 0) scale(0.38)" xlink:href="#knob"/><text font-size="7pt" letter-spacing="2" transform="rotate(-90) translate(-44 -11)">SMOOTH</text></g><g><g><g transform="translate(0 271) translate(175 0) translate(-5 -5) translate(0 1)"><use id="QUALITY_ULTRA_LIGHT" transform="translate(0 0)" xlink:href="#light-small"/><text font-size="8" letter-spacing="2" transform="translate(9 6.1)">ULTRA</text></g><g transform="translate(0 271) translate(175 0) translate(-5 -5) translate(0 15)"><use id="QUALITY_HIGH_LIGHT" transform="translate(0 0)" xlink:href="#light-small"/><text font-size="8" letter-spacing="2" transform="translate(9 6.1)">HIGH</text></g><g transform="translate(0 271) translate(175 0) translate(-5 -5) translate(0 29)"><use id="QUALITY_GOOD_LIGHT" transform="translate(0 0)" xlink:href="#light-small"/><text font-size="8" letter-spacing="2" transform="translate(9 6.1)">GOOD</text></g><g transform="translate(0 271) translate(175 0) translate(-5 -5) translate(9 40)"><use id="QUALITY_PARAM" transform="scale(0.1)" xlink:href="#button"/></g></g><text font-size="7pt" letter-spacing="2" transform="translate(0 271) translate(175 0) rotate(-90) translate(-45 -11)">QUALITY</text></g><g><g><g transform="translate(0 271) translate(247 0) translate(-6 -5) translate(0 1)"><use id="WINDOW_NONE_LIGHT" transform="translate(0 0)" xlink:href="#light-small"/><text font-size="8" letter-spacing="2" transform="translate(9 6.1)">NONE</text></g><g transform="translate(0 271) translate(247 0) translate(-6 -5) translate(0 15)"><use id="WINDOW_HAMMING_LIGHT" transform="translate(0 0)" xlink:href="#light-small"/><text font-size="8" letter-spacing=".5" transform="translate(9 6.1)">HAMMING</text></g><g transform="translate(0 271) translate(247 0) translate(-6 -5) translate(0 29)"><use id="WINDOW_KAISER_LIGHT" transform="translate(0 0)" xlink:href="#light-small"/><text font-size="8" letter-spacing="1" transform="translate(9 6.1)">KAISER</text></g><g transform="translate(0 271) translate(247 0) translate(-6 -5) translate(9 40)"><use id="WINDOW_PARAM" transform="scale(0.1)" xlink:href="#button"/></g></g><text font-size="7pt" letter-spacing="2" transform="translate(0 271) translate(247 0) rotate(-90) translate(-43.5 -11)">WINDOW</text></g></g><use transform="translate(11.3 252) scale(0.75)" xlink:href="#knobguide-range"/><use transform="translate(84.3 252) scale(0.75)" xlink:href="#knobguide-smooth"/></svg>