<svg xmlns="http://www.w3.org/2000/svg" xmlns:xlink="http://www.w3.org/1999/xlink" width="90" height="380" version="1.1" viewBox="0 0 90 380"><style>text{fill:#333;font-family:&apos;Roboto&apos;,sans-serif;font-weight:700}text.title{font-family:&apos;Comfortaa&apos;,sans-serif;font-weight:400}text.brand{font-family:&apos;Audiowide&apos;,sans-serif;font-weight:700}</style><defs><symbol id="knob" viewBox="0 0 45 45"><g transform="translate(22.5 22.5)"><polyline stroke="#00f" stroke-width="1" points="-5 0 5 0"/><polyline stroke="#00f" stroke-width="1" points="0 -5 0 5"/><circle cx="0" cy="0" r="14" fill="none" stroke="#00f" stroke-width="1"/></g></symbol><symbol id="knob-smallest" viewBox="0 0 16 16"><g transform="translate(8 8)"><polyline stroke="#00f" stroke-width="1" points="-3 0 3 0"/><polyline stroke="#00f" stroke-width="1" points="0 -3 0 3"/><circle r="7.5" fill="none" stroke="#00f" stroke-width="1"/></g></symbol><symbol id="knobguide-offset" viewBox="0 0 45 45"><g transform="translate(22.5 22.5)"><text font-size="5pt" transform="rotate(-240) translate(21 0) rotate(240) translate(-5 2.2)">-10</text><polyline stroke="#333" stroke-width=".3" points="0 0 2.5 0" transform="rotate(-225) translate(17 0)"/><polyline stroke="#333" stroke-width=".3" points="0 0 2.5 0" transform="rotate(-210) translate(17 0)"/><polyline stroke="#333" stroke-width=".3" points="0 0 2.5 0" transform="rotate(-195) translate(17 0)"/><polyline stroke="#333" stroke-width=".3" points="0 0 2.5 0" transform="rotate(-180) translate(17 0)"/><polyline stroke="#333" stroke-width="1" points="0 0 3.5 0" transform="rotate(-165) translate(17 0)"/><polyline stroke="#333" stroke-width=".3" points="0 0 2.5 0" transform="rotate(-150) translate(17 0)"/><polyline stroke="#333" stroke-width=".3" points="0 0 2.5 0" transform="rotate(-135) translate(17 0)"/><polyline stroke="#333" stroke-width=".3" points="0 0 2.5 0" transform="rotate(-120) translate(17 0)"/><polyline stroke="#333" stroke-width=".3" points="0 0 2.5 0" transform="rotate(-105) translate(17 0)"/><text font-size="5pt" transform="rotate(-90) translate(19 0) rotate(90) translate(-1.9 2.2)">0</text><polyline stroke="#333" stroke-width=".3" points="0 0 2.5 0" transform="rotate(-75) translate(17 0)"/><polyline stroke="#333" stroke-width=".3" points="0 0 2.5 0" transform="rotate(-60) translate(17 0)"/><polyline stroke="#333" stroke-width=".3" points="0 0 2.5 0" transform="rotate(-45) translate(17 0)"/><polyline stroke="#333" stroke-width=".3" points="0 0 2.5 0" transform="rotate(-30) translate(17 0)"/><polyline stroke="#333" stroke-width="1" points="0 0 3.5 0" transform="rotate(-15) translate(17 0)"/><polyline stroke="#333" stroke-width=".3" points="0 0 2.5 0" transform="rotate(0) translate(17 0)"/><polyline stroke="#333" stroke-width=".3" points="0 0 2.5 0" transform="rotate(15) translate(17 0)"/><polyline stroke="#333" stroke-width=".3" points="0 0 2.5 0" transform="rotate(30) translate(17 0)"/><polyline stroke="#333" stroke-width=".3" points="0 0 2.5 0" transform="rotate(45) translate(17 0)"/><text font-size="5pt" transform="rotate(60) translate(21 0) rotate(-60) translate(-4 2.2)">10</text></g></symbol><symbol id="knobguide-window" viewBox="0 0 45 45"><g transform="translate(22.5 22.5)"><text font-size="5pt" transform="rotate(-240) translate(20 0) rotate(240) translate(-1.9 2.2)">0</text><polyline stroke="#333" stroke-width=".3" points="0 0 2.5 0" transform="rotate(-210) translate(17 0)"/><polyline stroke="#333" stroke-width=".3" points="0 0 2.5 0" transform="rotate(-180) translate(17 0)"/><polyline stroke="#333" stroke-width=".3" points="0 0 2.5 0" transform="rotate(-150) translate(17 0)"/><polyline stroke="#333" stroke-width=".3" points="0 0 2.5 0" transform="rotate(-120) translate(17 0)"/><polyline stroke="#333" stroke-width="1" points="0 0 3.5 0" transform="rotate(-90) translate(17 0)"/><polyline stroke="#333" stroke-width=".3" points="0 0 2.5 0" transform="rotate(-60) translate(17 0)"/><polyline stroke="#333" stroke-width=".3" points="0 0 2.5 0" transform="rotate(-30) translate(17 0)"/><polyline stroke="#333" stroke-width=".3" points="0 0 2.5 0" transform="rotate(0) translate(17 0)"/><polyline stroke="#333" stroke-width=".3" points="0 0 2.5 0" transform="rotate(30) translate(17 0)"/><text font-size="5pt" transform="rotate(60) translate(20 0) rotate(-60) translate(-4 2.2)">10</text></g></symbol><symbol id="knobguide-lag" viewBox="0 0 45 45"><g transform="translate(22.5 22.5)"><text font-size="5pt" transform="rotate(-240) translate(20 0) rotate(240) translate(-1.9 2.2)">0</text><polyline stroke="#333" stroke-width=".3" points="0 0 2.5 0" transform="rotate(-210) translate(17 0)"/><text font-size="5pt" transform="rotate(-145.13) translate(20.5 0) rotate(145.13) translate(-4.7 2.2)">0.1</text><polyline stroke="#333" stroke-width=".3" points="0 0 2.5 0" transform="rotate(-105.84) translate(17 0)"/><polyline stroke="#333" stroke-width=".3" points="0 0 2.5 0" transform="rotate(-75.86) translate(17 0)"/><polyline stroke="#333" stroke-width=".3" points="0 0 2.5 0" transform="rotate(-50.26) translate(17 0)"/><polyline stroke="#333" stroke-width="1" points="0 0 3.5 0" transform="rotate(-27.87) translate(17 0)"/><polyline stroke="#333" stroke-width=".3" points="0 0 2.5 0" transform="rotate(-7.62) translate(17 0)"/><polyline stroke="#333" stroke-width=".3" points="0 0 2.5 0" transform="rotate(11) translate(17 0)"/><polyline stroke="#333" stroke-width=".3" points="0 0 2.5 0" transform="rotate(28.33) translate(17 0)"/><polyline stroke="#333" stroke-width=".3" points="0 0 2.5 0" transform="rotate(44.6) translate(17 0)"/><text font-size="5pt" transform="rotate(60) translate(20 0) rotate(-60) translate(-1.8 2.2)">1</text></g></symbol><symbol id="knobguide-voltage" viewBox="0 0 90 45"><g transform="translate(8 22.5)"><text font-size="5pt" transform="rotate(-22.5) translate(14 0) rotate(22.5) translate(-1 2.6)">0-10V</text><polyline stroke="#333" stroke-width="1" points="0 0 2 0" transform="rotate(-22.5) translate(9.5 0)"/><text font-size="5pt" transform="rotate(22.5) translate(14 0) rotate(-22.5) translate(-1 2.0)">+/-5V</text><polyline stroke="#333" stroke-width="1" points="0 0 2 0" transform="rotate(22.5) translate(9.5 0)"/></g></symbol><symbol id="input" viewBox="0 0 24 24"><g transform="translate(12 12)"><circle cx="0" cy="0" r="5" fill="#0f0" stroke="#0f0" stroke-width="1"/><circle cx="0" cy="0" r="10.5" fill="none" stroke="#0f0" stroke-width="3"/></g></symbol><symbol id="output" viewBox="0 0 24 24"><g transform="translate(12 12)"><circle cx="0" cy="0" r="5" fill="red" stroke="red" stroke-width="1"/><circle cx="0" cy="0" r="10.5" fill="none" stroke="red" stroke-width="3"/></g></symbol></defs><rect width="100%" height="100%" fill="#ddd"/><polyline fill="none" stroke="#e4e4e4" stroke-width=".5" points="1 1 89 1 89 379 1 379 1 1"/><polyline fill="none" stroke="#ebebeb" stroke-width=".8" points=".5 .5 89.5 .5 89.5 379.5 .5 379.5 .5 .5"/><polyline fill="none" stroke="#f2f2f2" stroke-width="1" points="0 0 90 0 90 380 0 380 0 0"/><text x="45" y="17" class="title" font-size="12" letter-spacing="3">CMP</text><g transform="translate(5.5 374)"><text class="brand" font-size="6.5pt" letter-spacing="2">BOGAUDIO</text><rect width="1.5" height="2" fill="#ddd" transform="translate(21 -4)"/></g><g transform="translate(0 35)"><text font-size="8" letter-spacing="1" transform="translate(20 0)">A</text><use id="A_PARAM" transform="translate(0 3)" xlink:href="#knob"/><use transform="translate(0 3)" xlink:href="#knobguide-offset"/><g transform="translate(5.5 49)"><rect width="34" height="38" fill="#fafafa" rx="5"/><use id="A_INPUT" transform="translate(5 3)" xlink:href="#input"/><text font-size="5pt" letter-spacing="2" transform="translate(13 35)">IN</text></g></g><g transform="translate(45 35)"><text font-size="8" letter-spacing="1" transform="translate(20 0)">B</text><use id="B_PARAM" transform="translate(0 3)" xlink:href="#knob"/><use transform="translate(0 3)" xlink:href="#knobguide-offset"/><g transform="translate(5.5 49)"><rect width="34" height="38" fill="#fafafa" rx="5"/><use id="B_INPUT" transform="translate(5 3)" xlink:href="#input"/><text font-size="5pt" letter-spacing="2" transform="translate(13 35)">IN</text></g></g><g transform="translate(0 140)"><text font-size="8" letter-spacing="1" transform="translate(3.5 0)">WINDOW</text><use id="WINDOW_PARAM" transform="translate(0 3)" xlink:href="#knob"/><use transform="translate(0 3)" xlink:href="#knobguide-window"/><g transform="translate(5.5 49)"><rect width="34" height="38" fill="#fafafa" rx="5"/><use id="WINDOW_INPUT" transform="translate(5 3)" xlink:href="#input"/><text font-size="5pt" letter-spacing="2" transform="translate(11 35)">CV</text></g></g><g transform="translate(45 140)"><text font-size="8" letter-spacing="1" transform="translate(14 0)">LAG</text><use id="LAG_PARAM" transform="translate(0 3)" xlink:href="#knob"/><use transform="translate(0 3)" xlink:href="#knobguide-lag"/><g transform="translate(5.5 49)"><rect width="34" height="38" fill="#fafafa" rx="5"/><use id="LAG_INPUT" transform="translate(5 3)" xlink:href="#input"/><text font-size="5pt" letter-spacing="2" transform="translate(11 35)">CV</text></g></g><g transform="translate(25 239)"><text font-size="8" letter-spacing="1" transform="translate(1.5 7)">OUTPUT</text><use id="OUTPUT_PARAM" transform="translate(0.5 12)" xlink:href="#knob-smallest"/><use transform="translate(0.5 -2.5)" xlink:href="#knobguide-voltage"/></g><g transform="translate(11 279)"><rect width="68" height="77" fill="#bbb" rx="5"/><use id="GREATER_OUTPUT" transform="translate(5 4)" xlink:href="#output"/><g><text font-size="5pt" transform="translate(9 36.5) translate(0 0)">A</text><text font-size="8pt" transform="translate(9 36.5) translate(6 0.5)" style="font-weight:400">≥</text><text font-size="5pt" transform="translate(9 36.5) translate(13 0)">B</text></g><use id="LESS_OUTPUT" transform="translate(39 4)" xlink:href="#output"/><g><text font-size="5pt" transform="translate(43 36.5) translate(0 0)">A</text><text font-size="8pt" transform="translate(43 36.5) translate(6 1)" style="font-weight:400">&lt;</text><text font-size="5pt" transform="translate(43 36.5) translate(13 0)">B</text></g><use id="EQUAL_OUTPUT" transform="translate(5 40)" xlink:href="#output"/><text font-size="5pt" letter-spacing="2" transform="translate(12 72)">EQ</text><use id="NOT_EQUAL_OUTPUT" transform="translate(39 40)" xlink:href="#output"/><text font-size="5pt" letter-spacing="2" transform="translate(42 72)">NOT</text></g></svg>