<svg xmlns="http://www.w3.org/2000/svg" xmlns:xlink="http://www.w3.org/1999/xlink" width="255" height="380" version="1.1" viewBox="0 0 255 380"><style>text{fill:#333;font-family:&apos;Roboto&apos;,sans-serif;font-weight:700}text.title{font-family:&apos;Comfortaa&apos;,sans-serif;font-weight:400}text.brand{font-family:&apos;Audiowide&apos;,sans-serif;font-weight:700}</style><defs><symbol id="knob-large" viewBox="0 0 68 68"><g transform="translate(34 34)"><polyline stroke="#00f" stroke-width="1" points="-10 0 10 0"/><polyline stroke="#00f" stroke-width="1" points="0 -10 0 10"/><circle cx="0" cy="0" r="33.5" fill="none" stroke="#00f" stroke-width="1"/></g></symbol><symbol id="knob-medium" viewBox="0 0 26 26"><g transform="translate(13 13)"><polyline stroke="#00f" stroke-width="1" points="-3 0 3 0"/><polyline stroke="#00f" stroke-width="1" points="0 -3 0 3"/><circle cx="0" cy="0" r="12.5" fill="none" stroke="#00f" stroke-width="1"/></g></symbol><symbol id="knob-smallest" viewBox="0 0 16 16"><g transform="translate(8 8)"><polyline stroke="#00f" stroke-width="1" points="-3 0 3 0"/><polyline stroke="#00f" stroke-width="1" points="0 -3 0 3"/><circle r="7.5" fill="none" stroke="#00f" stroke-width="1"/></g></symbol><symbol id="knobguide-frequency-lfo" viewBox="0 0 128 128"><g transform="translate(64 64)"><g transform="rotate(-225.08) translate(34 0)"><polyline stroke="#333" stroke-width="1" points="0 0 5 0" transform="translate(3 0)"/><text font-size="7pt" transform="translate(14 0) rotate(225.08) translate(-10.5 3.5)">0.1</text></g><g transform="rotate(-171.49) translate(34 0)"><polyline stroke="#333" stroke-width="1" points="0 0 5 0" transform="translate(3 0)"/><text font-size="7pt" transform="translate(14 0) rotate(171.49) translate(-11 3.5)">0.5</text></g><g transform="rotate(-148.42) translate(34 0)"><polyline stroke="#333" stroke-width="1" points="0 0 5 0" transform="translate(3 0)"/><text font-size="7pt" transform="translate(14 0) rotate(148.42) translate(-3 3.5)">1</text></g><g transform="rotate(-94.83) translate(34 0)"><polyline stroke="#333" stroke-width="1" points="0 0 5 0" transform="translate(3 0)"/><text font-size="7pt" transform="translate(14 0) rotate(94.83) translate(-3 3.5)">5</text></g><g transform="rotate(-55.39) translate(34 0)"><polyline stroke="#333" stroke-width="1" points="0 0 5 0" transform="translate(3 0)"/><text font-size="7pt" letter-spacing="1" transform="translate(14 0) rotate(55.39) translate(-1 3.5)">0V</text></g><g transform="rotate(-18.17) translate(34 0)"><polyline stroke="#333" stroke-width="1" points="0 0 5 0" transform="translate(3 0)"/><text font-size="7pt" transform="translate(14 0) rotate(18.17) translate(-2 3.5)">50</text></g><g transform="rotate(27.98) translate(34 0)"><polyline stroke="#333" stroke-width="1" points="0 0 5 0" transform="translate(3 0)"/><text font-size="7pt" transform="translate(14 0) rotate(-27.98) translate(-2 3.5)">200</text></g><g transform="rotate(51.06) translate(34 0)"><polyline stroke="#333" stroke-width="1" points="0 0 5 0" transform="translate(3 0)"/><text font-size="7pt" transform="translate(14 0) rotate(-51.06) translate(-2 3.5)">400HZ</text></g><polyline stroke="#333" stroke-width=".7" points="0 0 3 0" transform="rotate(-240) translate(37 0)"/><polyline stroke="#333" stroke-width=".7" points="0 0 3 0" transform="rotate(-216.92) translate(37 0)"/><polyline stroke="#333" stroke-width=".7" points="0 0 3 0" transform="rotate(-193.85) translate(37 0)"/><polyline stroke="#333" stroke-width=".7" points="0 0 3 0" transform="rotate(-124.62) translate(37 0)"/><polyline stroke="#333" stroke-width=".7" points="0 0 3 0" transform="rotate(-101.54) translate(37 0)"/><polyline stroke="#333" stroke-width=".7" points="0 0 3 0" transform="rotate(-78.46) translate(37 0)"/><polyline stroke="#333" stroke-width=".7" points="0 0 3 0" transform="rotate(-32.31) translate(37 0)"/><polyline stroke="#333" stroke-width=".7" points="0 0 3 0" transform="rotate(-9.23) translate(37 0)"/><polyline stroke="#333" stroke-width=".7" points="0 0 3 0" transform="rotate(13.85) translate(37 0)"/><polyline stroke="#333" stroke-width=".7" points="0 0 3 0" transform="rotate(36.92) translate(37 0)"/><polyline stroke="#333" stroke-width=".7" points="0 0 3 0" transform="rotate(60) translate(37 0)"/></g></symbol><symbol id="waves" viewBox="0 0 70 70"><g transform="translate(20 35)"><polyline stroke="#333" stroke-width="1" points="0 0 5 0" transform="rotate(-90) translate(11 0)"/><polyline stroke="#333" stroke-width="1" points="0 0 5 0" transform="rotate(-45) translate(11 0)"/><polyline stroke="#333" stroke-width="1" points="0 0 5 0" transform="rotate(0) translate(11 0)"/><polyline stroke="#333" stroke-width="1" points="0 0 5 0" transform="rotate(45) translate(11 0)"/><polyline stroke="#333" stroke-width="1" points="0 0 5 0" transform="rotate(90) translate(11 0)"/></g><g transform="translate(14 8)"><polyline fill="none" stroke="#333" stroke-width="1" points="0 8 12 0 12 8"/></g><g transform="translate(33.5 13.5)"><polyline fill="none" stroke="#333" stroke-width="1" points="0 8 0 0 12 8"/></g><g><path fill="none" stroke="#333" stroke-width="1" d="M 0 4 A 2 3 0 0 1 6 4" transform="translate(39 31)"/><path fill="none" stroke="#333" stroke-width="1" d="M 6 4 A 2 3 0 0 0 12 4" transform="translate(39 31)"/></g><g transform="translate(33.5 48.5)"><polyline fill="none" stroke="#333" stroke-width="1" points="0 4 3 0 9 8 12 4"/></g><g transform="translate(14 54)"><polyline fill="none" stroke="#333" stroke-width="1" points="0 4 0 0 6 0 6 8 12 8 12 4"/></g></symbol><symbol id="knobguide-attenuverter" viewBox="0 0 45 45"><g><g><text font-size="12" transform="translate(22.5 22.5) rotate(-240) translate(15 0) translate(3 0) rotate(240) translate(-2.2 3.6)">-</text></g><g transform="translate(22.5 22.5) rotate(-210) translate(15 0)"><polyline stroke="#333" stroke-width=".3" points="0 0 2.5 0"/></g><g transform="translate(22.5 22.5) rotate(-180) translate(15 0)"><polyline stroke="#333" stroke-width=".3" points="0 0 2.5 0"/></g><g transform="translate(22.5 22.5) rotate(-150) translate(15 0)"><polyline stroke="#333" stroke-width=".3" points="0 0 2.5 0"/></g><g transform="translate(22.5 22.5) rotate(-120) translate(15 0)"><polyline stroke="#333" stroke-width=".3" points="0 0 2.5 0"/></g><g><text font-size="5pt" transform="translate(22.5 22.5) rotate(-90) translate(15 0) translate(2 0) rotate(90) translate(-2 2)">0</text></g><g transform="translate(22.5 22.5) rotate(-60) translate(15 0)"><polyline stroke="#333" stroke-width=".3" points="0 0 2.5 0"/></g><g transform="translate(22.5 22.5) rotate(-30) translate(15 0)"><polyline stroke="#333" stroke-width=".3" points="0 0 2.5 0"/></g><g transform="translate(22.5 22.5) rotate(0) translate(15 0)"><polyline stroke="#333" stroke-width=".3" points="0 0 2.5 0"/></g><g transform="translate(22.5 22.5) rotate(30) translate(15 0)"><polyline stroke="#333" stroke-width=".3" points="0 0 2.5 0"/></g><g><text font-size="5pt" transform="translate(22.5 22.5) rotate(60) translate(15 0) translate(3 0) rotate(-60) translate(-2 2)">+</text></g></g></symbol><symbol id="knobguide-linear" viewBox="0 0 45 45"><g transform="translate(22.5 22.5)"><text font-size="5pt" transform="rotate(-240) translate(18 0) rotate(240) translate(-2 2)">0</text><polyline stroke="#333" stroke-width=".3" points="0 0 2.5 0" transform="rotate(-210) translate(15 0)"/><polyline stroke="#333" stroke-width=".3" points="0 0 2.5 0" transform="rotate(-180) translate(15 0)"/><polyline stroke="#333" stroke-width=".3" points="0 0 2.5 0" transform="rotate(-150) translate(15 0)"/><polyline stroke="#333" stroke-width=".3" points="0 0 2.5 0" transform="rotate(-120) translate(15 0)"/><polyline stroke="#333" stroke-width=".3" points="0 0 2.5 0" transform="rotate(-90) translate(15 0)"/><polyline stroke="#333" stroke-width=".3" points="0 0 2.5 0" transform="rotate(-60) translate(15 0)"/><polyline stroke="#333" stroke-width=".3" points="0 0 2.5 0" transform="rotate(-30) translate(15 0)"/><polyline stroke="#333" stroke-width=".3" points="0 0 2.5 0" transform="rotate(0) translate(15 0)"/><polyline stroke="#333" stroke-width=".3" points="0 0 2.5 0" transform="rotate(30) translate(15 0)"/><polyline stroke="#333" stroke-width="1" points="0 0 3.5 0" transform="rotate(60) translate(15 0)"/></g></symbol><symbol id="knobguide-phase" viewBox="0 0 40 40"><g><g transform="translate(20 20) rotate(-90) translate(10 0)"><polyline stroke="#333" stroke-width="1" points="0 0 4 0"/></g><path fill="none" stroke="#333" stroke-linecap="round" stroke-width=".5" d="M 0 -12.5 A 12.5 12.5 0 0 1 12.5 0" transform="translate(20 20) rotate(20)"/><path fill="none" stroke="#333" stroke-linecap="round" stroke-width=".5" d="M 0 -12.5 A 12.5 12.5 0 0 1 12.5 0" transform="translate(20 20) rotate(43)"/><path fill="none" stroke="#333" stroke-linecap="round" stroke-width=".5" d="M 0 -12.5 A 12.5 12.5 0 0 0 -12.5 0" transform="translate(20 20) rotate(-20)"/><path fill="none" stroke="#333" stroke-linecap="round" stroke-width=".5" d="M 0 -12.5 A 12.5 12.5 0 0 0 -12.5 0" transform="translate(20 20) rotate(-43)"/></g></symbol><symbol id="input" viewBox="0 0 24 24"><g transform="translate(12 12)"><circle cx="0" cy="0" r="5" fill="#0f0" stroke="#0f0" stroke-width="1"/><circle cx="0" cy="0" r="10.5" fill="none" stroke="#0f0" stroke-width="3"/></g></symbol><symbol id="output" viewBox="0 0 24 24"><g transform="translate(12 12)"><circle cx="0" cy="0" r="5" fill="red" stroke="red" stroke-width="1"/><circle cx="0" cy="0" r="10.5" fill="none" stroke="red" stroke-width="3"/></g></symbol><symbol id="button-small" viewBox="0 0 9 9"><g transform="translate(4.5 4.5)"><circle r="4" fill="red" stroke="#00f" stroke-width="1"/></g></symbol><symbol id="light-small" viewBox="0 0 6.4 6.4"><rect width="6.4" height="6.4" fill="#0f0"/></symbol></defs><rect width="100%" height="100%" fill="#ddd"/><polyline fill="none" stroke="#e4e4e4" stroke-width=".5" points="1 1 254 1 254 379 1 379 1 1"/><polyline fill="none" stroke="#ebebeb" stroke-width=".8" points=".5 .5 254.5 .5 254.5 379.5 .5 379.5 .5 .5"/><polyline fill="none" stroke="#f2f2f2" stroke-width="1" points="0 0 255 0 255 380 0 380 0 0"/><text x="114" y="19" class="title" font-size="16" letter-spacing="4">8FO</text><g transform="translate(95 374)"><text class="brand" font-size="8pt" letter-spacing="2">BOGAUDIO</text><rect width="3" height="3" fill="#ddd" transform="translate(24 -5)"/></g><g transform="translate(20 25)"><use id="FREQUENCY_PARAM" transform="translate(20 20)" xlink:href="#knob-large"/></g><use transform="translate(10 15)" xlink:href="#knobguide-frequency-lfo"/><text font-size="8" letter-spacing="1" transform="translate(33 133)">0V = C0 = 16.35HZ</text><g transform="translate(86 335)"><use id="SLOW_PARAM" transform="translate(40 -1.3)" xlink:href="#button-small"/><use id="SLOW_LIGHT" transform="translate(0 0)" xlink:href="#light-small"/><text font-size="8" letter-spacing="2" transform="translate(9 6.1)">SLOW</text></g><g transform="translate(10 163)"><g transform="translate(10 0)"><use id="WAVE_PARAM" transform="translate(0 5)" xlink:href="#knob-smallest"/></g><g transform="translate(70 0)"><text font-size="8pt" letter-spacing="2" transform="translate(8 38) rotate(270)">SAM/PW</text><use id="SAMPLE_PWM_PARAM" transform="translate(20 0)" xlink:href="#knob-medium"/></g><use transform="translate(80.5 -9.6)" xlink:href="#knobguide-attenuverter"/><use transform="translate(-2 -22)" xlink:href="#waves"/></g><g transform="translate(10 226)"><g transform="translate(10 0)"><text font-size="8pt" letter-spacing="2" transform="translate(8 36.5) rotate(270)">OFFSET</text><use id="OFFSET_PARAM" transform="translate(20 0)" xlink:href="#knob-medium"/></g><use transform="translate(20.5 -9.6)" xlink:href="#knobguide-attenuverter"/><g transform="translate(70 0)"><text font-size="8pt" letter-spacing="2" transform="translate(8 32) rotate(270)">SCALE</text><use id="SCALE_PARAM" transform="translate(20 0)" xlink:href="#knob-medium"/></g><use transform="translate(80.5 -9.6)" xlink:href="#knobguide-linear"/></g><g><g><g transform="translate(137 32) translate(3 4) translate(0 0)"><use id="PHASE7_PARAM" transform="translate(4 4)" xlink:href="#knob-smallest"/></g><g transform="translate(137 32) translate(3 4) translate(0 40)"><use id="PHASE6_PARAM" transform="translate(4 4)" xlink:href="#knob-smallest"/></g><g transform="translate(137 32) translate(3 4) translate(0 80)"><use id="PHASE5_PARAM" transform="translate(4 4)" xlink:href="#knob-smallest"/></g><g transform="translate(137 32) translate(3 4) translate(0 120)"><use id="PHASE4_PARAM" transform="translate(4 4)" xlink:href="#knob-smallest"/></g><g transform="translate(137 32) translate(3 4) translate(0 160)"><use id="PHASE3_PARAM" transform="translate(4 4)" xlink:href="#knob-smallest"/></g><g transform="translate(137 32) translate(3 4) translate(0 200)"><use id="PHASE2_PARAM" transform="translate(4 4)" xlink:href="#knob-smallest"/></g><g transform="translate(137 32) translate(3 4) translate(0 240)"><use id="PHASE1_PARAM" transform="translate(4 4)" xlink:href="#knob-smallest"/></g><g transform="translate(137 32) translate(3 4) translate(0 280)"><use id="PHASE0_PARAM" transform="translate(4 4)" xlink:href="#knob-smallest"/></g></g></g><g transform="translate(137 36)"><use transform="translate(3 0) translate(12 12) rotate(-225) translate(-20 -20)" xlink:href="#knobguide-phase"/><use transform="translate(3 40) translate(12 12) rotate(-180) translate(-20 -20)" xlink:href="#knobguide-phase"/><use transform="translate(3 80) translate(12 12) rotate(-135) translate(-20 -20)" xlink:href="#knobguide-phase"/><use transform="translate(3 120) translate(12 12) rotate(-90) translate(-20 -20)" xlink:href="#knobguide-phase"/><use transform="translate(3 160) translate(12 12) rotate(-45) translate(-20 -20)" xlink:href="#knobguide-phase"/><use transform="translate(3 200) translate(12 12) rotate(0) translate(-20 -20)" xlink:href="#knobguide-phase"/><use transform="translate(3 240) translate(12 12) rotate(45) translate(-20 -20)" xlink:href="#knobguide-phase"/><use transform="translate(3 280) translate(12 12) rotate(90) translate(-20 -20)" xlink:href="#knobguide-phase"/></g><g transform="translate(176 32)"><rect width="30" height="328" fill="#fafafa" rx="5"/><g transform="translate(3 4)"><use id="PHASE7_INPUT" transform="translate(0 0)" xlink:href="#input"/><use id="PHASE6_INPUT" transform="translate(0 40)" xlink:href="#input"/><use id="PHASE5_INPUT" transform="translate(0 80)" xlink:href="#input"/><use id="PHASE4_INPUT" transform="translate(0 120)" xlink:href="#input"/><use id="PHASE3_INPUT" transform="translate(0 160)" xlink:href="#input"/><use id="PHASE2_INPUT" transform="translate(0 200)" xlink:href="#input"/><use id="PHASE1_INPUT" transform="translate(0 240)" xlink:href="#input"/><use id="PHASE0_INPUT" transform="translate(0 280)" xlink:href="#input"/></g><text font-size="8" letter-spacing="2" transform="translate(8 320)">CV</text></g><g transform="translate(215 32)"><rect width="30" height="328" fill="#bbb" rx="5"/><g transform="translate(3 4)"><use id="PHASE7_OUTPUT" transform="translate(0 0)" xlink:href="#output"/><use id="PHASE6_OUTPUT" transform="translate(0 40)" xlink:href="#output"/><use id="PHASE5_OUTPUT" transform="translate(0 80)" xlink:href="#output"/><use id="PHASE4_OUTPUT" transform="translate(0 120)" xlink:href="#output"/><use id="PHASE3_OUTPUT" transform="translate(0 160)" xlink:href="#output"/><use id="PHASE2_OUTPUT" transform="translate(0 200)" xlink:href="#output"/><use id="PHASE1_OUTPUT" transform="translate(0 240)" xlink:href="#output"/><use id="PHASE0_OUTPUT" transform="translate(0 280)" xlink:href="#output"/></g><text font-size="8" letter-spacing="2" transform="translate(5 320)">OUT</text></g><g transform="translate(0 313)"><rect width="70" height="87" fill="#fafafa" rx="5" transform="translate(10 -40)"/><rect width="108" height="43" fill="#fafafa" rx="5" transform="translate(10 -40)"/><g transform="translate(10 -40)"><use id="SAMPLE_PWM_INPUT" transform="translate(4 4)" xlink:href="#input"/><text font-size="8" letter-spacing="1" transform="translate(4 38)">S/PW</text></g><g transform="translate(50 -40)"><use id="OFFSET_INPUT" transform="translate(2 4)" xlink:href="#input"/><text font-size="8" letter-spacing="2" transform="translate(4.5 38)">OFF</text></g><g transform="translate(90 -40)"><use id="SCALE_INPUT" transform="translate(0 4)" xlink:href="#input"/><text font-size="8" letter-spacing="2" transform="translate(2.5 38)">SCL</text></g><g transform="translate(10 0)"><use id="PITCH_INPUT" transform="translate(4 5)" xlink:href="#input"/><text font-size="8" letter-spacing="1" transform="translate(2 40)">V/OCT</text></g><g transform="translate(50 0)"><use id="RESET_INPUT" transform="translate(2 5)" xlink:href="#input"/><text font-size="8" letter-spacing="1" transform="translate(0 40)">RESET</text></g></g></svg>