<svg xmlns="http://www.w3.org/2000/svg" xmlns:xlink="http://www.w3.org/1999/xlink" width="150" height="380" version="1.1" viewBox="0 0 150 380"><style>text{fill:#333;font-family:&apos;Roboto&apos;,sans-serif;font-weight:700}text.title{font-family:&apos;Comfortaa&apos;,sans-serif;font-weight:400}text.brand{font-family:&apos;Audiowide&apos;,sans-serif;font-weight:700}</style><defs><symbol id="knob" viewBox="0 0 38 38"><g transform="translate(19 19)"><polyline stroke="#00f" stroke-width="1" points="-5 0 5 0"/><polyline stroke="#00f" stroke-width="1" points="0 -5 0 5"/><circle cx="0" cy="0" r="18.5" fill="none" stroke="#00f" stroke-width="1"/></g></symbol><symbol id="knob-medium" viewBox="0 0 26 26"><g transform="translate(13 13)"><polyline stroke="#00f" stroke-width="1" points="-3 0 3 0"/><polyline stroke="#00f" stroke-width="1" points="0 -3 0 3"/><circle cx="0" cy="0" r="12.5" fill="none" stroke="#00f" stroke-width="1"/></g></symbol><symbol id="knob-smallest" viewBox="0 0 16 16"><g transform="translate(8 8)"><polyline stroke="#00f" stroke-width="1" points="-3 0 3 0"/><polyline stroke="#00f" stroke-width="1" points="0 -3 0 3"/><circle r="7.5" fill="none" stroke="#00f" stroke-width="1"/></g></symbol><symbol id="knobguide-ratio" viewBox="0 0 88 78"><g transform="translate(49 39)"><g transform="rotate(-240) translate(19 0)"><polyline stroke="#333" stroke-width="1" points="0 0 5 0" transform="translate(3 0)"/><text font-size="7pt" transform="translate(14 0) rotate(240) translate(-11 3.5)">.01</text></g><polyline stroke="#333" stroke-width=".7" points="0 0 3 0" transform="rotate(-225) translate(22 0)"/><polyline stroke="#333" stroke-width=".7" points="0 0 3 0" transform="rotate(-210) translate(22 0)"/><polyline stroke="#333" stroke-width=".7" points="0 0 3 0" transform="rotate(-195) translate(22 0)"/><polyline stroke="#333" stroke-width=".7" points="0 0 3 0" transform="rotate(-180) translate(22 0)"/><g transform="rotate(-165) translate(19 0)"><polyline stroke="#333" stroke-width="1" points="0 0 5 0" transform="translate(3 0)"/><text font-size="7pt" transform="translate(14 0) rotate(165) translate(-5.5 3.5)">.5</text></g><polyline stroke="#333" stroke-width=".7" points="0 0 3 0" transform="rotate(-150) translate(22 0)"/><polyline stroke="#333" stroke-width=".7" points="0 0 3 0" transform="rotate(-135) translate(22 0)"/><polyline stroke="#333" stroke-width=".7" points="0 0 3 0" transform="rotate(-120) translate(22 0)"/><polyline stroke="#333" stroke-width=".7" points="0 0 3 0" transform="rotate(-105) translate(22 0)"/><g transform="rotate(-90) translate(19 0)"><polyline stroke="#333" stroke-width="1" points="0 0 5 0" transform="translate(3 0)"/><text font-size="7pt" transform="translate(14 0) rotate(90) translate(-2.7 3.5)">1</text></g><polyline stroke="#333" stroke-width=".7" points="0 0 3 0" transform="rotate(-73.33) translate(22 0)"/><polyline stroke="#333" stroke-width=".7" points="0 0 3 0" transform="rotate(-56.67) translate(22 0)"/><polyline stroke="#333" stroke-width=".7" points="0 0 3 0" transform="rotate(-40) translate(22 0)"/><g transform="rotate(-23.33) translate(19 0)"><polyline stroke="#333" stroke-width="1" points="0 0 5 0" transform="translate(3 0)"/><text font-size="7pt" transform="translate(14 0) rotate(23.33) translate(-2.7 3.5)">5</text></g><polyline stroke="#333" stroke-width=".7" points="0 0 3 0" transform="rotate(-6.67) translate(22 0)"/><polyline stroke="#333" stroke-width=".7" points="0 0 3 0" transform="rotate(10) translate(22 0)"/><polyline stroke="#333" stroke-width=".7" points="0 0 3 0" transform="rotate(26.67) translate(22 0)"/><polyline stroke="#333" stroke-width=".7" points="0 0 3 0" transform="rotate(43.33) translate(22 0)"/><g transform="rotate(60) translate(19 0)"><polyline stroke="#333" stroke-width="1" points="0 0 5 0" transform="translate(3 0)"/><text font-size="7pt" transform="translate(14 0) rotate(-60) translate(-3 3.5)">10</text></g></g></symbol><symbol id="knobguide-linear" viewBox="0 0 45 45"><g transform="translate(22.5 22.5)"><text font-size="5pt" transform="rotate(-240) translate(18 0) rotate(240) translate(-2 2)">0</text><polyline stroke="#333" stroke-width=".3" points="0 0 2.5 0" transform="rotate(-210) translate(15 0)"/><polyline stroke="#333" stroke-width=".3" points="0 0 2.5 0" transform="rotate(-180) translate(15 0)"/><polyline stroke="#333" stroke-width=".3" points="0 0 2.5 0" transform="rotate(-150) translate(15 0)"/><polyline stroke="#333" stroke-width=".3" points="0 0 2.5 0" transform="rotate(-120) translate(15 0)"/><polyline stroke="#333" stroke-width=".3" points="0 0 2.5 0" transform="rotate(-90) translate(15 0)"/><polyline stroke="#333" stroke-width=".3" points="0 0 2.5 0" transform="rotate(-60) translate(15 0)"/><polyline stroke="#333" stroke-width=".3" points="0 0 2.5 0" transform="rotate(-30) translate(15 0)"/><polyline stroke="#333" stroke-width=".3" points="0 0 2.5 0" transform="rotate(0) translate(15 0)"/><polyline stroke="#333" stroke-width=".3" points="0 0 2.5 0" transform="rotate(30) translate(15 0)"/><polyline stroke="#333" stroke-width="1" points="0 0 3.5 0" transform="rotate(60) translate(15 0)"/></g></symbol><symbol id="knobguide-time" viewBox="0 0 45 45"><g><g><text font-size="5pt" transform="translate(22.5 22.5) rotate(-240) translate(15 0) translate(3 0) rotate(240) translate(-2.2 2.2)">0</text></g><g transform="translate(22.5 22.5) rotate(-172.92) translate(15 0)"><polyline stroke="#333" stroke-width=".3" points="0 0 1.5 0"/></g><g><text font-size="5pt" transform="translate(22.5 22.5) rotate(-145.13) translate(15 0) translate(3 0) rotate(145.13) translate(-2.2 2.2)">1</text></g><g transform="translate(22.5 22.5) rotate(-105.84) translate(15 0)"><polyline stroke="#333" stroke-width=".3" points="0 0 2.5 0"/></g><g transform="translate(22.5 22.5) rotate(-75.68) translate(15 0)"><polyline stroke="#333" stroke-width=".3" points="0 0 2.5 0"/></g><g transform="translate(22.5 22.5) rotate(-50.26) translate(15 0)"><polyline stroke="#333" stroke-width=".3" points="0 0 2.5 0"/></g><g><text font-size="5pt" transform="translate(22.5 22.5) rotate(-27.87) translate(15 0) translate(3 0) rotate(27.87) translate(-2.2 2.2)">5</text></g><g transform="translate(22.5 22.5) rotate(-7.62) translate(15 0)"><polyline stroke="#333" stroke-width=".3" points="0 0 2.5 0"/></g><g transform="translate(22.5 22.5) rotate(11) translate(15 0)"><polyline stroke="#333" stroke-width=".3" points="0 0 2.5 0"/></g><g transform="translate(22.5 22.5) rotate(28.33) translate(15 0)"><polyline stroke="#333" stroke-width=".3" points="0 0 2.5 0"/></g><g transform="translate(22.5 22.5) rotate(44.6) translate(15 0)"><polyline stroke="#333" stroke-width=".3" points="0 0 2.5 0"/></g><g><text font-size="5pt" transform="translate(22.5 22.5) rotate(60) translate(16 0) translate(3 0) rotate(-60) translate(-5 2.2)">10</text></g></g></symbol><symbol id="knobguide-centertick" viewBox="0 0 40 40"><g><g transform="translate(20 20) rotate(-90) translate(10 0)"><polyline stroke="#333" stroke-width="1" points="0 0 4 0"/></g><path fill="none" stroke="#333" stroke-linecap="round" stroke-width=".5" d="M 0 -12.5 A 12.5 12.5 0 0 1 12.5 0" transform="translate(20 20) rotate(20)"/><path fill="none" stroke="#333" stroke-linecap="round" stroke-width=".5" d="M 0 -12.5 A 12.5 12.5 0 0 1 12.5 0" transform="translate(20 20) rotate(43)"/><path fill="none" stroke="#333" stroke-linecap="round" stroke-width=".5" d="M 0 -12.5 A 12.5 12.5 0 0 0 -12.5 0" transform="translate(20 20) rotate(-20)"/><path fill="none" stroke="#333" stroke-linecap="round" stroke-width=".5" d="M 0 -12.5 A 12.5 12.5 0 0 0 -12.5 0" transform="translate(20 20) rotate(-43)"/></g></symbol><symbol id="input" viewBox="0 0 24 24"><g transform="translate(12 12)"><circle cx="0" cy="0" r="5" fill="#0f0" stroke="#0f0" stroke-width="1"/><circle cx="0" cy="0" r="10.5" fill="none" stroke="#0f0" stroke-width="3"/></g></symbol><symbol id="output" viewBox="0 0 24 24"><g transform="translate(12 12)"><circle cx="0" cy="0" r="5" fill="red" stroke="red" stroke-width="1"/><circle cx="0" cy="0" r="10.5" fill="none" stroke="red" stroke-width="3"/></g></symbol><symbol id="button-small" viewBox="0 0 9 9"><g transform="translate(4.5 4.5)"><circle r="4" fill="red" stroke="#00f" stroke-width="1"/></g></symbol><symbol id="light-small" viewBox="0 0 6.4 6.4"><rect width="6.4" height="6.4" fill="#0f0"/></symbol></defs><rect width="100%" height="100%" fill="#ddd"/><polyline fill="none" stroke="#e4e4e4" stroke-width=".5" points="1 1 149 1 149 379 1 379 1 1"/><polyline fill="none" stroke="#ebebeb" stroke-width=".8" points=".5 .5 149.5 .5 149.5 379.5 .5 379.5 .5 .5"/><polyline fill="none" stroke="#f2f2f2" stroke-width="1" points="0 0 150 0 150 380 0 380 0 0"/><text x="39" y="19" class="title" font-size="16" letter-spacing="4">FM-OP</text><g transform="translate(35.5 374)"><text class="brand" font-size="8pt" letter-spacing="2">BOGAUDIO</text><rect width="3" height="3" fill="#ddd" transform="translate(24 -5)"/></g><g transform="translate(10 25)"><g transform="translate(0 20)"><use id="RATIO_PARAM" transform="translate(20 0)" xlink:href="#knob"/></g><use transform="translate(-10 0)" xlink:href="#knobguide-ratio"/><g transform="translate(82 20)"><text font-size="8pt" letter-spacing="2" transform="translate(8 35) rotate(270)">FINE</text><use id="FINE_PARAM" transform="translate(20 12)" xlink:href="#knob-smallest"/></g><use transform="translate(90 20)" xlink:href="#knobguide-centertick"/></g><g transform="translate(87 94)"><text font-size="8pt" letter-spacing="2" transform="translate(8 25) rotate(270)">ATT</text><use id="ATTACK_PARAM" transform="translate(20 0)" xlink:href="#knob-medium"/><use transform="translate(10.5 -9.5)" xlink:href="#knobguide-time"/></g><g transform="translate(87 139)"><text font-size="8pt" letter-spacing="2" transform="translate(8 25) rotate(270)">DEC</text><use id="DECAY_PARAM" transform="translate(20 0)" xlink:href="#knob-medium"/><use transform="translate(10.5 -9.5)" xlink:href="#knobguide-time"/></g><g transform="translate(87 184)"><text font-size="8pt" letter-spacing="2" transform="translate(8 25) rotate(270)">SUS</text><use id="SUSTAIN_PARAM" transform="translate(20 0)" xlink:href="#knob-medium"/><use transform="translate(10.5 -9.5)" xlink:href="#knobguide-linear"/></g><g transform="translate(87 229)"><text font-size="8pt" letter-spacing="2" transform="translate(8 25) rotate(270)">REL</text><use id="RELEASE_PARAM" transform="translate(20 0)" xlink:href="#knob-medium"/><use transform="translate(10.5 -9.5)" xlink:href="#knobguide-time"/></g><g transform="translate(16 106)"><text font-size="8pt" letter-spacing="1" transform="translate(8 38) rotate(270)">DEPTH</text><use id="DEPTH_PARAM" transform="translate(20 0)" xlink:href="#knob-medium"/><g transform="translate(14 35)"><use id="ENV_TO_DEPTH_LIGHT" transform="translate(0 0)" xlink:href="#light-small"/><text font-size="8" letter-spacing="1" transform="translate(9 6.2)">ENV</text><use id="ENV_TO_DEPTH_PARAM" transform="translate(29 -1.3)" xlink:href="#button-small"/></g><use transform="translate(10.5 -9.5)" xlink:href="#knobguide-linear"/></g><g transform="translate(16 162)"><text font-size="8pt" letter-spacing="2" transform="translate(8 35) rotate(270)">FDBK</text><use id="FEEDBACK_PARAM" transform="translate(20 0)" xlink:href="#knob-medium"/><g transform="translate(14 35)"><use id="ENV_TO_FEEDBACK_LIGHT" transform="translate(0 0)" xlink:href="#light-small"/><text font-size="8" letter-spacing="1" transform="translate(9 6.2)">ENV</text><use id="ENV_TO_FEEDBACK_PARAM" transform="translate(29 -1.3)" xlink:href="#button-small"/></g><use transform="translate(10.5 -9.5)" xlink:href="#knobguide-linear"/></g><g transform="translate(16 218)"><text font-size="8pt" letter-spacing="2" transform="translate(8 37.5) rotate(270)">LEVEL</text><use id="LEVEL_PARAM" transform="translate(20 0)" xlink:href="#knob-medium"/><g transform="translate(14 35)"><use id="ENV_TO_LEVEL_LIGHT" transform="translate(0 0)" xlink:href="#light-small"/><text font-size="8" letter-spacing="1" transform="translate(9 6.2)">ENV</text><use id="ENV_TO_LEVEL_PARAM" transform="translate(29 -1.3)" xlink:href="#button-small"/></g><use transform="translate(10.5 -9.5)" xlink:href="#knobguide-linear"/></g><g transform="translate(0 269)"><rect width="130" height="91" fill="#bbb" rx="5" transform="translate(10 0)"/><rect width="97" height="91" fill="#fafafa" rx="5" transform="translate(10 0)"/><rect width="130" height="44" fill="#fafafa" rx="5" transform="translate(10 0)"/><rect width="10" height="10" fill="#fafafa" transform="translate(130 34)"/><rect width="10" height="10" fill="#fafafa" transform="translate(97 81)"/><g transform="translate(12 0)"><use id="DEPTH_INPUT" transform="translate(3 5)" xlink:href="#input"/><text font-size="8" letter-spacing="1" transform="translate(0.5 40)">DEPTH</text></g><g transform="translate(44 0)"><use id="FEEDBACK_INPUT" transform="translate(3 5)" xlink:href="#input"/><text font-size="8" letter-spacing="1" transform="translate(3.5 40)">FDBK</text></g><g transform="translate(76 0)"><use id="LEVEL_INPUT" transform="translate(3 5)" xlink:href="#input"/><text font-size="8" letter-spacing="1" transform="translate(1.5 40)">LEVEL</text></g><g transform="translate(108 0)"><use id="SUSTAIN_INPUT" transform="translate(3 5)" xlink:href="#input"/><text font-size="8" letter-spacing="1" transform="translate(6 40)">SUS</text></g><g><g transform="translate(10 44) translate(2 0)"><use id="PITCH_INPUT" transform="translate(3 5)" xlink:href="#input"/><text font-size="8" letter-spacing="1" transform="translate(1 40)">V/OCT</text></g><g transform="translate(10 44) translate(34 0)"><use id="FM_INPUT" transform="translate(3 5)" xlink:href="#input"/><text font-size="8" letter-spacing="1" transform="translate(8.5 40)">FM</text></g><g transform="translate(10 44) translate(66 0)"><use id="GATE_INPUT" transform="translate(3 5)" xlink:href="#input"/><text font-size="8" letter-spacing="1" transform="translate(3 40)">GATE</text></g><g transform="translate(10 44) translate(98 0)"><use id="AUDIO_OUTPUT" transform="translate(3 5)" xlink:href="#output"/><text font-size="8" letter-spacing="1" transform="translate(6 40)">OUT</text></g></g></g></svg>