<svg xmlns="http://www.w3.org/2000/svg" xmlns:xlink="http://www.w3.org/1999/xlink" width="45" height="380" version="1.1" viewBox="0 0 45 380"><style>text{fill:#333;font-family:&apos;Roboto&apos;,sans-serif;font-weight:700}text.title{font-family:&apos;Comfortaa&apos;,sans-serif;font-weight:400}text.brand{font-family:&apos;Audiowide&apos;,sans-serif;font-weight:700}</style><defs><symbol id="knob" viewBox="0 0 45 45"><g transform="translate(22.5 22.5)"><polyline stroke="#00f" stroke-width="1" points="-5 0 5 0"/><polyline stroke="#00f" stroke-width="1" points="0 -5 0 5"/><circle cx="0" cy="0" r="14" fill="none" stroke="#00f" stroke-width="1"/></g></symbol><symbol id="knob-smallest" viewBox="0 0 16 16"><g transform="translate(8 8)"><polyline stroke="#00f" stroke-width="1" points="-3 0 3 0"/><polyline stroke="#00f" stroke-width="1" points="0 -3 0 3"/><circle r="7.5" fill="none" stroke="#00f" stroke-width="1"/></g></symbol><symbol id="knobguide-time" viewBox="0 0 45 45"><g transform="translate(22.5 22.5)"><text font-size="5pt" transform="rotate(-240) translate(20 0) rotate(240) translate(-2 2)">0</text><polyline stroke="#333" stroke-width=".3" points="0 0 2.5 0" transform="rotate(-210) translate(17 0)"/><polyline stroke="#333" stroke-width=".3" points="0 0 2.5 0" transform="rotate(-180) translate(17 0)"/><polyline stroke="#333" stroke-width=".3" points="0 0 2.5 0" transform="rotate(-150) translate(17 0)"/><polyline stroke="#333" stroke-width=".3" points="0 0 2.5 0" transform="rotate(-120) translate(17 0)"/><polyline stroke="#333" stroke-width=".3" points="0 0 2.5 0" transform="rotate(-90) translate(17 0)"/><polyline stroke="#333" stroke-width=".3" points="0 0 2.5 0" transform="rotate(-60) translate(17 0)"/><polyline stroke="#333" stroke-width=".3" points="0 0 2.5 0" transform="rotate(-30) translate(17 0)"/><polyline stroke="#333" stroke-width=".3" points="0 0 2.5 0" transform="rotate(0) translate(17 0)"/><polyline stroke="#333" stroke-width=".3" points="0 0 2.5 0" transform="rotate(30) translate(17 0)"/><text font-size="5pt" transform="rotate(60) translate(20 0) rotate(-60) translate(-2 2)">1</text></g></symbol><symbol id="knobguide-scale" viewBox="0 0 45 45"><g transform="translate(22.5 22.5)"><text font-size="5pt" transform="rotate(-135) translate(15 0) rotate(135) translate(-8 2)">0.1</text><polyline stroke="#333" stroke-width="1" points="0 0 2 0" transform="rotate(-135) translate(9.5 0)"/><text font-size="5pt" transform="rotate(-90) translate(15 0) rotate(90) translate(-2 2)">1</text><polyline stroke="#333" stroke-width="1" points="0 0 2 0" transform="rotate(-90) translate(9.5 0)"/><text font-size="5pt" transform="rotate(-45) translate(15 0) rotate(45) translate(-2 2)">10</text><polyline stroke="#333" stroke-width="1" points="0 0 2 0" transform="rotate(-45) translate(9.5 0)"/></g></symbol><symbol id="knobguide-shape" viewBox="0 0 45 45"><g transform="translate(22.5 22.5)"><text font-size="5pt" transform="rotate(-240) translate(20 0) rotate(240) translate(-10 2)">LOG</text><polyline stroke="#333" stroke-width=".3" points="0 0 2.5 0" transform="rotate(-210) translate(17 0)"/><polyline stroke="#333" stroke-width=".3" points="0 0 2.5 0" transform="rotate(-180) translate(17 0)"/><polyline stroke="#333" stroke-width=".3" points="0 0 2.5 0" transform="rotate(-150) translate(17 0)"/><polyline stroke="#333" stroke-width=".3" points="0 0 2.5 0" transform="rotate(-120) translate(17 0)"/><polyline stroke="#333" stroke-width="1" points="0 0 3.5 0" transform="rotate(-90) translate(17 0)"/><polyline stroke="#333" stroke-width=".3" points="0 0 2.5 0" transform="rotate(-60) translate(17 0)"/><polyline stroke="#333" stroke-width=".3" points="0 0 2.5 0" transform="rotate(-30) translate(17 0)"/><polyline stroke="#333" stroke-width=".3" points="0 0 2.5 0" transform="rotate(0) translate(17 0)"/><polyline stroke="#333" stroke-width=".3" points="0 0 2.5 0" transform="rotate(30) translate(17 0)"/><text font-size="5pt" transform="rotate(60) translate(20 0) rotate(-60) translate(-2.5 2)">EXP</text></g></symbol><symbol id="input" viewBox="0 0 24 24"><g transform="translate(12 12)"><circle cx="0" cy="0" r="5" fill="#0f0" stroke="#0f0" stroke-width="1"/><circle cx="0" cy="0" r="10.5" fill="none" stroke="#0f0" stroke-width="3"/></g></symbol><symbol id="output" viewBox="0 0 24 24"><g transform="translate(12 12)"><circle cx="0" cy="0" r="5" fill="red" stroke="red" stroke-width="1"/><circle cx="0" cy="0" r="10.5" fill="none" stroke="red" stroke-width="3"/></g></symbol></defs><rect width="100%" height="100%" fill="#ddd"/><polyline fill="none" stroke="#e4e4e4" stroke-width=".5" points="1 1 44 1 44 379 1 379 1 1"/><polyline fill="none" stroke="#ebebeb" stroke-width=".8" points=".5 .5 44.5 .5 44.5 379.5 .5 379.5 .5 .5"/><polyline fill="none" stroke="#f2f2f2" stroke-width="1" points="0 0 45 0 45 380 0 380 0 0"/><g><text class="title" font-size="7pt" letter-spacing="2.5" transform="rotate(-90) translate(-376 13)">LAG</text><g transform="rotate(-90) translate(-376 13) translate(0 12)"><text class="brand" font-size="7pt" letter-spacing="2">BGA</text><rect width="3" height="3" fill="#ddd" transform="translate(11.5 -5)"/></g></g><g transform="translate(0 25)"><text font-size="8" letter-spacing="2" transform="translate(9.5 0)">TIME</text><use id="TIME_PARAM" transform="translate(0 3)" xlink:href="#knob"/><use transform="translate(0 3)" xlink:href="#knobguide-time"/><use id="TIME_SCALE_PARAM" transform="translate(14.5 59)" xlink:href="#knob-smallest"/><use transform="translate(0 44.5)" xlink:href="#knobguide-scale"/><g transform="translate(5.5 79)"><rect width="34" height="39" fill="#fafafa" rx="5"/><use id="TIME_INPUT" transform="translate(5 3)" xlink:href="#input"/><text font-size="5pt" letter-spacing="2" transform="translate(11 35)">CV</text></g></g><g transform="translate(0 165)"><text font-size="8" letter-spacing="1" transform="translate(7.5 0)">SHAPE</text><use id="SHAPE_PARAM" transform="translate(0 3)" xlink:href="#knob"/><use transform="translate(0 3)" xlink:href="#knobguide-shape"/><g transform="translate(5.5 49)"><rect width="34" height="38" fill="#fafafa" rx="5"/><use id="SHAPE_INPUT" transform="translate(5 3)" xlink:href="#input"/><text font-size="5pt" letter-spacing="2" transform="translate(11 35)">CV</text></g></g><g><g transform="translate(0 264) translate(5.5 0)"><rect width="34" height="10" fill="#fafafa" transform="translate(0 28)"/><rect width="34" height="35" fill="#fafafa" rx="5"/><use id="IN_INPUT" transform="translate(5 3)" xlink:href="#input"/><text font-size="5pt" letter-spacing="2" transform="translate(12.5 35)">IN</text></g><g transform="translate(0 264) translate(5.5 41)"><rect width="34" height="10" fill="#bbb" transform="translate(0 -3)"/><rect width="34" height="35" fill="#bbb" rx="5"/><use id="OUT_OUTPUT" transform="translate(5 0)" xlink:href="#output"/><text font-size="5pt" letter-spacing="2" transform="translate(8.3 32)">OUT</text></g></g></svg>