<svg xmlns="http://www.w3.org/2000/svg" xmlns:xlink="http://www.w3.org/1999/xlink" width="150" height="380" version="1.1" viewBox="0 0 150 380"><style>text{fill:#333;font-family:&apos;Roboto&apos;,sans-serif;font-weight:700}text.title{font-family:&apos;Comfortaa&apos;,sans-serif;font-weight:400}text.brand{font-family:&apos;Audiowide&apos;,sans-serif;font-weight:700}</style><defs><symbol id="knob-large" viewBox="0 0 68 68"><g transform="translate(34 34)"><polyline stroke="#00f" stroke-width="1" points="-10 0 10 0"/><polyline stroke="#00f" stroke-width="1" points="0 -10 0 10"/><circle cx="0" cy="0" r="33.5" fill="none" stroke="#00f" stroke-width="1"/></g></symbol><symbol id="knob-medium" viewBox="0 0 26 26"><g transform="translate(13 13)"><polyline stroke="#00f" stroke-width="1" points="-3 0 3 0"/><polyline stroke="#00f" stroke-width="1" points="0 -3 0 3"/><circle cx="0" cy="0" r="12.5" fill="none" stroke="#00f" stroke-width="1"/></g></symbol><symbol id="knob-smallest" viewBox="0 0 16 16"><g transform="translate(8 8)"><polyline stroke="#00f" stroke-width="1" points="-3 0 3 0"/><polyline stroke="#00f" stroke-width="1" points="0 -3 0 3"/><circle r="7.5" fill="none" stroke="#00f" stroke-width="1"/></g></symbol><symbol id="knobguide-frequency-lfo" viewBox="0 0 128 128"><g transform="translate(64 64)"><g transform="rotate(-225.08) translate(34 0)"><polyline stroke="#333" stroke-width="1" points="0 0 5 0" transform="translate(3 0)"/><text font-size="7pt" transform="translate(14 0) rotate(225.08) translate(-10.5 3.5)">0.1</text></g><g transform="rotate(-171.49) translate(34 0)"><polyline stroke="#333" stroke-width="1" points="0 0 5 0" transform="translate(3 0)"/><text font-size="7pt" transform="translate(14 0) rotate(171.49) translate(-11 3.5)">0.5</text></g><g transform="rotate(-71.76) translate(34 0)"><polyline stroke="#333" stroke-width="1" points="0 0 5 0" transform="translate(3 0)"/><text font-size="7pt" transform="translate(14 0) rotate(71.76) translate(-2 3.5)">10</text></g><g transform="rotate(-124.62) translate(34 0)"><polyline stroke="#333" stroke-width="1" points="0 0 5 0" transform="translate(3 0)"/><text font-size="7pt" letter-spacing="1" transform="translate(14 0) rotate(124.62) translate(-10 3.5)">0V</text></g><g transform="rotate(-18.17) translate(34 0)"><polyline stroke="#333" stroke-width="1" points="0 0 5 0" transform="translate(3 0)"/><text font-size="7pt" transform="translate(14 0) rotate(18.17) translate(-2 3.5)">50</text></g><g transform="rotate(27.98) translate(34 0)"><polyline stroke="#333" stroke-width="1" points="0 0 5 0" transform="translate(3 0)"/><text font-size="7pt" transform="translate(14 0) rotate(-27.98) translate(-2 3.5)">200</text></g><g transform="rotate(51.05) translate(34 0)"><polyline stroke="#333" stroke-width="1" points="0 0 5 0" transform="translate(3 0)"/><text font-size="7pt" transform="translate(14 0) rotate(-51.05) translate(-2 3.5)">400HZ</text></g><polyline stroke="#333" stroke-width=".7" points="0 0 3 0" transform="rotate(-240) translate(37 0)"/><polyline stroke="#333" stroke-width=".7" points="0 0 3 0" transform="rotate(-216.92) translate(37 0)"/><polyline stroke="#333" stroke-width=".7" points="0 0 3 0" transform="rotate(-193.85) translate(37 0)"/><polyline stroke="#333" stroke-width=".7" points="0 0 3 0" transform="rotate(-147.69) translate(37 0)"/><polyline stroke="#333" stroke-width=".7" points="0 0 3 0" transform="rotate(-101.54) translate(37 0)"/><polyline stroke="#333" stroke-width=".7" points="0 0 3 0" transform="rotate(-78.46) translate(37 0)"/><polyline stroke="#333" stroke-width=".7" points="0 0 3 0" transform="rotate(-55.38) translate(37 0)"/><polyline stroke="#333" stroke-width=".7" points="0 0 3 0" transform="rotate(-32.31) translate(37 0)"/><polyline stroke="#333" stroke-width=".7" points="0 0 3 0" transform="rotate(-9.23) translate(37 0)"/><polyline stroke="#333" stroke-width=".7" points="0 0 3 0" transform="rotate(13.85) translate(37 0)"/><polyline stroke="#333" stroke-width=".7" points="0 0 3 0" transform="rotate(36.92) translate(37 0)"/><polyline stroke="#333" stroke-width=".7" points="0 0 3 0" transform="rotate(60) translate(37 0)"/></g></symbol><symbol id="knobguide-attenuverter" viewBox="0 0 45 45"><g><g><text font-size="12" transform="translate(22.5 22.5) rotate(-240) translate(15 0) translate(3 0) rotate(240) translate(-2.2 3.6)">-</text></g><g transform="translate(22.5 22.5) rotate(-210) translate(15 0)"><polyline stroke="#333" stroke-width=".3" points="0 0 2.5 0"/></g><g transform="translate(22.5 22.5) rotate(-180) translate(15 0)"><polyline stroke="#333" stroke-width=".3" points="0 0 2.5 0"/></g><g transform="translate(22.5 22.5) rotate(-150) translate(15 0)"><polyline stroke="#333" stroke-width=".3" points="0 0 2.5 0"/></g><g transform="translate(22.5 22.5) rotate(-120) translate(15 0)"><polyline stroke="#333" stroke-width=".3" points="0 0 2.5 0"/></g><g><text font-size="5pt" transform="translate(22.5 22.5) rotate(-90) translate(15 0) translate(2 0) rotate(90) translate(-2 2)">0</text></g><g transform="translate(22.5 22.5) rotate(-60) translate(15 0)"><polyline stroke="#333" stroke-width=".3" points="0 0 2.5 0"/></g><g transform="translate(22.5 22.5) rotate(-30) translate(15 0)"><polyline stroke="#333" stroke-width=".3" points="0 0 2.5 0"/></g><g transform="translate(22.5 22.5) rotate(0) translate(15 0)"><polyline stroke="#333" stroke-width=".3" points="0 0 2.5 0"/></g><g transform="translate(22.5 22.5) rotate(30) translate(15 0)"><polyline stroke="#333" stroke-width=".3" points="0 0 2.5 0"/></g><g><text font-size="5pt" transform="translate(22.5 22.5) rotate(60) translate(15 0) translate(3 0) rotate(-60) translate(-2 2)">+</text></g></g></symbol><symbol id="knobguide-linear" viewBox="0 0 45 45"><g transform="translate(22.5 22.5)"><text font-size="5pt" transform="rotate(-240) translate(18 0) rotate(240) translate(-2 2)">0</text><polyline stroke="#333" stroke-width=".3" points="0 0 2.5 0" transform="rotate(-210) translate(15 0)"/><polyline stroke="#333" stroke-width=".3" points="0 0 2.5 0" transform="rotate(-180) translate(15 0)"/><polyline stroke="#333" stroke-width=".3" points="0 0 2.5 0" transform="rotate(-150) translate(15 0)"/><polyline stroke="#333" stroke-width=".3" points="0 0 2.5 0" transform="rotate(-120) translate(15 0)"/><polyline stroke="#333" stroke-width=".3" points="0 0 2.5 0" transform="rotate(-90) translate(15 0)"/><polyline stroke="#333" stroke-width=".3" points="0 0 2.5 0" transform="rotate(-60) translate(15 0)"/><polyline stroke="#333" stroke-width=".3" points="0 0 2.5 0" transform="rotate(-30) translate(15 0)"/><polyline stroke="#333" stroke-width=".3" points="0 0 2.5 0" transform="rotate(0) translate(15 0)"/><polyline stroke="#333" stroke-width=".3" points="0 0 2.5 0" transform="rotate(30) translate(15 0)"/><polyline stroke="#333" stroke-width="1" points="0 0 3.5 0" transform="rotate(60) translate(15 0)"/></g></symbol><symbol id="knobguide-centertick" viewBox="0 0 40 40"><g><g transform="translate(20 20) rotate(-90) translate(10 0)"><polyline stroke="#333" stroke-width="1" points="0 0 4 0"/></g><path fill="none" stroke="#333" stroke-linecap="round" stroke-width=".5" d="M 0 -12.5 A 12.5 12.5 0 0 1 12.5 0" transform="translate(20 20) rotate(20)"/><path fill="none" stroke="#333" stroke-linecap="round" stroke-width=".5" d="M 0 -12.5 A 12.5 12.5 0 0 1 12.5 0" transform="translate(20 20) rotate(43)"/><path fill="none" stroke="#333" stroke-linecap="round" stroke-width=".5" d="M 0 -12.5 A 12.5 12.5 0 0 0 -12.5 0" transform="translate(20 20) rotate(-20)"/><path fill="none" stroke="#333" stroke-linecap="round" stroke-width=".5" d="M 0 -12.5 A 12.5 12.5 0 0 0 -12.5 0" transform="translate(20 20) rotate(-43)"/></g></symbol><symbol id="knobguide-maxtick" viewBox="0 0 40 40"><g><g transform="translate(20 20) rotate(60) translate(10 0)"><polyline stroke="#333" stroke-width="1" points="0 0 4 0"/></g><path fill="none" stroke="#333" stroke-linecap="round" stroke-width=".5" d="M 0 -12.5 A 12.5 12.5 0 0 1 12.5 0" transform="translate(20 20) rotate(0)"/><path fill="none" stroke="#333" stroke-linecap="round" stroke-width=".5" d="M 0 -12.5 A 12.5 12.5 0 0 1 12.5 0" transform="translate(20 20) rotate(43)"/><path fill="none" stroke="#333" stroke-linecap="round" stroke-width=".5" d="M 0 -12.5 A 12.5 12.5 0 0 0 -12.5 0" transform="translate(20 20) rotate(0)"/><path fill="none" stroke="#333" stroke-linecap="round" stroke-width=".5" d="M 0 -12.5 A 12.5 12.5 0 0 0 -12.5 0" transform="translate(20 20) rotate(-43)"/></g></symbol><symbol id="input" viewBox="0 0 24 24"><g transform="translate(12 12)"><circle cx="0" cy="0" r="5" fill="#0f0" stroke="#0f0" stroke-width="1"/><circle cx="0" cy="0" r="10.5" fill="none" stroke="#0f0" stroke-width="3"/></g></symbol><symbol id="output" viewBox="0 0 24 24"><g transform="translate(12 12)"><circle cx="0" cy="0" r="5" fill="red" stroke="red" stroke-width="1"/><circle cx="0" cy="0" r="10.5" fill="none" stroke="red" stroke-width="3"/></g></symbol><symbol id="button-small" viewBox="0 0 9 9"><g transform="translate(4.5 4.5)"><circle r="4" fill="red" stroke="#00f" stroke-width="1"/></g></symbol><symbol id="light-small" viewBox="0 0 6.4 6.4"><rect width="6.4" height="6.4" fill="#0f0"/></symbol></defs><rect width="100%" height="100%" fill="#ddd"/><polyline fill="none" stroke="#e4e4e4" stroke-width=".5" points="1 1 149 1 149 379 1 379 1 1"/><polyline fill="none" stroke="#ebebeb" stroke-width=".8" points=".5 .5 149.5 .5 149.5 379.5 .5 379.5 .5 .5"/><polyline fill="none" stroke="#f2f2f2" stroke-width="1" points="0 0 150 0 150 380 0 380 0 0"/><text x="53" y="19" class="title" font-size="16" letter-spacing="4">LFO</text><g transform="translate(35.5 374)"><text class="brand" font-size="8pt" letter-spacing="2">BOGAUDIO</text><rect width="3" height="3" fill="#ddd" transform="translate(24 -5)"/></g><g transform="translate(21 25)"><use id="FREQUENCY_PARAM" transform="translate(20 20)" xlink:href="#knob-large"/></g><use transform="translate(11 15)" xlink:href="#knobguide-frequency-lfo"/><text font-size="8" letter-spacing="1" transform="translate(34 133)">0V = C-3 = 2.04HZ</text><g transform="translate(111 240)"><use id="SLOW_PARAM" transform="translate(9 9)" xlink:href="#button-small"/><use id="SLOW_LIGHT" transform="translate(0 0)" xlink:href="#light-small"/><text font-size="8" letter-spacing="1" transform="translate(9 6.1)">SLOW</text></g><g transform="translate(10 150)"><g transform="translate(7 0)"><text font-size="8pt" letter-spacing="2" transform="translate(8 27) rotate(270)">SAM</text><use id="SAMPLE_PARAM" transform="translate(20 0)" xlink:href="#knob-medium"/></g><use transform="translate(17.5 -9.6)" xlink:href="#knobguide-linear"/><g transform="translate(72 0)"><text font-size="8pt" letter-spacing="2" transform="translate(8 22.5) rotate(270)">PW</text><use id="PW_PARAM" transform="translate(20 0)" xlink:href="#knob-medium"/></g><use transform="translate(82.5 -9.6)" xlink:href="#knobguide-attenuverter"/></g><g transform="translate(10 196)"><g transform="translate(7 0)"><text font-size="8pt" letter-spacing="2" transform="translate(8 18) rotate(270)">OFF</text><use id="OFFSET_PARAM" transform="translate(25 0)" xlink:href="#knob-smallest"/></g><use transform="translate(20 -12)" xlink:href="#knobguide-centertick"/><g transform="translate(72 0)"><text font-size="8pt" letter-spacing="2" transform="translate(8 18) rotate(270)">SCL</text><use id="SCALE_PARAM" transform="translate(25 0)" xlink:href="#knob-smallest"/></g><use transform="translate(85 -12)" xlink:href="#knobguide-maxtick"/></g><g transform="translate(0 225)"><rect width="130" height="91" fill="#bbb" rx="5" transform="translate(10 44)"/><rect width="97.5" height="135" fill="#bbb" rx="5" transform="translate(10 0)"/><rect width="65" height="135" fill="#fafafa" rx="5" transform="translate(10 0)"/><rect width="10" height="8" fill="#fafafa" transform="translate(32.5 0)"/><rect width="10" height="8" fill="#fafafa" transform="translate(65 0)"/><rect width="10" height="8" fill="#fafafa" transform="translate(65 127)"/><g transform="translate(12 0)"><use id="SAMPLE_INPUT" transform="translate(3 5)" xlink:href="#input"/><text font-size="8" letter-spacing="1" transform="translate(5 40)">SAM</text></g><g transform="translate(44 0)"><use id="PW_INPUT" transform="translate(3 5)" xlink:href="#input"/><text font-size="8" letter-spacing="1" transform="translate(8 40)">PW</text></g><g transform="translate(76 0)"><use id="RAMP_DOWN_OUTPUT" transform="translate(3 5)" xlink:href="#output"/><g transform="translate(9 33.5)"><polyline fill="none" stroke="#333" stroke-width="1" points="0 8 0 0 12 8"/></g></g><g><g transform="translate(0 44) translate(12 0)"><use id="OFFSET_INPUT" transform="translate(3 5)" xlink:href="#input"/><text font-size="8" letter-spacing="1" transform="translate(6.5 40)">OFF</text></g><g transform="translate(0 44) translate(44 0)"><use id="SCALE_INPUT" transform="translate(3 5)" xlink:href="#input"/><text font-size="8" letter-spacing="1" transform="translate(6.5 40)">SCL</text></g><g transform="translate(0 44) translate(76 0)"><use id="RAMP_UP_OUTPUT" transform="translate(3 5)" xlink:href="#output"/><g transform="translate(9 33.5)"><polyline fill="none" stroke="#333" stroke-width="1" points="0 8 12 0 12 8"/></g></g><g transform="translate(0 44) translate(108 0)"><use id="SQUARE_OUTPUT" transform="translate(3 5)" xlink:href="#output"/><g transform="translate(9 33.5)"><polyline fill="none" stroke="#333" stroke-width="1" points="0 4 0 0 6 0 6 8 12 8 12 4"/></g></g><g><g transform="translate(0 44) translate(10 44) translate(2 0)"><use id="PITCH_INPUT" transform="translate(3 5)" xlink:href="#input"/><text font-size="8" letter-spacing="1" transform="translate(1 40)">V/OCT</text></g><g transform="translate(0 44) translate(10 44) translate(34 0)"><use id="RESET_INPUT" transform="translate(3 5)" xlink:href="#input"/><text font-size="8" letter-spacing="1" transform="translate(0.7 40)">RESET</text></g><g transform="translate(0 44) translate(10 44) translate(66 0)"><use id="TRIANGLE_OUTPUT" transform="translate(3 5)" xlink:href="#output"/><g transform="translate(9 33.5)"><polyline fill="none" stroke="#333" stroke-width="1" points="0 4 3 0 9 8 12 4"/></g></g><g transform="translate(0 44) translate(10 44) translate(98 0)"><use id="SINE_OUTPUT" transform="translate(3 5)" xlink:href="#output"/><g><path fill="none" stroke="#333" stroke-width="1" d="M 0 4 A 2 3 0 0 1 6 4" transform="translate(9 33.5)"/><path fill="none" stroke="#333" stroke-width="1" d="M 6 4 A 2 3 0 0 0 12 4" transform="translate(9 33.5)"/></g></g></g></g></g></svg>