<svg xmlns="http://www.w3.org/2000/svg" xmlns:xlink="http://www.w3.org/1999/xlink" width="45" height="380" version="1.1" viewBox="0 0 45 380"><style>text{fill:#333;font-family:&apos;Roboto&apos;,sans-serif;font-weight:700}text.title{font-family:&apos;Comfortaa&apos;,sans-serif;font-weight:400}text.brand{font-family:&apos;Audiowide&apos;,sans-serif;font-weight:700}</style><defs><symbol id="knob-medium" viewBox="0 0 26 26"><g transform="translate(13 13)"><polyline stroke="#00f" stroke-width="1" points="-3 0 3 0"/><polyline stroke="#00f" stroke-width="1" points="0 -3 0 3"/><circle cx="0" cy="0" r="12.5" fill="none" stroke="#00f" stroke-width="1"/></g></symbol><symbol id="knob-smallest" viewBox="0 0 16 16"><g transform="translate(8 8)"><polyline stroke="#00f" stroke-width="1" points="-3 0 3 0"/><polyline stroke="#00f" stroke-width="1" points="0 -3 0 3"/><circle r="7.5" fill="none" stroke="#00f" stroke-width="1"/></g></symbol><symbol id="knobguide-frequency-llfo" viewBox="0 0 45 45"><g transform="translate(22.5 22.5)"><polyline stroke="#333" stroke-width=".7" points="0 0 3.5 0" transform="rotate(-240) translate(15 0)"/><polyline stroke="#333" stroke-width=".7" points="0 0 3.5 0" transform="rotate(60) translate(15 0)"/><g transform="rotate(-202) translate(14 0)"><polyline stroke="#333" stroke-width=".3" points="0 0 2.5 0" transform="translate(0 0)"/><text font-size="5pt" transform="translate(5 0) rotate(202) translate(3 9.5) rotate(-90)">0.2</text></g><g transform="rotate(-48.68) translate(14 0)"><polyline stroke="#333" stroke-width=".3" points="0 0 2.5 0" transform="translate(0 0)"/><text font-size="5pt" transform="translate(5 0) rotate(48.68) translate(-1 2.3)">20</text></g><g transform="rotate(-124.62) translate(14 0)"><polyline stroke="#333" stroke-width=".3" points="0 0 2.5 0" transform="translate(0 0)"/><text font-size="5pt" transform="translate(5 0) rotate(124.62) translate(-3.0 2.3)">2</text></g><g transform="rotate(27.98) translate(14 0)"><polyline stroke="#333" stroke-width=".3" points="0 0 2.5 0" transform="translate(0 0)"/><text font-size="5pt" transform="translate(5 0) rotate(-27.98) translate(-2.3 -0.5) rotate(90)">200</text></g><text font-size="5pt" transform="translate(-4.5 22)">HZ</text></g></symbol><symbol id="knobguide-maxtick" viewBox="0 0 40 40"><g><g transform="translate(20 20) rotate(60) translate(10 0)"><polyline stroke="#333" stroke-width="1" points="0 0 4 0"/></g><path fill="none" stroke="#333" stroke-linecap="round" stroke-width=".5" d="M 0 -12.5 A 12.5 12.5 0 0 1 12.5 0" transform="translate(20 20) rotate(0)"/><path fill="none" stroke="#333" stroke-linecap="round" stroke-width=".5" d="M 0 -12.5 A 12.5 12.5 0 0 1 12.5 0" transform="translate(20 20) rotate(43)"/><path fill="none" stroke="#333" stroke-linecap="round" stroke-width=".5" d="M 0 -12.5 A 12.5 12.5 0 0 0 -12.5 0" transform="translate(20 20) rotate(0)"/><path fill="none" stroke="#333" stroke-linecap="round" stroke-width=".5" d="M 0 -12.5 A 12.5 12.5 0 0 0 -12.5 0" transform="translate(20 20) rotate(-43)"/></g></symbol><symbol id="knobguide-centertick" viewBox="0 0 40 40"><g><g transform="translate(20 20) rotate(-90) translate(10 0)"><polyline stroke="#333" stroke-width="1" points="0 0 4 0"/></g><path fill="none" stroke="#333" stroke-linecap="round" stroke-width=".5" d="M 0 -12.5 A 12.5 12.5 0 0 1 12.5 0" transform="translate(20 20) rotate(20)"/><path fill="none" stroke="#333" stroke-linecap="round" stroke-width=".5" d="M 0 -12.5 A 12.5 12.5 0 0 1 12.5 0" transform="translate(20 20) rotate(43)"/><path fill="none" stroke="#333" stroke-linecap="round" stroke-width=".5" d="M 0 -12.5 A 12.5 12.5 0 0 0 -12.5 0" transform="translate(20 20) rotate(-20)"/><path fill="none" stroke="#333" stroke-linecap="round" stroke-width=".5" d="M 0 -12.5 A 12.5 12.5 0 0 0 -12.5 0" transform="translate(20 20) rotate(-43)"/></g></symbol><symbol id="input" viewBox="0 0 24 24"><g transform="translate(12 12)"><circle cx="0" cy="0" r="5" fill="#0f0" stroke="#0f0" stroke-width="1"/><circle cx="0" cy="0" r="10.5" fill="none" stroke="#0f0" stroke-width="3"/></g></symbol><symbol id="output" viewBox="0 0 24 24"><g transform="translate(12 12)"><circle cx="0" cy="0" r="5" fill="red" stroke="red" stroke-width="1"/><circle cx="0" cy="0" r="10.5" fill="none" stroke="red" stroke-width="3"/></g></symbol><symbol id="button-small" viewBox="0 0 9 9"><g transform="translate(4.5 4.5)"><circle r="4" fill="red" stroke="#00f" stroke-width="1"/></g></symbol><symbol id="light-small" viewBox="0 0 6.4 6.4"><rect width="6.4" height="6.4" fill="#0f0"/></symbol></defs><rect width="100%" height="100%" fill="#ddd"/><polyline fill="none" stroke="#e4e4e4" stroke-width=".5" points="1 1 44 1 44 379 1 379 1 1"/><polyline fill="none" stroke="#ebebeb" stroke-width=".8" points=".5 .5 44.5 .5 44.5 379.5 .5 379.5 .5 .5"/><polyline fill="none" stroke="#f2f2f2" stroke-width="1" points="0 0 45 0 45 380 0 380 0 0"/><g><text class="title" font-size="7pt" letter-spacing="2.5" transform="rotate(-90) translate(-376 13)">LLFO</text><g transform="rotate(-90) translate(-376 13) translate(0 12)"><text class="brand" font-size="7pt" letter-spacing="2">BGA</text><rect width="3" height="3" fill="#ddd" transform="translate(11.5 -5)"/></g></g><g transform="translate(0 25)"><use id="FREQUENCY_PARAM" transform="translate(9.5 2)" xlink:href="#knob-medium"/><use transform="translate(0 -7.5)" xlink:href="#knobguide-frequency-llfo"/></g><g transform="translate(2 72)"><use id="SLOW_PARAM" transform="translate(32 -1)" xlink:href="#button-small"/><use id="SLOW_LIGHT" transform="translate(0 0)" xlink:href="#light-small"/><text font-size="8" letter-spacing=".5" transform="translate(8 6.1)">SLOW</text></g><g transform="translate(0.5 88)"><g><g transform="translate(9 0) translate(0 0)"><use id="SINE_LIGHT" transform="translate(-7.5 1)" xlink:href="#light-small"/><g><path fill="none" stroke="#333" stroke-width="1" d="M 0 4 A 2 3 0 0 1 6 4" transform="translate(1 1) scale(0.8)"/><path fill="none" stroke="#333" stroke-width="1" d="M 6 4 A 2 3 0 0 0 12 4" transform="translate(1 1) scale(0.8)"/></g></g><g transform="translate(9 0) translate(0 13)"><use id="RAMP_UP_LIGHT" transform="translate(-7.5 1)" xlink:href="#light-small"/><g transform="translate(1 1) scale(0.8)"><polyline fill="none" stroke="#333" stroke-width="1" points="0 8 12 0 12 8"/></g></g><g transform="translate(9 0) translate(0 26)"><use id="SQUARE_LIGHT" transform="translate(-7.5 1)" xlink:href="#light-small"/><g transform="translate(1 1) scale(0.8)"><polyline fill="none" stroke="#333" stroke-width="1" points="0 4 0 0 6 0 6 8 12 8 12 4"/></g></g></g><g><g transform="translate(31 0) translate(0 0)"><use id="TRIANGLE_LIGHT" transform="translate(-7.5 1)" xlink:href="#light-small"/><g transform="translate(1 1) scale(0.8)"><polyline fill="none" stroke="#333" stroke-width="1" points="0 4 3 0 9 8 12 4"/></g></g><g transform="translate(31 0) translate(0 13)"><use id="RAMP_DOWN_LIGHT" transform="translate(-7.5 1)" xlink:href="#light-small"/><g transform="translate(1 1) scale(0.8)"><polyline fill="none" stroke="#333" stroke-width="1" points="0 8 0 0 12 8"/></g></g><g transform="translate(31 0) translate(0 26)"><use id="PULSE_LIGHT" transform="translate(-7.5 1)" xlink:href="#light-small"/><g transform="translate(1 1) scale(0.8)"><polyline fill="none" stroke="#333" stroke-width="1" points="0 4 0 0 3 0 3 8 12 8 12 4"/></g></g></g><use id="WAVE_PARAM" transform="translate(17.5 38)" xlink:href="#button-small"/></g><g transform="translate(0 149)"><text font-size="8" letter-spacing="2" transform="translate(3 0)">OFFSET</text><use id="OFFSET_PARAM" transform="translate(14.5 9.5)" xlink:href="#knob-smallest"/><use transform="translate(2.2 -2.5)" xlink:href="#knobguide-centertick"/></g><g transform="translate(0 190)"><text font-size="8" letter-spacing="2" transform="translate(6.6 0)">SCALE</text><use id="SCALE_PARAM" transform="translate(14.5 9.5)" xlink:href="#knob-smallest"/><use transform="translate(2.2 -2.5)" xlink:href="#knobguide-maxtick"/></g><g><g transform="translate(0 228) translate(5.5 0)"><rect width="34" height="10" fill="#fafafa" transform="translate(0 63)"/><rect width="34" height="70" fill="#fafafa" rx="5"/><use id="PITCH_INPUT" transform="translate(5 3)" xlink:href="#input"/><text font-size="5pt" letter-spacing="2" transform="translate(3.5 35)">V/OCT</text><use id="RESET_INPUT" transform="translate(5 38)" xlink:href="#input"/><text font-size="5pt" letter-spacing="2" transform="translate(3.5 70)">RESET</text></g><g transform="translate(0 228) translate(5.5 76)"><rect width="34" height="10" fill="#bbb" transform="translate(0 -3)"/><rect width="34" height="35" fill="#bbb" rx="5"/><use id="OUT_OUTPUT" transform="translate(5 0)" xlink:href="#output"/><text font-size="5pt" letter-spacing="2" transform="translate(8.3 32)">OUT</text></g></g></svg>