<svg xmlns="http://www.w3.org/2000/svg" xmlns:xlink="http://www.w3.org/1999/xlink" width="45" height="380" version="1.1" viewBox="0 0 45 380"><style>text{fill:#333;font-family:&apos;Roboto&apos;,sans-serif;font-weight:700}text.title{font-family:&apos;Comfortaa&apos;,sans-serif;font-weight:400}text.brand{font-family:&apos;Audiowide&apos;,sans-serif;font-weight:700}</style><defs><symbol id="button" viewBox="0 0 18 18"><g transform="translate(9 9)"><circle cx="0" cy="0" r="8.5" fill="red" stroke="#00f" stroke-width="1"/></g></symbol><symbol id="output" viewBox="0 0 24 24"><g transform="translate(12 12)"><circle cx="0" cy="0" r="5" fill="red" stroke="red" stroke-width="1"/><circle cx="0" cy="0" r="10.5" fill="none" stroke="red" stroke-width="3"/></g></symbol></defs><rect width="100%" height="100%" fill="#ddd"/><polyline fill="none" stroke="#e4e4e4" stroke-width=".5" points="1 1 44 1 44 379 1 379 1 1"/><polyline fill="none" stroke="#ebebeb" stroke-width=".8" points=".5 .5 44.5 .5 44.5 379.5 .5 379.5 .5 .5"/><polyline fill="none" stroke="#f2f2f2" stroke-width="1" points="0 0 45 0 45 380 0 380 0 0"/><g><text class="title" font-size="7pt" letter-spacing="2.5" transform="rotate(-90) translate(-376 13)">MANUAL</text><g transform="rotate(-90) translate(-376 13) translate(0 12)"><text class="brand" font-size="7pt" letter-spacing="2">BGA</text><rect width="3" height="3" fill="#ddd" transform="translate(11.5 -5)"/></g></g><g><g><g transform="translate(0 18) translate(0 0) translate(5.5 0)"><rect width="34" height="10" fill="#fafafa" transform="translate(0 25)"/><rect width="34" height="33" fill="#fafafa" rx="5"/><use id="TRIGGER_PARAM" transform="translate(8 4)" xlink:href="#button"/><text font-size="5pt" letter-spacing="2" transform="translate(6.6 30)">TRIG</text></g></g><g><g transform="translate(0 18) translate(0 37) translate(5.5 0)"><rect width="34" height="10" fill="#bbb" transform="translate(0 -3)"/><rect width="34" height="250" fill="#bbb" rx="5"/><g transform="translate(2 2)"><use id="OUT1_OUTPUT" transform="translate(3 0)" xlink:href="#output"/><use id="OUT2_OUTPUT" transform="translate(3 30)" xlink:href="#output"/><use id="OUT3_OUTPUT" transform="translate(3 60)" xlink:href="#output"/><use id="OUT4_OUTPUT" transform="translate(3 90)" xlink:href="#output"/><use id="OUT5_OUTPUT" transform="translate(3 120)" xlink:href="#output"/><use id="OUT6_OUTPUT" transform="translate(3 150)" xlink:href="#output"/><use id="OUT7_OUTPUT" transform="translate(3 180)" xlink:href="#output"/><use id="OUT8_OUTPUT" transform="translate(3 210)" xlink:href="#output"/><text font-size="5pt" letter-spacing="2" transform="translate(6.5 244)">OUT</text></g></g></g></g></svg>