<svg xmlns="http://www.w3.org/2000/svg" xmlns:xlink="http://www.w3.org/1999/xlink" width="330" height="380" version="1.1" viewBox="0 0 330 380"><style>text{fill:#333;font-family:&apos;Roboto&apos;,sans-serif;font-weight:700}text.title{font-family:&apos;Comfortaa&apos;,sans-serif;font-weight:400}text.brand{font-family:&apos;Audiowide&apos;,sans-serif;font-weight:700}</style><defs><symbol id="knob19" viewBox="0 0 20 20"><g transform="translate(10 10)"><polyline stroke="#00f" stroke-width="1" points="-3 0 3 0"/><polyline stroke="#00f" stroke-width="1" points="0 -3 0 3"/><circle cx="0" cy="0" r="9.3" fill="none" stroke="#00f" stroke-width="1"/></g></symbol><symbol id="knob-small" viewBox="0 0 45 45"><g transform="translate(22.5 22.5)"><polyline stroke="#00f" stroke-width="1" points="-3 0 3 0"/><polyline stroke="#00f" stroke-width="1" points="0 -3 0 3"/><circle cx="0" cy="0" r="7.5" fill="none" stroke="#00f" stroke-width="1"/></g></symbol><symbol id="knobguide-centertick19" viewBox="0 0 40 40"><g transform="translate(20 20)"><polyline stroke="#333" stroke-width="1" points="0 0 4 0" transform="rotate(-90) translate(11.5 0)"/><path fill="none" stroke="#333" stroke-linecap="round" stroke-width=".5" d="M 0 -13.5 A 13.5 13.5 0 0 1 13.5 0" transform="rotate(20)"/><path fill="none" stroke="#333" stroke-linecap="round" stroke-width=".5" d="M 0 -13.5 A 13.5 13.5 0 0 1 13.5 0" transform="rotate(43)"/><path fill="none" stroke="#333" stroke-linecap="round" stroke-width=".5" d="M 0 -13.5 A 13.5 13.5 0 0 0 -13.5 0" transform="rotate(-20)"/><path fill="none" stroke="#333" stroke-linecap="round" stroke-width=".5" d="M 0 -13.5 A 13.5 13.5 0 0 0 -13.5 0" transform="rotate(-43)"/></g></symbol><symbol id="knobguide-maxtick" viewBox="0 0 40 40"><g><g transform="translate(20 20) rotate(60) translate(10 0)"><polyline stroke="#333" stroke-width="1" points="0 0 4 0"/></g><path fill="none" stroke="#333" stroke-linecap="round" stroke-width=".5" d="M 0 -12.5 A 12.5 12.5 0 0 1 12.5 0" transform="translate(20 20) rotate(0)"/><path fill="none" stroke="#333" stroke-linecap="round" stroke-width=".5" d="M 0 -12.5 A 12.5 12.5 0 0 1 12.5 0" transform="translate(20 20) rotate(43)"/><path fill="none" stroke="#333" stroke-linecap="round" stroke-width=".5" d="M 0 -12.5 A 12.5 12.5 0 0 0 -12.5 0" transform="translate(20 20) rotate(0)"/><path fill="none" stroke="#333" stroke-linecap="round" stroke-width=".5" d="M 0 -12.5 A 12.5 12.5 0 0 0 -12.5 0" transform="translate(20 20) rotate(-43)"/></g></symbol><symbol id="input" viewBox="0 0 24 24"><g transform="translate(12 12)"><circle cx="0" cy="0" r="5" fill="#0f0" stroke="#0f0" stroke-width="1"/><circle cx="0" cy="0" r="10.5" fill="none" stroke="#0f0" stroke-width="3"/><polyline stroke="#00f" stroke-width="1" points="-3 0 3 0"/><polyline stroke="#00f" stroke-width="1" points="0 -3 0 3"/></g></symbol><symbol id="output" viewBox="0 0 24 24"><g transform="translate(12 12)"><circle cx="0" cy="0" r="5" fill="red" stroke="red" stroke-width="1"/><circle cx="0" cy="0" r="10.5" fill="none" stroke="red" stroke-width="3"/><polyline stroke="#00f" stroke-width="1" points="-3 0 3 0"/><polyline stroke="#00f" stroke-width="1" points="0 -3 0 3"/></g></symbol></defs><rect width="100%" height="100%" fill="#ddd"/><polyline fill="none" stroke="#e4e4e4" stroke-width=".5" points="1 1 329 1 329 379 1 379 1 1"/><polyline fill="none" stroke="#ebebeb" stroke-width=".8" points=".5 .5 329.5 .5 329.5 379.5 .5 379.5 .5 .5"/><polyline fill="none" stroke="#f2f2f2" stroke-width="1" points="0 0 330 0 330 380 0 380 0 0"/><text x="110.5" y="19" class="title" font-size="16" letter-spacing="4">MATRIX88</text><g transform="translate(125 374)"><text class="brand" font-size="8pt" letter-spacing="2">BOGAUDIO</text><rect width="3" height="3" fill="#ddd" transform="translate(24 -5)"/></g><g transform="translate(5.5 25)"><rect width="34" height="293" fill="#fafafa" rx="5" transform="translate(0 0)"/><use id="IN1_INPUT" transform="translate(5 5)" xlink:href="#input"/><use id="IN2_INPUT" transform="translate(5 42)" xlink:href="#input"/><use id="IN3_INPUT" transform="translate(5 79)" xlink:href="#input"/><use id="IN4_INPUT" transform="translate(5 116)" xlink:href="#input"/><use id="IN5_INPUT" transform="translate(5 153)" xlink:href="#input"/><use id="IN6_INPUT" transform="translate(5 190)" xlink:href="#input"/><use id="IN7_INPUT" transform="translate(5 227)" xlink:href="#input"/><use id="IN8_INPUT" transform="translate(5 264)" xlink:href="#input"/></g><g transform="translate(46.5 323)"><rect width="278.5" height="34" fill="#bbb" rx="5" transform="translate(0 0)"/><use id="OUT1_OUTPUT" transform="translate(5 5)" xlink:href="#output"/><use id="OUT2_OUTPUT" transform="translate(40 5)" xlink:href="#output"/><use id="OUT3_OUTPUT" transform="translate(75 5)" xlink:href="#output"/><use id="OUT4_OUTPUT" transform="translate(110 5)" xlink:href="#output"/><use id="OUT5_OUTPUT" transform="translate(145 5)" xlink:href="#output"/><use id="OUT6_OUTPUT" transform="translate(180 5)" xlink:href="#output"/><use id="OUT7_OUTPUT" transform="translate(215 5)" xlink:href="#output"/><use id="OUT8_OUTPUT" transform="translate(250 5)" xlink:href="#output"/></g><g transform="translate(50 24)"><use id="MIX11_PARAM" transform="translate(3.5 8)" xlink:href="#knob19"/><use transform="translate(-6.5 -2)" xlink:href="#knobguide-centertick19"/></g><g transform="translate(50 61)"><use id="MIX21_PARAM" transform="translate(3.5 8)" xlink:href="#knob19"/><use transform="translate(-6.5 -2)" xlink:href="#knobguide-centertick19"/></g><g transform="translate(50 98)"><use id="MIX31_PARAM" transform="translate(3.5 8)" xlink:href="#knob19"/><use transform="translate(-6.5 -2)" xlink:href="#knobguide-centertick19"/></g><g transform="translate(50 135)"><use id="MIX41_PARAM" transform="translate(3.5 8)" xlink:href="#knob19"/><use transform="translate(-6.5 -2)" xlink:href="#knobguide-centertick19"/></g><g transform="translate(50 172)"><use id="MIX51_PARAM" transform="translate(3.5 8)" xlink:href="#knob19"/><use transform="translate(-6.5 -2)" xlink:href="#knobguide-centertick19"/></g><g transform="translate(50 209)"><use id="MIX61_PARAM" transform="translate(3.5 8)" xlink:href="#knob19"/><use transform="translate(-6.5 -2)" xlink:href="#knobguide-centertick19"/></g><g transform="translate(50 246)"><use id="MIX71_PARAM" transform="translate(3.5 8)" xlink:href="#knob19"/><use transform="translate(-6.5 -2)" xlink:href="#knobguide-centertick19"/></g><g transform="translate(50 283)"><use id="MIX81_PARAM" transform="translate(3.5 8)" xlink:href="#knob19"/><use transform="translate(-6.5 -2)" xlink:href="#knobguide-centertick19"/></g><g transform="translate(85 24)"><use id="MIX12_PARAM" transform="translate(3.5 8)" xlink:href="#knob19"/><use transform="translate(-6.5 -2)" xlink:href="#knobguide-centertick19"/></g><g transform="translate(85 61)"><use id="MIX22_PARAM" transform="translate(3.5 8)" xlink:href="#knob19"/><use transform="translate(-6.5 -2)" xlink:href="#knobguide-centertick19"/></g><g transform="translate(85 98)"><use id="MIX32_PARAM" transform="translate(3.5 8)" xlink:href="#knob19"/><use transform="translate(-6.5 -2)" xlink:href="#knobguide-centertick19"/></g><g transform="translate(85 135)"><use id="MIX42_PARAM" transform="translate(3.5 8)" xlink:href="#knob19"/><use transform="translate(-6.5 -2)" xlink:href="#knobguide-centertick19"/></g><g transform="translate(85 172)"><use id="MIX52_PARAM" transform="translate(3.5 8)" xlink:href="#knob19"/><use transform="translate(-6.5 -2)" xlink:href="#knobguide-centertick19"/></g><g transform="translate(85 209)"><use id="MIX62_PARAM" transform="translate(3.5 8)" xlink:href="#knob19"/><use transform="translate(-6.5 -2)" xlink:href="#knobguide-centertick19"/></g><g transform="translate(85 246)"><use id="MIX72_PARAM" transform="translate(3.5 8)" xlink:href="#knob19"/><use transform="translate(-6.5 -2)" xlink:href="#knobguide-centertick19"/></g><g transform="translate(85 283)"><use id="MIX82_PARAM" transform="translate(3.5 8)" xlink:href="#knob19"/><use transform="translate(-6.5 -2)" xlink:href="#knobguide-centertick19"/></g><g transform="translate(120 24)"><use id="MIX13_PARAM" transform="translate(3.5 8)" xlink:href="#knob19"/><use transform="translate(-6.5 -2)" xlink:href="#knobguide-centertick19"/></g><g transform="translate(120 61)"><use id="MIX23_PARAM" transform="translate(3.5 8)" xlink:href="#knob19"/><use transform="translate(-6.5 -2)" xlink:href="#knobguide-centertick19"/></g><g transform="translate(120 98)"><use id="MIX33_PARAM" transform="translate(3.5 8)" xlink:href="#knob19"/><use transform="translate(-6.5 -2)" xlink:href="#knobguide-centertick19"/></g><g transform="translate(120 135)"><use id="MIX43_PARAM" transform="translate(3.5 8)" xlink:href="#knob19"/><use transform="translate(-6.5 -2)" xlink:href="#knobguide-centertick19"/></g><g transform="translate(120 172)"><use id="MIX53_PARAM" transform="translate(3.5 8)" xlink:href="#knob19"/><use transform="translate(-6.5 -2)" xlink:href="#knobguide-centertick19"/></g><g transform="translate(120 209)"><use id="MIX63_PARAM" transform="translate(3.5 8)" xlink:href="#knob19"/><use transform="translate(-6.5 -2)" xlink:href="#knobguide-centertick19"/></g><g transform="translate(120 246)"><use id="MIX73_PARAM" transform="translate(3.5 8)" xlink:href="#knob19"/><use transform="translate(-6.5 -2)" xlink:href="#knobguide-centertick19"/></g><g transform="translate(120 283)"><use id="MIX83_PARAM" transform="translate(3.5 8)" xlink:href="#knob19"/><use transform="translate(-6.5 -2)" xlink:href="#knobguide-centertick19"/></g><g transform="translate(155 24)"><use id="MIX14_PARAM" transform="translate(3.5 8)" xlink:href="#knob19"/><use transform="translate(-6.5 -2)" xlink:href="#knobguide-centertick19"/></g><g transform="translate(155 61)"><use id="MIX24_PARAM" transform="translate(3.5 8)" xlink:href="#knob19"/><use transform="translate(-6.5 -2)" xlink:href="#knobguide-centertick19"/></g><g transform="translate(155 98)"><use id="MIX34_PARAM" transform="translate(3.5 8)" xlink:href="#knob19"/><use transform="translate(-6.5 -2)" xlink:href="#knobguide-centertick19"/></g><g transform="translate(155 135)"><use id="MIX44_PARAM" transform="translate(3.5 8)" xlink:href="#knob19"/><use transform="translate(-6.5 -2)" xlink:href="#knobguide-centertick19"/></g><g transform="translate(155 172)"><use id="MIX54_PARAM" transform="translate(3.5 8)" xlink:href="#knob19"/><use transform="translate(-6.5 -2)" xlink:href="#knobguide-centertick19"/></g><g transform="translate(155 209)"><use id="MIX64_PARAM" transform="translate(3.5 8)" xlink:href="#knob19"/><use transform="translate(-6.5 -2)" xlink:href="#knobguide-centertick19"/></g><g transform="translate(155 246)"><use id="MIX74_PARAM" transform="translate(3.5 8)" xlink:href="#knob19"/><use transform="translate(-6.5 -2)" xlink:href="#knobguide-centertick19"/></g><g transform="translate(155 283)"><use id="MIX84_PARAM" transform="translate(3.5 8)" xlink:href="#knob19"/><use transform="translate(-6.5 -2)" xlink:href="#knobguide-centertick19"/></g><g transform="translate(190 24)"><use id="MIX15_PARAM" transform="translate(3.5 8)" xlink:href="#knob19"/><use transform="translate(-6.5 -2)" xlink:href="#knobguide-centertick19"/></g><g transform="translate(190 61)"><use id="MIX25_PARAM" transform="translate(3.5 8)" xlink:href="#knob19"/><use transform="translate(-6.5 -2)" xlink:href="#knobguide-centertick19"/></g><g transform="translate(190 98)"><use id="MIX35_PARAM" transform="translate(3.5 8)" xlink:href="#knob19"/><use transform="translate(-6.5 -2)" xlink:href="#knobguide-centertick19"/></g><g transform="translate(190 135)"><use id="MIX45_PARAM" transform="translate(3.5 8)" xlink:href="#knob19"/><use transform="translate(-6.5 -2)" xlink:href="#knobguide-centertick19"/></g><g transform="translate(190 172)"><use id="MIX55_PARAM" transform="translate(3.5 8)" xlink:href="#knob19"/><use transform="translate(-6.5 -2)" xlink:href="#knobguide-centertick19"/></g><g transform="translate(190 209)"><use id="MIX65_PARAM" transform="translate(3.5 8)" xlink:href="#knob19"/><use transform="translate(-6.5 -2)" xlink:href="#knobguide-centertick19"/></g><g transform="translate(190 246)"><use id="MIX75_PARAM" transform="translate(3.5 8)" xlink:href="#knob19"/><use transform="translate(-6.5 -2)" xlink:href="#knobguide-centertick19"/></g><g transform="translate(190 283)"><use id="MIX85_PARAM" transform="translate(3.5 8)" xlink:href="#knob19"/><use transform="translate(-6.5 -2)" xlink:href="#knobguide-centertick19"/></g><g transform="translate(225 24)"><use id="MIX16_PARAM" transform="translate(3.5 8)" xlink:href="#knob19"/><use transform="translate(-6.5 -2)" xlink:href="#knobguide-centertick19"/></g><g transform="translate(225 61)"><use id="MIX26_PARAM" transform="translate(3.5 8)" xlink:href="#knob19"/><use transform="translate(-6.5 -2)" xlink:href="#knobguide-centertick19"/></g><g transform="translate(225 98)"><use id="MIX36_PARAM" transform="translate(3.5 8)" xlink:href="#knob19"/><use transform="translate(-6.5 -2)" xlink:href="#knobguide-centertick19"/></g><g transform="translate(225 135)"><use id="MIX46_PARAM" transform="translate(3.5 8)" xlink:href="#knob19"/><use transform="translate(-6.5 -2)" xlink:href="#knobguide-centertick19"/></g><g transform="translate(225 172)"><use id="MIX56_PARAM" transform="translate(3.5 8)" xlink:href="#knob19"/><use transform="translate(-6.5 -2)" xlink:href="#knobguide-centertick19"/></g><g transform="translate(225 209)"><use id="MIX66_PARAM" transform="translate(3.5 8)" xlink:href="#knob19"/><use transform="translate(-6.5 -2)" xlink:href="#knobguide-centertick19"/></g><g transform="translate(225 246)"><use id="MIX76_PARAM" transform="translate(3.5 8)" xlink:href="#knob19"/><use transform="translate(-6.5 -2)" xlink:href="#knobguide-centertick19"/></g><g transform="translate(225 283)"><use id="MIX86_PARAM" transform="translate(3.5 8)" xlink:href="#knob19"/><use transform="translate(-6.5 -2)" xlink:href="#knobguide-centertick19"/></g><g transform="translate(260 24)"><use id="MIX17_PARAM" transform="translate(3.5 8)" xlink:href="#knob19"/><use transform="translate(-6.5 -2)" xlink:href="#knobguide-centertick19"/></g><g transform="translate(260 61)"><use id="MIX27_PARAM" transform="translate(3.5 8)" xlink:href="#knob19"/><use transform="translate(-6.5 -2)" xlink:href="#knobguide-centertick19"/></g><g transform="translate(260 98)"><use id="MIX37_PARAM" transform="translate(3.5 8)" xlink:href="#knob19"/><use transform="translate(-6.5 -2)" xlink:href="#knobguide-centertick19"/></g><g transform="translate(260 135)"><use id="MIX47_PARAM" transform="translate(3.5 8)" xlink:href="#knob19"/><use transform="translate(-6.5 -2)" xlink:href="#knobguide-centertick19"/></g><g transform="translate(260 172)"><use id="MIX57_PARAM" transform="translate(3.5 8)" xlink:href="#knob19"/><use transform="translate(-6.5 -2)" xlink:href="#knobguide-centertick19"/></g><g transform="translate(260 209)"><use id="MIX67_PARAM" transform="translate(3.5 8)" xlink:href="#knob19"/><use transform="translate(-6.5 -2)" xlink:href="#knobguide-centertick19"/></g><g transform="translate(260 246)"><use id="MIX77_PARAM" transform="translate(3.5 8)" xlink:href="#knob19"/><use transform="translate(-6.5 -2)" xlink:href="#knobguide-centertick19"/></g><g transform="translate(260 283)"><use id="MIX87_PARAM" transform="translate(3.5 8)" xlink:href="#knob19"/><use transform="translate(-6.5 -2)" xlink:href="#knobguide-centertick19"/></g><g transform="translate(295 24)"><use id="MIX18_PARAM" transform="translate(3.5 8)" xlink:href="#knob19"/><use transform="translate(-6.5 -2)" xlink:href="#knobguide-centertick19"/></g><g transform="translate(295 61)"><use id="MIX28_PARAM" transform="translate(3.5 8)" xlink:href="#knob19"/><use transform="translate(-6.5 -2)" xlink:href="#knobguide-centertick19"/></g><g transform="translate(295 98)"><use id="MIX38_PARAM" transform="translate(3.5 8)" xlink:href="#knob19"/><use transform="translate(-6.5 -2)" xlink:href="#knobguide-centertick19"/></g><g transform="translate(295 135)"><use id="MIX48_PARAM" transform="translate(3.5 8)" xlink:href="#knob19"/><use transform="translate(-6.5 -2)" xlink:href="#knobguide-centertick19"/></g><g transform="translate(295 172)"><use id="MIX58_PARAM" transform="translate(3.5 8)" xlink:href="#knob19"/><use transform="translate(-6.5 -2)" xlink:href="#knobguide-centertick19"/></g><g transform="translate(295 209)"><use id="MIX68_PARAM" transform="translate(3.5 8)" xlink:href="#knob19"/><use transform="translate(-6.5 -2)" xlink:href="#knobguide-centertick19"/></g><g transform="translate(295 246)"><use id="MIX78_PARAM" transform="translate(3.5 8)" xlink:href="#knob19"/><use transform="translate(-6.5 -2)" xlink:href="#knobguide-centertick19"/></g><g transform="translate(295 283)"><use id="MIX88_PARAM" transform="translate(3.5 8)" xlink:href="#knob19"/><use transform="translate(-6.5 -2)" xlink:href="#knobguide-centertick19"/></g><g transform="translate(0 330)"><text font-size="8" letter-spacing="2" transform="translate(7 0)">LEVEL</text><use id="LEVEL_PARAM" transform="translate(0 -5)" xlink:href="#knob-small"/><use transform="translate(2.5 -2.5)" xlink:href="#knobguide-maxtick"/></g></svg>