<svg xmlns="http://www.w3.org/2000/svg" xmlns:xlink="http://www.w3.org/1999/xlink" width="45" height="380" version="1.1" viewBox="0 0 45 380"><style>text{fill:#333;font-family:&apos;Roboto&apos;,sans-serif;font-weight:700}text.title{font-family:&apos;Comfortaa&apos;,sans-serif;font-weight:400}text.brand{font-family:&apos;Audiowide&apos;,sans-serif;font-weight:700}</style><defs><symbol id="slider" viewBox="0 0 18 151x"><rect width="18" height="151" fill="none"/><rect width="6" height="145" x="6" y="3" fill="#222" stroke="#888" stroke-width="1" rx="2"/><g transform="translate(0 40)"><rect width="18" height="13" fill="#777" rx="1.5"/><rect width="18" height="9" x="0" y="2" fill="#444"/><polyline fill="none" stroke="#fafafa" stroke-width="1" points="0 6.5 18 6.5"/><rect width="14" height="5" x="2" y="4" fill="#ddd" rx="1" transform="translate(0 0)"/></g></symbol><symbol id="sliderguide-db" viewBox="0 0 20 151"><g transform="translate(0 6.5)"><polyline fill="none" stroke="#333" points="0 0 6.5 0" transform="translate(10.5 0)"/><polyline fill="none" stroke="#333" points="0 0 6.5 0" transform="translate(28 0)"/></g><g transform="translate(0 19.05)"><polyline fill="none" stroke="#333" points="0 0 6.5 0" transform="translate(10.5 0)"/><polyline fill="none" stroke="#333" points="0 0 6.5 0" transform="translate(28 0)"/><text font-size="8" transform="translate(7 0) rotate(0) translate(-2.5 2.6)">0</text></g><g transform="translate(0 32.86)"><polyline fill="none" stroke="#333" points="0 0 6.5 0" transform="translate(10.5 0)"/><polyline fill="none" stroke="#333" points="0 0 6.5 0" transform="translate(28 0)"/><text font-size="8" transform="translate(7 0) rotate(-90) translate(-4 2.2)">-6</text></g><g transform="translate(0 46.05)"><polyline fill="none" stroke="#333" points="0 0 6.5 0" transform="translate(10.5 0)"/><polyline fill="none" stroke="#333" points="0 0 6.5 0" transform="translate(28 0)"/><text font-size="8" transform="translate(7 0) rotate(-90) translate(-7 2.2)">-12</text></g><g transform="translate(0 72.41)"><polyline fill="none" stroke="#333" points="0 0 6.5 0" transform="translate(10.5 0)"/><polyline fill="none" stroke="#333" points="0 0 6.5 0" transform="translate(28 0)"/><text font-size="8" transform="translate(7 0) rotate(-90) translate(-7 2.2)">-24</text></g><g transform="translate(0 125.14)"><polyline fill="none" stroke="#333" points="0 0 6.5 0" transform="translate(10.5 0)"/><polyline fill="none" stroke="#333" points="0 0 6.5 0" transform="translate(28 0)"/><text font-size="8" transform="translate(7 0) rotate(-90) translate(-7 2.2)">-48</text></g><g><text font-size="8" transform="translate(0 151.5) translate(7 -10) rotate(-90) translate(-9 4)">dB</text></g></symbol><symbol id="button" viewBox="0 0 20 20"><g transform="translate(10 10)"><circle cx="0" cy="0" r="8.8" fill="red" stroke="#00f" stroke-width="1"/></g></symbol><symbol id="input" viewBox="0 0 24 24"><g transform="translate(12 12)"><circle cx="0" cy="0" r="5" fill="#0f0" stroke="#0f0" stroke-width="1"/><circle cx="0" cy="0" r="10.5" fill="none" stroke="#0f0" stroke-width="3"/></g></symbol><symbol id="output" viewBox="0 0 24 24"><g transform="translate(12 12)"><circle cx="0" cy="0" r="5" fill="red" stroke="red" stroke-width="1"/><circle cx="0" cy="0" r="10.5" fill="none" stroke="red" stroke-width="3"/></g></symbol></defs><rect width="100%" height="100%" fill="#ddd"/><polyline fill="none" stroke="#e4e4e4" stroke-width=".5" points="1 1 44 1 44 379 1 379 1 1"/><polyline fill="none" stroke="#ebebeb" stroke-width=".8" points=".5 .5 44.5 .5 44.5 379.5 .5 379.5 .5 .5"/><polyline fill="none" stroke="#f2f2f2" stroke-width="1" points="0 0 45 0 45 380 0 380 0 0"/><g><text class="title" font-size="7pt" letter-spacing="2.5" transform="rotate(-90) translate(-376 13)">MIX1</text><g transform="rotate(-90) translate(-376 13) translate(0 12)"><text class="brand" font-size="7pt" letter-spacing="2">BGA</text><rect width="3" height="3" fill="#ddd" transform="translate(11.5 -5)"/></g></g><g transform="translate(0 18)"><use transform="translate(0 0)" xlink:href="#sliderguide-db"/><use id="LEVEL_PARAM" transform="translate(13.5 0)" xlink:href="#slider"/></g><g><g transform="translate(0 173) translate(5.5 0)"><rect width="34" height="10" fill="#fafafa" transform="translate(0 120)"/><rect width="34" height="127" fill="#fafafa" rx="5"/><use id="MUTE_PARAM" transform="translate(7 2)" xlink:href="#button"/><use id="MUTE_INPUT" transform="translate(5 25)" xlink:href="#input"/><text font-size="5pt" letter-spacing="2" transform="translate(5 57)">MUTE</text><use id="LEVEL_INPUT" transform="translate(5 60)" xlink:href="#input"/><text font-size="5pt" letter-spacing="2" transform="translate(3.5 92)">LEVEL</text><use id="IN_INPUT" transform="translate(5 95)" xlink:href="#input"/><text font-size="5pt" letter-spacing="2" transform="translate(12.5 127)">IN</text></g><g transform="translate(0 173) translate(5.5 133)"><rect width="34" height="10" fill="#bbb" transform="translate(0 -3)"/><rect width="34" height="35" fill="#bbb" rx="5"/><use id="OUT_OUTPUT" transform="translate(5 0)" xlink:href="#output"/><text font-size="5pt" letter-spacing="2" transform="translate(8.3 32)">OUT</text></g></g></svg>