<svg xmlns="http://www.w3.org/2000/svg" xmlns:xlink="http://www.w3.org/1999/xlink" width="225" height="380" version="1.1" viewBox="0 0 225 380"><style>text{fill:#333;font-family:&apos;Roboto&apos;,sans-serif;font-weight:700}text.title{font-family:&apos;Comfortaa&apos;,sans-serif;font-weight:400}text.brand{font-family:&apos;Audiowide&apos;,sans-serif;font-weight:700}</style><defs><symbol id="slider" viewBox="0 0 18 151x"><rect width="18" height="151" fill="none"/><rect width="6" height="145" x="6" y="3" fill="#222" stroke="#888" stroke-width="1" rx="2"/><g transform="translate(0 40)"><rect width="18" height="13" fill="#777" rx="1.5"/><rect width="18" height="9" x="0" y="2" fill="#444"/><polyline fill="none" stroke="#fafafa" stroke-width="1" points="0 6.5 18 6.5"/><rect width="14" height="5" x="2" y="4" fill="#ddd" rx="1" transform="translate(0 0)"/></g></symbol><symbol id="sliderguide-db" viewBox="0 0 20 151"><g transform="translate(0 6.5)"><polyline fill="none" stroke="#333" points="0 0 6.5 0" transform="translate(10.5 0)"/><polyline fill="none" stroke="#333" points="0 0 6.5 0" transform="translate(28 0)"/></g><g transform="translate(0 19.05)"><polyline fill="none" stroke="#333" points="0 0 6.5 0" transform="translate(10.5 0)"/><polyline fill="none" stroke="#333" points="0 0 6.5 0" transform="translate(28 0)"/><text font-size="8" transform="translate(7 0) rotate(0) translate(-2.5 2.6)">0</text></g><g transform="translate(0 32.86)"><polyline fill="none" stroke="#333" points="0 0 6.5 0" transform="translate(10.5 0)"/><polyline fill="none" stroke="#333" points="0 0 6.5 0" transform="translate(28 0)"/><text font-size="8" transform="translate(7 0) rotate(-90) translate(-4 2.2)">-6</text></g><g transform="translate(0 46.05)"><polyline fill="none" stroke="#333" points="0 0 6.5 0" transform="translate(10.5 0)"/><polyline fill="none" stroke="#333" points="0 0 6.5 0" transform="translate(28 0)"/><text font-size="8" transform="translate(7 0) rotate(-90) translate(-7 2.2)">-12</text></g><g transform="translate(0 72.41)"><polyline fill="none" stroke="#333" points="0 0 6.5 0" transform="translate(10.5 0)"/><polyline fill="none" stroke="#333" points="0 0 6.5 0" transform="translate(28 0)"/><text font-size="8" transform="translate(7 0) rotate(-90) translate(-7 2.2)">-24</text></g><g transform="translate(0 125.14)"><polyline fill="none" stroke="#333" points="0 0 6.5 0" transform="translate(10.5 0)"/><polyline fill="none" stroke="#333" points="0 0 6.5 0" transform="translate(28 0)"/><text font-size="8" transform="translate(7 0) rotate(-90) translate(-7 2.2)">-48</text></g><g><text font-size="8" transform="translate(0 151.5) translate(7 -10) rotate(-90) translate(-9 4)">dB</text></g></symbol><symbol id="knob-smallest" viewBox="0 0 16 16"><g transform="translate(8 8)"><polyline stroke="#00f" stroke-width="1" points="-3 0 3 0"/><polyline stroke="#00f" stroke-width="1" points="0 -3 0 3"/><circle r="7.5" fill="none" stroke="#00f" stroke-width="1"/></g></symbol><symbol id="knobguide-centertick" viewBox="0 0 40 40"><g><g transform="translate(20 20) rotate(-90) translate(10 0)"><polyline stroke="#333" stroke-width="1" points="0 0 4 0"/></g><path fill="none" stroke="#333" stroke-linecap="round" stroke-width=".5" d="M 0 -12.5 A 12.5 12.5 0 0 1 12.5 0" transform="translate(20 20) rotate(20)"/><path fill="none" stroke="#333" stroke-linecap="round" stroke-width=".5" d="M 0 -12.5 A 12.5 12.5 0 0 1 12.5 0" transform="translate(20 20) rotate(43)"/><path fill="none" stroke="#333" stroke-linecap="round" stroke-width=".5" d="M 0 -12.5 A 12.5 12.5 0 0 0 -12.5 0" transform="translate(20 20) rotate(-20)"/><path fill="none" stroke="#333" stroke-linecap="round" stroke-width=".5" d="M 0 -12.5 A 12.5 12.5 0 0 0 -12.5 0" transform="translate(20 20) rotate(-43)"/></g></symbol><symbol id="button" viewBox="0 0 20 20"><g transform="translate(10 10)"><circle cx="0" cy="0" r="8.8" fill="red" stroke="#00f" stroke-width="1"/></g></symbol><symbol id="input" viewBox="0 0 24 24"><g transform="translate(12 12)"><circle cx="0" cy="0" r="5" fill="#0f0" stroke="#0f0" stroke-width="1"/><circle cx="0" cy="0" r="10.5" fill="none" stroke="#0f0" stroke-width="3"/></g></symbol><symbol id="output" viewBox="0 0 24 24"><g transform="translate(12 12)"><circle cx="0" cy="0" r="5" fill="red" stroke="red" stroke-width="1"/><circle cx="0" cy="0" r="10.5" fill="none" stroke="red" stroke-width="3"/></g></symbol></defs><rect width="100%" height="100%" fill="#ddd"/><polyline fill="none" stroke="#e4e4e4" stroke-width=".5" points="1 1 224 1 224 379 1 379 1 1"/><polyline fill="none" stroke="#ebebeb" stroke-width=".8" points=".5 .5 224.5 .5 224.5 379.5 .5 379.5 .5 .5"/><polyline fill="none" stroke="#f2f2f2" stroke-width="1" points="0 0 225 0 225 380 0 380 0 0"/><text x="85" y="19" class="title" font-size="16" letter-spacing="4">MIX4</text><g transform="translate(72.5 374)"><text class="brand" font-size="8pt" letter-spacing="2">BOGAUDIO</text><rect width="3" height="3" fill="#ddd" transform="translate(24 -5)"/></g><g transform="translate(4 20)"><text font-size="5pt" letter-spacing="2" transform="translate(13.7 9)">CH1</text><use transform="translate(0 12)" xlink:href="#sliderguide-db"/><use id="LEVEL1_PARAM" transform="translate(13.5 12)" xlink:href="#slider"/><use id="MUTE1_PARAM" transform="translate(12.5 165)" xlink:href="#button"/><text font-size="5pt" letter-spacing="2" transform="translate(10 192)">MUTE</text><use id="PAN1_PARAM" transform="translate(14.5 203)" xlink:href="#knob-smallest"/><use transform="translate(2.5 191)" xlink:href="#knobguide-centertick"/><text font-size="5pt" letter-spacing="2" transform="translate(14 228)">PAN</text><g transform="translate(5.5 232)"><rect width="34" height="108" fill="#fafafa" rx="5"/><use id="CV1_INPUT" transform="translate(5 3)" xlink:href="#input"/><text font-size="5pt" letter-spacing="2" transform="translate(3.5 35)">LEVEL</text><use id="PAN1_INPUT" transform="translate(5 38)" xlink:href="#input"/><text font-size="5pt" letter-spacing="2" transform="translate(8.5 70)">PAN</text><use id="IN1_INPUT" transform="translate(5 73)" xlink:href="#input"/><text font-size="5pt" letter-spacing="2" transform="translate(12.5 105)">IN</text></g></g><g transform="translate(47 20)"><text font-size="5pt" letter-spacing="2" transform="translate(13.7 9)">CH2</text><use transform="translate(0 12)" xlink:href="#sliderguide-db"/><use id="LEVEL2_PARAM" transform="translate(13.5 12)" xlink:href="#slider"/><use id="MUTE2_PARAM" transform="translate(12.5 165)" xlink:href="#button"/><text font-size="5pt" letter-spacing="2" transform="translate(10 192)">MUTE</text><use id="PAN2_PARAM" transform="translate(14.5 203)" xlink:href="#knob-smallest"/><use transform="translate(2.5 191)" xlink:href="#knobguide-centertick"/><text font-size="5pt" letter-spacing="2" transform="translate(14 228)">PAN</text><g transform="translate(5.5 232)"><rect width="34" height="108" fill="#fafafa" rx="5"/><use id="CV2_INPUT" transform="translate(5 3)" xlink:href="#input"/><text font-size="5pt" letter-spacing="2" transform="translate(3.5 35)">LEVEL</text><use id="PAN2_INPUT" transform="translate(5 38)" xlink:href="#input"/><text font-size="5pt" letter-spacing="2" transform="translate(8.5 70)">PAN</text><use id="IN2_INPUT" transform="translate(5 73)" xlink:href="#input"/><text font-size="5pt" letter-spacing="2" transform="translate(12.5 105)">IN</text></g></g><g transform="translate(90 20)"><text font-size="5pt" letter-spacing="2" transform="translate(13.7 9)">CH3</text><use transform="translate(0 12)" xlink:href="#sliderguide-db"/><use id="LEVEL3_PARAM" transform="translate(13.5 12)" xlink:href="#slider"/><use id="MUTE3_PARAM" transform="translate(12.5 165)" xlink:href="#button"/><text font-size="5pt" letter-spacing="2" transform="translate(10 192)">MUTE</text><use id="PAN3_PARAM" transform="translate(14.5 203)" xlink:href="#knob-smallest"/><use transform="translate(2.5 191)" xlink:href="#knobguide-centertick"/><text font-size="5pt" letter-spacing="2" transform="translate(14 228)">PAN</text><g transform="translate(5.5 232)"><rect width="34" height="108" fill="#fafafa" rx="5"/><use id="CV3_INPUT" transform="translate(5 3)" xlink:href="#input"/><text font-size="5pt" letter-spacing="2" transform="translate(3.5 35)">LEVEL</text><use id="PAN3_INPUT" transform="translate(5 38)" xlink:href="#input"/><text font-size="5pt" letter-spacing="2" transform="translate(8.5 70)">PAN</text><use id="IN3_INPUT" transform="translate(5 73)" xlink:href="#input"/><text font-size="5pt" letter-spacing="2" transform="translate(12.5 105)">IN</text></g></g><g transform="translate(133 20)"><text font-size="5pt" letter-spacing="2" transform="translate(13.7 9)">CH4</text><use transform="translate(0 12)" xlink:href="#sliderguide-db"/><use id="LEVEL4_PARAM" transform="translate(13.5 12)" xlink:href="#slider"/><use id="MUTE4_PARAM" transform="translate(12.5 165)" xlink:href="#button"/><text font-size="5pt" letter-spacing="2" transform="translate(10 192)">MUTE</text><use id="PAN4_PARAM" transform="translate(14.5 203)" xlink:href="#knob-smallest"/><use transform="translate(2.5 191)" xlink:href="#knobguide-centertick"/><text font-size="5pt" letter-spacing="2" transform="translate(14 228)">PAN</text><g transform="translate(5.5 232)"><rect width="34" height="108" fill="#fafafa" rx="5"/><use id="CV4_INPUT" transform="translate(5 3)" xlink:href="#input"/><text font-size="5pt" letter-spacing="2" transform="translate(3.5 35)">LEVEL</text><use id="PAN4_INPUT" transform="translate(5 38)" xlink:href="#input"/><text font-size="5pt" letter-spacing="2" transform="translate(8.5 70)">PAN</text><use id="IN4_INPUT" transform="translate(5 73)" xlink:href="#input"/><text font-size="5pt" letter-spacing="2" transform="translate(12.5 105)">IN</text></g></g><g transform="translate(176 20)"><text font-size="5pt" letter-spacing="2" transform="translate(13.7 9)">MIX</text><use transform="translate(0 12)" xlink:href="#sliderguide-db"/><use id="MIX_PARAM" transform="translate(13.5 12)" xlink:href="#slider"/><use id="MIX_MUTE_PARAM" transform="translate(12.5 165)" xlink:href="#button"/><text font-size="5pt" letter-spacing="2" transform="translate(10 192)">MUTE</text><g transform="translate(5.5 229)"><rect width="34" height="50" fill="#fafafa" rx="5"/><use id="MIX_CV_INPUT" transform="translate(5 3)" xlink:href="#input"/><text font-size="5pt" letter-spacing="2" transform="translate(3.5 35)">LEVEL</text><rect width="34" height="73" fill="#bbb" rx="5" transform="translate(0 38)"/><rect width="34" height="5" fill="#bbb" transform="translate(0 38)"/><use id="L_OUTPUT" transform="translate(5 41)" xlink:href="#output"/><text font-size="5pt" letter-spacing="2" transform="translate(15.5 73)">L</text><use id="R_OUTPUT" transform="translate(5 76)" xlink:href="#output"/><text font-size="5pt" letter-spacing="2" transform="translate(15 108)">R</text></g></g></svg>