<svg xmlns="http://www.w3.org/2000/svg" xmlns:xlink="http://www.w3.org/1999/xlink" width="150" height="380" version="1.1" viewBox="0 0 150 380"><style>text{fill:#333;font-family:&apos;Roboto&apos;,sans-serif;font-weight:700}text.title{font-family:&apos;Comfortaa&apos;,sans-serif;font-weight:400}text.brand{font-family:&apos;Audiowide&apos;,sans-serif;font-weight:700}</style><defs><symbol id="button" viewBox="0 0 20 20"><g transform="translate(10 10)"><circle cx="0" cy="0" r="8.8" fill="red" stroke="#00f" stroke-width="1"/></g></symbol><symbol id="light" viewBox="0 0 6.4 6.4"><rect width="6.4" height="6.4" fill="#0f0"/></symbol><symbol id="input" viewBox="0 0 24 24"><g transform="translate(12 12)"><circle cx="0" cy="0" r="5" fill="#0f0" stroke="#0f0" stroke-width="1"/><circle cx="0" cy="0" r="10.5" fill="none" stroke="#0f0" stroke-width="3"/></g></symbol><symbol id="output" viewBox="0 0 24 24"><g transform="translate(12 12)"><circle cx="0" cy="0" r="5" fill="red" stroke="red" stroke-width="1"/><circle cx="0" cy="0" r="10.5" fill="none" stroke="red" stroke-width="3"/></g></symbol></defs><rect width="100%" height="100%" fill="#ddd"/><polyline fill="none" stroke="#e4e4e4" stroke-width=".5" points="1 1 149 1 149 379 1 379 1 1"/><polyline fill="none" stroke="#ebebeb" stroke-width=".8" points=".5 .5 149.5 .5 149.5 379.5 .5 379.5 .5 .5"/><polyline fill="none" stroke="#f2f2f2" stroke-width="1" points="0 0 150 0 150 380 0 380 0 0"/><text x="36.5" y="19" class="title" font-size="16" letter-spacing="4">MUTE8</text><g transform="translate(35.5 374)"><text class="brand" font-size="8pt" letter-spacing="2">BOGAUDIO</text><rect width="3" height="3" fill="#ddd" transform="translate(24 -5)"/></g><g transform="translate(8 32)"><rect width="30" height="328" fill="#fafafa" rx="5"/><g transform="translate(3 4)"><use id="INPUT1_INPUT" transform="translate(0 0)" xlink:href="#input"/><use id="INPUT2_INPUT" transform="translate(0 40)" xlink:href="#input"/><use id="INPUT3_INPUT" transform="translate(0 80)" xlink:href="#input"/><use id="INPUT4_INPUT" transform="translate(0 120)" xlink:href="#input"/><use id="INPUT5_INPUT" transform="translate(0 160)" xlink:href="#input"/><use id="INPUT6_INPUT" transform="translate(0 200)" xlink:href="#input"/><use id="INPUT7_INPUT" transform="translate(0 240)" xlink:href="#input"/><use id="INPUT8_INPUT" transform="translate(0 280)" xlink:href="#input"/></g><text font-size="8" letter-spacing="2" transform="translate(9.8 320)">IN</text></g><g transform="translate(43 32)"><rect width="30" height="328" fill="#fafafa" rx="5"/><g transform="translate(3 4)"><use id="MUTE1_INPUT" transform="translate(0 0)" xlink:href="#input"/><use id="MUTE2_INPUT" transform="translate(0 40)" xlink:href="#input"/><use id="MUTE3_INPUT" transform="translate(0 80)" xlink:href="#input"/><use id="MUTE4_INPUT" transform="translate(0 120)" xlink:href="#input"/><use id="MUTE5_INPUT" transform="translate(0 160)" xlink:href="#input"/><use id="MUTE6_INPUT" transform="translate(0 200)" xlink:href="#input"/><use id="MUTE7_INPUT" transform="translate(0 240)" xlink:href="#input"/><use id="MUTE8_INPUT" transform="translate(0 280)" xlink:href="#input"/></g><text font-size="8" letter-spacing="2" transform="translate(8 320)">CV</text></g><g><g><g transform="translate(77.5 32) translate(0 4) translate(0 2)"><use id="MUTE1_PARAM" transform="translate(0 2)" xlink:href="#button"/><use id="MUTE1_LIGHT" transform="translate(23 8.8)" xlink:href="#light"/></g><g transform="translate(77.5 32) translate(0 4) translate(0 42)"><use id="MUTE2_PARAM" transform="translate(0 2)" xlink:href="#button"/><use id="MUTE2_LIGHT" transform="translate(23 8.8)" xlink:href="#light"/></g><g transform="translate(77.5 32) translate(0 4) translate(0 82)"><use id="MUTE3_PARAM" transform="translate(0 2)" xlink:href="#button"/><use id="MUTE3_LIGHT" transform="translate(23 8.8)" xlink:href="#light"/></g><g transform="translate(77.5 32) translate(0 4) translate(0 122)"><use id="MUTE4_PARAM" transform="translate(0 2)" xlink:href="#button"/><use id="MUTE4_LIGHT" transform="translate(23 8.8)" xlink:href="#light"/></g><g transform="translate(77.5 32) translate(0 4) translate(0 162)"><use id="MUTE5_PARAM" transform="translate(0 2)" xlink:href="#button"/><use id="MUTE5_LIGHT" transform="translate(23 8.8)" xlink:href="#light"/></g><g transform="translate(77.5 32) translate(0 4) translate(0 202)"><use id="MUTE6_PARAM" transform="translate(0 2)" xlink:href="#button"/><use id="MUTE6_LIGHT" transform="translate(23 8.8)" xlink:href="#light"/></g><g transform="translate(77.5 32) translate(0 4) translate(0 242)"><use id="MUTE7_PARAM" transform="translate(0 2)" xlink:href="#button"/><use id="MUTE7_LIGHT" transform="translate(23 8.8)" xlink:href="#light"/></g><g transform="translate(77.5 32) translate(0 4) translate(0 280)"><use id="MUTE8_PARAM" transform="translate(0 2)" xlink:href="#button"/><use id="MUTE8_LIGHT" transform="translate(23 8.8)" xlink:href="#light"/></g></g><text font-size="8" letter-spacing="2" transform="translate(77.5 32) translate(1 320)">MUTE</text></g><g transform="translate(112 32)"><rect width="30" height="328" fill="#bbb" rx="5"/><g transform="translate(3 4)"><use id="OUTPUT1_OUTPUT" transform="translate(0 0)" xlink:href="#output"/><use id="OUTPUT2_OUTPUT" transform="translate(0 40)" xlink:href="#output"/><use id="OUTPUT3_OUTPUT" transform="translate(0 80)" xlink:href="#output"/><use id="OUTPUT4_OUTPUT" transform="translate(0 120)" xlink:href="#output"/><use id="OUTPUT5_OUTPUT" transform="translate(0 160)" xlink:href="#output"/><use id="OUTPUT6_OUTPUT" transform="translate(0 200)" xlink:href="#output"/><use id="OUTPUT7_OUTPUT" transform="translate(0 240)" xlink:href="#output"/><use id="OUTPUT8_OUTPUT" transform="translate(0 280)" xlink:href="#output"/></g><text font-size="8" letter-spacing="2" transform="translate(5 320)">OUT</text></g></svg>