<svg xmlns="http://www.w3.org/2000/svg" xmlns:xlink="http://www.w3.org/1999/xlink" width="45" height="380" version="1.1" viewBox="0 0 45 380"><style>text{fill:#333;font-family:&apos;Roboto&apos;,sans-serif;font-weight:700}text.title{font-family:&apos;Comfortaa&apos;,sans-serif;font-weight:400}text.brand{font-family:&apos;Audiowide&apos;,sans-serif;font-weight:700}</style><defs><symbol id="input" viewBox="0 0 24 24"><g transform="translate(12 12)"><circle cx="0" cy="0" r="5" fill="#0f0" stroke="#0f0" stroke-width="1"/><circle cx="0" cy="0" r="10.5" fill="none" stroke="#0f0" stroke-width="3"/></g></symbol><symbol id="output" viewBox="0 0 24 24"><g transform="translate(12 12)"><circle cx="0" cy="0" r="5" fill="red" stroke="red" stroke-width="1"/><circle cx="0" cy="0" r="10.5" fill="none" stroke="red" stroke-width="3"/></g></symbol></defs><rect width="100%" height="100%" fill="#ddd"/><polyline fill="none" stroke="#e4e4e4" stroke-width=".5" points="1 1 44 1 44 379 1 379 1 1"/><polyline fill="none" stroke="#ebebeb" stroke-width=".8" points=".5 .5 44.5 .5 44.5 379.5 .5 379.5 .5 .5"/><polyline fill="none" stroke="#f2f2f2" stroke-width="1" points="0 0 45 0 45 380 0 380 0 0"/><g><text class="title" font-size="7pt" letter-spacing="2.5" transform="rotate(-90) translate(-376 13)">NOISE</text><g transform="rotate(-90) translate(-376 13) translate(0 12)"><text class="brand" font-size="7pt" letter-spacing="2">BGA</text><rect width="3" height="3" fill="#ddd" transform="translate(11.5 -5)"/></g></g><g><g transform="translate(0 18) translate(7.5 0)"><rect width="34" height="209" fill="#bbb" rx="5" transform="translate(-2 0)"/><use id="BLUE_OUTPUT" transform="translate(3 6)" xlink:href="#output"/><text font-size="5pt" letter-spacing="2" transform="translate(4 39)">BLUE</text><use id="WHITE_OUTPUT" transform="translate(3 47)" xlink:href="#output"/><text font-size="5pt" letter-spacing="2" transform="translate(0.5 80)">WHITE</text><use id="PINK_OUTPUT" transform="translate(3 88)" xlink:href="#output"/><text font-size="5pt" letter-spacing="2" transform="translate(4.5 121)">PINK</text><use id="RED_OUTPUT" transform="translate(3 129)" xlink:href="#output"/><text font-size="5pt" letter-spacing="2" transform="translate(7 162)">RED</text><use id="GAUSS_OUTPUT" transform="translate(3 170)" xlink:href="#output"/><text font-size="5pt" letter-spacing="2" transform="translate(0 203)">GAUSS</text></g></g><g><text font-size="8" letter-spacing="2" transform="translate(0 250) translate(13 -4)">ABS</text><g transform="translate(0 250) translate(5.5 0)"><rect width="34" height="10" fill="#fafafa" transform="translate(0 28)"/><rect width="34" height="35" fill="#fafafa" rx="5"/><use id="ABS_INPUT" transform="translate(5 3)" xlink:href="#input"/><text font-size="5pt" letter-spacing="2" transform="translate(12.5 35)">IN</text></g><g transform="translate(0 250) translate(5.5 41)"><rect width="34" height="10" fill="#bbb" transform="translate(0 -3)"/><rect width="34" height="35" fill="#bbb" rx="5"/><use id="ABS_OUTPUT" transform="translate(5 0)" xlink:href="#output"/><text font-size="5pt" letter-spacing="2" transform="translate(8.3 32)">OUT</text></g></g></svg>