<svg xmlns="http://www.w3.org/2000/svg" xmlns:xlink="http://www.w3.org/1999/xlink" width="90" height="380" version="1.1" viewBox="0 0 90 380"><style>text{fill:#333;font-family:&apos;Roboto&apos;,sans-serif;font-weight:700}text.title{font-family:&apos;Comfortaa&apos;,sans-serif;font-weight:400}text.brand{font-family:&apos;Audiowide&apos;,sans-serif;font-weight:700}</style><defs><symbol id="knob38" viewBox="0 0 38 38"><g transform="translate(19 19)"><polyline stroke="#00f" stroke-width="1" points="-5 0 5 0"/><polyline stroke="#00f" stroke-width="1" points="0 -5 0 5"/><circle cx="0" cy="0" r="18.5" fill="none" stroke="#00f" stroke-width="1"/></g></symbol><symbol id="knobguide-threshold38" viewBox="0 0 70 70"><g transform="translate(35 35)"><text font-size="8" transform="rotate(-240) translate(25 0) rotate(240) translate(-10 2.5)">-24</text><polyline stroke="#333" stroke-width=".3" points="0 0 3 0" transform="rotate(-210) translate(21 0)"/><text font-size="8" transform="rotate(-180) translate(25 0) rotate(180) translate(-10 2.5)">-18</text><polyline stroke="#333" stroke-width=".3" points="0 0 3 0" transform="rotate(-150) translate(21 0)"/><text font-size="8" transform="rotate(-120) translate(25 0) rotate(120) translate(-10 2.5)">-12</text><polyline stroke="#333" stroke-width=".3" points="0 0 3 0" transform="rotate(-90) translate(21 0)"/><text font-size="8" transform="rotate(-60) translate(25 0) rotate(60) translate(-2.3 2.5)">-6</text><polyline stroke="#333" stroke-width=".3" points="0 0 3 0" transform="rotate(-30) translate(21 0)"/><text font-size="8" transform="rotate(0) translate(25 0) rotate(0) translate(-2.3 2.5)">0</text><polyline stroke="#333" stroke-width=".3" points="0 0 3 0" transform="rotate(30) translate(21 0)"/><text font-size="8" transform="rotate(60) translate(25 0) rotate(-60) translate(-2.3 2.5)">6</text><text font-size="8" transform="rotate(90) translate(29 0) rotate(-90) translate(-4.7 2.2)">dB</text></g></symbol><symbol id="knobguide-ratio38" viewBox="0 0 70 70"><g><text font-size="8" transform="translate(35 35) rotate(-240) translate(25 0) rotate(240) translate(-2.5 2.5)">1</text><text font-size="8" transform="translate(35 35) rotate(-193.72) translate(25 0) rotate(193.72) translate(-8 2.5)">1.1</text><text font-size="8" transform="translate(35 35) rotate(-149.70) translate(25 0) rotate(149.70) translate(-9 2.5)">1.3</text><text font-size="8" transform="translate(35 35) rotate(-108.93) translate(25 0) rotate(108.93) translate(-9 2.5)">1.6</text><text font-size="8" transform="translate(35 35) rotate(-74.52) translate(25 0) rotate(74.52) translate(-2.3 2.5)">2</text><text font-size="8" transform="translate(35 35) rotate(-47.12) translate(25 0) rotate(47.12) translate(-2.3 2.5)">2.5</text><text font-size="8" transform="translate(35 35) rotate(-6.18) translate(25 0) rotate(6.18) translate(-2.3 2.5)">4</text><text font-size="8" transform="translate(35 35) rotate(31.11) translate(25 0) rotate(-31.11) translate(-2.3 2.5)">9</text><text font-size="8" transform="translate(35 35) rotate(60) translate(25 0) rotate(-60) translate(-4 2.2)">∞</text></g></symbol><symbol id="switch" viewBox="0 0 14 24"><rect width="14" height="24" fill="#ddd" stroke="#000" stroke-width="1"/><rect width="14" height="12" fill="#000" stroke-width="0"/></symbol><symbol id="input" viewBox="0 0 24 24"><g transform="translate(12 12)"><circle cx="0" cy="0" r="5" fill="#0f0" stroke="#0f0" stroke-width="1"/><circle cx="0" cy="0" r="10.5" fill="none" stroke="#0f0" stroke-width="3"/></g></symbol><symbol id="output" viewBox="0 0 24 24"><g transform="translate(12 12)"><circle cx="0" cy="0" r="5" fill="red" stroke="red" stroke-width="1"/><circle cx="0" cy="0" r="10.5" fill="none" stroke="red" stroke-width="3"/></g></symbol></defs><rect width="100%" height="100%" fill="#ddd"/><polyline fill="none" stroke="#e4e4e4" stroke-width=".5" points="1 1 89 1 89 379 1 379 1 1"/><polyline fill="none" stroke="#ebebeb" stroke-width=".8" points=".5 .5 89.5 .5 89.5 379.5 .5 379.5 .5 .5"/><polyline fill="none" stroke="#f2f2f2" stroke-width="1" points="0 0 90 0 90 380 0 380 0 0"/><text x="38" y="17" class="title" font-size="12" letter-spacing="3">NSGT</text><g transform="translate(5.5 374)"><text class="brand" font-size="6.5pt" letter-spacing="2">BOGAUDIO</text><rect width="1.5" height="2" fill="#ddd" transform="translate(21 -4)"/></g><g transform="translate(0 40)"><text font-size="8pt" letter-spacing="2" transform="translate(8 0)">THRESHOLD</text><use id="THRESHOLD_PARAM" transform="translate(26 12)" xlink:href="#knob38"/><use transform="translate(10 -4)" xlink:href="#knobguide-threshold38"/></g><g transform="translate(0 122)"><text font-size="8pt" letter-spacing="2" transform="translate(25.5 0)">RATIO</text><use id="RATIO_PARAM" transform="translate(26 13)" xlink:href="#knob38"/><use transform="translate(10 -3)" xlink:href="#knobguide-ratio38"/></g><g transform="translate(40 198)"><text font-size="5pt" letter-spacing="2" transform="translate(-8 25.5) rotate(270)">KNEE</text><text font-size="5pt" letter-spacing="2" transform="translate(-4 -1)">SOFT</text><use id="KNEE_PARAM" transform="translate(0 2)" xlink:href="#switch"/><text font-size="5pt" letter-spacing="2" transform="translate(-5 34)">HARD</text></g><g><g transform="translate(11 240) translate(0 0)"><rect width="68" height="10" fill="#fafafa" transform="translate(0 66)"/><rect width="68" height="73" fill="#fafafa" rx="5"/><use id="LEFT_INPUT" transform="translate(5 4)" xlink:href="#input"/><text font-size="5pt" letter-spacing="2" transform="translate(15.5 36)">L</text><use id="RIGHT_INPUT" transform="translate(39 4)" xlink:href="#input"/><text font-size="5pt" letter-spacing="2" transform="translate(49 36)">R</text><use id="THRESHOLD_INPUT" transform="translate(5 40)" xlink:href="#input"/><text font-size="5pt" letter-spacing="2" transform="translate(5.5 72)">TRSH</text><use id="RATIO_INPUT" transform="translate(39 40)" xlink:href="#input"/><text font-size="5pt" letter-spacing="1" transform="translate(39.5 72)">RATIO</text></g><g transform="translate(11 240) translate(0 79)"><rect width="68" height="10" fill="#bbb" transform="translate(0 -3)"/><rect width="68" height="37" fill="#bbb" rx="5"/><use id="LEFT_OUTPUT" transform="translate(5 1)" xlink:href="#output"/><text font-size="5pt" letter-spacing="2" transform="translate(15.5 33)">L</text><use id="RIGHT_OUTPUT" transform="translate(39 1)" xlink:href="#output"/><text font-size="5pt" letter-spacing="2" transform="translate(49 33)">R</text></g></g></svg>