<svg xmlns="http://www.w3.org/2000/svg" xmlns:xlink="http://www.w3.org/1999/xlink" width="45" height="380" version="1.1" viewBox="0 0 45 380"><style>text{fill:#333;font-family:&apos;Roboto&apos;,sans-serif;font-weight:700}text.title{font-family:&apos;Comfortaa&apos;,sans-serif;font-weight:400}text.brand{font-family:&apos;Audiowide&apos;,sans-serif;font-weight:700}</style><defs><symbol id="knob" viewBox="0 0 45 45"><g transform="translate(22.5 22.5)"><polyline stroke="#00f" stroke-width="1" points="-5 0 5 0"/><polyline stroke="#00f" stroke-width="1" points="0 -5 0 5"/><circle cx="0" cy="0" r="14" fill="none" stroke="#00f" stroke-width="1"/></g></symbol><symbol id="knobguide" viewBox="0 0 45 45"><g><g transform="translate(22.5 22.5) rotate(-240) translate(17 0)"><polyline stroke="#333" stroke-width="1.5" points="0 0 4 0"/></g><g transform="translate(22.5 22.5) rotate(-225) translate(17 0)"><polyline stroke="#333" stroke-width=".3" points="0 0 3 0"/></g><g transform="translate(22.5 22.5) rotate(-210) translate(17 0)"><polyline stroke="#333" stroke-width=".3" points="0 0 3 0"/></g><g transform="translate(22.5 22.5) rotate(-195) translate(17 0)"><polyline stroke="#333" stroke-width=".3" points="0 0 3 0"/></g><g transform="translate(22.5 22.5) rotate(-180) translate(17 0)"><polyline stroke="#333" stroke-width=".3" points="0 0 3 0"/></g><g transform="translate(22.5 22.5) rotate(-165) translate(17 0)"><polyline stroke="#333" stroke-width="1.5" points="0 0 4 0"/></g><g transform="translate(22.5 22.5) rotate(-150) translate(17 0)"><polyline stroke="#333" stroke-width=".3" points="0 0 3 0"/></g><g transform="translate(22.5 22.5) rotate(-135) translate(17 0)"><polyline stroke="#333" stroke-width=".3" points="0 0 3 0"/></g><g transform="translate(22.5 22.5) rotate(-120) translate(17 0)"><polyline stroke="#333" stroke-width=".3" points="0 0 3 0"/></g><g transform="translate(22.5 22.5) rotate(-105) translate(17 0)"><polyline stroke="#333" stroke-width=".3" points="0 0 3 0"/></g><g><g><text font-size="6.5pt" transform="translate(22.5 22.5) rotate(-90) translate(17 0) translate(2.4 0) rotate(90) translate(-2.3 3.3)">0</text></g></g><g transform="translate(22.5 22.5) rotate(-75) translate(17 0)"><polyline stroke="#333" stroke-width=".3" points="0 0 3 0"/></g><g transform="translate(22.5 22.5) rotate(-60) translate(17 0)"><polyline stroke="#333" stroke-width=".3" points="0 0 3 0"/></g><g transform="translate(22.5 22.5) rotate(-45) translate(17 0)"><polyline stroke="#333" stroke-width=".3" points="0 0 3 0"/></g><g transform="translate(22.5 22.5) rotate(-30) translate(17 0)"><polyline stroke="#333" stroke-width=".3" points="0 0 3 0"/></g><g transform="translate(22.5 22.5) rotate(-15) translate(17 0)"><polyline stroke="#333" stroke-width="1.5" points="0 0 4 0"/></g><g transform="translate(22.5 22.5) rotate(0) translate(17 0)"><polyline stroke="#333" stroke-width=".3" points="0 0 3 0"/></g><g transform="translate(22.5 22.5) rotate(15) translate(17 0)"><polyline stroke="#333" stroke-width=".3" points="0 0 3 0"/></g><g transform="translate(22.5 22.5) rotate(30) translate(17 0)"><polyline stroke="#333" stroke-width=".3" points="0 0 3 0"/></g><g transform="translate(22.5 22.5) rotate(45) translate(17 0)"><polyline stroke="#333" stroke-width=".3" points="0 0 3 0"/></g><g transform="translate(22.5 22.5) rotate(60) translate(17 0)"><polyline stroke="#333" stroke-width="1.5" points="0 0 4 0"/></g><g><g><text font-size="12" transform="translate(22.5 22.5) rotate(-225) translate(22 0) translate(2.5 0) rotate(225) translate(-2 3.4)">-</text></g></g><g><g><text font-size="7pt" transform="translate(22.5 22.5) rotate(45) translate(22 0) translate(2.5 0) rotate(-45) translate(-2.9 3)">+</text></g></g></g></symbol><symbol id="knobguide-exp" viewBox="0 0 45 45"><g><g transform="translate(22.5 22.5) rotate(-240) translate(17 0)"><polyline stroke="#333" stroke-width="1.5" points="0 0 4 0"/></g><g transform="translate(22.5 22.5) rotate(-232.3) translate(17 0)"><polyline stroke="#333" stroke-width=".3" points="0 0 3 0"/></g><g transform="translate(22.5 22.5) rotate(-224.2) translate(17 0)"><polyline stroke="#333" stroke-width=".3" points="0 0 3 0"/></g><g transform="translate(22.5 22.5) rotate(-215.5) translate(17 0)"><polyline stroke="#333" stroke-width=".3" points="0 0 3 0"/></g><g transform="translate(22.5 22.5) rotate(-206.2) translate(17 0)"><polyline stroke="#333" stroke-width=".3" points="0 0 3 0"/></g><g transform="translate(22.5 22.5) rotate(-196.1) translate(17 0)"><polyline stroke="#333" stroke-width="1.5" points="0 0 4 0"/></g><g transform="translate(22.5 22.5) rotate(-184.9) translate(17 0)"><polyline stroke="#333" stroke-width=".3" points="0 0 3 0"/></g><g transform="translate(22.5 22.5) rotate(-172.2) translate(17 0)"><polyline stroke="#333" stroke-width=".3" points="0 0 3 0"/></g><g transform="translate(22.5 22.5) rotate(-157.1) translate(17 0)"><polyline stroke="#333" stroke-width=".3" points="0 0 3 0"/></g><g transform="translate(22.5 22.5) rotate(-137.4) translate(17 0)"><polyline stroke="#333" stroke-width="1.5" points="0 0 4 0"/></g><g transform="translate(22.5 22.5) rotate(-123.5) translate(17 0)"><polyline stroke="#333" stroke-width=".3" points="0 0 1 0"/></g><g><g><text font-size="6.5pt" transform="translate(22.5 22.5) rotate(-90) translate(17 0) translate(2.4 0) rotate(90) translate(-2.3 3.3)">0</text></g></g><g transform="translate(22.5 22.5) rotate(-56.5) translate(17 0)"><polyline stroke="#333" stroke-width=".3" points="0 0 1 0"/></g><g transform="translate(22.5 22.5) rotate(-42.3) translate(17 0)"><polyline stroke="#333" stroke-width="1.5" points="0 0 4 0"/></g><g transform="translate(22.5 22.5) rotate(-22.9) translate(17 0)"><polyline stroke="#333" stroke-width=".3" points="0 0 3 0"/></g><g transform="translate(22.5 22.5) rotate(-7.8) translate(17 0)"><polyline stroke="#333" stroke-width=".3" points="0 0 3 0"/></g><g transform="translate(22.5 22.5) rotate(4.8) translate(17 0)"><polyline stroke="#333" stroke-width=".3" points="0 0 3 0"/></g><g transform="translate(22.5 22.5) rotate(16.1) translate(17 0)"><polyline stroke="#333" stroke-width="1.5" points="0 0 4 0"/></g><g transform="translate(22.5 22.5) rotate(26.2) translate(17 0)"><polyline stroke="#333" stroke-width=".3" points="0 0 3 0"/></g><g transform="translate(22.5 22.5) rotate(35.5) translate(17 0)"><polyline stroke="#333" stroke-width=".3" points="0 0 3 0"/></g><g transform="translate(22.5 22.5) rotate(44.2) translate(17 0)"><polyline stroke="#333" stroke-width=".3" points="0 0 3 0"/></g><g transform="translate(22.5 22.5) rotate(52.3) translate(17 0)"><polyline stroke="#333" stroke-width=".3" points="0 0 3 0"/></g><g transform="translate(22.5 22.5) rotate(60) translate(17 0)"><polyline stroke="#333" stroke-width="1.5" points="0 0 4 0"/></g><g><g><text font-size="12" transform="translate(22.5 22.5) rotate(-225) translate(22 0) translate(2.5 0) rotate(225) translate(-2 3.4)">-</text></g></g><g><g><text font-size="7pt" transform="translate(22.5 22.5) rotate(45) translate(22 0) translate(2.5 0) rotate(-45) translate(-2.9 3)">+</text></g></g></g></symbol><symbol id="input" viewBox="0 0 24 24"><g transform="translate(12 12)"><circle cx="0" cy="0" r="5" fill="#0f0" stroke="#0f0" stroke-width="1"/><circle cx="0" cy="0" r="10.5" fill="none" stroke="#0f0" stroke-width="3"/></g></symbol><symbol id="output" viewBox="0 0 24 24"><g transform="translate(12 12)"><circle cx="0" cy="0" r="5" fill="red" stroke="red" stroke-width="1"/><circle cx="0" cy="0" r="10.5" fill="none" stroke="red" stroke-width="3"/></g></symbol></defs><rect width="100%" height="100%" fill="#ddd"/><polyline fill="none" stroke="#e4e4e4" stroke-width=".5" points="1 1 44 1 44 379 1 379 1 1"/><polyline fill="none" stroke="#ebebeb" stroke-width=".8" points=".5 .5 44.5 .5 44.5 379.5 .5 379.5 .5 .5"/><polyline fill="none" stroke="#f2f2f2" stroke-width="1" points="0 0 45 0 45 380 0 380 0 0"/><g><text class="title" font-size="7pt" letter-spacing="2.5" transform="rotate(-90) translate(-376 13)">OFFSET</text><g transform="rotate(-90) translate(-376 13) translate(0 12)"><text class="brand" font-size="7pt" letter-spacing="2">BGA</text><rect width="3" height="3" fill="#ddd" transform="translate(11.5 -5)"/></g></g><g transform="translate(0 25)"><text font-size="8" letter-spacing="2" transform="translate(3 0)">OFFSET</text><use id="OFFSET_PARAM" transform="translate(0 7)" xlink:href="#knob"/><use transform="scale(1) translate(0 7)" xlink:href="#knobguide"/><g transform="translate(5.5 53)"><rect width="34" height="39" fill="#fafafa" rx="5"/><use id="OFFSET_INPUT" transform="translate(5 3)" xlink:href="#input"/><text font-size="5pt" letter-spacing="2" transform="translate(11 35)">CV</text></g></g><g transform="translate(0 137)"><text font-size="8" letter-spacing="2" transform="translate(6 0)">SCALE</text><use id="SCALE_PARAM" transform="translate(0 7)" xlink:href="#knob"/><use transform="scale(1) translate(0 7)" xlink:href="#knobguide-exp"/><g transform="translate(5.5 53)"><rect width="34" height="38" fill="#fafafa" rx="5"/><use id="SCALE_INPUT" transform="translate(5 3)" xlink:href="#input"/><text font-size="5pt" letter-spacing="2" transform="translate(11 35)">CV</text></g></g><g><g transform="translate(0 240) translate(5.5 0)"><rect width="34" height="10" fill="#fafafa" transform="translate(0 28)"/><rect width="34" height="35" fill="#fafafa" rx="5"/><use id="IN_INPUT" transform="translate(5 3)" xlink:href="#input"/><text font-size="5pt" letter-spacing="2" transform="translate(12.5 35)">IN</text></g><g transform="translate(0 240) translate(5.5 41)"><rect width="34" height="10" fill="#bbb" transform="translate(0 -3)"/><rect width="34" height="35" fill="#bbb" rx="5"/><use id="OUT_OUTPUT" transform="translate(5 0)" xlink:href="#output"/><text font-size="5pt" letter-spacing="2" transform="translate(8.3 32)">OUT</text></g></g></svg>