<svg xmlns="http://www.w3.org/2000/svg" xmlns:xlink="http://www.w3.org/1999/xlink" width="90" height="380" version="1.1" viewBox="0 0 90 380"><style>text{fill:#333;font-family:&apos;Roboto&apos;,sans-serif;font-weight:700}text.title{font-family:&apos;Comfortaa&apos;,sans-serif;font-weight:400}text.brand{font-family:&apos;Audiowide&apos;,sans-serif;font-weight:700}</style><defs><symbol id="knob" viewBox="0 0 45 45"><g transform="translate(22.5 22.5)"><polyline stroke="#00f" stroke-width="1" points="-5 0 5 0"/><polyline stroke="#00f" stroke-width="1" points="0 -5 0 5"/><circle cx="0" cy="0" r="14" fill="none" stroke="#00f" stroke-width="1"/></g></symbol><symbol id="knobguide-select" viewBox="0 0 45 45"><g><text font-size="5pt" transform="translate(22.5 22.5) rotate(-240) translate(20 0) rotate(240) translate(-2 2)">1</text><text font-size="5pt" transform="translate(22.5 22.5) rotate(-197.1) translate(20 0) rotate(197.1) translate(-2 2)">2</text><text font-size="5pt" transform="translate(22.5 22.5) rotate(-154.3) translate(20 0) rotate(154.3) translate(-2 2)">3</text><text font-size="5pt" transform="translate(22.5 22.5) rotate(-111.4) translate(20 0) rotate(111.4) translate(-2 2)">4</text><text font-size="5pt" transform="translate(22.5 22.5) rotate(-68.6) translate(20 0) rotate(68.6) translate(-2 2)">5</text><text font-size="5pt" transform="translate(22.5 22.5) rotate(-25.7) translate(20 0) rotate(25.7) translate(-2 2)">6</text><text font-size="5pt" transform="translate(22.5 22.5) rotate(17.1) translate(20 0) rotate(-17.1) translate(-2 2)">7</text><text font-size="5pt" transform="translate(22.5 22.5) rotate(60) translate(20 0) rotate(-60) translate(-2 2)">8</text></g></symbol><symbol id="knob-smallest" viewBox="0 0 16 16"><g transform="translate(8 8)"><polyline stroke="#00f" stroke-width="1" points="-3 0 3 0"/><polyline stroke="#00f" stroke-width="1" points="0 -3 0 3"/><circle r="7.5" fill="none" stroke="#00f" stroke-width="1"/></g></symbol><symbol id="knobguide-steps" viewBox="0 0 40 40"><g><text font-size="5pt" transform="translate(20 20) rotate(-240) translate(13 0) rotate(240) translate(-2 2)">1</text><text font-size="5pt" transform="translate(20 20) rotate(-197.1) translate(13 0) rotate(197.1) translate(-2 2)">2</text><text font-size="5pt" transform="translate(20 20) rotate(-154.3) translate(13 0) rotate(154.3) translate(-2 2)">3</text><text font-size="5pt" transform="translate(20 20) rotate(-111.4) translate(13 0) rotate(111.4) translate(-2 2)">4</text><text font-size="5pt" transform="translate(20 20) rotate(-68.6) translate(13 0) rotate(68.6) translate(-2 2)">5</text><text font-size="5pt" transform="translate(20 20) rotate(-25.7) translate(13 0) rotate(25.7) translate(-2 2)">6</text><text font-size="5pt" transform="translate(20 20) rotate(17.1) translate(13 0) rotate(-17.1) translate(-2 2)">7</text><text font-size="5pt" transform="translate(20 20) rotate(60) translate(13 0) rotate(-60) translate(-2 2)">8</text></g></symbol><symbol id="switch" viewBox="0 0 14 24"><rect width="14" height="24" fill="#ddd" stroke="#000" stroke-width="1"/><rect width="14" height="12" fill="#000" stroke-width="0"/></symbol><symbol id="light-small" viewBox="0 0 6.4 6.4"><rect width="6.4" height="6.4" fill="#0f0"/></symbol><symbol id="input" viewBox="0 0 24 24"><g transform="translate(12 12)"><circle cx="0" cy="0" r="5" fill="#0f0" stroke="#0f0" stroke-width="1"/><circle cx="0" cy="0" r="10.5" fill="none" stroke="#0f0" stroke-width="3"/></g></symbol><symbol id="output" viewBox="0 0 24 24"><g transform="translate(12 12)"><circle cx="0" cy="0" r="5" fill="red" stroke="red" stroke-width="1"/><circle cx="0" cy="0" r="10.5" fill="none" stroke="red" stroke-width="3"/></g></symbol></defs><rect width="100%" height="100%" fill="#ddd"/><polyline fill="none" stroke="#e4e4e4" stroke-width=".5" points="1 1 89 1 89 379 1 379 1 1"/><polyline fill="none" stroke="#ebebeb" stroke-width=".8" points=".5 .5 89.5 .5 89.5 379.5 .5 379.5 .5 .5"/><polyline fill="none" stroke="#f2f2f2" stroke-width="1" points="0 0 90 0 90 380 0 380 0 0"/><text x="63" y="17" class="title" font-size="12" letter-spacing="3">1:8</text><g transform="translate(5.5 374)"><text class="brand" font-size="6.5pt" letter-spacing="2">BOGAUDIO</text><rect width="1.5" height="2" fill="#ddd" transform="translate(21 -4)"/></g><g transform="translate(6.5 32)"><rect width="34" height="39" fill="#fafafa" rx="5"/><rect width="34" height="10" fill="#fafafa" transform="translate(0 30)"/><use id="CLOCK_INPUT" transform="translate(5 3)" xlink:href="#input"/><text font-size="5pt" letter-spacing="1" transform="translate(4 35)">CLOCK</text></g><g transform="translate(6.5 69)"><rect width="34" height="39" fill="#fafafa" rx="5"/><use id="RESET_INPUT" transform="translate(5 3)" xlink:href="#input"/><text font-size="5pt" letter-spacing="1" transform="translate(5 35)">RESET</text></g><g transform="translate(1 121)"><text font-size="8" letter-spacing="1.5" transform="translate(7.5 0)">STEPS</text><use id="STEPS_PARAM" transform="translate(14.5 10.5)" xlink:href="#knob-smallest"/><use transform="translate(2.5 -1)" xlink:href="#knobguide-steps"/></g><g transform="translate(16.5 166)"><text font-size="5pt" letter-spacing="2" transform="translate(-1.8 -1)">FWD</text><use id="DIRECTION_PARAM" transform="translate(0 2)" xlink:href="#switch"/><text font-size="5pt" letter-spacing="2" transform="translate(-1.3 34)">REV</text></g><g transform="translate(1 220)"><text font-size="8" letter-spacing="1.5" transform="translate(4.5 0)">SELECT</text><use id="SELECT_PARAM" transform="translate(0 2)" xlink:href="#knob"/><use transform="translate(0 2)" xlink:href="#knobguide-select"/><g transform="translate(5.5 47)"><rect width="34" height="39" fill="#fafafa" rx="5"/><use id="SELECT_INPUT" transform="translate(5 3)" xlink:href="#input"/><text font-size="5pt" letter-spacing="2" transform="translate(11.5 35)">CV</text></g></g><g transform="translate(6.5 321)"><rect width="34" height="39" fill="#fafafa" rx="5"/><use id="IN_INPUT" transform="translate(5 3)" xlink:href="#input"/><text font-size="5pt" letter-spacing="2" transform="translate(12.5 35)">IN</text></g><g transform="translate(49.5 32)"><rect width="34" height="337" fill="#bbb" rx="5" transform="translate(0 -9)"/><text font-size="5pt" letter-spacing="2" transform="translate(8.5 0)">OUT</text><use id="OUT1_OUTPUT" transform="translate(5 3)" xlink:href="#output"/><text font-size="5pt" letter-spacing="2" transform="translate(11 35)">1</text><use id="OUT1_LIGHT" transform="translate(17 29.5)" xlink:href="#light-small"/><use id="OUT2_OUTPUT" transform="translate(5 44.3)" xlink:href="#output"/><text font-size="5pt" letter-spacing="2" transform="translate(11 76.3)">2</text><use id="OUT2_LIGHT" transform="translate(17 70.8)" xlink:href="#light-small"/><use id="OUT3_OUTPUT" transform="translate(5 86.6)" xlink:href="#output"/><text font-size="5pt" letter-spacing="2" transform="translate(11 118.6)">3</text><use id="OUT3_LIGHT" transform="translate(17 113.1)" xlink:href="#light-small"/><use id="OUT4_OUTPUT" transform="translate(5 126.9)" xlink:href="#output"/><text font-size="5pt" letter-spacing="2" transform="translate(11 158.9)">4</text><use id="OUT4_LIGHT" transform="translate(17 153.4)" xlink:href="#light-small"/><use id="OUT5_OUTPUT" transform="translate(5 168.1)" xlink:href="#output"/><text font-size="5pt" letter-spacing="2" transform="translate(11 200.1)">5</text><use id="OUT5_LIGHT" transform="translate(17 194.6)" xlink:href="#light-small"/><use id="OUT6_OUTPUT" transform="translate(5 209.4)" xlink:href="#output"/><text font-size="5pt" letter-spacing="2" transform="translate(11 241.4)">6</text><use id="OUT6_LIGHT" transform="translate(17 235.9)" xlink:href="#light-small"/><use id="OUT7_OUTPUT" transform="translate(5 250.7)" xlink:href="#output"/><text font-size="5pt" letter-spacing="2" transform="translate(11 282.7)">7</text><use id="OUT7_LIGHT" transform="translate(17 277.2)" xlink:href="#light-small"/><use id="OUT8_OUTPUT" transform="translate(5 292)" xlink:href="#output"/><text font-size="5pt" letter-spacing="2" transform="translate(11 324)">8</text><use id="OUT8_LIGHT" transform="translate(17 318.5)" xlink:href="#light-small"/></g></svg>