<svg xmlns="http://www.w3.org/2000/svg" xmlns:xlink="http://www.w3.org/1999/xlink" width="45" height="380" version="1.1" viewBox="0 0 45 380"><style>text{fill:#333;font-family:&apos;Roboto&apos;,sans-serif;font-weight:700}text.title{font-family:&apos;Comfortaa&apos;,sans-serif;font-weight:400}text.brand{font-family:&apos;Audiowide&apos;,sans-serif;font-weight:700}</style><defs><symbol id="knob" viewBox="0 0 45 45"><g transform="translate(22.5 22.5)"><polyline stroke="#00f" stroke-width="1" points="-5 0 5 0"/><polyline stroke="#00f" stroke-width="1" points="0 -5 0 5"/><circle cx="0" cy="0" r="12.5" fill="none" stroke="#00f" stroke-width="1"/></g></symbol><symbol id="knobguide-panner" viewBox="0 0 45 45"><g transform="translate(22.5 22.5)"><text font-size="5pt" transform="rotate(-240) translate(18 0) rotate(240) translate(-1.8 2)">L</text><polyline stroke="#333" stroke-width=".3" points="0 0 2.5 0" transform="rotate(-210) translate(15 0)"/><polyline stroke="#333" stroke-width=".3" points="0 0 2.5 0" transform="rotate(-180) translate(15 0)"/><polyline stroke="#333" stroke-width=".3" points="0 0 2.5 0" transform="rotate(-150) translate(15 0)"/><polyline stroke="#333" stroke-width=".3" points="0 0 2.5 0" transform="rotate(-120) translate(15 0)"/><polyline stroke="#333" stroke-width="1" points="0 0 3.5 0" transform="rotate(-90) translate(15 0)"/><polyline stroke="#333" stroke-width=".3" points="0 0 2.5 0" transform="rotate(-60) translate(15 0)"/><polyline stroke="#333" stroke-width=".3" points="0 0 2.5 0" transform="rotate(-30) translate(15 0)"/><polyline stroke="#333" stroke-width=".3" points="0 0 2.5 0" transform="rotate(0) translate(15 0)"/><polyline stroke="#333" stroke-width=".3" points="0 0 2.5 0" transform="rotate(30) translate(15 0)"/><text font-size="5pt" transform="rotate(60) translate(18 0) rotate(-60) translate(-2.1 2)">R</text></g></symbol><symbol id="input" viewBox="0 0 24 24"><g transform="translate(12 12)"><circle cx="0" cy="0" r="5" fill="#0f0" stroke="#0f0" stroke-width="1"/><circle cx="0" cy="0" r="10.5" fill="none" stroke="#0f0" stroke-width="3"/></g></symbol><symbol id="output" viewBox="0 0 24 24"><g transform="translate(12 12)"><circle cx="0" cy="0" r="5" fill="red" stroke="red" stroke-width="1"/><circle cx="0" cy="0" r="10.5" fill="none" stroke="red" stroke-width="3"/></g></symbol></defs><rect width="100%" height="100%" fill="#ddd"/><polyline fill="none" stroke="#e4e4e4" stroke-width=".5" points="1 1 44 1 44 379 1 379 1 1"/><polyline fill="none" stroke="#ebebeb" stroke-width=".8" points=".5 .5 44.5 .5 44.5 379.5 .5 379.5 .5 .5"/><polyline fill="none" stroke="#f2f2f2" stroke-width="1" points="0 0 45 0 45 380 0 380 0 0"/><g><text class="title" font-size="7pt" letter-spacing="2.5" transform="rotate(-90) translate(-376 13)">PAN</text><g transform="rotate(-90) translate(-376 13) translate(0 12)"><text class="brand" font-size="7pt" letter-spacing="2">BGA</text><rect width="3" height="3" fill="#ddd" transform="translate(11.5 -5)"/></g></g><g transform="translate(0 15)"><use id="PAN1_PARAM" transform="translate(0 0)" xlink:href="#knob"/><use transform="translate(0 0)" xlink:href="#knobguide-panner"/><g transform="translate(5.5 44)"><rect width="34" height="73" fill="#fafafa" rx="5"/><use id="CV1_INPUT" transform="translate(5 3)" xlink:href="#input"/><text font-size="5pt" letter-spacing="2" transform="translate(11 35)">CV</text><use id="IN1_INPUT" transform="translate(5 38)" xlink:href="#input"/><text font-size="5pt" letter-spacing="2" transform="translate(12.5 70)">IN</text></g></g><g transform="translate(0 138)"><use id="PAN2_PARAM" transform="translate(0 0)" xlink:href="#knob"/><use transform="translate(0 0)" xlink:href="#knobguide-panner"/><g transform="translate(5.5 44)"><rect width="34" height="73" fill="#fafafa" rx="5"/><use id="CV2_INPUT" transform="translate(5 3)" xlink:href="#input"/><text font-size="5pt" letter-spacing="2" transform="translate(11 35)">CV</text><use id="IN2_INPUT" transform="translate(5 38)" xlink:href="#input"/><text font-size="5pt" letter-spacing="2" transform="translate(12.5 70)">IN</text></g></g><g transform="translate(5.5 265)"><rect width="34" height="73" fill="#bbb" rx="5"/><use id="L_OUTPUT" transform="translate(5 3)" xlink:href="#output"/><text font-size="5pt" letter-spacing="2" transform="translate(15 35)">L</text><use id="R_OUTPUT" transform="translate(5 38)" xlink:href="#output"/><text font-size="5pt" letter-spacing="2" transform="translate(15 70)">R</text></g></svg>