<svg xmlns="http://www.w3.org/2000/svg" xmlns:xlink="http://www.w3.org/1999/xlink" width="225" height="380" version="1.1" viewBox="0 0 225 380"><style>text{fill:#333;font-family:&apos;Roboto&apos;,sans-serif;font-weight:700}text.title{font-family:&apos;Comfortaa&apos;,sans-serif;font-weight:400}text.brand{font-family:&apos;Audiowide&apos;,sans-serif;font-weight:700}</style><defs><symbol id="knob" viewBox="0 0 38 38"><g transform="translate(19 19)"><polyline stroke="#00f" stroke-width="1" points="-5 0 5 0"/><polyline stroke="#00f" stroke-width="1" points="0 -5 0 5"/><circle cx="0" cy="0" r="18.5" fill="none" stroke="#00f" stroke-width="1"/></g></symbol><symbol id="knob-medium" viewBox="0 0 26 26"><g transform="translate(13 13)"><polyline stroke="#00f" stroke-width="1" points="-3 0 3 0"/><polyline stroke="#00f" stroke-width="1" points="0 -3 0 3"/><circle cx="0" cy="0" r="12.5" fill="none" stroke="#00f" stroke-width="1"/></g></symbol><symbol id="knobguide-threshold" viewBox="0 0 70 70"><g transform="translate(35 35)"><text font-size="8" transform="rotate(-240) translate(25 0) rotate(240) translate(-10 2.5)">-24</text><polyline stroke="#333" stroke-width=".3" points="0 0 3 0" transform="rotate(-210) translate(21 0)"/><text font-size="8" transform="rotate(-180) translate(25 0) rotate(180) translate(-10 2.5)">-18</text><polyline stroke="#333" stroke-width=".3" points="0 0 3 0" transform="rotate(-150) translate(21 0)"/><text font-size="8" transform="rotate(-120) translate(25 0) rotate(120) translate(-10 2.5)">-12</text><polyline stroke="#333" stroke-width=".3" points="0 0 3 0" transform="rotate(-90) translate(21 0)"/><text font-size="8" transform="rotate(-60) translate(25 0) rotate(60) translate(-2.3 2.5)">-6</text><polyline stroke="#333" stroke-width=".3" points="0 0 3 0" transform="rotate(-30) translate(21 0)"/><text font-size="8" transform="rotate(0) translate(25 0) rotate(0) translate(-2.3 2.5)">0</text><polyline stroke="#333" stroke-width=".3" points="0 0 3 0" transform="rotate(30) translate(21 0)"/><text font-size="8" transform="rotate(60) translate(25 0) rotate(-60) translate(-2.3 2.5)">6</text><text font-size="8" transform="rotate(90) translate(29 0) rotate(-90) translate(-4.7 2.2)">dB</text></g></symbol><symbol id="knobguide-ratio" viewBox="0 0 70 70"><g><text font-size="8" transform="translate(35 35) rotate(-240) translate(25 0) rotate(240) translate(-2.5 2.5)">1</text><text font-size="8" transform="translate(35 35) rotate(-193.72) translate(25 0) rotate(193.72) translate(-8 2.5)">1.1</text><text font-size="8" transform="translate(35 35) rotate(-149.70) translate(25 0) rotate(149.70) translate(-9 2.5)">1.3</text><text font-size="8" transform="translate(35 35) rotate(-108.93) translate(25 0) rotate(108.93) translate(-9 2.5)">1.6</text><text font-size="8" transform="translate(35 35) rotate(-74.52) translate(25 0) rotate(74.52) translate(-2.3 2.5)">2</text><text font-size="8" transform="translate(35 35) rotate(-47.12) translate(25 0) rotate(47.12) translate(-2.3 2.5)">2.5</text><text font-size="8" transform="translate(35 35) rotate(-6.18) translate(25 0) rotate(6.18) translate(-2.3 2.5)">4</text><text font-size="8" transform="translate(35 35) rotate(31.11) translate(25 0) rotate(-31.11) translate(-2.3 2.5)">9</text><text font-size="8" transform="translate(35 35) rotate(60) translate(25 0) rotate(-60) translate(-4 2.2)">∞</text></g></symbol><symbol id="knobguide-attack" viewBox="0 0 45 45"><g transform="translate(22.5 22.5)"><text font-size="5pt" transform="rotate(-240) translate(18 0) rotate(240) translate(-1.9 2.2)">0</text><polyline stroke="#333" stroke-width=".3" points="0 0 1.5 0" transform="rotate(-172.92) translate(15 0)"/><text font-size="5pt" transform="rotate(-145.13) translate(17 0) rotate(145.13) translate(-5.7 2.2)">50</text><polyline stroke="#333" stroke-width=".3" points="0 0 2.5 0" transform="rotate(-75.68) translate(15 0)"/><text font-size="5pt" transform="rotate(-27.87) translate(17 0) rotate(27.87) translate(-2.2 2.2)">250</text><polyline stroke="#333" stroke-width=".3" points="0 0 2.5 0" transform="rotate(19.81) translate(15 0)"/><text font-size="5pt" transform="rotate(60) translate(18 0) rotate(-60) translate(-1.9 2.2)">500</text><text font-size="5pt" transform="rotate(90) translate(22 0) rotate(-90) translate(-4.4 2.2)">MS</text></g></symbol><symbol id="knobguide-release" viewBox="0 0 45 45"><g transform="translate(22.5 22.5)"><text font-size="5pt" transform="rotate(-240) translate(18 0) rotate(240) translate(-1.9 2.2)">0</text><polyline stroke="#333" stroke-width=".3" points="0 0 1.5 0" transform="rotate(-172.92) translate(15 0)"/><text font-size="5pt" transform="rotate(-145.13) translate(17 0) rotate(145.13) translate(-7.5 2.2)">0.2</text><polyline stroke="#333" stroke-width=".3" points="0 0 2.5 0" transform="rotate(-75.68) translate(15 0)"/><text font-size="5pt" transform="rotate(-27.87) translate(17 0) rotate(27.87) translate(-2.2 2.2)">1</text><polyline stroke="#333" stroke-width=".3" points="0 0 2.5 0" transform="rotate(19.81) translate(15 0)"/><text font-size="5pt" transform="rotate(60) translate(18 0) rotate(-60) translate(-1.9 2.2)">2</text><text font-size="5pt" transform="rotate(90) translate(22 0) rotate(-90) translate(-2 2.2)">S</text></g></symbol><symbol id="knobguide-outputgain" viewBox="0 0 45 45"><g transform="translate(22.5 22.5)"><text font-size="5pt" transform="rotate(-240) translate(18 0) rotate(240) translate(-1.9 2.2)">0</text><polyline stroke="#333" stroke-width=".3" points="0 0 1.5 0" transform="rotate(-202.5) translate(15 0)"/><text font-size="5pt" transform="rotate(-165) translate(17 0) rotate(165) translate(-2 2.2)">6</text><polyline stroke="#333" stroke-width=".3" points="0 0 2.5 0" transform="rotate(-127.5) translate(15 0)"/><text font-size="5pt" transform="rotate(-90) translate(17 0) rotate(90) translate(-4 2)">12</text><polyline stroke="#333" stroke-width=".3" points="0 0 2.5 0" transform="rotate(-52.5) translate(15 0)"/><text font-size="5pt" transform="rotate(-15) translate(17 0) rotate(15) translate(-3.5 2.2)">18</text><polyline stroke="#333" stroke-width=".3" points="0 0 2.5 0" transform="rotate(22.5) translate(15 0)"/><text font-size="5pt" transform="rotate(60) translate(18 0) rotate(-60) translate(-1.9 2.2)">24</text><text font-size="5pt" transform="rotate(90) translate(22 0) rotate(-90) translate(-4 2.2)">dB</text></g></symbol><symbol id="knobguide-inputgain" viewBox="0 0 45 45"><g transform="translate(22.5 22.5)"><text font-size="5pt" transform="rotate(-240) translate(18 0) rotate(240) translate(-8 2.2)">-12</text><polyline stroke="#333" stroke-width=".3" points="0 0 1.5 0" transform="rotate(-202.5) translate(15 0)"/><text font-size="5pt" transform="rotate(-165) translate(17 0) rotate(165) translate(-4.5 2.2)">-6</text><polyline stroke="#333" stroke-width=".3" points="0 0 2.5 0" transform="rotate(-127.5) translate(15 0)"/><text font-size="5pt" transform="rotate(-90) translate(17 0) rotate(90) translate(-1.9 2)">0</text><polyline stroke="#333" stroke-width=".3" points="0 0 2.5 0" transform="rotate(-52.5) translate(15 0)"/><text font-size="5pt" transform="rotate(-15) translate(17 0) rotate(15) translate(-2 2.2)">6</text><polyline stroke="#333" stroke-width=".3" points="0 0 2.5 0" transform="rotate(22.5) translate(15 0)"/><text font-size="5pt" transform="rotate(60) translate(18 0) rotate(-60) translate(-1.9 2.2)">12</text><text font-size="5pt" transform="rotate(90) translate(22 0) rotate(-90) translate(-4 2.2)">dB</text></g></symbol><symbol id="knobguide-detectormix" viewBox="0 0 45 45"><g transform="translate(22.5 22.5)"><text font-size="5pt" transform="rotate(-240) translate(18 0) rotate(240) translate(-4.2 2.2)">IN</text><polyline stroke="#333" stroke-width=".3" points="0 0 2.5 0" transform="rotate(-210) translate(15 0)"/><polyline stroke="#333" stroke-width=".3" points="0 0 2.5 0" transform="rotate(-180) translate(15 0)"/><polyline stroke="#333" stroke-width=".3" points="0 0 2.5 0" transform="rotate(-150) translate(15 0)"/><polyline stroke="#333" stroke-width=".3" points="0 0 2.5 0" transform="rotate(-120) translate(15 0)"/><polyline stroke="#333" stroke-width="1" points="0 0 3.5 0" transform="rotate(-90) translate(15 0)"/><polyline stroke="#333" stroke-width=".3" points="0 0 2.5 0" transform="rotate(-60) translate(15 0)"/><polyline stroke="#333" stroke-width=".3" points="0 0 2.5 0" transform="rotate(-30) translate(15 0)"/><polyline stroke="#333" stroke-width=".3" points="0 0 2.5 0" transform="rotate(0) translate(15 0)"/><polyline stroke="#333" stroke-width=".3" points="0 0 2.5 0" transform="rotate(30) translate(15 0)"/><text font-size="5pt" transform="rotate(60) translate(18 0) rotate(-60) translate(-2.1 2.5)">SD</text></g></symbol><symbol id="knobguide-attenuverter" viewBox="0 0 45 45"><g><g><text font-size="12" transform="translate(22.5 22.5) rotate(-240) translate(15 0) translate(3 0) rotate(240) translate(-2.2 3.6)">-</text></g><g transform="translate(22.5 22.5) rotate(-210) translate(15 0)"><polyline stroke="#333" stroke-width=".3" points="0 0 2.5 0"/></g><g transform="translate(22.5 22.5) rotate(-180) translate(15 0)"><polyline stroke="#333" stroke-width=".3" points="0 0 2.5 0"/></g><g transform="translate(22.5 22.5) rotate(-150) translate(15 0)"><polyline stroke="#333" stroke-width=".3" points="0 0 2.5 0"/></g><g transform="translate(22.5 22.5) rotate(-120) translate(15 0)"><polyline stroke="#333" stroke-width=".3" points="0 0 2.5 0"/></g><g><text font-size="5pt" transform="translate(22.5 22.5) rotate(-90) translate(15 0) translate(2 0) rotate(90) translate(-2 2)">0</text></g><g transform="translate(22.5 22.5) rotate(-60) translate(15 0)"><polyline stroke="#333" stroke-width=".3" points="0 0 2.5 0"/></g><g transform="translate(22.5 22.5) rotate(-30) translate(15 0)"><polyline stroke="#333" stroke-width=".3" points="0 0 2.5 0"/></g><g transform="translate(22.5 22.5) rotate(0) translate(15 0)"><polyline stroke="#333" stroke-width=".3" points="0 0 2.5 0"/></g><g transform="translate(22.5 22.5) rotate(30) translate(15 0)"><polyline stroke="#333" stroke-width=".3" points="0 0 2.5 0"/></g><g><text font-size="5pt" transform="translate(22.5 22.5) rotate(60) translate(15 0) translate(3 0) rotate(-60) translate(-2 2)">+</text></g></g></symbol><symbol id="compression" viewBox="0 0 11 75"><rect width="5" height="13" x="0" y="1" fill="#aaa" rx="0" transform="translate(3 0)"/><rect width="5" height="13" x="0" y="1" fill="#aaa" rx="0" transform="translate(3 15)"/><rect width="5" height="13" x="0" y="1" fill="#aaa" rx="0" transform="translate(3 30)"/><rect width="5" height="13" x="0" y="1" fill="#aaa" rx="0" transform="translate(3 45)"/><rect width="5" height="13" x="0" y="1" fill="#aaa" rx="0" transform="translate(3 60)"/></symbol><symbol id="guide-compression" viewBox="0 0 20 95"><g><g transform="translate(0 10) translate(0 0)"><polyline fill="none" stroke="#333" points="0 0 3 0" transform="translate(11 0)"/><text font-size="8" transform="translate(7 0) rotate(-90) translate(-5.5 2.2)">30+</text></g><g transform="translate(0 10) translate(0 15)"><polyline fill="none" stroke="#333" points="0 0 3 0" transform="translate(11 0)"/><text font-size="8" transform="translate(7 0) rotate(-90) translate(-4 2.2)">24</text></g><g transform="translate(0 10) translate(0 30)"><polyline fill="none" stroke="#333" points="0 0 3 0" transform="translate(11 0)"/><text font-size="8" transform="translate(7 0) rotate(-90) translate(-4.5 2.2)">18</text></g><g transform="translate(0 10) translate(0 45)"><polyline fill="none" stroke="#333" points="0 0 3 0" transform="translate(11 0)"/><text font-size="8" transform="translate(7 0) rotate(-90) translate(-4.5 2.2)">12</text></g><g transform="translate(0 10) translate(0 60)"><polyline fill="none" stroke="#333" points="0 0 3 0" transform="translate(11 0)"/><text font-size="8" transform="translate(7 0) rotate(-90) translate(-2.5 2.2)">6</text></g><g transform="translate(0 10) translate(0 75)"><polyline fill="none" stroke="#333" points="0 0 3 0" transform="translate(11 0)"/><text font-size="8" transform="translate(7 0) rotate(-90) translate(-2.5 2.2)">0</text></g></g></symbol><symbol id="switch" viewBox="0 0 14 24"><rect width="14" height="24" fill="#ddd" stroke="#000" stroke-width="1"/><rect width="14" height="12" fill="#000" stroke-width="0"/></symbol><symbol id="input" viewBox="0 0 24 24"><g transform="translate(12 12)"><circle cx="0" cy="0" r="5" fill="#0f0" stroke="#0f0" stroke-width="1"/><circle cx="0" cy="0" r="10.5" fill="none" stroke="#0f0" stroke-width="3"/></g></symbol><symbol id="output" viewBox="0 0 24 24"><g transform="translate(12 12)"><circle cx="0" cy="0" r="5" fill="red" stroke="red" stroke-width="1"/><circle cx="0" cy="0" r="10.5" fill="none" stroke="red" stroke-width="3"/></g></symbol></defs><rect width="100%" height="100%" fill="#ddd"/><polyline fill="none" stroke="#e4e4e4" stroke-width=".5" points="1 1 224 1 224 379 1 379 1 1"/><polyline fill="none" stroke="#ebebeb" stroke-width=".8" points=".5 .5 224.5 .5 224.5 379.5 .5 379.5 .5 .5"/><polyline fill="none" stroke="#f2f2f2" stroke-width="1" points="0 0 225 0 225 380 0 380 0 0"/><text x="61" y="19" class="title" font-size="16" letter-spacing="4">PRESSOR</text><g transform="translate(72.5 374)"><text class="brand" font-size="8pt" letter-spacing="2">BOGAUDIO</text><rect width="3" height="3" fill="#ddd" transform="translate(24 -5)"/></g><g transform="translate(13 53)"><text font-size="8pt" letter-spacing="1.5" transform="translate(4 56.5) rotate(270)">THRESHOLD</text><use id="THRESHOLD_PARAM" transform="translate(23 0)" xlink:href="#knob"/><use transform="translate(7 -16)" xlink:href="#knobguide-threshold"/></g><g transform="translate(102 53)"><text font-size="8pt" letter-spacing="2" transform="translate(4 38.5) rotate(270)">RATIO</text><use id="RATIO_PARAM" transform="translate(23 0)" xlink:href="#knob"/><use transform="translate(7 -16)" xlink:href="#knobguide-ratio"/></g><g transform="translate(207 35)"><text font-size="8" letter-spacing="2" transform="translate(-15 75) rotate(270)">COMPRESSION</text><use id="COMPRESSION_WIDGET" transform="translate(0 -1)" xlink:href="#compression"/><use transform="translate(-13 -11)" xlink:href="#guide-compression"/></g><g transform="translate(10 141)"><g transform="translate(13 0)"><text font-size="8pt" letter-spacing="2" transform="translate(6 38.5) rotate(270)">ATTACK</text><use id="ATTACK_PARAM" transform="translate(19 0)" xlink:href="#knob-medium"/></g><use transform="translate(21.5 -9.5)" xlink:href="#knobguide-attack"/><g transform="translate(102 0)"><text font-size="8pt" letter-spacing="2" transform="translate(6 42) rotate(270)">RELEASE</text><use id="RELEASE_PARAM" transform="translate(19 0)" xlink:href="#knob-medium"/></g><use transform="translate(111.5 -9.5)" xlink:href="#knobguide-release"/></g><g transform="translate(10 213)"><g transform="translate(-1 0)"><text font-size="8pt" letter-spacing="2" transform="translate(8 38.5) rotate(270)">IN GAIN</text><use id="INPUT_GAIN_PARAM" transform="translate(19 0)" xlink:href="#knob-medium"/></g><use transform="translate(8.5 -9.5)" xlink:href="#knobguide-inputgain"/><g transform="translate(60 0)"><text font-size="8pt" letter-spacing="2" transform="translate(8 44.5) rotate(270)">OUT GAIN</text><use id="OUTPUT_GAIN_PARAM" transform="translate(19 0)" xlink:href="#knob-medium"/></g><use transform="translate(69.5 -9.5)" xlink:href="#knobguide-outputgain"/><g transform="translate(121 0)"><text font-size="8pt" letter-spacing="2" transform="translate(8 38) rotate(270)">IN/SIDE</text><use id="DETECTOR_MIX_PARAM" transform="translate(19 0)" xlink:href="#knob-medium"/></g><use transform="translate(130.5 -9.5)" xlink:href="#knobguide-detectormix"/></g><g><g transform="translate(199 128) translate(0 0)"><text font-size="5pt" letter-spacing="1.5" transform="translate(-8 25.5) rotate(270)">MODE</text><text font-size="5pt" letter-spacing="2" transform="translate(-5 -1)">COMP</text><use id="MODE_PARAM" transform="translate(0 2)" xlink:href="#switch"/><text font-size="5pt" letter-spacing="2" transform="translate(-4 34)">GATE</text></g><g transform="translate(199 128) translate(0 49)"><text font-size="5pt" letter-spacing="1.5" transform="translate(-8 30) rotate(270)">DETECT</text><text font-size="5pt" letter-spacing="2" transform="translate(-2 -1)">RMS</text><use id="DECTECTOR_MODE_PARAM" transform="translate(0 2)" xlink:href="#switch"/><text font-size="5pt" letter-spacing="2" transform="translate(-4 34)">PEAK</text></g><g transform="translate(199 128) translate(0 98)"><text font-size="5pt" letter-spacing="2" transform="translate(-8 25.5) rotate(270)">KNEE</text><text font-size="5pt" letter-spacing="2" transform="translate(-4 -1)">SOFT</text><use id="KNEE_PARAM" transform="translate(0 2)" xlink:href="#switch"/><text font-size="5pt" letter-spacing="2" transform="translate(-5 34)">HARD</text></g></g><g transform="translate(0 269)"><rect width="205" height="91" fill="#bbb" rx="5" transform="translate(10 0)"/><rect width="137" height="91" fill="#fafafa" rx="5" transform="translate(10 0)"/><rect width="171" height="47" fill="#fafafa" rx="5" transform="translate(10 44)"/><rect width="10" height="10" fill="#fafafa" transform="translate(137 0)"/><rect width="10" height="10" fill="#fafafa" transform="translate(171 81)"/><g><g transform="translate(10 0) translate(3 0)"><use id="LEFT_INPUT" transform="translate(3 5)" xlink:href="#input"/><text font-size="8" letter-spacing="2" transform="translate(13 40)">L</text></g><g transform="translate(10 0) translate(37 0)"><use id="SIDECHAIN_INPUT" transform="translate(3 5)" xlink:href="#input"/><text font-size="8" letter-spacing="2" transform="translate(3 40)">SIDE</text></g><g transform="translate(10 0) translate(71 0)"><use id="THRESHOLD_INPUT" transform="translate(3 5)" xlink:href="#input"/><text font-size="8" letter-spacing="2" transform="translate(1.5 40)">TRSH</text></g><g transform="translate(10 0) translate(105 0)"><use id="RATIO_INPUT" transform="translate(3 5)" xlink:href="#input"/><text font-size="8" letter-spacing="1" transform="translate(1.5 40)">RATIO</text></g><g transform="translate(10 0) translate(139 0)"><use id="ENVELOPE_OUTPUT" transform="translate(3 5)" xlink:href="#output"/><text font-size="8" letter-spacing="2" transform="translate(5.5 40)">ENV</text></g><g transform="translate(10 0) translate(173 0)"><use id="LEFT_OUTPUT" transform="translate(3 5)" xlink:href="#output"/><text font-size="8" letter-spacing="2" transform="translate(13 40)">L</text></g></g><g><g transform="translate(10 44) translate(3 0)"><use id="RIGHT_INPUT" transform="translate(3 5)" xlink:href="#input"/><text font-size="8" letter-spacing="2" transform="translate(13 40)">R</text></g><g transform="translate(10 44) translate(37 0)"><use id="ATTACK_INPUT" transform="translate(3 5)" xlink:href="#input"/><text font-size="8" letter-spacing="2" transform="translate(5.5 40)">ATT</text></g><g transform="translate(10 44) translate(71 0)"><use id="RELEASE_INPUT" transform="translate(3 5)" xlink:href="#input"/><text font-size="8" letter-spacing="2" transform="translate(5.4 40)">REL</text></g><g transform="translate(10 44) translate(105 0)"><use id="INPUT_GAIN_INPUT" transform="translate(3 5)" xlink:href="#input"/><text font-size="8" letter-spacing="1" transform="translate(5.3 40)">IGN</text></g><g transform="translate(10 44) translate(139 0)"><use id="OUTPUT_GAIN_INPUT" transform="translate(3 5)" xlink:href="#input"/><text font-size="8" letter-spacing="1" transform="translate(5.3 40)">OGN</text></g><g transform="translate(10 44) translate(173 0)"><use id="RIGHT_OUTPUT" transform="translate(3 5)" xlink:href="#output"/><text font-size="8" letter-spacing="2" transform="translate(12 40)">R</text></g></g></g></svg>