<svg xmlns="http://www.w3.org/2000/svg" xmlns:xlink="http://www.w3.org/1999/xlink" width="45" height="380" version="1.1" viewBox="0 0 45 380"><style>text{fill:#333;font-family:&apos;Roboto&apos;,sans-serif;font-weight:700}text.title{font-family:&apos;Comfortaa&apos;,sans-serif;font-weight:400}text.brand{font-family:&apos;Audiowide&apos;,sans-serif;font-weight:700}</style><defs><symbol id="display" viewBox="0 0 45 34"><rect width="38" height="48" fill="#222" transform="translate(3.5 0)"/></symbol><symbol id="knob" viewBox="0 0 45 45"><g transform="translate(22.5 22.5)"><polyline stroke="#00f" stroke-width="1" points="-5 0 5 0"/><polyline stroke="#00f" stroke-width="1" points="0 -5 0 5"/><circle r="12.5" fill="none" stroke="#00f" stroke-width="1"/></g></symbol><symbol id="knobguide-pitch" viewBox="0 0 45 45"><g><g><text font-size="5pt" transform="translate(22.5 22.5) rotate(-240) translate(15 0) translate(2 0) rotate(240) translate(-2.2 2.2)">C</text></g><g transform="translate(22.5 22.5) rotate(-212.73) translate(15 0)"><polyline stroke="#333" stroke-width=".3" points="0 0 2.5 0"/></g><g><text font-size="5pt" transform="translate(22.5 22.5) rotate(-185.45) translate(15 0) translate(2 0) rotate(185.45) translate(-2.2 2.2)">D</text></g><g transform="translate(22.5 22.5) rotate(-158.18) translate(15 0)"><polyline stroke="#333" stroke-width=".3" points="0 0 2.5 0"/></g><g><text font-size="5pt" transform="translate(22.5 22.5) rotate(-130.91) translate(15 0) translate(2 0) rotate(130.91) translate(-2.2 2.2)">E</text></g><g><text font-size="5pt" transform="translate(22.5 22.5) rotate(-103.64) translate(15 0) translate(2 0) rotate(103.64) translate(-2.2 2.2)">F</text></g><g transform="translate(22.5 22.5) rotate(-76.36) translate(15 0)"><polyline stroke="#333" stroke-width=".3" points="0 0 2.5 0"/></g><g><text font-size="5pt" transform="translate(22.5 22.5) rotate(-49.09) translate(15 0) translate(2 0) rotate(49.09) translate(-2.2 2.2)">G</text></g><g transform="translate(22.5 22.5) rotate(-21.82) translate(15 0)"><polyline stroke="#333" stroke-width=".3" points="0 0 2.5 0"/></g><g><text font-size="5pt" transform="translate(22.5 22.5) rotate(5.45) translate(15 0) translate(2 0) rotate(-5.45) translate(-2.2 2.2)">A</text></g><g transform="translate(22.5 22.5) rotate(32.73) translate(15 0)"><polyline stroke="#333" stroke-width=".3" points="0 0 2.5 0"/></g><g><text font-size="5pt" transform="translate(22.5 22.5) rotate(60) translate(15 0) translate(2 0) rotate(-60) translate(-2.2 2.2)">B</text></g></g></symbol><symbol id="knobguide-octave" viewBox="0 0 45 45"><g><g><text font-size="5pt" transform="translate(22.5 22.5) rotate(-240) translate(15 0) translate(2 0) rotate(240) translate(-2.2 2.2)">1</text></g><g><text font-size="5pt" transform="translate(22.5 22.5) rotate(-197.14) translate(15 0) translate(2 0) rotate(197.14) translate(-2.2 2.2)">2</text></g><g><text font-size="5pt" transform="translate(22.5 22.5) rotate(-154.29) translate(15 0) translate(2 0) rotate(154.29) translate(-2.2 2.2)">3</text></g><g><text font-size="5pt" transform="translate(22.5 22.5) rotate(-111.43) translate(15 0) translate(2 0) rotate(111.43) translate(-2.2 2.2)">4</text></g><g><text font-size="5pt" transform="translate(22.5 22.5) rotate(-68.57) translate(15 0) translate(2 0) rotate(68.57) translate(-2.2 2.2)">5</text></g><g><text font-size="5pt" transform="translate(22.5 22.5) rotate(-25.71) translate(15 0) translate(2 0) rotate(25.71) translate(-2.2 2.2)">6</text></g><g><text font-size="5pt" transform="translate(22.5 22.5) rotate(17.14) translate(15 0) translate(2 0) rotate(-17.14) translate(-2.2 2.2)">7</text></g><g><text font-size="5pt" transform="translate(22.5 22.5) rotate(60) translate(15 0) translate(2 0) rotate(-60) translate(-2.2 2.2)">8</text></g></g></symbol><symbol id="knobguide-fine" viewBox="0 0 45 45"><g><g><text font-size="5pt" transform="translate(22.5 22.5) rotate(-240) translate(15 0) translate(2.5 0) rotate(240) translate(-1.5 2.2)">-</text></g><g><text font-size="5pt" transform="translate(22.5 22.5) rotate(-90) translate(15 0) translate(2 0) rotate(90) translate(-1.9 2.2)">0</text></g><g><text font-size="5pt" transform="translate(22.5 22.5) rotate(60) translate(15 0) translate(2.5 0) rotate(-60) translate(-1.9 2.2)">+</text></g><path fill="none" stroke="#333" stroke-linecap="round" stroke-width=".5" d="M 0 -17.5 A 17.5 17.5 0 0 1 17.5 0" transform="translate(22.5 22.5) rotate(20)"/><path fill="none" stroke="#333" stroke-linecap="round" stroke-width=".5" d="M 0 -17.5 A 17.5 17.5 0 0 1 17.5 0" transform="translate(22.5 22.5) rotate(43)"/><path fill="none" stroke="#333" stroke-linecap="round" stroke-width=".5" d="M 0 -17.5 A 17.5 17.5 0 0 0 -17.5 0" transform="translate(22.5 22.5) rotate(-20)"/><path fill="none" stroke="#333" stroke-linecap="round" stroke-width=".5" d="M 0 -17.5 A 17.5 17.5 0 0 0 -17.5 0" transform="translate(22.5 22.5) rotate(-43)"/></g></symbol><symbol id="output" viewBox="0 0 24 24"><g transform="translate(12 12)"><circle cx="0" cy="0" r="5" fill="red" stroke="red" stroke-width="1"/><circle cx="0" cy="0" r="10.5" fill="none" stroke="red" stroke-width="3"/></g></symbol></defs><rect width="100%" height="100%" fill="#ddd"/><polyline fill="none" stroke="#e4e4e4" stroke-width=".5" points="1 1 44 1 44 379 1 379 1 1"/><polyline fill="none" stroke="#ebebeb" stroke-width=".8" points=".5 .5 44.5 .5 44.5 379.5 .5 379.5 .5 .5"/><polyline fill="none" stroke="#f2f2f2" stroke-width="1" points="0 0 45 0 45 380 0 380 0 0"/><g><text class="title" font-size="7pt" letter-spacing="2.5" transform="rotate(-90) translate(-376 13)">REFTONE</text><g transform="rotate(-90) translate(-376 13) translate(0 12)"><text class="brand" font-size="7pt" letter-spacing="2">BGA</text><rect width="3" height="3" fill="#ddd" transform="translate(11.5 -5)"/></g></g><g transform="translate(0 18)"><use id="DISPLAY_WIDGET" xlink:href="#display"/><g><g transform="translate(0 62) translate(0 0)"><text font-size="8" letter-spacing="2" transform="translate(7 0)">PITCH</text><use id="PITCH_PARAM" transform="translate(0 0)" xlink:href="#knob"/></g><g transform="translate(0 62) translate(0 54)"><text font-size="8" letter-spacing="2" transform="translate(2.5 0)">OCTAVE</text><use id="OCTAVE_PARAM" transform="translate(0 0)" xlink:href="#knob"/></g><g transform="translate(0 62) translate(0 108)"><text font-size="8" letter-spacing="2" transform="translate(11 0)">FINE</text><use id="FINE_PARAM" transform="translate(0 0)" xlink:href="#knob"/></g></g></g><use transform="translate(0 80)" xlink:href="#knobguide-pitch"/><use transform="translate(0 134)" xlink:href="#knobguide-octave"/><use transform="translate(0 188)" xlink:href="#knobguide-fine"/><g><g transform="translate(0 235) translate(0 0)"><rect width="34" height="75" fill="#bbb" rx="5" transform="translate(5.5 0)"/><g transform="translate(5.5 1)"><use id="CV_OUTPUT" transform="translate(5 3)" xlink:href="#output"/><text font-size="5pt" letter-spacing="2" transform="translate(3 35)">V/OCT</text></g><g transform="translate(5.5 39)"><use id="OUT_OUTPUT" transform="translate(5 0)" xlink:href="#output"/><text font-size="5pt" letter-spacing="2" transform="translate(6.5 32)">SINE</text></g></g></g></svg>