<svg xmlns="http://www.w3.org/2000/svg" xmlns:xlink="http://www.w3.org/1999/xlink" width="225" height="380" version="1.1" viewBox="0 0 225 380"><style>text{fill:#333;font-family:&apos;Roboto&apos;,sans-serif;font-weight:700}text.title{font-family:&apos;Comfortaa&apos;,sans-serif;font-weight:400}text.brand{font-family:&apos;Audiowide&apos;,sans-serif;font-weight:700}</style><defs><symbol id="knob" viewBox="0 0 100 100"><g transform="translate(50.5 50.5)"><polyline stroke="#00f" stroke-width="1" points="-20 0 20 0"/><polyline stroke="#00f" stroke-width="1" points="0 -20 0 20"/><circle cx="0" cy="0" r="49.8" fill="none" stroke="#00f" stroke-width="1"/></g></symbol><symbol id="knobguide" viewBox="0 0 100 100"><g><g><g><text font-size="7pt" transform="translate(50.5 50.5) rotate(-240) translate(30 0) translate(2 0) rotate(240) translate(-2.8 3.3)">0</text></g></g><g transform="translate(50.5 50.5) rotate(-210) translate(30 0)"><polyline stroke="#333" stroke-width=".5" points="0 0 4 0"/></g><g transform="translate(50.5 50.5) rotate(-180) translate(30 0)"><polyline stroke="#333" stroke-width=".5" points="0 0 4 0"/></g><g transform="translate(50.5 50.5) rotate(-150) translate(30 0)"><polyline stroke="#333" stroke-width=".5" points="0 0 5 0"/></g><g transform="translate(50.5 50.5) rotate(-120) translate(30 0)"><polyline stroke="#333" stroke-width=".5" points="0 0 4 0"/></g><g transform="translate(50.5 50.5) rotate(-90) translate(30 0)"><polyline stroke="#333" stroke-width=".5" points="0 0 4 0"/></g><g transform="translate(50.5 50.5) rotate(-60) translate(30 0)"><polyline stroke="#333" stroke-width=".5" points="0 0 4 0"/></g><g transform="translate(50.5 50.5) rotate(-30) translate(30 0)"><polyline stroke="#333" stroke-width=".5" points="0 0 4 0"/></g><g transform="translate(50.5 50.5) rotate(0) translate(30 0)"><polyline stroke="#333" stroke-width=".5" points="0 0 4 0"/></g><g transform="translate(50.5 50.5) rotate(30) translate(30 0)"><polyline stroke="#333" stroke-width=".5" points="0 0 4 0"/></g><g><g><text font-size="7pt" transform="translate(50.5 50.5) rotate(60) translate(30 0) translate(2 0) rotate(-60) translate(-5.3 3.3)">10</text></g></g></g></symbol><symbol id="knobguide-exp" viewBox="0 0 100 100"><g><g><g><text font-size="7pt" transform="translate(50.5 50.5) rotate(-240) translate(30 0) translate(2 0) rotate(240) translate(-2.8 3.3)">0</text></g></g><g transform="translate(50.5 50.5) rotate(-172.92) translate(30 0)"><polyline stroke="#333" stroke-width=".5" points="0 0 2.5 0"/></g><g><g><text font-size="7pt" transform="translate(50.5 50.5) rotate(-145.13) translate(30 0) translate(2 0) rotate(145.13) translate(-2.8 3.3)">1</text></g></g><g><g><text font-size="7pt" transform="translate(50.5 50.5) rotate(-105.84) translate(30 0) translate(2 0) rotate(105.84) translate(-2.8 3.3)">2</text></g></g><g transform="translate(50.5 50.5) rotate(-75.68) translate(30 0)"><polyline stroke="#333" stroke-width=".5" points="0 0 4 0"/></g><g transform="translate(50.5 50.5) rotate(-50.26) translate(30 0)"><polyline stroke="#333" stroke-width=".5" points="0 0 4 0"/></g><g><g><text font-size="7pt" transform="translate(50.5 50.5) rotate(-27.87) translate(30 0) translate(2 0) rotate(27.87) translate(-2.8 3.3)">5</text></g></g><g transform="translate(50.5 50.5) rotate(-7.62) translate(30 0)"><polyline stroke="#333" stroke-width=".5" points="0 0 4 0"/></g><g transform="translate(50.5 50.5) rotate(11) translate(30 0)"><polyline stroke="#333" stroke-width=".5" points="0 0 4 0"/></g><g transform="translate(50.5 50.5) rotate(28.33) translate(30 0)"><polyline stroke="#333" stroke-width=".5" points="0 0 4 0"/></g><g transform="translate(50.5 50.5) rotate(44.6) translate(30 0)"><polyline stroke="#333" stroke-width=".5" points="0 0 4 0"/></g><g><g><text font-size="7pt" transform="translate(50.5 50.5) rotate(60) translate(30 0) translate(2 0) rotate(-60) translate(-5.3 3.3)">10</text></g></g></g></symbol><symbol id="button" viewBox="0 0 100 100"><g transform="translate(50.5 50.5)"><circle cx="0" cy="0" r="49.8" fill="red" stroke="#00f" stroke-width="1"/></g></symbol><symbol id="switch" viewBox="0 0 14 24"><rect width="14" height="24" fill="#ddd" stroke="#000" stroke-width="1"/><rect width="14" height="12" fill="#000" stroke-width="0"/></symbol><symbol id="input" viewBox="0 0 24 24"><g transform="translate(12 12)"><circle cx="0" cy="0" r="5" fill="#0f0" stroke="#0f0" stroke-width="1"/><circle cx="0" cy="0" r="10.5" fill="none" stroke="#0f0" stroke-width="3"/></g></symbol><symbol id="output" viewBox="0 0 24 24"><g transform="translate(12 12)"><circle cx="0" cy="0" r="5" fill="red" stroke="red" stroke-width="1"/><circle cx="0" cy="0" r="10.5" fill="none" stroke="red" stroke-width="3"/></g></symbol><symbol id="light" viewBox="0 0 1.1 1.1"><rect width="3.2" height="3.2" fill="#0f0"/></symbol></defs><rect width="100%" height="100%" fill="#ddd"/><polyline fill="none" stroke="#e4e4e4" stroke-width=".5" points="1 1 224 1 224 379 1 379 1 1"/><polyline fill="none" stroke="#ebebeb" stroke-width=".8" points=".5 .5 224.5 .5 224.5 379.5 .5 379.5 .5 .5"/><polyline fill="none" stroke="#f2f2f2" stroke-width="1" points="0 0 225 0 225 380 0 380 0 0"/><text x="62.5" y="19" class="title" font-size="16" letter-spacing="4">SHAPER+</text><g transform="translate(72.5 374)"><text class="brand" font-size="8pt" letter-spacing="2">BOGAUDIO</text><rect width="3" height="3" fill="#ddd" transform="translate(24 -5)"/></g><g transform="translate(149 26)"><rect width="30" height="322" fill="#fafafa" rx="5"/><text font-size="8" letter-spacing="2" transform="translate(8 10)">CV</text></g><g transform="translate(186 26)"><rect width="30" height="211" fill="#bbb" rx="5"/><text font-size="8" letter-spacing="2" transform="translate(2 10)">GATE</text></g><g><g transform="translate(9 33) translate(0 0)"><g transform="translate(0 0)"><text font-size="8pt" letter-spacing="2" transform="translate(8 43.5) rotate(270)">ATTACK</text><use id="ATTACK_PARAM" transform="translate(20 0) scale(0.38)" xlink:href="#knob"/><use id="ATTACK_LIGHT" transform="translate(3 47)" xlink:href="#light"/></g><g transform="translate(74 4)"><rect width="58" height="40" fill="#fafafa" rx="5"/><use id="TRIGGER_PARAM" transform="translate(6 6) scale(0.18)" xlink:href="#button"/><use id="TRIGGER_INPUT" transform="translate(31 3)" xlink:href="#input"/><text font-size="8" letter-spacing="2" transform="translate(6 36)">TRIGGER</text></g><use id="ATTACK_INPUT" transform="translate(143 7)" xlink:href="#input"/><use id="ATTACK_OUTPUT" transform="translate(180 7)" xlink:href="#output"/></g><g transform="translate(9 33) translate(0 56)"><g transform="translate(0 0)"><text font-size="8pt" letter-spacing="2" transform="translate(8 28) rotate(270)">ON</text><use id="ON_PARAM" transform="translate(20 0) scale(0.38)" xlink:href="#knob"/><use id="ON_LIGHT" transform="translate(3 32)" xlink:href="#light"/></g><g transform="translate(110 5)"><text font-size="5pt" letter-spacing="2" transform="translate(-8 28.5) rotate(270)">SPEED</text><text font-size="5pt" letter-spacing="2" transform="translate(2 -1)">1X</text><use id="SPEED_PARAM" transform="translate(0 2)" xlink:href="#switch"/><text font-size="5pt" letter-spacing="2" transform="translate(-1 34)">10X</text></g><use id="ON_INPUT" transform="translate(143 7)" xlink:href="#input"/><use id="ON_OUTPUT" transform="translate(180 7)" xlink:href="#output"/></g><g transform="translate(9 33) translate(0 112)"><g transform="translate(0 0)"><text font-size="8pt" letter-spacing="2" transform="translate(8 40.5) rotate(270)">DECAY</text><use id="DECAY_PARAM" transform="translate(20 0) scale(0.38)" xlink:href="#knob"/><use id="DECAY_LIGHT" transform="translate(3 44)" xlink:href="#light"/></g><g transform="translate(110 5)"><text font-size="5pt" letter-spacing="2" transform="translate(-8 28.5) rotate(270)">CYCLE</text><text font-size="5pt" letter-spacing="2" transform="translate(-4.5 -1)">STOP</text><use id="LOOP_PARAM" transform="translate(0 2)" xlink:href="#switch"/><text font-size="5pt" letter-spacing="2" transform="translate(-4 34)">LOOP</text></g><use id="DECAY_INPUT" transform="translate(143 7)" xlink:href="#input"/><use id="DECAY_OUTPUT" transform="translate(180 7)" xlink:href="#output"/></g><g transform="translate(9 33) translate(0 168)"><g transform="translate(0 0)"><text font-size="8pt" letter-spacing="2" transform="translate(8 32.5) rotate(270)">OFF</text><use id="OFF_PARAM" transform="translate(20 0) scale(0.38)" xlink:href="#knob"/><use id="OFF_LIGHT" transform="translate(3 36)" xlink:href="#light"/></g><use id="OFF_INPUT" transform="translate(143 7)" xlink:href="#input"/><use id="OFF_OUTPUT" transform="translate(180 7)" xlink:href="#output"/></g><g transform="translate(9 33) translate(0 224)"><g transform="translate(75 0)"><text font-size="8pt" letter-spacing="2" transform="translate(48 7.1) rotate(90)">ENV</text><use id="ENV_PARAM" transform="translate(-1.7 0) scale(0.38)" xlink:href="#knob"/></g><g transform="translate(0 4)"><rect width="58" height="40" fill="#bbb" rx="5"/><use id="ENV_OUTPUT" transform="translate(2.5 3)" xlink:href="#output"/><use id="INV_OUTPUT" transform="translate(31.5 3)" xlink:href="#output"/><text font-size="8" letter-spacing="2" transform="translate(6 36)">ENV</text><text font-size="8" letter-spacing="2" transform="translate(35 36)">INV</text></g><use id="ENV_INPUT" transform="translate(143 7)" xlink:href="#input"/><g transform="translate(177 4)"><rect width="30" height="40" fill="#bbb" rx="5"/><use id="TRIGGER_OUTPUT" transform="translate(3 3)" xlink:href="#output"/><text font-size="8" letter-spacing="2" transform="translate(6 36)">END</text></g></g><g transform="translate(9 33) translate(0 280)"><g transform="translate(75 0)"><text font-size="8pt" letter-spacing="2" transform="translate(48 -2.5) rotate(90)">SIGNAL</text><use id="SIGNAL_PARAM" transform="translate(-1.7 0) scale(0.38)" xlink:href="#knob"/></g><g transform="translate(0 4)"><rect width="58" height="40" fill="#fafafa" rx="5"/><rect width="20" height="40" fill="#bbb" rx="5" transform="translate(38)"/><rect width="20" height="40" fill="#bbb" transform="translate(29)"/><use id="SIGNAL_INPUT" transform="translate(2.5 3)" xlink:href="#input"/><use id="SIGNAL_OUTPUT" transform="translate(31.5 3)" xlink:href="#output"/><text font-size="8" letter-spacing="2" transform="translate(10 36)">IN</text><text font-size="8" letter-spacing="2" transform="translate(33 36)">OUT</text></g><use id="SIGNALCV_INPUT" transform="translate(143 7)" xlink:href="#input"/></g></g><use transform="scale(0.75) translate(14 19)" xlink:href="#knobguide-exp"/><use transform="scale(0.75) translate(14 94)" xlink:href="#knobguide-exp"/><use transform="scale(0.75) translate(14 169)" xlink:href="#knobguide-exp"/><use transform="scale(0.75) translate(14 243)" xlink:href="#knobguide-exp"/><use transform="scale(0.75) translate(85 318)" xlink:href="#knobguide"/><use transform="scale(0.75) translate(85 392.5)" xlink:href="#knobguide"/></svg>