<svg xmlns="http://www.w3.org/2000/svg" xmlns:xlink="http://www.w3.org/1999/xlink" width="45" height="380" version="1.1" viewBox="0 0 45 380"><style>text{fill:#333;font-family:&apos;Roboto&apos;,sans-serif;font-weight:700}text.title{font-family:&apos;Comfortaa&apos;,sans-serif;font-weight:400}text.brand{font-family:&apos;Audiowide&apos;,sans-serif;font-weight:700}</style><defs><symbol id="knob-medium" viewBox="0 0 26 26"><g transform="translate(13 13)"><polyline stroke="#00f" stroke-width="1" points="-3 0 3 0"/><polyline stroke="#00f" stroke-width="1" points="0 -3 0 3"/><circle cx="0" cy="0" r="12.5" fill="none" stroke="#00f" stroke-width="1"/></g></symbol><symbol id="knob-smallest" viewBox="0 0 16 16"><g transform="translate(8 8)"><polyline stroke="#00f" stroke-width="1" points="-3 0 3 0"/><polyline stroke="#00f" stroke-width="1" points="0 -3 0 3"/><circle r="7.5" fill="none" stroke="#00f" stroke-width="1"/></g></symbol><symbol id="knobguide-time" viewBox="0 0 45 45"><g transform="translate(22.5 22.5)"><text font-size="5pt" transform="rotate(-240) translate(18 0) rotate(240) translate(-1.9 2.2)">0</text><polyline stroke="#333" stroke-width=".3" points="0 0 1.5 0" transform="rotate(-172.92) translate(15 0)"/><text font-size="5pt" transform="rotate(-145.13) translate(17 0) rotate(145.13) translate(-2.5 2.2)">1</text><polyline stroke="#333" stroke-width=".3" points="0 0 2.5 0" transform="rotate(-75.68) translate(15 0)"/><text font-size="5pt" transform="rotate(-27.87) translate(17 0) rotate(27.87) translate(-2 2.2)">5</text><polyline stroke="#333" stroke-width=".3" points="0 0 2.5 0" transform="rotate(19.81) translate(15 0)"/><text font-size="5pt" transform="rotate(60) translate(18 0) rotate(-60) translate(-1.9 2.2)">10</text></g></symbol><symbol id="knobguide-rise-shape" viewBox="0 0 45 45"><g transform="translate(20 20)"><polyline stroke="#333" stroke-width=".3" points="0 0 2.5 0" transform="rotate(-52.5) translate(10 0)"/><polyline stroke="#333" stroke-width=".3" points="0 0 2.5 0" transform="rotate(-15) translate(10 0)"/><polyline stroke="#333" stroke-width=".3" points="0 0 2.5 0" transform="rotate(22.5) translate(10 0)"/><polyline stroke="#333" stroke-width=".3" points="0 0 2.5 0" transform="rotate(-127.5) translate(10 0)"/><polyline stroke="#333" stroke-width=".3" points="0 0 2.5 0" transform="rotate(-165) translate(10 0)"/><polyline stroke="#333" stroke-width=".3" points="0 0 2.5 0" transform="rotate(-202.5) translate(10 0)"/><path fill="none" stroke="#333" stroke-width="1" d="M -3.5 0 Q 0 3.5, 3.5 0" transform="rotate(60) translate(13 0) rotate(-60) translate(2 0) rotate(-45) translate(0 0)"/><polyline fill="none" stroke="#333" stroke-width="1" points="-3.5 0 3.5 0" transform="rotate(-90) translate(13 0) rotate(90) rotate(-45) translate(0 0)"/><path fill="none" stroke="#333" stroke-width="1" d="M -3.5 0 Q 0 3.5, 3.5 0" transform="rotate(-240) translate(13 0) rotate(240) translate(-2 0) rotate(135) translate(0 0)"/></g></symbol><symbol id="knobguide-fall-shape" viewBox="0 0 45 45"><g transform="translate(20 20)"><polyline stroke="#333" stroke-width=".3" points="0 0 2.5 0" transform="rotate(-52.5) translate(10 0)"/><polyline stroke="#333" stroke-width=".3" points="0 0 2.5 0" transform="rotate(-15) translate(10 0)"/><polyline stroke="#333" stroke-width=".3" points="0 0 2.5 0" transform="rotate(22.5) translate(10 0)"/><polyline stroke="#333" stroke-width=".3" points="0 0 2.5 0" transform="rotate(-127.5) translate(10 0)"/><polyline stroke="#333" stroke-width=".3" points="0 0 2.5 0" transform="rotate(-165) translate(10 0)"/><polyline stroke="#333" stroke-width=".3" points="0 0 2.5 0" transform="rotate(-202.5) translate(10 0)"/><path fill="none" stroke="#333" stroke-width="1" d="M -3.5 0 Q 0 3.5, 3.5 0" transform="rotate(60) translate(13 0) rotate(-60) translate(2 0) rotate(-135) translate(0 0)"/><polyline fill="none" stroke="#333" stroke-width="1" points="-3.5 0 3.5 0" transform="rotate(-90) translate(13 0) rotate(90) rotate(45) translate(0 0)"/><path fill="none" stroke="#333" stroke-width="1" d="M -3.5 0 Q 0 3.5, 3.5 0" transform="rotate(-240) translate(13 0) rotate(240) translate(-2 0) rotate(45) translate(0 0)"/></g></symbol><symbol id="input" viewBox="0 0 24 24"><g transform="translate(12 12)"><circle cx="0" cy="0" r="5" fill="#0f0" stroke="#0f0" stroke-width="1"/><circle cx="0" cy="0" r="10.5" fill="none" stroke="#0f0" stroke-width="3"/></g></symbol><symbol id="output" viewBox="0 0 24 24"><g transform="translate(12 12)"><circle cx="0" cy="0" r="5" fill="red" stroke="red" stroke-width="1"/><circle cx="0" cy="0" r="10.5" fill="none" stroke="red" stroke-width="3"/></g></symbol></defs><rect width="100%" height="100%" fill="#ddd"/><polyline fill="none" stroke="#e4e4e4" stroke-width=".5" points="1 1 44 1 44 379 1 379 1 1"/><polyline fill="none" stroke="#ebebeb" stroke-width=".8" points=".5 .5 44.5 .5 44.5 379.5 .5 379.5 .5 .5"/><polyline fill="none" stroke="#f2f2f2" stroke-width="1" points="0 0 45 0 45 380 0 380 0 0"/><g><text class="title" font-size="7pt" letter-spacing="2.5" transform="rotate(-90) translate(-376 13)">SLEW</text><g transform="rotate(-90) translate(-376 13) translate(0 12)"><text class="brand" font-size="7pt" letter-spacing="2">BGA</text><rect width="3" height="3" fill="#ddd" transform="translate(11.5 -5)"/></g></g><g transform="translate(0 25)"><text font-size="8" letter-spacing="2" transform="translate(11 0)">RISE</text><use id="RISE_PARAM" transform="translate(9.5 9)" xlink:href="#knob-medium"/><use transform="translate(0 -1)" xlink:href="#knobguide-time"/><use id="RISE_SHAPE_PARAM" transform="translate(14.5 51)" xlink:href="#knob-smallest"/><use transform="translate(2.5 39)" xlink:href="#knobguide-rise-shape"/><g transform="translate(7.5 77)"><rect width="30" height="30" fill="#fafafa" rx="5"/><use id="RISE_INPUT" transform="translate(3 3)" xlink:href="#input"/></g></g><g transform="translate(0 146)"><text font-size="8" letter-spacing="2" transform="translate(11 0)">FALL</text><use id="FALL_PARAM" transform="translate(9.5 9)" xlink:href="#knob-medium"/><use transform="translate(0 -1)" xlink:href="#knobguide-time"/><use id="FALL_SHAPE_PARAM" transform="translate(14.5 51)" xlink:href="#knob-smallest"/><use transform="translate(2.5 39)" xlink:href="#knobguide-fall-shape"/><g transform="translate(7.5 77)"><rect width="30" height="30" fill="#fafafa" rx="5"/><use id="FALL_INPUT" transform="translate(3 3)" xlink:href="#input"/></g></g><g><g transform="translate(0 260) translate(5.5 0)"><rect width="34" height="10" fill="#fafafa" transform="translate(0 28)"/><rect width="34" height="35" fill="#fafafa" rx="5"/><use id="IN_INPUT" transform="translate(5 3)" xlink:href="#input"/><text font-size="5pt" letter-spacing="2" transform="translate(12.5 35)">IN</text></g><g transform="translate(0 260) translate(5.5 41)"><rect width="34" height="10" fill="#bbb" transform="translate(0 -3)"/><rect width="34" height="35" fill="#bbb" rx="5"/><use id="OUT_OUTPUT" transform="translate(5 0)" xlink:href="#output"/><text font-size="5pt" letter-spacing="2" transform="translate(8.3 32)">OUT</text></g></g></svg>