<svg xmlns="http://www.w3.org/2000/svg" xmlns:xlink="http://www.w3.org/1999/xlink" width="45" height="380" version="1.1" viewBox="0 0 45 380"><style>text{fill:#333;font-family:&apos;Roboto&apos;,sans-serif;font-weight:700}text.title{font-family:&apos;Comfortaa&apos;,sans-serif;font-weight:400}text.brand{font-family:&apos;Audiowide&apos;,sans-serif;font-weight:700}</style><defs><symbol id="input" viewBox="0 0 24 24"><g transform="translate(12 12)"><circle cx="0" cy="0" r="5" fill="#0f0" stroke="#0f0" stroke-width="1"/><circle cx="0" cy="0" r="10.5" fill="none" stroke="#0f0" stroke-width="3"/></g></symbol><symbol id="output" viewBox="0 0 24 24"><g transform="translate(12 12)"><circle cx="0" cy="0" r="5" fill="red" stroke="red" stroke-width="1"/><circle cx="0" cy="0" r="10.5" fill="none" stroke="red" stroke-width="3"/></g></symbol></defs><rect width="100%" height="100%" fill="#ddd"/><polyline fill="none" stroke="#e4e4e4" stroke-width=".5" points="1 1 44 1 44 379 1 379 1 1"/><polyline fill="none" stroke="#ebebeb" stroke-width=".8" points=".5 .5 44.5 .5 44.5 379.5 .5 379.5 .5 .5"/><polyline fill="none" stroke="#f2f2f2" stroke-width="1" points="0 0 45 0 45 380 0 380 0 0"/><g><text class="title" font-size="7pt" letter-spacing="2.5" transform="rotate(-90) translate(-376 13)">SUMS</text><g transform="rotate(-90) translate(-376 13) translate(0 12)"><text class="brand" font-size="7pt" letter-spacing="2">BGA</text><rect width="3" height="3" fill="#ddd" transform="translate(11.5 -5)"/></g></g><g transform="translate(7.5 18)"><rect width="34" height="63.5" fill="#fafafa" rx="5" transform="translate(-2 0)"/><rect width="34" height="10" fill="#fafafa" transform="translate(-2 53.5)"/><use id="A_INPUT" transform="translate(3 5)" xlink:href="#input"/><use id="B_INPUT" transform="translate(3 35)" xlink:href="#input"/></g><g transform="translate(7.5 82)"><rect width="34" height="163" fill="#bbb" rx="5" transform="translate(-2 0)"/><rect width="34" height="10" fill="#bbb" transform="translate(-2 0)"/><use id="SUM_OUTPUT" transform="translate(3 4)" xlink:href="#output"/><text font-size="5pt" letter-spacing="2" transform="translate(6.3 37)">SUM</text><use id="DIFFERENCE_OUTPUT" transform="translate(3 44)" xlink:href="#output"/><text font-size="5pt" letter-spacing="2" transform="translate(5 77)">DIFF</text><use id="MAX_OUTPUT" transform="translate(3 84)" xlink:href="#output"/><text font-size="5pt" letter-spacing="2" transform="translate(6.5 117)">MAX</text><use id="MIN_OUTPUT" transform="translate(3 124)" xlink:href="#output"/><text font-size="5pt" letter-spacing="2" transform="translate(6.5 157)">MIN</text></g><g><g transform="translate(0 258) translate(5.5 0)"><rect width="34" height="10" fill="#fafafa" transform="translate(0 22)"/><rect width="34" height="32" fill="#fafafa" rx="5"/><use id="NEGATE_INPUT" transform="translate(5 4)" xlink:href="#input"/></g><g transform="translate(0 258) translate(5.5 35)"><rect width="34" height="10" fill="#bbb" transform="translate(0 -3)"/><rect width="34" height="39" fill="#bbb" rx="5"/><use id="NEGATE_OUTPUT" transform="translate(5 2)" xlink:href="#output"/><text font-size="5pt" letter-spacing="2" transform="translate(8.3 34)">NEG</text></g></g></svg>