<svg xmlns="http://www.w3.org/2000/svg" xmlns:xlink="http://www.w3.org/1999/xlink" width="45" height="380" version="1.1" viewBox="0 0 45 380"><style>text{fill:#333;font-family:&apos;Roboto&apos;,sans-serif;font-weight:700}text.title{font-family:&apos;Comfortaa&apos;,sans-serif;font-weight:400}text.brand{font-family:&apos;Audiowide&apos;,sans-serif;font-weight:700}</style><defs><symbol id="button" viewBox="0 0 18 18"><g transform="translate(9 9)"><circle cx="0" cy="0" r="8.5" fill="red" stroke="#00f" stroke-width="1"/></g></symbol><symbol id="button-small" viewBox="0 0 9 9"><g transform="translate(4.5 4.5)"><circle cx="0" cy="0" r="4.1" fill="red" stroke="#00f" stroke-width="1"/></g></symbol><symbol id="light-small" viewBox="0 0 6.4 6.4"><rect width="6.4" height="6.4" fill="#0f0"/></symbol><symbol id="input" viewBox="0 0 24 24"><g transform="translate(12 12)"><circle cx="0" cy="0" r="5" fill="#0f0" stroke="#0f0" stroke-width="1"/><circle cx="0" cy="0" r="10.5" fill="none" stroke="#0f0" stroke-width="3"/></g></symbol><symbol id="output" viewBox="0 0 24 24"><g transform="translate(12 12)"><circle cx="0" cy="0" r="5" fill="red" stroke="red" stroke-width="1"/><circle cx="0" cy="0" r="10.5" fill="none" stroke="red" stroke-width="3"/></g></symbol></defs><rect width="100%" height="100%" fill="#ddd"/><polyline fill="none" stroke="#e4e4e4" stroke-width=".5" points="1 1 44 1 44 379 1 379 1 1"/><polyline fill="none" stroke="#ebebeb" stroke-width=".8" points=".5 .5 44.5 .5 44.5 379.5 .5 379.5 .5 .5"/><polyline fill="none" stroke="#f2f2f2" stroke-width="1" points="0 0 45 0 45 380 0 380 0 0"/><g><text class="title" font-size="7pt" letter-spacing="2.5" transform="rotate(-90) translate(-376 13)">SWTCH</text><g transform="rotate(-90) translate(-376 13) translate(0 12)"><text class="brand" font-size="7pt" letter-spacing="2">BGA</text><rect width="3" height="3" fill="#ddd" transform="translate(11.5 -5)"/></g></g><g><g transform="translate(0 18) translate(5.5 0)"><rect width="34" height="62" fill="#fafafa" rx="5"/><use id="GATE_PARAM" transform="translate(8 4)" xlink:href="#button"/><use id="GATE_INPUT" transform="translate(5 26)" xlink:href="#input"/><text font-size="5pt" letter-spacing="2" transform="translate(5.5 58)">GATE</text></g><g transform="translate(0 18) translate(4 66)"><use id="LATCH_LIGHT" transform="translate(0 0.5)" xlink:href="#light-small"/><text font-size="5pt" letter-spacing="1" transform="translate(8 6)">LTCH</text><use id="LATCH_PARAM" transform="translate(29 -1)" xlink:href="#button-small"/></g><g><g transform="translate(0 18) translate(0 79) translate(5.5 0)"><rect width="34" height="10" fill="#fafafa" transform="translate(0 29)"/><rect width="34" height="35" fill="#fafafa" rx="5"/><use id="HIGH1_INPUT" transform="translate(5 3)" xlink:href="#input"/><text font-size="5pt" letter-spacing="2" transform="translate(6.0 35)">HIGH</text></g><g transform="translate(0 18) translate(0 79) translate(5.5 36)"><rect width="34" height="10" fill="#fafafa" transform="translate(0 28)"/><rect width="34" height="35" fill="#fafafa" rx="5"/><use id="LOW1_INPUT" transform="translate(5 3)" xlink:href="#input"/><text font-size="5pt" letter-spacing="2" transform="translate(8.0 35)">LOW</text></g><g transform="translate(0 18) translate(0 79) translate(5.5 77)"><rect width="34" height="10" fill="#bbb" transform="translate(0 -3)"/><rect width="34" height="35" fill="#bbb" rx="5"/><use id="OUT1_OUTPUT" transform="translate(5 0)" xlink:href="#output"/><text font-size="5pt" letter-spacing="2" transform="translate(8.3 32)">OUT</text></g></g><g><g transform="translate(0 18) translate(0 196) translate(5.5 0)"><rect width="34" height="10" fill="#fafafa" transform="translate(0 29)"/><rect width="34" height="35" fill="#fafafa" rx="5"/><use id="HIGH2_INPUT" transform="translate(5 3)" xlink:href="#input"/><text font-size="5pt" letter-spacing="2" transform="translate(6.0 35)">HIGH</text></g><g transform="translate(0 18) translate(0 196) translate(5.5 36)"><rect width="34" height="10" fill="#fafafa" transform="translate(0 28)"/><rect width="34" height="35" fill="#fafafa" rx="5"/><use id="LOW2_INPUT" transform="translate(5 3)" xlink:href="#input"/><text font-size="5pt" letter-spacing="2" transform="translate(8.0 35)">LOW</text></g><g transform="translate(0 18) translate(0 196) translate(5.5 77)"><rect width="34" height="10" fill="#bbb" transform="translate(0 -3)"/><rect width="34" height="35" fill="#bbb" rx="5"/><use id="OUT2_OUTPUT" transform="translate(5 0)" xlink:href="#output"/><text font-size="5pt" letter-spacing="2" transform="translate(8.3 32)">OUT</text></g></g></g></svg>