<svg xmlns="http://www.w3.org/2000/svg" xmlns:xlink="http://www.w3.org/1999/xlink" width="45" height="380" version="1.1" viewBox="0 0 45 380"><style>text{fill:#333;font-family:&apos;Roboto&apos;,sans-serif;font-weight:700}text.title{font-family:&apos;Comfortaa&apos;,sans-serif;font-weight:400}text.brand{font-family:&apos;Audiowide&apos;,sans-serif;font-weight:700}</style><defs><symbol id="knob-small" viewBox="0 0 45 45"><g transform="translate(22.5 22.5)"><polyline stroke="#00f" stroke-width="1" points="-3 0 3 0"/><polyline stroke="#00f" stroke-width="1" points="0 -3 0 3"/><circle cx="0" cy="0" r="7.5" fill="none" stroke="#00f" stroke-width="1"/></g></symbol><symbol id="knobguide-maxtick" viewBox="0 0 40 40"><g><g transform="translate(20 20) rotate(60) translate(10 0)"><polyline stroke="#333" stroke-width="1" points="0 0 4 0"/></g><path fill="none" stroke="#333" stroke-linecap="round" stroke-width=".5" d="M 0 -12.5 A 12.5 12.5 0 0 1 12.5 0" transform="translate(20 20) rotate(0)"/><path fill="none" stroke="#333" stroke-linecap="round" stroke-width=".5" d="M 0 -12.5 A 12.5 12.5 0 0 1 12.5 0" transform="translate(20 20) rotate(43)"/><path fill="none" stroke="#333" stroke-linecap="round" stroke-width=".5" d="M 0 -12.5 A 12.5 12.5 0 0 0 -12.5 0" transform="translate(20 20) rotate(0)"/><path fill="none" stroke="#333" stroke-linecap="round" stroke-width=".5" d="M 0 -12.5 A 12.5 12.5 0 0 0 -12.5 0" transform="translate(20 20) rotate(-43)"/></g></symbol><symbol id="input" viewBox="0 0 24 24"><g transform="translate(12 12)"><circle cx="0" cy="0" r="5" fill="#0f0" stroke="#0f0" stroke-width="1"/><circle cx="0" cy="0" r="10.5" fill="none" stroke="#0f0" stroke-width="3"/></g></symbol><symbol id="output" viewBox="0 0 24 24"><g transform="translate(12 12)"><circle cx="0" cy="0" r="5" fill="red" stroke="red" stroke-width="1"/><circle cx="0" cy="0" r="10.5" fill="none" stroke="red" stroke-width="3"/></g></symbol></defs><rect width="100%" height="100%" fill="#ddd"/><polyline fill="none" stroke="#e4e4e4" stroke-width=".5" points="1 1 44 1 44 379 1 379 1 1"/><polyline fill="none" stroke="#ebebeb" stroke-width=".8" points=".5 .5 44.5 .5 44.5 379.5 .5 379.5 .5 .5"/><polyline fill="none" stroke="#f2f2f2" stroke-width="1" points="0 0 45 0 45 380 0 380 0 0"/><g><text class="title" font-size="7pt" letter-spacing="2.5" transform="rotate(-90) translate(-376 13)">UMIX</text><g transform="rotate(-90) translate(-376 13) translate(0 12)"><text class="brand" font-size="7pt" letter-spacing="2">BGA</text><rect width="3" height="3" fill="#ddd" transform="translate(11.5 -5)"/></g></g><g><g transform="translate(0 18) translate(5.5 0)"><rect width="34" height="10" fill="#fafafa" transform="translate(0 232)"/><rect width="34" height="242" fill="#fafafa" rx="5"/><use id="IN1_INPUT" transform="translate(5 5)" xlink:href="#input"/><use id="IN2_INPUT" transform="translate(5 35)" xlink:href="#input"/><use id="IN3_INPUT" transform="translate(5 65)" xlink:href="#input"/><use id="IN4_INPUT" transform="translate(5 95)" xlink:href="#input"/><use id="IN5_INPUT" transform="translate(5 125)" xlink:href="#input"/><use id="IN6_INPUT" transform="translate(5 155)" xlink:href="#input"/><use id="IN7_INPUT" transform="translate(5 185)" xlink:href="#input"/><use id="IN8_INPUT" transform="translate(5 215)" xlink:href="#input"/></g><g transform="translate(0 18) translate(5.5 245)"><rect width="34" height="10" fill="#bbb" transform="translate(0 -3)"/><rect width="34" height="36" fill="#bbb" rx="5"/><use id="OUT_OUTPUT" transform="translate(5 0)" xlink:href="#output"/><text font-size="5pt" letter-spacing="2" transform="translate(8.5 32)">OUT</text></g></g><g transform="translate(0 311)"><text font-size="8" letter-spacing="2" transform="translate(7 0)">LEVEL</text><use id="LEVEL_PARAM" transform="translate(0 -5)" xlink:href="#knob-small"/><use transform="translate(2.2 -2.5)" xlink:href="#knobguide-maxtick"/></g></svg>