<svg xmlns="http://www.w3.org/2000/svg" xmlns:xlink="http://www.w3.org/1999/xlink" width="150" height="380" version="1.1" viewBox="0 0 150 380"><style>text{fill:#333;font-family:&apos;Roboto&apos;,sans-serif;font-weight:700}text.title{font-family:&apos;Comfortaa&apos;,sans-serif;font-weight:400}text.brand{font-family:&apos;Audiowide&apos;,sans-serif;font-weight:700}</style><defs><symbol id="knob" viewBox="0 0 40 40"><g transform="translate(20 20)"><polyline stroke="#00f" stroke-width="1" points="-5 0 5 0"/><polyline stroke="#00f" stroke-width="1" points="0 -5 0 5"/><circle cx="0" cy="0" r="18.5" fill="none" stroke="#00f" stroke-width="1"/></g></symbol><symbol id="knobguide" viewBox="0 0 60 60"><g transform="translate(30 30)"><text font-size="8" transform="rotate(-240) translate(25 0) rotate(240) translate(-2.3 2.5)">0</text><polyline stroke="#333" stroke-width=".3" points="0 0 3.5 0" transform="rotate(-210) translate(22 0)"/><polyline stroke="#333" stroke-width=".3" points="0 0 3.5 0" transform="rotate(-180) translate(22 0)"/><polyline stroke="#333" stroke-width=".3" points="0 0 3.5 0" transform="rotate(-150) translate(22 0)"/><polyline stroke="#333" stroke-width=".3" points="0 0 3.5 0" transform="rotate(-120) translate(22 0)"/><polyline stroke="#333" stroke-width=".3" points="0 0 3.5 0" transform="rotate(-90) translate(22 0)"/><polyline stroke="#333" stroke-width=".3" points="0 0 3.5 0" transform="rotate(-60) translate(22 0)"/><polyline stroke="#333" stroke-width=".3" points="0 0 3.5 0" transform="rotate(-30) translate(22 0)"/><polyline stroke="#333" stroke-width=".3" points="0 0 3.5 0" transform="rotate(0) translate(22 0)"/><polyline stroke="#333" stroke-width=".3" points="0 0 3.5 0" transform="rotate(30) translate(22 0)"/><polyline stroke="#333" stroke-width="1" points="0 0 5 0" transform="rotate(60) translate(22 0)"/></g></symbol><symbol id="input" viewBox="0 0 24 24"><g transform="translate(12 12)"><circle cx="0" cy="0" r="5" fill="#0f0" stroke="#0f0" stroke-width="1"/><circle cx="0" cy="0" r="10.5" fill="none" stroke="#0f0" stroke-width="3"/></g></symbol><symbol id="output" viewBox="0 0 24 24"><g transform="translate(12 12)"><circle cx="0" cy="0" r="5" fill="red" stroke="red" stroke-width="1"/><circle cx="0" cy="0" r="10.5" fill="none" stroke="red" stroke-width="3"/></g></symbol><symbol id="button-small" viewBox="0 0 9 9"><g transform="translate(4.5 4.5)"><circle r="4" fill="red" stroke="#00f" stroke-width="1"/></g></symbol><symbol id="light-small" viewBox="0 0 6.4 6.4"><rect width="6.4" height="6.4" fill="#0f0"/></symbol></defs><rect width="100%" height="100%" fill="#ddd"/><polyline fill="none" stroke="#e4e4e4" stroke-width=".5" points="1 1 149 1 149 379 1 379 1 1"/><polyline fill="none" stroke="#ebebeb" stroke-width=".8" points=".5 .5 149.5 .5 149.5 379.5 .5 379.5 .5 .5"/><polyline fill="none" stroke="#f2f2f2" stroke-width="1" points="0 0 150 0 150 380 0 380 0 0"/><text x="52" y="19" class="title" font-size="16" letter-spacing="4">VCM</text><g transform="translate(35.5 374)"><text class="brand" font-size="8pt" letter-spacing="2">BOGAUDIO</text><rect width="3" height="3" fill="#ddd" transform="translate(24 -5)"/></g><g transform="translate(0 32)"><g transform="translate(10 1)"><rect width="63" height="43" fill="#fafafa" rx="5"/><g transform="translate(1 0)"><use id="IN1_INPUT" transform="translate(3 4)" xlink:href="#input"/><text font-size="8" letter-spacing="2" transform="translate(10 39)">IN</text></g><g transform="translate(32 0)"><use id="CV1_INPUT" transform="translate(3 4)" xlink:href="#input"/><text font-size="8" letter-spacing="2" transform="translate(8.5 39)">CV</text></g></g><use id="LEVEL1_PARAM" transform="translate(88.5 2.5)" xlink:href="#knob"/><use transform="translate(78.5 -7.5)" xlink:href="#knobguide"/><text font-size="5pt" letter-spacing="2" transform="translate(139 13.8) rotate(90)">CH1</text></g><g transform="translate(0 96)"><g transform="translate(10 1)"><rect width="63" height="43" fill="#fafafa" rx="5"/><g transform="translate(1 0)"><use id="IN2_INPUT" transform="translate(3 4)" xlink:href="#input"/><text font-size="8" letter-spacing="2" transform="translate(10 39)">IN</text></g><g transform="translate(32 0)"><use id="CV2_INPUT" transform="translate(3 4)" xlink:href="#input"/><text font-size="8" letter-spacing="2" transform="translate(8.5 39)">CV</text></g></g><use id="LEVEL2_PARAM" transform="translate(88.5 2.5)" xlink:href="#knob"/><use transform="translate(78.5 -7.5)" xlink:href="#knobguide"/><text font-size="5pt" letter-spacing="2" transform="translate(139 13.8) rotate(90)">CH2</text></g><g transform="translate(0 160)"><g transform="translate(10 1)"><rect width="63" height="43" fill="#fafafa" rx="5"/><g transform="translate(1 0)"><use id="IN3_INPUT" transform="translate(3 4)" xlink:href="#input"/><text font-size="8" letter-spacing="2" transform="translate(10 39)">IN</text></g><g transform="translate(32 0)"><use id="CV3_INPUT" transform="translate(3 4)" xlink:href="#input"/><text font-size="8" letter-spacing="2" transform="translate(8.5 39)">CV</text></g></g><use id="LEVEL3_PARAM" transform="translate(88.5 2.5)" xlink:href="#knob"/><use transform="translate(78.5 -7.5)" xlink:href="#knobguide"/><text font-size="5pt" letter-spacing="2" transform="translate(139 13.8) rotate(90)">CH3</text></g><g transform="translate(0 225)"><g transform="translate(10 1)"><rect width="63" height="43" fill="#fafafa" rx="5"/><g transform="translate(1 0)"><use id="IN4_INPUT" transform="translate(3 4)" xlink:href="#input"/><text font-size="8" letter-spacing="2" transform="translate(10 39)">IN</text></g><g transform="translate(32 0)"><use id="CV4_INPUT" transform="translate(3 4)" xlink:href="#input"/><text font-size="8" letter-spacing="2" transform="translate(8.5 39)">CV</text></g></g><use id="LEVEL4_PARAM" transform="translate(88.5 2.5)" xlink:href="#knob"/><use transform="translate(78.5 -7.5)" xlink:href="#knobguide"/><text font-size="5pt" letter-spacing="2" transform="translate(139 13.8) rotate(90)">CH4</text></g><g transform="translate(0 290)"><text font-size="5pt" letter-spacing="2" transform="translate(11 30.5) rotate(-90)">MIX</text><use id="MIX_PARAM" transform="translate(21.5 2.5)" xlink:href="#knob"/><use transform="translate(11.5 -7.5)" xlink:href="#knobguide"/><g transform="translate(77 0)"><rect width="63" height="43" fill="#bbb" rx="5"/><rect width="31.5" height="43" fill="#fafafa" rx="5"/><rect width="5" height="43" fill="#fafafa" transform="translate(26.5 0)"/><g transform="translate(1 0)"><use id="MIX_CV_INPUT" transform="translate(3 4)" xlink:href="#input"/><text font-size="8" letter-spacing="2" transform="translate(8.5 39)">CV</text></g><g transform="translate(32 0)"><use id="MIX_OUTPUT" transform="translate(3 4)" xlink:href="#output"/><text font-size="8" letter-spacing="2" transform="translate(5 39)">OUT</text></g></g><g transform="translate(46 54)"><use id="LINEAR_PARAM" transform="translate(49 -1.3)" xlink:href="#button-small"/><use id="LINEAR_LIGHT" transform="translate(0 0)" xlink:href="#light-small"/><text font-size="8" letter-spacing="2" transform="translate(9 6.1)">LINEAR</text></g></g></svg>