<svg xmlns="http://www.w3.org/2000/svg" xmlns:xlink="http://www.w3.org/1999/xlink" width="150" height="380" version="1.1" viewBox="0 0 150 380"><style>text{fill:#333;font-family:&apos;Roboto&apos;,sans-serif;font-weight:700}text.title{font-family:&apos;Comfortaa&apos;,sans-serif;font-weight:400}text.brand{font-family:&apos;Audiowide&apos;,sans-serif;font-weight:700}</style><defs><symbol id="knob-large" viewBox="0 0 68 68"><g transform="translate(34 34)"><polyline stroke="#00f" stroke-width="1" points="-10 0 10 0"/><polyline stroke="#00f" stroke-width="1" points="0 -10 0 10"/><circle cx="0" cy="0" r="33.5" fill="none" stroke="#00f" stroke-width="1"/></g></symbol><symbol id="knob-medium" viewBox="0 0 26 26"><g transform="translate(13 13)"><polyline stroke="#00f" stroke-width="1" points="-3 0 3 0"/><polyline stroke="#00f" stroke-width="1" points="0 -3 0 3"/><circle cx="0" cy="0" r="12.5" fill="none" stroke="#00f" stroke-width="1"/></g></symbol><symbol id="knob-smallest" viewBox="0 0 16 16"><g transform="translate(8 8)"><polyline stroke="#00f" stroke-width="1" points="-3 0 3 0"/><polyline stroke="#00f" stroke-width="1" points="0 -3 0 3"/><circle r="7.5" fill="none" stroke="#00f" stroke-width="1"/></g></symbol><symbol id="knobguide-frequency" viewBox="0 0 108 108"><g><g transform="translate(54 54) rotate(-240) translate(34 0)"><polyline stroke="#333" stroke-width="1" points="0 0 5 0" transform="translate(3 0)"/><text font-size="7pt" transform="translate(14 0) rotate(240) translate(-6 3)">-3</text></g><g transform="translate(54 54) rotate(-220.56) translate(34 0)"><polyline stroke="#333" stroke-width=".7" points="0 0 3 0" transform="translate(3 0)"/></g><g transform="translate(54 54) rotate(-206.667) translate(34 0)"><polyline stroke="#333" stroke-width="1" points="0 0 5 0" transform="translate(3 0)"/><text font-size="7pt" transform="translate(14 0) rotate(206.667) translate(-5.5 3)">-2</text></g><g transform="translate(54 54) rotate(-187.23) translate(34 0)"><polyline stroke="#333" stroke-width=".7" points="0 0 3 0" transform="translate(3 0)"/></g><g transform="translate(54 54) rotate(-173.333) translate(34 0)"><polyline stroke="#333" stroke-width="1" points="0 0 5 0" transform="translate(3 0)"/><text font-size="7pt" transform="translate(14 0) rotate(173.333) translate(-4 3)">-1</text></g><g transform="translate(54 54) rotate(-153.89) translate(34 0)"><polyline stroke="#333" stroke-width=".7" points="0 0 3 0" transform="translate(3 0)"/></g><g transform="translate(54 54) rotate(-140) translate(34 0)"><polyline stroke="#333" stroke-width="1" points="0 0 5 0" transform="translate(3 0)"/><text font-size="7pt" letter-spacing="1" transform="translate(16 0) rotate(140) translate(-6 3.5)">0V</text></g><g transform="translate(54 54) rotate(-120.56) translate(34 0)"><polyline stroke="#333" stroke-width=".7" points="0 0 3 0" transform="translate(3 0)"/></g><g transform="translate(54 54) rotate(-106.667) translate(34 0)"><polyline stroke="#333" stroke-width="1" points="0 0 5 0" transform="translate(3 0)"/><text font-size="7pt" transform="translate(14 0) rotate(106.667) translate(-2.7 3)">1</text></g><g transform="translate(54 54) rotate(-87.23) translate(34 0)"><polyline stroke="#333" stroke-width=".7" points="0 0 3 0" transform="translate(3 0)"/></g><g transform="translate(54 54) rotate(-73.33) translate(34 0)"><polyline stroke="#333" stroke-width="1" points="0 0 5 0" transform="translate(3 0)"/><text font-size="7pt" transform="translate(14 0) rotate(73.333) translate(-2.7 3)">2</text></g><g transform="translate(54 54) rotate(-53.89) translate(34 0)"><polyline stroke="#333" stroke-width=".7" points="0 0 3 0" transform="translate(3 0)"/></g><g transform="translate(54 54) rotate(-40) translate(34 0)"><polyline stroke="#333" stroke-width="1" points="0 0 5 0" transform="translate(3 0)"/><text font-size="7pt" transform="translate(14 0) rotate(40) translate(-2.7 3)">3</text></g><g transform="translate(54 54) rotate(-20.56) translate(34 0)"><polyline stroke="#333" stroke-width=".7" points="0 0 3 0" transform="translate(3 0)"/></g><g transform="translate(54 54) rotate(-6.667) translate(34 0)"><polyline stroke="#333" stroke-width="1" points="0 0 5 0" transform="translate(3 0)"/><text font-size="7pt" transform="translate(14 0) rotate(6.667) translate(-2.7 3)">4</text></g><g transform="translate(54 54) rotate(12.77) translate(34 0)"><polyline stroke="#333" stroke-width=".7" points="0 0 3 0" transform="translate(3 0)"/></g><g transform="translate(54 54) rotate(26.667) translate(34 0)"><polyline stroke="#333" stroke-width="1" points="0 0 5 0" transform="translate(3 0)"/><text font-size="7pt" transform="translate(14 0) rotate(-26.667) translate(-2.7 3)">5</text></g><g transform="translate(54 54) rotate(46.11) translate(34 0)"><polyline stroke="#333" stroke-width=".7" points="0 0 3 0" transform="translate(3 0)"/></g><g transform="translate(54 54) rotate(60) translate(34 0)"><polyline stroke="#333" stroke-width="1" points="0 0 5 0" transform="translate(3 0)"/><text font-size="7pt" transform="translate(14 0) rotate(-60) translate(-2.7 3)">6</text></g></g></symbol><symbol id="knobguide-attenuverter" viewBox="0 0 45 45"><g><g><text font-size="12" transform="translate(22.5 22.5) rotate(-240) translate(15 0) translate(3 0) rotate(240) translate(-2.2 3.6)">-</text></g><g transform="translate(22.5 22.5) rotate(-210) translate(15 0)"><polyline stroke="#333" stroke-width=".3" points="0 0 2.5 0"/></g><g transform="translate(22.5 22.5) rotate(-180) translate(15 0)"><polyline stroke="#333" stroke-width=".3" points="0 0 2.5 0"/></g><g transform="translate(22.5 22.5) rotate(-150) translate(15 0)"><polyline stroke="#333" stroke-width=".3" points="0 0 2.5 0"/></g><g transform="translate(22.5 22.5) rotate(-120) translate(15 0)"><polyline stroke="#333" stroke-width=".3" points="0 0 2.5 0"/></g><g><text font-size="5pt" transform="translate(22.5 22.5) rotate(-90) translate(15 0) translate(2 0) rotate(90) translate(-2 2)">0</text></g><g transform="translate(22.5 22.5) rotate(-60) translate(15 0)"><polyline stroke="#333" stroke-width=".3" points="0 0 2.5 0"/></g><g transform="translate(22.5 22.5) rotate(-30) translate(15 0)"><polyline stroke="#333" stroke-width=".3" points="0 0 2.5 0"/></g><g transform="translate(22.5 22.5) rotate(0) translate(15 0)"><polyline stroke="#333" stroke-width=".3" points="0 0 2.5 0"/></g><g transform="translate(22.5 22.5) rotate(30) translate(15 0)"><polyline stroke="#333" stroke-width=".3" points="0 0 2.5 0"/></g><g><text font-size="5pt" transform="translate(22.5 22.5) rotate(60) translate(15 0) translate(3 0) rotate(-60) translate(-2 2)">+</text></g></g></symbol><symbol id="knobguide-fm" viewBox="0 0 45 45"><g transform="translate(22.5 22.5)"><text font-size="5pt" transform="rotate(-240) translate(18 0) rotate(240) translate(-2 2)">0</text><polyline stroke="#333" stroke-width=".3" points="0 0 2.5 0" transform="rotate(-210) translate(15 0)"/><polyline stroke="#333" stroke-width=".3" points="0 0 2.5 0" transform="rotate(-180) translate(15 0)"/><polyline stroke="#333" stroke-width=".3" points="0 0 2.5 0" transform="rotate(-150) translate(15 0)"/><polyline stroke="#333" stroke-width=".3" points="0 0 2.5 0" transform="rotate(-120) translate(15 0)"/><polyline stroke="#333" stroke-width=".3" points="0 0 2.5 0" transform="rotate(-90) translate(15 0)"/><polyline stroke="#333" stroke-width=".3" points="0 0 2.5 0" transform="rotate(-60) translate(15 0)"/><polyline stroke="#333" stroke-width=".3" points="0 0 2.5 0" transform="rotate(-30) translate(15 0)"/><polyline stroke="#333" stroke-width=".3" points="0 0 2.5 0" transform="rotate(0) translate(15 0)"/><polyline stroke="#333" stroke-width=".3" points="0 0 2.5 0" transform="rotate(30) translate(15 0)"/><polyline stroke="#333" stroke-width="1" points="0 0 3.5 0" transform="rotate(60) translate(15 0)"/></g></symbol><symbol id="knobguide-centertick" viewBox="0 0 40 40"><g><g transform="translate(20 20) rotate(-90) translate(10 0)"><polyline stroke="#333" stroke-width="1" points="0 0 4 0"/></g><path fill="none" stroke="#333" stroke-linecap="round" stroke-width=".5" d="M 0 -12.5 A 12.5 12.5 0 0 1 12.5 0" transform="translate(20 20) rotate(20)"/><path fill="none" stroke="#333" stroke-linecap="round" stroke-width=".5" d="M 0 -12.5 A 12.5 12.5 0 0 1 12.5 0" transform="translate(20 20) rotate(43)"/><path fill="none" stroke="#333" stroke-linecap="round" stroke-width=".5" d="M 0 -12.5 A 12.5 12.5 0 0 0 -12.5 0" transform="translate(20 20) rotate(-20)"/><path fill="none" stroke="#333" stroke-linecap="round" stroke-width=".5" d="M 0 -12.5 A 12.5 12.5 0 0 0 -12.5 0" transform="translate(20 20) rotate(-43)"/></g></symbol><symbol id="input" viewBox="0 0 24 24"><g transform="translate(12 12)"><circle cx="0" cy="0" r="5" fill="#0f0" stroke="#0f0" stroke-width="1"/><circle cx="0" cy="0" r="10.5" fill="none" stroke="#0f0" stroke-width="3"/></g></symbol><symbol id="output" viewBox="0 0 24 24"><g transform="translate(12 12)"><circle cx="0" cy="0" r="5" fill="red" stroke="red" stroke-width="1"/><circle cx="0" cy="0" r="10.5" fill="none" stroke="red" stroke-width="3"/></g></symbol><symbol id="button-small" viewBox="0 0 9 9"><g transform="translate(4.5 4.5)"><circle r="4" fill="red" stroke="#00f" stroke-width="1"/></g></symbol><symbol id="light-small" viewBox="0 0 6.4 6.4"><rect width="6.4" height="6.4" fill="#0f0"/></symbol><symbol id="switch" viewBox="0 0 14 24"><rect width="14" height="24" fill="#ddd" stroke="#000" stroke-width="1"/><rect width="14" height="12" fill="#000" stroke-width="0"/></symbol></defs><rect width="100%" height="100%" fill="#ddd"/><polyline fill="none" stroke="#e4e4e4" stroke-width=".5" points="1 1 149 1 149 379 1 379 1 1"/><polyline fill="none" stroke="#ebebeb" stroke-width=".8" points=".5 .5 149.5 .5 149.5 379.5 .5 379.5 .5 .5"/><polyline fill="none" stroke="#f2f2f2" stroke-width="1" points="0 0 150 0 150 380 0 380 0 0"/><text x="52" y="19" class="title" font-size="16" letter-spacing="4">VCO</text><g transform="translate(35.5 374)"><text class="brand" font-size="8pt" letter-spacing="2">BOGAUDIO</text><rect width="3" height="3" fill="#ddd" transform="translate(24 -5)"/></g><g transform="translate(21 25)"><use id="FREQUENCY_PARAM" transform="translate(20 20)" xlink:href="#knob-large"/></g><use transform="translate(20 25)" xlink:href="#knobguide-frequency"/><text font-size="8" letter-spacing="1" transform="translate(30 135)">0V = C4 = 261.63HZ</text><g transform="translate(35 153)"><text font-size="8pt" letter-spacing="2" transform="translate(0 22) rotate(270)">FINE</text><use id="FINE_PARAM" transform="translate(13 0)" xlink:href="#knob-smallest"/></g><use transform="translate(36 141)" xlink:href="#knobguide-centertick"/><g transform="translate(82 158.5)"><use id="SLOW_PARAM" transform="translate(40 -1.3)" xlink:href="#button-small"/><use id="SLOW_LIGHT" transform="translate(0 0)" xlink:href="#light-small"/><text font-size="8" letter-spacing="2" transform="translate(9 6.1)">SLOW</text></g><g transform="translate(44 188)"><text font-size="8pt" letter-spacing="2" transform="translate(10 22.5) rotate(270)">PW</text><use id="PW_PARAM" transform="translate(18 0)" xlink:href="#knob-medium"/></g><use transform="translate(52.5 178.5)" xlink:href="#knobguide-attenuverter"/><g><g transform="translate(44 230) translate(0 0)"><text font-size="8pt" letter-spacing="2" transform="translate(10 22) rotate(270)">FM</text><use id="FM_PARAM" transform="translate(18 0)" xlink:href="#knob-medium"/></g><g transform="translate(44 230) translate(57 -0)"><text font-size="5pt" letter-spacing="2" transform="translate(-1 -1)">EXP</text><use id="FM_TYPE_PARAM" transform="translate(0 2)" xlink:href="#switch"/><text font-size="5pt" letter-spacing="2" transform="translate(0 34)">LIN</text></g></g><use transform="translate(52.5 220.5)" xlink:href="#knobguide-fm"/><g transform="translate(0 269)"><rect width="130" height="91" fill="#bbb" rx="5" transform="translate(10 0)"/><rect width="65" height="91" fill="#fafafa" rx="5" transform="translate(10 0)"/><rect width="10" height="8" fill="#fafafa" transform="translate(65 0)"/><rect width="10" height="8" fill="#fafafa" transform="translate(65 83)"/><g transform="translate(12 0)"><use id="PW_INPUT" transform="translate(3 5)" xlink:href="#input"/><text font-size="8" letter-spacing="2" transform="translate(8 40)">PW</text></g><g transform="translate(44 0)"><use id="FM_INPUT" transform="translate(3 5)" xlink:href="#input"/><text font-size="8" letter-spacing="2" transform="translate(8 40)">FM</text></g><g transform="translate(76 0)"><use id="SQUARE_OUTPUT" transform="translate(3 5)" xlink:href="#output"/><g transform="translate(9 33.5)"><polyline fill="none" stroke="#333" stroke-width="1" points="0 4 0 0 6 0 6 8 12 8 12 4"/></g></g><g transform="translate(108 0)"><use id="SAW_OUTPUT" transform="translate(3 5)" xlink:href="#output"/><g transform="translate(9 33.5)"><polyline fill="none" stroke="#333" stroke-width="1" points="0 8 12 0 12 8"/></g></g><g><g transform="translate(10 44) translate(2 0)"><use id="PITCH_INPUT" transform="translate(3 5)" xlink:href="#input"/><text font-size="8" letter-spacing="1" transform="translate(1 40)">V/OCT</text></g><g transform="translate(10 44) translate(34 0)"><use id="SYNC_INPUT" transform="translate(3 5)" xlink:href="#input"/><text font-size="8" letter-spacing="1" transform="translate(3 40)">SYNC</text></g><g transform="translate(10 44) translate(66 0)"><use id="TRIANGLE_OUTPUT" transform="translate(3 5)" xlink:href="#output"/><g transform="translate(9 33.5)"><polyline fill="none" stroke="#333" stroke-width="1" points="0 4 3 0 9 8 12 4"/></g></g><g transform="translate(10 44) translate(98 0)"><use id="SINE_OUTPUT" transform="translate(3 5)" xlink:href="#output"/><g><path fill="none" stroke="#333" stroke-width="1" d="M 0 4 A 2 3 0 0 1 6 4" transform="translate(9 33.5)"/><path fill="none" stroke="#333" stroke-width="1" d="M 6 4 A 2 3 0 0 0 12 4" transform="translate(9 33.5)"/></g></g></g></g></svg>