<svg xmlns="http://www.w3.org/2000/svg" xmlns:xlink="http://www.w3.org/1999/xlink" width="45" height="380" version="1.1" viewBox="0 0 45 380"><style>text{fill:#333;font-family:&apos;Roboto&apos;,sans-serif;font-weight:700}text.title{font-family:&apos;Comfortaa&apos;,sans-serif;font-weight:400}text.brand{font-family:&apos;Audiowide&apos;,sans-serif;font-weight:700}</style><defs><symbol id="vu" viewBox="0 0 18 180"><rect width="5" height="13" x="0" y="1" fill="#aaa" rx="0" transform="translate(3 0)"/><rect width="5" height="13" x="0" y="1" fill="#aaa" rx="0" transform="translate(10 0)"/><rect width="5" height="13" x="0" y="1" fill="#aaa" rx="0" transform="translate(3 15)"/><rect width="5" height="13" x="0" y="1" fill="#aaa" rx="0" transform="translate(10 15)"/><rect width="5" height="13" x="0" y="1" fill="#aaa" rx="0" transform="translate(3 30)"/><rect width="5" height="13" x="0" y="1" fill="#aaa" rx="0" transform="translate(10 30)"/><rect width="5" height="13" x="0" y="1" fill="#aaa" rx="0" transform="translate(3 45)"/><rect width="5" height="13" x="0" y="1" fill="#aaa" rx="0" transform="translate(10 45)"/><rect width="5" height="13" x="0" y="1" fill="#aaa" rx="0" transform="translate(3 60)"/><rect width="5" height="13" x="0" y="1" fill="#aaa" rx="0" transform="translate(10 60)"/><rect width="5" height="13" x="0" y="1" fill="#aaa" rx="0" transform="translate(3 75)"/><rect width="5" height="13" x="0" y="1" fill="#aaa" rx="0" transform="translate(10 75)"/><rect width="5" height="13" x="0" y="1" fill="#aaa" rx="0" transform="translate(3 90)"/><rect width="5" height="13" x="0" y="1" fill="#aaa" rx="0" transform="translate(10 90)"/><rect width="5" height="13" x="0" y="1" fill="#aaa" rx="0" transform="translate(3 105)"/><rect width="5" height="13" x="0" y="1" fill="#aaa" rx="0" transform="translate(10 105)"/><rect width="5" height="13" x="0" y="1" fill="#aaa" rx="0" transform="translate(3 120)"/><rect width="5" height="13" x="0" y="1" fill="#aaa" rx="0" transform="translate(10 120)"/><rect width="5" height="13" x="0" y="1" fill="#aaa" rx="0" transform="translate(3 135)"/><rect width="5" height="13" x="0" y="1" fill="#aaa" rx="0" transform="translate(10 135)"/><rect width="5" height="13" x="0" y="1" fill="#aaa" rx="0" transform="translate(3 150)"/><rect width="5" height="13" x="0" y="1" fill="#aaa" rx="0" transform="translate(10 150)"/><rect width="5" height="13" x="0" y="1" fill="#aaa" rx="0" transform="translate(3 165)"/><rect width="5" height="13" x="0" y="1" fill="#aaa" rx="0" transform="translate(10 165)"/></symbol><symbol id="guide-db" viewBox="0 0 20 183"><g transform="translate(0 15)"><polyline fill="none" stroke="#333" points="0 0 3 0" transform="translate(11 0)"/><text font-size="8" transform="translate(7 0) rotate(0) translate(-2.5 2.6)">6</text></g><g transform="translate(0 30)"><polyline fill="none" stroke="#333" points="0 0 3 0" transform="translate(11 0)"/><text font-size="8" transform="translate(7 0) rotate(0) translate(-2.5 2.6)">0</text></g><g transform="translate(0 45)"><polyline fill="none" stroke="#333" points="0 0 3 0" transform="translate(11 0)"/><text font-size="8" transform="translate(7 0) rotate(-90) translate(-4 2.2)">-6</text></g><g transform="translate(0 60)"><polyline fill="none" stroke="#333" points="0 0 3 0" transform="translate(11 0)"/><text font-size="8" transform="translate(7 0) rotate(-90) translate(-7 2.2)">-12</text></g><g transform="translate(0 90)"><polyline fill="none" stroke="#333" points="0 0 3 0" transform="translate(11 0)"/><text font-size="8" transform="translate(7 0) rotate(-90) translate(-7 2.2)">-24</text></g><g transform="translate(0 150)"><polyline fill="none" stroke="#333" points="0 0 3 0" transform="translate(11 0)"/><text font-size="8" transform="translate(7 0) rotate(-90) translate(-7 2.2)">-48</text></g><g><text font-size="8" transform="translate(0 170) translate(7 0) rotate(-90) translate(-9 4.5)">dB</text></g></symbol><symbol id="input" viewBox="0 0 24 24"><g transform="translate(12 12)"><circle cx="0" cy="0" r="5" fill="#0f0" stroke="#0f0" stroke-width="1"/><circle cx="0" cy="0" r="10.5" fill="none" stroke="#0f0" stroke-width="3"/></g></symbol><symbol id="output" viewBox="0 0 24 24"><g transform="translate(12 12)"><circle cx="0" cy="0" r="5" fill="red" stroke="red" stroke-width="1"/><circle cx="0" cy="0" r="10.5" fill="none" stroke="red" stroke-width="3"/></g></symbol></defs><rect width="100%" height="100%" fill="#ddd"/><polyline fill="none" stroke="#e4e4e4" stroke-width=".5" points="1 1 44 1 44 379 1 379 1 1"/><polyline fill="none" stroke="#ebebeb" stroke-width=".8" points=".5 .5 44.5 .5 44.5 379.5 .5 379.5 .5 .5"/><polyline fill="none" stroke="#f2f2f2" stroke-width="1" points="0 0 45 0 45 380 0 380 0 0"/><g><text class="title" font-size="7pt" letter-spacing="2.5" transform="rotate(-90) translate(-376 13)">VU</text><g transform="rotate(-90) translate(-376 13) translate(0 12)"><text class="brand" font-size="7pt" letter-spacing="2">BGA</text><rect width="3" height="3" fill="#ddd" transform="translate(11.5 -5)"/></g></g><g transform="translate(0 18)"><use id="VU_WIDGET" transform="translate(13.5 -1)" xlink:href="#vu"/><use transform="translate(0 -1)" xlink:href="#guide-db"/></g><g><g transform="translate(0 200) translate(5.5 0)"><rect width="34" height="10" fill="#fafafa" transform="translate(0 63)"/><rect width="34" height="70" fill="#fafafa" rx="5"/><use id="L_INPUT" transform="translate(5 3)" xlink:href="#input"/><text font-size="5pt" letter-spacing="2" transform="translate(15 35)">L</text><use id="R_INPUT" transform="translate(5 38)" xlink:href="#input"/><text font-size="5pt" letter-spacing=".5" transform="translate(9 70)">R (L)</text></g><g transform="translate(0 200) translate(5.5 76)"><rect width="34" height="10" fill="#bbb" transform="translate(0 -3)"/><rect width="34" height="70" fill="#bbb" rx="5"/><use id="L_OUTPUT" transform="translate(5 0)" xlink:href="#output"/><text font-size="5pt" letter-spacing="2" transform="translate(15 32)">L</text><use id="R_OUTPUT" transform="translate(5 35)" xlink:href="#output"/><text font-size="5pt" letter-spacing="2" transform="translate(15 67)">R</text></g></g></svg>