<svg xmlns="http://www.w3.org/2000/svg" xmlns:xlink="http://www.w3.org/1999/xlink" width="210" height="380" version="1.1" viewBox="0 0 210 380"><style>text{fill:#333;font-family:&apos;Roboto&apos;,sans-serif;font-weight:700}text.title{font-family:&apos;Comfortaa&apos;,sans-serif;font-weight:400}text.brand{font-family:&apos;Audiowide&apos;,sans-serif;font-weight:700}</style><defs><symbol id="display" viewBox="0 0 190 190"><rect width="190" height="190" cx="0" cy="0" fill="#222"/></symbol><symbol id="knob-medium" viewBox="0 0 45 45"><g transform="translate(22.5 22.5)"><polyline stroke="#00f" stroke-width="1" points="-5 0 5 0"/><polyline stroke="#00f" stroke-width="1" points="0 -5 0 5"/><circle cx="0" cy="0" r="14" fill="none" stroke="#00f" stroke-width="1"/></g></symbol><symbol id="knob-smallest" viewBox="0 0 16 16"><g transform="translate(8 8)"><polyline stroke="#00f" stroke-width="1" points="-3 0 3 0"/><polyline stroke="#00f" stroke-width="1" points="0 -3 0 3"/><circle r="7.5" fill="none" stroke="#00f" stroke-width="1"/></g></symbol><symbol id="knobguide-change" viewBox="0 0 45 45"><g transform="translate(22.5 22.5)"><polyline stroke="#333" stroke-width="1" points="0 0 4 0" transform="rotate(-240) translate(17 0)"/><polyline stroke="#333" stroke-width=".3" points="0 0 2.5 0" transform="rotate(-210) translate(17 0)"/><polyline stroke="#333" stroke-width=".3" points="0 0 2.5 0" transform="rotate(-180) translate(17 0)"/><polyline stroke="#333" stroke-width=".3" points="0 0 2.5 0" transform="rotate(-150) translate(17 0)"/><polyline stroke="#333" stroke-width=".3" points="0 0 2.5 0" transform="rotate(-120) translate(17 0)"/><polyline stroke="#333" stroke-width=".3" points="0 0 2.5 0" transform="rotate(-90) translate(17 0)"/><polyline stroke="#333" stroke-width=".3" points="0 0 2.5 0" transform="rotate(-60) translate(17 0)"/><polyline stroke="#333" stroke-width=".3" points="0 0 2.5 0" transform="rotate(-30) translate(17 0)"/><polyline stroke="#333" stroke-width=".3" points="0 0 2.5 0" transform="rotate(0) translate(17 0)"/><polyline stroke="#333" stroke-width=".3" points="0 0 2.5 0" transform="rotate(30) translate(17 0)"/><polyline stroke="#333" stroke-width=".3" points="0 0 2.5 0" transform="rotate(60) translate(17 0)"/></g></symbol><symbol id="knobguide-centertick" viewBox="0 0 40 40"><g><g transform="translate(20 20) rotate(-90) translate(10 0)"><polyline stroke="#333" stroke-width="1" points="0 0 4 0"/></g><path fill="none" stroke="#333" stroke-linecap="round" stroke-width=".5" d="M 0 -12.5 A 12.5 12.5 0 0 1 12.5 0" transform="translate(20 20) rotate(20)"/><path fill="none" stroke="#333" stroke-linecap="round" stroke-width=".5" d="M 0 -12.5 A 12.5 12.5 0 0 1 12.5 0" transform="translate(20 20) rotate(43)"/><path fill="none" stroke="#333" stroke-linecap="round" stroke-width=".5" d="M 0 -12.5 A 12.5 12.5 0 0 0 -12.5 0" transform="translate(20 20) rotate(-20)"/><path fill="none" stroke="#333" stroke-linecap="round" stroke-width=".5" d="M 0 -12.5 A 12.5 12.5 0 0 0 -12.5 0" transform="translate(20 20) rotate(-43)"/></g></symbol><symbol id="knobguide-maxtick" viewBox="0 0 40 40"><g><g transform="translate(20 20) rotate(60) translate(10 0)"><polyline stroke="#333" stroke-width="1" points="0 0 4 0"/></g><path fill="none" stroke="#333" stroke-linecap="round" stroke-width=".5" d="M 0 -12.5 A 12.5 12.5 0 0 1 12.5 0" transform="translate(20 20) rotate(0)"/><path fill="none" stroke="#333" stroke-linecap="round" stroke-width=".5" d="M 0 -12.5 A 12.5 12.5 0 0 1 12.5 0" transform="translate(20 20) rotate(43)"/><path fill="none" stroke="#333" stroke-linecap="round" stroke-width=".5" d="M 0 -12.5 A 12.5 12.5 0 0 0 -12.5 0" transform="translate(20 20) rotate(0)"/><path fill="none" stroke="#333" stroke-linecap="round" stroke-width=".5" d="M 0 -12.5 A 12.5 12.5 0 0 0 -12.5 0" transform="translate(20 20) rotate(-43)"/></g></symbol><symbol id="input" viewBox="0 0 24 24"><g transform="translate(12 12)"><circle cx="0" cy="0" r="5" fill="#0f0" stroke="#0f0" stroke-width="1"/><circle cx="0" cy="0" r="10.5" fill="none" stroke="#0f0" stroke-width="3"/></g></symbol><symbol id="output" viewBox="0 0 24 24"><g transform="translate(12 12)"><circle cx="0" cy="0" r="5" fill="red" stroke="red" stroke-width="1"/><circle cx="0" cy="0" r="10.5" fill="none" stroke="red" stroke-width="3"/></g></symbol></defs><rect width="100%" height="100%" fill="#ddd"/><polyline fill="none" stroke="#e4e4e4" stroke-width=".5" points="1 1 209 1 209 379 1 379 1 1"/><polyline fill="none" stroke="#ebebeb" stroke-width=".8" points=".5 .5 209.5 .5 209.5 379.5 .5 379.5 .5 .5"/><polyline fill="none" stroke="#f2f2f2" stroke-width="1" points="0 0 210 0 210 380 0 380 0 0"/><text x="69" y="19" class="title" font-size="16" letter-spacing="4">WALK2</text><g transform="translate(65 374)"><text class="brand" font-size="8pt" letter-spacing="2">BOGAUDIO</text><rect width="3" height="3" fill="#ddd" transform="translate(24 -5)"/></g><g transform="translate(10 25)"><use id="DISPLAY_WIDGET" xlink:href="#display"/></g><g><g transform="translate(0 227) translate(6 0)"><text font-size="8pt" transform="translate(45 0)">X</text><polyline fill="none" stroke="#333" stroke-width="1" points="0 0 30 0" transform="translate(13 -4)"/><polyline fill="none" stroke="#333" stroke-width="1" points="0 0 30 0" transform="translate(53 -4)"/></g><g transform="translate(0 227) translate(111 0)"><text font-size="8pt" transform="translate(40 0)">Y</text><polyline fill="none" stroke="#333" stroke-width="1" points="0 0 30 0" transform="translate(8 -4)"/><polyline fill="none" stroke="#333" stroke-width="1" points="0 0 30 0" transform="translate(48 -4)"/></g></g><g transform="translate(12 235)"><g transform="translate(-2 0)"><text font-size="7pt" letter-spacing="1.5" transform="translate(9 33.5) rotate(270)">RATE</text><use id="RATE_X_PARAM" transform="translate(10 -3)" xlink:href="#knob-medium"/></g><use transform="translate(8 -3)" xlink:href="#knobguide-change"/></g><g transform="translate(145.5 235)"><g transform="translate(-2 0)"><text font-size="7pt" letter-spacing="1.5" transform="translate(47 5) rotate(90)">RATE</text><use id="RATE_Y_PARAM" transform="translate(0 -3)" xlink:href="#knob-medium"/></g><use transform="translate(-2 -3)" xlink:href="#knobguide-change"/></g><g transform="translate(105 234)"><text font-size="7pt" letter-spacing="2" transform="translate(3.3 17) rotate(270)">OFF</text><use id="OFFSET_X_PARAM" transform="translate(-30 0)" xlink:href="#knob-smallest"/><use transform="translate(-42 -12)" xlink:href="#knobguide-centertick"/><use id="OFFSET_Y_PARAM" transform="translate(14 0)" xlink:href="#knob-smallest"/><use transform="translate(2 -12)" xlink:href="#knobguide-centertick"/></g><g transform="translate(105 262.5)"><text font-size="7pt" letter-spacing="2" transform="translate(3.3 17) rotate(270)">SCL</text><use id="SCALE_X_PARAM" transform="translate(-30 0)" xlink:href="#knob-smallest"/><use transform="translate(-42 -12)" xlink:href="#knobguide-maxtick"/><use id="SCALE_Y_PARAM" transform="translate(14 0)" xlink:href="#knob-smallest"/><use transform="translate(2 -12)" xlink:href="#knobguide-maxtick"/></g><g transform="translate(7 281)"><rect width="62" height="79" fill="#fafafa" rx="5"/><rect width="22" height="40" fill="#bbb" rx="5" transform="translate(40 39)"/><rect width="20" height="40" fill="#bbb" transform="translate(31 39)"/><rect width="31" height="20" fill="#bbb" transform="translate(31 39)"/><use id="OFFSET_X_INPUT" transform="translate(3.5 3)" xlink:href="#input"/><use id="SCALE_X_INPUT" transform="translate(34.5 3)" xlink:href="#input"/><text font-size="8" letter-spacing="1.5" transform="translate(6 36)">OFF</text><text font-size="8" letter-spacing="1.5" transform="translate(37.5 36)">SCL</text><use id="RATE_X_INPUT" transform="translate(3.5 42)" xlink:href="#input"/><use id="OUT_X_OUTPUT" transform="translate(34.5 42)" xlink:href="#output"/><text font-size="8" letter-spacing="1.5" transform="translate(3.5 75)">RATE</text><text font-size="8" letter-spacing="1.5" transform="translate(37 75)">OUT</text></g><g transform="translate(142 281)"><rect width="62" height="79" fill="#fafafa" rx="5"/><rect width="22" height="40" fill="#bbb" rx="5" transform="translate(40 39)"/><rect width="20" height="40" fill="#bbb" transform="translate(31 39)"/><rect width="31" height="20" fill="#bbb" transform="translate(31 39)"/><use id="OFFSET_Y_INPUT" transform="translate(3.5 3)" xlink:href="#input"/><use id="SCALE_Y_INPUT" transform="translate(34.5 3)" xlink:href="#input"/><text font-size="8" letter-spacing="1.5" transform="translate(6 36)">OFF</text><text font-size="8" letter-spacing="1.5" transform="translate(37.5 36)">SCL</text><use id="RATE_Y_INPUT" transform="translate(3.5 42)" xlink:href="#input"/><use id="OUT_Y_OUTPUT" transform="translate(34.5 42)" xlink:href="#output"/><text font-size="8" letter-spacing="1.5" transform="translate(3.5 75)">RATE</text><text font-size="8" letter-spacing="1.5" transform="translate(37 75)">OUT</text></g><g transform="translate(74.5 300)"><rect width="61" height="40" fill="#fafafa" rx="5"/><rect width="22" height="40" fill="#bbb" rx="5" transform="translate(40)"/><rect width="20" height="40" fill="#bbb" transform="translate(31)"/><use id="JUMP_INPUT" transform="translate(3.5 3)" xlink:href="#input"/><use id="DISTANCE_OUTPUT" transform="translate(34.5 3)" xlink:href="#output"/><text font-size="8" letter-spacing="1.5" transform="translate(2 36)">JUMP</text><text font-size="8" letter-spacing="1.5" transform="translate(35.5 36)">DIST</text></g></svg>