<svg xmlns="http://www.w3.org/2000/svg" xmlns:xlink="http://www.w3.org/1999/xlink" width="300" height="380" version="1.1" viewBox="0 0 300 380"><style>text{fill:#333;font-family:&apos;Roboto&apos;,sans-serif;font-weight:700}text.title{font-family:&apos;Comfortaa&apos;,sans-serif;font-weight:400}text.brand{font-family:&apos;Audiowide&apos;,sans-serif;font-weight:700}</style><defs><symbol id="knob-large" viewBox="0 0 68 68"><g transform="translate(34 34)"><polyline stroke="#00f" stroke-width="1" points="-10 0 10 0"/><polyline stroke="#00f" stroke-width="1" points="0 -10 0 10"/><circle cx="0" cy="0" r="33.5" fill="none" stroke="#00f" stroke-width="1"/></g></symbol><symbol id="knob" viewBox="0 0 38 38"><g transform="translate(19 19)"><polyline stroke="#00f" stroke-width="1" points="-5 0 5 0"/><polyline stroke="#00f" stroke-width="1" points="0 -5 0 5"/><circle cx="0" cy="0" r="18.5" fill="none" stroke="#00f" stroke-width="1"/></g></symbol><symbol id="knob-smallest" viewBox="0 0 16 16"><g transform="translate(8 8)"><polyline stroke="#00f" stroke-width="1" points="-3 0 3 0"/><polyline stroke="#00f" stroke-width="1" points="0 -3 0 3"/><circle r="7.5" fill="none" stroke="#00f" stroke-width="1"/></g></symbol><symbol id="knobguide-frequency" viewBox="0 0 108 108"><g><g transform="translate(54 54) rotate(-240) translate(34 0)"><polyline stroke="#333" stroke-width="1" points="0 0 5 0" transform="translate(3 0)"/><text font-size="7pt" transform="translate(14 0) rotate(240) translate(-6 3)">-3</text></g><g transform="translate(54 54) rotate(-220.56) translate(34 0)"><polyline stroke="#333" stroke-width=".7" points="0 0 3 0" transform="translate(3 0)"/></g><g transform="translate(54 54) rotate(-206.667) translate(34 0)"><polyline stroke="#333" stroke-width="1" points="0 0 5 0" transform="translate(3 0)"/><text font-size="7pt" transform="translate(14 0) rotate(206.667) translate(-5.5 3)">-2</text></g><g transform="translate(54 54) rotate(-187.23) translate(34 0)"><polyline stroke="#333" stroke-width=".7" points="0 0 3 0" transform="translate(3 0)"/></g><g transform="translate(54 54) rotate(-173.333) translate(34 0)"><polyline stroke="#333" stroke-width="1" points="0 0 5 0" transform="translate(3 0)"/><text font-size="7pt" transform="translate(14 0) rotate(173.333) translate(-4 3)">-1</text></g><g transform="translate(54 54) rotate(-153.89) translate(34 0)"><polyline stroke="#333" stroke-width=".7" points="0 0 3 0" transform="translate(3 0)"/></g><g transform="translate(54 54) rotate(-140) translate(34 0)"><polyline stroke="#333" stroke-width="1" points="0 0 5 0" transform="translate(3 0)"/><text font-size="7pt" letter-spacing="1" transform="translate(16 0) rotate(140) translate(-6 3.5)">0V</text></g><g transform="translate(54 54) rotate(-120.56) translate(34 0)"><polyline stroke="#333" stroke-width=".7" points="0 0 3 0" transform="translate(3 0)"/></g><g transform="translate(54 54) rotate(-106.667) translate(34 0)"><polyline stroke="#333" stroke-width="1" points="0 0 5 0" transform="translate(3 0)"/><text font-size="7pt" transform="translate(14 0) rotate(106.667) translate(-2.7 3)">1</text></g><g transform="translate(54 54) rotate(-87.23) translate(34 0)"><polyline stroke="#333" stroke-width=".7" points="0 0 3 0" transform="translate(3 0)"/></g><g transform="translate(54 54) rotate(-73.33) translate(34 0)"><polyline stroke="#333" stroke-width="1" points="0 0 5 0" transform="translate(3 0)"/><text font-size="7pt" transform="translate(14 0) rotate(73.333) translate(-2.7 3)">2</text></g><g transform="translate(54 54) rotate(-53.89) translate(34 0)"><polyline stroke="#333" stroke-width=".7" points="0 0 3 0" transform="translate(3 0)"/></g><g transform="translate(54 54) rotate(-40) translate(34 0)"><polyline stroke="#333" stroke-width="1" points="0 0 5 0" transform="translate(3 0)"/><text font-size="7pt" transform="translate(14 0) rotate(40) translate(-2.7 3)">3</text></g><g transform="translate(54 54) rotate(-20.56) translate(34 0)"><polyline stroke="#333" stroke-width=".7" points="0 0 3 0" transform="translate(3 0)"/></g><g transform="translate(54 54) rotate(-6.667) translate(34 0)"><polyline stroke="#333" stroke-width="1" points="0 0 5 0" transform="translate(3 0)"/><text font-size="7pt" transform="translate(14 0) rotate(6.667) translate(-2.7 3)">4</text></g><g transform="translate(54 54) rotate(12.77) translate(34 0)"><polyline stroke="#333" stroke-width=".7" points="0 0 3 0" transform="translate(3 0)"/></g><g transform="translate(54 54) rotate(26.667) translate(34 0)"><polyline stroke="#333" stroke-width="1" points="0 0 5 0" transform="translate(3 0)"/><text font-size="7pt" transform="translate(14 0) rotate(-26.667) translate(-2.7 3)">5</text></g><g transform="translate(54 54) rotate(46.11) translate(34 0)"><polyline stroke="#333" stroke-width=".7" points="0 0 3 0" transform="translate(3 0)"/></g><g transform="translate(54 54) rotate(60) translate(34 0)"><polyline stroke="#333" stroke-width="1" points="0 0 5 0" transform="translate(3 0)"/><text font-size="7pt" transform="translate(14 0) rotate(-60) translate(-2.7 3)">6</text></g></g></symbol><symbol id="knobguide-fm" viewBox="0 0 50 50"><g transform="translate(25 25)"><text font-size="8" transform="rotate(-240) translate(24 0) rotate(240) translate(-4 3)">0</text><polyline stroke="#333" stroke-width=".5" points="0 0 3 0" transform="rotate(-210) translate(22 0)"/><polyline stroke="#333" stroke-width=".5" points="0 0 3 0" transform="rotate(-180) translate(22 0)"/><polyline stroke="#333" stroke-width=".5" points="0 0 3 0" transform="rotate(-150) translate(22 0)"/><polyline stroke="#333" stroke-width=".5" points="0 0 3 0" transform="rotate(-120) translate(22 0)"/><polyline stroke="#333" stroke-width=".5" points="0 0 3 0" transform="rotate(-90) translate(22 0)"/><polyline stroke="#333" stroke-width=".5" points="0 0 3 0" transform="rotate(-60) translate(22 0)"/><polyline stroke="#333" stroke-width=".5" points="0 0 3 0" transform="rotate(-30) translate(22 0)"/><polyline stroke="#333" stroke-width=".5" points="0 0 3 0" transform="rotate(0) translate(22 0)"/><polyline stroke="#333" stroke-width=".5" points="0 0 3 0" transform="rotate(30) translate(22 0)"/><polyline stroke="#333" stroke-width="1" points="0 0 4 0" transform="rotate(60) translate(22 0)"/></g></symbol><symbol id="knobguide-centertick" viewBox="0 0 40 40"><g><g transform="translate(20 20) rotate(-90) translate(10 0)"><polyline stroke="#333" stroke-width="1" points="0 0 4 0"/></g><path fill="none" stroke="#333" stroke-linecap="round" stroke-width=".5" d="M 0 -12.5 A 12.5 12.5 0 0 1 12.5 0" transform="translate(20 20) rotate(20)"/><path fill="none" stroke="#333" stroke-linecap="round" stroke-width=".5" d="M 0 -12.5 A 12.5 12.5 0 0 1 12.5 0" transform="translate(20 20) rotate(43)"/><path fill="none" stroke="#333" stroke-linecap="round" stroke-width=".5" d="M 0 -12.5 A 12.5 12.5 0 0 0 -12.5 0" transform="translate(20 20) rotate(-20)"/><path fill="none" stroke="#333" stroke-linecap="round" stroke-width=".5" d="M 0 -12.5 A 12.5 12.5 0 0 0 -12.5 0" transform="translate(20 20) rotate(-43)"/></g></symbol><symbol id="knobguide-maxtick" viewBox="0 0 40 40"><g><g transform="translate(20 20) rotate(60) translate(10 0)"><polyline stroke="#333" stroke-width="1" points="0 0 4 0"/></g><path fill="none" stroke="#333" stroke-linecap="round" stroke-width=".5" d="M 0 -12.5 A 12.5 12.5 0 0 1 12.5 0" transform="translate(20 20) rotate(0)"/><path fill="none" stroke="#333" stroke-linecap="round" stroke-width=".5" d="M 0 -12.5 A 12.5 12.5 0 0 1 12.5 0" transform="translate(20 20) rotate(43)"/><path fill="none" stroke="#333" stroke-linecap="round" stroke-width=".5" d="M 0 -12.5 A 12.5 12.5 0 0 0 -12.5 0" transform="translate(20 20) rotate(0)"/><path fill="none" stroke="#333" stroke-linecap="round" stroke-width=".5" d="M 0 -12.5 A 12.5 12.5 0 0 0 -12.5 0" transform="translate(20 20) rotate(-43)"/></g></symbol><symbol id="knobguide-mintick" viewBox="0 0 40 40"><g><g transform="translate(20 20) rotate(-240) translate(10 0)"><polyline stroke="#333" stroke-width="1" points="0 0 4 0"/></g><path fill="none" stroke="#333" stroke-linecap="round" stroke-width=".5" d="M 0 -12.5 A 12.5 12.5 0 0 1 12.5 0" transform="translate(20 20) rotate(0)"/><path fill="none" stroke="#333" stroke-linecap="round" stroke-width=".5" d="M 0 -12.5 A 12.5 12.5 0 0 1 12.5 0" transform="translate(20 20) rotate(43)"/><path fill="none" stroke="#333" stroke-linecap="round" stroke-width=".5" d="M 0 -12.5 A 12.5 12.5 0 0 0 -12.5 0" transform="translate(20 20) rotate(0)"/><path fill="none" stroke="#333" stroke-linecap="round" stroke-width=".5" d="M 0 -12.5 A 12.5 12.5 0 0 0 -12.5 0" transform="translate(20 20) rotate(-43)"/></g></symbol><symbol id="input" viewBox="0 0 24 24"><g transform="translate(12 12)"><circle cx="0" cy="0" r="5" fill="#0f0" stroke="#0f0" stroke-width="1"/><circle cx="0" cy="0" r="10.5" fill="none" stroke="#0f0" stroke-width="3"/></g></symbol><symbol id="output" viewBox="0 0 24 24"><g transform="translate(12 12)"><circle cx="0" cy="0" r="5" fill="red" stroke="red" stroke-width="1"/><circle cx="0" cy="0" r="10.5" fill="none" stroke="red" stroke-width="3"/></g></symbol><symbol id="button-small" viewBox="0 0 9 9"><g transform="translate(4.5 4.5)"><circle r="4" fill="red" stroke="#00f" stroke-width="1"/></g></symbol><symbol id="light-small" viewBox="0 0 6.4 6.4"><rect width="6.4" height="6.4" fill="#0f0"/></symbol><symbol id="switch" viewBox="0 0 14 24"><rect width="14" height="24" fill="#ddd" stroke="#000" stroke-width="1"/><rect width="14" height="12" fill="#000" stroke-width="0"/></symbol></defs><rect width="100%" height="100%" fill="#ddd"/><polyline fill="none" stroke="#e4e4e4" stroke-width=".5" points="1 1 299 1 299 379 1 379 1 1"/><polyline fill="none" stroke="#ebebeb" stroke-width=".8" points=".5 .5 299.5 .5 299.5 379.5 .5 379.5 .5 .5"/><polyline fill="none" stroke="#f2f2f2" stroke-width="1" points="0 0 300 0 300 380 0 380 0 0"/><text x="127" y="19" class="title" font-size="16" letter-spacing="4">XCO</text><g transform="translate(110 374)"><text class="brand" font-size="8pt" letter-spacing="2">BOGAUDIO</text><rect width="3" height="3" fill="#ddd" transform="translate(24 -5)"/></g><g transform="translate(20 25)"><use id="FREQUENCY_PARAM" transform="translate(20 20)" xlink:href="#knob-large"/></g><use transform="translate(20 25)" xlink:href="#knobguide-frequency"/><text font-size="8" letter-spacing="1" transform="translate(30 135)">0V = C4 = 261.63HZ</text><g transform="translate(34 153)"><text font-size="8pt" letter-spacing="2" transform="translate(0 22) rotate(270)">FINE</text><use id="FINE_PARAM" transform="translate(13 0)" xlink:href="#knob-smallest"/></g><use transform="translate(35 141)" xlink:href="#knobguide-centertick"/><g transform="translate(81 158.5)"><use id="SLOW_PARAM" transform="translate(40 -1.3)" xlink:href="#button-small"/><use id="SLOW_LIGHT" transform="translate(0 0)" xlink:href="#light-small"/><text font-size="8" letter-spacing="2" transform="translate(9 6.1)">SLOW</text></g><g><g transform="translate(31 194) translate(4 0)"><text font-size="8pt" letter-spacing="2" transform="translate(9 27) rotate(270)">FM</text><use id="FM_DEPTH_PARAM" transform="translate(20 0)" xlink:href="#knob"/></g><g transform="translate(31 194) translate(-19 52)"><rect width="71" height="47" fill="#fafafa" rx="5" transform="translate(10 0)"/><g transform="translate(10 0)"><use id="FM_INPUT" transform="translate(7 5)" xlink:href="#input"/><text font-size="8" letter-spacing="1" transform="translate(11 40)">FM</text></g><g transform="translate(47 0)"><use id="FM_DEPTH_INPUT" transform="translate(3 5)" xlink:href="#input"/><text font-size="8" letter-spacing="1" transform="translate(0 40)">DEPTH</text></g><g><g transform="translate(82 0) translate(8 9)"><text font-size="5pt" letter-spacing="2" transform="translate(-1 -1)">EXP</text><use id="FM_TYPE_PARAM" transform="translate(0 2)" xlink:href="#switch"/><text font-size="5pt" letter-spacing="2" transform="translate(0 34)">LIN</text></g></g></g></g><use transform="translate(49 188)" xlink:href="#knobguide-fm"/><rect width="193" height="47" fill="#bbb" rx="5" transform="translate(97 313)"/><g transform="translate(140 30)"><rect width="30" height="330" fill="#fafafa" rx="5"/><g transform="translate(9 6)"><polyline fill="none" stroke="#333" stroke-width="1" points="0 4 0 0 6 0 6 8 12 8 12 4"/></g><g transform="translate(3 30)"><use id="SQUARE_PW_PARAM" transform="translate(4 0)" xlink:href="#knob-smallest"/><text font-size="8" letter-spacing="2" transform="translate(5 30)">PW</text><use id="SQUARE_PW_INPUT" transform="translate(0 35)" xlink:href="#input"/></g><g transform="translate(3 118)"><use id="SQUARE_PHASE_PARAM" transform="translate(4 0)" xlink:href="#knob-smallest"/><text font-size="8" letter-spacing="2" transform="translate(2 30)">PHS</text><use id="SQUARE_PHASE_INPUT" transform="translate(0 35)" xlink:href="#input"/></g><g transform="translate(3 207)"><use id="SQUARE_MIX_PARAM" transform="translate(4 0)" xlink:href="#knob-smallest"/><text font-size="8" letter-spacing="2" transform="translate(2.5 30)">MIX</text><use id="SQUARE_MIX_INPUT" transform="translate(0 35)" xlink:href="#input"/></g><g transform="translate(0 288)"><rect width="32" height="5" fill="#bbb" transform="translate(-1 -5)"/><rect width="32" height="47" fill="#bbb" rx="5" transform="translate(-1 -5)"/><g transform="translate(3 0)"><use id="SQUARE_OUTPUT" transform="translate(0 0)" xlink:href="#output"/><text font-size="8" letter-spacing="2" transform="translate(2 36)">OUT</text></g></g></g><use transform="translate(135 48)" xlink:href="#knobguide-centertick"/><use transform="translate(135 136)" xlink:href="#knobguide-centertick"/><use transform="translate(135 225)" xlink:href="#knobguide-maxtick"/><g transform="translate(180 30)"><rect width="30" height="330" fill="#fafafa" rx="5"/><g transform="translate(9 6)"><polyline fill="none" stroke="#333" stroke-width="1" points="0 8 12 0 12 8"/></g><g transform="translate(3 30)"><use id="SAW_SATURATION_PARAM" transform="translate(4 0)" xlink:href="#knob-smallest"/><text font-size="8" letter-spacing="2" transform="translate(2.5 30)">SAT</text><use id="SAW_SATURATION_INPUT" transform="translate(0 35)" xlink:href="#input"/></g><g transform="translate(3 118)"><use id="SAW_PHASE_PARAM" transform="translate(4 0)" xlink:href="#knob-smallest"/><text font-size="8" letter-spacing="2" transform="translate(2 30)">PHS</text><use id="SAW_PHASE_INPUT" transform="translate(0 35)" xlink:href="#input"/></g><g transform="translate(3 207)"><use id="SAW_MIX_PARAM" transform="translate(4 0)" xlink:href="#knob-smallest"/><text font-size="8" letter-spacing="2" transform="translate(2.5 30)">MIX</text><use id="SAW_MIX_INPUT" transform="translate(0 35)" xlink:href="#input"/></g><g transform="translate(0 288)"><rect width="32" height="5" fill="#bbb" transform="translate(-1 -5)"/><rect width="32" height="47" fill="#bbb" rx="5" transform="translate(-1 -5)"/><g transform="translate(3 0)"><use id="SAW_OUTPUT" transform="translate(0 0)" xlink:href="#output"/><text font-size="8" letter-spacing="2" transform="translate(2 36)">OUT</text></g></g></g><use transform="translate(175 48)" xlink:href="#knobguide-mintick"/><use transform="translate(175 136)" xlink:href="#knobguide-centertick"/><use transform="translate(175 225)" xlink:href="#knobguide-maxtick"/><g transform="translate(220 30)"><rect width="30" height="330" fill="#fafafa" rx="5"/><g transform="translate(9 6)"><polyline fill="none" stroke="#333" stroke-width="1" points="0 4 3 0 9 8 12 4"/></g><g transform="translate(3 30)"><use id="TRIANGLE_SAMPLE_PARAM" transform="translate(4 0)" xlink:href="#knob-smallest"/><text font-size="8" letter-spacing="2" transform="translate(1.5 30)">SAM</text><use id="TRIANGLE_SAMPLE_INPUT" transform="translate(0 35)" xlink:href="#input"/></g><g transform="translate(3 118)"><use id="TRIANGLE_PHASE_PARAM" transform="translate(4 0)" xlink:href="#knob-smallest"/><text font-size="8" letter-spacing="2" transform="translate(2 30)">PHS</text><use id="TRIANGLE_PHASE_INPUT" transform="translate(0 35)" xlink:href="#input"/></g><g transform="translate(3 207)"><use id="TRIANGLE_MIX_PARAM" transform="translate(4 0)" xlink:href="#knob-smallest"/><text font-size="8" letter-spacing="2" transform="translate(2.5 30)">MIX</text><use id="TRIANGLE_MIX_INPUT" transform="translate(0 35)" xlink:href="#input"/></g><g transform="translate(0 288)"><rect width="32" height="5" fill="#bbb" transform="translate(-1 -5)"/><rect width="32" height="47" fill="#bbb" rx="5" transform="translate(-1 -5)"/><g transform="translate(3 0)"><use id="TRIANGLE_OUTPUT" transform="translate(0 0)" xlink:href="#output"/><text font-size="8" letter-spacing="2" transform="translate(2 36)">OUT</text></g></g></g><use transform="translate(215 48)" xlink:href="#knobguide-mintick"/><use transform="translate(215 136)" xlink:href="#knobguide-centertick"/><use transform="translate(215 225)" xlink:href="#knobguide-maxtick"/><g transform="translate(260 30)"><rect width="30" height="330" fill="#fafafa" rx="5"/><g><path fill="none" stroke="#333" stroke-width="1" d="M 0 4 A 2 3 0 0 1 6 4" transform="translate(9 6)"/><path fill="none" stroke="#333" stroke-width="1" d="M 6 4 A 2 3 0 0 0 12 4" transform="translate(9 6)"/></g><g transform="translate(3 30)"><use id="SINE_FEEDBACK_PARAM" transform="translate(4 0)" xlink:href="#knob-smallest"/><text font-size="8" letter-spacing="1" transform="translate(0.5 30)">FDBK</text><use id="SINE_FEEDBACK_INPUT" transform="translate(0 35)" xlink:href="#input"/></g><g transform="translate(3 118)"><use id="SINE_PHASE_PARAM" transform="translate(4 0)" xlink:href="#knob-smallest"/><text font-size="8" letter-spacing="2" transform="translate(2 30)">PHS</text><use id="SINE_PHASE_INPUT" transform="translate(0 35)" xlink:href="#input"/></g><g transform="translate(3 207)"><use id="SINE_MIX_PARAM" transform="translate(4 0)" xlink:href="#knob-smallest"/><text font-size="8" letter-spacing="2" transform="translate(2.5 30)">MIX</text><use id="SINE_MIX_INPUT" transform="translate(0 35)" xlink:href="#input"/></g><g transform="translate(0 288)"><rect width="31" height="5" fill="#bbb" transform="translate(-1 -5)"/><rect width="31" height="47" fill="#bbb" rx="5" transform="translate(-1 -5)"/><g transform="translate(3 0)"><use id="SINE_OUTPUT" transform="translate(0 0)" xlink:href="#output"/><text font-size="8" letter-spacing="2" transform="translate(2 36)">OUT</text></g></g></g><use transform="translate(255 48)" xlink:href="#knobguide-mintick"/><use transform="translate(255 136)" xlink:href="#knobguide-centertick"/><use transform="translate(255 225)" xlink:href="#knobguide-maxtick"/><g transform="translate(0 313)"><rect width="71" height="47" fill="#fafafa" rx="5" transform="translate(10 0)"/><g transform="translate(10 0)"><use id="PITCH_INPUT" transform="translate(7 5)" xlink:href="#input"/><text font-size="8" letter-spacing="1" transform="translate(5 40)">V/OCT</text></g><g transform="translate(47 0)"><use id="SYNC_INPUT" transform="translate(3 5)" xlink:href="#input"/><text font-size="8" letter-spacing="1" transform="translate(3 40)">SYNC</text></g><g transform="translate(100 0)"><use id="MIX_OUTPUT" transform="translate(3 5)" xlink:href="#output"/><text font-size="8" letter-spacing="2" transform="translate(5 40)">MIX</text></g></g></svg>