<svg xmlns="http://www.w3.org/2000/svg" xmlns:svg="http://www.w3.org/2000/svg" id="svg264135" width="57.599" height="485.667" version="1.1" viewBox="0 0 15.24 128.499"><defs id="defs264129"><linearGradient id="linear21" x1="-.096" x2="1.325" y1="0" y2="0" gradientTransform="matrix(0,6.4087959,-6.4087959,0,90.714778,76.618644)" gradientUnits="userSpaceOnUse"><stop style="stop-color:#414042;stop-opacity:1" id="stop217868" offset="0"/><stop style="stop-color:#414042;stop-opacity:1" id="stop217870" offset=".063"/><stop style="stop-color:#414042;stop-opacity:1" id="stop217872" offset=".078"/><stop style="stop-color:#403f41;stop-opacity:1" id="stop217874" offset=".094"/><stop style="stop-color:#403e40;stop-opacity:1" id="stop217876" offset=".109"/><stop style="stop-color:#3f3e40;stop-opacity:1" id="stop217878" offset=".125"/><stop style="stop-color:#3e3d3f;stop-opacity:1" id="stop217880" offset=".141"/><stop style="stop-color:#3e3c3e;stop-opacity:1" id="stop217882" offset=".156"/><stop style="stop-color:#3d3b3d;stop-opacity:1" id="stop217884" offset=".172"/><stop style="stop-color:#3c3b3d;stop-opacity:1" id="stop217886" offset=".188"/><stop style="stop-color:#3c3a3c;stop-opacity:1" id="stop217888" offset=".203"/><stop style="stop-color:#3b393b;stop-opacity:1" id="stop217890" offset=".219"/><stop style="stop-color:#3a393a;stop-opacity:1" id="stop217892" offset=".234"/><stop style="stop-color:#3a383a;stop-opacity:1" id="stop217894" offset=".25"/><stop style="stop-color:#393739;stop-opacity:1" id="stop217896" offset=".266"/><stop style="stop-color:#383638;stop-opacity:1" id="stop217898" offset=".281"/><stop style="stop-color:#383637;stop-opacity:1" id="stop217900" offset=".297"/><stop style="stop-color:#373537;stop-opacity:1" id="stop217902" offset=".313"/><stop style="stop-color:#363436;stop-opacity:1" id="stop217904" offset=".328"/><stop style="stop-color:#363335;stop-opacity:1" id="stop217906" offset=".344"/><stop style="stop-color:#353334;stop-opacity:1" id="stop217908" offset=".359"/><stop style="stop-color:#343234;stop-opacity:1" id="stop217910" offset=".375"/><stop style="stop-color:#343133;stop-opacity:1" id="stop217912" offset=".391"/><stop style="stop-color:#333032;stop-opacity:1" id="stop217914" offset=".406"/><stop style="stop-color:#323031;stop-opacity:1" id="stop217916" offset=".422"/><stop style="stop-color:#322f30;stop-opacity:1" id="stop217918" offset=".438"/><stop style="stop-color:#312e30;stop-opacity:1" id="stop217920" offset=".453"/><stop style="stop-color:#302e2f;stop-opacity:1" id="stop217922" offset=".469"/><stop style="stop-color:#302d2e;stop-opacity:1" id="stop217924" offset=".484"/><stop style="stop-color:#2f2c2d;stop-opacity:1" id="stop217926" offset=".5"/><stop style="stop-color:#2e2b2d;stop-opacity:1" id="stop217928" offset=".516"/><stop style="stop-color:#2e2b2c;stop-opacity:1" id="stop217930" offset=".531"/><stop style="stop-color:#2d2a2b;stop-opacity:1" id="stop217932" offset=".547"/><stop style="stop-color:#2c292a;stop-opacity:1" id="stop217934" offset=".563"/><stop style="stop-color:#2c282a;stop-opacity:1" id="stop217936" offset=".578"/><stop style="stop-color:#2b2829;stop-opacity:1" id="stop217938" offset=".594"/><stop style="stop-color:#2a2728;stop-opacity:1" id="stop217940" offset=".609"/><stop style="stop-color:#2a2627;stop-opacity:1" id="stop217942" offset=".625"/><stop style="stop-color:#292527;stop-opacity:1" id="stop217944" offset=".641"/><stop style="stop-color:#282526;stop-opacity:1" id="stop217946" offset=".656"/><stop style="stop-color:#282425;stop-opacity:1" id="stop217948" offset=".672"/><stop style="stop-color:#272324;stop-opacity:1" id="stop217950" offset=".688"/><stop style="stop-color:#262324;stop-opacity:1" id="stop217952" offset=".703"/><stop style="stop-color:#262223;stop-opacity:1" id="stop217954" offset=".719"/><stop style="stop-color:#252122;stop-opacity:1" id="stop217956" offset=".734"/><stop style="stop-color:#242021;stop-opacity:1" id="stop217958" offset=".75"/><stop style="stop-color:#242021;stop-opacity:1" id="stop217960" offset=".766"/><stop style="stop-color:#231f20;stop-opacity:1" id="stop217962" offset=".781"/><stop style="stop-color:#231f20;stop-opacity:1" id="stop217964" offset=".813"/><stop style="stop-color:#231f20;stop-opacity:1" id="stop217966" offset=".875"/><stop style="stop-color:#231f20;stop-opacity:1" id="stop217968" offset="1"/></linearGradient></defs><metadata id="metadata264132"/><g id="layer1" transform="translate(-83.094427,-28.643207)" style="display:inline"><path id="path227418" d="M 83.188125,28.736914 H 98.241823 V 157.05018 H 83.188125 Z m 0,0" style="fill:#e6e6e6;fill-opacity:1;fill-rule:nonzero;stroke:none;stroke-width:.35277775"/><path id="path227420" d="M 98.334144,28.643207 H 83.094427 V 157.14251 H 98.334144 Z M 98.148089,156.95648 H 83.281823 V 28.83062 h 14.866266 z m 0,0" style="fill:#ababab;fill-opacity:1;fill-rule:nonzero;stroke:none;stroke-width:.35277775"/><path id="path233122" d="m 95.556019,132.53764 c 0,-0.54984 -0.450638,-0.99907 -1.000442,-0.99907 h -7.681206 c -0.54984,0 -1.000443,0.44923 -1.000443,0.99907 v 12.17359 c 0,0.54984 0.450603,0.99908 1.000443,0.99908 h 7.681206 c 0.549804,0 1.000442,-0.44924 1.000442,-0.99908 z m 0,0" style="fill:#000;fill-opacity:1;fill-rule:nonzero;stroke:none;stroke-width:.35277775"/><path style="fill:#fff;fill-opacity:1;stroke:none;stroke-width:.35277775" id="path257825" d="m 89.028749,134.9027 c 0.496111,0 0.859896,-0.37483 0.859896,-0.83234 0,-0.45751 -0.358281,-0.82682 -0.854393,-0.82682 -0.496076,0 -0.854357,0.37483 -0.854357,0.82682 v 0.006 c 0,0.45751 0.358281,0.82682 0.848854,0.82682 z m 0.0056,-0.32522 c -0.281093,0 -0.485069,-0.23151 -0.485069,-0.50712 0,-0.27561 0.198437,-0.5016 0.479566,-0.5016 0.286632,0 0.490573,0.22599 0.490573,0.5016 v 0.006 c 0,0.2756 -0.198438,0.5016 -0.48507,0.5016 z m 0,0"/><path style="fill:#fff;fill-opacity:1;stroke:none;stroke-width:.35277775" id="path257833" d="m 90.945355,134.9027 c 0.435469,0 0.705556,-0.24254 0.705556,-0.72761 v -0.74414 c 0,-0.0992 -0.07719,-0.17638 -0.176389,-0.17638 -0.09924,0 -0.176389,0.0772 -0.176389,0.17638 v 0.76068 c 0,0.25356 -0.132291,0.38585 -0.347274,0.38585 -0.214983,0 -0.347275,-0.1378 -0.347275,-0.39687 v -0.74966 c 0,-0.0992 -0.07715,-0.17638 -0.176389,-0.17638 -0.0937,0 -0.176388,0.0772 -0.176388,0.17638 v 0.75517 c 0,0.47404 0.264583,0.71658 0.694548,0.71658 z m 0,0"/><path style="fill:#fff;fill-opacity:1;stroke:none;stroke-width:.35277775" id="path257829" d="m 92.450976,134.70977 c 0,0.0992 0.07715,0.17639 0.176388,0.17639 0.0992,0 0.176389,-0.0772 0.176389,-0.17639 v -1.11345 h 0.336233 c 0.0937,0 0.165347,-0.0717 0.165347,-0.16537 0,-0.0882 -0.07165,-0.15985 -0.165347,-0.15985 h -1.030782 c -0.08819,0 -0.159843,0.0717 -0.159843,0.15985 0,0.0937 0.07165,0.16537 0.159843,0.16537 h 0.341772 z m 0,0"/><path style="fill:#000;fill-opacity:1;stroke:none;stroke-width:.35277775" id="path257837" d="m 88.54689,58.756489 c 0,0.07717 0.06615,0.137806 0.143333,0.137806 0.07715,0 0.143299,-0.06063 0.143299,-0.137806 v -0.435456 h 0.352777 l 0.391372,0.501602 c 0.03316,0.0441 0.07165,0.07166 0.137795,0.07166 0.06615,0 0.132292,-0.04961 0.132292,-0.132292 0,-0.04409 -0.01658,-0.07166 -0.0441,-0.104733 L 89.49498,58.271421 c 0.214983,-0.07166 0.36382,-0.225997 0.36382,-0.479555 v -0.0055 c 0,-0.143317 -0.0441,-0.25907 -0.132292,-0.347266 -0.09924,-0.09922 -0.25908,-0.159853 -0.463021,-0.159853 h -0.573264 c -0.07719,0 -0.143333,0.06063 -0.143333,0.143317 z m 0.286632,-0.683506 v -0.540192 h 0.407917 c 0.209444,0 0.330729,0.09371 0.330729,0.270098 0,0.165364 -0.126789,0.270094 -0.330729,0.270094 z m 0,0"/><path style="fill:#000;fill-opacity:1;stroke:none;stroke-width:.35277775" id="path257845" d="m 90.837864,58.90532 c 0.341736,0 0.573264,-0.17639 0.573264,-0.47956 v -0.0055 c 0,-0.264584 -0.170886,-0.38585 -0.512621,-0.468535 -0.308681,-0.07165 -0.380365,-0.126778 -0.380365,-0.253558 0,-0.110244 0.09373,-0.192924 0.25908,-0.192924 0.126788,0 0.248037,0.03858 0.369322,0.121267 0.02187,0.01654 0.0441,0.02204 0.07165,0.02204 0.07719,0 0.137795,-0.06064 0.137795,-0.132291 0,-0.05512 -0.03316,-0.09371 -0.06615,-0.110244 -0.143298,-0.09922 -0.303141,-0.148831 -0.507117,-0.148831 -0.319688,0 -0.545677,0.187415 -0.545677,0.463021 v 0.0055 c 0,0.297657 0.187395,0.396875 0.529167,0.479558 0.303141,0.06614 0.363784,0.132291 0.363784,0.242533 v 0.0055 c 0,0.121269 -0.110243,0.203949 -0.281129,0.203949 -0.176389,0 -0.319687,-0.06063 -0.451979,-0.165365 -0.01658,-0.01654 -0.0441,-0.02755 -0.08269,-0.02755 -0.07165,0 -0.132291,0.06063 -0.132291,0.132292 0,0.04409 0.02187,0.08268 0.05514,0.110241 0.176388,0.132292 0.385833,0.198437 0.600816,0.198437 z m 0,0"/><path style="fill:#000;fill-opacity:1;stroke:none;stroke-width:.35277775" id="path257841" d="m 92.199692,58.756489 c 0,0.07717 0.06615,0.137806 0.143334,0.137806 0.07715,0 0.143298,-0.06063 0.143298,-0.137806 v -1.218184 h 0.391372 c 0.07165,0 0.126788,-0.06063 0.126788,-0.12678 0,-0.07166 -0.05514,-0.132292 -0.126788,-0.132292 H 91.80832 c -0.07165,0 -0.126753,0.06063 -0.126753,0.132292 0,0.06615 0.0551,0.12678 0.126753,0.12678 h 0.391372 z m 0,0"/><path style="fill:#000;fill-opacity:1;stroke:none;stroke-width:.35277775" id="path257853" d="m 89.627448,89.843441 c 0,0.07717 0.06615,0.137805 0.143334,0.137805 0.07715,0 0.143298,-0.06064 0.143298,-0.137805 v -1.350476 c 0,-0.07717 -0.06615,-0.137806 -0.143298,-0.137806 -0.07719,0 -0.143334,0.06064 -0.143334,0.137806 z m 0,0"/><path style="fill:#000;fill-opacity:1;stroke:none;stroke-width:.35277775" id="path257849" d="m 90.411109,89.843441 c 0,0.07717 0.06615,0.137805 0.143333,0.137805 0.07715,0 0.137795,-0.06064 0.137795,-0.137805 v -1.019747 l 0.826841,1.069356 c 0.03856,0.04961 0.07715,0.0882 0.143298,0.0882 h 0.01094 c 0.07715,0 0.137795,-0.06615 0.137795,-0.143317 v -1.344964 c 0,-0.07717 -0.06064,-0.137806 -0.137795,-0.137806 -0.07719,0 -0.13783,0.06064 -0.13783,0.137806 v 0.986674 l -0.804757,-1.041801 c -0.03859,-0.04961 -0.07719,-0.08268 -0.143333,-0.08268 h -0.03316 c -0.07719,0 -0.143334,0.06615 -0.143334,0.143315 z m 0,0"/><path id="path233150" d="M 90.714956,95.557986 V 125.55788" style="fill:none;stroke:#000;stroke-width:.23495001;stroke-linecap:round;stroke-linejoin:round;stroke-miterlimit:10;stroke-opacity:1"/><path style="fill:#000;fill-opacity:1;stroke:none;stroke-width:.35277775" id="path257885" d="m 89.230997,44.902307 c 0.25908,0 0.429965,-0.08268 0.578802,-0.214972 0.02752,-0.02205 0.0496,-0.06064 0.0496,-0.09922 0,-0.07166 -0.06615,-0.132291 -0.137795,-0.132291 -0.03316,0 -0.06064,0.01101 -0.08269,0.03305 -0.115746,0.09922 -0.231528,0.15434 -0.402378,0.15434 -0.303177,0 -0.529167,-0.259073 -0.529167,-0.573264 0,-0.314194 0.22599,-0.567753 0.529167,-0.567753 0.15434,0 0.27559,0.05512 0.385833,0.143316 0.01658,0.01654 0.0441,0.02755 0.08269,0.02755 0.07715,0 0.143298,-0.06064 0.143298,-0.137806 0,-0.04961 -0.02752,-0.08819 -0.0551,-0.110243 -0.143333,-0.110243 -0.303177,-0.181899 -0.551215,-0.181899 -0.485069,0 -0.82684,0.374826 -0.82684,0.826823 v 0.0055 c 0,0.463021 0.347274,0.826823 0.815798,0.826823 z m 0,0"/><path style="fill:#000;fill-opacity:1;stroke:none;stroke-width:.35277775" id="path257889" d="m 90.245656,44.731432 c 0,0.08268 0.06615,0.143316 0.143333,0.143316 h 0.8654 c 0.07165,0 0.132291,-0.05512 0.132291,-0.126781 0,-0.07166 -0.06064,-0.132292 -0.132291,-0.132292 h -0.722101 v -1.218184 c 0,-0.07717 -0.06615,-0.137805 -0.143299,-0.137805 -0.07719,0 -0.143333,0.06063 -0.143333,0.137805 z m 0,0"/><path style="fill:#000;fill-opacity:1;stroke:none;stroke-width:.35277775" id="path257893" d="m 91.721184,44.747967 c 0,0.07717 0.06615,0.137806 0.143334,0.137806 0.07715,0 0.143298,-0.06064 0.143298,-0.137806 v -0.33624 l 0.25908,-0.248048 0.51816,0.655948 c 0.02752,0.03858 0.06061,0.06615 0.115747,0.06615 0.08269,0 0.143298,-0.06064 0.143298,-0.137806 0,-0.0441 -0.01658,-0.07166 -0.03856,-0.09922 l -0.540208,-0.672486 0.496111,-0.479555 c 0.03316,-0.03305 0.0551,-0.06615 0.0551,-0.110243 0,-0.06615 -0.0551,-0.126781 -0.132292,-0.126781 -0.0496,0 -0.08269,0.01654 -0.115746,0.04961 l -0.760695,0.766187 V 43.39749 c 0,-0.07717 -0.06615,-0.137805 -0.143298,-0.137805 -0.07719,0 -0.143333,0.06063 -0.143333,0.137805 z m 0,0"/><path style="fill:#000;fill-opacity:1;stroke:none;stroke-width:.35277775" id="path257897" d="m 87.242141,38.25244 c 0.63941,0 1.085886,-0.33073 1.085886,-0.92053 v -0.01103 c 0,-0.51263 -0.336233,-0.727604 -0.937049,-0.887457 -0.512656,-0.132291 -0.63941,-0.192925 -0.63941,-0.38585 v -0.01103 c 0,-0.143316 0.126754,-0.259071 0.38033,-0.259071 0.203941,0 0.407882,0.07166 0.622865,0.198437 0.0496,0.03307 0.09924,0.04961 0.165382,0.04961 0.165347,0 0.303142,-0.132291 0.303142,-0.303168 0,-0.12678 -0.07165,-0.214974 -0.143299,-0.259071 -0.270086,-0.165365 -0.578767,-0.259071 -0.942586,-0.259071 -0.60632,0 -1.036285,0.352777 -1.036285,0.892968 v 0.0055 c 0,0.589801 0.385868,0.755165 0.981181,0.909506 0.496076,0.126779 0.600815,0.209461 0.600815,0.374826 v 0.01103 c 0,0.170877 -0.165382,0.275608 -0.429965,0.275608 -0.286632,0 -0.53467,-0.09922 -0.755156,-0.264583 -0.0441,-0.03307 -0.10474,-0.06063 -0.187396,-0.06063 -0.170885,0 -0.30868,0.132291 -0.30868,0.303168 0,0.09922 0.0551,0.192925 0.126753,0.242535 0.330729,0.237022 0.722101,0.35829 1.113472,0.358289 z m 0,0"/><path style="fill:#000;fill-opacity:1;stroke:none;stroke-width:.35277775" id="path257901" d="m 89.981073,38.25244 c 0.639409,0 1.085885,-0.33073 1.085885,-0.92053 v -0.01103 c 0,-0.51263 -0.336233,-0.727604 -0.937049,-0.887457 C 89.617253,36.301137 89.4905,36.240503 89.4905,36.047578 v -0.01103 c 0,-0.143316 0.126753,-0.259071 0.380329,-0.259071 0.203941,0 0.407882,0.07166 0.622865,0.198437 0.0496,0.03307 0.09924,0.04961 0.165382,0.04961 0.165347,0 0.303142,-0.132291 0.303142,-0.303168 0,-0.12678 -0.07165,-0.214974 -0.143298,-0.259071 -0.270087,-0.165365 -0.578767,-0.259071 -0.942587,-0.259071 -0.606319,0 -1.036285,0.352777 -1.036285,0.892968 v 0.0055 c 0,0.589801 0.385869,0.755165 0.981181,0.909506 0.496076,0.126779 0.600816,0.209461 0.600816,0.374826 v 0.01103 c 0,0.170877 -0.165382,0.275608 -0.429966,0.275608 -0.286632,0 -0.53467,-0.09922 -0.755156,-0.264583 -0.0441,-0.03307 -0.10474,-0.06063 -0.187395,-0.06063 -0.170886,0 -0.308681,0.132291 -0.308681,0.303168 0,0.09922 0.0551,0.192925 0.126753,0.242535 0.330729,0.237022 0.722101,0.35829 1.113473,0.358289 z m 0,0"/><path style="fill:#000;fill-opacity:1;stroke:none;stroke-width:.35277775" id="path257909" d="m 91.877394,37.205131 h 0.733143 c 0.17085,0 0.314184,-0.137804 0.314184,-0.308681 0,-0.170877 -0.143334,-0.30868 -0.314184,-0.30868 h -0.733143 c -0.17085,0 -0.30868,0.137803 -0.30868,0.30868 0,0.170877 0.13783,0.308681 0.30868,0.308681 z m 0,0"/><path style="fill:#000;fill-opacity:1;stroke:none;stroke-width:.35277775" id="path257905" d="m 93.142279,37.899662 c 0,0.192925 0.148837,0.30868 0.352778,0.30868 h 1.609548 c 0.15434,0 0.281129,-0.121267 0.281129,-0.281119 0,-0.154341 -0.126789,-0.28112 -0.281129,-0.28112 H 94.06832 l 0.48507,-0.374826 c 0.523663,-0.402388 0.77724,-0.650434 0.77724,-1.146528 v -0.0055 c 0,-0.556728 -0.407917,-0.915018 -1.019775,-0.915018 -0.446476,0 -0.727604,0.159853 -0.9646,0.435461 -0.04964,0.05512 -0.07719,0.132291 -0.07719,0.203949 0,0.165365 0.132292,0.292144 0.297674,0.292144 0.0992,0 0.176389,-0.0441 0.220486,-0.08819 0.165347,-0.181901 0.297639,-0.259071 0.479531,-0.259071 0.237031,0 0.402414,0.132292 0.402414,0.385851 0,0.242535 -0.148838,0.407899 -0.512657,0.711068 l -0.843351,0.689018 c -0.110243,0.08819 -0.170885,0.198438 -0.170885,0.325218 z m 0,0"/><path style="fill:#000;fill-opacity:1;stroke:none;stroke-width:.35277775" id="path257965" d="m 87.883421,73.327419 c 0,0.08268 0.06615,0.132291 0.148837,0.132291 l 0.909496,0.0055 c 0.07168,0 0.126788,-0.05512 0.126788,-0.121269 0,-0.07165 -0.0551,-0.126778 -0.126788,-0.126778 l -0.650416,-0.0055 0.330729,-0.275606 c 0.286632,-0.225997 0.418923,-0.363802 0.424427,-0.617363 0,-0.286631 -0.214983,-0.485069 -0.529167,-0.485069 -0.253541,0 -0.402378,0.09371 -0.53467,0.259072 -0.01658,0.02204 -0.02752,0.05512 -0.02752,0.08268 0,0.07166 0.0551,0.132291 0.126753,0.132291 0.0441,0 0.07719,-0.02204 0.09924,-0.0441 0.0992,-0.121266 0.187396,-0.181898 0.314184,-0.181898 0.148837,0 0.25908,0.0937 0.25908,0.253558 -0.0056,0.143317 -0.08269,0.248044 -0.303177,0.429948 l -0.496076,0.418923 c -0.04964,0.0441 -0.07169,0.0882 -0.07169,0.143316 z m 0,0"/><path style="fill:#000;fill-opacity:1;stroke:none;stroke-width:.35277775" id="path257969" d="m 89.411689,72.399496 v 0.02204 c 0,0.0882 0.06615,0.159856 0.159879,0.159856 0.0937,0 0.159844,-0.07166 0.159844,-0.159856 v -0.02204 c 0.0056,-0.0937 -0.06064,-0.159851 -0.15434,-0.159851 -0.0937,0 -0.159844,0.06615 -0.165383,0.159851 z m 0,0.892969 v 0.02204 c 0,0.09371 0.06615,0.159856 0.159879,0.159856 0.0937,0 0.159844,-0.06614 0.159844,-0.159856 v -0.02204 c 0,-0.08819 -0.06615,-0.15434 -0.159844,-0.15434 -0.09373,0 -0.159879,0.06615 -0.159879,0.15434 z m 0,0"/><path style="fill:#000;fill-opacity:1;stroke:none;stroke-width:.35277775" id="path257973" d="m 90.651492,73.492609 c 0.336267,0 0.562257,-0.20946 0.562257,-0.501603 v -0.0055 c 0,-0.297656 -0.22599,-0.424434 -0.468525,-0.457507 l 0.38033,-0.385855 c 0.0496,-0.04961 0.08269,-0.08819 0.08269,-0.15434 0,-0.07166 -0.06064,-0.121266 -0.143333,-0.121266 l -0.821302,-0.0055 c -0.06615,0 -0.121285,0.05512 -0.121285,0.121267 0,0.06615 0.05514,0.121266 0.121285,0.121266 h 0.58427 L 90.44755,72.50596 c -0.0441,0.0441 -0.06064,0.07717 -0.06064,0.115756 0,0.06614 0.05514,0.121266 0.121285,0.121266 h 0.06064 c 0.220486,0 0.369287,0.08819 0.369287,0.24805 v 0.0055 c 0,0.143314 -0.121249,0.242533 -0.281093,0.242533 -0.148837,0 -0.264583,-0.05512 -0.36382,-0.15434 -0.02187,-0.02204 -0.0551,-0.03858 -0.0937,-0.03858 -0.07165,0 -0.137795,0.06615 -0.137795,0.137803 0,0.03859 0.02187,0.07717 0.0496,0.09922 0.126789,0.12678 0.308681,0.209463 0.540174,0.209463 z m 0,0"/><path style="fill:#000;fill-opacity:1;stroke:none;stroke-width:.35277775" id="path257981" d="m 91.557883,72.404817 v 0.02204 c 0,0.08819 0.06615,0.159853 0.159879,0.159853 0.0937,0 0.159844,-0.07166 0.159844,-0.159853 v -0.02204 c 0.0056,-0.0937 -0.06064,-0.159851 -0.15434,-0.159851 -0.0937,0 -0.159844,0.06615 -0.165383,0.159851 z m 0,0.892968 v 0.02204 c 0,0.09371 0.06615,0.159854 0.159879,0.159854 0.0937,0 0.159844,-0.06615 0.159844,-0.159854 v -0.02204 c 0,-0.0882 -0.06615,-0.154342 -0.159844,-0.154342 -0.09373,0 -0.159879,0.06615 -0.159879,0.154342 z m 0,0"/><path style="fill:#000;fill-opacity:1;stroke:none;stroke-width:.35277775" id="path257977" d="m 93.001062,73.349033 c 0,0.07717 0.06064,0.132291 0.137795,0.132291 0.07719,0.0055 0.132291,-0.04961 0.132291,-0.12678 v -0.237022 h 0.126789 c 0.06615,0 0.115746,-0.04961 0.115746,-0.115758 0,-0.06614 -0.0496,-0.115752 -0.115746,-0.115752 h -0.126789 l 0.0056,-0.903994 c 0,-0.07717 -0.06061,-0.132292 -0.132292,-0.137806 -0.08266,0 -0.126752,0.02755 -0.176388,0.0882 l -0.760616,0.898479 c -0.03859,0.0441 -0.06064,0.0937 -0.06064,0.148826 0,0.07717 0.06064,0.132291 0.137795,0.132291 h 0.716598 z m -0.523663,-0.468535 0.529166,-0.639411 -0.0056,0.639411 z m 0,0"/></g><g id="layer3" style="display:none"><rect style="opacity:1;vector-effect:none;fill:#0f0;fill-opacity:.50196078;fill-rule:evenodd;stroke:none;stroke-width:.22184688;stroke-linecap:round;stroke-linejoin:miter;stroke-miterlimit:10;stroke-dasharray:none;stroke-dashoffset:0;stroke-opacity:1;paint-order:normal" id="rect264416" width="8.212" height="8.21" x="3.514" y="17.694"/><rect id="rect264961" width="8.212" height="8.21" x="3.514" y="32.191" style="opacity:1;vector-effect:none;fill:#0f0;fill-opacity:.50196078;fill-rule:evenodd;stroke:none;stroke-width:.22184688;stroke-linecap:round;stroke-linejoin:miter;stroke-miterlimit:10;stroke-dasharray:none;stroke-dashoffset:0;stroke-opacity:1;paint-order:normal"/><rect style="opacity:1;vector-effect:none;fill:#0f0;fill-opacity:.50196078;fill-rule:evenodd;stroke:none;stroke-width:.22184688;stroke-linecap:round;stroke-linejoin:miter;stroke-miterlimit:10;stroke-dasharray:none;stroke-dashoffset:0;stroke-opacity:1;paint-order:normal" id="rect264963" width="8.212" height="8.21" x="3.514" y="62.811"/><rect id="rect264965" width="8.212" height="8.21" x="3.514" y="72.811" style="opacity:1;vector-effect:none;fill:#0f0;fill-opacity:.50196078;fill-rule:evenodd;stroke:none;stroke-width:.22184688;stroke-linecap:round;stroke-linejoin:miter;stroke-miterlimit:10;stroke-dasharray:none;stroke-dashoffset:0;stroke-opacity:1;paint-order:normal"/><rect style="opacity:1;vector-effect:none;fill:#0f0;fill-opacity:.50196078;fill-rule:evenodd;stroke:none;stroke-width:.22184688;stroke-linecap:round;stroke-linejoin:miter;stroke-miterlimit:10;stroke-dasharray:none;stroke-dashoffset:0;stroke-opacity:1;paint-order:normal" id="rect264967" width="8.212" height="8.21" x="3.514" y="82.809"/><rect id="rect264969" width="8.212" height="8.21" x="3.514" y="92.811" style="opacity:1;vector-effect:none;fill:#0f0;fill-opacity:.50196078;fill-rule:evenodd;stroke:none;stroke-width:.22184688;stroke-linecap:round;stroke-linejoin:miter;stroke-miterlimit:10;stroke-dasharray:none;stroke-dashoffset:0;stroke-opacity:1;paint-order:normal"/><rect style="opacity:1;vector-effect:none;fill:#00f;fill-opacity:.50196078;fill-rule:evenodd;stroke:none;stroke-width:.22184688;stroke-linecap:round;stroke-linejoin:miter;stroke-miterlimit:10;stroke-dasharray:none;stroke-dashoffset:0;stroke-opacity:1;paint-order:normal" id="rect264971" width="8.212" height="8.21" x="3.514" y="107.622"/><rect style="opacity:1;vector-effect:none;fill:red;fill-opacity:.50196078;fill-rule:evenodd;stroke:none;stroke-width:.18616091;stroke-linecap:round;stroke-linejoin:miter;stroke-miterlimit:10;stroke-dasharray:none;stroke-dashoffset:0;stroke-opacity:1;paint-order:normal" id="rect264973" width="4.747" height="10" x="5.246" y="46.915"/><rect id="rect264975" width="1.175" height="1.175" x="10.732" y="62.628" style="opacity:1;vector-effect:none;fill:#f0f;fill-opacity:.50196078;fill-rule:evenodd;stroke:none;stroke-width:.0317592;stroke-linecap:round;stroke-linejoin:miter;stroke-miterlimit:10;stroke-dasharray:none;stroke-dashoffset:0;stroke-opacity:1;paint-order:normal"/><rect style="opacity:1;vector-effect:none;fill:#f0f;fill-opacity:.50196078;fill-rule:evenodd;stroke:none;stroke-width:.0317592;stroke-linecap:round;stroke-linejoin:miter;stroke-miterlimit:10;stroke-dasharray:none;stroke-dashoffset:0;stroke-opacity:1;paint-order:normal" id="rect264977" width="1.175" height="1.175" x="10.732" y="72.628"/><rect id="rect264979" width="1.175" height="1.175" x="10.732" y="82.629" style="opacity:1;vector-effect:none;fill:#f0f;fill-opacity:.50196078;fill-rule:evenodd;stroke:none;stroke-width:.0317592;stroke-linecap:round;stroke-linejoin:miter;stroke-miterlimit:10;stroke-dasharray:none;stroke-dashoffset:0;stroke-opacity:1;paint-order:normal"/><rect style="opacity:1;vector-effect:none;fill:#f0f;fill-opacity:.50196078;fill-rule:evenodd;stroke:none;stroke-width:.0317592;stroke-linecap:round;stroke-linejoin:miter;stroke-miterlimit:10;stroke-dasharray:none;stroke-dashoffset:0;stroke-opacity:1;paint-order:normal" id="rect264981" width="1.175" height="1.175" x="10.732" y="92.628"/></g></svg>