<svg xmlns="http://www.w3.org/2000/svg" xmlns:svg="http://www.w3.org/2000/svg" id="svg47416" width="96" height="485.667" version="1.1" viewBox="0 0 25.4 128.499"><defs id="defs47410"><clipPath id="clip465"><path id="path3835" d="M 0.03125,0.253906 H 22.710938 V 24.992188 H 0.03125 Z m 0,0"/></clipPath><clipPath id="clip467"><path id="path3851" d="m 0.246094,0.488281 h 16.25 v 15.101563 h -16.25 z m 0,0"/></clipPath><clipPath id="clip469"><path id="path3867" d="M 0.03125,0.828125 H 22.710938 V 25.570312 H 0.03125 Z m 0,0"/></clipPath><clipPath id="clip471"><path id="path3883" d="m 0.246094,0.0664062 h 16.25 V 15.164062 h -16.25 z m 0,0"/></clipPath><clipPath id="clip473"><path id="path3899" d="M 0.996094,0.253906 H 23.675781 V 24.992188 H 0.996094 Z m 0,0"/></clipPath><clipPath id="clip475"><path id="path3915" d="m 0.210938,0.488281 h 16.25 v 15.101563 h -16.25 z m 0,0"/></clipPath><clipPath id="clip477"><path id="path3931" d="M 0.996094,0.828125 H 23.675781 V 25.570312 H 0.996094 Z m 0,0"/></clipPath><clipPath id="clip479"><path id="path3947" d="m 0.210938,0.0664062 h 16.25 V 15.164062 h -16.25 z m 0,0"/></clipPath><clipPath id="clip481"><path id="path3963" d="M 0.03125,0.382812 H 22.710938 V 25.121094 H 0.03125 Z m 0,0"/></clipPath><clipPath id="clip483"><path id="path3979" d="m 0.246094,0.617188 h 16.25 V 15.71875 h -16.25 z m 0,0"/></clipPath><clipPath id="clip485"><path id="path3995" d="M 0.03125,0.957031 H 22.710938 V 25.699219 H 0.03125 Z m 0,0"/></clipPath><clipPath id="clip487"><path id="path4011" d="m 0.246094,0.195312 h 16.25 v 15.097657 h -16.25 z m 0,0"/></clipPath><clipPath id="clip489"><path id="path4027" d="M 0.996094,0.382812 H 23.675781 V 25.121094 H 0.996094 Z m 0,0"/></clipPath><clipPath id="clip491"><path id="path4043" d="m 0.210938,0.617188 h 16.25 V 15.71875 h -16.25 z m 0,0"/></clipPath><clipPath id="clip493"><path id="path4059" d="M 0.996094,0.957031 H 23.675781 V 25.699219 H 0.996094 Z m 0,0"/></clipPath><clipPath id="clip495"><path id="path4075" d="m 0.210938,0.195312 h 16.25 v 15.097657 h -16.25 z m 0,0"/></clipPath><clipPath id="clip465-3"><path id="path3835-6" d="M 0.03125,0.253906 H 22.710938 V 24.992188 H 0.03125 Z m 0,0"/></clipPath><clipPath id="clip467-7"><path id="path3851-5" d="m 0.246094,0.488281 h 16.25 v 15.101563 h -16.25 z m 0,0"/></clipPath><clipPath id="clip469-3"><path id="path3867-5" d="M 0.03125,0.828125 H 22.710938 V 25.570312 H 0.03125 Z m 0,0"/></clipPath><clipPath id="clip471-6"><path id="path3883-2" d="m 0.246094,0.0664062 h 16.25 V 15.164062 h -16.25 z m 0,0"/></clipPath><clipPath id="clip473-9"><path id="path3899-1" d="M 0.996094,0.253906 H 23.675781 V 24.992188 H 0.996094 Z m 0,0"/></clipPath><clipPath id="clip475-2"><path id="path3915-7" d="m 0.210938,0.488281 h 16.25 v 15.101563 h -16.25 z m 0,0"/></clipPath><clipPath id="clip477-0"><path id="path3931-9" d="M 0.996094,0.828125 H 23.675781 V 25.570312 H 0.996094 Z m 0,0"/></clipPath><clipPath id="clip479-3"><path id="path3947-6" d="m 0.210938,0.0664062 h 16.25 V 15.164062 h -16.25 z m 0,0"/></clipPath><clipPath id="clip481-0"><path id="path3963-6" d="M 0.03125,0.382812 H 22.710938 V 25.121094 H 0.03125 Z m 0,0"/></clipPath><clipPath id="clip483-2"><path id="path3979-6" d="m 0.246094,0.617188 h 16.25 V 15.71875 h -16.25 z m 0,0"/></clipPath><clipPath id="clip485-1"><path id="path3995-8" d="M 0.03125,0.957031 H 22.710938 V 25.699219 H 0.03125 Z m 0,0"/></clipPath><clipPath id="clip487-7"><path id="path4011-9" d="m 0.246094,0.195312 h 16.25 v 15.097657 h -16.25 z m 0,0"/></clipPath><clipPath id="clip489-2"><path id="path4027-0" d="M 0.996094,0.382812 H 23.675781 V 25.121094 H 0.996094 Z m 0,0"/></clipPath><clipPath id="clip491-2"><path id="path4043-3" d="m 0.210938,0.617188 h 16.25 V 15.71875 h -16.25 z m 0,0"/></clipPath><clipPath id="clip493-7"><path id="path4059-5" d="M 0.996094,0.957031 H 23.675781 V 25.699219 H 0.996094 Z m 0,0"/></clipPath><clipPath id="clip495-9"><path id="path4075-2" d="m 0.210938,0.195312 h 16.25 v 15.097657 h -16.25 z m 0,0"/></clipPath></defs><metadata id="metadata47413"/><g id="layer1" transform="translate(-331.91936,46.631807)"><path style="fill:#e6e6e6;fill-opacity:1;fill-rule:nonzero;stroke:none;stroke-width:.35277778" id="path26769" d="m 332.01168,-46.5381 h 25.21395 V 81.775178 h -25.21395 z m 0,0"/><path style="fill:#ababab;fill-opacity:1;fill-rule:nonzero;stroke:none;stroke-width:.35277778" id="path26771" d="m 357.31936,-46.631807 h -25.4 V 81.867508 h 25.4 z M 357.13193,81.681468 H 332.10538 V -46.444394 h 25.02655 z m 0,0"/><g id="use28517" transform="matrix(0.3527778,0,0,0.3527778,337.84474,-37.066671)" style="fill:#000;fill-opacity:1"><path id="path51483" d="m 4.296875,0.125 h 0.125 c 0.5,0 0.84375,-0.265625 1.03125,-0.71875 l 2.75,-6.578125 C 8.25,-7.28125 8.296875,-7.4375 8.296875,-7.578125 c 0,-0.515625 -0.40625,-0.890625 -0.90625,-0.890625 -0.4375,0 -0.765625,0.28125 -0.890625,0.578125 l -2.125,5.5 -2.09375,-5.4375 c -0.140625,-0.375 -0.453125,-0.640625 -0.9375,-0.640625 -0.515625,0 -0.921875,0.390625 -0.921875,0.90625 0,0.15625 0.046875,0.296875 0.109375,0.453125 L 3.25,-0.59375 C 3.4375,-0.140625 3.796875,0.125 4.296875,0.125 Z m 0,0" style="stroke:none"/></g><g id="use28521" transform="matrix(0.3527778,0,0,0.3527778,340.80765,-37.066671)" style="fill:#000;fill-opacity:1"><path id="path51479" d="m 4.9375,0.140625 c 1.34375,0 2.234375,-0.390625 3,-1.046875 0.15625,-0.15625 0.3125,-0.375 0.3125,-0.671875 0,-0.46875 -0.40625,-0.84375 -0.875,-0.84375 -0.21875,0 -0.40625,0.078125 -0.546875,0.203125 C 6.296875,-1.796875 5.78125,-1.5625 5,-1.5625 c -1.4375,0 -2.4375,-1.203125 -2.4375,-2.640625 V -4.21875 c 0,-1.4375 1.03125,-2.625 2.4375,-2.625 0.65625,0 1.203125,0.21875 1.71875,0.609375 C 6.859375,-6.15625 7.015625,-6.0625 7.265625,-6.0625 7.78125,-6.0625 8.1875,-6.453125 8.1875,-6.953125 8.1875,-7.28125 8.015625,-7.546875 7.828125,-7.6875 7.125,-8.203125 6.28125,-8.546875 5.015625,-8.546875 c -2.578125,0 -4.375,1.953125 -4.375,4.34375 v 0.03125 c 0,2.40625 1.828125,4.3125 4.296875,4.3125 z m 0,0" style="stroke:none"/></g><g id="use28525" transform="matrix(0.3527778,0,0,0.3527778,343.95301,-37.066671)" style="fill:#000;fill-opacity:1"><path id="path51475" d="m 0.4375,-0.796875 c 0,0.484375 0.359375,0.875 0.84375,0.875 0.390625,0 0.703125,-0.21875 0.859375,-0.578125 L 2.71875,-1.890625 h 3.703125 l 0.5625,1.328125 C 7.15625,-0.1875 7.4375,0.078125 7.875,0.078125 c 0.484375,0 0.875,-0.40625 0.875,-0.890625 0,-0.125 -0.03125,-0.25 -0.09375,-0.375 L 5.71875,-7.796875 C 5.515625,-8.25 5.15625,-8.53125 4.65625,-8.53125 H 4.546875 c -0.5,0 -0.875,0.28125 -1.078125,0.734375 L 0.546875,-1.1875 C 0.484375,-1.0625 0.4375,-0.921875 0.4375,-0.796875 Z m 2.96875,-2.71875 1.171875,-2.765625 1.15625,2.765625 z m 0,0" style="stroke:none"/></g><g id="use28529" transform="matrix(0.3527778,0,0,0.3527778,347.17971,-37.066671)" style="fill:#000;fill-opacity:1"><path id="path51467" d="m 1.40625,-2.84375 h 2.078125 c 0.484375,0 0.890625,-0.390625 0.890625,-0.875 0,-0.484375 -0.40625,-0.875 -0.890625,-0.875 H 1.40625 c -0.484375,0 -0.875,0.390625 -0.875,0.875 0,0.484375 0.390625,0.875 0.875,0.875 z m 0,0" style="stroke:none"/></g><g id="use28531" transform="matrix(0.3527778,0,0,0.3527778,348.75869,-37.066671)" style="fill:#000;fill-opacity:1"><path id="path51471" d="m 0.515625,-0.875 c 0,0.546875 0.421875,0.875 1,0.875 h 4.5625 C 6.515625,0 6.875,-0.34375 6.875,-0.796875 c 0,-0.4375 -0.359375,-0.796875 -0.796875,-0.796875 h -2.9375 l 1.375,-1.0625 C 6,-3.796875 6.71875,-4.5 6.71875,-5.90625 v -0.015625 c 0,-1.578125 -1.15625,-2.59375 -2.890625,-2.59375 -1.265625,0 -2.0625,0.453125 -2.734375,1.234375 -0.140625,0.15625 -0.21875,0.375 -0.21875,0.578125 0,0.46875 0.375,0.828125 0.84375,0.828125 0.28125,0 0.5,-0.125 0.625,-0.25 0.46875,-0.515625 0.84375,-0.734375 1.359375,-0.734375 0.671875,0 1.140625,0.375 1.140625,1.09375 0,0.6875 -0.421875,1.15625 -1.453125,2.015625 L 1,-1.796875 c -0.3125,0.25 -0.484375,0.5625 -0.484375,0.921875 z m 0,0" style="stroke:none"/></g><g id="use28535" transform="matrix(0.3527778,0,0,0.3527778,339.83546,-30.54374)" style="fill:#000;fill-opacity:1"><path id="path51463" d="m 0.71875,-0.5 c 0,0.28125 0.21875,0.5 0.5,0.5 h 3.015625 c 0.25,0 0.453125,-0.203125 0.453125,-0.453125 0,-0.25 -0.203125,-0.4375 -0.453125,-0.4375 H 1.703125 V -5.15625 c 0,-0.265625 -0.21875,-0.484375 -0.484375,-0.484375 -0.28125,0 -0.5,0.21875 -0.5,0.484375 z m 0,0" style="stroke:none"/></g><g id="use28539" transform="matrix(0.3527778,0,0,0.3527778,341.62931,-30.54374)" style="fill:#000;fill-opacity:1"><path id="path51459" d="m 1.21875,0 h 3.296875 c 0.234375,0 0.4375,-0.1875 0.4375,-0.4375 0,-0.25 -0.203125,-0.4375 -0.4375,-0.4375 h -2.8125 v -1.515625 h 2.40625 c 0.25,0 0.4375,-0.1875 0.4375,-0.421875 0,-0.25 -0.1875,-0.453125 -0.4375,-0.453125 H 1.703125 V -4.71875 H 4.46875 c 0.25,0 0.4375,-0.1875 0.4375,-0.4375 0,-0.25 -0.1875,-0.4375 -0.4375,-0.4375 h -3.25 c -0.28125,0 -0.5,0.203125 -0.5,0.484375 V -0.5 c 0,0.28125 0.21875,0.5 0.5,0.5 z m 0,0" style="stroke:none"/></g><g id="use28543" transform="matrix(0.3527778,0,0,0.3527778,343.60173,-30.54374)" style="fill:#000;fill-opacity:1"><path id="path51455" d="m 2.90625,0.078125 h 0.046875 c 0.28125,0 0.46875,-0.15625 0.578125,-0.390625 L 5.5,-4.953125 c 0.015625,-0.0625 0.046875,-0.140625 0.046875,-0.21875 0,-0.265625 -0.21875,-0.46875 -0.484375,-0.46875 -0.234375,0 -0.421875,0.15625 -0.484375,0.328125 L 2.9375,-1.25 1.328125,-5.28125 c -0.078125,-0.21875 -0.25,-0.359375 -0.5,-0.359375 -0.28125,0 -0.5,0.21875 -0.5,0.484375 0,0.078125 0.03125,0.15625 0.0625,0.234375 L 2.34375,-0.3125 c 0.109375,0.234375 0.28125,0.390625 0.5625,0.390625 z m 0,0" style="stroke:none"/></g><g id="use28547" transform="matrix(0.3527778,0,0,0.3527778,345.70823,-30.54374)" style="fill:#000;fill-opacity:1"><path id="path51451" d="m 1.21875,0 h 3.296875 c 0.234375,0 0.4375,-0.1875 0.4375,-0.4375 0,-0.25 -0.203125,-0.4375 -0.4375,-0.4375 h -2.8125 v -1.515625 h 2.40625 c 0.25,0 0.4375,-0.1875 0.4375,-0.421875 0,-0.25 -0.1875,-0.453125 -0.4375,-0.453125 H 1.703125 V -4.71875 H 4.46875 c 0.25,0 0.4375,-0.1875 0.4375,-0.4375 0,-0.25 -0.1875,-0.4375 -0.4375,-0.4375 h -3.25 c -0.28125,0 -0.5,0.203125 -0.5,0.484375 V -0.5 c 0,0.28125 0.21875,0.5 0.5,0.5 z m 0,0" style="stroke:none"/></g><g id="use28551" transform="matrix(0.3527778,0,0,0.3527778,347.65697,-30.54374)" style="fill:#000;fill-opacity:1"><path id="path51447" d="m 0.71875,-0.5 c 0,0.28125 0.21875,0.5 0.5,0.5 h 3.015625 c 0.25,0 0.453125,-0.203125 0.453125,-0.453125 0,-0.25 -0.203125,-0.4375 -0.453125,-0.4375 H 1.703125 V -5.15625 c 0,-0.265625 -0.21875,-0.484375 -0.484375,-0.484375 -0.28125,0 -0.5,0.21875 -0.5,0.484375 z m 0,0" style="stroke:none"/></g><g id="use28555" transform="matrix(0.3527778,0,0,0.3527778,339.83546,24.929857)" style="fill:#000;fill-opacity:1"><path id="path51443" d="m 0.71875,-0.5 c 0,0.28125 0.21875,0.5 0.5,0.5 h 3.015625 c 0.25,0 0.453125,-0.203125 0.453125,-0.453125 0,-0.25 -0.203125,-0.4375 -0.453125,-0.4375 H 1.703125 V -5.15625 c 0,-0.265625 -0.21875,-0.484375 -0.484375,-0.484375 -0.28125,0 -0.5,0.21875 -0.5,0.484375 z m 0,0" style="stroke:none"/></g><g id="use28559" transform="matrix(0.3527778,0,0,0.3527778,341.62931,24.929857)" style="fill:#000;fill-opacity:1"><path id="path51439" d="m 1.21875,0 h 3.296875 c 0.234375,0 0.4375,-0.1875 0.4375,-0.4375 0,-0.25 -0.203125,-0.4375 -0.4375,-0.4375 h -2.8125 v -1.515625 h 2.40625 c 0.25,0 0.4375,-0.1875 0.4375,-0.421875 0,-0.25 -0.1875,-0.453125 -0.4375,-0.453125 H 1.703125 V -4.71875 H 4.46875 c 0.25,0 0.4375,-0.1875 0.4375,-0.4375 0,-0.25 -0.1875,-0.4375 -0.4375,-0.4375 h -3.25 c -0.28125,0 -0.5,0.203125 -0.5,0.484375 V -0.5 c 0,0.28125 0.21875,0.5 0.5,0.5 z m 0,0" style="stroke:none"/></g><g id="use28563" transform="matrix(0.3527778,0,0,0.3527778,343.60173,24.929857)" style="fill:#000;fill-opacity:1"><path id="path51435" d="m 2.90625,0.078125 h 0.046875 c 0.28125,0 0.46875,-0.15625 0.578125,-0.390625 L 5.5,-4.953125 c 0.015625,-0.0625 0.046875,-0.140625 0.046875,-0.21875 0,-0.265625 -0.21875,-0.46875 -0.484375,-0.46875 -0.234375,0 -0.421875,0.15625 -0.484375,0.328125 L 2.9375,-1.25 1.328125,-5.28125 c -0.078125,-0.21875 -0.25,-0.359375 -0.5,-0.359375 -0.28125,0 -0.5,0.21875 -0.5,0.484375 0,0.078125 0.03125,0.15625 0.0625,0.234375 L 2.34375,-0.3125 c 0.109375,0.234375 0.28125,0.390625 0.5625,0.390625 z m 0,0" style="stroke:none"/></g><g id="use28567" transform="matrix(0.3527778,0,0,0.3527778,345.70823,24.929857)" style="fill:#000;fill-opacity:1"><path id="path51431" d="m 1.21875,0 h 3.296875 c 0.234375,0 0.4375,-0.1875 0.4375,-0.4375 0,-0.25 -0.203125,-0.4375 -0.4375,-0.4375 h -2.8125 v -1.515625 h 2.40625 c 0.25,0 0.4375,-0.1875 0.4375,-0.421875 0,-0.25 -0.1875,-0.453125 -0.4375,-0.453125 H 1.703125 V -4.71875 H 4.46875 c 0.25,0 0.4375,-0.1875 0.4375,-0.4375 0,-0.25 -0.1875,-0.4375 -0.4375,-0.4375 h -3.25 c -0.28125,0 -0.5,0.203125 -0.5,0.484375 V -0.5 c 0,0.28125 0.21875,0.5 0.5,0.5 z m 0,0" style="stroke:none"/></g><g id="use28571" transform="matrix(0.3527778,0,0,0.3527778,347.65697,24.929857)" style="fill:#000;fill-opacity:1"><path id="path51427" d="m 0.71875,-0.5 c 0,0.28125 0.21875,0.5 0.5,0.5 h 3.015625 c 0.25,0 0.453125,-0.203125 0.453125,-0.453125 0,-0.25 -0.203125,-0.4375 -0.453125,-0.4375 H 1.703125 V -5.15625 c 0,-0.265625 -0.21875,-0.484375 -0.484375,-0.484375 -0.28125,0 -0.5,0.21875 -0.5,0.484375 z m 0,0" style="stroke:none"/></g><path style="fill:#000;fill-opacity:1;fill-rule:nonzero;stroke:none;stroke-width:.35277778" id="path29797" d="m 355.46315,57.787664 c 0,-0.549838 -0.45064,-1.000455 -1.00048,-1.000455 h -7.68117 c -0.54984,0 -1.00048,0.450617 -1.00048,1.000455 v 12.172214 c 0,0.54984 0.45064,1.00045 1.00048,1.00045 h 7.68117 c 0.54984,0 1.00048,-0.45061 1.00048,-1.00045 z m 0,0"/><g id="use29799" transform="matrix(0.3527778,0,0,0.3527778,347.96693,59.873978)" style="fill:#e6e6e6;fill-opacity:1"><path id="path51423" d="m 2.75,0.078125 c 1.40625,0 2.4375,-1.0625 2.4375,-2.359375 0,-1.296875 -1.015625,-2.34375 -2.421875,-2.34375 -1.40625,0 -2.421875,1.0625 -2.421875,2.34375 v 0.015625 c 0,1.296875 1.015625,2.34375 2.40625,2.34375 z M 2.765625,-0.84375 c -0.796875,0 -1.375,-0.65625 -1.375,-1.4375 0,-0.78125 0.5625,-1.421875 1.359375,-1.421875 0.8125,0 1.390625,0.640625 1.390625,1.421875 v 0.015625 c 0,0.78125 -0.5625,1.421875 -1.375,1.421875 z m 0,0" style="stroke:none"/></g><g id="use29803" transform="matrix(0.3527778,0,0,0.3527778,349.99377,59.873978)" style="fill:#e6e6e6;fill-opacity:1"><path id="path51415" d="m 2.4375,0.078125 c 1.234375,0 2,-0.6875 2,-2.0625 V -4.09375 c 0,-0.28125 -0.21875,-0.5 -0.5,-0.5 -0.28125,0 -0.5,0.21875 -0.5,0.5 v 2.15625 c 0,0.71875 -0.375,1.09375 -0.984375,1.09375 -0.609375,0 -0.984375,-0.390625 -0.984375,-1.125 v -2.125 c 0,-0.28125 -0.21875,-0.5 -0.5,-0.5 -0.265625,0 -0.5,0.21875 -0.5,0.5 v 2.140625 c 0,1.34375 0.75,2.03125 1.96875,2.03125 z m 0,0" style="stroke:none"/></g><g id="use29805" transform="matrix(0.3527778,0,0,0.3527778,351.79151,59.873978)" style="fill:#e6e6e6;fill-opacity:1"><path id="path51419" d="m 1.609375,-0.46875 c 0,0.28125 0.21875,0.5 0.5,0.5 0.28125,0 0.5,-0.21875 0.5,-0.5 V -3.625 H 3.5625 c 0.265625,0 0.46875,-0.203125 0.46875,-0.46875 0,-0.25 -0.203125,-0.453125 -0.46875,-0.453125 H 0.640625 c -0.25,0 -0.453125,0.203125 -0.453125,0.453125 0,0.265625 0.203125,0.46875 0.453125,0.46875 h 0.96875 z m 0,0" style="stroke:none"/></g><path style="fill:#000;fill-opacity:1;fill-rule:nonzero;stroke:none;stroke-width:.35277778" id="path29831" d="m 355.46315,2.4470229 c 0,-0.549836 -0.45064,-1.000453 -1.00048,-1.000453 h -7.68117 c -0.54984,0 -1.00048,0.450617 -1.00048,1.000453 V 14.619237 c 0,0.549836 0.45064,1.000456 1.00048,1.000456 h 7.68117 c 0.54984,0 1.00048,-0.45062 1.00048,-1.000456 z m 0,0"/><g id="use29833" transform="matrix(0.3527778,0,0,0.3527778,347.96693,4.5333419)" style="fill:#e6e6e6;fill-opacity:1"><path id="path51411" d="m 2.75,0.078125 c 1.40625,0 2.4375,-1.0625 2.4375,-2.359375 0,-1.296875 -1.015625,-2.34375 -2.421875,-2.34375 -1.40625,0 -2.421875,1.0625 -2.421875,2.34375 v 0.015625 c 0,1.296875 1.015625,2.34375 2.40625,2.34375 z M 2.765625,-0.84375 c -0.796875,0 -1.375,-0.65625 -1.375,-1.4375 0,-0.78125 0.5625,-1.421875 1.359375,-1.421875 0.8125,0 1.390625,0.640625 1.390625,1.421875 v 0.015625 c 0,0.78125 -0.5625,1.421875 -1.375,1.421875 z m 0,0" style="stroke:none"/></g><g id="use29837" transform="matrix(0.3527778,0,0,0.3527778,349.99377,4.5333419)" style="fill:#e6e6e6;fill-opacity:1"><path id="path51403" d="m 2.4375,0.078125 c 1.234375,0 2,-0.6875 2,-2.0625 V -4.09375 c 0,-0.28125 -0.21875,-0.5 -0.5,-0.5 -0.28125,0 -0.5,0.21875 -0.5,0.5 v 2.15625 c 0,0.71875 -0.375,1.09375 -0.984375,1.09375 -0.609375,0 -0.984375,-0.390625 -0.984375,-1.125 v -2.125 c 0,-0.28125 -0.21875,-0.5 -0.5,-0.5 -0.265625,0 -0.5,0.21875 -0.5,0.5 v 2.140625 c 0,1.34375 0.75,2.03125 1.96875,2.03125 z m 0,0" style="stroke:none"/></g><g id="use29839" transform="matrix(0.3527778,0,0,0.3527778,351.79151,4.5333419)" style="fill:#e6e6e6;fill-opacity:1"><path id="path51407" d="m 1.609375,-0.46875 c 0,0.28125 0.21875,0.5 0.5,0.5 0.28125,0 0.5,-0.21875 0.5,-0.5 V -3.625 H 3.5625 c 0.265625,0 0.46875,-0.203125 0.46875,-0.46875 0,-0.25 -0.203125,-0.453125 -0.46875,-0.453125 H 0.640625 c -0.25,0 -0.453125,0.203125 -0.453125,0.453125 0,0.265625 0.203125,0.46875 0.453125,0.46875 h 0.96875 z m 0,0" style="stroke:none"/></g><g id="use29843" transform="matrix(0.3527778,0,0,0.3527778,348.58148,-10.474709)" style="fill:#000;fill-opacity:1"><path id="path51395" d="M 0.578125,-0.40625 C 0.578125,-0.171875 0.765625,0 0.984375,0 H 3.4375 c 0.203125,0 0.375,-0.15625 0.375,-0.359375 0,-0.203125 -0.171875,-0.375 -0.375,-0.375 H 1.390625 V -4.1875 c 0,-0.21875 -0.1875,-0.390625 -0.40625,-0.390625 -0.21875,0 -0.40625,0.171875 -0.40625,0.390625 z m 0,0" style="stroke:none"/></g><g id="use29845" transform="matrix(0.3527778,0,0,0.3527778,350.04901,-10.474709)" style="fill:#000;fill-opacity:1"><path id="path51399" d="m 0.625,-0.359375 c 0,0.21875 0.1875,0.390625 0.40625,0.390625 0.21875,0 0.40625,-0.171875 0.40625,-0.390625 V -4.1875 c 0,-0.21875 -0.1875,-0.390625 -0.40625,-0.390625 -0.21875,0 -0.40625,0.171875 -0.40625,0.390625 z m 0,0" style="stroke:none"/></g><g id="use29849" transform="matrix(0.3527778,0,0,0.3527778,350.84954,-10.474709)" style="fill:#000;fill-opacity:1"><path id="path51391" d="m 0.578125,-0.359375 c 0,0.21875 0.1875,0.390625 0.40625,0.390625 0.21875,0 0.390625,-0.171875 0.390625,-0.390625 V -3.25 l 2.34375,3.03125 c 0.109375,0.140625 0.21875,0.25 0.40625,0.25 h 0.03125 c 0.21875,0 0.390625,-0.1875 0.390625,-0.40625 v -3.8125 c 0,-0.21875 -0.171875,-0.390625 -0.390625,-0.390625 -0.21875,0 -0.390625,0.171875 -0.390625,0.390625 v 2.796875 L 1.484375,-4.34375 C 1.375,-4.484375 1.265625,-4.578125 1.078125,-4.578125 h -0.09375 c -0.21875,0 -0.40625,0.1875 -0.40625,0.40625 z m 0,0" style="stroke:none"/></g><g id="use29853" transform="matrix(0.3527778,0,0,0.3527778,337.3088,5.0332269)" style="fill:#000;fill-opacity:1"><path id="path51383" d="m 0.625,-0.359375 c 0,0.21875 0.1875,0.390625 0.40625,0.390625 0.21875,0 0.40625,-0.171875 0.40625,-0.390625 V -4.1875 c 0,-0.21875 -0.1875,-0.390625 -0.40625,-0.390625 -0.21875,0 -0.40625,0.171875 -0.40625,0.390625 z m 0,0" style="stroke:none"/></g><g id="use29855" transform="matrix(0.3527778,0,0,0.3527778,338.10908,5.0332269)" style="fill:#000;fill-opacity:1"><path id="path51387" d="m 0.578125,-0.359375 c 0,0.21875 0.1875,0.390625 0.40625,0.390625 0.21875,0 0.390625,-0.171875 0.390625,-0.390625 V -3.25 l 2.34375,3.03125 c 0.109375,0.140625 0.21875,0.25 0.40625,0.25 h 0.03125 c 0.21875,0 0.390625,-0.1875 0.390625,-0.40625 v -3.8125 c 0,-0.21875 -0.171875,-0.390625 -0.390625,-0.390625 -0.21875,0 -0.390625,0.171875 -0.390625,0.390625 v 2.796875 L 1.484375,-4.34375 C 1.375,-4.484375 1.265625,-4.578125 1.078125,-4.578125 h -0.09375 c -0.21875,0 -0.40625,0.1875 -0.40625,0.40625 z m 0,0" style="stroke:none"/></g><g id="use29859" transform="matrix(0.3527778,0,0,0.3527778,336.20125,-10.474709)" style="fill:#000;fill-opacity:1"><path id="path51379" d="m 0.984375,0 h 2.6875 c 0.1875,0 0.359375,-0.15625 0.359375,-0.359375 0,-0.1875 -0.171875,-0.359375 -0.359375,-0.359375 H 1.390625 V -1.9375 H 3.34375 c 0.1875,0 0.359375,-0.15625 0.359375,-0.34375 0,-0.203125 -0.171875,-0.375 -0.359375,-0.375 H 1.390625 v -1.171875 h 2.25 c 0.1875,0 0.34375,-0.15625 0.34375,-0.359375 0,-0.203125 -0.15625,-0.359375 -0.34375,-0.359375 h -2.65625 c -0.21875,0 -0.40625,0.171875 -0.40625,0.40625 V -0.40625 C 0.578125,-0.171875 0.765625,0 0.984375,0 Z m 0,0" style="stroke:none"/></g><g id="use29863" transform="matrix(0.3527778,0,0,0.3527778,337.81262,-10.474709)" style="fill:#000;fill-opacity:1"><path id="path51371" d="m 0.34375,-0.34375 c 0,0.234375 0.1875,0.375 0.375,0.375 0.171875,0 0.28125,-0.078125 0.390625,-0.21875 L 2.3125,-1.75 3.53125,-0.15625 c 0.09375,0.125 0.1875,0.1875 0.359375,0.1875 0.234375,0 0.40625,-0.171875 0.40625,-0.390625 0,-0.109375 -0.0625,-0.21875 -0.125,-0.296875 L 2.828125,-2.328125 4.09375,-3.90625 c 0.078125,-0.109375 0.125,-0.1875 0.125,-0.3125 0,-0.21875 -0.1875,-0.359375 -0.359375,-0.359375 -0.171875,0 -0.28125,0.078125 -0.390625,0.21875 L 2.328125,-2.875 1.1875,-4.390625 c -0.109375,-0.125 -0.203125,-0.1875 -0.375,-0.1875 -0.21875,0 -0.390625,0.171875 -0.390625,0.390625 0,0.109375 0.0625,0.203125 0.125,0.296875 L 1.8125,-2.3125 0.46875,-0.640625 c -0.078125,0.09375 -0.125,0.1875 -0.125,0.296875 z m 0,0" style="stroke:none"/></g><g id="use29865" transform="matrix(0.3527778,0,0,0.3527778,339.49571,-10.474709)" style="fill:#000;fill-opacity:1"><path id="path51375" d="m 0.578125,-0.359375 c 0,0.21875 0.1875,0.390625 0.40625,0.390625 0.21875,0 0.40625,-0.171875 0.40625,-0.390625 V -1.46875 H 2.28125 c 1,0 1.828125,-0.53125 1.828125,-1.546875 V -3.03125 C 4.109375,-3.953125 3.4375,-4.546875 2.375,-4.546875 H 0.984375 c -0.21875,0 -0.40625,0.171875 -0.40625,0.40625 z M 1.390625,-2.1875 V -3.828125 H 2.3125 c 0.59375,0 0.984375,0.28125 0.984375,0.8125 V -3 c 0,0.484375 -0.375,0.8125 -0.984375,0.8125 z m 0,0" style="stroke:none"/></g><g id="use30145" transform="matrix(0.3527778,0,0,0.3527778,348.58206,44.865441)" style="fill:#000;fill-opacity:1"><path id="path51363" d="M 0.578125,-0.40625 C 0.578125,-0.171875 0.765625,0 0.984375,0 H 3.4375 c 0.203125,0 0.375,-0.15625 0.375,-0.359375 0,-0.203125 -0.171875,-0.375 -0.375,-0.375 H 1.390625 V -4.1875 c 0,-0.21875 -0.1875,-0.390625 -0.40625,-0.390625 -0.21875,0 -0.40625,0.171875 -0.40625,0.390625 z m 0,0" style="stroke:none"/></g><g id="use30147" transform="matrix(0.3527778,0,0,0.3527778,350.04962,44.865441)" style="fill:#000;fill-opacity:1"><path id="path51367" d="m 0.625,-0.359375 c 0,0.21875 0.1875,0.390625 0.40625,0.390625 0.21875,0 0.40625,-0.171875 0.40625,-0.390625 V -4.1875 c 0,-0.21875 -0.1875,-0.390625 -0.40625,-0.390625 -0.21875,0 -0.40625,0.171875 -0.40625,0.390625 z m 0,0" style="stroke:none"/></g><g id="use30151" transform="matrix(0.3527778,0,0,0.3527778,350.84986,44.865441)" style="fill:#000;fill-opacity:1"><path id="path51359" d="m 0.578125,-0.359375 c 0,0.21875 0.1875,0.390625 0.40625,0.390625 0.21875,0 0.390625,-0.171875 0.390625,-0.390625 V -3.25 l 2.34375,3.03125 c 0.109375,0.140625 0.21875,0.25 0.40625,0.25 h 0.03125 c 0.21875,0 0.390625,-0.1875 0.390625,-0.40625 v -3.8125 c 0,-0.21875 -0.171875,-0.390625 -0.390625,-0.390625 -0.21875,0 -0.390625,0.171875 -0.390625,0.390625 v 2.796875 L 1.484375,-4.34375 C 1.375,-4.484375 1.265625,-4.578125 1.078125,-4.578125 h -0.09375 c -0.21875,0 -0.40625,0.1875 -0.40625,0.40625 z m 0,0" style="stroke:none"/></g><g id="use30155" transform="matrix(0.3527778,0,0,0.3527778,337.30941,59.873483)" style="fill:#000;fill-opacity:1"><path id="path51351" d="m 0.625,-0.359375 c 0,0.21875 0.1875,0.390625 0.40625,0.390625 0.21875,0 0.40625,-0.171875 0.40625,-0.390625 V -4.1875 c 0,-0.21875 -0.1875,-0.390625 -0.40625,-0.390625 -0.21875,0 -0.40625,0.171875 -0.40625,0.390625 z m 0,0" style="stroke:none"/></g><g id="use30157" transform="matrix(0.3527778,0,0,0.3527778,338.10972,59.873483)" style="fill:#000;fill-opacity:1"><path id="path51355" d="m 0.578125,-0.359375 c 0,0.21875 0.1875,0.390625 0.40625,0.390625 0.21875,0 0.390625,-0.171875 0.390625,-0.390625 V -3.25 l 2.34375,3.03125 c 0.109375,0.140625 0.21875,0.25 0.40625,0.25 h 0.03125 c 0.21875,0 0.390625,-0.1875 0.390625,-0.40625 v -3.8125 c 0,-0.21875 -0.171875,-0.390625 -0.390625,-0.390625 -0.21875,0 -0.390625,0.171875 -0.390625,0.390625 v 2.796875 L 1.484375,-4.34375 C 1.375,-4.484375 1.265625,-4.578125 1.078125,-4.578125 h -0.09375 c -0.21875,0 -0.40625,0.1875 -0.40625,0.40625 z m 0,0" style="stroke:none"/></g><g id="use30161" transform="matrix(0.3527778,0,0,0.3527778,336.20186,44.865441)" style="fill:#000;fill-opacity:1"><path id="path51347" d="m 0.984375,0 h 2.6875 c 0.1875,0 0.359375,-0.15625 0.359375,-0.359375 0,-0.1875 -0.171875,-0.359375 -0.359375,-0.359375 H 1.390625 V -1.9375 H 3.34375 c 0.1875,0 0.359375,-0.15625 0.359375,-0.34375 0,-0.203125 -0.171875,-0.375 -0.359375,-0.375 H 1.390625 v -1.171875 h 2.25 c 0.1875,0 0.34375,-0.15625 0.34375,-0.359375 0,-0.203125 -0.15625,-0.359375 -0.34375,-0.359375 h -2.65625 c -0.21875,0 -0.40625,0.171875 -0.40625,0.40625 V -0.40625 C 0.578125,-0.171875 0.765625,0 0.984375,0 Z m 0,0" style="stroke:none"/></g><g id="use30165" transform="matrix(0.3527778,0,0,0.3527778,337.8132,44.865441)" style="fill:#000;fill-opacity:1"><path id="path51339" d="m 0.34375,-0.34375 c 0,0.234375 0.1875,0.375 0.375,0.375 0.171875,0 0.28125,-0.078125 0.390625,-0.21875 L 2.3125,-1.75 3.53125,-0.15625 c 0.09375,0.125 0.1875,0.1875 0.359375,0.1875 0.234375,0 0.40625,-0.171875 0.40625,-0.390625 0,-0.109375 -0.0625,-0.21875 -0.125,-0.296875 L 2.828125,-2.328125 4.09375,-3.90625 c 0.078125,-0.109375 0.125,-0.1875 0.125,-0.3125 0,-0.21875 -0.1875,-0.359375 -0.359375,-0.359375 -0.171875,0 -0.28125,0.078125 -0.390625,0.21875 L 2.328125,-2.875 1.1875,-4.390625 c -0.109375,-0.125 -0.203125,-0.1875 -0.375,-0.1875 -0.21875,0 -0.390625,0.171875 -0.390625,0.390625 0,0.109375 0.0625,0.203125 0.125,0.296875 L 1.8125,-2.3125 0.46875,-0.640625 c -0.078125,0.09375 -0.125,0.1875 -0.125,0.296875 z m 0,0" style="stroke:none"/></g><g id="use30167" transform="matrix(0.3527778,0,0,0.3527778,339.49632,44.865441)" style="fill:#000;fill-opacity:1"><path id="path51343" d="m 0.578125,-0.359375 c 0,0.21875 0.1875,0.390625 0.40625,0.390625 0.21875,0 0.40625,-0.171875 0.40625,-0.390625 V -1.46875 H 2.28125 c 1,0 1.828125,-0.53125 1.828125,-1.546875 V -3.03125 C 4.109375,-3.953125 3.4375,-4.546875 2.375,-4.546875 H 0.984375 c -0.21875,0 -0.40625,0.171875 -0.40625,0.40625 z M 1.390625,-2.1875 V -3.828125 H 2.3125 c 0.59375,0 0.984375,0.28125 0.984375,0.8125 V -3 c 0,0.484375 -0.375,0.8125 -0.984375,0.8125 z m 0,0" style="stroke:none"/></g><path style="fill:none;stroke:#000;stroke-width:.23495002;stroke-linecap:round;stroke-linejoin:round;stroke-miterlimit:10;stroke-opacity:1" id="path33341" d="m 334.45905,19.081324 h 20.31918"/><path style="fill:none;stroke:#000;stroke-width:.23495002;stroke-linecap:round;stroke-linejoin:round;stroke-miterlimit:10;stroke-opacity:1" id="path34019" d="m 338.61523,50.886445 h 12.00684"/><path style="fill:none;stroke:#000;stroke-width:.23495002;stroke-linecap:round;stroke-linejoin:round;stroke-miterlimit:10;stroke-opacity:1" id="path34021" d="m 338.61523,-4.3329251 h 12.00684"/></g><g id="layer2" style="display:none"><rect style="opacity:1;vector-effect:none;fill:red;fill-opacity:.33333333;fill-rule:evenodd;stroke:none;stroke-width:.29280153;stroke-linecap:butt;stroke-linejoin:miter;stroke-miterlimit:4;stroke-dasharray:none;stroke-dashoffset:0;stroke-opacity:.50196078;paint-order:normal" id="rect52103" width="12.7" height="12.7" x="6.35" y="19.118"/><rect id="rect52912" width="8.212" height="8.21" x="2.591" y="38.194" style="opacity:1;vector-effect:none;fill:#0f0;fill-opacity:.33333333;fill-rule:evenodd;stroke:none;stroke-width:.18930769;stroke-linecap:butt;stroke-linejoin:miter;stroke-miterlimit:4;stroke-dasharray:none;stroke-dashoffset:0;stroke-opacity:.50196078;paint-order:normal"/><rect style="opacity:1;vector-effect:none;fill:#0f0;fill-opacity:.33333333;fill-rule:evenodd;stroke:none;stroke-width:.18930769;stroke-linecap:butt;stroke-linejoin:miter;stroke-miterlimit:4;stroke-dasharray:none;stroke-dashoffset:0;stroke-opacity:.50196078;paint-order:normal" id="rect52918" width="8.212" height="8.21" x="14.598" y="38.194"/><rect id="rect52920" width="8.212" height="8.21" x="2.591" y="52.806" style="opacity:1;vector-effect:none;fill:#0f0;fill-opacity:.33333333;fill-rule:evenodd;stroke:none;stroke-width:.18930769;stroke-linecap:butt;stroke-linejoin:miter;stroke-miterlimit:4;stroke-dasharray:none;stroke-dashoffset:0;stroke-opacity:.50196078;paint-order:normal"/><rect style="opacity:1;vector-effect:none;fill:#00f;fill-opacity:.33333333;fill-rule:evenodd;stroke:none;stroke-width:.18930769;stroke-linecap:butt;stroke-linejoin:miter;stroke-miterlimit:4;stroke-dasharray:none;stroke-dashoffset:0;stroke-opacity:.50196078;paint-order:normal" id="rect52922" width="8.212" height="8.21" x="14.598" y="52.806"/><rect id="rect52924" width="12.7" height="12.7" x="6.35" y="74.805" style="opacity:1;vector-effect:none;fill:red;fill-opacity:.33333333;fill-rule:evenodd;stroke:none;stroke-width:.29280153;stroke-linecap:butt;stroke-linejoin:miter;stroke-miterlimit:4;stroke-dasharray:none;stroke-dashoffset:0;stroke-opacity:.50196078;paint-order:normal"/><rect style="opacity:1;vector-effect:none;fill:#0f0;fill-opacity:.33333333;fill-rule:evenodd;stroke:none;stroke-width:.18930769;stroke-linecap:butt;stroke-linejoin:miter;stroke-miterlimit:4;stroke-dasharray:none;stroke-dashoffset:0;stroke-opacity:.50196078;paint-order:normal" id="rect52926" width="8.212" height="8.21" x="2.591" y="93.534"/><rect id="rect52928" width="8.212" height="8.21" x="14.598" y="93.534" style="opacity:1;vector-effect:none;fill:#0f0;fill-opacity:.33333333;fill-rule:evenodd;stroke:none;stroke-width:.18930769;stroke-linecap:butt;stroke-linejoin:miter;stroke-miterlimit:4;stroke-dasharray:none;stroke-dashoffset:0;stroke-opacity:.50196078;paint-order:normal"/><rect style="opacity:1;vector-effect:none;fill:#0f0;fill-opacity:.33333333;fill-rule:evenodd;stroke:none;stroke-width:.18930769;stroke-linecap:butt;stroke-linejoin:miter;stroke-miterlimit:4;stroke-dasharray:none;stroke-dashoffset:0;stroke-opacity:.50196078;paint-order:normal" id="rect52930" width="8.212" height="8.21" x="2.591" y="108.147"/><rect id="rect52932" width="8.212" height="8.21" x="14.598" y="108.147" style="opacity:1;vector-effect:none;fill:#00f;fill-opacity:.33333333;fill-rule:evenodd;stroke:none;stroke-width:.18930769;stroke-linecap:butt;stroke-linejoin:miter;stroke-miterlimit:4;stroke-dasharray:none;stroke-dashoffset:0;stroke-opacity:.50196078;paint-order:normal"/></g></svg>