<svg xmlns="http://www.w3.org/2000/svg" xmlns:svg="http://www.w3.org/2000/svg" id="Layer_1" width="40" height="40" data-name="Layer 1" version="1.1" viewBox="0 0 40 40"><metadata id="metadata1289"/><defs id="defs1279"><style id="style1277"/></defs><title id="title1281">01 Big Knob</title><g id="Big_Knob" data-name="Big Knob" transform="translate(0,-20)"><path id="Big_Button_Circle" d="m 39.378376,40.069128 c 0,10.623731 -8.657007,20.210257 -19.235966,19.235966 C 10.414584,58.409188 -1.2356614,50.295623 0.90644332,40.069128 2.9950651,30.097964 11.046342,21.303212 20.14241,20.833162 30.751984,20.2849 39.378377,29.445396 39.378376,40.069128 Z" style="fill:#245559;stroke:#000;stroke-width:.64119887;stroke-opacity:1"/><path id="Button_Pointer" d="m 18.626121,21.273625 1.267522,5.163438 -0.780487,2.460522 -0.127379,0.131594 -1.798763,1.877568 0.363481,1.12795 0.238908,2.622433 1.000721,3.041898 c 1.43078,-0.442243 2.211896,-1.375892 4.669838,-1.041185 l -0.857747,-2.557586 -1.625164,-1.733812 1.009771,-1.694688 1.152576,-1.205496 -1.46034,-1.514991 0.618431,-6.761345 c -1.133711,-0.152257 -2.36831,-0.102738 -3.671368,0.0837 z" style="color:#000;font-style:normal;font-variant:normal;font-weight:400;font-stretch:normal;font-size:medium;line-height:normal;font-family:sans-serif;font-variant-ligatures:normal;font-variant-position:normal;font-variant-caps:normal;font-variant-numeric:normal;font-variant-alternates:normal;font-feature-settings:normal;text-indent:0;text-align:start;text-decoration:none;text-decoration-line:none;text-decoration-style:solid;text-decoration-color:#000;letter-spacing:normal;word-spacing:normal;text-transform:none;writing-mode:lr-tb;direction:ltr;text-orientation:mixed;dominant-baseline:auto;baseline-shift:baseline;text-anchor:start;white-space:normal;shape-padding:0;clip-rule:nonzero;display:inline;overflow:visible;visibility:visible;opacity:1;isolation:auto;mix-blend-mode:normal;color-interpolation:sRGB;color-interpolation-filters:linearRGB;solid-color:#000;solid-opacity:1;vector-effect:none;fill:#24c9a6;fill-opacity:1;fill-rule:nonzero;stroke:none;stroke-width:3.22151232px;stroke-linecap:butt;stroke-linejoin:miter;stroke-miterlimit:10;stroke-dasharray:none;stroke-dashoffset:0;stroke-opacity:1;color-rendering:auto;image-rendering:auto;shape-rendering:auto;text-rendering:auto;enable-background:accumulate"/></g></svg>