<svg xmlns="http://www.w3.org/2000/svg" xmlns:svg="http://www.w3.org/2000/svg" id="svg8" width="30" height="55" version="1.1" viewBox="0 0 30 55" style="enable-background:new"><defs id="defs2"><clipPath id="clip89"><rect id="rect4864" width="18" height="19" x="0" y="0"/></clipPath><clipPath id="clip90"><path id="path4861" d="m 0.898438,0.128906 h 16.25 v 17.882813 h -16.25 z m 0,0"/></clipPath><mask id="mask44"><g id="g4858" transform="matrix(0.26458333,0,0,0.26458333,89.358789,128.57765)" style="filter:url(#alpha)"><rect id="rect4856" width="3052.87" height="3351.5" x="0" y="0" style="fill:#000;fill-opacity:.14999402;stroke:none"/></g></mask><filter id="alpha" width="1" height="1" x="0" y="0" filterUnits="objectBoundingBox"><feColorMatrix id="feColorMatrix4149" in="SourceGraphic" type="matrix" values="0 0 0 0 1 0 0 0 0 1 0 0 0 0 1 0 0 0 1 0"/></filter><clipPath id="clipPath17821"><rect id="rect17819" width="18" height="19" x="0" y="0"/></clipPath><clipPath id="clipPath17825"><path id="path17823" d="m 0.898438,0.128906 h 16.25 v 17.882813 h -16.25 z m 0,0"/></clipPath><clipPath id="clip87"><rect id="rect4848" width="24" height="26" x="0" y="0"/></clipPath><clipPath id="clip88"><path id="path4845" d="m 0.683594,0.921875 h 22.679687 v 24.9375 H 0.683594 Z m 0,0"/></clipPath><mask id="mask43"><g id="g4842" transform="matrix(0.26458333,0,0,0.26458333,89.358789,128.57765)" style="filter:url(#alpha)"><rect id="rect4840" width="3052.87" height="3351.5" x="0" y="0" style="fill:#000;fill-opacity:.14999402;stroke:none"/></g></mask><filter id="filter17836" width="1" height="1" x="0" y="0" filterUnits="objectBoundingBox"><feColorMatrix id="feColorMatrix17834" in="SourceGraphic" type="matrix" values="0 0 0 0 1 0 0 0 0 1 0 0 0 0 1 0 0 0 1 0"/></filter><clipPath id="clipPath17840"><rect id="rect17838" width="24" height="26" x="0" y="0"/></clipPath><clipPath id="clipPath17844"><path id="path17842" d="m 0.683594,0.921875 h 22.679687 v 24.9375 H 0.683594 Z m 0,0"/></clipPath></defs><metadata id="metadata5"/><g id="layer2" transform="translate(-20.000003,-15.000427)" style="display:inline"><rect style="display:inline;opacity:1;fill:#b3b3b3;fill-opacity:.50196078;fill-rule:evenodd;stroke:#000;stroke-width:.63977337;stroke-miterlimit:4;stroke-dasharray:none;stroke-dashoffset:0;stroke-opacity:1" id="rect830" width="49.287" height="24.36" x="17.857" y="-47.18" rx="2.266" ry="2.266" transform="rotate(90)"/></g><g id="layer9" transform="translate(-20.000003,-15.000427)" style="display:inline"><g style="font-style:normal;font-variant:normal;font-weight:700;font-stretch:normal;font-size:13.33333302px;line-height:1.25;font-family:'Trebuchet MS';-inkscape-font-specification:'Trebuchet MS, Bold';font-variant-ligatures:normal;font-variant-caps:normal;font-variant-numeric:normal;font-feature-settings:normal;text-align:center;letter-spacing:0;word-spacing:0;writing-mode:lr-tb;text-anchor:middle;fill:#000;fill-opacity:1;stroke:none" id="text1743" aria-label="M"><path id="path1786" d="m 39.875001,35.053248 h -1.640625 l -0.989583,-5.143229 -1.920573,5.266927 h -0.605469 l -1.920573,-5.266927 -1.028645,5.143229 h -1.634115 l 1.920573,-9.544271 h 0.898437 l 2.063802,6.425782 2.01823,-6.425782 h 0.891927 z"/></g><g style="font-style:normal;font-variant:normal;font-weight:700;font-stretch:normal;font-size:13.33333302px;line-height:1.25;font-family:'Trebuchet MS';-inkscape-font-specification:'Trebuchet MS, Bold';font-variant-ligatures:normal;font-variant-caps:normal;font-variant-numeric:normal;font-feature-settings:normal;text-align:center;letter-spacing:0;word-spacing:0;writing-mode:lr-tb;text-anchor:middle;fill:#000;fill-opacity:1;stroke:none" id="text1755" aria-label="O"><path id="path1783" d="m 30.812501,41.71372 q 0,-2.037761 1.113282,-3.444011 1.119791,-1.41276 2.988281,-1.41276 2.057291,0 3.144531,1.276042 1.08724,1.276041 1.08724,3.580729 0,2.304687 -1.139323,3.658854 -1.132813,1.354167 -3.222657,1.354167 -1.920572,0 -2.949218,-1.341146 -1.022136,-1.341146 -1.022136,-3.671875 z m 1.757813,0 q 0,1.673177 0.566406,2.591146 0.566406,0.917968 1.647135,0.917968 1.269532,0 1.933594,-0.898437 0.670573,-0.898438 0.670573,-2.610677 0,-3.352865 -2.473958,-3.352865 -1.132813,0 -1.738281,0.911459 -0.605469,0.904948 -0.605469,2.441406 z"/></g><g style="font-style:normal;font-variant:normal;font-weight:700;font-stretch:normal;font-size:13.33333302px;line-height:1.25;font-family:'Trebuchet MS';-inkscape-font-specification:'Trebuchet MS, Bold';font-variant-ligatures:normal;font-variant-caps:normal;font-variant-numeric:normal;font-feature-settings:normal;text-align:center;letter-spacing:0;word-spacing:0;writing-mode:lr-tb;text-anchor:middle;fill:#000;fill-opacity:1;stroke:none" id="text1759" aria-label="D"><path id="path1780" d="m 33.787762,59.491879 h -2.115886 v -9.53125 q 2.02474,-0.07161 2.545573,-0.07161 2.083333,0 3.300781,1.223958 1.223959,1.217448 1.223959,3.235677 0,5.14323 -4.954427,5.14323 z m -0.423177,-8.053386 v 6.510417 q 0.410156,0.03906 0.885416,0.03906 1.282552,0 2.005209,-0.930989 0.729166,-0.93099 0.729166,-2.604167 0,-3.059896 -2.845052,-3.059896 -0.273437,0 -0.774739,0.04557 z"/></g></g></svg>