<svg xmlns="http://www.w3.org/2000/svg" xmlns:svg="http://www.w3.org/2000/svg" id="svg8" width="30" height="55" version="1.1" viewBox="0 0 30 55" style="enable-background:new"><metadata id="metadata5"/><g id="layer4" style="display:none"><rect style="opacity:1;fill:#ececec;fill-opacity:1;fill-rule:evenodd;stroke:#000;stroke-width:.29499999;stroke-miterlimit:4;stroke-dasharray:0,3.24500001;stroke-dashoffset:2.95000005;stroke-opacity:.92718446" id="rect3214" width="29.705" height="55.859" x="0" y="-.194"/></g><g id="layer2" transform="translate(-20.000003,-15.000427)" style="display:inline"><rect style="display:inline;opacity:1;fill:#b3b3b3;fill-opacity:.50196078;fill-rule:evenodd;stroke:#000;stroke-width:.63999999;stroke-miterlimit:4;stroke-dasharray:none;stroke-dashoffset:0;stroke-opacity:1" id="rect830" width="49.287" height="24.36" x="17.857" y="-47.18" rx="2.266" ry="2.266" transform="rotate(90)"/></g><g id="layer9" transform="translate(-20.000003,-15.000427)" style="display:inline"><g id="g14002" style="display:none"><g id="text1867" aria-label="S" style="font-style:normal;font-variant:normal;font-weight:700;font-stretch:normal;font-size:10.66666698px;line-height:1.25;font-family:'Trebuchet MS';-inkscape-font-specification:'Trebuchet MS, Bold';font-variant-ligatures:normal;font-variant-caps:normal;font-variant-numeric:normal;font-feature-settings:normal;text-align:center;letter-spacing:0;word-spacing:0;writing-mode:lr-tb;text-anchor:middle;fill:#000;fill-opacity:1;stroke:none"><path id="path1932" d="m 32.690105,27.377926 0.5,-1.213542 q 0.802084,0.5625 1.578125,0.5625 1.192709,0 1.192709,-0.833333 0,-0.390625 -0.28125,-0.744792 -0.28125,-0.354167 -1.161459,-0.791667 -0.875,-0.442708 -1.182291,-0.723958 -0.302084,-0.286458 -0.46875,-0.677083 -0.161459,-0.390625 -0.161459,-0.864584 0,-0.885416 0.645834,-1.46875 0.651041,-0.583333 1.666666,-0.583333 1.322917,0 1.942709,0.494792 l -0.411459,1.166666 q -0.713541,-0.510416 -1.505208,-0.510416 -0.46875,0 -0.729167,0.25 -0.255208,0.244791 -0.255208,0.640625 0,0.65625 1.453125,1.364583 0.765625,0.375 1.104167,0.692708 0.338541,0.3125 0.515625,0.734375 0.177083,0.416667 0.177083,0.932292 0,0.927084 -0.734375,1.526042 -0.729167,0.598958 -1.958333,0.598958 -1.067709,0 -1.927084,-0.552083 z"/></g><g id="text1871" aria-label="H" style="font-style:normal;font-variant:normal;font-weight:700;font-stretch:normal;font-size:10.66666698px;line-height:1.25;font-family:'Trebuchet MS';-inkscape-font-specification:'Trebuchet MS, Bold';font-variant-ligatures:normal;font-variant-caps:normal;font-variant-numeric:normal;font-feature-settings:normal;text-align:center;letter-spacing:0;word-spacing:0;writing-mode:lr-tb;text-anchor:middle;fill:#000;fill-opacity:1;stroke:none"><path id="path1894" d="m 36.526046,37.555286 v -3.4375 h -3.036459 v 3.4375 H 32.13542 v -7.630208 h 1.354167 v 2.989583 h 3.036459 v -2.989583 h 1.338541 v 7.630208 z"/></g><g id="text1875" aria-label="I" style="font-style:normal;font-variant:normal;font-weight:700;font-stretch:normal;font-size:10.66666698px;line-height:1.25;font-family:'Trebuchet MS';-inkscape-font-specification:'Trebuchet MS, Bold';font-variant-ligatures:normal;font-variant-caps:normal;font-variant-numeric:normal;font-feature-settings:normal;text-align:center;letter-spacing:0;word-spacing:0;writing-mode:lr-tb;text-anchor:middle;fill:#000;fill-opacity:1;stroke:none"><path id="path1891" d="m 34.322919,46.959675 v -7.630209 h 1.354167 v 7.630209 z"/></g><g id="text1879" aria-label="F" style="font-style:normal;font-variant:normal;font-weight:700;font-stretch:normal;font-size:10.66666698px;line-height:1.25;font-family:'Trebuchet MS';-inkscape-font-specification:'Trebuchet MS, Bold';font-variant-ligatures:normal;font-variant-caps:normal;font-variant-numeric:normal;font-feature-settings:normal;text-align:center;letter-spacing:0;word-spacing:0;writing-mode:lr-tb;text-anchor:middle;display:inline;fill:#000;fill-opacity:1;stroke:none;enable-background:new"><path id="path1888" d="m 33.84115,50.175223 v 1.786458 h 2.682291 v 1.151042 H 33.84115 v 3.489583 h -1.354167 v -7.630208 h 5.026042 v 1.203125 z"/></g><g id="text1883" aria-label="T" style="font-style:normal;font-variant:normal;font-weight:700;font-stretch:normal;font-size:10.66666698px;line-height:1.25;font-family:'Trebuchet MS';-inkscape-font-specification:'Trebuchet MS, Bold';font-variant-ligatures:normal;font-variant-caps:normal;font-variant-numeric:normal;font-feature-settings:normal;text-align:center;letter-spacing:0;word-spacing:0;writing-mode:lr-tb;text-anchor:middle;display:inline;fill:#000;fill-opacity:1;stroke:none;enable-background:new"><path id="path1885" d="m 35.622398,59.103121 v 6.427084 h -1.354166 v -6.427084 h -2.427084 v -1.203125 h 6.317709 v 1.203125 z"/></g></g><g id="g13990" style="display:inline"><g id="text1867-0" aria-label="S" transform="translate(1.5e-6,-0.1841585)" style="font-style:normal;font-variant:normal;font-weight:700;font-stretch:normal;font-size:10.66666698px;line-height:1.25;font-family:'Trebuchet MS';-inkscape-font-specification:'Trebuchet MS, Bold';font-variant-ligatures:normal;font-variant-caps:normal;font-variant-numeric:normal;font-feature-settings:normal;text-align:center;letter-spacing:0;word-spacing:0;writing-mode:lr-tb;text-anchor:middle;display:inline;fill:#000;fill-opacity:1;stroke:none;enable-background:new"><path id="path2504" d="m 32.690105,27.377926 0.5,-1.213542 q 0.802084,0.5625 1.578125,0.5625 1.192709,0 1.192709,-0.833333 0,-0.390625 -0.28125,-0.744792 -0.28125,-0.354167 -1.161459,-0.791667 -0.875,-0.442708 -1.182291,-0.723958 -0.302084,-0.286458 -0.46875,-0.677083 -0.161459,-0.390625 -0.161459,-0.864584 0,-0.885416 0.645834,-1.46875 0.651041,-0.583333 1.666666,-0.583333 1.322917,0 1.942709,0.494792 l -0.411459,1.166666 q -0.713541,-0.510416 -1.505208,-0.510416 -0.46875,0 -0.729167,0.25 -0.255208,0.244791 -0.255208,0.640625 0,0.65625 1.453125,1.364583 0.765625,0.375 1.104167,0.692708 0.338541,0.3125 0.515625,0.734375 0.177083,0.416667 0.177083,0.932292 0,0.927084 -0.734375,1.526042 -0.729167,0.598958 -1.958333,0.598958 -1.067709,0 -1.927084,-0.552083 z"/></g><g id="text1871-1" aria-label="H" transform="translate(-5e-7,-0.5844355)" style="font-style:normal;font-variant:normal;font-weight:700;font-stretch:normal;font-size:10.66666698px;line-height:1.25;font-family:'Trebuchet MS';-inkscape-font-specification:'Trebuchet MS, Bold';font-variant-ligatures:normal;font-variant-caps:normal;font-variant-numeric:normal;font-feature-settings:normal;text-align:center;letter-spacing:0;word-spacing:0;writing-mode:lr-tb;text-anchor:middle;display:inline;fill:#000;fill-opacity:1;stroke:none;enable-background:new"><path id="path1894-8" d="m 36.526046,37.555286 v -3.4375 h -3.036459 v 3.4375 H 32.13542 v -7.630208 h 1.354167 v 2.989583 h 3.036459 v -2.989583 h 1.338541 v 7.630208 z"/></g><g id="text1875-0" aria-label="I" transform="translate(5e-7,-0.5848245)" style="font-style:normal;font-variant:normal;font-weight:700;font-stretch:normal;font-size:10.66666698px;line-height:1.25;font-family:'Trebuchet MS';-inkscape-font-specification:'Trebuchet MS, Bold';font-variant-ligatures:normal;font-variant-caps:normal;font-variant-numeric:normal;font-feature-settings:normal;text-align:center;letter-spacing:0;word-spacing:0;writing-mode:lr-tb;text-anchor:middle;display:inline;fill:#000;fill-opacity:1;stroke:none;enable-background:new"><path id="path1891-9" d="m 34.322919,46.959675 v -7.630209 h 1.354167 v 7.630209 z"/></g><g id="text1883-4" aria-label="T" transform="translate(5e-7,-0.3845765)" style="font-style:normal;font-variant:normal;font-weight:700;font-stretch:normal;font-size:10.66666698px;line-height:1.25;font-family:'Trebuchet MS';-inkscape-font-specification:'Trebuchet MS, Bold';font-variant-ligatures:normal;font-variant-caps:normal;font-variant-numeric:normal;font-feature-settings:normal;text-align:center;letter-spacing:0;word-spacing:0;writing-mode:lr-tb;text-anchor:middle;display:inline;fill:#000;fill-opacity:1;stroke:none;enable-background:new"><path id="path1885-3" d="m 35.622398,59.103121 v 6.427084 h -1.354166 v -6.427084 h -2.427084 v -1.203125 h 6.317709 v 1.203125 z"/></g><g id="text1879-0" aria-label="F" transform="translate(-1.5e-6,-0.6844555)" style="font-style:normal;font-variant:normal;font-weight:700;font-stretch:normal;font-size:10.66666698px;line-height:1.25;font-family:'Trebuchet MS';-inkscape-font-specification:'Trebuchet MS, Bold';font-variant-ligatures:normal;font-variant-caps:normal;font-variant-numeric:normal;font-feature-settings:normal;text-align:center;letter-spacing:0;word-spacing:0;writing-mode:lr-tb;text-anchor:middle;display:inline;fill:#000;fill-opacity:1;stroke:none;enable-background:new"><path id="path1888-0" d="m 33.84115,50.175223 v 1.786458 h 2.682291 v 1.151042 H 33.84115 v 3.489583 h -1.354167 v -7.630208 h 5.026042 v 1.203125 z"/></g></g></g></svg>