<svg xmlns="http://www.w3.org/2000/svg" xmlns:svg="http://www.w3.org/2000/svg" id="svg8" width="30" height="55" version="1.1" viewBox="0 0 30 55" style="enable-background:new"><defs id="defs2"><clipPath id="clip89"><rect id="rect4864" width="18" height="19" x="0" y="0"/></clipPath><clipPath id="clip90"><path id="path4861" d="m 0.898438,0.128906 h 16.25 v 17.882813 h -16.25 z m 0,0"/></clipPath><mask id="mask44"><g id="g4858" transform="matrix(0.26458333,0,0,0.26458333,89.358789,128.57765)" style="filter:url(#alpha)"><rect id="rect4856" width="3052.87" height="3351.5" x="0" y="0" style="fill:#000;fill-opacity:.14999402;stroke:none"/></g></mask><filter id="alpha" width="1" height="1" x="0" y="0" filterUnits="objectBoundingBox"><feColorMatrix id="feColorMatrix4149" in="SourceGraphic" type="matrix" values="0 0 0 0 1 0 0 0 0 1 0 0 0 0 1 0 0 0 1 0"/></filter><clipPath id="clipPath17821"><rect id="rect17819" width="18" height="19" x="0" y="0"/></clipPath><clipPath id="clipPath17825"><path id="path17823" d="m 0.898438,0.128906 h 16.25 v 17.882813 h -16.25 z m 0,0"/></clipPath><clipPath id="clip87"><rect id="rect4848" width="24" height="26" x="0" y="0"/></clipPath><clipPath id="clip88"><path id="path4845" d="m 0.683594,0.921875 h 22.679687 v 24.9375 H 0.683594 Z m 0,0"/></clipPath><mask id="mask43"><g id="g4842" transform="matrix(0.26458333,0,0,0.26458333,89.358789,128.57765)" style="filter:url(#alpha)"><rect id="rect4840" width="3052.87" height="3351.5" x="0" y="0" style="fill:#000;fill-opacity:.14999402;stroke:none"/></g></mask><filter id="filter17836" width="1" height="1" x="0" y="0" filterUnits="objectBoundingBox"><feColorMatrix id="feColorMatrix17834" in="SourceGraphic" type="matrix" values="0 0 0 0 1 0 0 0 0 1 0 0 0 0 1 0 0 0 1 0"/></filter><clipPath id="clipPath17840"><rect id="rect17838" width="24" height="26" x="0" y="0"/></clipPath><clipPath id="clipPath17844"><path id="path17842" d="m 0.683594,0.921875 h 22.679687 v 24.9375 H 0.683594 Z m 0,0"/></clipPath></defs><metadata id="metadata5"/><g id="layer2" transform="translate(-20.000003,-15.000427)" style="display:inline"><rect style="display:inline;opacity:1;fill:#b3b3b3;fill-opacity:.50196078;fill-rule:evenodd;stroke:#000;stroke-width:.63977337;stroke-miterlimit:4;stroke-dasharray:none;stroke-dashoffset:0;stroke-opacity:1" id="rect830" width="49.287" height="24.36" x="17.857" y="-47.18" rx="2.266" ry="2.266" transform="rotate(90)"/></g><g id="layer9" transform="translate(-20.000003,-15.000427)" style="display:inline"><g id="g14645" style="display:inline"><g id="text11718-3" aria-label="S" transform="translate(0,0.5)" style="font-style:normal;font-variant:normal;font-weight:700;font-stretch:normal;font-size:10.66666698px;line-height:1.25;font-family:'Trebuchet MS';-inkscape-font-specification:'Trebuchet MS, Bold';font-variant-ligatures:normal;font-variant-caps:normal;font-variant-numeric:normal;font-feature-settings:normal;text-align:center;letter-spacing:0;word-spacing:0;writing-mode:lr-tb;text-anchor:middle;display:inline;fill:#000;fill-opacity:1;stroke:none;enable-background:new"><path id="path11748-6" d="m 32.690105,27.497047 0.5,-1.213541 q 0.802084,0.5625 1.578125,0.5625 1.192709,0 1.192709,-0.833334 0,-0.390625 -0.28125,-0.744791 -0.28125,-0.354167 -1.161459,-0.791667 -0.875,-0.442708 -1.182291,-0.723958 -0.302084,-0.286459 -0.46875,-0.677084 -0.161459,-0.390625 -0.161459,-0.864583 0,-0.885417 0.645834,-1.46875 0.651041,-0.583333 1.666666,-0.583333 1.322917,0 1.942709,0.494791 l -0.411459,1.166667 q -0.713541,-0.510417 -1.505208,-0.510417 -0.46875,0 -0.729167,0.25 -0.255208,0.244792 -0.255208,0.640625 0,0.65625 1.453125,1.364584 0.765625,0.375 1.104167,0.692708 0.338541,0.3125 0.515625,0.734375 0.177083,0.416667 0.177083,0.932292 0,0.927083 -0.734375,1.526041 -0.729167,0.598959 -1.958333,0.598959 -1.067709,0 -1.927084,-0.552084 z"/></g><g id="text11722-9" aria-label="U" style="font-style:normal;font-variant:normal;font-weight:700;font-stretch:normal;font-size:10.66666698px;line-height:1.25;font-family:'Trebuchet MS';-inkscape-font-specification:'Trebuchet MS, Bold';font-variant-ligatures:normal;font-variant-caps:normal;font-variant-numeric:normal;font-feature-settings:normal;text-align:center;letter-spacing:0;word-spacing:0;writing-mode:lr-tb;text-anchor:middle;display:inline;fill:#000;fill-opacity:1;stroke:none;enable-background:new"><path id="path11742-1" d="m 32.16667,29.693102 h 1.354167 v 5.171875 q 0,0.614584 0.375,1 0.375,0.385417 1.03125,0.385417 0.734375,0 1.140625,-0.375 0.411459,-0.380208 0.411459,-1.036458 v -5.145834 h 1.354166 v 5.25 q 0,1.177084 -0.791666,1.843751 -0.786459,0.666666 -2.104167,0.666666 -1.328125,0 -2.052084,-0.651041 -0.71875,-0.651042 -0.71875,-1.864584 z"/></g><g id="text11726-3" aria-label="P" transform="translate(0,0.5)" style="font-style:normal;font-variant:normal;font-weight:700;font-stretch:normal;font-size:10.66666698px;line-height:1.25;font-family:'Trebuchet MS';-inkscape-font-specification:'Trebuchet MS, Bold';font-variant-ligatures:normal;font-variant-caps:normal;font-variant-numeric:normal;font-feature-settings:normal;text-align:center;letter-spacing:0;word-spacing:0;writing-mode:lr-tb;text-anchor:middle;display:inline;fill:#000;fill-opacity:1;stroke:none;enable-background:new"><path id="path11745-6" d="m 33.822918,42.97997 v 2.807292 h -1.354167 v -7.625 q 1.354167,-0.05729 1.583334,-0.05729 1.807291,0 2.640625,0.557292 0.838541,0.552083 0.838541,1.729166 0,2.625001 -3.09375,2.625001 -0.229166,0 -0.614583,-0.03646 z m 0,-3.645833 v 2.442708 q 0.34375,0.03646 0.541667,0.03646 0.927083,0 1.354166,-0.307292 0.427084,-0.3125 0.427084,-1.010417 0,-1.1875 -1.911459,-1.1875 -0.213541,0 -0.411458,0.02604 z"/></g><g id="text11730-9" aria-label="E" transform="translate(-0.5)" style="font-style:normal;font-variant:normal;font-weight:700;font-stretch:normal;font-size:10.66666698px;line-height:1.25;font-family:'Trebuchet MS';-inkscape-font-specification:'Trebuchet MS, Bold';font-variant-ligatures:normal;font-variant-caps:normal;font-variant-numeric:normal;font-feature-settings:normal;text-align:center;letter-spacing:0;word-spacing:0;writing-mode:lr-tb;text-anchor:middle;display:inline;fill:#000;fill-opacity:1;stroke:none;enable-background:new"><path id="path11739-3" d="m 33.919272,49.115664 v 1.786458 h 2.520833 v 1.151042 h -2.520833 v 2.286458 h 3.458334 v 1.203125 h -4.812501 v -7.630208 h 4.869792 v 1.203125 z"/></g><g id="text11734-3" aria-label="R" style="font-style:normal;font-variant:normal;font-weight:700;font-stretch:normal;font-size:10.66666698px;line-height:1.25;font-family:'Trebuchet MS';-inkscape-font-specification:'Trebuchet MS, Bold';font-variant-ligatures:normal;font-variant-caps:normal;font-variant-numeric:normal;font-feature-settings:normal;text-align:center;letter-spacing:0;word-spacing:0;writing-mode:lr-tb;text-anchor:middle;display:inline;fill:#000;fill-opacity:1;stroke:none;enable-background:new"><path id="path11736-2" d="m 36.369796,65.066254 -2.036459,-3.151042 q -0.307292,-0.0052 -0.859375,-0.03646 v 3.1875 h -1.40625 v -7.630209 q 0.114583,0 0.880208,-0.03646 0.765625,-0.04167 1.234375,-0.04167 2.906251,0 2.906251,2.25 0,0.677084 -0.401042,1.234375 -0.401042,0.557292 -1.010417,0.786459 l 2.255209,3.4375 z m -2.895834,-6.453126 v 2.119792 q 0.375,0.03125 0.572917,0.03125 0.848958,0 1.239583,-0.239583 0.395834,-0.239583 0.395834,-0.932292 0,-0.5625 -0.421875,-0.786458 -0.421876,-0.223959 -1.328126,-0.223959 -0.21875,0 -0.458333,0.03125 z"/></g></g></g></svg>