<svg xmlns="http://www.w3.org/2000/svg" xmlns:svg="http://www.w3.org/2000/svg" id="svg8" width="11" height="22.065" version="1.1" viewBox="0 0 2.91 5.838"><metadata id="metadata5"/><g id="layer2"><rect style="fill:#646464;fill-opacity:1;stroke-width:.26458332" id="rect824" width="3.193" height="6.089" x="-.293" y="-.158"/></g><g id="layer1" transform="translate(0.17481131,-291.41703)"><flowRoot id="flowRoot819" transform="scale(0.26458333)" xml:space="preserve" style="font-style:normal;font-weight:400;font-size:16px;line-height:1.25;font-family:sans-serif;letter-spacing:0;word-spacing:0;fill:#000;fill-opacity:1;stroke:none"><flowRegion id="flowRegion821"><rect id="rect823" width="254.286" height="114.286" x="-57.143" y="168.234"/></flowRegion><flowPara id="flowPara825"/></flowRoot><flowRoot id="flowRoot827" transform="scale(0.26458333)" xml:space="preserve" style="font-style:normal;font-weight:400;font-size:16px;line-height:1.25;font-family:sans-serif;letter-spacing:0;word-spacing:0;fill:#000;fill-opacity:1;stroke:none"><flowRegion id="flowRegion829"><rect id="rect831" width="165.714" height="408.571" x="-57.143" y="168.234" style="fill:#646464;fill-opacity:1;stroke-width:.26458332"/></flowRegion><flowPara id="flowPara833"/></flowRoot><g style="font-style:normal;font-weight:400;font-size:5.46787739px;line-height:1.25;font-family:sans-serif;letter-spacing:0;word-spacing:0;fill:#eee;fill-opacity:1;stroke:none;stroke-width:.34174234" id="text837" aria-label="ƒ" transform="matrix(0.18811164,0,0,0.18811164,0.07288486,241.14805)"><path style="font-size:29.16201401px;fill:#eee;fill-opacity:1;stroke-width:.34174234" id="path1400" d="m 12.748478,268.63603 v 2.17861 h -2.50611 q -1.4096875,0 -1.9650188,0.56957 -0.541092,0.56957 -0.541092,2.05045 v 1.40969 h 4.3144968 v 2.03622 H 7.7362572 v 14.88003 q 0,2.66274 -1.2388161,3.87308 -1.238816,1.22457 -3.930037,1.22457 H 0.08977203 v -2.1786 H 2.5958826 q 1.4096872,0 1.9507793,-0.56957 0.5553313,-0.56957 0.5553313,-2.05046 V 276.88057 H 2.5958826 v -2.03622 h 2.5061106 v -1.11066 q 0,-2.66274 1.238816,-3.87308 1.238816,-1.22458 3.9300368,-1.22458 z"/></g></g></svg>