<svg xmlns="http://www.w3.org/2000/svg" xmlns:svg="http://www.w3.org/2000/svg" id="svg261903" width="57.599" height="485.667" version="1.1" viewBox="0 0 15.24 128.499"><defs id="defs261897"><linearGradient id="linear20" x1="-.096" x2="1.325" y1="0" y2="0" gradientTransform="matrix(0,6.4087959,-6.4087959,0,64.256445,118.95198)" gradientUnits="userSpaceOnUse"><stop style="stop-color:#414042;stop-opacity:1" id="stop217759" offset="0"/><stop style="stop-color:#414042;stop-opacity:1" id="stop217761" offset=".063"/><stop style="stop-color:#414042;stop-opacity:1" id="stop217763" offset=".078"/><stop style="stop-color:#403f41;stop-opacity:1" id="stop217765" offset=".094"/><stop style="stop-color:#403e40;stop-opacity:1" id="stop217767" offset=".109"/><stop style="stop-color:#3f3e40;stop-opacity:1" id="stop217769" offset=".125"/><stop style="stop-color:#3e3d3f;stop-opacity:1" id="stop217771" offset=".141"/><stop style="stop-color:#3e3c3e;stop-opacity:1" id="stop217773" offset=".156"/><stop style="stop-color:#3d3b3d;stop-opacity:1" id="stop217775" offset=".172"/><stop style="stop-color:#3c3b3d;stop-opacity:1" id="stop217777" offset=".188"/><stop style="stop-color:#3c3a3c;stop-opacity:1" id="stop217779" offset=".203"/><stop style="stop-color:#3b393b;stop-opacity:1" id="stop217781" offset=".219"/><stop style="stop-color:#3a393a;stop-opacity:1" id="stop217783" offset=".234"/><stop style="stop-color:#3a383a;stop-opacity:1" id="stop217785" offset=".25"/><stop style="stop-color:#393739;stop-opacity:1" id="stop217787" offset=".266"/><stop style="stop-color:#383638;stop-opacity:1" id="stop217789" offset=".281"/><stop style="stop-color:#383637;stop-opacity:1" id="stop217791" offset=".297"/><stop style="stop-color:#373537;stop-opacity:1" id="stop217793" offset=".313"/><stop style="stop-color:#363436;stop-opacity:1" id="stop217795" offset=".328"/><stop style="stop-color:#363335;stop-opacity:1" id="stop217797" offset=".344"/><stop style="stop-color:#353334;stop-opacity:1" id="stop217799" offset=".359"/><stop style="stop-color:#343234;stop-opacity:1" id="stop217801" offset=".375"/><stop style="stop-color:#343133;stop-opacity:1" id="stop217803" offset=".391"/><stop style="stop-color:#333032;stop-opacity:1" id="stop217805" offset=".406"/><stop style="stop-color:#323031;stop-opacity:1" id="stop217807" offset=".422"/><stop style="stop-color:#322f30;stop-opacity:1" id="stop217809" offset=".438"/><stop style="stop-color:#312e30;stop-opacity:1" id="stop217811" offset=".453"/><stop style="stop-color:#302e2f;stop-opacity:1" id="stop217813" offset=".469"/><stop style="stop-color:#302d2e;stop-opacity:1" id="stop217815" offset=".484"/><stop style="stop-color:#2f2c2d;stop-opacity:1" id="stop217817" offset=".5"/><stop style="stop-color:#2e2b2d;stop-opacity:1" id="stop217819" offset=".516"/><stop style="stop-color:#2e2b2c;stop-opacity:1" id="stop217821" offset=".531"/><stop style="stop-color:#2d2a2b;stop-opacity:1" id="stop217823" offset=".547"/><stop style="stop-color:#2c292a;stop-opacity:1" id="stop217825" offset=".563"/><stop style="stop-color:#2c282a;stop-opacity:1" id="stop217827" offset=".578"/><stop style="stop-color:#2b2829;stop-opacity:1" id="stop217829" offset=".594"/><stop style="stop-color:#2a2728;stop-opacity:1" id="stop217831" offset=".609"/><stop style="stop-color:#2a2627;stop-opacity:1" id="stop217833" offset=".625"/><stop style="stop-color:#292527;stop-opacity:1" id="stop217835" offset=".641"/><stop style="stop-color:#282526;stop-opacity:1" id="stop217837" offset=".656"/><stop style="stop-color:#282425;stop-opacity:1" id="stop217839" offset=".672"/><stop style="stop-color:#272324;stop-opacity:1" id="stop217841" offset=".688"/><stop style="stop-color:#262324;stop-opacity:1" id="stop217843" offset=".703"/><stop style="stop-color:#262223;stop-opacity:1" id="stop217845" offset=".719"/><stop style="stop-color:#252122;stop-opacity:1" id="stop217847" offset=".734"/><stop style="stop-color:#242021;stop-opacity:1" id="stop217849" offset=".75"/><stop style="stop-color:#242021;stop-opacity:1" id="stop217851" offset=".766"/><stop style="stop-color:#231f20;stop-opacity:1" id="stop217853" offset=".781"/><stop style="stop-color:#231f20;stop-opacity:1" id="stop217855" offset=".813"/><stop style="stop-color:#231f20;stop-opacity:1" id="stop217857" offset=".875"/><stop style="stop-color:#231f20;stop-opacity:1" id="stop217859" offset="1"/></linearGradient></defs><metadata id="metadata261900"/><g id="layer1" transform="translate(-56.636094,-70.97654)"><path id="path227414" d="M 56.636094,70.97654 H 71.689792 V 199.2898 H 56.636094 Z m 0,0" style="fill:#e6e6e6;fill-opacity:1;fill-rule:nonzero;stroke:none;stroke-width:.35277775"/><path id="path227416" d="M 71.875811,70.97654 H 56.636094 v 128.4993 H 71.875811 Z M 71.689756,199.28981 H 56.823489 V 71.163954 h 14.866267 z m 0,0" style="fill:#ababab;fill-opacity:1;fill-rule:nonzero;stroke:none;stroke-width:.35277775"/><rect style="display:inline;fill:#000;fill-opacity:1;fill-rule:evenodd;stroke:none;stroke-width:.20018744;stroke-linecap:butt;stroke-linejoin:round;stroke-miterlimit:4;stroke-dasharray:none;stroke-opacity:1;paint-order:normal" id="rect866-0-0" width="10.706" height="10.538" x="59.101" y="179.875" ry="1.28"/><g style="font-style:normal;font-weight:400;font-size:10.58333302px;line-height:1.25;font-family:sans-serif;letter-spacing:0;word-spacing:0;fill:#b4b4b4;fill-opacity:1;stroke:none;stroke-width:.26458332" id="text4594" aria-label="BEAT FREQ" transform="matrix(0.31816647,0,0,0.31816647,54.66396,50.83933)"><path style="fill:#b4b4b4;fill-opacity:1;stroke-width:.26458332" id="path4598" d="m 17.893236,84.005832 v 2.8267 h 1.674316 q 0.842326,0 1.245402,-0.346232 0.408244,-0.3514 0.408244,-1.069702 0,-0.72347 -0.408244,-1.064534 -0.403076,-0.346232 -1.245402,-0.346232 z m 0,-3.172933 v 2.325439 h 1.545125 q 0.764811,0 1.136882,-0.28422 0.377237,-0.289388 0.377237,-0.8785 0,-0.583943 -0.377237,-0.873331 -0.372071,-0.289388 -1.136882,-0.289388 z M 16.849372,79.97507 h 2.666504 q 1.193725,0 1.839681,0.496094 0.645955,0.496093 0.645955,1.410766 0,0.707967 -0.330729,1.126546 -0.330729,0.418579 -0.971517,0.521932 0.769979,0.165365 1.193726,0.692465 0.428914,0.521931 0.428914,1.307413 0,1.033529 -0.7028,1.596802 -0.702799,0.563273 -1.999877,0.563273 h -2.769857 z"/><path style="fill:#b4b4b4;fill-opacity:1;stroke-width:.26458332" id="path4600" d="m 24.104743,79.97507 h 4.878255 v 0.878499 h -3.834391 v 2.284098 h 3.674194 v 0.8785 h -3.674194 v 2.795695 h 3.927409 v 0.878499 h -4.971273 z"/><path style="fill:#b4b4b4;fill-opacity:1;stroke-width:.26458332" id="path4602" d="m 33.380662,81.003431 -1.415934,3.839559 h 2.837036 z M 32.791551,79.97507 h 1.18339 l 2.940389,7.715291 h -1.085205 l -0.702799,-1.979207 h -3.477824 l -0.702799,1.979207 h -1.100708 z"/><path style="fill:#b4b4b4;fill-opacity:1;stroke-width:.26458332" id="path4604" d="m 36.140183,79.97507 h 6.526734 v 0.878499 h -2.738851 v 6.836792 h -1.049032 v -6.836792 h -2.738851 z"/><path style="fill:#b4b4b4;fill-opacity:1;stroke-width:.26458332" id="path4606" d="m 16.849372,93.204236 h 4.433838 v 0.8785 h -3.389974 v 2.273762 h 3.059244 v 0.8785 h -3.059244 v 3.684532 h -1.043864 z"/><path style="fill:#b4b4b4;fill-opacity:1;stroke-width:.26458332" id="path4608" d="m 26.605882,97.302177 q 0.335897,0.113688 0.651123,0.485759 0.320394,0.37207 0.640788,1.023193 l 1.059367,2.108401 h -1.121379 l -0.98702,-1.97921 q -0.382405,-0.775146 -0.74414,-1.028361 -0.356568,-0.253214 -0.976685,-0.253214 h -1.136881 v 3.260785 h -1.043864 v -7.715294 h 2.356445 q 1.322917,0 1.97404,0.552938 0.651123,0.552938 0.651123,1.669149 0,0.728637 -0.341065,1.209228 -0.335897,0.480591 -0.981852,0.666626 z m -2.614827,-3.240112 v 2.738851 h 1.312581 q 0.754476,0 1.136881,-0.346232 0.387574,-0.3514 0.387574,-1.028361 0,-0.676962 -0.387574,-1.018026 -0.382405,-0.346232 -1.136881,-0.346232 z"/><path style="fill:#b4b4b4;fill-opacity:1;stroke-width:.26458332" id="path4610" d="m 30.305915,93.204236 h 4.878255 v 0.8785 h -3.834391 v 2.284098 h 3.674194 v 0.878499 h -3.674194 v 2.795697 h 3.927408 v 0.8785 h -4.971272 z"/><path style="fill:#b4b4b4;fill-opacity:1;stroke-width:.26458332" id="path4612" d="m 40.134772,93.912203 q -1.136881,0 -1.808675,0.847494 -0.666626,0.847493 -0.666626,2.309936 0,1.457276 0.666626,2.304769 0.671794,0.847498 1.808675,0.847498 1.136882,0 1.79834,-0.847498 0.666626,-0.847493 0.666626,-2.304769 0,-1.462443 -0.666626,-2.309936 -0.661458,-0.847494 -1.79834,-0.847494 z m 1.462443,6.867797 1.374593,1.50379 h -1.260905 l -1.142049,-1.23507 q -0.170532,0.0103 -0.26355,0.0155 -0.08785,0.005 -0.170532,0.005 -1.627807,0 -2.604492,-1.085206 -0.971517,-1.090373 -0.971517,-2.914551 0,-1.829345 0.971517,-2.91455 0.976685,-1.090373 2.604492,-1.090373 1.62264,0 2.594157,1.090373 0.971517,1.085205 0.971517,2.91455 0,1.343587 -0.542603,2.299601 -0.537435,0.956016 -1.560628,1.410766 z"/></g><g style="font-style:normal;font-weight:400;font-size:10.58333302px;line-height:1.25;font-family:sans-serif;letter-spacing:0;word-spacing:0;fill:#b4b4b4;fill-opacity:1;stroke:none;stroke-width:.26458332" id="text4617" aria-label="OCT" transform="matrix(0,0.40149301,-0.40149301,0,115.47926,136.99185)"><path style="fill:#b4b4b4;fill-opacity:1;stroke-width:.26458332" id="path4631" d="m -87.738266,112.71554 q -1.136882,0 -1.808675,0.84749 -0.666626,0.8475 -0.666626,2.30994 0,1.45727 0.666626,2.30477 0.671793,0.84749 1.808675,0.84749 1.136881,0 1.79834,-0.84749 0.666626,-0.8475 0.666626,-2.30477 0,-1.46244 -0.666626,-2.30994 -0.661459,-0.84749 -1.79834,-0.84749 z m 0,-0.8475 q 1.62264,0 2.594157,1.09038 0.971517,1.0852 0.971517,2.91455 0,1.82418 -0.971517,2.91455 -0.971517,1.0852 -2.594157,1.0852 -1.627808,0 -2.604492,-1.0852 -0.971517,-1.08521 -0.971517,-2.91455 0,-1.82935 0.971517,-2.91455 0.976684,-1.09038 2.604492,-1.09038 z"/><path style="fill:#b4b4b4;fill-opacity:1;stroke-width:.26458332" id="path4633" d="m -76.762193,112.60185 v 1.10071 q -0.527099,-0.49093 -1.126546,-0.73381 -0.594279,-0.24288 -1.266072,-0.24288 -1.322917,0 -2.025716,0.81132 -0.7028,0.80616 -0.7028,2.33578 0,1.52445 0.7028,2.33577 0.702799,0.80616 2.025716,0.80616 0.671793,0 1.266072,-0.24288 0.599447,-0.24288 1.126546,-0.73381 v 1.09037 q -0.54777,0.37207 -1.162719,0.55811 -0.609782,0.18603 -1.291911,0.18603 -1.751831,0 -2.759521,-1.0697 -1.007691,-1.07487 -1.007691,-2.93005 0,-1.86035 1.007691,-2.93006 1.00769,-1.07487 2.759521,-1.07487 0.692464,0 1.302246,0.18604 0.61495,0.18087 1.152384,0.54777 z"/><path style="fill:#b4b4b4;fill-opacity:1;stroke-width:.26458332" id="path4635" d="m -76.209255,112.00757 h 6.526733 v 0.8785 h -2.738851 v 6.83679 h -1.049031 v -6.83679 h -2.738851 z"/></g><g style="font-style:normal;font-weight:400;font-size:10.58333302px;line-height:1.25;font-family:sans-serif;letter-spacing:0;word-spacing:0;fill:#b4b4b4;fill-opacity:1;stroke:none;stroke-width:.26458332" id="text4621" aria-label="SEMI" transform="matrix(0,0.40149301,-0.40149301,0,124.26822,153.81565)"><path style="fill:#b4b4b4;fill-opacity:1;stroke-width:.26458332" id="path4638" d="m -78.49629,133.61645 v 1.01802 q -0.594279,-0.28422 -1.121378,-0.42375 -0.5271,-0.13952 -1.018026,-0.13952 -0.852661,0 -1.317749,0.33073 -0.45992,0.33073 -0.45992,0.94051 0,0.51159 0.304891,0.77514 0.310058,0.25839 1.167887,0.41858 l 0.630453,0.12919 q 1.167887,0.22221 1.720825,0.78549 0.558105,0.5581 0.558105,1.49861 0,1.12138 -0.754476,1.70016 -0.749308,0.57877 -2.201416,0.57877 -0.54777,0 -1.167887,-0.12402 -0.61495,-0.12402 -1.276408,-0.3669 v -1.07487 q 0.63562,0.35656 1.245402,0.53743 0.609782,0.18087 1.198893,0.18087 0.894003,0 1.379761,-0.3514 0.485758,-0.3514 0.485758,-1.00252 0,-0.56844 -0.351399,-0.88884 -0.346232,-0.32039 -1.142049,-0.48059 l -0.63562,-0.12402 q -1.167888,-0.23255 -1.68982,-0.72864 -0.521932,-0.49609 -0.521932,-1.37976 0,-1.02319 0.718303,-1.6123 0.72347,-0.58912 1.989542,-0.58912 0.542603,0 1.105876,0.0982 0.563273,0.0982 1.152384,0.29456 z"/><path style="fill:#b4b4b4;fill-opacity:1;stroke-width:.26458332" id="path4640" d="m -76.403394,133.36323 h 4.878255 v 0.8785 h -3.834391 v 2.2841 h 3.674194 v 0.8785 h -3.674194 v 2.79569 h 3.927408 v 0.8785 h -4.971272 z"/><path style="fill:#b4b4b4;fill-opacity:1;stroke-width:.26458332" id="path4642" d="m -69.706129,133.36323 h 1.55546 l 1.968872,5.25033 1.979208,-5.25033 h 1.55546 v 7.71529 h -1.018025 v -6.77478 l -1.989543,5.29167 h -1.049031 l -1.989543,-5.29167 v 6.77478 h -1.012858 z"/><path style="fill:#b4b4b4;fill-opacity:1;stroke-width:.26458332" id="path4644" d="m -60.569737,133.36323 h 1.043864 v 7.71529 h -1.043864 z"/></g><g style="font-style:normal;font-weight:400;font-size:10.58333302px;line-height:1.25;font-family:sans-serif;letter-spacing:0;word-spacing:0;fill:#b4b4b4;fill-opacity:1;stroke:none;stroke-width:.26458332" id="text4625" aria-label="CENT" transform="matrix(0,0.40149301,-0.40149301,0,132.01353,171.82106)"><path style="fill:#b4b4b4;fill-opacity:1;stroke-width:.26458332" id="path4647" d="m -71.485286,153.04531 v 1.10071 q -0.527099,-0.49093 -1.126546,-0.73381 -0.594279,-0.24288 -1.266072,-0.24288 -1.322917,0 -2.025716,0.81132 -0.7028,0.80615 -0.7028,2.33578 0,1.52445 0.7028,2.33577 0.702799,0.80615 2.025716,0.80615 0.671793,0 1.266072,-0.24288 0.599447,-0.24287 1.126546,-0.7338 v 1.09037 q -0.54777,0.37207 -1.162719,0.55811 -0.609782,0.18603 -1.291911,0.18603 -1.751831,0 -2.759522,-1.0697 -1.00769,-1.07487 -1.00769,-2.93005 0,-1.86035 1.00769,-2.93006 1.007691,-1.07487 2.759522,-1.07487 0.692464,0 1.302246,0.18604 0.614949,0.18087 1.152384,0.54777 z"/><path style="fill:#b4b4b4;fill-opacity:1;stroke-width:.26458332" id="path4649" d="m -69.862646,152.45103 h 4.878255 v 0.8785 h -3.834391 v 2.2841 h 3.674194 v 0.8785 h -3.674194 v 2.79569 h 3.927409 v 0.8785 h -4.971273 z"/><path style="fill:#b4b4b4;fill-opacity:1;stroke-width:.26458332" id="path4651" d="m -63.165381,152.45103 h 1.405599 l 3.42098,6.45439 v -6.45439 h 1.012858 v 7.71529 h -1.405599 l -3.420979,-6.45439 v 6.45439 h -1.012859 z"/><path style="fill:#b4b4b4;fill-opacity:1;stroke-width:.26458332" id="path4653" d="m -56.318253,152.45103 h 6.526734 v 0.8785 h -2.738851 v 6.83679 h -1.049032 v -6.83679 h -2.738851 z"/></g><g style="font-style:normal;font-weight:400;font-size:10.58333302px;line-height:1.25;font-family:sans-serif;letter-spacing:0;word-spacing:0;fill:#b4b4b4;fill-opacity:1;stroke:none;stroke-width:.26458332" id="text4629" aria-label="BEAT" transform="matrix(0,0.40149301,-0.40149301,0,139.70884,195.5788)"><path style="fill:#b4b4b4;fill-opacity:1;stroke-width:.26458332" id="path4656" d="m -79.998601,175.75857 v 2.8267 h 1.674316 q 0.842326,0 1.245402,-0.34623 0.408244,-0.3514 0.408244,-1.0697 0,-0.72347 -0.408244,-1.06454 -0.403076,-0.34623 -1.245402,-0.34623 z m 0,-3.17293 v 2.32544 h 1.545125 q 0.764811,0 1.136881,-0.28422 0.377238,-0.28939 0.377238,-0.8785 0,-0.58395 -0.377238,-0.87333 -0.37207,-0.28939 -1.136881,-0.28939 z m -1.043864,-0.85783 h 2.666504 q 1.193725,0 1.839681,0.49609 0.645955,0.4961 0.645955,1.41077 0,0.70797 -0.330729,1.12655 -0.330729,0.41857 -0.971517,0.52193 0.769979,0.16536 1.193725,0.69246 0.428915,0.52193 0.428915,1.30742 0,1.03352 -0.7028,1.5968 -0.702799,0.56327 -1.999878,0.56327 h -2.769856 z"/><path style="fill:#b4b4b4;fill-opacity:1;stroke-width:.26458332" id="path4658" d="m -73.787094,171.72781 h 4.878255 v 0.8785 h -3.834391 v 2.2841 h 3.674194 v 0.8785 h -3.674194 v 2.79569 h 3.927408 v 0.8785 h -4.971272 z"/><path style="fill:#b4b4b4;fill-opacity:1;stroke-width:.26458332" id="path4660" d="m -64.511175,172.75617 -1.415934,3.83956 h 2.837036 z m -0.589111,-1.02836 h 1.18339 l 2.940389,7.71529 h -1.085205 l -0.702799,-1.97921 h -3.477824 l -0.7028,1.97921 h -1.100707 z"/><path style="fill:#b4b4b4;fill-opacity:1;stroke-width:.26458332" id="path4662" d="m -61.751654,171.72781 h 6.526734 v 0.8785 h -2.738851 v 6.83679 h -1.049032 v -6.83679 h -2.738851 z"/></g></g><g id="layer2" style="display:none"><rect style="opacity:1;vector-effect:none;fill:red;fill-opacity:.50196078;fill-rule:evenodd;stroke:none;stroke-width:.19901438;stroke-linecap:round;stroke-linejoin:miter;stroke-miterlimit:10;stroke-dasharray:none;stroke-dashoffset:0;stroke-opacity:1;paint-order:normal" id="rect262182" width="4.747" height="10" x="5.246" y="46.915"/><rect id="rect262989" width="8.212" height="8.21" x="3.514" y="17.694" style="opacity:1;vector-effect:none;fill:#0f0;fill-opacity:.50196078;fill-rule:evenodd;stroke:none;stroke-width:.23716429;stroke-linecap:round;stroke-linejoin:miter;stroke-miterlimit:10;stroke-dasharray:none;stroke-dashoffset:0;stroke-opacity:1;paint-order:normal"/><rect style="opacity:1;vector-effect:none;fill:#0f0;fill-opacity:.50196078;fill-rule:evenodd;stroke:none;stroke-width:.23716429;stroke-linecap:round;stroke-linejoin:miter;stroke-miterlimit:10;stroke-dasharray:none;stroke-dashoffset:0;stroke-opacity:1;paint-order:normal" id="rect262991" width="8.212" height="8.21" x="3.514" y="32.19"/><rect id="rect262993" width="8.212" height="8.21" x="3.515" y="62.81" style="opacity:1;vector-effect:none;fill:#0f0;fill-opacity:.50196078;fill-rule:evenodd;stroke:none;stroke-width:.23716429;stroke-linecap:round;stroke-linejoin:miter;stroke-miterlimit:10;stroke-dasharray:none;stroke-dashoffset:0;stroke-opacity:1;paint-order:normal"/><rect style="opacity:1;vector-effect:none;fill:#00f;fill-opacity:.50196078;fill-rule:evenodd;stroke:none;stroke-width:.23716429;stroke-linecap:round;stroke-linejoin:miter;stroke-miterlimit:10;stroke-dasharray:none;stroke-dashoffset:0;stroke-opacity:1;paint-order:normal" id="rect262995" width="8.212" height="8.21" x="3.515" y="77.81"/><rect id="rect262997" width="8.212" height="8.21" x="3.514" y="87.811" style="opacity:1;vector-effect:none;fill:#00f;fill-opacity:.50196078;fill-rule:evenodd;stroke:none;stroke-width:.23716429;stroke-linecap:round;stroke-linejoin:miter;stroke-miterlimit:10;stroke-dasharray:none;stroke-dashoffset:0;stroke-opacity:1;paint-order:normal"/><rect style="opacity:1;vector-effect:none;fill:#00f;fill-opacity:.50196078;fill-rule:evenodd;stroke:none;stroke-width:.23716429;stroke-linecap:round;stroke-linejoin:miter;stroke-miterlimit:10;stroke-dasharray:none;stroke-dashoffset:0;stroke-opacity:1;paint-order:normal" id="rect262999" width="8.212" height="8.21" x="3.514" y="97.809"/><rect id="rect263001" width="8.212" height="8.21" x="3.514" y="107.809" style="opacity:1;vector-effect:none;fill:#00f;fill-opacity:.50196078;fill-rule:evenodd;stroke:none;stroke-width:.23716429;stroke-linecap:round;stroke-linejoin:miter;stroke-miterlimit:10;stroke-dasharray:none;stroke-dashoffset:0;stroke-opacity:1;paint-order:normal"/><rect id="rect263003" width=".999" height=".999" x="10.82" y="77.716" style="opacity:1;vector-effect:none;fill:#f0f;fill-opacity:.50196078;fill-rule:evenodd;stroke:none;stroke-width:.02885729;stroke-linecap:round;stroke-linejoin:miter;stroke-miterlimit:10;stroke-dasharray:none;stroke-dashoffset:0;stroke-opacity:1;paint-order:normal"/><rect style="opacity:1;vector-effect:none;fill:#f0f;fill-opacity:.50196078;fill-rule:evenodd;stroke:none;stroke-width:.02885729;stroke-linecap:round;stroke-linejoin:miter;stroke-miterlimit:10;stroke-dasharray:none;stroke-dashoffset:0;stroke-opacity:1;paint-order:normal" id="rect263005" width=".999" height=".999" x="10.82" y="87.716"/><rect id="rect263007" width=".999" height=".999" x="10.82" y="97.717" style="opacity:1;vector-effect:none;fill:#f0f;fill-opacity:.50196078;fill-rule:evenodd;stroke:none;stroke-width:.02885729;stroke-linecap:round;stroke-linejoin:miter;stroke-miterlimit:10;stroke-dasharray:none;stroke-dashoffset:0;stroke-opacity:1;paint-order:normal"/><rect style="opacity:1;vector-effect:none;fill:#f0f;fill-opacity:.50196078;fill-rule:evenodd;stroke:none;stroke-width:.02885729;stroke-linecap:round;stroke-linejoin:miter;stroke-miterlimit:10;stroke-dasharray:none;stroke-dashoffset:0;stroke-opacity:1;paint-order:normal" id="rect263009" width=".999" height=".999" x="10.82" y="107.716"/></g></svg>