<svg xmlns="http://www.w3.org/2000/svg" xmlns:svg="http://www.w3.org/2000/svg" id="svg261903" width="57.599" height="485.667" version="1.1" viewBox="0 0 15.24 128.499"><defs id="defs261897"><linearGradient id="linear20" x1="-.096" x2="1.325" y1="0" y2="0" gradientTransform="matrix(0,6.4087959,-6.4087959,0,64.256445,118.95198)" gradientUnits="userSpaceOnUse"><stop style="stop-color:#414042;stop-opacity:1" id="stop217759" offset="0"/><stop style="stop-color:#414042;stop-opacity:1" id="stop217761" offset=".063"/><stop style="stop-color:#414042;stop-opacity:1" id="stop217763" offset=".078"/><stop style="stop-color:#403f41;stop-opacity:1" id="stop217765" offset=".094"/><stop style="stop-color:#403e40;stop-opacity:1" id="stop217767" offset=".109"/><stop style="stop-color:#3f3e40;stop-opacity:1" id="stop217769" offset=".125"/><stop style="stop-color:#3e3d3f;stop-opacity:1" id="stop217771" offset=".141"/><stop style="stop-color:#3e3c3e;stop-opacity:1" id="stop217773" offset=".156"/><stop style="stop-color:#3d3b3d;stop-opacity:1" id="stop217775" offset=".172"/><stop style="stop-color:#3c3b3d;stop-opacity:1" id="stop217777" offset=".188"/><stop style="stop-color:#3c3a3c;stop-opacity:1" id="stop217779" offset=".203"/><stop style="stop-color:#3b393b;stop-opacity:1" id="stop217781" offset=".219"/><stop style="stop-color:#3a393a;stop-opacity:1" id="stop217783" offset=".234"/><stop style="stop-color:#3a383a;stop-opacity:1" id="stop217785" offset=".25"/><stop style="stop-color:#393739;stop-opacity:1" id="stop217787" offset=".266"/><stop style="stop-color:#383638;stop-opacity:1" id="stop217789" offset=".281"/><stop style="stop-color:#383637;stop-opacity:1" id="stop217791" offset=".297"/><stop style="stop-color:#373537;stop-opacity:1" id="stop217793" offset=".313"/><stop style="stop-color:#363436;stop-opacity:1" id="stop217795" offset=".328"/><stop style="stop-color:#363335;stop-opacity:1" id="stop217797" offset=".344"/><stop style="stop-color:#353334;stop-opacity:1" id="stop217799" offset=".359"/><stop style="stop-color:#343234;stop-opacity:1" id="stop217801" offset=".375"/><stop style="stop-color:#343133;stop-opacity:1" id="stop217803" offset=".391"/><stop style="stop-color:#333032;stop-opacity:1" id="stop217805" offset=".406"/><stop style="stop-color:#323031;stop-opacity:1" id="stop217807" offset=".422"/><stop style="stop-color:#322f30;stop-opacity:1" id="stop217809" offset=".438"/><stop style="stop-color:#312e30;stop-opacity:1" id="stop217811" offset=".453"/><stop style="stop-color:#302e2f;stop-opacity:1" id="stop217813" offset=".469"/><stop style="stop-color:#302d2e;stop-opacity:1" id="stop217815" offset=".484"/><stop style="stop-color:#2f2c2d;stop-opacity:1" id="stop217817" offset=".5"/><stop style="stop-color:#2e2b2d;stop-opacity:1" id="stop217819" offset=".516"/><stop style="stop-color:#2e2b2c;stop-opacity:1" id="stop217821" offset=".531"/><stop style="stop-color:#2d2a2b;stop-opacity:1" id="stop217823" offset=".547"/><stop style="stop-color:#2c292a;stop-opacity:1" id="stop217825" offset=".563"/><stop style="stop-color:#2c282a;stop-opacity:1" id="stop217827" offset=".578"/><stop style="stop-color:#2b2829;stop-opacity:1" id="stop217829" offset=".594"/><stop style="stop-color:#2a2728;stop-opacity:1" id="stop217831" offset=".609"/><stop style="stop-color:#2a2627;stop-opacity:1" id="stop217833" offset=".625"/><stop style="stop-color:#292527;stop-opacity:1" id="stop217835" offset=".641"/><stop style="stop-color:#282526;stop-opacity:1" id="stop217837" offset=".656"/><stop style="stop-color:#282425;stop-opacity:1" id="stop217839" offset=".672"/><stop style="stop-color:#272324;stop-opacity:1" id="stop217841" offset=".688"/><stop style="stop-color:#262324;stop-opacity:1" id="stop217843" offset=".703"/><stop style="stop-color:#262223;stop-opacity:1" id="stop217845" offset=".719"/><stop style="stop-color:#252122;stop-opacity:1" id="stop217847" offset=".734"/><stop style="stop-color:#242021;stop-opacity:1" id="stop217849" offset=".75"/><stop style="stop-color:#242021;stop-opacity:1" id="stop217851" offset=".766"/><stop style="stop-color:#231f20;stop-opacity:1" id="stop217853" offset=".781"/><stop style="stop-color:#231f20;stop-opacity:1" id="stop217855" offset=".813"/><stop style="stop-color:#231f20;stop-opacity:1" id="stop217857" offset=".875"/><stop style="stop-color:#231f20;stop-opacity:1" id="stop217859" offset="1"/></linearGradient></defs><metadata id="metadata261900"/><g id="layer1" transform="translate(-56.636094,-70.97654)"><path id="path227414" d="M 56.636094,70.97654 H 71.689792 V 199.2898 H 56.636094 Z m 0,0" style="fill:#e6e6e6;fill-opacity:1;fill-rule:nonzero;stroke:none;stroke-width:.35277775"/><path id="path227416" d="M 71.875811,70.97654 H 56.636094 v 128.4993 H 71.875811 Z M 71.689756,199.28981 H 56.823489 V 71.163954 h 14.866267 z m 0,0" style="fill:#ababab;fill-opacity:1;fill-rule:nonzero;stroke:none;stroke-width:.35277775"/><rect style="display:inline;fill:#000;fill-opacity:1;fill-rule:evenodd;stroke:none;stroke-width:.20018744;stroke-linecap:butt;stroke-linejoin:round;stroke-miterlimit:4;stroke-dasharray:none;stroke-opacity:1;paint-order:normal" id="rect866-0-0" width="10.706" height="10.538" x="59.101" y="179.875" ry="1.28"/><g style="font-style:normal;font-weight:400;font-size:10.58333302px;line-height:1.25;font-family:sans-serif;letter-spacing:0;word-spacing:0;fill:#8b8b8b;fill-opacity:1;stroke:none;stroke-width:.26458332" id="text938" aria-label="OUT" transform="matrix(0.34629667,0,0,0.34629667,73.542719,134.88112)"><path style="fill:#8b8b8b;fill-opacity:1;stroke-width:.26458332" id="path940" d="m -33.272492,116.02943 q -1.136881,0 -1.808675,0.84749 -0.666626,0.84749 -0.666626,2.30994 0,1.45727 0.666626,2.30477 0.671794,0.84749 1.808675,0.84749 1.136882,0 1.79834,-0.84749 0.666626,-0.8475 0.666626,-2.30477 0,-1.46245 -0.666626,-2.30994 -0.661458,-0.84749 -1.79834,-0.84749 z m 0,-0.8475 q 1.62264,0 2.594157,1.09038 0.971517,1.0852 0.971517,2.91455 0,1.82417 -0.971517,2.91455 -0.971517,1.0852 -2.594157,1.0852 -1.627807,0 -2.604492,-1.0852 -0.971517,-1.08521 -0.971517,-2.91455 0,-1.82935 0.971517,-2.91455 0.976685,-1.09038 2.604492,-1.09038 z"/><path style="fill:#8b8b8b;fill-opacity:1;stroke-width:.26458332" id="path942" d="m -28.192699,115.32146 h 1.049032 v 4.68705 q 0,1.24024 0.449585,1.78801 0.449585,0.5426 1.457275,0.5426 1.002523,0 1.452108,-0.5426 0.449585,-0.54777 0.449585,-1.78801 v -4.68705 h 1.049031 v 4.81624 q 0,1.50895 -0.749308,2.27893 -0.744141,0.76998 -2.201416,0.76998 -1.462443,0 -2.211751,-0.76998 -0.744141,-0.76998 -0.744141,-2.27893 z"/><path style="fill:#8b8b8b;fill-opacity:1;stroke-width:.26458332" id="path944" d="m -21.39208,115.32146 h 6.526733 v 0.8785 h -2.738851 v 6.83679 h -1.049031 v -6.83679 h -2.738851 z"/></g><g style="font-style:normal;font-weight:400;font-size:3.29987264px;line-height:1.25;font-family:sans-serif;letter-spacing:0;word-spacing:0;fill:#8b8b8b;fill-opacity:1;stroke:none;stroke-width:.08249681" id="text904" aria-label="IN"><path style="fill:#8b8b8b;fill-opacity:1;stroke-width:.08249681" id="path957" d="m 63.010796,88.856526 h 0.325476 v 2.40562 h -0.325476 z"/><path style="fill:#8b8b8b;fill-opacity:1;stroke-width:.08249681" id="path959" d="m 63.984001,88.856526 h 0.438264 l 1.066658,2.012471 v -2.012471 h 0.315808 v 2.40562 h -0.438264 l -1.066658,-2.012471 v 2.012471 h -0.315808 z"/></g><g style="font-style:normal;font-weight:400;font-size:3.29987264px;line-height:1.25;font-family:sans-serif;letter-spacing:0;word-spacing:0;fill:#8b8b8b;fill-opacity:1;stroke:none;stroke-width:.08249681" id="text916" aria-label="TRIG" transform="translate(-0.1889881,2.078869)"><path style="fill:#8b8b8b;fill-opacity:1;stroke-width:.08249681" id="path948" d="m 60.959121,107.2083 h 2.035028 v 0.27392 h -0.853971 v 2.1317 h -0.327087 v -2.1317 h -0.85397 z"/><path style="fill:#8b8b8b;fill-opacity:1;stroke-width:.08249681" id="path950" d="m 64.450734,108.48604 q 0.104732,0.0354 0.203019,0.15145 0.0999,0.11602 0.199797,0.31904 l 0.33031,0.65739 h -0.349645 l -0.307752,-0.61711 q -0.119233,-0.24169 -0.232022,-0.32064 -0.111177,-0.079 -0.304529,-0.079 h -0.354479 v 1.01671 h -0.325476 v -2.40562 h 0.734738 q 0.412484,0 0.615503,0.17241 0.20302,0.1724 0.20302,0.52044 0,0.22718 -0.106344,0.37703 -0.104732,0.14985 -0.30614,0.20786 z m -0.815301,-1.01027 v 0.85397 h 0.409262 q 0.235245,0 0.354478,-0.10795 0.120845,-0.10957 0.120845,-0.32064 0,-0.21108 -0.120845,-0.31742 -0.119233,-0.10796 -0.354478,-0.10796 z"/><path style="fill:#8b8b8b;fill-opacity:1;stroke-width:.08249681" id="path952" d="m 65.6044,107.2083 h 0.325476 v 2.40562 H 65.6044 Z"/><path style="fill:#8b8b8b;fill-opacity:1;stroke-width:.08249681" id="path954" d="m 68.217873,109.27072 v -0.64612 h -0.531717 v -0.26747 h 0.853971 v 1.03283 q -0.188518,0.13373 -0.415707,0.20302 -0.227188,0.0677 -0.484991,0.0677 -0.563943,0 -0.882974,-0.3287 -0.317419,-0.33031 -0.317419,-0.91842 0,-0.58972 0.317419,-0.91842 0.319031,-0.33031 0.882974,-0.33031 0.235245,0 0.446321,0.058 0.212687,0.058 0.391537,0.1708 v 0.34642 q -0.180461,-0.15307 -0.383481,-0.23041 -0.203019,-0.0773 -0.426985,-0.0773 -0.441487,0 -0.663842,0.24652 -0.220743,0.24653 -0.220743,0.73474 0,0.4866 0.220743,0.73312 0.222355,0.24653 0.663842,0.24653 0.172405,0 0.307751,-0.029 0.135347,-0.0306 0.243301,-0.0935 z"/></g><g style="font-style:normal;font-weight:400;font-size:3.29987264px;line-height:1.25;font-family:sans-serif;letter-spacing:0;word-spacing:0;fill:#8b8b8b;fill-opacity:1;stroke:none;stroke-width:.08249681" id="text920" aria-label="RATIO" transform="translate(0,6.3311014)"><path style="fill:#8b8b8b;fill-opacity:1;stroke-width:.08249681" id="path937" d="m 61.272414,129.26413 q 0.104733,0.0354 0.20302,0.15146 0.0999,0.11601 0.199797,0.31903 l 0.330309,0.65739 h -0.349644 l -0.307752,-0.61711 q -0.119234,-0.24169 -0.232022,-0.32064 -0.111178,-0.079 -0.30453,-0.079 h -0.354478 v 1.01671 h -0.325476 v -2.40562 h 0.734737 q 0.412484,0 0.615504,0.17241 0.203019,0.1724 0.203019,0.52044 0,0.22719 -0.106343,0.37703 -0.104732,0.14985 -0.306141,0.20786 z m -0.8153,-1.01027 v 0.85397 h 0.409261 q 0.235245,0 0.354479,-0.10795 0.120845,-0.10957 0.120845,-0.32064 0,-0.21108 -0.120845,-0.31742 -0.119234,-0.10796 -0.354479,-0.10796 z"/><path style="fill:#8b8b8b;fill-opacity:1;stroke-width:.08249681" id="path939" d="m 63.094756,128.30704 -0.441487,1.19717 h 0.884585 z m -0.183684,-0.32065 h 0.36898 l 0.91681,2.40562 h -0.338366 l -0.219132,-0.61711 h -1.084382 l -0.219132,0.61711 h -0.3432 z"/><path style="fill:#8b8b8b;fill-opacity:1;stroke-width:.08249681" id="path941" d="m 63.955172,127.98639 h 2.035029 v 0.27392 H 65.13623 v 2.1317 h -0.327087 v -2.1317 h -0.853971 z"/><path style="fill:#8b8b8b;fill-opacity:1;stroke-width:.08249681" id="path943" d="m 66.306009,127.98639 h 0.325476 v 2.40562 h -0.325476 z"/><path style="fill:#8b8b8b;fill-opacity:1;stroke-width:.08249681" id="path945" d="m 68.255641,128.20714 q -0.354479,0 -0.563943,0.26424 -0.207854,0.26425 -0.207854,0.72024 0,0.45438 0.207854,0.71863 0.209464,0.26424 0.563943,0.26424 0.354478,0 0.56072,-0.26424 0.207853,-0.26425 0.207853,-0.71863 0,-0.45599 -0.207853,-0.72024 -0.206242,-0.26424 -0.56072,-0.26424 z m 0,-0.26425 q 0.505937,0 0.808855,0.33998 0.302918,0.33836 0.302918,0.90875 0,0.56878 -0.302918,0.90875 -0.302918,0.33837 -0.808855,0.33837 -0.507549,0 -0.812078,-0.33837 -0.302918,-0.33836 -0.302918,-0.90875 0,-0.57039 0.302918,-0.90875 0.304529,-0.33998 0.812078,-0.33998 z"/></g><g style="font-style:normal;font-weight:400;font-size:10.58333302px;line-height:1.25;font-family:sans-serif;letter-spacing:0;word-spacing:0;fill:#8b8b8b;fill-opacity:1;stroke:none;stroke-width:.26458332" id="text928" aria-label="DS" transform="matrix(0.47959474,0,0,0.47959474,44.840243,71.699624)"><path style="fill:#8b8b8b;fill-opacity:1;stroke-width:.26458332" id="path930" d="m 35.284133,11.851263 c 0,1.999878 0,3.999755 0,5.999633 1.126425,-0.02644 2.35808,0.149129 3.344807,-0.515048 0.904444,-0.63158 1.04514,-1.850295 0.984386,-2.867093 -0.03149,-0.897903 -0.411064,-1.882558 -1.278144,-2.275539 -0.949827,-0.460504 -2.030862,-0.317008 -3.051049,-0.341953 z m -1.043864,-0.857829 c 1.103817,0.02018 2.212818,-0.05482 3.311697,0.07399 1.13551,0.126284 2.336906,0.682628 2.80387,1.791108 0.466912,1.104883 0.46978,2.378601 0.168045,3.527401 -0.261974,1.007865 -1.103353,1.791798 -2.099618,2.058816 -1.285432,0.38595 -2.636006,0.23173 -3.957308,0.263979 -0.276528,0.08754 -0.235807,-0.142163 -0.226686,-0.34027 0,-2.45834 0,-4.916681 0,-7.375021 z"/><path style="fill:#8b8b8b;fill-opacity:1;stroke-width:.26458332" id="path932" d="m 47.009514,11.246648 c 0,0.339342 0,0.678684 0,1.018026 -0.995986,-0.480341 -2.206359,-0.803479 -3.269119,-0.34494 -0.762107,0.304522 -0.912677,1.564004 -0.153798,1.951108 1.051232,0.476386 2.357838,0.319834 3.258381,1.141121 0.77215,0.708632 0.816202,1.997588 0.273016,2.853124 -0.666721,0.914479 -1.905957,1.033072 -2.948705,0.981388 -0.717888,-0.04991 -1.420881,-0.232095 -2.094874,-0.478814 0,-0.35829 0,-0.71658 0,-1.07487 1.056581,0.597298 2.376632,0.972979 3.555662,0.520639 0.874632,-0.307624 1.033586,-1.659599 0.25711,-2.15961 -0.867697,-0.519363 -1.957278,-0.3882 -2.839559,-0.883727 -0.750092,-0.32645 -1.098581,-1.184738 -0.992996,-1.963786 0.04388,-0.977389 0.90016,-1.715866 1.823371,-1.869555 1.044964,-0.199142 2.132129,-0.01864 3.131511,0.309896 z"/></g></g><g id="layer2" style="display:none"><rect style="opacity:1;vector-effect:none;fill:red;fill-opacity:.50196078;fill-rule:evenodd;stroke:none;stroke-width:.19901438;stroke-linecap:round;stroke-linejoin:miter;stroke-miterlimit:10;stroke-dasharray:none;stroke-dashoffset:0;stroke-opacity:1;paint-order:normal" id="rect262182" width="4.747" height="10" x="5.246" y="46.915"/><rect id="rect262989" width="8.212" height="8.21" x="3.514" y="17.694" style="opacity:1;vector-effect:none;fill:#0f0;fill-opacity:.50196078;fill-rule:evenodd;stroke:none;stroke-width:.23716429;stroke-linecap:round;stroke-linejoin:miter;stroke-miterlimit:10;stroke-dasharray:none;stroke-dashoffset:0;stroke-opacity:1;paint-order:normal"/><rect style="opacity:1;vector-effect:none;fill:#0f0;fill-opacity:.50196078;fill-rule:evenodd;stroke:none;stroke-width:.23716429;stroke-linecap:round;stroke-linejoin:miter;stroke-miterlimit:10;stroke-dasharray:none;stroke-dashoffset:0;stroke-opacity:1;paint-order:normal" id="rect262991" width="8.212" height="8.21" x="3.514" y="32.19"/><rect id="rect262993" width="8.212" height="8.21" x="3.515" y="62.81" style="opacity:1;vector-effect:none;fill:#0f0;fill-opacity:.50196078;fill-rule:evenodd;stroke:none;stroke-width:.23716429;stroke-linecap:round;stroke-linejoin:miter;stroke-miterlimit:10;stroke-dasharray:none;stroke-dashoffset:0;stroke-opacity:1;paint-order:normal"/><rect style="opacity:1;vector-effect:none;fill:#00f;fill-opacity:.50196078;fill-rule:evenodd;stroke:none;stroke-width:.23716429;stroke-linecap:round;stroke-linejoin:miter;stroke-miterlimit:10;stroke-dasharray:none;stroke-dashoffset:0;stroke-opacity:1;paint-order:normal" id="rect262995" width="8.212" height="8.21" x="3.515" y="77.81"/><rect id="rect262997" width="8.212" height="8.21" x="3.514" y="87.811" style="opacity:1;vector-effect:none;fill:#00f;fill-opacity:.50196078;fill-rule:evenodd;stroke:none;stroke-width:.23716429;stroke-linecap:round;stroke-linejoin:miter;stroke-miterlimit:10;stroke-dasharray:none;stroke-dashoffset:0;stroke-opacity:1;paint-order:normal"/><rect style="opacity:1;vector-effect:none;fill:#00f;fill-opacity:.50196078;fill-rule:evenodd;stroke:none;stroke-width:.23716429;stroke-linecap:round;stroke-linejoin:miter;stroke-miterlimit:10;stroke-dasharray:none;stroke-dashoffset:0;stroke-opacity:1;paint-order:normal" id="rect262999" width="8.212" height="8.21" x="3.514" y="97.809"/><rect id="rect263001" width="8.212" height="8.21" x="3.514" y="107.809" style="opacity:1;vector-effect:none;fill:#00f;fill-opacity:.50196078;fill-rule:evenodd;stroke:none;stroke-width:.23716429;stroke-linecap:round;stroke-linejoin:miter;stroke-miterlimit:10;stroke-dasharray:none;stroke-dashoffset:0;stroke-opacity:1;paint-order:normal"/><rect id="rect263003" width=".999" height=".999" x="10.82" y="77.716" style="opacity:1;vector-effect:none;fill:#f0f;fill-opacity:.50196078;fill-rule:evenodd;stroke:none;stroke-width:.02885729;stroke-linecap:round;stroke-linejoin:miter;stroke-miterlimit:10;stroke-dasharray:none;stroke-dashoffset:0;stroke-opacity:1;paint-order:normal"/><rect style="opacity:1;vector-effect:none;fill:#f0f;fill-opacity:.50196078;fill-rule:evenodd;stroke:none;stroke-width:.02885729;stroke-linecap:round;stroke-linejoin:miter;stroke-miterlimit:10;stroke-dasharray:none;stroke-dashoffset:0;stroke-opacity:1;paint-order:normal" id="rect263005" width=".999" height=".999" x="10.82" y="87.716"/><rect id="rect263007" width=".999" height=".999" x="10.82" y="97.717" style="opacity:1;vector-effect:none;fill:#f0f;fill-opacity:.50196078;fill-rule:evenodd;stroke:none;stroke-width:.02885729;stroke-linecap:round;stroke-linejoin:miter;stroke-miterlimit:10;stroke-dasharray:none;stroke-dashoffset:0;stroke-opacity:1;paint-order:normal"/><rect style="opacity:1;vector-effect:none;fill:#f0f;fill-opacity:.50196078;fill-rule:evenodd;stroke:none;stroke-width:.02885729;stroke-linecap:round;stroke-linejoin:miter;stroke-miterlimit:10;stroke-dasharray:none;stroke-dashoffset:0;stroke-opacity:1;paint-order:normal" id="rect263009" width=".999" height=".999" x="10.82" y="107.716"/></g></svg>