<svg xmlns="http://www.w3.org/2000/svg" xmlns:svg="http://www.w3.org/2000/svg" id="svg261903" width="57.599" height="485.667" version="1.1" viewBox="0 0 15.24 128.499"><defs id="defs261897"><linearGradient id="linear20" x1="-.096" x2="1.325" y1="0" y2="0" gradientTransform="matrix(0,6.4087959,-6.4087959,0,64.256445,118.95198)" gradientUnits="userSpaceOnUse"><stop style="stop-color:#414042;stop-opacity:1" id="stop217759" offset="0"/><stop style="stop-color:#414042;stop-opacity:1" id="stop217761" offset=".063"/><stop style="stop-color:#414042;stop-opacity:1" id="stop217763" offset=".078"/><stop style="stop-color:#403f41;stop-opacity:1" id="stop217765" offset=".094"/><stop style="stop-color:#403e40;stop-opacity:1" id="stop217767" offset=".109"/><stop style="stop-color:#3f3e40;stop-opacity:1" id="stop217769" offset=".125"/><stop style="stop-color:#3e3d3f;stop-opacity:1" id="stop217771" offset=".141"/><stop style="stop-color:#3e3c3e;stop-opacity:1" id="stop217773" offset=".156"/><stop style="stop-color:#3d3b3d;stop-opacity:1" id="stop217775" offset=".172"/><stop style="stop-color:#3c3b3d;stop-opacity:1" id="stop217777" offset=".188"/><stop style="stop-color:#3c3a3c;stop-opacity:1" id="stop217779" offset=".203"/><stop style="stop-color:#3b393b;stop-opacity:1" id="stop217781" offset=".219"/><stop style="stop-color:#3a393a;stop-opacity:1" id="stop217783" offset=".234"/><stop style="stop-color:#3a383a;stop-opacity:1" id="stop217785" offset=".25"/><stop style="stop-color:#393739;stop-opacity:1" id="stop217787" offset=".266"/><stop style="stop-color:#383638;stop-opacity:1" id="stop217789" offset=".281"/><stop style="stop-color:#383637;stop-opacity:1" id="stop217791" offset=".297"/><stop style="stop-color:#373537;stop-opacity:1" id="stop217793" offset=".313"/><stop style="stop-color:#363436;stop-opacity:1" id="stop217795" offset=".328"/><stop style="stop-color:#363335;stop-opacity:1" id="stop217797" offset=".344"/><stop style="stop-color:#353334;stop-opacity:1" id="stop217799" offset=".359"/><stop style="stop-color:#343234;stop-opacity:1" id="stop217801" offset=".375"/><stop style="stop-color:#343133;stop-opacity:1" id="stop217803" offset=".391"/><stop style="stop-color:#333032;stop-opacity:1" id="stop217805" offset=".406"/><stop style="stop-color:#323031;stop-opacity:1" id="stop217807" offset=".422"/><stop style="stop-color:#322f30;stop-opacity:1" id="stop217809" offset=".438"/><stop style="stop-color:#312e30;stop-opacity:1" id="stop217811" offset=".453"/><stop style="stop-color:#302e2f;stop-opacity:1" id="stop217813" offset=".469"/><stop style="stop-color:#302d2e;stop-opacity:1" id="stop217815" offset=".484"/><stop style="stop-color:#2f2c2d;stop-opacity:1" id="stop217817" offset=".5"/><stop style="stop-color:#2e2b2d;stop-opacity:1" id="stop217819" offset=".516"/><stop style="stop-color:#2e2b2c;stop-opacity:1" id="stop217821" offset=".531"/><stop style="stop-color:#2d2a2b;stop-opacity:1" id="stop217823" offset=".547"/><stop style="stop-color:#2c292a;stop-opacity:1" id="stop217825" offset=".563"/><stop style="stop-color:#2c282a;stop-opacity:1" id="stop217827" offset=".578"/><stop style="stop-color:#2b2829;stop-opacity:1" id="stop217829" offset=".594"/><stop style="stop-color:#2a2728;stop-opacity:1" id="stop217831" offset=".609"/><stop style="stop-color:#2a2627;stop-opacity:1" id="stop217833" offset=".625"/><stop style="stop-color:#292527;stop-opacity:1" id="stop217835" offset=".641"/><stop style="stop-color:#282526;stop-opacity:1" id="stop217837" offset=".656"/><stop style="stop-color:#282425;stop-opacity:1" id="stop217839" offset=".672"/><stop style="stop-color:#272324;stop-opacity:1" id="stop217841" offset=".688"/><stop style="stop-color:#262324;stop-opacity:1" id="stop217843" offset=".703"/><stop style="stop-color:#262223;stop-opacity:1" id="stop217845" offset=".719"/><stop style="stop-color:#252122;stop-opacity:1" id="stop217847" offset=".734"/><stop style="stop-color:#242021;stop-opacity:1" id="stop217849" offset=".75"/><stop style="stop-color:#242021;stop-opacity:1" id="stop217851" offset=".766"/><stop style="stop-color:#231f20;stop-opacity:1" id="stop217853" offset=".781"/><stop style="stop-color:#231f20;stop-opacity:1" id="stop217855" offset=".813"/><stop style="stop-color:#231f20;stop-opacity:1" id="stop217857" offset=".875"/><stop style="stop-color:#231f20;stop-opacity:1" id="stop217859" offset="1"/></linearGradient></defs><metadata id="metadata261900"/><g id="layer1" transform="translate(-56.636094,-70.97654)"><path id="path227414" d="M 56.636094,70.97654 H 71.689792 V 199.2898 H 56.636094 Z m 0,0" style="fill:#e6e6e6;fill-opacity:1;fill-rule:nonzero;stroke:none;stroke-width:.35277775"/><path id="path227416" d="M 71.875811,70.97654 H 56.636094 v 128.4993 H 71.875811 Z M 71.689756,199.28981 H 56.823489 V 71.163954 h 14.866267 z m 0,0" style="fill:#ababab;fill-opacity:1;fill-rule:nonzero;stroke:none;stroke-width:.35277775"/><rect style="display:inline;fill:#000;fill-opacity:1;fill-rule:evenodd;stroke:none;stroke-width:.20018744;stroke-linecap:butt;stroke-linejoin:round;stroke-miterlimit:4;stroke-dasharray:none;stroke-opacity:1;paint-order:normal" id="rect866-0-0" width="10.706" height="10.538" x="59.101" y="179.875" ry="1.28"/><g style="font-style:normal;font-weight:400;font-size:10.58333302px;line-height:1.25;font-family:sans-serif;letter-spacing:0;word-spacing:0;fill:#8b8b8b;fill-opacity:1;stroke:none;stroke-width:.26458332" id="text915" aria-label="I" transform="matrix(0.33151022,0,0,0.33151022,70.343906,61.159974)"><path style="fill:#8b8b8b;fill-opacity:1;stroke-width:.26458332" id="path937" d="m -1.3917749,85.387271 h 1.04386388 v 7.715291 H -1.3917749 Z"/></g><g style="font-style:normal;font-weight:400;font-size:10.58333302px;line-height:1.25;font-family:sans-serif;letter-spacing:0;word-spacing:0;fill:#8b8b8b;fill-opacity:1;stroke:none;stroke-width:.26458332" id="text919" aria-label="T" transform="matrix(0.33151022,0,0,0.33151022,70.4384,67.963546)"><path style="fill:#8b8b8b;fill-opacity:1;stroke-width:.26458332" id="path940" d="m -4.0650935,97.147136 h 6.5267332 v 0.878499 h -2.73885084 v 6.836795 H -1.3262427 v -6.836795 h -2.7388508 z"/></g><g style="font-style:normal;font-weight:400;font-size:10.58333302px;line-height:1.25;font-family:sans-serif;letter-spacing:0;word-spacing:0;fill:#8b8b8b;fill-opacity:1;stroke:none;stroke-width:.26458332" id="text923" aria-label="R" transform="matrix(0.33151022,0,0,0.33151022,70.046656,73.784863)"><path style="fill:#8b8b8b;fill-opacity:1;stroke-width:.26458332" id="path943" d="m 1.4651083,114.07401 q 0.3358968,0.11369 0.651123,0.48576 0.3203939,0.37207 0.6407877,1.02319 l 1.0593669,2.1084 H 2.6950073 L 1.7079875,115.71215 Q 1.3255819,114.93701 0.96384688,114.68379 0.6072795,114.43058 -0.01283767,114.43058 H -1.1497191 v 3.26078 H -2.193583 v -7.71529 h 2.3564452 q 1.3229166,0 1.9740397,0.55294 0.651123,0.55293 0.651123,1.66915 0,0.72863 -0.3410645,1.20922 -0.3358968,0.4806 -0.9818521,0.66663 z m -2.6148274,-3.24011 v 2.73885 h 1.3125813 q 0.75447589,0 1.1368815,-0.34623 0.3875732,-0.3514 0.3875732,-1.02836 0,-0.67697 -0.3875732,-1.01803 -0.38240561,-0.34623 -1.1368815,-0.34623 z"/></g><g style="font-style:normal;font-weight:400;font-size:10.58333302px;line-height:1.25;font-family:sans-serif;letter-spacing:0;word-spacing:0;fill:#8b8b8b;fill-opacity:1;stroke:none;stroke-width:.26458332" id="text927" aria-label="M" transform="matrix(0.33151022,0,0,0.33151022,69.846203,78.464046)"><path style="fill:#8b8b8b;fill-opacity:1;stroke-width:.26458332" id="path946" d="m -2.7281192,123.07228 h 1.5554606 l 1.96887201,5.25032 1.97920729,-5.25032 h 1.5554606 v 7.71529 H 3.3128556 v -6.77478 L 1.323313,129.30445 H 0.27428146 l -1.98954256,-5.29166 v 6.77478 h -1.0128581 z"/></g><g style="font-style:normal;font-weight:400;font-size:10.58333302px;line-height:1.25;font-family:sans-serif;letter-spacing:0;word-spacing:0;fill:#8b8b8b;fill-opacity:1;stroke:none;stroke-width:.26458332" id="text931" aria-label="MIN" transform="matrix(0.28169956,0,0,0.28169956,62.81098,89.915833)"><path style="fill:#8b8b8b;fill-opacity:1;stroke-width:.26458332" id="path949" d="m -3.2626596,142.85021 h 1.5554606 l 1.968872,5.25033 1.9792073,-5.25033 h 1.5554606 v 7.7153 H 2.7783152 v -6.77478 l -1.98954261,5.29166 h -1.04903154 l -1.98954255,-5.29166 v 6.77478 h -1.0128581 z"/><path style="fill:#8b8b8b;fill-opacity:1;stroke-width:.26458332" id="path951" d="m 5.873733,142.85021 h 1.0438639 v 7.7153 H 5.873733 Z"/><path style="fill:#8b8b8b;fill-opacity:1;stroke-width:.26458332" id="path953" d="m 8.9949889,142.85021 h 1.4055991 l 3.42098,6.45439 v -6.45439 h 1.012858 v 7.7153 h -1.405599 l -3.42098,-6.45439 v 6.45439 H 8.9949889 Z"/></g><g style="font-style:normal;font-weight:400;font-size:10.58333302px;line-height:1.25;font-family:sans-serif;letter-spacing:0;word-spacing:0;fill:#8b8b8b;fill-opacity:1;stroke:none;stroke-width:.26458332" id="text935" aria-label="MAX" transform="matrix(0.28169956,0,0,0.28169956,62.422471,108.66995)"><path style="fill:#8b8b8b;fill-opacity:1;stroke-width:.26458332" id="path956" d="m -2.7281192,160.75729 h 1.5554606 l 1.96887201,5.25032 1.97920729,-5.25032 h 1.5554606 v 7.71529 H 3.3128556 V 161.6978 L 1.323313,166.98947 H 0.27428146 L -1.7152611,161.6978 v 6.77478 h -1.0128581 z"/><path style="fill:#8b8b8b;fill-opacity:1;stroke-width:.26458332" id="path958" d="m 8.9869273,161.78565 -1.4159342,3.83956 H 10.408029 Z M 8.397816,160.75729 h 1.1833903 l 2.9403887,7.71529 H 11.43639 l -0.702799,-1.97921 H 7.2557669 l -0.7027995,1.97921 H 5.4522595 Z"/><path style="fill:#8b8b8b;fill-opacity:1;stroke-width:.26458332" id="path960" d="m 13.270904,160.75729 h 1.121379 l 1.917195,2.86804 1.927531,-2.86804 h 1.121379 l -2.480469,3.7052 2.645833,4.01009 h -1.121378 l -2.17041,-3.28145 -2.185913,3.28145 h -1.126546 l 2.754353,-4.11861 z"/></g><g style="font-style:normal;font-weight:400;font-size:10.58333302px;line-height:1.25;font-family:sans-serif;letter-spacing:0;word-spacing:0;fill:#8b8b8b;fill-opacity:1;stroke:none;stroke-width:.26458332" id="text965" aria-label="R" transform="matrix(0.3303036,0,0,0.3303036,41.602579,91.831285)"><path style="fill:#8b8b8b;fill-opacity:1;stroke-width:.26458332" id="path974" d="m 87.791817,136.9887 q 0.335896,0.11369 0.651123,0.48576 0.320393,0.37207 0.640787,1.02319 l 1.059367,2.1084 h -1.121378 l -0.98702,-1.97921 q -0.382406,-0.77515 -0.744141,-1.02836 -0.356567,-0.25321 -0.976684,-0.25321 h -1.136882 v 3.26078 h -1.043864 v -7.71529 h 2.356446 q 1.322916,0 1.974039,0.55294 0.651123,0.55293 0.651123,1.66914 0,0.72864 -0.341064,1.20923 -0.335897,0.48059 -0.981852,0.66663 z m -2.614828,-3.24011 v 2.73885 h 1.312582 q 0.754475,0 1.136881,-0.34624 0.387573,-0.35139 0.387573,-1.02836 0,-0.67696 -0.387573,-1.01802 -0.382406,-0.34623 -1.136881,-0.34623 z"/></g><g style="font-style:normal;font-weight:400;font-size:10.58333302px;line-height:1.25;font-family:sans-serif;letter-spacing:0;word-spacing:0;fill:#8b8b8b;fill-opacity:1;stroke:none;stroke-width:.26458332" id="text969" aria-label="F" transform="matrix(0.3303036,0,0,0.3303036,41.413591,98.540362)"><path style="fill:#8b8b8b;fill-opacity:1;stroke-width:.26458332" id="path971" d="m 84.605591,141.39523 h 4.433838 v 0.8785 h -3.389974 v 2.27376 h 3.059244 v 0.8785 h -3.059244 v 3.68453 h -1.043864 z"/></g><g style="font-style:normal;font-weight:400;font-size:10.58333302px;line-height:1.25;font-family:sans-serif;letter-spacing:0;word-spacing:0;fill:#8b8b8b;fill-opacity:1;stroke:none;stroke-width:.26458332" id="text965-9" aria-label="R" transform="matrix(0.33030361,0,0,0.33030361,41.572164,115.53042)"><path style="fill:#8b8b8b;fill-opacity:1;stroke-width:.26458332" id="path974-5" d="m 87.791817,136.9887 q 0.335896,0.11369 0.651123,0.48576 0.320393,0.37207 0.640787,1.02319 l 1.059367,2.1084 h -1.121378 l -0.98702,-1.97921 q -0.382406,-0.77515 -0.744141,-1.02836 -0.356567,-0.25321 -0.976684,-0.25321 h -1.136882 v 3.26078 h -1.043864 v -7.71529 h 2.356446 q 1.322916,0 1.974039,0.55294 0.651123,0.55293 0.651123,1.66914 0,0.72864 -0.341064,1.20923 -0.335897,0.48059 -0.981852,0.66663 z m -2.614828,-3.24011 v 2.73885 h 1.312582 q 0.754475,0 1.136881,-0.34624 0.387573,-0.35139 0.387573,-1.02836 0,-0.67696 -0.387573,-1.01802 -0.382406,-0.34623 -1.136881,-0.34623 z"/></g><g style="font-style:normal;font-weight:400;font-size:10.58333302px;line-height:1.25;font-family:sans-serif;letter-spacing:0;word-spacing:0;fill:#8b8b8b;fill-opacity:1;stroke:none;stroke-width:.26458332" id="text969-2" aria-label="F" transform="matrix(0.33030361,0,0,0.33030361,41.383175,122.2395)"><path style="fill:#8b8b8b;fill-opacity:1;stroke-width:.26458332" id="path971-6" d="m 84.605591,141.39523 h 4.433838 v 0.8785 h -3.389974 v 2.27376 h 3.059244 v 0.8785 h -3.059244 v 3.68453 h -1.043864 z"/></g><g style="font-style:normal;font-weight:400;font-size:10.58333302px;line-height:1.25;font-family:sans-serif;letter-spacing:0;word-spacing:0;fill:#8b8b8b;fill-opacity:1;stroke:none;stroke-width:.26458332" id="text1039" aria-label="LEG ATO" transform="matrix(0.32357543,0,0,0.32357543,31.371788,59.230842)"><path style="fill:#8b8b8b;fill-opacity:1;stroke-width:.26458332" id="path1043" d="m 93.015564,57.39001 h 1.043864 v 6.836792 h 3.756876 v 0.878499 h -4.80074 z"/><path style="fill:#8b8b8b;fill-opacity:1;stroke-width:.26458332" id="path1045" d="m 98.906677,57.39001 h 4.878253 v 0.878499 h -3.834389 v 2.284098 h 3.674199 v 0.8785 h -3.674199 v 2.795695 h 3.927409 v 0.878499 h -4.971273 z"/><path style="fill:#8b8b8b;fill-opacity:1;stroke-width:.26458332" id="path1047" d="m 110.8646,64.004593 v -2.072225 h -1.70532 v -0.857829 h 2.73885 v 3.31246 q -0.60461,0.428914 -1.33325,0.651123 -0.72864,0.217041 -1.55546,0.217041 -1.80868,0 -2.83187,-1.0542 -1.01802,-1.059366 -1.01802,-2.945556 0,-1.891358 1.01802,-2.945557 1.02319,-1.059367 2.83187,-1.059367 0.75448,0 1.43144,0.186036 0.68213,0.186035 1.25573,0.54777 v 1.111043 q -0.57877,-0.490926 -1.2299,-0.738973 -0.65112,-0.248047 -1.36942,-0.248047 -1.41593,0 -2.12907,0.79065 -0.70797,0.790649 -0.70797,2.356445 0,1.560628 0.70797,2.351277 0.71314,0.79065 2.12907,0.79065 0.55294,0 0.98702,-0.09302 0.43408,-0.09819 0.78031,-0.299723 z"/><path style="fill:#8b8b8b;fill-opacity:1;stroke-width:.26458332" id="path1049" d="m 95.594218,71.647537 -1.415934,3.839559 h 2.837036 z m -0.589111,-1.028361 h 1.18339 l 2.940389,7.715291 h -1.085205 l -0.7028,-1.979207 h -3.477824 l -0.702799,1.979207 H 92.05955 Z"/><path style="fill:#8b8b8b;fill-opacity:1;stroke-width:.26458332" id="path1051" d="m 98.353739,70.619176 h 6.526731 v 0.878499 h -2.73885 v 6.836792 h -1.04903 v -6.836792 h -2.738851 z"/><path style="fill:#8b8b8b;fill-opacity:1;stroke-width:.26458332" id="path1053" d="m 109.02492,71.327143 q -1.13688,0 -1.80867,0.847494 -0.66663,0.847493 -0.66663,2.309936 0,1.457275 0.66663,2.304769 0.67179,0.847493 1.80867,0.847493 1.13688,0 1.79834,-0.847493 0.66663,-0.847494 0.66663,-2.304769 0,-1.462443 -0.66663,-2.309936 -0.66146,-0.847494 -1.79834,-0.847494 z m 0,-0.847493 q 1.62264,0 2.59416,1.090372 0.97152,1.085205 0.97152,2.914551 0,1.824178 -0.97152,2.914551 -0.97152,1.085205 -2.59416,1.085205 -1.62781,0 -2.60449,-1.085205 -0.97152,-1.085205 -0.97152,-2.914551 0,-1.829346 0.97152,-2.914551 0.97668,-1.090372 2.60449,-1.090372 z"/></g></g><g id="layer2" style="display:none"><rect style="opacity:1;vector-effect:none;fill:red;fill-opacity:.50196078;fill-rule:evenodd;stroke:none;stroke-width:.19901438;stroke-linecap:round;stroke-linejoin:miter;stroke-miterlimit:10;stroke-dasharray:none;stroke-dashoffset:0;stroke-opacity:1;paint-order:normal" id="rect262182" width="4.747" height="10" x="5.246" y="46.915"/><rect id="rect262989" width="8.212" height="8.21" x="3.514" y="17.694" style="opacity:1;vector-effect:none;fill:#0f0;fill-opacity:.50196078;fill-rule:evenodd;stroke:none;stroke-width:.23716429;stroke-linecap:round;stroke-linejoin:miter;stroke-miterlimit:10;stroke-dasharray:none;stroke-dashoffset:0;stroke-opacity:1;paint-order:normal"/><rect style="opacity:1;vector-effect:none;fill:#0f0;fill-opacity:.50196078;fill-rule:evenodd;stroke:none;stroke-width:.23716429;stroke-linecap:round;stroke-linejoin:miter;stroke-miterlimit:10;stroke-dasharray:none;stroke-dashoffset:0;stroke-opacity:1;paint-order:normal" id="rect262991" width="8.212" height="8.21" x="3.514" y="32.19"/><rect id="rect262993" width="8.212" height="8.21" x="3.515" y="62.81" style="opacity:1;vector-effect:none;fill:#0f0;fill-opacity:.50196078;fill-rule:evenodd;stroke:none;stroke-width:.23716429;stroke-linecap:round;stroke-linejoin:miter;stroke-miterlimit:10;stroke-dasharray:none;stroke-dashoffset:0;stroke-opacity:1;paint-order:normal"/><rect style="opacity:1;vector-effect:none;fill:#00f;fill-opacity:.50196078;fill-rule:evenodd;stroke:none;stroke-width:.23716429;stroke-linecap:round;stroke-linejoin:miter;stroke-miterlimit:10;stroke-dasharray:none;stroke-dashoffset:0;stroke-opacity:1;paint-order:normal" id="rect262995" width="8.212" height="8.21" x="3.515" y="77.81"/><rect id="rect262997" width="8.212" height="8.21" x="3.514" y="87.811" style="opacity:1;vector-effect:none;fill:#00f;fill-opacity:.50196078;fill-rule:evenodd;stroke:none;stroke-width:.23716429;stroke-linecap:round;stroke-linejoin:miter;stroke-miterlimit:10;stroke-dasharray:none;stroke-dashoffset:0;stroke-opacity:1;paint-order:normal"/><rect style="opacity:1;vector-effect:none;fill:#00f;fill-opacity:.50196078;fill-rule:evenodd;stroke:none;stroke-width:.23716429;stroke-linecap:round;stroke-linejoin:miter;stroke-miterlimit:10;stroke-dasharray:none;stroke-dashoffset:0;stroke-opacity:1;paint-order:normal" id="rect262999" width="8.212" height="8.21" x="3.514" y="97.809"/><rect id="rect263001" width="8.212" height="8.21" x="3.514" y="107.809" style="opacity:1;vector-effect:none;fill:#00f;fill-opacity:.50196078;fill-rule:evenodd;stroke:none;stroke-width:.23716429;stroke-linecap:round;stroke-linejoin:miter;stroke-miterlimit:10;stroke-dasharray:none;stroke-dashoffset:0;stroke-opacity:1;paint-order:normal"/><rect id="rect263003" width=".999" height=".999" x="10.82" y="77.716" style="opacity:1;vector-effect:none;fill:#f0f;fill-opacity:.50196078;fill-rule:evenodd;stroke:none;stroke-width:.02885729;stroke-linecap:round;stroke-linejoin:miter;stroke-miterlimit:10;stroke-dasharray:none;stroke-dashoffset:0;stroke-opacity:1;paint-order:normal"/><rect style="opacity:1;vector-effect:none;fill:#f0f;fill-opacity:.50196078;fill-rule:evenodd;stroke:none;stroke-width:.02885729;stroke-linecap:round;stroke-linejoin:miter;stroke-miterlimit:10;stroke-dasharray:none;stroke-dashoffset:0;stroke-opacity:1;paint-order:normal" id="rect263005" width=".999" height=".999" x="10.82" y="87.716"/><rect id="rect263007" width=".999" height=".999" x="10.82" y="97.717" style="opacity:1;vector-effect:none;fill:#f0f;fill-opacity:.50196078;fill-rule:evenodd;stroke:none;stroke-width:.02885729;stroke-linecap:round;stroke-linejoin:miter;stroke-miterlimit:10;stroke-dasharray:none;stroke-dashoffset:0;stroke-opacity:1;paint-order:normal"/><rect style="opacity:1;vector-effect:none;fill:#f0f;fill-opacity:.50196078;fill-rule:evenodd;stroke:none;stroke-width:.02885729;stroke-linecap:round;stroke-linejoin:miter;stroke-miterlimit:10;stroke-dasharray:none;stroke-dashoffset:0;stroke-opacity:1;paint-order:normal" id="rect263009" width=".999" height=".999" x="10.82" y="107.716"/></g></svg>