<svg xmlns="http://www.w3.org/2000/svg" xmlns:svg="http://www.w3.org/2000/svg" id="svg261903" width="57.599" height="485.667" version="1.1" viewBox="0 0 15.24 128.499"><defs id="defs261897"><linearGradient id="linear20" x1="-.096" x2="1.325" y1="0" y2="0" gradientTransform="matrix(0,6.4087959,-6.4087959,0,64.256445,118.95198)" gradientUnits="userSpaceOnUse"><stop style="stop-color:#414042;stop-opacity:1" id="stop217759" offset="0"/><stop style="stop-color:#414042;stop-opacity:1" id="stop217761" offset=".063"/><stop style="stop-color:#414042;stop-opacity:1" id="stop217763" offset=".078"/><stop style="stop-color:#403f41;stop-opacity:1" id="stop217765" offset=".094"/><stop style="stop-color:#403e40;stop-opacity:1" id="stop217767" offset=".109"/><stop style="stop-color:#3f3e40;stop-opacity:1" id="stop217769" offset=".125"/><stop style="stop-color:#3e3d3f;stop-opacity:1" id="stop217771" offset=".141"/><stop style="stop-color:#3e3c3e;stop-opacity:1" id="stop217773" offset=".156"/><stop style="stop-color:#3d3b3d;stop-opacity:1" id="stop217775" offset=".172"/><stop style="stop-color:#3c3b3d;stop-opacity:1" id="stop217777" offset=".188"/><stop style="stop-color:#3c3a3c;stop-opacity:1" id="stop217779" offset=".203"/><stop style="stop-color:#3b393b;stop-opacity:1" id="stop217781" offset=".219"/><stop style="stop-color:#3a393a;stop-opacity:1" id="stop217783" offset=".234"/><stop style="stop-color:#3a383a;stop-opacity:1" id="stop217785" offset=".25"/><stop style="stop-color:#393739;stop-opacity:1" id="stop217787" offset=".266"/><stop style="stop-color:#383638;stop-opacity:1" id="stop217789" offset=".281"/><stop style="stop-color:#383637;stop-opacity:1" id="stop217791" offset=".297"/><stop style="stop-color:#373537;stop-opacity:1" id="stop217793" offset=".313"/><stop style="stop-color:#363436;stop-opacity:1" id="stop217795" offset=".328"/><stop style="stop-color:#363335;stop-opacity:1" id="stop217797" offset=".344"/><stop style="stop-color:#353334;stop-opacity:1" id="stop217799" offset=".359"/><stop style="stop-color:#343234;stop-opacity:1" id="stop217801" offset=".375"/><stop style="stop-color:#343133;stop-opacity:1" id="stop217803" offset=".391"/><stop style="stop-color:#333032;stop-opacity:1" id="stop217805" offset=".406"/><stop style="stop-color:#323031;stop-opacity:1" id="stop217807" offset=".422"/><stop style="stop-color:#322f30;stop-opacity:1" id="stop217809" offset=".438"/><stop style="stop-color:#312e30;stop-opacity:1" id="stop217811" offset=".453"/><stop style="stop-color:#302e2f;stop-opacity:1" id="stop217813" offset=".469"/><stop style="stop-color:#302d2e;stop-opacity:1" id="stop217815" offset=".484"/><stop style="stop-color:#2f2c2d;stop-opacity:1" id="stop217817" offset=".5"/><stop style="stop-color:#2e2b2d;stop-opacity:1" id="stop217819" offset=".516"/><stop style="stop-color:#2e2b2c;stop-opacity:1" id="stop217821" offset=".531"/><stop style="stop-color:#2d2a2b;stop-opacity:1" id="stop217823" offset=".547"/><stop style="stop-color:#2c292a;stop-opacity:1" id="stop217825" offset=".563"/><stop style="stop-color:#2c282a;stop-opacity:1" id="stop217827" offset=".578"/><stop style="stop-color:#2b2829;stop-opacity:1" id="stop217829" offset=".594"/><stop style="stop-color:#2a2728;stop-opacity:1" id="stop217831" offset=".609"/><stop style="stop-color:#2a2627;stop-opacity:1" id="stop217833" offset=".625"/><stop style="stop-color:#292527;stop-opacity:1" id="stop217835" offset=".641"/><stop style="stop-color:#282526;stop-opacity:1" id="stop217837" offset=".656"/><stop style="stop-color:#282425;stop-opacity:1" id="stop217839" offset=".672"/><stop style="stop-color:#272324;stop-opacity:1" id="stop217841" offset=".688"/><stop style="stop-color:#262324;stop-opacity:1" id="stop217843" offset=".703"/><stop style="stop-color:#262223;stop-opacity:1" id="stop217845" offset=".719"/><stop style="stop-color:#252122;stop-opacity:1" id="stop217847" offset=".734"/><stop style="stop-color:#242021;stop-opacity:1" id="stop217849" offset=".75"/><stop style="stop-color:#242021;stop-opacity:1" id="stop217851" offset=".766"/><stop style="stop-color:#231f20;stop-opacity:1" id="stop217853" offset=".781"/><stop style="stop-color:#231f20;stop-opacity:1" id="stop217855" offset=".813"/><stop style="stop-color:#231f20;stop-opacity:1" id="stop217857" offset=".875"/><stop style="stop-color:#231f20;stop-opacity:1" id="stop217859" offset="1"/></linearGradient></defs><metadata id="metadata261900"/><g id="layer1" transform="translate(-56.636094,-70.97654)"><path id="path227414" d="M 56.636094,70.97654 H 71.689792 V 199.2898 H 56.636094 Z m 0,0" style="fill:#e6e6e6;fill-opacity:1;fill-rule:nonzero;stroke:none;stroke-width:.35277775"/><path id="path227416" d="M 71.875811,70.97654 H 56.636094 v 128.4993 H 71.875811 Z M 71.689756,199.28981 H 56.823489 V 71.163954 h 14.866267 z m 0,0" style="fill:#ababab;fill-opacity:1;fill-rule:nonzero;stroke:none;stroke-width:.35277775"/><rect style="display:inline;fill:#000;fill-opacity:1;fill-rule:evenodd;stroke:none;stroke-width:.20018744;stroke-linecap:butt;stroke-linejoin:round;stroke-miterlimit:4;stroke-dasharray:none;stroke-opacity:1;paint-order:normal" id="rect866-0-0" width="10.706" height="10.538" x="59.101" y="179.875" ry="1.28"/><g style="font-style:normal;font-weight:400;font-size:3.27875781px;line-height:1.25;font-family:sans-serif;letter-spacing:0;word-spacing:0;fill:#8b8b8b;fill-opacity:1;stroke:none;stroke-width:.08196894" id="text1025" aria-label="RESC ALER"><path style="fill:#8b8b8b;fill-opacity:1;stroke-width:.08196894" id="path1078" d="m 61.833691,79.162969 q 0.104062,0.03522 0.20172,0.15049 0.09926,0.115269 0.198519,0.316989 l 0.328196,0.65319 h -0.347408 l -0.305782,-0.613166 q -0.118471,-0.240144 -0.230538,-0.31859 -0.110466,-0.07845 -0.302581,-0.07845 h -0.35221 v 1.010203 h -0.323393 v -2.390227 h 0.730036 q 0.409845,0 0.611565,0.171302 0.20172,0.171302 0.20172,0.517109 0,0.225735 -0.105663,0.374624 -0.104062,0.148888 -0.304181,0.206523 z m -0.810084,-1.0038 v 0.848507 h 0.406643 q 0.233739,0 0.35221,-0.107264 0.120072,-0.108865 0.120072,-0.31859 0,-0.209725 -0.120072,-0.315389 -0.118471,-0.107264 -0.35221,-0.107264 z"/><path style="fill:#8b8b8b;fill-opacity:1;stroke-width:.08196894" id="path1080" d="m 62.979975,77.893411 h 1.511303 v 0.272162 h -1.18791 v 0.707623 h 1.13828 v 0.272162 h -1.13828 v 0.866117 h 1.216727 v 0.272163 h -1.54012 z"/><path style="fill:#8b8b8b;fill-opacity:1;stroke-width:.08196894" id="path1082" d="m 66.487669,77.971858 v 0.315388 q -0.184109,-0.08805 -0.347407,-0.131278 -0.163297,-0.04323 -0.315388,-0.04323 -0.264158,0 -0.408244,0.102461 -0.142485,0.102461 -0.142485,0.291374 0,0.158495 0.09446,0.240143 0.09606,0.08005 0.361816,0.129678 l 0.195317,0.04002 q 0.361816,0.06884 0.533118,0.243345 0.172904,0.172903 0.172904,0.464277 0,0.347408 -0.23374,0.526715 -0.232139,0.179307 -0.682007,0.179307 -0.169702,0 -0.361816,-0.03842 -0.190514,-0.03842 -0.395436,-0.113668 v -0.332999 q 0.196917,0.110466 0.38583,0.166499 0.188913,0.05603 0.371422,0.05603 0.276965,0 0.427455,-0.108865 0.15049,-0.108865 0.15049,-0.310586 0,-0.176105 -0.108865,-0.275364 -0.107264,-0.09926 -0.353811,-0.148889 l -0.196918,-0.03842 q -0.361816,-0.07204 -0.523513,-0.225735 -0.161696,-0.153691 -0.161696,-0.427455 0,-0.316989 0.222533,-0.499498 0.224134,-0.182509 0.616368,-0.182509 0.1681,0 0.342604,0.03042 0.174504,0.03042 0.357013,0.09126 z"/><path style="fill:#8b8b8b;fill-opacity:1;stroke-width:.08196894" id="path1084" d="m 68.925926,78.077521 v 0.341003 q -0.163298,-0.152091 -0.349009,-0.227335 -0.18411,-0.07524 -0.392234,-0.07524 -0.409845,0 -0.627575,0.25135 -0.21773,0.249749 -0.21773,0.723632 0,0.472282 0.21773,0.723632 0.21773,0.249749 0.627575,0.249749 0.208124,0 0.392234,-0.07524 0.185711,-0.07525 0.349009,-0.227336 v 0.337802 q -0.169702,0.115269 -0.360215,0.172903 -0.188913,0.05764 -0.400239,0.05764 -0.542724,0 -0.854911,-0.331398 -0.312186,-0.332999 -0.312186,-0.907742 0,-0.576344 0.312186,-0.907742 0.312187,-0.332999 0.854911,-0.332999 0.214528,0 0.403441,0.05763 0.190513,0.05603 0.357013,0.169702 z"/><path style="fill:#8b8b8b;fill-opacity:1;stroke-width:.08196894" id="path1086" d="m 61.499091,82.310448 -0.438662,1.189511 h 0.878925 z m -0.182509,-0.31859 h 0.366619 l 0.910944,2.390227 h -0.336201 l -0.21773,-0.613166 h -1.077443 l -0.21773,0.613166 h -0.341004 z"/><path style="fill:#8b8b8b;fill-opacity:1;stroke-width:.08196894" id="path1088" d="m 62.941552,81.991858 h 0.323393 v 2.118065 h 1.163895 v 0.272162 h -1.487288 z"/><path style="fill:#8b8b8b;fill-opacity:1;stroke-width:.08196894" id="path1090" d="m 64.766642,81.991858 h 1.511303 v 0.272163 h -1.18791 v 0.707622 h 1.13828 v 0.272163 h -1.13828 v 0.866117 h 1.216727 v 0.272162 h -1.54012 z"/><path style="fill:#8b8b8b;fill-opacity:1;stroke-width:.08196894" id="path1092" d="m 67.974958,83.261416 q 0.104062,0.03522 0.20172,0.15049 0.09926,0.115269 0.198519,0.316989 l 0.328196,0.65319 h -0.347408 l -0.305782,-0.613166 q -0.118471,-0.240143 -0.230538,-0.31859 -0.110466,-0.07845 -0.302581,-0.07845 h -0.35221 v 1.010203 h -0.323393 v -2.390227 h 0.730036 q 0.409844,0 0.611565,0.171302 0.20172,0.171303 0.20172,0.517109 0,0.225735 -0.105663,0.374624 -0.104062,0.148889 -0.304181,0.206523 z m -0.810084,-1.003799 v 0.848506 h 0.406643 q 0.233739,0 0.35221,-0.107264 0.120072,-0.108865 0.120072,-0.31859 0,-0.209725 -0.120072,-0.315388 -0.118471,-0.107264 -0.35221,-0.107264 z"/></g><flowRoot id="flowRoot1039" xml:space="preserve" style="fill:#000;fill-opacity:1;stroke:none;font-family:sans-serif;font-style:normal;font-weight:400;font-size:40px;line-height:1.25;letter-spacing:0;word-spacing:0"><flowRegion id="flowRegion1041"><rect id="rect1043" width="96.429" height="133.929" x="144.643" y="181.381"/></flowRegion><flowPara id="flowPara1045"/></flowRoot><g style="font-style:normal;font-weight:400;font-size:3.84308147px;line-height:1.25;font-family:sans-serif;letter-spacing:0;word-spacing:0;fill:#8b8b8b;fill-opacity:1;stroke:none;stroke-width:.09607703" id="text1049" aria-label="IN" transform="translate(0,4.4099472)"><path style="fill:#8b8b8b;fill-opacity:1;stroke-width:.09607703" id="path1073" d="m 62.96646,98.40042 h 0.379054 v 2.80162 H 62.96646 Z"/><path style="fill:#8b8b8b;fill-opacity:1;stroke-width:.09607703" id="path1075" d="m 64.099869,98.40042 h 0.510409 l 1.242247,2.34375 v -2.34375 h 0.367794 v 2.80162 H 65.70991 l -1.242246,-2.343753 v 2.343753 h -0.367795 z"/></g><g style="font-style:normal;font-weight:400;font-size:3.84308147px;line-height:1.25;font-family:sans-serif;letter-spacing:0;word-spacing:0;fill:#8b8b8b;fill-opacity:1;stroke:none;stroke-width:.09607703" id="text1053" aria-label="OUT" transform="translate(0,8.2853553)"><path style="fill:#8b8b8b;fill-opacity:1;stroke-width:.09607703" id="path1066" d="m 61.964206,123.84853 q -0.412831,0 -0.656776,0.30774 -0.242069,0.30775 -0.242069,0.8388 0,0.52917 0.242069,0.83692 0.243945,0.30775 0.656776,0.30775 0.412831,0 0.653024,-0.30775 0.242069,-0.30775 0.242069,-0.83692 0,-0.53105 -0.242069,-0.8388 -0.240193,-0.30774 -0.653024,-0.30774 z m 0,-0.30775 q 0.589223,0 0.942006,0.39594 0.352783,0.39407 0.352783,1.05835 0,0.66241 -0.352783,1.05835 -0.352783,0.39407 -0.942006,0.39407 -0.591098,0 -0.945758,-0.39407 -0.352783,-0.39407 -0.352783,-1.05835 0,-0.66428 0.352783,-1.05835 0.35466,-0.39594 0.945758,-0.39594 z"/><path style="fill:#8b8b8b;fill-opacity:1;stroke-width:.09607703" id="path1068" d="m 63.808811,123.59144 h 0.38093 v 1.70199 q 0,0.45037 0.163256,0.64928 0.163256,0.19703 0.529174,0.19703 0.364042,0 0.527298,-0.19703 0.163256,-0.19891 0.163256,-0.64928 v -1.70199 h 0.38093 v 1.74891 q 0,0.54794 -0.272093,0.82754 -0.270217,0.2796 -0.799391,0.2796 -0.531051,0 -0.803144,-0.2796 -0.270216,-0.2796 -0.270216,-0.82754 z"/><path style="fill:#8b8b8b;fill-opacity:1;stroke-width:.09607703" id="path1070" d="m 66.278291,123.59144 h 2.370025 v 0.31901 h -0.994547 v 2.48262 h -0.380931 v -2.48262 h -0.994547 z"/></g><g style="font-style:normal;font-weight:400;font-size:3.84308147px;line-height:1.25;font-family:sans-serif;letter-spacing:0;word-spacing:0;fill:#8b8b8b;fill-opacity:1;stroke:none;stroke-width:.09607703" id="text1057" aria-label="SCL" transform="translate(0,10.423512)"><path style="fill:#8b8b8b;fill-opacity:1;stroke-width:.09607703" id="path1059" d="m 62.957959,150.67961 v 0.36967 q -0.215798,-0.10321 -0.407201,-0.15387 -0.191404,-0.0507 -0.369672,-0.0507 -0.309623,0 -0.478509,0.1201 -0.167008,0.12009 -0.167008,0.34152 0,0.18578 0.110713,0.28148 0.112591,0.0938 0.42409,0.15199 l 0.228934,0.0469 q 0.42409,0.0807 0.624876,0.28523 0.202662,0.20266 0.202662,0.54418 0,0.4072 -0.273969,0.61737 -0.272093,0.21017 -0.799391,0.21017 -0.19891,0 -0.42409,-0.045 -0.223304,-0.045 -0.463497,-0.13323 v -0.39031 q 0.23081,0.12948 0.452238,0.19516 0.221427,0.0657 0.435349,0.0657 0.324635,0 0.501027,-0.1276 0.176391,-0.1276 0.176391,-0.36404 0,-0.20642 -0.127602,-0.32276 -0.125726,-0.11634 -0.414708,-0.17451 l -0.23081,-0.045 q -0.42409,-0.0844 -0.613617,-0.26459 -0.189527,-0.18014 -0.189527,-0.50102 0,-0.37155 0.260834,-0.58547 0.262711,-0.21392 0.722455,-0.21392 0.197033,0 0.401572,0.0357 0.204539,0.0357 0.41846,0.10696 z"/><path style="fill:#8b8b8b;fill-opacity:1;stroke-width:.09607703" id="path1061" d="m 65.815876,150.80346 v 0.39969 q -0.191404,-0.17826 -0.409078,-0.26646 -0.215798,-0.0882 -0.459744,-0.0882 -0.480385,0 -0.73559,0.29462 -0.255205,0.29273 -0.255205,0.84818 0,0.55357 0.255205,0.84818 0.255205,0.29273 0.73559,0.29273 0.243946,0 0.459744,-0.0882 0.217674,-0.0882 0.409078,-0.26647 v 0.39594 q -0.19891,0.13511 -0.422214,0.20267 -0.221428,0.0676 -0.469126,0.0676 -0.636135,0 -1.002054,-0.38844 -0.365918,-0.39031 -0.365918,-1.06397 0,-0.67555 0.365918,-1.06398 0.365919,-0.39031 1.002054,-0.39031 0.251451,0 0.472879,0.0675 0.223304,0.0657 0.418461,0.19891 z"/><path style="fill:#8b8b8b;fill-opacity:1;stroke-width:.09607703" id="path1063" d="m 66.405098,150.58766 h 0.379054 v 2.48262 h 1.364219 v 0.319 h -1.743273 z"/></g></g><g id="layer2" style="display:none"><rect style="opacity:1;vector-effect:none;fill:red;fill-opacity:.50196078;fill-rule:evenodd;stroke:none;stroke-width:.19901438;stroke-linecap:round;stroke-linejoin:miter;stroke-miterlimit:10;stroke-dasharray:none;stroke-dashoffset:0;stroke-opacity:1;paint-order:normal" id="rect262182" width="4.747" height="10" x="5.246" y="46.915"/><rect id="rect262989" width="8.212" height="8.21" x="3.514" y="17.694" style="opacity:1;vector-effect:none;fill:#0f0;fill-opacity:.50196078;fill-rule:evenodd;stroke:none;stroke-width:.23716429;stroke-linecap:round;stroke-linejoin:miter;stroke-miterlimit:10;stroke-dasharray:none;stroke-dashoffset:0;stroke-opacity:1;paint-order:normal"/><rect style="opacity:1;vector-effect:none;fill:#0f0;fill-opacity:.50196078;fill-rule:evenodd;stroke:none;stroke-width:.23716429;stroke-linecap:round;stroke-linejoin:miter;stroke-miterlimit:10;stroke-dasharray:none;stroke-dashoffset:0;stroke-opacity:1;paint-order:normal" id="rect262991" width="8.212" height="8.21" x="3.514" y="32.19"/><rect id="rect262993" width="8.212" height="8.21" x="3.515" y="62.81" style="opacity:1;vector-effect:none;fill:#0f0;fill-opacity:.50196078;fill-rule:evenodd;stroke:none;stroke-width:.23716429;stroke-linecap:round;stroke-linejoin:miter;stroke-miterlimit:10;stroke-dasharray:none;stroke-dashoffset:0;stroke-opacity:1;paint-order:normal"/><rect style="opacity:1;vector-effect:none;fill:#00f;fill-opacity:.50196078;fill-rule:evenodd;stroke:none;stroke-width:.23716429;stroke-linecap:round;stroke-linejoin:miter;stroke-miterlimit:10;stroke-dasharray:none;stroke-dashoffset:0;stroke-opacity:1;paint-order:normal" id="rect262995" width="8.212" height="8.21" x="3.515" y="77.81"/><rect id="rect262997" width="8.212" height="8.21" x="3.514" y="87.811" style="opacity:1;vector-effect:none;fill:#00f;fill-opacity:.50196078;fill-rule:evenodd;stroke:none;stroke-width:.23716429;stroke-linecap:round;stroke-linejoin:miter;stroke-miterlimit:10;stroke-dasharray:none;stroke-dashoffset:0;stroke-opacity:1;paint-order:normal"/><rect style="opacity:1;vector-effect:none;fill:#00f;fill-opacity:.50196078;fill-rule:evenodd;stroke:none;stroke-width:.23716429;stroke-linecap:round;stroke-linejoin:miter;stroke-miterlimit:10;stroke-dasharray:none;stroke-dashoffset:0;stroke-opacity:1;paint-order:normal" id="rect262999" width="8.212" height="8.21" x="3.514" y="97.809"/><rect id="rect263001" width="8.212" height="8.21" x="3.514" y="107.809" style="opacity:1;vector-effect:none;fill:#00f;fill-opacity:.50196078;fill-rule:evenodd;stroke:none;stroke-width:.23716429;stroke-linecap:round;stroke-linejoin:miter;stroke-miterlimit:10;stroke-dasharray:none;stroke-dashoffset:0;stroke-opacity:1;paint-order:normal"/><rect id="rect263003" width=".999" height=".999" x="10.82" y="77.716" style="opacity:1;vector-effect:none;fill:#f0f;fill-opacity:.50196078;fill-rule:evenodd;stroke:none;stroke-width:.02885729;stroke-linecap:round;stroke-linejoin:miter;stroke-miterlimit:10;stroke-dasharray:none;stroke-dashoffset:0;stroke-opacity:1;paint-order:normal"/><rect style="opacity:1;vector-effect:none;fill:#f0f;fill-opacity:.50196078;fill-rule:evenodd;stroke:none;stroke-width:.02885729;stroke-linecap:round;stroke-linejoin:miter;stroke-miterlimit:10;stroke-dasharray:none;stroke-dashoffset:0;stroke-opacity:1;paint-order:normal" id="rect263005" width=".999" height=".999" x="10.82" y="87.716"/><rect id="rect263007" width=".999" height=".999" x="10.82" y="97.717" style="opacity:1;vector-effect:none;fill:#f0f;fill-opacity:.50196078;fill-rule:evenodd;stroke:none;stroke-width:.02885729;stroke-linecap:round;stroke-linejoin:miter;stroke-miterlimit:10;stroke-dasharray:none;stroke-dashoffset:0;stroke-opacity:1;paint-order:normal"/><rect style="opacity:1;vector-effect:none;fill:#f0f;fill-opacity:.50196078;fill-rule:evenodd;stroke:none;stroke-width:.02885729;stroke-linecap:round;stroke-linejoin:miter;stroke-miterlimit:10;stroke-dasharray:none;stroke-dashoffset:0;stroke-opacity:1;paint-order:normal" id="rect263009" width=".999" height=".999" x="10.82" y="107.716"/></g></svg>