<svg xmlns="http://www.w3.org/2000/svg" xmlns:svg="http://www.w3.org/2000/svg" id="svg261903" width="57.599" height="485.667" version="1.1" viewBox="0 0 15.24 128.499"><defs id="defs261897"><linearGradient id="linear20" x1="-.096" x2="1.325" y1="0" y2="0" gradientTransform="matrix(0,6.4087959,-6.4087959,0,64.256445,118.95198)" gradientUnits="userSpaceOnUse"><stop style="stop-color:#414042;stop-opacity:1" id="stop217759" offset="0"/><stop style="stop-color:#414042;stop-opacity:1" id="stop217761" offset=".063"/><stop style="stop-color:#414042;stop-opacity:1" id="stop217763" offset=".078"/><stop style="stop-color:#403f41;stop-opacity:1" id="stop217765" offset=".094"/><stop style="stop-color:#403e40;stop-opacity:1" id="stop217767" offset=".109"/><stop style="stop-color:#3f3e40;stop-opacity:1" id="stop217769" offset=".125"/><stop style="stop-color:#3e3d3f;stop-opacity:1" id="stop217771" offset=".141"/><stop style="stop-color:#3e3c3e;stop-opacity:1" id="stop217773" offset=".156"/><stop style="stop-color:#3d3b3d;stop-opacity:1" id="stop217775" offset=".172"/><stop style="stop-color:#3c3b3d;stop-opacity:1" id="stop217777" offset=".188"/><stop style="stop-color:#3c3a3c;stop-opacity:1" id="stop217779" offset=".203"/><stop style="stop-color:#3b393b;stop-opacity:1" id="stop217781" offset=".219"/><stop style="stop-color:#3a393a;stop-opacity:1" id="stop217783" offset=".234"/><stop style="stop-color:#3a383a;stop-opacity:1" id="stop217785" offset=".25"/><stop style="stop-color:#393739;stop-opacity:1" id="stop217787" offset=".266"/><stop style="stop-color:#383638;stop-opacity:1" id="stop217789" offset=".281"/><stop style="stop-color:#383637;stop-opacity:1" id="stop217791" offset=".297"/><stop style="stop-color:#373537;stop-opacity:1" id="stop217793" offset=".313"/><stop style="stop-color:#363436;stop-opacity:1" id="stop217795" offset=".328"/><stop style="stop-color:#363335;stop-opacity:1" id="stop217797" offset=".344"/><stop style="stop-color:#353334;stop-opacity:1" id="stop217799" offset=".359"/><stop style="stop-color:#343234;stop-opacity:1" id="stop217801" offset=".375"/><stop style="stop-color:#343133;stop-opacity:1" id="stop217803" offset=".391"/><stop style="stop-color:#333032;stop-opacity:1" id="stop217805" offset=".406"/><stop style="stop-color:#323031;stop-opacity:1" id="stop217807" offset=".422"/><stop style="stop-color:#322f30;stop-opacity:1" id="stop217809" offset=".438"/><stop style="stop-color:#312e30;stop-opacity:1" id="stop217811" offset=".453"/><stop style="stop-color:#302e2f;stop-opacity:1" id="stop217813" offset=".469"/><stop style="stop-color:#302d2e;stop-opacity:1" id="stop217815" offset=".484"/><stop style="stop-color:#2f2c2d;stop-opacity:1" id="stop217817" offset=".5"/><stop style="stop-color:#2e2b2d;stop-opacity:1" id="stop217819" offset=".516"/><stop style="stop-color:#2e2b2c;stop-opacity:1" id="stop217821" offset=".531"/><stop style="stop-color:#2d2a2b;stop-opacity:1" id="stop217823" offset=".547"/><stop style="stop-color:#2c292a;stop-opacity:1" id="stop217825" offset=".563"/><stop style="stop-color:#2c282a;stop-opacity:1" id="stop217827" offset=".578"/><stop style="stop-color:#2b2829;stop-opacity:1" id="stop217829" offset=".594"/><stop style="stop-color:#2a2728;stop-opacity:1" id="stop217831" offset=".609"/><stop style="stop-color:#2a2627;stop-opacity:1" id="stop217833" offset=".625"/><stop style="stop-color:#292527;stop-opacity:1" id="stop217835" offset=".641"/><stop style="stop-color:#282526;stop-opacity:1" id="stop217837" offset=".656"/><stop style="stop-color:#282425;stop-opacity:1" id="stop217839" offset=".672"/><stop style="stop-color:#272324;stop-opacity:1" id="stop217841" offset=".688"/><stop style="stop-color:#262324;stop-opacity:1" id="stop217843" offset=".703"/><stop style="stop-color:#262223;stop-opacity:1" id="stop217845" offset=".719"/><stop style="stop-color:#252122;stop-opacity:1" id="stop217847" offset=".734"/><stop style="stop-color:#242021;stop-opacity:1" id="stop217849" offset=".75"/><stop style="stop-color:#242021;stop-opacity:1" id="stop217851" offset=".766"/><stop style="stop-color:#231f20;stop-opacity:1" id="stop217853" offset=".781"/><stop style="stop-color:#231f20;stop-opacity:1" id="stop217855" offset=".813"/><stop style="stop-color:#231f20;stop-opacity:1" id="stop217857" offset=".875"/><stop style="stop-color:#231f20;stop-opacity:1" id="stop217859" offset="1"/></linearGradient></defs><metadata id="metadata261900"/><g id="layer1" transform="translate(-56.636094,-70.97654)"><path id="path227414" d="M 56.636094,70.97654 H 71.689792 V 199.2898 H 56.636094 Z m 0,0" style="fill:#e6e6e6;fill-opacity:1;fill-rule:nonzero;stroke:none;stroke-width:.35277775"/><path id="path227416" d="M 71.875811,70.97654 H 56.636094 v 128.4993 H 71.875811 Z M 71.689756,199.28981 H 56.823489 V 71.163954 h 14.866267 z m 0,0" style="fill:#ababab;fill-opacity:1;fill-rule:nonzero;stroke:none;stroke-width:.35277775"/><rect style="display:inline;fill:#000;fill-opacity:1;fill-rule:evenodd;stroke:none;stroke-width:.20018744;stroke-linecap:butt;stroke-linejoin:round;stroke-miterlimit:4;stroke-dasharray:none;stroke-opacity:1;paint-order:normal" id="rect866-0-0" width="10.706" height="10.538" x="59.101" y="179.875" ry="1.28"/><g style="font-style:normal;font-weight:400;font-size:10.58333302px;line-height:1.25;font-family:sans-serif;letter-spacing:0;word-spacing:0;fill:#8b8b8b;fill-opacity:1;stroke:none;stroke-width:.26458332" id="text890" aria-label="RMS" transform="matrix(0.43238424,0,0,0.43238424,54.945335,48.667005)"><path style="fill:#8b8b8b;fill-opacity:1;stroke-width:.26458332" id="path892" d="m 14.761769,71.377706 q 0.335897,0.113688 0.651123,0.485758 0.320394,0.372071 0.640788,1.023194 l 1.059367,2.108398 h -1.121379 l -0.98702,-1.979207 q -0.382405,-0.775147 -0.74414,-1.028361 -0.356568,-0.253215 -0.976685,-0.253215 h -1.136881 v 3.260783 h -1.043864 v -7.715291 h 2.356445 q 1.322917,0 1.97404,0.552938 0.651123,0.552938 0.651123,1.669149 0,0.728637 -0.341065,1.209228 -0.335896,0.480591 -0.981852,0.666626 z m -2.614827,-3.240112 v 2.738851 h 1.312581 q 0.754476,0 1.136882,-0.346232 0.387573,-0.3514 0.387573,-1.028361 0,-0.676962 -0.387573,-1.018026 -0.382406,-0.346232 -1.136882,-0.346232 z"/><path style="fill:#8b8b8b;fill-opacity:1;stroke-width:.26458332" id="path894" d="m 18.461801,67.279765 h 1.555461 l 1.968872,5.250325 1.979207,-5.250325 h 1.555461 v 7.715291 h -1.018026 v -6.77478 l -1.989542,5.291667 H 21.464202 L 19.47466,68.220276 v 6.77478 h -1.012859 z"/><path style="fill:#8b8b8b;fill-opacity:1;stroke-width:.26458332" id="path896" d="m 32.223236,67.53298 v 1.018025 q -0.594279,-0.28422 -1.121379,-0.423746 -0.5271,-0.139527 -1.018026,-0.139527 -0.852661,0 -1.317749,0.330729 -0.45992,0.330729 -0.45992,0.940511 0,0.511597 0.304891,0.775147 0.310059,0.258382 1.167887,0.418579 l 0.630453,0.129191 q 1.167887,0.222209 1.720825,0.785482 0.558105,0.558105 0.558105,1.498616 0,1.121379 -0.754475,1.700155 -0.749309,0.578776 -2.201416,0.578776 -0.547771,0 -1.167888,-0.124024 -0.614949,-0.124023 -1.276408,-0.366902 v -1.07487 q 0.635621,0.356567 1.245402,0.537435 0.609782,0.180867 1.198894,0.180867 0.894002,0 1.37976,-0.351399 0.485759,-0.3514 0.485759,-1.002523 0,-0.568441 -0.3514,-0.888835 -0.346232,-0.320394 -1.142049,-0.480591 l -0.63562,-0.124023 q -1.167887,-0.232544 -1.689819,-0.728638 -0.521932,-0.496093 -0.521932,-1.37976 0,-1.023194 0.718302,-1.612305 0.72347,-0.589111 1.989543,-0.589111 0.542602,0 1.105875,0.09819 0.563273,0.09819 1.152385,0.294556 z"/></g><g style="font-style:normal;font-weight:400;font-size:10.58333302px;line-height:1.25;font-family:sans-serif;letter-spacing:0;word-spacing:0;fill:#8b8b8b;fill-opacity:1;stroke:none;stroke-width:.26458332" id="text901" aria-label="LEN" transform="matrix(0.33463097,0,0,0.33463097,57.604766,92.476346)"><path style="fill:#8b8b8b;fill-opacity:1;stroke-width:.26458332" id="path911" d="m 12.038518,65.074794 h 1.043864 v 6.836792 h 3.756876 v 0.878499 h -4.80074 z"/><path style="fill:#8b8b8b;fill-opacity:1;stroke-width:.26458332" id="path913" d="m 17.929631,65.074794 h 4.878255 v 0.878499 h -3.834391 v 2.284098 h 3.674194 v 0.8785 h -3.674194 v 2.795695 h 3.927409 v 0.878499 h -4.971273 z"/><path style="fill:#8b8b8b;fill-opacity:1;stroke-width:.26458332" id="path915" d="m 24.626897,65.074794 h 1.405599 l 3.420979,6.454386 v -6.454386 h 1.012859 v 7.715291 h -1.405599 l -3.42098,-6.454386 v 6.454386 h -1.012858 z"/></g><g style="font-style:normal;font-weight:400;font-size:10.58333302px;line-height:1.25;font-family:sans-serif;letter-spacing:0;word-spacing:0;fill:#8b8b8b;fill-opacity:1;stroke:none;stroke-width:.26458332" id="text905" aria-label="RISE" transform="matrix(0.33463097,0,0,0.33463097,56.496548,105.38356)"><path style="fill:#8b8b8b;fill-opacity:1;stroke-width:.26458332" id="path918" d="m 16.632653,81.333494 q 0.335897,0.113688 0.651123,0.485758 0.320394,0.37207 0.640788,1.023193 l 1.059367,2.108399 h -1.121379 l -0.98702,-1.979207 q -0.382405,-0.775147 -0.74414,-1.028361 -0.356568,-0.253215 -0.976685,-0.253215 h -1.136881 v 3.260783 h -1.043864 v -7.715291 h 2.356445 q 1.322917,0 1.97404,0.552938 0.651123,0.552937 0.651123,1.669148 0,0.728638 -0.341065,1.209229 -0.335897,0.480591 -0.981852,0.666626 z m -2.614827,-3.240113 v 2.738851 h 1.312581 q 0.754476,0 1.136882,-0.346232 0.387573,-0.3514 0.387573,-1.028361 0,-0.676961 -0.387573,-1.018025 -0.382406,-0.346233 -1.136882,-0.346233 z"/><path style="fill:#8b8b8b;fill-opacity:1;stroke-width:.26458332" id="path920" d="m 20.332685,77.235553 h 1.043864 v 7.715291 h -1.043864 z"/><path style="fill:#8b8b8b;fill-opacity:1;stroke-width:.26458332" id="path922" d="m 28.078983,77.488767 v 1.018026 q -0.594279,-0.28422 -1.121379,-0.423747 -0.527099,-0.139526 -1.018025,-0.139526 -0.852662,0 -1.317749,0.330729 -0.459921,0.330729 -0.459921,0.940511 0,0.511597 0.304891,0.775146 0.310059,0.258383 1.167888,0.41858 l 0.630452,0.129191 q 1.167887,0.222208 1.720825,0.785481 0.558106,0.558106 0.558106,1.498617 0,1.121378 -0.754476,1.700154 -0.749308,0.578776 -2.201416,0.578776 -0.54777,0 -1.167887,-0.124023 -0.61495,-0.124023 -1.276408,-0.366903 V 83.53491 q 0.63562,0.356567 1.245402,0.537434 0.609782,0.180868 1.198893,0.180868 0.894002,0 1.379761,-0.3514 0.485758,-0.351399 0.485758,-1.002522 0,-0.568441 -0.3514,-0.888835 -0.346232,-0.320394 -1.142049,-0.480591 l -0.63562,-0.124023 q -1.167887,-0.232544 -1.689819,-0.728638 -0.521932,-0.496094 -0.521932,-1.379761 0,-1.023193 0.718302,-1.612304 0.72347,-0.589112 1.989543,-0.589112 0.542602,0 1.105875,0.09819 0.563274,0.09819 1.152385,0.294555 z"/><path style="fill:#8b8b8b;fill-opacity:1;stroke-width:.26458332" id="path924" d="m 30.171878,77.235553 h 4.878255 v 0.878499 h -3.834391 v 2.284098 h 3.674194 v 0.8785 h -3.674194 v 2.795694 h 3.927408 v 0.8785 h -4.971272 z"/></g><g style="font-style:normal;font-weight:400;font-size:10.58333302px;line-height:1.25;font-family:sans-serif;letter-spacing:0;word-spacing:0;fill:#8b8b8b;fill-opacity:1;stroke:none;stroke-width:.26458332" id="text909" aria-label="FALL" transform="matrix(0.33463097,0,0,0.33463097,56.04029,117.94522)"><path style="fill:#8b8b8b;fill-opacity:1;stroke-width:.26458332" id="path927" d="m 14.510763,90.599032 h 4.433838 v 0.8785 h -3.389974 v 2.273763 h 3.059245 v 0.878499 h -3.059245 v 3.684529 h -1.043864 z"/><path style="fill:#8b8b8b;fill-opacity:1;stroke-width:.26458332" id="path929" d="m 22.215719,91.627393 -1.415934,3.839559 h 2.837036 z m -0.589112,-1.028361 h 1.183391 l 2.940389,7.715291 h -1.085205 l -0.7028,-1.979207 h -3.477824 l -0.702799,1.979207 h -1.100708 z"/><path style="fill:#8b8b8b;fill-opacity:1;stroke-width:.26458332" id="path931" d="m 26.871765,90.599032 h 1.043864 v 6.836792 h 3.756877 v 0.878499 h -4.800741 z"/><path style="fill:#8b8b8b;fill-opacity:1;stroke-width:.26458332" id="path933" d="m 32.762878,90.599032 h 1.043864 v 6.836792 h 3.756877 v 0.878499 h -4.800741 z"/></g><g style="font-style:normal;font-weight:400;font-size:10.58333302px;line-height:1.25;font-family:sans-serif;letter-spacing:0;word-spacing:0;fill:#8b8b8b;fill-opacity:1;stroke:none;stroke-width:.26458332" id="text938" aria-label="OUT" transform="matrix(0.34629667,0,0,0.34629667,73.542719,124.95925)"><path style="fill:#8b8b8b;fill-opacity:1;stroke-width:.26458332" id="path940" d="m -33.272492,116.02943 q -1.136881,0 -1.808675,0.84749 -0.666626,0.84749 -0.666626,2.30994 0,1.45727 0.666626,2.30477 0.671794,0.84749 1.808675,0.84749 1.136882,0 1.79834,-0.84749 0.666626,-0.8475 0.666626,-2.30477 0,-1.46245 -0.666626,-2.30994 -0.661458,-0.84749 -1.79834,-0.84749 z m 0,-0.8475 q 1.62264,0 2.594157,1.09038 0.971517,1.0852 0.971517,2.91455 0,1.82417 -0.971517,2.91455 -0.971517,1.0852 -2.594157,1.0852 -1.627807,0 -2.604492,-1.0852 -0.971517,-1.08521 -0.971517,-2.91455 0,-1.82935 0.971517,-2.91455 0.976685,-1.09038 2.604492,-1.09038 z"/><path style="fill:#8b8b8b;fill-opacity:1;stroke-width:.26458332" id="path942" d="m -28.192699,115.32146 h 1.049032 v 4.68705 q 0,1.24024 0.449585,1.78801 0.449585,0.5426 1.457275,0.5426 1.002523,0 1.452108,-0.5426 0.449585,-0.54777 0.449585,-1.78801 v -4.68705 h 1.049031 v 4.81624 q 0,1.50895 -0.749308,2.27893 -0.744141,0.76998 -2.201416,0.76998 -1.462443,0 -2.211751,-0.76998 -0.744141,-0.76998 -0.744141,-2.27893 z"/><path style="fill:#8b8b8b;fill-opacity:1;stroke-width:.26458332" id="path944" d="m -21.39208,115.32146 h 6.526733 v 0.8785 h -2.738851 v 6.83679 h -1.049031 v -6.83679 h -2.738851 z"/></g></g><g id="layer2" style="display:none"><rect style="opacity:1;vector-effect:none;fill:red;fill-opacity:.50196078;fill-rule:evenodd;stroke:none;stroke-width:.19901438;stroke-linecap:round;stroke-linejoin:miter;stroke-miterlimit:10;stroke-dasharray:none;stroke-dashoffset:0;stroke-opacity:1;paint-order:normal" id="rect262182" width="4.747" height="10" x="5.246" y="46.915"/><rect id="rect262989" width="8.212" height="8.21" x="3.514" y="17.694" style="opacity:1;vector-effect:none;fill:#0f0;fill-opacity:.50196078;fill-rule:evenodd;stroke:none;stroke-width:.23716429;stroke-linecap:round;stroke-linejoin:miter;stroke-miterlimit:10;stroke-dasharray:none;stroke-dashoffset:0;stroke-opacity:1;paint-order:normal"/><rect style="opacity:1;vector-effect:none;fill:#0f0;fill-opacity:.50196078;fill-rule:evenodd;stroke:none;stroke-width:.23716429;stroke-linecap:round;stroke-linejoin:miter;stroke-miterlimit:10;stroke-dasharray:none;stroke-dashoffset:0;stroke-opacity:1;paint-order:normal" id="rect262991" width="8.212" height="8.21" x="3.514" y="32.19"/><rect id="rect262993" width="8.212" height="8.21" x="3.515" y="62.81" style="opacity:1;vector-effect:none;fill:#0f0;fill-opacity:.50196078;fill-rule:evenodd;stroke:none;stroke-width:.23716429;stroke-linecap:round;stroke-linejoin:miter;stroke-miterlimit:10;stroke-dasharray:none;stroke-dashoffset:0;stroke-opacity:1;paint-order:normal"/><rect style="opacity:1;vector-effect:none;fill:#00f;fill-opacity:.50196078;fill-rule:evenodd;stroke:none;stroke-width:.23716429;stroke-linecap:round;stroke-linejoin:miter;stroke-miterlimit:10;stroke-dasharray:none;stroke-dashoffset:0;stroke-opacity:1;paint-order:normal" id="rect262995" width="8.212" height="8.21" x="3.515" y="77.81"/><rect id="rect262997" width="8.212" height="8.21" x="3.514" y="87.811" style="opacity:1;vector-effect:none;fill:#00f;fill-opacity:.50196078;fill-rule:evenodd;stroke:none;stroke-width:.23716429;stroke-linecap:round;stroke-linejoin:miter;stroke-miterlimit:10;stroke-dasharray:none;stroke-dashoffset:0;stroke-opacity:1;paint-order:normal"/><rect style="opacity:1;vector-effect:none;fill:#00f;fill-opacity:.50196078;fill-rule:evenodd;stroke:none;stroke-width:.23716429;stroke-linecap:round;stroke-linejoin:miter;stroke-miterlimit:10;stroke-dasharray:none;stroke-dashoffset:0;stroke-opacity:1;paint-order:normal" id="rect262999" width="8.212" height="8.21" x="3.514" y="97.809"/><rect id="rect263001" width="8.212" height="8.21" x="3.514" y="107.809" style="opacity:1;vector-effect:none;fill:#00f;fill-opacity:.50196078;fill-rule:evenodd;stroke:none;stroke-width:.23716429;stroke-linecap:round;stroke-linejoin:miter;stroke-miterlimit:10;stroke-dasharray:none;stroke-dashoffset:0;stroke-opacity:1;paint-order:normal"/><rect id="rect263003" width=".999" height=".999" x="10.82" y="77.716" style="opacity:1;vector-effect:none;fill:#f0f;fill-opacity:.50196078;fill-rule:evenodd;stroke:none;stroke-width:.02885729;stroke-linecap:round;stroke-linejoin:miter;stroke-miterlimit:10;stroke-dasharray:none;stroke-dashoffset:0;stroke-opacity:1;paint-order:normal"/><rect style="opacity:1;vector-effect:none;fill:#f0f;fill-opacity:.50196078;fill-rule:evenodd;stroke:none;stroke-width:.02885729;stroke-linecap:round;stroke-linejoin:miter;stroke-miterlimit:10;stroke-dasharray:none;stroke-dashoffset:0;stroke-opacity:1;paint-order:normal" id="rect263005" width=".999" height=".999" x="10.82" y="87.716"/><rect id="rect263007" width=".999" height=".999" x="10.82" y="97.717" style="opacity:1;vector-effect:none;fill:#f0f;fill-opacity:.50196078;fill-rule:evenodd;stroke:none;stroke-width:.02885729;stroke-linecap:round;stroke-linejoin:miter;stroke-miterlimit:10;stroke-dasharray:none;stroke-dashoffset:0;stroke-opacity:1;paint-order:normal"/><rect style="opacity:1;vector-effect:none;fill:#f0f;fill-opacity:.50196078;fill-rule:evenodd;stroke:none;stroke-width:.02885729;stroke-linecap:round;stroke-linejoin:miter;stroke-miterlimit:10;stroke-dasharray:none;stroke-dashoffset:0;stroke-opacity:1;paint-order:normal" id="rect263009" width=".999" height=".999" x="10.82" y="107.716"/></g></svg>