<svg xmlns="http://www.w3.org/2000/svg" xmlns:svg="http://www.w3.org/2000/svg" id="svg261903" width="57.599" height="485.667" version="1.1" viewBox="0 0 15.24 128.499"><defs id="defs261897"><linearGradient id="linear20" x1="-.096" x2="1.325" y1="0" y2="0" gradientTransform="matrix(0,6.4087959,-6.4087959,0,64.256445,118.95198)" gradientUnits="userSpaceOnUse"><stop style="stop-color:#414042;stop-opacity:1" id="stop217759" offset="0"/><stop style="stop-color:#414042;stop-opacity:1" id="stop217761" offset=".063"/><stop style="stop-color:#414042;stop-opacity:1" id="stop217763" offset=".078"/><stop style="stop-color:#403f41;stop-opacity:1" id="stop217765" offset=".094"/><stop style="stop-color:#403e40;stop-opacity:1" id="stop217767" offset=".109"/><stop style="stop-color:#3f3e40;stop-opacity:1" id="stop217769" offset=".125"/><stop style="stop-color:#3e3d3f;stop-opacity:1" id="stop217771" offset=".141"/><stop style="stop-color:#3e3c3e;stop-opacity:1" id="stop217773" offset=".156"/><stop style="stop-color:#3d3b3d;stop-opacity:1" id="stop217775" offset=".172"/><stop style="stop-color:#3c3b3d;stop-opacity:1" id="stop217777" offset=".188"/><stop style="stop-color:#3c3a3c;stop-opacity:1" id="stop217779" offset=".203"/><stop style="stop-color:#3b393b;stop-opacity:1" id="stop217781" offset=".219"/><stop style="stop-color:#3a393a;stop-opacity:1" id="stop217783" offset=".234"/><stop style="stop-color:#3a383a;stop-opacity:1" id="stop217785" offset=".25"/><stop style="stop-color:#393739;stop-opacity:1" id="stop217787" offset=".266"/><stop style="stop-color:#383638;stop-opacity:1" id="stop217789" offset=".281"/><stop style="stop-color:#383637;stop-opacity:1" id="stop217791" offset=".297"/><stop style="stop-color:#373537;stop-opacity:1" id="stop217793" offset=".313"/><stop style="stop-color:#363436;stop-opacity:1" id="stop217795" offset=".328"/><stop style="stop-color:#363335;stop-opacity:1" id="stop217797" offset=".344"/><stop style="stop-color:#353334;stop-opacity:1" id="stop217799" offset=".359"/><stop style="stop-color:#343234;stop-opacity:1" id="stop217801" offset=".375"/><stop style="stop-color:#343133;stop-opacity:1" id="stop217803" offset=".391"/><stop style="stop-color:#333032;stop-opacity:1" id="stop217805" offset=".406"/><stop style="stop-color:#323031;stop-opacity:1" id="stop217807" offset=".422"/><stop style="stop-color:#322f30;stop-opacity:1" id="stop217809" offset=".438"/><stop style="stop-color:#312e30;stop-opacity:1" id="stop217811" offset=".453"/><stop style="stop-color:#302e2f;stop-opacity:1" id="stop217813" offset=".469"/><stop style="stop-color:#302d2e;stop-opacity:1" id="stop217815" offset=".484"/><stop style="stop-color:#2f2c2d;stop-opacity:1" id="stop217817" offset=".5"/><stop style="stop-color:#2e2b2d;stop-opacity:1" id="stop217819" offset=".516"/><stop style="stop-color:#2e2b2c;stop-opacity:1" id="stop217821" offset=".531"/><stop style="stop-color:#2d2a2b;stop-opacity:1" id="stop217823" offset=".547"/><stop style="stop-color:#2c292a;stop-opacity:1" id="stop217825" offset=".563"/><stop style="stop-color:#2c282a;stop-opacity:1" id="stop217827" offset=".578"/><stop style="stop-color:#2b2829;stop-opacity:1" id="stop217829" offset=".594"/><stop style="stop-color:#2a2728;stop-opacity:1" id="stop217831" offset=".609"/><stop style="stop-color:#2a2627;stop-opacity:1" id="stop217833" offset=".625"/><stop style="stop-color:#292527;stop-opacity:1" id="stop217835" offset=".641"/><stop style="stop-color:#282526;stop-opacity:1" id="stop217837" offset=".656"/><stop style="stop-color:#282425;stop-opacity:1" id="stop217839" offset=".672"/><stop style="stop-color:#272324;stop-opacity:1" id="stop217841" offset=".688"/><stop style="stop-color:#262324;stop-opacity:1" id="stop217843" offset=".703"/><stop style="stop-color:#262223;stop-opacity:1" id="stop217845" offset=".719"/><stop style="stop-color:#252122;stop-opacity:1" id="stop217847" offset=".734"/><stop style="stop-color:#242021;stop-opacity:1" id="stop217849" offset=".75"/><stop style="stop-color:#242021;stop-opacity:1" id="stop217851" offset=".766"/><stop style="stop-color:#231f20;stop-opacity:1" id="stop217853" offset=".781"/><stop style="stop-color:#231f20;stop-opacity:1" id="stop217855" offset=".813"/><stop style="stop-color:#231f20;stop-opacity:1" id="stop217857" offset=".875"/><stop style="stop-color:#231f20;stop-opacity:1" id="stop217859" offset="1"/></linearGradient></defs><metadata id="metadata261900"/><g id="layer1" transform="translate(-56.636094,-70.97654)"><path id="path227414" d="M 56.636094,70.97654 H 71.689792 V 199.2898 H 56.636094 Z m 0,0" style="fill:#e6e6e6;fill-opacity:1;fill-rule:nonzero;stroke:none;stroke-width:.35277775"/><path id="path227416" d="M 71.875811,70.97654 H 56.636094 v 128.4993 H 71.875811 Z M 71.689756,199.28981 H 56.823489 V 71.163954 h 14.866267 z m 0,0" style="fill:#ababab;fill-opacity:1;fill-rule:nonzero;stroke:none;stroke-width:.35277775"/><g style="font-style:normal;font-weight:400;font-size:10.58333302px;line-height:1.25;font-family:sans-serif;letter-spacing:0;word-spacing:0;fill:#3f3f3f;fill-opacity:1;stroke:none;stroke-width:.26458332" id="text927" aria-label="time" transform="matrix(0.30275126,0,0,0.30275126,73.583917,54.154221)"><path style="fill:#3f3f3f;fill-opacity:1;stroke-width:.26458332" id="path945" d="m -40.583035,94.758657 v 1.643311 h 1.958537 v 0.738972 h -1.958537 v 3.14193 q 0,0.70796 0.191203,0.9095 0.196371,0.20154 0.79065,0.20154 h 0.976684 v 0.79582 h -0.976684 q -1.100708,0 -1.519287,-0.40825 -0.41858,-0.41341 -0.41858,-1.49861 v -3.14193 h -0.697631 v -0.738972 h 0.697631 v -1.643311 z"/><path style="fill:#3f3f3f;fill-opacity:1;stroke-width:.26458332" id="path947" d="m -37.36876,96.401968 h 0.950846 v 5.787762 h -0.950846 z m 0,-2.253093 h 0.950846 v 1.204061 h -0.950846 z"/><path style="fill:#3f3f3f;fill-opacity:1;stroke-width:.26458332" id="path949" d="m -29.927355,97.513011 q 0.356568,-0.640788 0.852662,-0.945679 0.496093,-0.304891 1.167887,-0.304891 0.904337,0 1.395264,0.63562 0.490926,0.630453 0.490926,1.79834 v 3.493329 h -0.956014 v -3.462323 q 0,-0.831991 -0.294556,-1.235067 -0.294556,-0.403076 -0.89917,-0.403076 -0.738973,0 -1.167887,0.490926 -0.428915,0.490926 -0.428915,1.33842 v 3.27112 h -0.956014 v -3.462323 q 0,-0.837158 -0.294555,-1.235067 -0.294556,-0.403076 -0.909505,-0.403076 -0.728638,0 -1.157552,0.496094 -0.428915,0.490926 -0.428915,1.333252 v 3.27112 h -0.956014 v -5.787762 h 0.956014 v 0.899169 q 0.325562,-0.532267 0.780314,-0.785481 0.454753,-0.253215 1.080038,-0.253215 0.630452,0 1.069702,0.320394 0.444417,0.320394 0.65629,0.930176 z"/><path style="fill:#3f3f3f;fill-opacity:1;stroke-width:.26458332" id="path951" d="m -19.168322,99.058136 v 0.465088 h -4.371826 q 0.06201,0.981856 0.589111,1.498616 0.532267,0.5116 1.477946,0.5116 0.54777,0 1.059367,-0.13436 0.516764,-0.13436 1.023193,-0.40308 v 0.89917 q -0.511597,0.21704 -1.049032,0.33073 -0.537434,0.11369 -1.090372,0.11369 -1.384929,0 -2.196249,-0.80615 -0.806152,-0.80616 -0.806152,-2.180748 0,-1.421102 0.764811,-2.253093 0.769979,-0.837158 2.072225,-0.837158 1.167887,0 1.844849,0.754476 0.682129,0.749308 0.682129,2.041219 z m -0.950847,-0.279053 q -0.01034,-0.780314 -0.439249,-1.245402 -0.423747,-0.465088 -1.126547,-0.465088 -0.795817,0 -1.276407,0.449585 -0.475424,0.449585 -0.547771,1.266073 z"/></g><g style="font-style:normal;font-weight:400;font-size:10.58333302px;line-height:1.25;font-family:sans-serif;letter-spacing:0;word-spacing:0;fill:#3f3f3f;fill-opacity:1;stroke:none;stroke-width:.26458332" id="text939" aria-label="amp" transform="matrix(0.30275126,0,0,0.30275126,73.511888,82.430408)"><path style="fill:#3f3f3f;fill-opacity:1;stroke-width:.26458332" id="path954" d="m -38.492313,113.312 q -1.152385,0 -1.596802,0.26355 -0.444418,0.26355 -0.444418,0.89917 0,0.50643 0.33073,0.80615 0.335896,0.29456 0.909505,0.29456 0.790649,0 1.266072,-0.55811 0.480591,-0.56327 0.480591,-1.49345 V 113.312 Z m 1.896525,-0.39274 v 3.30212 h -0.950847 v -0.8785 q -0.325561,0.5271 -0.81132,0.78032 -0.485758,0.24804 -1.188558,0.24804 -0.888834,0 -1.415934,-0.49609 -0.521932,-0.50126 -0.521932,-1.33842 0,-0.97668 0.651123,-1.47278 0.656291,-0.49609 1.953369,-0.49609 h 1.333252 v -0.093 q 0,-0.65629 -0.434082,-1.01286 -0.428914,-0.36173 -1.209228,-0.36173 -0.496094,0 -0.96635,0.11885 -0.470255,0.11886 -0.904337,0.35657 v -0.8785 q 0.521932,-0.20154 1.012858,-0.29972 0.490926,-0.10335 0.956014,-0.10335 1.255737,0 1.875854,0.65112 0.620118,0.65112 0.620118,1.97404 z"/><path style="fill:#3f3f3f;fill-opacity:1;stroke-width:.26458332" id="path956" d="m -30.125899,111.54467 q 0.356567,-0.64079 0.852661,-0.94568 0.496093,-0.30489 1.167887,-0.30489 0.904337,0 1.395264,0.63562 0.490926,0.63045 0.490926,1.79834 v 3.49332 h -0.956014 v -3.46232 q 0,-0.83199 -0.294556,-1.23507 -0.294556,-0.40307 -0.89917,-0.40307 -0.738973,0 -1.167887,0.49092 -0.428915,0.49093 -0.428915,1.33842 v 3.27112 h -0.956014 v -3.46232 q 0,-0.83716 -0.294555,-1.23507 -0.294556,-0.40307 -0.909505,-0.40307 -0.728638,0 -1.157552,0.49609 -0.428915,0.49093 -0.428915,1.33325 v 3.27112 h -0.956014 v -5.78776 h 0.956014 v 0.89917 q 0.325562,-0.53227 0.780314,-0.78548 0.454753,-0.25321 1.080038,-0.25321 0.630452,0 1.069702,0.32039 0.444417,0.32039 0.656291,0.93018 z"/><path style="fill:#3f3f3f;fill-opacity:1;stroke-width:.26458332" id="path958" d="m -23.397628,115.35322 v 3.06958 h -0.956014 v -7.98918 h 0.956014 v 0.8785 q 0.299724,-0.51676 0.754476,-0.76481 0.459921,-0.25321 1.095541,-0.25321 1.054199,0 1.71049,0.83715 0.661458,0.83716 0.661458,2.20142 0,1.36426 -0.661458,2.20142 -0.656291,0.83715 -1.71049,0.83715 -0.63562,0 -1.095541,-0.24804 -0.454752,-0.25322 -0.754476,-0.76998 z m 3.234945,-2.02055 q 0,-1.04903 -0.434082,-1.64331 -0.428914,-0.59945 -1.18339,-0.59945 -0.754476,0 -1.188558,0.59945 -0.428915,0.59428 -0.428915,1.64331 0,1.04903 0.428915,1.64848 0.434082,0.59428 1.188558,0.59428 0.754476,0 1.18339,-0.59428 0.434082,-0.59945 0.434082,-1.64848 z"/></g><g style="font-style:normal;font-weight:400;font-size:10.58333302px;line-height:1.25;font-family:sans-serif;letter-spacing:0;word-spacing:0;fill:#3f3f3f;fill-opacity:1;stroke:none;stroke-width:.26458332;fill-rule:evenodd" id="text943" aria-label="s + o" transform="matrix(0.30275126,0,0,0.30275126,73.277104,109.58586)"><path style="fill:#3f3f3f;fill-opacity:1;stroke-width:.26458332;fill-rule:evenodd" id="path961" d="m -37.700208,127.84304 v 0.89917 q -0.403076,-0.20671 -0.837158,-0.31006 -0.434082,-0.10335 -0.89917,-0.10335 -0.707967,0 -1.064535,0.21704 -0.351399,0.21704 -0.351399,0.65112 0,0.33073 0.253214,0.52193 0.253215,0.18604 1.018026,0.35657 l 0.325561,0.0724 q 1.012858,0.21704 1.436605,0.61495 0.428914,0.39274 0.428914,1.1007 0,0.80616 -0.640787,1.27641 -0.63562,0.47026 -1.751831,0.47026 -0.465088,0 -0.971517,-0.093 -0.501262,-0.0879 -1.059367,-0.26872 v -0.98185 q 0.5271,0.27389 1.038696,0.41341 0.511597,0.13436 1.012858,0.13436 0.671794,0 1.033529,-0.22738 0.361735,-0.23254 0.361735,-0.65112 0,-0.38757 -0.26355,-0.59428 -0.258382,-0.2067 -1.142049,-0.39791 l -0.330729,-0.0775 q -0.883667,-0.18604 -1.276408,-0.56844 -0.392741,-0.38757 -0.392741,-1.05937 0,-0.81649 0.578776,-1.2609 0.578776,-0.44442 1.643311,-0.44442 0.527099,0 0.992187,0.0775 0.465088,0.0775 0.857829,0.23255 z"/><path style="fill:#3f3f3f;fill-opacity:1;stroke-width:.26458332;fill-rule:evenodd" id="path963" d="m -28.630995,126.82501 v 2.87838 h 2.878377 v 0.8785 h -2.878377 v 2.87838 h -0.868164 v -2.87838 h -2.878377 v -0.8785 h 2.878377 v -2.87838 z"/><path style="fill:#3f3f3f;fill-opacity:1;stroke-width:.26458332;fill-rule:evenodd" id="path965" d="m -18.021824,128.33913 q -0.764811,0 -1.209228,0.59945 -0.444418,0.59428 -0.444418,1.63297 0,1.0387 0.43925,1.63815 0.444417,0.59428 1.214396,0.59428 0.759644,0 1.204061,-0.59945 0.444417,-0.59945 0.444417,-1.63298 0,-1.02836 -0.444417,-1.6278 -0.444417,-0.60462 -1.204061,-0.60462 z m 0,-0.80615 q 1.240234,0 1.948201,0.80615 0.707968,0.80615 0.707968,2.23242 0,1.42111 -0.707968,2.23243 -0.707967,0.80615 -1.948201,0.80615 -1.245402,0 -1.953369,-0.80615 -0.7028,-0.81132 -0.7028,-2.23243 0,-1.42627 0.7028,-2.23242 0.707967,-0.80615 1.953369,-0.80615 z"/></g><rect style="display:inline;fill:#000;fill-opacity:1;fill-rule:evenodd;stroke:none;stroke-width:.20018744;stroke-linecap:butt;stroke-linejoin:round;stroke-miterlimit:4;stroke-dasharray:none;stroke-opacity:1;paint-order:normal" id="rect866-0-0" width="10.706" height="10.538" x="59.101" y="179.875" ry="1.28"/></g><g id="layer2" style="display:none"><rect style="opacity:1;vector-effect:none;fill:red;fill-opacity:.50196078;fill-rule:evenodd;stroke:none;stroke-width:.19901438;stroke-linecap:round;stroke-linejoin:miter;stroke-miterlimit:10;stroke-dasharray:none;stroke-dashoffset:0;stroke-opacity:1;paint-order:normal" id="rect262182" width="4.747" height="10" x="5.246" y="46.915"/><rect id="rect262989" width="8.212" height="8.21" x="3.514" y="17.694" style="opacity:1;vector-effect:none;fill:#0f0;fill-opacity:.50196078;fill-rule:evenodd;stroke:none;stroke-width:.23716429;stroke-linecap:round;stroke-linejoin:miter;stroke-miterlimit:10;stroke-dasharray:none;stroke-dashoffset:0;stroke-opacity:1;paint-order:normal"/><rect style="opacity:1;vector-effect:none;fill:#0f0;fill-opacity:.50196078;fill-rule:evenodd;stroke:none;stroke-width:.23716429;stroke-linecap:round;stroke-linejoin:miter;stroke-miterlimit:10;stroke-dasharray:none;stroke-dashoffset:0;stroke-opacity:1;paint-order:normal" id="rect262991" width="8.212" height="8.21" x="3.514" y="32.19"/><rect id="rect262993" width="8.212" height="8.21" x="3.515" y="62.81" style="opacity:1;vector-effect:none;fill:#0f0;fill-opacity:.50196078;fill-rule:evenodd;stroke:none;stroke-width:.23716429;stroke-linecap:round;stroke-linejoin:miter;stroke-miterlimit:10;stroke-dasharray:none;stroke-dashoffset:0;stroke-opacity:1;paint-order:normal"/><rect style="opacity:1;vector-effect:none;fill:#00f;fill-opacity:.50196078;fill-rule:evenodd;stroke:none;stroke-width:.23716429;stroke-linecap:round;stroke-linejoin:miter;stroke-miterlimit:10;stroke-dasharray:none;stroke-dashoffset:0;stroke-opacity:1;paint-order:normal" id="rect262995" width="8.212" height="8.21" x="3.515" y="77.81"/><rect id="rect262997" width="8.212" height="8.21" x="3.514" y="87.811" style="opacity:1;vector-effect:none;fill:#00f;fill-opacity:.50196078;fill-rule:evenodd;stroke:none;stroke-width:.23716429;stroke-linecap:round;stroke-linejoin:miter;stroke-miterlimit:10;stroke-dasharray:none;stroke-dashoffset:0;stroke-opacity:1;paint-order:normal"/><rect style="opacity:1;vector-effect:none;fill:#00f;fill-opacity:.50196078;fill-rule:evenodd;stroke:none;stroke-width:.23716429;stroke-linecap:round;stroke-linejoin:miter;stroke-miterlimit:10;stroke-dasharray:none;stroke-dashoffset:0;stroke-opacity:1;paint-order:normal" id="rect262999" width="8.212" height="8.21" x="3.514" y="97.809"/><rect id="rect263001" width="8.212" height="8.21" x="3.514" y="107.809" style="opacity:1;vector-effect:none;fill:#00f;fill-opacity:.50196078;fill-rule:evenodd;stroke:none;stroke-width:.23716429;stroke-linecap:round;stroke-linejoin:miter;stroke-miterlimit:10;stroke-dasharray:none;stroke-dashoffset:0;stroke-opacity:1;paint-order:normal"/><rect id="rect263003" width=".999" height=".999" x="10.82" y="77.716" style="opacity:1;vector-effect:none;fill:#f0f;fill-opacity:.50196078;fill-rule:evenodd;stroke:none;stroke-width:.02885729;stroke-linecap:round;stroke-linejoin:miter;stroke-miterlimit:10;stroke-dasharray:none;stroke-dashoffset:0;stroke-opacity:1;paint-order:normal"/><rect style="opacity:1;vector-effect:none;fill:#f0f;fill-opacity:.50196078;fill-rule:evenodd;stroke:none;stroke-width:.02885729;stroke-linecap:round;stroke-linejoin:miter;stroke-miterlimit:10;stroke-dasharray:none;stroke-dashoffset:0;stroke-opacity:1;paint-order:normal" id="rect263005" width=".999" height=".999" x="10.82" y="87.716"/><rect id="rect263007" width=".999" height=".999" x="10.82" y="97.717" style="opacity:1;vector-effect:none;fill:#f0f;fill-opacity:.50196078;fill-rule:evenodd;stroke:none;stroke-width:.02885729;stroke-linecap:round;stroke-linejoin:miter;stroke-miterlimit:10;stroke-dasharray:none;stroke-dashoffset:0;stroke-opacity:1;paint-order:normal"/><rect style="opacity:1;vector-effect:none;fill:#f0f;fill-opacity:.50196078;fill-rule:evenodd;stroke:none;stroke-width:.02885729;stroke-linecap:round;stroke-linejoin:miter;stroke-miterlimit:10;stroke-dasharray:none;stroke-dashoffset:0;stroke-opacity:1;paint-order:normal" id="rect263009" width=".999" height=".999" x="10.82" y="107.716"/></g></svg>