<svg xmlns="http://www.w3.org/2000/svg" xmlns:svg="http://www.w3.org/2000/svg" xmlns:xlink="http://www.w3.org/1999/xlink" id="svg4541" width="120.18" height="380" x="0" y="0" enable-background="new 0 0 120.18 380" version="1.1" viewBox="0 0 120.18 380" xml:space="preserve"><path d="M59.809,273.057c0-55.557-29.014-76.168-29.014-101.557c0-25.5,29.014-53,29.014-102H1.001v203.557H59.809z"/><path d="M59.874,273.057c0-55.557,29.016-76.168,29.016-101.557c0-25.5-29.016-53-29.016-102h59.305v203.557H59.874z"/><path fill="none" stroke="#505151" stroke-miterlimit="10" stroke-width="1.5" d="M59.809,273.057	c0-55.557-29.014-76.168-29.014-101.557c0-25.5,29.014-53,29.014-102"/><path fill="none" stroke="#505151" stroke-miterlimit="10" stroke-width="1.5" d="M59.874,273.057	c0-55.557,29.016-76.168,29.016-101.557c0-25.5-29.016-53-29.016-102"/><line x1="72.842" x2="72.842" y1="279.453" y2="214.997" fill="none" stroke="#505151" stroke-miterlimit="10" stroke-width="1.5"/><line x1="85.851" x2="85.851" y1="270.443" y2="186.979" fill="none" stroke="#505151" stroke-miterlimit="10" stroke-width="1.5"/><line x1="92.853" x2="85.85" y1="270.029" y2="270.029" fill="none" stroke="#505151" stroke-linecap="square" stroke-miterlimit="10" stroke-width="1.5"/><line x1="92.852" x2="92.852" y1="273.451" y2="270.029" fill="none" stroke="#505151" stroke-miterlimit="10" stroke-width="1.5"/></svg>