<svg xmlns="http://www.w3.org/2000/svg" xmlns:svg="http://www.w3.org/2000/svg" xmlns:xlink="http://www.w3.org/1999/xlink" id="svg4541" width="135.566" height="380" x="0" y="0" enable-background="new 0 0 135.566 380" version="1.1" viewBox="0 0 135.566 380" xml:space="preserve"><path id="path33453" stroke="#595A5A" stroke-miterlimit="10" stroke-width="1.226" d="M0,0.043h135.566v379.914H0V0.043z"/><line x1="22.837" x2="22.84" y1="260.577" y2="254.288" fill="none" stroke="#595A5A" stroke-miterlimit="10" stroke-width="2"/><line x1="52.856" x2="52.859" y1="260.577" y2="254.288" fill="none" stroke="#595A5A" stroke-miterlimit="10" stroke-width="2"/><line x1="82.874" x2="82.878" y1="260.577" y2="254.288" fill="none" stroke="#595A5A" stroke-miterlimit="10" stroke-width="2"/><line x1="112.891" x2="112.895" y1="260.577" y2="254.288" fill="none" stroke="#595A5A" stroke-miterlimit="10" stroke-width="2"/><g><path fill="#FFF" stroke="#FFF" stroke-miterlimit="10" stroke-width=".25" d="M66.833,367.67 c-0.378,0.168-1.092,0.309-1.896,0.309c-2.224,0-3.639-1.346-3.639-3.502c0-2.004,1.373-3.643,3.933-3.643 c0.562,0,1.177,0.1,1.625,0.268l-0.336,1.582c-0.263-0.104-0.641-0.211-1.19-0.211c-1.12,0-1.849,0.799-1.835,1.92 c0,1.26,0.841,1.92,1.877,1.92c0.505,0,0.896-0.086,1.22-0.211L66.833,367.67z"/><path fill="#FFF" stroke="#FFF" stroke-miterlimit="10" stroke-width=".25" d="M68.749,362.066h1.273l0.042-0.448 c0.104-0.938,0.63-3.039,3.039-3.039c0.478,0,0.911,0.098,1.163,0.224l-0.336,1.514c-0.169-0.062-0.396-0.127-0.659-0.127 c-0.7,0-1.036,0.506-1.12,1.271l-0.084,0.605h1.43v1.479h-1.604l-0.312,2.493c-0.211,1.709-0.785,3.062-2.771,3.062 c-0.575-0.015-1.064-0.125-1.274-0.231l0.294-1.479c0.21,0.084,0.438,0.105,0.658,0.105c0.7-0.021,0.938-0.396,1.14-1.982 l0.229-1.968h-1.104v-1.479h-0.004V362.066z"/></g><line x1="52.23" x2="67.492" y1="133.031" y2="93.486" fill="none" stroke="#595A5A" stroke-miterlimit="10" stroke-width="2"/><line x1="69.276" x2="95.134" y1="203.398" y2="203.398" fill="none" stroke="#595A5A" stroke-miterlimit="10" stroke-width="2"/><line x1="94.946" x2="103.126" y1="203.398" y2="194.059" fill="none" stroke="#595A5A" stroke-miterlimit="10" stroke-width="2"/><g><path fill="#FFF" stroke="#FFF" stroke-miterlimit="10" d="M51.193,16.253c0.562-0.096,1.354-0.168,2.471-0.168 c1.127,0,1.934,0.216,2.471,0.647c0.519,0.408,0.863,1.08,0.863,1.871s-0.264,1.463-0.744,1.919 c-0.624,0.588-1.547,0.852-2.626,0.852c-0.237,0-0.456-0.012-0.624-0.036v2.891h-1.811V16.253z M53.004,19.923 c0.156,0.036,0.351,0.048,0.612,0.048c0.971,0,1.571-0.492,1.571-1.319c0-0.743-0.519-1.187-1.43-1.187 c-0.369,0-0.621,0.036-0.756,0.072L53.004,19.923L53.004,19.923z"/><path fill="#FFF" stroke="#FFF" stroke-miterlimit="10" d="M59.327,22.154l-0.576,2.075h-1.895l2.47-8.083h2.399l2.507,8.083 h-1.967l-0.624-2.075H59.327z M61.379,20.787l-0.504-1.715c-0.144-0.479-0.288-1.079-0.408-1.559h-0.021 c-0.12,0.48-0.24,1.091-0.372,1.559l-0.479,1.715H61.379z"/><path fill="#FFF" stroke="#FFF" stroke-miterlimit="10" d="M65.88,17.681h-2.171v-1.535h6.213v1.535h-2.207v6.548H65.88 V17.681z"/><path fill="#FFF" stroke="#FFF" stroke-miterlimit="10" d="M76.485,24.001c-0.336,0.168-1.092,0.348-2.075,0.348 c-2.794,0-4.233-1.739-4.233-4.042c0-2.758,1.97-4.293,4.413-4.293c0.948,0,1.667,0.192,1.991,0.36l-0.372,1.451 c-0.371-0.156-0.888-0.3-1.535-0.3c-1.448,0-2.575,0.875-2.575,2.674c0,1.619,0.959,2.639,2.591,2.639 c0.552,0,1.163-0.12,1.521-0.264L76.485,24.001z"/><path fill="#FFF" stroke="#FFF" stroke-miterlimit="10" d="M79.524,16.146v3.106h3.01v-3.106h1.823v8.083h-1.823v-3.382 h-3.01v3.382h-1.835v-8.083H79.524z"/></g><circle cx="22.463" cy="273.597" r="9.396" fill="#FFF" stroke="#595A5A" stroke-miterlimit="10" stroke-width="10"/><circle cx="52.482" cy="273.597" r="9.396" fill="#FFF" stroke="#595A5A" stroke-miterlimit="10" stroke-width="10"/><circle cx="82.504" cy="273.597" r="9.396" fill="#FFF" stroke="#595A5A" stroke-miterlimit="10" stroke-width="10"/><circle cx="112.521" cy="273.597" r="9.396" fill="#FFF" stroke="#595A5A" stroke-miterlimit="10" stroke-width="10"/><line x1="22.837" x2="22.84" y1="320.611" y2="314.323" fill="none" stroke="#595A5A" stroke-miterlimit="10" stroke-width="2"/><line x1="52.856" x2="52.859" y1="320.611" y2="314.323" fill="none" stroke="#595A5A" stroke-miterlimit="10" stroke-width="2"/><line x1="82.874" x2="82.878" y1="320.611" y2="314.323" fill="none" stroke="#595A5A" stroke-miterlimit="10" stroke-width="2"/><line x1="112.891" x2="112.895" y1="320.611" y2="314.323" fill="none" stroke="#595A5A" stroke-miterlimit="10" stroke-width="2"/><circle cx="22.465" cy="333.632" r="9.396" fill="#FFF" stroke="#595A5A" stroke-miterlimit="10" stroke-width="10"/><circle cx="52.484" cy="333.632" r="9.396" fill="#FFF" stroke="#595A5A" stroke-miterlimit="10" stroke-width="10"/><circle cx="82.5" cy="333.632" r="9.396" fill="#FFF" stroke="#595A5A" stroke-miterlimit="10" stroke-width="10"/><circle cx="112.517" cy="333.632" r="9.396" fill="#FFF" stroke="#595A5A" stroke-miterlimit="10" stroke-width="10"/><line x1="60.708" x2="69.496" y1="192.934" y2="203.398" fill="none" stroke="#595A5A" stroke-miterlimit="10" stroke-width="2"/><line x1="66.116" x2="40.258" y1="162.914" y2="162.914" fill="none" stroke="#595A5A" stroke-miterlimit="10" stroke-width="2"/><line x1="74.109" x2="65.928" y1="172.256" y2="162.914" fill="none" stroke="#595A5A" stroke-miterlimit="10" stroke-width="2"/><line x1="40.477" x2="31.689" y1="162.914" y2="173.381" fill="none" stroke="#595A5A" stroke-miterlimit="10" stroke-width="2"/><circle cx="82.504" cy="183.543" r="9.396" fill="#FFF" stroke="#595A5A" stroke-miterlimit="10" stroke-width="10"/><circle cx="112.521" cy="183.543" r="9.396" fill="#FFF" stroke="#595A5A" stroke-miterlimit="10" stroke-width="10"/><line x1="92.509" x2="67.492" y1="124.115" y2="93.486" fill="none" stroke="#595A5A" stroke-miterlimit="10" stroke-width="2"/><line x1="95.27" x2="67.492" y1="85.509" y2="93.486" fill="none" stroke="#595A5A" stroke-miterlimit="10" stroke-width="2"/><line x1="67.492" x2="67.492" y1="63.503" y2="93.486" fill="none" stroke="#595A5A" stroke-miterlimit="10" stroke-width="2"/><line x1="35.691" x2="67.492" y1="79.002" y2="93.486" fill="none" stroke="#595A5A" stroke-miterlimit="10" stroke-width="2"/><circle cx="52.485" cy="133.511" r="9.396" fill="#FFF" stroke="#595A5A" stroke-miterlimit="10" stroke-width="10"/><circle cx="92.51" cy="123.505" r="9.396" fill="#FFF" stroke="#595A5A" stroke-miterlimit="10" stroke-width="10"/><circle cx="67.494" cy="93.486" r="9.396" fill="#FFF" stroke="#595A5A" stroke-miterlimit="10" stroke-width="10"/></svg>