<svg xmlns="http://www.w3.org/2000/svg" xmlns:svg="http://www.w3.org/2000/svg" id="svg264135" width="60.308" height="379.998" version="1.1" viewBox="0 0 15.956 100.542"><defs id="defs264129"><linearGradient id="linear21" x1="-.096" x2="1.325" y1="0" y2="0" gradientTransform="matrix(0,6.4087959,-6.4087959,0,90.714778,76.618644)" gradientUnits="userSpaceOnUse"><stop style="stop-color:#414042;stop-opacity:1" id="stop217868" offset="0"/><stop style="stop-color:#414042;stop-opacity:1" id="stop217870" offset=".063"/><stop style="stop-color:#414042;stop-opacity:1" id="stop217872" offset=".078"/><stop style="stop-color:#403f41;stop-opacity:1" id="stop217874" offset=".094"/><stop style="stop-color:#403e40;stop-opacity:1" id="stop217876" offset=".109"/><stop style="stop-color:#3f3e40;stop-opacity:1" id="stop217878" offset=".125"/><stop style="stop-color:#3e3d3f;stop-opacity:1" id="stop217880" offset=".141"/><stop style="stop-color:#3e3c3e;stop-opacity:1" id="stop217882" offset=".156"/><stop style="stop-color:#3d3b3d;stop-opacity:1" id="stop217884" offset=".172"/><stop style="stop-color:#3c3b3d;stop-opacity:1" id="stop217886" offset=".188"/><stop style="stop-color:#3c3a3c;stop-opacity:1" id="stop217888" offset=".203"/><stop style="stop-color:#3b393b;stop-opacity:1" id="stop217890" offset=".219"/><stop style="stop-color:#3a393a;stop-opacity:1" id="stop217892" offset=".234"/><stop style="stop-color:#3a383a;stop-opacity:1" id="stop217894" offset=".25"/><stop style="stop-color:#393739;stop-opacity:1" id="stop217896" offset=".266"/><stop style="stop-color:#383638;stop-opacity:1" id="stop217898" offset=".281"/><stop style="stop-color:#383637;stop-opacity:1" id="stop217900" offset=".297"/><stop style="stop-color:#373537;stop-opacity:1" id="stop217902" offset=".313"/><stop style="stop-color:#363436;stop-opacity:1" id="stop217904" offset=".328"/><stop style="stop-color:#363335;stop-opacity:1" id="stop217906" offset=".344"/><stop style="stop-color:#353334;stop-opacity:1" id="stop217908" offset=".359"/><stop style="stop-color:#343234;stop-opacity:1" id="stop217910" offset=".375"/><stop style="stop-color:#343133;stop-opacity:1" id="stop217912" offset=".391"/><stop style="stop-color:#333032;stop-opacity:1" id="stop217914" offset=".406"/><stop style="stop-color:#323031;stop-opacity:1" id="stop217916" offset=".422"/><stop style="stop-color:#322f30;stop-opacity:1" id="stop217918" offset=".438"/><stop style="stop-color:#312e30;stop-opacity:1" id="stop217920" offset=".453"/><stop style="stop-color:#302e2f;stop-opacity:1" id="stop217922" offset=".469"/><stop style="stop-color:#302d2e;stop-opacity:1" id="stop217924" offset=".484"/><stop style="stop-color:#2f2c2d;stop-opacity:1" id="stop217926" offset=".5"/><stop style="stop-color:#2e2b2d;stop-opacity:1" id="stop217928" offset=".516"/><stop style="stop-color:#2e2b2c;stop-opacity:1" id="stop217930" offset=".531"/><stop style="stop-color:#2d2a2b;stop-opacity:1" id="stop217932" offset=".547"/><stop style="stop-color:#2c292a;stop-opacity:1" id="stop217934" offset=".563"/><stop style="stop-color:#2c282a;stop-opacity:1" id="stop217936" offset=".578"/><stop style="stop-color:#2b2829;stop-opacity:1" id="stop217938" offset=".594"/><stop style="stop-color:#2a2728;stop-opacity:1" id="stop217940" offset=".609"/><stop style="stop-color:#2a2627;stop-opacity:1" id="stop217942" offset=".625"/><stop style="stop-color:#292527;stop-opacity:1" id="stop217944" offset=".641"/><stop style="stop-color:#282526;stop-opacity:1" id="stop217946" offset=".656"/><stop style="stop-color:#282425;stop-opacity:1" id="stop217948" offset=".672"/><stop style="stop-color:#272324;stop-opacity:1" id="stop217950" offset=".688"/><stop style="stop-color:#262324;stop-opacity:1" id="stop217952" offset=".703"/><stop style="stop-color:#262223;stop-opacity:1" id="stop217954" offset=".719"/><stop style="stop-color:#252122;stop-opacity:1" id="stop217956" offset=".734"/><stop style="stop-color:#242021;stop-opacity:1" id="stop217958" offset=".75"/><stop style="stop-color:#242021;stop-opacity:1" id="stop217960" offset=".766"/><stop style="stop-color:#231f20;stop-opacity:1" id="stop217962" offset=".781"/><stop style="stop-color:#231f20;stop-opacity:1" id="stop217964" offset=".813"/><stop style="stop-color:#231f20;stop-opacity:1" id="stop217966" offset=".875"/><stop style="stop-color:#231f20;stop-opacity:1" id="stop217968" offset="1"/></linearGradient></defs><metadata id="metadata264132"/><g id="layer1" transform="translate(-83.094467,-28.643207)" style="display:inline"><path id="path227418" d="M 83.094427,28.643207 H 99.050878 V 129.18487 H 83.094427 Z m 0,0" style="fill:#e6e6e6;fill-opacity:1;fill-rule:nonzero;stroke:none;stroke-width:.32150295"/><path id="path227420" d="M 98.950652,28.643207 H 83.094427 V 129.18487 H 98.950652 Z M 98.757074,129.03932 H 83.289403 V 28.789845 h 15.467671 z m 0,0" style="fill:#ababab;fill-opacity:1;fill-rule:nonzero;stroke:none;stroke-width:.31829894"/><path id="path233122" d="m 91.681942,35.074777 c 0,-0.271589 -0.325804,-0.493481 -0.723305,-0.493481 h -5.55339 c -0.397526,0 -0.723305,0.221892 -0.723305,0.493481 v 6.013032 c 0,0.271588 0.325779,0.493487 0.723305,0.493487 h 5.55339 c 0.397501,0 0.723305,-0.221899 0.723305,-0.493487 z m 0,0" style="fill:#000;fill-opacity:1;fill-rule:nonzero;stroke:none;stroke-width:.21081577"/><path style="fill:#000;fill-opacity:1;stroke:none;stroke-width:.35277775" id="path257853" d="m 87.036952,47.092364 c 0,0.07717 0.06615,0.137805 0.143334,0.137805 0.07715,0 0.143298,-0.06064 0.143298,-0.137805 v -1.350476 c 0,-0.07717 -0.06615,-0.137806 -0.143298,-0.137806 -0.07719,0 -0.143334,0.06064 -0.143334,0.137806 z m 0,0"/><path style="fill:#000;fill-opacity:1;stroke:none;stroke-width:.35277775" id="path257849" d="m 87.820613,47.092364 c 0,0.07717 0.06615,0.137805 0.143333,0.137805 0.07715,0 0.137795,-0.06064 0.137795,-0.137805 v -1.019747 l 0.826841,1.069356 c 0.03856,0.04961 0.07715,0.0882 0.143298,0.0882 h 0.01094 c 0.07715,0 0.137795,-0.06615 0.137795,-0.143317 v -1.344964 c 0,-0.07717 -0.06064,-0.137806 -0.137795,-0.137806 -0.07719,0 -0.13783,0.06064 -0.13783,0.137806 v 0.986674 l -0.804757,-1.041801 c -0.03859,-0.04961 -0.07719,-0.08268 -0.143333,-0.08268 h -0.03316 c -0.07719,0 -0.143334,0.06615 -0.143334,0.143315 z m 0,0"/><path id="path233150" d="M 88.190604,54.379509 V 118.69162" style="fill:none;stroke:#000;stroke-width:.34400305;stroke-linecap:round;stroke-linejoin:round;stroke-miterlimit:10;stroke-opacity:1"/><g id="g3995" transform="matrix(0.00543609,0,0,0.00473484,91.921678,35.824746)"><g id="g3993" transform="matrix(0.1,0,0,-0.1,0,511)"><path id="path3991" d="M 1733.5,4975.3 C 1012.7,4820.1 649.3,4056.5 980,3388.8 1035.1,3276.5 1229.1,3076.4 2615.5,1685.9 L 4189.7,111.7 2609.4,-1478.9 C 1257.7,-2836.7 1018.8,-3083.7 971.9,-3183.8 c -322.6,-673.8 49,-1427.2 777.9,-1578.3 128.6,-26.5 592.1,-30.6 3573.1,-26.5 l 3424.1,6.1 112.3,61.3 c 122.5,67.4 232.8,196 265.4,312.4 12.2,44.9 20.4,336.9 20.4,718.7 0,602.3 -4.1,649.3 -42.9,735 -51,112.3 -145,214.4 -253.2,271.6 l -81.7,44.9 -2133.7,6.1 -2131.6,4.1 1041.5,1047.4 c 865.7,867.8 1053.5,1065.9 1104.6,1167.9 171.5,330.8 171.5,700.3 4.1,1037.3 -55.1,110.3 -202.1,265.4 -1106.7,1174 L 4500.1,2843.6 H 6595 c 2335.8,0 2199,-8.2 2372.6,142.9 53.1,47 108.2,122.5 134.8,183.8 42.9,102.1 44.9,122.5 38.8,782 l -6.1,677.9 -55.1,96 c -73.5,124.5 -185.8,214.4 -310.4,251.1 -147.1,44.9 -6832,42.9 -7036.1,-2 z"/></g></g></g><g id="layer3" transform="translate(-4.0029516e-5,-8e-6)" style="display:none"><rect style="opacity:1;vector-effect:none;fill:#0f0;fill-opacity:.50196078;fill-rule:evenodd;stroke:none;stroke-width:.22184688;stroke-linecap:round;stroke-linejoin:miter;stroke-miterlimit:10;stroke-dasharray:none;stroke-dashoffset:0;stroke-opacity:1;paint-order:normal" id="rect264416" width="8.212" height="8.21" x="3.514" y="17.694"/><rect id="rect264961" width="8.212" height="8.21" x="3.514" y="32.191" style="opacity:1;vector-effect:none;fill:#0f0;fill-opacity:.50196078;fill-rule:evenodd;stroke:none;stroke-width:.22184688;stroke-linecap:round;stroke-linejoin:miter;stroke-miterlimit:10;stroke-dasharray:none;stroke-dashoffset:0;stroke-opacity:1;paint-order:normal"/><rect style="opacity:1;vector-effect:none;fill:#0f0;fill-opacity:.50196078;fill-rule:evenodd;stroke:none;stroke-width:.22184688;stroke-linecap:round;stroke-linejoin:miter;stroke-miterlimit:10;stroke-dasharray:none;stroke-dashoffset:0;stroke-opacity:1;paint-order:normal" id="rect264963" width="8.212" height="8.21" x="3.514" y="62.811"/><rect id="rect264965" width="8.212" height="8.21" x="3.514" y="72.811" style="opacity:1;vector-effect:none;fill:#0f0;fill-opacity:.50196078;fill-rule:evenodd;stroke:none;stroke-width:.22184688;stroke-linecap:round;stroke-linejoin:miter;stroke-miterlimit:10;stroke-dasharray:none;stroke-dashoffset:0;stroke-opacity:1;paint-order:normal"/><rect style="opacity:1;vector-effect:none;fill:#0f0;fill-opacity:.50196078;fill-rule:evenodd;stroke:none;stroke-width:.22184688;stroke-linecap:round;stroke-linejoin:miter;stroke-miterlimit:10;stroke-dasharray:none;stroke-dashoffset:0;stroke-opacity:1;paint-order:normal" id="rect264967" width="8.212" height="8.21" x="3.514" y="82.809"/><rect id="rect264969" width="8.212" height="8.21" x="3.514" y="92.811" style="opacity:1;vector-effect:none;fill:#0f0;fill-opacity:.50196078;fill-rule:evenodd;stroke:none;stroke-width:.22184688;stroke-linecap:round;stroke-linejoin:miter;stroke-miterlimit:10;stroke-dasharray:none;stroke-dashoffset:0;stroke-opacity:1;paint-order:normal"/><rect style="opacity:1;vector-effect:none;fill:#00f;fill-opacity:.50196078;fill-rule:evenodd;stroke:none;stroke-width:.22184688;stroke-linecap:round;stroke-linejoin:miter;stroke-miterlimit:10;stroke-dasharray:none;stroke-dashoffset:0;stroke-opacity:1;paint-order:normal" id="rect264971" width="8.212" height="8.21" x="3.514" y="107.622"/><rect style="opacity:1;vector-effect:none;fill:red;fill-opacity:.50196078;fill-rule:evenodd;stroke:none;stroke-width:.18616091;stroke-linecap:round;stroke-linejoin:miter;stroke-miterlimit:10;stroke-dasharray:none;stroke-dashoffset:0;stroke-opacity:1;paint-order:normal" id="rect264973" width="4.747" height="10" x="5.246" y="46.915"/><rect id="rect264975" width="1.175" height="1.175" x="10.732" y="62.628" style="opacity:1;vector-effect:none;fill:#f0f;fill-opacity:.50196078;fill-rule:evenodd;stroke:none;stroke-width:.0317592;stroke-linecap:round;stroke-linejoin:miter;stroke-miterlimit:10;stroke-dasharray:none;stroke-dashoffset:0;stroke-opacity:1;paint-order:normal"/><rect style="opacity:1;vector-effect:none;fill:#f0f;fill-opacity:.50196078;fill-rule:evenodd;stroke:none;stroke-width:.0317592;stroke-linecap:round;stroke-linejoin:miter;stroke-miterlimit:10;stroke-dasharray:none;stroke-dashoffset:0;stroke-opacity:1;paint-order:normal" id="rect264977" width="1.175" height="1.175" x="10.732" y="72.628"/><rect id="rect264979" width="1.175" height="1.175" x="10.732" y="82.629" style="opacity:1;vector-effect:none;fill:#f0f;fill-opacity:.50196078;fill-rule:evenodd;stroke:none;stroke-width:.0317592;stroke-linecap:round;stroke-linejoin:miter;stroke-miterlimit:10;stroke-dasharray:none;stroke-dashoffset:0;stroke-opacity:1;paint-order:normal"/><rect style="opacity:1;vector-effect:none;fill:#f0f;fill-opacity:.50196078;fill-rule:evenodd;stroke:none;stroke-width:.0317592;stroke-linecap:round;stroke-linejoin:miter;stroke-miterlimit:10;stroke-dasharray:none;stroke-dashoffset:0;stroke-opacity:1;paint-order:normal" id="rect264981" width="1.175" height="1.175" x="10.732" y="92.628"/></g></svg>