<svg xmlns="http://www.w3.org/2000/svg" xmlns:svg="http://www.w3.org/2000/svg" id="svg113936" width="19" height="19" version="1.1" viewBox="0 0 5.027 5.027"><metadata id="metadata113933"/><g id="layer1" transform="translate(-80.833177,-106.06308)"><g id="g822" transform="matrix(0.85131022,0,0,0.85131022,12.021002,16.516032)"><g id="g846" transform="matrix(0.81988195,0,0,0.81988195,14.581283,19.987582)"><circle id="circle7902" cx="84.405" cy="107.518" r="3.519" style="opacity:1;fill:#959584;fill-opacity:1;stroke:#000;stroke-width:.07937501;stroke-linecap:round;stroke-linejoin:round;stroke-miterlimit:0;stroke-dasharray:none;stroke-dashoffset:0;stroke-opacity:.53710196"/><path style="opacity:1;fill:#eaead4;fill-opacity:1;stroke:#000;stroke-width:.10583334;stroke-linecap:round;stroke-linejoin:round;stroke-miterlimit:0;stroke-dasharray:none;stroke-dashoffset:0;stroke-opacity:.48763254" id="path7904" d="m 85.118813,104.14022 c -0.456536,-0.11829 -0.926074,-0.11956 -1.408509,-0.005 -0.523506,0.4888 -1.131571,0.86529 -1.867458,1.07199 -0.339346,0.36696 -0.555744,0.7866 -0.714345,1.23102 0.112888,0.71918 0.136297,1.43661 -0.0059,2.15083 0.139552,0.4906 0.385364,0.89013 0.706088,1.22544 0.69161,0.21223 1.320228,0.55679 1.862953,1.0818 0.480756,0.119 0.95218,0.14468 1.407083,0.005 0.556074,-0.49779 1.189793,-0.83243 1.868482,-1.07258 0.338339,-0.33517 0.58316,-0.74048 0.714347,-1.23102 -0.152539,-0.72374 -0.126907,-1.43932 0.0056,-2.15001 -0.144966,-0.4649 -0.354389,-0.88952 -0.705865,-1.22536 -0.687119,-0.23423 -1.308196,-0.59436 -1.862555,-1.08168 z"/><ellipse id="ellipse7906" cx="84.405" cy="-107.518" rx="2.381" ry="2.383" transform="scale(1,-1)" style="opacity:1;fill:#dfdfc7;fill-opacity:1;stroke:#959584;stroke-width:.13229166;stroke-linecap:round;stroke-linejoin:round;stroke-miterlimit:4;stroke-dasharray:none;stroke-dashoffset:0;stroke-opacity:1"/></g></g></g></svg>