<svg xmlns="http://www.w3.org/2000/svg" xmlns:svg="http://www.w3.org/2000/svg" xmlns:xlink="http://www.w3.org/1999/xlink" id="svg113936" width="67" height="67" version="1.1" viewBox="0 0 17.727 17.727"><defs id="defs113930"><linearGradient id="linearGradient1927" x1="77.602" x2="77.602" y1="90.515" y2="77.747" gradientTransform="translate(-140)" gradientUnits="userSpaceOnUse" xlink:href="#linearGradient1925"/><linearGradient id="linearGradient1925"><stop style="stop-color:#5c5c52;stop-opacity:1" id="stop1921" offset="0"/><stop style="stop-color:#3e3e39;stop-opacity:1" id="stop1923" offset="1"/></linearGradient></defs><metadata id="metadata113933"/><g id="layer1" transform="translate(-80.833177,-93.363067)"><g style="fill:#9b9b7e;fill-opacity:1" id="g229" transform="matrix(0.26458336,0,0,0.26458336,106.89437,72.851075)"><ellipse id="path1632" cx="-64.999" cy="111.026" rx="29.202" ry="29.222" style="opacity:1;fill:#9b9b7e;fill-opacity:1;stroke:#000;stroke-width:.60000002;stroke-linecap:round;stroke-linejoin:round;stroke-miterlimit:4;stroke-dasharray:none;stroke-dashoffset:0;stroke-opacity:.68197883"/></g><g id="g238" transform="matrix(0.26458336,0,0,0.26458336,106.89684,72.858823)"><path id="circle1646" d="m -65.618831,78.078202 c -1.403122,0.0305 -2.525921,0.275598 -3.502304,0.633464 l -2.020289,13.28443 c -0.149251,1.278117 -0.472216,2.084079 -1.058647,2.391429 -6.632258,2.87084 -10.929328,9.406905 -10.938546,16.638095 0.0079,6.4261 3.410175,12.36919 8.945792,15.62632 1.005231,0.70003 1.796915,1.65631 1.97344,3.35078 l 0.764251,11.0493 c 1.905956,0.8742 4.042171,1.37008 6.455197,1.40957 2.413027,-0.0395 4.549242,-0.53537 6.455197,-1.40957 l 0.763793,-11.044 c 0.165338,-1.70151 0.893112,-2.73832 1.974006,-3.35781 5.536414,-3.25595 8.940051,-9.1984 8.949249,-15.62459 -0.0035,-7.23912 -4.304741,-13.784158 -10.945461,-16.655391 -0.772176,-0.423467 -0.940108,-1.337883 -1.056999,-2.293771 l -2.01848,-13.364792 c -1.115866,-0.408989 -2.423026,-0.671214 -4.121251,-0.633464 -0.212278,-0.0047 -0.418503,-0.0044 -0.618948,0 z" style="opacity:1;fill:#ededdb;fill-opacity:1;stroke:#000;stroke-width:.40000001;stroke-linecap:round;stroke-linejoin:round;stroke-miterlimit:4;stroke-dasharray:none;stroke-dashoffset:0;stroke-opacity:.39575973"/><ellipse id="circle1772" cx="-64.999" cy="111.026" rx="14.928" ry="14.939" style="opacity:1;fill:#40403b;fill-opacity:1;stroke:none;stroke-width:.70000005;stroke-linecap:round;stroke-linejoin:round;stroke-miterlimit:4;stroke-dasharray:none;stroke-dashoffset:0;stroke-opacity:.99646648"/><ellipse style="opacity:1;fill:#535347;fill-opacity:1;stroke:none;stroke-width:.70000005;stroke-linecap:round;stroke-linejoin:round;stroke-miterlimit:4;stroke-dasharray:none;stroke-dashoffset:0;stroke-opacity:.99646648" id="ellipse1911" cx="-64.999" cy="-111.026" rx="14.303" ry="14.313" transform="scale(1,-1)"/><ellipse id="ellipse1929" cx="-64.999" cy="-111.026" rx="13.207" ry="13.216" transform="scale(1,-1)" style="opacity:1;fill:#fff;fill-opacity:1;stroke:none;stroke-width:.70000005;stroke-linecap:round;stroke-linejoin:round;stroke-miterlimit:4;stroke-dasharray:none;stroke-dashoffset:0;stroke-opacity:.99646648"/><ellipse style="opacity:1;fill:#efefe3;fill-opacity:1;stroke:none;stroke-width:.70000005;stroke-linecap:round;stroke-linejoin:round;stroke-miterlimit:4;stroke-dasharray:none;stroke-dashoffset:0;stroke-opacity:.99646648" id="circle1778" cx="-64.999" cy="111.026" rx="12.661" ry="12.67"/><path id="rect1780" d="m -65.70331,77.958465 c -0.181491,0.0069 -0.345034,0.03779 -0.518496,0.05535 v 11.167586 c 0,0.476976 0.384062,0.861308 0.860704,0.861308 h 0.722438 c 0.476642,0 0.860704,-0.384332 0.860704,-0.861308 V 77.998244 c -0.388181,-0.03884 -0.792177,-0.05639 -1.221923,-0.03978 -0.241251,-0.0093 -0.475623,-0.0086 -0.703427,10e-7 z" style="opacity:1;fill:url(#linearGradient1927);fill-opacity:1;stroke:#000;stroke-width:.5;stroke-linecap:round;stroke-linejoin:round;stroke-miterlimit:4;stroke-dasharray:none;stroke-dashoffset:0;stroke-opacity:.614841"/></g></g></svg>