<svg xmlns="http://www.w3.org/2000/svg" xmlns:svg="http://www.w3.org/2000/svg" id="svg15246" width="22" height="22" version="1.1" viewBox="0 0 6.209 6.209"><defs id="defs15240"><clipPath id="clip89"><rect id="rect4864" width="18" height="19" x="0" y="0"/></clipPath><clipPath id="clip90"><path id="path4861" d="m 0.898438,0.128906 16.25,0 0,17.882813 -16.25,0 z m 0,0"/></clipPath><mask id="mask44"><g style="filter:url(#alpha)" id="g4858" transform="matrix(0.26458333,0,0,0.26458333,89.358789,128.57765)"><rect style="fill:#000;fill-opacity:.14999402;stroke:none" id="rect4856" width="3052.87" height="3351.5" x="0" y="0"/></g></mask><filter id="alpha" width="1" height="1" x="0" y="0" filterUnits="objectBoundingBox"><feColorMatrix id="feColorMatrix4149" in="SourceGraphic" type="matrix" values="0 0 0 0 1 0 0 0 0 1 0 0 0 0 1 0 0 0 1 0"/></filter><clipPath id="clipPath17821"><rect id="rect17819" width="18" height="19" x="0" y="0"/></clipPath><clipPath id="clipPath17825"><path id="path17823" d="m 0.898438,0.128906 16.25,0 0,17.882813 -16.25,0 z m 0,0"/></clipPath><clipPath id="clip87"><rect id="rect4848" width="24" height="26" x="0" y="0"/></clipPath><clipPath id="clip88"><path id="path4845" d="m 0.683594,0.921875 22.679687,0 0,24.9375 -22.679687,0 z m 0,0"/></clipPath><mask id="mask43"><g style="filter:url(#alpha)" id="g4842" transform="matrix(0.26458333,0,0,0.26458333,89.358789,128.57765)"><rect style="fill:#000;fill-opacity:.14999402;stroke:none" id="rect4840" width="3052.87" height="3351.5" x="0" y="0"/></g></mask><filter id="filter17836" width="1" height="1" x="0" y="0" filterUnits="objectBoundingBox"><feColorMatrix id="feColorMatrix17834" in="SourceGraphic" type="matrix" values="0 0 0 0 1 0 0 0 0 1 0 0 0 0 1 0 0 0 1 0"/></filter><clipPath id="clipPath17840"><rect id="rect17838" width="24" height="26" x="0" y="0"/></clipPath><clipPath id="clipPath17844"><path id="path17842" d="m 0.683594,0.921875 22.679687,0 0,24.9375 -22.679687,0 z m 0,0"/></clipPath></defs><metadata id="metadata15243"/><g id="layer1" transform="translate(-88.611154,-121.34534)"><path id="path7255" d="m 91.715599,127.46024 c -1.6603,0 -3.010442,-1.35013 -3.010442,-3.01044 0,-1.6603 1.350142,-3.01047 3.010442,-3.01047 1.660295,0 3.010441,1.35017 3.010441,3.01047 0,1.66031 -1.350146,3.01044 -3.010441,3.01044" style="fill:#e6e6e6;fill-opacity:1;fill-rule:nonzero;stroke:#636663;stroke-width:.18570089;stroke-miterlimit:4;stroke-dasharray:none;stroke-opacity:1"/><path id="path7261" d="m 91.715601,126.61779 c -1.195579,0 -2.168011,-0.97245 -2.168011,-2.16801 0,-1.1956 0.972432,-2.168 2.168011,-2.168 1.195577,0 2.168006,0.9724 2.168006,2.168 0,1.19556 -0.972429,2.16801 -2.168006,2.16801" style="fill:#e6e6e6;fill-opacity:1;fill-rule:nonzero;stroke:#636663;stroke-width:.18570089;stroke-miterlimit:4;stroke-dasharray:none;stroke-opacity:1"/><path id="path7265" d="m 93.052435,124.44979 c 0,0.73802 -0.598814,1.33683 -1.336837,1.33683 -0.738029,0 -1.336837,-0.59881 -1.336837,-1.33683 0,-0.73801 0.598808,-1.33685 1.336837,-1.33685 0.738023,0 1.336837,0.59884 1.336837,1.33685" style="fill:#000;fill-opacity:1;fill-rule:nonzero;stroke:none;stroke-width:.35277775"/></g></svg>