<svg xmlns="http://www.w3.org/2000/svg" xmlns:svg="http://www.w3.org/2000/svg" id="svg15246" width="34.675" height="34.678" version="1.1" viewBox="0 0 9.174 9.175"><defs id="defs15240"><clipPath id="clip89"><rect id="rect4864" width="18" height="19" x="0" y="0"/></clipPath><clipPath id="clip90"><path id="path4861" d="m 0.898438,0.128906 h 16.25 v 17.882813 h -16.25 z m 0,0"/></clipPath><mask id="mask44"><g style="filter:url(#alpha)" id="g4858" transform="matrix(0.26458333,0,0,0.26458333,89.358789,128.57765)"><rect style="fill:#000;fill-opacity:.14999402;stroke:none" id="rect4856" width="3052.87" height="3351.5" x="0" y="0"/></g></mask><filter id="alpha" width="1" height="1" x="0" y="0" filterUnits="objectBoundingBox"><feColorMatrix id="feColorMatrix4149" in="SourceGraphic" type="matrix" values="0 0 0 0 1 0 0 0 0 1 0 0 0 0 1 0 0 0 1 0"/></filter><clipPath id="clipPath17821"><rect id="rect17819" width="18" height="19" x="0" y="0"/></clipPath><clipPath id="clipPath17825"><path id="path17823" d="m 0.898438,0.128906 h 16.25 v 17.882813 h -16.25 z m 0,0"/></clipPath><clipPath id="clip87"><rect id="rect4848" width="24" height="26" x="0" y="0"/></clipPath><clipPath id="clip88"><path id="path4845" d="m 0.683594,0.921875 h 22.679687 v 24.9375 H 0.683594 Z m 0,0"/></clipPath><mask id="mask43"><g style="filter:url(#alpha)" id="g4842" transform="matrix(0.26458333,0,0,0.26458333,89.358789,128.57765)"><rect style="fill:#000;fill-opacity:.14999402;stroke:none" id="rect4840" width="3052.87" height="3351.5" x="0" y="0"/></g></mask><filter id="filter17836" width="1" height="1" x="0" y="0" filterUnits="objectBoundingBox"><feColorMatrix id="feColorMatrix17834" in="SourceGraphic" type="matrix" values="0 0 0 0 1 0 0 0 0 1 0 0 0 0 1 0 0 0 1 0"/></filter><clipPath id="clipPath17840"><rect id="rect17838" width="24" height="26" x="0" y="0"/></clipPath><clipPath id="clipPath17844"><path id="path17842" d="m 0.683594,0.921875 h 22.679687 v 24.9375 H 0.683594 Z m 0,0"/></clipPath><clipPath id="clip95"><rect id="rect4912" width="18" height="18" x="0" y="0"/></clipPath><clipPath id="clip96"><path id="path4909" d="M 0.140625,0.140625 H 17.199219 V 17.199219 H 0.140625 Z m 0,0"/></clipPath><mask id="mask47"><g style="filter:url(#alpha-3)" id="g4906" transform="matrix(0.26458333,0,0,0.26458333,88.611154,119.19859)"><rect style="fill:#000;fill-opacity:.33000201;stroke:none" id="rect4904" width="3052.87" height="3351.5" x="0" y="0"/></g></mask><filter id="alpha-3" width="1" height="1" x="0" y="0" filterUnits="objectBoundingBox"><feColorMatrix id="feColorMatrix4149-6" in="SourceGraphic" type="matrix" values="0 0 0 0 1 0 0 0 0 1 0 0 0 0 1 0 0 0 1 0"/></filter><clipPath id="clipPath18541"><rect id="rect18539" width="18" height="18" x="0" y="0"/></clipPath><clipPath id="clipPath18545"><path id="path18543" d="M 0.140625,0.140625 H 17.199219 V 17.199219 H 0.140625 Z m 0,0"/></clipPath><clipPath id="clip93"><rect id="rect4896" width="22" height="24" x="0" y="0"/></clipPath><clipPath id="clip94"><path id="path4893" d="M 0.0390625,0.0390625 H 21.300781 V 23.421875 H 0.0390625 Z m 0,0"/></clipPath><mask id="mask46"><g style="filter:url(#alpha-3)" id="g4890" transform="matrix(0.26458333,0,0,0.26458333,88.611154,119.19859)"><rect style="fill:#000;fill-opacity:.14999402;stroke:none" id="rect4888" width="3052.87" height="3351.5" x="0" y="0"/></g></mask><filter id="filter18556" width="1" height="1" x="0" y="0" filterUnits="objectBoundingBox"><feColorMatrix id="feColorMatrix18554" in="SourceGraphic" type="matrix" values="0 0 0 0 1 0 0 0 0 1 0 0 0 0 1 0 0 0 1 0"/></filter><clipPath id="clipPath18560"><rect id="rect18558" width="22" height="24" x="0" y="0"/></clipPath><clipPath id="clipPath18564"><path id="path18562" d="M 0.0390625,0.0390625 H 21.300781 V 23.421875 H 0.0390625 Z m 0,0"/></clipPath><clipPath id="clip91"><rect id="rect4880" width="29" height="32" x="0" y="0"/></clipPath><clipPath id="clip92"><path id="path4877" d="M 0.507812,0.5 H 28.855469 V 31.679688 H 0.507812 Z m 0,0"/></clipPath><mask id="mask45"><g style="filter:url(#alpha-3)" id="g4874" transform="matrix(0.26458333,0,0,0.26458333,88.611154,119.19859)"><rect style="fill:#000;fill-opacity:.14999402;stroke:none" id="rect4872" width="3052.87" height="3351.5" x="0" y="0"/></g></mask><filter id="filter18575" width="1" height="1" x="0" y="0" filterUnits="objectBoundingBox"><feColorMatrix id="feColorMatrix18573" in="SourceGraphic" type="matrix" values="0 0 0 0 1 0 0 0 0 1 0 0 0 0 1 0 0 0 1 0"/></filter><clipPath id="clipPath18579"><rect id="rect18577" width="29" height="32" x="0" y="0"/></clipPath><clipPath id="clipPath18583"><path id="path18581" d="M 0.507812,0.5 H 28.855469 V 31.679688 H 0.507812 Z m 0,0"/></clipPath><clipPath id="clip202"><rect id="rect5795" width="18" height="18" x="0" y="0"/></clipPath><clipPath id="clip203"><path id="path5792" d="M 0.855469,0.140625 H 17.914062 V 17.199219 H 0.855469 Z m 0,0"/></clipPath><mask id="mask104"><g style="filter:url(#alpha-7)" id="g5789" transform="matrix(0.26458333,0,0,0.26458333,74.416306,97.613551)"><rect style="fill:#000;fill-opacity:.33000201;stroke:none" id="rect5787" width="3052.87" height="3351.5" x="0" y="0"/></g></mask><filter id="alpha-7" width="1" height="1" x="0" y="0" filterUnits="objectBoundingBox"><feColorMatrix id="feColorMatrix4149-5" in="SourceGraphic" type="matrix" values="0 0 0 0 1 0 0 0 0 1 0 0 0 0 1 0 0 0 1 0"/></filter><clipPath id="clipPath18765"><rect id="rect18763" width="18" height="18" x="0" y="0"/></clipPath><clipPath id="clipPath18769"><path id="path18767" d="M 0.855469,0.140625 H 17.914062 V 17.199219 H 0.855469 Z m 0,0"/></clipPath></defs><metadata id="metadata15243"/><g id="layer1" transform="translate(-52.139504,-90.557366)"><path id="path7575" d="m 61.313931,95.144567 c 0,2.533383 -2.053829,4.588039 -4.587214,4.588039 -2.533386,0 -4.587213,-2.054656 -4.587213,-4.588039 0,-2.533386 2.053827,-4.586387 4.587213,-4.586387 2.533385,0 4.587214,2.053001 4.587214,4.586387" style="fill:#000;fill-opacity:1;fill-rule:nonzero;stroke:none;stroke-width:.21166664"/><path id="path7577" d="m 60.356472,95.14498 c 0,2.005048 -1.625535,3.62975 -3.629754,3.62975 -2.004218,0 -3.629752,-1.624702 -3.629752,-3.62975 0,-2.004219 1.625534,-3.628926 3.629752,-3.628926 2.004219,0 3.629754,1.624707 3.629754,3.628926 z m 0,0" style="fill:none;stroke:#636363;stroke-width:.17999999;stroke-linecap:butt;stroke-linejoin:miter;stroke-miterlimit:10;stroke-dasharray:none;stroke-opacity:1"/><path id="path7579" d="m 59.315914,95.145395 c 0,1.429575 -1.159207,2.588781 -2.58961,2.588781 -1.429576,0 -2.588783,-1.159206 -2.588783,-2.588781 0,-1.430403 1.159207,-2.588783 2.588783,-2.588783 1.430403,0 2.58961,1.15838 2.58961,2.588783" style="fill:red;fill-opacity:1;fill-rule:nonzero;stroke:none;stroke-width:.21166664"/><path id="path7581" d="m 57.15005,90.578024 c -0.138906,-0.01323 -0.280293,-0.02066 -0.423333,-0.02066 -0.14304,0 -0.2836,0.0074 -0.423334,0.02066 v 2.104265 h 0.846667 z m 0,0" style="fill:red;fill-opacity:1;fill-rule:nonzero;stroke:none;stroke-width:.21166664"/></g></svg>