<svg xmlns="http://www.w3.org/2000/svg" xmlns:xlink="http://www.w3.org/1999/xlink" style="isolation:isolate" width="13" height="23" viewBox="0 0 13 23"><defs><clipPath id="_clipPath_UlMGThTxHPp8NOrXKNEL02iiC1DtMzQN"><rect width="13" height="23"/></clipPath></defs><g clip-path="url(#_clipPath_UlMGThTxHPp8NOrXKNEL02iiC1DtMzQN)"><path d="M 5.971 0 L 7.029 0 C 10.325 0 13 2.675 13 5.971 L 13 17.029 C 13 20.325 10.325 23 7.029 23 L 5.971 23 C 2.675 23 0 20.325 0 17.029 L 0 5.971 C 0 2.675 2.675 0 5.971 0 Z" style="stroke:none;fill:#000;stroke-miterlimit:10"/><g style="isolation:isolate" id="Cap-up"><g id="Group"><linearGradient id="_lgradient_39" x1="79.167%" x2="19.271%" y1="11.458%" y2="85.937%"><stop offset="0%" stop-opacity="1" style="stop-color:#e8e8e8"/><stop offset="100%" stop-opacity="1" style="stop-color:#5d5d5d"/></linearGradient><path fill="url(#_lgradient_39)" d="M 0.5 7 C 0.5 3.689 3.189 1 6.5 1 C 9.811 1 12.5 3.689 12.5 7 C 12.5 10.311 9.811 13 6.5 13 C 3.189 13 0.5 10.311 0.5 7 Z"/><linearGradient id="_lgradient_40" x1="79.167%" x2="19.271%" y1="11.458%" y2="85.937%"><stop offset="0%" stop-opacity="1" style="stop-color:#d1d1d1"/><stop offset="99.13%" stop-opacity="1" style="stop-color:#8b8b8b"/></linearGradient><path fill="url(#_lgradient_40)" d="M 1.5 7 C 1.5 4.24 3.74 2 6.5 2 C 9.26 2 11.5 4.24 11.5 7 C 11.5 9.76 9.26 12 6.5 12 C 3.74 12 1.5 9.76 1.5 7 Z"/></g></g></g></svg>