<svg xmlns="http://www.w3.org/2000/svg" xmlns:svg="http://www.w3.org/2000/svg" id="svg15246" width="31.58" height="31.58" version="1.1" viewBox="0 0 8.356 8.356"><defs id="defs15240"><clipPath id="clip89"><rect id="rect4864" width="18" height="19" x="0" y="0"/></clipPath><clipPath id="clip90"><path id="path4861" d="m 0.898438,0.128906 h 16.25 v 17.882813 h -16.25 z m 0,0"/></clipPath><mask id="mask44"><g style="filter:url(#alpha)" id="g4858" transform="matrix(0.26458333,0,0,0.26458333,89.358789,128.57765)"><rect style="fill:#000;fill-opacity:.14999402;stroke:none" id="rect4856" width="3052.87" height="3351.5" x="0" y="0"/></g></mask><filter id="alpha" width="1" height="1" x="0" y="0" filterUnits="objectBoundingBox"><feColorMatrix id="feColorMatrix4149" in="SourceGraphic" type="matrix" values="0 0 0 0 1 0 0 0 0 1 0 0 0 0 1 0 0 0 1 0"/></filter><clipPath id="clipPath17821"><rect id="rect17819" width="18" height="19" x="0" y="0"/></clipPath><clipPath id="clipPath17825"><path id="path17823" d="m 0.898438,0.128906 h 16.25 v 17.882813 h -16.25 z m 0,0"/></clipPath><clipPath id="clip87"><rect id="rect4848" width="24" height="26" x="0" y="0"/></clipPath><clipPath id="clip88"><path id="path4845" d="m 0.683594,0.921875 h 22.679687 v 24.9375 H 0.683594 Z m 0,0"/></clipPath><mask id="mask43"><g style="filter:url(#alpha)" id="g4842" transform="matrix(0.26458333,0,0,0.26458333,89.358789,128.57765)"><rect style="fill:#000;fill-opacity:.14999402;stroke:none" id="rect4840" width="3052.87" height="3351.5" x="0" y="0"/></g></mask><filter id="filter17836" width="1" height="1" x="0" y="0" filterUnits="objectBoundingBox"><feColorMatrix id="feColorMatrix17834" in="SourceGraphic" type="matrix" values="0 0 0 0 1 0 0 0 0 1 0 0 0 0 1 0 0 0 1 0"/></filter><clipPath id="clipPath17840"><rect id="rect17838" width="24" height="26" x="0" y="0"/></clipPath><clipPath id="clipPath17844"><path id="path17842" d="m 0.683594,0.921875 h 22.679687 v 24.9375 H 0.683594 Z m 0,0"/></clipPath></defs><metadata id="metadata15243"/><g id="layer1" transform="translate(-88.611154,-119.19859)"><path style="fill:#2b2c2c;fill-opacity:1;fill-rule:nonzero;stroke:#000;stroke-width:.24963233;stroke-miterlimit:4;stroke-dasharray:none;stroke-opacity:1" id="path7255-4" d="m 92.788954,127.42325 c -2.231891,0 -4.046851,-1.81495 -4.046851,-4.04686 0,-2.23188 1.81496,-4.04684 4.046851,-4.04684 2.231888,0 4.046857,1.81496 4.046857,4.04684 0,2.23191 -1.814969,4.04686 -4.046857,4.04686"/><path style="fill:#515454;fill-opacity:1;fill-rule:nonzero;stroke:#000;stroke-width:.63683665;stroke-miterlimit:4;stroke-dasharray:none;stroke-opacity:1" id="path7261-7" d="m 92.788954,125.94111 c -1.414333,0 -2.564701,-1.15038 -2.564701,-2.56472 0,-1.41432 1.150368,-2.56467 2.564701,-2.56467 1.41433,0 2.564685,1.15035 2.564685,2.56467 0,1.41434 -1.150355,2.56472 -2.564685,2.56472"/><path style="fill:#000;fill-opacity:1;fill-rule:nonzero;stroke:none;stroke-width:.35225895" id="path7265-4" d="m 94.586027,123.37639 c 0,0.99212 -0.80497,1.7971 -1.797073,1.7971 -0.992106,0 -1.797076,-0.80498 -1.797076,-1.7971 0,-0.99209 0.80497,-1.79703 1.797076,-1.79703 0.992103,0 1.797073,0.80494 1.797073,1.79703"/></g></svg>