<svg xmlns="http://www.w3.org/2000/svg" xmlns:osb="http://www.openswatchbook.org/uri/2009/osb" xmlns:svg="http://www.w3.org/2000/svg" xmlns:xlink="http://www.w3.org/1999/xlink" id="svg3336" x="0" y="0" baseProfile="tiny" version="1.1" viewBox="0 0 50 50" xml:space="preserve"><g><g id="Layer_2_2_" transform="matrix(1.3051842,0,0,1.3006962,1.7745428,1.9597154)"><rect id="rect3340_1_" width="38.3" height="38.4" x="-1.4" y="-1.5" fill="#E6E6E6"/></g><circle cx="25" cy="25" r="24.8" fill="#B70000"/><path fill="#9C0000" d="M8,12.3L1.9,33.9C5.5,43.2,14.5,49.7,25,49.7c10.5,0,19.5-6.6,23.1-15.8l-6.2-22.1L16.4,27.2L8,12.3z"/><g><path fill="#A80000" d="M14.9,43.2c-2.3-5.1-6-9.6-10.1-12.7c-0.7-0.5-0.9-1.4-0.5-2.1C6.8,23.9,8,18.2,7.9,12.7 c0-0.9,0.5-1.5,1.4-1.7c4.9-1.3,10.2-3.8,14.6-7c0.7-0.5,1.5-0.6,2.2,0c4.4,3.6,9.6,6.1,14.6,7c0.8,0.2,1.4,0.8,1.4,1.7 c-0.1,5.4,1.1,11.1,3.6,15.8c0.4,0.8,0.2,1.6-0.5,2.1c-4.3,3.3-7.9,7.7-10.1,12.7c-0.3,0.8-1.1,1.2-2,0.9 c-5.7-1.5-11.6-1.1-16.2,0C16.1,44.4,15.3,44,14.9,43.2z"/></g><g><path fill="#A80000" d="M14.9,43.2c-2.3-5.1-6-9.6-10.1-12.7c-0.7-0.5-0.9-1.4-0.5-2.1C6.8,23.9,8,18.2,7.9,12.7 c0-0.9,0.5-1.5,1.4-1.7c4.9-1.3,10.2-3.8,14.6-7c0.7-0.5,1.5-0.6,2.2,0c4.4,3.6,9.6,6.1,14.6,7c0.8,0.2,1.4,0.8,1.4,1.7 c-0.1,5.4,1.1,11.1,3.6,15.8c0.4,0.8,0.2,1.6-0.5,2.1c-4.3,3.3-7.9,7.7-10.1,12.7c-0.3,0.8-1.1,1.2-2,0.9 c-5.7-1.5-11.6-1.1-16.2,0C16.1,44.4,15.3,44,14.9,43.2z"/></g><path fill="maroon" d="M14.9,43.2c-2.3-5.1-6-9.6-10.1-12.7c-0.7-0.5-0.9-1.4-0.5-2.1c2.4-4.6,38.8-4.7,41.3,0 c0.4,0.8,0.2,1.6-0.5,2.1c-4.3,3.3-7.9,7.7-10.1,12.7c-0.3,0.8-1.1,1.2-2,0.9c-5.7-1.5-11.6-1.1-16.2,0 C16.1,44.4,15.3,44,14.9,43.2z"/><path fill="maroon" d="M14.9,43.2c-2.3-5.1-6-9.6-10.1-12.7c-0.7-0.5-0.9-1.4-0.5-2.1c2.4-4.6,38.8-4.7,41.3,0 c0.4,0.8,0.2,1.6-0.5,2.1c-4.3,3.3-7.9,7.7-10.1,12.7c-0.3,0.8-1.1,1.2-2,0.9c-5.7-1.5-11.6-1.1-16.2,0 C16.1,44.4,15.3,44,14.9,43.2z"/><g><path fill="#BF1B21" d="M14.9,43.2c-1.7-5.3-5.3-9.9-10.1-12.7c-0.7-0.4-1-1.4-0.5-2.1c3.1-4.6,4.4-10.3,3.6-15.8 c-0.1-0.9,0.5-1.6,1.4-1.7c5.6-0.4,10.8-2.9,14.6-7c0.6-0.6,1.6-0.6,2.2,0c3.8,4.1,9,6.6,14.6,7c0.9,0.1,1.5,0.9,1.4,1.7 c-0.8,5.5,0.5,11.2,3.6,15.8c0.5,0.7,0.3,1.7-0.5,2.1c-4.8,2.8-8.4,7.3-10.1,12.7c-0.3,0.8-1.2,1.3-2,0.9 c-5.7-2.2-11.6-1.8-16.2,0C16.1,44.5,15.2,44.1,14.9,43.2z"/></g><g><path fill="red" d="M14.9,43.2c-1.7-5.3-5.3-9.9-10.1-12.7c-0.7-0.4-1-1.4-0.5-2.1c3.1-4.6,4.4-10.3,3.6-15.8 c-0.1-0.9,0.5-1.6,1.4-1.7c5.6-0.4,10.8-2.9,14.6-7c0.6-0.6,1.6-0.6,2.2,0c3.8,4.1,9,6.6,14.6,7c0.9,0.1,1.5,0.9,1.4,1.7 c-0.8,5.5,0.5,11.2,3.6,15.8c0.5,0.7,0.3,1.7-0.5,2.1c-4.8,2.8-8.4,7.3-10.1,12.7c-0.3,0.8-1.2,1.3-2,0.9 c-5.7-2.2-11.6-1.8-16.2,0C16.1,44.5,15.2,44.1,14.9,43.2z"/></g><g><path fill="#D40000" d="M15.1,43c-1.6-5.2-5.2-9.6-10-12.3c-0.7-0.4-1-1.4-0.5-2.1c3.4-4.5,4.7-9.9,3.6-15.4 c-0.2-0.8,0.5-1.6,1.3-1.7c5.5-0.4,10.6-2.9,14.4-6.8c0.6-0.6,1.6-0.6,2.2,0c3.8,4,8.9,6.4,14.4,6.8c0.9,0.1,1.5,0.8,1.3,1.7 c-0.8,5.4,0.5,10.9,3.6,15.4c0.5,0.7,0.3,1.7-0.5,2.1c-4.8,2.7-8.3,7.1-10,12.3c-0.3,0.8-1.2,1.2-2,0.9c-5.6-2.2-11.4-1.7-16,0 C16.2,44.2,15.3,43.8,15.1,43z"/></g><g><path fill="#CB0000" d="M14.9,43.3C13.3,38,9.7,33.5,4.8,30.8c-0.7-0.4-0.8-2.6-0.3-1.9c8.1,10.7,28.9,13.9,40.9-0.1 c0.6-0.6,0.4,1.5-0.3,1.9c-4.8,2.8-8.4,7.2-10.1,12.5c-0.3,0.8-1.2,1.2-2,0.9c-5.7-2.2-11.6-1.8-16.2,0 C16.1,44.5,15.2,44.1,14.9,43.3z"/></g><path fill="#FFE1EA" d="M25,25L25,25c-0.4,0-0.8-0.3-0.8-0.8V5.1c0-0.4,0.3-0.7,0.8-0.7l0,0c0.4,0,0.8,0.3,0.8,0.7v19.1 C25.8,24.7,25.4,25,25,25z"/></g></svg>