<svg xmlns="http://www.w3.org/2000/svg" xmlns:xlink="http://www.w3.org/1999/xlink" style="isolation:isolate" width="13" height="23" viewBox="0 0 13 23"><defs><clipPath id="_clipPath_mptzmLhXfc7ehbsC37l9VII4orYzaDDk"><rect width="13" height="23"/></clipPath></defs><g clip-path="url(#_clipPath_mptzmLhXfc7ehbsC37l9VII4orYzaDDk)"><path d="M 5.971 0 L 7.029 0 C 10.325 0 13 2.675 13 5.971 L 13 17.029 C 13 20.325 10.325 23 7.029 23 L 5.971 23 C 2.675 23 0 20.325 0 17.029 L 0 5.971 C 0 2.675 2.675 0 5.971 0 Z" style="stroke:none;fill:#000;stroke-miterlimit:10"/><g style="isolation:isolate" id="Cap-down"><g id="Group"><linearGradient id="_lgradient_37" x1="79.167%" x2="19.271%" y1="11.458%" y2="85.937%"><stop offset="0%" stop-opacity="1" style="stop-color:#e8e8e8"/><stop offset="100%" stop-opacity="1" style="stop-color:#5d5d5d"/></linearGradient><path fill="url(#_lgradient_37)" d="M 0.5 16 C 0.5 12.689 3.189 10 6.5 10 C 9.811 10 12.5 12.689 12.5 16 C 12.5 19.311 9.811 22 6.5 22 C 3.189 22 0.5 19.311 0.5 16 Z"/><linearGradient id="_lgradient_38" x1="79.167%" x2="19.271%" y1="11.458%" y2="85.937%"><stop offset="0%" stop-opacity="1" style="stop-color:#d1d1d1"/><stop offset="99.13%" stop-opacity="1" style="stop-color:#8b8b8b"/></linearGradient><path fill="url(#_lgradient_38)" d="M 1.5 16 C 1.5 13.24 3.74 11 6.5 11 C 9.26 11 11.5 13.24 11.5 16 C 11.5 18.76 9.26 21 6.5 21 C 3.74 21 1.5 18.76 1.5 16 Z"/></g></g></g></svg>