<svg xmlns="http://www.w3.org/2000/svg" xmlns:svg="http://www.w3.org/2000/svg" id="svg8" width="90" height="380" version="1.1" viewBox="0 0 90 380"><metadata id="metadata29"/><title id="title2">BlankPanel1</title><g style="fill:#d1dede;fill-opacity:1" id="layer1"><path style="fill:#d1dede;fill-opacity:1" id="rect817" d="M0,0H90V380H0Z" transform="translate(0 0.00002)"/></g><g id="text4528" aria-label="dBiz" transform="rotate(-90)" style="font-style:normal;font-variant:normal;font-weight:400;font-stretch:normal;font-size:132.04801941px;line-height:1.25;font-family:'DejaVu Math TeX Gyre';-inkscape-font-specification:'DejaVu Math TeX Gyre';letter-spacing:0;word-spacing:0;fill:#248e9a;fill-opacity:1;stroke:none;stroke-width:8.25300121"><path id="path825" d="M -345.55386,74.831825 V 41.81982 h -4.1265 v 33.012005 z m -20.6325,12.379502 -8.253,-8.253002 V 37.693319 l 8.253,-8.253001 h 20.6325 V 4.6813145 h 24.75901 V 87.211327 Z" style="font-style:normal;font-variant:normal;font-weight:400;font-stretch:normal;font-family:'High Volume';-inkscape-font-specification:'High Volume';fill:#248e9a;fill-opacity:1;stroke-width:8.25300121"/><path id="path827" d="M -279.52985,37.693319 V 21.187317 h -4.1265 v 16.506002 z m -33.012,49.518008 V 62.452323 h -4.1265 V 4.6813145 h 61.89751 l 8.253,8.2530015 v 24.759003 l -8.253,8.253002 8.253,8.253001 v 4.1265 h -2.06325 v 22.695754 l -2.06325,2.06325 V 66.578824 h -4.1265 v 20.632503 h -2.06326 V 41.81982 h -4.1265 v 45.391507 h -2.06325 V 58.325822 h -4.1265 v 28.885505 h -2.06325 V 50.072821 h -4.1265 v 37.138506 h -2.06325 V 62.452323 h -4.1265 v -8.253001 h -4.1265 v 16.506002 h 4.1265 v 16.506003 h -2.06325 v -8.253002 h -4.1265 v 8.253002 h -2.06325 v -8.253002 h -4.1265 v 8.253002 h -2.06325 V 58.325822 h -4.1265 v 28.885505 h -2.06325 V 45.946321 h -4.1265 v 41.265006 h -2.06325 V 70.705324 h -4.1265 v 16.506003 z" style="font-style:normal;font-variant:normal;font-weight:400;font-stretch:normal;font-family:'High Volume';-inkscape-font-specification:'High Volume';fill:#248e9a;fill-opacity:1;stroke-width:8.25300121"/><path id="path829" d="M -242.39134,87.211327 V 29.440318 h 24.759 v 57.771009 z m 0,-61.897509 V 4.6813145 h 24.759 V 25.313818 Z" style="font-style:normal;font-variant:normal;font-weight:400;font-stretch:normal;font-family:'High Volume';-inkscape-font-specification:'High Volume';fill:#248e9a;fill-opacity:1;stroke-width:8.25300121"/><path id="path831" d="M -213.50584,87.211327 V 58.325822 l 8.253,-8.253001 h 20.6325 V 41.81982 h -4.1265 v 4.126501 h -24.759 v -8.253002 l 8.253,-8.253001 h 45.3915 v 24.759004 l -8.253,8.253001 h -20.6325 v 12.379502 h 4.1265 v -8.253001 h 24.759 v 12.379501 l -8.253,8.253002 z" style="font-style:normal;font-variant:normal;font-weight:400;font-stretch:normal;font-family:'High Volume';-inkscape-font-specification:'High Volume';fill:#248e9a;fill-opacity:1;stroke-width:8.25300121"/></g><flowRoot style="fill:#000;fill-opacity:1;stroke:none;font-family:'DejaVu Math TeX Gyre';font-style:normal;font-weight:400;font-size:16px;line-height:1.25;letter-spacing:0;word-spacing:0;-inkscape-font-specification:'DejaVu Math TeX Gyre';font-stretch:normal;font-variant:normal" id="flowRoot4538" xml:space="preserve"><flowRegion id="flowRegion4540"><rect id="rect4542" width="36.579" height="73.158" x="100.447" y="309.164"/></flowRegion><flowPara id="flowPara4544"/></flowRoot></svg>