<svg xmlns="http://www.w3.org/2000/svg" xmlns:xlink="http://www.w3.org/1999/xlink" style="isolation:isolate" width="32" height="36" viewBox="0 0 32 36"><defs><clipPath id="_clipPath_ZyGaNorBT4ZdsfdKfDPUK9VOUppzsE9B"><rect width="32" height="36"/></clipPath></defs><g clip-path="url(#_clipPath_ZyGaNorBT4ZdsfdKfDPUK9VOUppzsE9B)"><g style="isolation:isolate" id="Nut"><linearGradient id="_lgradient_4" x1="77.708%" x2="25.398%" y1="14.908%" y2="86.488%"><stop offset="0%" stop-opacity="1" style="stop-color:#fff"/><stop offset="98.261%" stop-opacity="1" style="stop-color:#5d5d5d"/></linearGradient><polygon fill="url(#_lgradient_4)" stroke="#000" stroke-linecap="square" stroke-linejoin="miter" stroke-miterlimit="3" stroke-width=".5" points="31 26.571 16.077 35.276 1.077 26.705 1 9.429 15.923 .724 30.923 9.295" vector-effect="non-scaling-stroke"/><linearGradient id="_lgradient_5" x1="83.907%" x2="19.167%" y1="23.615%" y2="72.43%"><stop offset="2.174%" stop-opacity="1" style="stop-color:#d1d1d1"/><stop offset="98.696%" stop-opacity="1" style="stop-color:#747474"/></linearGradient><polygon fill="url(#_lgradient_5)" points="29.5 25.714 16.069 33.548 2.569 25.834 2.5 10.286 15.931 2.452 29.431 10.166"/></g><g style="isolation:isolate" id="Jack"><linearGradient id="_lgradient_6" x1="21.25%" x2="78.75%" y1="77.978%" y2="23%"><stop offset=".87%" stop-opacity="1" style="stop-color:#2e2e2e"/><stop offset="100%" stop-opacity="1" style="stop-color:#747474"/></linearGradient><path fill="url(#_lgradient_6)" stroke="#000" stroke-linecap="square" stroke-linejoin="miter" stroke-miterlimit="3" stroke-width=".5" d="M 3.5 18 C 3.5 11.101 9.101 5.5 16 5.5 C 22.899 5.5 28.5 11.101 28.5 18 C 28.5 24.899 22.899 30.5 16 30.5 C 9.101 30.5 3.5 24.899 3.5 18 Z" vector-effect="non-scaling-stroke"/><path fill="#464646" d="M 6 18 C 6 12.481 10.481 8 16 8 C 21.519 8 26 12.481 26 18 C 26 23.519 21.519 28 16 28 C 10.481 28 6 23.519 6 18 Z"/><linearGradient id="_lgradient_7" x1="21.97%" x2="82.838%" y1="81.396%" y2="20.528%"><stop offset="3.913%" stop-opacity="1" style="stop-color:#5d5d5d"/><stop offset="98.261%" stop-opacity="1" style="stop-color:#2e2e2e"/></linearGradient><path fill="url(#_lgradient_7)" d="M 9.5 18 C 9.5 14.413 12.413 11.5 16 11.5 C 19.587 11.5 22.5 14.413 22.5 18 C 22.5 21.587 19.587 24.5 16 24.5 C 12.413 24.5 9.5 21.587 9.5 18 Z"/></g><path fill="#000" d="M 10.5 18 C 10.5 14.964 12.964 12.5 16 12.5 C 19.036 12.5 21.5 14.964 21.5 18 C 21.5 21.036 19.036 23.5 16 23.5 C 12.964 23.5 10.5 21.036 10.5 18 Z"/></g></svg>