<svg xmlns="http://www.w3.org/2000/svg" xmlns:xlink="http://www.w3.org/1999/xlink" style="isolation:isolate" width="27" height="27" viewBox="0 0 27 27"><defs><clipPath id="_clipPath_dRhNibe5QXyHBNkptVYuuhCTSTRpKCSx"><rect width="27" height="27"/></clipPath></defs><g clip-path="url(#_clipPath_dRhNibe5QXyHBNkptVYuuhCTSTRpKCSx)"><linearGradient id="_lgradient_22" x1="85.598%" x2="13.859%" y1="19.339%" y2="81.312%"><stop offset=".435%" stop-opacity="1" style="stop-color:#e8e8e8"/><stop offset="96.957%" stop-opacity="1" style="stop-color:#464646"/></linearGradient><polygon fill="url(#_lgradient_22)" stroke="#000" stroke-linecap="square" stroke-linejoin="miter" stroke-miterlimit="3" stroke-width=".25" points="24.256 19.947 13.045 26.471 1.789 20.024 1.744 7.053 12.955 .529 24.211 6.976" vector-effect="non-scaling-stroke"/><g style="isolation:isolate" id="Sleeve"><linearGradient id="_lgradient_23" x1="86.667%" x2="17.5%" y1="18.125%" y2="88.542%"><stop offset="0%" stop-opacity="1" style="stop-color:#e8e8e8"/><stop offset="98.261%" stop-opacity="1" style="stop-color:#171717"/></linearGradient><path fill="url(#_lgradient_23)" stroke="#000" stroke-linecap="square" stroke-linejoin="miter" stroke-miterlimit="3" stroke-width=".283" d="M 4.5 13.459 C 4.5 8.768 8.309 4.959 13 4.959 C 17.691 4.959 21.5 8.768 21.5 13.459 C 21.5 18.151 17.691 21.959 13 21.959 C 8.309 21.959 4.5 18.151 4.5 13.459 Z" vector-effect="non-scaling-stroke"/><linearGradient id="_lgradient_24" x1="16.346%" x2="79.327%" y1="84.375%" y2="12.74%"><stop offset="1.304%" stop-opacity="1" style="stop-color:#fff"/><stop offset="98.261%" stop-opacity="1" style="stop-color:#2e2e2e"/></linearGradient><path fill="url(#_lgradient_24)" d="M 6.5 13.459 C 6.5 9.872 9.413 6.959 13 6.959 C 16.587 6.959 19.5 9.872 19.5 13.459 C 19.5 17.047 16.587 19.959 13 19.959 C 9.413 19.959 6.5 17.047 6.5 13.459 Z"/></g><g style="isolation:isolate" id="Hole"><path fill="#000" d="M 7.5 13.459 C 7.5 10.424 9.964 7.959 13 7.959 C 16.036 7.959 18.5 10.424 18.5 13.459 C 18.5 16.495 16.036 18.959 13 18.959 C 9.964 18.959 7.5 16.495 7.5 13.459 Z"/></g></g></svg>