<svg xmlns="http://www.w3.org/2000/svg" xmlns:svg="http://www.w3.org/2000/svg" id="Layer_1" width="42" height="70" x="0" y="0" version="1.1" viewBox="0 0 42 70" xml:space="preserve"><metadata id="metadata30"/><style id="style2" type="text/css"/><path id="line390" d="m 30,12 v 6" style="fill:none;stroke:#000;stroke-width:2;stroke-miterlimit:10;stroke-opacity:1"/><path style="fill:#000;fill-opacity:1" id="rect19" d="M 24,18 H 36 V 30 H 24 Z"/><g style="font-size:10px;font-family:AlteDIN1451Mittelschrift;fill:#fff;fill-opacity:1" id="text21" aria-label="3" transform="translate(27.6001,27.5526)"><path style="font-size:10px;font-family:AlteDIN1451Mittelschrift;fill:#fff;fill-opacity:1" id="path841" d="m 1.7675781,-3.2128906 v -0.8984375 h 0.3515625 q 0.5078125,0 0.8007813,-0.2832031 0.2978515,-0.288086 0.2978515,-0.7275391 0,-0.4345703 -0.3076171,-0.7324219 -0.3076172,-0.2978515 -0.7324219,-0.2978515 -0.3222657,0 -0.6103516,0.2148437 -0.2880859,0.2148438 -0.3710937,0.6445313 H 0.17578125 Q 0.234375,-6.0449219 0.80566406,-6.6064453 1.3769531,-7.1728516 2.1386719,-7.1728516 q 0.9521484,0 1.5234375,0.6298829 0.5761718,0.625 0.5761718,1.4013671 0,0.4101563 -0.1611328,0.8007813 -0.1611328,0.3857422 -0.6005859,0.6689453 0.4492188,0.2880859 0.6445312,0.7080078 0.1953125,0.4199219 0.1953125,0.8496094 0,0.9960937 -0.6249999,1.58691405 -0.625,0.59082031 -1.5332032,0.59082031 -0.7226562,0 -1.30371091,-0.46386719 -0.57617188,-0.46875 -0.71777344,-1.36230467 H 1.1572266 q 0.1416015,0.3662109 0.3808593,0.5908203 0.2392578,0.21972656 0.678711,0.21972656 0.4248047,0 0.7519531,-0.29785156 0.3271484,-0.3027344 0.3271484,-0.8300781 0,-0.5322266 -0.3271484,-0.8300782 -0.3222656,-0.3027343 -0.7714844,-0.3027343 z"/></g><path style="fill:#ff8b00;stroke:#000;stroke-width:.99999994;stroke-miterlimit:4;stroke-dasharray:none;stroke-opacity:1" id="rect85" d="m 24.5,0.5 h 11 v 11 h -11 z"/><g style="font-size:10px;font-family:AlteDIN1451Mittelschrift;stroke-width:1;stroke-miterlimit:4;stroke-dasharray:none" id="text87" aria-label="4" transform="translate(27.6001,9.5526)"><path style="font-size:10px;font-family:AlteDIN1451Mittelschrift;stroke-width:1;stroke-miterlimit:4;stroke-dasharray:none" id="path845" d="M 0.12695312,-1.0498047 V -2.0117188 L 2.5097656,-7.109375 H 3.6474609 L 1.2402344,-2.0117188 H 3.0957031 V -4.0625 h 1.0205078 v 2.0507812 H 4.6875 v 0.9619141 H 4.1162109 V 0.00488281 H 3.0957031 V -1.0498047 Z"/></g><path style="fill:#000;fill-opacity:1" id="rect103" d="M 24,36 H 36 V 48 H 24 Z"/><g style="font-size:10px;font-family:AlteDIN1451Mittelschrift;fill:#fff;fill-opacity:1" id="text105" aria-label="1" transform="translate(28.313,45.5525)"><path style="font-size:10px;font-family:AlteDIN1451Mittelschrift;fill:#fff;fill-opacity:1" id="path849" d="M 1.6796875,0.01953125 V -6.0302734 l -1.015625,0.7421875 v -1.0839844 l 1.015625,-0.7373047 h 1.0253906 v 7.12890625 z"/></g><path style="fill:#000;fill-opacity:1" id="rect157" d="M 6,18 H 18 V 30 H 6 Z"/><g style="font-size:10px;font-family:AlteDIN1451Mittelschrift;fill:#fff;fill-opacity:1" id="text159" aria-label="2" transform="translate(9.6001,27.5526)"><path style="font-size:10px;font-family:AlteDIN1451Mittelschrift;fill:#fff;fill-opacity:1" id="path853" d="M 0.32714844,0.00488281 V -0.95214844 L 3.1103516,-4.4335937 q 0.1611328,-0.2050782 0.2099609,-0.3759766 0.048828,-0.1708984 0.048828,-0.3320313 0,-0.3710937 -0.2636718,-0.6884765 -0.2636719,-0.3222656 -0.7177735,-0.3222656 -0.4150391,0 -0.7128906,0.2783203 -0.2929688,0.2734375 -0.3271485,0.7519531 H 0.32714844 q 0.004883,-0.8642578 0.59082031,-1.4550781 0.58593745,-0.5957032 1.39160155,-0.5957032 0.8886719,0 1.4794922,0.600586 0.5957031,0.5957031 0.5957031,1.4404297 0,0.7226562 -0.4248047,1.25 l -2.290039,2.8710937 h 2.7148437 v 1.01562501 z"/></g><path id="line392" d="m 30,30 v 6" style="fill:none;stroke:#000;stroke-width:2;stroke-miterlimit:10;stroke-opacity:1"/><path id="line394" d="m 12,30 v 3" style="fill:none;stroke:#000;stroke-width:2;stroke-miterlimit:10;stroke-opacity:1"/><g style="fill:#000;fill-opacity:1;stroke:#000;stroke-opacity:0" id="g418"><g style="fill:#000;fill-opacity:1;stroke:#000;stroke-opacity:0" id="g416"><path id="line410" d="m 30,48 v 9.700001" style="fill:#000;fill-opacity:1;stroke:#000;stroke-width:2;stroke-miterlimit:10;stroke-opacity:0"/><g style="fill:#000;fill-opacity:1;stroke:#000;stroke-opacity:0" id="g414"><path id="polygon412" d="m 26.6,53.7 3.4,3.4 3.4,-3.4 v 2.9 L 30,60 26.6,56.6 Z" style="fill:#000;fill-opacity:1;stroke:#000;stroke-opacity:0"/></g></g></g><path id="path862" d="M 10.999331,33 H 30.078413 Z" style="fill:none;stroke:#000;stroke-width:1.99999988;stroke-linecap:butt;stroke-linejoin:miter;stroke-miterlimit:4;stroke-dasharray:none;stroke-opacity:1"/><path style="fill:none;stroke:#000;stroke-width:2;stroke-miterlimit:10;stroke-opacity:1" id="path860" d="m 30,48.000002 v 9.1"/><g id="text839" aria-label="AB" style="font-style:normal;font-variant:normal;font-weight:400;font-stretch:normal;font-size:10.66666698px;line-height:1.25;font-family:'Alte DIN 1451 Mittelschrift';-inkscape-font-specification:'Alte DIN 1451 Mittelschrift';letter-spacing:0;word-spacing:0;fill:#000;fill-opacity:1;stroke:none"><path id="path842" d="m 23.599999,68.494789 2.770834,-7.59375 h 0.947916 l 2.770834,7.59375 h -1.208334 l -0.583333,-1.713542 h -2.880209 l -0.604166,1.713542 z m 2.15625,-2.729167 h 2.197917 q -0.239583,-0.703125 -0.380208,-1.098958 -0.135417,-0.401042 -0.239584,-0.708333 -0.09896,-0.307292 -0.203125,-0.625 -0.104166,-0.317709 -0.276041,-0.859375 -0.182292,0.5625 -0.291667,0.901041 -0.109375,0.333334 -0.213542,0.645834 -0.09896,0.3125 -0.234375,0.697916 -0.130208,0.385417 -0.359375,1.046875 z"/><path id="path844" d="m 31.042708,68.499997 v -7.588541 h 2.942708 q 1.109375,0 1.677083,0.572916 0.572917,0.567709 0.572917,1.463542 0,0.46875 -0.229167,0.901042 -0.229166,0.432291 -0.890625,0.729166 v 0.02083 q 0.625,0.145833 0.932292,0.661458 0.307292,0.510417 0.307292,1.088542 0,0.984375 -0.630209,1.567708 -0.625,0.583333 -1.479166,0.583333 z m 2.921875,-3.369791 h -1.770834 v 2.286458 h 1.770834 q 0.640625,0 0.9375,-0.34375 0.302083,-0.348958 0.302083,-0.796875 0,-0.447917 -0.302083,-0.796875 -0.296875,-0.348958 -0.9375,-0.348958 z m -0.104167,-3.197917 h -1.666667 v 2.177083 h 1.666667 q 0.619792,0 0.921875,-0.317708 0.302083,-0.317708 0.302083,-0.770833 0,-0.4375 -0.302083,-0.760417 -0.302083,-0.328125 -0.921875,-0.328125 z"/></g></svg>