<svg xmlns="http://www.w3.org/2000/svg" xmlns:svg="http://www.w3.org/2000/svg" xmlns:xlink="http://www.w3.org/1999/xlink" id="svg8" width="570" height="380" x="0" style="enable-background:new -177 220.9 570 380" y="0" version="1.1" viewBox="-177 220.9 570 380" xml:space="preserve"><style type="text/css">.st0{fill:#1d1d1d}.st1{fill:#42c5bd}.st2,.st3{fill:none;stroke-miterlimit:10}.st2{stroke:#636363;stroke-width:.3}.st3{stroke:#fff}.st4{fill:#e6e6e6;stroke:#636663;stroke-width:.25}.st5{fill:#fff}.st6{font-family:&apos;AlteDIN1451Mittelschrift&apos;}.st7{font-size:18px}.st8{font-size:12px}.st9{fill:#545454}.st10{fill:none;stroke:#2a2b2a;stroke-width:.25}</style><rect width="570" height="380" x="-177" y="220.9" class="st0"/><g id="layer1_1_" transform="translate(-46.488066,-87.226373)"><path id="path7689_1_" d="M-41.7,368.7c0,11-8.9,19.8-19.8,19.8c-11,0-19.8-8.9-19.8-19.8 c0-11,8.9-19.8,19.8-19.8C-50.6,348.8-41.7,357.7-41.7,368.7"/><path id="path7691_1_" d="M-50.3,368.7c0,6.2-5,11.2-11.2,11.2s-11.2-5-11.2-11.2 s5-11.2,11.2-11.2S-50.3,362.5-50.3,368.7" class="st1"/><path id="path7693_1_" d="M-45.8,368.7c0,8.7-7,15.7-15.7,15.7s-15.7-7-15.7-15.7 s7-15.7,15.7-15.7S-45.8,360-45.8,368.7z" class="st2"/><path id="path7695_1_" d="M-59.7,348.9c-0.6-0.1-1.2-0.1-1.8-0.1 c-0.7,0-1.5,0-2.2,0.1v9h4V348.9z" class="st1"/></g><g id="layer1_2_" transform="translate(-46.488066,-87.226373)"><path id="path7689_2_" d="M-41.7,494.7c0,11-8.9,19.8-19.8,19.8c-11,0-19.8-8.9-19.8-19.8 c0-11,8.9-19.8,19.8-19.8C-50.6,474.8-41.7,483.7-41.7,494.7"/><path id="path7691_2_" d="M-50.3,494.7c0,6.2-5,11.2-11.2,11.2s-11.2-5-11.2-11.2 s5-11.2,11.2-11.2S-50.3,488.5-50.3,494.7" class="st1"/><path id="path7693_2_" d="M-45.8,494.7c0,8.7-7,15.7-15.7,15.7s-15.7-7-15.7-15.7 s7-15.7,15.7-15.7S-45.8,486-45.8,494.7z" class="st2"/><path id="path7695_2_" d="M-59.7,474.9c-0.6-0.1-1.2-0.1-1.8-0.1 c-0.7,0-1.5,0-2.2,0.1v9h4V474.9z" class="st1"/></g><g id="layer1_3_" transform="translate(-46.488066,-87.226373)"><path id="path7689_6_" d="M-41.7,554.7c0,11-8.9,19.8-19.8,19.8c-11,0-19.8-8.9-19.8-19.8 c0-11,8.9-19.8,19.8-19.8C-50.6,534.8-41.7,543.7-41.7,554.7"/><path id="path7691_6_" d="M-50.3,554.7c0,6.2-5,11.2-11.2,11.2s-11.2-5-11.2-11.2 s5-11.2,11.2-11.2S-50.3,548.5-50.3,554.7" class="st1"/><path id="path7693_6_" d="M-45.8,554.7c0,8.7-7,15.7-15.7,15.7s-15.7-7-15.7-15.7 s7-15.7,15.7-15.7S-45.8,546-45.8,554.7z" class="st2"/><path id="path7695_6_" d="M-59.7,534.9c-0.6-0.1-1.2-0.1-1.8-0.1 c-0.7,0-1.5,0-2.2,0.1v9h4V534.9z" class="st1"/></g><g id="layer1_4_" transform="translate(-46.488066,-87.226373)"><path id="path7689_7_" d="M-41.7,614.7c0,11-8.9,19.8-19.8,19.8c-11,0-19.8-8.9-19.8-19.8 c0-11,8.9-19.8,19.8-19.8C-50.6,594.8-41.7,603.7-41.7,614.7"/><path id="path7691_7_" d="M-50.3,614.7c0,6.2-5,11.2-11.2,11.2s-11.2-5-11.2-11.2 s5-11.2,11.2-11.2S-50.3,608.5-50.3,614.7" class="st1"/><path id="path7693_7_" d="M-45.8,614.7c0,8.7-7,15.7-15.7,15.7s-15.7-7-15.7-15.7 s7-15.7,15.7-15.7S-45.8,606-45.8,614.7z" class="st2"/><path id="path7695_7_" d="M-59.7,594.9c-0.6-0.1-1.2-0.1-1.8-0.1 c-0.7,0-1.5,0-2.2,0.1v9h4V594.9z" class="st1"/></g><line x1="393" x2="-177" y1="577.4" y2="577.4" class="st3"/><line x1="393" x2="-177" y1="245.4" y2="245.4" class="st3"/><g id="layer1_17_" transform="translate(-88.611154,-119.19859)"><path id="path7255_3_" d="M-61.4,658.1c-6.3,0-11.5-5.2-11.5-11.5 s5.2-11.5,11.5-11.5s11.5,5.2,11.5,11.5S-55.1,658.1-61.4,658.1" class="st4"/><path id="path7261_3_" d="M-61.4,654.9c-4.6,0-8.3-3.7-8.3-8.3s3.7-8.3,8.3-8.3 s8.3,3.7,8.3,8.3S-56.8,654.9-61.4,654.9" class="st4"/><path id="path7265_3_" d="M-56.3,646.6c0,2.8-2.3,5.1-5.1,5.1s-5.1-2.3-5.1-5.1s2.3-5.1,5.1-5.1 C-58.6,641.5-56.3,643.8-56.3,646.6"/></g><g id="layer1_18_" transform="translate(-88.611154,-119.19859)"><path id="path7255_4_" d="M-61.4,598.1c-6.3,0-11.5-5.2-11.5-11.5 s5.2-11.5,11.5-11.5s11.5,5.2,11.5,11.5S-55.1,598.1-61.4,598.1" class="st4"/><path id="path7261_4_" d="M-61.4,594.9c-4.6,0-8.3-3.7-8.3-8.3s3.7-8.3,8.3-8.3 s8.3,3.7,8.3,8.3S-56.8,594.9-61.4,594.9" class="st4"/><path id="path7265_4_" d="M-56.3,586.6c0,2.8-2.3,5.1-5.1,5.1s-5.1-2.3-5.1-5.1s2.3-5.1,5.1-5.1 C-58.6,581.5-56.3,583.8-56.3,586.6"/></g><g id="layer1_19_" transform="translate(-88.611154,-119.19859)"><path id="path7255_5_" d="M-61.4,538.1c-6.3,0-11.5-5.2-11.5-11.5 s5.2-11.5,11.5-11.5s11.5,5.2,11.5,11.5S-55.1,538.1-61.4,538.1" class="st4"/><path id="path7261_5_" d="M-61.4,534.9c-4.6,0-8.3-3.7-8.3-8.3s3.7-8.3,8.3-8.3 s8.3,3.7,8.3,8.3S-56.8,534.9-61.4,534.9" class="st4"/><path id="path7265_5_" d="M-56.3,526.6c0,2.8-2.3,5.1-5.1,5.1s-5.1-2.3-5.1-5.1s2.3-5.1,5.1-5.1 C-58.6,521.5-56.3,523.8-56.3,526.6"/></g><g id="layer1_20_" transform="translate(-88.611154,-119.19859)"><path id="path7255_6_" d="M-61.4,412.1c-6.3,0-11.5-5.2-11.5-11.5 s5.2-11.5,11.5-11.5s11.5,5.2,11.5,11.5S-55.1,412.1-61.4,412.1" class="st4"/><path id="path7261_6_" d="M-61.4,408.9c-4.6,0-8.3-3.7-8.3-8.3s3.7-8.3,8.3-8.3 s8.3,3.7,8.3,8.3S-56.8,408.9-61.4,408.9" class="st4"/><path id="path7265_6_" d="M-56.3,400.6c0,2.8-2.3,5.1-5.1,5.1s-5.1-2.3-5.1-5.1s2.3-5.1,5.1-5.1 C-58.6,395.5-56.3,397.8-56.3,400.6"/></g><g id="layer1_21_" transform="translate(-88.611154,-119.19859)"><path id="path7255_7_" d="M-61.4,475.1c-6.3,0-11.5-5.2-11.5-11.5 s5.2-11.5,11.5-11.5s11.5,5.2,11.5,11.5S-55.1,475.1-61.4,475.1" class="st4"/><path id="path7261_7_" d="M-61.4,471.9c-4.6,0-8.3-3.7-8.3-8.3s3.7-8.3,8.3-8.3 s8.3,3.7,8.3,8.3S-56.8,471.9-61.4,471.9" class="st4"/><path id="path7265_7_" d="M-56.3,463.6c0,2.8-2.3,5.1-5.1,5.1s-5.1-2.3-5.1-5.1s2.3-5.1,5.1-5.1 S-56.3,460.8-56.3,463.6"/></g><text class="st5 st6 st7" transform="matrix(1 0 0 1 42.8772 237.7121)">Dexter’s Fortress</text><text class="st5 st6 st7" transform="matrix(1 0 0 1 85.4913 594.6263)">Valley</text><text class="st5 st6 st8" transform="matrix(1 0 0 1 -165.2607 440.2652)">Map X</text><text class="st5 st6 st8" transform="matrix(1 0 0 1 -165.0747 500.265)">Map Y</text><text class="st5 st6 st8" transform="matrix(1 0 0 1 -165.3162 561.3003)">Chaos</text><g id="layer1_6_" transform="translate(-74.416306,-97.613551)"><path id="path7751_1_" d="M74.4,654.3c-7.9-0.1-14.3-6.5-14.3-14.3 c0-7.9,6.4-14.3,14.3-14.3s14.3,6.5,14.3,14.3C88.7,647.9,82.3,654.3,74.4,654.3L74.4,654.3z" class="st4"/><path id="path7757_1_" d="M63.8,640c0,5.9,4.7,10.6,10.6,10.6S85,645.8,85,640 c0-5.9-4.8-10.6-10.6-10.6C68.5,629.4,63.8,634.1,63.8,640" class="st9"/><path id="path7759_1_" d="M68.7,640c0,3.1,2.5,5.7,5.7,5.7c3.1,0,5.7-2.5,5.7-5.7 c0-3.1-2.5-5.7-5.7-5.7C71.3,634.3,68.8,636.9,68.7,640"/><path id="path18715_1_" d="M66.3,640c0,4.5,3.6,8.1,8.1,8.1s8.1-3.6,8.1-8.1 s-3.6-8.1-8.1-8.1S66.4,635.5,66.3,640" class="st10"/></g><g id="layer1_13_" transform="translate(-46.488066,-87.226373)"><path id="path7689_3_" d="M429.3,413.2c0,11-8.9,19.8-19.8,19.8c-11,0-19.8-8.9-19.8-19.8 c0-11,8.9-19.8,19.8-19.8C420.4,393.3,429.3,402.2,429.3,413.2"/><path id="path7691_3_" d="M420.7,413.2c0,6.2-5,11.2-11.2,11.2s-11.2-5-11.2-11.2 s5-11.2,11.2-11.2S420.7,407,420.7,413.2" class="st1"/><path id="path7693_3_" d="M425.2,413.2c0,8.7-7,15.7-15.7,15.7s-15.7-7-15.7-15.7 s7-15.7,15.7-15.7S425.2,404.5,425.2,413.2z" class="st2"/><path id="path7695_3_" d="M411.3,393.4c-0.6-0.1-1.2-0.1-1.8-0.1 c-0.7,0-1.5,0-2.2,0.1v9h4V393.4z" class="st1"/></g><g id="layer1_5_" transform="translate(-74.416306,-97.613551)"><path id="path7751" d="M38.4,654.3c-7.9-0.1-14.3-6.5-14.3-14.3 c0-7.9,6.4-14.3,14.3-14.3s14.3,6.5,14.3,14.3C52.7,647.9,46.3,654.3,38.4,654.3L38.4,654.3z" class="st4"/><path id="path7757" d="M27.8,640c0,5.9,4.7,10.6,10.6,10.6S49,645.8,49,640 c0-5.9-4.8-10.6-10.6-10.6C32.5,629.4,27.8,634.1,27.8,640" class="st9"/><path id="path7759" d="M32.7,640c0,3.1,2.5,5.7,5.7,5.7c3.1,0,5.7-2.5,5.7-5.7 c0-3.1-2.5-5.7-5.7-5.7C35.3,634.3,32.8,636.9,32.7,640"/><path id="path18715" d="M30.3,640c0,4.5,3.6,8.1,8.1,8.1s8.1-3.6,8.1-8.1 s-3.6-8.1-8.1-8.1S30.4,635.5,30.3,640" class="st10"/></g><g id="layer1_14_" transform="translate(-46.488066,-87.226373)"><path id="path7689_4_" d="M406.8,476.2c0,11-8.9,19.8-19.8,19.8c-11,0-19.8-8.9-19.8-19.8 c0-11,8.9-19.8,19.8-19.8C397.9,456.3,406.8,465.2,406.8,476.2"/><path id="path7691_4_" d="M398.2,476.2c0,6.2-5,11.2-11.2,11.2s-11.2-5-11.2-11.2 s5-11.2,11.2-11.2S398.2,470,398.2,476.2" class="st1"/><path id="path7693_4_" d="M402.7,476.2c0,8.7-7,15.7-15.7,15.7s-15.7-7-15.7-15.7 s7-15.7,15.7-15.7S402.7,467.5,402.7,476.2z" class="st2"/><path id="path7695_4_" d="M388.8,456.4c-0.6-0.1-1.2-0.1-1.8-0.1 c-0.7,0-1.5,0-2.2,0.1v9h4V456.4z" class="st1"/></g><g id="layer1_15_" transform="translate(-46.488066,-87.226373)"><path id="path7689_5_" d="M384.3,539.2c0,11-8.9,19.8-19.8,19.8c-11,0-19.8-8.9-19.8-19.8 c0-11,8.9-19.8,19.8-19.8C375.4,519.3,384.3,528.2,384.3,539.2"/><path id="path7691_5_" d="M375.7,539.2c0,6.2-5,11.2-11.2,11.2 c-6.2,0-11.2-5-11.2-11.2s5-11.2,11.2-11.2C370.7,528,375.7,533,375.7,539.2" class="st1"/><path id="path7693_5_" d="M380.2,539.2c0,8.7-7,15.7-15.7,15.7 c-8.7,0-15.7-7-15.7-15.7s7-15.7,15.7-15.7C373.2,523.5,380.2,530.5,380.2,539.2z" class="st2"/><path id="path7695_5_" d="M366.3,519.4c-0.6-0.1-1.2-0.1-1.8-0.1 c-0.7,0-1.5,0-2.2,0.1v9h4V519.4z" class="st1"/></g><g id="layer1_25_" transform="translate(-46.488066,-87.226373)"><path id="path7689_11_" d="M339.3,413.2c0,11-8.9,19.8-19.8,19.8c-11,0-19.8-8.9-19.8-19.8 c0-11,8.9-19.8,19.8-19.8C330.4,393.3,339.3,402.2,339.3,413.2"/><path id="path7691_11_" d="M330.7,413.2c0,6.2-5,11.2-11.2,11.2s-11.2-5-11.2-11.2 s5-11.2,11.2-11.2S330.7,407,330.7,413.2" class="st1"/><path id="path7693_11_" d="M335.2,413.2c0,8.7-7,15.7-15.7,15.7s-15.7-7-15.7-15.7 s7-15.7,15.7-15.7S335.2,404.5,335.2,413.2z" class="st2"/><path id="path7695_11_" d="M321.3,393.4c-0.6-0.1-1.2-0.1-1.8-0.1 c-0.7,0-1.5,0-2.2,0.1v9h4V393.4z" class="st1"/></g><g id="layer1_24_" transform="translate(-46.488066,-87.226373)"><path id="path7689_10_" d="M316.8,476.2c0,11-8.9,19.8-19.8,19.8c-11,0-19.8-8.9-19.8-19.8 c0-11,8.9-19.8,19.8-19.8C307.9,456.3,316.8,465.2,316.8,476.2"/><path id="path7691_10_" d="M308.2,476.2c0,6.2-5,11.2-11.2,11.2s-11.2-5-11.2-11.2 s5-11.2,11.2-11.2S308.2,470,308.2,476.2" class="st1"/><path id="path7693_10_" d="M312.7,476.2c0,8.7-7,15.7-15.7,15.7s-15.7-7-15.7-15.7 s7-15.7,15.7-15.7S312.7,467.5,312.7,476.2z" class="st2"/><path id="path7695_10_" d="M298.8,456.4c-0.6-0.1-1.2-0.1-1.8-0.1 c-0.7,0-1.5,0-2.2,0.1v9h4V456.4z" class="st1"/></g><g id="layer1_23_" transform="translate(-46.488066,-87.226373)"><path id="path7689_9_" d="M294.3,539.2c0,11-8.9,19.8-19.8,19.8c-11,0-19.8-8.9-19.8-19.8 c0-11,8.9-19.8,19.8-19.8C285.4,519.3,294.3,528.2,294.3,539.2"/><path id="path7691_9_" d="M285.7,539.2c0,6.2-5,11.2-11.2,11.2 c-6.2,0-11.2-5-11.2-11.2s5-11.2,11.2-11.2C280.7,528,285.7,533,285.7,539.2" class="st1"/><path id="path7693_9_" d="M290.2,539.2c0,8.7-7,15.7-15.7,15.7 c-8.7,0-15.7-7-15.7-15.7s7-15.7,15.7-15.7C283.2,523.5,290.2,530.5,290.2,539.2z" class="st2"/><path id="path7695_9_" d="M276.3,519.4c-0.6-0.1-1.2-0.1-1.8-0.1 c-0.7,0-1.5,0-2.2,0.1v9h4V519.4z" class="st1"/></g><g id="layer1_27_" transform="translate(-46.488066,-87.226373)"><path id="path7689_13_" d="M249.3,413.2c0,11-8.9,19.8-19.8,19.8c-11,0-19.8-8.9-19.8-19.8 c0-11,8.9-19.8,19.8-19.8C240.4,393.3,249.3,402.2,249.3,413.2"/><path id="path7691_13_" d="M240.7,413.2c0,6.2-5,11.2-11.2,11.2s-11.2-5-11.2-11.2 s5-11.2,11.2-11.2S240.7,407,240.7,413.2" class="st1"/><path id="path7693_13_" d="M245.2,413.2c0,8.7-7,15.7-15.7,15.7s-15.7-7-15.7-15.7 s7-15.7,15.7-15.7S245.2,404.5,245.2,413.2z" class="st2"/><path id="path7695_13_" d="M231.3,393.4c-0.6-0.1-1.2-0.1-1.8-0.1 c-0.7,0-1.5,0-2.2,0.1v9h4V393.4z" class="st1"/></g><g id="layer1_26_" transform="translate(-46.488066,-87.226373)"><path id="path7689_12_" d="M226.8,476.2c0,11-8.9,19.8-19.8,19.8c-11,0-19.8-8.9-19.8-19.8 c0-11,8.9-19.8,19.8-19.8C217.9,456.3,226.8,465.2,226.8,476.2"/><path id="path7691_12_" d="M218.2,476.2c0,6.2-5,11.2-11.2,11.2s-11.2-5-11.2-11.2 s5-11.2,11.2-11.2S218.2,470,218.2,476.2" class="st1"/><path id="path7693_12_" d="M222.7,476.2c0,8.7-7,15.7-15.7,15.7s-15.7-7-15.7-15.7 s7-15.7,15.7-15.7S222.7,467.5,222.7,476.2z" class="st2"/><path id="path7695_12_" d="M208.8,456.4c-0.6-0.1-1.2-0.1-1.8-0.1 c-0.7,0-1.5,0-2.2,0.1v9h4V456.4z" class="st1"/></g><g id="layer1_22_" transform="translate(-46.488066,-87.226373)"><path id="path7689_8_" d="M204.3,539.2c0,11-8.9,19.8-19.8,19.8c-11,0-19.8-8.9-19.8-19.8 c0-11,8.9-19.8,19.8-19.8C195.4,519.3,204.3,528.2,204.3,539.2"/><path id="path7691_8_" d="M195.7,539.2c0,6.2-5,11.2-11.2,11.2s-11.2-5-11.2-11.2 s5-11.2,11.2-11.2S195.7,533,195.7,539.2" class="st1"/><path id="path7693_8_" d="M200.2,539.2c0,8.7-7,15.7-15.7,15.7s-15.7-7-15.7-15.7 s7-15.7,15.7-15.7S200.2,530.5,200.2,539.2z" class="st2"/><path id="path7695_8_" d="M186.3,519.4c-0.6-0.1-1.2-0.1-1.8-0.1 c-0.7,0-1.5,0-2.2,0.1v9h4V519.4z" class="st1"/></g><g id="layer1_30_" transform="translate(-46.488066,-87.226373)"><path id="path7689_16_" d="M159.3,413.2c0,11-8.9,19.8-19.8,19.8c-11,0-19.8-8.9-19.8-19.8 c0-11,8.9-19.8,19.8-19.8C150.4,393.3,159.3,402.2,159.3,413.2"/><path id="path7691_16_" d="M150.7,413.2c0,6.2-5,11.2-11.2,11.2s-11.2-5-11.2-11.2 s5-11.2,11.2-11.2S150.7,407,150.7,413.2" class="st1"/><path id="path7693_16_" d="M155.2,413.2c0,8.7-7,15.7-15.7,15.7s-15.7-7-15.7-15.7 s7-15.7,15.7-15.7S155.2,404.5,155.2,413.2z" class="st2"/><path id="path7695_16_" d="M141.3,393.4c-0.6-0.1-1.2-0.1-1.8-0.1 c-0.7,0-1.5,0-2.2,0.1v9h4V393.4z" class="st1"/></g><g id="layer1_29_" transform="translate(-46.488066,-87.226373)"><path id="path7689_15_" d="M136.8,476.2c0,11-8.9,19.8-19.8,19.8c-11,0-19.8-8.9-19.8-19.8 c0-11,8.9-19.8,19.8-19.8C127.9,456.3,136.8,465.2,136.8,476.2"/><path id="path7691_15_" d="M128.2,476.2c0,6.2-5,11.2-11.2,11.2 c-6.2,0-11.2-5-11.2-11.2s5-11.2,11.2-11.2C123.2,465,128.2,470,128.2,476.2" class="st1"/><path id="path7693_15_" d="M132.7,476.2c0,8.7-7,15.7-15.7,15.7s-15.7-7-15.7-15.7 s7-15.7,15.7-15.7S132.7,467.5,132.7,476.2z" class="st2"/><path id="path7695_15_" d="M118.8,456.4c-0.6-0.1-1.2-0.1-1.8-0.1 c-0.7,0-1.5,0-2.2,0.1v9h4V456.4z" class="st1"/></g><g id="layer1_28_" transform="translate(-46.488066,-87.226373)"><path id="path7689_14_" d="M114.3,539.2c0,11-8.9,19.8-19.8,19.8c-11,0-19.8-8.9-19.8-19.8 c0-11,8.9-19.8,19.8-19.8C105.4,519.3,114.3,528.2,114.3,539.2"/><path id="path7691_14_" d="M105.7,539.2c0,6.2-5,11.2-11.2,11.2s-11.2-5-11.2-11.2 s5-11.2,11.2-11.2S105.7,533,105.7,539.2" class="st1"/><path id="path7693_14_" d="M110.2,539.2c0,8.7-7,15.7-15.7,15.7s-15.7-7-15.7-15.7 s7-15.7,15.7-15.7S110.2,530.5,110.2,539.2z" class="st2"/><path id="path7695_14_" d="M96.3,519.4c-0.6-0.1-1.2-0.1-1.8-0.1 c-0.7,0-1.5,0-2.2,0.1v9h4V519.4z" class="st1"/></g><g id="layer1_16_" transform="translate(-88.611154,-119.19859)"><path id="path7255_2_" d="M406.6,681.6c-6.3,0-11.5-5.2-11.5-11.5 s5.2-11.5,11.5-11.5s11.5,5.2,11.5,11.5S412.9,681.6,406.6,681.6" class="st4"/><path id="path7261_2_" d="M406.6,678.4c-4.6,0-8.3-3.7-8.3-8.3s3.7-8.3,8.3-8.3 s8.3,3.7,8.3,8.3S411.2,678.4,406.6,678.4" class="st4"/><path id="path7265_2_" d="M411.7,670.1c0,2.8-2.3,5.1-5.1,5.1s-5.1-2.3-5.1-5.1s2.3-5.1,5.1-5.1 C409.4,665,411.7,667.3,411.7,670.1"/></g><g id="layer1_9_" transform="translate(-88.611154,-119.19859)"><path id="path7255_9_" d="M451.6,681.6c-6.3,0-11.5-5.2-11.5-11.5 s5.2-11.5,11.5-11.5s11.5,5.2,11.5,11.5S457.9,681.6,451.6,681.6" class="st4"/><path id="path7261_9_" d="M451.6,678.4c-4.6,0-8.3-3.7-8.3-8.3s3.7-8.3,8.3-8.3 s8.3,3.7,8.3,8.3S456.2,678.4,451.6,678.4" class="st4"/><path id="path7265_9_" d="M456.7,670.1c0,2.8-2.3,5.1-5.1,5.1s-5.1-2.3-5.1-5.1s2.3-5.1,5.1-5.1 C454.4,665,456.7,667.3,456.7,670.1"/></g><g id="layer1_8_" transform="translate(-88.611154,-119.19859)"><path id="path7255_8_" d="M451.6,396.6c-6.3,0-11.5-5.2-11.5-11.5 s5.2-11.5,11.5-11.5s11.5,5.2,11.5,11.5S457.9,396.6,451.6,396.6" class="st4"/><path id="path7261_8_" d="M451.6,393.4c-4.6,0-8.3-3.7-8.3-8.3s3.7-8.3,8.3-8.3 s8.3,3.7,8.3,8.3S456.2,393.4,451.6,393.4" class="st4"/><path id="path7265_8_" d="M456.7,385.1c0,2.8-2.3,5.1-5.1,5.1s-5.1-2.3-5.1-5.1s2.3-5.1,5.1-5.1 C454.4,380,456.7,382.3,456.7,385.1"/></g><text class="st5 st6 st8" transform="matrix(1 0 0 1 -164.177 377.265)">Reset</text><text class="st5 st6 st8" transform="matrix(1 0 0 1 -76.0987 377.265)">Run</text><text class="st5 st6 st8" transform="matrix(1 0 0 1 349.4794 359.7849)">Wave</text><text class="st5 st6 st8" transform="matrix(1 0 0 1 259.4794 359.7852)">Wave</text><text class="st5 st6 st8" transform="matrix(1 0 0 1 169.4794 359.7849)">Wave</text><text class="st5 st6 st8" transform="matrix(1 0 0 1 79.4794 359.7852)">Wave</text><text class="st5 st6 st8" transform="matrix(1 0 0 1 -163.6555 314.3007)">Clock</text></svg>