<svg xmlns="http://www.w3.org/2000/svg" xmlns:svg="http://www.w3.org/2000/svg" xmlns:xlink="http://www.w3.org/1999/xlink" id="svg10" x="0" y="0" enable-background="new 0 0 18 25" version="1.1" viewBox="0 0 18 25" xml:space="preserve"><path fill="#484C4F" d="M17,25H3.4c-0.6,0-1-0.5-1-1V3.3c0-0.6,0.5-1,1-1H17c0.6,0,1,0.5,1,1V24C18,24.5,17.5,25,17,25z"/><linearGradient id="SVGID_1_" x1="8.829" x2="8.829" y1="12.5" y2=".9" gradientUnits="userSpaceOnUse"><stop offset="0" style="stop-color:#303030"/><stop offset="1" style="stop-color:#262626"/></linearGradient><rect width="15.2" height="11.6" x="1.2" y=".9" fill="url(#SVGID_1_)"/><linearGradient id="SVGID_2_" x1="8.829" x2="8.829" y1="24.1" y2="12.5" gradientTransform="matrix(-1 0 0 -1 17.6583 36.6)" gradientUnits="userSpaceOnUse"><stop offset="0" style="stop-color:#2b2b2b"/><stop offset="1" style="stop-color:#242424"/></linearGradient><rect width="15.2" height="11.6" x="1.2" y="12.5" fill="url(#SVGID_2_)"/><linearGradient id="SVGID_3_" x1="8.781" x2="16.354" y1="12.5" y2="12.5" gradientUnits="userSpaceOnUse"><stop offset="0" style="stop-color:red"/><stop offset="1" style="stop-color:#850000"/></linearGradient><rect width="7.6" height="1.6" x="8.8" y="11.7" fill="url(#SVGID_3_)"/><linearGradient id="SVGID_4_" x1="8.781" x2="16.354" y1="12.5" y2="12.5" gradientTransform="matrix(-1 0 0 -1 17.5625 25)" gradientUnits="userSpaceOnUse"><stop offset="0" style="stop-color:red"/><stop offset="1" style="stop-color:#850000"/></linearGradient><rect width="7.6" height="1.6" x="1.2" y="11.7" fill="url(#SVGID_4_)"/><rect width="15.1" height="1.1" x="1.2" y=".9" fill="#707070"/><rect width="15.1" height="1.1" x="1.2" y="23" fill="#707070"/></svg>