<svg xmlns="http://www.w3.org/2000/svg" xmlns:svg="http://www.w3.org/2000/svg" xmlns:xlink="http://www.w3.org/1999/xlink" id="svg56722" x="0" y="0" enable-background="new 0 0 14 20.6" version="1.1" viewBox="0 0 14 20.6" xml:space="preserve"><g><path fill="#8A8A8A" d="M11.3,17.2h-8c-1.5,0-2.7-1.2-2.7-2.7v-8c0-1.5,1.2-2.7,2.7-2.7h8C12.8,3.8,14,5,14,6.5v8 C14,16,12.8,17.2,11.3,17.2z"/></g><g><path fill="#282828" d="M10.7,16.3h-8c-1.5,0-2.7-1.2-2.7-2.7v-8C0,4.2,1.2,3,2.7,3h8c1.5,0,2.7,1.2,2.7,2.7v8 C13.3,15.1,12.1,16.3,10.7,16.3z"/></g><g><linearGradient id="SVGID_1_" x1="-1097.032" x2="-1085.632" y1="561.661" y2="561.661" gradientTransform="matrix(6.123234e-17 -1 1 6.123234e-17 -554.9612 -1081.7037)" gradientUnits="userSpaceOnUse"><stop offset="0" style="stop-color:#890000"/><stop offset="1" style="stop-color:#400000"/></linearGradient><path fill="url(#SVGID_1_)" d="M12.4,6.2V13c0,1.3-1,2.3-2.3,2.3H3.3C2,15.3,1,14.3,1,13V6.2C1,5,2,3.9,3.3,3.9h6.8 C11.3,3.9,12.4,5,12.4,6.2z"/></g><circle cx="6.7" cy="9.6" r="3.7" fill="#C80000"/><circle cx="6.7" cy="9.6" r="1.7" fill="red"/></svg>