<svg xmlns="http://www.w3.org/2000/svg" xmlns:svg="http://www.w3.org/2000/svg" xmlns:xlink="http://www.w3.org/1999/xlink" id="svg56722" x="0" y="0" enable-background="new 0 0 14 20.6" version="1.1" viewBox="0 0 14 20.6" xml:space="preserve"><g><path fill="#1F1F1F" d="M11.3,16.3h-8c-1.5,0-2.7-1.2-2.7-2.7v-8c0-1.5,1.2-2.7,2.7-2.7h8c1.5,0,2.7,1.2,2.7,2.7v8 C14,15.1,12.8,16.3,11.3,16.3z"/></g><g><path fill="#282828" d="M10.7,15.4h-8c-1.5,0-2.7-1.2-2.7-2.7v-8c0-1.4,1.2-2.6,2.7-2.6h8c1.5,0,2.7,1.2,2.7,2.7v8 C13.3,14.2,12.1,15.4,10.7,15.4z"/></g><g><linearGradient id="SVGID_1_" x1="-1096.132" x2="-1084.732" y1="561.661" y2="561.661" gradientTransform="matrix(6.123234e-17 -1 1 6.123234e-17 -554.9612 -1081.7037)" gradientUnits="userSpaceOnUse"><stop offset="0" style="stop-color:#282828"/><stop offset="1" style="stop-color:#404040"/></linearGradient><path fill="url(#SVGID_1_)" d="M12.4,5.3v6.8c0,1.3-1,2.3-2.3,2.3H3.3c-1.3,0-2.3-1-2.3-2.3V5.3C1,4.1,2,3,3.3,3h6.8 C11.3,3,12.4,4.1,12.4,5.3z"/></g><circle cx="6.7" cy="8.7" r="4.7" fill="#3D3D3D"/><circle cx="6.7" cy="8.7" r="2.5" fill="#474747"/></svg>