<svg xmlns="http://www.w3.org/2000/svg" xmlns:svg="http://www.w3.org/2000/svg" xmlns:xlink="http://www.w3.org/1999/xlink" id="svg1579" x="0" y="0" enable-background="new 0 0 15 104" version="1.1" viewBox="0 0 15 104" xml:space="preserve"><g><rect width="15" height=".9" y="4.2" fill="#889499"/><rect width="15" height=".9" y="13.6" fill="#889499"/><rect width="15" height=".9" y="23.1" fill="#889499"/><rect width="15" height=".9" y="32.6" fill="#889499"/><rect width="15" height=".9" y="42.1" fill="#889499"/><rect width="15" height=".9" y="51.6" fill="#889499"/><rect width="15" height=".9" y="61" fill="#889499"/><rect width="15" height=".9" y="70.5" fill="#889499"/><rect width="15" height=".9" y="80" fill="#889499"/><rect width="15" height=".9" y="89.5" fill="#889499"/><rect width="15" height=".9" y="98.9" fill="#889499"/></g><path fill="#404647" d="M6.7,0h1.5C8.6,0,9,0.4,9,0.8v102.4c0,0.4-0.4,0.8-0.8,0.8H6.7c-0.4,0-0.8-0.4-0.8-0.8V0.8	C5.9,0.4,6.3,0,6.7,0z"/><path fill="#202324" d="M9,103.2L9,103.2l-1.7-0.1c-0.3,0-0.5-0.2-0.5-0.5V0H6.7C6.3,0,5.9,0.4,5.9,0.8v102.4c0,0.4,0.4,0.8,0.8,0.8	h0.1h1.4C8.6,104,9,103.6,9,103.2z"/></svg>