<svg xmlns="http://www.w3.org/2000/svg" xmlns:svg="http://www.w3.org/2000/svg" id="svg111794" width="30.234" height="30.234" version="1.1" viewBox="0 0 8 8"><metadata id="metadata111791"/><g id="layer1" transform="translate(-168.09312,-67.39659)"><path style="fill:#e5e5e5;fill-opacity:1;fill-rule:nonzero;stroke:none;stroke-width:.35277775" id="path110598" d="m 176.09263,71.397045 c 0,2.208995 -1.79006,3.999067 -3.99905,3.999067 -2.20902,0 -4.00046,-1.790072 -4.00046,-3.999067 0,-2.210372 1.79144,-4.000444 4.00046,-4.000444 2.20899,0 3.99905,1.790072 3.99905,4.000444"/><path id="path1667" d="m 175.7619,71.396988 c 0,2.026339 -1.64205,3.668393 -3.66838,3.668393 -2.02637,0 -3.66967,-1.642054 -3.66967,-3.668393 0,-2.027602 1.6433,-3.669656 3.66967,-3.669656 2.02633,0 3.66838,1.642054 3.66838,3.669656" style="fill:#d0d0d0;fill-opacity:1;fill-rule:nonzero;stroke:none;stroke-width:.32360736"/><path style="fill:#e0e0e0;fill-opacity:1;fill-rule:nonzero;stroke:none;stroke-width:.2736012" id="path1669" d="m 175.19493,71.396891 c 0,1.713214 -1.3883,3.101526 -3.10151,3.101526 -1.71324,0 -3.1026,-1.388312 -3.1026,-3.101526 0,-1.714283 1.38936,-3.102595 3.1026,-3.102595 1.71321,0 3.10151,1.388312 3.10151,3.102595"/><path id="path1671" d="m 174.4626,71.396765 c 0,1.308761 -1.06055,2.369322 -2.36931,2.369322 -1.30878,0 -2.37014,-1.060561 -2.37014,-2.369322 0,-1.309578 1.06136,-2.370139 2.37014,-2.370139 1.30876,0 2.36931,1.060561 2.36931,2.370139" style="fill:#e9e9e9;fill-opacity:1;fill-rule:nonzero;stroke:none;stroke-width:.2090098"/><path style="fill:none;stroke:#afafaf;stroke-width:.26458332px;stroke-linecap:butt;stroke-linejoin:miter;stroke-opacity:1" id="path1559" d="m 172.09312,67.396113 v 1.598028"/></g></svg>