<svg xmlns="http://www.w3.org/2000/svg" xmlns:svg="http://www.w3.org/2000/svg" id="svg111794" width="24" height="24" version="1.1" viewBox="0 0 6.35 6.35"><metadata id="metadata111791"/><g id="layer1" transform="translate(-168.09312,-69.046113)"><path style="fill:#7f7f7f;fill-opacity:1;fill-rule:nonzero;stroke:none;stroke-width:.28001738" id="path110598" d="m 174.44273,72.221852 c 0,1.753389 -1.42086,3.17426 -3.17425,3.17426 -1.7534,0 -3.17536,-1.420871 -3.17536,-3.17426 0,-1.754483 1.42196,-3.175352 3.17536,-3.175352 1.75339,0 3.17425,1.420869 3.17425,3.175352"/><path id="path5032" d="m 164.91773,72.221852 c 0,1.753389 -1.42086,3.17426 -3.17425,3.17426 -1.7534,0 -3.17536,-1.420871 -3.17536,-3.17426 0,-1.754483 1.42196,-3.175352 3.17536,-3.175352 1.75339,0 3.17425,1.420869 3.17425,3.175352" style="fill:#7f7f7f;fill-opacity:1;fill-rule:nonzero;stroke:none;stroke-width:.28001738"/><rect id="rect5034" width=".474" height="1.708" x="161.506" y="69.046" style="opacity:1;fill:#050505;fill-opacity:1;stroke:none;stroke-width:.22265849;stroke-linecap:butt;stroke-linejoin:miter;stroke-miterlimit:4;stroke-dasharray:none;stroke-opacity:1;paint-order:stroke fill markers"/><path style="fill:#cbcbcb;fill-opacity:1;fill-rule:nonzero;stroke:none;stroke-width:.18670727" id="path5036" d="m 163.85979,72.221671 c 0,1.169108 -0.94739,2.1165 -2.11649,2.1165 -1.16912,0 -2.11724,-0.947392 -2.11724,-2.1165 0,-1.169838 0.94812,-2.117232 2.11724,-2.117232 1.1691,0 2.11649,0.947394 2.11649,2.117232"/><path id="path5038" d="m 163.22502,72.221561 c 0,0.818538 -0.66329,1.481844 -1.48183,1.481844 -0.81855,0 -1.48236,-0.663306 -1.48236,-1.481844 0,-0.819049 0.66381,-1.482356 1.48236,-1.482356 0.81854,0 1.48183,0.663307 1.48183,1.482356" style="fill:#afafaf;fill-opacity:1;fill-rule:nonzero;stroke:none;stroke-width:.13072099"/><path style="opacity:1;fill:#9a9a9a;fill-opacity:1;stroke:none;stroke-width:.52916664;stroke-linecap:butt;stroke-linejoin:round;stroke-miterlimit:4;stroke-dasharray:none;stroke-opacity:1;paint-order:stroke fill markers" id="path5040" d="m 65.908047,-171.26813 a 3.175,3.175 0 0 1 -1.5875,2.74963 3.175,3.175 0 0 1 -3.175,0 3.175,3.175 0 0 1 -1.587499,-2.74963 l 3.174999,0 z" transform="rotate(90)"/><path style="fill:none;stroke:#d0d0d0;stroke-width:.5291667;stroke-linecap:round;stroke-linejoin:miter;stroke-miterlimit:4;stroke-dasharray:none;stroke-opacity:1" id="path7458" d="M 171.26812,71.16278 V 69.830043"/></g></svg>