<svg xmlns="http://www.w3.org/2000/svg" xmlns:svg="http://www.w3.org/2000/svg" xmlns:xlink="http://www.w3.org/1999/xlink" id="svg8" width="90" height="380" version="1.1" viewBox="0 0 23.813 100.542"><defs id="defs2"><linearGradient id="linearGradient4189"><stop id="stop4191" offset="0" style="stop-color:#fff;stop-opacity:1"/><stop id="stop4193" offset="1" style="stop-color:#000;stop-opacity:0"/></linearGradient><linearGradient id="linearGradient5349"><stop id="stop5351" offset="0" style="stop-color:#fdfdfd;stop-opacity:1"/><stop id="stop5353" offset="1" style="stop-color:#fdfdfd;stop-opacity:1"/></linearGradient><radialGradient id="radialGradient5357" cx="285.494" cy="856.052" r="69.827" fx="285.494" fy="856.052" gradientTransform="matrix(0.42180436,0,0,0.0267339,-107.84563,272.32424)" gradientUnits="userSpaceOnUse" xlink:href="#linearGradient5349"/><linearGradient id="linearGradient4195" x1="268.967" x2="279.915" y1="830.884" y2="832.532" gradientTransform="matrix(0.26458334,0,0,0.26458334,-61.724893,72.473327)" gradientUnits="userSpaceOnUse" xlink:href="#linearGradient4189"/></defs><metadata id="metadata5"/><g id="layer1" transform="translate(0,-196.45832)" style="display:inline"><path style="opacity:1;fill:#000;fill-opacity:1;fill-rule:evenodd;stroke:none;stroke-width:.48607069;stroke-linecap:butt;stroke-linejoin:round;stroke-miterlimit:4;stroke-dasharray:none;stroke-dashoffset:0;stroke-opacity:1;paint-order:normal" id="rect817" d="m 0,196.45831 23.812502,0 0,100.54168 -23.812502,0 z"/><flowRoot style="font-style:normal;font-variant:normal;font-weight:400;font-stretch:normal;font-size:10px;line-height:125%;font-family:'Trajan Pro 3';-inkscape-font-specification:'Trajan Pro 3, ';letter-spacing:0;word-spacing:0;fill:#000;fill-opacity:1;stroke:none;stroke-width:1px;stroke-linecap:butt;stroke-linejoin:miter;stroke-opacity:1" id="flowRoot4136" transform="matrix(0.26458334,0,0,0.26458334,-58.459936,293.81811)" xml:space="preserve"><flowRegion id="flowRegion4138"><rect style="font-style:normal;font-variant:normal;font-weight:400;font-stretch:normal;font-family:'Trajan Pro 3';-inkscape-font-specification:'Trajan Pro 3, '" id="rect4140" width="388.571" height="117.143" x="91.429" y="51.429"/></flowRegion><flowPara id="flowPara4142"/></flowRoot><flowRoot style="font-style:normal;font-weight:400;font-size:10px;line-height:125%;font-family:sans-serif;letter-spacing:0;word-spacing:0;fill:#000;fill-opacity:1;stroke:none;stroke-width:1px;stroke-linecap:butt;stroke-linejoin:miter;stroke-opacity:1" id="flowRoot5341" transform="matrix(0.26458334,0,0,0.26458334,-58.459936,115.92228)" xml:space="preserve"><flowRegion id="flowRegion5343"><rect id="rect5345" width="7.829" height="72.478" x="323.249" y="35.538"/></flowRegion><flowPara id="flowPara5347"/></flowRoot><path style="opacity:1;fill:url(#radialGradient5357);fill-opacity:1;stroke:#8b8b8b;stroke-width:.39687502;stroke-linejoin:miter;stroke-miterlimit:4;stroke-dasharray:none;stroke-opacity:1" id="path5329" d="m 29.619994,295.06553 -17.042827,-0.12503 -14.4172479,0.12503 -0.878732,-3.46985 c 4.8099255,-1.00484 10.7503987,-1.72449 16.1711729,-1.71947 5.715286,0.005 9.886121,0.46573 17.046366,1.84449 z"/><path id="rect5381" d="m -1.8634526,292.12562 c 10.9044131,-1.20984 21.5456696,-0.98968 31.7500026,0.12269 l -0.03339,3.29649 -31.7166126,0 z" style="opacity:1;fill:#000;fill-opacity:1;stroke:none;stroke-width:1.00699997;stroke-linejoin:miter;stroke-miterlimit:4;stroke-dasharray:none;stroke-opacity:1"/><g id="g5348" transform="matrix(0.23844891,0,0,0.23844891,-53.534863,294.10517)"><path style="fill:#000;fill-opacity:1;fill-rule:evenodd;stroke:none;stroke-width:1px;stroke-linecap:butt;stroke-linejoin:miter;stroke-opacity:1" id="path4179" d="m 291.23228,-10.52707 6.43066,-3.03395 5.95249,-0.742 4.22115,0.51115 5.88653,2.16005 4.68284,4.36955 z"/><g id="layer2-0" transform="translate(109.83831,-148.57805)"><g id="layer2-5" transform="matrix(0.09824765,0,0,0.06980857,176.35705,132.53479)" style="stroke:#fff;stroke-opacity:1"><g id="g2852" style="stroke:#fff;stroke-opacity:1"><path style="color:#000;fill:none;stroke:#fff;stroke-width:2.89188218;stroke-linejoin:bevel;stroke-miterlimit:4;stroke-dasharray:none;stroke-opacity:1" id="path3614" d="m 2.1174,188.81 18.113,36.226 65.551,31.913 90.564,13.8 94.877,-11.213 60.376,-31.913 14.663,-30.188 -14.663,-37.951 0.32345,67.923 -33.099,-64.473 -25.876,96.602 -58.651,-80.214 -40.538,91.427 -40.538,-75.902 -46.576,61.239 -17.098,-92.852 -49.316,62.663 6.0376,-89.702 44.241,27.296 63.574,32.218 79.999,-16.819 86.467,-15.957 31.051,-3.6657 -33.27949,-62.050611 1.366,64.853611 -64.689,-74.392 -20.7,91.427 -69.001,-66.198 -75.902,50.026 15.35717,-82.554584 -59.34617,55.816584 24.151,-56.064 34.501,0 81.077,-37.088 -18.975,69.864 89.702,-24.151 62.101,7.7627 -66.314,-54.334 4.2124,46.571 -70.726,-45.713 66.414,-1.725 -53.476,-15.525 -12.938,16.388 -49.164,-6.9001 -66.414,44.851 -33.333,49.416 9.1828,6.6475 -23.288,52.614 z"/><path style="color:#000;fill:none;stroke:#fff;stroke-width:2.89188218;stroke-linejoin:bevel;stroke-miterlimit:4;stroke-dasharray:none;stroke-opacity:1" id="path3616" d="M 133.17,195.51 146.16,114.634 84.75317,79.116604 116.834,34.42 l 28.463,-4.3126 32.776,-5.1751 41.401,6.9001 12.938,10.35 47.438,20.7 18.975,34.501 30.188,30.188 2.8032,31.913"/><path style="color:#000;fill:none;stroke:#fff;stroke-width:2;stroke-linejoin:bevel;stroke-opacity:1" id="path3618" d="M 329.01,126.71 279.85,62.88 220.08,31.83"/><path style="color:#000;fill:none;stroke:#fff;stroke-width:2;stroke-linejoin:bevel;stroke-opacity:1" id="path3620" d="M 1.9262189,188.1862 16.108581,129.83899"/></g></g></g><path style="fill:none;fill-rule:evenodd;stroke:#fff;stroke-width:.2;stroke-linecap:butt;stroke-linejoin:miter;stroke-miterlimit:4;stroke-dasharray:none;stroke-opacity:1" id="path4177" d="m 320.18675,-2.24965 -1.66538,-4.93018"/><ellipse style="opacity:0;fill:#000;fill-opacity:1;stroke:none;stroke-width:.2;stroke-miterlimit:4;stroke-dasharray:none;stroke-opacity:1" id="path4183" cx="308.892" cy="-.403" rx="12.103" ry="4.221"/></g><ellipse id="path4187" cx="9.535" cy="292.748" rx="2.801" ry="1.012" style="opacity:0;fill:url(#linearGradient4195);fill-opacity:1;stroke:none;stroke-width:.2;stroke-miterlimit:4;stroke-dasharray:none;stroke-opacity:1"/><path id="path4209" d="m 0.9628875,292.21929 3.148468,-1.34092 1.3291208,0.4179 1.1077655,-0.7832 2.2155227,0.29151 0.932852,-0.34981 3.0239315,0.97939 -1.041619,0.47818 -9.5034349,0.29152 z" style="fill:#000;fill-opacity:1;fill-rule:evenodd;stroke:none;stroke-width:1px;stroke-linecap:butt;stroke-linejoin:miter;stroke-opacity:1"/><g style="font-size:1.98437524px;opacity:1;fill:#fff;fill-opacity:1;stroke:none;stroke-width:.2;stroke-miterlimit:10;stroke-dasharray:none;stroke-opacity:1" id="text6429"><path id="path6460" d="m 2.8350986,295.53399 0,0.16859 q -0.075577,-0.0387 -0.1569672,-0.0581 -0.08139,-0.0194 -0.1685944,-0.0194 -0.1327438,0 -0.1996002,0.0407 -0.065888,0.0407 -0.065888,0.12209 0,0.062 0.047478,0.0979 0.047478,0.0349 0.1908798,0.0669 l 0.061043,0.0136 q 0.1899109,0.0407 0.2693634,0.11531 0.080421,0.0736 0.080421,0.20638 0,0.15115 -0.1201477,0.23933 -0.1191788,0.0882 -0.3284684,0.0882 -0.087204,0 -0.1821594,-0.0174 -0.093987,-0.0165 -0.1986313,-0.0504 l 0,-0.18409 q 0.098831,0.0514 0.1947555,0.0775 0.095924,0.0252 0.189911,0.0252 0.1259613,0 0.1937866,-0.0426 0.067825,-0.0436 0.067825,-0.12209 0,-0.0727 -0.049416,-0.11142 -0.048447,-0.0388 -0.2141342,-0.0746 l -0.062012,-0.0145 q -0.1656876,-0.0349 -0.2393265,-0.10658 -0.073639,-0.0727 -0.073639,-0.19863 0,-0.15309 0.1085206,-0.23642 0.1085205,-0.0833 0.3081207,-0.0833 0.098831,0 0.1860352,0.0145 0.087204,0.0145 0.1608429,0.0436 z"/><path id="path6462" d="m 4.8621069,295.62701 q -0.1434021,0 -0.2267304,0.11239 -0.083328,0.11143 -0.083328,0.30619 0,0.19475 0.082359,0.30715 0.083328,0.11142 0.2276993,0.11142 0.1424332,0 0.2257614,-0.11239 0.083328,-0.1124 0.083328,-0.30618 0,-0.19282 -0.083328,-0.30522 -0.083328,-0.11336 -0.2257614,-0.11336 z m 0,-0.15116 q 0.2325439,0 0.3652878,0.15116 0.1327438,0.15115 0.1327438,0.41858 0,0.26645 -0.1327438,0.41857 -0.1327439,0.15116 -0.3652878,0.15116 -0.2335129,0 -0.3662568,-0.15116 -0.1317749,-0.15212 -0.1317749,-0.41857 0,-0.26743 0.1317749,-0.41858 0.1327439,-0.15116 0.3662568,-0.15116 z"/><path id="path6464" d="m 6.8997734,296.15895 0,-0.65694 0.1782837,0 0,0.65016 q 0,0.15406 0.060074,0.23157 0.060074,0.0765 0.1802215,0.0765 0.1443711,0 0.2276993,-0.092 0.084297,-0.0921 0.084297,-0.25095 l 0,-0.61528 0.1782837,0 0,1.08521 -0.1782837,0 0,-0.16666 q -0.064919,0.0988 -0.1511536,0.14728 -0.085266,0.0475 -0.1986313,0.0475 -0.1870041,0 -0.2838974,-0.11627 -0.096893,-0.11628 -0.096893,-0.3401 z"/><path id="path6466" d="m 9.6176312,295.19389 0,0.30812 0.3672257,0 0,0.13856 -0.3672257,0 0,0.58911 q 0,0.13275 0.035851,0.17054 0.036819,0.0378 0.1482468,0.0378 l 0.1831283,0 0,0.14922 -0.1831283,0 q -0.2063828,0 -0.2848664,-0.0765 -0.078484,-0.0775 -0.078484,-0.28099 l 0,-0.58911 -0.130806,0 0,-0.13856 0.130806,0 0,-0.30812 0.1792526,0 z"/><path id="path6468" d="m 12.385873,295.93222 0,0.655 -0.178284,0 0,-0.64919 q 0,-0.15406 -0.06007,-0.2306 -0.06007,-0.0765 -0.180222,-0.0765 -0.144371,0 -0.227699,0.0921 -0.08333,0.092 -0.08333,0.25095 l 0,0.61334 -0.179252,0 0,-1.50766 0.179252,0 0,0.59105 q 0.06395,-0.0979 0.150185,-0.14631 0.0872,-0.0485 0.200569,-0.0485 0.187004,0 0.282929,0.11627 0.09592,0.11531 0.09592,0.3401 z"/><path id="path6470" d="m 14.179368,296.42444 0,0.57554 -0.179252,0 0,-1.49797 0.179252,0 0,0.16472 q 0.0562,-0.0969 0.141465,-0.1434 0.08624,-0.0475 0.205413,-0.0475 0.197663,0 0.320717,0.15697 0.124024,0.15697 0.124024,0.41277 0,0.25579 -0.124024,0.41276 -0.123054,0.15697 -0.320717,0.15697 -0.119178,0 -0.205413,-0.0465 -0.08527,-0.0475 -0.141465,-0.14437 z m 0.606552,-0.37885 q 0,-0.1967 -0.08139,-0.30813 -0.08042,-0.11239 -0.221886,-0.11239 -0.141464,0 -0.222854,0.11239 -0.08042,0.11143 -0.08042,0.30813 0,0.19669 0.08042,0.30909 0.08139,0.11142 0.222854,0.11142 0.141465,0 0.221886,-0.11142 0.08139,-0.1124 0.08139,-0.30909 z"/><path id="path6472" d="m 16.950518,295.62701 q -0.143402,0 -0.22673,0.11239 -0.08333,0.11143 -0.08333,0.30619 0,0.19475 0.08236,0.30715 0.08333,0.11142 0.227699,0.11142 0.142433,0 0.225761,-0.11239 0.08333,-0.1124 0.08333,-0.30618 0,-0.19282 -0.08333,-0.30522 -0.08333,-0.11336 -0.225761,-0.11336 z m 0,-0.15116 q 0.232544,0 0.365288,0.15116 0.132744,0.15115 0.132744,0.41858 0,0.26645 -0.132744,0.41857 -0.132744,0.15116 -0.365288,0.15116 -0.233513,0 -0.366257,-0.15116 -0.131775,-0.15212 -0.131775,-0.41857 0,-0.26743 0.131775,-0.41858 0.132744,-0.15116 0.366257,-0.15116 z"/><path id="path6474" d="m 19.006594,295.07956 0.178284,0 0,1.50766 -0.178284,0 0,-1.50766 z"/><path id="path6476" d="m 21.748675,296.00005 0,0.0872 -0.819718,0 q 0.01163,0.1841 0.110459,0.28099 0.0998,0.0959 0.277115,0.0959 0.102706,0 0.198631,-0.0252 0.09689,-0.0252 0.191849,-0.0756 l 0,0.16859 q -0.09593,0.0407 -0.196694,0.062 -0.100769,0.0213 -0.204445,0.0213 -0.259674,0 -0.411796,-0.15116 -0.151154,-0.15115 -0.151154,-0.40889 0,-0.26645 0.143402,-0.42245 0.144371,-0.15697 0.388542,-0.15697 0.218979,0 0.34591,0.14147 0.127899,0.14049 0.127899,0.38273 z m -0.178284,-0.0523 q -0.0019,-0.14631 -0.08236,-0.23351 -0.07945,-0.0872 -0.211228,-0.0872 -0.149215,0 -0.239326,0.0843 -0.08914,0.0843 -0.102707,0.23739 l 0.63562,-9.7e-4 z"/></g><flowRoot id="flowRoot6030" xml:space="preserve" style="font-size:7.5px;opacity:1;fill:#fff;fill-opacity:1;stroke:#9f9f9f;stroke-width:1.77165353;stroke-miterlimit:4;stroke-dasharray:none;stroke-opacity:1"><flowRegion id="flowRegion6032"><rect id="rect6034" width="7.916" height="17.99" x="-7.916" y="209.815"/></flowRegion><flowPara id="flowPara6036"/></flowRoot><path style="fill:none;fill-rule:evenodd;stroke:#606060;stroke-width:.52916674;stroke-linecap:butt;stroke-linejoin:miter;stroke-miterlimit:4;stroke-dasharray:none;stroke-opacity:1" id="path6512" d="m 0,226.65074 23.812502,0"/><path style="fill:none;fill-rule:evenodd;stroke:#606060;stroke-width:.52916674;stroke-linecap:butt;stroke-linejoin:miter;stroke-miterlimit:4;stroke-dasharray:none;stroke-opacity:1" id="path6514" d="m 0,247.74163 23.812502,0"/><path style="fill:none;fill-rule:evenodd;stroke:#606060;stroke-width:.52916674;stroke-linecap:butt;stroke-linejoin:miter;stroke-miterlimit:4;stroke-dasharray:none;stroke-opacity:1" id="path6516" d="m 0,267.73138 23.812502,0"/><g style="font-size:2.64583373px;opacity:1;fill:#fff;fill-opacity:1;stroke:none;stroke-width:.05291667;stroke-miterlimit:4;stroke-dasharray:none;stroke-opacity:1" id="text6536" transform="translate(2.1166668,0)"><path style="font-size:2.64583373px;fill:#fff;fill-opacity:1;stroke:none;stroke-width:.05291667;stroke-miterlimit:4;stroke-dasharray:none" id="path6648" d="m 1.7633636,214.97071 0.2609661,0 0,1.92883 -0.2609661,0 0,-1.92883 z"/><path style="font-size:2.64583373px;fill:#fff;fill-opacity:1;stroke:none;stroke-width:.05291667;stroke-miterlimit:4;stroke-dasharray:none" id="path6650" d="m 2.5436779,214.97071 0.3513998,0 0.8552451,1.6136 0,-1.6136 0.2532145,0 0,1.92883 -0.3513998,0 -0.855245,-1.6136 0,1.6136 -0.2532146,0 0,-1.92883 z"/></g><g style="font-size:2.64583373px;opacity:1;fill:#fff;fill-opacity:1;stroke:none;stroke-width:.2;stroke-miterlimit:4;stroke-dasharray:none;stroke-opacity:1" id="text6540" transform="translate(2.1166668,0)"><path id="path6643" d="m 1.7633636,235.74374 0.2609661,0 0,1.92882 -0.2609661,0 0,-1.92882 z"/><path id="path6645" d="m 2.5436779,235.74374 0.3513998,0 0.8552451,1.6136 0,-1.6136 0.2532145,0 0,1.92882 -0.3513998,0 -0.855245,-1.6136 0,1.6136 -0.2532146,0 0,-1.92882 z"/></g><g style="font-size:2.64583373px;opacity:1;fill:#fff;fill-opacity:1;stroke:none;stroke-width:.2;stroke-miterlimit:4;stroke-dasharray:none;stroke-opacity:1" id="text6544" transform="translate(2.1166668,0.52916675)"><path id="path6638" d="m 1.7633636,255.45848 0.2609661,0 0,1.92882 -0.2609661,0 0,-1.92882 z"/><path id="path6640" d="m 2.5436779,255.45848 0.3513998,0 0.8552451,1.61359 0,-1.61359 0.2532145,0 0,1.92882 -0.3513998,0 -0.855245,-1.6136 0,1.6136 -0.2532146,0 0,-1.92882 z"/></g><g style="font-size:2.64583373px;opacity:1;fill:#fff;fill-opacity:1;stroke:none;stroke-width:.2;stroke-miterlimit:4;stroke-dasharray:none;stroke-opacity:1" id="text6548" transform="translate(2.1166668,1.0583335)"><path id="path6633" d="m 1.7633636,275.70234 0.2609661,0 0,1.92882 -0.2609661,0 0,-1.92882 z"/><path id="path6635" d="m 2.5436779,275.70234 0.3513998,0 0.8552451,1.6136 0,-1.6136 0.2532145,0 0,1.92882 -0.3513998,0 -0.855245,-1.61359 0,1.61359 -0.2532146,0 0,-1.92882 z"/></g><g style="font-size:2.64583373px;opacity:1;fill:#fff;fill-opacity:1;stroke:none;stroke-width:.2;stroke-miterlimit:4;stroke-dasharray:none;stroke-opacity:1" id="text6552" transform="translate(1.5875001,-0.52916675)"><path id="path6628" d="m 8.5858732,223.30652 0,0.27518 q -0.1317749,-0.12273 -0.2816366,-0.18345 -0.1485697,-0.0607 -0.3165182,-0.0607 -0.3307292,0 -0.5064291,0.20283 -0.1756999,0.20154 -0.1756999,0.58394 0,0.38112 0.1756999,0.58395 0.1756999,0.20153 0.5064291,0.20153 0.1679485,0 0.3165182,-0.0607 0.1498617,-0.0607 0.2816366,-0.18346 l 0,0.2726 q -0.1369425,0.093 -0.29068,0.13952 -0.1524454,0.0465 -0.3229777,0.0465 -0.4379578,0 -0.6898805,-0.26742 -0.2519226,-0.26872 -0.2519226,-0.73252 0,-0.46508 0.2519226,-0.73251 0.2519227,-0.26872 0.6898805,-0.26872 0.1731161,0 0.3255616,0.0465 0.1537374,0.0452 0.2880961,0.13694 z"/><path id="path6630" d="m 9.4889191,225.08678 -0.7363893,-1.92883 0.2725932,0 0.6110739,1.62394 0.6123661,-1.62394 0.271301,0 -0.7350973,1.92883 -0.2958476,0 z"/></g><g style="font-size:2.64583373px;opacity:1;fill:#fff;fill-opacity:1;stroke:none;stroke-width:.2;stroke-miterlimit:4;stroke-dasharray:none;stroke-opacity:1" id="text6556" transform="translate(1.5875001,-0.52916675)"><path id="path6623" d="m 8.5858732,244.57319 0,0.27517 q -0.1317749,-0.12273 -0.2816366,-0.18345 -0.1485697,-0.0607 -0.3165182,-0.0607 -0.3307292,0 -0.5064291,0.20283 -0.1756999,0.20154 -0.1756999,0.58395 0,0.38111 0.1756999,0.58394 0.1756999,0.20154 0.5064291,0.20154 0.1679485,0 0.3165182,-0.0607 0.1498617,-0.0607 0.2816366,-0.18345 l 0,0.27259 q -0.1369425,0.093 -0.29068,0.13953 -0.1524454,0.0465 -0.3229777,0.0465 -0.4379578,0 -0.6898805,-0.26742 -0.2519226,-0.26872 -0.2519226,-0.73251 0,-0.46509 0.2519226,-0.73252 0.2519227,-0.26872 0.6898805,-0.26872 0.1731161,0 0.3255616,0.0465 0.1537374,0.0452 0.2880961,0.13695 z"/><path id="path6625" d="m 9.4889191,246.35344 -0.7363893,-1.92882 0.2725932,0 0.6110739,1.62393 0.6123661,-1.62393 0.271301,0 -0.7350973,1.92882 -0.2958476,0 z"/></g><g style="font-size:2.64583373px;opacity:1;fill:#fff;fill-opacity:1;stroke:none;stroke-width:.2;stroke-miterlimit:4;stroke-dasharray:none;stroke-opacity:1" id="text6560" transform="translate(1.5875001,-0.52916675)"><path id="path6618" d="m 8.5858732,264.78164 0,0.27517 q -0.1317749,-0.12273 -0.2816366,-0.18345 -0.1485697,-0.0607 -0.3165182,-0.0607 -0.3307292,0 -0.5064291,0.20283 -0.1756999,0.20154 -0.1756999,0.58395 0,0.38111 0.1756999,0.58394 0.1756999,0.20154 0.5064291,0.20154 0.1679485,0 0.3165182,-0.0607 0.1498617,-0.0607 0.2816366,-0.18345 l 0,0.27259 q -0.1369425,0.093 -0.29068,0.13953 -0.1524454,0.0465 -0.3229777,0.0465 -0.4379578,0 -0.6898805,-0.26743 -0.2519226,-0.26872 -0.2519226,-0.73251 0,-0.46509 0.2519226,-0.73252 0.2519227,-0.26872 0.6898805,-0.26872 0.1731161,0 0.3255616,0.0465 0.1537374,0.0452 0.2880961,0.13695 z"/><path id="path6620" d="m 9.4889191,266.56189 -0.7363893,-1.92882 0.2725932,0 0.6110739,1.62393 0.6123661,-1.62393 0.271301,0 -0.7350973,1.92882 -0.2958476,0 z"/></g><g style="font-size:2.64583373px;opacity:1;fill:#fff;fill-opacity:1;stroke:none;stroke-width:.2;stroke-miterlimit:4;stroke-dasharray:none;stroke-opacity:1" id="text6564" transform="translate(1.5875001,1.0583335)"><path id="path6613" d="m 8.5858732,283.40249 0,0.27517 q -0.1317749,-0.12273 -0.2816366,-0.18345 -0.1485697,-0.0607 -0.3165182,-0.0607 -0.3307292,0 -0.5064291,0.20283 -0.1756999,0.20154 -0.1756999,0.58395 0,0.38111 0.1756999,0.58394 0.1756999,0.20154 0.5064291,0.20154 0.1679485,0 0.3165182,-0.0607 0.1498617,-0.0607 0.2816366,-0.18345 l 0,0.27259 q -0.1369425,0.093 -0.29068,0.13953 -0.1524454,0.0465 -0.3229777,0.0465 -0.4379578,0 -0.6898805,-0.26742 -0.2519226,-0.26872 -0.2519226,-0.73251 0,-0.46509 0.2519226,-0.73252 0.2519227,-0.26872 0.6898805,-0.26872 0.1731161,0 0.3255616,0.0465 0.1537374,0.0452 0.2880961,0.13695 z"/><path id="path6615" d="m 9.4889191,285.18274 -0.7363893,-1.92882 0.2725932,0 0.6110739,1.62393 0.6123661,-1.62393 0.271301,0 -0.7350973,1.92882 -0.2958476,0 z"/></g><g style="font-size:2.64583373px;opacity:1;fill:#fff;fill-opacity:1;stroke:none;stroke-width:.2;stroke-miterlimit:4;stroke-dasharray:none;stroke-opacity:1" id="text6568"><path id="path6606" d="m 17.876496,215.18259 q -0.284221,0 -0.452169,0.21187 -0.166657,0.21187 -0.166657,0.57748 0,0.36432 0.166657,0.5762 0.167948,0.21187 0.452169,0.21187 0.28422,0 0.449585,-0.21187 0.166656,-0.21188 0.166656,-0.5762 0,-0.36561 -0.166656,-0.57748 -0.165365,-0.21187 -0.449585,-0.21187 z m 0,-0.21188 q 0.40566,0 0.648539,0.2726 0.242879,0.2713 0.242879,0.72863 0,0.45605 -0.242879,0.72864 -0.242879,0.2713 -0.648539,0.2713 -0.406952,0 -0.651124,-0.2713 -0.242879,-0.2713 -0.242879,-0.72864 0,-0.45733 0.242879,-0.72863 0.244172,-0.2726 0.651124,-0.2726 z"/><path id="path6608" d="m 19.146444,215.00559 0.262258,0 0,1.17177 q 0,0.31006 0.112396,0.447 0.112396,0.13565 0.364319,0.13565 0.250631,0 0.363027,-0.13565 0.112396,-0.13694 0.112396,-0.447 l 0,-1.17177 0.262258,0 0,1.20407 q 0,0.37723 -0.187327,0.56973 -0.186035,0.19249 -0.550354,0.19249 -0.365611,0 -0.552938,-0.19249 -0.186035,-0.1925 -0.186035,-0.56973 l 0,-1.20407 z"/><path id="path6610" d="m 20.846599,215.00559 1.631683,0 0,0.21963 -0.684713,0 0,1.7092 -0.262258,0 0,-1.7092 -0.684712,0 0,-0.21963 z"/></g><g style="font-size:2.64583373px;opacity:1;fill:#fff;fill-opacity:1;stroke:none;stroke-width:.2;stroke-miterlimit:4;stroke-dasharray:none;stroke-opacity:1" id="text6572"><path id="path6599" d="m 17.876496,235.95561 q -0.284221,0 -0.452169,0.21188 -0.166657,0.21187 -0.166657,0.57748 0,0.36432 0.166657,0.57619 0.167948,0.21188 0.452169,0.21188 0.28422,0 0.449585,-0.21188 0.166656,-0.21187 0.166656,-0.57619 0,-0.36561 -0.166656,-0.57748 -0.165365,-0.21188 -0.449585,-0.21188 z m 0,-0.21187 q 0.40566,0 0.648539,0.27259 0.242879,0.2713 0.242879,0.72864 0,0.45604 -0.242879,0.72864 -0.242879,0.2713 -0.648539,0.2713 -0.406952,0 -0.651124,-0.2713 -0.242879,-0.2713 -0.242879,-0.72864 0,-0.45734 0.242879,-0.72864 0.244172,-0.27259 0.651124,-0.27259 z"/><path id="path6601" d="m 19.146444,235.77862 0.262258,0 0,1.17176 q 0,0.31006 0.112396,0.447 0.112396,0.13566 0.364319,0.13566 0.250631,0 0.363027,-0.13566 0.112396,-0.13694 0.112396,-0.447 l 0,-1.17176 0.262258,0 0,1.20406 q 0,0.37724 -0.187327,0.56973 -0.186035,0.1925 -0.550354,0.1925 -0.365611,0 -0.552938,-0.1925 -0.186035,-0.19249 -0.186035,-0.56973 l 0,-1.20406 z"/><path id="path6603" d="m 20.846599,235.77862 1.631683,0 0,0.21962 -0.684713,0 0,1.7092 -0.262258,0 0,-1.7092 -0.684712,0 0,-0.21962 z"/></g><g style="font-size:2.64583373px;opacity:1;fill:#fff;fill-opacity:1;stroke:none;stroke-width:.2;stroke-miterlimit:4;stroke-dasharray:none;stroke-opacity:1" id="text6576" transform="translate(0,0.52916675)"><path id="path6592" d="m 17.876496,255.67035 q -0.284221,0 -0.452169,0.21187 -0.166657,0.21188 -0.166657,0.57749 0,0.36432 0.166657,0.57619 0.167948,0.21187 0.452169,0.21187 0.28422,0 0.449585,-0.21187 0.166656,-0.21187 0.166656,-0.57619 0,-0.36561 -0.166656,-0.57749 -0.165365,-0.21187 -0.449585,-0.21187 z m 0,-0.21187 q 0.40566,0 0.648539,0.27259 0.242879,0.2713 0.242879,0.72864 0,0.45604 -0.242879,0.72863 -0.242879,0.27131 -0.648539,0.27131 -0.406952,0 -0.651124,-0.27131 -0.242879,-0.2713 -0.242879,-0.72863 0,-0.45734 0.242879,-0.72864 0.244172,-0.27259 0.651124,-0.27259 z"/><path id="path6594" d="m 19.146444,255.49336 0.262258,0 0,1.17176 q 0,0.31006 0.112396,0.447 0.112396,0.13565 0.364319,0.13565 0.250631,0 0.363027,-0.13565 0.112396,-0.13694 0.112396,-0.447 l 0,-1.17176 0.262258,0 0,1.20406 q 0,0.37724 -0.187327,0.56973 -0.186035,0.1925 -0.550354,0.1925 -0.365611,0 -0.552938,-0.1925 -0.186035,-0.19249 -0.186035,-0.56973 l 0,-1.20406 z"/><path id="path6596" d="m 20.846599,255.49336 1.631683,0 0,0.21962 -0.684713,0 0,1.7092 -0.262258,0 0,-1.7092 -0.684712,0 0,-0.21962 z"/></g><g style="font-size:2.64583373px;opacity:1;fill:#fff;fill-opacity:1;stroke:none;stroke-width:.2;stroke-miterlimit:4;stroke-dasharray:none;stroke-opacity:1" id="text6580" transform="translate(0,1.0583335)"><path id="path6585" d="m 17.876496,275.91421 q -0.284221,0 -0.452169,0.21188 -0.166657,0.21187 -0.166657,0.57748 0,0.36432 0.166657,0.57619 0.167948,0.21188 0.452169,0.21188 0.28422,0 0.449585,-0.21188 0.166656,-0.21187 0.166656,-0.57619 0,-0.36561 -0.166656,-0.57748 -0.165365,-0.21188 -0.449585,-0.21188 z m 0,-0.21187 q 0.40566,0 0.648539,0.27259 0.242879,0.27131 0.242879,0.72864 0,0.45605 -0.242879,0.72864 -0.242879,0.2713 -0.648539,0.2713 -0.406952,0 -0.651124,-0.2713 -0.242879,-0.2713 -0.242879,-0.72864 0,-0.45733 0.242879,-0.72864 0.244172,-0.27259 0.651124,-0.27259 z"/><path id="path6587" d="m 19.146444,275.73722 0.262258,0 0,1.17177 q 0,0.31005 0.112396,0.447 0.112396,0.13565 0.364319,0.13565 0.250631,0 0.363027,-0.13565 0.112396,-0.13695 0.112396,-0.447 l 0,-1.17177 0.262258,0 0,1.20406 q 0,0.37724 -0.187327,0.56974 -0.186035,0.19249 -0.550354,0.19249 -0.365611,0 -0.552938,-0.19249 -0.186035,-0.1925 -0.186035,-0.56974 l 0,-1.20406 z"/><path id="path6589" d="m 20.846599,275.73722 1.631683,0 0,0.21963 -0.684713,0 0,1.7092 -0.262258,0 0,-1.7092 -0.684712,0 0,-0.21963 z"/></g><g style="font-size:4.63020897px;opacity:1;fill:#fff;fill-opacity:1;stroke:#fff;stroke-width:.05291668;stroke-miterlimit:4;stroke-dasharray:none;stroke-opacity:1" id="text6675"><path style="font-size:4.63020897px;stroke-width:.05291668" id="path6753" d="m 1.8437379,199.50496 0,1.23668 0.7325135,0 q 0.3685176,0 0.5448635,-0.15147 0.1786067,-0.15374 0.1786067,-0.468 0,-0.31652 -0.1786067,-0.46573 -0.1763459,-0.15148 -0.5448635,-0.15148 l -0.7325135,0 z m 0,-1.38816 0,1.01738 0.6759924,0 q 0.334605,0 0.4973857,-0.12434 0.1650417,-0.12661 0.1650417,-0.38435 0,-0.25547 -0.1650417,-0.38208 -0.1627807,-0.12661 -0.4973857,-0.12661 l -0.6759924,0 z m -0.4566905,-0.3753 1.1665956,0 q 0.522255,0 0.8048605,0.21704 0.2826055,0.21705 0.2826055,0.61721 0,0.30974 -0.144694,0.49287 -0.144694,0.18313 -0.4250387,0.22834 0.3368658,0.0724 0.522255,0.30296 0.1876501,0.22834 0.1876501,0.57199 0,0.45217 -0.3074748,0.6986 -0.3074748,0.24643 -0.8749467,0.24643 l -1.2118125,0 0,-3.37544 z"/><path style="font-size:4.63020897px;stroke-width:.05291668" id="path6755" d="m 5.6939556,199.84409 q -0.5041682,0 -0.6986008,0.1153 -0.1944326,0.1153 -0.1944326,0.39339 0,0.22156 0.144694,0.35269 0.1469549,0.12887 0.3979086,0.12887 0.3459092,0 0.5539068,-0.24417 0.2102585,-0.24644 0.2102585,-0.65339 l 0,-0.0927 -0.4137345,0 z m 0.8297299,-0.17183 0,1.44468 -0.4159954,0 0,-0.38434 q -0.1424332,0.23061 -0.3549525,0.34139 -0.2125194,0.10852 -0.5199942,0.10852 -0.3888652,0 -0.6194713,-0.21704 -0.2283453,-0.21931 -0.2283453,-0.58556 0,-0.4273 0.2848664,-0.64434 0.2871272,-0.21704 0.8545991,-0.21704 l 0.5832978,0 0,-0.0407 q 0,-0.28713 -0.1899109,-0.44312 -0.1876501,-0.15826 -0.5290375,-0.15826 -0.2170411,0 -0.4227779,0.052 -0.2057368,0.052 -0.3956477,0.15599 l 0,-0.38434 q 0.2283452,-0.0882 0.4431254,-0.13113 0.2147802,-0.0452 0.4182562,-0.0452 0.5493852,0 0.8206865,0.28486 0.2713013,0.28487 0.2713013,0.86364 z"/><path style="font-size:4.63020897px;stroke-width:.05291668" id="path6757" d="m 9.4966957,199.58861 0,1.52833 -0.4159953,0 0,-1.51476 q 0,-0.35948 -0.1401724,-0.53808 -0.1401723,-0.17861 -0.420517,-0.17861 -0.3368658,0 -0.5312984,0.21478 -0.1944326,0.21478 -0.1944326,0.58556 l 0,1.43111 -0.4182562,0 0,-2.53214 0.4182562,0 0,0.39338 q 0.1492157,-0.22834 0.3504309,-0.34138 0.2034759,-0.11304 0.4679947,-0.11304 0.436343,0 0.6601665,0.2713 0.2238236,0.26904 0.2238236,0.79355 z"/><path style="font-size:4.63020897px;stroke-width:.05291668" id="path6759" d="m 11.997189,198.96914 0,-1.37007 0.415996,0 0,3.51787 -0.415996,0 0,-0.37982 q -0.131129,0.22609 -0.332344,0.33687 -0.198954,0.10852 -0.479299,0.10852 -0.458951,0 -0.748339,-0.36626 -0.287127,-0.36626 -0.287127,-0.96312 0,-0.59686 0.287127,-0.96312 0.289388,-0.36625 0.748339,-0.36625 0.280345,0 0.479299,0.11078 0.201215,0.10852 0.332344,0.3346 z m -1.417549,0.88399 q 0,0.45895 0.18765,0.72121 0.189911,0.26 0.519994,0.26 0.330084,0 0.519994,-0.26 0.189911,-0.26226 0.189911,-0.72121 0,-0.45895 -0.189911,-0.71895 -0.18991,-0.26225 -0.519994,-0.26225 -0.330083,0 -0.519994,0.26225 -0.18765,0.26 -0.18765,0.71895 z"/><path style="font-size:4.63020897px;stroke-width:.05291668" id="path6761" d="m 14.420814,199.84409 q -0.504168,0 -0.698601,0.1153 -0.194432,0.1153 -0.194432,0.39339 0,0.22156 0.144694,0.35269 0.146955,0.12887 0.397908,0.12887 0.34591,0 0.553907,-0.24417 0.210259,-0.24644 0.210259,-0.65339 l 0,-0.0927 -0.413735,0 z m 0.82973,-0.17183 0,1.44468 -0.415995,0 0,-0.38434 q -0.142433,0.23061 -0.354953,0.34139 -0.212519,0.10852 -0.519994,0.10852 -0.388865,0 -0.619471,-0.21704 -0.228346,-0.21931 -0.228346,-0.58556 0,-0.4273 0.284867,-0.64434 0.287127,-0.21704 0.854599,-0.21704 l 0.583298,0 0,-0.0407 q 0,-0.28713 -0.189911,-0.44312 -0.18765,-0.15826 -0.529038,-0.15826 -0.217041,0 -0.422778,0.052 -0.205736,0.052 -0.395647,0.15599 l 0,-0.38434 q 0.228345,-0.0882 0.443125,-0.13113 0.21478,-0.0452 0.418256,-0.0452 0.549385,0 0.820687,0.28486 0.271301,0.28487 0.271301,0.86364 z"/><path style="font-size:4.63020897px;stroke-width:.05291668" id="path6763" d="m 18.223555,199.58861 0,1.52833 -0.415996,0 0,-1.51476 q 0,-0.35948 -0.140172,-0.53808 -0.140172,-0.17861 -0.420517,-0.17861 -0.336866,0 -0.531298,0.21478 -0.194433,0.21478 -0.194433,0.58556 l 0,1.43111 -0.418256,0 0,-2.53214 0.418256,0 0,0.39338 q 0.149216,-0.22834 0.350431,-0.34138 0.203476,-0.11304 0.467995,-0.11304 0.436343,0 0.660166,0.2713 0.223824,0.26904 0.223824,0.79355 z"/><path style="font-size:4.63020897px;stroke-width:.05291668" id="path6765" d="m 20.208575,199.84409 q -0.504168,0 -0.698601,0.1153 -0.194432,0.1153 -0.194432,0.39339 0,0.22156 0.144694,0.35269 0.146954,0.12887 0.397908,0.12887 0.345909,0 0.553907,-0.24417 0.210258,-0.24644 0.210258,-0.65339 l 0,-0.0927 -0.413734,0 z m 0.82973,-0.17183 0,1.44468 -0.415996,0 0,-0.38434 q -0.142433,0.23061 -0.354952,0.34139 -0.212519,0.10852 -0.519994,0.10852 -0.388865,0 -0.619472,-0.21704 -0.228345,-0.21931 -0.228345,-0.58556 0,-0.4273 0.284867,-0.64434 0.287127,-0.21704 0.854599,-0.21704 l 0.583297,0 0,-0.0407 q 0,-0.28713 -0.18991,-0.44312 -0.187651,-0.15826 -0.529038,-0.15826 -0.217041,0 -0.422778,0.052 -0.205737,0.052 -0.395648,0.15599 l 0,-0.38434 q 0.228346,-0.0882 0.443126,-0.13113 0.21478,-0.0452 0.418256,-0.0452 0.549385,0 0.820687,0.28486 0.271301,0.28487 0.271301,0.86364 z"/></g><g style="font-size:1.98437524px;opacity:1;fill:#fff;fill-opacity:1;stroke:none;stroke-width:.05291667;stroke-miterlimit:4;stroke-dasharray:none;stroke-opacity:1" id="text6679" transform="translate(0,1.0583335)"><path style="fill:#fff;fill-opacity:1;stroke:none;stroke-width:.05291667;stroke-miterlimit:4;stroke-dasharray:none" id="path6720" d="m 1.5446864,202.39687 q 0,0.1967 0.080421,0.30909 0.08139,0.11143 0.2228547,0.11143 0.1414642,0 0.2228546,-0.11143 0.08139,-0.11239 0.08139,-0.30909 0,-0.19669 -0.08139,-0.30812 -0.08139,-0.11239 -0.2228546,-0.11239 -0.1414643,0 -0.2228547,0.11239 -0.080421,0.11143 -0.080421,0.30812 z m 0.6075211,0.37886 q -0.056198,0.0969 -0.1424332,0.14437 -0.085266,0.0465 -0.2054138,0.0465 -0.1966935,0 -0.3207169,-0.15697 -0.1230546,-0.15697 -0.1230546,-0.41277 0,-0.25579 0.1230546,-0.41276 0.1240234,-0.15697 0.3207169,-0.15697 0.1201477,0 0.2054138,0.0475 0.086235,0.0465 0.1424332,0.1434 l 0,-0.16472 0.1782837,0 0,1.49797 -0.1782837,0 0,-0.57554 z"/><path style="fill:#fff;fill-opacity:1;stroke:none;stroke-width:.05291667;stroke-miterlimit:4;stroke-dasharray:none" id="path6722" d="m 2.6793071,202.51024 0,-0.65694 0.1782837,0 0,0.65016 q 0,0.15406 0.060074,0.23157 0.060074,0.0765 0.1802216,0.0765 0.144371,0 0.2276993,-0.0921 0.084297,-0.0921 0.084297,-0.25096 l 0,-0.61527 0.1782837,0 0,1.08521 -0.1782837,0 0,-0.16666 q -0.064919,0.0988 -0.1511536,0.14728 -0.085266,0.0475 -0.1986313,0.0475 -0.1870041,0 -0.2838975,-0.11628 -0.096893,-0.11627 -0.096893,-0.34009 z"/><path style="fill:#fff;fill-opacity:1;stroke:none;stroke-width:.05291667;stroke-miterlimit:4;stroke-dasharray:none" id="path6724" d="m 4.450517,202.393 q -0.2160721,0 -0.2994003,0.0494 -0.083328,0.0494 -0.083328,0.1686 0,0.095 0.062012,0.15115 0.062981,0.0552 0.1705323,0.0552 0.1482468,0 0.2373886,-0.10464 0.090111,-0.10562 0.090111,-0.28003 l 0,-0.0397 -0.1773148,0 z m 0.3555985,-0.0736 0,0.61915 -0.1782837,0 0,-0.16472 q -0.061043,0.0988 -0.1521225,0.14631 -0.09108,0.0465 -0.2228547,0.0465 -0.1666565,0 -0.2654877,-0.093 -0.097862,-0.094 -0.097862,-0.25096 0,-0.18312 0.1220856,-0.27614 0.1230545,-0.093 0.3662567,-0.093 l 0.2499848,0 0,-0.0174 q 0,-0.12305 -0.08139,-0.18991 -0.080421,-0.0678 -0.2267304,-0.0678 -0.093018,0 -0.1811905,0.0223 -0.088173,0.0223 -0.1695633,0.0669 l 0,-0.16472 q 0.097862,-0.0378 0.1899109,-0.0562 0.092049,-0.0194 0.1792527,-0.0194 0.2354507,0 0.3517227,0.12209 0.116272,0.12208 0.116272,0.37013 z"/><path style="fill:#fff;fill-opacity:1;stroke:none;stroke-width:.05291667;stroke-miterlimit:4;stroke-dasharray:none" id="path6726" d="m 5.8922897,202.01802 0,-0.58717 0.1782838,0 0,1.50766 -0.1782838,0 0,-0.16278 q -0.056198,0.0969 -0.1424331,0.14437 -0.085266,0.0465 -0.2054139,0.0465 -0.1966934,0 -0.3207169,-0.15697 -0.1230545,-0.15697 -0.1230545,-0.41277 0,-0.25579 0.1230545,-0.41276 0.1240235,-0.15697 0.3207169,-0.15697 0.1201477,0 0.2054139,0.0475 0.086235,0.0465 0.1424331,0.1434 z m -0.6075211,0.37885 q 0,0.1967 0.080422,0.30909 0.08139,0.11143 0.2228546,0.11143 0.1414643,0 0.2228547,-0.11143 0.08139,-0.11239 0.08139,-0.30909 0,-0.19669 -0.08139,-0.30812 -0.08139,-0.11239 -0.2228547,-0.11239 -0.1414642,0 -0.2228546,0.11239 -0.080422,0.11143 -0.080422,0.30812 z"/><path style="fill:#fff;fill-opacity:1;stroke:none;stroke-width:.05291667;stroke-miterlimit:4;stroke-dasharray:none" id="path6728" d="m 7.4503341,202.93851 -0.5522919,-1.44662 0.2044449,0 0.4583054,1.21795 0.4592744,-1.21795 0.203476,0 -0.5513231,1.44662 -0.2218857,0 z"/><path style="fill:#fff;fill-opacity:1;stroke:none;stroke-width:.05291667;stroke-miterlimit:4;stroke-dasharray:none" id="path6730" d="m 9.5170685,201.60332 0,0.20638 q -0.098831,-0.0921 -0.2112274,-0.13759 -0.1114273,-0.0455 -0.2373886,-0.0455 -0.2480469,0 -0.3798219,0.15212 -0.1317749,0.15116 -0.1317749,0.43796 0,0.28584 0.1317749,0.43796 0.131775,0.15115 0.3798219,0.15115 0.1259613,0 0.2373886,-0.0455 0.1123963,-0.0455 0.2112274,-0.13759 l 0,0.20445 q -0.1027069,0.0698 -0.2180099,0.10464 -0.1143342,0.0349 -0.2422333,0.0349 -0.3284684,0 -0.5174104,-0.20057 -0.188942,-0.20154 -0.188942,-0.54939 0,-0.34881 0.188942,-0.54938 0.188942,-0.20154 0.5174104,-0.20154 0.129837,0 0.2441711,0.0349 0.1153031,0.0339 0.2160721,0.10271 z"/><path style="fill:#fff;fill-opacity:1;stroke:none;stroke-width:.05291667;stroke-miterlimit:4;stroke-dasharray:none" id="path6732" d="m 9.7234516,202.31548 0.5222554,0 0,0.15891 -0.5222554,0 0,-0.15891 z"/><path style="fill:#fff;fill-opacity:1;stroke:none;stroke-width:.05291667;stroke-miterlimit:4;stroke-dasharray:none" id="path6734" d="m 10.703043,202.77573 0,0.57554 -0.179253,0 0,-1.49797 0.179253,0 0,0.16472 q 0.0562,-0.0969 0.141464,-0.1434 0.08624,-0.0475 0.205414,-0.0475 0.197662,0 0.320717,0.15697 0.124023,0.15697 0.124023,0.41276 0,0.2558 -0.124023,0.41277 -0.123055,0.15697 -0.320717,0.15697 -0.119179,0 -0.205414,-0.0465 -0.08527,-0.0475 -0.141464,-0.14437 z m 0.606552,-0.37886 q 0,-0.19669 -0.08139,-0.30812 -0.08042,-0.11239 -0.221886,-0.11239 -0.141464,0 -0.222855,0.11239 -0.08042,0.11143 -0.08042,0.30812 0,0.1967 0.08042,0.30909 0.08139,0.11143 0.222855,0.11143 0.141464,0 0.221886,-0.11143 0.08139,-0.11239 0.08139,-0.30909 z"/><path style="fill:#fff;fill-opacity:1;stroke:none;stroke-width:.05291667;stroke-miterlimit:4;stroke-dasharray:none" id="path6736" d="m 12.210703,201.97829 q -0.143402,0 -0.22673,0.1124 -0.08333,0.11143 -0.08333,0.30618 0,0.19476 0.08236,0.30716 0.08333,0.11142 0.227699,0.11142 0.142433,0 0.225761,-0.11239 0.08333,-0.1124 0.08333,-0.30619 0,-0.19281 -0.08333,-0.30521 -0.08333,-0.11337 -0.225761,-0.11337 z m 0,-0.15115 q 0.232544,0 0.365288,0.15115 0.132744,0.15116 0.132744,0.41858 0,0.26646 -0.132744,0.41858 -0.132744,0.15116 -0.365288,0.15116 -0.233513,0 -0.366257,-0.15116 -0.131775,-0.15212 -0.131775,-0.41858 0,-0.26742 0.131775,-0.41858 0.132744,-0.15115 0.366257,-0.15115 z"/><path style="fill:#fff;fill-opacity:1;stroke:none;stroke-width:.05291667;stroke-miterlimit:4;stroke-dasharray:none" id="path6738" d="m 13.00329,201.43085 0.178284,0 0,1.50766 -0.178284,0 0,-1.50766 z"/><path style="fill:#fff;fill-opacity:1;stroke:none;stroke-width:.05291667;stroke-miterlimit:4;stroke-dasharray:none" id="path6740" d="m 14.046831,202.393 q -0.216072,0 -0.2994,0.0494 -0.08333,0.0494 -0.08333,0.1686 0,0.095 0.06201,0.15115 0.06298,0.0552 0.170533,0.0552 0.148246,0 0.237388,-0.10464 0.09011,-0.10562 0.09011,-0.28003 l 0,-0.0397 -0.177315,0 z m 0.355599,-0.0736 0,0.61915 -0.178284,0 0,-0.16472 q -0.06104,0.0988 -0.152123,0.14631 -0.09108,0.0465 -0.222854,0.0465 -0.166657,0 -0.265488,-0.093 -0.09786,-0.094 -0.09786,-0.25096 0,-0.18312 0.122085,-0.27614 0.123055,-0.093 0.366257,-0.093 l 0.249985,0 0,-0.0174 q 0,-0.12305 -0.08139,-0.18991 -0.08042,-0.0678 -0.226731,-0.0678 -0.09302,0 -0.18119,0.0223 -0.08817,0.0223 -0.169564,0.0669 l 0,-0.16472 q 0.09786,-0.0378 0.189911,-0.0562 0.09205,-0.0194 0.179253,-0.0194 0.235451,0 0.351723,0.12209 0.116272,0.12208 0.116272,0.37013 z"/><path style="fill:#fff;fill-opacity:1;stroke:none;stroke-width:.05291667;stroke-miterlimit:4;stroke-dasharray:none" id="path6742" d="m 15.403338,202.01996 q -0.03004,-0.0174 -0.06589,-0.0252 -0.03488,-0.009 -0.07752,-0.009 -0.151153,0 -0.232544,0.0988 -0.08042,0.0979 -0.08042,0.28196 l 0,0.57167 -0.179253,0 0,-1.08521 0.179253,0 0,0.1686 q 0.0562,-0.0988 0.146309,-0.14631 0.09011,-0.0484 0.218979,-0.0484 0.01841,0 0.04069,0.003 0.02229,0.002 0.04942,0.007 l 9.69e-4,0.18313 z"/><path style="fill:#fff;fill-opacity:1;stroke:none;stroke-width:.05291667;stroke-miterlimit:4;stroke-dasharray:none" id="path6744" d="m 15.592279,201.8533 0.178284,0 0,1.08521 -0.178284,0 0,-1.08521 z m 0,-0.42245 0.178284,0 0,0.22576 -0.178284,0 0,-0.22576 z"/><path style="fill:#fff;fill-opacity:1;stroke:none;stroke-width:.05291667;stroke-miterlimit:4;stroke-dasharray:none" id="path6746" d="m 16.06512,201.8533 0.846847,0 0,0.16278 -0.670501,0.77999 0.670501,0 0,0.14244 -0.871071,0 0,-0.16278 0.670502,-0.77999 -0.646278,0 0,-0.14244 z"/><path style="fill:#fff;fill-opacity:1;stroke:none;stroke-width:.05291667;stroke-miterlimit:4;stroke-dasharray:none" id="path6748" d="m 18.113444,202.35133 0,0.0872 -0.819717,0 q 0.01163,0.18409 0.110458,0.28099 0.0998,0.0959 0.277115,0.0959 0.102707,0 0.198632,-0.0252 0.09689,-0.0252 0.191848,-0.0756 l 0,0.1686 q -0.09592,0.0407 -0.196693,0.062 -0.100769,0.0213 -0.204445,0.0213 -0.259674,0 -0.411797,-0.15116 -0.151153,-0.15115 -0.151153,-0.40889 0,-0.26645 0.143402,-0.42245 0.144371,-0.15697 0.388542,-0.15697 0.218979,0 0.345909,0.14146 0.127899,0.1405 0.127899,0.38273 z m -0.178283,-0.0523 q -0.0019,-0.14631 -0.08236,-0.23351 -0.07945,-0.0872 -0.211227,-0.0872 -0.149216,0 -0.239327,0.0843 -0.08914,0.0843 -0.102706,0.23739 l 0.63562,-9.7e-4 z"/><path style="fill:#fff;fill-opacity:1;stroke:none;stroke-width:.05291667;stroke-miterlimit:4;stroke-dasharray:none" id="path6750" d="m 19.031024,202.01996 q -0.03004,-0.0174 -0.06589,-0.0252 -0.03488,-0.009 -0.07751,-0.009 -0.151154,0 -0.232544,0.0988 -0.08042,0.0979 -0.08042,0.28196 l 0,0.57167 -0.179253,0 0,-1.08521 0.179253,0 0,0.1686 q 0.0562,-0.0988 0.146308,-0.14631 0.09011,-0.0484 0.218979,-0.0484 0.01841,0 0.0407,0.003 0.02229,0.002 0.04941,0.007 l 9.69e-4,0.18313 z"/></g><g style="font-size:2.64583373px;opacity:1;fill:#fff;fill-opacity:1;stroke:none;stroke-width:.2;stroke-miterlimit:4;stroke-dasharray:none;stroke-opacity:1" id="text6683" transform="matrix(0.85914282,0,0,1,7.5322828,6.3500015)"><path id="path6715" d="m 1.8232381,205.87659 0.69634,0 0,0.21188 -0.69634,0 0,-0.21188 z"/><path id="path6717" d="m 8.9209973,205.04848 0,0.71959 0.7195945,0 0,0.21963 -0.7195945,0 0,0.71959 -0.217041,0 0,-0.71959 -0.7195945,0 0,-0.21963 0.7195945,0 0,-0.71959 0.217041,0 z"/></g><g style="font-size:2.64583373px;opacity:1;fill:#fff;fill-opacity:1;stroke:none;stroke-width:.2;stroke-miterlimit:4;stroke-dasharray:none;stroke-opacity:1" id="text6687" transform="matrix(0.9119689,0,0,1,6.4442586,4.7625011)"><path id="path6710" d="m 2.0773451,228.91564 0.69634,0 0,0.21187 -0.69634,0 0,-0.21187 z"/><path id="path6712" d="m 10.01743,228.08752 0,0.7196 0.719594,0 0,0.21962 -0.719594,0 0,0.7196 -0.217041,0 0,-0.7196 -0.7195945,0 0,-0.21962 0.7195945,0 0,-0.7196 0.217041,0 z"/></g><g style="font-size:2.64583373px;opacity:1;fill:#fff;fill-opacity:1;stroke:none;stroke-width:.2;stroke-miterlimit:4;stroke-dasharray:none;stroke-opacity:1" id="text6691" transform="matrix(0.86306273,0,0,1,6.9693653,5.2916679)"><path id="path6705" d="m 2.0773451,248.90539 0.69634,0 0,0.21187 -0.69634,0 0,-0.21187 z"/><path id="path6707" d="m 10.01743,248.07727 0,0.71959 0.719594,0 0,0.21963 -0.719594,0 0,0.71959 -0.217041,0 0,-0.71959 -0.7195945,0 0,-0.21963 0.7195945,0 0,-0.71959 0.217041,0 z"/></g><g style="font-size:2.64583373px;opacity:1;fill:#fff;fill-opacity:1;stroke:none;stroke-width:.2;stroke-miterlimit:4;stroke-dasharray:none;stroke-opacity:1" id="text6695" transform="matrix(0.9119689,0,0,1,6.4442586,6.3500015)"><path id="path6700" d="m 2.0773451,268.89513 0.69634,0 0,0.21187 -0.69634,0 0,-0.21187 z"/><path id="path6702" d="m 10.01743,268.06702 0,0.71959 0.719594,0 0,0.21963 -0.719594,0 0,0.71959 -0.217041,0 0,-0.71959 -0.7195945,0 0,-0.21963 0.7195945,0 0,-0.71959 0.217041,0 z"/></g></g><g id="layer3" style="display:none"><rect style="display:inline;opacity:1;fill:#ff0200;fill-opacity:1;stroke:none;stroke-width:1;stroke-miterlimit:4;stroke-dasharray:none;stroke-opacity:1" id="rect5091" width="5.643" height="5.557" x="22.004" y="51.12"/><rect style="display:inline;opacity:1;fill:#0f0;fill-opacity:1;stroke:none;stroke-width:1;stroke-miterlimit:4;stroke-dasharray:none;stroke-opacity:1" id="rect5093" width="5.215" height="5.215" x="22.084" y="45.009"/><rect style="display:inline;opacity:1;fill:#00f;fill-opacity:1;stroke:none;stroke-width:1;stroke-miterlimit:4;stroke-dasharray:none;stroke-opacity:1" id="rect4969" width="5.386" height="5.386" x="22.383" y="83.223"/><rect style="display:inline;opacity:1;fill:#0f0;fill-opacity:1;stroke:none;stroke-width:1;stroke-miterlimit:4;stroke-dasharray:none;stroke-opacity:1" id="rect4975" width="5.355" height="5.591" x="2.329" y="75.109"/><rect style="display:inline;opacity:1;fill:#0f0;fill-opacity:1;stroke:none;stroke-width:1;stroke-miterlimit:4;stroke-dasharray:none;stroke-opacity:1" id="rect4979" width="5.557" height="5.557" x="2.44" y="44.96"/><rect style="display:inline;opacity:1;fill:#0f0;fill-opacity:1;stroke:none;stroke-width:1;stroke-miterlimit:4;stroke-dasharray:none;stroke-opacity:1" id="rect4981" width="5.728" height="5.728" x="11.819" y="44.461"/><rect style="display:inline;opacity:1;fill:#0f0;fill-opacity:1;stroke:none;stroke-width:1;stroke-miterlimit:4;stroke-dasharray:none;stroke-opacity:1" id="rect4983" width="5.814" height="5.814" x="21.571" y="27.209"/><rect style="display:inline;opacity:1;fill:#0f0;fill-opacity:1;stroke:none;stroke-width:1;stroke-miterlimit:4;stroke-dasharray:none;stroke-opacity:1" id="rect4989" width="5.557" height="5.557" x="12.466" y="27.43"/><rect style="display:inline;opacity:1;fill:#0f0;fill-opacity:1;stroke:none;stroke-width:1;stroke-miterlimit:4;stroke-dasharray:none;stroke-opacity:1" id="rect4991" width="5.301" height="5.301" x="2.329" y="17.041"/><rect style="display:inline;opacity:1;fill:#0f0;fill-opacity:1;stroke:none;stroke-width:1;stroke-miterlimit:4;stroke-dasharray:none;stroke-opacity:1" id="rect5041" width="5.728" height="5.728" x="2.757" y="27.47"/><rect style="display:inline;opacity:1;fill:red;fill-opacity:1;stroke:none;stroke-width:1;stroke-miterlimit:4;stroke-dasharray:none;stroke-opacity:1" id="rect5043" width="5.728" height="5.728" x="2.757" y="34.257"/><rect style="display:inline;opacity:1;fill:red;fill-opacity:1;stroke:none;stroke-width:1;stroke-miterlimit:4;stroke-dasharray:none;stroke-opacity:1" id="rect5045" width="5.044" height="5.386" x="12.722" y="34.046"/><rect style="display:inline;opacity:1;fill:red;fill-opacity:1;stroke:none;stroke-width:1;stroke-miterlimit:4;stroke-dasharray:none;stroke-opacity:1" id="rect5047" width="5.386" height="5.386" x="21.785" y="34.081"/><rect style="display:inline;opacity:1;fill:red;fill-opacity:1;stroke:none;stroke-width:1;stroke-miterlimit:4;stroke-dasharray:none;stroke-opacity:1" id="rect5049" width="5.472" height="5.472" x="12.204" y="51.206"/><rect style="display:inline;opacity:1;fill:red;fill-opacity:1;stroke:none;stroke-width:1;stroke-miterlimit:4;stroke-dasharray:none;stroke-opacity:1" id="rect5053" width="5.301" height="5.472" x="12.046" y="77.942"/><rect style="display:inline;opacity:1;fill:#0f0;fill-opacity:1;stroke:none;stroke-width:1;stroke-miterlimit:4;stroke-dasharray:none;stroke-opacity:1" id="rect4923" width="5.643" height="5.459" x="2.329" y="83.48"/><rect style="display:inline;opacity:1;fill:red;fill-opacity:1;stroke:none;stroke-width:1;stroke-miterlimit:4;stroke-dasharray:none;stroke-opacity:1" id="rect4945" width="5.215" height="5.215" x="10.158" y="17.127"/><rect style="display:inline;opacity:1;fill:#00f;fill-opacity:1;stroke:none;stroke-width:1;stroke-miterlimit:4;stroke-dasharray:none;stroke-opacity:1" id="rect4947" width="5.63" height="5.472" x="22.383" y="74.895"/><rect style="display:inline;opacity:1;fill:#0f0;fill-opacity:1;stroke:none;stroke-width:1;stroke-miterlimit:4;stroke-dasharray:none;stroke-opacity:1" id="rect5332" width="5.472" height="5.472" x="2.223" y="10.317"/></g></svg>