<svg xmlns="http://www.w3.org/2000/svg" xmlns:svg="http://www.w3.org/2000/svg" xmlns:xlink="http://www.w3.org/1999/xlink" id="svg8" width="60" height="380" version="1.1" viewBox="0 0 15.875 100.542"><defs id="defs2"><linearGradient id="linearGradient4189"><stop id="stop4191" offset="0" style="stop-color:#fff;stop-opacity:1"/><stop id="stop4193" offset="1" style="stop-color:#000;stop-opacity:0"/></linearGradient><linearGradient id="linearGradient5349"><stop id="stop5351" offset="0" style="stop-color:#fdfdfd;stop-opacity:1"/><stop id="stop5353" offset="1" style="stop-color:#fdfdfd;stop-opacity:1"/></linearGradient><radialGradient id="radialGradient5357" cx="285.494" cy="856.052" r="69.827" fx="285.494" fy="856.052" gradientTransform="matrix(0.42180436,0,0,0.0267339,-117.37069,272.32424)" gradientUnits="userSpaceOnUse" xlink:href="#linearGradient5349"/><linearGradient id="linearGradient4195" x1="268.967" x2="279.915" y1="830.884" y2="832.532" gradientTransform="matrix(0.26458334,0,0,0.26458334,-75.483235,72.473327)" gradientUnits="userSpaceOnUse" xlink:href="#linearGradient4189"/><clipPath id="clipPath5924" clipPathUnits="userSpaceOnUse"><rect style="opacity:1;fill:#111bff;fill-opacity:1;stroke:none;stroke-width:.30000001;stroke-miterlimit:10;stroke-dasharray:none;stroke-opacity:1" id="rect5926" width="20.551" height="14.908" x="1.637" y="287.562" rx="0" ry="0"/></clipPath><clipPath id="clipPath5928" clipPathUnits="userSpaceOnUse"><rect style="opacity:1;fill:#111bff;fill-opacity:1;stroke:none;stroke-width:.30000001;stroke-miterlimit:10;stroke-dasharray:none;stroke-opacity:1" id="rect5930" width="15.866" height="14.908" x=".009" y="287.562" rx="0" ry="0"/></clipPath><clipPath id="clipPath5932" clipPathUnits="userSpaceOnUse"><rect style="opacity:1;fill:#111bff;fill-opacity:1;stroke:none;stroke-width:.30000001;stroke-miterlimit:10;stroke-dasharray:none;stroke-opacity:1" id="rect5934" width="15.866" height="14.908" x=".009" y="287.562" rx="0" ry="0"/></clipPath><clipPath id="clipPath5936" clipPathUnits="userSpaceOnUse"><rect style="opacity:1;fill:#111bff;fill-opacity:1;stroke:none;stroke-width:.30000001;stroke-miterlimit:10;stroke-dasharray:none;stroke-opacity:1" id="rect5938" width="66.538" height="62.519" x="282.25" y="-27.441" rx="0" ry="0"/></clipPath><clipPath id="clipPath5940" clipPathUnits="userSpaceOnUse"><rect style="opacity:1;fill:#111bff;fill-opacity:1;stroke:none;stroke-width:.30000001;stroke-miterlimit:10;stroke-dasharray:none;stroke-opacity:1" id="rect5942" width="15.866" height="14.908" x=".009" y="287.562" rx="0" ry="0"/></clipPath><clipPath id="clipPath5944" clipPathUnits="userSpaceOnUse"><rect style="opacity:1;fill:#111bff;fill-opacity:1;stroke:none;stroke-width:.30000001;stroke-miterlimit:10;stroke-dasharray:none;stroke-opacity:1" id="rect5946" width="15.866" height="14.908" x=".009" y="287.562" rx="0" ry="0"/></clipPath></defs><metadata id="metadata5"/><g id="layer1" transform="translate(0,-196.45832)" style="display:inline"><path style="opacity:1;fill:#000;fill-opacity:1;fill-rule:evenodd;stroke:none;stroke-width:.48607069;stroke-linecap:butt;stroke-linejoin:round;stroke-miterlimit:4;stroke-dasharray:none;stroke-dashoffset:0;stroke-opacity:1;paint-order:normal" id="rect817" d="m 0,196.45831 15.875001,0 0,100.54168 -15.875001,0 z"/><path style="opacity:1;fill:url(#radialGradient5357);fill-opacity:1;stroke:#8b8b8b;stroke-width:.39687502;stroke-linejoin:miter;stroke-miterlimit:4;stroke-dasharray:none;stroke-opacity:1" id="path5329" d="m 20.094988,295.06553 -17.0428228,-0.12503 -14.4172472,0.12503 -0.878733,-3.46985 c 4.809927,-1.00484 10.7504003,-1.72449 16.1711726,-1.71947 5.7152827,0.005 9.8861174,0.46573 17.0463624,1.84449 z" clip-path="url(#clipPath5944)"/><path id="rect5381" d="m -15.62179,292.12562 c 10.9044163,-1.20984 21.5456674,-0.98968 31.749998,0.12269 l -0.03339,3.29649 -31.716608,0 z" clip-path="url(#clipPath5940)" style="opacity:1;fill:#000;fill-opacity:1;stroke:none;stroke-width:1.00699997;stroke-linejoin:miter;stroke-miterlimit:4;stroke-dasharray:none;stroke-opacity:1"/><g id="g5348" clip-path="url(#clipPath5936)" transform="matrix(0.23844891,0,0,0.23844891,-62.318355,294.0362)"><path style="fill:#000;fill-opacity:1;fill-rule:evenodd;stroke:none;stroke-width:1px;stroke-linecap:butt;stroke-linejoin:miter;stroke-opacity:1" id="path4179" d="m 291.23228,-10.52707 6.43066,-3.03395 5.95249,-0.742 4.22115,0.51115 5.88653,2.16005 4.68284,4.36955 z"/><g id="layer2-0" transform="translate(109.83831,-148.57805)"><g id="layer2-5" transform="matrix(0.09824765,0,0,0.06980857,176.35705,132.53479)" style="stroke:#fff;stroke-opacity:1"><g id="g2852" style="stroke:#fff;stroke-opacity:1"><path style="color:#000;fill:none;stroke:#fff;stroke-width:2.89188218;stroke-linejoin:bevel;stroke-miterlimit:4;stroke-dasharray:none;stroke-opacity:1" id="path3614" d="m 2.1174,188.81 18.113,36.226 65.551,31.913 90.564,13.8 94.877,-11.213 60.376,-31.913 14.663,-30.188 -14.663,-37.951 0.32345,67.923 -33.099,-64.473 -25.876,96.602 -58.651,-80.214 -40.538,91.427 -40.538,-75.902 -46.576,61.239 -17.098,-92.852 -49.316,62.663 6.0376,-89.702 44.241,27.296 63.574,32.218 79.999,-16.819 86.467,-15.957 31.051,-3.6657 -33.27949,-62.050611 1.366,64.853611 -64.689,-74.392 -20.7,91.427 -69.001,-66.198 -75.902,50.026 15.35717,-82.554584 -59.34617,55.816584 24.151,-56.064 34.501,0 81.077,-37.088 -18.975,69.864 89.702,-24.151 62.101,7.7627 -66.314,-54.334 4.2124,46.571 -70.726,-45.713 66.414,-1.725 -53.476,-15.525 -12.938,16.388 -49.164,-6.9001 -66.414,44.851 -33.333,49.416 9.1828,6.6475 -23.288,52.614 z"/><path style="color:#000;fill:none;stroke:#fff;stroke-width:2.89188218;stroke-linejoin:bevel;stroke-miterlimit:4;stroke-dasharray:none;stroke-opacity:1" id="path3616" d="M 133.17,195.51 146.16,114.634 84.75317,79.116604 116.834,34.42 l 28.463,-4.3126 32.776,-5.1751 41.401,6.9001 12.938,10.35 47.438,20.7 18.975,34.501 30.188,30.188 2.8032,31.913"/><path style="color:#000;fill:none;stroke:#fff;stroke-width:2;stroke-linejoin:bevel;stroke-opacity:1" id="path3618" d="M 329.01,126.71 279.85,62.88 220.08,31.83"/><path style="color:#000;fill:none;stroke:#fff;stroke-width:2;stroke-linejoin:bevel;stroke-opacity:1" id="path3620" d="M 1.9262189,188.1862 16.108581,129.83899"/></g></g></g><path style="fill:none;fill-rule:evenodd;stroke:#fff;stroke-width:.2;stroke-linecap:butt;stroke-linejoin:miter;stroke-miterlimit:4;stroke-dasharray:none;stroke-opacity:1" id="path4177" d="m 320.18675,-2.24965 -1.66538,-4.93018"/><path style="opacity:0;fill:#000;fill-opacity:1;stroke:none;stroke-width:.2;stroke-miterlimit:4;stroke-dasharray:none;stroke-opacity:1" id="path4183" d="m 320.99471,-0.40290931 a 12.102836,4.2211528 0 0 1 -12.10283,4.22115281 12.102836,4.2211528 0 0 1 -12.10284,-4.22115281 12.102836,4.2211528 0 0 1 12.10284,-4.22115279 12.102836,4.2211528 0 0 1 12.10283,4.22115279 z"/></g><path style="opacity:0;fill:url(#linearGradient4195);fill-opacity:1;stroke:none;stroke-width:.2;stroke-miterlimit:4;stroke-dasharray:none;stroke-opacity:1" id="path4187" d="m -1.422332,292.74753 a 2.800842,1.0121423 0 0 1 -2.8008421,1.01214 2.800842,1.0121423 0 0 1 -2.800842,-1.01214 2.800842,1.0121423 0 0 1 2.800842,-1.01214 2.800842,1.0121423 0 0 1 2.8008421,1.01214 z" clip-path="url(#clipPath5932)"/><path id="path4209" d="m -12.795448,292.21929 3.1484694,-1.34092 1.3291208,0.4179 1.1077655,-0.7832 2.2155227,0.29151 0.932852,-0.34981 3.0239299,0.97939 -1.0416184,0.47818 -9.5034349,0.29152 z" clip-path="url(#clipPath5928)" style="fill:#000;fill-opacity:1;fill-rule:evenodd;stroke:none;stroke-width:1px;stroke-linecap:butt;stroke-linejoin:miter;stroke-opacity:1"/><g style="font-size:1.98437524px;opacity:1;fill:#fff;fill-opacity:1;stroke:none;stroke-width:.2;stroke-miterlimit:10;stroke-dasharray:none;stroke-opacity:1" id="text6429" clip-path="url(#clipPath5924)" transform="matrix(0.77203451,0,0,1,-1.2545365,0)"><path id="path6460" d="m 2.8350986,295.53399 0,0.16859 q -0.075577,-0.0387 -0.1569672,-0.0581 -0.08139,-0.0194 -0.1685944,-0.0194 -0.1327438,0 -0.1996002,0.0407 -0.065888,0.0407 -0.065888,0.12209 0,0.062 0.047478,0.0979 0.047478,0.0349 0.1908798,0.0669 l 0.061043,0.0136 q 0.1899109,0.0407 0.2693634,0.11531 0.080421,0.0736 0.080421,0.20638 0,0.15115 -0.1201477,0.23933 -0.1191788,0.0882 -0.3284684,0.0882 -0.087204,0 -0.1821594,-0.0174 -0.093987,-0.0165 -0.1986313,-0.0504 l 0,-0.18409 q 0.098831,0.0514 0.1947555,0.0775 0.095924,0.0252 0.189911,0.0252 0.1259613,0 0.1937866,-0.0426 0.067825,-0.0436 0.067825,-0.12209 0,-0.0727 -0.049416,-0.11142 -0.048447,-0.0388 -0.2141342,-0.0746 l -0.062012,-0.0145 q -0.1656876,-0.0349 -0.2393265,-0.10658 -0.073639,-0.0727 -0.073639,-0.19863 0,-0.15309 0.1085206,-0.23642 0.1085205,-0.0833 0.3081207,-0.0833 0.098831,0 0.1860352,0.0145 0.087204,0.0145 0.1608429,0.0436 z"/><path id="path6462" d="m 4.8621069,295.62701 q -0.1434021,0 -0.2267304,0.11239 -0.083328,0.11143 -0.083328,0.30619 0,0.19475 0.082359,0.30715 0.083328,0.11142 0.2276993,0.11142 0.1424332,0 0.2257614,-0.11239 0.083328,-0.1124 0.083328,-0.30618 0,-0.19282 -0.083328,-0.30522 -0.083328,-0.11336 -0.2257614,-0.11336 z m 0,-0.15116 q 0.2325439,0 0.3652878,0.15116 0.1327438,0.15115 0.1327438,0.41858 0,0.26645 -0.1327438,0.41857 -0.1327439,0.15116 -0.3652878,0.15116 -0.2335129,0 -0.3662568,-0.15116 -0.1317749,-0.15212 -0.1317749,-0.41857 0,-0.26743 0.1317749,-0.41858 0.1327439,-0.15116 0.3662568,-0.15116 z"/><path id="path6464" d="m 6.8997734,296.15895 0,-0.65694 0.1782837,0 0,0.65016 q 0,0.15406 0.060074,0.23157 0.060074,0.0765 0.1802215,0.0765 0.1443711,0 0.2276993,-0.092 0.084297,-0.0921 0.084297,-0.25095 l 0,-0.61528 0.1782837,0 0,1.08521 -0.1782837,0 0,-0.16666 q -0.064919,0.0988 -0.1511536,0.14728 -0.085266,0.0475 -0.1986313,0.0475 -0.1870041,0 -0.2838974,-0.11627 -0.096893,-0.11628 -0.096893,-0.3401 z"/><path id="path6466" d="m 9.6176312,295.19389 0,0.30812 0.3672257,0 0,0.13856 -0.3672257,0 0,0.58911 q 0,0.13275 0.035851,0.17054 0.036819,0.0378 0.1482468,0.0378 l 0.1831283,0 0,0.14922 -0.1831283,0 q -0.2063828,0 -0.2848664,-0.0765 -0.078484,-0.0775 -0.078484,-0.28099 l 0,-0.58911 -0.130806,0 0,-0.13856 0.130806,0 0,-0.30812 0.1792526,0 z"/><path id="path6468" d="m 12.385873,295.93222 0,0.655 -0.178284,0 0,-0.64919 q 0,-0.15406 -0.06007,-0.2306 -0.06007,-0.0765 -0.180222,-0.0765 -0.144371,0 -0.227699,0.0921 -0.08333,0.092 -0.08333,0.25095 l 0,0.61334 -0.179252,0 0,-1.50766 0.179252,0 0,0.59105 q 0.06395,-0.0979 0.150185,-0.14631 0.0872,-0.0485 0.200569,-0.0485 0.187004,0 0.282929,0.11627 0.09592,0.11531 0.09592,0.3401 z"/><path id="path6470" d="m 14.179368,296.42444 0,0.57554 -0.179252,0 0,-1.49797 0.179252,0 0,0.16472 q 0.0562,-0.0969 0.141465,-0.1434 0.08624,-0.0475 0.205413,-0.0475 0.197663,0 0.320717,0.15697 0.124024,0.15697 0.124024,0.41277 0,0.25579 -0.124024,0.41276 -0.123054,0.15697 -0.320717,0.15697 -0.119178,0 -0.205413,-0.0465 -0.08527,-0.0475 -0.141465,-0.14437 z m 0.606552,-0.37885 q 0,-0.1967 -0.08139,-0.30813 -0.08042,-0.11239 -0.221886,-0.11239 -0.141464,0 -0.222854,0.11239 -0.08042,0.11143 -0.08042,0.30813 0,0.19669 0.08042,0.30909 0.08139,0.11142 0.222854,0.11142 0.141465,0 0.221886,-0.11142 0.08139,-0.1124 0.08139,-0.30909 z"/><path id="path6472" d="m 16.950518,295.62701 q -0.143402,0 -0.22673,0.11239 -0.08333,0.11143 -0.08333,0.30619 0,0.19475 0.08236,0.30715 0.08333,0.11142 0.227699,0.11142 0.142433,0 0.225761,-0.11239 0.08333,-0.1124 0.08333,-0.30618 0,-0.19282 -0.08333,-0.30522 -0.08333,-0.11336 -0.225761,-0.11336 z m 0,-0.15116 q 0.232544,0 0.365288,0.15116 0.132744,0.15115 0.132744,0.41858 0,0.26645 -0.132744,0.41857 -0.132744,0.15116 -0.365288,0.15116 -0.233513,0 -0.366257,-0.15116 -0.131775,-0.15212 -0.131775,-0.41857 0,-0.26743 0.131775,-0.41858 0.132744,-0.15116 0.366257,-0.15116 z"/><path id="path6474" d="m 19.006594,295.07956 0.178284,0 0,1.50766 -0.178284,0 0,-1.50766 z"/><path id="path6476" d="m 21.748675,296.00005 0,0.0872 -0.819718,0 q 0.01163,0.1841 0.110459,0.28099 0.0998,0.0959 0.277115,0.0959 0.102706,0 0.198631,-0.0252 0.09689,-0.0252 0.191849,-0.0756 l 0,0.16859 q -0.09593,0.0407 -0.196694,0.062 -0.100769,0.0213 -0.204445,0.0213 -0.259674,0 -0.411796,-0.15116 -0.151154,-0.15115 -0.151154,-0.40889 0,-0.26645 0.143402,-0.42245 0.144371,-0.15697 0.388542,-0.15697 0.218979,0 0.34591,0.14147 0.127899,0.14049 0.127899,0.38273 z m -0.178284,-0.0523 q -0.0019,-0.14631 -0.08236,-0.23351 -0.07945,-0.0872 -0.211228,-0.0872 -0.149215,0 -0.239326,0.0843 -0.08914,0.0843 -0.102707,0.23739 l 0.63562,-9.7e-4 z"/></g><g style="font-style:normal;font-variant:normal;font-weight:400;font-stretch:normal;font-size:1.984375px;font-family:sans-serif;-inkscape-font-specification:sans-serif;fill:#fff;fill-opacity:1;stroke:none;stroke-width:.07937501;stroke-miterlimit:4;stroke-dasharray:none;stroke-opacity:1" id="text5898"><path style="stroke:none;stroke-width:.07937501" id="path5913" d="m 1.7210836,201.38872 -0.2654876,0.71991 0.5319442,0 -0.2664566,-0.71991 z m -0.1104583,-0.19282 0.2218856,0 0.551323,1.44662 -0.203476,0 -0.1317749,-0.3711 -0.6520919,0 -0.131775,0.3711 -0.2063827,0 0.5522919,-1.44662 z"/><path style="stroke:none;stroke-width:.07937501" id="path5915" d="m 2.729743,201.24919 0,0.30812 0.3672257,0 0,0.13856 -0.3672257,0 0,0.58911 q 0,0.13274 0.035851,0.17053 0.03682,0.0378 0.1482468,0.0378 l 0.1831284,0 0,0.14922 -0.1831284,0 q -0.2063828,0 -0.2848663,-0.0765 -0.078484,-0.0775 -0.078484,-0.28099 l 0,-0.58911 -0.130806,0 0,-0.13856 0.130806,0 0,-0.30812 0.1792526,0 z"/><path style="stroke:none;stroke-width:.07937501" id="path5917" d="m 3.5107031,201.24919 0,0.30812 0.3672256,0 0,0.13856 -0.3672256,0 0,0.58911 q 0,0.13274 0.035851,0.17053 0.03682,0.0378 0.1482468,0.0378 l 0.1831283,0 0,0.14922 -0.1831283,0 q -0.2063828,0 -0.2848664,-0.0765 -0.078483,-0.0775 -0.078483,-0.28099 l 0,-0.58911 -0.130806,0 0,-0.13856 0.130806,0 0,-0.30812 0.1792526,0 z"/><path style="stroke:none;stroke-width:.07937501" id="path5919" d="m 5.0416174,202.05534 0,0.0872 -0.8197174,0 q 0.011627,0.18409 0.1104584,0.28099 0.0998,0.0959 0.2771148,0.0959 0.1027069,0 0.1986313,-0.0252 0.096893,-0.0252 0.1918488,-0.0756 l 0,0.1686 q -0.095924,0.0407 -0.1966935,0.062 -0.100769,0.0213 -0.2044448,0.0213 -0.2596741,0 -0.4117966,-0.15116 -0.1511536,-0.15115 -0.1511536,-0.40889 0,-0.26645 0.1434021,-0.42245 0.1443711,-0.15697 0.3885422,-0.15697 0.2189789,0 0.3459091,0.14147 0.1278992,0.14049 0.1278992,0.38272 z m -0.1782837,-0.0523 q -0.00194,-0.14631 -0.082359,-0.23351 -0.079452,-0.0872 -0.2112274,-0.0872 -0.1492157,0 -0.2393265,0.0843 -0.089142,0.0843 -0.1027069,0.23739 l 0.6356201,-9.7e-4 z"/><path style="stroke:none;stroke-width:.07937501" id="path5921" d="m 6.2324362,201.98752 0,0.655 -0.1782837,0 0,-0.64919 q 0,-0.15406 -0.060074,-0.2306 -0.060074,-0.0765 -0.1802215,-0.0765 -0.1443711,0 -0.2276993,0.0921 -0.083328,0.0921 -0.083328,0.25095 l 0,0.61334 -0.1792527,0 0,-1.08521 0.1792527,0 0,0.1686 q 0.063949,-0.0979 0.1501846,-0.14631 0.087204,-0.0485 0.2005691,-0.0485 0.1870041,0 0.2829285,0.11627 0.095924,0.11531 0.095924,0.3401 z"/><path style="stroke:none;stroke-width:.07937501" id="path5923" d="m 6.5715628,202.21425 0,-0.65694 0.1782837,0 0,0.65016 q 0,0.15406 0.060074,0.23157 0.060074,0.0765 0.1802216,0.0765 0.144371,0 0.2276992,-0.0921 0.084297,-0.0921 0.084297,-0.25096 l 0,-0.61527 0.1782837,0 0,1.08521 -0.1782837,0 0,-0.16666 q -0.064919,0.0988 -0.1511535,0.14728 -0.085266,0.0475 -0.1986313,0.0475 -0.1870041,0 -0.2838974,-0.11628 -0.096893,-0.11627 -0.096893,-0.34009 z"/><path style="stroke:none;stroke-width:.07937501" id="path5925" d="m 8.6944952,201.76563 q 0.066856,-0.12015 0.159874,-0.17731 0.093017,-0.0572 0.2189788,-0.0572 0.1695633,0 0.261612,0.11918 0.092049,0.11821 0.092049,0.33719 l 0,0.655 -0.1792526,0 0,-0.64919 q 0,-0.156 -0.055229,-0.23157 -0.055229,-0.0756 -0.1685943,-0.0756 -0.1385575,0 -0.2189789,0.0921 -0.080421,0.0921 -0.080421,0.25095 l 0,0.61334 -0.1792526,0 0,-0.64919 q 0,-0.15697 -0.055229,-0.23157 -0.055229,-0.0756 -0.1705322,-0.0756 -0.1366196,0 -0.217041,0.093 -0.080421,0.0921 -0.080421,0.24998 l 0,0.61334 -0.1792526,0 0,-1.08521 0.1792526,0 0,0.1686 q 0.061043,-0.0998 0.1463089,-0.14728 0.085266,-0.0475 0.202507,-0.0475 0.1182099,0 0.2005692,0.0601 0.083328,0.0601 0.1230545,0.17441 z"/><path style="stroke:none;stroke-width:.07937501" id="path5927" d="m 9.7797003,201.55731 0.1782837,0 0,1.08521 -0.1782837,0 0,-1.08521 z m 0,-0.42245 0.1782837,0 0,0.22576 -0.1782837,0 0,-0.22576 z"/><path style="stroke:none;stroke-width:.07937501" id="path5929" d="m 11.232131,201.55731 -0.392418,0.52807 0.412766,0.55714 -0.210259,0 -0.315872,-0.42633 -0.315872,0.42633 -0.210259,0 0.421486,-0.5678 -0.385635,-0.51741 0.210258,0 0.287773,0.38661 0.287774,-0.38661 0.210258,0 z"/><path style="stroke:none;stroke-width:.07937501" id="path5931" d="m 12.370627,202.05534 0,0.0872 -0.819717,0 q 0.01163,0.18409 0.110458,0.28099 0.0998,0.0959 0.277115,0.0959 0.102707,0 0.198632,-0.0252 0.09689,-0.0252 0.191848,-0.0756 l 0,0.1686 q -0.09592,0.0407 -0.196693,0.062 -0.100769,0.0213 -0.204445,0.0213 -0.259674,0 -0.411797,-0.15116 -0.151153,-0.15115 -0.151153,-0.40889 0,-0.26645 0.143402,-0.42245 0.144371,-0.15697 0.388542,-0.15697 0.218979,0 0.345909,0.14147 0.127899,0.14049 0.127899,0.38272 z m -0.178283,-0.0523 q -0.0019,-0.14631 -0.08236,-0.23351 -0.07945,-0.0872 -0.211227,-0.0872 -0.149216,0 -0.239326,0.0843 -0.08914,0.0843 -0.102707,0.23739 l 0.63562,-9.7e-4 z"/><path style="stroke:none;stroke-width:.07937501" id="path5933" d="m 13.288207,201.72397 q -0.03004,-0.0174 -0.06589,-0.0252 -0.03488,-0.009 -0.07752,-0.009 -0.151154,0 -0.232544,0.0988 -0.08042,0.0979 -0.08042,0.28196 l 0,0.57167 -0.179253,0 0,-1.08521 0.179253,0 0,0.1686 q 0.0562,-0.0988 0.146308,-0.14631 0.09011,-0.0485 0.218979,-0.0485 0.01841,0 0.0407,0.003 0.02229,0.002 0.04941,0.007 l 9.69e-4,0.18313 z"/></g><g style="font-style:normal;font-variant:normal;font-weight:400;font-stretch:normal;font-size:4.63020849px;font-family:sans-serif;-inkscape-font-specification:sans-serif;fill:#fff;fill-opacity:1;stroke:none;stroke-width:.30000001;stroke-miterlimit:4;stroke-dasharray:none;stroke-opacity:1" id="text5902"><path id="path5936" d="m 1.0583334,197.318 1.9398041,0 0,0.38434 -1.4831137,0 0,0.99477 1.3384197,0 0,0.38434 -1.3384197,0 0,1.61199 -0.4566904,0 0,-3.37544 z"/><path id="path5938" d="m 4.4292517,199.42058 q -0.5041682,0 -0.6986008,0.1153 -0.1944326,0.11531 -0.1944326,0.39339 0,0.22156 0.144694,0.35269 0.1469549,0.12887 0.3979085,0.12887 0.3459092,0 0.5539068,-0.24417 0.2102585,-0.24643 0.2102585,-0.65338 l 0,-0.0927 -0.4137344,0 z m 0.8297297,-0.17182 0,1.44468 -0.4159953,0 0,-0.38435 q -0.1424332,0.23061 -0.3549525,0.34139 -0.2125193,0.10852 -0.5199941,0.10852 -0.3888652,0 -0.6194713,-0.21704 -0.2283452,-0.2193 -0.2283452,-0.58556 0,-0.4273 0.2848663,-0.64434 0.2871272,-0.21704 0.8545991,-0.21704 l 0.5832977,0 0,-0.0407 q 0,-0.28712 -0.1899109,-0.44312 -0.18765,-0.15826 -0.5290375,-0.15826 -0.217041,0 -0.4227778,0.052 -0.2057368,0.052 -0.3956477,0.156 l 0,-0.38435 q 0.2283452,-0.0882 0.4431254,-0.13113 0.2147802,-0.0452 0.4182562,-0.0452 0.5493851,0 0.8206863,0.28486 0.2713013,0.28487 0.2713013,0.86365 z"/><path id="path5940" d="m 6.1316673,197.17556 0.4159952,0 0,3.51788 -0.4159952,0 0,-3.51788 z"/><path id="path5942" d="m 7.4158264,197.17556 0.4159953,0 0,3.51788 -0.4159953,0 0,-3.51788 z"/><path id="path5944" d="m 10.314229,198.2359 0,0.39339 q -0.176346,-0.0904 -0.366257,-0.13566 -0.1899109,-0.0452 -0.3933869,-0.0452 -0.3097356,0 -0.4657338,0.095 -0.1537374,0.095 -0.1537374,0.28487 0,0.14469 0.1107813,0.22834 0.1107814,0.0814 0.4453863,0.156 l 0.1424332,0.0316 q 0.4431253,0.095 0.6285143,0.26905 0.18765,0.17182 0.18765,0.48155 0,0.3527 -0.280344,0.55843 -0.2780841,0.20574 -0.7664264,0.20574 -0.203476,0 -0.4250387,-0.0407 -0.2193019,-0.0384 -0.463473,-0.11756 l 0,-0.42956 q 0.2306061,0.11983 0.4544296,0.18087 0.2238236,0.0588 0.4431255,0.0588 0.2939097,0 0.4521688,-0.0995 0.1582592,-0.10173 0.1582592,-0.28486 0,-0.16957 -0.1153032,-0.26 -0.1130422,-0.0904 -0.4996465,-0.17409 l -0.1446941,-0.0339 q -0.3866043,-0.0814 -0.5584284,-0.24869 -0.1718242,-0.16956 -0.1718242,-0.46347 0,-0.35722 0.2532146,-0.55165 0.2532145,-0.19443 0.7189484,-0.19443 0.230606,0 0.434082,0.0339 0.2034764,0.0339 0.3753004,0.10174 z"/></g><path style="fill:#3e77ca;fill-opacity:1;stroke:none;stroke-width:.30000001;stroke-miterlimit:4;stroke-dasharray:none;stroke-opacity:1" id="rect6582" d="m 11.730828,212.25488 1.948154,0 -1.016428,3.31606 z"/><path id="path6585" d="m 11.730828,225.31507 1.948154,0 -1.016428,3.31607 z" style="fill:#3e77ca;fill-opacity:1;stroke:none;stroke-width:.30000001;stroke-miterlimit:4;stroke-dasharray:none;stroke-opacity:1"/><path style="fill:#3e77ca;fill-opacity:1;stroke:none;stroke-width:.30000001;stroke-miterlimit:4;stroke-dasharray:none;stroke-opacity:1" id="path6587" d="m 11.730828,238.37526 1.948154,0 -1.016428,3.31607 z"/><path id="path6589" d="m 11.730828,251.43545 1.948154,0 -1.016428,3.31606 z" style="fill:#3e77ca;fill-opacity:1;stroke:none;stroke-width:.30000001;stroke-miterlimit:4;stroke-dasharray:none;stroke-opacity:1"/><path style="fill:#3e77ca;fill-opacity:1;stroke:none;stroke-width:.30000001;stroke-miterlimit:4;stroke-dasharray:none;stroke-opacity:1" id="path6591" d="m 11.730828,264.49564 1.948154,0 -1.016428,3.31607 z"/><g style="font-style:normal;font-variant:normal;font-weight:400;font-stretch:normal;font-size:1.984375px;font-family:sans-serif;-inkscape-font-specification:sans-serif;fill:#fff;fill-opacity:1;stroke:none;stroke-width:3.54330707;stroke-miterlimit:4;stroke-dasharray:none;stroke-opacity:1" id="text5032" transform="translate(0,-2.1166668)"><path id="path5061" d="m 2.6985078,287.75746 0.3197479,0 0,-1.10361 -0.347847,0.0698 0,-0.17828 0.3459091,-0.0698 0.1957245,0 0,1.2819 0.319748,0 0,0.16472 -0.8332825,0 0,-0.16472 z"/></g><g style="font-style:normal;font-variant:normal;font-weight:400;font-stretch:normal;font-size:1.984375px;font-family:sans-serif;-inkscape-font-specification:sans-serif;fill:#fff;fill-opacity:1;stroke:none;stroke-width:3.54330707;stroke-miterlimit:4;stroke-dasharray:none;stroke-opacity:1" id="text5036" transform="translate(0,-2.1166668)"><path id="path5056" d="m 11.955983,287.72935 0.319748,0 0,-1.10361 -0.347847,0.0698 0,-0.17828 0.345909,-0.0698 0.195725,0 0,1.28189 0.319748,0 0,0.16472 -0.833283,0 0,-0.16472 z"/><path id="path5058" d="m 13.604138,286.57632 q -0.151153,0 -0.227699,0.14922 -0.07558,0.14825 -0.07558,0.44668 0,0.29746 0.07558,0.44668 0.07655,0.14824 0.227699,0.14824 0.152123,0 0.2277,-0.14824 0.07655,-0.14922 0.07655,-0.44668 0,-0.29843 -0.07655,-0.44668 -0.07558,-0.14922 -0.2277,-0.14922 z m 0,-0.15502 q 0.243203,0 0.371102,0.19281 0.128868,0.19185 0.128868,0.55811 0,0.36529 -0.128868,0.5581 -0.127899,0.19185 -0.371102,0.19185 -0.243202,0 -0.37207,-0.19185 -0.127899,-0.19281 -0.127899,-0.5581 0,-0.36626 0.127899,-0.55811 0.128868,-0.19281 0.37207,-0.19281 z"/></g><g style="font-style:normal;font-variant:normal;font-weight:400;font-stretch:normal;font-size:1.984375px;font-family:sans-serif;-inkscape-font-specification:sans-serif;fill:#fff;fill-opacity:1;stroke:none;stroke-width:3.54330707;stroke-miterlimit:4;stroke-dasharray:none;stroke-opacity:1" id="text5040" transform="translate(0,6.8791671)"><path id="path5045" d="m 5.8266797,281.00443 q -0.030037,-0.0174 -0.065887,-0.0252 -0.034882,-0.009 -0.077515,-0.009 -0.1511536,0 -0.2325439,0.0988 -0.080421,0.0979 -0.080421,0.28196 l 0,0.57167 -0.1792526,0 0,-1.0852 0.1792526,0 0,0.16859 q 0.056198,-0.0988 0.1463089,-0.14631 0.090111,-0.0484 0.2189789,-0.0484 0.01841,0 0.040695,0.003 0.022285,0.002 0.049416,0.007 l 9.689e-4,0.18313 z"/><path id="path5047" d="m 6.5088086,281.37746 q -0.2160721,0 -0.2994003,0.0494 -0.083328,0.0494 -0.083328,0.16859 0,0.095 0.062012,0.15116 0.062981,0.0552 0.1705322,0.0552 0.1482467,0 0.2373886,-0.10465 0.090111,-0.10561 0.090111,-0.28002 l 0,-0.0397 -0.1773148,0 z m 0.3555985,-0.0736 0,0.61914 -0.1782837,0 0,-0.16471 q -0.061043,0.0988 -0.1521225,0.1463 -0.09108,0.0465 -0.2228546,0.0465 -0.1666565,0 -0.2654877,-0.093 -0.097862,-0.094 -0.097862,-0.25096 0,-0.18313 0.1220856,-0.27614 0.1230545,-0.093 0.3662567,-0.093 l 0.2499848,0 0,-0.0174 q 0,-0.12306 -0.08139,-0.18991 -0.080422,-0.0678 -0.2267304,-0.0678 -0.093018,0 -0.1811904,0.0223 -0.088173,0.0223 -0.1695633,0.0668 l 0,-0.16472 q 0.097862,-0.0378 0.1899108,-0.0562 0.092049,-0.0194 0.1792527,-0.0194 0.2354507,0 0.3517227,0.12208 0.116272,0.12209 0.116272,0.37014 z"/><path id="path5049" d="m 8.1385541,281.26797 0,0.655 -0.1782837,0 0,-0.64918 q 0,-0.15406 -0.060074,-0.23061 -0.060074,-0.0765 -0.1802216,-0.0765 -0.144371,0 -0.2276993,0.0921 -0.083328,0.092 -0.083328,0.25095 l 0,0.61333 -0.1792527,0 0,-1.0852 0.1792527,0 0,0.16859 q 0.06395,-0.0979 0.1501846,-0.14631 0.087204,-0.0484 0.2005692,-0.0484 0.187004,0 0.2829284,0.11627 0.095924,0.1153 0.095924,0.34009 z"/><path id="path5051" d="m 9.2101941,281.36777 q 0,-0.19378 -0.080421,-0.30036 -0.079453,-0.10659 -0.2238236,-0.10659 -0.1434021,0 -0.2238235,0.10659 -0.079453,0.10658 -0.079453,0.30036 0,0.19282 0.079453,0.29941 0.080421,0.10658 0.2238235,0.10658 0.144371,0 0.2238236,-0.10658 0.080421,-0.10659 0.080421,-0.29941 z m 0.1782837,0.42052 q 0,0.27712 -0.1230545,0.4118 -0.1230545,0.13565 -0.376915,0.13565 -0.093986,0 -0.1773147,-0.0145 -0.083328,-0.0136 -0.1618119,-0.0426 l 0,-0.17344 q 0.078484,0.0426 0.1550293,0.063 0.076546,0.0204 0.1559983,0.0204 0.1753769,0 0.2625808,-0.0921 0.087204,-0.0911 0.087204,-0.27614 l 0,-0.0882 q -0.055229,0.0959 -0.1414642,0.14341 -0.086235,0.0475 -0.2063828,0.0475 -0.1996002,0 -0.3216858,-0.15212 -0.1220855,-0.15212 -0.1220855,-0.40308 0,-0.25192 0.1220855,-0.40404 0.1220856,-0.15212 0.3216858,-0.15212 0.1201477,0 0.2063828,0.0475 0.086235,0.0475 0.1414642,0.1434 l 0,-0.16472 0.1782837,0 0,0.95052 z"/><path id="path5053" d="m 10.683941,281.3358 0,0.0872 -0.819717,0 q 0.011627,0.1841 0.1104583,0.28099 0.0998,0.0959 0.2771147,0.0959 0.102707,0 0.198631,-0.0252 0.09689,-0.0252 0.191849,-0.0756 l 0,0.16859 q -0.09592,0.0407 -0.196693,0.062 -0.100769,0.0213 -0.204445,0.0213 -0.2596741,0 -0.4117966,-0.15115 -0.1511536,-0.15115 -0.1511536,-0.40889 0,-0.26646 0.1434021,-0.42246 0.144371,-0.15696 0.3885421,-0.15696 0.218979,0 0.345909,0.14146 0.127899,0.1405 0.127899,0.38273 z m -0.178283,-0.0523 q -0.0019,-0.14631 -0.08236,-0.23352 -0.07945,-0.0872 -0.211227,-0.0872 -0.149216,0 -0.2393265,0.0843 -0.089142,0.0843 -0.1027069,0.23739 l 0.6356204,-9.7e-4 z"/></g></g><g id="layer3" style="display:none"><rect style="display:inline;opacity:1;fill:#ff0200;fill-opacity:1;stroke:none;stroke-width:1;stroke-miterlimit:4;stroke-dasharray:none;stroke-opacity:1" id="rect5091" width="5.643" height="5.557" x="22.004" y="51.12"/><rect style="display:inline;opacity:1;fill:#0f0;fill-opacity:1;stroke:none;stroke-width:1;stroke-miterlimit:4;stroke-dasharray:none;stroke-opacity:1" id="rect5093" width="5.215" height="5.215" x="22.084" y="45.009"/><rect style="display:inline;opacity:1;fill:#00f;fill-opacity:1;stroke:none;stroke-width:1;stroke-miterlimit:4;stroke-dasharray:none;stroke-opacity:1" id="rect4969" width="5.386" height="5.386" x="22.383" y="83.223"/><rect style="display:inline;opacity:1;fill:#0f0;fill-opacity:1;stroke:none;stroke-width:1;stroke-miterlimit:4;stroke-dasharray:none;stroke-opacity:1" id="rect4975" width="5.355" height="5.591" x="2.329" y="75.109"/><rect style="display:inline;opacity:1;fill:#0f0;fill-opacity:1;stroke:none;stroke-width:1;stroke-miterlimit:4;stroke-dasharray:none;stroke-opacity:1" id="rect4979" width="5.557" height="5.557" x="2.44" y="44.96"/><rect style="display:inline;opacity:1;fill:#0f0;fill-opacity:1;stroke:none;stroke-width:1;stroke-miterlimit:4;stroke-dasharray:none;stroke-opacity:1" id="rect4981" width="5.728" height="5.728" x="11.819" y="44.461"/><rect style="display:inline;opacity:1;fill:#0f0;fill-opacity:1;stroke:none;stroke-width:1;stroke-miterlimit:4;stroke-dasharray:none;stroke-opacity:1" id="rect4983" width="5.814" height="5.814" x="21.571" y="27.209"/><rect style="display:inline;opacity:1;fill:#0f0;fill-opacity:1;stroke:none;stroke-width:1;stroke-miterlimit:4;stroke-dasharray:none;stroke-opacity:1" id="rect4989" width="5.557" height="5.557" x="12.466" y="27.43"/><rect style="display:inline;opacity:1;fill:#0f0;fill-opacity:1;stroke:none;stroke-width:1;stroke-miterlimit:4;stroke-dasharray:none;stroke-opacity:1" id="rect4991" width="5.301" height="5.301" x="2.329" y="17.041"/><rect style="display:inline;opacity:1;fill:#0f0;fill-opacity:1;stroke:none;stroke-width:1;stroke-miterlimit:4;stroke-dasharray:none;stroke-opacity:1" id="rect5041" width="5.728" height="5.728" x="2.757" y="27.47"/><rect style="display:inline;opacity:1;fill:red;fill-opacity:1;stroke:none;stroke-width:1;stroke-miterlimit:4;stroke-dasharray:none;stroke-opacity:1" id="rect5043" width="5.728" height="5.728" x="2.757" y="34.257"/><rect style="display:inline;opacity:1;fill:red;fill-opacity:1;stroke:none;stroke-width:1;stroke-miterlimit:4;stroke-dasharray:none;stroke-opacity:1" id="rect5045" width="5.044" height="5.386" x="12.722" y="34.046"/><rect style="display:inline;opacity:1;fill:red;fill-opacity:1;stroke:none;stroke-width:1;stroke-miterlimit:4;stroke-dasharray:none;stroke-opacity:1" id="rect5047" width="5.386" height="5.386" x="21.785" y="34.081"/><rect style="display:inline;opacity:1;fill:red;fill-opacity:1;stroke:none;stroke-width:1;stroke-miterlimit:4;stroke-dasharray:none;stroke-opacity:1" id="rect5049" width="5.472" height="5.472" x="12.204" y="51.206"/><rect style="display:inline;opacity:1;fill:red;fill-opacity:1;stroke:none;stroke-width:1;stroke-miterlimit:4;stroke-dasharray:none;stroke-opacity:1" id="rect5053" width="5.301" height="5.472" x="12.046" y="77.942"/><rect style="display:inline;opacity:1;fill:#0f0;fill-opacity:1;stroke:none;stroke-width:1;stroke-miterlimit:4;stroke-dasharray:none;stroke-opacity:1" id="rect4923" width="5.643" height="5.459" x="2.329" y="83.48"/><rect style="display:inline;opacity:1;fill:red;fill-opacity:1;stroke:none;stroke-width:1;stroke-miterlimit:4;stroke-dasharray:none;stroke-opacity:1" id="rect4945" width="5.215" height="5.215" x="10.158" y="17.127"/><rect style="display:inline;opacity:1;fill:#00f;fill-opacity:1;stroke:none;stroke-width:1;stroke-miterlimit:4;stroke-dasharray:none;stroke-opacity:1" id="rect4947" width="5.63" height="5.472" x="22.383" y="74.895"/><rect style="display:inline;opacity:1;fill:#0f0;fill-opacity:1;stroke:none;stroke-width:1;stroke-miterlimit:4;stroke-dasharray:none;stroke-opacity:1" id="rect5332" width="5.472" height="5.472" x="2.223" y="10.317"/></g></svg>