<svg xmlns="http://www.w3.org/2000/svg" xmlns:svg="http://www.w3.org/2000/svg" id="svg56722" width="21" height="14" version="1.1" viewBox="0 0 5.556 3.704"><metadata id="metadata56719"/><g id="layer1" transform="translate(-35.423779,-65.096333)"><g id="g11031" transform="matrix(1,0,0,-1,0.157954,133.89682)"><path style="fill:#848789;fill-opacity:1;fill-rule:nonzero;stroke:none;stroke-width:1.2817142" id="path5785" d="m 35.725594,65.096329 c -0.212396,0 -0.38662,0.175878 -0.38662,0.390289 l 0,2.923589 c 0,0.214411 0.174224,0.390289 0.38662,0.390289 l 4.636985,0 c 0.212396,0 0.386347,-0.175878 0.386347,-0.390289 l 0,-2.923589 c 0,-0.214411 -0.173951,-0.390289 -0.386347,-0.390289 z"/><g style="fill:#282828;fill-opacity:1;stroke-width:1.2817142" id="g5795" transform="matrix(0,0.27523902,-0.27265158,0,354.00956,-150.55559)"><g style="fill:#282828;fill-opacity:1;stroke-width:1.2817142" id="g5797"><path id="path5805" d="m 785.616,1167.502 c -0.468,0 -0.85,-0.382 -0.85,-0.85 l 0,0 0,-15.724 c 0,-0.468 0.382,-0.851 0.85,-0.851 l 0,0 9.241,0 c 0.466,0 0.849,0.383 0.849,0.851 l 0,0 0,15.724 c 0,0.468 -0.383,0.85 -0.849,0.85 l 0,0 z" style="fill:#282828;fill-opacity:1;stroke:none;stroke-width:1.2817142"/></g></g><path id="path5815" d="m 38.12062,65.44291 0,3.011115 2.318629,0 0,-3.011115 z" style="fill:#aaa;fill-opacity:1;fill-rule:nonzero;stroke:none;stroke-width:1.2817142"/><path id="path5817" d="m 39.152333,65.44291 0,3.011115 0.255202,0 0,-3.011115 z" style="fill:#444;fill-opacity:1;fill-rule:nonzero;stroke:none;stroke-width:1.2817142"/><path id="path5819" d="m 40.184047,65.44291 0,3.011115 0.255202,0 0,-3.011115 z" style="fill:#444;fill-opacity:1;fill-rule:nonzero;stroke:none;stroke-width:1.2817142"/><path id="path5821" d="m 39.668463,65.44291 0,3.011115 0.255202,0 0,-3.011115 z" style="fill:#444;fill-opacity:1;fill-rule:nonzero;stroke:none;stroke-width:1.2817142"/><path id="path5823" d="m 38.636477,65.44291 0,3.011115 0.255201,0 0,-3.011115 z" style="fill:#444;fill-opacity:1;fill-rule:nonzero;stroke:none;stroke-width:1.2817142"/><path id="path5825" d="m 38.12062,65.44291 0,3.011115 0.255202,0 0,-3.011115 z" style="fill:#444;fill-opacity:1;fill-rule:nonzero;stroke:none;stroke-width:1.2817142"/></g></g></svg>