<svg xmlns="http://www.w3.org/2000/svg" xmlns:svg="http://www.w3.org/2000/svg" xmlns:xlink="http://www.w3.org/1999/xlink" id="svg8" width="60" height="380" version="1.1" viewBox="0 0 15.875 100.542"><defs id="defs2"><linearGradient id="linearGradient4189"><stop id="stop4191" offset="0" style="stop-color:#fff;stop-opacity:1"/><stop id="stop4193" offset="1" style="stop-color:#000;stop-opacity:0"/></linearGradient><linearGradient id="linearGradient5349"><stop id="stop5351" offset="0" style="stop-color:#fdfdfd;stop-opacity:1"/><stop id="stop5353" offset="1" style="stop-color:#fdfdfd;stop-opacity:1"/></linearGradient><radialGradient id="radialGradient5357" cx="285.494" cy="856.052" r="69.827" fx="285.494" fy="856.052" gradientTransform="matrix(0.42180436,0,0,0.0267339,-115.78315,272.32424)" gradientUnits="userSpaceOnUse" xlink:href="#linearGradient5349"/><linearGradient id="linearGradient4195" x1="268.967" x2="279.915" y1="830.884" y2="832.532" gradientTransform="matrix(0.26458334,0,0,0.26458334,-61.724893,72.473327)" gradientUnits="userSpaceOnUse" xlink:href="#linearGradient4189"/><clipPath id="clipPath7394" clipPathUnits="userSpaceOnUse"><rect style="fill:#606060;fill-opacity:1;stroke:none;stroke-width:.264375;stroke-miterlimit:4;stroke-dasharray:none;stroke-opacity:1" id="rect7396" width="15.839" height="10.757" x="0" y="288.614" rx="0" ry="0"/></clipPath><clipPath id="clipPath7398" clipPathUnits="userSpaceOnUse"><rect style="fill:#606060;fill-opacity:1;stroke:none;stroke-width:.264375;stroke-miterlimit:4;stroke-dasharray:none;stroke-opacity:1" id="rect7400" width="15.839" height="10.757" x="0" y="288.614" rx="0" ry="0"/></clipPath><clipPath id="clipPath7402" clipPathUnits="userSpaceOnUse"><rect style="fill:#606060;fill-opacity:1;stroke:none;stroke-width:.264375;stroke-miterlimit:4;stroke-dasharray:none;stroke-opacity:1" id="rect7404" width="15.839" height="10.757" x="0" y="288.614" rx="0" ry="0"/></clipPath><clipPath id="clipPath7406" clipPathUnits="userSpaceOnUse"><rect style="fill:#606060;fill-opacity:1;stroke:none;stroke-width:.264375;stroke-miterlimit:4;stroke-dasharray:none;stroke-opacity:1" id="rect7408" width="66.427" height="45.113" x="257.801" y="-23.027" rx="0" ry="0"/></clipPath><clipPath id="clipPath7410" clipPathUnits="userSpaceOnUse"><rect style="fill:#606060;fill-opacity:1;stroke:none;stroke-width:.264375;stroke-miterlimit:4;stroke-dasharray:none;stroke-opacity:1" id="rect7412" width="15.839" height="10.757" x="0" y="288.614" rx="0" ry="0"/></clipPath><clipPath id="clipPath7414" clipPathUnits="userSpaceOnUse"><rect style="fill:#606060;fill-opacity:1;stroke:none;stroke-width:.264375;stroke-miterlimit:4;stroke-dasharray:none;stroke-opacity:1" id="rect7416" width="15.839" height="10.757" x="0" y="288.614" rx="0" ry="0"/></clipPath></defs><metadata id="metadata5"/><g id="layer1" transform="translate(0,-196.45832)" style="display:inline"><path style="opacity:1;fill:#000;fill-opacity:1;fill-rule:evenodd;stroke:none;stroke-width:.48607069;stroke-linecap:butt;stroke-linejoin:round;stroke-miterlimit:4;stroke-dasharray:none;stroke-dashoffset:0;stroke-opacity:1;paint-order:normal" id="rect817" d="m 0,196.45831 15.875001,0 0,100.54168 -15.875001,0 z"/><path style="opacity:1;fill:url(#radialGradient5357);fill-opacity:1;stroke:#8b8b8b;stroke-width:.39687502;stroke-linejoin:miter;stroke-miterlimit:4;stroke-dasharray:none;stroke-opacity:1" id="path5329" d="m 21.682492,295.06553 -17.0428264,-0.12503 -14.417247,0.12503 -0.8787326,-3.46985 c 4.8099262,-1.00484 10.75039932,-1.72449 16.1711727,-1.71947 5.7152853,0.005 9.8861203,0.46573 17.0463653,1.84449 z" clip-path="url(#clipPath7414)" transform="matrix(-1,0,0,1,15.839336,0)"/><path id="rect5381" d="M -9.8009531,292.12562 C 1.10346,290.91578 11.744715,291.13594 21.949048,292.24831 l -0.03339,3.29649 -31.7166111,0 z" clip-path="url(#clipPath7410)" transform="matrix(-1,0,0,1,15.839336,0)" style="opacity:1;fill:#000;fill-opacity:1;stroke:none;stroke-width:1.00699997;stroke-linejoin:miter;stroke-miterlimit:4;stroke-dasharray:none;stroke-opacity:1"/><g id="g5348" clip-path="url(#clipPath7406)" transform="matrix(-0.23844891,0,0,0.23844891,77.311701,294.10517)"><path style="fill:#000;fill-opacity:1;fill-rule:evenodd;stroke:none;stroke-width:1px;stroke-linecap:butt;stroke-linejoin:miter;stroke-opacity:1" id="path4179" d="m 291.23228,-10.52707 6.43066,-3.03395 5.95249,-0.742 4.22115,0.51115 5.88653,2.16005 4.68284,4.36955 z"/><g id="layer2-0" transform="translate(109.83831,-148.57805)"><g id="layer2-5" transform="matrix(0.09824765,0,0,0.06980857,176.35705,132.53479)" style="stroke:#fff;stroke-opacity:1"><g id="g2852" style="stroke:#fff;stroke-opacity:1"><path style="color:#000;fill:none;stroke:#fff;stroke-width:2.89188218;stroke-linejoin:bevel;stroke-miterlimit:4;stroke-dasharray:none;stroke-opacity:1" id="path3614" d="m 2.1174,188.81 18.113,36.226 65.551,31.913 90.564,13.8 94.877,-11.213 60.376,-31.913 14.663,-30.188 -14.663,-37.951 0.32345,67.923 -33.099,-64.473 -25.876,96.602 -58.651,-80.214 -40.538,91.427 -40.538,-75.902 -46.576,61.239 -17.098,-92.852 -49.316,62.663 6.0376,-89.702 44.241,27.296 63.574,32.218 79.999,-16.819 86.467,-15.957 31.051,-3.6657 -33.27949,-62.050611 1.366,64.853611 -64.689,-74.392 -20.7,91.427 -69.001,-66.198 -75.902,50.026 15.35717,-82.554584 -59.34617,55.816584 24.151,-56.064 34.501,0 81.077,-37.088 -18.975,69.864 89.702,-24.151 62.101,7.7627 -66.314,-54.334 4.2124,46.571 -70.726,-45.713 66.414,-1.725 -53.476,-15.525 -12.938,16.388 -49.164,-6.9001 -66.414,44.851 -33.333,49.416 9.1828,6.6475 -23.288,52.614 z"/><path style="color:#000;fill:none;stroke:#fff;stroke-width:2.89188218;stroke-linejoin:bevel;stroke-miterlimit:4;stroke-dasharray:none;stroke-opacity:1" id="path3616" d="M 133.17,195.51 146.16,114.634 84.75317,79.116604 116.834,34.42 l 28.463,-4.3126 32.776,-5.1751 41.401,6.9001 12.938,10.35 47.438,20.7 18.975,34.501 30.188,30.188 2.8032,31.913"/><path style="color:#000;fill:none;stroke:#fff;stroke-width:2;stroke-linejoin:bevel;stroke-opacity:1" id="path3618" d="M 329.01,126.71 279.85,62.88 220.08,31.83"/><path style="color:#000;fill:none;stroke:#fff;stroke-width:2;stroke-linejoin:bevel;stroke-opacity:1" id="path3620" d="M 1.9262189,188.1862 16.108581,129.83899"/></g></g></g><path style="fill:none;fill-rule:evenodd;stroke:#fff;stroke-width:.2;stroke-linecap:butt;stroke-linejoin:miter;stroke-miterlimit:4;stroke-dasharray:none;stroke-opacity:1" id="path4177" d="m 320.18675,-2.24965 -1.66538,-4.93018"/><path style="opacity:0;fill:#000;fill-opacity:1;stroke:none;stroke-width:.2;stroke-miterlimit:4;stroke-dasharray:none;stroke-opacity:1" id="path4183" d="m 320.99471,-0.40290931 a 12.102836,4.2211528 0 0 1 -12.10283,4.22115281 12.102836,4.2211528 0 0 1 -12.10284,-4.22115281 12.102836,4.2211528 0 0 1 12.10284,-4.22115279 12.102836,4.2211528 0 0 1 12.10283,4.22115279 z"/></g><path style="opacity:0;fill:url(#linearGradient4195);fill-opacity:1;stroke:none;stroke-width:.2;stroke-miterlimit:4;stroke-dasharray:none;stroke-opacity:1" id="path4187" d="m 12.336001,292.74753 a 2.800842,1.0121423 0 0 1 -2.8008419,1.01214 2.800842,1.0121423 0 0 1 -2.800842,-1.01214 2.800842,1.0121423 0 0 1 2.800842,-1.01214 2.800842,1.0121423 0 0 1 2.8008419,1.01214 z" clip-path="url(#clipPath7402)" transform="matrix(-1,0,0,1,15.839336,0)"/><path id="path4209" d="m -6.9746129,292.21929 3.148468,-1.34092 1.3291208,0.4179 1.1077655,-0.7832 2.21552261,0.29151 0.93285199,-0.34981 3.0239306,0.97939 -1.041619,0.47818 -9.5034339,0.29152 z" clip-path="url(#clipPath7398)" transform="matrix(-1,0,0,1,15.839336,0)" style="fill:#000;fill-opacity:1;fill-rule:evenodd;stroke:none;stroke-width:1px;stroke-linecap:butt;stroke-linejoin:miter;stroke-opacity:1"/><g style="font-size:1.98437512px;opacity:1;fill:#fff;fill-opacity:1;stroke:none;stroke-width:2;stroke-miterlimit:4;stroke-dasharray:none;stroke-opacity:1" id="text12569" clip-path="url(#clipPath7394)" transform="translate(-0.03566455,0)"><path id="path7365" d="m 1.3933256,295.41759 0,0.1686 q -0.075577,-0.0388 -0.1569672,-0.0581 -0.08139,-0.0194 -0.1685943,-0.0194 -0.13274387,0 -0.19960025,0.0407 -0.0658875,0.0407 -0.0658875,0.12209 0,0.062 0.0474777,0.0979 0.0474777,0.0349 0.19087975,0.0668 l 0.061043,0.0136 q 0.1899109,0.0407 0.2693635,0.1153 0.080421,0.0736 0.080421,0.20638 0,0.15116 -0.1201477,0.23933 -0.1191788,0.0882 -0.3284683,0.0882 -0.087204,0 -0.18215945,-0.0174 -0.0939865,-0.0165 -0.1986313,-0.0504 l 0,-0.1841 q 0.0988312,0.0514 0.19475557,0.0775 0.0959244,0.0252 0.18991088,0.0252 0.1259613,0 0.1937866,-0.0426 0.067825,-0.0436 0.067825,-0.12209 0,-0.0727 -0.049416,-0.11143 -0.048447,-0.0387 -0.2141343,-0.0746 l -0.0620117,-0.0145 q -0.16568757,-0.0349 -0.23932649,-0.10658 -0.0736389,-0.0727 -0.0736389,-0.19863 0,-0.15309 0.10852051,-0.23642 0.10852052,-0.0833 0.30812068,-0.0833 0.098831,0 0.1860352,0.0145 0.087204,0.0145 0.1608429,0.0436 z"/><path id="path7367" d="m 2.7885895,295.51061 q -0.1434021,0 -0.2267303,0.1124 -0.083328,0.11143 -0.083328,0.30618 0,0.19476 0.082359,0.30715 0.083328,0.11143 0.2276993,0.11143 0.1424332,0 0.2257614,-0.1124 0.083328,-0.11239 0.083328,-0.30618 0,-0.19282 -0.083328,-0.30521 -0.083328,-0.11337 -0.2257614,-0.11337 z m 0,-0.15115 q 0.232544,0 0.3652878,0.15115 0.1327439,0.15116 0.1327439,0.41858 0,0.26646 -0.1327439,0.41858 -0.1327438,0.15115 -0.3652878,0.15115 -0.2335129,0 -0.3662567,-0.15115 -0.1317749,-0.15212 -0.1317749,-0.41858 0,-0.26742 0.1317749,-0.41858 0.1327438,-0.15115 0.3662567,-0.15115 z"/><path id="path7369" d="m 4.1945117,296.04256 0,-0.65694 0.1782837,0 0,0.65015 q 0,0.15406 0.060074,0.23158 0.060074,0.0765 0.1802216,0.0765 0.144371,0 0.2276993,-0.092 0.084297,-0.092 0.084297,-0.25096 l 0,-0.61527 0.1782837,0 0,1.08521 -0.1782837,0 0,-0.16666 q -0.064919,0.0988 -0.1511536,0.14728 -0.085266,0.0475 -0.1986313,0.0475 -0.1870041,0 -0.2838974,-0.11627 -0.096893,-0.11627 -0.096893,-0.34009 z"/><path id="path7371" d="m 6.2806246,295.0775 0,0.30812 0.3672257,0 0,0.13856 -0.3672257,0 0,0.58911 q 0,0.13274 0.035851,0.17053 0.036819,0.0378 0.1482468,0.0378 l 0.1831283,0 0,0.14922 -0.1831283,0 q -0.2063828,0 -0.2848664,-0.0765 -0.078484,-0.0775 -0.078484,-0.28099 l 0,-0.58911 -0.130806,0 0,-0.13856 0.130806,0 0,-0.30812 0.1792526,0 z"/><path id="path7373" d="m 8.4171222,295.81583 0,0.655 -0.1782837,0 0,-0.64919 q 0,-0.15406 -0.060074,-0.23061 -0.060074,-0.0765 -0.1802215,-0.0765 -0.1443711,0 -0.2276993,0.092 -0.083328,0.0921 -0.083328,0.25095 l 0,0.61334 -0.1792526,0 0,-1.50766 0.1792526,0 0,0.59104 q 0.06395,-0.0979 0.1501847,-0.1463 0.087204,-0.0485 0.2005691,-0.0485 0.1870041,0 0.2829285,0.11627 0.095924,0.1153 0.095924,0.3401 z"/><path id="path7375" d="m 9.5788734,296.30804 0,0.57555 -0.1792526,0 0,-1.49797 0.1792526,0 0,0.16472 q 0.056198,-0.0969 0.1414643,-0.1434 0.086235,-0.0475 0.2054138,-0.0475 0.1976625,0 0.3207165,0.15697 0.124024,0.15696 0.124024,0.41276 0,0.2558 -0.124024,0.41277 -0.123054,0.15696 -0.3207165,0.15696 -0.1191788,0 -0.2054138,-0.0465 -0.085266,-0.0475 -0.1414643,-0.14438 z m 0.6065526,-0.37885 q 0,-0.19669 -0.08139,-0.30812 -0.08042,-0.1124 -0.2218855,-0.1124 -0.1414642,0 -0.2228546,0.1124 -0.080421,0.11143 -0.080421,0.30812 0,0.19669 0.080421,0.30909 0.08139,0.11143 0.2228546,0.11143 0.1414645,0 0.2218855,-0.11143 0.08139,-0.1124 0.08139,-0.30909 z"/><path id="path7377" d="m 11.718278,295.51061 q -0.143402,0 -0.226731,0.1124 -0.08333,0.11143 -0.08333,0.30618 0,0.19476 0.08236,0.30715 0.08333,0.11143 0.2277,0.11143 0.142433,0 0.225761,-0.1124 0.08333,-0.11239 0.08333,-0.30618 0,-0.19282 -0.08333,-0.30521 -0.08333,-0.11337 -0.225761,-0.11337 z m 0,-0.15115 q 0.232544,0 0.365288,0.15115 0.132743,0.15116 0.132743,0.41858 0,0.26646 -0.132743,0.41858 -0.132744,0.15115 -0.365288,0.15115 -0.233513,0 -0.366257,-0.15115 -0.131775,-0.15212 -0.131775,-0.41858 0,-0.26742 0.131775,-0.41858 0.132744,-0.15115 0.366257,-0.15115 z"/><path id="path7379" d="m 13.142609,294.96317 0.178284,0 0,1.50766 -0.178284,0 0,-1.50766 z"/><path id="path7381" d="m 15.252946,295.88365 0,0.0872 -0.819718,0 q 0.01163,0.18409 0.110459,0.28099 0.0998,0.0959 0.277115,0.0959 0.102706,0 0.198631,-0.0252 0.09689,-0.0252 0.191849,-0.0756 l 0,0.1686 q -0.09593,0.0407 -0.196694,0.062 -0.100769,0.0213 -0.204445,0.0213 -0.259674,0 -0.411796,-0.15115 -0.151154,-0.15115 -0.151154,-0.40889 0,-0.26646 0.143402,-0.42245 0.144371,-0.15697 0.388542,-0.15697 0.218979,0 0.34591,0.14146 0.127899,0.1405 0.127899,0.38273 z m -0.178284,-0.0523 q -0.0019,-0.14631 -0.08236,-0.23351 -0.07945,-0.0872 -0.211228,-0.0872 -0.149215,0 -0.239326,0.0843 -0.08914,0.0843 -0.102707,0.23739 l 0.63562,-9.7e-4 z"/></g><g style="font-size:4.63020849px;opacity:1;fill:#fff;fill-opacity:1;stroke:none;stroke-width:.30000001;stroke-miterlimit:10;stroke-dasharray:none;stroke-opacity:1" id="text4306"><path id="path4391" d="m 2.9251568,197.55298 0,0.44539 q -0.259997,-0.12435 -0.4906031,-0.18539 -0.2306061,-0.061 -0.4453863,-0.061 -0.3730392,0 -0.5765152,0.14469 -0.2012151,0.1447 -0.2012151,0.41148 0,0.22382 0.1333898,0.33912 0.1356506,0.11304 0.5109507,0.18313 l 0.275823,0.0565 q 0.5109507,0.0972 0.752861,0.34365 0.2441712,0.24417 0.2441712,0.65564 0,0.49061 -0.3300832,0.74382 -0.3278224,0.25322 -0.9631196,0.25322 -0.2396494,0 -0.5109507,-0.0543 -0.2690404,-0.0543 -0.55842847,-0.16052 l 0,-0.47026 q 0.27808377,0.156 0.54486337,0.23513 0.2667796,0.0791 0.5245158,0.0791 0.391126,0 0.6036454,-0.15374 0.2125193,-0.15374 0.2125193,-0.4386 0,-0.2487 -0.1537374,-0.38887 -0.1514765,-0.14017 -0.4996465,-0.21026 L 1.720127,199.2667 q -0.5109508,-0.10173 -0.73929599,-0.31878 -0.22834525,-0.21704 -0.22834525,-0.60364 0,-0.44765 0.31425734,-0.70538 0.3165181,-0.25774 0.8704249,-0.25774 0.2373886,0 0.4838206,0.043 0.246432,0.043 0.5041682,0.12886 z"/><path id="path4393" d="m 5.4459979,198.3601 0,0.39339 q -0.1763458,-0.0904 -0.3662567,-0.13565 -0.1899109,-0.0452 -0.3933868,-0.0452 -0.3097357,0 -0.4657339,0.095 -0.1537374,0.095 -0.1537374,0.28487 0,0.14469 0.1107814,0.22834 0.1107813,0.0814 0.4453862,0.156 l 0.1424332,0.0316 q 0.4431254,0.095 0.6285146,0.26904 0.1876501,0.17183 0.1876501,0.48156 0,0.35269 -0.2803447,0.55843 -0.2780838,0.20574 -0.7664261,0.20574 -0.2034759,0 -0.4250387,-0.0407 -0.2193018,-0.0384 -0.463473,-0.11756 l 0,-0.42956 q 0.2306061,0.11982 0.4544297,0.18086 0.2238235,0.0588 0.4431254,0.0588 0.2939097,0 0.4521688,-0.0995 0.1582591,-0.10174 0.1582591,-0.28487 0,-0.16956 -0.1153031,-0.25999 -0.1130422,-0.0904 -0.4996465,-0.17409 l -0.144694,-0.0339 q -0.3866043,-0.0814 -0.5584285,-0.24869 -0.1718241,-0.16957 -0.1718241,-0.46348 0,-0.35721 0.2532145,-0.55164 0.2532145,-0.19444 0.7189484,-0.19444 0.2306061,0 0.434082,0.0339 0.203476,0.0339 0.3753001,0.10173 z"/><path id="path4395" d="m 7.8605792,198.3601 0,0.39339 q -0.1763458,-0.0904 -0.3662567,-0.13565 -0.1899109,-0.0452 -0.3933868,-0.0452 -0.3097357,0 -0.4657339,0.095 -0.1537374,0.095 -0.1537374,0.28487 0,0.14469 0.1107814,0.22834 0.1107813,0.0814 0.4453862,0.156 l 0.1424332,0.0316 q 0.4431254,0.095 0.6285146,0.26904 0.1876501,0.17183 0.1876501,0.48156 0,0.35269 -0.2803447,0.55843 -0.2780838,0.20574 -0.7664261,0.20574 -0.2034759,0 -0.4250387,-0.0407 -0.2193018,-0.0384 -0.463473,-0.11756 l 0,-0.42956 q 0.2306061,0.11982 0.4544297,0.18086 0.2238235,0.0588 0.4431254,0.0588 0.2939097,0 0.4521688,-0.0995 0.1582591,-0.10174 0.1582591,-0.28487 0,-0.16956 -0.1153031,-0.25999 -0.1130422,-0.0904 -0.4996465,-0.17409 l -0.144694,-0.0339 q -0.3866043,-0.0814 -0.5584285,-0.24869 -0.1718241,-0.16957 -0.1718241,-0.46348 0,-0.35721 0.2532145,-0.55164 0.2532145,-0.19444 0.7189484,-0.19444 0.2306061,0 0.434082,0.0339 0.203476,0.0339 0.3753001,0.10173 z"/><path id="path4397" d="m 10.765764,199.28931 0,1.52833 -0.415996,0 0,-1.51476 q 0,-0.35948 -0.140172,-0.53808 -0.140172,-0.17861 -0.4205169,-0.17861 -0.3368658,0 -0.5312984,0.21478 -0.1944325,0.21478 -0.1944325,0.58556 l 0,1.43111 -0.4182562,0 0,-3.51787 0.4182562,0 0,1.37911 q 0.1492157,-0.22834 0.3504308,-0.34138 0.2034759,-0.11305 0.4679947,-0.11305 0.4363433,0 0.6601663,0.27131 0.223824,0.26904 0.223824,0.79355 z"/><path id="path4399" d="m 11.658797,200.24339 0.477038,0 0,0.57425 -0.477038,0 0,-0.57425 z"/><path id="path4401" d="m 13.132867,200.24339 0.477038,0 0,0.57425 -0.477038,0 0,-0.57425 z"/><path id="path4403" d="m 14.606938,200.24339 0.477038,0 0,0.57425 -0.477038,0 0,-0.57425 z"/></g><g id="g4405" transform="translate(0,-0.52916669)"><g id="text4310" transform="translate(0,-2.6458335)" style="font-size:2.64583349px;opacity:1;fill:#fff;fill-opacity:1;stroke:none;stroke-width:.30000001;stroke-miterlimit:10;stroke-dasharray:none;stroke-opacity:1"><path id="path4373" d="m 2.4789432,283.67864 0,0.87333 -0.2377116,0 0,-0.86558 q 0,-0.20541 -0.080099,-0.30747 -0.080098,-0.10206 -0.2402954,-0.10206 -0.1924948,0 -0.3035991,0.12273 -0.1111043,0.12273 -0.1111043,0.3346 l 0,0.81778 -0.2390036,0 0,-1.44694 0.2390036,0 0,0.22479 q 0.085266,-0.13048 0.2002461,-0.19507 0.116272,-0.0646 0.2674256,-0.0646 0.2493388,0 0.377238,0.15503 0.1278992,0.15374 0.1278992,0.45346 z"/><path id="path4375" d="m 3.5163476,283.27169 q -0.1912028,0 -0.3023072,0.14986 -0.1111043,0.14857 -0.1111043,0.40824 0,0.25968 0.1098124,0.40954 0.1111044,0.14857 0.3035991,0.14857 0.1899109,0 0.3010152,-0.14986 0.1111043,-0.14986 0.1111043,-0.40825 0,-0.25709 -0.1111043,-0.40695 -0.1111043,-0.15115 -0.3010152,-0.15115 z m 0,-0.20154 q 0.3100586,0 0.4870504,0.20154 0.1769918,0.20154 0.1769918,0.5581 0,0.35528 -0.1769918,0.55811 -0.1769918,0.20154 -0.4870504,0.20154 -0.3113505,0 -0.4883423,-0.20154 -0.1756999,-0.20283 -0.1756999,-0.55811 0,-0.35656 0.1756999,-0.5581 0.1769918,-0.20154 0.4883423,-0.20154 z"/><path id="path4377" d="m 4.5731307,283.10503 0.2377116,0 0,1.44694 -0.2377116,0 0,-1.44694 z m 0,-0.56327 0.2377116,0 0,0.30101 -0.2377116,0 0,-0.30101 z"/><path id="path4379" d="m 6.2293602,283.14766 0,0.2248 q -0.100769,-0.0517 -0.2092895,-0.0775 -0.1085206,-0.0258 -0.2247925,-0.0258 -0.1769918,0 -0.2661337,0.0543 -0.08785,0.0543 -0.08785,0.16278 0,0.0827 0.063304,0.13049 0.063304,0.0465 0.2545065,0.0891 l 0.08139,0.0181 q 0.2532146,0.0543 0.3591513,0.15373 0.1072286,0.0982 0.1072286,0.27518 0,0.20154 -0.160197,0.3191 -0.158905,0.11757 -0.4379578,0.11757 -0.116272,0 -0.2428792,-0.0233 -0.1253154,-0.022 -0.2648418,-0.0672 l 0,-0.24546 q 0.131775,0.0685 0.2596741,0.10335 0.1278992,0.0336 0.2532146,0.0336 0.1679484,0 0.2583821,-0.0568 0.090434,-0.0581 0.090434,-0.16278 0,-0.0969 -0.065887,-0.14857 -0.064596,-0.0517 -0.2855124,-0.0995 l -0.082682,-0.0194 q -0.2209168,-0.0465 -0.319102,-0.14211 -0.098185,-0.0969 -0.098185,-0.26484 0,-0.20412 0.1446941,-0.31523 0.144694,-0.1111 0.4108276,-0.1111 0.1317749,0 0.2480469,0.0194 0.116272,0.0194 0.2144572,0.0581 z"/><path id="path4381" d="m 7.9243477,283.76907 0,0.11628 -1.0929566,0 q 0.015503,0.24546 0.1472778,0.37465 0.1330668,0.1279 0.3694865,0.1279 0.1369426,0 0.2648418,-0.0336 0.1291911,-0.0336 0.2557983,-0.10077 l 0,0.22479 q -0.1278992,0.0543 -0.2622579,0.0827 -0.1343587,0.0284 -0.2725932,0.0284 -0.3462321,0 -0.5490621,-0.20154 -0.2015381,-0.20154 -0.2015381,-0.54519 0,-0.35527 0.1912028,-0.56327 0.1924947,-0.20929 0.5180563,-0.20929 0.2919718,0 0.4612122,0.18862 0.1705322,0.18733 0.1705322,0.5103 z m -0.2377116,-0.0698 q -0.00258,-0.19508 -0.1098124,-0.31135 -0.1059367,-0.11627 -0.2816366,-0.11627 -0.1989543,0 -0.319102,0.11239 -0.1188558,0.1124 -0.1369426,0.31652 l 0.8474936,-10e-4 z"/></g><g id="text4314" transform="translate(0,-5.291667)" style="font-size:2.64583349px;opacity:1;fill:#fff;fill-opacity:1;stroke:none;stroke-width:.30000001;stroke-miterlimit:10;stroke-dasharray:none;stroke-opacity:1"><path id="path4364" d="m 10.040183,275.78606 0,0.41083 0.489634,0 0,0.18474 -0.489634,0 0,0.78548 q 0,0.177 0.0478,0.22738 0.04909,0.0504 0.197662,0.0504 l 0.244171,0 0,0.19895 -0.244171,0 q -0.275177,0 -0.3798216,-0.10206 -0.1046448,-0.10335 -0.1046448,-0.37466 l 0,-0.78548 -0.174408,0 0,-0.18474 0.174408,0 0,-0.41083 0.2390034,0 z"/><path id="path4366" d="m 11.682202,276.4191 q -0.04005,-0.0233 -0.08785,-0.0336 -0.04651,-0.0116 -0.103353,-0.0116 -0.201538,0 -0.310059,0.13178 -0.107228,0.13048 -0.107228,0.37594 l 0,0.76223 -0.239004,0 0,-1.44694 0.239004,0 0,0.22479 q 0.07493,-0.13177 0.195078,-0.19508 0.120148,-0.0646 0.291972,-0.0646 0.02455,0 0.05426,0.004 0.02971,0.003 0.06589,0.009 l 0.0013,0.24417 z"/><path id="path4368" d="m 11.934125,276.19689 0.237711,0 0,1.44694 -0.237711,0 0,-1.44694 z m 0,-0.56327 0.237711,0 0,0.30101 -0.237711,0 0,-0.30101 z"/><path id="path4370" d="m 13.620068,276.90356 q 0,-0.25838 -0.107228,-0.40049 -0.105937,-0.14211 -0.298432,-0.14211 -0.191203,0 -0.298431,0.14211 -0.105937,0.14211 -0.105937,0.40049 0,0.25709 0.105937,0.3992 0.107228,0.14212 0.298431,0.14212 0.192495,0 0.298432,-0.14212 0.107228,-0.14211 0.107228,-0.3992 z m 0.237712,0.56069 q 0,0.36949 -0.164073,0.54907 -0.164073,0.18086 -0.502553,0.18086 -0.125316,0 -0.23642,-0.0194 -0.111104,-0.0181 -0.215749,-0.0568 l 0,-0.23125 q 0.104645,0.0568 0.206706,0.084 0.102061,0.0271 0.207997,0.0271 0.233836,0 0.350108,-0.12273 0.116272,-0.12144 0.116272,-0.36819 l 0,-0.11757 q -0.07364,0.1279 -0.188619,0.19121 -0.11498,0.0633 -0.275177,0.0633 -0.266134,0 -0.428914,-0.20283 -0.162781,-0.20283 -0.162781,-0.53744 0,-0.33589 0.162781,-0.53872 0.16278,-0.20283 0.428914,-0.20283 0.160197,0 0.275177,0.0633 0.11498,0.0633 0.188619,0.1912 l 0,-0.21962 0.237712,0 0,1.26736 z"/></g><g id="text4318" transform="translate(1.0583334,-5.291667)" style="font-size:2.64583349px;opacity:1;fill:#fff;fill-opacity:1;stroke:none;stroke-width:.30000001;stroke-miterlimit:10;stroke-dasharray:none;stroke-opacity:1"><path id="path4359" d="m 2.0943041,276.19689 0.2377116,0 0,1.44694 -0.2377116,0 0,-1.44694 z m 0,-0.56327 0.2377116,0 0,0.30101 -0.2377116,0 0,-0.30101 z"/><path id="path4361" d="m 4.0308785,276.7705 0,0.87333 -0.2377116,0 0,-0.86558 q 0,-0.20541 -0.080098,-0.30748 -0.080099,-0.10206 -0.2402955,-0.10206 -0.1924947,0 -0.303599,0.12273 -0.1111044,0.12274 -0.1111044,0.33461 l 0,0.81778 -0.2390035,0 0,-1.44694 0.2390035,0 0,0.22479 q 0.085266,-0.13048 0.2002462,-0.19508 0.116272,-0.0646 0.2674256,-0.0646 0.2493388,0 0.377238,0.15503 0.1278991,0.15373 0.1278991,0.45346 z"/></g><g id="text4322" transform="translate(0,-2.6458335)" style="font-size:2.64583349px;opacity:1;fill:#fff;fill-opacity:1;stroke:none;stroke-width:.30000001;stroke-miterlimit:10;stroke-dasharray:none;stroke-opacity:1"><path id="path4352" d="m 10.656307,283.27169 q -0.191203,0 -0.302307,0.14986 -0.111104,0.14857 -0.111104,0.40824 0,0.25968 0.109812,0.40954 0.111105,0.14857 0.303599,0.14857 0.189911,0 0.301016,-0.14986 0.111104,-0.14986 0.111104,-0.40825 0,-0.25709 -0.111104,-0.40695 -0.111105,-0.15115 -0.301016,-0.15115 z m 0,-0.20154 q 0.310059,0 0.487051,0.20154 0.176991,0.20154 0.176991,0.5581 0,0.35528 -0.176991,0.55811 -0.176992,0.20154 -0.487051,0.20154 -0.31135,0 -0.488342,-0.20154 -0.1756999,-0.20283 -0.1756999,-0.55811 0,-0.35656 0.1756999,-0.5581 0.176992,-0.20154 0.488342,-0.20154 z"/><path id="path4354" d="m 11.688544,283.98095 0,-0.87592 0.237712,0 0,0.86687 q 0,0.20542 0.0801,0.30877 0.0801,0.10206 0.240296,0.10206 0.192494,0 0.303599,-0.12273 0.112396,-0.12273 0.112396,-0.33461 l 0,-0.82036 0.237711,0 0,1.44694 -0.237711,0 0,-0.22221 q -0.08656,0.13178 -0.201538,0.19637 -0.113688,0.0633 -0.264842,0.0633 -0.249339,0 -0.37853,-0.15503 -0.129191,-0.15503 -0.129191,-0.45346 z"/><path id="path4356" d="m 13.627702,282.6942 0,0.41083 0.489634,0 0,0.18474 -0.489634,0 0,0.78549 q 0,0.17699 0.0478,0.22737 0.04909,0.0504 0.197662,0.0504 l 0.244171,0 0,0.19895 -0.244171,0 q -0.275177,0 -0.379821,-0.10206 -0.104645,-0.10335 -0.104645,-0.37465 l 0,-0.78549 -0.174408,0 0,-0.18474 0.174408,0 0,-0.41083 0.239003,0 z"/></g></g><g style="font-size:1.98437512px;opacity:1;fill:#fff;fill-opacity:1;stroke:none;stroke-width:.30000001;stroke-miterlimit:10;stroke-dasharray:none;stroke-opacity:1" id="text4326"><path id="path4384" d="m 1.6836305,202.04079 0,0.19088 q -0.1114273,-0.0533 -0.2102585,-0.0795 -0.098831,-0.0262 -0.1908798,-0.0262 -0.159874,0 -0.247078,0.062 -0.086235,0.062 -0.086235,0.17635 0,0.0959 0.057167,0.14534 0.058136,0.0485 0.2189789,0.0785 l 0.1182099,0.0242 q 0.2189789,0.0417 0.3226547,0.14728 0.1046448,0.10464 0.1046448,0.28099 0,0.21025 -0.1414642,0.31877 -0.1404953,0.10853 -0.4127656,0.10853 -0.1027069,0 -0.21897885,-0.0233 -0.11530305,-0.0233 -0.23932649,-0.0688 l 0,-0.20154 q 0.11917878,0.0668 0.23351289,0.10077 0.11433415,0.0339 0.22479245,0.0339 0.1676255,0 0.2587052,-0.0659 0.09108,-0.0659 0.09108,-0.18797 0,-0.10658 -0.065887,-0.16666 -0.064919,-0.0601 -0.2141343,-0.0901 l -0.1191787,-0.0232 q -0.21897894,-0.0436 -0.31684119,-0.13662 -0.0978623,-0.093 -0.0978623,-0.25871 0,-0.19185 0.13468171,-0.3023 0.13565063,-0.11046 0.37303923,-0.11046 0.101738,0 0.2073517,0.0184 0.1056137,0.0184 0.2160721,0.0552 z"/><path id="path4386" d="m 2.7979037,202.19582 0,0.53969 0.5396958,0 0,0.16472 -0.5396958,0 0,0.5397 -0.1627808,0 0,-0.5397 -0.5396957,0 0,-0.16472 0.5396957,0 0,-0.53969 0.1627808,0 z"/><path id="path4388" d="m 3.7426136,201.99331 0.1957245,0 0,0.59299 0.7111969,0 0,-0.59299 0.1957245,0 0,1.44662 -0.1957245,0 0,-0.68892 -0.7111969,0 0,0.68892 -0.1957245,0 0,-1.44662 z"/></g><g id="g4425" transform="translate(0,-21.695837)"><g style="font-size:2.64583349px;opacity:1;fill:#fff;fill-opacity:1;stroke:none;stroke-width:.30000001;stroke-miterlimit:10;stroke-dasharray:none;stroke-opacity:1" id="g4427" transform="translate(0,-2.6458335)"><path id="path4429" d="m 2.4789432,283.67864 0,0.87333 -0.2377116,0 0,-0.86558 q 0,-0.20541 -0.080099,-0.30747 -0.080098,-0.10206 -0.2402954,-0.10206 -0.1924948,0 -0.3035991,0.12273 -0.1111043,0.12273 -0.1111043,0.3346 l 0,0.81778 -0.2390036,0 0,-1.44694 0.2390036,0 0,0.22479 q 0.085266,-0.13048 0.2002461,-0.19507 0.116272,-0.0646 0.2674256,-0.0646 0.2493388,0 0.377238,0.15503 0.1278992,0.15374 0.1278992,0.45346 z"/><path id="path4431" d="m 3.5163476,283.27169 q -0.1912028,0 -0.3023072,0.14986 -0.1111043,0.14857 -0.1111043,0.40824 0,0.25968 0.1098124,0.40954 0.1111044,0.14857 0.3035991,0.14857 0.1899109,0 0.3010152,-0.14986 0.1111043,-0.14986 0.1111043,-0.40825 0,-0.25709 -0.1111043,-0.40695 -0.1111043,-0.15115 -0.3010152,-0.15115 z m 0,-0.20154 q 0.3100586,0 0.4870504,0.20154 0.1769918,0.20154 0.1769918,0.5581 0,0.35528 -0.1769918,0.55811 -0.1769918,0.20154 -0.4870504,0.20154 -0.3113505,0 -0.4883423,-0.20154 -0.1756999,-0.20283 -0.1756999,-0.55811 0,-0.35656 0.1756999,-0.5581 0.1769918,-0.20154 0.4883423,-0.20154 z"/><path id="path4433" d="m 4.5731307,283.10503 0.2377116,0 0,1.44694 -0.2377116,0 0,-1.44694 z m 0,-0.56327 0.2377116,0 0,0.30101 -0.2377116,0 0,-0.30101 z"/><path id="path4435" d="m 6.2293602,283.14766 0,0.2248 q -0.100769,-0.0517 -0.2092895,-0.0775 -0.1085206,-0.0258 -0.2247925,-0.0258 -0.1769918,0 -0.2661337,0.0543 -0.08785,0.0543 -0.08785,0.16278 0,0.0827 0.063304,0.13049 0.063304,0.0465 0.2545065,0.0891 l 0.08139,0.0181 q 0.2532146,0.0543 0.3591513,0.15373 0.1072286,0.0982 0.1072286,0.27518 0,0.20154 -0.160197,0.3191 -0.158905,0.11757 -0.4379578,0.11757 -0.116272,0 -0.2428792,-0.0233 -0.1253154,-0.022 -0.2648418,-0.0672 l 0,-0.24546 q 0.131775,0.0685 0.2596741,0.10335 0.1278992,0.0336 0.2532146,0.0336 0.1679484,0 0.2583821,-0.0568 0.090434,-0.0581 0.090434,-0.16278 0,-0.0969 -0.065887,-0.14857 -0.064596,-0.0517 -0.2855124,-0.0995 l -0.082682,-0.0194 q -0.2209168,-0.0465 -0.319102,-0.14211 -0.098185,-0.0969 -0.098185,-0.26484 0,-0.20412 0.1446941,-0.31523 0.144694,-0.1111 0.4108276,-0.1111 0.1317749,0 0.2480469,0.0194 0.116272,0.0194 0.2144572,0.0581 z"/><path id="path4437" d="m 7.9243477,283.76907 0,0.11628 -1.0929566,0 q 0.015503,0.24546 0.1472778,0.37465 0.1330668,0.1279 0.3694865,0.1279 0.1369426,0 0.2648418,-0.0336 0.1291911,-0.0336 0.2557983,-0.10077 l 0,0.22479 q -0.1278992,0.0543 -0.2622579,0.0827 -0.1343587,0.0284 -0.2725932,0.0284 -0.3462321,0 -0.5490621,-0.20154 -0.2015381,-0.20154 -0.2015381,-0.54519 0,-0.35527 0.1912028,-0.56327 0.1924947,-0.20929 0.5180563,-0.20929 0.2919718,0 0.4612122,0.18862 0.1705322,0.18733 0.1705322,0.5103 z m -0.2377116,-0.0698 q -0.00258,-0.19508 -0.1098124,-0.31135 -0.1059367,-0.11627 -0.2816366,-0.11627 -0.1989543,0 -0.319102,0.11239 -0.1188558,0.1124 -0.1369426,0.31652 l 0.8474936,-10e-4 z"/></g><g style="font-size:2.64583349px;opacity:1;fill:#fff;fill-opacity:1;stroke:none;stroke-width:.30000001;stroke-miterlimit:10;stroke-dasharray:none;stroke-opacity:1" id="g4439" transform="translate(0,-5.291667)"><path id="path4441" d="m 10.040183,275.78606 0,0.41083 0.489634,0 0,0.18474 -0.489634,0 0,0.78548 q 0,0.177 0.0478,0.22738 0.04909,0.0504 0.197662,0.0504 l 0.244171,0 0,0.19895 -0.244171,0 q -0.275177,0 -0.3798216,-0.10206 -0.1046448,-0.10335 -0.1046448,-0.37466 l 0,-0.78548 -0.174408,0 0,-0.18474 0.174408,0 0,-0.41083 0.2390034,0 z"/><path id="path4443" d="m 11.682202,276.4191 q -0.04005,-0.0233 -0.08785,-0.0336 -0.04651,-0.0116 -0.103353,-0.0116 -0.201538,0 -0.310059,0.13178 -0.107228,0.13048 -0.107228,0.37594 l 0,0.76223 -0.239004,0 0,-1.44694 0.239004,0 0,0.22479 q 0.07493,-0.13177 0.195078,-0.19508 0.120148,-0.0646 0.291972,-0.0646 0.02455,0 0.05426,0.004 0.02971,0.003 0.06589,0.009 l 0.0013,0.24417 z"/><path id="path4445" d="m 11.934125,276.19689 0.237711,0 0,1.44694 -0.237711,0 0,-1.44694 z m 0,-0.56327 0.237711,0 0,0.30101 -0.237711,0 0,-0.30101 z"/><path id="path4447" d="m 13.620068,276.90356 q 0,-0.25838 -0.107228,-0.40049 -0.105937,-0.14211 -0.298432,-0.14211 -0.191203,0 -0.298431,0.14211 -0.105937,0.14211 -0.105937,0.40049 0,0.25709 0.105937,0.3992 0.107228,0.14212 0.298431,0.14212 0.192495,0 0.298432,-0.14212 0.107228,-0.14211 0.107228,-0.3992 z m 0.237712,0.56069 q 0,0.36949 -0.164073,0.54907 -0.164073,0.18086 -0.502553,0.18086 -0.125316,0 -0.23642,-0.0194 -0.111104,-0.0181 -0.215749,-0.0568 l 0,-0.23125 q 0.104645,0.0568 0.206706,0.084 0.102061,0.0271 0.207997,0.0271 0.233836,0 0.350108,-0.12273 0.116272,-0.12144 0.116272,-0.36819 l 0,-0.11757 q -0.07364,0.1279 -0.188619,0.19121 -0.11498,0.0633 -0.275177,0.0633 -0.266134,0 -0.428914,-0.20283 -0.162781,-0.20283 -0.162781,-0.53744 0,-0.33589 0.162781,-0.53872 0.16278,-0.20283 0.428914,-0.20283 0.160197,0 0.275177,0.0633 0.11498,0.0633 0.188619,0.1912 l 0,-0.21962 0.237712,0 0,1.26736 z"/></g><g style="font-size:2.64583349px;opacity:1;fill:#fff;fill-opacity:1;stroke:none;stroke-width:.30000001;stroke-miterlimit:10;stroke-dasharray:none;stroke-opacity:1" id="g4449" transform="translate(1.0583334,-5.291667)"><path id="path4451" d="m 2.0943041,276.19689 0.2377116,0 0,1.44694 -0.2377116,0 0,-1.44694 z m 0,-0.56327 0.2377116,0 0,0.30101 -0.2377116,0 0,-0.30101 z"/><path id="path4453" d="m 4.0308785,276.7705 0,0.87333 -0.2377116,0 0,-0.86558 q 0,-0.20541 -0.080098,-0.30748 -0.080099,-0.10206 -0.2402955,-0.10206 -0.1924947,0 -0.303599,0.12273 -0.1111044,0.12274 -0.1111044,0.33461 l 0,0.81778 -0.2390035,0 0,-1.44694 0.2390035,0 0,0.22479 q 0.085266,-0.13048 0.2002462,-0.19508 0.116272,-0.0646 0.2674256,-0.0646 0.2493388,0 0.377238,0.15503 0.1278991,0.15373 0.1278991,0.45346 z"/></g><g style="font-size:2.64583349px;opacity:1;fill:#fff;fill-opacity:1;stroke:none;stroke-width:.30000001;stroke-miterlimit:10;stroke-dasharray:none;stroke-opacity:1" id="g4455" transform="translate(0,-2.6458335)"><path id="path4457" d="m 10.656307,283.27169 q -0.191203,0 -0.302307,0.14986 -0.111104,0.14857 -0.111104,0.40824 0,0.25968 0.109812,0.40954 0.111105,0.14857 0.303599,0.14857 0.189911,0 0.301016,-0.14986 0.111104,-0.14986 0.111104,-0.40825 0,-0.25709 -0.111104,-0.40695 -0.111105,-0.15115 -0.301016,-0.15115 z m 0,-0.20154 q 0.310059,0 0.487051,0.20154 0.176991,0.20154 0.176991,0.5581 0,0.35528 -0.176991,0.55811 -0.176992,0.20154 -0.487051,0.20154 -0.31135,0 -0.488342,-0.20154 -0.1756999,-0.20283 -0.1756999,-0.55811 0,-0.35656 0.1756999,-0.5581 0.176992,-0.20154 0.488342,-0.20154 z"/><path id="path4459" d="m 11.688544,283.98095 0,-0.87592 0.237712,0 0,0.86687 q 0,0.20542 0.0801,0.30877 0.0801,0.10206 0.240296,0.10206 0.192494,0 0.303599,-0.12273 0.112396,-0.12273 0.112396,-0.33461 l 0,-0.82036 0.237711,0 0,1.44694 -0.237711,0 0,-0.22221 q -0.08656,0.13178 -0.201538,0.19637 -0.113688,0.0633 -0.264842,0.0633 -0.249339,0 -0.37853,-0.15503 -0.129191,-0.15503 -0.129191,-0.45346 z"/><path id="path4461" d="m 13.627702,282.6942 0,0.41083 0.489634,0 0,0.18474 -0.489634,0 0,0.78549 q 0,0.17699 0.0478,0.22737 0.04909,0.0504 0.197662,0.0504 l 0.244171,0 0,0.19895 -0.244171,0 q -0.275177,0 -0.379821,-0.10206 -0.104645,-0.10335 -0.104645,-0.37465 l 0,-0.78549 -0.174408,0 0,-0.18474 0.174408,0 0,-0.41083 0.239003,0 z"/></g></g><g id="g4463" transform="translate(0,-42.862508)"><g id="g4465" transform="translate(0,-2.6458335)" style="font-size:2.64583349px;opacity:1;fill:#fff;fill-opacity:1;stroke:none;stroke-width:.30000001;stroke-miterlimit:10;stroke-dasharray:none;stroke-opacity:1"><path id="path4467" d="m 2.4789432,283.67864 0,0.87333 -0.2377116,0 0,-0.86558 q 0,-0.20541 -0.080099,-0.30747 -0.080098,-0.10206 -0.2402954,-0.10206 -0.1924948,0 -0.3035991,0.12273 -0.1111043,0.12273 -0.1111043,0.3346 l 0,0.81778 -0.2390036,0 0,-1.44694 0.2390036,0 0,0.22479 q 0.085266,-0.13048 0.2002461,-0.19507 0.116272,-0.0646 0.2674256,-0.0646 0.2493388,0 0.377238,0.15503 0.1278992,0.15374 0.1278992,0.45346 z"/><path id="path4469" d="m 3.5163476,283.27169 q -0.1912028,0 -0.3023072,0.14986 -0.1111043,0.14857 -0.1111043,0.40824 0,0.25968 0.1098124,0.40954 0.1111044,0.14857 0.3035991,0.14857 0.1899109,0 0.3010152,-0.14986 0.1111043,-0.14986 0.1111043,-0.40825 0,-0.25709 -0.1111043,-0.40695 -0.1111043,-0.15115 -0.3010152,-0.15115 z m 0,-0.20154 q 0.3100586,0 0.4870504,0.20154 0.1769918,0.20154 0.1769918,0.5581 0,0.35528 -0.1769918,0.55811 -0.1769918,0.20154 -0.4870504,0.20154 -0.3113505,0 -0.4883423,-0.20154 -0.1756999,-0.20283 -0.1756999,-0.55811 0,-0.35656 0.1756999,-0.5581 0.1769918,-0.20154 0.4883423,-0.20154 z"/><path id="path4471" d="m 4.5731307,283.10503 0.2377116,0 0,1.44694 -0.2377116,0 0,-1.44694 z m 0,-0.56327 0.2377116,0 0,0.30101 -0.2377116,0 0,-0.30101 z"/><path id="path4473" d="m 6.2293602,283.14766 0,0.2248 q -0.100769,-0.0517 -0.2092895,-0.0775 -0.1085206,-0.0258 -0.2247925,-0.0258 -0.1769918,0 -0.2661337,0.0543 -0.08785,0.0543 -0.08785,0.16278 0,0.0827 0.063304,0.13049 0.063304,0.0465 0.2545065,0.0891 l 0.08139,0.0181 q 0.2532146,0.0543 0.3591513,0.15373 0.1072286,0.0982 0.1072286,0.27518 0,0.20154 -0.160197,0.3191 -0.158905,0.11757 -0.4379578,0.11757 -0.116272,0 -0.2428792,-0.0233 -0.1253154,-0.022 -0.2648418,-0.0672 l 0,-0.24546 q 0.131775,0.0685 0.2596741,0.10335 0.1278992,0.0336 0.2532146,0.0336 0.1679484,0 0.2583821,-0.0568 0.090434,-0.0581 0.090434,-0.16278 0,-0.0969 -0.065887,-0.14857 -0.064596,-0.0517 -0.2855124,-0.0995 l -0.082682,-0.0194 q -0.2209168,-0.0465 -0.319102,-0.14211 -0.098185,-0.0969 -0.098185,-0.26484 0,-0.20412 0.1446941,-0.31523 0.144694,-0.1111 0.4108276,-0.1111 0.1317749,0 0.2480469,0.0194 0.116272,0.0194 0.2144572,0.0581 z"/><path id="path4475" d="m 7.9243477,283.76907 0,0.11628 -1.0929566,0 q 0.015503,0.24546 0.1472778,0.37465 0.1330668,0.1279 0.3694865,0.1279 0.1369426,0 0.2648418,-0.0336 0.1291911,-0.0336 0.2557983,-0.10077 l 0,0.22479 q -0.1278992,0.0543 -0.2622579,0.0827 -0.1343587,0.0284 -0.2725932,0.0284 -0.3462321,0 -0.5490621,-0.20154 -0.2015381,-0.20154 -0.2015381,-0.54519 0,-0.35527 0.1912028,-0.56327 0.1924947,-0.20929 0.5180563,-0.20929 0.2919718,0 0.4612122,0.18862 0.1705322,0.18733 0.1705322,0.5103 z m -0.2377116,-0.0698 q -0.00258,-0.19508 -0.1098124,-0.31135 -0.1059367,-0.11627 -0.2816366,-0.11627 -0.1989543,0 -0.319102,0.11239 -0.1188558,0.1124 -0.1369426,0.31652 l 0.8474936,-10e-4 z"/></g><g id="g4477" transform="translate(0,-5.291667)" style="font-size:2.64583349px;opacity:1;fill:#fff;fill-opacity:1;stroke:none;stroke-width:.30000001;stroke-miterlimit:10;stroke-dasharray:none;stroke-opacity:1"><path id="path4479" d="m 10.040183,275.78606 0,0.41083 0.489634,0 0,0.18474 -0.489634,0 0,0.78548 q 0,0.177 0.0478,0.22738 0.04909,0.0504 0.197662,0.0504 l 0.244171,0 0,0.19895 -0.244171,0 q -0.275177,0 -0.3798216,-0.10206 -0.1046448,-0.10335 -0.1046448,-0.37466 l 0,-0.78548 -0.174408,0 0,-0.18474 0.174408,0 0,-0.41083 0.2390034,0 z"/><path id="path4481" d="m 11.682202,276.4191 q -0.04005,-0.0233 -0.08785,-0.0336 -0.04651,-0.0116 -0.103353,-0.0116 -0.201538,0 -0.310059,0.13178 -0.107228,0.13048 -0.107228,0.37594 l 0,0.76223 -0.239004,0 0,-1.44694 0.239004,0 0,0.22479 q 0.07493,-0.13177 0.195078,-0.19508 0.120148,-0.0646 0.291972,-0.0646 0.02455,0 0.05426,0.004 0.02971,0.003 0.06589,0.009 l 0.0013,0.24417 z"/><path id="path4483" d="m 11.934125,276.19689 0.237711,0 0,1.44694 -0.237711,0 0,-1.44694 z m 0,-0.56327 0.237711,0 0,0.30101 -0.237711,0 0,-0.30101 z"/><path id="path4485" d="m 13.620068,276.90356 q 0,-0.25838 -0.107228,-0.40049 -0.105937,-0.14211 -0.298432,-0.14211 -0.191203,0 -0.298431,0.14211 -0.105937,0.14211 -0.105937,0.40049 0,0.25709 0.105937,0.3992 0.107228,0.14212 0.298431,0.14212 0.192495,0 0.298432,-0.14212 0.107228,-0.14211 0.107228,-0.3992 z m 0.237712,0.56069 q 0,0.36949 -0.164073,0.54907 -0.164073,0.18086 -0.502553,0.18086 -0.125316,0 -0.23642,-0.0194 -0.111104,-0.0181 -0.215749,-0.0568 l 0,-0.23125 q 0.104645,0.0568 0.206706,0.084 0.102061,0.0271 0.207997,0.0271 0.233836,0 0.350108,-0.12273 0.116272,-0.12144 0.116272,-0.36819 l 0,-0.11757 q -0.07364,0.1279 -0.188619,0.19121 -0.11498,0.0633 -0.275177,0.0633 -0.266134,0 -0.428914,-0.20283 -0.162781,-0.20283 -0.162781,-0.53744 0,-0.33589 0.162781,-0.53872 0.16278,-0.20283 0.428914,-0.20283 0.160197,0 0.275177,0.0633 0.11498,0.0633 0.188619,0.1912 l 0,-0.21962 0.237712,0 0,1.26736 z"/></g><g id="g4487" transform="translate(1.0583334,-5.291667)" style="font-size:2.64583349px;opacity:1;fill:#fff;fill-opacity:1;stroke:none;stroke-width:.30000001;stroke-miterlimit:10;stroke-dasharray:none;stroke-opacity:1"><path id="path4489" d="m 2.0943041,276.19689 0.2377116,0 0,1.44694 -0.2377116,0 0,-1.44694 z m 0,-0.56327 0.2377116,0 0,0.30101 -0.2377116,0 0,-0.30101 z"/><path id="path4491" d="m 4.0308785,276.7705 0,0.87333 -0.2377116,0 0,-0.86558 q 0,-0.20541 -0.080098,-0.30748 -0.080099,-0.10206 -0.2402955,-0.10206 -0.1924947,0 -0.303599,0.12273 -0.1111044,0.12274 -0.1111044,0.33461 l 0,0.81778 -0.2390035,0 0,-1.44694 0.2390035,0 0,0.22479 q 0.085266,-0.13048 0.2002462,-0.19508 0.116272,-0.0646 0.2674256,-0.0646 0.2493388,0 0.377238,0.15503 0.1278991,0.15373 0.1278991,0.45346 z"/></g><g id="g4493" transform="translate(0,-2.6458335)" style="font-size:2.64583349px;opacity:1;fill:#fff;fill-opacity:1;stroke:none;stroke-width:.30000001;stroke-miterlimit:10;stroke-dasharray:none;stroke-opacity:1"><path id="path4495" d="m 10.656307,283.27169 q -0.191203,0 -0.302307,0.14986 -0.111104,0.14857 -0.111104,0.40824 0,0.25968 0.109812,0.40954 0.111105,0.14857 0.303599,0.14857 0.189911,0 0.301016,-0.14986 0.111104,-0.14986 0.111104,-0.40825 0,-0.25709 -0.111104,-0.40695 -0.111105,-0.15115 -0.301016,-0.15115 z m 0,-0.20154 q 0.310059,0 0.487051,0.20154 0.176991,0.20154 0.176991,0.5581 0,0.35528 -0.176991,0.55811 -0.176992,0.20154 -0.487051,0.20154 -0.31135,0 -0.488342,-0.20154 -0.1756999,-0.20283 -0.1756999,-0.55811 0,-0.35656 0.1756999,-0.5581 0.176992,-0.20154 0.488342,-0.20154 z"/><path id="path4497" d="m 11.688544,283.98095 0,-0.87592 0.237712,0 0,0.86687 q 0,0.20542 0.0801,0.30877 0.0801,0.10206 0.240296,0.10206 0.192494,0 0.303599,-0.12273 0.112396,-0.12273 0.112396,-0.33461 l 0,-0.82036 0.237711,0 0,1.44694 -0.237711,0 0,-0.22221 q -0.08656,0.13178 -0.201538,0.19637 -0.113688,0.0633 -0.264842,0.0633 -0.249339,0 -0.37853,-0.15503 -0.129191,-0.15503 -0.129191,-0.45346 z"/><path id="path4499" d="m 13.627702,282.6942 0,0.41083 0.489634,0 0,0.18474 -0.489634,0 0,0.78549 q 0,0.17699 0.0478,0.22737 0.04909,0.0504 0.197662,0.0504 l 0.244171,0 0,0.19895 -0.244171,0 q -0.275177,0 -0.379821,-0.10206 -0.104645,-0.10335 -0.104645,-0.37465 l 0,-0.78549 -0.174408,0 0,-0.18474 0.174408,0 0,-0.41083 0.239003,0 z"/></g></g><g id="g4501" transform="translate(0,-64.029176)"><g style="font-size:2.64583349px;opacity:1;fill:#fff;fill-opacity:1;stroke:none;stroke-width:.30000001;stroke-miterlimit:10;stroke-dasharray:none;stroke-opacity:1" id="g4503" transform="translate(0,-2.6458335)"><path id="path4505" d="m 2.4789432,283.67864 0,0.87333 -0.2377116,0 0,-0.86558 q 0,-0.20541 -0.080099,-0.30747 -0.080098,-0.10206 -0.2402954,-0.10206 -0.1924948,0 -0.3035991,0.12273 -0.1111043,0.12273 -0.1111043,0.3346 l 0,0.81778 -0.2390036,0 0,-1.44694 0.2390036,0 0,0.22479 q 0.085266,-0.13048 0.2002461,-0.19507 0.116272,-0.0646 0.2674256,-0.0646 0.2493388,0 0.377238,0.15503 0.1278992,0.15374 0.1278992,0.45346 z"/><path id="path4507" d="m 3.5163476,283.27169 q -0.1912028,0 -0.3023072,0.14986 -0.1111043,0.14857 -0.1111043,0.40824 0,0.25968 0.1098124,0.40954 0.1111044,0.14857 0.3035991,0.14857 0.1899109,0 0.3010152,-0.14986 0.1111043,-0.14986 0.1111043,-0.40825 0,-0.25709 -0.1111043,-0.40695 -0.1111043,-0.15115 -0.3010152,-0.15115 z m 0,-0.20154 q 0.3100586,0 0.4870504,0.20154 0.1769918,0.20154 0.1769918,0.5581 0,0.35528 -0.1769918,0.55811 -0.1769918,0.20154 -0.4870504,0.20154 -0.3113505,0 -0.4883423,-0.20154 -0.1756999,-0.20283 -0.1756999,-0.55811 0,-0.35656 0.1756999,-0.5581 0.1769918,-0.20154 0.4883423,-0.20154 z"/><path id="path4509" d="m 4.5731307,283.10503 0.2377116,0 0,1.44694 -0.2377116,0 0,-1.44694 z m 0,-0.56327 0.2377116,0 0,0.30101 -0.2377116,0 0,-0.30101 z"/><path id="path4511" d="m 6.2293602,283.14766 0,0.2248 q -0.100769,-0.0517 -0.2092895,-0.0775 -0.1085206,-0.0258 -0.2247925,-0.0258 -0.1769918,0 -0.2661337,0.0543 -0.08785,0.0543 -0.08785,0.16278 0,0.0827 0.063304,0.13049 0.063304,0.0465 0.2545065,0.0891 l 0.08139,0.0181 q 0.2532146,0.0543 0.3591513,0.15373 0.1072286,0.0982 0.1072286,0.27518 0,0.20154 -0.160197,0.3191 -0.158905,0.11757 -0.4379578,0.11757 -0.116272,0 -0.2428792,-0.0233 -0.1253154,-0.022 -0.2648418,-0.0672 l 0,-0.24546 q 0.131775,0.0685 0.2596741,0.10335 0.1278992,0.0336 0.2532146,0.0336 0.1679484,0 0.2583821,-0.0568 0.090434,-0.0581 0.090434,-0.16278 0,-0.0969 -0.065887,-0.14857 -0.064596,-0.0517 -0.2855124,-0.0995 l -0.082682,-0.0194 q -0.2209168,-0.0465 -0.319102,-0.14211 -0.098185,-0.0969 -0.098185,-0.26484 0,-0.20412 0.1446941,-0.31523 0.144694,-0.1111 0.4108276,-0.1111 0.1317749,0 0.2480469,0.0194 0.116272,0.0194 0.2144572,0.0581 z"/><path id="path4513" d="m 7.9243477,283.76907 0,0.11628 -1.0929566,0 q 0.015503,0.24546 0.1472778,0.37465 0.1330668,0.1279 0.3694865,0.1279 0.1369426,0 0.2648418,-0.0336 0.1291911,-0.0336 0.2557983,-0.10077 l 0,0.22479 q -0.1278992,0.0543 -0.2622579,0.0827 -0.1343587,0.0284 -0.2725932,0.0284 -0.3462321,0 -0.5490621,-0.20154 -0.2015381,-0.20154 -0.2015381,-0.54519 0,-0.35527 0.1912028,-0.56327 0.1924947,-0.20929 0.5180563,-0.20929 0.2919718,0 0.4612122,0.18862 0.1705322,0.18733 0.1705322,0.5103 z m -0.2377116,-0.0698 q -0.00258,-0.19508 -0.1098124,-0.31135 -0.1059367,-0.11627 -0.2816366,-0.11627 -0.1989543,0 -0.319102,0.11239 -0.1188558,0.1124 -0.1369426,0.31652 l 0.8474936,-10e-4 z"/></g><g style="font-size:2.64583349px;opacity:1;fill:#fff;fill-opacity:1;stroke:none;stroke-width:.30000001;stroke-miterlimit:10;stroke-dasharray:none;stroke-opacity:1" id="g4515" transform="translate(0,-5.291667)"><path id="path4517" d="m 10.040183,275.78606 0,0.41083 0.489634,0 0,0.18474 -0.489634,0 0,0.78548 q 0,0.177 0.0478,0.22738 0.04909,0.0504 0.197662,0.0504 l 0.244171,0 0,0.19895 -0.244171,0 q -0.275177,0 -0.3798216,-0.10206 -0.1046448,-0.10335 -0.1046448,-0.37466 l 0,-0.78548 -0.174408,0 0,-0.18474 0.174408,0 0,-0.41083 0.2390034,0 z"/><path id="path4519" d="m 11.682202,276.4191 q -0.04005,-0.0233 -0.08785,-0.0336 -0.04651,-0.0116 -0.103353,-0.0116 -0.201538,0 -0.310059,0.13178 -0.107228,0.13048 -0.107228,0.37594 l 0,0.76223 -0.239004,0 0,-1.44694 0.239004,0 0,0.22479 q 0.07493,-0.13177 0.195078,-0.19508 0.120148,-0.0646 0.291972,-0.0646 0.02455,0 0.05426,0.004 0.02971,0.003 0.06589,0.009 l 0.0013,0.24417 z"/><path id="path4521" d="m 11.934125,276.19689 0.237711,0 0,1.44694 -0.237711,0 0,-1.44694 z m 0,-0.56327 0.237711,0 0,0.30101 -0.237711,0 0,-0.30101 z"/><path id="path4523" d="m 13.620068,276.90356 q 0,-0.25838 -0.107228,-0.40049 -0.105937,-0.14211 -0.298432,-0.14211 -0.191203,0 -0.298431,0.14211 -0.105937,0.14211 -0.105937,0.40049 0,0.25709 0.105937,0.3992 0.107228,0.14212 0.298431,0.14212 0.192495,0 0.298432,-0.14212 0.107228,-0.14211 0.107228,-0.3992 z m 0.237712,0.56069 q 0,0.36949 -0.164073,0.54907 -0.164073,0.18086 -0.502553,0.18086 -0.125316,0 -0.23642,-0.0194 -0.111104,-0.0181 -0.215749,-0.0568 l 0,-0.23125 q 0.104645,0.0568 0.206706,0.084 0.102061,0.0271 0.207997,0.0271 0.233836,0 0.350108,-0.12273 0.116272,-0.12144 0.116272,-0.36819 l 0,-0.11757 q -0.07364,0.1279 -0.188619,0.19121 -0.11498,0.0633 -0.275177,0.0633 -0.266134,0 -0.428914,-0.20283 -0.162781,-0.20283 -0.162781,-0.53744 0,-0.33589 0.162781,-0.53872 0.16278,-0.20283 0.428914,-0.20283 0.160197,0 0.275177,0.0633 0.11498,0.0633 0.188619,0.1912 l 0,-0.21962 0.237712,0 0,1.26736 z"/></g><g style="font-size:2.64583349px;opacity:1;fill:#fff;fill-opacity:1;stroke:none;stroke-width:.30000001;stroke-miterlimit:10;stroke-dasharray:none;stroke-opacity:1" id="g4525" transform="translate(1.0583334,-5.291667)"><path id="path4527" d="m 2.0943041,276.19689 0.2377116,0 0,1.44694 -0.2377116,0 0,-1.44694 z m 0,-0.56327 0.2377116,0 0,0.30101 -0.2377116,0 0,-0.30101 z"/><path id="path4529" d="m 4.0308785,276.7705 0,0.87333 -0.2377116,0 0,-0.86558 q 0,-0.20541 -0.080098,-0.30748 -0.080099,-0.10206 -0.2402955,-0.10206 -0.1924947,0 -0.303599,0.12273 -0.1111044,0.12274 -0.1111044,0.33461 l 0,0.81778 -0.2390035,0 0,-1.44694 0.2390035,0 0,0.22479 q 0.085266,-0.13048 0.2002462,-0.19508 0.116272,-0.0646 0.2674256,-0.0646 0.2493388,0 0.377238,0.15503 0.1278991,0.15373 0.1278991,0.45346 z"/></g><g style="font-size:2.64583349px;opacity:1;fill:#fff;fill-opacity:1;stroke:none;stroke-width:.30000001;stroke-miterlimit:10;stroke-dasharray:none;stroke-opacity:1" id="g4531" transform="translate(0,-2.6458335)"><path id="path4533" d="m 10.656307,283.27169 q -0.191203,0 -0.302307,0.14986 -0.111104,0.14857 -0.111104,0.40824 0,0.25968 0.109812,0.40954 0.111105,0.14857 0.303599,0.14857 0.189911,0 0.301016,-0.14986 0.111104,-0.14986 0.111104,-0.40825 0,-0.25709 -0.111104,-0.40695 -0.111105,-0.15115 -0.301016,-0.15115 z m 0,-0.20154 q 0.310059,0 0.487051,0.20154 0.176991,0.20154 0.176991,0.5581 0,0.35528 -0.176991,0.55811 -0.176992,0.20154 -0.487051,0.20154 -0.31135,0 -0.488342,-0.20154 -0.1756999,-0.20283 -0.1756999,-0.55811 0,-0.35656 0.1756999,-0.5581 0.176992,-0.20154 0.488342,-0.20154 z"/><path id="path4535" d="m 11.688544,283.98095 0,-0.87592 0.237712,0 0,0.86687 q 0,0.20542 0.0801,0.30877 0.0801,0.10206 0.240296,0.10206 0.192494,0 0.303599,-0.12273 0.112396,-0.12273 0.112396,-0.33461 l 0,-0.82036 0.237711,0 0,1.44694 -0.237711,0 0,-0.22221 q -0.08656,0.13178 -0.201538,0.19637 -0.113688,0.0633 -0.264842,0.0633 -0.249339,0 -0.37853,-0.15503 -0.129191,-0.15503 -0.129191,-0.45346 z"/><path id="path4537" d="m 13.627702,282.6942 0,0.41083 0.489634,0 0,0.18474 -0.489634,0 0,0.78549 q 0,0.17699 0.0478,0.22737 0.04909,0.0504 0.197662,0.0504 l 0.244171,0 0,0.19895 -0.244171,0 q -0.275177,0 -0.379821,-0.10206 -0.104645,-0.10335 -0.104645,-0.37465 l 0,-0.78549 -0.174408,0 0,-0.18474 0.174408,0 0,-0.41083 0.239003,0 z"/></g></g><path style="fill:#4a6889;fill-opacity:1;fill-rule:evenodd;stroke:none;stroke-width:.26458335px;stroke-linecap:butt;stroke-linejoin:miter;stroke-opacity:1" id="path4543" d="m 5.3138042,224.59564 5.2473918,0 -2.5390607,2.28515"/><path id="path4545" d="m 5.3138042,245.76234 5.2473918,0 -2.5390607,2.28515" style="fill:#4a6889;fill-opacity:1;fill-rule:evenodd;stroke:none;stroke-width:.26458335px;stroke-linecap:butt;stroke-linejoin:miter;stroke-opacity:1"/><path style="fill:#4a6889;fill-opacity:1;fill-rule:evenodd;stroke:none;stroke-width:.26458335px;stroke-linecap:butt;stroke-linejoin:miter;stroke-opacity:1" id="path4547" d="m 5.3138042,266.92904 5.2473918,0 -2.5390607,2.28515"/></g><g id="layer3" style="display:none"><rect style="display:inline;opacity:1;fill:#ff0200;fill-opacity:1;stroke:none;stroke-width:1;stroke-miterlimit:4;stroke-dasharray:none;stroke-opacity:1" id="rect5091" width="5.643" height="5.557" x="22.004" y="51.12"/><rect style="display:inline;opacity:1;fill:#0f0;fill-opacity:1;stroke:none;stroke-width:1;stroke-miterlimit:4;stroke-dasharray:none;stroke-opacity:1" id="rect5093" width="5.215" height="5.215" x="22.084" y="45.009"/><rect style="display:inline;opacity:1;fill:#00f;fill-opacity:1;stroke:none;stroke-width:1;stroke-miterlimit:4;stroke-dasharray:none;stroke-opacity:1" id="rect4969" width="5.386" height="5.386" x="22.383" y="83.223"/><rect style="display:inline;opacity:1;fill:#0f0;fill-opacity:1;stroke:none;stroke-width:1;stroke-miterlimit:4;stroke-dasharray:none;stroke-opacity:1" id="rect4975" width="5.355" height="5.591" x="2.329" y="75.109"/><rect style="display:inline;opacity:1;fill:#0f0;fill-opacity:1;stroke:none;stroke-width:1;stroke-miterlimit:4;stroke-dasharray:none;stroke-opacity:1" id="rect4979" width="5.557" height="5.557" x="2.44" y="44.96"/><rect style="display:inline;opacity:1;fill:#0f0;fill-opacity:1;stroke:none;stroke-width:1;stroke-miterlimit:4;stroke-dasharray:none;stroke-opacity:1" id="rect4981" width="5.728" height="5.728" x="11.819" y="44.461"/><rect style="display:inline;opacity:1;fill:#0f0;fill-opacity:1;stroke:none;stroke-width:1;stroke-miterlimit:4;stroke-dasharray:none;stroke-opacity:1" id="rect4983" width="5.814" height="5.814" x="21.571" y="27.209"/><rect style="display:inline;opacity:1;fill:#0f0;fill-opacity:1;stroke:none;stroke-width:1;stroke-miterlimit:4;stroke-dasharray:none;stroke-opacity:1" id="rect4989" width="5.557" height="5.557" x="12.466" y="27.43"/><rect style="display:inline;opacity:1;fill:#0f0;fill-opacity:1;stroke:none;stroke-width:1;stroke-miterlimit:4;stroke-dasharray:none;stroke-opacity:1" id="rect4991" width="5.301" height="5.301" x="2.329" y="17.041"/><rect style="display:inline;opacity:1;fill:#0f0;fill-opacity:1;stroke:none;stroke-width:1;stroke-miterlimit:4;stroke-dasharray:none;stroke-opacity:1" id="rect5041" width="5.728" height="5.728" x="2.757" y="27.47"/><rect style="display:inline;opacity:1;fill:red;fill-opacity:1;stroke:none;stroke-width:1;stroke-miterlimit:4;stroke-dasharray:none;stroke-opacity:1" id="rect5043" width="5.728" height="5.728" x="2.757" y="34.257"/><rect style="display:inline;opacity:1;fill:red;fill-opacity:1;stroke:none;stroke-width:1;stroke-miterlimit:4;stroke-dasharray:none;stroke-opacity:1" id="rect5045" width="5.044" height="5.386" x="12.722" y="34.046"/><rect style="display:inline;opacity:1;fill:red;fill-opacity:1;stroke:none;stroke-width:1;stroke-miterlimit:4;stroke-dasharray:none;stroke-opacity:1" id="rect5047" width="5.386" height="5.386" x="21.785" y="34.081"/><rect style="display:inline;opacity:1;fill:red;fill-opacity:1;stroke:none;stroke-width:1;stroke-miterlimit:4;stroke-dasharray:none;stroke-opacity:1" id="rect5049" width="5.472" height="5.472" x="12.204" y="51.206"/><rect style="display:inline;opacity:1;fill:red;fill-opacity:1;stroke:none;stroke-width:1;stroke-miterlimit:4;stroke-dasharray:none;stroke-opacity:1" id="rect5053" width="5.301" height="5.472" x="12.046" y="77.942"/><rect style="display:inline;opacity:1;fill:#0f0;fill-opacity:1;stroke:none;stroke-width:1;stroke-miterlimit:4;stroke-dasharray:none;stroke-opacity:1" id="rect4923" width="5.643" height="5.459" x="2.329" y="83.48"/><rect style="display:inline;opacity:1;fill:red;fill-opacity:1;stroke:none;stroke-width:1;stroke-miterlimit:4;stroke-dasharray:none;stroke-opacity:1" id="rect4945" width="5.215" height="5.215" x="10.158" y="17.127"/><rect style="display:inline;opacity:1;fill:#00f;fill-opacity:1;stroke:none;stroke-width:1;stroke-miterlimit:4;stroke-dasharray:none;stroke-opacity:1" id="rect4947" width="5.63" height="5.472" x="22.383" y="74.895"/><rect style="display:inline;opacity:1;fill:#0f0;fill-opacity:1;stroke:none;stroke-width:1;stroke-miterlimit:4;stroke-dasharray:none;stroke-opacity:1" id="rect5332" width="5.472" height="5.472" x="2.223" y="10.317"/></g></svg>