<svg xmlns="http://www.w3.org/2000/svg" xmlns:svg="http://www.w3.org/2000/svg" xmlns:xlink="http://www.w3.org/1999/xlink" id="svg8" width="30" height="380" version="1.1" viewBox="0 0 7.938 100.542"><defs id="defs2"><linearGradient id="linearGradient4189"><stop id="stop4191" offset="0" style="stop-color:#fff;stop-opacity:1"/><stop id="stop4193" offset="1" style="stop-color:#000;stop-opacity:0"/></linearGradient><linearGradient id="linearGradient5349"><stop id="stop5351" offset="0" style="stop-color:#fdfdfd;stop-opacity:1"/><stop id="stop5353" offset="1" style="stop-color:#fdfdfd;stop-opacity:1"/></linearGradient><radialGradient id="radialGradient5357" cx="285.494" cy="856.052" r="69.827" fx="285.494" fy="856.052" gradientTransform="matrix(0.15593884,0,0,0.0276277,-41.463046,271.51832)" gradientUnits="userSpaceOnUse" xlink:href="#linearGradient5349"/><linearGradient id="linearGradient4195" x1="268.967" x2="279.915" y1="830.884" y2="832.532" gradientTransform="matrix(0.26458334,0,0,0.26458334,-59.861442,72.341009)" gradientUnits="userSpaceOnUse" xlink:href="#linearGradient4189"/><clipPath id="clipPath4237" clipPathUnits="userSpaceOnUse"><path id="path4239" d="m 0,287.08964 7.9375003,0 0,16.26035 -7.9375003,0 z" style="opacity:1;fill:#000;fill-opacity:1;fill-rule:evenodd;stroke:none;stroke-width:.48607069;stroke-linecap:butt;stroke-linejoin:round;stroke-miterlimit:4;stroke-dasharray:none;stroke-dashoffset:0;stroke-opacity:1;paint-order:normal"/></clipPath><clipPath id="clipPath4241" clipPathUnits="userSpaceOnUse"><path id="path4243" d="m 0,287.08964 7.9375003,0 0,16.26035 -7.9375003,0 z" style="opacity:1;fill:#000;fill-opacity:1;fill-rule:evenodd;stroke:none;stroke-width:.48607069;stroke-linecap:butt;stroke-linejoin:round;stroke-miterlimit:4;stroke-dasharray:none;stroke-dashoffset:0;stroke-opacity:1;paint-order:normal"/></clipPath><clipPath id="clipPath4245" clipPathUnits="userSpaceOnUse"><path id="path4247" d="m 0,287.08964 7.9375003,0 0,16.26035 -7.9375003,0 z" style="opacity:1;fill:#000;fill-opacity:1;fill-rule:evenodd;stroke:none;stroke-width:.48607069;stroke-linecap:butt;stroke-linejoin:round;stroke-miterlimit:4;stroke-dasharray:none;stroke-dashoffset:0;stroke-opacity:1;paint-order:normal"/></clipPath><clipPath id="clipPath4249" clipPathUnits="userSpaceOnUse"><path id="path4251" d="m 0,287.08964 7.9375003,0 0,16.26035 -7.9375003,0 z" style="opacity:1;fill:#000;fill-opacity:1;fill-rule:evenodd;stroke:none;stroke-width:.48607069;stroke-linecap:butt;stroke-linejoin:round;stroke-miterlimit:4;stroke-dasharray:none;stroke-dashoffset:0;stroke-opacity:1;paint-order:normal"/></clipPath></defs><metadata id="metadata5"/><g id="layer1" transform="translate(0,-196.45832)" style="display:inline"><path style="opacity:1;fill:#000;fill-opacity:1;fill-rule:evenodd;stroke:none;stroke-width:.48607069;stroke-linecap:butt;stroke-linejoin:round;stroke-miterlimit:4;stroke-dasharray:none;stroke-dashoffset:0;stroke-opacity:1;paint-order:normal" id="rect817" d="m 0,196.45831 7.9375003,0 0,100.54168 -7.9375003,0 z"/><path style="opacity:1;fill:url(#radialGradient5357);fill-opacity:1;stroke:#8b8b8b;stroke-width:.24531077;stroke-linejoin:miter;stroke-miterlimit:4;stroke-dasharray:none;stroke-opacity:1" id="path5329" d="m 9.3572678,295.01995 -6.3006432,-0.1292 -5.32998,0.1292 -0.2646648,-3.28489 c 2.59821808,-0.55685 4.2553061,-0.39873 6.4599802,-0.43372 2.0142944,-0.032 5.5795768,-0.039 5.6999726,0.86392 z" clip-path="url(#clipPath4249)"/><path style="opacity:0;fill:url(#linearGradient4195);fill-opacity:1;stroke:none;stroke-width:.2;stroke-miterlimit:4;stroke-dasharray:none;stroke-opacity:1" id="path4187" d="m 14.199453,292.6152 a 2.800842,1.0121423 0 0 1 -2.800842,1.01215 2.800842,1.0121423 0 0 1 -2.800842,-1.01215 2.800842,1.0121423 0 0 1 2.800842,-1.01214 2.800842,1.0121423 0 0 1 2.800842,1.01214 z" clip-path="url(#clipPath4245)"/><path style="opacity:1;fill:#000;fill-opacity:1;stroke:none;stroke-width:2;stroke-miterlimit:4;stroke-dasharray:none;stroke-opacity:1" id="rect4215" d="m 0,292.06375 c 2.8866249,-0.42139 5.4120624,-0.36119 7.9375,0 l 0,4.93624 -7.9375,0 z" clip-path="url(#clipPath4241)"/><g style="font-size:2.93737936px;opacity:1;fill:#fc00d8;fill-opacity:1;stroke:#f057ff;stroke-width:.13229167;stroke-miterlimit:4;stroke-dasharray:none;stroke-opacity:1" id="text4229" transform="matrix(0.67555965,0,0,1.4802542,0,1.0583334)"><path style="fill:#fc00d8;fill-opacity:1;stroke:#f057ff;stroke-width:.13229167;stroke-miterlimit:4;stroke-dasharray:none;stroke-opacity:1" id="path4267" d="m 0.42526044,133.26275 0.29259052,0 0.45035994,1.81005 0.4489256,-1.81005 0.3255787,0 0.4503599,1.81005 0.4489257,-1.81005 0.2940248,0 -0.5378503,2.14136 -0.3643038,0 -0.4517942,-1.85881 -0.456097,1.85881 -0.3643039,0 -0.53641596,-2.14136 z"/><path style="fill:#fc00d8;fill-opacity:1;stroke:#f057ff;stroke-width:.13229167;stroke-miterlimit:4;stroke-dasharray:none;stroke-opacity:1" id="path4269" d="m 4.3092562,134.04443 q -0.044462,-0.0258 -0.09753,-0.0373 -0.051634,-0.0129 -0.1147414,-0.0129 -0.2237457,0 -0.3442241,0.14629 -0.1190442,0.14487 -0.1190442,0.41738 l 0,0.84621 -0.2653395,0 0,-1.60638 0.2653395,0 0,0.24957 q 0.083187,-0.1463 0.2165743,-0.21658 0.1333869,-0.0717 0.3241444,-0.0717 0.027251,0 0.060239,0.004 0.032988,0.003 0.073148,0.01 l 0.00143,0.27108 z"/><path style="fill:#fc00d8;fill-opacity:1;stroke:#f057ff;stroke-width:.13229167;stroke-miterlimit:4;stroke-dasharray:none;stroke-opacity:1" id="path4271" d="m 4.5918071,133.79773 0.2639051,0 0,1.60638 -0.2639051,0 0,-1.60638 z m 0,-0.62534 0.2639051,0 0,0.33419 -0.2639051,0 0,-0.33419 z"/><path style="fill:#fc00d8;fill-opacity:1;stroke:#f057ff;stroke-width:.13229167;stroke-miterlimit:4;stroke-dasharray:none;stroke-opacity:1" id="path4273" d="m 6.4635259,134.58228 q 0,-0.28685 -0.1190442,-0.44462 -0.1176099,-0.15777 -0.3313157,-0.15777 -0.2122716,0 -0.3313157,0.15777 -0.11761,0.15777 -0.11761,0.44462 0,0.28542 0.11761,0.44319 0.1190441,0.15777 0.3313157,0.15777 0.2137058,0 0.3313157,-0.15777 0.1190442,-0.15777 0.1190442,-0.44319 z m 0.2639052,0.62247 q 0,0.4102 -0.182152,0.60956 -0.1821519,0.2008 -0.5579299,0.2008 -0.1391239,0 -0.2624709,-0.0215 -0.123347,-0.0201 -0.2395227,-0.0631 l 0,-0.25673 q 0.1161757,0.0631 0.2294828,0.0932 0.1133071,0.0301 0.230917,0.0301 0.2596024,0 0.3886865,-0.13625 0.129084,-0.13482 0.129084,-0.40877 l 0,-0.13052 q -0.081753,0.142 -0.209403,0.21227 -0.1276498,0.0703 -0.3054989,0.0703 -0.2954591,0 -0.4761768,-0.22518 -0.1807176,-0.22518 -0.1807176,-0.59665 0,-0.37291 0.1807176,-0.59809 0.1807177,-0.22518 0.4761768,-0.22518 0.1778491,0 0.3054989,0.0703 0.1276498,0.0703 0.209403,0.21227 l 0,-0.24383 0.2639052,0 0,1.40702 z"/><path style="fill:#fc00d8;fill-opacity:1;stroke:#f057ff;stroke-width:.13229167;stroke-miterlimit:4;stroke-dasharray:none;stroke-opacity:1" id="path4275" d="m 8.3280732,134.58228 q 0,-0.28685 -0.1190442,-0.44462 -0.1176099,-0.15777 -0.3313158,-0.15777 -0.2122715,0 -0.3313157,0.15777 -0.1176099,0.15777 -0.1176099,0.44462 0,0.28542 0.1176099,0.44319 0.1190442,0.15777 0.3313157,0.15777 0.2137059,0 0.3313158,-0.15777 0.1190442,-0.15777 0.1190442,-0.44319 z m 0.2639051,0.62247 q 0,0.4102 -0.1821519,0.60956 -0.1821519,0.2008 -0.55793,0.2008 -0.1391239,0 -0.2624709,-0.0215 -0.123347,-0.0201 -0.2395226,-0.0631 l 0,-0.25673 q 0.1161756,0.0631 0.2294828,0.0932 0.1133071,0.0301 0.230917,0.0301 0.2596024,0 0.3886864,-0.13625 0.1290841,-0.13482 0.1290841,-0.40877 l 0,-0.13052 q -0.081753,0.142 -0.2094031,0.21227 -0.1276497,0.0703 -0.3054989,0.0703 -0.295459,0 -0.4761767,-0.22518 -0.1807177,-0.22518 -0.1807177,-0.59665 0,-0.37291 0.1807177,-0.59809 0.1807177,-0.22518 0.4761767,-0.22518 0.1778492,0 0.3054989,0.0703 0.1276498,0.0703 0.2094031,0.21227 l 0,-0.24383 0.2639051,0 0,1.40702 z"/><path style="fill:#fc00d8;fill-opacity:1;stroke:#f057ff;stroke-width:.13229167;stroke-miterlimit:4;stroke-dasharray:none;stroke-opacity:1" id="path4277" d="m 9.1355659,133.17239 0.2639052,0 0,2.23172 -0.2639052,0 0,-2.23172 z"/><path style="fill:#fc00d8;fill-opacity:1;stroke:#f057ff;stroke-width:.13229167;stroke-miterlimit:4;stroke-dasharray:none;stroke-opacity:1" id="path4279" d="m 11.324258,134.53495 0,0.12908 -1.21339,0 q 0.01721,0.27251 0.163506,0.41594 0.14773,0.14199 0.410201,0.14199 0.152032,0 0.294024,-0.0373 0.143427,-0.0373 0.283985,-0.11187 l 0,0.24956 q -0.141992,0.0602 -0.291156,0.0918 -0.149164,0.0316 -0.30263,0.0316 -0.384384,0 -0.609564,-0.22375 -0.2237456,-0.22374 -0.2237456,-0.60526 0,-0.39442 0.2122716,-0.62534 0.213706,-0.23235 0.575141,-0.23235 0.324145,0 0.512034,0.2094 0.189323,0.20797 0.189323,0.56654 z m -0.263905,-0.0774 q -0.0029,-0.21658 -0.121913,-0.34566 -0.11761,-0.12909 -0.31267,-0.12909 -0.220877,0 -0.354264,0.12479 -0.131953,0.12478 -0.152033,0.35139 l 0.94088,-0.001 z"/></g><g style="font-size:1.984375px;opacity:1;fill:#fff;fill-opacity:1;stroke:none;stroke-width:1;stroke-miterlimit:4;stroke-dasharray:none;stroke-opacity:1" id="text4205" transform="matrix(1.709384,0,0,1.709384,-3.3725844,-142.56694)"><path id="path4266" d="m 3.4546602,202.48745 0.1957245,0 0,1.44662 -0.1957245,0 0,-1.44662 z"/><path id="path4268" d="m 4.0398958,202.48745 0.2635498,0 0.6414337,1.2102 0,-1.2102 0.1899109,0 0,1.44662 -0.2635498,0 -0.6414337,-1.2102 0,1.2102 -0.1899109,0 0,-1.44662 z"/></g><g style="font-size:1.984375px;opacity:1;fill:#fff;fill-opacity:1;stroke:none;stroke-width:1;stroke-miterlimit:4;stroke-dasharray:none;stroke-opacity:1" id="text4219" transform="translate(-0.32597506,7.7535545)"><path id="path4283" d="m 1.7425554,222.99517 0,1.12493 0.2364197,0 q 0.2994003,0 0.4379577,-0.13565 0.1395264,-0.13565 0.1395264,-0.42827 0,-0.29068 -0.1395264,-0.42536 -0.1385574,-0.13565 -0.4379577,-0.13565 l -0.2364197,0 z m -0.1957245,-0.16084 0.4021072,0 q 0.420517,0 0.6172104,0.17537 0.1966934,0.17441 0.1966934,0.54648 0,0.37401 -0.1976623,0.54939 -0.1976624,0.17537 -0.6162415,0.17537 l -0.4021072,0 0,-1.44661 z"/><path id="path4285" d="m 3.5244234,223.02715 -0.2654877,0.71991 0.5319443,0 -0.2664566,-0.71991 z m -0.1104584,-0.19282 0.2218857,0 0.5513229,1.44661 -0.2034759,0 -0.1317749,-0.3711 -0.652092,0 -0.1317749,0.3711 -0.2063828,0 0.5522919,-1.44661 z"/><path id="path4287" d="m 4.39937,222.83433 0.2916488,0 0.3691635,0.98443 0.3711014,-0.98443 0.2916489,0 0,1.44661 -0.1908798,0 0,-1.27027 -0.3730393,0.99219 -0.1966934,0 -0.3730393,-0.99219 0,1.27027 -0.1899108,0 0,-1.44661 z"/><path id="path4289" d="m 6.3042924,222.99517 0,0.54357 0.246109,0 q 0.1366196,0 0.2112275,-0.0707 0.074608,-0.0707 0.074608,-0.20154 0,-0.12984 -0.074608,-0.20057 -0.074608,-0.0707 -0.2112275,-0.0707 l -0.246109,0 z m -0.1957244,-0.16084 0.4418334,0 q 0.2432023,0 0.3672257,0.11046 0.1249924,0.10949 0.1249924,0.32168 0,0.21414 -0.1249924,0.32363 -0.1240234,0.10948 -0.3672257,0.10948 l -0.246109,0 0,0.58136 -0.1957244,0 0,-1.44661 z"/></g><g style="font-size:1.984375px;opacity:1;fill:#fff;fill-opacity:1;stroke:none;stroke-width:1;stroke-miterlimit:4;stroke-dasharray:none;stroke-opacity:1" id="text4223" transform="translate(-0.32597551,11.801657)"><path id="path4292" d="m 2.1717927,234.98158 0,0.19088 q -0.1114273,-0.0533 -0.2102584,-0.0795 -0.098831,-0.0262 -0.1908799,-0.0262 -0.1598739,0 -0.2470779,0.062 -0.086235,0.062 -0.086235,0.17635 0,0.0959 0.057167,0.14534 0.058136,0.0484 0.2189789,0.0785 l 0.1182098,0.0242 q 0.2189789,0.0417 0.3226547,0.14728 0.1046448,0.10465 0.1046448,0.28099 0,0.21026 -0.1414642,0.31878 -0.1404953,0.10852 -0.4127655,0.10852 -0.1027069,0 -0.2189789,-0.0232 -0.115303,-0.0233 -0.2393265,-0.0688 l 0,-0.20154 q 0.1191788,0.0669 0.2335129,0.10077 0.1143341,0.0339 0.2247925,0.0339 0.1676254,0 0.2587051,-0.0659 0.09108,-0.0659 0.09108,-0.18797 0,-0.10659 -0.065887,-0.16666 -0.064919,-0.0601 -0.2141342,-0.0901 l -0.1191788,-0.0233 q -0.2189789,-0.0436 -0.3168411,-0.13662 -0.097862,-0.093 -0.097862,-0.2587 0,-0.19185 0.1346817,-0.30231 0.1356507,-0.11046 0.3730393,-0.11046 0.101738,0 0.2073517,0.0184 0.1056137,0.0184 0.216072,0.0552 z"/><path id="path4294" d="m 3.6513536,235.04553 0,0.20638 q -0.098831,-0.092 -0.2112274,-0.13758 -0.1114273,-0.0455 -0.2373886,-0.0455 -0.2480469,0 -0.3798218,0.15212 -0.1317749,0.15115 -0.1317749,0.43796 0,0.28583 0.1317749,0.43795 0.1317749,0.15116 0.3798218,0.15116 0.1259613,0 0.2373886,-0.0455 0.1123962,-0.0455 0.2112274,-0.13759 l 0,0.20444 q -0.1027069,0.0698 -0.21801,0.10465 -0.1143341,0.0349 -0.2422332,0.0349 -0.3284684,0 -0.5174103,-0.20057 -0.188942,-0.20154 -0.188942,-0.54938 0,-0.34882 0.188942,-0.54939 0.1889419,-0.20154 0.5174103,-0.20154 0.129837,0 0.2441711,0.0349 0.1153031,0.0339 0.2160721,0.1027 z"/><path id="path4296" d="m 4.4390962,235.12692 -0.2654877,0.71992 0.5319443,0 -0.2664566,-0.71992 z m -0.1104584,-0.19282 0.2218857,0 0.551323,1.44662 -0.203476,0 -0.1317749,-0.3711 -0.652092,0 -0.1317749,0.3711 -0.2063827,0 0.5522918,-1.44662 z"/><path id="path4298" d="m 5.3121049,234.9341 0.1957245,0 0,1.2819 0.7044144,0 0,0.16472 -0.9001389,0 0,-1.44662 z"/><path id="path4300" d="m 6.4166887,234.9341 0.9146728,0 0,0.16472 -0.7189483,0 0,0.42827 0.6889114,0 0,0.16472 -0.6889114,0 0,0.52419 0.7363891,0 0,0.16472 -0.9321136,0 0,-1.44662 z"/></g><g style="font-size:1.984375px;opacity:1;fill:#fff;fill-opacity:1;stroke:none;stroke-width:1;stroke-miterlimit:4;stroke-dasharray:none;stroke-opacity:1" id="text4227" transform="translate(-0.32597509,1.9165913)"><path id="path4303" d="m 1.2493685,261.67432 q -0.2131653,0 -0.33912663,0.1589 -0.12499237,0.15891 -0.12499237,0.43311 0,0.27324 0.12499237,0.43215 0.12596133,0.1589 0.33912663,0.1589 0.2131652,0 0.3371887,-0.1589 0.1249924,-0.15891 0.1249924,-0.43215 0,-0.2742 -0.1249924,-0.43311 -0.1240235,-0.1589 -0.3371887,-0.1589 z m 0,-0.15891 q 0.304245,0 0.4864044,0.20445 0.1821594,0.20347 0.1821594,0.54647 0,0.34204 -0.1821594,0.54648 -0.1821594,0.20348 -0.4864044,0.20348 -0.30521397,0 -0.48834233,-0.20348 -0.18215942,-0.20347 -0.18215942,-0.54648 0,-0.343 0.18215942,-0.54647 0.18312836,-0.20445 0.48834233,-0.20445 z"/><path id="path4305" d="m 2.2241152,261.54157 0.8313446,0 0,0.16472 -0.6356201,0 0,0.42633 0.5736083,0 0,0.16472 -0.5736083,0 0,0.69085 -0.1957245,0 0,-1.44662 z"/><path id="path4307" d="m 3.3635805,261.54157 0.8313446,0 0,0.16472 -0.6356201,0 0,0.42633 0.5736084,0 0,0.16472 -0.5736084,0 0,0.69085 -0.1957245,0 0,-1.44662 z"/><path id="path4309" d="m 5.3372972,261.58905 0,0.19088 q -0.1114273,-0.0533 -0.2102585,-0.0794 -0.098831,-0.0262 -0.1908798,-0.0262 -0.1598739,0 -0.2470779,0.062 -0.086235,0.062 -0.086235,0.17634 0,0.0959 0.057167,0.14534 0.058136,0.0485 0.2189789,0.0785 l 0.1182098,0.0242 q 0.2189789,0.0417 0.3226547,0.14728 0.1046448,0.10464 0.1046448,0.28099 0,0.21026 -0.1414642,0.31878 -0.1404953,0.10852 -0.4127655,0.10852 -0.1027069,0 -0.2189789,-0.0233 -0.115303,-0.0232 -0.2393265,-0.0688 l 0,-0.20154 q 0.1191788,0.0669 0.2335129,0.10077 0.1143341,0.0339 0.2247925,0.0339 0.1676254,0 0.2587051,-0.0659 0.09108,-0.0659 0.09108,-0.18798 0,-0.10658 -0.065887,-0.16665 -0.064919,-0.0601 -0.2141342,-0.0901 l -0.1191788,-0.0233 q -0.2189789,-0.0436 -0.3168411,-0.13662 -0.097862,-0.093 -0.097862,-0.2587 0,-0.19185 0.1346817,-0.30231 0.1356507,-0.11046 0.3730393,-0.11046 0.1017379,0 0.2073516,0.0184 0.1056138,0.0184 0.2160721,0.0552 z"/><path id="path4311" d="m 5.7355287,261.54157 0.9146729,0 0,0.16472 -0.7189484,0 0,0.42827 0.6889115,0 0,0.16472 -0.6889115,0 0,0.52419 0.7363892,0 0,0.16472 -0.9321137,0 0,-1.44662 z"/><path id="path4313" d="m 6.7868212,261.54157 1.2237625,0 0,0.16472 -0.5135346,0 0,1.2819 -0.1966934,0 0,-1.2819 -0.5135345,0 0,-0.16472 z"/></g><rect style="opacity:1;fill:#606060;fill-opacity:1;stroke:none;stroke-width:1;stroke-miterlimit:4;stroke-dasharray:none;stroke-opacity:1" id="rect4468" width="6.575" height="10.301" x=".681" y="278.867" rx="1.076" ry=".964"/><g style="font-size:1.984375px;opacity:1;fill:#fff;fill-opacity:1;stroke:none;stroke-width:1;stroke-miterlimit:4;stroke-dasharray:none;stroke-opacity:1" id="text4231" transform="matrix(1.4543888,0,0,1.4543888,-2.2774501,-127.66225)"><path id="path4316" d="m 2.9043062,280.36224 q -0.2131653,0 -0.3391266,0.15891 -0.1249924,0.1589 -0.1249924,0.43311 0,0.27324 0.1249924,0.43215 0.1259613,0.1589 0.3391266,0.1589 0.2131653,0 0.3371887,-0.1589 0.1249924,-0.15891 0.1249924,-0.43215 0,-0.27421 -0.1249924,-0.43311 -0.1240234,-0.15891 -0.3371887,-0.15891 z m 0,-0.1589 q 0.304245,0 0.4864044,0.20444 0.1821594,0.20348 0.1821594,0.54648 0,0.34204 -0.1821594,0.54648 -0.1821594,0.20348 -0.4864044,0.20348 -0.305214,0 -0.4883423,-0.20348 -0.1821594,-0.20348 -0.1821594,-0.54648 0,-0.343 0.1821594,-0.54648 0.1831283,-0.20444 0.4883423,-0.20444 z"/><path id="path4318" d="m 3.8567674,280.2295 0.1966934,0 0,0.87882 q 0,0.23255 0.084297,0.33525 0.084297,0.10174 0.2732392,0.10174 0.187973,0 0.2722702,-0.10174 0.084297,-0.1027 0.084297,-0.33525 l 0,-0.87882 0.1966935,0 0,0.90305 q 0,0.28292 -0.1404953,0.42729 -0.1395264,0.14438 -0.4127655,0.14438 -0.2742081,0 -0.4147034,-0.14438 -0.1395264,-0.14437 -0.1395264,-0.42729 l 0,-0.90305 z"/><path id="path4320" d="m 5.1318834,280.2295 1.2237625,0 0,0.16472 -0.5135346,0 0,1.2819 -0.1966934,0 0,-1.2819 -0.5135345,0 0,-0.16472 z"/></g><path id="path4323" d="m 1.9669343,293.32601 0,0.16859 q -0.075577,-0.0388 -0.1569671,-0.0581 -0.08139,-0.0194 -0.1685944,-0.0194 -0.1327439,0 -0.1996002,0.0407 -0.065887,0.0407 -0.065887,0.12209 0,0.062 0.047478,0.0979 0.047478,0.0349 0.1908799,0.0669 l 0.061043,0.0136 q 0.1899109,0.0407 0.2693635,0.1153 0.080421,0.0736 0.080421,0.20639 0,0.15115 -0.1201477,0.23932 -0.1191788,0.0882 -0.3284683,0.0882 -0.087204,0 -0.1821595,-0.0174 -0.093986,-0.0165 -0.1986313,-0.0504 l 0,-0.1841 q 0.098831,0.0514 0.1947556,0.0775 0.095924,0.0252 0.1899109,0.0252 0.1259613,0 0.1937866,-0.0426 0.067825,-0.0436 0.067825,-0.12209 0,-0.0727 -0.049416,-0.11143 -0.048447,-0.0388 -0.2141343,-0.0746 l -0.062012,-0.0145 q -0.1656876,-0.0349 -0.2393265,-0.10658 -0.073639,-0.0727 -0.073639,-0.19863 0,-0.15309 0.1085205,-0.23642 0.1085205,-0.0833 0.3081208,-0.0833 0.098831,0 0.1860351,0.0145 0.087204,0.0145 0.1608429,0.0436 z" style="font-size:medium;text-align:center;text-anchor:middle;fill:#fff;fill-opacity:1;stroke:none;stroke-width:1;stroke-miterlimit:4;stroke-dasharray:none;stroke-opacity:1"/><path id="path4325" d="m 2.7304537,293.41902 q -0.1434021,0 -0.2267303,0.1124 -0.083328,0.11143 -0.083328,0.30618 0,0.19476 0.082359,0.30716 0.083328,0.11142 0.2276993,0.11142 0.1424332,0 0.2257614,-0.11239 0.083328,-0.1124 0.083328,-0.30619 0,-0.19281 -0.083328,-0.30521 -0.083328,-0.11337 -0.2257614,-0.11337 z m 0,-0.15115 q 0.232544,0 0.3652878,0.15115 0.1327439,0.15116 0.1327439,0.41858 0,0.26646 -0.1327439,0.41858 -0.1327438,0.15116 -0.3652878,0.15116 -0.2335129,0 -0.3662567,-0.15116 -0.1317749,-0.15212 -0.1317749,-0.41858 0,-0.26742 0.1317749,-0.41858 0.1327438,-0.15115 0.3662567,-0.15115 z" style="font-size:medium;text-align:center;text-anchor:middle;fill:#fff;fill-opacity:1;stroke:none;stroke-width:1;stroke-miterlimit:4;stroke-dasharray:none;stroke-opacity:1"/><path id="path4327" d="m 3.5046314,293.95097 0,-0.65694 0.1782837,0 0,0.65016 q 0,0.15406 0.060074,0.23157 0.060074,0.0765 0.1802216,0.0765 0.144371,0 0.2276993,-0.0921 0.084297,-0.092 0.084297,-0.25096 l 0,-0.61527 0.1782837,0 0,1.08521 -0.1782837,0 0,-0.16666 q -0.064919,0.0988 -0.1511536,0.14728 -0.085266,0.0475 -0.1986313,0.0475 -0.1870041,0 -0.2838974,-0.11628 -0.096893,-0.11627 -0.096893,-0.34009 z" style="font-size:medium;text-align:center;text-anchor:middle;fill:#fff;fill-opacity:1;stroke:none;stroke-width:1;stroke-miterlimit:4;stroke-dasharray:none;stroke-opacity:1"/><path id="path4329" d="m 4.9590002,292.98591 0,0.30812 0.3672257,0 0,0.13856 -0.3672257,0 0,0.58911 q 0,0.13274 0.03585,0.17053 0.03682,0.0378 0.1482468,0.0378 l 0.1831284,0 0,0.14922 -0.1831284,0 q -0.2063828,0 -0.2848663,-0.0765 -0.078484,-0.0775 -0.078484,-0.28099 l 0,-0.58911 -0.130806,0 0,-0.13856 0.130806,0 0,-0.30812 0.1792526,0 z" style="font-size:medium;text-align:center;text-anchor:middle;fill:#fff;fill-opacity:1;stroke:none;stroke-width:1;stroke-miterlimit:4;stroke-dasharray:none;stroke-opacity:1"/><path id="path4466" d="m 3.317268,292.7653 1.6672701,-1.60622 1.4290891,1.77237 z" style="fill:#000;fill-opacity:1;fill-rule:evenodd;stroke:#000;stroke-width:.35696304px;stroke-linecap:butt;stroke-linejoin:miter;stroke-opacity:1"/><path style="fill:#000;fill-opacity:1;fill-rule:evenodd;stroke:#000;stroke-width:.26458335px;stroke-linecap:butt;stroke-linejoin:miter;stroke-opacity:1" id="path4464" d="m 5.199373,292.83373 0.8427702,-1.74574 0.7223747,1.92633 z"/><path id="path4331" d="m 6.4637534,293.72424 0,0.655 -0.1782837,0 0,-0.64919 q 0,-0.15406 -0.060074,-0.2306 -0.060074,-0.0765 -0.1802216,-0.0765 -0.144371,0 -0.2276993,0.092 -0.083328,0.0921 -0.083328,0.25095 l 0,0.61334 -0.1792526,0 0,-1.50766 0.1792526,0 0,0.59105 q 0.06395,-0.0979 0.1501846,-0.14631 0.087204,-0.0485 0.2005692,-0.0485 0.1870041,0 0.2829285,0.11627 0.095924,0.11531 0.095924,0.3401 z" style="font-size:medium;text-align:center;text-anchor:middle;fill:#fff;fill-opacity:1;stroke:none;stroke-width:1;stroke-miterlimit:4;stroke-dasharray:none;stroke-opacity:1"/><path id="path4333" d="m 2.1006471,296.16776 0,0.57554 -0.1792526,0 0,-1.49797 0.1792526,0 0,0.16472 q 0.056198,-0.0969 0.1414642,-0.1434 0.086235,-0.0475 0.2054139,-0.0475 0.1976623,0 0.3207169,0.15697 0.1240234,0.15696 0.1240234,0.41276 0,0.2558 -0.1240234,0.41277 -0.1230546,0.15697 -0.3207169,0.15697 -0.1191788,0 -0.2054139,-0.0465 -0.085266,-0.0475 -0.1414642,-0.14437 z m 0.6065522,-0.37886 q 0,-0.19669 -0.08139,-0.30812 -0.080421,-0.11239 -0.2218857,-0.11239 -0.1414643,0 -0.2228546,0.11239 -0.080421,0.11143 -0.080421,0.30812 0,0.1967 0.080421,0.30909 0.08139,0.11143 0.2228546,0.11143 0.1414642,0 0.2218857,-0.11143 0.08139,-0.11239 0.08139,-0.30909 z" style="font-size:medium;text-align:center;text-anchor:middle;fill:#fff;fill-opacity:1;stroke:none;stroke-width:1;stroke-miterlimit:4;stroke-dasharray:none;stroke-opacity:1"/><path id="path4335" d="m 3.6083072,295.37032 q -0.1434022,0 -0.2267304,0.1124 -0.083328,0.11143 -0.083328,0.30618 0,0.19476 0.082359,0.30715 0.083328,0.11143 0.2276993,0.11143 0.1424331,0 0.2257614,-0.11239 0.083328,-0.1124 0.083328,-0.30619 0,-0.19282 -0.083328,-0.30521 -0.083328,-0.11337 -0.2257614,-0.11337 z m 0,-0.15115 q 0.2325439,0 0.3652878,0.15115 0.1327438,0.15116 0.1327438,0.41858 0,0.26646 -0.1327438,0.41858 -0.1327439,0.15116 -0.3652878,0.15116 -0.2335129,0 -0.3662568,-0.15116 -0.1317749,-0.15212 -0.1317749,-0.41858 0,-0.26742 0.1317749,-0.41858 0.1327439,-0.15115 0.3662568,-0.15115 z" style="font-size:medium;text-align:center;text-anchor:middle;fill:#fff;fill-opacity:1;stroke:none;stroke-width:1;stroke-miterlimit:4;stroke-dasharray:none;stroke-opacity:1"/><path id="path4337" d="m 4.4008945,294.82288 0.1782837,0 0,1.50766 -0.1782837,0 0,-1.50766 z" style="font-size:medium;text-align:center;text-anchor:middle;fill:#fff;fill-opacity:1;stroke:none;stroke-width:1;stroke-miterlimit:4;stroke-dasharray:none;stroke-opacity:1"/><path id="path4339" d="m 5.8794865,295.74336 0,0.0872 -0.8197175,0 q 0.011627,0.18409 0.1104584,0.28099 0.0998,0.0959 0.2771149,0.0959 0.1027069,0 0.1986313,-0.0252 0.096893,-0.0252 0.1918488,-0.0756 l 0,0.1686 q -0.095924,0.0407 -0.1966935,0.062 -0.100769,0.0213 -0.2044449,0.0213 -0.259674,0 -0.4117965,-0.15116 -0.1511536,-0.15115 -0.1511536,-0.40889 0,-0.26645 0.1434021,-0.42245 0.144371,-0.15697 0.3885422,-0.15697 0.2189789,0 0.3459091,0.14146 0.1278992,0.1405 0.1278992,0.38273 z m -0.1782837,-0.0523 q -0.00194,-0.14631 -0.082359,-0.23351 -0.079452,-0.0872 -0.2112275,-0.0872 -0.1492157,0 -0.2393264,0.0843 -0.089142,0.0843 -0.102707,0.23739 l 0.6356202,-9.7e-4 z" style="font-size:medium;text-align:center;text-anchor:middle;fill:#fff;fill-opacity:1;stroke:none;stroke-width:1;stroke-miterlimit:4;stroke-dasharray:none;stroke-opacity:1"/><g style="font-size:1.984375px;opacity:1;fill:#fff;fill-opacity:1;stroke:none;stroke-width:1;stroke-miterlimit:4;stroke-dasharray:none;stroke-opacity:1" id="text4470" transform="translate(0,1.0583334)"><path id="path4475" d="m 1.4146425,212.43386 1.2237625,0 0,0.16472 -0.5135346,0 0,1.2819 -0.1966934,0 0,-1.2819 -0.5135345,0 0,-0.16472 z"/><path id="path4477" d="m 2.8321916,212.43386 0.9146728,0 0,0.16472 -0.7189483,0 0,0.42827 0.6889114,0 0,0.16472 -0.6889114,0 0,0.52419 0.7363891,0 0,0.16472 -0.9321136,0 0,-1.44662 z"/><path id="path4479" d="m 4.0840532,212.43386 0.2635498,0 0.6414337,1.2102 0,-1.2102 0.1899109,0 0,1.44662 -0.2635498,0 -0.6414338,-1.2102 0,1.2102 -0.1899108,0 0,-1.44662 z"/><path id="path4481" d="m 6.4356538,212.48134 0,0.19088 q -0.1114273,-0.0533 -0.2102585,-0.0795 -0.098831,-0.0262 -0.1908798,-0.0262 -0.159874,0 -0.2470779,0.062 -0.086235,0.062 -0.086235,0.17634 0,0.0959 0.057167,0.14534 0.058136,0.0485 0.2189788,0.0785 l 0.1182099,0.0242 q 0.2189789,0.0417 0.3226547,0.14728 0.1046448,0.10464 0.1046448,0.28099 0,0.21026 -0.1414642,0.31878 -0.1404953,0.10852 -0.4127656,0.10852 -0.1027069,0 -0.2189788,-0.0233 -0.1153031,-0.0233 -0.2393265,-0.0688 l 0,-0.20154 q 0.1191788,0.0669 0.2335129,0.10077 0.1143341,0.0339 0.2247924,0.0339 0.1676255,0 0.2587052,-0.0659 0.09108,-0.0659 0.09108,-0.18797 0,-0.10658 -0.065888,-0.16666 -0.064919,-0.0601 -0.2141342,-0.0901 l -0.1191787,-0.0232 q -0.2189789,-0.0436 -0.3168412,-0.13662 -0.097862,-0.093 -0.097862,-0.2587 0,-0.19185 0.1346817,-0.30231 0.1356506,-0.11046 0.3730392,-0.11046 0.101738,0 0.2073517,0.0184 0.1056137,0.0184 0.2160721,0.0552 z"/></g></g><g id="layer3" style="display:none"><rect style="display:inline;opacity:1;fill:#ff0200;fill-opacity:1;stroke:none;stroke-width:1;stroke-miterlimit:4;stroke-dasharray:none;stroke-opacity:1" id="rect5091" width="5.643" height="5.557" x="22.004" y="51.12"/><rect style="display:inline;opacity:1;fill:#0f0;fill-opacity:1;stroke:none;stroke-width:1;stroke-miterlimit:4;stroke-dasharray:none;stroke-opacity:1" id="rect5093" width="5.215" height="5.215" x="22.084" y="45.009"/><rect style="display:inline;opacity:1;fill:#00f;fill-opacity:1;stroke:none;stroke-width:1;stroke-miterlimit:4;stroke-dasharray:none;stroke-opacity:1" id="rect4969" width="5.386" height="5.386" x="22.383" y="83.223"/><rect style="display:inline;opacity:1;fill:#0f0;fill-opacity:1;stroke:none;stroke-width:1;stroke-miterlimit:4;stroke-dasharray:none;stroke-opacity:1" id="rect4975" width="5.355" height="5.591" x="2.329" y="75.109"/><rect style="display:inline;opacity:1;fill:#0f0;fill-opacity:1;stroke:none;stroke-width:1;stroke-miterlimit:4;stroke-dasharray:none;stroke-opacity:1" id="rect4979" width="5.557" height="5.557" x="2.44" y="44.96"/><rect style="display:inline;opacity:1;fill:#0f0;fill-opacity:1;stroke:none;stroke-width:1;stroke-miterlimit:4;stroke-dasharray:none;stroke-opacity:1" id="rect4981" width="5.728" height="5.728" x="11.819" y="44.461"/><rect style="display:inline;opacity:1;fill:#0f0;fill-opacity:1;stroke:none;stroke-width:1;stroke-miterlimit:4;stroke-dasharray:none;stroke-opacity:1" id="rect4983" width="5.814" height="5.814" x="21.571" y="27.209"/><rect style="display:inline;opacity:1;fill:#0f0;fill-opacity:1;stroke:none;stroke-width:1;stroke-miterlimit:4;stroke-dasharray:none;stroke-opacity:1" id="rect4989" width="5.557" height="5.557" x="12.466" y="27.43"/><rect style="display:inline;opacity:1;fill:#0f0;fill-opacity:1;stroke:none;stroke-width:1;stroke-miterlimit:4;stroke-dasharray:none;stroke-opacity:1" id="rect4991" width="5.301" height="5.301" x="2.329" y="17.041"/><rect style="display:inline;opacity:1;fill:#0f0;fill-opacity:1;stroke:none;stroke-width:1;stroke-miterlimit:4;stroke-dasharray:none;stroke-opacity:1" id="rect5041" width="5.728" height="5.728" x="2.757" y="27.47"/><rect style="display:inline;opacity:1;fill:red;fill-opacity:1;stroke:none;stroke-width:1;stroke-miterlimit:4;stroke-dasharray:none;stroke-opacity:1" id="rect5043" width="5.728" height="5.728" x="2.757" y="34.257"/><rect style="display:inline;opacity:1;fill:red;fill-opacity:1;stroke:none;stroke-width:1;stroke-miterlimit:4;stroke-dasharray:none;stroke-opacity:1" id="rect5045" width="5.044" height="5.386" x="12.722" y="34.046"/><rect style="display:inline;opacity:1;fill:red;fill-opacity:1;stroke:none;stroke-width:1;stroke-miterlimit:4;stroke-dasharray:none;stroke-opacity:1" id="rect5047" width="5.386" height="5.386" x="21.785" y="34.081"/><rect style="display:inline;opacity:1;fill:red;fill-opacity:1;stroke:none;stroke-width:1;stroke-miterlimit:4;stroke-dasharray:none;stroke-opacity:1" id="rect5049" width="5.472" height="5.472" x="12.204" y="51.206"/><rect style="display:inline;opacity:1;fill:red;fill-opacity:1;stroke:none;stroke-width:1;stroke-miterlimit:4;stroke-dasharray:none;stroke-opacity:1" id="rect5053" width="5.301" height="5.472" x="12.046" y="77.942"/><rect style="display:inline;opacity:1;fill:#0f0;fill-opacity:1;stroke:none;stroke-width:1;stroke-miterlimit:4;stroke-dasharray:none;stroke-opacity:1" id="rect4923" width="5.643" height="5.459" x="2.329" y="83.48"/><rect style="display:inline;opacity:1;fill:red;fill-opacity:1;stroke:none;stroke-width:1;stroke-miterlimit:4;stroke-dasharray:none;stroke-opacity:1" id="rect4945" width="5.215" height="5.215" x="10.158" y="17.127"/><rect style="display:inline;opacity:1;fill:#00f;fill-opacity:1;stroke:none;stroke-width:1;stroke-miterlimit:4;stroke-dasharray:none;stroke-opacity:1" id="rect4947" width="5.63" height="5.472" x="22.383" y="74.895"/><rect style="display:inline;opacity:1;fill:#0f0;fill-opacity:1;stroke:none;stroke-width:1;stroke-miterlimit:4;stroke-dasharray:none;stroke-opacity:1" id="rect5332" width="5.472" height="5.472" x="2.223" y="10.317"/></g></svg>