<svg xmlns="http://www.w3.org/2000/svg" xmlns:svg="http://www.w3.org/2000/svg" id="svg3295" width="15" height="15" version="1.0"><title id="title3711">Custom Torx screw VCV Rack</title><metadata id="metadata3300"/><g id="layer1" transform="translate(0,-25)"><circle style="opacity:1;fill:#4e4a1e;fill-opacity:1;stroke:#8e8637;stroke-width:.34999999;stroke-linecap:square;stroke-linejoin:miter;stroke-miterlimit:4;stroke-dasharray:none;stroke-dashoffset:0;stroke-opacity:1" id="roundedscrew" cx="7.5" cy="32.5" r="7.125"/><g id="star" transform="matrix(0.70635633,0,0,0.62092463,6.2638775,-0.09854047)" style="opacity:1;fill:#676228;fill-opacity:1;stroke:none"><g id="g2325" transform="matrix(0.068827,0,0,0.06882715,-22.051007,-11.923865)" style="fill:#676228;fill-opacity:1;stroke:none"><path style="fill:#676228;fill-opacity:1;stroke:none;stroke-width:1.21246648;stroke-linejoin:miter;stroke-miterlimit:4;stroke-dasharray:none;stroke-opacity:1" id="path7856" d="m 456.62321,1000.2128 c -10.61732,18.3294 -55.46391,-10.47338 -73.82349,0.092 -18.35957,10.5651 -15.99057,63.8116 -37.17296,63.7815 -21.18238,-0.03 -18.66175,-53.2698 -36.99115,-63.8871 -18.32939,-10.61735 -63.25785,18.0576 -73.82292,-0.30199 -10.56506,-18.35957 36.80217,-42.79648 36.83234,-63.97886 0.0302,-21.18239 -47.26728,-45.7541 -36.64996,-64.0835 10.61731,-18.32939 55.46391,10.47337 73.82348,-0.0917 18.35957,-10.56507 15.99057,-63.81171 37.17296,-63.78155 21.18238,0.0302 18.66175,53.26984 36.99115,63.88716 18.3294,10.61732 63.25785,-18.0576 73.82292,0.30196 10.56507,18.35957 -36.80217,42.79648 -36.83234,63.97886 -0.0301,21.18239 47.26728,45.7541 36.64997,64.08352 z"/></g></g><circle style="opacity:1;fill:#000;fill-opacity:1;fill-rule:evenodd;stroke:none;stroke-width:.5px;stroke-linecap:butt;stroke-linejoin:miter;stroke-opacity:1" id="center" cx="7.5" cy="32.5" r="2.5"/></g></svg>