<svg xmlns="http://www.w3.org/2000/svg" xmlns:xlink="http://www.w3.org/1999/xlink" style="isolation:isolate" width="12" height="12" viewBox="0 0 12 12"><defs><clipPath id="_clipPath_JnxI68cSRPNb9IgiXI20soPpq16PtMFZ"><rect width="12" height="12"/></clipPath></defs><g clip-path="url(#_clipPath_JnxI68cSRPNb9IgiXI20soPpq16PtMFZ)"><g style="isolation:isolate" id="Head"><g id="Group"><linearGradient id="_lgradient_43" x1="80.128%" x2="22.564%" y1="10.641%" y2="91.282%"><stop offset="1.304%" stop-opacity="1" style="stop-color:#e8e8e8"/><stop offset="100%" stop-opacity="1" style="stop-color:#a2a2a2"/></linearGradient><path fill="url(#_lgradient_43)" d="M 0 6 C 0 2.689 2.689 0 6 0 C 9.311 0 12 2.689 12 6 C 12 9.311 9.311 12 6 12 C 2.689 12 0 9.311 0 6 Z"/><path fill="#D1D1D1" d="M 0.75 6 C 0.75 3.102 3.102 0.75 6 0.75 C 8.898 0.75 11.25 3.102 11.25 6 C 11.25 8.898 8.898 11.25 6 11.25 C 3.102 11.25 0.75 8.898 0.75 6 Z"/></g></g><path fill="#A2A2A2" d="M 5.25 2.25 L 6.75 2.25 L 6.75 5.25 L 9.75 5.25 L 9.75 6.75 L 6.75 6.75 L 6.75 9.75 L 5.25 9.75 L 5.25 6.75 L 2.25 6.75 L 2.25 5.25 L 5.25 5.25 L 5.25 2.25 Z"/></g></svg>