<svg xmlns="http://www.w3.org/2000/svg" xmlns:svg="http://www.w3.org/2000/svg" id="svg85367" width="60" height="380" version="1.1" viewBox="0 0 15.875 100.542"><metadata id="metadata85364"/><g id="layer4" style="display:inline"><path id="path65292-2" d="M 0.05024939,0.11721047 H 16.073371 V 100.51333 H 0.05024939 Z m 0,0" style="fill:#4d4d4d;fill-opacity:1;fill-rule:nonzero;stroke:none;stroke-width:.1963895"/></g><g id="layer3" style="display:inline"><rect style="fill:gray;stroke-width:.25390878" id="rect3911" width="25.857" height="5.77" x="35.839" y="79.83" ry="2.756"/><rect id="rect4212" width="25.857" height="5.77" x="35.839" y="87.165" ry="2.756" style="fill:gray;stroke-width:.25390878"/><rect id="rect3923" width="84.9" height="5.823" x="8.069" y="-54.803" ry="2.781" transform="rotate(90)" style="fill:#c83737;stroke-width:.46220216"/><rect style="fill:gray;stroke-width:.25390878" id="rect4214" width="25.857" height="5.77" x="35.839" y="14.217" ry="2.756"/><rect id="rect4216" width="25.857" height="5.77" x="35.839" y="7.127" ry="2.756" style="fill:gray;stroke-width:.25390878"/><rect style="fill:#08a;stroke-width:.46220213" id="rect3921" width="84.9" height="5.823" x="7.111" y="-48.238" ry="2.781" transform="rotate(90)"/><path id="path60" d="m 38.557772,87.166446 10.770936,0.01654 c 0.412423,6.33e-4 3.335597,-0.0456 3.764625,1.267619 l 0.921921,2.821932 c 0.47413,1.451284 -2.461853,1.664509 -2.830314,1.664495 l -12.627168,-4.71e-4 c -1.52677,-5.7e-5 -2.755902,-1.229083 -2.755902,-2.755853 v -0.258366 c 0,-1.526769 1.229203,-2.770667 2.755902,-2.755901 z" style="fill:#c83737;fill-opacity:1;stroke-width:.25390878"/><rect id="rect5240" width="90.887" height="5.823" x="8.069" y="-61.653" ry="2.781" transform="rotate(90)" style="fill:gray;fill-opacity:1;stroke-width:.478221"/><path id="path65" d="m 58.909878,19.983865 -10.787761,0.01653 c -0.421076,6.46e-4 -0.08769,-0.663435 -0.06832,-2.044833 l 0.03376,-2.408105 c 0.0214,-1.526628 0.175156,-1.299483 0.551345,-1.300694 l 10.270973,-0.03307 c 1.5588,-0.005 2.813732,1.229132 2.813732,2.755902 v 0.258366 c 0,1.526769 -1.254998,2.770667 -2.813732,2.755901 z" style="fill:#08a;fill-opacity:1;stroke-width:.25655898"/><g style="font-style:normal;font-variant:normal;font-weight:700;font-stretch:normal;font-size:3.52777767px;line-height:1.25;font-family:'DejaVu Sans';-inkscape-font-specification:'DejaVu Sans, Bold';font-variant-ligatures:normal;font-variant-caps:normal;font-variant-numeric:normal;font-feature-settings:normal;text-align:start;letter-spacing:0;word-spacing:0;writing-mode:lr-tb;text-anchor:start;fill:#f2f2f2;fill-opacity:1;stroke:none;stroke-width:.26458332" id="text4043" aria-label="STEP" transform="translate(32.578239,-0.5595413)"><path id="path62" d="m 12.473953,16.456269 v 0.544325 q -0.211874,-0.09474 -0.413412,-0.142971 -0.201538,-0.04823 -0.380683,-0.04823 -0.237711,0 -0.351399,0.06546 -0.113688,0.06546 -0.113688,0.203261 0,0.103353 0.07579,0.161919 0.07751,0.05684 0.279052,0.09819 l 0.282498,0.05684 q 0.428915,0.08613 0.609782,0.261827 0.180868,0.1757 0.180868,0.499539 0,0.425469 -0.253215,0.633897 -0.251492,0.206706 -0.769979,0.206706 -0.244602,0 -0.490926,-0.04651 -0.246324,-0.04651 -0.492649,-0.137804 V 18.25289 q 0.246325,0.130914 0.475424,0.198093 0.230821,0.06546 0.444417,0.06546 0.217041,0 0.332452,-0.07235 0.11541,-0.07235 0.11541,-0.206706 0,-0.120578 -0.07924,-0.186035 -0.07751,-0.06546 -0.311781,-0.117133 l -0.25666,-0.05684 q -0.38585,-0.08268 -0.564995,-0.26355 -0.177423,-0.180867 -0.177423,-0.487481 0,-0.384128 0.248047,-0.590834 0.248047,-0.206706 0.713135,-0.206706 0.211873,0 0.435805,0.03273 0.223931,0.03101 0.463365,0.09474 z"/><path id="path64" d="m 12.920093,16.375309 h 2.370225 v 0.501262 h -0.852661 v 2.070502 h -0.663181 v -2.070502 h -0.854383 z"/><path id="path66" d="m 15.631383,16.375309 h 1.789727 v 0.501262 h -1.126546 v 0.478868 H 17.35393 V 17.8567 h -1.059366 v 0.589112 h 1.164442 v 0.501261 h -1.827623 z"/><path id="path68" d="m 18.042949,16.375309 h 1.100708 q 0.490927,0 0.752754,0.218764 0.26355,0.217041 0.26355,0.620117 0,0.404799 -0.26355,0.623562 -0.261827,0.217041 -0.752754,0.217041 H 18.70613 v 0.89228 H 18.042949 Z M 18.70613,16.8559 v 0.718302 h 0.366903 q 0.192925,0 0.298001,-0.09302 0.105075,-0.09474 0.105075,-0.266995 0,-0.172255 -0.105075,-0.265272 -0.105076,-0.09302 -0.298001,-0.09302 z"/></g><rect id="rect5230" width="14.857" height="5.77" x="46.852" y="87.165" ry="2.756" style="fill:#c83737;fill-opacity:1;stroke-width:.19246477"/><g style="font-style:normal;font-variant:normal;font-weight:700;font-stretch:normal;font-size:3.52777767px;line-height:1.25;font-family:'DejaVu Sans';-inkscape-font-specification:'DejaVu Sans, Bold';font-variant-ligatures:normal;font-variant-caps:normal;font-variant-numeric:normal;font-feature-settings:normal;text-align:start;letter-spacing:0;word-spacing:0;writing-mode:lr-tb;text-anchor:start;fill:#f2f2f2;fill-opacity:1;stroke:none;stroke-width:.26458332" id="text4033" aria-label="COUNT" transform="translate(32.822558,-0.56126601)"><path id="path40" d="m 11.295772,91.754045 q -0.18259,0.09474 -0.380683,0.142972 -0.198093,0.04823 -0.413411,0.04823 -0.6425104,0 -1.0180258,-0.35829 -0.3755154,-0.360012 -0.3755154,-0.974962 0,-0.616672 0.3755154,-0.974962 0.3755154,-0.360012 1.0180258,-0.360012 0.215318,0 0.413411,0.04823 0.198093,0.04823 0.380683,0.142971 v 0.532268 q -0.184312,-0.125746 -0.363457,-0.184313 -0.179145,-0.05857 -0.377238,-0.05857 -0.354845,0 -0.5581056,0.227376 -0.2032606,0.227376 -0.2032606,0.627007 0,0.397909 0.2032606,0.625285 0.2032606,0.227376 0.5581056,0.227376 0.198093,0 0.377238,-0.05857 0.179145,-0.05857 0.363457,-0.184313 z"/><path id="path42" d="m 13.021765,89.757613 q -0.303168,0 -0.470255,0.223931 -0.167087,0.223931 -0.167087,0.630452 0,0.404799 0.167087,0.62873 0.167087,0.223931 0.470255,0.223931 0.304891,0 0.471978,-0.223931 0.167087,-0.223931 0.167087,-0.62873 0,-0.406521 -0.167087,-0.630452 -0.167087,-0.223931 -0.471978,-0.223931 z m 0,-0.480591 q 0.620117,0 0.971517,0.354845 0.3514,0.354844 0.3514,0.980129 0,0.623562 -0.3514,0.978407 -0.3514,0.354845 -0.971517,0.354845 -0.618394,0 -0.971517,-0.354845 -0.351399,-0.354845 -0.351399,-0.978407 0,-0.625285 0.351399,-0.980129 0.353123,-0.354845 0.971517,-0.354845 z"/><path id="path44" d="m 14.844221,89.32353 h 0.663181 v 1.541681 q 0,0.318671 0.103353,0.456475 0.105075,0.136081 0.341064,0.136081 0.237712,0 0.341065,-0.136081 0.105075,-0.137804 0.105075,-0.456475 V 89.32353 h 0.663181 v 1.541681 q 0,0.546047 -0.273885,0.813042 -0.273885,0.266995 -0.835436,0.266995 -0.559828,0 -0.833713,-0.266995 -0.273885,-0.266995 -0.273885,-0.813042 z"/><path id="path46" d="m 17.71054,89.32353 h 0.740695 l 0.935343,1.763889 V 89.32353 h 0.62873 v 2.571764 H 19.274613 L 18.33927,90.131405 v 1.763889 h -0.62873 z"/><path id="path48" d="m 20.359819,89.32353 h 2.370225 v 0.501262 h -0.852661 v 2.070502 h -0.663181 v -2.070502 h -0.854383 z"/></g><g style="font-style:normal;font-variant:normal;font-weight:700;font-stretch:normal;font-size:2.82222223px;line-height:1.25;font-family:'DejaVu Sans';-inkscape-font-specification:'DejaVu Sans, Bold';font-variant-ligatures:normal;font-variant-caps:normal;font-variant-numeric:normal;font-feature-settings:normal;text-align:start;letter-spacing:0;word-spacing:0;writing-mode:lr-tb;text-anchor:start;fill:#f2f2f2;fill-opacity:1;stroke:none;stroke-width:.26458332" id="text4051" aria-label="automaton" transform="translate(33.114694,-0.56126601)"><path id="path80" d="m 8.3881645,5.4986884 q -0.1543402,0 -0.2328884,0.052366 -0.07717,0.052365 -0.07717,0.1543402 0,0.093707 0.062012,0.1474501 0.06339,0.052366 0.1750108,0.052366 0.1391819,0 0.2342665,-0.099219 0.095085,-0.1005968 0.095085,-0.2508029 v -0.0565 z M 9.1419514,5.3126533 V 6.1932197 H 8.6444797 V 5.9644653 Q 8.5452607,6.1050252 8.4212375,6.169793 8.297214,6.233183 8.1194471,6.233183 7.8796684,6.233183 7.7294623,6.0940011 7.5806342,5.953441 7.5806342,5.7301988 q 0,-0.2714735 0.1860351,-0.398253 0.1874132,-0.1267795 0.5870443,-0.1267795 h 0.2907661 v -0.038585 q 0,-0.1171332 -0.092329,-0.1708767 -0.092329,-0.055122 -0.28801,-0.055122 -0.1584744,0 -0.2949002,0.031695 -0.1364257,0.031695 -0.253559,0.095085 V 4.691158 Q 7.8741559,4.652573 8.0340083,4.63328 8.1938608,4.612609 8.3537132,4.612609 q 0.4175456,0 0.6022027,0.1653646 0.1860351,0.1639866 0.1860355,0.5346797 z"/><path id="path82" d="M 9.5870578,5.592395 V 4.6498169 h 0.4960942 v 0.1543403 q 0,0.1254014 -0.0014,0.3155707 -0.0014,0.1887912 -0.0014,0.252181 0,0.1860352 0.0096,0.2687174 0.0096,0.081304 0.03307,0.1185113 0.03032,0.048231 0.07855,0.074414 0.04961,0.026183 0.112999,0.026183 0.15434,0 0.242535,-0.1185113 0.08819,-0.1185113 0.08819,-0.3293511 V 4.6498169 h 0.493338 V 6.1932197 H 10.645391 V 5.9699775 q -0.111621,0.1350477 -0.237022,0.1998155 -0.124024,0.06339 -0.27423,0.06339 -0.2673395,0 -0.4078994,-0.1639866 Q 9.5870578,5.9052097 9.5870578,5.592395 Z"/><path id="path84" d="m 12.154343,4.2116007 v 0.4382162 h 0.508496 v 0.3527778 h -0.508496 v 0.6545681 q 0,0.107487 0.04272,0.1460721 0.04272,0.037207 0.169499,0.037207 h 0.253559 v 0.3527778 h -0.423058 q -0.292144,0 -0.414789,-0.1212674 Q 11.661005,5.9493069 11.661005,5.6571628 V 5.0025947 H 11.415714 V 4.6498169 h 0.245291 V 4.2116007 Z"/><path id="path86" d="m 13.700502,4.9653876 q -0.163987,0 -0.250803,0.1185113 -0.08544,0.1171333 -0.08544,0.3389974 0,0.2218642 0.08544,0.3403754 0.08682,0.1171333 0.250803,0.1171333 0.16123,0 0.246669,-0.1171333 0.08544,-0.1185112 0.08544,-0.3403754 0,-0.2218641 -0.08544,-0.3389974 -0.08544,-0.1185113 -0.246669,-0.1185113 z m 0,-0.3527778 q 0.398253,0 0.621495,0.214974 0.22462,0.214974 0.22462,0.5953125 0,0.3803386 -0.22462,0.5953125 -0.223242,0.214974 -0.621495,0.214974 -0.399631,0 -0.62563,-0.214974 -0.22462,-0.2149739 -0.22462,-0.5953125 0,-0.3803385 0.22462,-0.5953125 0.225999,-0.214974 0.62563,-0.214974 z"/><path id="path88" d="m 16.336689,4.906132 q 0.09371,-0.143316 0.221864,-0.2177301 0.129536,-0.075792 0.283876,-0.075792 0.265961,0 0.405143,0.1639866 0.139182,0.1639865 0.139182,0.4768012 v 0.939822 H 16.89066 V 5.3884454 q 0.0014,-0.017914 0.0014,-0.037207 0.0014,-0.019293 0.0014,-0.055122 0,-0.1639866 -0.04823,-0.2370226 -0.04823,-0.074414 -0.155718,-0.074414 -0.14056,0 -0.21773,0.1157552 -0.07579,0.1157552 -0.07855,0.3348633 v 0.757921 H 15.897095 V 5.3884454 q 0,-0.2563152 -0.0441,-0.3293512 -0.0441,-0.074414 -0.157097,-0.074414 -0.141938,0 -0.219108,0.1171332 -0.07717,0.1157552 -0.07717,0.3321072 V 6.1932197 H 14.903529 V 4.6498169 h 0.496094 v 0.2259982 q 0.09095,-0.1309136 0.208084,-0.1970594 0.118511,-0.066146 0.260449,-0.066146 0.159853,0 0.282498,0.07717 0.122645,0.07717 0.186035,0.2163523 z"/><path id="path90" d="m 18.54155,5.4986884 q -0.154341,0 -0.232889,0.052366 -0.07717,0.052365 -0.07717,0.1543402 0,0.093707 0.06201,0.1474501 0.06339,0.052366 0.175011,0.052366 0.139182,0 0.234266,-0.099219 0.09509,-0.1005968 0.09509,-0.2508029 v -0.0565 z M 19.295337,5.3126533 V 6.1932197 H 18.797865 V 5.9644653 q -0.09922,0.1405599 -0.223242,0.2053277 -0.124024,0.06339 -0.301791,0.06339 -0.239778,0 -0.389985,-0.1391819 -0.148828,-0.1405599 -0.148828,-0.3638021 0,-0.2714735 0.186035,-0.398253 0.187414,-0.1267795 0.587045,-0.1267795 h 0.290766 v -0.038585 q 0,-0.1171332 -0.09233,-0.1708767 -0.09233,-0.055122 -0.28801,-0.055122 -0.158474,0 -0.2949,0.031695 -0.136426,0.031695 -0.253559,0.095085 V 4.691158 q 0.158474,-0.038585 0.318327,-0.057878 0.159852,-0.020671 0.319705,-0.020671 0.417545,0 0.602202,0.1653646 0.186036,0.1639866 0.186036,0.5346789 z"/><path id="path92" d="m 20.295793,4.2116007 v 0.4382162 h 0.508496 v 0.3527778 h -0.508496 v 0.6545681 q 0,0.107487 0.04272,0.1460721 0.04272,0.037207 0.169499,0.037207 h 0.253559 v 0.3527778 h -0.423058 q -0.292144,0 -0.414789,-0.1212674 Q 19.802455,5.9493069 19.802455,5.6571628 V 5.0025947 h -0.24529 V 4.6498169 h 0.24529 V 4.2116007 Z"/><path id="path94" d="m 21.841952,4.9653876 q -0.163987,0 -0.250803,0.1185113 -0.08544,0.1171333 -0.08544,0.3389974 0,0.2218642 0.08544,0.3403754 0.08682,0.1171333 0.250803,0.1171333 0.16123,0 0.246669,-0.1171333 0.08544,-0.1185112 0.08544,-0.3403754 0,-0.2218641 -0.08544,-0.3389974 -0.08544,-0.1185113 -0.246669,-0.1185113 z m 0,-0.3527778 q 0.398253,0 0.621495,0.214974 0.22462,0.214974 0.22462,0.5953125 0,0.3803386 -0.22462,0.5953125 -0.223242,0.214974 -0.621495,0.214974 -0.399631,0 -0.62563,-0.214974 -0.22462,-0.2149739 -0.22462,-0.5953125 0,-0.3803385 0.22462,-0.5953125 0.225999,-0.214974 0.62563,-0.214974 z"/><path id="path96" d="M 24.599405,5.2533976 V 6.1932197 H 24.103312 V 6.0402574 5.4738837 q 0,-0.1998155 -0.0096,-0.2756076 -0.0083,-0.075792 -0.03032,-0.1116211 -0.02894,-0.048231 -0.07855,-0.074414 -0.04961,-0.027561 -0.112999,-0.027561 -0.15434,0 -0.242534,0.1198893 -0.08819,0.1185113 -0.08819,0.3293511 V 6.1932197 H 23.047734 V 4.6498169 h 0.493338 v 0.2259982 q 0.111621,-0.1350477 0.237023,-0.1984375 0.125401,-0.064768 0.276985,-0.064768 0.26734,0 0.405144,0.1639866 0.139181,0.1639865 0.139181,0.4768014 z"/></g><g style="font-style:normal;font-variant:normal;font-weight:700;font-stretch:normal;font-size:2.82222223px;line-height:1.25;font-family:'DejaVu Sans';-inkscape-font-specification:'DejaVu Sans, Bold';font-variant-ligatures:normal;font-variant-caps:normal;font-variant-numeric:normal;font-feature-settings:normal;text-align:start;letter-spacing:0;word-spacing:0;writing-mode:lr-tb;text-anchor:start;fill:#f2f2f2;fill-opacity:1;stroke:none;stroke-width:.26458332" id="text4057" aria-label="qwelk" transform="translate(33.114694,1.5554007)"><path id="path29" d="m 11.498968,95.707734 q -0.157097,0 -0.241157,0.115755 -0.08268,0.115755 -0.08268,0.336241 0,0.220486 0.08268,0.336242 0.08406,0.115755 0.241157,0.115755 0.158474,0 0.241156,-0.115755 0.08406,-0.115756 0.08406,-0.336242 0,-0.220486 -0.08406,-0.336241 -0.08268,-0.115755 -0.241156,-0.115755 z m 0.325217,0.999078 q -0.101975,0.136425 -0.224621,0.199815 -0.122645,0.06339 -0.283875,0.06339 -0.285254,0 -0.468533,-0.225998 -0.18328,-0.227377 -0.18328,-0.584289 0,-0.356912 0.18328,-0.581532 0.183279,-0.225998 0.468533,-0.225998 0.16123,0 0.283875,0.06339 0.122646,0.06339 0.224621,0.199815 v -0.228754 h 0.496093 v 2.130447 h -0.496093 z"/><path id="path31" d="m 12.659276,95.386651 h 0.479557 l 0.259071,1.063845 0.26045,-1.063845 h 0.412033 l 0.259071,1.052821 0.260449,-1.052821 h 0.479558 l -0.406522,1.543403 h -0.538812 l -0.26045,-1.06109 -0.259071,1.06109 h -0.538813 z"/><path id="path33" d="m 16.944975,96.154218 v 0.14056 h -1.153418 q 0.01791,0.173633 0.125401,0.260449 0.107487,0.08682 0.300413,0.08682 0.155718,0 0.318326,-0.04548 0.163987,-0.04685 0.336242,-0.140559 v 0.380338 q -0.175011,0.06615 -0.350022,0.09922 -0.175011,0.03445 -0.350022,0.03445 -0.418923,0 -0.651812,-0.212218 -0.23151,-0.213596 -0.23151,-0.598069 0,-0.377582 0.227376,-0.593934 0.228754,-0.216352 0.628386,-0.216352 0.363802,0 0.581532,0.219108 0.219108,0.219108 0.219108,0.585667 z m -0.507118,-0.163986 q 0,-0.14056 -0.08268,-0.225999 -0.0813,-0.08682 -0.213596,-0.08682 -0.143315,0 -0.232888,0.0813 -0.08957,0.07993 -0.111621,0.231511 z"/><path id="path35" d="m 17.317045,94.785826 h 0.493338 v 2.144228 h -0.493338 z"/><path id="path37" d="m 18.287184,94.785826 h 0.493338 v 1.167199 l 0.567751,-0.566374 h 0.573264 l -0.753787,0.708312 0.813043,0.835091 H 19.382724 L 18.780522,96.28651 v 0.643544 h -0.493338 z"/></g><path style="fill:#08a;fill-opacity:1;stroke-width:.25390878" id="path81" d="m 58.942103,12.891676 -10.903229,-1e-6 c -0.412424,0 0.179933,-0.498544 -0.75499,-1.515666 L 44.272926,8.1003257 C 43.239713,6.9762711 44.610965,7.1186811 48.757702,7.1194992 l 10.184401,0.00201 c 1.52677,3.012e-4 2.755902,1.229132 2.755902,2.7559027 v 0.2583661 c 0,1.526769 -1.229204,2.770667 -2.755902,2.755901 z"/><g style="font-style:normal;font-variant:normal;font-weight:700;font-stretch:normal;font-size:3.52777767px;line-height:1.25;font-family:'DejaVu Sans';-inkscape-font-specification:'DejaVu Sans, Bold';font-variant-ligatures:normal;font-variant-caps:normal;font-variant-numeric:normal;font-feature-settings:normal;text-align:start;letter-spacing:0;word-spacing:0;writing-mode:lr-tb;text-anchor:start;fill:#f2f2f2;fill-opacity:1;stroke:none;stroke-width:.26458332" id="text4039" aria-label="SCAN" transform="translate(32.575095,-0.56126601)"><path id="path71" d="m 12.660892,9.3669689 v 0.544325 q -0.211873,-0.09474 -0.413411,-0.1429714 -0.201538,-0.048231 -0.380683,-0.048231 -0.237712,0 -0.3514,0.065457 -0.113688,0.065457 -0.113688,0.2032606 0,0.1033529 0.07579,0.1619199 0.07751,0.05684 0.279053,0.09818 l 0.282497,0.05684 q 0.428915,0.08613 0.609782,0.261827 0.180868,0.175699 0.180868,0.499538 0,0.425471 -0.253215,0.633898 -0.251492,0.206707 -0.769979,0.206707 -0.244601,0 -0.490926,-0.04651 -0.246324,-0.04651 -0.492648,-0.137804 v -0.559828 q 0.246324,0.130914 0.475423,0.198093 0.230821,0.06546 0.444417,0.06546 0.217041,0 0.332452,-0.07235 0.115411,-0.07235 0.115411,-0.206706 0,-0.120578 -0.07924,-0.186035 -0.07751,-0.06546 -0.311781,-0.117134 l -0.256659,-0.05684 q -0.385851,-0.08268 -0.564996,-0.26355 -0.177422,-0.180869 -0.177422,-0.487482 0,-0.3841277 0.248046,-0.5908334 0.248047,-0.2067058 0.713135,-0.2067058 0.211874,0 0.435805,0.032728 0.223931,0.031006 0.463365,0.09474 z"/><path id="path73" d="m 15.453142,11.716524 q -0.18259,0.09474 -0.380683,0.142971 -0.198093,0.04823 -0.413411,0.04823 -0.642511,0 -1.018026,-0.35829 -0.375516,-0.360013 -0.375516,-0.974962 0,-0.6166723 0.375516,-0.9749622 0.375515,-0.3600125 1.018026,-0.3600125 0.215318,0 0.413411,0.048231 0.198093,0.048231 0.380683,0.1429714 V 9.962968 q -0.184313,-0.125746 -0.363458,-0.1843126 -0.179145,-0.058567 -0.377238,-0.058567 -0.354844,0 -0.558105,0.2273763 -0.203261,0.2273763 -0.203261,0.6270073 0,0.397908 0.203261,0.625285 0.203261,0.227376 0.558105,0.227376 0.198093,0 0.377238,-0.05857 0.179145,-0.05857 0.363458,-0.184312 z"/><path id="path75" d="m 17.564985,11.38924 h -1.036973 l -0.163642,0.468533 h -0.666626 l 0.952569,-2.5717639 h 0.790649 l 0.952569,2.5717639 h -0.666626 z m -0.871609,-0.477146 h 0.704522 l -0.3514,-1.0231932 z"/><path id="path77" d="m 18.732873,9.2860091 h 0.740695 l 0.935344,1.7638889 V 9.2860091 h 0.62873 v 2.5717639 h -0.740696 l -0.935343,-1.763889 v 1.763889 h -0.62873 z"/></g><path style="fill:#c83737;fill-opacity:1;stroke-width:.25390878" id="rect57" d="m 38.548085,79.830481 10.531158,0.0083 c 0.412423,3.24e-4 0.120768,0.638631 0.101799,2.020029 l -0.03307,2.408105 c -0.02096,1.526628 0.589123,1.333767 0.220663,1.333767 l -10.820552,-3e-6 c -1.52677,0 -2.755902,-1.229132 -2.755902,-2.755902 v -0.258366 c 0,-1.526769 1.229204,-2.770667 2.755902,-2.755901 z"/><rect style="fill:#c83737;fill-opacity:1;stroke-width:.19246477" id="rect5228" width="14.857" height="5.77" x="46.852" y="79.823" ry="2.756"/><g style="font-style:normal;font-variant:normal;font-weight:700;font-stretch:normal;font-size:3.52777767px;line-height:1.25;font-family:'DejaVu Sans';-inkscape-font-specification:'DejaVu Sans, Bold';font-variant-ligatures:normal;font-variant-caps:normal;font-variant-numeric:normal;font-feature-settings:normal;text-align:start;letter-spacing:0;word-spacing:0;writing-mode:lr-tb;text-anchor:start;fill:#f2f2f2;fill-opacity:1;stroke:none;stroke-width:.26458332" id="text4029" aria-label="VALUE" transform="translate(32.180909,-0.56126343)"><path style="font-style:normal;font-variant:normal;font-weight:700;font-stretch:normal;font-size:3.52777767px;font-family:'DejaVu Sans';-inkscape-font-specification:'DejaVu Sans, Bold';font-variant-ligatures:normal;font-variant-caps:normal;font-variant-numeric:normal;font-feature-settings:normal;text-align:start;writing-mode:lr-tb;text-anchor:start;fill:#f2f2f2;stroke-width:.26458332" id="path51" d="m 9.7497856,81.965971 h 0.6666264 l 0.682128,1.898248 0.680407,-1.898248 h 0.666626 l -0.952569,2.571764 h -0.790649 z"/><path style="font-style:normal;font-variant:normal;font-weight:700;font-stretch:normal;font-size:3.52777767px;font-family:'DejaVu Sans';-inkscape-font-specification:'DejaVu Sans, Bold';font-variant-ligatures:normal;font-variant-caps:normal;font-variant-numeric:normal;font-feature-settings:normal;text-align:start;writing-mode:lr-tb;text-anchor:start;fill:#f2f2f2;stroke-width:.26458332" id="path53" d="m 14.104386,84.069202 h -1.036974 l -0.163642,0.468533 h -0.666626 l 0.952569,-2.571764 h 0.79065 l 0.952569,2.571764 h -0.666626 z m -0.871609,-0.477146 h 0.704522 l -0.3514,-1.023193 z"/><path style="font-style:normal;font-variant:normal;font-weight:700;font-stretch:normal;font-size:3.52777767px;font-family:'DejaVu Sans';-inkscape-font-specification:'DejaVu Sans, Bold';font-variant-ligatures:normal;font-variant-caps:normal;font-variant-numeric:normal;font-feature-settings:normal;text-align:start;writing-mode:lr-tb;text-anchor:start;fill:#f2f2f2;stroke-width:.26458332" id="path55" d="m 15.272274,81.965971 h 0.663181 v 2.070503 h 1.164442 v 0.501261 h -1.827623 z"/><path style="font-style:normal;font-variant:normal;font-weight:700;font-stretch:normal;font-size:3.52777767px;font-family:'DejaVu Sans';-inkscape-font-specification:'DejaVu Sans, Bold';font-variant-ligatures:normal;font-variant-caps:normal;font-variant-numeric:normal;font-feature-settings:normal;text-align:start;writing-mode:lr-tb;text-anchor:start;fill:#f2f2f2;stroke-width:.26458332" id="path57" d="m 17.394452,81.965971 h 0.663181 v 1.54168 q 0,0.318672 0.103353,0.456476 0.105075,0.136081 0.341065,0.136081 0.237711,0 0.341064,-0.136081 0.105075,-0.137804 0.105075,-0.456476 v -1.54168 h 0.663181 v 1.54168 q 0,0.546048 -0.273885,0.813043 -0.273885,0.266995 -0.835435,0.266995 -0.559828,0 -0.833714,-0.266995 -0.273885,-0.266995 -0.273885,-0.813043 z"/><path style="font-style:normal;font-variant:normal;font-weight:700;font-stretch:normal;font-size:3.52777767px;font-family:'DejaVu Sans';-inkscape-font-specification:'DejaVu Sans, Bold';font-variant-ligatures:normal;font-variant-caps:normal;font-variant-numeric:normal;font-feature-settings:normal;text-align:start;writing-mode:lr-tb;text-anchor:start;fill:#f2f2f2;stroke-width:.26458332" id="path59" d="m 20.260772,81.965971 h 1.789727 v 0.501262 h -1.126547 v 0.478868 h 1.059367 v 0.501261 h -1.059367 v 0.589112 h 1.164443 v 0.501261 h -1.827623 z"/></g><rect style="fill:gray;fill-opacity:1;stroke-width:.478221" id="rect5226" width="90.887" height="5.823" x="8.069" y="-41.574" ry="2.781" transform="rotate(90)"/><g style="font-style:normal;font-variant:normal;font-weight:700;font-stretch:normal;font-size:3.88055563px;line-height:1.25;font-family:sans-serif;-inkscape-font-specification:'sans-serif, Bold';font-variant-ligatures:normal;font-variant-caps:normal;font-variant-numeric:normal;font-feature-settings:normal;text-align:start;letter-spacing:0;word-spacing:0;writing-mode:lr-tb;text-anchor:start;fill:#f2f2f2;fill-opacity:1;stroke:none;stroke-width:.26458332" id="text5236" aria-label="RULE" transform="rotate(-90,16.276714,-16.83798)"><path style="font-style:normal;font-variant:normal;font-weight:700;font-stretch:normal;font-size:3.88055563px;font-family:sans-serif;-inkscape-font-specification:'sans-serif, Bold';font-variant-ligatures:normal;font-variant-caps:normal;font-variant-numeric:normal;font-feature-settings:normal;text-align:start;writing-mode:lr-tb;text-anchor:start;fill:#f2f2f2;fill-opacity:1;stroke-width:.26458332" id="path5259" d="m -89.899334,4.9374248 q 0,-0.1061089 -0.04358,-0.181901 -0.04358,-0.075792 -0.149689,-0.1193726 -0.0739,-0.030317 -0.172427,-0.036001 -0.09853,-0.00758 -0.229271,-0.00758 h -0.263378 v 0.7598159 h 0.223587 q 0.174322,0 0.291799,-0.017053 0.117478,-0.017053 0.19706,-0.077687 0.07579,-0.058739 0.109898,-0.1288465 0.036,-0.072002 0.036,-0.1913751 z m 1.134986,1.957331 H -89.65301 L -90.4223,5.8601936 h -0.33538 v 1.0345622 h -0.723814 v -2.821361 h 1.220252 q 0.250114,0 0.430121,0.028422 0.180006,0.028422 0.337274,0.1231621 0.159164,0.09474 0.252009,0.2463244 0.09474,0.1496894 0.09474,0.3770657 0,0.3126424 -0.1459,0.5097019 -0.144005,0.1970594 -0.413066,0.3278008 z"/><path style="font-style:normal;font-variant:normal;font-weight:700;font-stretch:normal;font-size:3.88055563px;font-family:sans-serif;-inkscape-font-specification:'sans-serif, Bold';font-variant-ligatures:normal;font-variant-caps:normal;font-variant-numeric:normal;font-feature-settings:normal;text-align:start;writing-mode:lr-tb;text-anchor:start;fill:#f2f2f2;fill-opacity:1;stroke-width:.26458332" id="path5261" d="m -85.971409,5.8734573 q 0,0.5229655 -0.318327,0.8015014 -0.318326,0.278536 -0.937927,0.278536 -0.6196,0 -0.937927,-0.278536 -0.316432,-0.2785359 -0.316432,-0.7996066 V 4.0733948 h 0.731394 v 1.7602716 q 0,0.2936944 0.123162,0.4376994 0.123162,0.144005 0.399803,0.144005 0.272852,0 0.397909,-0.1383206 0.126952,-0.1383206 0.126952,-0.4433838 V 4.0733948 h 0.731393 z"/><path style="font-style:normal;font-variant:normal;font-weight:700;font-stretch:normal;font-size:3.88055563px;font-family:sans-serif;-inkscape-font-specification:'sans-serif, Bold';font-variant-ligatures:normal;font-variant-caps:normal;font-variant-numeric:normal;font-feature-settings:normal;text-align:start;writing-mode:lr-tb;text-anchor:start;fill:#f2f2f2;fill-opacity:1;stroke-width:.26458332" id="path5263" d="m -83.254262,6.8947558 h -2.035018 v -2.821361 h 0.727605 v 2.2756579 h 1.307413 z"/><path style="font-style:normal;font-variant:normal;font-weight:700;font-stretch:normal;font-size:3.88055563px;font-family:sans-serif;-inkscape-font-specification:'sans-serif, Bold';font-variant-ligatures:normal;font-variant-caps:normal;font-variant-numeric:normal;font-feature-settings:normal;text-align:start;writing-mode:lr-tb;text-anchor:start;fill:#f2f2f2;fill-opacity:1;stroke-width:.26458332" id="path5265" d="m -80.777755,6.8947558 h -2.040702 v -2.821361 h 2.040702 V 4.619098 h -1.316888 v 0.4869642 h 1.222148 v 0.5457032 h -1.222148 v 0.6972873 h 1.316888 z"/></g><rect id="rect5238" width="25.26" height="5.77" x="36.095" y="93.348" ry="2.756" style="fill:gray;fill-opacity:1;stroke-width:.25095877"/><g style="font-style:normal;font-variant:normal;font-weight:700;font-stretch:normal;font-size:3.88055563px;line-height:1.25;font-family:sans-serif;-inkscape-font-specification:'sans-serif, Bold';font-variant-ligatures:normal;font-variant-caps:normal;font-variant-numeric:normal;font-feature-settings:normal;text-align:start;letter-spacing:0;word-spacing:0;writing-mode:lr-tb;text-anchor:start;fill:#f2f2f2;fill-opacity:1;stroke:none;stroke-width:.26458332" id="text5246" aria-label="GATE" transform="translate(33.114694,-0.56126601)"><path id="path5250" d="m 12.763945,98.042303 q -0.18948,0.0739 -0.502122,0.147795 -0.312643,0.072 -0.62339,0.072 -0.720025,0 -1.127408,-0.390329 -0.407383,-0.392224 -0.407383,-1.081932 0,-0.657497 0.411173,-1.059195 0.411172,-0.403593 1.146355,-0.403593 0.278536,0 0.530545,0.05116 0.252009,0.04927 0.560861,0.198954 v 0.661286 H 12.6711 q -0.05305,-0.03979 -0.155374,-0.111793 -0.102319,-0.0739 -0.197059,-0.125057 -0.109899,-0.06063 -0.257694,-0.104214 -0.145899,-0.04358 -0.310747,-0.04358 -0.19327,0 -0.350539,0.05684 -0.157268,0.05684 -0.282325,0.174322 -0.119373,0.113688 -0.18948,0.289905 -0.06821,0.174322 -0.06821,0.403593 0,0.468016 0.248219,0.716235 0.248219,0.248219 0.733288,0.248219 0.04169,0 0.09095,-0.0019 0.05116,-0.0019 0.09285,-0.0057 v -0.553282 h -0.562756 v -0.53244 h 1.301729 z"/><path id="path5252" d="m 16.021111,98.203362 h -0.752237 l -0.195165,-0.570336 h -1.045931 l -0.195164,0.570336 h -0.733289 l 1.042142,-2.821361 h 0.837502 z m -1.123618,-1.087617 -0.346749,-1.011825 -0.346749,1.011825 z"/><path id="path5254" d="M 18.637833,95.927704 H 17.75675 v 2.275658 h -0.727604 v -2.275658 h -0.881084 v -0.545703 h 2.489771 z"/><path id="path5256" d="m 21.116235,98.203362 h -2.040703 v -2.821361 h 2.040703 v 0.545703 h -1.316888 v 0.486964 h 1.222148 v 0.545703 h -1.222148 v 0.697287 h 1.316888 z"/></g><rect style="fill:#c83737;stroke-width:.51705426" id="rect72" width="45.224" height="13.681" x="6.459" y="-14.854" rx="2.889" ry="3.354" transform="rotate(90)"/><rect id="rect74" width="44.302" height="13.681" x="56.065" y="-14.854" rx="2.83" ry="3.354" transform="rotate(90)" style="fill:#08a;fill-opacity:1;stroke-width:.51175499"/><flowRoot id="flowRoot76" transform="matrix(0.26458333,0,0,0.26458333,-3.5225854,-0.87675193)" xml:space="preserve" style="font-style:normal;font-variant:normal;font-weight:400;font-stretch:normal;font-size:13.33333397px;line-height:1.25;font-family:Calibri;-inkscape-font-specification:'Calibri, Normal';font-variant-ligatures:normal;font-variant-caps:normal;font-variant-numeric:normal;font-feature-settings:normal;text-align:start;letter-spacing:0;word-spacing:0;writing-mode:lr-tb;text-anchor:start;fill:#f2f2f2;fill-opacity:1;stroke:none"><flowRegion id="flowRegion78" style="font-style:normal;font-variant:normal;font-weight:400;font-stretch:normal;font-size:13.33333397px;font-family:Calibri;-inkscape-font-specification:'Calibri, Normal';font-variant-ligatures:normal;font-variant-caps:normal;font-variant-numeric:normal;font-feature-settings:normal;text-align:start;writing-mode:lr-tb;text-anchor:start;fill:#f2f2f2;fill-opacity:1"><rect id="rect80" width="121.622" height="79.196" x="16.263" y="64.63" style="font-style:normal;font-variant:normal;font-weight:400;font-stretch:normal;font-size:13.33333397px;font-family:Calibri;-inkscape-font-specification:'Calibri, Normal';font-variant-ligatures:normal;font-variant-caps:normal;font-variant-numeric:normal;font-feature-settings:normal;text-align:start;writing-mode:lr-tb;text-anchor:start;fill:#f2f2f2;fill-opacity:1"/></flowRegion><flowPara id="flowPara104">AMP</flowPara></flowRoot><g style="font-style:normal;font-variant:normal;font-weight:400;font-stretch:normal;font-size:13.33333397px;line-height:1.25;font-family:Calibri;-inkscape-font-specification:'Calibri, Normal';font-variant-ligatures:normal;font-variant-caps:normal;font-variant-numeric:normal;font-feature-settings:normal;text-align:start;letter-spacing:0;word-spacing:0;writing-mode:lr-tb;text-anchor:start;fill:#f2f2f2;fill-opacity:1;stroke:none" id="flowRoot127" aria-label="AMP" transform="matrix(0.26458333,0,0,0.26458333,-3.5225854,-0.87675193)"><path id="path129" d="m 23.692058,75.900391 q 0.05208,0.143229 0.05208,0.234375 0.0065,0.08464 -0.04557,0.130209 -0.05208,0.04557 -0.175781,0.05859 -0.117188,0.01302 -0.319011,0.01302 -0.201823,0 -0.32552,-0.01302 -0.117188,-0.0065 -0.182292,-0.02604 -0.05859,-0.02604 -0.09115,-0.06511 -0.02604,-0.03906 -0.05208,-0.09766 l -0.722657,-2.050781 h -3.502604 l -0.690104,2.02474 q -0.01953,0.05859 -0.05208,0.104166 -0.03255,0.03906 -0.09766,0.07161 -0.05859,0.02604 -0.175781,0.03906 -0.110677,0.01302 -0.292969,0.01302 -0.188802,0 -0.3125,-0.01953 -0.117187,-0.01302 -0.169271,-0.05859 -0.04557,-0.04557 -0.04557,-0.130208 0.0065,-0.09115 0.05859,-0.234375 l 2.825521,-7.825521 q 0.02604,-0.07161 0.0651,-0.117188 0.04557,-0.04557 0.123698,-0.07161 0.08464,-0.02604 0.208334,-0.03255 0.130208,-0.01302 0.32552,-0.01302 0.208334,0 0.345053,0.01302 0.136718,0.0065 0.221354,0.03255 0.08463,0.02604 0.130208,0.07813 0.04557,0.04557 0.07162,0.117188 z m -3.626303,-6.907552 h -0.0065 l -1.451823,4.199219 h 2.929688 z"/><path id="path131" d="m 34.251954,76.128256 q 0,0.05208 -0.02604,0.09115 -0.02604,0.03906 -0.09115,0.0651 -0.0651,0.01953 -0.169271,0.03255 -0.09766,0.01953 -0.260416,0.01953 -0.14974,0 -0.260417,-0.01953 -0.104167,-0.01302 -0.169271,-0.03255 -0.05859,-0.02604 -0.08463,-0.0651 -0.02604,-0.03906 -0.02604,-0.09115 v -7.33724 h -0.01302 l -3.001302,7.369792 q -0.01953,0.04557 -0.05859,0.07813 -0.03255,0.03255 -0.104166,0.05859 -0.0651,0.01953 -0.162761,0.02604 -0.09115,0.01302 -0.221354,0.01302 -0.136719,0 -0.234375,-0.01302 -0.09766,-0.01302 -0.16276,-0.03255 -0.0651,-0.02604 -0.104167,-0.05859 -0.03255,-0.03255 -0.04557,-0.07161 L 26.18556,68.791026 h -0.0065 v 7.33724 q 0,0.05208 -0.02604,0.09115 -0.02604,0.03906 -0.09115,0.0651 -0.0651,0.01953 -0.169271,0.03255 -0.104166,0.01953 -0.266927,0.01953 -0.15625,0 -0.260416,-0.01953 -0.104167,-0.01302 -0.169271,-0.03255 -0.05859,-0.02604 -0.08464,-0.0651 -0.01953,-0.03906 -0.01953,-0.09115 V 68.38086 q 0,-0.273438 0.143229,-0.390625 0.143229,-0.117188 0.319011,-0.117188 h 0.677083 q 0.208333,0 0.364583,0.03906 0.15625,0.03906 0.273438,0.123697 0.117187,0.08464 0.195312,0.214844 0.07813,0.130209 0.136719,0.30599 l 2.441407,6.100261 h 0.03255 l 2.539062,-6.08073 q 0.07162,-0.195312 0.15625,-0.332031 0.08464,-0.136719 0.182292,-0.214844 0.104167,-0.08464 0.227865,-0.117187 0.123697,-0.03906 0.286458,-0.03906 h 0.709635 q 0.09766,0 0.182292,0.03255 0.09115,0.02604 0.14974,0.09115 0.0651,0.05859 0.104166,0.15625 0.03906,0.09115 0.03906,0.227865 z"/><path id="path133" d="m 41.673829,70.340495 q 0,0.631511 -0.208333,1.139323 -0.208334,0.507813 -0.598959,0.865885 -0.384114,0.358073 -0.950521,0.553386 -0.559895,0.195312 -1.341145,0.195312 h -0.957032 v 3.033855 q 0,0.05208 -0.03255,0.09115 -0.02604,0.03906 -0.09115,0.0651 -0.05859,0.01953 -0.16927,0.03255 -0.104167,0.01953 -0.266928,0.01953 -0.16276,0 -0.273437,-0.01953 -0.104167,-0.01302 -0.169271,-0.03255 -0.0651,-0.02604 -0.09115,-0.0651 -0.02604,-0.03906 -0.02604,-0.09115 v -7.773438 q 0,-0.260417 0.136718,-0.371094 0.136719,-0.110677 0.30599,-0.110677 h 1.803385 q 0.273438,0 0.520834,0.02604 0.253906,0.01953 0.592448,0.09766 0.345052,0.07161 0.696614,0.279948 0.358073,0.201823 0.605469,0.501302 0.247396,0.299479 0.377604,0.696615 0.136719,0.390625 0.136719,0.865885 z m -1.178385,0.09115 q 0,-0.514323 -0.195313,-0.859375 -0.188802,-0.345052 -0.47526,-0.514323 -0.279948,-0.169271 -0.585938,-0.214844 -0.299479,-0.04557 -0.585937,-0.04557 h -1.035157 v 3.378907 h 1.009115 q 0.507812,0 0.839844,-0.130209 0.338541,-0.130208 0.566406,-0.358073 0.227865,-0.234375 0.345052,-0.553385 0.117188,-0.325521 0.117188,-0.703125 z"/></g><flowRoot style="font-style:normal;font-variant:normal;font-weight:400;font-stretch:normal;font-size:13.33333397px;line-height:1.25;font-family:Calibri;-inkscape-font-specification:'Calibri, Normal';font-variant-ligatures:normal;font-variant-caps:normal;font-variant-numeric:normal;font-feature-settings:normal;text-align:start;letter-spacing:0;word-spacing:0;writing-mode:lr-tb;text-anchor:start;fill:#f2f2f2;fill-opacity:1;stroke:none" id="flowRoot142" transform="matrix(0.26458333,0,0,0.26458333,-2.464252,13.939918)" xml:space="preserve"><flowRegion style="font-style:normal;font-variant:normal;font-weight:400;font-stretch:normal;font-size:13.33333397px;font-family:Calibri;-inkscape-font-specification:'Calibri, Normal';font-variant-ligatures:normal;font-variant-caps:normal;font-variant-numeric:normal;font-feature-settings:normal;text-align:start;writing-mode:lr-tb;text-anchor:start;fill:#f2f2f2;fill-opacity:1" id="flowRegion138"><rect style="font-style:normal;font-variant:normal;font-weight:400;font-stretch:normal;font-size:13.33333397px;font-family:Calibri;-inkscape-font-specification:'Calibri, Normal';font-variant-ligatures:normal;font-variant-caps:normal;font-variant-numeric:normal;font-feature-settings:normal;text-align:start;writing-mode:lr-tb;text-anchor:start;fill:#f2f2f2;fill-opacity:1" id="rect136" width="121.622" height="79.196" x="16.263" y="64.63"/></flowRegion><flowPara id="flowPara152">MID</flowPara></flowRoot><flowRoot id="flowRoot160" transform="matrix(0.26458333,0,0,0.26458333,-2.464252,28.756594)" xml:space="preserve" style="font-style:normal;font-variant:normal;font-weight:400;font-stretch:normal;font-size:13.33333397px;line-height:1.25;font-family:Calibri;-inkscape-font-specification:'Calibri, Normal';font-variant-ligatures:normal;font-variant-caps:normal;font-variant-numeric:normal;font-feature-settings:normal;text-align:start;letter-spacing:0;word-spacing:0;writing-mode:lr-tb;text-anchor:start;fill:#f2f2f2;fill-opacity:1;stroke:none"><flowRegion id="flowRegion156" style="font-style:normal;font-variant:normal;font-weight:400;font-stretch:normal;font-size:13.33333397px;font-family:Calibri;-inkscape-font-specification:'Calibri, Normal';font-variant-ligatures:normal;font-variant-caps:normal;font-variant-numeric:normal;font-feature-settings:normal;text-align:start;writing-mode:lr-tb;text-anchor:start;fill:#f2f2f2;fill-opacity:1"><rect id="rect154" width="121.622" height="79.196" x="16.263" y="64.63" style="font-style:normal;font-variant:normal;font-weight:400;font-stretch:normal;font-size:13.33333397px;font-family:Calibri;-inkscape-font-specification:'Calibri, Normal';font-variant-ligatures:normal;font-variant-caps:normal;font-variant-numeric:normal;font-feature-settings:normal;text-align:start;writing-mode:lr-tb;text-anchor:start;fill:#f2f2f2;fill-opacity:1"/></flowRegion><flowPara id="flowPara162">SIDE</flowPara></flowRoot><g style="font-style:normal;font-variant:normal;font-weight:400;font-stretch:normal;font-size:13.33333397px;line-height:1.25;font-family:Calibri;-inkscape-font-specification:'Calibri, Normal';font-variant-ligatures:normal;font-variant-caps:normal;font-variant-numeric:normal;font-feature-settings:normal;text-align:start;letter-spacing:0;word-spacing:0;writing-mode:lr-tb;text-anchor:start;fill:#f2f2f2;fill-opacity:1;stroke:none" id="flowRoot170" aria-label="MID" transform="matrix(0.26458333,0,0,0.26458333,-2.464252,13.939918)"><path id="path180" d="m 26.54362,76.128256 q 0,0.05208 -0.02604,0.09115 -0.02604,0.03906 -0.09115,0.0651 -0.0651,0.01953 -0.169271,0.03255 -0.09766,0.01953 -0.260417,0.01953 -0.149739,0 -0.260416,-0.01953 -0.104167,-0.01302 -0.169271,-0.03255 -0.05859,-0.02604 -0.08464,-0.0651 -0.02604,-0.03906 -0.02604,-0.09115 v -7.33724 h -0.01302 l -3.001302,7.369792 q -0.01953,0.04557 -0.05859,0.07813 -0.03255,0.03255 -0.104167,0.05859 -0.0651,0.01953 -0.16276,0.02604 -0.09115,0.01302 -0.221354,0.01302 -0.136719,0 -0.234375,-0.01302 -0.09766,-0.01302 -0.162761,-0.03255 -0.0651,-0.02604 -0.104167,-0.05859 -0.03255,-0.03255 -0.04557,-0.07161 l -2.871094,-7.369792 h -0.0065 v 7.33724 q 0,0.05208 -0.02604,0.09115 -0.02604,0.03906 -0.09115,0.0651 -0.0651,0.01953 -0.169271,0.03255 -0.104167,0.01953 -0.266927,0.01953 -0.15625,0 -0.260417,-0.01953 -0.104167,-0.01302 -0.169271,-0.03255 -0.05859,-0.02604 -0.08463,-0.0651 -0.01953,-0.03906 -0.01953,-0.09115 V 68.38086 q 0,-0.273438 0.143229,-0.390625 0.143229,-0.117188 0.31901,-0.117188 h 0.677084 q 0.208333,0 0.364583,0.03906 0.15625,0.03906 0.273437,0.123697 0.117188,0.08464 0.195313,0.214844 0.07813,0.130209 0.136719,0.30599 l 2.441406,6.100261 h 0.03255 l 2.539063,-6.08073 q 0.07161,-0.195312 0.15625,-0.332031 0.08464,-0.136719 0.182291,-0.214844 0.104167,-0.08464 0.227865,-0.117187 0.123698,-0.03906 0.286458,-0.03906 h 0.709636 q 0.09766,0 0.182292,0.03255 0.09115,0.02604 0.149739,0.09115 0.0651,0.05859 0.104167,0.15625 0.03906,0.09115 0.03906,0.227865 z"/><path id="path182" d="m 29.909506,76.128256 q 0,0.05208 -0.02604,0.09115 -0.02604,0.03906 -0.09115,0.0651 -0.0651,0.01953 -0.175781,0.03255 -0.104167,0.01953 -0.266928,0.01953 -0.15625,0 -0.266927,-0.01953 -0.110677,-0.01302 -0.175781,-0.03255 -0.0651,-0.02604 -0.09115,-0.0651 -0.02604,-0.03906 -0.02604,-0.09115 v -8.085938 q 0,-0.05208 0.02604,-0.09115 0.03255,-0.03906 0.09766,-0.05859 0.07161,-0.02604 0.175782,-0.03906 0.110677,-0.01953 0.260416,-0.01953 0.162761,0 0.266928,0.01953 0.110677,0.01302 0.175781,0.03906 0.0651,0.01953 0.09115,0.05859 0.02604,0.03906 0.02604,0.09115 z"/><path id="path184" d="m 38.626954,71.961589 q 0,1.09375 -0.279947,1.914062 -0.279948,0.813803 -0.820313,1.354167 -0.533854,0.533854 -1.315104,0.800782 -0.78125,0.266927 -1.86198,0.266927 h -1.783854 q -0.149739,0 -0.286458,-0.09766 -0.130208,-0.104166 -0.130208,-0.358073 v -7.513021 q 0,-0.253906 0.130208,-0.351562 0.136719,-0.104167 0.286458,-0.104167 h 1.907552 q 1.09375,0 1.848959,0.286458 0.755208,0.279948 1.263021,0.813802 0.514323,0.527344 0.774739,1.282553 0.266927,0.755208 0.266927,1.705729 z m -1.178385,0.04557 q 0,-0.683594 -0.169271,-1.269532 Q 37.110027,70.14518 36.745444,69.715492 36.387371,69.285805 35.833986,69.044919 35.2806,68.804034 34.408204,68.804034 h -1.139323 v 6.55599 h 1.152344 q 0.807292,0 1.360677,-0.201823 0.553386,-0.201823 0.924479,-0.61849 0.371094,-0.416667 0.553386,-1.041667 0.188802,-0.63151 0.188802,-1.490885 z"/></g><g style="font-style:normal;font-variant:normal;font-weight:400;font-stretch:normal;font-size:13.33333397px;line-height:1.25;font-family:Calibri;-inkscape-font-specification:'Calibri, Normal';font-variant-ligatures:normal;font-variant-caps:normal;font-variant-numeric:normal;font-feature-settings:normal;text-align:start;letter-spacing:0;word-spacing:0;writing-mode:lr-tb;text-anchor:start;fill:#f2f2f2;fill-opacity:1;stroke:none" id="flowRoot178" aria-label="SIDE" transform="matrix(0.26458333,0,0,0.26458333,-2.464252,28.756594)"><path id="path187" d="m 21.908203,73.934245 q 0,0.592448 -0.221354,1.054688 -0.214844,0.462239 -0.605469,0.78776 -0.384114,0.319011 -0.911458,0.481771 -0.520833,0.162761 -1.126302,0.162761 -0.423177,0 -0.787761,-0.07162 -0.358072,-0.07161 -0.644531,-0.175781 -0.279948,-0.104167 -0.47526,-0.214844 -0.188802,-0.110677 -0.266927,-0.188802 -0.07161,-0.07813 -0.110677,-0.195313 -0.03255,-0.123698 -0.03255,-0.325521 0,-0.143229 0.01302,-0.234375 0.01302,-0.09766 0.03906,-0.15625 0.02604,-0.05859 0.0651,-0.07813 0.03906,-0.02604 0.09115,-0.02604 0.09115,0 0.253906,0.110677 0.169271,0.110677 0.429688,0.240885 0.260416,0.130209 0.625,0.247396 0.371093,0.110677 0.852864,0.110677 0.364584,0 0.664063,-0.09766 0.305989,-0.09766 0.520833,-0.273438 0.221354,-0.182291 0.338542,-0.442708 0.117187,-0.260417 0.117187,-0.592448 0,-0.358073 -0.16276,-0.611979 -0.162761,-0.253906 -0.429688,-0.442708 -0.266927,-0.195313 -0.611979,-0.351563 -0.338541,-0.16276 -0.696614,-0.325521 -0.358073,-0.169271 -0.696615,-0.371094 -0.338542,-0.201822 -0.605469,-0.47526 -0.266927,-0.273437 -0.436198,-0.638021 -0.16276,-0.371094 -0.16276,-0.885417 0,-0.527343 0.188802,-0.9375 0.195312,-0.416666 0.533854,-0.696614 0.345052,-0.279948 0.813802,-0.423177 0.475261,-0.14974 1.022136,-0.14974 0.279948,0 0.559896,0.05208 0.286458,0.04557 0.533854,0.130209 0.253906,0.07813 0.449219,0.182291 0.195312,0.09766 0.253906,0.162761 0.0651,0.05859 0.08463,0.09766 0.01953,0.03255 0.03255,0.09115 0.01302,0.05208 0.01953,0.130208 0.0065,0.07813 0.0065,0.201823 0,0.117188 -0.01302,0.208334 -0.0065,0.09114 -0.02604,0.15625 -0.01953,0.05859 -0.05859,0.09114 -0.03255,0.02604 -0.07813,0.02604 -0.07162,0 -0.227865,-0.09115 -0.149739,-0.09115 -0.371094,-0.201823 -0.221354,-0.117187 -0.527343,-0.208333 -0.29948,-0.09766 -0.677084,-0.09766 -0.351562,0 -0.611979,0.09766 -0.260417,0.09115 -0.429688,0.247396 -0.16927,0.15625 -0.253906,0.371094 -0.08463,0.214843 -0.08463,0.455729 0,0.351562 0.16276,0.605469 0.162761,0.253906 0.429688,0.449218 0.273437,0.195313 0.618489,0.358073 0.345052,0.162761 0.703125,0.332032 0.358073,0.16276 0.703125,0.364583 0.345053,0.195312 0.61198,0.46875 0.273437,0.266927 0.436198,0.638021 0.16927,0.364583 0.16927,0.865885 z"/><path id="path189" d="m 24.623047,76.128256 q 0,0.05208 -0.02604,0.09115 -0.02604,0.03906 -0.09115,0.0651 -0.0651,0.01953 -0.175781,0.03255 -0.104167,0.01953 -0.266928,0.01953 -0.15625,0 -0.266927,-0.01953 -0.110677,-0.01302 -0.175781,-0.03255 -0.0651,-0.02604 -0.09115,-0.0651 -0.02604,-0.03906 -0.02604,-0.09115 v -8.085938 q 0,-0.05208 0.02604,-0.09115 0.03255,-0.03906 0.09766,-0.05859 0.07161,-0.02604 0.175781,-0.03906 0.110677,-0.01953 0.260416,-0.01953 0.162761,0 0.266928,0.01953 0.110677,0.01302 0.175781,0.03906 0.0651,0.01953 0.09115,0.05859 0.02604,0.03906 0.02604,0.09115 z"/><path id="path191" d="m 33.340495,71.961589 q 0,1.09375 -0.279947,1.914062 -0.279948,0.813803 -0.820313,1.354167 -0.533854,0.533854 -1.315104,0.800782 -0.78125,0.266927 -1.861979,0.266927 h -1.783855 q -0.149739,0 -0.286458,-0.09766 -0.130208,-0.104166 -0.130208,-0.358073 v -7.513021 q 0,-0.253906 0.130208,-0.351562 0.136719,-0.104167 0.286458,-0.104167 h 1.907552 q 1.09375,0 1.848959,0.286458 0.755208,0.279948 1.263021,0.813802 0.514323,0.527344 0.774739,1.282553 0.266927,0.755208 0.266927,1.705729 z m -1.178385,0.04557 q 0,-0.683594 -0.169271,-1.269532 -0.169271,-0.592447 -0.533854,-1.022135 -0.358073,-0.429687 -0.911458,-0.670573 -0.553386,-0.240885 -1.425782,-0.240885 h -1.139323 v 6.55599 h 1.152344 q 0.807292,0 1.360677,-0.201823 0.553386,-0.201823 0.924479,-0.61849 0.371094,-0.416667 0.553386,-1.041667 0.188802,-0.63151 0.188802,-1.490885 z"/><path id="path193" d="m 39.753257,75.835287 q 0,0.117187 -0.01302,0.208333 -0.01302,0.08464 -0.04557,0.14323 -0.03255,0.05859 -0.07813,0.08463 -0.03906,0.02604 -0.09115,0.02604 h -4.042969 q -0.149739,0 -0.286458,-0.09766 -0.130208,-0.104166 -0.130208,-0.358073 v -7.513021 q 0,-0.253906 0.130208,-0.351562 0.136719,-0.104167 0.286458,-0.104167 h 3.997396 q 0.05208,0 0.09115,0.02604 0.04557,0.02604 0.07162,0.08463 0.02604,0.05859 0.03906,0.14974 0.01953,0.08463 0.01953,0.214843 0,0.117188 -0.01953,0.208334 -0.01302,0.08464 -0.03906,0.143229 -0.02604,0.05208 -0.07162,0.07813 -0.03906,0.02604 -0.09115,0.02604 h -3.294271 v 2.643229 h 2.825521 q 0.05208,0 0.09115,0.03255 0.04557,0.02604 0.07162,0.07813 0.03255,0.05208 0.04557,0.143229 0.01302,0.09115 0.01302,0.214844 0,0.117187 -0.01302,0.201823 -0.01302,0.08463 -0.04557,0.136719 -0.02604,0.05208 -0.07162,0.07813 -0.03906,0.01953 -0.09115,0.01953 h -2.825521 v 3.014323 h 3.339844 q 0.05208,0 0.09115,0.02604 0.04557,0.02604 0.07813,0.08464 0.03255,0.05208 0.04557,0.143229 0.01302,0.08464 0.01302,0.214844 z"/></g><flowRoot style="font-style:normal;font-variant:normal;font-weight:400;font-stretch:normal;font-size:13.33333397px;line-height:1.25;font-family:Calibri;-inkscape-font-specification:'Calibri, Normal';font-variant-ligatures:normal;font-variant-caps:normal;font-variant-numeric:normal;font-feature-settings:normal;text-align:start;letter-spacing:0;word-spacing:0;writing-mode:lr-tb;text-anchor:start;fill:#f2f2f2;fill-opacity:1;stroke:none" id="flowRoot202" transform="matrix(0.26458333,0,0,0.26458333,-3.5225854,48.335773)" xml:space="preserve"><flowRegion style="font-style:normal;font-variant:normal;font-weight:400;font-stretch:normal;font-size:13.33333397px;font-family:Calibri;-inkscape-font-specification:'Calibri, Normal';font-variant-ligatures:normal;font-variant-caps:normal;font-variant-numeric:normal;font-feature-settings:normal;text-align:start;writing-mode:lr-tb;text-anchor:start;fill:#f2f2f2;fill-opacity:1" id="flowRegion198"><rect style="font-style:normal;font-variant:normal;font-weight:400;font-stretch:normal;font-size:13.33333397px;font-family:Calibri;-inkscape-font-specification:'Calibri, Normal';font-variant-ligatures:normal;font-variant-caps:normal;font-variant-numeric:normal;font-feature-settings:normal;text-align:start;writing-mode:lr-tb;text-anchor:start;fill:#f2f2f2;fill-opacity:1" id="rect196" width="121.622" height="79.196" x="16.263" y="64.63"/></flowRegion><flowPara id="flowPara200">AMP</flowPara></flowRoot><g id="g210" aria-label="AMP" transform="matrix(0.26458333,0,0,0.26458333,-3.5225854,48.335773)" style="font-style:normal;font-variant:normal;font-weight:400;font-stretch:normal;font-size:13.33333397px;line-height:1.25;font-family:Calibri;-inkscape-font-specification:'Calibri, Normal';font-variant-ligatures:normal;font-variant-caps:normal;font-variant-numeric:normal;font-feature-settings:normal;text-align:start;letter-spacing:0;word-spacing:0;writing-mode:lr-tb;text-anchor:start;fill:#f2f2f2;fill-opacity:1;stroke:none"><path id="path204" d="m 23.692058,75.900391 q 0.05208,0.143229 0.05208,0.234375 0.0065,0.08464 -0.04557,0.130209 -0.05208,0.04557 -0.175781,0.05859 -0.117188,0.01302 -0.319011,0.01302 -0.201823,0 -0.32552,-0.01302 -0.117188,-0.0065 -0.182292,-0.02604 -0.05859,-0.02604 -0.09115,-0.06511 -0.02604,-0.03906 -0.05208,-0.09766 l -0.722657,-2.050781 h -3.502604 l -0.690104,2.02474 q -0.01953,0.05859 -0.05208,0.104166 -0.03255,0.03906 -0.09766,0.07161 -0.05859,0.02604 -0.175781,0.03906 -0.110677,0.01302 -0.292969,0.01302 -0.188802,0 -0.3125,-0.01953 -0.117187,-0.01302 -0.169271,-0.05859 -0.04557,-0.04557 -0.04557,-0.130208 0.0065,-0.09115 0.05859,-0.234375 l 2.825521,-7.825521 q 0.02604,-0.07161 0.0651,-0.117188 0.04557,-0.04557 0.123698,-0.07161 0.08464,-0.02604 0.208334,-0.03255 0.130208,-0.01302 0.32552,-0.01302 0.208334,0 0.345053,0.01302 0.136718,0.0065 0.221354,0.03255 0.08463,0.02604 0.130208,0.07813 0.04557,0.04557 0.07162,0.117188 z m -3.626303,-6.907552 h -0.0065 l -1.451823,4.199219 h 2.929688 z"/><path id="path206" d="m 34.251954,76.128256 q 0,0.05208 -0.02604,0.09115 -0.02604,0.03906 -0.09115,0.0651 -0.0651,0.01953 -0.169271,0.03255 -0.09766,0.01953 -0.260416,0.01953 -0.14974,0 -0.260417,-0.01953 -0.104167,-0.01302 -0.169271,-0.03255 -0.05859,-0.02604 -0.08463,-0.0651 -0.02604,-0.03906 -0.02604,-0.09115 v -7.33724 h -0.01302 l -3.001302,7.369792 q -0.01953,0.04557 -0.05859,0.07813 -0.03255,0.03255 -0.104166,0.05859 -0.0651,0.01953 -0.162761,0.02604 -0.09115,0.01302 -0.221354,0.01302 -0.136719,0 -0.234375,-0.01302 -0.09766,-0.01302 -0.16276,-0.03255 -0.0651,-0.02604 -0.104167,-0.05859 -0.03255,-0.03255 -0.04557,-0.07161 L 26.18556,68.791026 h -0.0065 v 7.33724 q 0,0.05208 -0.02604,0.09115 -0.02604,0.03906 -0.09115,0.0651 -0.0651,0.01953 -0.169271,0.03255 -0.104166,0.01953 -0.266927,0.01953 -0.15625,0 -0.260416,-0.01953 -0.104167,-0.01302 -0.169271,-0.03255 -0.05859,-0.02604 -0.08464,-0.0651 -0.01953,-0.03906 -0.01953,-0.09115 V 68.38086 q 0,-0.273438 0.143229,-0.390625 0.143229,-0.117188 0.319011,-0.117188 h 0.677083 q 0.208333,0 0.364583,0.03906 0.15625,0.03906 0.273438,0.123697 0.117187,0.08464 0.195312,0.214844 0.07813,0.130209 0.136719,0.30599 l 2.441407,6.100261 h 0.03255 l 2.539062,-6.08073 q 0.07162,-0.195312 0.15625,-0.332031 0.08464,-0.136719 0.182292,-0.214844 0.104167,-0.08464 0.227865,-0.117187 0.123697,-0.03906 0.286458,-0.03906 h 0.709635 q 0.09766,0 0.182292,0.03255 0.09115,0.02604 0.14974,0.09115 0.0651,0.05859 0.104166,0.15625 0.03906,0.09115 0.03906,0.227865 z"/><path id="path208" d="m 41.673829,70.340495 q 0,0.631511 -0.208333,1.139323 -0.208334,0.507813 -0.598959,0.865885 -0.384114,0.358073 -0.950521,0.553386 -0.559895,0.195312 -1.341145,0.195312 h -0.957032 v 3.033855 q 0,0.05208 -0.03255,0.09115 -0.02604,0.03906 -0.09115,0.0651 -0.05859,0.01953 -0.16927,0.03255 -0.104167,0.01953 -0.266928,0.01953 -0.16276,0 -0.273437,-0.01953 -0.104167,-0.01302 -0.169271,-0.03255 -0.0651,-0.02604 -0.09115,-0.0651 -0.02604,-0.03906 -0.02604,-0.09115 v -7.773438 q 0,-0.260417 0.136718,-0.371094 0.136719,-0.110677 0.30599,-0.110677 h 1.803385 q 0.273438,0 0.520834,0.02604 0.253906,0.01953 0.592448,0.09766 0.345052,0.07161 0.696614,0.279948 0.358073,0.201823 0.605469,0.501302 0.247396,0.299479 0.377604,0.696615 0.136719,0.390625 0.136719,0.865885 z m -1.178385,0.09115 q 0,-0.514323 -0.195313,-0.859375 -0.188802,-0.345052 -0.47526,-0.514323 -0.279948,-0.169271 -0.585938,-0.214844 -0.299479,-0.04557 -0.585937,-0.04557 h -1.035157 v 3.378907 h 1.009115 q 0.507812,0 0.839844,-0.130209 0.338541,-0.130208 0.566406,-0.358073 0.227865,-0.234375 0.345052,-0.553385 0.117188,-0.325521 0.117188,-0.703125 z"/></g><flowRoot id="flowRoot218" transform="matrix(0.26458333,0,0,0.26458333,1.2399147,63.152449)" xml:space="preserve" style="font-style:normal;font-variant:normal;font-weight:400;font-stretch:normal;font-size:13.33333397px;line-height:1.25;font-family:Calibri;-inkscape-font-specification:'Calibri, Normal';font-variant-ligatures:normal;font-variant-caps:normal;font-variant-numeric:normal;font-feature-settings:normal;text-align:start;letter-spacing:0;word-spacing:0;writing-mode:lr-tb;text-anchor:start;fill:#f2f2f2;fill-opacity:1;stroke:none"><flowRegion id="flowRegion214" style="font-style:normal;font-variant:normal;font-weight:400;font-stretch:normal;font-size:13.33333397px;font-family:Calibri;-inkscape-font-specification:'Calibri, Normal';font-variant-ligatures:normal;font-variant-caps:normal;font-variant-numeric:normal;font-feature-settings:normal;text-align:start;writing-mode:lr-tb;text-anchor:start;fill:#f2f2f2;fill-opacity:1"><rect id="rect212" width="121.622" height="79.196" x="16.263" y="64.63" style="font-style:normal;font-variant:normal;font-weight:400;font-stretch:normal;font-size:13.33333397px;font-family:Calibri;-inkscape-font-specification:'Calibri, Normal';font-variant-ligatures:normal;font-variant-caps:normal;font-variant-numeric:normal;font-feature-settings:normal;text-align:start;writing-mode:lr-tb;text-anchor:start;fill:#f2f2f2;fill-opacity:1"/></flowRegion><flowPara id="flowPara312">L</flowPara></flowRoot><flowRoot style="font-style:normal;font-variant:normal;font-weight:400;font-stretch:normal;font-size:13.33333397px;line-height:1.25;font-family:Calibri;-inkscape-font-specification:'Calibri, Normal';font-variant-ligatures:normal;font-variant-caps:normal;font-variant-numeric:normal;font-feature-settings:normal;text-align:start;letter-spacing:0;word-spacing:0;writing-mode:lr-tb;text-anchor:start;fill:#f2f2f2;fill-opacity:1;stroke:none" id="flowRoot226" transform="matrix(0.26458333,0,0,0.26458333,1.2399147,77.969125)" xml:space="preserve"><flowRegion style="font-style:normal;font-variant:normal;font-weight:400;font-stretch:normal;font-size:13.33333397px;font-family:Calibri;-inkscape-font-specification:'Calibri, Normal';font-variant-ligatures:normal;font-variant-caps:normal;font-variant-numeric:normal;font-feature-settings:normal;text-align:start;writing-mode:lr-tb;text-anchor:start;fill:#f2f2f2;fill-opacity:1" id="flowRegion222"><rect style="font-style:normal;font-variant:normal;font-weight:400;font-stretch:normal;font-size:13.33333397px;font-family:Calibri;-inkscape-font-specification:'Calibri, Normal';font-variant-ligatures:normal;font-variant-caps:normal;font-variant-numeric:normal;font-feature-settings:normal;text-align:start;writing-mode:lr-tb;text-anchor:start;fill:#f2f2f2;fill-opacity:1" id="rect220" width="121.622" height="79.196" x="16.263" y="64.63"/></flowRegion><flowPara id="flowPara314">R</flowPara></flowRoot><g style="font-style:normal;font-variant:normal;font-weight:400;font-stretch:normal;font-size:13.33333397px;line-height:1.25;font-family:Calibri;-inkscape-font-specification:'Calibri, Normal';font-variant-ligatures:normal;font-variant-caps:normal;font-variant-numeric:normal;font-feature-settings:normal;text-align:start;letter-spacing:0;word-spacing:0;writing-mode:lr-tb;text-anchor:start;fill:#f2f2f2;fill-opacity:1;stroke:none" id="flowRoot322" aria-label="L" transform="matrix(0.26458333,0,0,0.26458333,1.2399147,63.152449)"><path id="path332" d="m 21.751953,75.809245 q 0,0.130209 -0.01302,0.221355 -0.01302,0.08463 -0.04557,0.149739 -0.02604,0.05859 -0.07161,0.09115 -0.03906,0.02604 -0.09766,0.02604 H 17.80013 q -0.149739,0 -0.286458,-0.09766 -0.130208,-0.104166 -0.130208,-0.358073 v -7.799479 q 0,-0.05208 0.02604,-0.09115 0.02604,-0.03906 0.09115,-0.05859 0.0651,-0.02604 0.175781,-0.03906 0.110677,-0.01953 0.266927,-0.01953 0.162761,0 0.266928,0.01953 0.110677,0.01302 0.175781,0.03906 0.0651,0.01953 0.09115,0.05859 0.02604,0.03906 0.02604,0.09115 v 7.285156 h 3.020834 q 0.05859,0 0.09766,0.03255 0.04557,0.02604 0.07161,0.08463 0.03255,0.05208 0.04557,0.143229 0.01302,0.09115 0.01302,0.221354 z"/></g><g style="font-style:normal;font-variant:normal;font-weight:400;font-stretch:normal;font-size:13.33333397px;line-height:1.25;font-family:Calibri;-inkscape-font-specification:'Calibri, Normal';font-variant-ligatures:normal;font-variant-caps:normal;font-variant-numeric:normal;font-feature-settings:normal;text-align:start;letter-spacing:0;word-spacing:0;writing-mode:lr-tb;text-anchor:start;fill:#f2f2f2;fill-opacity:1;stroke:none" id="flowRoot330" aria-label="R" transform="matrix(0.26458333,0,0,0.26458333,1.2399147,77.969125)"><path id="path335" d="m 23.001953,76.128256 q 0,0.05208 -0.01953,0.09115 -0.01953,0.03906 -0.08463,0.0651 -0.0651,0.02604 -0.182292,0.03906 -0.117187,0.01302 -0.3125,0.01302 -0.169271,0 -0.279948,-0.01302 -0.104167,-0.01302 -0.169271,-0.03906 -0.0651,-0.03255 -0.104166,-0.08464 -0.03255,-0.05208 -0.05859,-0.130208 l -0.77474,-1.985677 q -0.136718,-0.338542 -0.286458,-0.61849 -0.143229,-0.286458 -0.345052,-0.488281 -0.201823,-0.208333 -0.475261,-0.31901 -0.273437,-0.117188 -0.657552,-0.117188 h -0.748698 v 3.58724 q 0,0.05208 -0.03255,0.09115 -0.02604,0.03906 -0.09115,0.0651 -0.05859,0.01953 -0.16927,0.03255 -0.104167,0.01953 -0.266928,0.01953 -0.16276,0 -0.273437,-0.01953 -0.104167,-0.01302 -0.169271,-0.03255 -0.0651,-0.02604 -0.09115,-0.0651 -0.02604,-0.03906 -0.02604,-0.09115 v -7.79948 q 0,-0.253906 0.130208,-0.351562 0.136719,-0.104167 0.286458,-0.104167 h 1.790365 q 0.31901,0 0.527344,0.01953 0.214843,0.01302 0.384114,0.03255 0.488282,0.08464 0.859375,0.266927 0.377605,0.182292 0.631511,0.46224 0.253906,0.279948 0.377604,0.644531 0.130208,0.358073 0.130208,0.794271 0,0.423177 -0.117187,0.761719 -0.110677,0.332031 -0.325521,0.592448 -0.214844,0.253906 -0.514323,0.442708 -0.299479,0.188802 -0.670573,0.319011 0.208333,0.09115 0.377604,0.234375 0.169271,0.136719 0.3125,0.332031 0.14974,0.195313 0.279948,0.449219 0.130209,0.253906 0.260417,0.572916 l 0.755208,1.855469 q 0.09115,0.234375 0.117188,0.332032 0.02604,0.09114 0.02604,0.143229 z m -1.686198,-5.917969 q 0,-0.494792 -0.221354,-0.833334 -0.221354,-0.345052 -0.742187,-0.494791 -0.162761,-0.04557 -0.371094,-0.0651 -0.201823,-0.01953 -0.533854,-0.01953 h -0.944011 v 2.838542 h 1.09375 q 0.442709,0 0.761719,-0.104167 0.325521,-0.110677 0.540365,-0.299479 0.214844,-0.195312 0.3125,-0.455729 0.104166,-0.260417 0.104166,-0.566406 z"/></g><g id="g340" aria-label="L" transform="matrix(0.26458333,0,0,0.26458333,-1.4059186,-14.105921)" style="font-style:normal;font-variant:normal;font-weight:400;font-stretch:normal;font-size:13.33333397px;line-height:1.25;font-family:Calibri;-inkscape-font-specification:'Calibri, Normal';font-variant-ligatures:normal;font-variant-caps:normal;font-variant-numeric:normal;font-feature-settings:normal;text-align:start;letter-spacing:0;word-spacing:0;writing-mode:lr-tb;text-anchor:start;fill:#f2f2f2;fill-opacity:1;stroke:none"><path id="path338" d="m 21.751953,75.809245 q 0,0.130209 -0.01302,0.221355 -0.01302,0.08463 -0.04557,0.149739 -0.02604,0.05859 -0.07161,0.09115 -0.03906,0.02604 -0.09766,0.02604 H 17.80013 q -0.149739,0 -0.286458,-0.09766 -0.130208,-0.104166 -0.130208,-0.358073 v -7.799479 q 0,-0.05208 0.02604,-0.09115 0.02604,-0.03906 0.09115,-0.05859 0.0651,-0.02604 0.175781,-0.03906 0.110677,-0.01953 0.266927,-0.01953 0.162761,0 0.266928,0.01953 0.110677,0.01302 0.175781,0.03906 0.0651,0.01953 0.09115,0.05859 0.02604,0.03906 0.02604,0.09115 v 7.285156 h 3.020834 q 0.05859,0 0.09766,0.03255 0.04557,0.02604 0.07161,0.08463 0.03255,0.05208 0.04557,0.143229 0.01302,0.09115 0.01302,0.221354 z"/></g><g id="g344" aria-label="R" transform="matrix(0.26458333,0,0,0.26458333,6.5315817,-14.116255)" style="font-style:normal;font-variant:normal;font-weight:400;font-stretch:normal;font-size:13.33333397px;line-height:1.25;font-family:Calibri;-inkscape-font-specification:'Calibri, Normal';font-variant-ligatures:normal;font-variant-caps:normal;font-variant-numeric:normal;font-feature-settings:normal;text-align:start;letter-spacing:0;word-spacing:0;writing-mode:lr-tb;text-anchor:start;fill:#f2f2f2;fill-opacity:1;stroke:none"><path id="path342" d="m 23.001953,76.128256 q 0,0.05208 -0.01953,0.09115 -0.01953,0.03906 -0.08463,0.0651 -0.0651,0.02604 -0.182292,0.03906 -0.117187,0.01302 -0.3125,0.01302 -0.169271,0 -0.279948,-0.01302 -0.104167,-0.01302 -0.169271,-0.03906 -0.0651,-0.03255 -0.104166,-0.08464 -0.03255,-0.05208 -0.05859,-0.130208 l -0.77474,-1.985677 Q 20.879568,73.745439 20.729828,73.465491 20.586599,73.179033 20.384776,72.97721 20.182953,72.768877 19.909515,72.6582 19.636078,72.541012 19.251963,72.541012 h -0.748698 v 3.58724 q 0,0.05208 -0.03255,0.09115 -0.02604,0.03906 -0.09115,0.0651 -0.05859,0.01953 -0.16927,0.03255 -0.104167,0.01953 -0.266928,0.01953 -0.16276,0 -0.273437,-0.01953 -0.104167,-0.01302 -0.169271,-0.03255 -0.0651,-0.02604 -0.09115,-0.0651 -0.02604,-0.03906 -0.02604,-0.09115 v -7.79948 q 0,-0.253906 0.130208,-0.351562 0.136719,-0.104167 0.286458,-0.104167 H 19.5905 q 0.31901,0 0.527344,0.01953 0.214843,0.01302 0.384114,0.03255 0.488282,0.08464 0.859375,0.266927 0.377605,0.182292 0.631511,0.46224 0.253906,0.279948 0.377604,0.644531 0.130208,0.358073 0.130208,0.794271 0,0.423177 -0.117187,0.761719 -0.110677,0.332031 -0.325521,0.592448 -0.214844,0.253906 -0.514323,0.442708 -0.299479,0.188802 -0.670573,0.319011 0.208333,0.09115 0.377604,0.234375 0.169271,0.136719 0.3125,0.332031 0.14974,0.195313 0.279948,0.449219 0.130209,0.253906 0.260417,0.572916 l 0.755208,1.855469 q 0.09115,0.234375 0.117188,0.332032 0.02604,0.09114 0.02604,0.143229 z m -1.686198,-5.917969 q 0,-0.494792 -0.221354,-0.833334 -0.221354,-0.345052 -0.742187,-0.494791 -0.162761,-0.04557 -0.371094,-0.0651 -0.201823,-0.01953 -0.533854,-0.01953 h -0.944011 v 2.838542 h 1.09375 q 0.442709,0 0.761719,-0.104167 0.325521,-0.110677 0.540365,-0.299479 0.214844,-0.195312 0.3125,-0.455729 0.104166,-0.260417 0.104166,-0.566406 z"/></g><flowRoot id="flowRoot352" transform="matrix(0.26458333,0,0,0.26458333,-2.3092626,35.04821)" xml:space="preserve" style="font-style:normal;font-variant:normal;font-weight:400;font-stretch:normal;font-size:13.33333397px;line-height:1.25;font-family:Calibri;-inkscape-font-specification:'Calibri, Normal';font-variant-ligatures:normal;font-variant-caps:normal;font-variant-numeric:normal;font-feature-settings:normal;text-align:start;letter-spacing:0;word-spacing:0;writing-mode:lr-tb;text-anchor:start;fill:#f2f2f2;fill-opacity:1;stroke:none"><flowRegion id="flowRegion348" style="font-style:normal;font-variant:normal;font-weight:400;font-stretch:normal;font-size:13.33333397px;font-family:Calibri;-inkscape-font-specification:'Calibri, Normal';font-variant-ligatures:normal;font-variant-caps:normal;font-variant-numeric:normal;font-feature-settings:normal;text-align:start;writing-mode:lr-tb;text-anchor:start;fill:#f2f2f2;fill-opacity:1"><rect id="rect346" width="121.622" height="79.196" x="16.263" y="64.63" style="font-style:normal;font-variant:normal;font-weight:400;font-stretch:normal;font-size:13.33333397px;font-family:Calibri;-inkscape-font-specification:'Calibri, Normal';font-variant-ligatures:normal;font-variant-caps:normal;font-variant-numeric:normal;font-feature-settings:normal;text-align:start;writing-mode:lr-tb;text-anchor:start;fill:#f2f2f2;fill-opacity:1"/></flowRegion><flowPara id="flowPara362">M</flowPara></flowRoot><flowRoot style="font-style:normal;font-variant:normal;font-weight:400;font-stretch:normal;font-size:13.33333397px;line-height:1.25;font-family:Calibri;-inkscape-font-specification:'Calibri, Normal';font-variant-ligatures:normal;font-variant-caps:normal;font-variant-numeric:normal;font-feature-settings:normal;text-align:start;letter-spacing:0;word-spacing:0;writing-mode:lr-tb;text-anchor:start;fill:#f2f2f2;fill-opacity:1;stroke:none" id="flowRoot370" transform="matrix(0.26458333,0,0,0.26458333,7.4780396,35.080938)" xml:space="preserve"><flowRegion style="font-style:normal;font-variant:normal;font-weight:400;font-stretch:normal;font-size:13.33333397px;font-family:Calibri;-inkscape-font-specification:'Calibri, Normal';font-variant-ligatures:normal;font-variant-caps:normal;font-variant-numeric:normal;font-feature-settings:normal;text-align:start;writing-mode:lr-tb;text-anchor:start;fill:#f2f2f2;fill-opacity:1" id="flowRegion366"><rect style="font-style:normal;font-variant:normal;font-weight:400;font-stretch:normal;font-size:13.33333397px;font-family:Calibri;-inkscape-font-specification:'Calibri, Normal';font-variant-ligatures:normal;font-variant-caps:normal;font-variant-numeric:normal;font-feature-settings:normal;text-align:start;writing-mode:lr-tb;text-anchor:start;fill:#f2f2f2;fill-opacity:1" id="rect364" width="121.622" height="79.196" x="16.263" y="64.63"/></flowRegion><flowPara id="flowPara372">S</flowPara></flowRoot><g style="font-style:normal;font-variant:normal;font-weight:400;font-stretch:normal;font-size:13.33333397px;line-height:1.25;font-family:Calibri;-inkscape-font-specification:'Calibri, Normal';font-variant-ligatures:normal;font-variant-caps:normal;font-variant-numeric:normal;font-feature-settings:normal;text-align:start;letter-spacing:0;word-spacing:0;writing-mode:lr-tb;text-anchor:start;fill:#f2f2f2;fill-opacity:1;stroke:none" id="flowRoot396" aria-label="M" transform="matrix(0.26458333,0,0,0.26458333,-2.3092626,35.04821)"><path id="path398" d="m 26.54362,76.128256 q 0,0.05208 -0.02604,0.09115 -0.02604,0.03906 -0.09115,0.0651 -0.0651,0.01953 -0.169271,0.03255 -0.09766,0.01953 -0.260417,0.01953 -0.149739,0 -0.260416,-0.01953 -0.104167,-0.01302 -0.169271,-0.03255 -0.05859,-0.02604 -0.08464,-0.0651 -0.02604,-0.03906 -0.02604,-0.09115 v -7.33724 h -0.01302 l -3.001302,7.369792 q -0.01953,0.04557 -0.05859,0.07813 -0.03255,0.03255 -0.104167,0.05859 -0.0651,0.01953 -0.16276,0.02604 -0.09115,0.01302 -0.221354,0.01302 -0.136719,0 -0.234375,-0.01302 -0.09766,-0.01302 -0.162761,-0.03255 -0.0651,-0.02604 -0.104167,-0.05859 -0.03255,-0.03255 -0.04557,-0.07161 l -2.871094,-7.369792 h -0.0065 v 7.33724 q 0,0.05208 -0.02604,0.09115 -0.02604,0.03906 -0.09115,0.0651 -0.0651,0.01953 -0.169271,0.03255 -0.104167,0.01953 -0.266927,0.01953 -0.15625,0 -0.260417,-0.01953 -0.104167,-0.01302 -0.169271,-0.03255 -0.05859,-0.02604 -0.08463,-0.0651 -0.01953,-0.03906 -0.01953,-0.09115 V 68.38086 q 0,-0.273438 0.143229,-0.390625 0.143229,-0.117188 0.31901,-0.117188 h 0.677084 q 0.208333,0 0.364583,0.03906 0.15625,0.03906 0.273437,0.123697 0.117188,0.08464 0.195313,0.214844 0.07813,0.130209 0.136719,0.30599 l 2.441406,6.100261 h 0.03255 l 2.539063,-6.08073 q 0.07161,-0.195312 0.15625,-0.332031 0.08464,-0.136719 0.182291,-0.214844 0.104167,-0.08464 0.227865,-0.117187 0.123698,-0.03906 0.286458,-0.03906 h 0.709636 q 0.09766,0 0.182292,0.03255 0.09115,0.02604 0.149739,0.09115 0.0651,0.05859 0.104167,0.15625 0.03906,0.09115 0.03906,0.227865 z"/></g><g style="font-style:normal;font-variant:normal;font-weight:400;font-stretch:normal;font-size:13.33333397px;line-height:1.25;font-family:Calibri;-inkscape-font-specification:'Calibri, Normal';font-variant-ligatures:normal;font-variant-caps:normal;font-variant-numeric:normal;font-feature-settings:normal;text-align:start;letter-spacing:0;word-spacing:0;writing-mode:lr-tb;text-anchor:start;fill:#f2f2f2;fill-opacity:1;stroke:none" id="flowRoot407" aria-label="S" transform="matrix(0.26458333,0,0,0.26458333,7.4780396,35.080938)"><path id="path409" d="m 21.908203,73.934245 q 0,0.592448 -0.221354,1.054688 -0.214844,0.462239 -0.605469,0.78776 -0.384114,0.319011 -0.911458,0.481771 -0.520833,0.162761 -1.126302,0.162761 -0.423177,0 -0.787761,-0.07162 -0.358072,-0.07161 -0.644531,-0.175781 -0.279948,-0.104167 -0.47526,-0.214844 -0.188802,-0.110677 -0.266927,-0.188802 -0.07161,-0.07813 -0.110677,-0.195313 -0.03255,-0.123698 -0.03255,-0.325521 0,-0.143229 0.01302,-0.234375 0.01302,-0.09766 0.03906,-0.15625 0.02604,-0.05859 0.0651,-0.07813 0.03906,-0.02604 0.09115,-0.02604 0.09115,0 0.253906,0.110677 0.169271,0.110677 0.429688,0.240885 0.260416,0.130209 0.625,0.247396 0.371093,0.110677 0.852864,0.110677 0.364584,0 0.664063,-0.09766 0.305989,-0.09766 0.520833,-0.273438 0.221354,-0.182291 0.338542,-0.442708 0.117187,-0.260417 0.117187,-0.592448 0,-0.358073 -0.16276,-0.611979 -0.162761,-0.253906 -0.429688,-0.442708 -0.266927,-0.195313 -0.611979,-0.351563 -0.338541,-0.16276 -0.696614,-0.325521 -0.358073,-0.169271 -0.696615,-0.371094 -0.338542,-0.201822 -0.605469,-0.47526 -0.266927,-0.273437 -0.436198,-0.638021 -0.16276,-0.371094 -0.16276,-0.885417 0,-0.527343 0.188802,-0.9375 0.195312,-0.416666 0.533854,-0.696614 0.345052,-0.279948 0.813802,-0.423177 0.475261,-0.14974 1.022136,-0.14974 0.279948,0 0.559896,0.05208 0.286458,0.04557 0.533854,0.130209 0.253906,0.07813 0.449219,0.182291 0.195312,0.09766 0.253906,0.162761 0.0651,0.05859 0.08463,0.09766 0.01953,0.03255 0.03255,0.09115 0.01302,0.05208 0.01953,0.130208 0.0065,0.07813 0.0065,0.201823 0,0.117188 -0.01302,0.208334 -0.0065,0.09114 -0.02604,0.15625 -0.01953,0.05859 -0.05859,0.09114 -0.03255,0.02604 -0.07813,0.02604 -0.07162,0 -0.227865,-0.09115 -0.149739,-0.09115 -0.371094,-0.201823 -0.221354,-0.117187 -0.527343,-0.208333 -0.29948,-0.09766 -0.677084,-0.09766 -0.351562,0 -0.611979,0.09766 -0.260417,0.09115 -0.429688,0.247396 -0.16927,0.15625 -0.253906,0.371094 -0.08463,0.214843 -0.08463,0.455729 0,0.351562 0.16276,0.605469 0.162761,0.253906 0.429688,0.449218 0.273437,0.195313 0.618489,0.358073 0.345052,0.162761 0.703125,0.332032 0.358073,0.16276 0.703125,0.364583 0.345053,0.195312 0.61198,0.46875 0.273437,0.266927 0.436198,0.638021 0.16927,0.364583 0.16927,0.865885 z"/></g></g></svg>