<svg xmlns="http://www.w3.org/2000/svg" xmlns:svg="http://www.w3.org/2000/svg" id="svg85367" width="60" height="380" version="1.1" viewBox="0 0 15.875 100.542"><metadata id="metadata85364"/><g id="layer4" transform="translate(0,8.0744425e-6)" style="display:inline"><path id="path65292-2" d="M 0.05024939,0.02366613 H 15.886282 V 100.88751 H 0.05024939 Z m 0,0" style="fill:#4d4d4d;fill-opacity:1;fill-rule:nonzero;stroke:none;stroke-width:.19569385"/></g><g id="layer3" transform="translate(0,8.0744425e-6)" style="display:inline"><rect style="fill:gray;stroke-width:.25390878" id="rect3911" width="25.857" height="5.77" x="23.891" y="80.392" ry="2.756"/><rect id="rect4212" width="25.857" height="5.77" x="23.891" y="87.726" ry="2.756" style="fill:gray;stroke-width:.25390878"/><rect id="rect3923" width="84.9" height="5.823" x="8.631" y="-42.84" ry="2.781" transform="rotate(90)" style="fill:#c83737;stroke-width:.46220216"/><rect style="fill:gray;stroke-width:.25390878" id="rect4214" width="25.857" height="5.77" x="23.891" y="14.778" ry="2.756"/><rect id="rect4216" width="25.857" height="5.77" x="23.891" y="7.689" ry="2.756" style="fill:gray;stroke-width:.25390878"/><rect style="fill:#08a;stroke-width:.46220213" id="rect3921" width="84.9" height="5.823" x="7.673" y="-36.29" ry="2.781" transform="rotate(90)"/><path id="path65" d="m 46.961852,20.545131 -10.787761,0.01653 c -0.421076,6.46e-4 -0.08769,-0.663435 -0.06832,-2.044833 l 0.03376,-2.408105 c 0.0214,-1.526628 0.175156,-1.299483 0.551345,-1.300694 l 10.270973,-0.03307 c 1.5588,-0.005 2.813732,1.229132 2.813732,2.755902 v 0.258366 c 0,1.526769 -1.254998,2.770667 -2.813732,2.755901 z" style="fill:#08a;fill-opacity:1;stroke-width:.25655898"/><g style="font-style:normal;font-variant:normal;font-weight:700;font-stretch:normal;font-size:3.52777767px;line-height:1.25;font-family:'DejaVu Sans';-inkscape-font-specification:'DejaVu Sans, Bold';font-variant-ligatures:normal;font-variant-caps:normal;font-variant-numeric:normal;font-feature-settings:normal;text-align:start;letter-spacing:0;word-spacing:0;writing-mode:lr-tb;text-anchor:start;fill:#f2f2f2;fill-opacity:1;stroke:none;stroke-width:.26458332" id="text4043" aria-label="STEP" transform="translate(20.630212,0.00172471)"><path id="path62" d="m 12.473953,16.456269 v 0.544325 q -0.211874,-0.09474 -0.413412,-0.142971 -0.201538,-0.04823 -0.380683,-0.04823 -0.237711,0 -0.351399,0.06546 -0.113688,0.06546 -0.113688,0.203261 0,0.103353 0.07579,0.161919 0.07751,0.05684 0.279052,0.09819 l 0.282498,0.05684 q 0.428915,0.08613 0.609782,0.261827 0.180868,0.1757 0.180868,0.499539 0,0.425469 -0.253215,0.633897 -0.251492,0.206706 -0.769979,0.206706 -0.244602,0 -0.490926,-0.04651 -0.246324,-0.04651 -0.492649,-0.137804 V 18.25289 q 0.246325,0.130914 0.475424,0.198093 0.230821,0.06546 0.444417,0.06546 0.217041,0 0.332452,-0.07235 0.11541,-0.07235 0.11541,-0.206706 0,-0.120578 -0.07924,-0.186035 -0.07751,-0.06546 -0.311781,-0.117133 l -0.25666,-0.05684 q -0.38585,-0.08268 -0.564995,-0.26355 -0.177423,-0.180867 -0.177423,-0.487481 0,-0.384128 0.248047,-0.590834 0.248047,-0.206706 0.713135,-0.206706 0.211873,0 0.435805,0.03273 0.223931,0.03101 0.463365,0.09474 z"/><path id="path64" d="m 12.920093,16.375309 h 2.370225 v 0.501262 h -0.852661 v 2.070502 h -0.663181 v -2.070502 h -0.854383 z"/><path id="path66" d="m 15.631383,16.375309 h 1.789727 v 0.501262 h -1.126546 v 0.478868 H 17.35393 V 17.8567 h -1.059366 v 0.589112 h 1.164442 v 0.501261 h -1.827623 z"/><path id="path68" d="m 18.042949,16.375309 h 1.100708 q 0.490927,0 0.752754,0.218764 0.26355,0.217041 0.26355,0.620117 0,0.404799 -0.26355,0.623562 -0.261827,0.217041 -0.752754,0.217041 H 18.70613 v 0.89228 H 18.042949 Z M 18.70613,16.8559 v 0.718302 h 0.366903 q 0.192925,0 0.298001,-0.09302 0.105075,-0.09474 0.105075,-0.266995 0,-0.172255 -0.105075,-0.265272 -0.105076,-0.09302 -0.298001,-0.09302 z"/></g><path id="path60" d="m 26.609745,87.727712 10.770937,0.01654 c 0.412423,6.33e-4 3.335597,-0.0456 3.764625,1.267619 l 0.921921,2.821932 c 0.474133,1.451285 -2.461853,1.66451 -2.830314,1.664496 l -12.627169,-4.71e-4 c -1.52677,-5.7e-5 -2.755902,-1.229084 -2.755902,-2.755854 v -0.258366 c 0,-1.526769 1.229203,-2.770667 2.755902,-2.755901 z" style="fill:#c83737;fill-opacity:1;stroke-width:.25390878"/><g style="font-style:normal;font-variant:normal;font-weight:700;font-stretch:normal;font-size:3.52777767px;line-height:1.25;font-family:'DejaVu Sans';-inkscape-font-specification:'DejaVu Sans, Bold';font-variant-ligatures:normal;font-variant-caps:normal;font-variant-numeric:normal;font-feature-settings:normal;text-align:start;letter-spacing:0;word-spacing:0;writing-mode:lr-tb;text-anchor:start;fill:#f2f2f2;fill-opacity:1;stroke:none;stroke-width:.26458332" id="text4033" aria-label="COUNT" transform="translate(17.900006)"><path id="path40" d="m 11.295772,91.754045 q -0.18259,0.09474 -0.380683,0.142972 -0.198093,0.04823 -0.413411,0.04823 -0.6425104,0 -1.0180258,-0.35829 -0.3755154,-0.360012 -0.3755154,-0.974962 0,-0.616672 0.3755154,-0.974962 0.3755154,-0.360012 1.0180258,-0.360012 0.215318,0 0.413411,0.04823 0.198093,0.04823 0.380683,0.142971 v 0.532268 q -0.184312,-0.125746 -0.363457,-0.184313 -0.179145,-0.05857 -0.377238,-0.05857 -0.354845,0 -0.5581056,0.227376 -0.2032606,0.227376 -0.2032606,0.627007 0,0.397909 0.2032606,0.625285 0.2032606,0.227376 0.5581056,0.227376 0.198093,0 0.377238,-0.05857 0.179145,-0.05857 0.363457,-0.184313 z"/><path id="path42" d="m 13.021765,89.757613 q -0.303168,0 -0.470255,0.223931 -0.167087,0.223931 -0.167087,0.630452 0,0.404799 0.167087,0.62873 0.167087,0.223931 0.470255,0.223931 0.304891,0 0.471978,-0.223931 0.167087,-0.223931 0.167087,-0.62873 0,-0.406521 -0.167087,-0.630452 -0.167087,-0.223931 -0.471978,-0.223931 z m 0,-0.480591 q 0.620117,0 0.971517,0.354845 0.3514,0.354844 0.3514,0.980129 0,0.623562 -0.3514,0.978407 -0.3514,0.354845 -0.971517,0.354845 -0.618394,0 -0.971517,-0.354845 -0.351399,-0.354845 -0.351399,-0.978407 0,-0.625285 0.351399,-0.980129 0.353123,-0.354845 0.971517,-0.354845 z"/><path id="path44" d="m 14.844221,89.32353 h 0.663181 v 1.541681 q 0,0.318671 0.103353,0.456475 0.105075,0.136081 0.341064,0.136081 0.237712,0 0.341065,-0.136081 0.105075,-0.137804 0.105075,-0.456475 V 89.32353 h 0.663181 v 1.541681 q 0,0.546047 -0.273885,0.813042 -0.273885,0.266995 -0.835436,0.266995 -0.559828,0 -0.833713,-0.266995 -0.273885,-0.266995 -0.273885,-0.813042 z"/><path id="path46" d="m 17.71054,89.32353 h 0.740695 l 0.935343,1.763889 V 89.32353 h 0.62873 v 2.571764 H 19.274613 L 18.33927,90.131405 v 1.763889 h -0.62873 z"/><path id="path48" d="m 20.359819,89.32353 h 2.370225 v 0.501262 h -0.852661 v 2.070502 h -0.663181 v -2.070502 h -0.854383 z"/></g><path style="fill:#08a;fill-opacity:1;stroke-width:.25390878" id="path81" d="m 46.994077,13.452942 -10.903229,-1e-6 c -0.412424,0 0.179933,-0.498544 -0.75499,-1.515666 L 32.3249,8.6615917 C 31.291687,7.5375371 32.662939,7.6799471 36.809676,7.6807652 l 10.184401,0.00201 c 1.52677,3.012e-4 2.755902,1.229132 2.755902,2.7559028 v 0.258366 c 0,1.526769 -1.229204,2.770667 -2.755902,2.755901 z"/><g style="font-style:normal;font-variant:normal;font-weight:700;font-stretch:normal;font-size:3.52777767px;line-height:1.25;font-family:'DejaVu Sans';-inkscape-font-specification:'DejaVu Sans, Bold';font-variant-ligatures:normal;font-variant-caps:normal;font-variant-numeric:normal;font-feature-settings:normal;text-align:start;letter-spacing:0;word-spacing:0;writing-mode:lr-tb;text-anchor:start;fill:#f2f2f2;fill-opacity:1;stroke:none;stroke-width:.26458332" id="text4039" aria-label="SCAN" transform="translate(20.627067)"><path id="path71" d="m 12.660892,9.3669689 v 0.544325 q -0.211873,-0.09474 -0.413411,-0.1429714 -0.201538,-0.048231 -0.380683,-0.048231 -0.237712,0 -0.3514,0.065457 -0.113688,0.065457 -0.113688,0.2032606 0,0.1033529 0.07579,0.1619199 0.07751,0.05684 0.279053,0.09818 l 0.282497,0.05684 q 0.428915,0.08613 0.609782,0.261827 0.180868,0.175699 0.180868,0.499538 0,0.425471 -0.253215,0.633898 -0.251492,0.206707 -0.769979,0.206707 -0.244601,0 -0.490926,-0.04651 -0.246324,-0.04651 -0.492648,-0.137804 v -0.559828 q 0.246324,0.130914 0.475423,0.198093 0.230821,0.06546 0.444417,0.06546 0.217041,0 0.332452,-0.07235 0.115411,-0.07235 0.115411,-0.206706 0,-0.120578 -0.07924,-0.186035 -0.07751,-0.06546 -0.311781,-0.117134 l -0.256659,-0.05684 q -0.385851,-0.08268 -0.564996,-0.26355 -0.177422,-0.180869 -0.177422,-0.487482 0,-0.3841277 0.248046,-0.5908334 0.248047,-0.2067058 0.713135,-0.2067058 0.211874,0 0.435805,0.032728 0.223931,0.031006 0.463365,0.09474 z"/><path id="path73" d="m 15.453142,11.716524 q -0.18259,0.09474 -0.380683,0.142971 -0.198093,0.04823 -0.413411,0.04823 -0.642511,0 -1.018026,-0.35829 -0.375516,-0.360013 -0.375516,-0.974962 0,-0.6166723 0.375516,-0.9749622 0.375515,-0.3600125 1.018026,-0.3600125 0.215318,0 0.413411,0.048231 0.198093,0.048231 0.380683,0.1429714 V 9.962968 q -0.184313,-0.125746 -0.363458,-0.1843126 -0.179145,-0.058567 -0.377238,-0.058567 -0.354844,0 -0.558105,0.2273763 -0.203261,0.2273763 -0.203261,0.6270073 0,0.397908 0.203261,0.625285 0.203261,0.227376 0.558105,0.227376 0.198093,0 0.377238,-0.05857 0.179145,-0.05857 0.363458,-0.184312 z"/><path id="path75" d="m 17.564985,11.38924 h -1.036973 l -0.163642,0.468533 h -0.666626 l 0.952569,-2.5717639 h 0.790649 l 0.952569,2.5717639 h -0.666626 z m -0.871609,-0.477146 h 0.704522 l -0.3514,-1.0231932 z"/><path id="path77" d="m 18.732873,9.2860091 h 0.740695 l 0.935344,1.7638889 V 9.2860091 h 0.62873 v 2.5717639 h -0.740696 l -0.935343,-1.763889 v 1.763889 h -0.62873 z"/></g><path style="fill:#c83737;fill-opacity:1;stroke-width:.25390878" id="rect57" d="m 26.600058,80.391747 10.531159,0.0083 c 0.412423,3.24e-4 0.120768,0.638631 0.101799,2.020029 l -0.03307,2.408105 c -0.02096,1.526628 -0.171556,1.299483 -0.540014,1.300694 l -10.059876,0.03307 c -1.526762,0.005 -2.755902,-1.229132 -2.755902,-2.755902 v -0.258366 c 0,-1.526769 1.229204,-2.770667 2.755902,-2.755901 z"/><g style="font-style:normal;font-variant:normal;font-weight:700;font-stretch:normal;font-size:3.52777767px;line-height:1.25;font-family:'DejaVu Sans';-inkscape-font-specification:'DejaVu Sans, Bold';font-variant-ligatures:normal;font-variant-caps:normal;font-variant-numeric:normal;font-feature-settings:normal;text-align:start;letter-spacing:0;word-spacing:0;writing-mode:lr-tb;text-anchor:start;fill:#f2f2f2;fill-opacity:1;stroke:none;stroke-width:.26458332" id="text4029" aria-label="VALUE" transform="translate(17.258358,2.5805664e-6)"><path style="font-style:normal;font-variant:normal;font-weight:700;font-stretch:normal;font-size:3.52777767px;font-family:'DejaVu Sans';-inkscape-font-specification:'DejaVu Sans, Bold';font-variant-ligatures:normal;font-variant-caps:normal;font-variant-numeric:normal;font-feature-settings:normal;text-align:start;writing-mode:lr-tb;text-anchor:start;fill:#f2f2f2;stroke-width:.26458332" id="path51" d="m 9.7497856,81.965971 h 0.6666264 l 0.682128,1.898248 0.680407,-1.898248 h 0.666626 l -0.952569,2.571764 h -0.790649 z"/><path style="font-style:normal;font-variant:normal;font-weight:700;font-stretch:normal;font-size:3.52777767px;font-family:'DejaVu Sans';-inkscape-font-specification:'DejaVu Sans, Bold';font-variant-ligatures:normal;font-variant-caps:normal;font-variant-numeric:normal;font-feature-settings:normal;text-align:start;writing-mode:lr-tb;text-anchor:start;fill:#f2f2f2;stroke-width:.26458332" id="path53" d="m 14.104386,84.069202 h -1.036974 l -0.163642,0.468533 h -0.666626 l 0.952569,-2.571764 h 0.79065 l 0.952569,2.571764 h -0.666626 z m -0.871609,-0.477146 h 0.704522 l -0.3514,-1.023193 z"/><path style="font-style:normal;font-variant:normal;font-weight:700;font-stretch:normal;font-size:3.52777767px;font-family:'DejaVu Sans';-inkscape-font-specification:'DejaVu Sans, Bold';font-variant-ligatures:normal;font-variant-caps:normal;font-variant-numeric:normal;font-feature-settings:normal;text-align:start;writing-mode:lr-tb;text-anchor:start;fill:#f2f2f2;stroke-width:.26458332" id="path55" d="m 15.272274,81.965971 h 0.663181 v 2.070503 h 1.164442 v 0.501261 h -1.827623 z"/><path style="font-style:normal;font-variant:normal;font-weight:700;font-stretch:normal;font-size:3.52777767px;font-family:'DejaVu Sans';-inkscape-font-specification:'DejaVu Sans, Bold';font-variant-ligatures:normal;font-variant-caps:normal;font-variant-numeric:normal;font-feature-settings:normal;text-align:start;writing-mode:lr-tb;text-anchor:start;fill:#f2f2f2;stroke-width:.26458332" id="path57" d="m 17.394452,81.965971 h 0.663181 v 1.54168 q 0,0.318672 0.103353,0.456476 0.105075,0.136081 0.341065,0.136081 0.237711,0 0.341064,-0.136081 0.105075,-0.137804 0.105075,-0.456476 v -1.54168 h 0.663181 v 1.54168 q 0,0.546048 -0.273885,0.813043 -0.273885,0.266995 -0.835435,0.266995 -0.559828,0 -0.833714,-0.266995 -0.273885,-0.266995 -0.273885,-0.813043 z"/><path style="font-style:normal;font-variant:normal;font-weight:700;font-stretch:normal;font-size:3.52777767px;font-family:'DejaVu Sans';-inkscape-font-specification:'DejaVu Sans, Bold';font-variant-ligatures:normal;font-variant-caps:normal;font-variant-numeric:normal;font-feature-settings:normal;text-align:start;writing-mode:lr-tb;text-anchor:start;fill:#f2f2f2;stroke-width:.26458332" id="path59" d="m 20.260772,81.965971 h 1.789727 v 0.501262 h -1.126547 v 0.478868 h 1.059367 v 0.501261 h -1.059367 v 0.589112 h 1.164443 v 0.501261 h -1.827623 z"/></g><g style="font-style:normal;font-variant:normal;font-weight:700;font-stretch:normal;font-size:7.05555534px;line-height:1.25;font-family:Calibri;-inkscape-font-specification:'Calibri, Bold';font-variant-ligatures:normal;font-variant-caps:normal;font-variant-numeric:normal;font-feature-settings:normal;text-align:start;letter-spacing:0;word-spacing:0;writing-mode:lr-tb;text-anchor:start;fill:#f2f2f2;fill-opacity:1;stroke:none;stroke-width:.26458332" id="text64" aria-label="x" transform="translate(35.321876,18.388542)"><path style="font-style:normal;font-variant:normal;font-weight:700;font-stretch:normal;font-size:7.05555534px;font-family:Calibri;-inkscape-font-specification:'Calibri, Bold';font-variant-ligatures:normal;font-variant-caps:normal;font-variant-numeric:normal;font-feature-settings:normal;text-align:start;writing-mode:lr-tb;text-anchor:start;fill:#f2f2f2;fill-opacity:1;stroke-width:.26458332" id="path92" d="m 5.5240484,6.7965611 q 0.027561,0.058567 0.024116,0.096463 0,0.037896 -0.048231,0.062012 -0.048231,0.024116 -0.1481391,0.031006 -0.099908,0.010335 -0.2652724,0.010335 -0.1550293,0 -0.251492,-0.00689 Q 4.7420118,6.9860414 4.6868902,6.972261 4.6352138,6.9550355 4.607653,6.934365 4.5835374,6.9102493 4.569757,6.8757983 L 4.0013163,5.7837031 3.4328755,6.8757983 q -0.01378,0.034451 -0.037896,0.058567 -0.024116,0.020671 -0.075792,0.037896 -0.048231,0.01378 -0.1378038,0.017226 -0.089573,0.00689 -0.2342665,0.00689 -0.1515842,0 -0.2411567,-0.010335 -0.089573,-0.00689 -0.1309136,-0.031006 -0.041341,-0.024116 -0.044786,-0.062012 0,-0.037896 0.031006,-0.096463 L 3.412205,5.2841643 2.6267232,3.864785 q -0.031006,-0.062012 -0.034451,-0.1033529 0,-0.044786 0.044786,-0.068902 0.044786,-0.024116 0.1412489,-0.034451 0.099908,-0.010335 0.2687174,-0.010335 0.1515842,0 0.2411567,0.00689 0.093018,0.00345 0.144694,0.01378 0.051676,0.010335 0.075792,0.034451 0.024116,0.020671 0.041341,0.055121 L 4.0977789,4.7846254 4.642104,3.757987 Q 4.652439,3.730426 4.67311,3.709756 4.69378,3.689085 4.738567,3.675305 4.783353,3.661525 4.8591453,3.654634 q 0.079237,-0.00689 0.2135959,-0.00689 0.1515842,0 0.2411567,0.00689 0.093018,0.00689 0.1309136,0.031006 0.041341,0.024116 0.037896,0.068902 0,0.041341 -0.037896,0.1102431 L 4.6800001,5.2600486 Z"/></g><text style="font-style:normal;font-variant:normal;font-weight:700;font-stretch:normal;font-size:4.23333311px;line-height:1.25;font-family:Calibri;-inkscape-font-specification:'Calibri, Bold';font-variant-ligatures:normal;font-variant-caps:normal;font-variant-numeric:normal;font-feature-settings:normal;text-align:start;letter-spacing:0;word-spacing:0;writing-mode:lr-tb;text-anchor:start;fill:#f2f2f2;fill-opacity:1;stroke:none;stroke-width:.26458332" id="text97" x="32.389" y="24.967" xml:space="preserve"><tspan id="tspan95" x="32.389" y="24.967">A</tspan></text><text id="text101" x="32.413" y="34.881" xml:space="preserve" style="font-style:normal;font-variant:normal;font-weight:700;font-stretch:normal;font-size:4.23333311px;line-height:1.25;font-family:Calibri;-inkscape-font-specification:'Calibri, Bold';font-variant-ligatures:normal;font-variant-caps:normal;font-variant-numeric:normal;font-feature-settings:normal;text-align:start;letter-spacing:0;word-spacing:0;writing-mode:lr-tb;text-anchor:start;fill:#f2f2f2;fill-opacity:1;stroke:none;stroke-width:.26458332"><tspan id="tspan99" x="32.413" y="34.881">B</tspan></text><text style="font-style:normal;font-variant:normal;font-weight:700;font-stretch:normal;font-size:4.23333311px;line-height:1.25;font-family:Calibri;-inkscape-font-specification:'Calibri, Bold';font-variant-ligatures:normal;font-variant-caps:normal;font-variant-numeric:normal;font-feature-settings:normal;text-align:start;letter-spacing:0;word-spacing:0;writing-mode:lr-tb;text-anchor:start;fill:#f2f2f2;fill-opacity:1;stroke:none;stroke-width:.26458332" id="text105" x="32.51" y="44.941" xml:space="preserve"><tspan id="tspan103" x="32.51" y="44.941">X</tspan></text><text id="text109" x="31.086" y="56.448" xml:space="preserve" style="font-style:normal;font-variant:normal;font-weight:400;font-stretch:normal;font-size:2.82222223px;line-height:1.25;font-family:Calibri;-inkscape-font-specification:'Calibri, Normal';font-variant-ligatures:normal;font-variant-caps:normal;font-variant-numeric:normal;font-feature-settings:normal;text-align:start;letter-spacing:0;word-spacing:0;writing-mode:lr-tb;text-anchor:start;fill:#f2f2f2;fill-opacity:1;stroke:none;stroke-width:.26458332"><tspan id="tspan107" x="31.086" y="56.448">OUT</tspan></text><rect id="rect147" width="75.3" height="5.823" x="16.364" y="-7.604" ry="2.781" transform="rotate(90)" style="fill:#08a;stroke-width:.43528679"/><rect style="fill:#c83737;fill-opacity:1;stroke-width:.43528679" id="rect155" width="75.3" height="5.823" x="16.364" y="-14.486" ry="2.781" transform="rotate(90)"/><rect style="fill:#c83737;fill-opacity:1;stroke-width:.23520996" id="rect82" width="18.838" height="5.601" x="-24.844" y="-.907" ry="2.741" transform="rotate(-116.69889)"/><rect id="rect84" width="12.251" height="5.536" x="-14.869" y="-8.85" rx="2.48" ry="2.768" transform="matrix(-0.99999992,-3.9129753e-4,3.1514003e-4,-0.99999995,0,0)" style="fill:#c83737;fill-opacity:1;stroke-width:.22282033"/><text style="font-style:normal;font-variant:normal;font-weight:700;font-stretch:normal;font-size:4.23333311px;line-height:1.25;font-family:Calibri;-inkscape-font-specification:'Calibri, Bold';font-variant-ligatures:normal;font-variant-caps:normal;font-variant-numeric:normal;font-feature-settings:normal;text-align:start;letter-spacing:0;word-spacing:0;writing-mode:lr-tb;text-anchor:start;fill:#f2f2f2;fill-opacity:1;stroke:none;stroke-width:.26458332" id="text59" x="2.87" y="7.497" xml:space="preserve"><tspan id="tspan61" x="2.87" y="7.497">WRAP</tspan></text><g style="font-style:normal;font-variant:normal;font-weight:700;font-stretch:normal;font-size:4.23333311px;line-height:1.25;font-family:Calibri;-inkscape-font-specification:'Calibri, Bold';font-variant-ligatures:normal;font-variant-caps:normal;font-variant-numeric:normal;font-feature-settings:normal;text-align:start;letter-spacing:0;word-spacing:0;writing-mode:lr-tb;text-anchor:start;fill:#f2f2f2;fill-opacity:1;stroke:none;stroke-width:.26458332" id="text65" aria-label="WRAP" transform="translate(0.52916663,1.5875)"><path id="path67" d="m 5.4474947,5.7708652 q -0.012402,0.049609 -0.03514,0.080615 -0.020671,0.028939 -0.064079,0.045475 -0.043408,0.014469 -0.1116211,0.018603 -0.068213,0.0062 -0.1736328,0.0062 -0.1178223,0 -0.1901693,-0.0062 -0.07028,-0.00413 -0.1116211,-0.018603 -0.041341,-0.016536 -0.059945,-0.045475 -0.018604,-0.031006 -0.028939,-0.080615 l -0.42788,-1.6949869 h -0.00413 L 3.8351901,5.7708652 q -0.010335,0.047542 -0.028939,0.078548 -0.018604,0.028939 -0.059945,0.045475 -0.039274,0.016536 -0.1095541,0.020671 -0.068213,0.0062 -0.181901,0.0062 -0.1198893,0 -0.1922363,-0.0062 -0.07028,-0.00413 -0.1116211,-0.018603 -0.041341,-0.016536 -0.059945,-0.045475 -0.018604,-0.031006 -0.031006,-0.080615 L 2.4523289,3.4371576 q -0.018603,-0.074414 -0.020671,-0.1157552 -0.00207,-0.043408 0.022738,-0.066146 0.026872,-0.022738 0.084749,-0.026872 0.059945,-0.0062 0.1653645,-0.0062 0.097152,0 0.1529623,0.00413 0.057878,0.00207 0.086816,0.014469 0.028939,0.010335 0.039274,0.033073 0.010335,0.020671 0.016536,0.059945 l 0.469222,2.0484536 h 0.00207 L 3.9592136,3.3482742 q 0.00827,-0.039274 0.020671,-0.064079 0.014469,-0.024805 0.045475,-0.037207 0.033073,-0.014469 0.088883,-0.018604 0.055811,-0.0062 0.1488282,-0.0062 0.099219,0 0.1570963,0.00413 0.059945,0.00413 0.09095,0.018604 0.033073,0.012402 0.047542,0.037207 0.014469,0.024805 0.022738,0.066146 L 5.085759,5.3822554 h 0.00413 L 5.559111,3.3400029 q 0.0062,-0.033073 0.016536,-0.05581 0.010335,-0.024805 0.039274,-0.037207 0.028939,-0.014469 0.082682,-0.018604 0.053744,-0.0062 0.1508952,-0.0062 0.090951,0 0.1405599,0.0062 0.051676,0.00413 0.074414,0.026872 0.022738,0.022738 0.018603,0.068213 -0.00207,0.043408 -0.020671,0.1198893 z"/><path id="path69" d="m 8.4529959,5.8390781 q 0,0.022738 -0.00827,0.039274 -0.00827,0.014469 -0.039274,0.024805 -0.031006,0.010335 -0.09095,0.014469 -0.059945,0.00413 -0.1632975,0.00413 -0.086816,0 -0.1384928,-0.00413 -0.051676,-0.00413 -0.082682,-0.014469 -0.028939,-0.012402 -0.041341,-0.028939 -0.012402,-0.018604 -0.020671,-0.043408 L 7.6282401,5.2334303 Q 7.5848319,5.1321445 7.5434908,5.0535964 7.5021496,4.9750482 7.4504732,4.9233717 7.4008638,4.8696283 7.334718,4.8427565 7.2685722,4.8158848 7.1817558,4.8158848 H 7.0122571 V 5.834944 q 0,0.02067 -0.014469,0.037207 -0.012402,0.016536 -0.043408,0.026872 -0.031006,0.010335 -0.082682,0.016536 -0.051676,0.0062 -0.1322917,0.0062 -0.078548,0 -0.1322916,-0.0062 Q 6.5554378,5.909359 6.5244328,5.899023 6.4934257,5.8886875 6.4810234,5.872151 6.468621,5.8556145 6.468621,5.834944 V 3.4061518 q 0,-0.09095 0.045475,-0.1302246 0.047542,-0.041341 0.1157552,-0.041341 h 0.6924642 q 0.1054199,0 0.1736328,0.00413 0.068213,0.00413 0.1240234,0.010335 0.1612305,0.022738 0.289388,0.078548 0.1302246,0.05581 0.2191081,0.1467611 0.09095,0.088883 0.1384928,0.2129069 0.047542,0.1219563 0.047542,0.2811197 0,0.1343587 -0.03514,0.2459798 -0.033073,0.1095541 -0.099219,0.1963705 -0.066146,0.086816 -0.1632975,0.1508951 -0.097152,0.064079 -0.2211751,0.1033529 0.059945,0.028939 0.111621,0.07028 0.053744,0.041341 0.099219,0.1012858 0.047542,0.057878 0.088883,0.1343588 0.041341,0.074414 0.080615,0.1694987 L 8.4013181,5.667508 q 0.031006,0.078548 0.041341,0.1157552 0.010335,0.03514 0.010335,0.055811 z M 7.7522636,4.0242019 q 0,-0.1322917 -0.059945,-0.2232422 -0.059945,-0.09095 -0.1963704,-0.1281575 -0.041341,-0.010335 -0.095085,-0.016536 -0.051676,-0.0062 -0.144694,-0.0062 H 7.0122571 v 0.75861 h 0.2769856 q 0.1157553,0 0.2025717,-0.026872 0.086816,-0.028939 0.144694,-0.078548 0.057878,-0.051676 0.086816,-0.1219564 0.028939,-0.07028 0.028939,-0.1570963 z"/><path id="path72" d="m 11.040952,5.7067864 q 0.0248,0.074414 0.031,0.1178223 0.0062,0.043408 -0.01654,0.066146 -0.02274,0.020671 -0.08062,0.024805 -0.05788,0.0062 -0.159164,0.0062 -0.10542,0 -0.165364,-0.00413 -0.05788,-0.00207 -0.08888,-0.010335 -0.03101,-0.010335 -0.04341,-0.026872 -0.0124,-0.016536 -0.02067,-0.043408 L 10.317482,5.2995762 H 9.3128918 L 9.1433931,5.8225416 q -0.00827,0.028939 -0.022738,0.049609 -0.012402,0.018604 -0.043408,0.031006 -0.028939,0.010335 -0.084749,0.014469 -0.053743,0.00413 -0.1426269,0.00413 -0.095085,0 -0.1488282,-0.0062 Q 8.6473,5.9093556 8.626629,5.8866166 8.605958,5.8618116 8.61216,5.8184036 8.61836,5.7749956 8.643166,5.7026484 L 9.4679211,3.3296707 q 0.012402,-0.03514 0.028939,-0.055811 0.016536,-0.022738 0.051676,-0.033073 0.037207,-0.012402 0.1012858,-0.014469 0.064079,-0.00413 0.1694987,-0.00413 0.1219563,0 0.1943034,0.00413 0.07235,0.00207 0.111621,0.014469 0.04134,0.010335 0.05788,0.033073 0.0186,0.022738 0.03101,0.062012 z M 9.8131196,3.7451492 h -0.00207 L 9.4327811,4.8820306 h 0.7586099 z"/><path id="path74" d="m 13.244434,4.0469395 q 0,0.2253092 -0.07028,0.398942 -0.07028,0.1736328 -0.204639,0.2935222 -0.134359,0.1178222 -0.330729,0.1798339 -0.194304,0.062012 -0.458887,0.062012 H 11.956658 V 5.834944 q 0,0.02067 -0.01447,0.037207 -0.0124,0.016536 -0.04341,0.026872 -0.03101,0.010335 -0.08268,0.016536 -0.05168,0.0062 -0.132292,0.0062 -0.07855,0 -0.132291,-0.0062 -0.05168,-0.0062 -0.08268,-0.016536 -0.03101,-0.010335 -0.04341,-0.026872 -0.0124,-0.016536 -0.0124,-0.037207 V 3.4288894 q 0,-0.097152 0.04961,-0.144694 0.05168,-0.049609 0.134359,-0.049609 h 0.630452 q 0.09508,0 0.179834,0.00827 0.08682,0.0062 0.206706,0.031006 0.119889,0.022738 0.241846,0.086816 0.124023,0.064079 0.21084,0.1632975 0.08682,0.097152 0.132291,0.2294434 0.04547,0.1302246 0.04547,0.2935221 z m -0.56844,0.039274 q 0,-0.1405599 -0.04961,-0.2315104 -0.04961,-0.09095 -0.121956,-0.1343587 -0.07235,-0.043408 -0.152962,-0.053743 -0.07855,-0.012402 -0.163298,-0.012402 h -0.23151 v 0.9074381 h 0.243913 q 0.130224,0 0.217041,-0.03514 0.08888,-0.03514 0.144694,-0.097152 0.05581,-0.064079 0.08475,-0.1508952 0.02894,-0.088883 0.02894,-0.1922363 z"/></g></g></svg>