<svg xmlns="http://www.w3.org/2000/svg" xmlns:svg="http://www.w3.org/2000/svg" id="svg30767" width="153.598" height="485.667" version="1.1" viewBox="0 0 40.639 128.499"><metadata id="metadata30764"/><g id="layer1" transform="translate(-30.557143,-52.920968)" style="display:inline"><path id="path3835" d="M 30.579938,53.013299 H 71.126642 V 181.32657 H 30.579938 Z m 0,0" style="fill:#e6e6e6;fill-opacity:1;fill-rule:nonzero;stroke:none;stroke-width:.24945153"/><path id="path3837" d="M 71.173492,52.92097 H 30.533773 v 128.4993 h 40.639719 z m -0.0937,128.31189 h -40.453 V 53.107008 h 40.453005 z m 0,0" style="fill:#ababab;fill-opacity:1;fill-rule:nonzero;stroke:none;stroke-width:.24945153"/><path style="fill:#000;fill-opacity:1;stroke:none;stroke-width:.35277775" id="path23448" d="m 44.205919,62.187839 c 0,0.176389 0.14333,0.325215 0.31972,0.325215 0.17639,0 0.31969,-0.148826 0.31969,-0.325215 v -1.5875 l 1.30641,1.714278 c 0.0882,0.110243 0.18189,0.187413 0.33623,0.187413 h 0.0219 c 0.18189,0 0.32522,-0.143316 0.32522,-0.325215 v -2.359201 c 0,-0.176389 -0.14333,-0.319705 -0.31972,-0.319705 -0.17639,0 -0.32522,0.143316 -0.32522,0.319705 v 1.526864 l -1.25677,-1.648132 c -0.0882,-0.115757 -0.18189,-0.192927 -0.33624,-0.192927 h -0.0661 c -0.18189,0 -0.32522,0.143316 -0.32522,0.325219 z m 0,0"/><path style="fill:#000;fill-opacity:1;stroke:none;stroke-width:.35277775" id="path23440" d="m 49.018579,62.535103 c 0.915,0 1.57646,-0.689017 1.57646,-1.532378 v -0.0055 c 0,-0.843361 -0.65595,-1.526868 -1.57095,-1.526868 -0.91504,0 -1.5765,0.68902 -1.5765,1.532378 v 0.01101 c 0,0.843361 0.65596,1.521354 1.57099,1.521354 z m 0.006,-0.600823 c -0.52366,0 -0.89848,-0.424437 -0.89848,-0.931555 v -0.0055 c 0,-0.507118 0.36381,-0.926042 0.89298,-0.926042 0.52363,0 0.89295,0.424434 0.89295,0.931552 v 0.01101 c 0,0.507118 -0.36378,0.920531 -0.88745,0.920531 z m 0,0"/><path style="fill:#000;fill-opacity:1;stroke:none;stroke-width:.35277775" id="path23444" d="m 51.740299,62.182325 c 0,0.181903 0.1433,0.330729 0.32519,0.330729 0.18193,0 0.32523,-0.148826 0.32523,-0.330729 V 60.12078 h 0.6284 c 0.16535,0 0.29764,-0.132292 0.29764,-0.297656 0,-0.165365 -0.13229,-0.303167 -0.29764,-0.303167 h -1.90722 c -0.16535,0 -0.29764,0.137802 -0.29764,0.303167 0,0.165364 0.13229,0.297656 0.29764,0.297656 h 0.6284 z m 0,0"/><path style="fill:#000;fill-opacity:1;stroke:none;stroke-width:.35277775" id="path23436" d="m 54.105249,62.485495 h 1.65915 c 0.16538,0 0.29217,-0.126781 0.29217,-0.286632 0,-0.159854 -0.12679,-0.292145 -0.29217,-0.292145 h -1.33943 v -0.622872 h 1.12999 c 0.15984,0 0.29213,-0.126781 0.29213,-0.286632 0,-0.165364 -0.13229,-0.292146 -0.29213,-0.292146 h -1.12999 v -0.600823 h 1.32292 c 0.15984,0 0.29213,-0.126781 0.29213,-0.292145 0,-0.159851 -0.13229,-0.292143 -0.29213,-0.292143 h -1.64264 c -0.18189,0 -0.32522,0.148827 -0.32522,0.33073 v 2.30959 c 0,0.181902 0.14333,0.325218 0.32522,0.325218 z m 0,0"/><path style="fill:#000;fill-opacity:1;stroke:none;stroke-width:.35277775" id="path23432" d="m 57.692049,62.529593 c 0.63941,0 1.08588,-0.33073 1.08588,-0.920532 v -0.01101 c 0,-0.512628 -0.33623,-0.727604 -0.93705,-0.887454 -0.51261,-0.132292 -0.6394,-0.192927 -0.6394,-0.385851 v -0.01101 c 0,-0.143316 0.12679,-0.259073 0.38032,-0.259073 0.20395,0 0.40792,0.07166 0.62287,0.198438 0.0496,0.03305 0.0992,0.04961 0.16538,0.04961 0.16535,0 0.30318,-0.132292 0.30318,-0.30317 0,-0.126778 -0.0717,-0.214973 -0.14333,-0.25907 -0.27009,-0.165364 -0.57877,-0.259072 -0.94259,-0.259072 -0.60632,0 -1.03628,0.352777 -1.03628,0.892968 v 0.0055 c 0,0.589799 0.38586,0.755164 0.98118,0.909504 0.49607,0.126781 0.60081,0.209462 0.60081,0.374826 v 0.01101 c 0,0.170879 -0.16535,0.275608 -0.42993,0.275608 -0.28663,0 -0.5347,-0.09922 -0.75519,-0.264583 -0.0441,-0.03306 -0.10471,-0.06063 -0.1874,-0.06063 -0.17088,0 -0.30868,0.132291 -0.30868,0.303166 0,0.09922 0.0551,0.192927 0.12679,0.242535 0.33073,0.237024 0.72207,0.358291 1.11344,0.35829 z m 0,0"/></g><g id="layer3" transform="translate(0,1.9042969e-6)" style="display:none"><rect style="opacity:1;vector-effect:none;fill:#ff0;fill-opacity:.50196078;fill-rule:evenodd;stroke:none;stroke-width:.3213588;stroke-linecap:round;stroke-linejoin:miter;stroke-miterlimit:4;stroke-dasharray:none;stroke-dashoffset:0;stroke-opacity:1;paint-order:normal" id="rect33077" width="74.48" height="102.753" x="3.4" y="14.837"/></g></svg>