<svg xmlns="http://www.w3.org/2000/svg" xmlns:svg="http://www.w3.org/2000/svg" xmlns:xlink="http://www.w3.org/1999/xlink" id="svg8" width="120" height="380" version="1.1" viewBox="0 0 31.75 100.542"><defs id="defs2"><linearGradient id="linearGradient5349"><stop id="stop5351" offset="0" style="stop-color:#fdfdfd;stop-opacity:1"/><stop id="stop5353" offset="1" style="stop-color:#fdfdfd;stop-opacity:1"/></linearGradient><radialGradient id="radialGradient5357" cx="285.494" cy="856.052" r="69.827" fx="285.494" fy="856.052" gradientTransform="matrix(0.42180436,0,0,0.0267339,-105.98218,272.19192)" gradientUnits="userSpaceOnUse" xlink:href="#linearGradient5349"/><clipPath id="clipPath4337" clipPathUnits="userSpaceOnUse"><rect style="fill:#623a58;fill-opacity:1;stroke:none;stroke-width:3.54330707;stroke-miterlimit:4;stroke-dasharray:none;stroke-opacity:1" id="rect4339" width="120" height="42.33" x="173.658" y="27.835"/></clipPath><clipPath id="clipPath4341" clipPathUnits="userSpaceOnUse"><rect style="fill:#623a58;fill-opacity:1;stroke:none;stroke-width:3.54330707;stroke-miterlimit:4;stroke-dasharray:none;stroke-opacity:1" id="rect4343" width="31.75" height="11.2" x="0" y="285.8"/></clipPath><clipPath id="clipPath4345" clipPathUnits="userSpaceOnUse"><rect style="fill:#623a58;fill-opacity:1;stroke:none;stroke-width:3.54330707;stroke-miterlimit:4;stroke-dasharray:none;stroke-opacity:1" id="rect4347" width="31.75" height="11.2" x="0" y="285.8"/></clipPath><clipPath id="clipPath4349" clipPathUnits="userSpaceOnUse"><rect style="fill:#623a58;fill-opacity:1;stroke:none;stroke-width:3.54330707;stroke-miterlimit:4;stroke-dasharray:none;stroke-opacity:1" id="rect4351" width="133.152" height="46.969" x="216.698" y="-34.274"/></clipPath><clipPath id="clipPath4353" clipPathUnits="userSpaceOnUse"><rect style="fill:#623a58;fill-opacity:1;stroke:none;stroke-width:3.54330707;stroke-miterlimit:4;stroke-dasharray:none;stroke-opacity:1" id="rect4355" width="31.75" height="11.2" x="0" y="285.8"/></clipPath><clipPath id="clipPath4357" clipPathUnits="userSpaceOnUse"><rect style="fill:#623a58;fill-opacity:1;stroke:none;stroke-width:3.54330707;stroke-miterlimit:4;stroke-dasharray:none;stroke-opacity:1" id="rect4359" width="31.75" height="11.2" x="0" y="285.8"/></clipPath><clipPath id="clipPath4400" clipPathUnits="userSpaceOnUse"><rect style="fill:#fff;fill-opacity:1;stroke:none;stroke-width:3.54330707;stroke-miterlimit:4;stroke-dasharray:none;stroke-opacity:1" id="rect4402" width="24.891" height="15.669" x="-.087" y="225.234"/></clipPath><clipPath id="clipPath4350" clipPathUnits="userSpaceOnUse"><rect style="fill:#505050;fill-opacity:1;stroke:none;stroke-width:1;stroke-miterlimit:4;stroke-dasharray:none;stroke-opacity:1" id="rect4352" width="31.75" height="20.892" x="0" y="269.335" ry=".412"/></clipPath></defs><metadata id="metadata5"/><g id="layer1" transform="translate(0,-196.45832)" style="display:inline"><path style="opacity:1;fill:#000;fill-opacity:1;fill-rule:evenodd;stroke:none;stroke-width:.48607069;stroke-linecap:butt;stroke-linejoin:round;stroke-miterlimit:4;stroke-dasharray:none;stroke-dashoffset:0;stroke-opacity:1;paint-order:normal" id="rect817" d="m 0,196.45831 31.750001,0 0,100.54168 -31.750001,0 z"/><path style="fill:#ff0;fill-opacity:1;stroke:none;stroke-width:3.54330707;stroke-miterlimit:4;stroke-dasharray:none;stroke-opacity:1" id="rect4361" d="m 0.32291962,277.33576 17.91038138,0 c 1.78712,0 3.22585,1.11582 3.22585,2.50185 l 0,6.96166 c 0,1.38602 -1.43873,2.50185 -3.22585,2.50185 l -17.91038138,0 c -1.78712112,0 -3.22585042,-1.11583 -3.22585042,-2.50185 l 0,-6.96166 c 0,-1.38603 1.4387293,-2.50185 3.22585042,-2.50185 z" clip-path="url(#clipPath4350)" transform="scale(0.78703371,1)"/><path style="fill:#ff0;fill-opacity:1;stroke:none;stroke-width:3.54330707;stroke-miterlimit:4;stroke-dasharray:none;stroke-opacity:1" id="rect4368" d="m 0.08856821,225.66988 13.89061579,0 c 1.386024,0 2.501848,1.11582 2.501848,2.50184 l 0,6.96167 c 0,1.38602 -1.115824,2.50185 -2.501848,2.50185 l -13.89061579,0 c -1.38602381,0 -2.50184801,-1.11583 -2.50184801,-2.50185 l 0,-6.96167 c 0,-1.38602 1.1158242,-2.50184 2.50184801,-2.50184 z" clip-path="url(#clipPath4400)" transform="matrix(1.0193831,0,0,0.96589802,0.08859049,8.1038327)"/><path style="fill:#3a3a3a;fill-opacity:1;stroke:none;stroke-width:3.54330707;stroke-miterlimit:4;stroke-dasharray:none;stroke-opacity:1" id="rect4327" d="m 0,235.75087 31.75,0 0,20.68809 -31.75,0 z"/><path id="path4366" d="m 0.17098923,254.73176 17.93464377,0 c 7.43095,0 2.50869,-3.36419 13.39177,-3.36419 l 0.252597,10.14277 -31.75,0 z" style="fill:#151515;fill-opacity:1;stroke:none;stroke-width:3.54330707;stroke-miterlimit:4;stroke-dasharray:none;stroke-opacity:1"/><path style="opacity:1;fill:#4a4a4a;fill-opacity:1;stroke:none;stroke-width:.26458335;stroke-miterlimit:4;stroke-dasharray:none;stroke-opacity:1" id="rect10365" d="m 24.476231,281.21601 5.588573,0 c 0.585743,0 1.057299,0.3587 1.057299,0.80429 l 0,6.47653 c 0,0.44558 -0.471556,0.80429 -1.057299,0.80429 l -5.588573,0 c -0.585744,0 -1.057298,-0.35871 -1.057298,-0.80429 l 0,-6.47653 c 0,-0.44559 0.471554,-0.80429 1.057298,-0.80429 z"/><path style="opacity:1;fill:url(#radialGradient5357);fill-opacity:1;stroke:#8b8b8b;stroke-width:.39687501;stroke-linejoin:miter;stroke-miterlimit:4;stroke-dasharray:none;stroke-opacity:1" id="path5329" d="m 31.483446,294.93321 -17.042828,-0.12503 -14.4172474,0.12503 -0.87873195,-3.46985 c 4.80992545,-1.00484 10.75039865,-1.72449 16.17117335,-1.71947 5.715286,0.005 9.886121,0.46573 17.046366,1.84449 z" clip-path="url(#clipPath4357)"/><path id="rect5381" d="M -1.0865176e-6,291.9933 C 10.904412,290.78346 21.545669,291.00362 31.750002,292.11599 l -0.03339,3.29649 -31.7166130865176,0 z" clip-path="url(#clipPath4353)" style="opacity:1;fill:#000;fill-opacity:1;stroke:none;stroke-width:1.00699997;stroke-linejoin:miter;stroke-miterlimit:4;stroke-dasharray:none;stroke-opacity:1"/><g id="g5348" clip-path="url(#clipPath4349)" transform="matrix(0.23844891,0,0,0.23844891,-50.083911,293.97285)"><path style="fill:#000;fill-opacity:1;fill-rule:evenodd;stroke:none;stroke-width:1px;stroke-linecap:butt;stroke-linejoin:miter;stroke-opacity:1" id="path4179" d="m 291.23228,-10.52707 6.43066,-3.03395 5.95249,-0.742 4.22115,0.51115 5.88653,2.16005 4.68284,4.36955 z"/><g id="layer2-0" transform="translate(109.83831,-148.57805)"><g id="layer2-5" transform="matrix(0.09824765,0,0,0.06980857,176.35705,132.53479)" style="stroke:#fff;stroke-opacity:1"><g id="g2852" style="stroke:#fff;stroke-opacity:1"><path style="color:#000;fill:none;stroke:#fff;stroke-width:2.89188218;stroke-linejoin:bevel;stroke-miterlimit:4;stroke-dasharray:none;stroke-opacity:1" id="path3614" d="m 2.1174,188.81 18.113,36.226 65.551,31.913 90.564,13.8 94.877,-11.213 60.376,-31.913 14.663,-30.188 -14.663,-37.951 0.32345,67.923 -33.099,-64.473 -25.876,96.602 -58.651,-80.214 -40.538,91.427 -40.538,-75.902 -46.576,61.239 -17.098,-92.852 -49.316,62.663 6.0376,-89.702 44.241,27.296 63.574,32.218 79.999,-16.819 86.467,-15.957 31.051,-3.6657 -33.27949,-62.050611 1.366,64.853611 -64.689,-74.392 -20.7,91.427 -69.001,-66.198 -75.902,50.026 15.35717,-82.554584 -59.34617,55.816584 24.151,-56.064 34.501,0 81.077,-37.088 -18.975,69.864 89.702,-24.151 62.101,7.7627 -66.314,-54.334 4.2124,46.571 -70.726,-45.713 66.414,-1.725 -53.476,-15.525 -12.938,16.388 -49.164,-6.9001 -66.414,44.851 -33.333,49.416 9.1828,6.6475 -23.288,52.614 z"/><path style="color:#000;fill:none;stroke:#fff;stroke-width:2.89188218;stroke-linejoin:bevel;stroke-miterlimit:4;stroke-dasharray:none;stroke-opacity:1" id="path3616" d="M 133.17,195.51 146.16,114.634 84.75317,79.116604 116.834,34.42 l 28.463,-4.3126 32.776,-5.1751 41.401,6.9001 12.938,10.35 47.438,20.7 18.975,34.501 30.188,30.188 2.8032,31.913"/><path style="color:#000;fill:none;stroke:#fff;stroke-width:2;stroke-linejoin:bevel;stroke-opacity:1" id="path3618" d="M 329.01,126.71 279.85,62.88 220.08,31.83"/><path style="color:#000;fill:none;stroke:#fff;stroke-width:2;stroke-linejoin:bevel;stroke-opacity:1" id="path3620" d="M 1.9262189,188.1862 16.108581,129.83899"/></g></g></g><path style="fill:none;fill-rule:evenodd;stroke:#fff;stroke-width:.2;stroke-linecap:butt;stroke-linejoin:miter;stroke-miterlimit:4;stroke-dasharray:none;stroke-opacity:1" id="path4177" d="m 320.18675,-2.24965 -1.66538,-4.93018"/><path style="opacity:0;fill:#000;fill-opacity:1;stroke:none;stroke-width:.2;stroke-miterlimit:4;stroke-dasharray:none;stroke-opacity:1" id="path4183" d="m 320.99471,-0.40290931 a 12.102836,4.2211528 0 0 1 -12.10283,4.22115281 12.102836,4.2211528 0 0 1 -12.10284,-4.22115281 12.102836,4.2211528 0 0 1 12.10284,-4.22115279 12.102836,4.2211528 0 0 1 12.10283,4.22115279 z"/></g><path id="path4209" d="m 2.826339,292.08697 3.7196502,-1.53131 0.7579386,0.60829 1.1077655,-0.7832 2.2155227,0.29151 0.932852,-0.34981 3.023931,0.97939 -1.041619,0.47818 -9.5034344,0.29152 z" clip-path="url(#clipPath4341)" style="fill:#000;fill-opacity:1;fill-rule:evenodd;stroke:none;stroke-width:1px;stroke-linecap:butt;stroke-linejoin:miter;stroke-opacity:1"/><g id="flowRoot4144" clip-path="url(#clipPath4337)" transform="matrix(0.26458334,0,0,0.26458334,-45.946934,278.43557)" style="font-style:normal;font-weight:400;font-size:10px;line-height:125%;font-family:sans-serif;letter-spacing:0;word-spacing:0;fill:#000;fill-opacity:1;stroke:none;stroke-width:1px;stroke-linecap:butt;stroke-linejoin:miter;stroke-opacity:1"><path id="path5362" d="m 186.15283,66.994991 0.68115,0 0,0.01465 q 0,0.263672 0.20142,0.439453 0.20142,0.172119 0.68115,0.172119 0.42115,0 0.68116,-0.205078 0.26367,-0.205078 0.26367,-0.483398 0,-0.377198 -0.5127,-0.534668 l -0.3479,-0.106202 -0.23071,-0.07324 -0.47241,-0.146484 q -0.80933,-0.296631 -0.80933,-0.985108 0,-0.483398 0.39185,-0.849609 0.39184,-0.366211 1.16455,-0.366211 0.76172,0 1.08398,0.314942 0.32227,0.311279 0.32227,0.692138 l 0,0.01465 -0.68482,0 0,-0.01465 q 0,-0.205078 -0.20874,-0.322265 -0.20508,-0.117188 -0.54931,-0.117188 -0.41016,0 -0.62989,0.172119 -0.21606,0.168457 -0.21606,0.417481 0,0.190429 0.13916,0.311279 0.14282,0.117187 0.47607,0.212402 l 0.32959,0.09155 0.23804,0.06958 q 0.49805,0.142822 0.6189,0.201416 0.12451,0.05859 0.24902,0.150147 0.17212,0.131836 0.25268,0.318603 0.0842,0.186768 0.0842,0.435791 0,0.578613 -0.41748,0.974121 -0.41382,0.395508 -1.21216,0.395508 -0.50537,0 -0.83862,-0.150146 -0.33325,-0.150147 -0.531,-0.413819 -0.19776,-0.267334 -0.19776,-0.615234 l 0,-0.01465 z" style="font-style:normal;font-variant:normal;font-weight:400;font-stretch:normal;font-size:7.5px;font-family:Geneva;-inkscape-font-specification:Geneva;fill:#fff;fill-opacity:1"/><path id="path5364" d="m 199.4646,68.188839 q -0.802,0 -1.36963,-0.541992 -0.56396,-0.545654 -0.56396,-1.618652 0,-1.069336 0.56396,-1.611329 0.56763,-0.545654 1.36963,-0.545654 0.79834,0 1.3623,0.545654 0.56763,0.541993 0.56763,1.611329 0,1.072998 -0.56763,1.618652 -0.56396,0.541992 -1.3623,0.541992 z m 0,-0.567627 q 0.54932,0 0.88257,-0.435791 0.33691,-0.439453 0.33691,-1.157226 0,-0.714112 -0.33691,-1.149903 -0.33325,-0.439453 -0.88257,-0.439453 -0.55298,0 -0.88989,0.439453 -0.33325,0.435791 -0.33325,1.149903 0,0.717773 0.33325,1.157226 0.33691,0.435791 0.88989,0.435791 z" style="font-style:normal;font-variant:normal;font-weight:400;font-stretch:normal;font-size:7.5px;font-family:Geneva;-inkscape-font-specification:Geneva;fill:#fff;fill-opacity:1"/><path id="path5366" d="m 212.39917,63.984738 0.68115,0 0,4.090576 -0.68115,0 0,-0.714112 q -0.2124,0.32959 -0.41748,0.494385 -0.20508,0.164795 -0.42114,0.249024 -0.21607,0.08423 -0.47242,0.08423 -0.56762,0 -0.96313,-0.318603 -0.39551,-0.322266 -0.39551,-1.292725 l 0,-2.592773 0.68115,0 0,2.307128 q 0,0.897217 0.23804,1.083985 0.23804,0.186767 0.5896,0.186767 0.30396,0 0.57129,-0.175781 0.271,-0.179443 0.42847,-0.498047 0.16113,-0.322265 0.16113,-0.893554 l 0,-2.010498 z" style="font-style:normal;font-variant:normal;font-weight:400;font-stretch:normal;font-size:7.5px;font-family:Geneva;-inkscape-font-specification:Geneva;fill:#fff;fill-opacity:1"/><path id="path5368" d="m 224.18018,67.4967 0,0.571289 q -0.49805,0.12085 -0.76172,0.12085 -0.38086,0 -0.68848,-0.153809 -0.30395,-0.153808 -0.46509,-0.446777 -0.15747,-0.292969 -0.15747,-0.933838 l 0,-2.102051 -0.71045,0 0,-0.567626 0.71045,0 0,-0.966797 0.68115,0 0,0.966797 1.19385,0 0,0.567626 -1.19385,0 0,1.907959 q 0,0.541993 0.0842,0.754395 0.0842,0.20874 0.26367,0.307617 0.18311,0.09888 0.4358,0.09888 0.20141,0 0.60791,-0.124512 z" style="font-style:normal;font-variant:normal;font-weight:400;font-stretch:normal;font-size:7.5px;font-family:Geneva;-inkscape-font-specification:Geneva;fill:#fff;fill-opacity:1"/><path id="path5370" d="m 233.19995,68.075314 -0.68115,0 0,-5.910645 0.68115,0 0,2.526856 q 0.21607,-0.333252 0.41748,-0.494385 0.20508,-0.161133 0.42481,-0.241699 0.22338,-0.08423 0.49438,-0.08423 0.38452,0 0.68848,0.157471 0.30761,0.157471 0.47607,0.465088 0.16846,0.303955 0.16846,0.977783 l 0,2.60376 -0.68115,0 0,-2.310791 q 0,-0.549317 -0.0733,-0.776368 -0.0732,-0.230712 -0.27832,-0.358886 -0.20507,-0.131836 -0.46875,-0.131836 -0.30029,0 -0.57129,0.175781 -0.27099,0.175781 -0.43579,0.490723 -0.16113,0.314941 -0.16113,0.900879 l 0,2.010498 z" style="font-style:normal;font-variant:normal;font-weight:400;font-stretch:normal;font-size:7.5px;font-family:Geneva;-inkscape-font-specification:Geneva;fill:#fff;fill-opacity:1"/><path id="path5372" d="m 245.03955,69.664669 -0.68115,0 0,-5.679931 0.68115,0 0,0.710449 q 0.2124,-0.362549 0.40283,-0.512696 0.19409,-0.150146 0.43579,-0.230712 0.2417,-0.08057 0.49805,-0.08057 0.46875,0 0.85693,0.256348 0.38819,0.252685 0.60059,0.758056 0.21606,0.505372 0.21606,1.135254 0,0.933838 -0.45043,1.552735 -0.44678,0.615234 -1.25611,0.615234 -0.26001,0 -0.49438,-0.0769 -0.23072,-0.07324 -0.41016,-0.219727 -0.17944,-0.150146 -0.39917,-0.531006 l 0,2.303467 z m 0,-3.632812 q 0,0.6958 0.30029,1.142578 0.3003,0.446777 0.84595,0.446777 0.49805,0 0.82764,-0.395508 0.32959,-0.395508 0.32959,-1.182861 0,-0.919189 -0.3479,-1.274414 -0.3479,-0.358887 -0.79468,-0.358887 -0.32227,0 -0.60425,0.197754 -0.27832,0.194092 -0.41748,0.582275 -0.13916,0.384522 -0.13916,0.842286 z" style="font-style:normal;font-variant:normal;font-weight:400;font-stretch:normal;font-size:7.5px;font-family:Geneva;-inkscape-font-specification:Geneva;fill:#fff;fill-opacity:1"/><path id="path5374" d="m 258.17554,68.188839 q -0.802,0 -1.36963,-0.541992 -0.56397,-0.545654 -0.56397,-1.618652 0,-1.069336 0.56397,-1.611329 0.56763,-0.545654 1.36963,-0.545654 0.79834,0 1.3623,0.545654 0.56763,0.541993 0.56763,1.611329 0,1.072998 -0.56763,1.618652 -0.56396,0.541992 -1.3623,0.541992 z m 0,-0.567627 q 0.54931,0 0.88257,-0.435791 0.33691,-0.439453 0.33691,-1.157226 0,-0.714112 -0.33691,-1.149903 -0.33326,-0.439453 -0.88257,-0.439453 -0.55298,0 -0.8899,0.439453 -0.33325,0.435791 -0.33325,1.149903 0,0.717773 0.33325,1.157226 0.33692,0.435791 0.8899,0.435791 z" style="font-style:normal;font-variant:normal;font-weight:400;font-stretch:normal;font-size:7.5px;font-family:Geneva;-inkscape-font-specification:Geneva;fill:#fff;fill-opacity:1"/><path id="path5376" d="m 269.17651,68.075314 -0.68115,0 0,-5.910645 0.68115,0 0,5.910645 z" style="font-style:normal;font-variant:normal;font-weight:400;font-stretch:normal;font-size:7.5px;font-family:Geneva;-inkscape-font-specification:Geneva;fill:#fff;fill-opacity:1"/><path id="path5378" d="m 280.45581,67.024288 0.68115,0 0,0.03662 q 0,0.270996 -0.21606,0.552979 -0.21607,0.281982 -0.57129,0.428467 -0.35523,0.146484 -0.81665,0.146484 -0.93384,0 -1.44287,-0.604248 -0.50537,-0.604248 -0.50537,-1.5271 0,-0.944824 0.53466,-1.56372 0.53833,-0.622559 1.38428,-0.622559 0.46509,0 0.84229,0.201416 0.37719,0.201416 0.59692,0.629883 0.21973,0.424805 0.21973,1.186523 l 0,0.227051 -2.90406,0 q 0,0.655518 0.35157,1.080322 0.35522,0.424805 0.98144,0.424805 0.45044,0 0.65552,-0.172119 0.20874,-0.175781 0.20874,-0.388184 l 0,-0.03662 z m -2.15332,-1.420898 2.20825,0 0,-0.08057 q 0,-0.285644 -0.13916,-0.552978 -0.1355,-0.270996 -0.3772,-0.39917 -0.24169,-0.131836 -0.56396,-0.131836 -0.38086,0 -0.70313,0.307617 -0.32226,0.303955 -0.4248,0.856934 z" style="font-style:normal;font-variant:normal;font-weight:400;font-stretch:normal;font-size:7.5px;font-family:Geneva;-inkscape-font-specification:Geneva;fill:#fff;fill-opacity:1"/></g><g style="font-style:normal;font-variant:normal;font-weight:400;font-stretch:normal;font-size:1.984375px;font-family:sans-serif;-inkscape-font-specification:sans-serif;fill:#fff;fill-opacity:1;stroke:none;stroke-width:3.54330707;stroke-miterlimit:4;stroke-dasharray:none;stroke-opacity:1" id="text5680" transform="translate(0.10599254,12.133895)"><path id="path5787" d="m 1.0894175,211.62551 1.2237625,0 0,0.16472 -0.5135346,0 0,1.2819 -0.1966934,0 0,-1.2819 -0.5135345,0 0,-0.16472 z"/><path id="path5789" d="m 3.1929712,212.39388 q 0.062981,0.0213 0.1220856,0.0911 0.060074,0.0698 0.1201477,0.19185 l 0.1986313,0.39533 -0.2102585,0 -0.1850662,-0.3711 q -0.071701,-0.14534 -0.1395264,-0.19282 -0.066856,-0.0475 -0.1831283,-0.0475 l -0.2131653,0 0,0.6114 -0.1957245,0 0,-1.44662 0.4418335,0 q 0.2480469,0 0.3701324,0.10368 0.1220856,0.10367 0.1220856,0.31296 0,0.13662 -0.06395,0.22673 -0.062981,0.0901 -0.1840973,0.125 z m -0.4902801,-0.60753 0,0.51354 0.246109,0 q 0.1414642,0 0.2131653,-0.0649 0.07267,-0.0659 0.07267,-0.19282 0,-0.12693 -0.07267,-0.19088 -0.071701,-0.0649 -0.2131653,-0.0649 l -0.246109,0 z"/><path id="path5791" d="m 3.8867273,211.62551 0.1957245,0 0,1.44662 -0.1957245,0 0,-1.44662 z"/><path id="path5793" d="m 5.4583368,212.86575 0,-0.38855 -0.3197479,0 0,-0.16084 0.5135346,0 0,0.62109 q -0.1133652,0.0804 -0.2499848,0.12208 -0.1366196,0.0407 -0.2916489,0.0407 -0.3391265,0 -0.5309753,-0.19766 -0.1908798,-0.19864 -0.1908798,-0.5523 0,-0.35463 0.1908798,-0.55229 0.1918488,-0.19863 0.5309753,-0.19863 0.1414643,0 0.2683945,0.0349 0.1278992,0.0349 0.2354508,0.10271 l 0,0.20832 q -0.1085205,-0.0921 -0.2306061,-0.13856 -0.1220856,-0.0465 -0.2567673,-0.0465 -0.2654877,0 -0.3992004,0.14825 -0.1327439,0.14825 -0.1327439,0.44183 0,0.29262 0.1327439,0.44087 0.1337127,0.14824 0.3992004,0.14824 0.1036759,0 0.1850662,-0.0174 0.08139,-0.0184 0.1463089,-0.0562 z"/></g><g style="font-style:normal;font-variant:normal;font-weight:400;font-stretch:normal;font-size:1.984375px;font-family:sans-serif;-inkscape-font-specification:sans-serif;fill:#fff;fill-opacity:1;stroke:none;stroke-width:3.54330707;stroke-miterlimit:4;stroke-dasharray:none;stroke-opacity:1" id="text5684" transform="translate(0.9492518,12.133895)"><path id="path5796" d="m 8.0144815,211.6536 1.2237626,0 0,0.16472 -0.5135346,0 0,1.2819 -0.1966934,0 0,-1.2819 -0.5135346,0 0,-0.16472 z"/><path id="path5798" d="m 9.6277552,211.81445 0,1.12493 0.2364196,0 q 0.2994002,0 0.4379582,-0.13565 0.139526,-0.13565 0.139526,-0.42827 0,-0.29068 -0.139526,-0.42536 -0.138558,-0.13565 -0.4379582,-0.13565 l -0.2364196,0 z m -0.1957245,-0.16085 0.4021072,0 q 0.4205171,0 0.6172101,0.17538 0.196694,0.17441 0.196694,0.54648 0,0.37401 -0.197663,0.54938 -0.197662,0.17538 -0.6162411,0.17538 l -0.4021072,0 0,-1.44662 z"/><path id="path5800" d="m 10.959069,211.6536 0.195725,0 0,1.2819 0.704414,0 0,0.16472 -0.900139,0 0,-1.44662 z"/><path id="path5802" d="m 11.601472,211.6536 0.210258,0 0.401139,0.59493 0.398231,-0.59493 0.210259,0 -0.511597,0.75771 0,0.68891 -0.196693,0 0,-0.68891 -0.511597,-0.75771 z"/></g><g style="font-style:normal;font-variant:normal;font-weight:400;font-stretch:normal;font-size:1.984375px;font-family:sans-serif;-inkscape-font-specification:sans-serif;fill:#000;fill-opacity:1;stroke:none;stroke-width:3.54330707;stroke-miterlimit:4;stroke-dasharray:none;stroke-opacity:1" id="text5692" transform="translate(-0.43456481,0.78155385)"><path id="path5816" d="m 2.2120283,232.47407 0,1.98437 -0.1647187,0 0,-1.98437 0.1647187,0 z" style="fill:#000;fill-opacity:1"/><path id="path5818" d="m 2.6306074,232.54383 0.5038452,1.63072 -0.1647186,0 -0.5038453,-1.63072 0.1647187,0 z" style="fill:#000;fill-opacity:1"/><path id="path5820" d="m 3.8146436,232.73665 -0.2654876,0.71992 0.5319442,0 -0.2664566,-0.71992 z m -0.1104584,-0.19282 0.2218857,0 0.551323,1.44662 -0.203476,0 -0.1317749,-0.3711 -0.652092,0 -0.1317749,0.3711 -0.2063827,0 0.5522918,-1.44662 z" style="fill:#000;fill-opacity:1"/><path id="path5822" d="m 4.3320539,232.54383 1.2237625,0 0,0.16472 -0.5135345,0 0,1.2819 -0.1966935,0 0,-1.2819 -0.5135345,0 0,-0.16472 z" style="fill:#000;fill-opacity:1"/><path id="path5824" d="m 5.5160902,232.54383 1.2237625,0 0,0.16472 -0.5135346,0 0,1.2819 -0.1966934,0 0,-1.2819 -0.5135345,0 0,-0.16472 z" style="fill:#000;fill-opacity:1"/></g><g style="font-style:normal;font-variant:normal;font-weight:400;font-stretch:normal;font-size:1.984375px;font-family:sans-serif;-inkscape-font-specification:sans-serif;fill:#000;fill-opacity:1;stroke:none;stroke-width:3.54330707;stroke-miterlimit:4;stroke-dasharray:none;stroke-opacity:1" id="text5696" transform="translate(0.42837902,0.78155385)"><path id="path5827" d="m 9.0515976,232.47407 0,1.98437 -0.1647186,0 0,-1.98437 0.1647186,0 z" style="fill:#000;fill-opacity:1"/><path id="path5829" d="m 9.4701767,232.54383 0.5038452,1.63072 -0.1647186,0 -0.5038452,-1.63072 0.1647186,0 z" style="fill:#000;fill-opacity:1"/><path id="path5831" d="m 10.36644,232.70467 0,1.12494 0.236419,0 q 0.299401,0 0.437958,-0.13566 0.139527,-0.13565 0.139527,-0.42826 0,-0.29068 -0.139527,-0.42537 -0.138557,-0.13565 -0.437958,-0.13565 l -0.236419,0 z m -0.195725,-0.16084 0.402108,0 q 0.420517,0 0.61721,0.17538 0.196693,0.17441 0.196693,0.54648 0,0.374 -0.197662,0.54938 -0.197662,0.17538 -0.616241,0.17538 l -0.402108,0 0,-1.44662 z" style="fill:#000;fill-opacity:1"/><path id="path5833" d="m 11.697754,232.54383 0.914673,0 0,0.16472 -0.718949,0 0,0.42827 0.688912,0 0,0.16472 -0.688912,0 0,0.52419 0.73639,0 0,0.16472 -0.932114,0 0,-1.44662 z" style="fill:#000;fill-opacity:1"/><path id="path5835" d="m 14.032883,232.65526 0,0.20638 q -0.09883,-0.0921 -0.211228,-0.13759 -0.111427,-0.0455 -0.237388,-0.0455 -0.248047,0 -0.379822,0.15213 -0.131775,0.15115 -0.131775,0.43795 0,0.28584 0.131775,0.43796 0.131775,0.15115 0.379822,0.15115 0.125961,0 0.237388,-0.0455 0.112397,-0.0455 0.211228,-0.13758 l 0,0.20444 q -0.102707,0.0698 -0.21801,0.10465 -0.114334,0.0349 -0.242234,0.0349 -0.328468,0 -0.51741,-0.20057 -0.188942,-0.20154 -0.188942,-0.54939 0,-0.34881 0.188942,-0.54938 0.188942,-0.20154 0.51741,-0.20154 0.129838,0 0.244172,0.0349 0.115303,0.0339 0.216072,0.10271 z" style="fill:#000;fill-opacity:1"/></g><g style="font-style:normal;font-variant:normal;font-weight:400;font-stretch:normal;font-size:1.984375px;font-family:sans-serif;-inkscape-font-specification:sans-serif;fill:#fff;fill-opacity:1;stroke:none;stroke-width:3.54330707;stroke-miterlimit:4;stroke-dasharray:none;stroke-opacity:1" id="text5700" transform="translate(8.7019053,19.275232)"><path id="path5838" d="m 16.940411,223.61415 q -0.213166,0 -0.339127,0.15891 -0.124992,0.1589 -0.124992,0.43311 0,0.27324 0.124992,0.43214 0.125961,0.15891 0.339127,0.15891 0.213165,0 0.337188,-0.15891 0.124993,-0.1589 0.124993,-0.43214 0,-0.27421 -0.124993,-0.43311 -0.124023,-0.15891 -0.337188,-0.15891 z m 0,-0.1589 q 0.304245,0 0.486404,0.20444 0.182159,0.20348 0.182159,0.54648 0,0.34203 -0.182159,0.54648 -0.182159,0.20347 -0.486404,0.20347 -0.305214,0 -0.488343,-0.20347 -0.182159,-0.20348 -0.182159,-0.54648 0,-0.343 0.182159,-0.54648 0.183129,-0.20444 0.488343,-0.20444 z"/><path id="path5840" d="m 18.998425,223.59283 0,0.20639 q -0.09883,-0.0921 -0.211228,-0.13759 -0.111427,-0.0455 -0.237388,-0.0455 -0.248047,0 -0.379822,0.15212 -0.131775,0.15115 -0.131775,0.43796 0,0.28583 0.131775,0.43796 0.131775,0.15115 0.379822,0.15115 0.125961,0 0.237388,-0.0455 0.112396,-0.0455 0.211228,-0.13759 l 0,0.20445 q -0.102707,0.0698 -0.21801,0.10464 -0.114335,0.0349 -0.242234,0.0349 -0.328468,0 -0.51741,-0.20057 -0.188942,-0.20153 -0.188942,-0.54938 0,-0.34882 0.188942,-0.54939 0.188942,-0.20153 0.51741,-0.20153 0.129837,0 0.244171,0.0349 0.115303,0.0339 0.216073,0.1027 z"/><path id="path5842" d="m 19.1021,223.48141 1.223763,0 0,0.16472 -0.513535,0 0,1.28189 -0.196693,0 0,-1.28189 -0.513535,0 0,-0.16472 z"/><path id="path5844" d="m 20.892689,224.92802 -0.552292,-1.44661 0.204445,0 0.458305,1.21795 0.459274,-1.21795 0.203476,0 -0.551323,1.44661 -0.221885,0 z"/></g><g style="font-style:normal;font-variant:normal;font-weight:400;font-stretch:normal;font-size:1.984375px;font-family:sans-serif;-inkscape-font-specification:sans-serif;fill:#fff;fill-opacity:1;stroke:none;stroke-width:3.54330707;stroke-miterlimit:4;stroke-dasharray:none;stroke-opacity:1" id="text5704" transform="translate(-0.44449066,18.948342)"><path id="path5847" d="m 2.1921926,225.09901 -0.5522919,-1.44661 0.2044449,0 0.4583053,1.21795 0.4592743,-1.21795 0.203476,0 -0.551323,1.44661 -0.2218856,0 z"/><path id="path5849" d="m 3.4847493,223.6524 0.1647186,0 -0.5038452,1.63071 -0.1647186,0 0.5038452,-1.63071 z"/><path id="path5851" d="m 4.4333348,223.78514 q -0.2131653,0 -0.3391266,0.15891 -0.1249923,0.1589 -0.1249923,0.43311 0,0.27324 0.1249923,0.43214 0.1259613,0.15891 0.3391266,0.15891 0.2131653,0 0.3371887,-0.15891 0.1249924,-0.1589 0.1249924,-0.43214 0,-0.27421 -0.1249924,-0.43311 -0.1240234,-0.15891 -0.3371887,-0.15891 z m 0,-0.1589 q 0.304245,0 0.4864044,0.20444 0.1821595,0.20348 0.1821595,0.54648 0,0.34203 -0.1821595,0.54648 -0.1821594,0.20347 -0.4864044,0.20347 -0.3052139,0 -0.4883423,-0.20347 -0.1821594,-0.20348 -0.1821594,-0.54648 0,-0.343 0.1821594,-0.54648 0.1831284,-0.20444 0.4883423,-0.20444 z"/><path id="path5853" d="m 6.4913487,223.76382 0,0.20639 q -0.098831,-0.0921 -0.2112274,-0.13759 -0.1114273,-0.0455 -0.2373886,-0.0455 -0.2480469,0 -0.3798218,0.15212 -0.1317749,0.15115 -0.1317749,0.43796 0,0.28583 0.1317749,0.43796 0.1317749,0.15115 0.3798218,0.15115 0.1259613,0 0.2373886,-0.0455 0.1123963,-0.0455 0.2112274,-0.13759 l 0,0.20445 q -0.1027069,0.0698 -0.2180099,0.10464 -0.1143341,0.0349 -0.2422333,0.0349 -0.3284683,0 -0.5174103,-0.20057 -0.1889419,-0.20153 -0.1889419,-0.54938 0,-0.34882 0.1889419,-0.54939 0.188942,-0.20153 0.5174103,-0.20153 0.1298371,0 0.2441712,0.0349 0.115303,0.0339 0.216072,0.1027 z"/><path id="path5855" d="m 6.5950246,223.6524 1.2237625,0 0,0.16472 -0.5135345,0 0,1.28189 -0.1966935,0 0,-1.28189 -0.5135345,0 0,-0.16472 z"/></g><g style="font-style:normal;font-variant:normal;font-weight:400;font-stretch:normal;font-size:1.984375px;font-family:sans-serif;-inkscape-font-specification:sans-serif;fill:#fff;fill-opacity:1;stroke:none;stroke-width:3.54330707;stroke-miterlimit:4;stroke-dasharray:none;stroke-opacity:1" id="text5708" transform="translate(-23.979973,19.340817)"><path id="path5858" d="m 25.861387,233.75209 q 0.06298,0.0213 0.122086,0.0911 0.06007,0.0698 0.120148,0.19185 l 0.198631,0.39532 -0.210259,0 -0.185066,-0.3711 q -0.0717,-0.14534 -0.139526,-0.19282 -0.06686,-0.0475 -0.183129,-0.0475 l -0.213165,0 0,0.61139 -0.195724,0 0,-1.44661 0.441833,0 q 0.248047,0 0.370133,0.10367 0.122085,0.10368 0.122085,0.31297 0,0.13662 -0.06395,0.22673 -0.06298,0.0901 -0.184098,0.12499 z m -0.49028,-0.60752 0,0.51353 0.246109,0 q 0.141464,0 0.213165,-0.0649 0.07267,-0.0659 0.07267,-0.19282 0,-0.12693 -0.07267,-0.19088 -0.0717,-0.0649 -0.213165,-0.0649 l -0.246109,0 z"/><path id="path5860" d="m 27.142317,233.11647 q -0.213165,0 -0.339127,0.15891 -0.124992,0.1589 -0.124992,0.43311 0,0.27324 0.124992,0.43214 0.125962,0.15891 0.339127,0.15891 0.213165,0 0.337189,-0.15891 0.124992,-0.1589 0.124992,-0.43214 0,-0.27421 -0.124992,-0.43311 -0.124024,-0.15891 -0.337189,-0.15891 z m 0,-0.1589 q 0.304245,0 0.486404,0.20444 0.18216,0.20348 0.18216,0.54648 0,0.34203 -0.18216,0.54648 -0.182159,0.20347 -0.486404,0.20347 -0.305214,0 -0.488342,-0.20347 -0.18216,-0.20348 -0.18216,-0.54648 0,-0.343 0.18216,-0.54648 0.183128,-0.20444 0.488342,-0.20444 z"/><path id="path5862" d="m 28.704237,233.11647 q -0.213165,0 -0.339127,0.15891 -0.124992,0.1589 -0.124992,0.43311 0,0.27324 0.124992,0.43214 0.125962,0.15891 0.339127,0.15891 0.213165,0 0.337189,-0.15891 0.124992,-0.1589 0.124992,-0.43214 0,-0.27421 -0.124992,-0.43311 -0.124024,-0.15891 -0.337189,-0.15891 z m 0,-0.1589 q 0.304245,0 0.486404,0.20444 0.18216,0.20348 0.18216,0.54648 0,0.34203 -0.18216,0.54648 -0.182159,0.20347 -0.486404,0.20347 -0.305214,0 -0.488342,-0.20347 -0.18216,-0.20348 -0.18216,-0.54648 0,-0.343 0.18216,-0.54648 0.183128,-0.20444 0.488342,-0.20444 z"/><path id="path5864" d="m 29.478415,232.98373 1.223762,0 0,0.16472 -0.513534,0 0,1.28189 -0.196694,0 0,-1.28189 -0.513534,0 0,-0.16472 z"/></g><g style="font-style:normal;font-variant:normal;font-weight:400;font-stretch:normal;font-size:1.984375px;font-family:sans-serif;-inkscape-font-specification:sans-serif;fill:#000;fill-opacity:1;stroke:none;stroke-width:3.54330707;stroke-miterlimit:4;stroke-dasharray:none;stroke-opacity:1" id="text5712" transform="translate(-0.10471422,7.6026397)"><path id="path5867" d="m 2.4423509,280.74912 0,0.53001 0.3139343,0 q 0.1579361,0 0.2335129,-0.0649 0.076546,-0.0659 0.076546,-0.20057 0,-0.13565 -0.076546,-0.1996 -0.075577,-0.0649 -0.2335129,-0.0649 l -0.3139343,0 z m 0,-0.59492 0,0.43602 0.289711,0 q 0.1434021,0 0.2131652,-0.0533 0.070732,-0.0543 0.070732,-0.16472 0,-0.10949 -0.070732,-0.16375 -0.069763,-0.0543 -0.2131652,-0.0543 l -0.289711,0 z m -0.1957245,-0.16085 0.4999695,0 q 0.2238235,0 0.3449401,0.093 0.1211167,0.093 0.1211167,0.26452 0,0.13274 -0.062012,0.21123 -0.062012,0.0785 -0.1821595,0.0979 0.1443711,0.031 0.2238236,0.12984 0.080421,0.0979 0.080421,0.24514 0,0.19378 -0.1317749,0.2994 -0.1317749,0.10561 -0.3749771,0.10561 l -0.5193481,0 0,-1.44662 z" style="fill:#000;fill-opacity:1"/><path id="path5869" d="m 3.6070085,279.99335 0.1957244,0 0,1.44662 -0.1957244,0 0,-1.44662 z" style="fill:#000;fill-opacity:1"/><path id="path5871" d="m 3.9916749,279.99335 1.2237625,0 0,0.16472 -0.5135345,0 0,1.2819 -0.1966935,0 0,-1.2819 -0.5135345,0 0,-0.16472 z" style="fill:#000;fill-opacity:1"/><path id="path5873" d="m 6.2764192,280.04083 0,0.19088 q -0.1114273,-0.0533 -0.2102585,-0.0795 -0.098831,-0.0262 -0.1908798,-0.0262 -0.159874,0 -0.247078,0.062 -0.086235,0.062 -0.086235,0.17635 0,0.0959 0.057167,0.14534 0.058136,0.0484 0.2189789,0.0785 l 0.1182098,0.0242 q 0.2189789,0.0417 0.3226548,0.14728 0.1046447,0.10465 0.1046447,0.28099 0,0.21026 -0.1414642,0.31878 -0.1404953,0.10852 -0.4127655,0.10852 -0.1027069,0 -0.2189789,-0.0233 -0.115303,-0.0233 -0.2393265,-0.0688 l 0,-0.20154 q 0.1191788,0.0669 0.2335129,0.10077 0.1143341,0.0339 0.2247925,0.0339 0.1676254,0 0.2587051,-0.0659 0.09108,-0.0659 0.09108,-0.18797 0,-0.10659 -0.065887,-0.16666 -0.064919,-0.0601 -0.2141342,-0.0901 l -0.1191788,-0.0233 q -0.2189789,-0.0436 -0.3168411,-0.13662 -0.097862,-0.093 -0.097862,-0.2587 0,-0.19185 0.1346818,-0.30231 0.1356506,-0.11046 0.3730392,-0.11046 0.101738,0 0.2073517,0.0184 0.1056137,0.0184 0.2160721,0.0552 z" style="fill:#000;fill-opacity:1"/></g><g style="font-style:normal;font-variant:normal;font-weight:400;font-stretch:normal;font-size:1.984375px;font-family:sans-serif;-inkscape-font-specification:sans-serif;fill:#fff;fill-opacity:1;stroke:none;stroke-width:3.54330707;stroke-miterlimit:4;stroke-dasharray:none;stroke-opacity:1" id="text5716" transform="translate(0.57962441,8.5266797)"><path id="path5876" d="m 25.335083,279.20184 q -0.213165,0 -0.339127,0.15891 -0.124992,0.1589 -0.124992,0.43311 0,0.27324 0.124992,0.43215 0.125962,0.1589 0.339127,0.1589 0.213165,0 0.337189,-0.1589 0.124992,-0.15891 0.124992,-0.43215 0,-0.27421 -0.124992,-0.43311 -0.124024,-0.15891 -0.337189,-0.15891 z m 0,-0.1589 q 0.304245,0 0.486404,0.20444 0.18216,0.20348 0.18216,0.54648 0,0.34203 -0.18216,0.54648 -0.182159,0.20348 -0.486404,0.20348 -0.305214,0 -0.488342,-0.20348 -0.18216,-0.20348 -0.18216,-0.54648 0,-0.343 0.18216,-0.54648 0.183128,-0.20444 0.488342,-0.20444 z"/><path id="path5878" d="m 26.287544,279.0691 0.196694,0 0,0.87882 q 0,0.23255 0.0843,0.33525 0.0843,0.10174 0.273239,0.10174 0.187973,0 0.27227,-0.10174 0.0843,-0.1027 0.0843,-0.33525 l 0,-0.87882 0.196694,0 0,0.90305 q 0,0.28292 -0.140496,0.42729 -0.139526,0.14438 -0.412765,0.14438 -0.274208,0 -0.414703,-0.14438 -0.139527,-0.14437 -0.139527,-0.42729 l 0,-0.90305 z"/><path id="path5880" d="m 27.56266,279.0691 1.223763,0 0,0.16472 -0.513535,0 0,1.2819 -0.196693,0 0,-1.2819 -0.513535,0 0,-0.16472 z"/></g><g style="font-style:normal;font-variant:normal;font-weight:400;font-stretch:normal;font-size:1.984375px;font-family:sans-serif;-inkscape-font-specification:sans-serif;fill:#000;fill-opacity:1;stroke:none;stroke-width:3.54330707;stroke-miterlimit:4;stroke-dasharray:none;stroke-opacity:1" id="text5720" transform="translate(0.46934792,7.5600597)"><path id="path5883" d="m 9.5319147,280.77792 q 0.062981,0.0213 0.1220856,0.0911 0.060074,0.0698 0.1201477,0.19185 l 0.1986313,0.39533 -0.2102585,0 -0.1850662,-0.3711 q -0.071701,-0.14534 -0.1395264,-0.19282 -0.066856,-0.0475 -0.1831284,-0.0475 l -0.2131652,0 0,0.6114 -0.1957245,0 0,-1.44662 0.4418335,0 q 0.2480468,0 0.3701324,0.10368 0.1220856,0.10367 0.1220856,0.31296 0,0.13662 -0.06395,0.22673 -0.062981,0.0901 -0.1840973,0.12499 z m -0.4902801,-0.60752 0,0.51354 0.246109,0 q 0.1414642,0 0.2131653,-0.0649 0.07267,-0.0659 0.07267,-0.19282 0,-0.12693 -0.07267,-0.19088 -0.071701,-0.0649 -0.2131653,-0.0649 l -0.246109,0 z" style="fill:#000;fill-opacity:1"/><path id="path5885" d="m 10.629716,280.20238 -0.265488,0.71991 0.531945,0 -0.266457,-0.71991 z m -0.110458,-0.19282 0.221885,0 0.551323,1.44662 -0.203476,0 -0.131775,-0.3711 -0.652092,0 -0.131775,0.3711 -0.2063823,0 0.5522923,-1.44662 z" style="fill:#000;fill-opacity:1"/><path id="path5887" d="m 11.149064,280.00956 1.223763,0 0,0.16472 -0.513535,0 0,1.2819 -0.196693,0 0,-1.2819 -0.513535,0 0,-0.16472 z" style="fill:#000;fill-opacity:1"/><path id="path5889" d="m 12.566613,280.00956 0.914673,0 0,0.16472 -0.718948,0 0,0.42827 0.688911,0 0,0.16472 -0.688911,0 0,0.52419 0.736389,0 0,0.16472 -0.932114,0 0,-1.44662 z" style="fill:#000;fill-opacity:1"/></g><g style="font-style:normal;font-variant:normal;font-weight:400;font-stretch:normal;font-size:1.984375px;font-family:sans-serif;-inkscape-font-specification:sans-serif;fill:#fff;fill-opacity:1;stroke:none;stroke-width:3.54330707;stroke-miterlimit:4;stroke-dasharray:none;stroke-opacity:1" id="text5724" transform="translate(0.52916669,0.52916669)"><path id="path5892" d="m 1.9561555,201.54987 q 0.066856,-0.12014 0.159874,-0.17731 0.093018,-0.0572 0.2189789,-0.0572 0.1695633,0 0.2616119,0.11918 0.092049,0.11821 0.092049,0.33719 l 0,0.655 -0.1792527,0 0,-0.64919 q 0,-0.156 -0.055229,-0.23157 -0.055229,-0.0756 -0.1685944,-0.0756 -0.1385574,0 -0.2189789,0.0921 -0.080421,0.0921 -0.080421,0.25095 l 0,0.61334 -0.1792527,0 0,-0.64919 q 0,-0.15696 -0.055229,-0.23157 -0.055229,-0.0756 -0.1705323,-0.0756 -0.1366195,0 -0.217041,0.093 -0.080421,0.092 -0.080421,0.24998 l 0,0.61334 -0.1792527,0 0,-1.08521 0.1792527,0 0,0.1686 q 0.061043,-0.0998 0.1463089,-0.14728 0.085266,-0.0475 0.202507,-0.0475 0.1182098,0 0.2005691,0.0601 0.083328,0.0601 0.1230545,0.1744 z"/><path id="path5894" d="m 3.5345476,201.88125 q -0.2160721,0 -0.2994004,0.0494 -0.083328,0.0494 -0.083328,0.1686 0,0.095 0.062012,0.15115 0.062981,0.0552 0.1705322,0.0552 0.1482468,0 0.2373886,-0.10464 0.090111,-0.10562 0.090111,-0.28003 l 0,-0.0397 -0.1773147,0 z m 0.3555984,-0.0736 0,0.61915 -0.1782837,0 0,-0.16472 q -0.061043,0.0988 -0.1521225,0.14631 -0.09108,0.0465 -0.2228546,0.0465 -0.1666565,0 -0.2654877,-0.093 -0.097862,-0.094 -0.097862,-0.25095 0,-0.18313 0.1220856,-0.27615 0.1230545,-0.093 0.3662567,-0.093 l 0.2499847,0 0,-0.0174 q 0,-0.12305 -0.08139,-0.18991 -0.080421,-0.0678 -0.2267303,-0.0678 -0.093018,0 -0.1811905,0.0223 -0.088173,0.0223 -0.1695633,0.0669 l 0,-0.16472 q 0.097862,-0.0378 0.1899109,-0.0562 0.092049,-0.0194 0.1792526,-0.0194 0.2354508,0 0.3517227,0.12209 0.116272,0.12208 0.116272,0.37013 z"/><path id="path5896" d="m 5.0431764,201.38322 0,0.16665 q -0.075577,-0.0417 -0.1521225,-0.062 -0.075577,-0.0213 -0.1530914,-0.0213 -0.173439,0 -0.2693634,0.11045 -0.095924,0.10949 -0.095924,0.30812 0,0.19864 0.095924,0.30909 0.095924,0.10949 0.2693634,0.10949 0.077515,0 0.1530914,-0.0203 0.076546,-0.0213 0.1521225,-0.063 l 0,0.16471 q -0.074608,0.0349 -0.1550293,0.0523 -0.079453,0.0174 -0.1695633,0.0174 -0.2451401,0 -0.3895111,-0.15406 -0.144371,-0.15406 -0.144371,-0.41568 0,-0.26548 0.1453399,-0.41761 0.1463089,-0.15212 0.4001694,-0.15212 0.082359,0 0.1608429,0.0174 0.078484,0.0165 0.1521225,0.0504 z"/><path id="path5898" d="m 5.9801347,201.50821 q -0.030037,-0.0174 -0.065887,-0.0252 -0.034882,-0.009 -0.077515,-0.009 -0.1511535,0 -0.2325439,0.0988 -0.080421,0.0979 -0.080421,0.28196 l 0,0.57167 -0.1792526,0 0,-1.08521 0.1792526,0 0,0.1686 q 0.056198,-0.0988 0.1463089,-0.14631 0.090111,-0.0485 0.2189789,-0.0485 0.01841,0 0.040695,0.003 0.022285,0.002 0.049416,0.007 l 9.689e-4,0.18313 z"/><path id="path5900" d="m 6.5488985,201.46655 q -0.1434021,0 -0.2267304,0.11239 -0.083328,0.11143 -0.083328,0.30618 0,0.19476 0.082359,0.30716 0.083328,0.11142 0.2276993,0.11142 0.1424331,0 0.2257614,-0.11239 0.083328,-0.1124 0.083328,-0.30619 0,-0.19281 -0.083328,-0.30521 -0.083328,-0.11336 -0.2257614,-0.11336 z m 0,-0.15116 q 0.2325439,0 0.3652877,0.15116 0.1327439,0.15115 0.1327439,0.41857 0,0.26646 -0.1327439,0.41858 -0.1327438,0.15116 -0.3652877,0.15116 -0.2335129,0 -0.3662568,-0.15116 -0.1317749,-0.15212 -0.1317749,-0.41858 0,-0.26742 0.1317749,-0.41857 0.1327439,-0.15116 0.3662568,-0.15116 z"/><path id="path5902" d="m 8.395685,201.46655 q -0.1434021,0 -0.2267304,0.11239 -0.083328,0.11143 -0.083328,0.30618 0,0.19476 0.082359,0.30716 0.083328,0.11142 0.2276993,0.11142 0.1424331,0 0.2257614,-0.11239 0.083328,-0.1124 0.083328,-0.30619 0,-0.19281 -0.083328,-0.30521 -0.083328,-0.11336 -0.2257614,-0.11336 z m 0,-0.15116 q 0.2325439,0 0.3652877,0.15116 0.1327439,0.15115 0.1327439,0.41857 0,0.26646 -0.1327439,0.41858 -0.1327438,0.15116 -0.3652877,0.15116 -0.2335129,0 -0.3662568,-0.15116 -0.1317749,-0.15212 -0.1317749,-0.41858 0,-0.26742 0.1317749,-0.41857 0.1327439,-0.15116 0.3662568,-0.15116 z"/><path id="path5904" d="m 9.8800905,201.37353 0,0.16859 q -0.075577,-0.0388 -0.1569672,-0.0581 -0.08139,-0.0194 -0.1685943,-0.0194 -0.1327439,0 -0.1996003,0.0407 -0.065887,0.0407 -0.065887,0.12209 0,0.062 0.047478,0.0979 0.047478,0.0349 0.1908798,0.0669 l 0.061043,0.0136 q 0.1899109,0.0407 0.2693634,0.1153 0.080421,0.0736 0.080421,0.20639 0,0.15115 -0.1201477,0.23932 -0.1191788,0.0882 -0.3284684,0.0882 -0.087204,0 -0.1821594,-0.0174 -0.093986,-0.0165 -0.1986313,-0.0504 l 0,-0.1841 q 0.098831,0.0514 0.1947556,0.0775 0.095924,0.0252 0.1899109,0.0252 0.1259613,0 0.1937866,-0.0426 0.067825,-0.0436 0.067825,-0.12209 0,-0.0727 -0.049416,-0.11142 -0.048447,-0.0388 -0.2141342,-0.0746 l -0.062012,-0.0145 q -0.1656876,-0.0349 -0.2393265,-0.10658 -0.073639,-0.0727 -0.073639,-0.19863 0,-0.15309 0.1085205,-0.23642 0.1085205,-0.0833 0.3081207,-0.0833 0.098831,0 0.1860352,0.0145 0.087204,0.0145 0.1608429,0.0436 z"/><path id="path5906" d="m 11.004053,201.38322 0,0.16665 q -0.07558,-0.0417 -0.152123,-0.062 -0.07558,-0.0213 -0.153091,-0.0213 -0.173439,0 -0.269363,0.11045 -0.09592,0.10949 -0.09592,0.30812 0,0.19864 0.09592,0.30909 0.09592,0.10949 0.269363,0.10949 0.07752,0 0.153091,-0.0203 0.07655,-0.0213 0.152123,-0.063 l 0,0.16471 q -0.07461,0.0349 -0.155029,0.0523 -0.07945,0.0174 -0.169564,0.0174 -0.24514,0 -0.389511,-0.15406 -0.144371,-0.15406 -0.144371,-0.41568 0,-0.26548 0.14534,-0.41761 0.146309,-0.15212 0.400169,-0.15212 0.08236,0 0.160843,0.0174 0.07848,0.0165 0.152123,0.0504 z"/><path id="path5908" d="m 11.312174,201.34155 0.178283,0 0,1.08521 -0.178283,0 0,-1.08521 z m 0,-0.42245 0.178283,0 0,0.22576 -0.178283,0 0,-0.22576 z"/><path id="path5910" d="m 11.862528,200.9191 0.178283,0 0,1.50766 -0.178283,0 0,-1.50766 z"/><path id="path5912" d="m 12.412882,200.9191 0.178283,0 0,1.50766 -0.178283,0 0,-1.50766 z"/><path id="path5914" d="m 13.456423,201.88125 q -0.216073,0 -0.299401,0.0494 -0.08333,0.0494 -0.08333,0.1686 0,0.095 0.06201,0.15115 0.06298,0.0552 0.170532,0.0552 0.148247,0 0.237389,-0.10464 0.09011,-0.10562 0.09011,-0.28003 l 0,-0.0397 -0.177314,0 z m 0.355598,-0.0736 0,0.61915 -0.178284,0 0,-0.16472 q -0.06104,0.0988 -0.152122,0.14631 -0.09108,0.0465 -0.222855,0.0465 -0.166656,0 -0.265487,-0.093 -0.09786,-0.094 -0.09786,-0.25095 0,-0.18313 0.122086,-0.27615 0.123054,-0.093 0.366257,-0.093 l 0.249984,0 0,-0.0174 q 0,-0.12305 -0.08139,-0.18991 -0.08042,-0.0678 -0.22673,-0.0678 -0.09302,0 -0.181191,0.0223 -0.08817,0.0223 -0.169563,0.0669 l 0,-0.16472 q 0.09786,-0.0378 0.189911,-0.0562 0.09205,-0.0194 0.179252,-0.0194 0.235451,0 0.351723,0.12209 0.116272,0.12208 0.116272,0.37013 z"/><path id="path5916" d="m 14.360437,201.03343 0,0.30812 0.367226,0 0,0.13856 -0.367226,0 0,0.58911 q 0,0.13275 0.03585,0.17053 0.03682,0.0378 0.148246,0.0378 l 0.183129,0 0,0.14922 -0.183129,0 q -0.206382,0 -0.284866,-0.0765 -0.07848,-0.0775 -0.07848,-0.28099 l 0,-0.58911 -0.130806,0 0,-0.13856 0.130806,0 0,-0.30812 0.179252,0 z"/><path id="path5918" d="m 15.383631,201.46655 q -0.143403,0 -0.226731,0.11239 -0.08333,0.11143 -0.08333,0.30618 0,0.19476 0.08236,0.30716 0.08333,0.11142 0.2277,0.11142 0.142433,0 0.225761,-0.11239 0.08333,-0.1124 0.08333,-0.30619 0,-0.19281 -0.08333,-0.30521 -0.08333,-0.11336 -0.225761,-0.11336 z m 0,-0.15116 q 0.232543,0 0.365287,0.15116 0.132744,0.15115 0.132744,0.41857 0,0.26646 -0.132744,0.41858 -0.132744,0.15116 -0.365287,0.15116 -0.233513,0 -0.366257,-0.15116 -0.131775,-0.15212 -0.131775,-0.41858 0,-0.26742 0.131775,-0.41857 0.132744,-0.15116 0.366257,-0.15116 z"/><path id="path5920" d="m 16.805055,201.50821 q -0.03004,-0.0174 -0.06589,-0.0252 -0.03488,-0.009 -0.07751,-0.009 -0.151153,0 -0.232544,0.0988 -0.08042,0.0979 -0.08042,0.28196 l 0,0.57167 -0.179253,0 0,-1.08521 0.179253,0 0,0.1686 q 0.0562,-0.0988 0.146309,-0.14631 0.09011,-0.0485 0.218979,-0.0485 0.01841,0 0.04069,0.003 0.02229,0.002 0.04942,0.007 l 9.69e-4,0.18313 z"/></g><g style="font-style:normal;font-variant:normal;font-weight:400;font-stretch:normal;font-size:1.984375px;font-family:sans-serif;-inkscape-font-specification:sans-serif;fill:#fff;fill-opacity:1;stroke:none;stroke-width:3.54330707;stroke-miterlimit:4;stroke-dasharray:none;stroke-opacity:1" id="text5732" transform="translate(-0.0184377,13.941374)"><path id="path5940" d="m 25.979532,238.88618 0,1.98437 -0.164718,0 0,-1.98437 0.164718,0 z"/><path id="path5942" d="m 26.398111,238.95594 0.503846,1.63071 -0.164719,0 -0.503845,-1.63071 0.164718,0 z"/><path id="path5944" d="m 27.09865,238.95594 0.831345,0 0,0.16472 -0.635621,0 0,0.42633 0.573609,0 0,0.16472 -0.573609,0 0,0.69085 -0.195724,0 0,-1.44662 z"/><path id="path5946" d="m 28.238115,238.95594 0.291649,0 0.369164,0.98444 0.371101,-0.98444 0.291649,0 0,1.44662 -0.19088,0 0,-1.27027 -0.373039,0.99218 -0.196694,0 -0.373039,-0.99218 0,1.27027 -0.189911,0 0,-1.44662 z"/></g><g style="font-style:normal;font-variant:normal;font-weight:400;font-stretch:normal;font-size:1.984375px;font-family:sans-serif;-inkscape-font-specification:sans-serif;fill:#fff;fill-opacity:1;stroke:none;stroke-width:3.54330707;stroke-miterlimit:4;stroke-dasharray:none;stroke-opacity:1" id="text5736" transform="translate(-0.3498127,16.602155)"><path id="path5949" d="m 25.979532,245.64025 0,1.98438 -0.164718,0 0,-1.98438 0.164718,0 z"/><path id="path5951" d="m 26.398111,245.71001 0.503846,1.63072 -0.164719,0 -0.503845,-1.63072 0.164718,0 z"/><path id="path5953" d="m 26.898081,245.71001 1.223762,0 0,0.16472 -0.513534,0 0,1.2819 -0.196694,0 0,-1.2819 -0.513534,0 0,-0.16472 z"/><path id="path5955" d="m 28.31563,245.71001 0.195724,0 0,1.44662 -0.195724,0 0,-1.44662 z"/><path id="path5957" d="m 28.900866,245.71001 0.291648,0 0.369164,0.98444 0.371101,-0.98444 0.291649,0 0,1.44662 -0.19088,0 0,-1.27027 -0.373039,0.99219 -0.196693,0 -0.37304,-0.99219 0,1.27027 -0.18991,0 0,-1.44662 z"/></g><path style="fill:#2b1927;fill-opacity:1;stroke:none;stroke-width:3.54330707;stroke-miterlimit:4;stroke-dasharray:none;stroke-opacity:1" id="rect4331" d="m 0.17098923,273.7818 17.93464377,0 c 7.43095,0 2.50869,-3.36419 13.39177,-3.36419 l 0.252597,10.14277 -31.75,0 z"/><g style="font-style:normal;font-variant:normal;font-weight:400;font-stretch:normal;font-size:1.984375px;font-family:sans-serif;-inkscape-font-specification:sans-serif;fill:#fff;fill-opacity:1;stroke:none;stroke-width:3.54330707;stroke-miterlimit:4;stroke-dasharray:none;stroke-opacity:1" id="text5740" transform="translate(-0.1987412,19.204999)"><path id="path5960" d="m 25.466564,252.8218 0,1.98438 -0.164718,0 0,-1.98438 0.164718,0 z"/><path id="path5962" d="m 25.885143,252.89156 0.503845,1.63072 -0.164718,0 -0.503845,-1.63072 0.164718,0 z"/><path id="path5964" d="m 27.668949,253.00299 0,0.20638 q -0.09883,-0.0921 -0.211227,-0.13759 -0.111428,-0.0455 -0.237389,-0.0455 -0.248047,0 -0.379822,0.15212 -0.131775,0.15115 -0.131775,0.43796 0,0.28583 0.131775,0.43795 0.131775,0.15116 0.379822,0.15116 0.125961,0 0.237389,-0.0455 0.112396,-0.0455 0.211227,-0.13759 l 0,0.20444 q -0.102707,0.0698 -0.21801,0.10465 -0.114334,0.0349 -0.242233,0.0349 -0.328468,0 -0.51741,-0.20057 -0.188942,-0.20154 -0.188942,-0.54938 0,-0.34882 0.188942,-0.54939 0.188942,-0.20154 0.51741,-0.20154 0.129837,0 0.244171,0.0349 0.115303,0.0339 0.216072,0.10271 z"/><path id="path5966" d="m 28.560368,253.02431 q -0.213166,0 -0.339127,0.1589 -0.124992,0.15891 -0.124992,0.43312 0,0.27323 0.124992,0.43214 0.125961,0.1589 0.339127,0.1589 0.213165,0 0.337188,-0.1589 0.124993,-0.15891 0.124993,-0.43214 0,-0.27421 -0.124993,-0.43312 -0.124023,-0.1589 -0.337188,-0.1589 z m 0,-0.15891 q 0.304245,0 0.486404,0.20445 0.182159,0.20347 0.182159,0.54648 0,0.34203 -0.182159,0.54647 -0.182159,0.20348 -0.486404,0.20348 -0.305214,0 -0.488343,-0.20348 -0.182159,-0.20347 -0.182159,-0.54647 0,-0.34301 0.182159,-0.54648 0.183129,-0.20445 0.488343,-0.20445 z"/><path id="path5968" d="m 29.535114,252.89156 0.195725,0 0,1.2819 0.704414,0 0,0.16472 -0.900139,0 0,-1.44662 z"/></g><g style="font-style:normal;font-variant:normal;font-weight:400;font-stretch:normal;font-size:1.984375px;font-family:sans-serif;-inkscape-font-specification:sans-serif;fill:#fff;fill-opacity:1;stroke:none;stroke-width:3.54330707;stroke-miterlimit:4;stroke-dasharray:none;stroke-opacity:1" id="text5752" transform="translate(2.5278712,16.482112)"><path id="path5972" d="m 6.4358621,226.30273 0.8313446,0 0,0.16472 -0.6356201,0 0,0.42633 0.5736084,0 0,0.16471 -0.5736084,0 0,0.69085 -0.1957245,0 0,-1.44661 z"/><path id="path5974" d="m 7.5753274,226.30273 0.1957245,0 0,1.44661 -0.1957245,0 0,-1.44661 z"/><path id="path5976" d="m 8.160563,226.30273 0.2635498,0 0.6414337,1.21019 0,-1.21019 0.1899109,0 0,1.44661 -0.2635498,0 -0.6414337,-1.21019 0,1.21019 -0.1899109,0 0,-1.44661 z"/><path id="path5978" d="m 9.6449685,226.30273 0.9146725,0 0,0.16472 -0.718948,0 0,0.42826 0.688911,0 0,0.16472 -0.688911,0 0,0.5242 0.736389,0 0,0.16471 -0.9321135,0 0,-1.44661 z"/></g><g style="font-style:normal;font-variant:normal;font-weight:400;font-stretch:normal;font-size:1.984375px;font-family:sans-serif;-inkscape-font-specification:sans-serif;fill:#fff;fill-opacity:1;stroke:none;stroke-width:3.54330707;stroke-miterlimit:4;stroke-dasharray:none;stroke-opacity:1" id="text5756" transform="translate(2.9343223,15.940942)"><path id="path5981" d="m 14.187711,226.92712 0,0.20639 q -0.09883,-0.0921 -0.211228,-0.13759 -0.111427,-0.0455 -0.237388,-0.0455 -0.248047,0 -0.379822,0.15212 -0.131775,0.15115 -0.131775,0.43796 0,0.28583 0.131775,0.43796 0.131775,0.15115 0.379822,0.15115 0.125961,0 0.237388,-0.0455 0.112397,-0.0455 0.211228,-0.13759 l 0,0.20445 q -0.102707,0.0698 -0.21801,0.10464 -0.114334,0.0349 -0.242233,0.0349 -0.328469,0 -0.517411,-0.20057 -0.188942,-0.20153 -0.188942,-0.54938 0,-0.34882 0.188942,-0.54939 0.188942,-0.20153 0.517411,-0.20153 0.129837,0 0.244171,0.0349 0.115303,0.0339 0.216072,0.1027 z"/><path id="path5983" d="m 15.079129,226.94844 q -0.213165,0 -0.339126,0.15891 -0.124993,0.1589 -0.124993,0.43311 0,0.27324 0.124993,0.43214 0.125961,0.15891 0.339126,0.15891 0.213166,0 0.337189,-0.15891 0.124992,-0.1589 0.124992,-0.43214 0,-0.27421 -0.124992,-0.43311 -0.124023,-0.15891 -0.337189,-0.15891 z m 0,-0.1589 q 0.304245,0 0.486405,0.20444 0.182159,0.20348 0.182159,0.54648 0,0.34203 -0.182159,0.54648 -0.18216,0.20347 -0.486405,0.20347 -0.305214,0 -0.488342,-0.20347 -0.182159,-0.20348 -0.182159,-0.54648 0,-0.343 0.182159,-0.54648 0.183128,-0.20444 0.488342,-0.20444 z"/><path id="path5985" d="m 16.50443,227.00851 -0.265488,0.71992 0.531944,0 -0.266456,-0.71992 z m -0.110459,-0.19281 0.221886,0 0.551323,1.44661 -0.203476,0 -0.131775,-0.3711 -0.652092,0 -0.131775,0.3711 -0.206382,0 0.552291,-1.44661 z"/><path id="path5987" d="m 18.065381,227.58406 q 0.06298,0.0213 0.122086,0.0911 0.06007,0.0698 0.120147,0.19185 l 0.198632,0.39532 -0.210259,0 -0.185066,-0.3711 q -0.0717,-0.14534 -0.139526,-0.19282 -0.06686,-0.0475 -0.183129,-0.0475 l -0.213165,0 0,0.61139 -0.195725,0 0,-1.44661 0.441834,0 q 0.248047,0 0.370132,0.10367 0.122086,0.10368 0.122086,0.31297 0,0.13662 -0.06395,0.22673 -0.06298,0.0901 -0.184097,0.12499 z m -0.49028,-0.60752 0,0.51353 0.246109,0 q 0.141464,0 0.213165,-0.0649 0.07267,-0.0659 0.07267,-0.19282 0,-0.12693 -0.07267,-0.19088 -0.0717,-0.0649 -0.213165,-0.0649 l -0.246109,0 z"/><path id="path5989" d="m 19.626332,226.86317 0,0.19088 q -0.111427,-0.0533 -0.210258,-0.0794 -0.09883,-0.0262 -0.19088,-0.0262 -0.159874,0 -0.247078,0.062 -0.08623,0.062 -0.08623,0.17635 0,0.0959 0.05717,0.14534 0.05814,0.0484 0.218979,0.0785 l 0.11821,0.0242 q 0.218979,0.0417 0.322654,0.14728 0.104645,0.10465 0.104645,0.28099 0,0.21026 -0.141464,0.31878 -0.140495,0.10852 -0.412765,0.10852 -0.102707,0 -0.218979,-0.0233 -0.115303,-0.0233 -0.239327,-0.0688 l 0,-0.20153 q 0.119179,0.0669 0.233513,0.10077 0.114334,0.0339 0.224793,0.0339 0.167625,0 0.258705,-0.0659 0.09108,-0.0659 0.09108,-0.18797 0,-0.10659 -0.06589,-0.16666 -0.06492,-0.0601 -0.214134,-0.0901 l -0.119179,-0.0232 q -0.218979,-0.0436 -0.316841,-0.13662 -0.09786,-0.093 -0.09786,-0.25871 0,-0.19185 0.134681,-0.30231 0.135651,-0.11045 0.37304,-0.11045 0.101737,0 0.207351,0.0184 0.105614,0.0184 0.216072,0.0552 z"/><path id="path5991" d="m 20.022626,226.8157 0.914673,0 0,0.16472 -0.718949,0 0,0.42826 0.688912,0 0,0.16472 -0.688912,0 0,0.5242 0.73639,0 0,0.16471 -0.932114,0 0,-1.44661 z"/></g><g style="font-style:normal;font-variant:normal;font-weight:400;font-stretch:normal;font-size:1.984375px;font-family:sans-serif;-inkscape-font-specification:sans-serif;fill:#fff;fill-opacity:1;stroke:none;stroke-width:3.54330707;stroke-miterlimit:4;stroke-dasharray:none;stroke-opacity:1" id="text5760" transform="translate(-9.1870597,19.568437)"><path id="path5994" d="m 18.821295,232.88876 q -0.213165,0 -0.339127,0.15891 -0.124992,0.1589 -0.124992,0.43311 0,0.27324 0.124992,0.43215 0.125962,0.1589 0.339127,0.1589 0.213165,0 0.337189,-0.1589 0.124992,-0.15891 0.124992,-0.43215 0,-0.27421 -0.124992,-0.43311 -0.124024,-0.15891 -0.337189,-0.15891 z m 0.274208,1.28772 0.257736,0.28196 -0.23642,0 -0.214134,-0.23158 q -0.03198,0.002 -0.04942,0.003 -0.01647,9.7e-4 -0.03197,9.7e-4 -0.305214,0 -0.488343,-0.20348 -0.182159,-0.20445 -0.182159,-0.54648 0,-0.343 0.182159,-0.54648 0.183129,-0.20444 0.488343,-0.20444 0.304245,0 0.486404,0.20444 0.18216,0.20348 0.18216,0.54648 0,0.25192 -0.101738,0.43118 -0.100769,0.17925 -0.292618,0.26452 z"/><path id="path5996" d="m 19.796041,232.75602 0.26355,0 0.641434,1.2102 0,-1.2102 0.189911,0 0,1.44662 -0.26355,0 -0.641434,-1.2102 0,1.2102 -0.189911,0 0,-1.44662 z"/><path id="path5998" d="m 21.079878,232.75602 1.223762,0 0,0.16472 -0.513534,0 0,1.2819 -0.196694,0 0,-1.2819 -0.513534,0 0,-0.16472 z"/><path id="path6000" d="m 22.414099,232.75602 1.136558,0 0,0.14922 -0.914673,1.13268 0.936959,0 0,0.16472 -1.18113,0 0,-0.14922 0.914673,-1.13268 -0.892387,0 0,-0.16472 z"/></g><g style="font-style:normal;font-variant:normal;font-weight:400;font-stretch:normal;font-size:1.984375px;font-family:sans-serif;-inkscape-font-specification:sans-serif;fill:#fff;fill-opacity:1;stroke:none;stroke-width:3.54330707;stroke-miterlimit:4;stroke-dasharray:none;stroke-opacity:1" id="text5764" transform="translate(7.604451,19.719562)"><path id="path6003" d="m 2.4176157,237.33154 0.8313446,0 0,0.16471 -0.6356202,0 0,0.42633 0.5736084,0 0,0.16472 -0.5736084,0 0,0.69085 -0.1957244,0 0,-1.44661 z"/><path id="path6005" d="m 3.557081,237.33154 0.2916488,0 0.3691636,0.98443 0.3711013,-0.98443 0.2916489,0 0,1.44661 -0.1908798,0 0,-1.27027 -0.3730393,0.99219 -0.1966934,0 -0.3730392,-0.99219 0,1.27027 -0.1899109,0 0,-1.44661 z"/></g><g style="font-style:normal;font-variant:normal;font-weight:400;font-stretch:normal;font-size:1.984375px;font-family:sans-serif;-inkscape-font-specification:sans-serif;fill:#fff;fill-opacity:1;stroke:none;stroke-width:3.54330707;stroke-miterlimit:4;stroke-dasharray:none;stroke-opacity:1" id="text5768" transform="translate(11.871833,18.413285)"><path id="path6008" d="m 4.4399066,243.82912 1.2237625,0 0,0.16472 -0.5135345,0 0,1.2819 -0.1966935,0 0,-1.2819 -0.5135345,0 0,-0.16472 z"/><path id="path6010" d="m 5.8574557,243.82912 0.1957245,0 0,1.44662 -0.1957245,0 0,-1.44662 z"/><path id="path6012" d="m 6.4426913,243.82912 0.2916489,0 0.3691635,0.98444 0.3711014,-0.98444 0.2916488,0 0,1.44662 -0.1908798,0 0,-1.27027 -0.3730392,0.99219 -0.1966934,0 -0.3730393,-0.99219 0,1.27027 -0.1899109,0 0,-1.44662 z"/><path id="path6014" d="m 8.3476138,244.58489 0,0.53001 0.3139343,0 q 0.1579361,0 0.2335129,-0.0649 0.076546,-0.0659 0.076546,-0.20057 0,-0.13565 -0.076546,-0.1996 -0.075577,-0.0649 -0.2335129,-0.0649 l -0.3139343,0 z m 0,-0.59492 0,0.43602 0.289711,0 q 0.1434021,0 0.2131653,-0.0533 0.070732,-0.0543 0.070732,-0.16472 0,-0.10949 -0.070732,-0.16375 -0.069763,-0.0543 -0.2131653,-0.0543 l -0.289711,0 z m -0.1957245,-0.16085 0.4999695,0 q 0.2238236,0 0.3449402,0.093 0.1211166,0.093 0.1211166,0.26452 0,0.13274 -0.062012,0.21123 -0.062012,0.0785 -0.1821594,0.0979 0.144371,0.031 0.2238235,0.12984 0.080421,0.0979 0.080421,0.24514 0,0.19378 -0.1317749,0.2994 -0.1317749,0.10561 -0.3749771,0.10561 l -0.5193482,0 0,-1.44662 z"/><path id="path6016" d="m 10.198276,244.59749 q 0.06298,0.0213 0.122086,0.0911 0.06007,0.0698 0.120147,0.19185 l 0.198632,0.39532 -0.210259,0 -0.185066,-0.3711 q -0.0717,-0.14534 -0.139526,-0.19282 -0.06686,-0.0475 -0.1831288,-0.0475 l -0.2131653,0 0,0.6114 -0.1957245,0 0,-1.44662 0.4418335,0 q 0.2480471,0 0.3701321,0.10368 0.122086,0.10368 0.122086,0.31297 0,0.13662 -0.06395,0.22673 -0.06298,0.0901 -0.184097,0.12499 z m -0.4902801,-0.60752 0,0.51353 0.246109,0 q 0.1414641,0 0.2131651,-0.0649 0.07267,-0.0659 0.07267,-0.19281 0,-0.12693 -0.07267,-0.19088 -0.0717,-0.0649 -0.2131651,-0.0649 l -0.246109,0 z"/><path id="path6018" d="m 10.892032,243.82912 0.914673,0 0,0.16472 -0.718948,0 0,0.42827 0.688911,0 0,0.16472 -0.688911,0 0,0.52419 0.736389,0 0,0.16472 -0.932114,0 0,-1.44662 z"/></g><g style="font-style:normal;font-variant:normal;font-weight:400;font-stretch:normal;font-size:1.984375px;font-family:sans-serif;-inkscape-font-specification:sans-serif;fill:#fff;fill-opacity:1;stroke:none;stroke-width:3.54330707;stroke-miterlimit:4;stroke-dasharray:none;stroke-opacity:1" id="text5772" transform="translate(0.32540395,7.1815479)"><path id="path6021" d="m 9.5710011,269.41795 0,0.20639 q -0.098831,-0.0921 -0.2112275,-0.13759 -0.1114273,-0.0455 -0.2373886,-0.0455 -0.2480468,0 -0.3798218,0.15212 -0.1317749,0.15115 -0.1317749,0.43796 0,0.28583 0.1317749,0.43796 0.131775,0.15115 0.3798218,0.15115 0.1259613,0 0.2373886,-0.0455 0.1123963,-0.0455 0.2112275,-0.13759 l 0,0.20445 q -0.102707,0.0698 -0.21801,0.10464 -0.1143341,0.0349 -0.2422333,0.0349 -0.3284683,0 -0.5174103,-0.20057 -0.1889419,-0.20153 -0.1889419,-0.54938 0,-0.34882 0.1889419,-0.54939 0.188942,-0.20154 0.5174103,-0.20154 0.1298371,0 0.2441712,0.0349 0.115303,0.0339 0.2160721,0.1027 z"/><path id="path6023" d="m 10.46242,269.43927 q -0.213166,0 -0.339127,0.15891 -0.1249924,0.1589 -0.1249924,0.43311 0,0.27324 0.1249924,0.43214 0.125961,0.15891 0.339127,0.15891 0.213165,0 0.337188,-0.15891 0.124993,-0.1589 0.124993,-0.43214 0,-0.27421 -0.124993,-0.43311 -0.124023,-0.15891 -0.337188,-0.15891 z m 0,-0.15891 q 0.304245,0 0.486404,0.20445 0.182159,0.20348 0.182159,0.54648 0,0.34203 -0.182159,0.54648 -0.182159,0.20347 -0.486404,0.20347 -0.305214,0 -0.4883428,-0.20347 -0.1821594,-0.20348 -0.1821594,-0.54648 0,-0.343 0.1821594,-0.54648 0.1831288,-0.20445 0.4883428,-0.20445 z"/><path id="path6025" d="m 11.437166,269.30653 0.195725,0 0,1.28189 0.704414,0 0,0.16472 -0.900139,0 0,-1.44661 z"/><path id="path6027" d="m 13.05916,269.43927 q -0.213165,0 -0.339126,0.15891 -0.124993,0.1589 -0.124993,0.43311 0,0.27324 0.124993,0.43214 0.125961,0.15891 0.339126,0.15891 0.213166,0 0.337189,-0.15891 0.124992,-0.1589 0.124992,-0.43214 0,-0.27421 -0.124992,-0.43311 -0.124023,-0.15891 -0.337189,-0.15891 z m 0,-0.15891 q 0.304245,0 0.486405,0.20445 0.182159,0.20348 0.182159,0.54648 0,0.34203 -0.182159,0.54648 -0.18216,0.20347 -0.486405,0.20347 -0.305214,0 -0.488342,-0.20347 -0.182159,-0.20348 -0.182159,-0.54648 0,-0.343 0.182159,-0.54648 0.183128,-0.20445 0.488342,-0.20445 z"/><path id="path6029" d="m 14.719912,270.07489 q 0.06298,0.0213 0.122085,0.0911 0.06007,0.0698 0.120148,0.19185 l 0.198631,0.39532 -0.210258,0 -0.185067,-0.3711 q -0.0717,-0.14534 -0.139526,-0.19282 -0.06686,-0.0475 -0.183128,-0.0475 l -0.213166,0 0,0.61139 -0.195724,0 0,-1.44661 0.441833,0 q 0.248047,0 0.370133,0.10367 0.122085,0.10368 0.122085,0.31297 0,0.13662 -0.06395,0.22673 -0.06298,0.0901 -0.184097,0.12499 z m -0.490281,-0.60752 0,0.51353 0.246109,0 q 0.141465,0 0.213166,-0.0649 0.07267,-0.0659 0.07267,-0.19282 0,-0.12693 -0.07267,-0.19088 -0.0717,-0.0649 -0.213166,-0.0649 l -0.246109,0 z"/></g><g style="font-style:normal;font-variant:normal;font-weight:400;font-stretch:normal;font-size:1.984375px;font-family:sans-serif;-inkscape-font-specification:sans-serif;fill:#fdfdfe;fill-opacity:1;stroke:none;stroke-width:3.54330707;stroke-miterlimit:4;stroke-dasharray:none;stroke-opacity:1" id="text4311" transform="translate(-6.9821784,8.1218662)"><path id="path4316" d="m 26.187168,240.23727 q 0.06298,0.0213 0.122086,0.0911 0.06007,0.0698 0.120147,0.19185 l 0.198632,0.39533 -0.210259,0 -0.185066,-0.3711 q -0.0717,-0.14534 -0.139526,-0.19282 -0.06686,-0.0475 -0.183129,-0.0475 l -0.213165,0 0,0.6114 -0.195725,0 0,-1.44662 0.441834,0 q 0.248047,0 0.370132,0.10368 0.122086,0.10367 0.122086,0.31296 0,0.13662 -0.06395,0.22673 -0.06298,0.0901 -0.184097,0.12499 z m -0.49028,-0.60752 0,0.51354 0.246109,0 q 0.141464,0 0.213165,-0.0649 0.07267,-0.0659 0.07267,-0.19282 0,-0.12693 -0.07267,-0.19088 -0.0717,-0.0649 -0.213165,-0.0649 l -0.246109,0 z"/><path id="path4318" d="m 27.284969,239.66173 -0.265487,0.71992 0.531944,0 -0.266457,-0.71992 z m -0.110458,-0.19282 0.221886,0 0.551323,1.44662 -0.203476,0 -0.131775,-0.3711 -0.652092,0 -0.131775,0.3711 -0.206383,0 0.552292,-1.44662 z"/><path id="path4320" d="m 28.159916,239.46891 0.26355,0 0.641433,1.2102 0,-1.2102 0.189911,0 0,1.44662 -0.263549,0 -0.641434,-1.2102 0,1.2102 -0.189911,0 0,-1.44662 z"/><path id="path4322" d="m 30.630695,240.70914 0,-0.38854 -0.319748,0 0,-0.16084 0.513535,0 0,0.62109 q -0.113365,0.0804 -0.249985,0.12208 -0.136619,0.0407 -0.291649,0.0407 -0.339126,0 -0.530975,-0.19767 -0.19088,-0.19863 -0.19088,-0.55229 0,-0.35463 0.19088,-0.55229 0.191849,-0.19863 0.530975,-0.19863 0.141465,0 0.268395,0.0349 0.127899,0.0349 0.235451,0.10271 l 0,0.20832 q -0.108521,-0.0921 -0.230607,-0.13856 -0.122085,-0.0465 -0.256767,-0.0465 -0.265487,0 -0.3992,0.14825 -0.132744,0.14825 -0.132744,0.44183 0,0.29262 0.132744,0.44087 0.133713,0.14824 0.3992,0.14824 0.103676,0 0.185066,-0.0174 0.08139,-0.0184 0.146309,-0.0562 z"/></g><g style="font-style:normal;font-variant:normal;font-weight:400;font-stretch:normal;font-size:1.984375px;font-family:sans-serif;-inkscape-font-specification:sans-serif;fill:#fdfdfe;fill-opacity:1;stroke:none;stroke-width:3.54330707;stroke-miterlimit:4;stroke-dasharray:none;stroke-opacity:1" id="text4324" transform="translate(-0.52916669,-1.0583334)"><path id="path4329" d="m 5.5764165,271.83448 0.2916489,0 0.3691635,0.98444 0.3711013,-0.98444 0.2916489,0 0,1.44662 -0.1908798,0 0,-1.27027 -0.3730393,0.99218 -0.1966934,0 -0.3730392,-0.99218 0,1.27027 -0.1899109,0 0,-1.44662 z"/><path id="path4331" d="m 7.872788,271.96722 q -0.2131653,0 -0.3391266,0.15891 -0.1249924,0.1589 -0.1249924,0.43311 0,0.27324 0.1249924,0.43215 0.1259613,0.1589 0.3391266,0.1589 0.2131652,0 0.3371887,-0.1589 0.1249923,-0.15891 0.1249923,-0.43215 0,-0.27421 -0.1249923,-0.43311 -0.1240235,-0.15891 -0.3371887,-0.15891 z m 0,-0.1589 q 0.3042449,0 0.4864044,0.20444 0.1821594,0.20348 0.1821594,0.54648 0,0.34204 -0.1821594,0.54648 -0.1821595,0.20348 -0.4864044,0.20348 -0.305214,0 -0.4883423,-0.20348 -0.1821595,-0.20348 -0.1821595,-0.54648 0,-0.343 0.1821595,-0.54648 0.1831283,-0.20444 0.4883423,-0.20444 z"/><path id="path4333" d="m 9.0432591,271.99532 0,1.12493 0.2364197,0 q 0.2994004,0 0.4379578,-0.13565 0.1395264,-0.13565 0.1395264,-0.42826 0,-0.29068 -0.1395264,-0.42537 -0.1385574,-0.13565 -0.4379578,-0.13565 l -0.2364197,0 z m -0.1957244,-0.16084 0.4021072,0 q 0.420517,0 0.6172104,0.17538 0.1966937,0.17441 0.1966937,0.54648 0,0.374 -0.1976626,0.54938 -0.1976624,0.17538 -0.6162415,0.17538 l -0.4021072,0 0,-1.44662 z"/><path id="path4335" d="m 10.352288,271.83448 0.196693,0 0,0.87882 q 0,0.23255 0.0843,0.33525 0.0843,0.10174 0.27324,0.10174 0.187973,0 0.27227,-0.10174 0.0843,-0.1027 0.0843,-0.33525 l 0,-0.87882 0.196693,0 0,0.90305 q 0,0.28292 -0.140495,0.4273 -0.139526,0.14437 -0.412765,0.14437 -0.274209,0 -0.414704,-0.14437 -0.139526,-0.14438 -0.139526,-0.4273 l 0,-0.90305 z"/><path id="path4337" d="m 11.827973,271.83448 0.195724,0 0,1.2819 0.704415,0 0,0.16472 -0.900139,0 0,-1.44662 z"/><path id="path4339" d="m 13.462563,272.0273 -0.265488,0.71992 0.531945,0 -0.266457,-0.71992 z m -0.110458,-0.19282 0.221885,0 0.551323,1.44662 -0.203476,0 -0.131775,-0.3711 -0.652092,0 -0.131774,0.3711 -0.206383,0 0.552292,-1.44662 z"/><path id="path4341" d="m 13.979973,271.83448 1.223763,0 0,0.16472 -0.513535,0 0,1.2819 -0.196693,0 0,-1.2819 -0.513535,0 0,-0.16472 z"/><path id="path4343" d="m 15.397522,271.83448 0.195725,0 0,1.44662 -0.195725,0 0,-1.44662 z"/><path id="path4345" d="m 16.569932,271.96722 q -0.213166,0 -0.339127,0.15891 -0.124992,0.1589 -0.124992,0.43311 0,0.27324 0.124992,0.43215 0.125961,0.1589 0.339127,0.1589 0.213165,0 0.337188,-0.1589 0.124993,-0.15891 0.124993,-0.43215 0,-0.27421 -0.124993,-0.43311 -0.124023,-0.15891 -0.337188,-0.15891 z m 0,-0.1589 q 0.304245,0 0.486404,0.20444 0.182159,0.20348 0.182159,0.54648 0,0.34204 -0.182159,0.54648 -0.182159,0.20348 -0.486404,0.20348 -0.305214,0 -0.488343,-0.20348 -0.182159,-0.20348 -0.182159,-0.54648 0,-0.343 0.182159,-0.54648 0.183129,-0.20444 0.488343,-0.20444 z"/><path id="path4347" d="m 17.544678,271.83448 0.26355,0 0.641434,1.2102 0,-1.2102 0.189911,0 0,1.44662 -0.26355,0 -0.641434,-1.2102 0,1.2102 -0.189911,0 0,-1.44662 z"/></g><g style="font-style:normal;font-variant:normal;font-weight:400;font-stretch:normal;font-size:3.96875024px;font-family:sans-serif;-inkscape-font-specification:sans-serif;fill:#fff;fill-opacity:1;stroke:none;stroke-width:3.54330707;stroke-miterlimit:4;stroke-dasharray:none;stroke-opacity:1" id="text4343"><path id="path4348" d="m 3.9668223,197.82237 0,0.41277 q -0.1976624,-0.1841 -0.4224549,-0.27518 -0.2228546,-0.0911 -0.4747772,-0.0911 -0.4960938,0 -0.7596436,0.30425 -0.2635498,0.3023 -0.2635498,0.87591 0,0.57167 0.2635498,0.87592 0.2635498,0.3023 0.7596436,0.3023 0.2519226,0 0.4747772,-0.0911 0.2247925,-0.0911 0.4224549,-0.27517 l 0,0.40889 q -0.2054138,0.13952 -0.4360199,0.20929 -0.2286682,0.0698 -0.4844666,0.0698 -0.6569367,0 -1.0348206,-0.40114 -0.377884,-0.40307 -0.377884,-1.09877 0,-0.69763 0.377884,-1.09877 0.3778839,-0.40307 1.0348206,-0.40307 0.2596741,0 0.4883423,0.0698 0.2306061,0.0678 0.4321442,0.20541 z"/><path id="path4350" d="m 5.4008435,198.57233 q -0.2868043,0 -0.4534608,0.22479 -0.1666565,0.22285 -0.1666565,0.61236 0,0.38952 0.1647187,0.61431 0.1666565,0.22285 0.4553986,0.22285 0.2848663,0 0.4515228,-0.22479 0.1666565,-0.22479 0.1666565,-0.61237 0,-0.38563 -0.1666565,-0.61042 -0.1666565,-0.22673 -0.4515228,-0.22673 z m 0,-0.30231 q 0.4650879,0 0.7305756,0.30231 0.2654876,0.3023 0.2654876,0.83715 0,0.53292 -0.2654876,0.83716 -0.2654877,0.30231 -0.7305756,0.30231 -0.4670258,0 -0.7325135,-0.30231 -0.2635498,-0.30424 -0.2635498,-0.83716 0,-0.53485 0.2635498,-0.83715 0.2654877,-0.30231 0.7325135,-0.30231 z"/><path id="path4352" d="m 8.2436934,198.65565 q -0.060074,-0.0349 -0.1317749,-0.0504 -0.069763,-0.0174 -0.1550293,-0.0174 -0.3023071,0 -0.4650879,0.19766 -0.1608429,0.19573 -0.1608429,0.56392 l 0,1.14334 -0.3585053,0 0,-2.17041 0.3585053,0 0,0.33719 q 0.1123963,-0.19766 0.2926178,-0.29262 0.1802216,-0.0969 0.4379578,-0.0969 0.03682,0 0.08139,0.006 0.044571,0.004 0.098831,0.0136 l 0.00194,0.36625 z"/><path id="path4354" d="m 10.359843,199.18275 0,1.31 -0.356567,0 0,-1.29837 q 0,-0.30812 -0.1201477,-0.46121 -0.1201477,-0.15309 -0.3604432,-0.15309 -0.2887421,0 -0.4553986,0.1841 -0.1666565,0.18409 -0.1666565,0.5019 l 0,1.22667 -0.3585052,0 0,-2.17041 0.3585052,0 0,0.33719 q 0.1278992,-0.19572 0.3003693,-0.29262 0.174408,-0.0969 0.4011384,-0.0969 0.3740082,0 0.5658573,0.23254 0.191848,0.23061 0.191848,0.68019 z"/><path id="path4356" d="m 12.336467,198.65565 q -0.06007,-0.0349 -0.131775,-0.0504 -0.06976,-0.0174 -0.155029,-0.0174 -0.302307,0 -0.465088,0.19766 -0.160843,0.19573 -0.160843,0.56392 l 0,1.14334 -0.358505,0 0,-2.17041 0.358505,0 0,0.33719 q 0.112397,-0.19766 0.292618,-0.29262 0.180222,-0.0969 0.437958,-0.0969 0.03682,0 0.08139,0.006 0.04457,0.004 0.09883,0.0136 l 0.0019,0.36625 z"/><path id="path4358" d="m 13.473995,198.57233 q -0.286804,0 -0.453461,0.22479 -0.166656,0.22285 -0.166656,0.61236 0,0.38952 0.164718,0.61431 0.166657,0.22285 0.455399,0.22285 0.284866,0 0.451523,-0.22479 0.166656,-0.22479 0.166656,-0.61237 0,-0.38563 -0.166656,-0.61042 -0.166657,-0.22673 -0.451523,-0.22673 z m 0,-0.30231 q 0.465088,0 0.730575,0.30231 0.265488,0.3023 0.265488,0.83715 0,0.53292 -0.265488,0.83716 -0.265487,0.30231 -0.730575,0.30231 -0.467026,0 -0.732514,-0.30231 -0.263549,-0.30424 -0.263549,-0.83716 0,-0.53485 0.263549,-0.83715 0.265488,-0.30231 0.732514,-0.30231 z"/><path id="path4360" d="m 14.855693,198.32234 0.356568,0 0.445709,1.6937 0.443771,-1.6937 0.420517,0 0.44571,1.6937 0.443771,-1.6937 0.356567,0 -0.567794,2.17041 -0.420517,0 -0.467026,-1.77896 -0.468964,1.77896 -0.420517,0 -0.567795,-2.17041 z"/><path id="path4362" d="m 19.694546,198.38629 0,0.33719 q -0.151153,-0.0775 -0.313934,-0.11627 -0.162781,-0.0388 -0.337189,-0.0388 -0.265487,0 -0.3992,0.0814 -0.131775,0.0814 -0.131775,0.24417 0,0.12403 0.09496,0.19573 0.09496,0.0698 0.38176,0.13371 l 0.122086,0.0271 q 0.379821,0.0814 0.538726,0.23061 0.160843,0.14727 0.160843,0.41276 0,0.30231 -0.240295,0.47865 -0.238358,0.17635 -0.656937,0.17635 -0.174408,0 -0.364319,-0.0349 -0.187973,-0.0329 -0.397262,-0.10077 l 0,-0.3682 q 0.197662,0.10271 0.389511,0.15503 0.191849,0.0504 0.379822,0.0504 0.251922,0 0.387573,-0.0853 0.135651,-0.0872 0.135651,-0.24417 0,-0.14534 -0.09883,-0.22285 -0.09689,-0.0775 -0.428268,-0.14922 l -0.124024,-0.0291 q -0.331375,-0.0698 -0.478652,-0.21316 -0.147278,-0.14534 -0.147278,-0.39726 0,-0.30619 0.217041,-0.47284 0.217041,-0.16666 0.616241,-0.16666 0.197663,0 0.372071,0.0291 0.174407,0.0291 0.321685,0.0872 z"/><path id="path4364" d="m 20.256527,197.59952 0.420517,0 0.718949,1.07551 0.722824,-1.07551 0.420517,0 -0.930176,1.38945 0.992188,1.50378 -0.420517,0 -0.813904,-1.23054 -0.819718,1.23054 -0.422454,0 1.032882,-1.54448 -0.901108,-1.34875 z"/></g><g style="font-style:normal;font-variant:normal;font-weight:400;font-stretch:normal;font-size:1.98437512px;font-family:sans-serif;-inkscape-font-specification:sans-serif;fill:#fff;fill-opacity:1;stroke:none;stroke-width:3.54330707;stroke-miterlimit:4;stroke-dasharray:none;stroke-opacity:1" id="text4370" transform="translate(-1.0583334,-2.6458335)"><path id="path4378" d="m 22.848843,233.32927 0,0.19088 q -0.111428,-0.0533 -0.210259,-0.0795 -0.09883,-0.0262 -0.19088,-0.0262 -0.159874,0 -0.247078,0.062 -0.08623,0.062 -0.08623,0.17634 0,0.0959 0.05717,0.14534 0.05814,0.0485 0.218979,0.0785 l 0.11821,0.0242 q 0.218979,0.0417 0.322655,0.14728 0.104645,0.10464 0.104645,0.28099 0,0.21026 -0.141465,0.31878 -0.140495,0.10852 -0.412765,0.10852 -0.102707,0 -0.218979,-0.0233 -0.115303,-0.0232 -0.239326,-0.0688 l 0,-0.20154 q 0.119178,0.0669 0.233512,0.10077 0.114335,0.0339 0.224793,0.0339 0.167625,0 0.258705,-0.0659 0.09108,-0.0659 0.09108,-0.18798 0,-0.10658 -0.06589,-0.16665 -0.06492,-0.0601 -0.214134,-0.0901 l -0.119179,-0.0233 q -0.218979,-0.0436 -0.316841,-0.13662 -0.09786,-0.093 -0.09786,-0.2587 0,-0.19185 0.134682,-0.30231 0.13565,-0.11046 0.373039,-0.11046 0.101738,0 0.207352,0.0184 0.105613,0.0184 0.216072,0.0552 z"/><path id="path4380" d="m 23.245136,233.28179 0.195725,0 0,0.59299 0.711197,0 0,-0.59299 0.195724,0 0,1.44662 -0.195724,0 0,-0.68891 -0.711197,0 0,0.68891 -0.195725,0 0,-1.44662 z"/><path id="path4382" d="m 25.220791,233.47461 -0.265488,0.71992 0.531945,0 -0.266457,-0.71992 z m -0.110458,-0.19282 0.221885,0 0.551323,1.44662 -0.203476,0 -0.131774,-0.3711 -0.652092,0 -0.131775,0.3711 -0.206383,0 0.552292,-1.44662 z"/><path id="path4384" d="m 26.289525,233.44263 0,0.54358 0.246109,0 q 0.136619,0 0.211227,-0.0707 0.07461,-0.0707 0.07461,-0.20153 0,-0.12984 -0.07461,-0.20057 -0.07461,-0.0707 -0.211227,-0.0707 l -0.246109,0 z m -0.195725,-0.16084 0.441834,0 q 0.243202,0 0.367225,0.11046 0.124993,0.10949 0.124993,0.32169 0,0.21413 -0.124993,0.32362 -0.124023,0.10949 -0.367225,0.10949 l -0.246109,0 0,0.58136 -0.195725,0 0,-1.44662 z"/><path id="path4386" d="m 27.291401,233.28179 0.914673,0 0,0.16472 -0.718948,0 0,0.42827 0.688911,0 0,0.16472 -0.688911,0 0,0.52419 0.736389,0 0,0.16472 -0.932114,0 0,-1.44662 z"/></g></g></svg>