<svg xmlns="http://www.w3.org/2000/svg" xmlns:svg="http://www.w3.org/2000/svg" xmlns:xlink="http://www.w3.org/1999/xlink" id="svg8" width="60" height="380" version="1.1" viewBox="0 0 15.875 100.542"><defs id="defs2"><clipPath id="clipPath4626" clipPathUnits="userSpaceOnUse"><rect style="opacity:1;fill:#1500ae;fill-opacity:1;stroke:none;stroke-width:1;stroke-miterlimit:4;stroke-dasharray:none;stroke-opacity:1" id="rect4628" width="120" height="101.823" x="173.658" y="-14.577"/></clipPath><clipPath id="clipPath4630" clipPathUnits="userSpaceOnUse"><rect style="opacity:1;fill:#1500ae;fill-opacity:1;stroke:none;stroke-width:1;stroke-miterlimit:4;stroke-dasharray:none;stroke-opacity:1" id="rect4632" width="31.75" height="26.941" x="0" y="274.579"/></clipPath><clipPath id="clipPath4634" clipPathUnits="userSpaceOnUse"><rect style="opacity:1;fill:#1500ae;fill-opacity:1;stroke:none;stroke-width:1;stroke-miterlimit:4;stroke-dasharray:none;stroke-opacity:1" id="rect4636" width="31.75" height="26.941" x="0" y="274.579"/></clipPath><clipPath id="clipPath4638" clipPathUnits="userSpaceOnUse"><rect style="opacity:1;fill:#1500ae;fill-opacity:1;stroke:none;stroke-width:1;stroke-miterlimit:4;stroke-dasharray:none;stroke-opacity:1" id="rect4640" width="133.152" height="112.983" x="216.698" y="-81.335"/></clipPath><clipPath id="clipPath4642" clipPathUnits="userSpaceOnUse"><rect style="opacity:1;fill:#1500ae;fill-opacity:1;stroke:none;stroke-width:1;stroke-miterlimit:4;stroke-dasharray:none;stroke-opacity:1" id="rect4644" width="31.75" height="26.941" x="0" y="274.579"/></clipPath><clipPath id="clipPath4646" clipPathUnits="userSpaceOnUse"><rect style="opacity:1;fill:#1500ae;fill-opacity:1;stroke:none;stroke-width:1;stroke-miterlimit:4;stroke-dasharray:none;stroke-opacity:1" id="rect4648" width="31.75" height="26.941" x="0" y="274.579"/></clipPath><clipPath id="clipPath5173" clipPathUnits="userSpaceOnUse"><rect style="opacity:1;fill:#fff;fill-opacity:1;stroke:gray;stroke-width:1.66364133;stroke-miterlimit:4;stroke-dasharray:none;stroke-opacity:1" id="rect5175" width="115.198" height="45.223" x="176.059" y="41.761"/></clipPath><clipPath id="clipPath5177" clipPathUnits="userSpaceOnUse"><rect style="opacity:1;fill:#fff;fill-opacity:1;stroke:gray;stroke-width:.3880538;stroke-miterlimit:4;stroke-dasharray:none;stroke-opacity:1" id="rect5179" width="23.689" height="11.965" x="4.03" y="289.485"/></clipPath><clipPath id="clipPath5181" clipPathUnits="userSpaceOnUse"><rect style="opacity:1;fill:#fff;fill-opacity:1;stroke:gray;stroke-width:.3880538;stroke-miterlimit:4;stroke-dasharray:none;stroke-opacity:1" id="rect5183" width="23.689" height="11.965" x="4.03" y="289.485"/></clipPath><clipPath id="clipPath5185" clipPathUnits="userSpaceOnUse"><rect style="opacity:1;fill:#fff;fill-opacity:1;stroke:gray;stroke-width:1.62740862;stroke-miterlimit:4;stroke-dasharray:none;stroke-opacity:1" id="rect5187" width="99.346" height="50.18" x="233.601" y="-18.821"/></clipPath><clipPath id="clipPath5189" clipPathUnits="userSpaceOnUse"><rect style="opacity:1;fill:#fff;fill-opacity:1;stroke:gray;stroke-width:.3880538;stroke-miterlimit:4;stroke-dasharray:none;stroke-opacity:1" id="rect5191" width="23.689" height="11.965" x="4.03" y="289.485"/></clipPath><clipPath id="clipPath5193" clipPathUnits="userSpaceOnUse"><rect style="opacity:1;fill:#fff;fill-opacity:1;stroke:gray;stroke-width:.3880538;stroke-miterlimit:4;stroke-dasharray:none;stroke-opacity:1" id="rect5195" width="23.689" height="11.965" x="4.03" y="289.485"/></clipPath><linearGradient id="linearGradient4189"><stop style="stop-color:#fff;stop-opacity:1" id="stop4191" offset="0"/><stop style="stop-color:#000;stop-opacity:0" id="stop4193" offset="1"/></linearGradient><linearGradient id="linearGradient5349"><stop style="stop-color:#fdfdfd;stop-opacity:1" id="stop5351" offset="0"/><stop style="stop-color:#fdfdfd;stop-opacity:1" id="stop5353" offset="1"/></linearGradient><radialGradient id="radialGradient5357" cx="285.494" cy="856.052" r="69.827" fx="285.494" fy="856.052" gradientTransform="matrix(0.42180436,0,0,0.0267339,-105.98218,272.19192)" gradientUnits="userSpaceOnUse" xlink:href="#linearGradient5349"/><linearGradient id="linearGradient4195" x1="268.967" x2="279.915" y1="830.884" y2="832.532" gradientTransform="matrix(0.26458334,0,0,0.26458334,-59.861442,72.341009)" gradientUnits="userSpaceOnUse" xlink:href="#linearGradient4189"/><clipPath id="clipPath4626-0" clipPathUnits="userSpaceOnUse"><rect id="rect4628-4" width="120" height="101.823" x="173.658" y="-14.577" style="opacity:1;fill:#1500ae;fill-opacity:1;stroke:none;stroke-width:1;stroke-miterlimit:4;stroke-dasharray:none;stroke-opacity:1"/></clipPath><clipPath id="clipPath4630-5" clipPathUnits="userSpaceOnUse"><rect id="rect4632-3" width="31.75" height="26.941" x="0" y="274.579" style="opacity:1;fill:#1500ae;fill-opacity:1;stroke:none;stroke-width:1;stroke-miterlimit:4;stroke-dasharray:none;stroke-opacity:1"/></clipPath><clipPath id="clipPath4634-3" clipPathUnits="userSpaceOnUse"><rect id="rect4636-2" width="31.75" height="26.941" x="0" y="274.579" style="opacity:1;fill:#1500ae;fill-opacity:1;stroke:none;stroke-width:1;stroke-miterlimit:4;stroke-dasharray:none;stroke-opacity:1"/></clipPath><clipPath id="clipPath4638-0" clipPathUnits="userSpaceOnUse"><rect id="rect4640-0" width="133.152" height="112.983" x="216.698" y="-81.335" style="opacity:1;fill:#1500ae;fill-opacity:1;stroke:none;stroke-width:1;stroke-miterlimit:4;stroke-dasharray:none;stroke-opacity:1"/></clipPath><clipPath id="clipPath4642-0" clipPathUnits="userSpaceOnUse"><rect id="rect4644-4" width="31.75" height="26.941" x="0" y="274.579" style="opacity:1;fill:#1500ae;fill-opacity:1;stroke:none;stroke-width:1;stroke-miterlimit:4;stroke-dasharray:none;stroke-opacity:1"/></clipPath><clipPath id="clipPath4646-5" clipPathUnits="userSpaceOnUse"><rect id="rect4648-3" width="31.75" height="26.941" x="0" y="274.579" style="opacity:1;fill:#1500ae;fill-opacity:1;stroke:none;stroke-width:1;stroke-miterlimit:4;stroke-dasharray:none;stroke-opacity:1"/></clipPath><clipPath id="clipPath5173-0" clipPathUnits="userSpaceOnUse"><rect id="rect5175-6" width="115.198" height="45.223" x="176.059" y="41.761" style="opacity:1;fill:#fff;fill-opacity:1;stroke:gray;stroke-width:1.66364133;stroke-miterlimit:4;stroke-dasharray:none;stroke-opacity:1"/></clipPath><clipPath id="clipPath5177-0" clipPathUnits="userSpaceOnUse"><rect id="rect5179-9" width="23.689" height="11.965" x="4.03" y="289.485" style="opacity:1;fill:#fff;fill-opacity:1;stroke:gray;stroke-width:.3880538;stroke-miterlimit:4;stroke-dasharray:none;stroke-opacity:1"/></clipPath><clipPath id="clipPath5181-5" clipPathUnits="userSpaceOnUse"><rect id="rect5183-4" width="23.689" height="11.965" x="4.03" y="289.485" style="opacity:1;fill:#fff;fill-opacity:1;stroke:gray;stroke-width:.3880538;stroke-miterlimit:4;stroke-dasharray:none;stroke-opacity:1"/></clipPath><clipPath id="clipPath5185-9" clipPathUnits="userSpaceOnUse"><rect id="rect5187-9" width="99.346" height="50.18" x="233.601" y="-18.821" style="opacity:1;fill:#fff;fill-opacity:1;stroke:gray;stroke-width:1.62740862;stroke-miterlimit:4;stroke-dasharray:none;stroke-opacity:1"/></clipPath><clipPath id="clipPath5189-4" clipPathUnits="userSpaceOnUse"><rect id="rect5191-7" width="23.689" height="11.965" x="4.03" y="289.485" style="opacity:1;fill:#fff;fill-opacity:1;stroke:gray;stroke-width:.3880538;stroke-miterlimit:4;stroke-dasharray:none;stroke-opacity:1"/></clipPath><clipPath id="clipPath5193-7" clipPathUnits="userSpaceOnUse"><rect id="rect5195-1" width="23.689" height="11.965" x="4.03" y="289.485" style="opacity:1;fill:#fff;fill-opacity:1;stroke:gray;stroke-width:.3880538;stroke-miterlimit:4;stroke-dasharray:none;stroke-opacity:1"/></clipPath><clipPath id="clipPath4668" clipPathUnits="userSpaceOnUse"><path id="path4670" d="m 7.875766,86.52701 15.875001,0 0,13.97626 -15.875001,0 z" style="opacity:1;fill:#000;fill-opacity:1;fill-rule:evenodd;stroke:none;stroke-width:.48607069;stroke-linecap:butt;stroke-linejoin:round;stroke-miterlimit:4;stroke-dasharray:none;stroke-dashoffset:0;stroke-opacity:1;paint-order:normal"/></clipPath><clipPath id="clipPath4672" clipPathUnits="userSpaceOnUse"><path id="path4674" d="m 0,283.02373 15.875001,0 0,13.97626 -15.875001,0 z" style="opacity:1;fill:#000;fill-opacity:1;fill-rule:evenodd;stroke:none;stroke-width:.48607069;stroke-linecap:butt;stroke-linejoin:round;stroke-miterlimit:4;stroke-dasharray:none;stroke-dashoffset:0;stroke-opacity:1;paint-order:normal"/></clipPath><clipPath id="clipPath4676" clipPathUnits="userSpaceOnUse"><path id="path4678" d="m 3.9380026,281.49123 23.7815144,0 0,16.40589 -23.7815144,0 z" style="opacity:1;fill:#000;fill-opacity:1;fill-rule:evenodd;stroke:none;stroke-width:.48607069;stroke-linecap:butt;stroke-linejoin:round;stroke-miterlimit:4;stroke-dasharray:none;stroke-dashoffset:0;stroke-opacity:1;paint-order:normal"/></clipPath></defs><metadata id="metadata5"/><g id="layer1" transform="translate(0,-196.45832)" style="display:inline"><path style="opacity:1;fill:#000;fill-opacity:1;fill-rule:evenodd;stroke:none;stroke-width:.48607069;stroke-linecap:butt;stroke-linejoin:round;stroke-miterlimit:4;stroke-dasharray:none;stroke-dashoffset:0;stroke-opacity:1;paint-order:normal" id="rect817" d="m 0,196.45831 15.875001,0 0,100.54168 -15.875001,0 z"/><flowRoot style="font-style:normal;font-variant:normal;font-weight:400;font-stretch:normal;font-size:10px;line-height:125%;font-family:'Trajan Pro 3';-inkscape-font-specification:'Trajan Pro 3, ';letter-spacing:0;word-spacing:0;fill:#000;fill-opacity:1;stroke:none;stroke-width:1px;stroke-linecap:butt;stroke-linejoin:miter;stroke-opacity:1" id="flowRoot4136" transform="matrix(0.26458334,0,0,0.26458334,-58.459936,293.81811)" xml:space="preserve"><flowRegion id="flowRegion4138"><rect style="font-style:normal;font-variant:normal;font-weight:400;font-stretch:normal;font-family:'Trajan Pro 3';-inkscape-font-specification:'Trajan Pro 3, '" id="rect4140" width="388.571" height="117.143" x="91.429" y="51.429"/></flowRegion><flowPara id="flowPara4142"/></flowRoot><flowRoot style="font-style:normal;font-weight:400;font-size:10px;line-height:125%;font-family:Luminari;letter-spacing:0;word-spacing:0;fill:#000;fill-opacity:1;stroke:none;stroke-width:1px;stroke-linecap:butt;stroke-linejoin:miter;stroke-opacity:1;-inkscape-font-specification:Luminari;font-stretch:normal;font-variant:normal" id="flowRoot5341" transform="matrix(0.26458334,0,0,0.26458334,-58.459936,115.92228)" xml:space="preserve"><flowRegion id="flowRegion5343"><rect id="rect5345" width="7.829" height="72.478" x="323.249" y="35.538" style="-inkscape-font-specification:Luminari;font-family:Luminari;font-weight:400;font-style:normal;font-stretch:normal;font-variant:normal"/></flowRegion><flowPara id="flowPara5347"/></flowRoot><path id="rect5381" d="M -1.0865176e-6,291.9933 31.750002,292.11599 l -0.03339,3.29649 -31.7166130865176,0 z" clip-path="url(#clipPath4676)" transform="matrix(0.66753532,0,0,0.85190505,-2.6287558,43.219928)" style="opacity:1;fill:#000;fill-opacity:1;stroke:none;stroke-width:1.00699997;stroke-linejoin:miter;stroke-miterlimit:4;stroke-dasharray:none;stroke-opacity:1"/><path style="opacity:0;fill:#fff;fill-opacity:1;stroke:#fff;stroke-width:.82020831;stroke-miterlimit:4;stroke-dasharray:none;stroke-opacity:1" id="path5422" d="m 30.061707,285.73086 a 15.56002,2.6503332 0 0 1 -15.560021,2.65034 15.56002,2.6503332 0 0 1 -15.5600194,-2.65034 15.56002,2.6503332 0 0 1 15.5600194,-2.65033 15.56002,2.6503332 0 0 1 15.560021,2.65033 z" clip-path="url(#clipPath4672)"/><flowRoot id="flowRoot6030" xml:space="preserve" style="font-size:7.5px;opacity:1;fill:#fff;fill-opacity:1;stroke:#9f9f9f;stroke-width:1.77165353;stroke-miterlimit:4;stroke-dasharray:none;stroke-opacity:1"><flowRegion id="flowRegion6032"><rect id="rect6034" width="7.916" height="17.99" x="-7.916" y="209.815"/></flowRegion><flowPara id="flowPara6036"/></flowRoot><g style="font-style:normal;font-variant:normal;font-weight:400;font-stretch:normal;font-size:3.96875px;font-family:Luminari;-inkscape-font-specification:Luminari;fill:#fff;fill-opacity:1;stroke:none;stroke-width:3.54330707;stroke-miterlimit:4;stroke-dasharray:none;stroke-opacity:1" id="text4316"><path id="path4740" d="m 2.5143895,199.38063 q -0.055563,-0.0119 -0.1230312,-0.0198 -0.067469,-0.008 -0.142875,-0.0119 -0.075406,-0.004 -0.1508125,-0.004 -0.071438,-0.004 -0.1349375,-0.004 -0.027781,0 -0.0635,0 -0.03175,0 -0.059531,0 -0.027781,0 -0.047625,0.004 -0.019844,0.004 -0.019844,0.0119 0,0.10319 0,0.2421 0.00397,0.13494 0.00794,0.27384 0.00794,0.13494 0.015875,0.25003 0.00794,0.1151 0.023813,0.16669 0.00794,0.0318 0.067469,0.0437 0.059531,0.0159 0.1349375,0.0159 0.03175,0 0.0635,-0.004 0.035719,0 0.079375,0 0.043656,0 0.067469,0.0198 0.023813,0.0198 0.023813,0.0476 0,0.0318 -0.00794,0.0556 -0.00397,0.0238 -0.083344,0.0238 -0.03175,0 -0.1031875,-0.004 -0.067469,-0.004 -0.1508125,-0.008 -0.079375,-0.004 -0.1666875,0 -0.087312,0.004 -0.1547812,0.0159 -0.15875,0.0318 -0.2976563,0.0714 -0.1389062,0.0437 -0.2500312,0.0873 -0.11112505,0.0437 -0.1865313,0.0833 -0.0754063,0.0437 -0.10715625,0.0794 -0.015875,0.0199 -0.0238125,0.0199 -0.007938,0 -0.0198438,0 -0.007937,0 -0.0396875,-0.0238 -0.03175,-0.0199 -0.03175,-0.0556 0,-0.0198 0.0635,-0.0595 0.0674687,-0.0357 0.15875,-0.0794 0.0912812,-0.0397 0.1905,-0.0794 0.099219,-0.0357 0.1706563,-0.0556 0.019844,-0.0278 0.03175,-0.15875 0.015875,-0.127 0.023813,-0.37306 0.011906,-0.25003 0.015875,-0.6231 0.00794,-0.37306 0.011906,-0.89297 0,-0.14287 -0.00397,-0.28971 -0.00397,-0.15082 -0.011906,-0.27782 -0.00794,-0.13097 -0.023813,-0.22622 -0.015875,-0.0953 -0.039687,-0.13493 -0.019844,-0.0278 -0.075406,-0.0357 -0.051594,-0.0119 -0.1230313,-0.0119 l -0.15875,0 q -0.0198438,0 -0.047625,0 -0.0238125,0 -0.0515938,-0.004 -0.0277812,-0.008 -0.047625,-0.0198 -0.015875,-0.0119 -0.015875,-0.0317 0,-0.0437 0.0119063,-0.0595 0.0119063,-0.0198 0.10715625,-0.0198 0.0396875,0 0.0992188,0.004 0.0595313,0.004 0.1190625,0.008 0.0635,0 0.1230313,0.004 0.0635,0.004 0.111125,0.004 0.127,0 0.3135312,-0.0238 0.1905,-0.0238 0.3889375,-0.0318 0.1468438,-0.004 0.2976563,-0.004 0.1547812,-0.004 0.28575,-0.004 0.1349375,-0.004 0.2301875,-0.004 0.099219,-0.004 0.1349375,-0.0119 0.035719,-0.11112 0.079375,-0.1905 0.043656,-0.0833 0.091281,-0.0873 0.019844,0 0.051594,0.0159 0.035719,0.0119 0.035719,0.0357 -0.011906,0.0119 -0.019844,0.0238 -0.015875,0.0238 -0.015875,0.0357 -0.047625,0.0833 -0.087313,0.21431 -0.035719,0.13097 -0.0635,0.26987 -0.023813,0.13891 -0.035719,0.26988 -0.011906,0.13097 0,0.21828 -0.011906,0.0595 -0.047625,0.0595 -0.0635,0 -0.079375,-0.0198 -0.011906,-0.0238 -0.00397,-0.0476 0.00794,-0.0317 0.011906,-0.0794 0.00397,-0.0516 0.00397,-0.0833 0,-0.0953 -0.0635,-0.16272 -0.0635,-0.0714 -0.1706563,-0.11509 -0.1071562,-0.0476 -0.254,-0.0714 -0.142875,-0.0238 -0.3055937,-0.0238 -0.043656,0 -0.1190625,0.004 -0.071438,0 -0.1071563,0.0317 -0.00794,0.0318 -0.015875,0.13494 -0.00794,0.10318 -0.015875,0.24606 -0.00397,0.13891 -0.00794,0.30162 -0.00397,0.15875 -0.00794,0.30957 0,0.15081 -0.00397,0.27384 0,0.12303 0,0.18256 0.079375,0.004 0.1508125,0.004 0.075406,0 0.1468437,0 0.238125,0.004 0.4167188,-0.008 0.1825625,-0.0159 0.2420937,-0.0357 0.035719,-0.0119 0.055562,-0.0317 0.023813,-0.0238 0.035719,-0.0476 0.015875,-0.0238 0.027781,-0.0397 0.015875,-0.0198 0.03175,-0.0198 0.019844,0 0.039687,0.0198 0.019844,0.0198 0.011906,0.0357 -0.023813,0.0437 -0.043656,0.12303 -0.019844,0.0754 -0.035719,0.17066 -0.011906,0.0913 -0.023813,0.1905 -0.00794,0.0992 -0.00794,0.18653 0,0.0159 0,0.0317 0.00397,0.0159 0.00397,0.0357 0,0.0119 -0.019844,0.0198 -0.015875,0.004 -0.035719,0.004 -0.015875,0 -0.03175,-0.004 -0.015875,-0.004 -0.015875,-0.0159 0,-0.0238 -0.00397,-0.0556 -0.00397,-0.0357 -0.019844,-0.0675 -0.011906,-0.0318 -0.043656,-0.0595 -0.027781,-0.0318 -0.079375,-0.0516 l -0.059531,-0.0159 z"/><path id="path4742" d="m 5.0997201,199.62272 q 0.00794,-0.008 0.011906,0.004 0.00794,0.008 0.00794,0.0278 0.00397,0.0159 0,0.0357 -0.00397,0.0198 -0.015875,0.0317 -0.079375,0.0754 -0.1984375,0.15875 -0.1190625,0.0833 -0.2460625,0.15478 -0.035719,0.0198 -0.099219,0.0516 -0.0635,0.0317 -0.142875,0.0635 -0.075406,0.0278 -0.15875,0.0476 -0.079375,0.0238 -0.1508125,0.0238 -0.142875,0 -0.269875,-0.0556 -0.127,-0.0556 -0.22225,-0.15081 -0.09525,-0.0992 -0.1508125,-0.23416 -0.051594,-0.13494 -0.051594,-0.29369 0,-0.17065 0.047625,-0.32147 0.047625,-0.15081 0.1071563,-0.26987 0.0635,-0.11906 0.1190625,-0.19844 0.055562,-0.0833 0.075406,-0.12303 -0.075406,-0.004 -0.1389062,-0.004 -0.059531,-0.004 -0.1150938,-0.004 -0.127,0 -0.2143125,0.004 -0.087312,0 -0.1547812,0.0159 -0.03175,0.008 -0.059531,0.0317 -0.027781,0.0238 -0.047625,0.0357 -0.00794,-0.008 -0.019844,-0.0198 -0.015875,-0.0159 -0.015875,-0.0318 0,-0.008 0.00397,-0.0119 0,-0.004 0.051594,-0.0437 0.051594,-0.0437 0.127,-0.0992 0.079375,-0.0595 0.1706562,-0.127 0.09525,-0.0714 0.1785938,-0.13097 0.087313,-0.0595 0.1468437,-0.0992 0.0635,-0.0436 0.083344,-0.0516 0.023813,-0.008 0.047625,0.008 0.023813,0.0159 0.015875,0.0238 -0.011906,0.008 -0.035719,0.0317 -0.023813,0.0198 -0.015875,0.0357 0.043656,0.0357 0.1508125,0.0635 0.1071563,0.0278 0.2420938,0.0476 0.1349375,0.0159 0.2778125,0.0278 0.142875,0.008 0.2579687,0.008 0.1706563,0 0.2738438,-0.008 0.1031875,-0.0119 0.1706562,-0.0278 0.0635,-0.0159 0.083344,-0.0238 0.00397,0 0.015875,0.0119 0.011906,0.0119 0.011906,0.0278 0,0.008 -0.059531,0.0397 -0.055562,0.0317 -0.1150938,0.0675 -0.035719,0.0199 -0.087312,0.0516 -0.047625,0.0317 -0.1071562,0.0635 -0.055562,0.0278 -0.1190625,0.0516 -0.0635,0.0238 -0.1230313,0.0278 -0.059531,0.008 -0.1389062,0.0119 -0.079375,0.004 -0.1666875,0.008 -0.087313,0 -0.1785938,0.004 -0.087312,0 -0.1627187,0 -0.011906,0.0198 -0.039687,0.0675 -0.023813,0.0437 -0.047625,0.1151 -0.023813,0.0714 -0.043656,0.16272 -0.019844,0.0913 -0.019844,0.19843 0,0.16272 0.047625,0.30163 0.051594,0.13494 0.1389062,0.23416 0.091281,0.0992 0.2143125,0.15478 0.1230313,0.0556 0.2659063,0.0556 0.083344,0 0.15875,-0.0198 0.079375,-0.0198 0.1468437,-0.0516 0.071438,-0.0317 0.1309688,-0.0675 0.059531,-0.0397 0.1031875,-0.0754 l 0.047625,-0.0437 z"/><path id="path4744" d="m 6.3925404,199.55525 q -0.011906,-0.0675 -0.023813,-0.14684 -0.011906,-0.0794 -0.023813,-0.15081 -0.011906,-0.0714 -0.023813,-0.12304 -0.00794,-0.0516 -0.011906,-0.0675 -0.0635,0.0238 -0.142875,0.0556 -0.079375,0.0318 -0.15875,0.0714 -0.079375,0.0357 -0.1508125,0.0754 -0.071438,0.0357 -0.1190625,0.0675 -0.091281,0.0595 -0.1389062,0.11906 -0.047625,0.0595 -0.047625,0.14288 0,0.11509 0.067469,0.2024 0.067469,0.0873 0.2103438,0.0873 0.075406,0 0.1547812,-0.0278 0.083344,-0.0278 0.1508125,-0.0635 0.071438,-0.0357 0.1230313,-0.0714 0.051594,-0.0357 0.071438,-0.0556 0.03175,-0.0318 0.047625,-0.0516 0.019844,-0.0238 0.015875,-0.0635 z M 6.2774466,198.9401 q -0.023813,-0.12304 -0.055563,-0.21829 -0.03175,-0.0992 -0.079375,-0.16271 -0.047625,-0.0675 -0.1150937,-0.0992 -0.067469,-0.0357 -0.1666875,-0.0357 -0.087312,0 -0.1627188,0.0317 -0.071438,0.0318 -0.127,0.0754 -0.051594,0.0437 -0.083344,0.0873 -0.027781,0.0437 -0.03175,0.0675 -0.00397,0.0317 -0.035719,0.0317 -0.055562,0 -0.1031875,-0.0397 -0.047625,-0.0397 -0.047625,-0.0952 0,-0.0317 0.00794,-0.0476 0.091281,-0.0516 0.22225,-0.11112 0.1309688,-0.0595 0.269875,-0.11113 0.142875,-0.0516 0.2817813,-0.0833 0.1389062,-0.0357 0.2500312,-0.0357 0.1666875,0 0.254,0.0476 0.091281,0.0476 0.1349375,0.13493 0.043656,0.0873 0.051594,0.20638 0.011906,0.11509 0.019844,0.25003 0.011906,0.20241 0.03175,0.39291 0.019844,0.18653 0.059531,0.33337 0.039688,0.14288 0.099219,0.23416 0.0635,0.0873 0.1547813,0.0873 0.043656,0 0.09525,-0.0159 0.051594,-0.0159 0.099219,-0.0357 0.047625,-0.0238 0.083344,-0.0437 0.039688,-0.0238 0.051594,-0.0317 0.035719,0 0.043656,0.0357 0,0.0198 -0.00794,0.0357 -0.00794,0.008 -0.059531,0.0397 -0.051594,0.0317 -0.127,0.0754 -0.075406,0.0437 -0.1666875,0.0952 -0.091281,0.0476 -0.1825625,0.0913 -0.087313,0.0437 -0.1627187,0.0714 -0.075406,0.0278 -0.1190625,0.0278 -0.051594,0 -0.091281,-0.0437 -0.035719,-0.0397 -0.0635,-0.10715 -0.027781,-0.0714 -0.047625,-0.16272 -0.019844,-0.0913 -0.035719,-0.1905 -0.071438,0.0595 -0.1825625,0.14287 -0.111125,0.0794 -0.2420938,0.15082 -0.1309687,0.0714 -0.269875,0.12303 -0.1349375,0.0476 -0.2619375,0.0476 -0.1071562,0 -0.1865312,-0.0318 -0.079375,-0.0357 -0.1349375,-0.0913 -0.051594,-0.0556 -0.079375,-0.127 -0.023813,-0.0754 -0.023813,-0.15478 0,-0.127 0.075406,-0.20637 0.079375,-0.0833 0.2420938,-0.17066 0.075406,-0.0397 0.2103437,-0.10319 0.1349375,-0.0675 0.2738438,-0.13494 0.142875,-0.0675 0.2619375,-0.127 0.1230312,-0.0635 0.1785937,-0.0992 z"/><path id="path4746" d="m 9.904016,198.43606 q -0.079375,0.0595 -0.2659063,0.10716 -0.1825625,0.0437 -0.4246562,0.0437 -0.047625,0 -0.1071563,0.004 -0.055563,0 -0.087312,0 0.015875,0.15081 -0.039688,0.30956 -0.051594,0.15875 -0.1230312,0.30162 -0.067469,0.13891 -0.127,0.24607 -0.059531,0.10715 -0.059531,0.15478 0,0.0635 0.055563,0.12303 0.055563,0.0595 0.1389063,0.11906 0.083344,0.0595 0.1785937,0.12303 0.09525,0.0595 0.1785938,0.13097 0.083344,0.0675 0.1389062,0.15081 0.055563,0.0834 0.055563,0.18257 0,0.14287 -0.111125,0.31353 -0.1071562,0.17065 -0.2936875,0.3175 -0.1865312,0.15081 -0.4365625,0.25003 -0.2500312,0.0992 -0.5318125,0.0992 -0.1309687,0 -0.28575,-0.0278 -0.1508125,-0.0278 -0.2817812,-0.0833 -0.127,-0.0556 -0.2143125,-0.1389 -0.083344,-0.0794 -0.083344,-0.1905 0,-0.0635 0.09525,-0.16669 0.099219,-0.10319 0.2262188,-0.21035 0.127,-0.10715 0.2500312,-0.20637 0.1230313,-0.0992 0.174625,-0.15875 0.011906,0 0.027781,0.0159 0.019844,0.0159 0.019844,0.0357 0,0.004 -0.00397,0.004 0,0.004 0,0.008 -0.039688,0.0317 -0.099219,0.0794 -0.055563,0.0476 -0.111125,0.10319 -0.055562,0.0556 -0.09525,0.11906 -0.039688,0.0675 -0.039688,0.13097 0,0.0833 0.0635,0.16272 0.067469,0.0834 0.1706563,0.14685 0.1071562,0.0635 0.2420937,0.10318 0.1349375,0.0397 0.2738438,0.0397 0.28575,0 0.4325937,-0.127 0.1508125,-0.12303 0.1508125,-0.34925 0,-0.0953 -0.055562,-0.18256 -0.051594,-0.0873 -0.1309687,-0.16272 -0.075406,-0.0754 -0.1706563,-0.14288 -0.091281,-0.0635 -0.1706562,-0.11906 -0.075406,-0.0556 -0.1309688,-0.10319 -0.051594,-0.0476 -0.051594,-0.0873 0,-0.0357 0.019844,-0.0794 0.023812,-0.0476 0.051594,-0.0913 0.027781,-0.0476 0.047625,-0.0833 0.023813,-0.0397 0.023813,-0.0595 0,0.004 -0.00794,-0.0119 -0.027781,0.0278 -0.079375,0.0556 -0.051594,0.0278 -0.1230313,0.0516 -0.067469,0.0238 -0.1468437,0.0397 -0.075406,0.0159 -0.1547813,0.0159 -0.1508125,0 -0.2659062,-0.0476 -0.1150938,-0.0516 -0.1944688,-0.13494 -0.075406,-0.0833 -0.1150937,-0.1905 -0.039688,-0.11112 -0.039688,-0.23416 0,-0.18256 0.051594,-0.31353 0.055562,-0.13097 0.1349375,-0.22225 0.083344,-0.0913 0.174625,-0.14684 0.091281,-0.0595 0.1666875,-0.0992 0.047625,-0.0238 0.111125,-0.0437 0.067469,-0.0238 0.142875,-0.0397 0.075406,-0.0199 0.1547813,-0.0318 0.079375,-0.0119 0.1508125,-0.0119 0.2500312,0 0.4048125,0.0556 0.1547812,0.0556 0.2024062,0.0992 0.047625,0.008 0.1706563,0.0119 0.1230312,0.004 0.2619375,0.004 0.1389062,0 0.2619375,0 0.127,0 0.1785937,0 0.019844,0 0.039688,0 0.019844,0 0.039687,-0.004 0.019844,0.004 0.015875,0.0198 -0.00397,0.0159 -0.019844,0.0238 z m -1.635125,1.07157 q 0.055563,0 0.111125,-0.0238 0.055563,-0.0238 0.099219,-0.0794 0.047625,-0.0595 0.075406,-0.15478 0.03175,-0.0992 0.03175,-0.24606 0,-0.13494 -0.03175,-0.25004 -0.027781,-0.11509 -0.087312,-0.19843 -0.059531,-0.0833 -0.1468438,-0.127 -0.087312,-0.0476 -0.206375,-0.0476 -0.1706562,0 -0.2897187,0.13097 -0.1190625,0.127 -0.1190625,0.36513 0,0.13096 0.047625,0.24606 0.047625,0.11509 0.1230312,0.2024 0.079375,0.0833 0.1825625,0.13494 0.1031875,0.0476 0.2103438,0.0476 z"/><path id="path4748" d="m 10.159814,199.12663 q -0.004,0.0357 -0.0079,0.0635 -0.004,0.0278 -0.0079,0.0635 0,0.0357 -0.004,0.0913 0,0.0516 0,0.1389 0,0.14288 0.0079,0.23416 0.01191,0.0913 0.03175,0.14684 0.01984,0.0516 0.04763,0.0714 0.03175,0.0198 0.07541,0.0198 0.02778,0 0.05953,-0.008 0.0079,0 0.01191,0.0238 0.0079,0.0198 0,0.0278 -0.02381,0.0198 -0.09525,0.0595 -0.06747,0.0357 -0.154781,0.0714 -0.08731,0.0357 -0.1825629,0.0635 -0.091281,0.0278 -0.1547813,0.0278 -0.055562,0 -0.087312,-0.0159 -0.03175,-0.0119 -0.03175,-0.0317 0,-0.0199 0.00397,-0.0238 0.00397,-0.004 0.011906,-0.0198 0.00794,-0.0198 0.011906,-0.0476 0.00397,-0.0317 0.011906,-0.0714 0.00794,-0.0556 0.015875,-0.13891 0.00794,-0.0873 0.015875,-0.18653 0.00794,-0.10319 0.011906,-0.21034 0.00794,-0.11113 0.00794,-0.21432 0,-0.0437 -0.00397,-0.10715 0,-0.0675 -0.00397,-0.17066 -0.00397,-0.11509 -0.027781,-0.19447 -0.019844,-0.0833 -0.055563,-0.13097 -0.03175,-0.0516 -0.075406,-0.0754 -0.039687,-0.0238 -0.079375,-0.0238 -0.019844,0 -0.039688,0 -0.019844,0 -0.039687,0.004 -0.015875,0 -0.015875,-0.0357 0,-0.008 0.00397,-0.0119 0.00794,-0.008 0.039687,-0.0278 0.051594,-0.0357 0.1389063,-0.0873 0.087312,-0.0516 0.1785937,-0.0952 0.091281,-0.0437 0.1706563,-0.0754 0.083343,-0.0318 0.1270004,-0.0318 0.115093,0 0.115093,0.13097 0,0.0198 -0.004,0.0714 -0.004,0.0516 -0.0079,0.10715 0,0.0516 -0.004,0.0992 -0.004,0.0476 -0.004,0.0635 0.08334,-0.0794 0.178593,-0.16272 0.09525,-0.0833 0.206375,-0.15081 0.111125,-0.0714 0.234157,-0.11509 0.123031,-0.0437 0.254,-0.0437 0.238125,0 0.388937,0.13891 0.154781,0.13493 0.154781,0.43259 0,0.0794 -0.01191,0.18653 -0.0079,0.10716 -0.01984,0.22225 -0.01191,0.11509 -0.02381,0.22622 -0.0079,0.11112 -0.0079,0.19844 0,0.3175 0.206375,0.3175 0.03969,0 0.08731,-0.0119 0.05159,-0.0159 0.09525,-0.0317 0.04763,-0.0198 0.08334,-0.0357 0.03572,-0.0198 0.04763,-0.0318 0.004,-0.004 0.0079,0.008 0.0079,0.008 0.01191,0.0238 0.004,0.0159 0,0.0278 0,0.0119 -0.004,0.0159 -0.03175,0.0198 -0.138907,0.0754 -0.103187,0.0556 -0.234156,0.1151 -0.127,0.0556 -0.254,0.0992 -0.127,0.0476 -0.202406,0.0476 -0.09128,0 -0.127,-0.0437 -0.03175,-0.0437 -0.03175,-0.0913 0,-0.0318 0.0079,-0.0794 0.01191,-0.0476 0.02778,-0.15478 0.01588,-0.1151 0.02778,-0.26988 0.01587,-0.15478 0.01587,-0.33337 0,-0.34925 -0.130969,-0.52785 -0.127,-0.18256 -0.321469,-0.18256 -0.123031,0 -0.218281,0.0476 -0.09525,0.0476 -0.162719,0.13097 -0.06747,0.0794 -0.107156,0.18653 -0.03969,0.10318 -0.05159,0.22225 z"/></g><g style="font-style:normal;font-variant:normal;font-weight:400;font-stretch:normal;font-size:1.984375px;font-family:Luminari;-inkscape-font-specification:Luminari;fill:#fff;fill-opacity:1;stroke:none;stroke-width:3.54330707;stroke-miterlimit:4;stroke-dasharray:none;stroke-opacity:1" id="text4320"><path id="path4723" d="m 0.83596483,202.48076 q -0.001984,0.0179 -0.003969,0.0317 -0.001984,0.0139 -0.003969,0.0318 0,0.0179 -0.001984,0.0456 0,0.0258 0,0.0695 0,0.0714 0.003969,0.11708 0.005953,0.0456 0.015875,0.0734 0.009922,0.0258 0.0238125,0.0357 0.015875,0.01 0.0377031,0.01 0.0138906,0 0.0297656,-0.004 0.003969,0 0.005953,0.0119 0.003969,0.01 0,0.0139 -0.0119062,0.01 -0.047625,0.0298 -0.0337344,0.0179 -0.0773906,0.0357 -0.0436562,0.0179 -0.0912812,0.0317 -0.0456406,0.0139 -0.0773906,0.0139 -0.0277812,0 -0.0436562,-0.008 -0.015875,-0.006 -0.015875,-0.0159 0,-0.01 0.001984,-0.0119 0.001984,-0.002 0.005953,-0.01 0.003969,-0.01 0.005953,-0.0238 0.001984,-0.0159 0.005953,-0.0357 0.003969,-0.0278 0.007938,-0.0695 0.003969,-0.0437 0.007938,-0.0933 0.003969,-0.0516 0.005953,-0.10517 0.003969,-0.0556 0.003969,-0.10716 0,-0.0218 -0.001984,-0.0536 0,-0.0337 -0.001984,-0.0853 -0.001984,-0.0576 -0.0138906,-0.0972 -0.009922,-0.0417 -0.0277812,-0.0655 -0.015875,-0.0258 -0.0377031,-0.0377 -0.0198438,-0.0119 -0.0396875,-0.0119 -0.009922,0 -0.0198437,0 -0.009922,0 -0.0198437,0.002 -0.007938,0 -0.007938,-0.0179 0,-0.004 0.001984,-0.006 0.003969,-0.004 0.0198437,-0.0139 0.0257969,-0.0179 0.0694531,-0.0437 0.0436562,-0.0258 0.0892969,-0.0476 0.0456406,-0.0218 0.0853281,-0.0377 0.0416719,-0.0159 0.0635,-0.0159 0.0575469,0 0.0575469,0.0655 0,0.01 -0.001984,0.0357 -0.001984,0.0258 -0.003969,0.0536 0,0.0258 -0.001984,0.0496 -0.001984,0.0238 -0.001984,0.0317 0.0416719,-0.0397 0.0892969,-0.0814 0.047625,-0.0417 0.10318747,-0.0754 0.055562,-0.0357 0.1170782,-0.0575 0.061516,-0.0218 0.127,-0.0218 0.1190625,0 0.1944687,0.0694 0.077391,0.0675 0.077391,0.2163 0,0.0397 -0.00595,0.0933 -0.00397,0.0536 -0.00992,0.11112 -0.00595,0.0575 -0.011906,0.11311 -0.00397,0.0556 -0.00397,0.0992 0,0.15875 0.1031875,0.15875 0.019844,0 0.043656,-0.006 0.025797,-0.008 0.047625,-0.0159 0.023812,-0.01 0.041672,-0.0179 0.017859,-0.01 0.023813,-0.0159 0.00198,-0.002 0.00397,0.004 0.00397,0.004 0.00595,0.0119 0.00198,0.008 0,0.0139 0,0.006 -0.00198,0.008 -0.015875,0.01 -0.069453,0.0377 -0.051594,0.0278 -0.1170781,0.0575 -0.0635,0.0278 -0.127,0.0496 -0.0635,0.0238 -0.1012031,0.0238 -0.045641,0 -0.0635,-0.0218 -0.015875,-0.0218 -0.015875,-0.0456 0,-0.0159 0.00397,-0.0397 0.00595,-0.0238 0.013891,-0.0774 0.00794,-0.0575 0.013891,-0.13493 0.00794,-0.0774 0.00794,-0.16669 0,-0.17463 -0.065484,-0.26392 -0.0635,-0.0913 -0.1607344,-0.0913 -0.061516,0 -0.10914059,0.0238 -0.047625,0.0238 -0.0813594,0.0655 -0.0337344,0.0397 -0.0535781,0.0933 -0.0198438,0.0516 -0.0257969,0.11112 z"/><path id="path4725" d="m 2.5445117,202.84589 q -0.021828,0.0179 -0.059531,0.0476 -0.037703,0.0298 -0.087312,0.0595 -0.049609,0.0298 -0.1091407,0.0516 -0.059531,0.0198 -0.1250156,0.0198 -0.099219,0 -0.1766094,-0.0337 -0.077391,-0.0357 -0.1309687,-0.0933 -0.051594,-0.0595 -0.079375,-0.1389 -0.025797,-0.0794 -0.025797,-0.16868 0,-0.10517 0.03175,-0.18653 0.03175,-0.0814 0.077391,-0.14089 0.047625,-0.0615 0.1012032,-0.1012 0.053578,-0.0417 0.097234,-0.0655 0.019844,-0.0119 0.049609,-0.0258 0.03175,-0.0139 0.067469,-0.0258 0.037703,-0.0119 0.079375,-0.0198 0.043656,-0.01 0.089297,-0.01 0.085328,0 0.1647032,0.0218 0.081359,0.0218 0.142875,0.0695 0.061516,0.0456 0.099219,0.11906 0.037703,0.0734 0.037703,0.17661 0,0.0833 -0.03175,0.15676 -0.029766,0.0734 -0.071438,0.13097 -0.041672,0.0575 -0.083344,0.0992 -0.039687,0.0397 -0.057547,0.0575 z m -0.2242344,0.0318 q 0.1131094,0 0.1726407,-0.0853 0.061516,-0.0853 0.061516,-0.26194 0,-0.0893 -0.025797,-0.1647 -0.023813,-0.0774 -0.069453,-0.13494 -0.043656,-0.0575 -0.1031875,-0.0893 -0.059531,-0.0337 -0.1289844,-0.0337 -0.049609,0 -0.09525,0.0258 -0.043656,0.0258 -0.077391,0.0754 -0.033734,0.0476 -0.053578,0.11708 -0.019844,0.0695 -0.019844,0.15677 0,0.0933 0.027781,0.16669 0.029766,0.0734 0.077391,0.12501 0.047625,0.0496 0.1071562,0.0774 0.061516,0.0258 0.127,0.0258 z"/><path id="path4727" d="m 3.6750784,202.99472 q 0.00397,0 0.013891,-0.002 0.011906,-0.004 0.015875,-0.004 0.011906,0 0.013891,0.0159 0.00397,0.0159 -0.00397,0.0218 -0.015875,0.0119 -0.039688,0.0278 -0.023813,0.0159 -0.053578,0.0318 -0.027781,0.0179 -0.055562,0.0337 -0.027781,0.0159 -0.047625,0.0278 -0.011906,0.006 -0.035719,0.0179 -0.021828,0.0139 -0.045641,0.0258 -0.021828,0.0139 -0.041672,0.0218 -0.019844,0.01 -0.025797,0.01 -0.00992,0 -0.019844,-0.01 -0.00794,-0.01 -0.00794,-0.0179 0,-0.01 0.00198,-0.0119 0.00198,0 0.00794,-0.004 0.011906,-0.008 0.03175,-0.0198 0.021828,-0.0119 0.03175,-0.0516 0.00794,-0.0337 0.015875,-0.10319 0.00794,-0.0694 0.013891,-0.16074 0.00595,-0.0933 0.00992,-0.2024 0.00397,-0.11113 0.00397,-0.22821 0,-0.0436 0,-0.0833 0,-0.0417 -0.00198,-0.0734 -0.00397,0 -0.03175,-0.002 -0.025797,-0.004 -0.055563,-0.008 -0.029766,-0.004 -0.055562,-0.008 -0.023813,-0.006 -0.023813,-0.0139 0,-0.004 -0.00198,-0.0119 0,-0.008 0.015875,-0.0238 0.015875,-0.0159 0.037703,-0.0357 0.023813,-0.0198 0.045641,-0.0397 0.021828,-0.0198 0.039687,-0.0357 0.019844,-0.0159 0.029766,-0.0258 0.00198,-0.0595 0.00198,-0.10716 0.00198,-0.0496 0.00595,-0.0893 0.00397,-0.0496 0.015875,-0.0774 0.011906,-0.0298 0.033734,-0.0556 0.023813,-0.0278 0.093266,-0.0695 0.069453,-0.0437 0.1647031,-0.0893 0.033734,-0.0159 0.057547,-0.0278 0.025797,-0.0119 0.049609,-0.0179 0.023813,-0.008 0.049609,-0.0119 0.025797,-0.004 0.059531,-0.004 0.087312,0 0.1488281,0.0198 0.0635,0.0179 0.097234,0.0476 0,0.008 -0.025797,0.0337 -0.025797,0.0258 -0.059531,0.0595 -0.033734,0.0318 -0.067469,0.0655 -0.033734,0.0337 -0.049609,0.0575 -0.00595,0.01 -0.017859,0.006 -0.011906,-0.004 -0.00794,-0.0119 0.00397,-0.008 0.00595,-0.0159 0.00397,-0.008 0.00397,-0.0198 0,-0.0536 -0.053578,-0.0933 -0.053578,-0.0397 -0.1369218,-0.0397 -0.047625,0 -0.079375,0.0298 -0.03175,0.0278 -0.049609,0.0952 -0.015875,0.0635 -0.023813,0.14883 -0.00595,0.0833 -0.00992,0.21431 0.027781,0.006 0.071438,0.01 0.045641,0.002 0.097234,0.002 0.033734,0 0.073422,0 0.041672,0 0.079375,-0.002 0.039687,-0.002 0.073422,-0.004 0.035719,-0.004 0.057547,-0.01 0.00794,0.008 0.00794,0.0179 -0.027781,0.0417 -0.087312,0.0695 -0.059531,0.0258 -0.1289844,0.0437 -0.067469,0.0159 -0.1369218,0.0218 -0.067469,0.006 -0.111125,0.006 0,0.0337 -0.00198,0.0953 -0.00198,0.0595 -0.00397,0.12899 -0.00198,0.0694 -0.00397,0.14089 0,0.0694 0,0.12502 0,0.0456 0,0.0893 0.00198,0.0437 0.00397,0.0774 0.00198,0.0337 0.00595,0.0575 0.00595,0.0218 0.015875,0.0258 z"/><path id="path4729" d="m 4.3199692,202.65936 q 0,0.0417 0.00198,0.0814 0.00198,0.0377 0.013891,0.0655 0.011906,0.0278 0.035719,0.0456 0.023813,0.0159 0.067469,0.0159 0.021828,0 0.049609,-0.004 0.027781,-0.006 0.051594,-0.0139 0.025797,-0.008 0.043656,-0.0159 0.019844,-0.008 0.023813,-0.0119 0.00595,-0.006 0.00794,0 0.00198,0.006 0,0.0159 0,0.008 -0.00397,0.0179 -0.00397,0.008 -0.00992,0.0119 -0.019844,0.01 -0.069453,0.0357 -0.049609,0.0258 -0.1170782,0.0536 -0.0635,0.0278 -0.1250156,0.0476 -0.059531,0.0179 -0.099219,0.0179 -0.045641,0 -0.071438,-0.0278 -0.025797,-0.0278 -0.025797,-0.0695 0,-0.0139 0,-0.0238 0.00198,-0.01 0.00397,-0.0258 0.00198,-0.0198 0.00595,-0.0714 0.00595,-0.0536 0.00992,-0.11907 0.00595,-0.0655 0.00992,-0.13096 0.00397,-0.0675 0.00397,-0.1151 l 0,-0.0694 q 0,-0.0516 -0.00595,-0.0913 -0.00595,-0.0397 -0.019844,-0.0615 -0.00992,-0.0139 -0.025797,-0.0218 -0.013891,-0.01 -0.035719,-0.01 -0.011906,0 -0.023813,0.006 -0.011906,0.004 -0.017859,0.004 -0.00397,0 -0.013891,-0.0119 -0.00794,-0.0119 0.00198,-0.0179 0.013891,-0.01 0.057547,-0.0317 0.043656,-0.0218 0.09525,-0.0476 0.055562,-0.0278 0.1071563,-0.0476 0.051594,-0.0218 0.073422,-0.0218 0.021828,0 0.029766,0.0139 0.00794,0.0119 0.00794,0.0278 l 0,0.008 q 0,0.0198 -0.00595,0.0635 -0.00595,0.0437 -0.013891,0.10716 -0.00595,0.0635 -0.011906,0.14684 -0.00595,0.0833 -0.00595,0.18058 l 0,0.0952 z m -0.079375,-1.03188 q 0.00992,0.002 0.03175,0.0218 0.023813,0.0198 0.047625,0.0456 0.023813,0.0258 0.041672,0.0496 0.017859,0.0238 0.017859,0.0317 0,0.01 -0.023813,0.0298 -0.023813,0.0198 -0.055562,0.0417 -0.029766,0.0198 -0.059531,0.0357 -0.027781,0.0159 -0.039688,0.0159 -0.00595,0 -0.029766,-0.0179 -0.021828,-0.0198 -0.045641,-0.0437 -0.023813,-0.0238 -0.043656,-0.0456 -0.017859,-0.0238 -0.017859,-0.0318 0,-0.01 0.025797,-0.0298 0.025797,-0.0218 0.055563,-0.0437 0.03175,-0.0238 0.059531,-0.0397 0.029766,-0.0179 0.035719,-0.0199 z"/><path id="path4731" d="m 5.2217436,202.80223 q 0.011906,0.008 0.011906,0.0198 0,0.0159 -0.045641,0.0417 -0.047625,0.0278 -0.127,0.0655 -0.077391,0.0377 -0.1547813,0.0655 -0.037703,0.0139 -0.067469,0.0238 -0.029766,0.01 -0.053578,0.01 -0.027781,0 -0.069453,-0.0139 -0.039688,-0.0119 -0.069453,-0.0298 -0.023813,-0.0159 -0.037703,-0.0238 -0.013891,-0.01 -0.013891,-0.0198 0,-0.008 0.00397,-0.0139 0.00595,-0.008 0.00992,-0.0179 0.00198,-0.006 0.00397,-0.0159 0.00198,-0.01 0.00198,-0.0198 0.00595,-0.0496 0.011906,-0.14288 0.00794,-0.0953 0.011906,-0.20835 0.00397,-0.1151 0.00595,-0.23615 0.00397,-0.12303 0.00397,-0.2282 0,-0.12898 -0.00198,-0.20836 0,-0.0794 -0.00397,-0.127 -0.00595,-0.0655 -0.015875,-0.0853 -0.00992,-0.0218 -0.021828,-0.0318 -0.013891,-0.0119 -0.027781,-0.0139 -0.011906,-0.004 -0.023813,-0.004 -0.00992,-0.002 -0.017859,-0.002 -0.00595,0 -0.00595,-0.004 0,-0.0655 0.055562,-0.0655 0.041672,0 0.097234,0.002 0.057547,0 0.09525,0 0.023813,0 0.049609,-0.002 0.027781,-0.004 0.053578,-0.006 0.025797,-0.004 0.047625,-0.008 0.021828,-0.004 0.03175,-0.008 0.00794,-0.002 0.011906,0.006 0.00595,0.008 0.00595,0.0198 0.00198,0.0119 -0.00397,0.0218 -0.00397,0.01 -0.011906,0.0119 -0.011906,0.002 -0.021828,0.002 -0.00794,0 -0.029766,0.008 -0.00992,0.004 -0.017859,0.0258 -0.00794,0.0198 -0.013891,0.0655 -0.00595,0.0437 -0.011906,0.11708 -0.00595,0.0714 -0.011906,0.18058 -0.00595,0.0873 -0.00992,0.17859 -0.00198,0.0893 -0.00595,0.17463 -0.00198,0.0853 -0.00397,0.15875 0,0.0734 0,0.12501 0,0.0575 0,0.11708 0.00198,0.0576 0.011906,0.0913 0.00992,0.0317 0.051594,0.0595 0.041672,0.0278 0.087313,0.0278 0.035719,0 0.073422,-0.01 0.037703,-0.01 0.069453,-0.0238 0.03175,-0.0139 0.055562,-0.0278 0.025797,-0.0139 0.037703,-0.0218 z"/><path id="path4733" d="m 6.0302524,202.72881 q 0.00397,-0.004 0.00595,0.002 0.00397,0.004 0.00397,0.0139 0.00198,0.008 0,0.0179 -0.00198,0.01 -0.00794,0.0159 -0.039687,0.0377 -0.099219,0.0794 -0.059531,0.0417 -0.1230313,0.0774 -0.017859,0.01 -0.049609,0.0258 -0.03175,0.0159 -0.071438,0.0317 -0.037703,0.0139 -0.079375,0.0238 -0.039687,0.0119 -0.075406,0.0119 -0.071438,0 -0.1349375,-0.0278 -0.0635,-0.0278 -0.111125,-0.0754 -0.047625,-0.0496 -0.075406,-0.11707 -0.025797,-0.0675 -0.025797,-0.14685 0,-0.0853 0.023813,-0.16073 0.023813,-0.0754 0.053578,-0.13494 0.03175,-0.0595 0.059531,-0.0992 0.027781,-0.0417 0.037703,-0.0615 -0.037703,-0.002 -0.069453,-0.002 -0.029766,-0.002 -0.057547,-0.002 -0.0635,0 -0.1071563,0.002 -0.043656,0 -0.077391,0.008 -0.015875,0.004 -0.029766,0.0159 -0.013891,0.0119 -0.023813,0.0179 -0.00397,-0.004 -0.00992,-0.01 -0.00794,-0.008 -0.00794,-0.0159 0,-0.004 0.00198,-0.006 0,-0.002 0.025797,-0.0218 0.025797,-0.0218 0.0635,-0.0496 0.039688,-0.0298 0.085328,-0.0635 0.047625,-0.0357 0.089297,-0.0655 0.043656,-0.0298 0.073422,-0.0496 0.03175,-0.0218 0.041672,-0.0258 0.011906,-0.004 0.023813,0.004 0.011906,0.008 0.00794,0.0119 -0.00595,0.004 -0.017859,0.0159 -0.011906,0.01 -0.00794,0.0179 0.021828,0.0179 0.075406,0.0318 0.053578,0.0139 0.1210468,0.0238 0.067469,0.008 0.1389063,0.0139 0.071438,0.004 0.1289844,0.004 0.085328,0 0.1369218,-0.004 0.051594,-0.006 0.085328,-0.0139 0.03175,-0.008 0.041672,-0.0119 0.00198,0 0.00794,0.006 0.00595,0.006 0.00595,0.0139 0,0.004 -0.029766,0.0198 -0.027781,0.0159 -0.057547,0.0337 -0.017859,0.01 -0.043656,0.0258 -0.023813,0.0159 -0.053578,0.0318 -0.027781,0.0139 -0.059531,0.0258 -0.03175,0.0119 -0.061516,0.0139 -0.029766,0.004 -0.069453,0.006 -0.039687,0.002 -0.083344,0.004 -0.043656,0 -0.089297,0.002 -0.043656,0 -0.081359,0 -0.00595,0.01 -0.019844,0.0337 -0.011906,0.0218 -0.023813,0.0575 -0.011906,0.0357 -0.021828,0.0814 -0.00992,0.0456 -0.00992,0.0992 0,0.0814 0.023813,0.15081 0.025797,0.0675 0.069453,0.11708 0.045641,0.0496 0.1071562,0.0774 0.061516,0.0278 0.1329531,0.0278 0.041672,0 0.079375,-0.01 0.039688,-0.01 0.073422,-0.0258 0.035719,-0.0159 0.065484,-0.0337 0.029766,-0.0198 0.051594,-0.0377 l 0.023813,-0.0218 z"/><path id="path4735" d="m 6.9445532,202.77247 q -0.021828,0.0238 -0.067469,0.0655 -0.045641,0.0417 -0.111125,0.0833 -0.0635,0.0417 -0.142875,0.0714 -0.079375,0.0298 -0.1686719,0.0298 -0.081359,0 -0.15875,-0.0238 -0.077391,-0.0258 -0.1389063,-0.0754 -0.061516,-0.0516 -0.099219,-0.12899 -0.035719,-0.0794 -0.035719,-0.18851 0,-0.0893 0.011906,-0.1528 0.011906,-0.0655 0.03175,-0.11311 0.019844,-0.0496 0.043656,-0.0833 0.025797,-0.0357 0.051594,-0.0635 0.03175,-0.0357 0.077391,-0.0675 0.045641,-0.0318 0.097234,-0.0576 0.053578,-0.0258 0.111125,-0.0397 0.059531,-0.0159 0.1190625,-0.0159 0.1071562,0 0.1666875,0.0357 0.061516,0.0357 0.061516,0.0992 0,0.0397 -0.023813,0.0734 0.019844,-0.006 0.049609,-0.0198 0.03175,-0.0139 0.0635,-0.0278 0.03175,-0.0159 0.055563,-0.0278 0.025797,-0.0119 0.033734,-0.0179 0.00397,-0.004 0.00794,-0.002 0.00595,0 0.00595,0.006 0,0.0258 -0.00992,0.0437 -0.00992,0.0159 -0.023813,0.0258 -0.03175,0.0198 -0.091281,0.0496 -0.059531,0.0298 -0.1329532,0.0635 -0.071438,0.0318 -0.1488281,0.0655 -0.077391,0.0317 -0.1468437,0.0615 -0.067469,0.0298 -0.1190625,0.0536 -0.049609,0.0218 -0.067469,0.0317 0,0.0675 0.025797,0.127 0.027781,0.0575 0.075406,0.10121 0.047625,0.0436 0.1131094,0.0694 0.067469,0.0238 0.1468438,0.0238 0.071438,0 0.1289843,-0.0139 0.057547,-0.0159 0.097234,-0.0337 0.039687,-0.0199 0.061516,-0.0337 0.023813,-0.0159 0.025797,-0.0159 0.00794,0 0.015875,0.008 0.00794,0.006 0.00794,0.0139 z m -0.6985,-0.30361 q 0.033734,-0.0119 0.075406,-0.0278 0.043656,-0.0179 0.083344,-0.0377 0.041672,-0.0198 0.075406,-0.0377 0.033734,-0.0179 0.051594,-0.0317 0.035719,-0.0258 0.035719,-0.0873 0,-0.0238 -0.00992,-0.0496 -0.00794,-0.0258 -0.025797,-0.0456 -0.017859,-0.0218 -0.043656,-0.0337 -0.025797,-0.0139 -0.057547,-0.0139 -0.027781,0 -0.059531,0.0198 -0.03175,0.0179 -0.059531,0.0615 -0.027781,0.0417 -0.047625,0.11311 -0.017859,0.0694 -0.017859,0.17066 z"/><path id="path4737" d="m 7.8669775,202.16128 q -0.021828,0.0179 -0.051594,0.0456 -0.029766,0.0258 -0.0635,0.0516 -0.03175,0.0238 -0.065484,0.0417 -0.033734,0.0179 -0.065484,0.0179 -0.027781,0 -0.049609,-0.0119 -0.021828,-0.0139 -0.041672,-0.0278 -0.017859,-0.0159 -0.035719,-0.0278 -0.017859,-0.0139 -0.037703,-0.0139 -0.053578,0 -0.091281,0.0436 -0.035719,0.0437 -0.059531,0.11113 -0.021828,0.0675 -0.033734,0.14684 -0.00992,0.0794 -0.00992,0.1528 0,0.0615 0.00397,0.1012 0.00595,0.0377 0.015875,0.0615 0.00992,0.0218 0.025797,0.0298 0.017859,0.008 0.041672,0.008 0.025797,0 0.055562,-0.008 0.00595,-0.002 0.00794,0.008 0.00397,0.01 0.00397,0.0159 0,0.004 -0.00595,0.01 -0.00595,0.004 -0.00794,0.004 -0.043656,0.0179 -0.089297,0.0397 -0.045641,0.0198 -0.075406,0.0337 -0.027781,0.0119 -0.067469,0.0258 -0.037703,0.0139 -0.065484,0.0139 -0.03175,0 -0.053578,-0.01 -0.019844,-0.01 -0.019844,-0.0198 0,-0.01 0.00397,-0.0179 0.00595,-0.008 0.00992,-0.0298 0.00397,-0.0298 0.00794,-0.0694 0.00595,-0.0417 0.00992,-0.0893 0.00595,-0.0476 0.00794,-0.0972 0.00397,-0.0516 0.00397,-0.1012 0,-0.11113 -0.00794,-0.18852 -0.00595,-0.0774 -0.023813,-0.12502 -0.017859,-0.0476 -0.049609,-0.0675 -0.029766,-0.0218 -0.077391,-0.0218 -0.00992,0 -0.017859,0 -0.00794,0 -0.015875,0.002 -0.011906,0 -0.011906,-0.0119 0,-0.0119 0.011906,-0.0179 0.021828,-0.0139 0.067469,-0.0397 0.045641,-0.0278 0.093266,-0.0516 0.049609,-0.0258 0.09525,-0.0457 0.045641,-0.0198 0.067469,-0.0198 0.025797,0 0.043656,0.0179 0.017859,0.0159 0.025797,0.0417 0.00992,0.0258 0.013891,0.0595 0.00397,0.0318 0.00397,0.0635 0,0.0238 -0.00198,0.0496 0,0.0258 0,0.0556 0.089297,-0.13097 0.1607344,-0.20241 0.071438,-0.0734 0.1349375,-0.0734 0.023813,0 0.045641,0.0198 0.023813,0.0198 0.049609,0.0456 0.025797,0.0238 0.053578,0.0437 0.027781,0.0198 0.057547,0.0198 0.025797,0 0.037703,-0.006 0.011906,-0.006 0.019844,-0.01 0.015875,0 0.015875,0.0218 l 0,0.002 z"/></g><g id="g4599" clip-path="url(#clipPath4668)" transform="translate(-7.875766,196.49672)"><g style="display:inline" id="layer1-0" transform="translate(0,-196.45832)"><g id="g5028" transform="translate(-3.9687498,0)"><path style="opacity:1;fill:url(#radialGradient5357);fill-opacity:1;stroke:#8b8b8b;stroke-width:.39687502;stroke-linejoin:miter;stroke-miterlimit:4;stroke-dasharray:none;stroke-opacity:1" id="path5329" d="m 31.483446,294.93321 -17.042828,-0.12503 -14.4172474,0.12503 -0.87873195,-3.46985 c 4.80992545,-1.00484 10.75039865,-1.72449 16.17117335,-1.71947 5.715286,0.005 9.886121,0.46573 17.046366,1.84449 z" clip-path="url(#clipPath5193-7)"/><path id="rect5381-9" d="M -1.0865176e-6,291.9933 C 10.904412,290.78346 21.545669,291.00362 31.750002,292.11599 l -0.03339,3.29649 -31.7166130865176,0 z" clip-path="url(#clipPath5189-4)" transform="matrix(1,0,0,1.365928,0,-106.55059)" style="opacity:1;fill:#000;fill-opacity:1;stroke:none;stroke-width:1.00699997;stroke-linejoin:miter;stroke-miterlimit:4;stroke-dasharray:none;stroke-opacity:1"/><g style="stroke-width:.53158021;stroke-miterlimit:4;stroke-dasharray:none" id="g5442" transform="matrix(0.20349343,0,0,0.39075303,20.813637,177.78859)"><path style="fill:#000;fill-opacity:1;fill-rule:evenodd;stroke:#fff;stroke-width:.53158021;stroke-linecap:butt;stroke-linejoin:miter;stroke-miterlimit:4;stroke-dasharray:none;stroke-opacity:1" id="path5444" d="m 14.983377,294.24124 c 0.20915,-1.01247 1.870548,-3.90915 3.617048,-3.86235 0.375386,0.12341 0.384796,2.70824 0.429141,3.78052 l -1.430471,0.33719 z"/><path style="fill:none;fill-rule:evenodd;stroke:#fff;stroke-width:.53158021;stroke-linecap:butt;stroke-linejoin:miter;stroke-miterlimit:4;stroke-dasharray:none;stroke-opacity:1" id="path5446" d="m 18.590207,290.43006 c -0.449576,1.15119 -1.001329,2.80304 -1.001329,4.03597"/><path id="path5448" d="m 18.375636,290.39941 c -1.123897,1.65973 -1.840905,2.74056 -1.788088,3.96443" style="fill:none;fill-rule:evenodd;stroke:#fff;stroke-width:.53158021;stroke-linecap:butt;stroke-linejoin:miter;stroke-miterlimit:4;stroke-dasharray:none;stroke-opacity:1"/><path style="fill:none;fill-rule:evenodd;stroke:#fff;stroke-width:.53158021;stroke-linecap:butt;stroke-linejoin:miter;stroke-miterlimit:4;stroke-dasharray:none;stroke-opacity:1" id="path5450" d="m 17.823883,290.52202 c -1.317216,1.67113 -1.953336,2.56573 -2.0844,3.76008"/></g><g style="stroke-width:.28798857;stroke-miterlimit:4;stroke-dasharray:none" id="g5432" transform="matrix(0.50086081,0,0,0.81335643,12.728395,54.142102)"><path id="path5434" d="m 14.983377,294.24124 c 0.20915,-1.01247 1.870548,-3.90915 3.617048,-3.86235 0.375386,0.12341 0.384796,2.70824 0.429141,3.78052 l -1.430471,0.33719 z" style="fill:#000;fill-opacity:1;fill-rule:evenodd;stroke:#fff;stroke-width:.28798857;stroke-linecap:butt;stroke-linejoin:miter;stroke-miterlimit:4;stroke-dasharray:none;stroke-opacity:1"/><path id="path5436" d="m 18.590207,290.43006 c -0.449576,1.15119 -1.001329,2.80304 -1.001329,4.03597" style="fill:none;fill-rule:evenodd;stroke:#fff;stroke-width:.28798857;stroke-linecap:butt;stroke-linejoin:miter;stroke-miterlimit:4;stroke-dasharray:none;stroke-opacity:1"/><path style="fill:none;fill-rule:evenodd;stroke:#fff;stroke-width:.28798857;stroke-linecap:butt;stroke-linejoin:miter;stroke-miterlimit:4;stroke-dasharray:none;stroke-opacity:1" id="path5438" d="m 18.375636,290.39941 c -1.123897,1.65973 -1.840905,2.74056 -1.788088,3.96443"/><path id="path5440" d="m 17.823883,290.52202 c -1.317216,1.67113 -1.953336,2.56573 -2.0844,3.76008" style="fill:none;fill-rule:evenodd;stroke:#fff;stroke-width:.28798857;stroke-linecap:butt;stroke-linejoin:miter;stroke-miterlimit:4;stroke-dasharray:none;stroke-opacity:1"/></g><path id="path4187" d="m 14.199453,292.6152 a 2.800842,1.0121423 0 0 1 -2.800842,1.01215 2.800842,1.0121423 0 0 1 -2.800842,-1.01215 2.800842,1.0121423 0 0 1 2.800842,-1.01214 2.800842,1.0121423 0 0 1 2.800842,1.01214 z" clip-path="url(#clipPath5181-5)" style="opacity:0;fill:url(#linearGradient4195);fill-opacity:1;stroke:none;stroke-width:.2;stroke-miterlimit:4;stroke-dasharray:none;stroke-opacity:1"/><path id="path4209" d="m 2.826339,292.08697 3.148468,-1.95398 0.6343206,1.31705 0.6173183,-1.15103 0.3763457,0.8637 -0.00717,-1.08548 1.0063768,1.04201 0.5568003,-1.20587 0.6385414,1.08288 0.4341889,-0.67455 0.5568,0.75592 0.720283,-1.04239 0.148094,1.08288 1.292471,-1.12413 -0.469431,1.82691 -8.4407986,0.25065 z" clip-path="url(#clipPath5177-0)" transform="matrix(1.3757714,0,0,1.300851,-1.514541,-87.749882)" style="fill:#000;fill-opacity:1;fill-rule:evenodd;stroke:none;stroke-width:1px;stroke-linecap:butt;stroke-linejoin:miter;stroke-opacity:1"/><g style="stroke-width:.15351227;stroke-miterlimit:4;stroke-dasharray:none" id="g5426" transform="matrix(0.89623809,0,0,1.1743718,3.501766,-51.238147)"><path style="fill:#000;fill-opacity:1;fill-rule:evenodd;stroke:#fff;stroke-width:.15351227;stroke-linecap:butt;stroke-linejoin:miter;stroke-miterlimit:4;stroke-dasharray:none;stroke-opacity:1" id="path5417" d="m 14.983377,294.24124 c 0.20915,-1.01247 1.870548,-3.90915 3.617048,-3.86235 0.375386,0.12341 0.384796,2.70824 0.429141,3.78052 l -1.430471,0.33719 z"/><path style="fill:none;fill-rule:evenodd;stroke:#fff;stroke-width:.15351227;stroke-linecap:butt;stroke-linejoin:miter;stroke-miterlimit:4;stroke-dasharray:none;stroke-opacity:1" id="path5419" d="m 18.590207,290.43006 c -0.449576,1.15119 -1.001329,2.80304 -1.001329,4.03597"/><path id="path5421" d="m 18.375636,290.39941 c -1.123897,1.65973 -1.840905,2.74056 -1.788088,3.96443" style="fill:none;fill-rule:evenodd;stroke:#fff;stroke-width:.15351227;stroke-linecap:butt;stroke-linejoin:miter;stroke-miterlimit:4;stroke-dasharray:none;stroke-opacity:1"/><path style="fill:none;fill-rule:evenodd;stroke:#fff;stroke-width:.15351227;stroke-linecap:butt;stroke-linejoin:miter;stroke-miterlimit:4;stroke-dasharray:none;stroke-opacity:1" id="path5424" d="m 17.823883,290.52202 c -1.317216,1.67113 -1.953336,2.56573 -2.0844,3.76008"/></g><g style="font-style:normal;font-variant:normal;font-weight:400;font-stretch:normal;font-size:1.98437512px;font-family:Luminari;-inkscape-font-specification:Luminari;fill:#fff;fill-opacity:1;stroke:none;stroke-width:3.54330707;stroke-miterlimit:4;stroke-dasharray:none;stroke-opacity:1" id="text4680"><path id="path4704" d="m 13.3876,296.30052 q -0.01588,0.01 -0.02977,0.0337 -0.01389,0.0218 -0.01786,0.0337 -0.002,0.004 -0.01191,0.006 -0.0079,0.004 -0.01191,0.004 -0.01786,0 -0.01786,-0.0179 0,-0.006 0.01587,-0.0317 0.01191,-0.0198 0.0377,-0.0615 0.0258,-0.0436 0.05159,-0.0873 0.02778,-0.0456 0.04961,-0.0814 0.02381,-0.0377 0.03374,-0.0496 0.0099,-0.01 0.02381,-0.002 0.01389,0.006 0.0079,0.0159 -0.004,0.004 -0.006,0.01 -0.002,0.006 -0.002,0.0198 0,0.0179 0.02977,0.0456 0.03175,0.0258 0.07937,0.0516 0.04763,0.0238 0.105172,0.0417 0.05755,0.0179 0.113109,0.0179 0.06548,0 0.103187,-0.0377 0.03969,-0.0377 0.03969,-0.0992 0,-0.0695 -0.04366,-0.10318 -0.04366,-0.0337 -0.109141,-0.0516 -0.0635,-0.0179 -0.140891,-0.0278 -0.07541,-0.0119 -0.14089,-0.0337 -0.0635,-0.0218 -0.107156,-0.0635 -0.04366,-0.0417 -0.04366,-0.12105 0,-0.0615 0.04167,-0.12502 0.04366,-0.0635 0.11311,-0.11311 0.07144,-0.0496 0.162718,-0.0814 0.09128,-0.0317 0.1905,-0.0317 0.02977,0 0.06945,0.006 0.03969,0.006 0.07739,0.0159 0.03969,0.008 0.07144,0.0179 0.03373,0.008 0.04961,0.0139 0.004,0 -0.002,0.0159 -0.006,0.0179 -0.02977,0.0556 -0.02381,0.0357 -0.05358,0.0714 -0.02778,0.0357 -0.05358,0.0635 -0.02381,0.0278 -0.03374,0.0278 -0.002,0 -0.01191,0 -0.0099,0 -0.01389,-0.004 0.002,-0.01 0.002,-0.0258 0,-0.0694 -0.0635,-0.10914 -0.06152,-0.0397 -0.180578,-0.0397 -0.05755,0 -0.09525,0.0337 -0.03572,0.0337 -0.03572,0.0814 0,0.0774 0.04366,0.11509 0.04366,0.0377 0.109141,0.0575 0.06548,0.0179 0.14089,0.0278 0.07541,0.01 0.140891,0.0317 0.06548,0.0199 0.109141,0.0615 0.04366,0.0417 0.04366,0.12501 0,0.0377 -0.01587,0.0734 -0.01588,0.0357 -0.04167,0.0675 -0.0258,0.0317 -0.05755,0.0595 -0.03175,0.0258 -0.0635,0.0456 -0.02976,0.0198 -0.06747,0.0417 -0.0377,0.0198 -0.08136,0.0377 -0.04366,0.0179 -0.0893,0.0278 -0.04564,0.0119 -0.09128,0.0119 -0.02183,0 -0.06945,-0.01 -0.04763,-0.008 -0.09723,-0.0199 -0.04763,-0.0119 -0.08533,-0.0218 -0.0377,-0.0119 -0.03969,-0.0159 z"/><path id="path4706" d="m 15.545329,296.19138 q -0.02183,0.0179 -0.05953,0.0476 -0.0377,0.0298 -0.08731,0.0595 -0.04961,0.0298 -0.109141,0.0516 -0.05953,0.0198 -0.125015,0.0198 -0.09922,0 -0.17661,-0.0337 -0.07739,-0.0357 -0.130968,-0.0933 -0.05159,-0.0595 -0.07937,-0.1389 -0.0258,-0.0794 -0.0258,-0.16868 0,-0.10517 0.03175,-0.18653 0.03175,-0.0814 0.07739,-0.14089 0.04763,-0.0615 0.101203,-0.1012 0.05358,-0.0417 0.09724,-0.0655 0.01984,-0.0119 0.04961,-0.0258 0.03175,-0.0139 0.06747,-0.0258 0.0377,-0.0119 0.07938,-0.0198 0.04366,-0.01 0.0893,-0.01 0.08533,0 0.164703,0.0218 0.08136,0.0218 0.142875,0.0695 0.06152,0.0456 0.09922,0.11906 0.0377,0.0734 0.0377,0.17661 0,0.0833 -0.03175,0.15676 -0.02977,0.0734 -0.07144,0.13097 -0.04167,0.0575 -0.08334,0.0992 -0.03969,0.0397 -0.05755,0.0575 z m -0.224235,0.0318 q 0.11311,0 0.172641,-0.0853 0.06152,-0.0853 0.06152,-0.26194 0,-0.0893 -0.0258,-0.1647 -0.02381,-0.0774 -0.06945,-0.13494 -0.04366,-0.0575 -0.103188,-0.0893 -0.05953,-0.0337 -0.128984,-0.0337 -0.04961,0 -0.09525,0.0258 -0.04366,0.0258 -0.07739,0.0754 -0.03373,0.0476 -0.05358,0.11708 -0.01984,0.0695 -0.01984,0.15677 0,0.0933 0.02778,0.16669 0.02977,0.0734 0.07739,0.12501 0.04763,0.0496 0.107156,0.0774 0.06152,0.0258 0.127,0.0258 z"/><path id="path4708" d="m 16.324661,295.53058 q -0.01587,-0.004 -0.01587,-0.0159 0.002,-0.0119 0.01587,-0.0139 0.006,-0.002 0.0377,-0.0139 0.03175,-0.0119 0.07541,-0.0278 0.04564,-0.0159 0.09327,-0.0337 0.04961,-0.0179 0.08731,-0.0298 0.02381,-0.008 0.03175,-0.01 0.0099,-0.004 0.01587,-0.004 0.006,0 0.01389,0.006 0.0079,0.004 0.004,0.0139 -0.006,0.0159 -0.01389,0.0754 -0.006,0.0595 -0.01191,0.13296 -0.006,0.0714 -0.01191,0.14287 -0.004,0.0714 -0.004,0.11311 0,0.15875 0.06747,0.24606 0.06747,0.0853 0.210344,0.0853 0.07342,0 0.121047,-0.0298 0.04961,-0.0298 0.07541,-0.0695 0.01786,-0.0258 0.02381,-0.11311 0,-0.0159 0,-0.0417 0.002,-0.0258 0.002,-0.0536 0.002,-0.0298 0.002,-0.0556 0.002,-0.0278 0.002,-0.0456 0.002,-0.0913 -0.006,-0.16867 -0.006,-0.0794 -0.01984,-0.11708 -0.006,-0.0238 -0.02381,-0.0238 -0.01191,0 -0.02381,0.002 -0.0099,0 -0.01191,-0.0179 0,-0.006 0.01191,-0.0119 0.01191,-0.008 0.04564,-0.0218 0.03175,-0.0119 0.06945,-0.0238 0.03969,-0.0119 0.07739,-0.0199 0.0377,-0.008 0.06747,-0.01 0.02977,-0.004 0.04366,0.002 0,0.002 0.002,0.006 0.004,0.002 0.006,0.0119 0.004,0.0119 -0.006,0.0754 -0.0079,0.0615 -0.01786,0.20241 -0.0079,0.0972 -0.01389,0.18851 -0.006,0.0913 -0.006,0.13891 0,0.0933 0.03374,0.14883 0.03572,0.0536 0.08731,0.0536 0.03373,0 0.0635,-0.0139 0.03175,-0.0139 0.04564,-0.0238 0.01588,0 0.01588,0.0139 0.002,0.0139 -0.006,0.0179 -0.02977,0.0198 -0.08334,0.0496 -0.05159,0.0298 -0.109141,0.0575 -0.05556,0.0258 -0.107156,0.0456 -0.05159,0.0179 -0.08334,0.0179 -0.01588,0 -0.02977,-0.0199 -0.01191,-0.0218 -0.01984,-0.0516 -0.0079,-0.0298 -0.01191,-0.0615 -0.004,-0.0317 -0.004,-0.0556 -0.04167,0.0298 -0.09525,0.0635 -0.05358,0.0317 -0.111125,0.0615 -0.05755,0.0278 -0.115094,0.0456 -0.05556,0.0179 -0.103187,0.0179 -0.121047,0 -0.198438,-0.0635 -0.07739,-0.0655 -0.07739,-0.16867 0,-0.0218 0.004,-0.0655 0.004,-0.0437 0.0099,-0.0992 0.006,-0.0556 0.0099,-0.11906 0.004,-0.0635 0.004,-0.12303 0,-0.0913 -0.02977,-0.13891 -0.02778,-0.0496 -0.07342,-0.0556 l -0.03175,-0.004 z"/><path id="path4710" d="m 18.957431,296.0743 q 0.004,-0.004 0.006,0.002 0.004,0.004 0.004,0.0139 0.002,0.008 0,0.0179 -0.002,0.01 -0.0079,0.0159 -0.03969,0.0377 -0.09922,0.0794 -0.05953,0.0417 -0.123032,0.0774 -0.01786,0.01 -0.04961,0.0258 -0.03175,0.0159 -0.07144,0.0317 -0.0377,0.0139 -0.07937,0.0238 -0.03969,0.0119 -0.07541,0.0119 -0.07144,0 -0.134937,-0.0278 -0.0635,-0.0278 -0.111125,-0.0754 -0.04763,-0.0496 -0.07541,-0.11707 -0.0258,-0.0675 -0.0258,-0.14685 0,-0.0853 0.02381,-0.16073 0.02381,-0.0754 0.05358,-0.13494 0.03175,-0.0595 0.05953,-0.0992 0.02778,-0.0417 0.0377,-0.0615 -0.0377,-0.002 -0.06945,-0.002 -0.02976,-0.002 -0.05755,-0.002 -0.0635,0 -0.107157,0.002 -0.04366,0 -0.07739,0.008 -0.01588,0.004 -0.02977,0.0159 -0.01389,0.0119 -0.02381,0.0179 -0.004,-0.004 -0.0099,-0.01 -0.0079,-0.008 -0.0079,-0.0159 0,-0.004 0.002,-0.006 0,-0.002 0.0258,-0.0218 0.0258,-0.0218 0.0635,-0.0496 0.03969,-0.0298 0.08533,-0.0635 0.04763,-0.0357 0.0893,-0.0655 0.04366,-0.0298 0.07342,-0.0496 0.03175,-0.0218 0.04167,-0.0258 0.01191,-0.004 0.02381,0.004 0.01191,0.008 0.0079,0.0119 -0.006,0.004 -0.01786,0.0159 -0.01191,0.01 -0.0079,0.0179 0.02183,0.0179 0.07541,0.0318 0.05358,0.0139 0.121046,0.0238 0.06747,0.008 0.138907,0.0139 0.07144,0.004 0.128984,0.004 0.08533,0 0.136922,-0.004 0.05159,-0.006 0.08533,-0.0139 0.03175,-0.008 0.04167,-0.0119 0.002,0 0.0079,0.006 0.006,0.006 0.006,0.0139 0,0.004 -0.02977,0.0198 -0.02778,0.0159 -0.05755,0.0337 -0.01786,0.01 -0.04366,0.0258 -0.02381,0.0159 -0.05358,0.0318 -0.02778,0.0139 -0.05953,0.0258 -0.03175,0.0119 -0.06151,0.0139 -0.02977,0.004 -0.06945,0.006 -0.03969,0.002 -0.08334,0.004 -0.04366,0 -0.0893,0.002 -0.04366,0 -0.08136,0 -0.006,0.01 -0.01984,0.0337 -0.01191,0.0218 -0.02381,0.0575 -0.01191,0.0357 -0.02183,0.0814 -0.0099,0.0456 -0.0099,0.0992 0,0.0814 0.02381,0.15081 0.0258,0.0675 0.06945,0.11708 0.04564,0.0496 0.107156,0.0774 0.06152,0.0278 0.132953,0.0278 0.04167,0 0.07937,-0.01 0.03969,-0.01 0.07342,-0.0258 0.03572,-0.0159 0.06548,-0.0337 0.02977,-0.0198 0.05159,-0.0377 l 0.02381,-0.0218 z"/><path id="path4712" d="m 19.714098,295.57821 q 0.03969,-0.0357 0.0893,-0.0734 0.04961,-0.0397 0.103187,-0.0714 0.05556,-0.0337 0.115094,-0.0536 0.05953,-0.0218 0.121047,-0.0218 0.07144,0 0.132953,0.0238 0.0635,0.0218 0.111125,0.0655 0.04763,0.0436 0.07541,0.10517 0.02778,0.0595 0.02778,0.13494 0,0.15279 -0.05358,0.28178 -0.05159,0.127 -0.123031,0.22423 -0.06945,0.0953 -0.138906,0.15875 -0.06945,0.0635 -0.103188,0.0833 -0.0099,0.006 -0.01984,-0.004 -0.0099,-0.01 0,-0.0218 0.01587,-0.0119 0.04763,-0.0595 0.03373,-0.0456 0.06747,-0.11708 0.03374,-0.0714 0.05953,-0.16272 0.0258,-0.0913 0.0258,-0.19645 0,-0.0873 -0.02183,-0.15478 -0.01984,-0.0675 -0.05556,-0.11311 -0.03572,-0.0456 -0.08334,-0.0695 -0.04564,-0.0238 -0.09922,-0.0238 -0.03572,0 -0.07541,0.0119 -0.03969,0.01 -0.07342,0.0298 -0.03572,0.0218 -0.06945,0.0536 -0.03373,0.0317 -0.04961,0.0655 -0.004,0.008 -0.0079,0.0159 -0.002,0.006 -0.006,0.0199 -0.002,0.0119 -0.006,0.0317 -0.002,0.0198 -0.004,0.0536 -0.006,0.0575 -0.0099,0.11311 -0.002,0.0536 -0.002,0.12899 0,0.0972 0.01191,0.15081 0.01191,0.0516 0.06945,0.0595 0.006,0 0.01389,0 0.0079,-0.002 0.01786,-0.004 0.0079,-0.002 0.01984,-0.006 0.006,0 0.0079,0.006 0.004,0.006 0.004,0.0119 0,0.006 -0.02183,0.0179 -0.02183,0.0119 -0.05556,0.0258 -0.03373,0.0119 -0.07541,0.0258 -0.03969,0.0119 -0.07541,0.0238 -0.0377,0.01 -0.06548,0.0179 -0.0258,0.008 -0.03572,0.008 -0.05953,0 -0.05953,-0.0456 0,-0.01 0.0099,-0.0377 0.0099,-0.0278 0.01588,-0.0853 0.0079,-0.0833 0.01587,-0.18256 0.0079,-0.10121 0.01191,-0.20241 0.006,-0.1012 0.0079,-0.19844 0.004,-0.0972 0.004,-0.17462 0,-0.14288 -0.006,-0.2421 -0.004,-0.0992 -0.0079,-0.14089 -0.006,-0.0516 -0.01191,-0.0675 -0.006,-0.0179 -0.01389,-0.0317 -0.0099,-0.0179 -0.0258,-0.0238 -0.01389,-0.008 -0.02778,-0.01 -0.01191,-0.002 -0.02183,0 -0.0079,0 -0.0079,-0.004 0,-0.0278 0.01786,-0.0456 0.01786,-0.0179 0.04763,-0.0179 0.05755,0 0.119063,-0.002 0.06152,-0.002 0.113109,-0.006 0.04366,-0.004 0.07937,-0.0119 0.0377,-0.008 0.04961,-0.0119 0.01587,-0.002 0.01587,0.006 0.002,0.006 0.002,0.0238 0,0.0119 -0.0099,0.0179 -0.0099,0.006 -0.02183,0.01 -0.01191,0.004 -0.02381,0.008 -0.0099,0.002 -0.01389,0.008 -0.0079,0.0119 -0.01588,0.0734 -0.0079,0.0615 -0.01587,0.15677 -0.006,0.0933 -0.01191,0.20836 -0.004,0.11509 -0.006,0.23217 l 0.002,0.002 z"/><path id="path4714" d="m 21.838681,296.25885 q -0.0635,0.0397 -0.156765,0.0714 -0.09327,0.0317 -0.180578,0.0317 -0.02778,0 -0.0635,-0.004 -0.03374,-0.004 -0.05556,-0.008 -0.002,0.0377 -0.004,0.0774 0,0.0397 -0.002,0.0754 0,0.0377 -0.002,0.0695 0,0.0317 0,0.0536 0,0.1012 0.01587,0.13692 0.01786,0.0357 0.05358,0.0357 0.01786,0 0.04763,-0.006 0.03175,-0.004 0.05556,-0.0159 0.004,-0.004 0.0079,0.008 0.006,0.0119 0.006,0.0218 0,0.002 -0.02778,0.01 -0.02778,0.01 -0.07144,0.0218 -0.04167,0.0139 -0.09128,0.0278 -0.04961,0.0159 -0.09525,0.0278 -0.04564,0.0139 -0.07937,0.0218 -0.03175,0.008 -0.03969,0.008 -0.01191,0 -0.02183,-0.002 -0.0099,-0.002 -0.0099,-0.0179 0,-0.01 0.006,-0.0139 0.0079,-0.002 0.01191,-0.008 0.0099,-0.0119 0.01191,-0.0456 0.002,-0.0317 0.006,-0.0635 0.006,-0.0774 0.01191,-0.18455 0.0079,-0.10517 0.01389,-0.22225 0.006,-0.11509 0.0099,-0.23018 0.006,-0.11708 0.006,-0.21233 0,-0.13494 -0.01191,-0.21035 -0.0099,-0.0774 -0.02977,-0.11311 -0.01984,-0.0377 -0.04564,-0.0456 -0.02381,-0.01 -0.05159,-0.01 -0.006,0 -0.01786,0.002 -0.0099,0 -0.01984,0 -0.0079,0 -0.0079,-0.0139 0,-0.01 0.002,-0.0119 0,-0.004 0.0079,-0.008 0.0099,-0.006 0.03572,-0.0198 0.02778,-0.0139 0.06151,-0.0298 0.03572,-0.0179 0.07541,-0.0357 0.03969,-0.0198 0.07342,-0.0337 0.03572,-0.0159 0.06151,-0.0258 0.0258,-0.01 0.03572,-0.01 0.02977,0 0.03969,0.0258 0.01191,0.0258 0.01389,0.0695 0,0.0179 -0.002,0.0575 0,0.0377 -0.002,0.0873 0.0258,-0.0278 0.06945,-0.0675 0.04564,-0.0417 0.101204,-0.0794 0.05755,-0.0377 0.119062,-0.0635 0.0635,-0.0278 0.123031,-0.0278 0.08533,0 0.150813,0.0317 0.06747,0.0298 0.111125,0.0814 0.04366,0.0496 0.06548,0.1151 0.02381,0.0635 0.02381,0.13097 0,0.0952 -0.02977,0.17661 -0.02778,0.0794 -0.06945,0.14287 -0.04167,0.0615 -0.09128,0.10716 -0.04961,0.0456 -0.09128,0.0714 l -0.0635,0.0417 z m -0.446484,-0.1528 q 0.006,0.0218 0.03175,0.0456 0.0258,0.0218 0.06548,0.0417 0.04167,0.0179 0.09327,0.0317 0.05358,0.0119 0.113109,0.0119 0.05358,0 0.101204,-0.0198 0.04961,-0.0218 0.08533,-0.0655 0.03572,-0.0456 0.05556,-0.11708 0.02183,-0.0714 0.02183,-0.17264 0,-0.0714 -0.01984,-0.13494 -0.01984,-0.0635 -0.05755,-0.11112 -0.0377,-0.0476 -0.0893,-0.0734 -0.05159,-0.0278 -0.11311,-0.0278 -0.03175,0 -0.07144,0.0139 -0.0377,0.0139 -0.07342,0.0377 -0.03572,0.0238 -0.06747,0.0556 -0.02977,0.0317 -0.04366,0.0675 -0.0099,0.0238 -0.01786,0.0754 -0.006,0.0496 -0.0099,0.11112 -0.002,0.0595 -0.004,0.12105 0,0.0615 0,0.10914 z"/><path id="path4716" d="m 23.50996,296.19138 q -0.02183,0.0179 -0.05953,0.0476 -0.0377,0.0298 -0.08731,0.0595 -0.04961,0.0298 -0.109141,0.0516 -0.05953,0.0198 -0.125015,0.0198 -0.09922,0 -0.17661,-0.0337 -0.07739,-0.0357 -0.130968,-0.0933 -0.05159,-0.0595 -0.07937,-0.1389 -0.0258,-0.0794 -0.0258,-0.16868 0,-0.10517 0.03175,-0.18653 0.03175,-0.0814 0.07739,-0.14089 0.04763,-0.0615 0.101203,-0.1012 0.05358,-0.0417 0.09724,-0.0655 0.01984,-0.0119 0.04961,-0.0258 0.03175,-0.0139 0.06747,-0.0258 0.0377,-0.0119 0.07938,-0.0198 0.04366,-0.01 0.0893,-0.01 0.08533,0 0.164703,0.0218 0.08136,0.0218 0.142875,0.0695 0.06152,0.0456 0.09922,0.11906 0.0377,0.0734 0.0377,0.17661 0,0.0833 -0.03175,0.15676 -0.02977,0.0734 -0.07144,0.13097 -0.04167,0.0575 -0.08334,0.0992 -0.03969,0.0397 -0.05755,0.0575 z m -0.224235,0.0318 q 0.11311,0 0.172641,-0.0853 0.06152,-0.0853 0.06152,-0.26194 0,-0.0893 -0.0258,-0.1647 -0.02381,-0.0774 -0.06945,-0.13494 -0.04366,-0.0575 -0.103188,-0.0893 -0.05953,-0.0337 -0.128984,-0.0337 -0.04961,0 -0.09525,0.0258 -0.04366,0.0258 -0.07739,0.0754 -0.03373,0.0476 -0.05358,0.11708 -0.01984,0.0695 -0.01984,0.15677 0,0.0933 0.02778,0.16669 0.02977,0.0734 0.07739,0.12501 0.04763,0.0496 0.107156,0.0774 0.06152,0.0258 0.127,0.0258 z"/><path id="path4718" d="m 24.981839,296.14772 q 0.01191,0.008 0.01191,0.0199 0,0.0159 -0.04564,0.0417 -0.04763,0.0278 -0.127,0.0655 -0.07739,0.0377 -0.154781,0.0655 -0.0377,0.0139 -0.06747,0.0238 -0.02976,0.01 -0.05358,0.01 -0.02778,0 -0.06945,-0.0139 -0.03969,-0.0119 -0.06945,-0.0298 -0.02381,-0.0159 -0.0377,-0.0238 -0.01389,-0.01 -0.01389,-0.0198 0,-0.008 0.004,-0.0139 0.006,-0.008 0.0099,-0.0179 0.002,-0.006 0.004,-0.0159 0.002,-0.01 0.002,-0.0198 0.006,-0.0496 0.01191,-0.14288 0.0079,-0.0953 0.01191,-0.20835 0.004,-0.1151 0.006,-0.23615 0.004,-0.12303 0.004,-0.2282 0,-0.12898 -0.002,-0.20836 0,-0.0794 -0.004,-0.127 -0.006,-0.0655 -0.01588,-0.0853 -0.0099,-0.0218 -0.02183,-0.0317 -0.01389,-0.0119 -0.02778,-0.0139 -0.01191,-0.004 -0.02381,-0.004 -0.0099,-0.002 -0.01786,-0.002 -0.006,0 -0.006,-0.004 0,-0.0655 0.05556,-0.0655 0.04167,0 0.09723,0.002 0.05755,0 0.09525,0 0.02381,0 0.04961,-0.002 0.02778,-0.004 0.05358,-0.006 0.0258,-0.004 0.04763,-0.008 0.02183,-0.004 0.03175,-0.008 0.0079,-0.002 0.01191,0.006 0.006,0.008 0.006,0.0198 0.002,0.0119 -0.004,0.0218 -0.004,0.01 -0.01191,0.0119 -0.01191,0.002 -0.02183,0.002 -0.0079,0 -0.02977,0.008 -0.0099,0.004 -0.01786,0.0258 -0.0079,0.0198 -0.01389,0.0655 -0.006,0.0437 -0.01191,0.11708 -0.006,0.0714 -0.01191,0.18058 -0.006,0.0873 -0.0099,0.17859 -0.002,0.0893 -0.006,0.17463 -0.002,0.0853 -0.004,0.15875 0,0.0734 0,0.12501 0,0.0575 0,0.11708 0.002,0.0575 0.01191,0.0913 0.0099,0.0317 0.05159,0.0595 0.04167,0.0278 0.08731,0.0278 0.03572,0 0.07342,-0.01 0.0377,-0.01 0.06945,-0.0238 0.03175,-0.0139 0.05556,-0.0278 0.0258,-0.0139 0.0377,-0.0218 z"/><path id="path4720" d="m 26.224058,296.11796 q -0.02183,0.0238 -0.06747,0.0655 -0.04564,0.0417 -0.111125,0.0833 -0.0635,0.0417 -0.142875,0.0714 -0.07937,0.0298 -0.168672,0.0298 -0.08136,0 -0.15875,-0.0238 -0.07739,-0.0258 -0.138906,-0.0754 -0.06152,-0.0516 -0.09922,-0.12899 -0.03572,-0.0794 -0.03572,-0.18851 0,-0.0893 0.01191,-0.1528 0.01191,-0.0655 0.03175,-0.11311 0.01984,-0.0496 0.04366,-0.0833 0.0258,-0.0357 0.05159,-0.0635 0.03175,-0.0357 0.07739,-0.0675 0.04564,-0.0317 0.09723,-0.0575 0.05358,-0.0258 0.111125,-0.0397 0.05953,-0.0159 0.119063,-0.0159 0.107156,0 0.166687,0.0357 0.06152,0.0357 0.06152,0.0992 0,0.0397 -0.02381,0.0734 0.01984,-0.006 0.04961,-0.0198 0.03175,-0.0139 0.0635,-0.0278 0.03175,-0.0159 0.05556,-0.0278 0.0258,-0.0119 0.03373,-0.0179 0.004,-0.004 0.0079,-0.002 0.006,0 0.006,0.006 0,0.0258 -0.0099,0.0437 -0.0099,0.0159 -0.02381,0.0258 -0.03175,0.0198 -0.09128,0.0496 -0.05953,0.0298 -0.132953,0.0635 -0.07144,0.0318 -0.148828,0.0655 -0.07739,0.0317 -0.146844,0.0615 -0.06747,0.0298 -0.119063,0.0536 -0.04961,0.0218 -0.06747,0.0317 0,0.0675 0.0258,0.127 0.02778,0.0575 0.07541,0.10121 0.04763,0.0437 0.113109,0.0695 0.06747,0.0238 0.146844,0.0238 0.07144,0 0.128984,-0.0139 0.05755,-0.0159 0.09724,-0.0337 0.03969,-0.0198 0.06151,-0.0337 0.02381,-0.0159 0.0258,-0.0159 0.0079,0 0.01588,0.008 0.0079,0.006 0.0079,0.0139 z m -0.6985,-0.30361 q 0.03373,-0.0119 0.07541,-0.0278 0.04366,-0.0179 0.08334,-0.0377 0.04167,-0.0198 0.07541,-0.0377 0.03373,-0.0179 0.05159,-0.0317 0.03572,-0.0258 0.03572,-0.0873 0,-0.0238 -0.0099,-0.0496 -0.0079,-0.0258 -0.0258,-0.0456 -0.01786,-0.0218 -0.04366,-0.0337 -0.0258,-0.0139 -0.05755,-0.0139 -0.02778,0 -0.05953,0.0198 -0.03175,0.0179 -0.05953,0.0615 -0.02778,0.0417 -0.04763,0.11311 -0.01786,0.0695 -0.01786,0.17066 z"/></g></g></g><g style="display:none" id="layer3-0"><rect id="rect5091-1" width="5.643" height="5.557" x="22.004" y="51.12" style="display:inline;opacity:1;fill:#ff0200;fill-opacity:1;stroke:none;stroke-width:1;stroke-miterlimit:4;stroke-dasharray:none;stroke-opacity:1"/><rect id="rect5093-2" width="5.215" height="5.215" x="22.084" y="45.009" style="display:inline;opacity:1;fill:#0f0;fill-opacity:1;stroke:none;stroke-width:1;stroke-miterlimit:4;stroke-dasharray:none;stroke-opacity:1"/><rect id="rect4969-3" width="5.386" height="5.386" x="22.383" y="83.223" style="display:inline;opacity:1;fill:#00f;fill-opacity:1;stroke:none;stroke-width:1;stroke-miterlimit:4;stroke-dasharray:none;stroke-opacity:1"/><rect id="rect4975-9" width="5.355" height="5.591" x="2.329" y="75.109" style="display:inline;opacity:1;fill:#0f0;fill-opacity:1;stroke:none;stroke-width:1;stroke-miterlimit:4;stroke-dasharray:none;stroke-opacity:1"/><rect id="rect4979-4" width="5.557" height="5.557" x="2.44" y="44.96" style="display:inline;opacity:1;fill:#0f0;fill-opacity:1;stroke:none;stroke-width:1;stroke-miterlimit:4;stroke-dasharray:none;stroke-opacity:1"/><rect id="rect4981-2" width="5.728" height="5.728" x="11.819" y="44.461" style="display:inline;opacity:1;fill:#0f0;fill-opacity:1;stroke:none;stroke-width:1;stroke-miterlimit:4;stroke-dasharray:none;stroke-opacity:1"/><rect id="rect4983-6" width="5.814" height="5.814" x="21.571" y="27.209" style="display:inline;opacity:1;fill:#0f0;fill-opacity:1;stroke:none;stroke-width:1;stroke-miterlimit:4;stroke-dasharray:none;stroke-opacity:1"/><rect id="rect4989-1" width="5.557" height="5.557" x="12.466" y="27.43" style="display:inline;opacity:1;fill:#0f0;fill-opacity:1;stroke:none;stroke-width:1;stroke-miterlimit:4;stroke-dasharray:none;stroke-opacity:1"/><rect id="rect4991-6" width="5.301" height="5.301" x="2.329" y="17.041" style="display:inline;opacity:1;fill:#0f0;fill-opacity:1;stroke:none;stroke-width:1;stroke-miterlimit:4;stroke-dasharray:none;stroke-opacity:1"/><rect id="rect5041-6" width="5.728" height="5.728" x="2.757" y="27.47" style="display:inline;opacity:1;fill:#0f0;fill-opacity:1;stroke:none;stroke-width:1;stroke-miterlimit:4;stroke-dasharray:none;stroke-opacity:1"/><rect id="rect5043-5" width="5.728" height="5.728" x="2.757" y="34.257" style="display:inline;opacity:1;fill:red;fill-opacity:1;stroke:none;stroke-width:1;stroke-miterlimit:4;stroke-dasharray:none;stroke-opacity:1"/><rect id="rect5045-6" width="5.044" height="5.386" x="12.722" y="34.046" style="display:inline;opacity:1;fill:red;fill-opacity:1;stroke:none;stroke-width:1;stroke-miterlimit:4;stroke-dasharray:none;stroke-opacity:1"/><rect id="rect5047-8" width="5.386" height="5.386" x="21.785" y="34.081" style="display:inline;opacity:1;fill:red;fill-opacity:1;stroke:none;stroke-width:1;stroke-miterlimit:4;stroke-dasharray:none;stroke-opacity:1"/><rect id="rect5049-9" width="5.472" height="5.472" x="12.204" y="51.206" style="display:inline;opacity:1;fill:red;fill-opacity:1;stroke:none;stroke-width:1;stroke-miterlimit:4;stroke-dasharray:none;stroke-opacity:1"/><rect id="rect5053-4" width="5.301" height="5.472" x="12.046" y="77.942" style="display:inline;opacity:1;fill:red;fill-opacity:1;stroke:none;stroke-width:1;stroke-miterlimit:4;stroke-dasharray:none;stroke-opacity:1"/><rect id="rect4923-7" width="5.643" height="5.459" x="2.329" y="83.48" style="display:inline;opacity:1;fill:#0f0;fill-opacity:1;stroke:none;stroke-width:1;stroke-miterlimit:4;stroke-dasharray:none;stroke-opacity:1"/><rect id="rect4945-4" width="5.215" height="5.215" x="10.158" y="17.127" style="display:inline;opacity:1;fill:red;fill-opacity:1;stroke:none;stroke-width:1;stroke-miterlimit:4;stroke-dasharray:none;stroke-opacity:1"/><rect id="rect4947-6" width="5.63" height="5.472" x="22.383" y="74.895" style="display:inline;opacity:1;fill:#00f;fill-opacity:1;stroke:none;stroke-width:1;stroke-miterlimit:4;stroke-dasharray:none;stroke-opacity:1"/><rect id="rect5332-8" width="5.472" height="5.472" x="2.223" y="10.317" style="display:inline;opacity:1;fill:#0f0;fill-opacity:1;stroke:none;stroke-width:1;stroke-miterlimit:4;stroke-dasharray:none;stroke-opacity:1"/></g></g></g><g id="layer3" style="display:none"><rect style="display:inline;opacity:1;fill:#ff0200;fill-opacity:1;stroke:none;stroke-width:1;stroke-miterlimit:4;stroke-dasharray:none;stroke-opacity:1" id="rect5091" width="5.643" height="5.557" x="22.004" y="51.12"/><rect style="display:inline;opacity:1;fill:#0f0;fill-opacity:1;stroke:none;stroke-width:1;stroke-miterlimit:4;stroke-dasharray:none;stroke-opacity:1" id="rect5093" width="5.215" height="5.215" x="22.084" y="45.009"/><rect style="display:inline;opacity:1;fill:#00f;fill-opacity:1;stroke:none;stroke-width:1;stroke-miterlimit:4;stroke-dasharray:none;stroke-opacity:1" id="rect4969" width="5.386" height="5.386" x="22.383" y="83.223"/><rect style="display:inline;opacity:1;fill:#0f0;fill-opacity:1;stroke:none;stroke-width:1;stroke-miterlimit:4;stroke-dasharray:none;stroke-opacity:1" id="rect4975" width="5.355" height="5.591" x="2.329" y="75.109"/><rect style="display:inline;opacity:1;fill:#0f0;fill-opacity:1;stroke:none;stroke-width:1;stroke-miterlimit:4;stroke-dasharray:none;stroke-opacity:1" id="rect4979" width="5.557" height="5.557" x="2.44" y="44.96"/><rect style="display:inline;opacity:1;fill:#0f0;fill-opacity:1;stroke:none;stroke-width:1;stroke-miterlimit:4;stroke-dasharray:none;stroke-opacity:1" id="rect4981" width="5.728" height="5.728" x="11.819" y="44.461"/><rect style="display:inline;opacity:1;fill:#0f0;fill-opacity:1;stroke:none;stroke-width:1;stroke-miterlimit:4;stroke-dasharray:none;stroke-opacity:1" id="rect4983" width="5.814" height="5.814" x="21.571" y="27.209"/><rect style="display:inline;opacity:1;fill:#0f0;fill-opacity:1;stroke:none;stroke-width:1;stroke-miterlimit:4;stroke-dasharray:none;stroke-opacity:1" id="rect4989" width="5.557" height="5.557" x="12.466" y="27.43"/><rect style="display:inline;opacity:1;fill:#0f0;fill-opacity:1;stroke:none;stroke-width:1;stroke-miterlimit:4;stroke-dasharray:none;stroke-opacity:1" id="rect4991" width="5.301" height="5.301" x="2.329" y="17.041"/><rect style="display:inline;opacity:1;fill:#0f0;fill-opacity:1;stroke:none;stroke-width:1;stroke-miterlimit:4;stroke-dasharray:none;stroke-opacity:1" id="rect5041" width="5.728" height="5.728" x="2.757" y="27.47"/><rect style="display:inline;opacity:1;fill:red;fill-opacity:1;stroke:none;stroke-width:1;stroke-miterlimit:4;stroke-dasharray:none;stroke-opacity:1" id="rect5043" width="5.728" height="5.728" x="2.757" y="34.257"/><rect style="display:inline;opacity:1;fill:red;fill-opacity:1;stroke:none;stroke-width:1;stroke-miterlimit:4;stroke-dasharray:none;stroke-opacity:1" id="rect5045" width="5.044" height="5.386" x="12.722" y="34.046"/><rect style="display:inline;opacity:1;fill:red;fill-opacity:1;stroke:none;stroke-width:1;stroke-miterlimit:4;stroke-dasharray:none;stroke-opacity:1" id="rect5047" width="5.386" height="5.386" x="21.785" y="34.081"/><rect style="display:inline;opacity:1;fill:red;fill-opacity:1;stroke:none;stroke-width:1;stroke-miterlimit:4;stroke-dasharray:none;stroke-opacity:1" id="rect5049" width="5.472" height="5.472" x="12.204" y="51.206"/><rect style="display:inline;opacity:1;fill:red;fill-opacity:1;stroke:none;stroke-width:1;stroke-miterlimit:4;stroke-dasharray:none;stroke-opacity:1" id="rect5053" width="5.301" height="5.472" x="12.046" y="77.942"/><rect style="display:inline;opacity:1;fill:#0f0;fill-opacity:1;stroke:none;stroke-width:1;stroke-miterlimit:4;stroke-dasharray:none;stroke-opacity:1" id="rect4923" width="5.643" height="5.459" x="2.329" y="83.48"/><rect style="display:inline;opacity:1;fill:red;fill-opacity:1;stroke:none;stroke-width:1;stroke-miterlimit:4;stroke-dasharray:none;stroke-opacity:1" id="rect4945" width="5.215" height="5.215" x="10.158" y="17.127"/><rect style="display:inline;opacity:1;fill:#00f;fill-opacity:1;stroke:none;stroke-width:1;stroke-miterlimit:4;stroke-dasharray:none;stroke-opacity:1" id="rect4947" width="5.63" height="5.472" x="22.383" y="74.895"/><rect style="display:inline;opacity:1;fill:#0f0;fill-opacity:1;stroke:none;stroke-width:1;stroke-miterlimit:4;stroke-dasharray:none;stroke-opacity:1" id="rect5332" width="5.472" height="5.472" x="2.223" y="10.317"/></g></svg>