<svg xmlns="http://www.w3.org/2000/svg" xmlns:svg="http://www.w3.org/2000/svg" id="svg8" width="60" height="380" version="1.1" viewBox="0 0 15.875 100.542"><metadata id="metadata5"/><g style="display:inline" id="g1796" transform="translate(0,-196.45832)"><rect id="rect819" width="5.821" height="5.821" x="8.996" y="280.596" rx="2.91" ry="2.91" style="display:none;opacity:1;fill:#000;fill-opacity:1;stroke:none;stroke-width:.00026458;stroke-linecap:butt;stroke-linejoin:miter;stroke-miterlimit:4;stroke-dasharray:none;stroke-opacity:1;paint-order:normal"/><rect style="display:none;opacity:1;fill:#000;fill-opacity:1;stroke:none;stroke-width:.00026458;stroke-linecap:butt;stroke-linejoin:miter;stroke-miterlimit:4;stroke-dasharray:none;stroke-opacity:1;paint-order:normal" id="rect829" width="5.821" height="5.821" x="8.996" y="272.658" rx="2.91" ry="2.91"/><rect style="display:none;opacity:1;fill:#000;fill-opacity:1;stroke:none;stroke-width:.00026458;stroke-linecap:butt;stroke-linejoin:miter;stroke-miterlimit:4;stroke-dasharray:none;stroke-opacity:1;paint-order:normal" id="rect845" width="5.821" height="5.821" x="8.996" y="264.721" rx="2.91" ry="2.91"/><rect id="rect853" width="5.821" height="5.821" x="8.996" y="256.783" rx="2.91" ry="2.91" style="display:none;opacity:1;fill:#000;fill-opacity:1;stroke:none;stroke-width:.00026458;stroke-linecap:butt;stroke-linejoin:miter;stroke-miterlimit:4;stroke-dasharray:none;stroke-opacity:1;paint-order:normal"/><rect style="display:none;opacity:1;fill:#000;fill-opacity:1;stroke:none;stroke-width:.00026458;stroke-linecap:butt;stroke-linejoin:miter;stroke-miterlimit:4;stroke-dasharray:none;stroke-opacity:1;paint-order:normal" id="rect861" width="5.821" height="5.821" x="8.996" y="248.846" rx="2.91" ry="2.91"/><rect id="rect869" width="5.821" height="5.821" x="8.996" y="240.908" rx="2.91" ry="2.91" style="display:none;opacity:1;fill:#000;fill-opacity:1;stroke:none;stroke-width:.00026458;stroke-linecap:butt;stroke-linejoin:miter;stroke-miterlimit:4;stroke-dasharray:none;stroke-opacity:1;paint-order:normal"/><rect id="rect877" width="5.821" height="5.821" x="8.996" y="232.971" rx="2.91" ry="2.91" style="display:none;opacity:1;fill:#000;fill-opacity:1;stroke:none;stroke-width:.00026458;stroke-linecap:butt;stroke-linejoin:miter;stroke-miterlimit:4;stroke-dasharray:none;stroke-opacity:1;paint-order:normal"/><rect style="display:none;opacity:1;fill:#000;fill-opacity:1;stroke:none;stroke-width:.00026458;stroke-linecap:butt;stroke-linejoin:miter;stroke-miterlimit:4;stroke-dasharray:none;stroke-opacity:1;paint-order:normal" id="rect885" width="5.821" height="5.821" x="8.996" y="225.033" rx="2.91" ry="2.91"/><rect style="display:none;opacity:1;fill:#000;fill-opacity:1;stroke:none;stroke-width:.00026458;stroke-linecap:butt;stroke-linejoin:miter;stroke-miterlimit:4;stroke-dasharray:none;stroke-opacity:1;paint-order:normal" id="rect907" width="5.821" height="5.821" x="1.058" y="202.279" rx="2.91" ry="2.91"/><rect id="rect919" width="5.821" height="5.821" x="8.996" y="202.279" rx="2.91" ry="2.91" style="display:none;opacity:1;fill:#000;fill-opacity:1;stroke:none;stroke-width:.00026458;stroke-linecap:butt;stroke-linejoin:miter;stroke-miterlimit:4;stroke-dasharray:none;stroke-opacity:1;paint-order:normal"/><rect id="rect929" width="5.821" height="5.821" x="1.058" y="213.392" rx="2.91" ry="2.91" style="display:none;opacity:1;fill:#b22222;fill-opacity:1;stroke:none;stroke-width:.00026458;stroke-linecap:butt;stroke-linejoin:miter;stroke-miterlimit:4;stroke-dasharray:none;stroke-opacity:1;paint-order:normal"/><rect style="display:none;opacity:1;fill:#b22222;fill-opacity:1;stroke:none;stroke-width:.00026458;stroke-linecap:butt;stroke-linejoin:miter;stroke-miterlimit:4;stroke-dasharray:none;stroke-opacity:1;paint-order:normal" id="rect937" width="5.821" height="5.821" x="8.996" y="213.392" rx="2.91" ry="2.91"/><rect style="display:none;opacity:1;fill:#b22222;fill-opacity:1;stroke:none;stroke-width:.00026458;stroke-linecap:butt;stroke-linejoin:miter;stroke-miterlimit:4;stroke-dasharray:none;stroke-opacity:1;paint-order:normal" id="rect817" width="5.821" height="5.821" x="1.058" y="281.654" rx="2.91" ry="2.91"/><rect id="rect827" width="5.821" height="5.821" x="1.058" y="273.717" rx="2.91" ry="2.91" style="display:none;opacity:1;fill:#b22222;fill-opacity:1;stroke:none;stroke-width:.00026458;stroke-linecap:butt;stroke-linejoin:miter;stroke-miterlimit:4;stroke-dasharray:none;stroke-opacity:1;paint-order:normal"/><rect id="rect843" width="5.821" height="5.821" x="1.058" y="265.779" rx="2.91" ry="2.91" style="display:none;opacity:1;fill:#b22222;fill-opacity:1;stroke:none;stroke-width:.00026458;stroke-linecap:butt;stroke-linejoin:miter;stroke-miterlimit:4;stroke-dasharray:none;stroke-opacity:1;paint-order:normal"/><rect style="display:none;opacity:1;fill:#b22222;fill-opacity:1;stroke:none;stroke-width:.00026458;stroke-linecap:butt;stroke-linejoin:miter;stroke-miterlimit:4;stroke-dasharray:none;stroke-opacity:1;paint-order:normal" id="rect851" width="5.821" height="5.821" x="1.058" y="257.842" rx="2.91" ry="2.91"/><rect id="rect859" width="5.821" height="5.821" x="1.058" y="249.904" rx="2.91" ry="2.91" style="display:none;opacity:1;fill:#b22222;fill-opacity:1;stroke:none;stroke-width:.00026458;stroke-linecap:butt;stroke-linejoin:miter;stroke-miterlimit:4;stroke-dasharray:none;stroke-opacity:1;paint-order:normal"/><rect style="display:none;opacity:1;fill:#b22222;fill-opacity:1;stroke:none;stroke-width:.00026458;stroke-linecap:butt;stroke-linejoin:miter;stroke-miterlimit:4;stroke-dasharray:none;stroke-opacity:1;paint-order:normal" id="rect867" width="5.821" height="5.821" x="1.058" y="241.967" rx="2.91" ry="2.91"/><rect style="display:none;opacity:1;fill:#b22222;fill-opacity:1;stroke:none;stroke-width:.00026458;stroke-linecap:butt;stroke-linejoin:miter;stroke-miterlimit:4;stroke-dasharray:none;stroke-opacity:1;paint-order:normal" id="rect875" width="5.821" height="5.821" x="1.058" y="234.029" rx="2.91" ry="2.91"/><rect id="rect883" width="5.821" height="5.821" x="1.058" y="226.092" rx="2.91" ry="2.91" style="display:none;opacity:1;fill:#b22222;fill-opacity:1;stroke:none;stroke-width:.00026458;stroke-linecap:butt;stroke-linejoin:miter;stroke-miterlimit:4;stroke-dasharray:none;stroke-opacity:1;paint-order:normal"/><path style="opacity:1;vector-effect:none;fill:gray;fill-opacity:1;fill-rule:evenodd;stroke:none;stroke-width:.21073182;stroke-linecap:butt;stroke-linejoin:round;stroke-miterlimit:4;stroke-dasharray:none;stroke-dashoffset:0;stroke-opacity:1;paint-order:normal" id="path1790" d="m 0,365 v 15 H 30 60 V 365 H 30 Z m 7.5,4.25 h 15 c 1.8005,0 3.25,1.4495 3.25,3.25 0,1.8005 -1.4495,3.25 -3.25,3.25 h -15 c -1.8005,0 -3.25,-1.4495 -3.25,-3.25 0,-1.8005 1.4495,-3.25 3.25,-3.25 z m 30,0 h 15 c 1.800503,0 3.25,1.44951 3.25,3.25 0,1.80049 -1.449497,3.25 -3.25,3.25 h -15 c -1.800498,0 -3.25,-1.44951 -3.25,-3.25 0,-1.80049 1.449502,-3.25 3.25,-3.25 z" transform="matrix(0.26458335,0,0,0.26458335,0,196.45832)"/><path id="path1792" d="m 0,200.42707 h 15.875001 v 92.60417 H 0 Z" style="opacity:1;vector-effect:none;fill:gray;fill-opacity:1;fill-rule:evenodd;stroke:none;stroke-width:.38088688;stroke-linecap:butt;stroke-linejoin:round;stroke-miterlimit:4;stroke-dasharray:none;stroke-dashoffset:0;stroke-opacity:1;paint-order:normal"/><path style="opacity:1;vector-effect:none;fill:gray;fill-opacity:1;fill-rule:evenodd;stroke:none;stroke-width:.21073182;stroke-linecap:butt;stroke-linejoin:round;stroke-miterlimit:4;stroke-dasharray:none;stroke-dashoffset:0;stroke-opacity:1;paint-order:normal" id="path1794" d="M 0,0 V 15 H 30 60 V 0 H 30 Z m 7.5,4.25 h 15 c 1.8005,0 3.25,1.449471 3.25,3.25 0,1.8004913 -1.4495,3.25 -3.25,3.25 H 7.5 C 5.6995001,10.75 4.25,9.3004913 4.25,7.5 4.25,5.699471 5.6995001,4.25 7.5,4.25 Z m 30,0 h 15 c 1.800503,0 3.25,1.449471 3.25,3.25 0,1.8004913 -1.449497,3.25 -3.25,3.25 h -15 c -1.800499,0 -3.25,-1.4495087 -3.25,-3.25 0,-1.800529 1.449501,-3.25 3.25,-3.25 z" transform="matrix(0.26458335,0,0,0.26458335,0,196.45832)"/><path style="opacity:1;vector-effect:none;fill:#696969;fill-opacity:1;fill-rule:evenodd;stroke:none;stroke-width:.37870413;stroke-linecap:butt;stroke-linejoin:round;stroke-miterlimit:4;stroke-dasharray:none;stroke-dashoffset:0;stroke-opacity:1;paint-order:normal" id="path1808" d="m 0,200.95623 h 15.875001 v 91.54584 H 0 Z"/><rect style="display:inline;opacity:1;fill:silver;fill-opacity:.25373134;stroke:#000;stroke-width:.26458335;stroke-linecap:butt;stroke-linejoin:miter;stroke-miterlimit:4;stroke-dasharray:none;stroke-opacity:.25373134;paint-order:normal" id="rect929-4" width="7.144" height="10.319" x=".397" y="201.353" rx=".794" ry=".794"/><rect style="display:inline;opacity:1;fill:#b2b2b2;fill-opacity:.50196078;stroke:none;stroke-width:.26458335;stroke-linecap:butt;stroke-linejoin:miter;stroke-miterlimit:4;stroke-dasharray:none;stroke-opacity:1;paint-order:normal" id="rect1016" width="6.085" height="2.91" x="8.864" y="208.497" rx="1.455" ry="1.455"/><rect id="rect931" width="7.144" height="63.235" x="8.334" y="224.107" rx=".794" ry=".794" style="display:inline;opacity:1;fill:#000;fill-opacity:.25373134;stroke:silver;stroke-width:.26458335;stroke-linecap:butt;stroke-linejoin:miter;stroke-miterlimit:4;stroke-dasharray:none;stroke-opacity:.25373134;paint-order:normal"/><rect style="display:inline;opacity:1;fill:#b22222;fill-opacity:1;stroke:none;stroke-width:.26458335;stroke-linecap:butt;stroke-linejoin:miter;stroke-miterlimit:4;stroke-dasharray:none;stroke-opacity:1;paint-order:normal" id="rect998" width="13.494" height="2.91" x="1.191" y="288.401" rx="1.455" ry="1.455"/><rect style="display:inline;opacity:1;fill:#b22222;fill-opacity:1;stroke:none;stroke-width:.26458335;stroke-linecap:butt;stroke-linejoin:miter;stroke-miterlimit:4;stroke-dasharray:none;stroke-opacity:1;paint-order:normal" id="rect996" width="6.085" height="2.91" x="8.864" y="219.609" rx="1.455" ry="1.455"/><rect id="rect923" width="6.085" height="2.91" x=".926" y="219.609" rx="1.455" ry="1.455" style="display:inline;opacity:1;fill:#b22222;fill-opacity:1;stroke:none;stroke-width:.26458335;stroke-linecap:butt;stroke-linejoin:miter;stroke-miterlimit:4;stroke-dasharray:none;stroke-opacity:1;paint-order:normal"/><text style="font-style:normal;font-variant:normal;font-weight:400;font-stretch:normal;font-size:2.11666679px;line-height:1.25;font-family:'DejaVu Sans Mono';-inkscape-font-specification:'DejaVu Sans Mono, Normal';font-variant-ligatures:normal;font-variant-caps:normal;font-variant-numeric:normal;font-feature-settings:normal;text-align:center;letter-spacing:0;word-spacing:0;writing-mode:lr-tb;text-anchor:middle;fill:#000;fill-opacity:1;stroke:#dcdcdc;stroke-width:.00026458;stroke-miterlimit:4;stroke-dasharray:none" id="text913" x="3.937" y="210.746" xml:space="preserve"><tspan id="tspan917" x="3.937" y="210.746">IN</tspan></text><text id="text933" x="4.021" y="221.858" xml:space="preserve" style="font-style:normal;font-variant:normal;font-weight:400;font-stretch:normal;font-size:2.11666679px;line-height:1.25;font-family:'DejaVu Sans Mono';-inkscape-font-specification:'DejaVu Sans Mono, Normal';font-variant-ligatures:normal;font-variant-caps:normal;font-variant-numeric:normal;font-feature-settings:normal;text-align:center;letter-spacing:0;word-spacing:0;writing-mode:lr-tb;text-anchor:middle;fill:#000;fill-opacity:1;stroke:#000;stroke-width:.00026458;stroke-miterlimit:4;stroke-dasharray:none"><tspan id="tspan1026" x="4.021" y="221.858">ATN</tspan></text><text style="font-style:normal;font-variant:normal;font-weight:400;font-stretch:normal;font-size:2.11666679px;line-height:1.25;font-family:'DejaVu Sans Mono';-inkscape-font-specification:'DejaVu Sans Mono, Normal';font-variant-ligatures:normal;font-variant-caps:normal;font-variant-numeric:normal;font-feature-settings:normal;text-align:center;letter-spacing:0;word-spacing:0;writing-mode:lr-tb;text-anchor:middle;fill:#000;fill-opacity:1;stroke:#000;stroke-width:.00026458;stroke-miterlimit:4;stroke-dasharray:none" id="text941" x="11.908" y="221.858" xml:space="preserve"><tspan id="tspan1032" x="11.908" y="221.858">OFF</tspan></text><text style="font-style:normal;font-variant:normal;font-weight:400;font-stretch:normal;font-size:2.11666679px;line-height:1.25;font-family:'DejaVu Sans Mono';-inkscape-font-specification:'DejaVu Sans Mono, Normal';font-variant-ligatures:normal;font-variant-caps:normal;font-variant-numeric:normal;font-feature-settings:normal;text-align:center;letter-spacing:0;word-spacing:0;writing-mode:lr-tb;text-anchor:middle;fill:#000;fill-opacity:1;stroke:#000;stroke-width:.00026458;stroke-miterlimit:4;stroke-dasharray:none" id="text947" x="7.955" y="290.65" xml:space="preserve"><tspan id="tspan1076" x="7.955" y="290.65">DURATION</tspan></text><text id="text1040" x="11.905" y="210.746" xml:space="preserve" style="font-style:normal;font-variant:normal;font-weight:400;font-stretch:normal;font-size:2.11666679px;line-height:1.25;font-family:'DejaVu Sans Mono';-inkscape-font-specification:'DejaVu Sans Mono, Normal';font-variant-ligatures:normal;font-variant-caps:normal;font-variant-numeric:normal;font-feature-settings:normal;text-align:center;letter-spacing:0;word-spacing:0;writing-mode:lr-tb;text-anchor:middle;fill:#000;fill-opacity:1;stroke:#dcdcdc;stroke-width:.00026458;stroke-miterlimit:4;stroke-dasharray:none"><tspan id="tspan1042" x="11.905" y="210.746">SNH</tspan></text><g style="font-style:normal;font-variant:normal;font-weight:400;font-stretch:normal;font-size:2.11666679px;line-height:1.25;font-family:'DejaVu Sans Mono';-inkscape-font-specification:'DejaVu Sans Mono, Normal';font-variant-ligatures:normal;font-variant-caps:normal;font-variant-numeric:normal;font-feature-settings:normal;text-align:center;letter-spacing:0;word-spacing:0;writing-mode:lr-tb;text-anchor:middle;fill:#000;fill-opacity:1;stroke:#dcdcdc;stroke-width:.00026458;stroke-miterlimit:4;stroke-dasharray:none" id="text1156" aria-label="IN"><path id="path1174" d="m 2.8710083,209.20262 h 0.8567953 v 0.1757 H 3.4043091 v 1.19166 h 0.3234945 v 0.1757 H 2.8710083 v -0.1757 h 0.3234945 v -1.19166 H 2.8710083 Z"/><path id="path1176" d="m 4.0802368,209.20262 h 0.2645834 l 0.5208984,1.27021 v -1.27021 h 0.2015381 v 1.54306 H 4.8026734 l -0.5208985,-1.27021 v 1.27021 H 4.0802368 Z"/></g><g style="font-style:normal;font-variant:normal;font-weight:400;font-stretch:normal;font-size:2.11666679px;line-height:1.25;font-family:'DejaVu Sans Mono';-inkscape-font-specification:'DejaVu Sans Mono, Normal';font-variant-ligatures:normal;font-variant-caps:normal;font-variant-numeric:normal;font-feature-settings:normal;text-align:center;letter-spacing:0;word-spacing:0;writing-mode:lr-tb;text-anchor:middle;fill:#000;fill-opacity:1;stroke:#000;stroke-width:.00026458;stroke-miterlimit:4;stroke-dasharray:none" id="text1160" aria-label="ATN"><path id="path1179" d="m 2.7480158,220.49894 -0.2201416,0.78962 h 0.4402833 z m -0.1260905,-0.18397 h 0.2532146 l 0.4723226,1.54306 H 3.131455 L 3.0177668,221.45599 H 2.4772313 l -0.1116211,0.40204 H 2.1496027 Z"/><path id="path1181" d="m 3.4332453,220.31497 h 1.1771892 v 0.1757 H 4.1277766 v 1.36736 H 3.9179703 v -1.36736 h -0.484725 z"/><path id="path1183" d="m 4.8016373,220.31497 h 0.2645833 l 0.5208985,1.27021 v -1.27021 h 0.2015381 v 1.54306 H 5.5240739 l -0.5208985,-1.2702 v 1.2702 H 4.8016373 Z"/></g><g style="font-style:normal;font-variant:normal;font-weight:400;font-stretch:normal;font-size:2.11666679px;line-height:1.25;font-family:'DejaVu Sans Mono';-inkscape-font-specification:'DejaVu Sans Mono, Normal';font-variant-ligatures:normal;font-variant-caps:normal;font-variant-numeric:normal;font-feature-settings:normal;text-align:center;letter-spacing:0;word-spacing:0;writing-mode:lr-tb;text-anchor:middle;fill:#000;fill-opacity:1;stroke:#000;stroke-width:.00026458;stroke-miterlimit:4;stroke-dasharray:none" id="text1164" aria-label="OFF"><path id="path1186" d="m 10.933565,221.08821 q 0,-0.34004 -0.07028,-0.48576 -0.06925,-0.14573 -0.22841,-0.14573 -0.15813,0 -0.22841,0.14573 -0.06925,0.14572 -0.06925,0.48576 0,0.33899 0.06925,0.48472 0.07028,0.14573 0.22841,0.14573 0.159163,0 0.22841,-0.1447 0.07028,-0.14572 0.07028,-0.48575 z m 0.218074,0 q 0,0.40307 -0.128157,0.60151 -0.127124,0.19844 -0.388607,0.19844 -0.261483,0 -0.388607,-0.19741 -0.127124,-0.1974 -0.127124,-0.60254 0,-0.40411 0.127124,-0.60255 0.128158,-0.19844 0.388607,-0.19844 0.261483,0 0.388607,0.19844 0.128157,0.19844 0.128157,0.60255 z"/><path id="path1188" d="m 11.512341,220.31513 h 0.908471 v 0.1757 h -0.698665 v 0.45475 H 12.3557 v 0.1757 h -0.633553 v 0.7369 h -0.209806 z"/><path id="path1190" d="m 12.785648,220.31513 h 0.908472 v 0.1757 h -0.698666 v 0.45475 h 0.633553 v 0.1757 h -0.633553 v 0.7369 h -0.209806 z"/></g><g style="font-style:normal;font-variant:normal;font-weight:400;font-stretch:normal;font-size:2.11666679px;line-height:1.25;font-family:'DejaVu Sans Mono';-inkscape-font-specification:'DejaVu Sans Mono, Normal';font-variant-ligatures:normal;font-variant-caps:normal;font-variant-numeric:normal;font-feature-settings:normal;text-align:center;letter-spacing:0;word-spacing:0;writing-mode:lr-tb;text-anchor:middle;fill:#000;fill-opacity:1;stroke:#000;stroke-width:.00026458;stroke-miterlimit:4;stroke-dasharray:none" id="text1168" aria-label="DURATION"><path id="path1193" d="m 3.3122817,290.47794 q 0.2635498,0 0.3679362,-0.12919 0.1043864,-0.13023 0.1043864,-0.46922 0,-0.3421 -0.1043864,-0.47129 -0.1033529,-0.13023 -0.3679362,-0.13023 h -0.099219 v 1.19993 z m 0.00413,-1.37149 q 0.3534668,0 0.5208985,0.1881 0.1674316,0.1881 0.1674316,0.58498 0,0.3948 -0.1674316,0.58291 -0.1674317,0.18707 -0.5208985,0.18707 H 3.0032566 v -1.54306 z"/><path id="path1195" d="m 4.2868992,290.05729 v -0.95084 h 0.2098063 v 1.04593 q 0,0.11265 0.0062,0.16123 0.0062,0.0475 0.021704,0.0734 0.033073,0.061 0.095085,0.092 0.063045,0.031 0.1519287,0.031 0.089917,0 0.1519287,-0.031 0.062012,-0.031 0.096118,-0.092 0.015503,-0.0258 0.021704,-0.0734 0.0062,-0.0475 0.0062,-0.15916 v -1.048 h 0.2087728 v 0.95084 q 0,0.23668 -0.029972,0.33693 -0.028939,0.0992 -0.1012858,0.16434 -0.068213,0.061 -0.1560628,0.091 -0.08785,0.03 -0.197404,0.03 -0.1085205,0 -0.1963705,-0.03 -0.08785,-0.03 -0.1570963,-0.091 -0.071314,-0.0641 -0.1012859,-0.16537 -0.029972,-0.10232 -0.029972,-0.3359 z"/><path id="path1197" d="m 6.1937596,289.92087 q 0.080615,0.0207 0.1374593,0.0786 0.056844,0.0568 0.1415935,0.22841 l 0.2098063,0.42168 H 6.458343 l -0.1839681,-0.38964 q -0.079582,-0.1664 -0.1436605,-0.21395 -0.063045,-0.0486 -0.1653646,-0.0486 H 5.7658787 v 0.65216 H 5.5560724 v -1.54306 h 0.429948 q 0.254248,0 0.3896403,0.11472 0.1353922,0.11472 0.1353922,0.33176 0,0.15296 -0.083716,0.25012 -0.082682,0.0961 -0.2335775,0.11782 z m -0.4278809,-0.64286 v 0.54777 h 0.2284099 q 0.1498616,0 0.2232422,-0.0672 0.073381,-0.0672 0.073381,-0.20567 0,-0.13332 -0.078548,-0.2036 -0.077515,-0.0713 -0.2263427,-0.0713 z"/><path id="path1199" d="m 7.3182388,289.29042 -0.2201416,0.78961 h 0.4402832 z m -0.1260905,-0.18397 h 0.2532145 l 0.4723227,1.54306 H 7.701678 L 7.5879898,290.24746 H 7.0474543 l -0.1116211,0.40205 H 6.7198257 Z"/><path id="path1201" d="m 8.0034683,289.10645 h 1.1771892 v 0.1757 H 8.6979996 v 1.36736 H 8.4881933 v -1.36736 h -0.484725 z"/><path id="path1203" d="m 9.4359391,289.10645 h 0.8567949 v 0.1757 H 9.9692399 v 1.19166 h 0.3234941 v 0.1757 H 9.4359391 v -0.1757 h 0.3234944 v -1.19166 H 9.4359391 Z"/><path id="path1205" d="m 11.436851,289.87953 q 0,-0.34003 -0.07028,-0.48576 -0.06925,-0.14573 -0.22841,-0.14573 -0.15813,0 -0.22841,0.14573 -0.06925,0.14573 -0.06925,0.48576 0,0.33899 0.06925,0.48472 0.07028,0.14573 0.22841,0.14573 0.159163,0 0.22841,-0.14469 0.07028,-0.14573 0.07028,-0.48576 z m 0.218074,0 q 0,0.40307 -0.128157,0.60151 -0.127124,0.19844 -0.388607,0.19844 -0.261483,0 -0.388607,-0.19741 -0.127124,-0.1974 -0.127124,-0.60254 0,-0.40411 0.127124,-0.60255 0.128158,-0.19844 0.388607,-0.19844 0.261483,0 0.388607,0.19844 0.128157,0.19844 0.128157,0.60255 z"/><path id="path1207" d="m 11.918474,289.10645 h 0.264584 l 0.520898,1.2702 v -1.2702 h 0.201538 v 1.54306 h -0.264583 l -0.520898,-1.27021 v 1.27021 h -0.201539 z"/></g><g style="font-style:normal;font-variant:normal;font-weight:400;font-stretch:normal;font-size:2.11666679px;line-height:1.25;font-family:'DejaVu Sans Mono';-inkscape-font-specification:'DejaVu Sans Mono, Normal';font-variant-ligatures:normal;font-variant-caps:normal;font-variant-numeric:normal;font-feature-settings:normal;text-align:center;letter-spacing:0;word-spacing:0;writing-mode:lr-tb;text-anchor:middle;fill:#000;fill-opacity:1;stroke:#dcdcdc;stroke-width:.00026458;stroke-miterlimit:4;stroke-dasharray:none" id="text1172" aria-label="SNH"><path id="path1210" d="m 11.041058,209.25533 v 0.21188 q -0.09508,-0.061 -0.191202,-0.092 -0.09509,-0.031 -0.192237,-0.031 -0.147794,0 -0.233577,0.0692 -0.08578,0.0682 -0.08578,0.185 0,0.10232 0.05581,0.15607 0.05684,0.0537 0.21084,0.0899 l 0.109554,0.0248 q 0.217041,0.0506 0.31626,0.15916 0.09922,0.10852 0.09922,0.29559 0,0.22014 -0.136426,0.3359 -0.136426,0.11575 -0.396875,0.11575 -0.10852,0 -0.218074,-0.0238 -0.109555,-0.0227 -0.220142,-0.0692 v -0.22221 q 0.118856,0.0754 0.224276,0.11059 0.106453,0.0351 0.21394,0.0351 0.15813,0 0.24598,-0.0703 0.08785,-0.0713 0.08785,-0.19844 0,-0.11576 -0.06098,-0.17674 -0.05995,-0.061 -0.209807,-0.094 l -0.111621,-0.0258 q -0.214974,-0.0486 -0.312125,-0.14677 -0.09715,-0.0982 -0.09715,-0.26355 0,-0.2067 0.138493,-0.33072 0.139526,-0.12506 0.370003,-0.12506 0.08888,0 0.187069,0.0207 0.09818,0.0196 0.206705,0.0599 z"/><path id="path1212" d="m 11.412095,209.20262 h 0.264584 l 0.520898,1.27021 v -1.27021 h 0.201538 v 1.54306 h -0.264583 l -0.520899,-1.27021 v 1.27021 h -0.201538 z"/><path id="path1214" d="m 12.683335,209.20262 h 0.209807 v 0.63252 h 0.571541 v -0.63252 h 0.209806 v 1.54306 h -0.209806 v -0.73484 h -0.571541 v 0.73484 h -0.209807 z"/></g></g></svg>