<svg xmlns="http://www.w3.org/2000/svg" xmlns:svg="http://www.w3.org/2000/svg" id="svg1176" width="510" height="380" version="1.1" viewBox="0 0 134.938 100.542"><metadata id="metadata1173"/><g id="layer1" transform="translate(0,-196.45832)"><rect style="opacity:1;fill:#00a;fill-opacity:1;stroke:none;stroke-width:.17248721;stroke-linecap:butt;stroke-linejoin:miter;stroke-miterlimit:4;stroke-dasharray:none;stroke-opacity:1;paint-order:normal" id="rect1723" width="134.938" height="100.542" x="0" y="196.458"/><rect style="opacity:1;fill:#08f;fill-opacity:1;stroke:none;stroke-width:.8142733;stroke-linecap:butt;stroke-linejoin:miter;stroke-miterlimit:4;stroke-dasharray:none;stroke-opacity:1;paint-order:normal" id="rect875" width="134.938" height="13.758" x="0" y="283.242"/><rect id="rect877" width="134.938" height="13.758" x="0" y="196.458" style="opacity:1;fill:#08f;fill-opacity:1;stroke:none;stroke-width:.8142733;stroke-linecap:butt;stroke-linejoin:miter;stroke-miterlimit:4;stroke-dasharray:none;stroke-opacity:1;paint-order:normal"/><rect style="opacity:1;fill:#08f;fill-opacity:1;stroke:none;stroke-width:.6164605;stroke-linecap:butt;stroke-linejoin:miter;stroke-miterlimit:4;stroke-dasharray:none;stroke-opacity:1;paint-order:normal" id="rect4504" width="100.542" height="10.583" x="196.458" y="-10.583" transform="rotate(90)"/><rect id="rect839" width="100.542" height="10.583" x="196.458" y="-134.938" transform="rotate(90)" style="opacity:1;fill:#08f;fill-opacity:1;stroke:none;stroke-width:.6164605;stroke-linecap:butt;stroke-linejoin:miter;stroke-miterlimit:4;stroke-dasharray:none;stroke-opacity:1;paint-order:normal"/><text style="font-style:normal;font-variant:normal;font-weight:400;font-stretch:normal;font-size:2.82222223px;line-height:1.25;font-family:'C64 Pro Mono';-inkscape-font-specification:'C64 Pro Mono, Normal';font-variant-ligatures:normal;font-variant-caps:normal;font-variant-numeric:normal;font-feature-settings:normal;text-align:start;letter-spacing:0;word-spacing:0;writing-mode:lr-tb;text-anchor:start;display:none;fill:#08f;fill-opacity:1;stroke:none;stroke-width:.26458335" id="text885" x="11.128" y="215.859" xml:space="preserve"><tspan id="tspan5573" x="11.128" y="215.859">**** PVC 64 BASIC V2 ****</tspan><tspan id="tspan5577" x="11.128" y="222.915"> 64K RAM SYSTEM 38911 BASIC BYTES FREE</tspan><tspan id="tspan5581" x="11.128" y="229.97">READY.</tspan><tspan id="tspan5583" x="11.128" y="233.498">█</tspan></text><g style="font-style:normal;font-variant:normal;font-weight:400;font-stretch:normal;font-size:2.82222223px;line-height:1.25;font-family:'C64 Pro Mono';-inkscape-font-specification:'C64 Pro Mono, Normal';font-variant-ligatures:normal;font-variant-caps:normal;font-variant-numeric:normal;font-feature-settings:normal;text-align:start;letter-spacing:0;word-spacing:0;writing-mode:lr-tb;text-anchor:start;fill:#08f;fill-opacity:1;stroke:none;stroke-width:.26458335" id="text5597" aria-label="**** PVC 64 BASIC V2 **** 64K RAM SYSTEM 38911 BASIC BYTES FREE READY. █"><path id="path5599" d="m 34.058521,215.50658 v -0.35278 h 0.352777 v -0.35277 h -0.705555 v -0.35278 h 0.705555 v -0.35278 h -0.352777 v -0.35278 h 0.705555 v 0.35278 h 0.705556 v -0.35278 h 0.705555 v 0.35278 H 35.82241 v 0.35278 h 0.705555 v 0.35278 H 35.82241 v 0.35277 h 0.352777 v 0.35278 h -0.705555 v -0.35278 h -0.705556 v 0.35278 z"/><path id="path5601" d="m 36.880742,215.50658 v -0.35278 h 0.352778 v -0.35277 h -0.705555 v -0.35278 h 0.705555 v -0.35278 h -0.352778 v -0.35278 h 0.705556 v 0.35278 h 0.705555 v -0.35278 h 0.705556 v 0.35278 h -0.352778 v 0.35278 h 0.705556 v 0.35278 h -0.705556 v 0.35277 h 0.352778 v 0.35278 h -0.705556 v -0.35278 h -0.705555 v 0.35278 z"/><path id="path5603" d="m 39.702964,215.50658 v -0.35278 h 0.352778 v -0.35277 h -0.705556 v -0.35278 h 0.705556 v -0.35278 h -0.352778 v -0.35278 h 0.705556 v 0.35278 h 0.705555 v -0.35278 h 0.705556 v 0.35278 h -0.352778 v 0.35278 h 0.705556 v 0.35278 h -0.705556 v 0.35277 h 0.352778 v 0.35278 H 41.114075 V 215.1538 H 40.40852 v 0.35278 z"/><path id="path5605" d="m 42.525188,215.50658 v -0.35278 h 0.352778 v -0.35277 H 42.17241 v -0.35278 h 0.705556 v -0.35278 h -0.352778 v -0.35278 h 0.705555 v 0.35278 h 0.705556 v -0.35278 h 0.705555 v 0.35278 h -0.352777 v 0.35278 h 0.705555 v 0.35278 h -0.705555 v 0.35277 h 0.352777 v 0.35278 h -0.705555 v -0.35278 h -0.705556 v 0.35278 z"/><path id="path5607" d="m 48.169631,215.85936 v -2.46944 h 1.763889 v 0.35277 h 0.352778 v 0.70556 H 49.93352 v 0.35278 h -1.058333 v 1.05833 z m 0.705556,-1.41111 h 0.705555 v -0.70556 h -0.705555 z"/><path id="path5609" d="m 51.697411,215.85936 v -0.35278 h -0.352778 v -0.35278 h -0.352778 v -1.76388 h 0.705556 v 1.76388 h 0.705555 v -1.76388 h 0.705556 v 1.76388 h -0.352778 v 0.35278 h -0.352778 v 0.35278 z"/><path id="path5611" d="m 54.166853,215.85936 v -0.35278 h -0.352778 v -1.76389 h 0.352778 v -0.35277 h 1.411111 v 0.35277 h 0.352777 v 0.35278 h -0.705555 v -0.35278 H 54.51963 v 1.76389 h 0.705556 v -0.35278 h 0.705555 v 0.35278 h -0.352777 v 0.35278 z"/><path id="path5613" d="m 60.164078,215.50658 h 0.705555 v -0.70555 h -0.705555 z m -0.352778,0.35278 v -0.35278 h -0.352778 v -1.76389 H 59.8113 v -0.35277 h 1.411111 v 0.35277 h 0.352778 v 0.35278 h -0.705556 v -0.35278 h -0.705555 v 0.70556 h 1.058333 v 0.35278 h 0.352778 v 0.70555 h -0.352778 v 0.35278 z"/><path id="path5615" d="m 63.691853,215.85936 v -0.70556 h -1.411111 v -0.70555 h 0.705556 v 0.35278 h 0.705555 v -0.35278 h -0.705555 v -0.35278 h 0.352777 v -0.35278 h 0.352778 v -0.35277 h 0.705556 v 1.41111 h 0.352777 v 0.35277 h -0.352777 v 0.70556 z"/><path id="path5617" d="m 67.925186,215.85936 v -2.46944 h 1.763888 v 0.35277 h 0.352778 v 0.70556 h -0.352778 v 0.35278 h 0.352778 v 0.70555 h -0.352778 v 0.35278 z m 0.705555,-0.35278 h 0.705556 v -0.70555 h -0.705556 z m 0,-1.05833 h 0.705556 v -0.70556 h -0.705556 z"/><path id="path5619" d="m 70.747409,215.85936 v -1.76389 h 0.352778 v -0.35278 h 0.352778 v -0.35277 h 0.705555 v 0.35277 h 0.352778 v 0.35278 h 0.352778 v 1.76389 H 72.15852 v -1.05833 h -0.705555 v 1.05833 z m 0.705556,-1.41111 h 0.705555 v -0.35278 h -0.705555 z"/><path id="path5621" d="m 73.922411,215.85936 v -0.35278 h -0.352778 v -0.35278 h 0.705555 v 0.35278 h 0.705556 v -0.70555 h -1.058333 v -0.35278 h -0.352778 v -0.70556 h 0.352778 v -0.35277 h 1.411111 v 0.35277 H 75.6863 v 0.35278 h -0.705556 v -0.35278 h -0.705556 v 0.70556 h 1.058334 v 0.35278 H 75.6863 v 0.70555 h -0.352778 v 0.35278 z"/><path id="path5623" d="m 78.155742,213.38992 v 0.35277 h -0.352778 v 1.76389 h 0.352778 v 0.35278 H 76.74463 v -0.35278 h 0.352778 v -1.76389 H 76.74463 v -0.35277 z"/><path id="path5625" d="m 79.566858,215.85936 v -0.35278 H 79.21408 v -1.76389 h 0.352778 v -0.35277 h 1.411111 v 0.35277 h 0.352778 v 0.35278 h -0.705556 v -0.35278 h -0.705555 v 1.76389 h 0.705555 v -0.35278 h 0.705556 v 0.35278 h -0.352778 v 0.35278 z"/><path id="path5627" d="m 85.564075,215.85936 v -0.35278 H 85.211298 V 215.1538 H 84.85852 v -1.76388 h 0.705555 v 1.76388 h 0.705556 v -1.76388 h 0.705556 v 1.76388 h -0.352778 v 0.35278 h -0.352778 v 0.35278 z"/><path id="path5629" d="m 87.68074,215.85936 v -0.70556 h 0.352777 v -0.35277 h 0.705556 v -0.35278 h 0.352778 v -0.70556 h -0.705556 v 0.35278 H 87.68074 v -0.35278 h 0.352777 v -0.35277 h 1.411112 v 0.35277 h 0.352777 v 0.70556 h -0.352777 v 0.35278 h -0.705556 v 0.35277 l -0.352778,-10e-4 v 0.35415 h 1.411111 v 0.35278 z"/><path id="path5631" d="m 93.325187,215.50658 v -0.35278 h 0.352778 v -0.35277 h -0.705556 v -0.35278 h 0.705556 v -0.35278 h -0.352778 v -0.35278 h 0.705556 v 0.35278 h 0.705555 v -0.35278 h 0.705556 v 0.35278 h -0.352778 v 0.35278 h 0.705555 v 0.35278 h -0.705555 v 0.35277 h 0.352778 v 0.35278 h -0.705556 v -0.35278 h -0.705555 v 0.35278 z"/><path id="path5633" d="m 96.147407,215.50658 v -0.35278 h 0.352778 v -0.35277 h -0.705556 v -0.35278 h 0.705556 v -0.35278 h -0.352778 v -0.35278 h 0.705555 v 0.35278 h 0.705556 v -0.35278 h 0.705556 v 0.35278 h -0.352778 v 0.35278 h 0.705555 v 0.35278 h -0.705555 v 0.35277 h 0.352778 v 0.35278 h -0.705556 v -0.35278 h -0.705556 v 0.35278 z"/><path id="path5635" d="m 98.969634,215.50658 v -0.35278 h 0.352778 v -0.35277 h -0.705555 v -0.35278 h 0.705555 v -0.35278 h -0.352778 v -0.35278 h 0.705556 v 0.35278 h 0.70556 v -0.35278 h 0.70555 v 0.35278 h -0.35278 v 0.35278 h 0.70556 v 0.35278 h -0.70556 v 0.35277 h 0.35278 v 0.35278 h -0.70555 v -0.35278 h -0.70556 v 0.35278 z"/><path id="path5637" d="m 101.79185,215.50658 v -0.35278 h 0.35278 v -0.35277 h -0.70555 v -0.35278 h 0.70555 v -0.35278 h -0.35278 v -0.35278 h 0.70556 v 0.35278 h 0.70556 v -0.35278 h 0.70555 v 0.35278 h -0.35278 v 0.35278 h 0.70556 v 0.35278 h -0.70556 v 0.35277 h 0.35278 v 0.35278 h -0.70555 v -0.35278 h -0.70556 v 0.35278 z"/><path id="path5639" d="m 15.008521,222.56214 h 0.705555 v -0.70556 h -0.705555 z m -0.352778,0.35278 v -0.35278 h -0.352778 v -1.76389 h 0.352778 v -0.35278 h 1.411111 v 0.35278 h 0.352778 v 0.35278 h -0.705556 v -0.35278 h -0.705555 v 0.70555 h 1.058333 v 0.35278 h 0.352778 v 0.70556 h -0.352778 v 0.35278 z"/><path id="path5641" d="m 18.536298,222.91492 v -0.70556 h -1.411111 v -0.70556 h 0.705556 v 0.35278 h 0.705555 v -0.35278 h -0.705555 v -0.35277 h 0.352778 v -0.35278 h 0.352777 v -0.35278 h 0.705556 v 1.41111 h 0.352778 v 0.35278 h -0.352778 v 0.70556 z"/><path id="path5643" d="m 19.94741,222.91492 v -2.46945 h 0.705555 v 0.70556 h 0.352778 v -0.35278 h 0.352778 v -0.35278 h 0.705556 v 0.35278 h -0.352778 v 0.35278 h -0.352778 v 0.35277 h -0.352778 v 0.35278 h 0.352778 v 0.35278 h 0.352778 v 0.35278 h 0.352778 v 0.35278 h -0.705556 v -0.35278 h -0.352778 v -0.35278 h -0.352778 v 0.70556 z"/><path id="path5645" d="m 25.591853,222.91492 v -2.46945 h 1.763889 v 0.35278 h 0.352778 v 0.70555 h -0.352778 v 0.35278 h -0.352777 v 0.35278 h 0.352777 v 0.35278 h 0.352778 v 0.35278 h -0.705555 v -0.35278 h -0.352778 v -0.35278 h -0.352778 v 0.70556 z m 0.705556,-1.41112 h 0.705556 v -0.70555 h -0.705556 z"/><path id="path5647" d="m 28.414077,222.91492 v -1.76389 h 0.352778 v -0.35278 h 0.352778 v -0.35278 h 0.705555 v 0.35278 h 0.352778 v 0.35278 h 0.352778 v 1.76389 h -0.705556 v -1.05834 h -0.705555 v 1.05834 z m 0.705556,-1.41112 h 0.705555 v -0.35277 h -0.705555 z"/><path id="path5649" d="m 31.236299,222.91492 v -2.46945 h 0.705555 v 0.35278 h 0.352778 v 0.35278 h 0.352778 v -0.35278 h 0.352778 v -0.35278 h 0.705555 v 2.46945 H 33.000188 V 221.5038 H 32.64741 v 0.35278 h -0.352778 v -0.35278 h -0.352778 v 1.41112 z"/><path id="path5651" d="m 37.23352,222.91492 v -0.35278 h -0.352778 v -0.35278 h 0.705556 v 0.35278 h 0.705555 v -0.70556 H 37.23352 v -0.35278 h -0.352778 v -0.70555 h 0.352778 v -0.35278 h 1.411111 v 0.35278 h 0.352778 v 0.35278 h -0.705556 v -0.35278 h -0.705555 v 0.70555 h 1.058333 v 0.35278 h 0.352778 v 0.70556 h -0.352778 v 0.35278 z"/><path id="path5653" d="m 40.40852,222.91492 v -1.05834 h -0.352778 v -0.35278 h -0.352778 v -1.05833 h 0.705556 v 1.05833 h 0.705555 v -1.05833 h 0.705556 v 1.05833 h -0.352778 v 0.35278 h -0.352778 v 1.05834 z"/><path id="path5655" d="m 42.877966,222.91492 v -0.35278 h -0.352778 v -0.35278 h 0.705555 v 0.35278 h 0.705556 v -0.70556 h -1.058333 v -0.35278 h -0.352778 v -0.70555 h 0.352778 v -0.35278 h 1.411111 v 0.35278 h 0.352777 v 0.35278 h -0.705555 v -0.35278 h -0.705556 v 0.70555 h 1.058334 v 0.35278 h 0.352777 v 0.70556 h -0.352777 v 0.35278 z"/><path id="path5657" d="m 46.052967,222.91492 v -2.11667 h -0.705556 v -0.35278 h 2.116667 v 0.35278 h -0.705555 v 2.11667 z"/><path id="path5659" d="m 50.286298,220.44547 v 0.35278 h -1.411111 v 0.70555 h 0.705555 v 0.35278 h -0.705555 v 0.70556 h 1.411111 v 0.35278 h -2.116667 v -2.46945 z"/><path id="path5661" d="m 50.991855,222.91492 v -2.46945 h 0.705556 v 0.35278 h 0.352777 v 0.35278 h 0.352778 v -0.35278 h 0.352778 v -0.35278 h 0.705555 v 2.46945 h -0.705555 v -1.41112 h -0.352778 v 0.35278 h -0.352778 v -0.35278 h -0.352777 v 1.41112 z"/><path id="path5663" d="m 59.8113,222.91492 v -0.35278 h -0.352778 v -0.35278 h 0.705556 v 0.35278 h 0.705555 v -0.70556 h -0.705555 v -0.35278 h 0.705555 v -0.70555 h -0.705555 v 0.35278 h -0.705556 v -0.35278 H 59.8113 v -0.35278 h 1.411111 v 0.35278 h 0.352778 v 0.70555 h -0.352778 v 0.35278 h 0.352778 v 0.70556 h -0.352778 v 0.35278 z"/><path id="path5665" d="m 62.63352,222.91492 v -0.35278 h -0.352778 v -0.70556 h 0.352778 v -0.35278 h -0.352778 v -0.70555 h 0.352778 v -0.35278 h 1.411111 v 0.35278 h 0.352778 v 0.70555 h -0.352778 v 0.35278 h 0.352778 v 0.70556 h -0.352778 v 0.35278 z m 0.352778,-1.41112 h 0.705555 v -0.70555 h -0.705555 z m 0,1.05834 h 0.705555 v -0.70556 h -0.705555 z"/><path id="path5667" d="m 65.455743,222.91492 v -0.35278 h -0.352777 v -0.35278 h 0.705555 v 0.35278 h 0.705556 v -0.70556 h -1.058334 v -0.35278 h -0.352777 v -0.70555 h 0.352777 v -0.35278 h 1.411112 v 0.35278 h 0.352777 v 1.76389 h -0.352777 v 0.35278 z m 0.352778,-1.41112 h 0.705556 v -0.70555 h -0.705556 z"/><path id="path5669" d="m 67.925186,222.91492 v -0.35278 h 0.705555 v -1.05834 h -0.352778 v -0.35277 h 0.352778 v -0.70556 h 0.705556 v 2.11667 h 0.705555 v 0.35278 z"/><path id="path5671" d="m 70.747409,222.91492 v -0.35278 h 0.705556 v -1.05834 h -0.352778 v -0.35277 h 0.352778 v -0.70556 h 0.705555 v 2.11667 h 0.705556 v 0.35278 z"/><path id="path5673" d="m 76.391853,222.91492 v -2.46945 h 1.763889 v 0.35278 h 0.352777 v 0.70555 h -0.352777 v 0.35278 h 0.352777 v 0.70556 h -0.352777 v 0.35278 z m 0.705555,-0.35278 h 0.705556 v -0.70556 h -0.705556 z m 0,-1.05834 h 0.705556 v -0.70555 h -0.705556 z"/><path id="path5675" d="m 79.21408,222.91492 v -1.76389 h 0.352778 v -0.35278 h 0.352778 v -0.35278 h 0.705555 v 0.35278 h 0.352778 v 0.35278 h 0.352778 v 1.76389 h -0.705556 v -1.05834 h -0.705555 v 1.05834 z m 0.705556,-1.41112 h 0.705555 v -0.35277 h -0.705555 z"/><path id="path5677" d="m 82.389078,222.91492 v -0.35278 H 82.0363 v -0.35278 h 0.705556 v 0.35278 h 0.705555 v -0.70556 H 82.389078 V 221.5038 H 82.0363 v -0.70555 h 0.352778 v -0.35278 h 1.411111 v 0.35278 h 0.352778 v 0.35278 h -0.705556 v -0.35278 h -0.705555 v 0.70555 h 1.058333 v 0.35278 h 0.352778 v 0.70556 h -0.352778 v 0.35278 z"/><path id="path5679" d="m 86.622409,220.44547 v 0.35278 h -0.352778 v 1.76389 h 0.352778 v 0.35278 h -1.411111 v -0.35278 h 0.352777 v -1.76389 h -0.352777 v -0.35278 z"/><path id="path5681" d="m 88.033517,222.91492 v -0.35278 H 87.68074 v -1.76389 h 0.352777 v -0.35278 h 1.411112 v 0.35278 h 0.352777 v 0.35278 h -0.705555 v -0.35278 h -0.705556 v 1.76389 h 0.705556 v -0.35278 h 0.705555 v 0.35278 h -0.352777 v 0.35278 z"/><path id="path5683" d="m 93.325187,222.91492 v -2.46945 h 1.763889 v 0.35278 h 0.352778 v 0.70555 h -0.352778 v 0.35278 h 0.352778 v 0.70556 h -0.352778 v 0.35278 z m 0.705556,-0.35278 h 0.705555 v -0.70556 h -0.705555 z m 0,-1.05834 h 0.705555 v -0.70555 h -0.705555 z"/><path id="path5685" d="m 96.852962,222.91492 v -1.05834 h -0.352777 v -0.35278 h -0.352778 v -1.05833 h 0.705555 v 1.05833 h 0.705556 v -1.05833 h 0.705556 v 1.05833 h -0.352778 v 0.35278 h -0.352778 v 1.05834 z"/><path id="path5687" d="m 99.67519,222.91492 v -2.11667 h -0.705556 v -0.35278 h 2.116666 v 0.35278 h -0.70555 v 2.11667 z"/><path id="path5689" d="m 103.90852,220.44547 v 0.35278 h -1.41111 v 0.70555 h 0.70556 v 0.35278 h -0.70556 v 0.70556 h 1.41111 v 0.35278 h -2.11667 v -2.46945 z"/><path id="path5691" d="m 104.96685,222.91492 v -0.35278 h -0.35278 v -0.35278 h 0.70556 v 0.35278 h 0.70556 v -0.70556 h -1.05834 v -0.35278 h -0.35278 v -0.70555 h 0.35278 v -0.35278 h 1.41111 v 0.35278 h 0.35278 v 0.35278 h -0.70555 v -0.35278 h -0.70556 v 0.70555 h 1.05833 v 0.35278 h 0.35278 v 0.70556 h -0.35278 v 0.35278 z"/><path id="path5693" d="m 110.25852,222.91492 v -2.46945 h 2.11667 v 0.35278 h -1.41111 v 0.70555 h 0.70555 v 0.35278 h -0.70555 v 1.05834 z"/><path id="path5695" d="m 113.08074,222.91492 v -2.46945 h 1.76389 v 0.35278 h 0.35278 v 0.70555 h -0.35278 v 0.35278 h -0.35278 v 0.35278 h 0.35278 v 0.35278 h 0.35278 v 0.35278 h -0.70556 v -0.35278 h -0.35278 v -0.35278 h -0.35277 v 0.70556 z m 0.70556,-1.41112 h 0.70555 v -0.70555 h -0.70555 z"/><path id="path5697" d="m 118.01964,220.44547 v 0.35278 h -1.41112 v 0.70555 h 0.70556 v 0.35278 h -0.70556 v 0.70556 h 1.41112 v 0.35278 h -2.11667 v -2.46945 z"/><path id="path5699" d="m 120.84186,220.44547 v 0.35278 h -1.41112 v 0.70555 h 0.70556 v 0.35278 h -0.70556 v 0.70556 h 1.41112 v 0.35278 h -2.11667 v -2.46945 z"/><path id="path5701" d="m 11.480743,229.97047 v -2.46944 h 1.763889 v 0.35277 h 0.352777 v 0.70556 h -0.352777 v 0.35278 h -0.352778 v 0.35278 h 0.352778 v 0.35277 h 0.352777 v 0.35278 h -0.705555 v -0.35278 h -0.352778 v -0.35277 h -0.352778 v 0.70555 z m 0.705555,-1.41111 h 0.705556 v -0.70556 h -0.705556 z"/><path id="path5703" d="m 16.419632,227.50103 v 0.35277 h -1.411111 v 0.70556 h 0.705555 v 0.35278 h -0.705555 v 0.70555 h 1.411111 v 0.35278 h -2.116667 v -2.46944 z"/><path id="path5705" d="m 17.125187,229.97047 v -1.76389 h 0.352778 v -0.35278 h 0.352778 v -0.35277 h 0.705555 v 0.35277 h 0.352778 v 0.35278 h 0.352778 v 1.76389 h -0.705556 v -1.05833 h -0.705555 v 1.05833 z m 0.705556,-1.41111 h 0.705555 v -0.35278 h -0.705555 z"/><path id="path5707" d="m 19.94741,229.97047 v -2.46944 h 1.411111 v 0.35277 h 0.352778 v 0.35278 h 0.352778 v 1.05834 h -0.352778 v 0.35277 h -0.352778 v 0.35278 z m 0.705555,-0.35278 h 0.352778 v -0.35277 h 0.352778 v -1.05834 h -0.352778 v -0.35278 h -0.352778 z"/><path id="path5709" d="m 23.475187,229.97047 v -1.05833 h -0.352778 v -0.35278 h -0.352777 v -1.05833 h 0.705555 v 1.05833 h 0.705556 v -1.05833 h 0.705555 v 1.05833 h -0.352777 v 0.35278 h -0.352778 v 1.05833 z"/><path id="path5711" d="m 26.297409,229.97047 v -0.70555 h 0.705556 v 0.70555 z"/><path id="path5713" d="m 11.127965,233.85103 v -2.82223 h 2.822222 v 2.82223 z"/></g></g></svg>