<svg xmlns="http://www.w3.org/2000/svg" xmlns:svg="http://www.w3.org/2000/svg" id="svg8" width="30" height="380" version="1.1" viewBox="0 0 7.938 100.542"><metadata id="metadata5"/><g style="display:inline" id="g1796" transform="translate(0,-196.45832)"><rect style="display:none;opacity:1;fill:#000;fill-opacity:1;stroke:none;stroke-width:0;stroke-linecap:square;stroke-linejoin:round;stroke-miterlimit:1.29999995;stroke-dasharray:none;stroke-opacity:1;paint-order:stroke markers fill" id="rect864" width="5.821" height="5.821" x="1.058" y="285.358" rx="2.91" ry="2.91"/><rect id="rect866" width="5.821" height="5.821" x="1.058" y="254.137" rx="2.91" ry="2.91" style="display:none;opacity:1;fill:#000;fill-opacity:1;stroke:none;stroke-width:0;stroke-linecap:square;stroke-linejoin:round;stroke-miterlimit:1.29999995;stroke-dasharray:none;stroke-opacity:1;paint-order:stroke markers fill"/><rect style="display:none;opacity:1;fill:#000;fill-opacity:1;stroke:none;stroke-width:0;stroke-linecap:square;stroke-linejoin:round;stroke-miterlimit:1.29999995;stroke-dasharray:none;stroke-opacity:1;paint-order:stroke markers fill" id="rect868" width="5.821" height="5.821" x="1.058" y="243.025" rx="2.91" ry="2.91"/><rect id="rect870" width="5.821" height="5.821" x="1.058" y="231.383" rx="2.91" ry="2.91" style="display:none;opacity:1;fill:#000;fill-opacity:1;stroke:none;stroke-width:0;stroke-linecap:square;stroke-linejoin:round;stroke-miterlimit:1.29999995;stroke-dasharray:none;stroke-opacity:1;paint-order:stroke markers fill"/><rect style="display:none;opacity:1;fill:#000;fill-opacity:1;stroke:none;stroke-width:0;stroke-linecap:square;stroke-linejoin:round;stroke-miterlimit:1.29999995;stroke-dasharray:none;stroke-opacity:1;paint-order:stroke markers fill" id="rect880" width="5.821" height="5.821" x="1.058" y="202.279" rx="2.91" ry="2.91"/><rect id="rect882" width="5.821" height="5.821" x="1.058" y="213.392" rx="2.91" ry="2.91" style="display:none;opacity:1;fill:#000;fill-opacity:1;stroke:none;stroke-width:0;stroke-linecap:square;stroke-linejoin:round;stroke-miterlimit:1.29999995;stroke-dasharray:none;stroke-opacity:1;paint-order:stroke markers fill"/><rect style="display:none;opacity:1;fill:#000;fill-opacity:1;stroke:none;stroke-width:0;stroke-linecap:square;stroke-linejoin:round;stroke-miterlimit:1.29999995;stroke-dasharray:none;stroke-opacity:1;paint-order:stroke markers fill" id="rect914" width="5.821" height="5.821" x="1.058" y="271.07" rx="2.91" ry="2.91"/><rect id="rect916" width="5.821" height="5.821" x="1.058" y="264.72" rx="2.91" ry="2.91" style="display:none;opacity:1;fill:#000;fill-opacity:1;stroke:none;stroke-width:0;stroke-linecap:square;stroke-linejoin:round;stroke-miterlimit:1.29999995;stroke-dasharray:none;stroke-opacity:1;paint-order:stroke markers fill"/><path id="path1790" d="m 0,365 v 15 h 30 v -15 z m 7.5,4.25 h 15 c 1.8005,0 3.25,1.4495 3.25,3.25 0,1.8005 -1.4495,3.25 -3.25,3.25 h -15 c -1.8005,0 -3.25,-1.4495 -3.25,-3.25 0,-1.8005 1.4495,-3.25 3.25,-3.25 z" transform="matrix(0.26458335,0,0,0.26458335,0,196.45832)" style="opacity:1;vector-effect:none;fill:gray;fill-opacity:1;fill-rule:evenodd;stroke:none;stroke-width:.21073182;stroke-linecap:butt;stroke-linejoin:round;stroke-miterlimit:4;stroke-dasharray:none;stroke-dashoffset:0;stroke-opacity:1;paint-order:normal"/><path id="path1792" d="m 0,200.42707 h 7.9375004 v 92.60417 H 0 Z" style="opacity:1;vector-effect:none;fill:gray;fill-opacity:1;fill-rule:evenodd;stroke:none;stroke-width:.2693277;stroke-linecap:butt;stroke-linejoin:round;stroke-miterlimit:4;stroke-dasharray:none;stroke-dashoffset:0;stroke-opacity:1;paint-order:normal"/><path style="opacity:1;vector-effect:none;fill:gray;fill-opacity:1;fill-rule:evenodd;stroke:none;stroke-width:.05575613;stroke-linecap:butt;stroke-linejoin:round;stroke-miterlimit:4;stroke-dasharray:none;stroke-dashoffset:0;stroke-opacity:1;paint-order:normal" id="path1794" d="m 0,196.45832 v 3.96875 h 7.9375005 v -3.96875 z m 1.9843751,1.12448 h 3.9687503 c 0.4763823,0 0.8598959,0.38351 0.8598959,0.8599 0,0.47638 -0.3835136,0.85989 -0.8598959,0.85989 H 1.9843751 c -0.4763823,0 -0.8598959,-0.38351 -0.8598959,-0.85989 0,-0.47639 0.3835136,-0.8599 0.8598959,-0.8599 z"/><path style="opacity:1;vector-effect:none;fill:#696969;fill-opacity:1;fill-rule:evenodd;stroke:none;stroke-width:.26778427;stroke-linecap:butt;stroke-linejoin:round;stroke-miterlimit:4;stroke-dasharray:none;stroke-dashoffset:0;stroke-opacity:1;paint-order:normal" id="path1808" d="m 0,200.95623 h 7.9375003 v 91.54584 H 0 Z"/><rect style="opacity:1;fill:#000;fill-opacity:.25490196;stroke:silver;stroke-width:.26458335;stroke-linecap:square;stroke-linejoin:round;stroke-miterlimit:1.29999995;stroke-dasharray:none;stroke-opacity:.25490196;paint-order:stroke markers fill" id="rect999" width="7.144" height="33.602" x=".397" y="227.683" rx=".794" ry=".794"/><rect id="rect912" width="7.144" height="10.319" x=".397" y="281.786" rx=".794" ry=".794" style="opacity:1;fill:#000;fill-opacity:.25490196;stroke:silver;stroke-width:.26458335;stroke-linecap:square;stroke-linejoin:round;stroke-miterlimit:1.29999995;stroke-dasharray:none;stroke-opacity:.25490196;paint-order:stroke markers fill"/><rect id="rect923" width="6.085" height="2.91" x=".927" y="277.289" rx="1.455" ry="1.455" style="display:inline;opacity:1;fill:#b22222;fill-opacity:1;stroke:none;stroke-width:.26458335;stroke-linecap:butt;stroke-linejoin:miter;stroke-miterlimit:4;stroke-dasharray:none;stroke-opacity:1;paint-order:normal"/><rect id="rect1001" width="7.144" height="21.431" x=".397" y="201.353" rx=".794" ry=".794" style="opacity:1;fill:silver;fill-opacity:.25490196;stroke:#000;stroke-width:.26458335;stroke-linecap:square;stroke-linejoin:round;stroke-miterlimit:1.29999995;stroke-dasharray:none;stroke-opacity:.25490196;paint-order:stroke markers fill"/><text style="font-style:normal;font-variant:normal;font-weight:400;font-stretch:normal;font-size:2.11666679px;line-height:1.25;font-family:'DejaVu Sans Mono';-inkscape-font-specification:'DejaVu Sans Mono, Normal';font-variant-ligatures:normal;font-variant-caps:normal;font-variant-numeric:normal;font-feature-settings:normal;text-align:center;letter-spacing:0;word-spacing:0;writing-mode:lr-tb;text-anchor:middle;display:none;fill:#000;fill-opacity:1;stroke:#fff;stroke-width:.00026458;stroke-miterlimit:4;stroke-dasharray:none;stroke-opacity:1" id="text821" x="4.002" y="210.716" xml:space="preserve"><tspan id="tspan908" x="4.002" y="210.716">IN</tspan></text><text id="text827" x="4.002" y="221.828" xml:space="preserve" style="font-style:normal;font-variant:normal;font-weight:400;font-stretch:normal;font-size:2.11666679px;line-height:1.25;font-family:'DejaVu Sans Mono';-inkscape-font-specification:'DejaVu Sans Mono, Normal';font-variant-ligatures:normal;font-variant-caps:normal;font-variant-numeric:normal;font-feature-settings:normal;text-align:center;letter-spacing:0;word-spacing:0;writing-mode:lr-tb;text-anchor:middle;display:none;fill:#000;fill-opacity:1;stroke:#fff;stroke-width:.00026458;stroke-miterlimit:4;stroke-dasharray:none;stroke-opacity:1"><tspan id="tspan910" x="4.002" y="221.828">TRG</tspan></text><text style="font-style:normal;font-variant:normal;font-weight:400;font-stretch:normal;font-size:2.11666679px;line-height:1.25;font-family:'DejaVu Sans Mono';-inkscape-font-specification:'DejaVu Sans Mono, Normal';font-variant-ligatures:normal;font-variant-caps:normal;font-variant-numeric:normal;font-feature-settings:normal;text-align:center;letter-spacing:0;word-spacing:0;writing-mode:lr-tb;text-anchor:middle;display:none;fill:#000;fill-opacity:1;stroke:#000;stroke-width:.00026458;stroke-miterlimit:4;stroke-dasharray:none;stroke-opacity:1" id="text837" x="3.935" y="279.538" xml:space="preserve"><tspan id="tspan904" x="3.935" y="279.538">MIX</tspan></text><text id="text847" x="3.935" y="284.3" xml:space="preserve" style="font-style:normal;font-variant:normal;font-weight:400;font-stretch:normal;font-size:2.11666679px;line-height:1.25;font-family:'DejaVu Sans Mono';-inkscape-font-specification:'DejaVu Sans Mono, Normal';font-variant-ligatures:normal;font-variant-caps:normal;font-variant-numeric:normal;font-feature-settings:normal;text-align:center;letter-spacing:0;word-spacing:0;writing-mode:lr-tb;text-anchor:middle;display:none;fill:snow;fill-opacity:1;stroke:#000;stroke-width:.00026458;stroke-miterlimit:4;stroke-dasharray:none;stroke-opacity:1"><tspan id="tspan918" x="3.935" y="284.3">OUT</tspan></text><text style="font-style:normal;font-variant:normal;font-weight:400;font-stretch:normal;font-size:2.11666679px;line-height:1.25;font-family:'DejaVu Sans Mono';-inkscape-font-specification:'DejaVu Sans Mono, Normal';font-variant-ligatures:normal;font-variant-caps:normal;font-variant-numeric:normal;font-feature-settings:normal;text-align:center;letter-spacing:0;word-spacing:0;writing-mode:lr-tb;text-anchor:middle;display:none;fill:snow;fill-opacity:1;stroke:#000;stroke-width:.00026458;stroke-miterlimit:4;stroke-dasharray:none;stroke-opacity:1" id="text855" x="4.002" y="241.407" xml:space="preserve"><tspan id="tspan865" x="4.002" y="241.407">SNH</tspan></text><text id="text861" x="4.002" y="230.325" xml:space="preserve" style="font-style:normal;font-variant:normal;font-weight:400;font-stretch:normal;font-size:2.11666679px;line-height:1.25;font-family:'DejaVu Sans Mono';-inkscape-font-specification:'DejaVu Sans Mono, Normal';font-variant-ligatures:normal;font-variant-caps:normal;font-variant-numeric:normal;font-feature-settings:normal;text-align:center;letter-spacing:0;word-spacing:0;writing-mode:lr-tb;text-anchor:middle;display:none;fill:snow;fill-opacity:1;stroke:#000;stroke-width:.00026458;stroke-miterlimit:4;stroke-dasharray:none;stroke-opacity:1"><tspan id="tspan863" x="4.002" y="230.325">TNH</tspan></text><text id="text875" x="4.002" y="252.519" xml:space="preserve" style="font-style:normal;font-variant:normal;font-weight:400;font-stretch:normal;font-size:2.11666679px;line-height:1.25;font-family:'DejaVu Sans Mono';-inkscape-font-specification:'DejaVu Sans Mono, Normal';font-variant-ligatures:normal;font-variant-caps:normal;font-variant-numeric:normal;font-feature-settings:normal;text-align:center;letter-spacing:0;word-spacing:0;writing-mode:lr-tb;text-anchor:middle;display:none;fill:snow;fill-opacity:1;stroke:#000;stroke-width:.00026458;stroke-miterlimit:4;stroke-dasharray:none;stroke-opacity:1"><tspan id="tspan906" x="4.002" y="252.519">NOI</tspan></text><g style="font-style:normal;font-variant:normal;font-weight:400;font-stretch:normal;font-size:2.11666679px;line-height:1.25;font-family:'DejaVu Sans Mono';-inkscape-font-specification:'DejaVu Sans Mono, Normal';font-variant-ligatures:normal;font-variant-caps:normal;font-variant-numeric:normal;font-feature-settings:normal;text-align:center;letter-spacing:0;word-spacing:0;writing-mode:lr-tb;text-anchor:middle;display:inline;fill:#000;fill-opacity:1;stroke:#fff;stroke-width:.00026458;stroke-miterlimit:4;stroke-dasharray:none;stroke-opacity:1" id="text997" aria-label="IN"><path id="path1023" d="m 2.9362944,209.17267 h 0.8567953 v 0.1757 H 3.4695952 v 1.19166 h 0.3234945 v 0.1757 H 2.9362944 v -0.1757 h 0.3234945 v -1.19166 H 2.9362944 Z"/><path id="path1025" d="m 4.145523,209.17267 h 0.2645833 l 0.5208985,1.27021 v -1.27021 h 0.2015381 v 1.54306 H 4.8679595 l -0.5208984,-1.27021 v 1.27021 H 4.145523 Z"/></g><g style="font-style:normal;font-variant:normal;font-weight:400;font-stretch:normal;font-size:2.11666679px;line-height:1.25;font-family:'DejaVu Sans Mono';-inkscape-font-specification:'DejaVu Sans Mono, Normal';font-variant-ligatures:normal;font-variant-caps:normal;font-variant-numeric:normal;font-feature-settings:normal;text-align:center;letter-spacing:0;word-spacing:0;writing-mode:lr-tb;text-anchor:middle;display:inline;fill:#000;fill-opacity:1;stroke:#fff;stroke-width:.00026458;stroke-miterlimit:4;stroke-dasharray:none;stroke-opacity:1" id="text1001" aria-label="TRG"><path id="path1028" d="m 2.1404773,220.28516 h 1.1771892 v 0.1757 H 2.8350086 v 1.36736 H 2.6252023 v -1.36736 h -0.484725 z"/><path id="path1030" d="m 4.1506906,221.09958 q 0.080615,0.0207 0.1374593,0.0786 0.056844,0.0568 0.1415935,0.22841 l 0.2098063,0.42168 H 4.415274 l -0.1839681,-0.38964 q -0.079582,-0.1664 -0.1436605,-0.21394 -0.063045,-0.0486 -0.1653646,-0.0486 H 3.7228097 v 0.65216 H 3.5130034 v -1.54306 h 0.4299479 q 0.2542481,0 0.3896404,0.11472 0.1353922,0.11472 0.1353922,0.33176 0,0.15296 -0.083716,0.25012 -0.082682,0.0961 -0.2335775,0.11782 z m -0.4278809,-0.64286 v 0.54777 h 0.2284099 q 0.1498616,0 0.2232422,-0.0672 0.073381,-0.0672 0.073381,-0.20567 0,-0.13332 -0.078548,-0.2036 -0.077515,-0.0713 -0.2263428,-0.0713 z"/><path id="path1032" d="m 5.7795318,221.70109 q -0.083716,0.0775 -0.1891357,0.11782 -0.1043864,0.0393 -0.2263428,0.0393 -0.2935222,0 -0.4568197,-0.20981 -0.1632976,-0.21084 -0.1632976,-0.59014 0,-0.37827 0.1653646,-0.58911 0.1653646,-0.21188 0.4599203,-0.21188 0.097152,0 0.1860352,0.0279 0.088883,0.0269 0.1715658,0.0827 v 0.21394 q -0.083716,-0.0796 -0.1715658,-0.11679 -0.08785,-0.0382 -0.1860352,-0.0382 -0.2036051,0 -0.3059245,0.15813 -0.1012858,0.1571 -0.1012858,0.47336 0,0.32143 0.098185,0.47645 0.099219,0.154 0.3038575,0.154 0.069246,0 0.1209228,-0.0155 0.05271,-0.0165 0.095085,-0.0507 V 221.2081 H 5.355785 v -0.17157 h 0.4237468 z"/></g><g style="font-style:normal;font-variant:normal;font-weight:400;font-stretch:normal;font-size:2.11666679px;line-height:1.25;font-family:'DejaVu Sans Mono';-inkscape-font-specification:'DejaVu Sans Mono, Normal';font-variant-ligatures:normal;font-variant-caps:normal;font-variant-numeric:normal;font-feature-settings:normal;text-align:center;letter-spacing:0;word-spacing:0;writing-mode:lr-tb;text-anchor:middle;display:inline;fill:#000;fill-opacity:1;stroke:#000;stroke-width:.00026458;stroke-miterlimit:4;stroke-dasharray:none;stroke-opacity:1" id="text1005" aria-label="MIX"><path id="path1035" d="M 2.1136053,277.99448 H 2.392658 l 0.2666504,0.78548 0.2687175,-0.78548 h 0.2800863 v 1.54306 H 3.0148423 v -1.36323 L 2.7399237,278.9877 H 2.5817938 l -0.2759522,-0.81339 v 1.36323 H 2.1136053 Z"/><path id="path1037" d="m 3.5057684,277.99448 h 0.8567953 v 0.1757 H 4.0390692 v 1.19166 h 0.3234945 v 0.1757 H 3.5057684 v -0.1757 h 0.3234945 v -1.19166 H 3.5057684 Z"/><path id="path1039" d="m 4.6602199,277.99448 h 0.2242757 l 0.3389975,0.58187 0.3451985,-0.58187 h 0.2242758 l -0.4619874,0.72554 0.4950603,0.81752 H 5.6017646 l -0.3782715,-0.66456 -0.4082439,0.66456 H 4.58994 l 0.5167643,-0.81752 z"/></g><g style="font-style:normal;font-variant:normal;font-weight:400;font-stretch:normal;font-size:2.11666679px;line-height:1.25;font-family:'DejaVu Sans Mono';-inkscape-font-specification:'DejaVu Sans Mono, Normal';font-variant-ligatures:normal;font-variant-caps:normal;font-variant-numeric:normal;font-feature-settings:normal;text-align:center;letter-spacing:0;word-spacing:0;writing-mode:lr-tb;text-anchor:middle;display:inline;fill:snow;fill-opacity:1;stroke:#000;stroke-width:.00026458;stroke-miterlimit:4;stroke-dasharray:none;stroke-opacity:1" id="text1009" aria-label="OUT"><path id="path1042" d="m 2.9600653,283.53025 q 0,-0.34003 -0.07028,-0.48576 -0.069246,-0.14572 -0.2284098,-0.14572 -0.1581299,0 -0.2284099,0.14572 -0.069246,0.14573 -0.069246,0.48576 0,0.339 0.069246,0.48473 0.07028,0.14573 0.2284099,0.14573 0.1591634,0 0.2284098,-0.1447 0.07028,-0.14573 0.07028,-0.48576 z m 0.2180745,0 q 0,0.40308 -0.1281575,0.60152 -0.1271241,0.19843 -0.3886068,0.19843 -0.2614828,0 -0.3886068,-0.1974 -0.127124,-0.1974 -0.127124,-0.60255 0,-0.40411 0.127124,-0.60254 0.1281575,-0.19844 0.3886068,-0.19844 0.2614827,0 0.3886068,0.19844 0.1281575,0.19843 0.1281575,0.60254 z"/><path id="path1044" d="m 3.4499578,283.70802 v -0.95085 h 0.2098064 v 1.04593 q 0,0.11266 0.0062,0.16124 0.0062,0.0475 0.021704,0.0734 0.033073,0.061 0.095085,0.092 0.063045,0.031 0.1519287,0.031 0.089917,0 0.1519287,-0.031 0.062012,-0.031 0.096118,-0.092 0.015503,-0.0258 0.021704,-0.0734 0.0062,-0.0476 0.0062,-0.15917 v -1.048 h 0.2087728 v 0.95085 q 0,0.23668 -0.029972,0.33693 -0.028939,0.0992 -0.1012858,0.16433 -0.068213,0.061 -0.1560628,0.091 -0.08785,0.03 -0.197404,0.03 -0.1085205,0 -0.1963705,-0.03 -0.08785,-0.03 -0.1570963,-0.091 -0.071314,-0.0641 -0.1012858,-0.16536 -0.029972,-0.10232 -0.029972,-0.3359 z"/><path id="path1046" d="m 4.6199123,282.75717 h 1.1771892 v 0.1757 H 5.3144436 v 1.36736 H 5.1046373 v -1.36736 h -0.484725 z"/></g><g style="font-style:normal;font-variant:normal;font-weight:400;font-stretch:normal;font-size:2.11666679px;line-height:1.25;font-family:'DejaVu Sans Mono';-inkscape-font-specification:'DejaVu Sans Mono, Normal';font-variant-ligatures:normal;font-variant-caps:normal;font-variant-numeric:normal;font-feature-settings:normal;text-align:center;letter-spacing:0;word-spacing:0;writing-mode:lr-tb;text-anchor:middle;display:inline;fill:snow;fill-opacity:1;stroke:#000;stroke-width:.00026458;stroke-miterlimit:4;stroke-dasharray:none;stroke-opacity:1" id="text1013" aria-label="SNH" transform="translate(0,0.52916669)"><path id="path1049" d="m 3.1378325,239.91697 v 0.21187 q -0.095085,-0.061 -0.1912028,-0.092 -0.095085,-0.031 -0.1922363,-0.031 -0.1477946,0 -0.2335775,0.0692 -0.085783,0.0682 -0.085783,0.185 0,0.10232 0.055811,0.15606 0.056844,0.0538 0.2108398,0.0899 l 0.1095541,0.0248 q 0.217041,0.0506 0.3162597,0.15916 0.099219,0.10852 0.099219,0.29559 0,0.22014 -0.1364258,0.3359 -0.1364258,0.11575 -0.396875,0.11575 -0.1085205,0 -0.2180746,-0.0238 -0.109554,-0.0227 -0.2201416,-0.0693 v -0.22221 q 0.1188558,0.0754 0.2242757,0.11059 0.1064535,0.0351 0.2139405,0.0351 0.1581299,0 0.2459798,-0.0703 0.08785,-0.0713 0.08785,-0.19844 0,-0.11575 -0.060978,-0.17673 -0.059945,-0.061 -0.2098064,-0.0941 L 2.64484,240.70221 q -0.2149739,-0.0486 -0.3121256,-0.14676 -0.097152,-0.0982 -0.097152,-0.26355 0,-0.20671 0.1384928,-0.33073 0.1395264,-0.12506 0.3700033,-0.12506 0.088883,0 0.1870687,0.0207 0.098185,0.0196 0.2067057,0.0599 z"/><path id="path1051" d="m 3.5088693,239.86426 h 0.2645833 l 0.5208985,1.27021 v -1.27021 h 0.2015381 v 1.54306 H 4.2313059 l -0.5208985,-1.27021 v 1.27021 H 3.5088693 Z"/><path id="path1053" d="m 4.7801096,239.86426 h 0.2098063 v 0.63252 h 0.5715414 v -0.63252 h 0.2098063 v 1.54306 H 5.5614573 v -0.73484 H 4.9899159 v 0.73484 H 4.7801096 Z"/></g><g style="font-style:normal;font-variant:normal;font-weight:400;font-stretch:normal;font-size:2.11666679px;line-height:1.25;font-family:'DejaVu Sans Mono';-inkscape-font-specification:'DejaVu Sans Mono, Normal';font-variant-ligatures:normal;font-variant-caps:normal;font-variant-numeric:normal;font-feature-settings:normal;text-align:center;letter-spacing:0;word-spacing:0;writing-mode:lr-tb;text-anchor:middle;display:inline;fill:snow;fill-opacity:1;stroke:#000;stroke-width:.00026458;stroke-miterlimit:4;stroke-dasharray:none;stroke-opacity:1" id="text1017" aria-label="TNH"><path id="path1056" d="m 2.1404764,228.78206 h 1.1771892 v 0.1757 H 2.8350077 v 1.36736 H 2.6252013 v -1.36736 H 2.1404764 Z"/><path id="path1058" d="m 3.5088683,228.78206 h 0.2645834 l 0.5208985,1.27021 v -1.27021 h 0.201538 v 1.54306 H 4.2313049 l -0.5208985,-1.27021 v 1.27021 H 3.5088683 Z"/><path id="path1060" d="m 4.7801086,228.78206 h 0.2098063 v 0.63252 h 0.5715414 v -0.63252 h 0.2098063 v 1.54306 H 5.5614563 v -0.73484 H 4.9899149 v 0.73484 H 4.7801086 Z"/></g><g style="font-style:normal;font-variant:normal;font-weight:400;font-stretch:normal;font-size:2.11666679px;line-height:1.25;font-family:'DejaVu Sans Mono';-inkscape-font-specification:'DejaVu Sans Mono, Normal';font-variant-ligatures:normal;font-variant-caps:normal;font-variant-numeric:normal;font-feature-settings:normal;text-align:center;letter-spacing:0;word-spacing:0;writing-mode:lr-tb;text-anchor:middle;display:inline;fill:snow;fill-opacity:1;stroke:#000;stroke-width:.00026458;stroke-miterlimit:4;stroke-dasharray:none;stroke-opacity:1" id="text1021" aria-label="NOI" transform="translate(0,1.0583334)"><path id="path1063" d="m 2.235562,250.9764 h 0.2645833 l 0.5208985,1.2702 v -1.2702 h 0.2015381 v 1.54305 H 2.9579985 l -0.5208984,-1.2702 v 1.2702 H 2.235562 Z"/><path id="path1065" d="m 4.3005523,251.74948 q 0,-0.34003 -0.07028,-0.48576 -0.069246,-0.14573 -0.2284098,-0.14573 -0.1581299,0 -0.2284099,0.14573 -0.069246,0.14573 -0.069246,0.48576 0,0.33899 0.069246,0.48472 0.07028,0.14573 0.2284099,0.14573 0.1591634,0 0.2284098,-0.1447 0.07028,-0.14572 0.07028,-0.48575 z m 0.2180745,0 q 0,0.40307 -0.1281575,0.60151 -0.1271241,0.19844 -0.3886068,0.19844 -0.2614828,0 -0.3886068,-0.19741 -0.127124,-0.1974 -0.127124,-0.60254 0,-0.40411 0.127124,-0.60255 0.1281575,-0.19844 0.3886068,-0.19844 0.2614827,0 0.3886068,0.19844 0.1281575,0.19844 0.1281575,0.60255 z"/><path id="path1067" d="m 4.8462554,250.9764 h 0.8567953 v 0.1757 H 5.3795562 v 1.19166 h 0.3234945 v 0.17569 H 4.8462554 v -0.17569 H 5.1697499 V 251.1521 H 4.8462554 Z"/></g></g></svg>