<svg xmlns="http://www.w3.org/2000/svg" xmlns:svg="http://www.w3.org/2000/svg" id="svg56722" width="14" height="20.641" version="1.1" viewBox="0 0 3.704 5.461"><metadata id="metadata56719"/><g id="layer1" transform="translate(-30.16787,-65.374457)"><path id="path5785" d="m 30.182547,65.782278 c 0,-0.213471 0.175107,-0.388578 0.388578,-0.388578 l 2.910769,0 c 0.21347,0 0.388577,0.175107 0.388577,0.388578 l 0,4.660464 c 0,0.213471 -0.175107,0.388304 -0.388577,0.388304 l -2.910769,0 c -0.213471,0 -0.388578,-0.174833 -0.388578,-0.388304 z" style="fill:#0a0b0e;fill-opacity:1;fill-rule:nonzero;stroke:none;stroke-width:1.2817142"/><g id="g5795" transform="matrix(0.27403208,0,0,-0.2740321,-184.52373,385.6778)" style="fill:#646464;fill-opacity:1;stroke-width:1.2817142"><g id="g5797" style="fill:#646464;fill-opacity:1;stroke-width:1.2817142"><path style="fill:#646464;fill-opacity:1;stroke:none;stroke-width:1.2817142" id="path5805" d="m 785.616,1167.502 c -0.468,0 -0.85,-0.382 -0.85,-0.85 l 0,0 0,-15.724 c 0,-0.468 0.382,-0.851 0.85,-0.851 l 0,0 9.241,0 c 0.466,0 0.849,0.383 0.849,0.851 l 0,0 0,15.724 c 0,0.468 -0.383,0.85 -0.849,0.85 l 0,0 z"/></g></g><path style="fill:#969696;fill-opacity:1;fill-rule:nonzero;stroke:none;stroke-width:1.2817142" id="path5815" d="m 30.527609,65.750302 2.99791,0 0,2.330369 -2.99791,0 z"/><rect style="opacity:1;fill:none;fill-opacity:1;fill-rule:nonzero;stroke:#414141;stroke-width:.46875006;stroke-miterlimit:4;stroke-dasharray:none;stroke-dashoffset:0;stroke-opacity:1" id="rect4142" width="2.382" height="1.581" x="30.814" y="66.136" ry=".192"/></g></svg>