<svg xmlns="http://www.w3.org/2000/svg" xmlns:osb="http://www.openswatchbook.org/uri/2009/osb" xmlns:svg="http://www.w3.org/2000/svg" id="svg11791" width="390" height="380" version="1.1"><defs id="defs3"><marker style="overflow:visible" id="DotM" orient="auto" refX="0" refY="0"><path style="fill-rule:evenodd;stroke:#000;stroke-width:1.00000003pt" id="path4782" d="m -2.5,-1 c 0,2.76 -2.24,5 -5,5 -2.76,0 -5,-2.24 -5,-5 0,-2.76 2.24,-5 5,-5 2.76,0 5,2.24 5,5 z" transform="matrix(0.4,0,0,0.4,2.96,0.4)"/></marker><marker style="overflow:visible" id="Arrow1Sstart" orient="auto" refX="0" refY="0"><path style="fill-rule:evenodd;stroke:#000;stroke-width:1.00000003pt" id="path4730" d="M 0,0 5,-5 -12.5,0 5,5 Z" transform="matrix(0.2,0,0,0.2,1.2,0)"/></marker><marker style="overflow:visible" id="Arrow2Mend" orient="auto" refX="0" refY="0"><path style="fill-rule:evenodd;stroke-width:.625;stroke-linejoin:round" id="path5158" d="M 8.7185878,4.0337352 -2.2072895,0.01601326 8.7185884,-4.0017078 c -1.7454984,2.3720609 -1.7354408,5.6174519 -6e-7,8.035443 z" transform="scale(-0.6)"/></marker><marker style="overflow:visible" id="Arrow2Mstart" orient="auto" refX="0" refY="0"><path style="fill-rule:evenodd;stroke-width:.625;stroke-linejoin:round" id="path5155" d="M 8.7185878,4.0337352 -2.2072895,0.01601326 8.7185884,-4.0017078 c -1.7454984,2.3720609 -1.7354408,5.6174519 -6e-7,8.035443 z" transform="scale(0.6)"/></marker><marker style="overflow:visible" id="Arrow1Mstart" orient="auto" refX="0" refY="0"><path style="fill-rule:evenodd;stroke:#000;stroke-width:1.00000003pt" id="path6730" d="M 0,0 5,-5 -12.5,0 5,5 Z" transform="matrix(0.4,0,0,0.4,4,0)"/></marker><marker style="overflow:visible" id="TriangleOutM" orient="auto" refX="0" refY="0"><path style="fill-rule:evenodd;stroke:#000;stroke-width:1.00000003pt" id="path6869" d="M 5.77,0 -2.88,5 V -5 Z" transform="scale(0.4)"/></marker><marker style="overflow:visible" id="TriangleOutS" orient="auto" refX="0" refY="0"><path style="fill-rule:evenodd;stroke:#000;stroke-width:1.00000003pt" id="path6872" d="M 5.77,0 -2.88,5 V -5 Z" transform="scale(0.2)"/></marker><marker style="overflow:visible" id="SquareL" orient="auto" refX="0" refY="0"><path style="fill-rule:evenodd;stroke:#000;stroke-width:1.00000003pt" id="path7539" d="M -5,-5 V 5 H 5 V -5 Z" transform="scale(0.8)"/></marker><marker style="overflow:visible" id="Arrow1Send" orient="auto" refX="0" refY="0"><path style="fill-rule:evenodd;stroke:#000;stroke-width:1.00000003pt" id="path6739" d="M 0,0 5,-5 -12.5,0 5,5 Z" transform="matrix(-0.2,0,0,-0.2,-1.2,0)"/></marker><marker style="overflow:visible" id="Arrow1Mend" orient="auto" refX="0" refY="0"><path style="fill-rule:evenodd;stroke:#000;stroke-width:1.00000003pt" id="path6733" d="M 0,0 5,-5 -12.5,0 5,5 Z" transform="matrix(-0.4,0,0,-0.4,-4,0)"/></marker><marker style="overflow:visible" id="Arrow1Lend" orient="auto" refX="0" refY="0"><path style="fill-rule:evenodd;stroke:#000;stroke-width:1.00000003pt" id="path6727" d="M 0,0 5,-5 -12.5,0 5,5 Z" transform="matrix(-0.8,0,0,-0.8,-10,0)"/></marker><filter style="color-interpolation-filters:sRGB" id="filter3998" width="1" height="1" x="0" y="0"><feConvolveMatrix id="feConvolveMatrix4000" bias="0" divisor="1" in="SourceGraphic" kernelMatrix="0 1 0 0 -2 0 0 1 0" order="3 3" preserveAlpha="true" result="result0" targetX="1" targetY="1"/></filter><filter style="color-interpolation-filters:sRGB" id="filter3286" width="1" height="1" x="0" y="0"><feFlood id="feFlood3288" flood-color="gray" flood-opacity="0" result="result1"/><feBlend id="feBlend3290" in2="SourceGraphic" mode="normal" result="result2"/><feComposite id="feComposite3292" in2="SourceGraphic" k1="0" k2="1" k3="0" k4="0" operator="arithmetic" result="result3"/><feComposite id="feComposite3294" in2="SourceGraphic" operator="in"/></filter><clipPath id="clipPath6603" clipPathUnits="userSpaceOnUse"><path style="clip-rule:evenodd" id="path6605" d="M 402,402 H 9515 V 13631 H 402 Z"/></clipPath><clipPath id="clipPath6613" clipPathUnits="userSpaceOnUse"><path style="clip-rule:evenodd" id="path6615" d="M 402,402 H 9515 V 13631 H 402 Z"/></clipPath><clipPath id="clipPath6619" clipPathUnits="userSpaceOnUse"><path style="clip-rule:evenodd" id="path6621" d="M 614,402 H 9303 V 6057 H 614 Z"/></clipPath><clipPath id="clipPath6290" clipPathUnits="userSpaceOnUse"><path style="clip-rule:evenodd" id="path6292" d="M 402,402 H 9515 V 13631 H 402 Z"/></clipPath><clipPath id="clipPath6300" clipPathUnits="userSpaceOnUse"><path style="clip-rule:evenodd" id="path6302" d="M 402,402 H 9515 V 13631 H 402 Z"/></clipPath><clipPath id="clipPath6306" clipPathUnits="userSpaceOnUse"><path style="clip-rule:evenodd" id="path6308" d="M 614,402 H 9303 V 6655 H 614 Z"/></clipPath><clipPath id="clipPath5977" clipPathUnits="userSpaceOnUse"><path style="clip-rule:evenodd" id="path5979" d="M 402,402 H 9515 V 13631 H 402 Z"/></clipPath><clipPath id="clipPath5987" clipPathUnits="userSpaceOnUse"><path style="clip-rule:evenodd" id="path5989" d="M 402,402 H 9515 V 13631 H 402 Z"/></clipPath><clipPath id="clipPath5993" clipPathUnits="userSpaceOnUse"><path style="clip-rule:evenodd" id="path5995" d="M 614,402 H 9303 V 6645 H 614 Z"/></clipPath><clipPath id="clipPath5664" clipPathUnits="userSpaceOnUse"><path style="clip-rule:evenodd" id="path5666" d="M 402,402 H 9515 V 13631 H 402 Z"/></clipPath><clipPath id="clipPath5674" clipPathUnits="userSpaceOnUse"><path style="clip-rule:evenodd" id="path5676" d="M 402,402 H 9515 V 13631 H 402 Z"/></clipPath><clipPath id="clipPath5680" clipPathUnits="userSpaceOnUse"><path style="clip-rule:evenodd" id="path5682" d="M 614,402 H 9303 V 6655 H 614 Z"/></clipPath><clipPath id="clipPath5363" clipPathUnits="userSpaceOnUse"><path style="clip-rule:evenodd" id="path5365" d="M 402,402 H 9515 V 13631 H 402 Z"/></clipPath><clipPath id="clipPath5373" clipPathUnits="userSpaceOnUse"><path style="clip-rule:evenodd" id="path5375" d="M 402,402 H 9515 V 13631 H 402 Z"/></clipPath><clipPath id="clipPath5379" clipPathUnits="userSpaceOnUse"><path style="clip-rule:evenodd" id="path5381" d="M 614,402 H 9303 V 6051 H 614 Z"/></clipPath><clipPath id="clipPath5062" clipPathUnits="userSpaceOnUse"><path style="clip-rule:evenodd" id="path5064" d="M 402,402 H 9515 V 13631 H 402 Z"/></clipPath><clipPath id="clipPath5072" clipPathUnits="userSpaceOnUse"><path style="clip-rule:evenodd" id="path5074" d="M 402,402 H 9515 V 13631 H 402 Z"/></clipPath><clipPath id="clipPath5078" clipPathUnits="userSpaceOnUse"><path style="clip-rule:evenodd" id="path5080" d="M 614,402 H 9303 V 6051 H 614 Z"/></clipPath><clipPath id="clipPath4761" clipPathUnits="userSpaceOnUse"><path style="clip-rule:evenodd" id="path4763" d="M 402,402 H 9515 V 13631 H 402 Z"/></clipPath><clipPath id="clipPath4771" clipPathUnits="userSpaceOnUse"><path style="clip-rule:evenodd" id="path4773" d="M 402,402 H 9515 V 13631 H 402 Z"/></clipPath><clipPath id="clipPath4777" clipPathUnits="userSpaceOnUse"><path style="clip-rule:evenodd" id="path4779" d="M 614,402 H 9303 V 6051 H 614 Z"/></clipPath><clipPath id="clipPath4159" clipPathUnits="userSpaceOnUse"><path style="clip-rule:evenodd" id="path4161" d="M 402,402 H 9515 V 13631 H 402 Z"/></clipPath><clipPath id="clipPath4169" clipPathUnits="userSpaceOnUse"><path style="clip-rule:evenodd" id="path4171" d="M 402,402 H 9515 V 13631 H 402 Z"/></clipPath><clipPath id="clipPath4175" clipPathUnits="userSpaceOnUse"><path style="clip-rule:evenodd" id="path4177" d="M 614,402 H 9303 V 6051 H 614 Z"/></clipPath><linearGradient id="linearGradient8170" osb:paint="solid"><stop style="stop-color:#000;stop-opacity:1" id="stop8172" offset="0"/></linearGradient><filter style="color-interpolation-filters:sRGB" id="filter3998-0" width="1" height="1" x="0" y="0"><feConvolveMatrix id="feConvolveMatrix4000-2" bias="0" divisor="1" in="SourceGraphic" kernelMatrix="0 1 0 0 -2 0 0 1 0" order="3 3" preserveAlpha="true" result="result0" targetX="1" targetY="1"/></filter><filter style="color-interpolation-filters:sRGB" id="filter3286-2" width="1" height="1" x="0" y="0"><feFlood id="feFlood3288-2" flood-color="gray" flood-opacity="0" result="result1"/><feBlend id="feBlend3290-7" in2="SourceGraphic" mode="normal" result="result2"/><feComposite id="feComposite3292-9" in2="SourceGraphic" k1="0" k2="1" k3="0" k4="0" operator="arithmetic" result="result3"/><feComposite id="feComposite3294-7" in2="SourceGraphic" operator="in"/></filter><clipPath id="clipPath6603-6" clipPathUnits="userSpaceOnUse"><path style="clip-rule:evenodd" id="path6605-9" d="M 402,402 H 9515 V 13631 H 402 Z"/></clipPath><clipPath id="clipPath6613-4" clipPathUnits="userSpaceOnUse"><path style="clip-rule:evenodd" id="path6615-8" d="M 402,402 H 9515 V 13631 H 402 Z"/></clipPath><clipPath id="clipPath6619-1" clipPathUnits="userSpaceOnUse"><path style="clip-rule:evenodd" id="path6621-7" d="M 614,402 H 9303 V 6057 H 614 Z"/></clipPath><clipPath id="clipPath6290-7" clipPathUnits="userSpaceOnUse"><path style="clip-rule:evenodd" id="path6292-5" d="M 402,402 H 9515 V 13631 H 402 Z"/></clipPath><clipPath id="clipPath6300-0" clipPathUnits="userSpaceOnUse"><path style="clip-rule:evenodd" id="path6302-9" d="M 402,402 H 9515 V 13631 H 402 Z"/></clipPath><clipPath id="clipPath6306-6" clipPathUnits="userSpaceOnUse"><path style="clip-rule:evenodd" id="path6308-7" d="M 614,402 H 9303 V 6655 H 614 Z"/></clipPath><clipPath id="clipPath5977-5" clipPathUnits="userSpaceOnUse"><path style="clip-rule:evenodd" id="path5979-9" d="M 402,402 H 9515 V 13631 H 402 Z"/></clipPath><clipPath id="clipPath5987-8" clipPathUnits="userSpaceOnUse"><path style="clip-rule:evenodd" id="path5989-4" d="M 402,402 H 9515 V 13631 H 402 Z"/></clipPath><clipPath id="clipPath5993-8" clipPathUnits="userSpaceOnUse"><path style="clip-rule:evenodd" id="path5995-7" d="M 614,402 H 9303 V 6645 H 614 Z"/></clipPath><clipPath id="clipPath5664-9" clipPathUnits="userSpaceOnUse"><path style="clip-rule:evenodd" id="path5666-9" d="M 402,402 H 9515 V 13631 H 402 Z"/></clipPath><clipPath id="clipPath5674-5" clipPathUnits="userSpaceOnUse"><path style="clip-rule:evenodd" id="path5676-5" d="M 402,402 H 9515 V 13631 H 402 Z"/></clipPath><clipPath id="clipPath5680-8" clipPathUnits="userSpaceOnUse"><path style="clip-rule:evenodd" id="path5682-9" d="M 614,402 H 9303 V 6655 H 614 Z"/></clipPath><clipPath id="clipPath5363-3" clipPathUnits="userSpaceOnUse"><path style="clip-rule:evenodd" id="path5365-2" d="M 402,402 H 9515 V 13631 H 402 Z"/></clipPath><clipPath id="clipPath5373-7" clipPathUnits="userSpaceOnUse"><path style="clip-rule:evenodd" id="path5375-5" d="M 402,402 H 9515 V 13631 H 402 Z"/></clipPath><clipPath id="clipPath5379-4" clipPathUnits="userSpaceOnUse"><path style="clip-rule:evenodd" id="path5381-8" d="M 614,402 H 9303 V 6051 H 614 Z"/></clipPath><clipPath id="clipPath5062-2" clipPathUnits="userSpaceOnUse"><path style="clip-rule:evenodd" id="path5064-2" d="M 402,402 H 9515 V 13631 H 402 Z"/></clipPath><clipPath id="clipPath5072-4" clipPathUnits="userSpaceOnUse"><path style="clip-rule:evenodd" id="path5074-9" d="M 402,402 H 9515 V 13631 H 402 Z"/></clipPath><clipPath id="clipPath5078-8" clipPathUnits="userSpaceOnUse"><path style="clip-rule:evenodd" id="path5080-7" d="M 614,402 H 9303 V 6051 H 614 Z"/></clipPath><clipPath id="clipPath4761-5" clipPathUnits="userSpaceOnUse"><path style="clip-rule:evenodd" id="path4763-2" d="M 402,402 H 9515 V 13631 H 402 Z"/></clipPath><clipPath id="clipPath4771-1" clipPathUnits="userSpaceOnUse"><path style="clip-rule:evenodd" id="path4773-7" d="M 402,402 H 9515 V 13631 H 402 Z"/></clipPath><clipPath id="clipPath4777-0" clipPathUnits="userSpaceOnUse"><path style="clip-rule:evenodd" id="path4779-9" d="M 614,402 H 9303 V 6051 H 614 Z"/></clipPath><clipPath id="clipPath4159-1" clipPathUnits="userSpaceOnUse"><path style="clip-rule:evenodd" id="path4161-2" d="M 402,402 H 9515 V 13631 H 402 Z"/></clipPath><clipPath id="clipPath4169-5" clipPathUnits="userSpaceOnUse"><path style="clip-rule:evenodd" id="path4171-5" d="M 402,402 H 9515 V 13631 H 402 Z"/></clipPath><clipPath id="clipPath4175-8" clipPathUnits="userSpaceOnUse"><path style="clip-rule:evenodd" id="path4177-8" d="M 614,402 H 9303 V 6051 H 614 Z"/></clipPath><linearGradient id="linearGradient8170-5" osb:paint="solid"><stop style="stop-color:#000;stop-opacity:1" id="stop8172-0" offset="0"/></linearGradient><clipPath id="clip89"><rect id="rect4864" width="18" height="19" x="0" y="0"/></clipPath><clipPath id="clip90"><path id="path4861" d="m 0.898438,0.128906 h 16.25 v 17.882813 h -16.25 z m 0,0"/></clipPath><mask id="mask44"><g style="filter:url(#alpha)" id="g4858" transform="matrix(0.26458333,0,0,0.26458333,89.358789,128.57765)"><rect style="fill:#000;fill-opacity:.14999402;stroke:none" id="rect4856" width="3052.87" height="3351.5" x="0" y="0"/></g></mask><filter id="alpha" width="1" height="1" x="0" y="0" filterUnits="objectBoundingBox"><feColorMatrix id="feColorMatrix4149" in="SourceGraphic" type="matrix" values="0 0 0 0 1 0 0 0 0 1 0 0 0 0 1 0 0 0 1 0"/></filter><clipPath id="clipPath17821"><rect id="rect17819" width="18" height="19" x="0" y="0"/></clipPath><clipPath id="clipPath17825"><path id="path17823" d="m 0.898438,0.128906 h 16.25 v 17.882813 h -16.25 z m 0,0"/></clipPath><clipPath id="clip87"><rect id="rect4848" width="24" height="26" x="0" y="0"/></clipPath><clipPath id="clip88"><path id="path4845" d="m 0.683594,0.921875 h 22.679687 v 24.9375 H 0.683594 Z m 0,0"/></clipPath><mask id="mask43"><g style="filter:url(#alpha)" id="g4842" transform="matrix(0.26458333,0,0,0.26458333,89.358789,128.57765)"><rect style="fill:#000;fill-opacity:.14999402;stroke:none" id="rect4840" width="3052.87" height="3351.5" x="0" y="0"/></g></mask><filter id="filter17836" width="1" height="1" x="0" y="0" filterUnits="objectBoundingBox"><feColorMatrix id="feColorMatrix17834" in="SourceGraphic" type="matrix" values="0 0 0 0 1 0 0 0 0 1 0 0 0 0 1 0 0 0 1 0"/></filter><clipPath id="clipPath17840"><rect id="rect17838" width="24" height="26" x="0" y="0"/></clipPath><clipPath id="clipPath17844"><path id="path17842" d="m 0.683594,0.921875 h 22.679687 v 24.9375 H 0.683594 Z m 0,0"/></clipPath></defs><metadata id="metadata4"/><g style="display:inline" id="layer2" transform="translate(0.01175524,-74.386765)"><rect id="rect7953" width="390" height="380" x="-.012" y="74.387" ry="0" style="opacity:.93999999;fill:#000;fill-opacity:1;stroke-width:20.66318512"/><text style="font-style:normal;font-weight:400;font-size:40px;line-height:1.25;font-family:sans-serif;letter-spacing:0;word-spacing:0;fill:#d4af37;fill-opacity:1;stroke:none" id="text7961" x="159.482" y="93.702" xml:space="preserve"><tspan id="tspan7959" x="159.482" y="93.702" style="font-style:normal;font-variant:normal;font-weight:400;font-stretch:normal;font-size:18.66666603px;font-family:'Cooper Black';-inkscape-font-specification:'Cooper Black, Normal';font-variant-ligatures:normal;font-variant-caps:normal;font-variant-numeric:normal;font-feature-settings:normal;text-align:start;writing-mode:lr-tb;text-anchor:start;fill:#d4af37;fill-opacity:1">Ruckus</tspan></text><g id="g6059" transform="translate(74.116674,1.5004978)"><text style="font-style:normal;font-weight:400;font-size:40px;line-height:1.25;font-family:sans-serif;letter-spacing:0;word-spacing:0;fill:#000;fill-opacity:1;stroke:none" id="text6049" x="105.966" y="444.725" xml:space="preserve"><tspan id="tspan6047" x="105.966" y="444.725" style="font-style:normal;font-variant:normal;font-weight:400;font-stretch:normal;font-size:18.66666603px;font-family:'Cooper Black';-inkscape-font-specification:'Cooper Black, Normal';font-variant-ligatures:normal;font-variant-caps:normal;font-variant-numeric:normal;font-feature-settings:normal;text-align:start;writing-mode:lr-tb;text-anchor:start;fill:#d4af37;fill-opacity:1">A</tspan></text><text id="text6053" x="121.066" y="450.725" xml:space="preserve" style="font-style:normal;font-weight:400;font-size:40px;line-height:1.25;font-family:sans-serif;letter-spacing:0;word-spacing:0;fill:#000;fill-opacity:1;stroke:none"><tspan style="font-style:normal;font-variant:normal;font-weight:400;font-stretch:normal;font-size:18.66666603px;font-family:'Cooper Black';-inkscape-font-specification:'Cooper Black, Normal';font-variant-ligatures:normal;font-variant-caps:normal;font-variant-numeric:normal;font-feature-settings:normal;text-align:start;writing-mode:lr-tb;text-anchor:start;fill:#d4af37;fill-opacity:1" id="tspan6051" x="121.066" y="450.725">H</tspan></text></g><flowRoot style="font-style:normal;font-variant:normal;font-weight:400;font-stretch:normal;font-size:40px;line-height:1.25;font-family:Eurostile;-inkscape-font-specification:Eurostile;letter-spacing:0;word-spacing:0;fill:#000;fill-opacity:1;stroke:none" id="flowRoot3678" xml:space="preserve"><flowRegion id="flowRegion3680"><rect id="rect3682" width="372.63" height="93.751" x="-29.075" y="292.183"/></flowRegion><flowPara id="flowPara3684"/></flowRoot><rect id="rect2684" width="35" height="45" x="329.988" y="-410.387" ry="4.219" transform="scale(1,-1)" style="display:inline;fill:#000;fill-opacity:1;stroke-width:.78504759"/><path id="path10145" d="m 67.725837,118.37466 v 273.2382 z" style="fill:none;stroke:red;stroke-width:2.728;stroke-linecap:butt;stroke-linejoin:miter;stroke-miterlimit:.69999999;stroke-dasharray:none;stroke-opacity:1"/><path style="fill:none;stroke:red;stroke-width:2.728;stroke-linecap:butt;stroke-linejoin:miter;stroke-miterlimit:.69999999;stroke-dasharray:none;stroke-opacity:1" id="path10955" d="m 137.72584,118.37466 v 277.8121 z"/><path id="path10957" d="M 207.72584,118.37466 V 394.35721 Z" style="fill:none;stroke:red;stroke-width:2.728;stroke-linecap:butt;stroke-linejoin:miter;stroke-miterlimit:.69999999;stroke-dasharray:none;stroke-opacity:1"/><path style="fill:none;stroke:red;stroke-width:2.728;stroke-linecap:butt;stroke-linejoin:miter;stroke-miterlimit:.69999999;stroke-dasharray:none;stroke-opacity:1" id="path10959" d="M 277.72584,118.37466 V 393.44241 Z"/><path id="path10961" d="M 66.030241,119.05532 H 342.92757 Z" style="fill:none;stroke:red;stroke-width:2.728;stroke-linecap:butt;stroke-linejoin:miter;stroke-miterlimit:.69999999;stroke-dasharray:none;stroke-opacity:1"/><path style="fill:none;stroke:red;stroke-width:2.728;stroke-linecap:butt;stroke-linejoin:miter;stroke-miterlimit:.69999999;stroke-dasharray:none;stroke-opacity:1" id="path10963" d="M 66.030241,187.56278 H 342.92757 Z"/><path id="path10965" d="M 66.030241,256.07025 H 342.92757 Z" style="fill:none;stroke:red;stroke-width:2.728;stroke-linecap:butt;stroke-linejoin:miter;stroke-miterlimit:.69999999;stroke-dasharray:none;stroke-opacity:1"/><path id="path10969" d="M 66.030241,326.07025 H 342.92757 Z" style="fill:none;stroke:red;stroke-width:2.728;stroke-linecap:butt;stroke-linejoin:miter;stroke-miterlimit:.69999999;stroke-dasharray:none;stroke-opacity:1"/><text id="text2688" x="350.969" y="397.381" transform="scale(0.99420903,1.0058247)" xml:space="preserve" style="font-style:normal;font-weight:400;font-size:39.76836014px;line-height:1.25;font-family:sans-serif;letter-spacing:0;word-spacing:0;display:inline;fill:#d4af37;fill-opacity:1;stroke:none;stroke-width:.99420899"><tspan id="tspan46744" x="350.969" y="397.381" style="font-style:normal;font-variant:normal;font-weight:700;font-stretch:normal;font-size:10.60489655px;font-family:Eurostile;-inkscape-font-specification:'Eurostile, Bold';font-variant-ligatures:normal;font-variant-caps:normal;font-variant-numeric:normal;font-feature-settings:normal;text-align:start;writing-mode:lr-tb;text-anchor:start;fill:#d4af37;fill-opacity:1;stroke-width:.99420899">RESET</tspan></text><text style="font-style:normal;font-weight:400;font-size:39.76836014px;line-height:1.25;font-family:sans-serif;letter-spacing:0;word-spacing:0;display:inline;fill:#d4af37;fill-opacity:1;stroke:none;stroke-width:.99420899" id="text1142" x="308.925" y="397.381" transform="scale(0.99420903,1.0058247)" xml:space="preserve"><tspan style="font-style:normal;font-variant:normal;font-weight:700;font-stretch:normal;font-size:10.60489655px;font-family:Eurostile;-inkscape-font-specification:'Eurostile, Bold';font-variant-ligatures:normal;font-variant-caps:normal;font-variant-numeric:normal;font-feature-settings:normal;text-align:start;writing-mode:lr-tb;text-anchor:start;fill:#d4af37;fill-opacity:1;stroke-width:.99420899" id="tspan1140" x="308.925" y="397.381">CLOCK</tspan></text></g></svg>