<svg xmlns="http://www.w3.org/2000/svg" xmlns:svg="http://www.w3.org/2000/svg" id="svg85367" width="19.2" height="128.5mm" version="1.1" viewBox="0 0 5.08 128.5"><defs id="defs85361"><filter style="color-interpolation-filters:sRGB" id="filter9267"><feColorMatrix id="feColorMatrix9265" values="1.386 0 0 0.00310677 -0.193 0 1.386 0 0.00310677 -0.193 0 0 1.386 0.00310677 -0.193 0 0 0 1 0"/></filter><marker id="Arrow2Sstart" orient="auto" refX="0" refY="0" style="overflow:visible"><path id="Arrow2SstartPath" d="M 8.72,4.03 -2.21,0.02 8.72,-4 c -1.75,2.37 -1.74,5.62 0,8.03 z" transform="matrix(0.3,0,0,0.3,-0.69,0)" style="fill:#000;fill-opacity:1;stroke:#000;stroke-opacity:1"/></marker><marker id="Arrow2Send" orient="auto" refX="0" refY="0" style="overflow:visible"><path id="Arrow2SendPath" d="M 8.72,4.03 -2.21,0.02 8.72,-4 c -1.75,2.37 -1.74,5.62 0,8.03 z" transform="matrix(-0.3,0,0,-0.3,0.69,0)" style="fill:#000;fill-opacity:1;stroke:#000;stroke-opacity:1"/></marker></defs><metadata id="metadata85364"/><g id="layer3" transform="translate(0,105.66934)" style="display:inline"><g id="g10607" transform="matrix(0.09090127,0,0,1,0,1.644659e-6)"><path id="rect817" d="M 0,-105.66934 C 14.31816,-64.122725 30.53306,22.830661 30.533057,22.830658 H 0 Z" style="display:inline;opacity:1;vector-effect:none;fill:#93bfa5;fill-opacity:1;fill-rule:evenodd;stroke:none;stroke-width:.53800601;stroke-linecap:butt;stroke-linejoin:round;stroke-miterlimit:4;stroke-dasharray:none;stroke-dashoffset:0;stroke-opacity:1;paint-order:normal"/><path id="path858" d="m 0,-105.66934 h 55.88481 l -0.0048,74.557325 z" style="display:inline;fill:#9bc4ac;fill-opacity:1;stroke:none;stroke-width:.29308614px;stroke-linecap:butt;stroke-linejoin:miter;stroke-opacity:1"/><path id="path860" d="m 0,-105.66934 55.880002,74.557325 V 22.830658 H 30.533057 Z" style="display:inline;fill:#adccb9;fill-opacity:1;stroke:none;stroke-width:.29307353px;stroke-linecap:butt;stroke-linejoin:miter;stroke-opacity:1"/></g><g id="g2029" transform="matrix(1.2780771,0,0,1.2780771,0,-105.33118)"><g style="display:inline;stroke:#c06969;stroke-width:.30000001;stroke-miterlimit:4;stroke-dasharray:none;stroke-opacity:1" id="g6392" transform="translate(0.124394,-195.6965)"><path style="opacity:1;fill:#29e376;fill-opacity:1;stroke:#c06969;stroke-width:.55108583;stroke-linecap:butt;stroke-linejoin:round;stroke-miterlimit:4;stroke-dasharray:none;stroke-opacity:1" id="path4640-8" d="m -0.124394,291.95994 3.974721,0.004"/></g></g></g></svg>