<svg xmlns="http://www.w3.org/2000/svg" xmlns:svg="http://www.w3.org/2000/svg" id="svg9135" width="7mm" height="7mm" version="1.1" viewBox="0 0 7 7"><metadata id="metadata9132"/><g id="layer1" transform="translate(-75.461656,-52.265962)"><g style="display:inline;opacity:1" id="g6897" transform="translate(-167.16247,-211.56979)"><circle style="fill:#c63434;fill-opacity:1;stroke:none;stroke-width:.53723425;stroke-linecap:round;stroke-miterlimit:4;stroke-dasharray:none;stroke-opacity:1;paint-order:normal" id="circle4577-1" cx="246.124" cy="267.336" r="3.5"/><circle style="opacity:1;fill:#111513;fill-opacity:1;stroke:none;stroke-width:2.57637811;stroke-linecap:round;stroke-linejoin:round;stroke-miterlimit:0;stroke-dasharray:none;stroke-dashoffset:37.79527664;stroke-opacity:1;paint-order:stroke markers fill" id="path7064" cx="246.124" cy="267.336" r="3.008"/><path style="fill:#c63434;fill-opacity:1;fill-rule:nonzero;stroke:none;stroke-width:.4275825;stroke-miterlimit:4;stroke-dasharray:none;stroke-opacity:1" id="path4585-1" d="m 243.44254,267.33303 c 0.008,1.48903 1.19531,2.67695 2.68436,2.68432 1.48166,-0.006 2.68068,-1.20083 2.67882,-2.68432 0,-1.48166 -1.19901,-2.67516 -2.67882,-2.67885 -1.48535,0.005 -2.67328,1.1916 -2.68436,2.67885"/><circle id="circle6319" cx="246.124" cy="267.336" r="2.165" style="fill:#e45151;fill-opacity:1;stroke:none;stroke-width:.33233303;stroke-linecap:round;stroke-miterlimit:4;stroke-dasharray:none;stroke-opacity:1;paint-order:normal"/><path id="path2944-3-6-5" d="m 247.34193,265.34648 c 0.0742,-0.0742 0.31198,0.0432 0.53108,0.26233 0.21909,0.21909 0.33654,0.45685 0.26233,0.53105 -0.0742,0.0742 -0.26771,-0.10963 -0.48681,-0.32872 -0.21909,-0.21908 -0.38081,-0.39045 -0.3066,-0.46466 z" style="display:inline;fill:#e45151;fill-opacity:1;stroke:none;stroke-width:.13345531;stroke-linecap:round;stroke-miterlimit:4;stroke-dasharray:none;stroke-opacity:1;paint-order:normal"/></g></g></svg>