<svg xmlns="http://www.w3.org/2000/svg" xmlns:svg="http://www.w3.org/2000/svg" id="svg9135" width="7mm" height="7mm" version="1.1" viewBox="0 0 7 7"><metadata id="metadata9132"/><g id="layer1" transform="translate(-75.461656,-52.265962)"><g id="g2039"><ellipse id="path2460-30-1" cx="78.962" cy="55.766" rx="3.263" ry="3.263" style="fill:#aec1b6;fill-opacity:1;stroke:#405e63;stroke-width:.13363162;stroke-linecap:round;stroke-miterlimit:4;stroke-dasharray:none;stroke-opacity:1;paint-order:markers fill stroke"/><path style="fill:#c6d4cc;fill-opacity:1;fill-rule:nonzero;stroke:none;stroke-width:.22799164" id="path7757-3-7-8" d="m 76.446322,55.762851 c 0.0071,1.345646 1.081203,2.42056 2.426027,2.426803 1.339479,-0.0045 2.423352,-1.085604 2.421571,-2.426803 -9.21e-4,-1.337647 -1.083873,-2.417024 -2.421571,-2.420579 -1.343043,0.0052 -2.41623,1.076691 -2.426027,2.420579"/><path id="path18715-7-8-0" d="m 76.863498,55.763897 c 0.0054,1.114196 0.894444,2.003065 2.008698,2.008584 1.108722,-0.0043 2.005933,-0.898534 2.004548,-2.008584 0,-1.108671 -0.897208,-2.001719 -2.004548,-2.004478 -1.111487,0.0041 -2.000401,0.891633 -2.008698,2.004478" style="fill:#405e63;fill-opacity:1;fill-rule:nonzero;stroke:#0f1511;stroke-width:.17597429;stroke-miterlimit:4;stroke-dasharray:none;stroke-opacity:1"/><path id="path2944" d="m 80.741417,55.563156 c -1.060201,1.060156 -1.114368,-0.156392 -1.402698,-0.444711 -0.28833,-0.288317 -1.416918,0.05164 -0.147725,-1.217497 0.09766,-0.09766 0.726644,0.202252 1.022686,0.49828 0.442862,0.442846 0.625397,1.066272 0.527737,1.163928 z" style="fill:#395259;fill-opacity:1;stroke:none;stroke-width:.17562778;stroke-linecap:round;stroke-miterlimit:4;stroke-dasharray:none;stroke-opacity:1;paint-order:normal"/><path style="fill:#000;fill-opacity:1;fill-rule:nonzero;stroke:none;stroke-width:.24831925" id="path7759-6-7-7" d="m 77.462141,55.76451 c 0.0039,0.781794 0.6276,1.405482 1.409435,1.409354 0.777955,-0.0028 1.407497,-0.630467 1.406526,-1.409354 0,-0.777918 -0.629541,-1.404542 -1.406526,-1.406477 -0.779892,0.0028 -1.403615,0.62563 -1.409435,1.406477"/><path id="path2944-3" d="m 78.090338,57.340341 c -0.07421,0.07421 -0.311981,-0.04324 -0.531075,-0.262327 -0.219095,-0.219085 -0.336548,-0.456845 -0.262338,-0.531051 0.07421,-0.07421 0.267715,0.109633 0.48681,0.328719 0.219095,0.219085 0.380813,0.390451 0.306603,0.464659 z" style="fill:#5b7a7e;fill-opacity:1;stroke:none;stroke-width:.13345531;stroke-linecap:round;stroke-miterlimit:4;stroke-dasharray:none;stroke-opacity:1;paint-order:normal"/></g></g></svg>