<svg xmlns="http://www.w3.org/2000/svg" xmlns:svg="http://www.w3.org/2000/svg" id="svg9728" width="23mm" height="23mm" version="1.1" viewBox="0 0 23 23"><metadata id="metadata9725"/><g id="layer2" transform="translate(-3.9300998,14.250699)" style="display:inline"><g id="g3734"><path style="color:#000;font-style:normal;font-variant:normal;font-weight:400;font-stretch:normal;font-size:medium;line-height:normal;font-family:sans-serif;font-variant-ligatures:normal;font-variant-position:normal;font-variant-caps:normal;font-variant-numeric:normal;font-variant-alternates:normal;font-feature-settings:normal;text-indent:0;text-align:start;text-decoration:none;text-decoration-line:none;text-decoration-style:solid;text-decoration-color:#000;letter-spacing:normal;word-spacing:normal;text-transform:none;writing-mode:lr-tb;direction:ltr;text-orientation:mixed;dominant-baseline:auto;baseline-shift:baseline;text-anchor:start;white-space:normal;shape-padding:0;clip-rule:nonzero;display:inline;overflow:visible;visibility:visible;opacity:1;isolation:auto;mix-blend-mode:normal;color-interpolation:sRGB;color-interpolation-filters:linearRGB;solid-color:#000;solid-opacity:1;vector-effect:none;fill:#25332a;fill-opacity:1;fill-rule:nonzero;stroke:none;stroke-width:2.56394792;stroke-linecap:round;stroke-linejoin:miter;stroke-miterlimit:4;stroke-dasharray:none;stroke-dashoffset:0;stroke-opacity:1;paint-order:normal;color-rendering:auto;image-rendering:auto;shape-rendering:auto;text-rendering:auto;enable-background:accumulate" id="path2479-1-5-7-4" d="m 15.409687,-13.969524 c -0.706662,0.01058 -1.270171,0.593969 -1.259842,1.300652 v 3.35307 c -0.09716,1.8014845 2.657585,1.8014845 2.560492,0 v -3.35307 c 0.01058,-0.722643 -0.578007,-1.311193 -1.30065,-1.300652 z m 0.02244,2.492186 c 0.260714,0.0016 0.471051,0.213682 0.47048,0.474396 5.82e-4,0.260693 -0.209766,0.472787 -0.47048,0.474375 -0.262218,5.55e-4 -0.474925,-0.212157 -0.474375,-0.474375 -5.55e-4,-0.262238 0.212157,-0.474946 0.474375,-0.474396 z"/><circle style="display:inline;fill:#d44040;fill-opacity:1;stroke:#25332a;stroke-width:1.07976365;stroke-linecap:round;stroke-miterlimit:4;stroke-dasharray:none;stroke-opacity:1" id="path2460-7-6-5-8-379-7" cx="15.43" cy="-2.751" r="5.125"/><circle style="display:inline;opacity:1;fill:#c63434;fill-opacity:1;stroke:none;stroke-width:2.21411657;stroke-linecap:round;stroke-linejoin:round;stroke-miterlimit:4;stroke-dasharray:none;stroke-opacity:1;paint-order:normal" id="path2497-5" cx="15.43" cy="-2.751" r="3.932"/></g></g><g id="layer1" transform="translate(-214.77552,-99.104612)" style="display:none"><g id="g1815"><path id="path2479-1-5-7" d="m 24.958984,-0.02929688 a 2.5760055,2.5760055 0 0 0 -2.53125,2.61328128 v 8.0761716 a 2.5760055,2.5760055 0 1 0 5.144532,0 V 2.5839844 a 2.5760055,2.5760055 0 0 0 -2.613282,-2.61328128 z m 0.04492,9.63281248 a 0.95105257,0.95105257 0 0 1 0.945313,0.9531254 0.95105257,0.95105257 0 0 1 -0.945313,0.953125 0.95105257,0.95105257 0 0 1 -0.953125,-0.953125 0.95105257,0.95105257 0 0 1 0.953125,-0.9531254 z" transform="matrix(0.26458333,0,0,0.26458333,210.84542,113.3553)" style="color:#000;font-style:normal;font-variant:normal;font-weight:400;font-stretch:normal;font-size:medium;line-height:normal;font-family:sans-serif;font-variant-ligatures:normal;font-variant-position:normal;font-variant-caps:normal;font-variant-numeric:normal;font-variant-alternates:normal;font-feature-settings:normal;text-indent:0;text-align:start;text-decoration:none;text-decoration-line:none;text-decoration-style:solid;text-decoration-color:#000;letter-spacing:normal;word-spacing:normal;text-transform:none;writing-mode:lr-tb;direction:ltr;text-orientation:mixed;dominant-baseline:auto;baseline-shift:baseline;text-anchor:start;white-space:normal;shape-padding:0;clip-rule:nonzero;display:inline;overflow:visible;visibility:visible;opacity:1;isolation:auto;mix-blend-mode:normal;color-interpolation:sRGB;color-interpolation-filters:linearRGB;solid-color:#000;solid-opacity:1;vector-effect:none;fill:#25332a;fill-opacity:1;fill-rule:nonzero;stroke:none;stroke-width:5.15149593;stroke-linecap:round;stroke-linejoin:miter;stroke-miterlimit:4;stroke-dasharray:none;stroke-dashoffset:0;stroke-opacity:1;paint-order:normal;color-rendering:auto;image-rendering:auto;shape-rendering:auto;text-rendering:auto;enable-background:accumulate"/><circle id="path2460-7-6-5-8-379" cx="217.46" cy="119.97" r="2.915" style="fill:#d44040;fill-opacity:1;stroke:#25332a;stroke-width:.61410081;stroke-linecap:round;stroke-miterlimit:4;stroke-dasharray:none;stroke-opacity:1"/><circle id="path2497" cx="217.46" cy="119.97" r="2.236" style="opacity:1;fill:#c63434;fill-opacity:1;stroke:none;stroke-width:1.25924873;stroke-linecap:round;stroke-linejoin:round;stroke-miterlimit:4;stroke-dasharray:none;stroke-opacity:1;paint-order:normal"/></g></g></svg>