<svg xmlns="http://www.w3.org/2000/svg" xmlns:svg="http://www.w3.org/2000/svg" id="svg9135" width="7mm" height="7mm" version="1.1" viewBox="0 0 7 7"><metadata id="metadata9132"/><g id="layer1" transform="translate(-75.461656,-52.265962)"><g style="display:inline" id="g4620" transform="matrix(0.25528294,0,0,0.25528294,43.352806,-30.635824)"><g id="g4595" transform="matrix(3.7795279,0,0,3.7795279,-790.55226,-672.13039)"><g style="display:inline" id="g4593" transform="matrix(0.91466439,0,0,0.91466439,186.27674,203.12835)"><circle id="circle4577" cx="65.375" cy="70.251" r="3.768" style="fill:#c63434;fill-opacity:1;stroke:none;stroke-width:.57830459;stroke-linecap:round;stroke-miterlimit:4;stroke-dasharray:none;stroke-opacity:1;paint-order:normal"/><path style="fill:#c6d4cc;fill-opacity:1;fill-rule:nonzero;stroke:none;stroke-width:.2704879" id="path4583" d="m 62.391046,70.246857 c 0.0084,1.596501 1.282705,2.8718 2.878162,2.879206 1.589116,-0.0053 2.874989,-1.28798 2.872876,-2.879206 -0.0011,-1.587009 -1.285874,-2.867604 -2.872876,-2.871821 -1.593344,0.0062 -2.866539,1.277406 -2.878162,2.871821"/><path id="path4585" d="m 62.885971,70.248098 c 0.0065,1.321904 1.061139,2.376476 2.383055,2.383023 1.315353,-0.005 2.379776,-1.066038 2.378133,-2.383023 0,-1.315348 -1.064419,-2.374878 -2.378133,-2.378151 -1.318633,0.0048 -2.373213,1.05785 -2.383055,2.378151" style="fill:#c63434;fill-opacity:1;fill-rule:nonzero;stroke:#0f1511;stroke-width:.20877486;stroke-miterlimit:4;stroke-dasharray:none;stroke-opacity:1"/><path id="path4587" d="m 97.224741,1.7842588 c 0,1.7787814 -1.066034,0.8036297 -1.549788,0.8036297 -0.483753,0 -1.145314,1.23196 -1.145314,-0.8974636 0,-0.163852 0.779249,-0.4399002 1.275941,-0.4399002 0.743027,0 1.419161,0.3698821 1.419161,0.5337341 z" transform="rotate(45)" style="fill:#a62c2c;fill-opacity:1;stroke:none;stroke-width:.20836374;stroke-linecap:round;stroke-miterlimit:4;stroke-dasharray:none;stroke-opacity:1;paint-order:normal"/><path style="fill:#000;fill-opacity:1;fill-rule:nonzero;stroke:none;stroke-width:.29460451" id="path4589" d="m 63.596182,70.248825 c 0.0046,0.927536 0.744565,1.667493 1.67211,1.672086 0.92294,-0.0033 1.66981,-0.747999 1.668657,-1.672086 0,-0.922936 -0.746867,-1.666375 -1.668657,-1.668671 -0.925241,0.0033 -1.665205,0.742261 -1.67211,1.668671"/><path id="path4591" d="m 96.491704,5.4991469 c 0,0.1245072 -0.297993,0.2254403 -0.665586,0.2254401 -0.367592,0 -0.665585,-0.100933 -0.665585,-0.2254401 0,-0.1245071 0.316559,-0.1326095 0.684151,-0.1326095 0.367593,-2e-7 0.64702,0.0081 0.64702,0.1326095 z" transform="rotate(45)" style="fill:#d47777;fill-opacity:1;stroke:none;stroke-width:.15833059;stroke-linecap:round;stroke-miterlimit:4;stroke-dasharray:none;stroke-opacity:1;paint-order:normal"/></g></g></g></g></svg>