<svg xmlns="http://www.w3.org/2000/svg" xmlns:svg="http://www.w3.org/2000/svg" id="svg56722" width="3.7mm" height="5.46mm" version="1.1" viewBox="0 0 3.7 5.46"><metadata id="metadata56719"/><g id="layer1" transform="translate(-35.423779,-63.3405)"><g id="g851" transform="matrix(1,0,0,-1,0,132.14101)"><path style="fill:#000;fill-opacity:1;fill-rule:nonzero;stroke:none;stroke-width:.35253757" id="path5785" d="m 35.423777,63.7307 c 0,-0.21436 0.17568,-0.390196 0.38985,-0.390196 h 2.9203 c 0.21417,0 0.38985,0.175836 0.38985,0.390196 v 4.679882 c 0,0.214361 -0.17568,0.389922 -0.38985,0.389922 h -2.9203 c -0.21417,0 -0.38985,-0.175561 -0.38985,-0.389922 z"/><g style="fill:#4d4d4d;fill-opacity:1;stroke-width:1.2817142" id="g5795" transform="matrix(0.27492941,0,0,-0.27517387,-179.98556,384.9591)"><g style="fill:#4d4d4d;fill-opacity:1;stroke-width:1.2817142" id="g5797"><path id="path5805" d="m 785.616,1167.502 c -0.468,0 -0.85,-0.382 -0.85,-0.85 v 0 -15.724 c 0,-0.468 0.382,-0.851 0.85,-0.851 v 0 h 9.241 c 0.466,0 0.849,0.383 0.849,0.851 v 0 15.724 c 0,0.468 -0.383,0.85 -0.849,0.85 v 0 z" style="fill:#4d4d4d;fill-opacity:1;stroke:none;stroke-width:1.2817142"/></g></g><path id="path5815" d="m 35.769968,66.147883 h 3.007728 v 2.340078 h -3.007728 z" style="fill:#e6e6e6;fill-opacity:1;fill-rule:nonzero;stroke:none;stroke-width:.35253757"/><path id="path5817" d="m 35.769968,67.18914 h 3.007728 v 0.257563 h -3.007728 z" style="fill:red;fill-opacity:1;fill-rule:nonzero;stroke:none;stroke-width:.35253757"/><path id="path5819" d="m 35.769968,68.230398 h 3.007728 v 0.257563 h -3.007728 z" style="fill:red;fill-opacity:1;fill-rule:nonzero;stroke:none;stroke-width:.35253757"/><path id="path5821" d="m 35.769968,67.710045 h 3.007728 v 0.257562 h -3.007728 z" style="fill:red;fill-opacity:1;fill-rule:nonzero;stroke:none;stroke-width:.35253757"/><path id="path5823" d="m 35.769968,66.668511 h 3.007728 v 0.257563 h -3.007728 z" style="fill:red;fill-opacity:1;fill-rule:nonzero;stroke:none;stroke-width:.35253757"/><path id="path5825" d="m 35.769968,66.147883 h 3.007728 v 0.257562 h -3.007728 z" style="fill:red;fill-opacity:1;fill-rule:nonzero;stroke:none;stroke-width:.35253757"/></g></g></svg>