<svg xmlns="http://www.w3.org/2000/svg" xmlns:svg="http://www.w3.org/2000/svg" id="svg928" width="24" height="24" version="1.1" viewBox="0 0 6.35 6.35"><metadata id="metadata925"/><g id="layer1" transform="translate(0,-290.64998)"><path style="opacity:1;fill:#000;fill-opacity:.19607843;stroke:none;stroke-width:.2571159;stroke-linecap:square;stroke-linejoin:miter;stroke-miterlimit:4;stroke-dasharray:none;stroke-opacity:1;paint-order:stroke fill markers" id="path1478" d="m 3.175,291.9729 c -1.315128,0 -2.38125001,1.00678 -2.38125001,2.24872 0,1.24195 1.06612201,2.24874 2.38125001,2.24874 1.3151281,0 2.3812499,-1.00679 2.3812499,-2.24874 0,-1.24194 -1.0661218,-2.24872 -2.3812499,-2.24872 z m 0.3043742,1.18975 0.3436483,0.40603 -0.2139405,0.16299 -0.6500895,0.49044 0.6500895,0.48997 0.2139405,0.16201 -0.3436483,0.40602 -0.2144572,-0.16202 -1.1870077,-0.89598 1.1870077,-0.89743 z"/><path id="path3037" d="m 3.175,279.20675 c -1.3151281,0 -2.38125,1.06612 -2.38125,2.38125 0,1.31513 1.0661219,2.38125 2.38125,2.38125 1.315128,0 2.3812499,-1.06612 2.3812499,-2.38125 0,-1.31513 -1.0661219,-2.38125 -2.3812499,-2.38125 z m -0.6615876,1.38867 1.2317078,0.71081 v -0.71042 h 0.4220672 v 1.98438 H 3.7451202 v -0.71042 l -1.2317078,0.7108 z" style="opacity:1;fill:#7f7f7f;fill-opacity:1;stroke:none;stroke-width:.26458332;stroke-linecap:square;stroke-linejoin:miter;stroke-miterlimit:4;stroke-dasharray:none;stroke-opacity:1;paint-order:stroke fill markers"/><path id="path823" d="m 3.175,291.44373 c -1.315128,0 -2.38125001,1.06612 -2.38125001,2.38125 0,1.31513 1.06612201,2.38125 2.38125001,2.38125 1.3151281,0 2.3812499,-1.06612 2.3812499,-2.38125 0,-1.31513 -1.0661218,-2.38125 -2.3812499,-2.38125 z" style="opacity:1;fill:#7a7a7a;fill-opacity:1;stroke:none;stroke-width:.26458332;stroke-linecap:square;stroke-linejoin:miter;stroke-miterlimit:4;stroke-dasharray:none;stroke-opacity:1;paint-order:stroke fill markers"/><path style="fill:none;stroke:#4b4b4b;stroke-width:.39687499;stroke-linecap:butt;stroke-linejoin:miter;stroke-miterlimit:4;stroke-dasharray:none;stroke-opacity:1" id="path2015" d="M 3.7586944,292.76648 H 2.8152593 v 2.117 h 0.9434351"/></g></svg>