<svg xmlns="http://www.w3.org/2000/svg" xmlns:svg="http://www.w3.org/2000/svg" id="svg928" width="24" height="24" version="1.1" viewBox="0 0 6.35 6.35"><metadata id="metadata925"/><g id="layer1" transform="translate(0,-290.64998)"><path id="path5183" d="m 3.175,292.18737 c -1.4085693,0 -2.55044033,0.99259 -2.55044028,2.21703 -5e-8,1.22444 1.14187098,2.21702 2.55044028,2.21702 1.4085693,0 2.5504403,-0.99258 2.5504402,-2.21702 10e-8,-1.22444 -1.1418709,-2.21703 -2.5504402,-2.21703 z" style="opacity:1;fill:none;fill-opacity:1;stroke:#000;stroke-width:.57770312;stroke-linecap:square;stroke-linejoin:miter;stroke-miterlimit:4;stroke-dasharray:none;stroke-opacity:.1974026;paint-order:stroke fill markers"/><path style="opacity:1;fill:#7a7a7a;fill-opacity:1;stroke:none;stroke-width:.3175;stroke-linecap:square;stroke-linejoin:miter;stroke-miterlimit:4;stroke-dasharray:none;stroke-opacity:1;paint-order:stroke fill markers" id="path1478" d="m 3.175,291.09916 a 2.8575,2.8575 0 0 0 -2.85750007,2.8575 2.8575,2.8575 0 0 0 2.85750007,2.8575 2.8575,2.8575 0 0 0 2.8575,-2.8575 2.8575,2.8575 0 0 0 -2.8575,-2.8575 z m -0.79375,1.66625 2.0637501,1.19125 -2.0637501,1.19124 z"/></g></svg>