<svg xmlns="http://www.w3.org/2000/svg" xmlns:svg="http://www.w3.org/2000/svg" id="svg928" width="24" height="24" version="1.1" viewBox="0 0 6.35 6.35"><metadata id="metadata925"/><g id="layer2" style="display:inline"><path id="path5755" d="m 3.175,1.2587854 c -1.4331294,0 -2.59491041,1.0702815 -2.59491041,2.3905404 0,1.3202588 1.16178101,2.3905403 2.59491041,2.3905403 1.4331293,0 2.5949103,-1.0702815 2.5949103,-2.3905403 0,-1.3202589 -1.161781,-2.3905404 -2.5949103,-2.3905404 z" style="opacity:1;fill:none;fill-opacity:1;stroke:#000;stroke-width:.62265754;stroke-linecap:square;stroke-linejoin:bevel;stroke-miterlimit:4;stroke-dasharray:none;stroke-opacity:.19607843;paint-order:stroke fill markers"/><path style="opacity:1;fill:#7f7f7f;fill-opacity:1;stroke:none;stroke-width:.72760415;stroke-linecap:square;stroke-linejoin:bevel;stroke-miterlimit:4;stroke-dasharray:none;stroke-opacity:1;paint-order:stroke fill markers" id="path11059" d="M 3.175,0 C 1.5676213,0 0.26458333,1.303038 0.26458333,2.9104167 c 0,1.6073786 1.30303797,2.9104166 2.91041667,2.9104166 1.6073786,0 2.9104166,-1.303038 2.9104166,-2.9104166 C 6.0854166,1.303038 4.7823786,0 3.175,0 Z m 0,1.697743 A 1.2126736,1.2126736 0 0 1 4.3876736,2.9104167 1.2126736,1.2126736 0 0 1 3.175,4.1230903 1.2126736,1.2126736 0 0 1 1.9623263,2.9104167 1.2126736,1.2126736 0 0 1 3.175,1.697743 Z"/></g></svg>