<svg xmlns="http://www.w3.org/2000/svg" xmlns:svg="http://www.w3.org/2000/svg" id="svg928" width="24" height="24" version="1.1" viewBox="0 0 6.35 6.35"><metadata id="metadata925"/><g id="layer1" transform="translate(0,-290.64998)"><path id="path6327" d="m 3.175,291.44373 c -1.6073788,0 -2.91041674,1.24382 -2.91041667,2.77813 -7e-8,1.53432 1.30303787,2.77813 2.91041667,2.77813 1.6073788,0 2.9104166,-1.24381 2.9104166,-2.77813 0,-1.53431 -1.3030378,-2.77813 -2.9104166,-2.77813 z" style="opacity:1;fill:#000;fill-opacity:.19607843;stroke:none;stroke-width:.3159447;stroke-linecap:square;stroke-linejoin:miter;stroke-miterlimit:4;stroke-dasharray:none;stroke-opacity:1;paint-order:stroke fill markers"/><path style="opacity:1;fill:#7a7a7a;fill-opacity:1;stroke:none;stroke-width:.32337961;stroke-linecap:square;stroke-linejoin:miter;stroke-miterlimit:4;stroke-dasharray:none;stroke-opacity:1;paint-order:stroke fill markers" id="path1478" d="m 3.175,290.91456 c -1.6073788,0 -2.91041674,1.30305 -2.91041667,2.91042 -7e-8,1.60738 1.30303787,2.91042 2.91041667,2.91042 1.6073788,0 2.9104166,-1.30304 2.9104166,-2.91042 0,-1.60737 -1.3030378,-2.91042 -2.9104166,-2.91042 z"/><rect style="opacity:1;fill:#b7b7b7;fill-opacity:1;stroke:none;stroke-width:.45341846;stroke-linecap:square;stroke-linejoin:miter;stroke-miterlimit:4;stroke-dasharray:none;stroke-opacity:1;paint-order:stroke fill markers" id="rect11057" width="2.418" height="2.404" x="1.966" y="292.615"/></g></svg>