<svg xmlns="http://www.w3.org/2000/svg" xmlns:svg="http://www.w3.org/2000/svg" id="svg8630" width="195.294" height="380" version="1.1" viewBox="0 0 51.671 100.542"><metadata id="metadata8627"/><g id="layer1" transform="translate(-44.467833,-88.735117)"><path id="path33449" d="M 44.541176,88.808436 H 96.065974 V 189.20454 H 44.541176 Z m 0,0" style="fill:#e6e6e6;fill-opacity:1;fill-rule:nonzero;stroke:none;stroke-width:.27602378"/><g id="logo" transform="translate(11.759859,53.053001)"><path id="path3737" d="m 55.047763,130.90923 v 1.43277 h 0.7016 q 0.38947,0 0.60216,-0.18644 0.21269,-0.18643 0.21269,-0.53122 0,-0.34223 -0.21269,-0.52867 -0.21269,-0.18644 -0.60216,-0.18644 z m -0.55797,-0.42396 h 1.25957 q 0.69332,0 1.04688,0.29115 0.35633,0.2886 0.35633,0.84792 0,0.56443 -0.35633,0.85302 -0.35356,0.2886 -1.04688,0.2886 h -0.7016 v 1.53239 h -0.55797 z" style="font-style:normal;font-weight:400;font-size:5.43959379px;line-height:1.25;font-family:sans-serif;letter-spacing:0;word-spacing:0;display:inline;fill:#000;fill-opacity:1;stroke:none;stroke-width:.13598984"/><path id="path3739" d="m 60.715833,133.75435 v -1.02414 h -0.91154 v -0.42396 h 1.46398 v 1.63709 q -0.32318,0.21198 -0.71265,0.3218 -0.38947,0.10726 -0.83143,0.10726 -0.96678,0 -1.5137,-0.521 -0.54415,-0.52356 -0.54415,-1.45576 0,-0.93476 0.54415,-1.45576 0.54692,-0.52357 1.5137,-0.52357 0.40328,0 0.76513,0.0919 0.36462,0.0919 0.67122,0.27072 v 0.5491 q -0.30936,-0.24263 -0.6574,-0.36522 -0.34804,-0.12259 -0.73199,-0.12259 -0.75685,0 -1.13804,0.39076 -0.37842,0.39075 -0.37842,1.16461 0,0.77129 0.37842,1.16205 0.38119,0.39076 1.13804,0.39076 0.29556,0 0.52758,-0.046 0.23203,-0.0486 0.4171,-0.14813 z" style="font-style:normal;font-weight:400;font-size:5.43959379px;line-height:1.25;font-family:sans-serif;letter-spacing:0;word-spacing:0;display:inline;fill:#000;fill-opacity:1;stroke:none;stroke-width:.13598984"/><path id="path3741" d="m 62.268193,131.4379 h 0.50825 v 2.86045 h -0.50825 z m 0,-1.11353 h 0.50825 v 0.59507 h -0.50825 z" style="font-style:normal;font-weight:400;font-size:5.43959379px;line-height:1.25;font-family:sans-serif;letter-spacing:0;word-spacing:0;display:inline;fill:#000;fill-opacity:1;stroke:none;stroke-width:.13598984"/></g><g style="font-style:normal;font-weight:400;font-size:4.54266644px;line-height:1.25;font-family:sans-serif;letter-spacing:0;word-spacing:0;fill:#000;fill-opacity:1;stroke:none;stroke-width:.42587495" id="text2270" aria-label="QUAD PANNER" transform="scale(0.97416344,1.0265218)"><path style="stroke-width:.42587495" id="path2323" d="m 58.181939,92.36342 q -0.487982,0 -0.776334,0.363769 -0.286135,0.363768 -0.286135,0.99149 0,0.625504 0.286135,0.989272 0.288352,0.363768 0.776334,0.363768 0.487982,0 0.771899,-0.363768 0.286134,-0.363768 0.286134,-0.989272 0,-0.627722 -0.286134,-0.99149 -0.283917,-0.363769 -0.771899,-0.363769 z m 0.627722,2.947854 0.590014,0.645467 H 58.858459 L 58.36826,95.426615 q -0.0732,0.0044 -0.113124,0.0067 -0.03771,0.0022 -0.0732,0.0022 -0.698701,0 -1.117922,-0.4658 -0.417002,-0.468019 -0.417002,-1.251008 0,-0.785207 0.417002,-1.251008 0.419221,-0.468019 1.117922,-0.468019 0.696483,0 1.113486,0.468019 0.417002,0.465801 0.417002,1.251008 0,0.576705 -0.2329,0.987054 -0.230682,0.410348 -0.669866,0.605541 z"/><path style="stroke-width:.42587495" id="path2325" d="m 60.36233,92.059541 h 0.450274 v 2.011815 q 0,0.532344 0.192975,0.767463 0.192975,0.2329 0.625504,0.2329 0.430311,0 0.623286,-0.2329 0.192974,-0.235119 0.192974,-0.767463 v -2.011815 h 0.450274 v 2.067268 q 0,0.647685 -0.321624,0.978182 -0.319406,0.330496 -0.94491,0.330496 -0.627722,0 -0.949346,-0.330496 -0.319407,-0.330497 -0.319407,-0.978182 z"/><path style="stroke-width:.42587495" id="path2327" d="m 64.847326,92.500943 -0.607759,1.648047 h 1.217736 z m -0.252863,-0.441402 h 0.507944 l 1.262099,3.311621 h -0.465801 l -0.301662,-0.849531 h -1.49278 l -0.301662,0.849531 h -0.472455 z"/><path style="stroke-width:.42587495" id="path2329" d="m 67.29389,92.427745 v 2.575213 h 0.541216 q 0.685392,0 1.00258,-0.310534 0.319407,-0.310534 0.319407,-0.9804 0,-0.665429 -0.319407,-0.973745 -0.317188,-0.310534 -1.00258,-0.310534 z m -0.448056,-0.368204 h 0.920511 q 0.962655,0 1.412929,0.401476 0.450274,0.399258 0.450274,1.251007 0,0.856187 -0.452492,1.257663 -0.452493,0.401475 -1.410711,0.401475 h -0.920511 z"/><path style="stroke-width:.42587495" id="path2331" d="m 72.235814,92.427745 v 1.244354 h 0.563397 q 0.312752,0 0.483545,-0.161922 0.170794,-0.161921 0.170794,-0.461364 0,-0.297225 -0.170794,-0.459147 -0.170793,-0.161921 -0.483545,-0.161921 z m -0.448056,-0.368204 h 1.011453 q 0.556743,0 0.840659,0.252863 0.286135,0.250645 0.286135,0.736409 0,0.4902 -0.286135,0.740845 -0.283916,0.250645 -0.840659,0.250645 h -0.563397 v 1.330859 h -0.448056 z"/><path style="stroke-width:.42587495" id="path2333" d="m 75.34337,92.500943 -0.607759,1.648047 h 1.217736 z m -0.252863,-0.441402 h 0.507944 l 1.262099,3.311621 h -0.465801 l -0.301661,-0.849531 h -1.492781 l -0.301661,0.849531 H 73.82619 Z"/><path style="stroke-width:.42587495" id="path2335" d="m 77.341876,92.059541 h 0.603323 l 1.468381,2.770405 v -2.770405 h 0.434748 v 3.311621 h -0.603323 l -1.468382,-2.770405 v 2.770405 h -0.434747 z"/><path style="stroke-width:.42587495" id="path2337" d="m 80.740004,92.059541 h 0.603323 l 1.468382,2.770405 v -2.770405 h 0.434747 v 3.311621 h -0.603323 l -1.468381,-2.770405 v 2.770405 h -0.434748 z"/><path style="stroke-width:.42587495" id="path2339" d="m 84.138131,92.059541 h 2.093885 v 0.377077 h -1.645829 v 0.980399 h 1.577068 v 0.377077 h -1.577068 v 1.199992 h 1.685755 v 0.377076 h -2.133811 z"/><path style="stroke-width:.42587495" id="path2341" d="m 88.583202,93.818493 q 0.144176,0.0488 0.27948,0.208502 0.137522,0.159703 0.275044,0.439183 l 0.454711,0.904984 h -0.481328 l -0.423657,-0.849531 q -0.164139,-0.332715 -0.319406,-0.441402 -0.153049,-0.108687 -0.419221,-0.108687 h -0.487981 v 1.39962 h -0.448056 v -3.311621 h 1.011453 q 0.567833,0 0.847314,0.237336 0.27948,0.237337 0.27948,0.716446 0,0.312752 -0.146395,0.519035 -0.144176,0.206284 -0.421438,0.286135 z m -1.122358,-1.390748 v 1.175593 h 0.563397 q 0.323842,0 0.487982,-0.148613 0.166357,-0.150831 0.166357,-0.441402 0,-0.290571 -0.166357,-0.436965 -0.16414,-0.148613 -0.487982,-0.148613 z"/></g><g style="font-style:normal;font-weight:400;font-size:2.82222223px;line-height:1.25;font-family:sans-serif;letter-spacing:0;word-spacing:0;fill:#000;fill-opacity:1;stroke:none;stroke-width:.26458332" id="text2274" aria-label="Input"><path style="stroke-width:.26458332" id="path2362" d="m 47.551148,108.90941 h 0.278364 v 2.05741 h -0.278364 z"/><path style="stroke-width:.26458332" id="path2364" d="m 49.655412,110.03527 v 0.93155 h -0.253559 v -0.92329 q 0,-0.2191 -0.08544,-0.32797 -0.08544,-0.10886 -0.256315,-0.10886 -0.205328,0 -0.323839,0.13091 -0.118511,0.13091 -0.118511,0.35691 v 0.8723 H 48.36281 v -1.5434 h 0.254938 v 0.23978 q 0.09095,-0.13919 0.213595,-0.20809 0.124024,-0.0689 0.285254,-0.0689 0.265962,0 0.402388,0.16536 0.136425,0.16399 0.136425,0.4837 z"/><path style="stroke-width:.26458332" id="path2366" d="m 50.409199,110.73531 v 0.81855 h -0.254937 v -2.13044 h 0.254937 v 0.23426 q 0.07993,-0.1378 0.201194,-0.20395 0.122645,-0.0675 0.292144,-0.0675 0.28112,0 0.456131,0.22324 0.176388,0.22324 0.176388,0.58705 0,0.3638 -0.176388,0.58704 -0.175011,0.22324 -0.456131,0.22324 -0.169499,0 -0.292144,-0.0661 -0.121268,-0.0675 -0.201194,-0.20533 z m 0.862652,-0.53881 q 0,-0.27975 -0.115755,-0.43822 -0.114377,-0.15985 -0.315571,-0.15985 -0.201193,0 -0.316949,0.15985 -0.114377,0.15847 -0.114377,0.43822 0,0.27974 0.114377,0.43959 0.115756,0.15847 0.316949,0.15847 0.201194,0 0.315571,-0.15847 0.115755,-0.15985 0.115755,-0.43959 z"/><path style="stroke-width:.26458332" id="path2368" d="m 51.929176,110.35773 v -0.93431 h 0.253559 v 0.92466 q 0,0.21911 0.08544,0.32935 0.08544,0.10887 0.256315,0.10887 0.205328,0 0.323839,-0.13092 0.119889,-0.13091 0.119889,-0.35691 v -0.87505 h 0.253559 v 1.5434 h -0.253559 v -0.23702 q -0.09233,0.14056 -0.214974,0.20946 -0.121267,0.0675 -0.282497,0.0675 -0.265962,0 -0.403766,-0.16536 -0.137803,-0.16537 -0.137803,-0.48369 z m 0.638031,-0.97152 z"/><path style="stroke-width:.26458332" id="path2370" d="m 53.997611,108.9852 v 0.43822 h 0.522276 v 0.19706 h -0.522276 v 0.83784 q 0,0.18879 0.05099,0.24254 0.05237,0.0537 0.21084,0.0537 h 0.260449 v 0.21222 h -0.260449 q -0.293522,0 -0.405143,-0.10887 -0.111621,-0.11024 -0.111621,-0.39963 v -0.83784 h -0.186035 v -0.19706 h 0.186035 v -0.43822 z"/></g><g style="font-style:normal;font-weight:400;font-size:2.82222223px;line-height:1.25;font-family:sans-serif;letter-spacing:0;word-spacing:0;fill:#000;fill-opacity:1;stroke:none;stroke-width:.26458332" id="text2280" aria-label="Pan" transform="translate(1.5875)"><path style="stroke-width:.26458332" id="path2355" d="m 60.39118,109.2718 v 0.77308 h 0.350022 q 0.194303,0 0.300412,-0.1006 0.106109,-0.10059 0.106109,-0.28663 0,-0.18466 -0.106109,-0.28525 -0.106109,-0.1006 -0.300412,-0.1006 z m -0.278364,-0.22875 h 0.628386 q 0.345887,0 0.522276,0.15709 0.177767,0.15572 0.177767,0.45751 0,0.30455 -0.177767,0.46027 -0.176389,0.15571 -0.522276,0.15571 H 60.39118 v 0.82683 h -0.278364 z"/><path style="stroke-width:.26458332" id="path2357" d="m 62.379689,110.32462 q -0.307302,0 -0.425814,0.0703 -0.118511,0.0703 -0.118511,0.23978 0,0.13505 0.08819,0.21497 0.08957,0.0786 0.242534,0.0786 0.21084,0 0.33762,-0.14883 0.128157,-0.1502 0.128157,-0.39825 v -0.0565 z m 0.50574,-0.10473 v 0.88057 H 62.63187 v -0.23427 q -0.08682,0.14056 -0.216352,0.20808 -0.129535,0.0662 -0.316949,0.0662 -0.237022,0 -0.377582,-0.13229 -0.139182,-0.13367 -0.139182,-0.35691 0,-0.26045 0.173633,-0.39275 0.175011,-0.13229 0.520898,-0.13229 h 0.355534 v -0.0248 q 0,-0.17501 -0.115755,-0.2701 -0.114377,-0.0965 -0.322461,-0.0965 -0.132292,0 -0.257693,0.0317 -0.125402,0.0317 -0.241157,0.0951 v -0.23427 q 0.139182,-0.0537 0.270096,-0.0799 0.130913,-0.0276 0.254937,-0.0276 0.334863,0 0.500228,0.17363 0.165364,0.17363 0.165364,0.52641 z"/><path style="stroke-width:.26458332" id="path2359" d="m 64.692037,110.1689 v 0.93156 h -0.253559 v -0.92329 q 0,-0.21911 -0.08544,-0.32797 -0.08544,-0.10887 -0.256315,-0.10887 -0.205328,0 -0.323839,0.13092 -0.118511,0.13091 -0.118511,0.35691 v 0.8723 h -0.254937 v -1.54341 h 0.254937 v 0.23978 q 0.09095,-0.13918 0.213596,-0.20808 0.124023,-0.0689 0.285253,-0.0689 0.265962,0 0.402388,0.16536 0.136425,0.16399 0.136425,0.48369 z"/></g><g style="font-style:normal;font-weight:400;font-size:2.82222223px;line-height:1.25;font-family:sans-serif;letter-spacing:0;word-spacing:0;fill:#000;fill-opacity:1;stroke:none;stroke-width:.26458332" id="text2284" aria-label="Level" transform="translate(0.52916667)"><path style="stroke-width:.26458332" id="path2344" d="m 70.937226,109.04305 h 0.278364 v 1.82314 h 1.001833 v 0.23427 h -1.280197 z"/><path style="stroke-width:.26458332" id="path2346" d="m 73.767716,110.26537 v 0.12402 h -1.16582 q 0.01654,0.26183 0.157096,0.39963 0.141938,0.13643 0.394119,0.13643 0.146072,0 0.282498,-0.0358 0.137804,-0.0358 0.272852,-0.10749 v 0.23978 q -0.136426,0.0579 -0.279742,0.0882 -0.143316,0.0303 -0.290766,0.0303 -0.369314,0 -0.585666,-0.21497 -0.214974,-0.21498 -0.214974,-0.58154 0,-0.37896 0.203949,-0.60082 0.205328,-0.22324 0.552594,-0.22324 0.311436,0 0.491959,0.20119 0.181901,0.19982 0.181901,0.54433 z m -0.253559,-0.0744 q -0.0028,-0.20808 -0.117133,-0.33211 -0.112999,-0.12402 -0.300412,-0.12402 -0.212218,0 -0.340376,0.11989 -0.126779,0.11989 -0.146072,0.33762 z"/><path style="stroke-width:.26458332" id="path2348" d="M 74.001983,109.55705 H 74.2707 l 0.482314,1.29536 0.482313,-1.29536 h 0.268717 l -0.578776,1.54341 h -0.344509 z"/><path style="stroke-width:.26458332" id="path2350" d="m 77.174227,110.26537 v 0.12402 h -1.165821 q 0.01654,0.26183 0.157097,0.39963 0.141938,0.13643 0.394119,0.13643 0.146072,0 0.282497,-0.0358 0.137804,-0.0358 0.272852,-0.10749 v 0.23978 q -0.136426,0.0579 -0.279742,0.0882 -0.143316,0.0303 -0.290766,0.0303 -0.369314,0 -0.585666,-0.21497 -0.214974,-0.21498 -0.214974,-0.58154 0,-0.37896 0.20395,-0.60082 0.205327,-0.22324 0.552593,-0.22324 0.311437,0 0.49196,0.20119 0.181901,0.19982 0.181901,0.54433 z m -0.253559,-0.0744 q -0.0028,-0.20808 -0.117134,-0.33211 -0.112999,-0.12402 -0.300412,-0.12402 -0.212218,0 -0.340375,0.11989 -0.12678,0.11989 -0.146072,0.33762 z"/><path style="stroke-width:.26458332" id="path2352" d="m 77.590394,108.95623 h 0.253559 v 2.14423 h -0.253559 z"/></g><g style="font-style:normal;font-weight:400;font-size:2.82222223px;line-height:1.25;font-family:sans-serif;letter-spacing:0;word-spacing:0;fill:#000;fill-opacity:1;stroke:none;stroke-width:.26458332" id="text2292" aria-label="1" transform="translate(0,1.0583333)"><path style="stroke-width:.26458332" id="path2382" d="m 47.223282,118.2161 h 0.454753 v -1.56958 l -0.494716,0.0992 v -0.25356 l 0.49196,-0.0992 h 0.278363 v 1.82314 h 0.454753 v 0.23427 h -1.185113 z"/></g><g style="font-style:normal;font-weight:400;font-size:2.82222223px;line-height:1.25;font-family:sans-serif;letter-spacing:0;word-spacing:0;fill:#000;fill-opacity:1;stroke:none;stroke-width:.26458332" id="text2296" aria-label="2" transform="translate(-0.52916667,1.0583333)"><path style="stroke-width:.26458332" id="path2379" d="m 47.815731,127.43691 h 0.971517 v 0.23426 h -1.30638 v -0.23426 q 0.158474,-0.16399 0.431326,-0.4396 0.27423,-0.27698 0.34451,-0.35691 0.133669,-0.15021 0.186035,-0.25356 0.05374,-0.10473 0.05374,-0.20533 0,-0.16398 -0.115755,-0.26734 -0.114377,-0.10335 -0.299034,-0.10335 -0.130914,0 -0.276986,0.0455 -0.144694,0.0455 -0.310059,0.1378 V 125.713 q 0.168121,-0.0675 0.314193,-0.10197 0.146072,-0.0344 0.26734,-0.0344 0.319704,0 0.509874,0.15985 0.190169,0.15985 0.190169,0.42719 0,0.12678 -0.04823,0.24116 -0.04685,0.113 -0.172255,0.26734 -0.03445,0.04 -0.219108,0.23151 -0.184657,0.19017 -0.520899,0.5333 z"/></g><g style="font-style:normal;font-weight:400;font-size:2.82222223px;line-height:1.25;font-family:sans-serif;letter-spacing:0;word-spacing:0;fill:#000;fill-opacity:1;stroke:none;stroke-width:.26458332" id="text2300" aria-label="3" transform="translate(-0.52916667,2.6458334)"><path style="stroke-width:.26458332" id="path2376" d="m 48.152043,134.71356 q 0.199815,0.0427 0.311437,0.17776 0.112999,0.13505 0.112999,0.33349 0,0.30454 -0.209462,0.47129 -0.209462,0.16674 -0.595313,0.16674 -0.129535,0 -0.267339,-0.0262 -0.136426,-0.0248 -0.282498,-0.0758 v -0.26871 q 0.115755,0.0675 0.253559,0.10197 0.137804,0.0344 0.28801,0.0344 0.261827,0 0.398253,-0.10335 0.137804,-0.10335 0.137804,-0.30041 0,-0.1819 -0.128158,-0.28388 -0.126779,-0.10335 -0.354155,-0.10335 h -0.239779 v -0.22876 h 0.250803 q 0.205328,0 0.314193,-0.0813 0.108865,-0.0827 0.108865,-0.23702 0,-0.15848 -0.112999,-0.24254 -0.111622,-0.0854 -0.321083,-0.0854 -0.114378,0 -0.245291,0.0248 -0.130914,0.0248 -0.28801,0.0772 v -0.24805 q 0.158474,-0.0441 0.296278,-0.0661 0.139182,-0.0221 0.261827,-0.0221 0.316949,0 0.501606,0.14469 0.184657,0.14332 0.184657,0.38861 0,0.17088 -0.09784,0.28939 -0.09784,0.11713 -0.278364,0.16261 z"/></g><g style="font-style:normal;font-weight:400;font-size:2.82222223px;line-height:1.25;font-family:sans-serif;letter-spacing:0;word-spacing:0;fill:#000;fill-opacity:1;stroke:none;stroke-width:.26458332" id="text2304" aria-label="4" transform="translate(-0.52916667,3.7041668)"><path style="stroke-width:.26458332" id="path2373" d="m 48.207131,143.09517 -0.702799,1.0983 h 0.702799 z m -0.07304,-0.24253 h 0.350022 v 1.34083 h 0.293522 v 0.23151 h -0.293522 v 0.48507 h -0.276986 v -0.48507 h -0.928798 v -0.26872 z"/></g><g id="g2321" transform="translate(-1.6036172)"><g style="font-style:normal;font-weight:400;font-size:2.82222223px;line-height:1.25;font-family:sans-serif;letter-spacing:0;word-spacing:0;fill:#000;fill-opacity:1;stroke:none;stroke-width:.26458332" id="text2288" aria-label="Output" transform="translate(2.6619506)"><path style="stroke-width:.26458332" id="path2385" d="m 81.260392,116.31448 q -0.303168,0 -0.482313,0.226 -0.177767,0.22599 -0.177767,0.61598 0,0.38861 0.177767,0.6146 0.179145,0.226 0.482313,0.226 0.303169,0 0.479558,-0.226 0.177766,-0.22599 0.177766,-0.6146 0,-0.38999 -0.177766,-0.61598 -0.176389,-0.226 -0.479558,-0.226 z m 0,-0.226 q 0.432704,0 0.691775,0.29077 0.259072,0.28938 0.259072,0.77721 0,0.48645 -0.259072,0.77721 -0.259071,0.28939 -0.691775,0.28939 -0.434082,0 -0.694531,-0.28939 -0.259071,-0.28939 -0.259071,-0.77721 0,-0.48783 0.259071,-0.77721 0.260449,-0.29077 0.694531,-0.29077 z"/><path style="stroke-width:.26458332" id="path2387" d="m 82.609492,117.574 v -0.9343 h 0.253559 v 0.92466 q 0,0.21911 0.08544,0.32935 0.08544,0.10886 0.256315,0.10886 0.205328,0 0.323839,-0.13091 0.11989,-0.13091 0.11989,-0.35691 v -0.87505 h 0.253559 v 1.5434 h -0.253559 v -0.23702 q -0.09233,0.14056 -0.214974,0.20946 -0.121268,0.0675 -0.282498,0.0675 -0.265962,0 -0.403765,-0.16536 -0.137804,-0.16537 -0.137804,-0.4837 z m 0.638031,-0.97151 z"/><path style="stroke-width:.26458332" id="path2389" d="m 84.677927,116.20148 v 0.43822 h 0.522277 v 0.19705 h -0.522277 v 0.83785 q 0,0.18879 0.05099,0.24254 0.05236,0.0537 0.210839,0.0537 h 0.26045 v 0.21222 h -0.26045 q -0.293522,0 -0.405143,-0.10887 -0.111621,-0.11024 -0.111621,-0.39963 v -0.83785 h -0.186035 v -0.19705 h 0.186035 v -0.43822 z"/><path style="stroke-width:.26458332" id="path2391" d="m 85.780358,117.95159 v 0.81855 h -0.254937 v -2.13044 h 0.254937 v 0.23426 q 0.07993,-0.1378 0.201193,-0.20395 0.122646,-0.0675 0.292144,-0.0675 0.28112,0 0.456131,0.22324 0.176389,0.22324 0.176389,0.58704 0,0.36381 -0.176389,0.58705 -0.175011,0.22324 -0.456131,0.22324 -0.169498,0 -0.292144,-0.0661 -0.121267,-0.0675 -0.201193,-0.20533 z m 0.862652,-0.53882 q 0,-0.27974 -0.115756,-0.43821 -0.114377,-0.15985 -0.31557,-0.15985 -0.201194,0 -0.316949,0.15985 -0.114377,0.15847 -0.114377,0.43821 0,0.27975 0.114377,0.4396 0.115755,0.15847 0.316949,0.15847 0.201193,0 0.31557,-0.15847 0.115756,-0.15985 0.115756,-0.4396 z"/><path style="stroke-width:.26458332" id="path2393" d="m 87.300334,117.574 v -0.9343 h 0.253559 v 0.92466 q 0,0.21911 0.08544,0.32935 0.08544,0.10886 0.256315,0.10886 0.205328,0 0.323839,-0.13091 0.119889,-0.13091 0.119889,-0.35691 v -0.87505 h 0.253559 v 1.5434 h -0.253559 v -0.23702 q -0.09233,0.14056 -0.214974,0.20946 -0.121267,0.0675 -0.282497,0.0675 -0.265962,0 -0.403766,-0.16536 -0.137803,-0.16537 -0.137803,-0.4837 z m 0.638031,-0.97151 z"/><path style="stroke-width:.26458332" id="path2395" d="m 89.368769,116.20148 v 0.43822 h 0.522277 v 0.19705 h -0.522277 v 0.83785 q 0,0.18879 0.05099,0.24254 0.05236,0.0537 0.21084,0.0537 h 0.260449 v 0.21222 h -0.260449 q -0.293523,0 -0.405144,-0.10887 -0.111621,-0.11024 -0.111621,-0.39963 v -0.83785 h -0.186035 v -0.19705 h 0.186035 v -0.43822 z"/></g><rect id="rect2306" width="7.617" height="24.722" x="82.693" y="120.589" style="fill:#000;fill-opacity:1;stroke-width:.33650789"/><g style="font-style:normal;font-weight:400;font-size:2.82222223px;line-height:1.25;font-family:sans-serif;letter-spacing:0;word-spacing:0;fill:#fff;fill-opacity:1;stroke:none;stroke-width:.26458332" id="text2310" aria-label="L" transform="translate(-0.52916667)"><path style="fill:#fff;fill-opacity:1;stroke-width:.26458332" id="path2401" d="m 86.30523,121.47107 h 0.278363 v 1.82314 h 1.001834 v 0.23427 H 86.30523 Z"/></g><g style="font-style:normal;font-weight:400;font-size:2.82222223px;line-height:1.25;font-family:sans-serif;letter-spacing:0;word-spacing:0;fill:#fff;fill-opacity:1;stroke:none;stroke-width:.26458332" id="text2314" aria-label="R" transform="translate(-0.5291667,2.1166667)"><path style="fill:#fff;fill-opacity:1;stroke-width:.26458332" id="path2398" d="m 87.013608,141.1391 q 0.08957,0.0303 0.173633,0.12954 0.08544,0.0992 0.170876,0.27285 l 0.282498,0.56224 h -0.299034 l -0.263205,-0.52779 q -0.101975,-0.20671 -0.198438,-0.27423 -0.09508,-0.0675 -0.260449,-0.0675 H 86.31632 v 0.86954 h -0.278363 v -2.05741 h 0.628385 q 0.352778,0 0.526411,0.14745 0.173633,0.14745 0.173633,0.4451 0,0.19431 -0.09095,0.32247 -0.08957,0.12815 -0.261827,0.17776 z m -0.697288,-0.86403 v 0.73036 h 0.350022 q 0.201194,0 0.303169,-0.0923 0.103352,-0.0937 0.103352,-0.27423 0,-0.18052 -0.103352,-0.27147 -0.101975,-0.0923 -0.303169,-0.0923 z"/></g></g></g></svg>