<svg xmlns="http://www.w3.org/2000/svg" xmlns:svg="http://www.w3.org/2000/svg" id="svg56722" width="14" height="20.641" version="1.1" viewBox="0 0 3.704 5.461"><metadata id="metadata56719"/><g id="layer1" transform="translate(-30.16787,-65.374457)"><g id="g56702" transform="matrix(0.27523902,0,0,-0.27523902,-179.70403,387.0692)" style="stroke-width:1.2817142"><g id="g5827" transform="translate(762.5078,1167.3652)" style="stroke-width:1.2817142"><path id="path5829" d="M 0,0 C 0,0.779 0.639,1.418 1.418,1.418 H 12.04 c 0.779,0 1.418,-0.639 1.418,-1.418 v -17.007 c 0,-0.779 -0.639,-1.417 -1.418,-1.417 H 1.418 C 0.639,-18.424 0,-17.786 0,-17.007 Z" style="fill:#000;fill-opacity:1;fill-rule:nonzero;stroke:none;stroke-width:1.2817142"/></g><g style="fill:#282828;fill-opacity:1;stroke-width:1.2817142" id="g5839"><g style="fill:#282828;fill-opacity:1;stroke-width:1.2817142" id="g5841"><path id="path5849" d="m 764.617,1167.502 c -0.468,0 -0.852,-0.382 -0.852,-0.85 v 0 -15.724 c 0,-0.468 0.384,-0.851 0.852,-0.851 v 0 h 9.239 c 0.467,0 0.85,0.383 0.85,0.851 v 0 15.724 c 0,0.468 -0.383,0.85 -0.85,0.85 v 0 z" style="fill:#282828;fill-opacity:1;stroke:none;stroke-width:1.2817142"/></g></g><path id="path5859" d="m 763.767,1167.503 h 10.94 v -8.504 h -10.94 z" style="fill:#444;fill-opacity:1;fill-rule:nonzero;stroke:none;stroke-width:1.2817142"/><path id="path5861" d="m 763.767,1163.719 h 10.94 v -0.936 h -10.94 z" style="fill:#999;fill-opacity:1;fill-rule:nonzero;stroke:none;stroke-width:1.2817142"/><path id="path5863" d="m 763.767,1159.935 h 10.94 v -0.936 h -10.94 z" style="fill:#999;fill-opacity:1;fill-rule:nonzero;stroke:none;stroke-width:1.2817142"/><path id="path5865" d="m 763.767,1161.826 h 10.94 v -0.936 h -10.94 z" style="fill:#999;fill-opacity:1;fill-rule:nonzero;stroke:none;stroke-width:1.2817142"/><path id="path5867" d="m 763.767,1165.611 h 10.94 v -0.936 h -10.94 z" style="fill:#999;fill-opacity:1;fill-rule:nonzero;stroke:none;stroke-width:1.2817142"/><path id="path5869" d="m 763.767,1167.503 h 10.94 v -0.936 h -10.94 z" style="fill:#999;fill-opacity:1;fill-rule:nonzero;stroke:none;stroke-width:1.2817142"/></g><path style="opacity:1;fill:#00a20f;fill-opacity:1;stroke:none;stroke-width:.5;stroke-linecap:square;stroke-linejoin:bevel;stroke-miterlimit:4;stroke-dasharray:none;stroke-opacity:1;paint-order:normal" id="path824" d="M 1.5934151,19.176729 1.3742592,18.957574 v -4.379059 -4.379058 h 5.625 5.6249998 v 4.379058 4.379059 l -0.219156,0.219155 -0.219155,0.219156 H 6.9992592 1.8125709 Z" transform="matrix(0.26458333,0,0,0.26458333,30.16787,65.374457)"/><g style="font-style:normal;font-variant:normal;font-weight:400;font-stretch:normal;font-size:4.23333311px;line-height:1.25;font-family:Matematica;-inkscape-font-specification:'Matematica, Normal';font-variant-ligatures:normal;font-variant-caps:normal;font-variant-numeric:normal;font-feature-settings:normal;text-align:start;letter-spacing:0;word-spacing:0;writing-mode:lr-tb;text-anchor:start;fill:#000;fill-opacity:1;stroke:none;stroke-width:.26458332" id="text827" aria-label="+"><path id="path827" d="m 32.946812,69.059259 c 0,-0.03387 -0.02963,-0.05927 -0.05927,-0.05927 h -0.474133 c -0.03387,0 -0.05927,-0.0254 -0.05927,-0.05927 v -0.474134 c 0,-0.03387 -0.02963,-0.05927 -0.05927,-0.05927 h -0.474133 c -0.03387,0 -0.05927,0.0254 -0.05927,0.05927 v 0.474134 c 0,0.03387 -0.02963,0.05927 -0.05927,0.05927 h -0.474134 c -0.03387,0 -0.05927,0.0254 -0.05927,0.05927 v 0.474133 c 0,0.03387 0.0254,0.05927 0.05927,0.05927 h 0.474134 c 0.02963,0 0.05927,0.0254 0.05927,0.05927 v 0.474133 c 0,0.03387 0.0254,0.05927 0.05927,0.05927 h 0.474133 c 0.02963,0 0.05927,-0.0254 0.05927,-0.05927 v -0.474133 c 0,-0.03387 0.0254,-0.05927 0.05927,-0.05927 h 0.474133 c 0.02963,0 0.05927,-0.0254 0.05927,-0.05927 z"/></g></g></svg>