<svg xmlns="http://www.w3.org/2000/svg" xmlns:svg="http://www.w3.org/2000/svg" id="svg8" width="120" height="380" version="1.1" viewBox="0 0 31.75 100.542"><metadata id="metadata5"/><g id="layer2"><rect style="fill:#7c7c7c;fill-opacity:1;stroke-width:.26458335" id="rect4667" width="23.813" height="100.542" x="0" y="0"/><path style="fill:#7c7c7c;fill-opacity:1;stroke-width:.35355338" id="path4669" d="M 0.1193696,216.91378 V 54.102446 H 45.02065 89.921931 V 216.91378 379.72512 H 45.02065 0.1193696 Z m 50.1216984,93.07293 -0.09389,-9.98788 -5.038135,-0.0981 -5.038136,-0.0981 v -9.88979 -9.88979 h 5.132029 5.132032 l -0.0939,-9.98788 -0.09389,-9.98788 -5.038135,-0.0981 -5.038136,-0.0981 v -9.88009 -9.88008 l 5.038136,-0.0981 5.038135,-0.0981 v -19.97576 -19.97577 l -5.038135,-0.0981 -5.038136,-0.0981 v -9.70331 -9.7033 l 5.038136,-0.0981 5.038135,-0.0981 v -10.07627 -10.07627 l -5.038135,-0.0981 -5.038136,-0.0981 v -9.88979 -9.88979 h 5.132029 5.132032 l -0.0939,-9.98788 -0.09389,-9.98789 -5.038135,-0.0981 -5.038136,-0.0981 v -9.88008 -9.88008 l 5.038136,-0.09809 5.038135,-0.0981 V 89.988115 80.08862 L 35.032771,79.99644 19.918363,79.90425 v 10.080067 10.080073 h -4.949747 -4.949747 v 9.89949 9.8995 h 4.949747 4.949747 v 10.07627 10.07627 h -4.949747 -4.949747 v 9.89949 9.8995 h 4.949747 4.949747 v 10.07627 10.07627 h -4.949747 -4.949747 v 9.8995 9.89949 h 4.949747 4.949747 v 20.15255 20.15254 h -4.949747 -4.949747 v 9.89949 9.8995 h 4.949747 4.949747 v 10.07627 10.07627 h -4.949747 -4.949747 v 9.8995 9.89949 h 4.949747 4.949747 v 10.07627 10.07628 H 35.12666 50.334964 Z" transform="scale(0.26458334)"/><path style="fill:#7c7c7c;fill-opacity:1;stroke-width:.35355338" id="path4671" d="M 0.1193696,216.91378 V 54.102446 H 45.02065 89.921931 V 216.91378 379.72512 H 45.02065 0.1193696 Z m 50.1216984,93.07293 -0.09389,-9.98788 -5.038135,-0.0981 -5.038136,-0.0981 v -9.88979 -9.88979 h 5.132029 5.132032 l -0.0939,-9.98788 -0.09389,-9.98788 -5.038135,-0.0981 -5.038136,-0.0981 v -9.88009 -9.88008 l 5.038136,-0.0981 5.038135,-0.0981 v -19.97576 -19.97577 l -5.038135,-0.0981 -5.038136,-0.0981 v -9.70331 -9.7033 l 5.038136,-0.0981 5.038135,-0.0981 v -10.07627 -10.07627 l -5.038135,-0.0981 -5.038136,-0.0981 v -9.88979 -9.88979 h 5.132029 5.132032 l -0.0939,-9.98788 -0.09389,-9.98789 -5.038135,-0.0981 -5.038136,-0.0981 v -9.88008 -9.88008 l 5.038136,-0.09809 5.038135,-0.0981 V 89.988115 80.08862 L 35.032771,79.99644 19.918363,79.90425 v 10.080067 10.080073 h -4.949747 -4.949747 v 9.89949 9.8995 h 4.949747 4.949747 v 10.07627 10.07627 h -4.949747 -4.949747 v 9.89949 9.8995 h 4.949747 4.949747 v 10.07627 10.07627 h -4.949747 -4.949747 v 9.8995 9.89949 h 4.949747 4.949747 v 20.15255 20.15254 h -4.949747 -4.949747 v 9.89949 9.8995 h 4.949747 4.949747 v 10.07627 10.07627 h -4.949747 -4.949747 v 9.8995 9.89949 h 4.949747 4.949747 v 10.07627 10.07628 H 35.12666 50.334964 Z" transform="scale(0.26458334)"/><path style="fill:#7c7c7c;fill-opacity:1;stroke-width:.35355338" id="path4673" d="M 0.1193696,216.91378 V 54.102446 H 45.02065 89.921931 V 216.91378 379.72512 H 45.02065 0.1193696 Z m 50.1216984,93.07293 -0.09389,-9.98788 -5.038135,-0.0981 -5.038136,-0.0981 v -9.88979 -9.88979 h 5.132029 5.132032 l -0.0939,-9.98788 -0.09389,-9.98788 -5.038135,-0.0981 -5.038136,-0.0981 v -9.88009 -9.88008 l 5.038136,-0.0981 5.038135,-0.0981 v -19.97576 -19.97577 l -5.038135,-0.0981 -5.038136,-0.0981 v -9.70331 -9.7033 l 5.038136,-0.0981 5.038135,-0.0981 v -10.07627 -10.07627 l -5.038135,-0.0981 -5.038136,-0.0981 v -9.88979 -9.88979 h 5.132029 5.132032 l -0.0939,-9.98788 -0.09389,-9.98789 -5.038135,-0.0981 -5.038136,-0.0981 v -9.88008 -9.88008 l 5.038136,-0.09809 5.038135,-0.0981 V 89.988115 80.08862 L 35.032771,79.99644 19.918363,79.90425 v 10.080067 10.080073 h -4.949747 -4.949747 v 9.89949 9.8995 h 4.949747 4.949747 v 10.07627 10.07627 h -4.949747 -4.949747 v 9.89949 9.8995 h 4.949747 4.949747 v 10.07627 10.07627 h -4.949747 -4.949747 v 9.8995 9.89949 h 4.949747 4.949747 v 20.15255 20.15254 h -4.949747 -4.949747 v 9.89949 9.8995 h 4.949747 4.949747 v 10.07627 10.07627 h -4.949747 -4.949747 v 9.8995 9.89949 h 4.949747 4.949747 v 10.07627 10.07628 H 35.12666 50.334964 Z" transform="scale(0.26458334)"/><path style="fill:#7c7c7c;fill-opacity:1;stroke-width:.35355338" id="path4675" d="M 0.1193696,216.91378 V 54.102446 H 45.02065 89.921931 V 216.91378 379.72512 H 45.02065 0.1193696 Z m 50.1216984,93.07293 -0.09389,-9.98788 -5.038135,-0.0981 -5.038136,-0.0981 v -9.88979 -9.88979 h 5.132029 5.132032 l -0.0939,-9.98788 -0.09389,-9.98788 -5.038135,-0.0981 -5.038136,-0.0981 v -9.88009 -9.88008 l 5.038136,-0.0981 5.038135,-0.0981 v -19.97576 -19.97577 l -5.038135,-0.0981 -5.038136,-0.0981 v -9.70331 -9.7033 l 5.038136,-0.0981 5.038135,-0.0981 v -10.07627 -10.07627 l -5.038135,-0.0981 -5.038136,-0.0981 v -9.88979 -9.88979 h 5.132029 5.132032 l -0.0939,-9.98788 -0.09389,-9.98789 -5.038135,-0.0981 -5.038136,-0.0981 v -9.88008 -9.88008 l 5.038136,-0.09809 5.038135,-0.0981 V 89.988115 80.08862 L 35.032771,79.99644 19.918363,79.90425 v 10.080067 10.080073 h -4.949747 -4.949747 v 9.89949 9.8995 h 4.949747 4.949747 v 10.07627 10.07627 h -4.949747 -4.949747 v 9.89949 9.8995 h 4.949747 4.949747 v 10.07627 10.07627 h -4.949747 -4.949747 v 9.8995 9.89949 h 4.949747 4.949747 v 20.15255 20.15254 h -4.949747 -4.949747 v 9.89949 9.8995 h 4.949747 4.949747 v 10.07627 10.07627 h -4.949747 -4.949747 v 9.8995 9.89949 h 4.949747 4.949747 v 10.07627 10.07628 H 35.12666 50.334964 Z" transform="scale(0.26458334)"/><path style="fill:#7c7c7c;fill-opacity:1;stroke-width:.35355338" id="path4677" d="M 0.1193696,216.91378 V 54.102446 H 45.02065 89.921931 V 216.91378 379.72512 H 45.02065 0.1193696 Z m 50.1216984,93.07293 -0.09389,-9.98788 -5.038135,-0.0981 -5.038136,-0.0981 v -9.88979 -9.88979 h 5.132029 5.132032 l -0.0939,-9.98788 -0.09389,-9.98788 -5.038135,-0.0981 -5.038136,-0.0981 v -9.88009 -9.88008 l 5.038136,-0.0981 5.038135,-0.0981 v -19.97576 -19.97577 l -5.038135,-0.0981 -5.038136,-0.0981 v -9.70331 -9.7033 l 5.038136,-0.0981 5.038135,-0.0981 v -10.07627 -10.07627 l -5.038135,-0.0981 -5.038136,-0.0981 v -9.88979 -9.88979 h 5.132029 5.132032 l -0.0939,-9.98788 -0.09389,-9.98789 -5.038135,-0.0981 -5.038136,-0.0981 v -9.88008 -9.88008 l 5.038136,-0.09809 5.038135,-0.0981 V 89.988115 80.08862 L 35.032771,79.99644 19.918363,79.90425 v 10.080067 10.080073 h -4.949747 -4.949747 v 9.89949 9.8995 h 4.949747 4.949747 v 10.07627 10.07627 h -4.949747 -4.949747 v 9.89949 9.8995 h 4.949747 4.949747 v 10.07627 10.07627 h -4.949747 -4.949747 v 9.8995 9.89949 h 4.949747 4.949747 v 20.15255 20.15254 h -4.949747 -4.949747 v 9.89949 9.8995 h 4.949747 4.949747 v 10.07627 10.07627 h -4.949747 -4.949747 v 9.8995 9.89949 h 4.949747 4.949747 v 10.07627 10.07628 H 35.12666 50.334964 Z" transform="scale(0.26458334)"/><rect style="fill:#556ba3;fill-opacity:1;stroke-width:.30678487" id="rect4689" width="32.015" height="100.542" x="-.265" y="0"/><text style="font-style:normal;font-variant:normal;font-weight:400;font-stretch:normal;font-size:2.82222223px;line-height:1.25;font-family:Matematica;-inkscape-font-specification:'Matematica, Normal';font-variant-ligatures:normal;font-variant-caps:normal;font-variant-numeric:normal;font-feature-settings:normal;text-align:center;letter-spacing:0;word-spacing:0;writing-mode:lr-tb;text-anchor:middle;fill:#000;fill-opacity:1;stroke:none;stroke-width:.26458335" id="text857" x="22.264" y="33.348" xml:space="preserve"><tspan id="tspan861" x="22.264" y="33.348">Trans</tspan><tspan id="tspan863" x="22.264" y="36.876">pose</tspan></text><text style="font-style:normal;font-variant:normal;font-weight:400;font-stretch:normal;font-size:2.82222223px;line-height:1.25;font-family:Matematica;-inkscape-font-specification:'Matematica, Normal';font-variant-ligatures:normal;font-variant-caps:normal;font-variant-numeric:normal;font-feature-settings:normal;text-align:center;letter-spacing:0;word-spacing:0;writing-mode:lr-tb;text-anchor:middle;fill:#000;fill-opacity:1;stroke:none;stroke-width:.26458335" id="text857-0" x="22.264" y="50.281" xml:space="preserve"><tspan id="tspan890" x="22.264" y="50.281">Trig</tspan></text><text style="font-style:normal;font-variant:normal;font-weight:400;font-stretch:normal;font-size:2.82222223px;line-height:1.25;font-family:Matematica;-inkscape-font-specification:'Matematica, Normal';font-variant-ligatures:normal;font-variant-caps:normal;font-variant-numeric:normal;font-feature-settings:normal;text-align:center;letter-spacing:0;word-spacing:0;writing-mode:lr-tb;text-anchor:middle;fill:#000;fill-opacity:1;stroke:none;stroke-width:.26458335" id="text857-0-6" x="22.264" y="65.627" xml:space="preserve"><tspan id="tspan915" x="22.264" y="65.627">Gate</tspan></text><rect id="rect26-7-3-4-6-4" width="7.937" height="5.821" x="1.323" y="40.746" ry=".875" style="fill:#2f2f2f;fill-opacity:1;stroke-width:.30582383"/><rect id="rect26-7-3-4-6-3" width="7.937" height="5.821" x="3.969" y="46.567" ry=".875" style="fill:#fff;fill-opacity:1;stroke-width:.30582383"/><rect id="rect26-7-3-4-6-2" width="7.937" height="5.821" x="1.323" y="52.388" ry=".875" style="fill:#2f2f2f;fill-opacity:1;stroke-width:.30582383"/><rect id="rect26-7-3-4-6-07" width="7.937" height="5.821" x="3.969" y="58.208" ry=".875" style="fill:#fff;fill-opacity:1;stroke-width:.30582383"/><rect id="rect26-7-3-4-6-5" width="7.937" height="5.821" x="3.969" y="64.029" ry=".875" style="fill:#fff;fill-opacity:1;stroke-width:.30582383"/><rect id="rect26-7-3-4-6-97" width="7.937" height="5.821" x="1.323" y="69.85" ry=".875" style="fill:#2f2f2f;fill-opacity:1;stroke-width:.30582383"/><rect id="rect26-7-3-4-6-7" width="7.937" height="5.821" x="3.768" y="75.667" ry=".875" style="fill:#fff;fill-opacity:1;stroke-width:.30582383"/><rect id="rect26-7-3-4-6-6" width="7.937" height="5.821" x="1.323" y="81.492" ry=".875" style="fill:#2f2f2f;fill-opacity:1;stroke-width:.30582383"/><rect id="rect26-7-3-4-6-73" width="7.937" height="5.821" x="3.969" y="87.313" ry=".875" style="fill:#fff;fill-opacity:1;stroke-width:.30582383"/><g id="g4799" transform="matrix(0.25,0,0,0.25,10.715625,74.612506)"><rect id="rect4736" width="1.587" height="14.817" x="15.346" y="83.608" ry=".529" style="fill:#2f2f2f;fill-opacity:1;stroke-width:.22136623"/><rect id="rect4738" width="10.583" height="1.819" x="15.346" y="96.606" ry=".455" style="fill:#2f2f2f;fill-opacity:1;stroke-width:.27422616"/><rect id="rect4759" width="1.587" height="11.642" x="24.342" y="83.608" ry=".529" style="fill:#2f2f2f;fill-opacity:1;stroke-width:.22913586"/><rect id="rect4759-7" width="1.807" height="8.229" x="-39.524" y="100.02" rx=".903" ry=".374" transform="matrix(1,0,0.54885411,0.83591816,0,0)" style="fill:#2f2f2f;fill-opacity:1;stroke-width:.20552233"/><rect id="rect4759-7-3" width="1.852" height="8.292" x="80.485" y="-109.076" rx=".926" ry=".474" transform="matrix(1,0,0.55837942,-0.82958569,0,0)" style="fill:#2f2f2f;fill-opacity:1;stroke-width:.20888054"/></g></g><g id="layer1" transform="translate(0,-196.45832)"><text style="font-style:normal;font-variant:normal;font-weight:400;font-stretch:normal;font-size:3.52777791px;line-height:1.25;font-family:Matematica;-inkscape-font-specification:'Matematica, Normal';font-variant-ligatures:normal;font-variant-caps:normal;font-variant-numeric:normal;font-feature-settings:normal;text-align:start;letter-spacing:0;word-spacing:0;writing-mode:lr-tb;text-anchor:start;fill:#000;fill-opacity:1;stroke:none;stroke-width:.26458335" id="text3757" x="5.858" y="204.549" xml:space="preserve"><tspan id="tspan3755" x="5.858" y="204.549" style="font-style:normal;font-variant:normal;font-weight:400;font-stretch:normal;font-size:3.52777791px;font-family:Matematica;-inkscape-font-specification:'Matematica, Normal';font-variant-ligatures:normal;font-variant-caps:normal;font-variant-numeric:normal;font-feature-settings:normal;text-align:start;writing-mode:lr-tb;text-anchor:start;stroke-width:.26458335">Quantum</tspan></text><rect id="rect26-7-3-4-6" width="7.937" height="5.821" x="3.969" y="219.742" ry=".875" style="fill:#fff;fill-opacity:1;stroke-width:.30582383"/><rect style="fill:#028808;fill-opacity:1;stroke-width:.37417737" id="rect4778" width="7.938" height="10.583" x="5.292" y="207.042" ry="1.247"/><rect style="fill:#f90404;fill-opacity:1;stroke-width:.37417737" id="rect4778-9" width="7.938" height="10.583" x="18.521" y="207.042" ry="1.247"/><text style="font-style:normal;font-variant:normal;font-weight:400;font-stretch:normal;font-size:2.82222223px;line-height:1.25;font-family:Matematica;-inkscape-font-specification:'Matematica, Normal';font-variant-ligatures:normal;font-variant-caps:normal;font-variant-numeric:normal;font-feature-settings:normal;text-align:start;letter-spacing:0;word-spacing:0;writing-mode:lr-tb;text-anchor:start;fill:#000;fill-opacity:1;stroke:none;stroke-width:.26458335" id="text4921" x="6.813" y="217.096" xml:space="preserve"><tspan id="tspan849" x="6.813" y="217.096">In</tspan></text><text style="font-style:normal;font-variant:normal;font-weight:400;font-stretch:normal;font-size:2.82222223px;line-height:1.25;font-family:Matematica;-inkscape-font-specification:'Matematica, Normal';font-variant-ligatures:normal;font-variant-caps:normal;font-variant-numeric:normal;font-feature-settings:normal;text-align:start;letter-spacing:0;word-spacing:0;writing-mode:lr-tb;text-anchor:start;fill:#000;fill-opacity:1;stroke:none;stroke-width:.26458335" id="text853" x="18.785" y="217.228" xml:space="preserve"><tspan id="tspan851" x="18.785" y="217.228" style="font-style:normal;font-variant:normal;font-weight:400;font-stretch:normal;font-size:2.82222223px;font-family:Matematica;-inkscape-font-specification:'Matematica, Normal';font-variant-ligatures:normal;font-variant-caps:normal;font-variant-numeric:normal;font-feature-settings:normal;text-align:start;writing-mode:lr-tb;text-anchor:start;stroke-width:.26458335">Out</tspan></text><rect id="rect26-7-3-4-6-0" width="7.937" height="5.821" x="1.323" y="225.563" ry=".875" style="fill:#2f2f2f;fill-opacity:1;stroke-width:.30582383"/><rect id="rect26-7-3-4-6-9" width="7.937" height="5.821" x="3.969" y="231.383" ry=".875" style="fill:#fff;fill-opacity:1;stroke-width:.30582383"/></g></svg>