<svg xmlns="http://www.w3.org/2000/svg" xmlns:svg="http://www.w3.org/2000/svg" id="svg8" width="36" height="36" version="1.1" viewBox="0 0 9.525 9.525"><metadata id="metadata5"/><g id="layer1" transform="translate(0,-287.47498)"><path style="fill:#0a0a0a;fill-opacity:1;stroke:none;stroke-width:.2657699;stroke-opacity:1" id="path4520" d="m 4.7625005,287.47499 c 0.568701,0 0.2923689,0.37759 0.8501425,0.48854 0.5577738,0.11095 0.4469759,-0.34365 0.9723874,-0.12602 0.5254113,0.21763 0.1256139,0.46074 0.5984715,0.77669 0.4728579,0.31596 0.5444622,-0.14644 0.9465948,0.25569 0.4021323,0.40213 -0.060265,0.47374 0.2556887,0.9466 0.3159535,0.47285 0.5590589,0.0731 0.7766915,0.59847 0.2176325,0.52541 -0.2369685,0.41461 -0.1260204,0.97238 0.1109481,0.55778 0.4885441,0.28145 0.4885441,0.85015 0,0.5687 -0.377596,0.29237 -0.4885441,0.85014 -0.1109482,0.55777 0.3436528,0.44698 0.1260202,0.97239 -0.2176324,0.52541 -0.4607379,0.12561 -0.7766913,0.59847 -0.3159535,0.47286 0.1464435,0.54446 -0.255689,0.94659 -0.4021324,0.40214 -0.4737367,-0.0603 -0.9465944,0.25569 -0.4728578,0.31596 -0.07306,0.55906 -0.598472,0.77669 -0.5254112,0.21764 -0.4146133,-0.23696 -0.9723869,-0.12602 -0.5577739,0.11095 -0.2814417,0.48855 -0.850143,0.48855 -0.5687011,0 -0.2923689,-0.3776 -0.8501425,-0.48855 -0.5577739,-0.11094 -0.446976,0.34366 -0.9723875,0.12602 -0.5254112,-0.21763 -0.1256139,-0.46073 -0.5984715,-0.77669 -0.4728578,-0.31595 -0.5444622,0.14645 -0.9465947,-0.25569 -0.40213237,-0.40213 0.060265,-0.47373 -0.2556887,-0.94659 -0.31595349,-0.47286 -0.55905896,-0.0731 -0.77669153,-0.59847 C 0.1448912,293.53461 0.59949214,293.6454 0.4885441,293.08763 0.377596,292.52986 0,292.80619 0,292.23749 c 0,-0.5687 0.37759598,-0.29237 0.48854408,-0.85014 0.11094814,-0.55778 -0.34365281,-0.44698 -0.12602025,-0.97239 0.21763245,-0.52541 0.46073793,-0.12562 0.77669127,-0.59847 0.3159536,-0.47286 -0.14644346,-0.54447 0.2556891,-0.9466 0.4021323,-0.40213 0.4737367,0.0603 0.9465943,-0.25569 0.4728579,-0.31595 0.07306,-0.55906 0.598472,-0.77669 0.5254113,-0.21763 0.4146134,0.23697 0.972387,0.12602 0.5577739,-0.11095 0.2814417,-0.48854 0.850143,-0.48854 z"/><circle style="fill:#990f0f;fill-opacity:1;stroke:none;stroke-width:.26458335;stroke-opacity:1" id="path827" cx="4.763" cy="292.237" r="3.969"/><rect style="fill:#fcfcfc;fill-opacity:1;stroke:none;stroke-width:.41155916;stroke-opacity:1" id="rect829" width=".529" height="3.175" x="4.498" y="288.269"/></g></svg>