<svg xmlns="http://www.w3.org/2000/svg" xmlns:svg="http://www.w3.org/2000/svg" id="svg10677" width="23" height="23" version="1.1" viewBox="0 0 23 23"><metadata id="metadata10674"/><g id="layer1" transform="translate(0,-1099.5197)"><path style="opacity:1;fill:#e6e6e6;fill-opacity:1;stroke:#999;stroke-width:.5;stroke-linejoin:round;stroke-miterlimit:4;stroke-dasharray:none;stroke-opacity:1" id="path11253" d="m -9.5010601,1103.4911 c -0.1802374,-0.1044 -5.8248779,-8.4049 -5.8556709,-8.6108 -0.03079,-0.206 2.93942,-9.7944 3.081258,-9.9469 0.141838,-0.1525 9.4902742,-3.8086 9.6979374,-3.7928 0.2076632,0.016 8.8947585,5.0452 9.0118719,5.2174 0.1171134,0.1722 1.6013081,10.0998 1.539683,10.2987 -0.061625,0.199 -6.8979598,7.5491 -7.09191858,7.625 -0.19395875,0.076 -10.20292332,-0.6863 -10.38316082,-0.7906 z" transform="matrix(0.91697342,-0.06961313,0.06961313,0.91697342,-61.404485,108.39299)"/><g id="g11267" transform="translate(0.50000036,-0.50004698)"><path style="fill:#545454;fill-opacity:1;fill-rule:nonzero;stroke:#333;stroke-width:.69523466" id="path9183-0" d="m 3.3659952,1111.5198 c 0,-4.2149 3.4191445,-7.634 7.6340048,-7.634 4.21486,0 7.634005,3.4191 7.634005,7.634 0,4.2175 -3.419145,7.6339 -7.634005,7.6339 -4.2148603,0 -7.6340048,-3.4164 -7.6340048,-7.6339"/><path style="fill:#000;fill-opacity:1;fill-rule:nonzero;stroke:#333;stroke-width:.69523466" id="path9185-9" d="m 7.0594301,1111.5184 c 0,-2.1753 1.7625311,-3.9406 3.9405699,-3.9406 2.175319,0 3.94057,1.7653 3.94057,3.9406 0,2.178 -1.765251,3.9432 -3.94057,3.9432 -2.1780388,0 -3.9405699,-1.7652 -3.9405699,-3.9432"/></g></g></svg>