<svg xmlns="http://www.w3.org/2000/svg" width="30" height="380"><g id="base"><path fill="#ababab" d="M0 0h30v380H0z"/><path fill="#e6e6e6" d="M.3.3h29.4v379.4H0z"/></g><g id="label_bgs"><path fill="#c91847" d="M.3 16h29.4v16H0z"/><g id="placeholder_label_bgs" style="display:none"><path fill="#ccc" d="M.3 36h74.4v12H0z"/><path fill="#ccc" d="M.3 208h74.4v12H0z"/></g></g><g id="lines"><path style="fill:none;stroke:#000;stroke-width:.7" d="M14.75 105v16"/></g><g id="plug_outlines"><rect width="28.5" height="42" x=".75" y="232" fill="#000" rx="4" ry="4"/><rect width="28.5" height="71" x=".75" y="277" fill="#1994b3" rx="4" ry="4"/><circle cx="15" cy="303" r="14" style="fill:#fff"/><circle cx="15" cy="332.25" r="14" style="fill:#000"/></g><g id="text_labels"><text id="heading" x="0" y="28" style="font-style:normal;font-variant:normal;font-weight:700;font-stretch:normal;font-family:'Envy Code R';-inkscape-font-specification:'Envy Code R';letter-spacing:0;word-spacing:0;fill:#fff;fill-opacity:1;stroke:none;stroke-width:1px;stroke-linecap:butt;stroke-linejoin:miter;stroke-opacity:1"><tspan x="5" y="28" style="font-size:12.5px">DCH</tspan></text><text id="small_labels" x="0" y="46" style="font-style:normal;font-variant:normal;font-weight:400;font-stretch:normal;font-family:'Envy Code R';-inkscape-font-specification:'Envy Code R';letter-spacing:0;word-spacing:0;fill:#000;fill-opacity:1;stroke:none;stroke-width:1px;stroke-linecap:butt;stroke-linejoin:miter;stroke-opacity:1"><tspan x="10" y="47" style="font-size:8px">IN</tspan> <tspan x="10" y="87" style="font-size:8px">CV</tspan></text><text id="small_labels_white" x="0" y="262" style="font-style:normal;font-variant:normal;font-weight:400;font-stretch:normal;font-family:'Envy Code R';-inkscape-font-specification:'Envy Code R';letter-spacing:0;word-spacing:0;fill:#fff;fill-opacity:1;stroke:none;stroke-width:1px;stroke-linecap:butt;stroke-linejoin:miter;stroke-opacity:1"><tspan x="9" y="242" style="font-size:8px">OUT</tspan> <tspan x="4" y="286" style="font-size:8px">DAISY</tspan></text></g></svg>