<svg xmlns="http://www.w3.org/2000/svg" width="75" height="380"><g id="base"><path fill="#ababab" d="M0 0h75v380H0z"/><path fill="#e6e6e6" d="M.3.3h74.4v379.4H0z"/></g><g id="label_bgs"><path fill="#c91847" d="M.3 16h74.4v16H0z"/><g id="placeholder_label_bgs" style="display:none"><path fill="#ccc" d="M.3 36h74.4v12H0z"/><path fill="#ccc" d="M.3 114h74.4v12H0z"/><path fill="#ccc" d="M20 150h35v12H20z"/><path fill="#ccc" d="M20 182h35v12H20z"/><path fill="#ccc" d="M.3 218h74.4v12H0z"/><path fill="#ccc" d="M.3 262h74.4v12H0z"/></g></g><g id="logo"><circle cx="37.5" cy="360" r="7" style="fill:#556746"/><circle cx="39.5" cy="362" r="5" style="fill:#e6e6e6"/><circle cx="41.5" cy="364" r="3" style="fill:#556746"/></g><g id="lines"><path style="fill:none;stroke:#000;stroke-width:.7" d="M37 80v16"/><path style="fill:none;stroke:#000;stroke-width:.7" d="M18 244H57"/><path style="fill:none;stroke:#000;stroke-width:.7" d="M18 288H57"/></g><g id="plug_outlines"><rect width="28.5" height="42" x="5.5" y="262" fill="#000" rx="4" ry="4"/><rect width="28.5" height="42" x="40.5" y="262" fill="#000" rx="4" ry="4"/><rect width="63.6" height="42" x="5.5" y="306" fill="#000" rx="4" ry="4"/></g><g id="text_labels"><text id="heading" x="0" y="28" style="font-style:normal;font-variant:normal;font-weight:700;font-stretch:normal;font-family:'Envy Code R';-inkscape-font-specification:'Envy Code R';letter-spacing:0;word-spacing:0;fill:#fff;fill-opacity:1;stroke:none;stroke-width:1px;stroke-linecap:butt;stroke-linejoin:miter;stroke-opacity:1"><tspan x="15" y="28" style="font-size:12.5px">MIXER-2</tspan></text><text id="heading2" x="0" y="46" style="font-style:normal;font-variant:normal;font-weight:400;font-stretch:normal;font-family:'Envy Code R';-inkscape-font-specification:'Envy Code R';letter-spacing:0;word-spacing:0;fill:#000;fill-opacity:1;stroke:none;stroke-width:1px;stroke-linecap:butt;stroke-linejoin:miter;stroke-opacity:1"><tspan x="24" y="46" style="font-size:10px">LEVEL</tspan> <tspan x="17.5" y="124" style="font-size:10px">1</tspan> <tspan x="52" y="124" style="font-size:10px">2</tspan></text><text id="small_labels" x="0" y="159" style="font-style:normal;font-variant:normal;font-weight:400;font-stretch:normal;font-family:'Envy Code R';-inkscape-font-specification:'Envy Code R';letter-spacing:0;word-spacing:0;fill:#000;fill-opacity:1;stroke:none;stroke-width:1px;stroke-linecap:butt;stroke-linejoin:miter;stroke-opacity:1"><tspan x="33" y="130" style="font-size:8px">CV</tspan> <tspan x="29" y="159" style="font-size:8px">MONO</tspan> <tspan x="33" y="193" style="font-size:8px">ST</tspan> <tspan x="11" y="226" style="font-size:8px">IN 1</tspan> <tspan x="46" y="226" style="font-size:8px">IN 2</tspan></text><text id="small_labels2" x="0" y="262" style="font-style:normal;font-variant:normal;font-weight:400;font-stretch:normal;font-family:'Envy Code R';-inkscape-font-specification:'Envy Code R';letter-spacing:0;word-spacing:0;fill:#fff;fill-opacity:1;stroke:none;stroke-width:1px;stroke-linecap:butt;stroke-linejoin:miter;stroke-opacity:1"><tspan x="11" y="272" style="font-size:8px">CH 1</tspan> <tspan x="46" y="272" style="font-size:8px">CH 2</tspan> <tspan x="11" y="316" style="font-size:8px">MX 1</tspan> <tspan x="46" y="316" style="font-size:8px">MX 2</tspan></text></g></svg>