<svg xmlns="http://www.w3.org/2000/svg" xmlns:svg="http://www.w3.org/2000/svg" xmlns:xlink="http://www.w3.org/1999/xlink" id="svg3773" width="32.338" height="32.336" version="1.1" viewBox="0 0 8.556 8.556"><defs id="defs3767"><linearGradient id="linearGradient8447" x1="386.358" x2="386.405" y1="-142.498" y2="-148.924" gradientTransform="matrix(1.3615283,0,0,1.3615283,-177.80801,258.88049)" gradientUnits="userSpaceOnUse" xlink:href="#linearGradient4334"/><linearGradient id="linearGradient4334"><stop style="stop-color:#e6e6e6;stop-opacity:1" id="stop4330" offset="0"/><stop style="stop-color:#6c6c6f;stop-opacity:1" id="stop4332" offset="1"/></linearGradient><linearGradient id="linearGradient8449" x1="386.358" x2="386.405" y1="-142.498" y2="-148.924" gradientTransform="matrix(1.0055842,0,0,1.0055842,-40.429165,207.02396)" gradientUnits="userSpaceOnUse" xlink:href="#linearGradient4347"/><linearGradient id="linearGradient4347"><stop id="stop4342" offset="0" style="stop-color:#dfdfe0;stop-opacity:1"/><stop id="stop4344" offset="1" style="stop-color:#777779;stop-opacity:1"/></linearGradient><linearGradient id="linearGradient8451" x1="174.732" x2="174.732" y1="-217.859" y2="-242.568" gradientTransform="matrix(0.25783596,0,0,-0.25783596,302.63006,-119.90674)" gradientUnits="userSpaceOnUse" xlink:href="#linearGradient4340"/><linearGradient id="linearGradient4340"><stop style="stop-color:#cacaca;stop-opacity:1" id="stop4336" offset="0"/><stop style="stop-color:#3c3e40;stop-opacity:1" id="stop4338" offset="1"/></linearGradient><linearGradient id="linearGradient8453" x1="429.353" x2="429.353" y1="-83.865" y2="-87.833" gradientTransform="translate(-81.629748,25.271497)" gradientUnits="userSpaceOnUse" xlink:href="#linearGradient4353"/><linearGradient id="linearGradient4353"><stop id="stop4349" offset="0" style="stop-color:#c1c2c2;stop-opacity:1"/><stop id="stop4351" offset="1" style="stop-color:#3a3c3f;stop-opacity:1"/></linearGradient><linearGradient id="linearGradient8455" x1="338.085" x2="338.085" y1="12.012" y2="-20.041" gradientTransform="matrix(0.26458333,0,0,-0.26458333,258.09525,-61.568101)" gradientUnits="userSpaceOnUse" xlink:href="#linearGradient4328"/><linearGradient id="linearGradient4328"><stop style="stop-color:#cbcbcb;stop-opacity:1" id="stop4324" offset="0"/><stop style="stop-color:#3a3c3e;stop-opacity:1" id="stop4326" offset="1"/></linearGradient></defs><metadata id="metadata3770"/><g id="layer1" transform="translate(-165.0553,-139.26383)"><g style="display:inline" id="g4559" transform="translate(-178.34895,204.06481)"><circle id="circle8431" cx="347.682" cy="60.523" r="4.278" transform="scale(1,-1)" style="opacity:1;fill:url(#linearGradient8447);fill-opacity:1;stroke:none;stroke-width:.68076414;stroke-linecap:round;stroke-linejoin:round;stroke-miterlimit:4;stroke-dasharray:none;stroke-opacity:1"/><circle id="circle8433" cx="347.682" cy="60.523" r="3.325" transform="scale(1,-1)" style="opacity:1;fill:#000;fill-opacity:1;stroke:none;stroke-width:.52910787;stroke-linecap:round;stroke-linejoin:round;stroke-miterlimit:4;stroke-dasharray:none;stroke-opacity:1"/><circle style="opacity:1;fill:url(#linearGradient8449);fill-opacity:1;stroke:none;stroke-width:.50279212;stroke-linecap:round;stroke-linejoin:round;stroke-miterlimit:4;stroke-dasharray:none;stroke-opacity:1" id="circle8435" cx="347.682" cy="60.523" r="3.159" transform="scale(1,-1)"/><path id="path8437" d="m 347.68237,-57.363894 a 3.1594721,3.1594721 0 0 1 -3.1595,-3.158993 3.1594721,3.1594721 0 0 1 3.1595,-3.1595 3.1594721,3.1594721 0 0 1 3.1595,3.1595 3.1594721,3.1594721 0 0 1 -3.1595,3.158993 z m 5.1e-4,-0.59121 c 1.42472,0 2.56576,-1.143067 2.56576,-2.567783 0,-1.424717 -1.14104,-2.567786 -2.56576,-2.567786 -1.42472,0 -2.56729,1.143069 -2.56729,2.567786 0,1.424716 1.14257,2.567783 2.56729,2.567783 z" style="color:#000;font-style:normal;font-variant:normal;font-weight:400;font-stretch:normal;font-size:medium;line-height:normal;font-family:sans-serif;font-variant-ligatures:normal;font-variant-position:normal;font-variant-caps:normal;font-variant-numeric:normal;font-variant-alternates:normal;font-feature-settings:normal;text-indent:0;text-align:start;text-decoration:none;text-decoration-line:none;text-decoration-style:solid;text-decoration-color:#000;letter-spacing:normal;word-spacing:normal;text-transform:none;writing-mode:lr-tb;direction:ltr;text-orientation:mixed;dominant-baseline:auto;baseline-shift:baseline;text-anchor:start;white-space:normal;shape-padding:0;clip-rule:nonzero;display:inline;overflow:visible;visibility:visible;opacity:1;isolation:auto;mix-blend-mode:normal;color-interpolation:sRGB;color-interpolation-filters:linearRGB;solid-color:#000;solid-opacity:1;vector-effect:none;fill:url(#linearGradient8451);fill-opacity:1;fill-rule:nonzero;stroke:none;stroke-width:1.18498969;stroke-linecap:round;stroke-linejoin:round;stroke-miterlimit:4;stroke-dasharray:none;stroke-dashoffset:0;stroke-opacity:1;color-rendering:auto;image-rendering:auto;shape-rendering:auto;text-rendering:auto;enable-background:accumulate"/><path style="fill:url(#linearGradient8453);fill-opacity:1;fill-rule:nonzero;stroke:none;stroke-width:.35277775" id="path8439" d="m 345.68276,-60.523802 c 0,-1.1038 0.89434,-1.99954 1.99953,-1.99954 1.10381,0 1.99953,0.89574 1.99953,1.99954 0,1.10519 -0.89572,2.00089 -1.99953,2.00089 -1.10519,0 -1.99953,-0.8957 -1.99953,-2.00089"/><path id="path8441" d="m 345.92886,-60.522548 c 0,0.967989 0.78431,1.753519 1.75351,1.753519 0.968,0 1.75351,-0.78553 1.75351,-1.753519 0,-0.969208 -0.78551,-1.754703 -1.75351,-1.754703 -0.9692,0 -1.75351,0.785495 -1.75351,1.754703" style="fill:#000;fill-opacity:1;fill-rule:nonzero;stroke:none;stroke-width:.30937231"/><path id="path8443" d="m 347.68255,-56.245428 a 4.2778224,4.2778224 0 0 1 -4.2783,-4.277776 4.2778224,4.2778224 0 0 1 4.2783,-4.277775 4.2778224,4.2778224 0 0 1 4.27777,4.277775 4.2778224,4.2778224 0 0 1 -4.27777,4.277776 z m 0,-0.340032 c 2.17862,0 3.93774,-1.758607 3.93774,-3.937227 0,-2.17862 -1.75912,-3.937744 -3.93774,-3.937744 -2.17863,0 -3.93723,1.759124 -3.93723,3.937744 0,2.17862 1.7586,3.937227 3.93723,3.937227 z" style="color:#000;font-style:normal;font-variant:normal;font-weight:400;font-stretch:normal;font-size:medium;line-height:normal;font-family:sans-serif;font-variant-ligatures:normal;font-variant-position:normal;font-variant-caps:normal;font-variant-numeric:normal;font-variant-alternates:normal;font-feature-settings:normal;text-indent:0;text-align:start;text-decoration:none;text-decoration-line:none;text-decoration-style:solid;text-decoration-color:#000;letter-spacing:normal;word-spacing:normal;text-transform:none;writing-mode:lr-tb;direction:ltr;text-orientation:mixed;dominant-baseline:auto;baseline-shift:baseline;text-anchor:start;white-space:normal;shape-padding:0;clip-rule:nonzero;display:inline;overflow:visible;visibility:visible;opacity:1;isolation:auto;mix-blend-mode:normal;color-interpolation:sRGB;color-interpolation-filters:linearRGB;solid-color:#000;solid-opacity:1;vector-effect:none;fill:url(#linearGradient8455);fill-opacity:1;fill-rule:nonzero;stroke:none;stroke-width:.68076414;stroke-linecap:round;stroke-linejoin:round;stroke-miterlimit:4;stroke-dasharray:none;stroke-dashoffset:0;stroke-opacity:1;color-rendering:auto;image-rendering:auto;shape-rendering:auto;text-rendering:auto;enable-background:accumulate"/></g></g></svg>