<svg xmlns="http://www.w3.org/2000/svg" xmlns:svg="http://www.w3.org/2000/svg" xmlns:xlink="http://www.w3.org/1999/xlink" id="svg113936" width="27" height="27" version="1.1" viewBox="0 0 7.144 7.144"><defs id="defs113930"><linearGradient id="linearGradient8030" x1="74.852" x2="74.852" y1="78.417" y2="77.703" gradientTransform="matrix(0.26303833,0,0,0.26303833,64.676912,84.058919)" gradientUnits="userSpaceOnUse" xlink:href="#linearGradient1925"/><linearGradient id="linearGradient1925"><stop style="stop-color:#5c5c52;stop-opacity:1" id="stop1921" offset="0"/><stop style="stop-color:#3e3e39;stop-opacity:1" id="stop1923" offset="1"/></linearGradient></defs><metadata id="metadata113933"/><g id="layer1" transform="translate(-80.833177,-103.94641)"><circle id="circle7902" cx="84.405" cy="107.518" r="3.519" style="opacity:1;fill:#959584;fill-opacity:1;stroke:#000;stroke-width:.07937501;stroke-linecap:round;stroke-linejoin:round;stroke-miterlimit:0;stroke-dasharray:none;stroke-dashoffset:0;stroke-opacity:.53710196"/><path style="opacity:1;fill:#eaead5;fill-opacity:1;stroke:#000;stroke-width:.10583334;stroke-linecap:round;stroke-linejoin:round;stroke-miterlimit:0;stroke-dasharray:none;stroke-dashoffset:0;stroke-opacity:.48763254" id="path7904" d="m 85.118813,104.14022 c -0.148301,-0.0314 -0.298197,-0.0494 -0.448643,-0.0611 -0.07752,0.10497 -0.211414,0.15176 -0.337443,0.11792 -0.06975,-0.0189 -0.130954,-0.061 -0.173487,-0.11947 -0.150383,0.0107 -0.300562,0.0276 -0.448936,0.0579 -0.523506,0.4888 -1.131571,0.86529 -1.867458,1.07199 -0.1031,0.11444 -0.19495,0.23738 -0.281501,0.36392 0.02898,0.0662 0.03449,0.14031 0.01562,0.21007 -0.0345,0.12569 -0.14236,0.2175 -0.271955,0.23144 -0.06706,0.13815 -0.128229,0.27906 -0.176509,0.42559 0.112888,0.71918 0.136297,1.43661 -0.0059,2.15083 0.04746,0.14483 0.107571,0.28438 0.17338,0.42107 0.01624,0.002 0.03234,0.005 0.04813,0.009 0.16905,0.0459 0.268887,0.22015 0.223003,0.38921 -0.0042,0.0152 -0.0095,0.03 -0.01592,0.0445 0.08536,0.12563 0.175849,0.24785 0.277495,0.36166 0.69161,0.21223 1.320228,0.55679 1.862953,1.0818 0.148145,0.0314 0.297951,0.0493 0.44824,0.061 0.0776,-0.10478 0.211425,-0.1514 0.337335,-0.11751 0.06959,0.0189 0.130639,0.061 0.173083,0.11936 0.150284,-0.0106 0.300139,-0.0274 0.448425,-0.0577 0.556074,-0.49779 1.189793,-0.83243 1.868482,-1.07258 0.103101,-0.11444 0.194948,-0.23738 0.281502,-0.36393 -0.02898,-0.0662 -0.03449,-0.1403 -0.01562,-0.21006 0.0345,-0.12569 0.14236,-0.2175 0.271956,-0.23145 0.06706,-0.13814 0.128229,-0.27905 0.176509,-0.42558 -0.152539,-0.72374 -0.126907,-1.43932 0.0056,-2.15001 -0.0475,-0.14519 -0.107623,-0.28497 -0.173562,-0.42199 -0.01598,-0.002 -0.03179,-0.004 -0.04732,-0.008 -0.168951,-0.0456 -0.269018,-0.21949 -0.223624,-0.3885 0.0043,-0.0153 0.0098,-0.0303 0.01643,-0.0447 -0.08539,-0.12579 -0.176085,-0.24822 -0.277789,-0.36217 -0.687119,-0.23423 -1.308196,-0.59436 -1.862555,-1.08168 z"/><ellipse id="ellipse7906" cx="84.405" cy="-107.518" rx="2.381" ry="2.383" transform="scale(1,-1)" style="opacity:1;fill:#dfdfc7;fill-opacity:1;stroke:#959584;stroke-width:.13229166;stroke-linecap:round;stroke-linejoin:round;stroke-miterlimit:4;stroke-dasharray:none;stroke-dashoffset:0;stroke-opacity:1"/><path id="path7908" d="m 84.219789,104.04385 c -0.04774,0.002 -0.09076,0.01 -0.136384,0.0145 v 1.35434 c 0,0.12546 0.101023,0.22655 0.226398,0.22655 h 0.190029 c 0.125375,0 0.226398,-0.10109 0.226398,-0.22655 v -1.35844 c -0.102106,-0.0102 -0.208373,-0.0148 -0.321412,-0.0105 -0.06346,-0.002 -0.125107,-0.002 -0.185029,1e-5 z" style="opacity:1;fill:url(#linearGradient8030);fill-opacity:1;stroke:#000;stroke-width:.13229166;stroke-linecap:round;stroke-linejoin:round;stroke-miterlimit:4;stroke-dasharray:none;stroke-dashoffset:0;stroke-opacity:.614841"/></g></svg>