<svg xmlns="http://www.w3.org/2000/svg" xmlns:svg="http://www.w3.org/2000/svg" xmlns:xlink="http://www.w3.org/1999/xlink" id="svg113936" width="27" height="27" version="1.1" viewBox="0 0 7.144 7.144"><defs id="defs113930"><linearGradient id="linearGradient7391" x1="74.852" x2="74.852" y1="78.417" y2="75.973" gradientTransform="matrix(0.26458334,0,0,0.26458334,-19.182544,-22.187354)" gradientUnits="userSpaceOnUse" xlink:href="#linearGradient7360"/><linearGradient id="linearGradient7360"><stop id="stop7356" offset="0" style="stop-color:#53534a;stop-opacity:1"/><stop id="stop7358" offset="1" style="stop-color:#242421;stop-opacity:1"/></linearGradient></defs><metadata id="metadata113933"/><g id="g900" transform="matrix(0.99067521,0,0,0.99067566,2.9166144,2.1752936)" style="stroke-width:1.00941229"><circle id="circle6674" cx=".661" cy="1.41" r="3.54" style="opacity:1;fill:#b1b19a;fill-opacity:1;stroke:#000;stroke-width:.08012212;stroke-linecap:round;stroke-linejoin:round;stroke-miterlimit:0;stroke-dasharray:none;stroke-dashoffset:0;stroke-opacity:.53710196"/><path style="opacity:1;fill:#e7e7cf;fill-opacity:1;stroke:#000;stroke-width:.10682947;stroke-linecap:round;stroke-linejoin:round;stroke-miterlimit:0;stroke-dasharray:none;stroke-dashoffset:0;stroke-opacity:.24912283" id="rect7351" d="m 0.66149443,-2.1301098 a 3.5398467,3.5398467 0 0 0 -1.6298834,0.4010084 v 6.2766207 a 3.5398467,3.5398467 0 0 0 1.6298834,0.402043 3.5398467,3.5398467 0 0 0 1.62987337,-0.401008 V -1.7275514 A 3.5398467,3.5398467 0 0 0 0.66149443,-2.1301098 Z"/><path id="path6680" d="m 0.47514443,-2.0850408 c -0.048,0.0019 -0.0913,0.01 -0.13719,0.01463 v 2.94979077 c 0,0.12620103 0.10162,0.22788803 0.22773,0.22788803 h 0.19115 c 0.12611,0 0.22772,-0.101687 0.22772,-0.22788803 V -2.0745328 c -0.1027,-0.01027 -0.20959,-0.01492 -0.3233,-0.01053 -0.0638,-0.0024 -0.12584,-0.0024 -0.18611,2e-6 z" style="opacity:1;fill:url(#linearGradient7391);fill-opacity:1;stroke:#000;stroke-width:.13353685;stroke-linecap:round;stroke-linejoin:round;stroke-miterlimit:4;stroke-dasharray:none;stroke-dashoffset:0;stroke-opacity:.614841"/><path style="opacity:1;fill:#000;fill-opacity:.15789472;stroke:#000;stroke-width:.13353685;stroke-linecap:round;stroke-linejoin:round;stroke-miterlimit:4;stroke-dasharray:none;stroke-dashoffset:0;stroke-opacity:.24912283" id="path7347" d="m 0.47514443,4.9213893 c -0.048,-0.0019 -0.0913,-0.01 -0.13719,-0.01463 v -1.362289 c 0,-0.126201 0.10162,-0.227888 0.22773,-0.227888 h 0.19115 c 0.12611,0 0.22772,0.101687 0.22772,0.227888 v 1.366411 c -0.1027,0.01027 -0.20959,0.01492 -0.3233,0.01053 -0.0638,0.0024 -0.12584,0.0024 -0.18611,-2e-6 z"/></g></svg>