<svg xmlns="http://www.w3.org/2000/svg" xmlns:svg="http://www.w3.org/2000/svg" id="svg113936" width="15" height="15" version="1.1" viewBox="0 0 3.969 3.969"><metadata id="metadata113933"/><g id="layer1" transform="translate(-80.833177,-107.1214)"><circle id="circle837" cx="82.818" cy="109.106" r="1.984" style="opacity:1;fill:#999;fill-opacity:1;stroke:none;stroke-width:.26499999;stroke-linecap:round;stroke-linejoin:bevel;stroke-miterlimit:0;stroke-dasharray:none;stroke-dashoffset:0;stroke-opacity:1"/><path style="opacity:1;fill:#f2f2f2;fill-opacity:1;stroke:none;stroke-width:.26500002;stroke-linecap:round;stroke-linejoin:bevel;stroke-miterlimit:0;stroke-dasharray:none;stroke-dashoffset:0;stroke-opacity:1" id="circle839" d="m 82.021591,107.29071 a 1.9843751,1.9843751 0 0 0 -0.680497,0.49242 0.03291658,0.03291658 0 0 1 0.0024,0.0318 c -0.0521,0.11258 -0.06044,0.17761 -0.06324,0.23907 -0.0028,0.0615 0.0011,0.12264 -0.02774,0.21133 a 0.03291658,0.03291658 0 0 0 -4.07e-4,0 l -0.194196,0.59768 h 4.08e-4 c -0.02855,0.0879 -0.06664,0.13591 -0.09995,0.18726 -0.03332,0.0513 -0.06469,0.10798 -0.09016,0.22683 a 0.03291658,0.03291658 0 0 1 -0.02326,0.0253 1.9843751,1.9843751 0 0 0 0.258246,0.79799 0.03291658,0.03291658 0 0 1 0.0069,-0.001 0.03291658,0.03291658 0 0 1 0.02407,0.009 c 0.09097,0.0843 0.150044,0.11214 0.207658,0.13381 0.05762,0.0216 0.117125,0.037 0.192563,0.0918 l 0.508741,0.36963 c 0.07473,0.0543 0.108744,0.10507 0.147277,0.15258 0.03854,0.0475 0.08249,0.0945 0.187667,0.15544 a 0.03291658,0.03291658 0 0 1 0.01591,0.0322 1.9843751,1.9843751 0 0 0 0.423475,0.0469 1.9843751,1.9843751 0 0 0 0.416947,-0.0469 0.03291658,0.03291658 0 0 1 0.01591,-0.0281 c 0.108334,-0.0605 0.153276,-0.10818 0.191747,-0.15625 0.03847,-0.0481 0.07185,-0.0998 0.147277,-0.15462 l 0.507925,-0.36962 c 0.07475,-0.0543 0.133752,-0.0707 0.190931,-0.0926 0.05718,-0.022 0.115559,-0.0494 0.206026,-0.13055 a 0.03291658,0.03291658 0 0 1 0.01917,-0.008 0.03291658,0.03291658 0 0 1 0.0155,0.002 1.9843751,1.9843751 0 0 0 0.262326,-0.79717 0.03291658,0.03291658 0 0 1 -0.02366,-0.0253 c -0.02402,-0.12171 -0.05585,-0.17871 -0.08975,-0.2301 -0.03391,-0.0514 -0.07277,-0.0994 -0.101585,-0.18808 h 4.18e-4 l -0.194613,-0.59768 a 0.03291658,0.03291658 0 0 0 -4.18e-4,0 c -0.02853,-0.0879 -0.02578,-0.14859 -0.02896,-0.20969 -0.0032,-0.0611 -0.01113,-0.1255 -0.06038,-0.23663 a 0.03291658,0.03291658 0 0 1 0.0041,-0.0343 1.9843751,1.9843751 0 0 0 -0.677641,-0.49446 0.03291658,0.03291658 0 0 1 -0.02978,0.0127 c -0.123172,-0.0148 -0.187445,-0.002 -0.246823,0.0139 -0.05938,0.0163 -0.116858,0.0388 -0.210106,0.0388 h -0.628276 c -0.09238,0 -0.149759,-0.0213 -0.208882,-0.0371 -0.05912,-0.0158 -0.122644,-0.028 -0.243559,-0.0155 a 0.03291658,0.03291658 0 0 1 -0.02978,-0.0139 z"/></g></svg>