<svg xmlns="http://www.w3.org/2000/svg" xmlns:svg="http://www.w3.org/2000/svg" id="svg113936" width="34.016" height="34.016" version="1.1" viewBox="0 0 9 9"><metadata id="metadata113933"/><g id="layer1" transform="translate(-111.86932,-85.795053)"><path style="fill:#d4d4d4;fill-opacity:1;fill-rule:nonzero;stroke:none;stroke-width:.28209424" id="path109730" d="m 120.10511,92.798549 c 1.38512,-2.062815 0.83525,-4.854005 -1.22757,-6.23803 -2.0617,-1.384026 -4.86062,-0.840773 -6.24463,1.222041 -1.38514,2.062814 -0.83306,4.866126 1.22866,6.251255 2.06282,1.384023 4.8595,0.827547 6.24354,-1.235266"/><path style="fill:#fff;fill-opacity:1;fill-rule:nonzero;stroke:none;stroke-width:.28209424" id="path109732" d="m 120.02026,91.143448 c -0.46281,2.022043 -2.47716,3.285957 -4.49919,2.823148 -2.02205,-0.462813 -3.28598,-2.47714 -2.82314,-4.499182 0.46281,-2.020944 2.47713,-3.285958 4.49918,-2.82315 2.02093,0.462812 3.28594,2.477141 2.82315,4.499184"/><path style="fill:none;stroke:#7f7878;stroke-width:.11481237;stroke-linecap:round;stroke-linejoin:round;stroke-miterlimit:4;stroke-opacity:1" id="path109734" d="m 120.02026,91.143463 c -0.46281,2.022042 -2.47715,3.285956 -4.49919,2.823145 -2.02204,-0.462811 -3.28595,-2.47714 -2.82314,-4.499183 0.46281,-2.020941 2.47714,-3.285957 4.49918,-2.823145 2.02094,0.46281 3.28596,2.47714 2.82315,4.499183 z m 0,0"/><path style="fill:#000;fill-opacity:1;fill-rule:nonzero;stroke:none;stroke-width:.28209424" id="path109736" d="m 116.20648,88.009558 c -0.11239,-0.07603 -0.14328,-0.229201 -0.0672,-0.342701 0.0761,-0.113495 0.23029,-0.143251 0.34379,-0.06722 0.11356,0.07603 0.14325,0.229201 0.0672,0.342701 -0.076,0.113495 -0.23031,0.14325 -0.34379,0.06722"/><path style="fill:none;stroke:#000;stroke-width:.46912277;stroke-linecap:square;stroke-linejoin:miter;stroke-miterlimit:4;stroke-opacity:1" id="path109738" d="m 116.20647,88.009571 c -0.11239,-0.07603 -0.14326,-0.229202 -0.0672,-0.3427 0.076,-0.113495 0.23032,-0.14325 0.34381,-0.06722 0.11356,0.07602 0.14325,0.229201 0.0672,0.3427 -0.076,0.113495 -0.2303,0.143251 -0.3438,0.06722 z m 0,0"/></g></svg>