<svg xmlns="http://www.w3.org/2000/svg" xmlns:svg="http://www.w3.org/2000/svg" id="svg15246" width="69.125" height="69.12" version="1.1" viewBox="0 0 18.289 18.288"><defs id="defs15240"><clipPath id="clip89"><rect id="rect4864" width="18" height="19" x="0" y="0"/></clipPath><clipPath id="clip90"><path id="path4861" d="m 0.898438,0.128906 h 16.25 v 17.882813 h -16.25 z m 0,0"/></clipPath><mask id="mask44"><g style="filter:url(#alpha)" id="g4858" transform="matrix(0.26458333,0,0,0.26458333,89.358789,128.57765)"><rect style="fill:#000;fill-opacity:.14999402;stroke:none" id="rect4856" width="3052.87" height="3351.5" x="0" y="0"/></g></mask><filter id="alpha" width="1" height="1" x="0" y="0" filterUnits="objectBoundingBox"><feColorMatrix id="feColorMatrix4149" in="SourceGraphic" type="matrix" values="0 0 0 0 1 0 0 0 0 1 0 0 0 0 1 0 0 0 1 0"/></filter><clipPath id="clipPath17821"><rect id="rect17819" width="18" height="19" x="0" y="0"/></clipPath><clipPath id="clipPath17825"><path id="path17823" d="m 0.898438,0.128906 h 16.25 v 17.882813 h -16.25 z m 0,0"/></clipPath><clipPath id="clip87"><rect id="rect4848" width="24" height="26" x="0" y="0"/></clipPath><clipPath id="clip88"><path id="path4845" d="m 0.683594,0.921875 h 22.679687 v 24.9375 H 0.683594 Z m 0,0"/></clipPath><mask id="mask43"><g style="filter:url(#alpha)" id="g4842" transform="matrix(0.26458333,0,0,0.26458333,89.358789,128.57765)"><rect style="fill:#000;fill-opacity:.14999402;stroke:none" id="rect4840" width="3052.87" height="3351.5" x="0" y="0"/></g></mask><filter id="filter17836" width="1" height="1" x="0" y="0" filterUnits="objectBoundingBox"><feColorMatrix id="feColorMatrix17834" in="SourceGraphic" type="matrix" values="0 0 0 0 1 0 0 0 0 1 0 0 0 0 1 0 0 0 1 0"/></filter><clipPath id="clipPath17840"><rect id="rect17838" width="24" height="26" x="0" y="0"/></clipPath><clipPath id="clipPath17844"><path id="path17842" d="m 0.683594,0.921875 h 22.679687 v 24.9375 H 0.683594 Z m 0,0"/></clipPath><clipPath id="clip95"><rect id="rect4912" width="18" height="18" x="0" y="0"/></clipPath><clipPath id="clip96"><path id="path4909" d="M 0.140625,0.140625 H 17.199219 V 17.199219 H 0.140625 Z m 0,0"/></clipPath><mask id="mask47"><g style="filter:url(#alpha-3)" id="g4906" transform="matrix(0.26458333,0,0,0.26458333,88.611154,119.19859)"><rect style="fill:#000;fill-opacity:.33000201;stroke:none" id="rect4904" width="3052.87" height="3351.5" x="0" y="0"/></g></mask><filter id="alpha-3" width="1" height="1" x="0" y="0" filterUnits="objectBoundingBox"><feColorMatrix id="feColorMatrix4149-6" in="SourceGraphic" type="matrix" values="0 0 0 0 1 0 0 0 0 1 0 0 0 0 1 0 0 0 1 0"/></filter><clipPath id="clipPath18541"><rect id="rect18539" width="18" height="18" x="0" y="0"/></clipPath><clipPath id="clipPath18545"><path id="path18543" d="M 0.140625,0.140625 H 17.199219 V 17.199219 H 0.140625 Z m 0,0"/></clipPath><clipPath id="clip93"><rect id="rect4896" width="22" height="24" x="0" y="0"/></clipPath><clipPath id="clip94"><path id="path4893" d="M 0.0390625,0.0390625 H 21.300781 V 23.421875 H 0.0390625 Z m 0,0"/></clipPath><mask id="mask46"><g style="filter:url(#alpha-3)" id="g4890" transform="matrix(0.26458333,0,0,0.26458333,88.611154,119.19859)"><rect style="fill:#000;fill-opacity:.14999402;stroke:none" id="rect4888" width="3052.87" height="3351.5" x="0" y="0"/></g></mask><filter id="filter18556" width="1" height="1" x="0" y="0" filterUnits="objectBoundingBox"><feColorMatrix id="feColorMatrix18554" in="SourceGraphic" type="matrix" values="0 0 0 0 1 0 0 0 0 1 0 0 0 0 1 0 0 0 1 0"/></filter><clipPath id="clipPath18560"><rect id="rect18558" width="22" height="24" x="0" y="0"/></clipPath><clipPath id="clipPath18564"><path id="path18562" d="M 0.0390625,0.0390625 H 21.300781 V 23.421875 H 0.0390625 Z m 0,0"/></clipPath><clipPath id="clip91"><rect id="rect4880" width="29" height="32" x="0" y="0"/></clipPath><clipPath id="clip92"><path id="path4877" d="M 0.507812,0.5 H 28.855469 V 31.679688 H 0.507812 Z m 0,0"/></clipPath><mask id="mask45"><g style="filter:url(#alpha-3)" id="g4874" transform="matrix(0.26458333,0,0,0.26458333,88.611154,119.19859)"><rect style="fill:#000;fill-opacity:.14999402;stroke:none" id="rect4872" width="3052.87" height="3351.5" x="0" y="0"/></g></mask><filter id="filter18575" width="1" height="1" x="0" y="0" filterUnits="objectBoundingBox"><feColorMatrix id="feColorMatrix18573" in="SourceGraphic" type="matrix" values="0 0 0 0 1 0 0 0 0 1 0 0 0 0 1 0 0 0 1 0"/></filter><clipPath id="clipPath18579"><rect id="rect18577" width="29" height="32" x="0" y="0"/></clipPath><clipPath id="clipPath18583"><path id="path18581" d="M 0.507812,0.5 H 28.855469 V 31.679688 H 0.507812 Z m 0,0"/></clipPath><clipPath id="clip202"><rect id="rect5795" width="18" height="18" x="0" y="0"/></clipPath><clipPath id="clip203"><path id="path5792" d="M 0.855469,0.140625 H 17.914062 V 17.199219 H 0.855469 Z m 0,0"/></clipPath><mask id="mask104"><g style="filter:url(#alpha-7)" id="g5789" transform="matrix(0.26458333,0,0,0.26458333,74.416306,97.613551)"><rect style="fill:#000;fill-opacity:.33000201;stroke:none" id="rect5787" width="3052.87" height="3351.5" x="0" y="0"/></g></mask><filter id="alpha-7" width="1" height="1" x="0" y="0" filterUnits="objectBoundingBox"><feColorMatrix id="feColorMatrix4149-5" in="SourceGraphic" type="matrix" values="0 0 0 0 1 0 0 0 0 1 0 0 0 0 1 0 0 0 1 0"/></filter><clipPath id="clipPath18765"><rect id="rect18763" width="18" height="18" x="0" y="0"/></clipPath><clipPath id="clipPath18769"><path id="path18767" d="M 0.855469,0.140625 H 17.914062 V 17.199219 H 0.855469 Z m 0,0"/></clipPath></defs><metadata id="metadata15243"/><g id="layer1" transform="translate(-48.015552,-85.049829)"><path id="path7613" d="m 66.304874,94.193113 c 0,5.050511 -4.095531,9.144667 -9.144663,9.144667 -5.049131,0 -9.144659,-4.094156 -9.144659,-9.144667 0,-5.049132 4.095528,-9.143284 9.144659,-9.143284 5.049132,0 9.144663,4.094152 9.144663,9.143284" style="fill:#000;fill-opacity:1;fill-rule:nonzero;stroke:none;stroke-width:.35277775"/><path id="path7615" d="m 62.71026,94.193113 c 0,3.064757 -2.484604,5.550739 -5.55074,5.550739 -3.064757,0 -5.549357,-2.485982 -5.549357,-5.550739 0,-3.064757 2.4846,-5.54936 5.549357,-5.54936 3.066136,0 5.55074,2.484603 5.55074,5.54936" style="fill:#da4061;fill-opacity:1;fill-rule:nonzero;stroke:none;stroke-width:.35277775"/><path id="path7617" d="m 64.526515,94.193113 c 0,4.069348 -3.297647,7.366997 -7.365616,7.366997 -4.067968,0 -7.366991,-3.297649 -7.366991,-7.366997 0,-4.06659 3.299023,-7.365616 7.366991,-7.365616 4.067969,0 7.365616,3.299026 7.365616,7.365616 z m 0,0" style="fill:none;stroke:#636363;stroke-width:.29999998;stroke-linecap:butt;stroke-linejoin:miter;stroke-miterlimit:10;stroke-dasharray:none;stroke-opacity:1"/><path id="path7619" d="m 57.865767,85.080147 c -0.232886,-0.01792 -0.468531,-0.0303 -0.705556,-0.0303 -0.2384,0 -0.472665,0.01242 -0.705555,0.0303 v 4.43177 h 1.411111 z m 0,0" style="fill:#da4061;fill-opacity:1;fill-rule:nonzero;stroke:none;stroke-width:.35277775"/></g></svg>