<svg xmlns="http://www.w3.org/2000/svg" xmlns:svg="http://www.w3.org/2000/svg" id="svg85367" width="30" height="380" version="1.1" viewBox="0 0 7.938 100.542"><metadata id="metadata85364"/><g id="layer4" transform="translate(0,8.0744425e-6)" style="display:inline"><path id="path65292-2" d="M 0.05024939,0.02366614 H 8.028558 V 100.88751 H 0.05024939 Z m 0,0" style="fill:#4d4d4d;fill-opacity:1;fill-rule:nonzero;stroke:none;stroke-width:.13890229"/></g><g id="layer3" transform="translate(0,8.0744425e-6)" style="display:inline"><rect style="fill:gray;stroke-width:.25390878" id="rect3911" width="25.857" height="5.77" x="13.308" y="80.392" ry="2.756"/><rect id="rect4212" width="25.857" height="5.77" x="13.308" y="87.726" ry="2.756" style="fill:gray;stroke-width:.25390878"/><rect id="rect3923" width="84.9" height="5.823" x="8.631" y="-32.257" ry="2.781" transform="rotate(90)" style="fill:#c83737;stroke-width:.46220216"/><rect style="fill:gray;stroke-width:.25390878" id="rect4214" width="25.857" height="5.77" x="13.308" y="14.778" ry="2.756"/><rect id="rect4216" width="25.857" height="5.77" x="13.308" y="7.689" ry="2.756" style="fill:gray;stroke-width:.25390878"/><rect style="fill:#08a;stroke-width:.46220213" id="rect3921" width="84.9" height="5.823" x="7.673" y="-25.707" ry="2.781" transform="rotate(90)"/><path id="path65" d="m 36.378518,20.545131 -10.787761,0.01653 c -0.421076,6.46e-4 -0.08769,-0.663435 -0.06832,-2.044833 l 0.03376,-2.408105 c 0.0214,-1.526628 0.175156,-1.299483 0.551345,-1.300694 l 10.270973,-0.03307 c 1.5588,-0.005 2.813732,1.229132 2.813732,2.755902 v 0.258366 c 0,1.526769 -1.254998,2.770667 -2.813732,2.755901 z" style="fill:#08a;fill-opacity:1;stroke-width:.25655898"/><g style="font-style:normal;font-variant:normal;font-weight:700;font-stretch:normal;font-size:3.52777767px;line-height:1.25;font-family:'DejaVu Sans';-inkscape-font-specification:'DejaVu Sans, Bold';font-variant-ligatures:normal;font-variant-caps:normal;font-variant-numeric:normal;font-feature-settings:normal;text-align:start;letter-spacing:0;word-spacing:0;writing-mode:lr-tb;text-anchor:start;fill:#f2f2f2;fill-opacity:1;stroke:none;stroke-width:.26458332" id="text4043" aria-label="STEP" transform="translate(10.046878,0.00172471)"><path id="path62" d="m 12.473953,16.456269 v 0.544325 q -0.211874,-0.09474 -0.413412,-0.142971 -0.201538,-0.04823 -0.380683,-0.04823 -0.237711,0 -0.351399,0.06546 -0.113688,0.06546 -0.113688,0.203261 0,0.103353 0.07579,0.161919 0.07751,0.05684 0.279052,0.09819 l 0.282498,0.05684 q 0.428915,0.08613 0.609782,0.261827 0.180868,0.1757 0.180868,0.499539 0,0.425469 -0.253215,0.633897 -0.251492,0.206706 -0.769979,0.206706 -0.244602,0 -0.490926,-0.04651 -0.246324,-0.04651 -0.492649,-0.137804 V 18.25289 q 0.246325,0.130914 0.475424,0.198093 0.230821,0.06546 0.444417,0.06546 0.217041,0 0.332452,-0.07235 0.11541,-0.07235 0.11541,-0.206706 0,-0.120578 -0.07924,-0.186035 -0.07751,-0.06546 -0.311781,-0.117133 l -0.25666,-0.05684 q -0.38585,-0.08268 -0.564995,-0.26355 -0.177423,-0.180867 -0.177423,-0.487481 0,-0.384128 0.248047,-0.590834 0.248047,-0.206706 0.713135,-0.206706 0.211873,0 0.435805,0.03273 0.223931,0.03101 0.463365,0.09474 z"/><path id="path64" d="m 12.920093,16.375309 h 2.370225 v 0.501262 h -0.852661 v 2.070502 h -0.663181 v -2.070502 h -0.854383 z"/><path id="path66" d="m 15.631383,16.375309 h 1.789727 v 0.501262 h -1.126546 v 0.478868 H 17.35393 V 17.8567 h -1.059366 v 0.589112 h 1.164442 v 0.501261 h -1.827623 z"/><path id="path68" d="m 18.042949,16.375309 h 1.100708 q 0.490927,0 0.752754,0.218764 0.26355,0.217041 0.26355,0.620117 0,0.404799 -0.26355,0.623562 -0.261827,0.217041 -0.752754,0.217041 H 18.70613 v 0.89228 H 18.042949 Z M 18.70613,16.8559 v 0.718302 h 0.366903 q 0.192925,0 0.298001,-0.09302 0.105075,-0.09474 0.105075,-0.266995 0,-0.172255 -0.105075,-0.265272 -0.105076,-0.09302 -0.298001,-0.09302 z"/></g><path id="path60" d="m 16.026411,87.727712 10.770937,0.01654 c 0.412423,6.33e-4 3.335597,-0.0456 3.764625,1.267619 l 0.921921,2.821932 c 0.474133,1.451285 -2.461853,1.66451 -2.830314,1.664496 l -12.627169,-4.71e-4 c -1.52677,-5.7e-5 -2.755902,-1.229084 -2.755902,-2.755854 v -0.258366 c 0,-1.526769 1.229203,-2.770667 2.755902,-2.755901 z" style="fill:#c83737;fill-opacity:1;stroke-width:.25390878"/><g style="font-style:normal;font-variant:normal;font-weight:700;font-stretch:normal;font-size:3.52777767px;line-height:1.25;font-family:'DejaVu Sans';-inkscape-font-specification:'DejaVu Sans, Bold';font-variant-ligatures:normal;font-variant-caps:normal;font-variant-numeric:normal;font-feature-settings:normal;text-align:start;letter-spacing:0;word-spacing:0;writing-mode:lr-tb;text-anchor:start;fill:#f2f2f2;fill-opacity:1;stroke:none;stroke-width:.26458332" id="text4033" aria-label="COUNT" transform="translate(7.3166727)"><path id="path40" d="m 11.295772,91.754045 q -0.18259,0.09474 -0.380683,0.142972 -0.198093,0.04823 -0.413411,0.04823 -0.6425104,0 -1.0180258,-0.35829 -0.3755154,-0.360012 -0.3755154,-0.974962 0,-0.616672 0.3755154,-0.974962 0.3755154,-0.360012 1.0180258,-0.360012 0.215318,0 0.413411,0.04823 0.198093,0.04823 0.380683,0.142971 v 0.532268 q -0.184312,-0.125746 -0.363457,-0.184313 -0.179145,-0.05857 -0.377238,-0.05857 -0.354845,0 -0.5581056,0.227376 -0.2032606,0.227376 -0.2032606,0.627007 0,0.397909 0.2032606,0.625285 0.2032606,0.227376 0.5581056,0.227376 0.198093,0 0.377238,-0.05857 0.179145,-0.05857 0.363457,-0.184313 z"/><path id="path42" d="m 13.021765,89.757613 q -0.303168,0 -0.470255,0.223931 -0.167087,0.223931 -0.167087,0.630452 0,0.404799 0.167087,0.62873 0.167087,0.223931 0.470255,0.223931 0.304891,0 0.471978,-0.223931 0.167087,-0.223931 0.167087,-0.62873 0,-0.406521 -0.167087,-0.630452 -0.167087,-0.223931 -0.471978,-0.223931 z m 0,-0.480591 q 0.620117,0 0.971517,0.354845 0.3514,0.354844 0.3514,0.980129 0,0.623562 -0.3514,0.978407 -0.3514,0.354845 -0.971517,0.354845 -0.618394,0 -0.971517,-0.354845 -0.351399,-0.354845 -0.351399,-0.978407 0,-0.625285 0.351399,-0.980129 0.353123,-0.354845 0.971517,-0.354845 z"/><path id="path44" d="m 14.844221,89.32353 h 0.663181 v 1.541681 q 0,0.318671 0.103353,0.456475 0.105075,0.136081 0.341064,0.136081 0.237712,0 0.341065,-0.136081 0.105075,-0.137804 0.105075,-0.456475 V 89.32353 h 0.663181 v 1.541681 q 0,0.546047 -0.273885,0.813042 -0.273885,0.266995 -0.835436,0.266995 -0.559828,0 -0.833713,-0.266995 -0.273885,-0.266995 -0.273885,-0.813042 z"/><path id="path46" d="m 17.71054,89.32353 h 0.740695 l 0.935343,1.763889 V 89.32353 h 0.62873 v 2.571764 H 19.274613 L 18.33927,90.131405 v 1.763889 h -0.62873 z"/><path id="path48" d="m 20.359819,89.32353 h 2.370225 v 0.501262 h -0.852661 v 2.070502 h -0.663181 v -2.070502 h -0.854383 z"/></g><path style="fill:#08a;fill-opacity:1;stroke-width:.25390878" id="path81" d="m 36.410743,13.452942 -10.903229,-1e-6 c -0.412424,0 0.179933,-0.498544 -0.75499,-1.515666 L 21.741566,8.6615917 C 20.708353,7.5375371 22.079605,7.6799471 26.226342,7.6807652 l 10.184401,0.00201 c 1.52677,3.012e-4 2.755902,1.229132 2.755902,2.7559028 v 0.258366 c 0,1.526769 -1.229204,2.770667 -2.755902,2.755901 z"/><g style="font-style:normal;font-variant:normal;font-weight:700;font-stretch:normal;font-size:3.52777767px;line-height:1.25;font-family:'DejaVu Sans';-inkscape-font-specification:'DejaVu Sans, Bold';font-variant-ligatures:normal;font-variant-caps:normal;font-variant-numeric:normal;font-feature-settings:normal;text-align:start;letter-spacing:0;word-spacing:0;writing-mode:lr-tb;text-anchor:start;fill:#f2f2f2;fill-opacity:1;stroke:none;stroke-width:.26458332" id="text4039" aria-label="SCAN" transform="translate(10.043733)"><path id="path71" d="m 12.660892,9.3669689 v 0.544325 q -0.211873,-0.09474 -0.413411,-0.1429714 -0.201538,-0.048231 -0.380683,-0.048231 -0.237712,0 -0.3514,0.065457 -0.113688,0.065457 -0.113688,0.2032606 0,0.1033529 0.07579,0.1619199 0.07751,0.05684 0.279053,0.09818 l 0.282497,0.05684 q 0.428915,0.08613 0.609782,0.261827 0.180868,0.175699 0.180868,0.499538 0,0.425471 -0.253215,0.633898 -0.251492,0.206707 -0.769979,0.206707 -0.244601,0 -0.490926,-0.04651 -0.246324,-0.04651 -0.492648,-0.137804 v -0.559828 q 0.246324,0.130914 0.475423,0.198093 0.230821,0.06546 0.444417,0.06546 0.217041,0 0.332452,-0.07235 0.115411,-0.07235 0.115411,-0.206706 0,-0.120578 -0.07924,-0.186035 -0.07751,-0.06546 -0.311781,-0.117134 l -0.256659,-0.05684 q -0.385851,-0.08268 -0.564996,-0.26355 -0.177422,-0.180869 -0.177422,-0.487482 0,-0.3841277 0.248046,-0.5908334 0.248047,-0.2067058 0.713135,-0.2067058 0.211874,0 0.435805,0.032728 0.223931,0.031006 0.463365,0.09474 z"/><path id="path73" d="m 15.453142,11.716524 q -0.18259,0.09474 -0.380683,0.142971 -0.198093,0.04823 -0.413411,0.04823 -0.642511,0 -1.018026,-0.35829 -0.375516,-0.360013 -0.375516,-0.974962 0,-0.6166723 0.375516,-0.9749622 0.375515,-0.3600125 1.018026,-0.3600125 0.215318,0 0.413411,0.048231 0.198093,0.048231 0.380683,0.1429714 V 9.962968 q -0.184313,-0.125746 -0.363458,-0.1843126 -0.179145,-0.058567 -0.377238,-0.058567 -0.354844,0 -0.558105,0.2273763 -0.203261,0.2273763 -0.203261,0.6270073 0,0.397908 0.203261,0.625285 0.203261,0.227376 0.558105,0.227376 0.198093,0 0.377238,-0.05857 0.179145,-0.05857 0.363458,-0.184312 z"/><path id="path75" d="m 17.564985,11.38924 h -1.036973 l -0.163642,0.468533 h -0.666626 l 0.952569,-2.5717639 h 0.790649 l 0.952569,2.5717639 h -0.666626 z m -0.871609,-0.477146 h 0.704522 l -0.3514,-1.0231932 z"/><path id="path77" d="m 18.732873,9.2860091 h 0.740695 l 0.935344,1.7638889 V 9.2860091 h 0.62873 v 2.5717639 h -0.740696 l -0.935343,-1.763889 v 1.763889 h -0.62873 z"/></g><path style="fill:#c83737;fill-opacity:1;stroke-width:.25390878" id="rect57" d="m 16.016724,80.391747 10.531159,0.0083 c 0.412423,3.24e-4 0.120768,0.638631 0.101799,2.020029 l -0.03307,2.408105 c -0.02096,1.526628 -0.171556,1.299483 -0.540014,1.300694 l -10.059876,0.03307 c -1.526762,0.005 -2.755902,-1.229132 -2.755902,-2.755902 v -0.258366 c 0,-1.526769 1.229204,-2.770667 2.755902,-2.755901 z"/><g style="font-style:normal;font-variant:normal;font-weight:700;font-stretch:normal;font-size:3.52777767px;line-height:1.25;font-family:'DejaVu Sans';-inkscape-font-specification:'DejaVu Sans, Bold';font-variant-ligatures:normal;font-variant-caps:normal;font-variant-numeric:normal;font-feature-settings:normal;text-align:start;letter-spacing:0;word-spacing:0;writing-mode:lr-tb;text-anchor:start;fill:#f2f2f2;fill-opacity:1;stroke:none;stroke-width:.26458332" id="text4029" aria-label="VALUE" transform="translate(6.6750239,2.5805664e-6)"><path style="font-style:normal;font-variant:normal;font-weight:700;font-stretch:normal;font-size:3.52777767px;font-family:'DejaVu Sans';-inkscape-font-specification:'DejaVu Sans, Bold';font-variant-ligatures:normal;font-variant-caps:normal;font-variant-numeric:normal;font-feature-settings:normal;text-align:start;writing-mode:lr-tb;text-anchor:start;fill:#f2f2f2;stroke-width:.26458332" id="path51" d="m 9.7497856,81.965971 h 0.6666264 l 0.682128,1.898248 0.680407,-1.898248 h 0.666626 l -0.952569,2.571764 h -0.790649 z"/><path style="font-style:normal;font-variant:normal;font-weight:700;font-stretch:normal;font-size:3.52777767px;font-family:'DejaVu Sans';-inkscape-font-specification:'DejaVu Sans, Bold';font-variant-ligatures:normal;font-variant-caps:normal;font-variant-numeric:normal;font-feature-settings:normal;text-align:start;writing-mode:lr-tb;text-anchor:start;fill:#f2f2f2;stroke-width:.26458332" id="path53" d="m 14.104386,84.069202 h -1.036974 l -0.163642,0.468533 h -0.666626 l 0.952569,-2.571764 h 0.79065 l 0.952569,2.571764 h -0.666626 z m -0.871609,-0.477146 h 0.704522 l -0.3514,-1.023193 z"/><path style="font-style:normal;font-variant:normal;font-weight:700;font-stretch:normal;font-size:3.52777767px;font-family:'DejaVu Sans';-inkscape-font-specification:'DejaVu Sans, Bold';font-variant-ligatures:normal;font-variant-caps:normal;font-variant-numeric:normal;font-feature-settings:normal;text-align:start;writing-mode:lr-tb;text-anchor:start;fill:#f2f2f2;stroke-width:.26458332" id="path55" d="m 15.272274,81.965971 h 0.663181 v 2.070503 h 1.164442 v 0.501261 h -1.827623 z"/><path style="font-style:normal;font-variant:normal;font-weight:700;font-stretch:normal;font-size:3.52777767px;font-family:'DejaVu Sans';-inkscape-font-specification:'DejaVu Sans, Bold';font-variant-ligatures:normal;font-variant-caps:normal;font-variant-numeric:normal;font-feature-settings:normal;text-align:start;writing-mode:lr-tb;text-anchor:start;fill:#f2f2f2;stroke-width:.26458332" id="path57" d="m 17.394452,81.965971 h 0.663181 v 1.54168 q 0,0.318672 0.103353,0.456476 0.105075,0.136081 0.341065,0.136081 0.237711,0 0.341064,-0.136081 0.105075,-0.137804 0.105075,-0.456476 v -1.54168 h 0.663181 v 1.54168 q 0,0.546048 -0.273885,0.813043 -0.273885,0.266995 -0.835435,0.266995 -0.559828,0 -0.833714,-0.266995 -0.273885,-0.266995 -0.273885,-0.813043 z"/><path style="font-style:normal;font-variant:normal;font-weight:700;font-stretch:normal;font-size:3.52777767px;font-family:'DejaVu Sans';-inkscape-font-specification:'DejaVu Sans, Bold';font-variant-ligatures:normal;font-variant-caps:normal;font-variant-numeric:normal;font-feature-settings:normal;text-align:start;writing-mode:lr-tb;text-anchor:start;fill:#f2f2f2;stroke-width:.26458332" id="path59" d="m 20.260772,81.965971 h 1.789727 v 0.501262 h -1.126547 v 0.478868 h 1.059367 v 0.501261 h -1.059367 v 0.589112 h 1.164443 v 0.501261 h -1.827623 z"/></g><rect id="rect4096" width="58" height="5.823" x="23.706" y="-6.923" ry="2.781" transform="rotate(90)" style="fill:gray;fill-opacity:1;stroke-width:.38202527"/><rect style="fill:#c83737;stroke-width:.19427803" id="rect4098" width="15" height="5.823" x="81.706" y="-6.923" ry="2.781" transform="rotate(90)"/><rect id="rect46" width="15" height="5.823" x="8.706" y="-6.923" ry="2.781" transform="rotate(90)" style="fill:#08a;fill-opacity:1;stroke-width:.19427803"/><g style="font-style:normal;font-variant:normal;font-weight:700;font-stretch:normal;font-size:2.82222223px;line-height:1.25;font-family:sans-serif;-inkscape-font-specification:'sans-serif, Bold';font-variant-ligatures:normal;font-variant-caps:normal;font-variant-numeric:normal;font-feature-settings:normal;text-align:start;letter-spacing:0;word-spacing:0;writing-mode:lr-tb;text-anchor:start;fill:#f2f2f2;fill-opacity:1;stroke:none;stroke-width:.26458332" id="text46" aria-label="BYTE"><path style="font-style:normal;font-variant:normal;font-weight:700;font-stretch:normal;font-size:2.82222223px;font-family:sans-serif;-inkscape-font-specification:'sans-serif, Bold';font-variant-ligatures:normal;font-variant-caps:normal;font-variant-numeric:normal;font-feature-settings:normal;text-align:start;writing-mode:lr-tb;text-anchor:start;fill:#f2f2f2;fill-opacity:1;stroke-width:.26458332" id="path52" d="m 1.9795068,7.7544433 q 0,0.1488281 -0.060634,0.2659614 -0.059256,0.1171332 -0.1639865,0.1943034 -0.1212674,0.09095 -0.2673394,0.1295355 -0.144694,0.038585 -0.3679362,0.038585 H 0.22388613 V 6.3309298 H 1.0203922 q 0.2480469,0 0.3624241,0.016536 0.1157552,0.016536 0.2287543,0.073036 0.1171332,0.059256 0.1736328,0.1598524 0.057878,0.099219 0.057878,0.2273764 0,0.1488281 -0.078548,0.2632052 -0.078548,0.1129992 -0.2218641,0.1763889 v 0.011024 q 0.2011936,0.039963 0.3183268,0.1653646 0.1185113,0.1254015 0.1185113,0.3307292 z M 1.301512,6.9110839 q 0,-0.050987 -0.026183,-0.1019748 -0.024805,-0.050987 -0.089573,-0.075792 -0.057878,-0.022049 -0.144694,-0.023427 -0.0854384,-0.00276 -0.2411567,-0.00276 h -0.0496094 v 0.434082 h 0.0826823 q 0.12540147,0 0.21359588,-0.00413 0.088194,-0.00413 0.1391819,-0.027561 0.071658,-0.031695 0.093707,-0.081304 0.022049,-0.050988 0.022049,-0.1171333 z m 0.1295356,0.8350912 q 0,-0.097841 -0.038585,-0.1502062 Q 1.3552555,7.5422254 1.264305,7.5160427 1.2022933,7.4981282 1.0934282,7.4967502 0.98456322,7.4953721 0.86605193,7.4953721 h -0.1157552 v 0.5112522 h 0.0385851 q 0.2232422,0 0.3197049,-0.00138 0.096463,-0.00138 0.1777669,-0.035829 0.082682,-0.034451 0.1129991,-0.090951 0.031695,-0.057878 0.031695,-0.1322916 z"/><path style="font-style:normal;font-variant:normal;font-weight:700;font-stretch:normal;font-size:2.82222223px;font-family:sans-serif;-inkscape-font-specification:'sans-serif, Bold';font-variant-ligatures:normal;font-variant-caps:normal;font-variant-numeric:normal;font-feature-settings:normal;text-align:start;writing-mode:lr-tb;text-anchor:start;fill:#f2f2f2;fill-opacity:1;stroke-width:.26458332" id="path54" d="m 4.1788557,6.3309298 -0.756543,1.2581489 v 0.79375 H 2.893146 V 7.6138834 L 2.1242007,6.3309298 h 0.6008247 l 0.4437283,0.79375 0.4285699,-0.79375 z"/><path style="font-style:normal;font-variant:normal;font-weight:700;font-stretch:normal;font-size:2.82222223px;font-family:sans-serif;-inkscape-font-specification:'sans-serif, Bold';font-variant-ligatures:normal;font-variant-caps:normal;font-variant-numeric:normal;font-feature-settings:normal;text-align:start;writing-mode:lr-tb;text-anchor:start;fill:#f2f2f2;fill-opacity:1;stroke-width:.26458332" id="path56" d="M 6.057122,6.7278048 H 5.4163342 V 8.3828287 H 4.8871676 V 6.7278048 H 4.2463798 V 6.3309298 H 6.057122 Z"/><path style="font-style:normal;font-variant:normal;font-weight:700;font-stretch:normal;font-size:2.82222223px;font-family:sans-serif;-inkscape-font-specification:'sans-serif, Bold';font-variant-ligatures:normal;font-variant-caps:normal;font-variant-numeric:normal;font-feature-settings:normal;text-align:start;writing-mode:lr-tb;text-anchor:start;fill:#f2f2f2;fill-opacity:1;stroke-width:.26458332" id="path58" d="M 7.859596,8.3828287 H 6.3754488 V 6.3309298 H 7.859596 v 0.396875 H 6.9018594 v 0.3541559 h 0.8888347 v 0.396875 H 6.9018594 v 0.507118 H 7.859596 Z"/></g><text id="text50" x="13.654" y="10.632" xml:space="preserve" style="font-style:normal;font-variant:normal;font-weight:700;font-stretch:normal;font-size:2.82222223px;line-height:1.25;font-family:sans-serif;-inkscape-font-specification:'sans-serif, Bold';font-variant-ligatures:normal;font-variant-caps:normal;font-variant-numeric:normal;font-feature-settings:normal;text-align:start;letter-spacing:0;word-spacing:0;writing-mode:lr-tb;text-anchor:start;fill:#f2f2f2;fill-opacity:1;stroke:none;stroke-width:.26458332"><tspan style="font-style:normal;font-variant:normal;font-weight:700;font-stretch:normal;font-size:2.82222223px;font-family:sans-serif;-inkscape-font-specification:'sans-serif, Bold';font-variant-ligatures:normal;font-variant-caps:normal;font-variant-numeric:normal;font-feature-settings:normal;text-align:start;writing-mode:lr-tb;text-anchor:start;fill:#f2f2f2;fill-opacity:1;stroke-width:.26458332" id="tspan48" x="13.654" y="10.632">BYTE</tspan></text><g style="font-style:normal;font-variant:normal;font-weight:400;font-stretch:normal;font-size:2.11666656px;line-height:1.25;font-family:sans-serif;-inkscape-font-specification:'sans-serif, Normal';font-variant-ligatures:normal;font-variant-caps:normal;font-variant-numeric:normal;font-feature-settings:normal;text-align:start;letter-spacing:0;word-spacing:0;writing-mode:lr-tb;text-anchor:start;fill:#f2f2f2;fill-opacity:1;stroke:none;stroke-width:.26458332" id="text63" aria-label="SCAN" transform="translate(0,-0.52916663)"><path id="path72" d="m 2.3901384,16.535844 q 0,0.08992 -0.042375,0.177767 -0.041341,0.08785 -0.1167888,0.148828 -0.082682,0.06615 -0.1932698,0.103353 -0.109554,0.03721 -0.2645833,0.03721 -0.1663981,0 -0.2997233,-0.03101 -0.1322917,-0.03101 -0.269751,-0.09198 v -0.256315 h 0.014469 q 0.1167888,0.09715 0.269751,0.149862 0.1529622,0.05271 0.2873209,0.05271 0.1901693,0 0.2955892,-0.07131 0.1064535,-0.07131 0.1064535,-0.190169 0,-0.102319 -0.050643,-0.150895 -0.049609,-0.04858 -0.1519287,-0.07545 -0.077515,-0.02067 -0.1684652,-0.03411 -0.089917,-0.01344 -0.1912028,-0.03411 -0.2046387,-0.04341 -0.3038574,-0.147794 -0.098185,-0.10542 -0.098185,-0.273885 0,-0.19327 0.1632975,-0.31626 0.1632975,-0.124024 0.414445,-0.124024 0.162264,0 0.2976562,0.03101 0.1353922,0.03101 0.2397786,0.07648 v 0.241846 H 2.313657 q -0.08785,-0.07441 -0.2315104,-0.12299 -0.1426269,-0.04961 -0.2924886,-0.04961 -0.164331,0 -0.2645833,0.06821 -0.099219,0.06821 -0.099219,0.1757 0,0.09612 0.049609,0.150895 0.049609,0.05478 0.1746664,0.08372 0.066146,0.01447 0.1881022,0.03514 0.1219564,0.02067 0.2067057,0.04237 0.1715657,0.04548 0.2583821,0.13746 0.086816,0.09198 0.086816,0.257348 z"/><path id="path74" d="m 3.9073585,16.863473 q -0.056844,0.0248 -0.1033529,0.04651 -0.045475,0.0217 -0.1198893,0.04547 -0.063045,0.01964 -0.1374593,0.03307 -0.073381,0.01447 -0.162264,0.01447 -0.1674316,0 -0.3048909,-0.04651 -0.1364258,-0.04754 -0.2377116,-0.147794 -0.099219,-0.09819 -0.1550293,-0.249081 -0.055811,-0.151928 -0.055811,-0.352433 0,-0.190169 0.053744,-0.340031 0.053743,-0.149861 0.1550293,-0.253214 0.098185,-0.100253 0.2366781,-0.152963 0.1395263,-0.05271 0.309025,-0.05271 0.1240234,0 0.2470133,0.02997 0.1240235,0.02997 0.2749187,0.10542 v 0.242879 h -0.015503 q -0.127124,-0.106453 -0.252181,-0.155029 -0.1250569,-0.04858 -0.2676839,-0.04858 -0.1167887,0 -0.2108398,0.03824 -0.093018,0.03721 -0.1663981,0.116789 -0.071314,0.07752 -0.1116211,0.196371 -0.039274,0.117822 -0.039274,0.272851 0,0.162264 0.043408,0.279053 0.044442,0.116789 0.1136882,0.190169 0.072347,0.07648 0.1684651,0.113688 0.097152,0.03617 0.2046387,0.03617 0.1477946,0 0.2769857,-0.05064 0.129191,-0.05064 0.2418457,-0.151929 h 0.014469 z"/><path id="path76" d="M 5.4121759,16.975094 H 5.1941014 L 5.0432062,16.546179 H 4.3776138 L 4.2267186,16.975094 H 4.0189794 L 4.5791519,15.43617 H 4.8520034 Z M 4.980161,16.37048 4.71041,15.61497 4.4396255,16.37048 Z"/><path id="path78" d="M 6.8198418,16.975094 H 6.5666273 l -0.7296712,-1.37666 v 1.37666 H 5.6457533 V 15.43617 H 5.9630466 L 6.628639,16.692941 V 15.43617 h 0.1912028 z"/></g><text id="text69" x="13.501" y="17.57" xml:space="preserve" style="font-style:normal;font-variant:normal;font-weight:400;font-stretch:normal;font-size:2.11666656px;line-height:1.25;font-family:sans-serif;-inkscape-font-specification:'sans-serif, Normal';font-variant-ligatures:normal;font-variant-caps:normal;font-variant-numeric:normal;font-feature-settings:normal;text-align:start;letter-spacing:0;word-spacing:0;writing-mode:lr-tb;text-anchor:start;fill:#f2f2f2;fill-opacity:1;stroke:none;stroke-width:.26458332"><tspan id="tspan67" x="13.501" y="17.57">SCAN</tspan></text></g></svg>