<svg xmlns="http://www.w3.org/2000/svg" xmlns:xlink="http://www.w3.org/1999/xlink" style="shape-rendering:geometricPrecision;text-rendering:geometricPrecision;image-rendering:optimizeQuality" x="0" y="0" fill-rule="evenodd" clip-rule="evenodd" version="1.1" viewBox="0 0 170 312.5" xml:space="preserve"><defs><style type="text/css">.fil0{fill:#000;fill-rule:nonzero}</style></defs><g><path d="M170 171c0,19 -26,29 -43,29 -11,0 -30,-4 -30,-18 0,-23 42,-31 61,-24l0 -90 -85 37 0 115c0,19 -26,30 -42,30 -12,0 -31,-4 -31,-19 0,-22 42,-30 60,-23l0 -159 110 -49 0 171zm-12 -110l0 -13 -85 38 0 13 85 -38z" class="fil0"/></g><text x="0" y="265" fill="#000" font-family="'Helvetica Neue', Helvetica, Arial-Unicode, Arial, Sans-serif" font-size="5" font-weight="bold">Created by abdul karim</text><text x="0" y="270" fill="#000" font-family="'Helvetica Neue', Helvetica, Arial-Unicode, Arial, Sans-serif" font-size="5" font-weight="bold">from the Noun Project</text></svg>