<svg xmlns="http://www.w3.org/2000/svg" width="30" height="380"><g id="base"><path fill="#ababab" d="M0 0h30v380H0z"/><path fill="#e6e6e6" d="M.3.3h29.4v379.4H0z"/></g><g id="label_bgs"><path fill="#c91847" d="M.3 16h29.4v16H0z"/><g id="placeholder_label_bgs" style="xdisplay:none"><path fill="#ccc" d="M.3 36h74.4v12H0z"/><path fill="#ccc" d="M.3 208h74.4v12H0z"/></g></g><g id="logo"><circle cx="15" cy="360" r="7" style="fill:#556746"/><circle cx="17" cy="362" r="5" style="fill:#e6e6e6"/><circle cx="19" cy="364" r="3" style="fill:#556746"/></g><g id="plug_outlines"><rect width="28.5" height="98" x=".75" y="36" fill="#e6e6e6" stroke="#000" rx="4" ry="4"/><rect width="28.5" height="98" x=".75" y="207" fill="#e6e6e6" stroke="#000" rx="4" ry="4"/><rect width="28.5" height="42" x=".75" y="134" fill="#000" rx="4" ry="4"/><rect width="28.5" height="42" x=".75" y="306" fill="#000" rx="4" ry="4"/></g><g id="text_labels"><text id="heading" x="0" y="28" style="font-style:normal;font-variant:normal;font-weight:700;font-stretch:normal;font-family:'Envy Code R';-inkscape-font-specification:'Envy Code R';letter-spacing:0;word-spacing:0;fill:#fff;fill-opacity:1;stroke:none;stroke-width:1px;stroke-linecap:butt;stroke-linejoin:miter;stroke-opacity:1"><tspan x="5" y="28" style="font-size:12.5px">MIX</tspan></text><text id="small_labels" x="0" y="46" style="font-style:normal;font-variant:normal;font-weight:400;font-stretch:normal;font-family:'Envy Code R';-inkscape-font-specification:'Envy Code R';letter-spacing:0;word-spacing:0;fill:#000;fill-opacity:1;stroke:none;stroke-width:1px;stroke-linecap:butt;stroke-linejoin:miter;stroke-opacity:1"><tspan x="6" y="47" style="font-size:8px">IN A</tspan> <tspan x="6" y="218" style="font-size:8px">IN B</tspan></text><text id="small_labels_white" x="0" y="262" style="font-style:normal;font-variant:normal;font-weight:400;font-stretch:normal;font-family:'Envy Code R';-inkscape-font-specification:'Envy Code R';letter-spacing:0;word-spacing:0;fill:#fff;fill-opacity:1;stroke:none;stroke-width:1px;stroke-linecap:butt;stroke-linejoin:miter;stroke-opacity:1"><tspan x="9" y="144" style="font-size:8px">OUT</tspan> <tspan x="9" y="316" style="font-size:8px">OUT</tspan></text></g></svg>