<svg xmlns="http://www.w3.org/2000/svg" xmlns:svg="http://www.w3.org/2000/svg" id="svg15246" width="22" height="22" version="1.1" viewBox="0 0 5.821 5.821"><metadata id="metadata15243"/><g id="layer1" transform="translate(-88.611154,-121.73339)"><g id="g894"><path id="path888" d="m 94.302928,124.64377 c 0,1.5355 -1.245859,2.78139 -2.781353,2.78139 -1.535503,0 -2.781362,-1.24589 -2.781362,-2.78139 0,-1.5355 1.245859,-2.78134 2.781362,-2.78134 1.535494,0 2.781353,1.24584 2.781353,2.78134" style="display:inline;fill:silver;fill-opacity:1;fill-rule:nonzero;stroke:#b22222;stroke-width:.25811839;stroke-miterlimit:4;stroke-dasharray:none;stroke-opacity:1"/><path style="display:inline;fill:#b22222;fill-opacity:1;fill-rule:nonzero;stroke:none;stroke-width:.07854818;stroke-miterlimit:4;stroke-dasharray:none;stroke-opacity:1" id="path890" d="m 93.406726,124.64377 c 0,1.04075 -0.844422,1.88519 -1.885153,1.88519 -1.040737,0 -1.885159,-0.84444 -1.885159,-1.88519 0,-1.04072 0.844422,-1.88513 1.885159,-1.88513 1.040731,0 1.885153,0.84441 1.885153,1.88513"/><path id="path892" d="m 93.076673,124.64377 c 0,0.85854 -0.69658,1.55514 -1.5551,1.55514 -0.858523,0 -1.555104,-0.6966 -1.555104,-1.55514 0,-0.85851 0.696581,-1.55507 1.555104,-1.55507 0.85852,0 1.5551,0.69656 1.5551,1.55507" style="display:inline;fill:#000;fill-opacity:1;fill-rule:nonzero;stroke:silver;stroke-width:.0647959;stroke-miterlimit:4;stroke-dasharray:none;stroke-opacity:1"/></g></g></svg>