<svg xmlns="http://www.w3.org/2000/svg" xmlns:svg="http://www.w3.org/2000/svg" id="svg15246" width="22" height="22" version="1.1" viewBox="0 0 5.821 5.821"><metadata id="metadata15243"/><g id="layer1" transform="translate(-88.611154,-121.73339)"><g id="g878" style="display:inline"><path style="display:inline;fill:gray;fill-opacity:1;fill-rule:nonzero;stroke:red;stroke-width:.25811824;stroke-miterlimit:4;stroke-dasharray:none;stroke-opacity:1" id="path872" d="m 94.302929,124.64377 c 0,1.5355 -1.245859,2.78139 -2.781354,2.78139 -1.535503,0 -2.781362,-1.24589 -2.781362,-2.78139 0,-1.53549 1.245859,-2.78133 2.781362,-2.78133 1.535495,0 2.781354,1.24584 2.781354,2.78133"/><path id="path874" d="m 93.406726,124.64377 c 0,1.04075 -0.844422,1.88519 -1.885153,1.88519 -1.040737,0 -1.885159,-0.84444 -1.885159,-1.88519 0,-1.04072 0.844422,-1.88513 1.885159,-1.88513 1.040731,0 1.885153,0.84441 1.885153,1.88513" style="display:inline;fill:red;fill-opacity:1;fill-rule:nonzero;stroke:none;stroke-width:.07854818;stroke-miterlimit:4;stroke-dasharray:none;stroke-opacity:1"/><path style="display:inline;fill:#000;fill-opacity:1;fill-rule:nonzero;stroke:silver;stroke-width:.06479547;stroke-miterlimit:4;stroke-dasharray:none;stroke-opacity:1" id="path876" d="m 93.076672,124.6438 c 0,0.85897 -0.69658,1.55511 -1.5551,1.55511 -0.858523,0 -1.555104,-0.69602 -1.555104,-1.55511 0,-0.85896 0.696581,-1.5551 1.555104,-1.5551 0.85852,0 1.5551,0.69728 1.5551,1.5551"/></g></g></svg>