<svg xmlns="http://www.w3.org/2000/svg" xmlns:svg="http://www.w3.org/2000/svg" id="svg6414" width="22" height="22" version="1.1" viewBox="0 0 5.821 5.821"><defs id="defs6408"><clipPath id="clip82"><path id="path22604" d="m 979.55859,272.09375 h 26.63281 v 27.13281 h -26.63281 z m 0,0"/></clipPath><clipPath id="clip83"><path id="path22607" d="m 992,272.09375 h 2 V 287 h -2 z m 0,0"/></clipPath></defs><metadata id="metadata6411"/><g id="layer1" transform="translate(-36.542344,-108.80432)"><g id="g829" style="display:none"><rect style="display:inline;opacity:1;fill:#b22222;fill-opacity:0;stroke:none;stroke-width:.13229166;stroke-linecap:butt;stroke-linejoin:miter;stroke-miterlimit:4;stroke-dasharray:none;stroke-opacity:1;paint-order:normal" id="rect831" width="5.821" height="5.821" x="36.542" y="108.804" rx="3.44" ry="3.44"/><rect id="rect4520" width=".265" height="2.91" x="39.32" y="108.804" rx=".132" ry=".121" style="display:inline;fill:#b22222;fill-opacity:1;stroke:#dcdcdc;stroke-width:.02645833;stroke-linecap:butt;stroke-linejoin:miter;stroke-miterlimit:4;stroke-dasharray:none;stroke-opacity:1;paint-order:normal"/></g><g id="g832" style="display:none"><path id="rect821" d="M 10.425781,0.02929688 C 4.6027662,0.32817689 0,5.1000756 0,11 0,17.094 4.9060002,22 11,22 17.094,22 22,17.094 22,11 22,5.1000756 17.397234,0.32817689 11.574219,0.02929688 14.349534,0.31452956 16.5,2.6468619 16.5,5.5 16.5,8.5469999 14.047,11 11,11 7.9530001,11 5.5,8.5469999 5.5,5.5 5.5,2.6468619 7.6504657,0.31452956 10.425781,0.02929688 Z" transform="matrix(0.26458333,0,0,0.26458333,36.542344,108.80432)" style="opacity:1;fill:#b22222;fill-opacity:1;stroke:none;stroke-width:.99999994;stroke-linecap:butt;stroke-linejoin:miter;stroke-miterlimit:4;stroke-dasharray:none;stroke-opacity:1;paint-order:normal"/><rect id="rect828" width="1.455" height="1.455" x="38.725" y="108.804" rx="5.938" ry="1.455" style="opacity:1;fill:#dcdcdc;fill-opacity:1;stroke:none;stroke-width:.52292395;stroke-linecap:butt;stroke-linejoin:miter;stroke-miterlimit:4;stroke-dasharray:none;stroke-opacity:1;paint-order:normal"/></g><g id="g854" style="display:none"><path id="rect834" d="M 9.625,0.09375 C 4.1863915,0.7679821 0,5.3730739 0,11 0,17.094 4.9060003,22 11,22 17.094,22 22,17.094 22,11 22,5.3730739 17.813609,0.7679821 12.375,0.09375 V 6.4746094 C 14.326697,7.0647162 15.75,8.8507122 15.75,11 c 0,2.6315 -2.1185,4.75 -4.75,4.75 -2.6315,0 -4.75,-2.1185 -4.75,-4.75 0,-2.1492878 1.4233028,-3.9352838 3.375,-4.5253906 z" transform="matrix(0.26458333,0,0,0.26458333,36.542344,108.80432)" style="opacity:1;fill:#b22222;fill-opacity:1;stroke:none;stroke-width:8.25;stroke-linecap:butt;stroke-linejoin:miter;stroke-miterlimit:4;stroke-dasharray:none;stroke-opacity:1;paint-order:normal"/><rect id="rect850" width="5.292" height="5.292" x="36.807" y="109.069" rx="2.646" ry="2.646" style="opacity:1;fill:none;fill-opacity:1;stroke:#000;stroke-width:.52916515;stroke-linecap:butt;stroke-linejoin:miter;stroke-miterlimit:4;stroke-dasharray:none;stroke-opacity:1;paint-order:normal"/></g><path style="opacity:1;fill:none;fill-opacity:1;stroke:#b22222;stroke-width:1.99999988;stroke-linecap:butt;stroke-linejoin:miter;stroke-miterlimit:4;stroke-dasharray:none;stroke-opacity:1;paint-order:normal" id="rect856" d="M 9.5,1.1230469 C 4.6787089,1.8444593 1,5.971528 1,11 1,16.54 5.4600002,21 11,21 16.54,21 21,16.54 21,11 21,5.971528 17.321291,1.8444593 12.5,1.1230469 v 5.390625 C 14.386853,7.1418044 15.75,8.8968011 15.75,11 15.75,13.6315 13.6315,15.75 11,15.75 8.3685,15.75 6.25,13.6315 6.25,11 6.25,8.8968011 7.6131468,7.1418044 9.5,6.5136719 Z" transform="matrix(0.26458333,0,0,0.26458333,36.542344,108.80432)"/></g></svg>