<svg xmlns="http://www.w3.org/2000/svg" xmlns:svg="http://www.w3.org/2000/svg" id="svg7595" width="16" height="16" version="1.1" viewBox="0 0 4.233 4.233"><defs id="defs7589"><clipPath id="clip444"><path id="path24586" d="m 1201.582,338.19922 h 18 v 18 h -18 z m 0,0"/></clipPath></defs><metadata id="metadata7592"/><g id="layer1" transform="translate(-46.755712,-68.362203)"><text id="text825" x="48.04" y="71.47" xml:space="preserve" style="font-style:normal;font-variant:normal;font-weight:400;font-stretch:normal;font-size:2.82222199px;line-height:1.25;font-family:'DejaVu Sans Mono';-inkscape-font-specification:'DejaVu Sans Mono, Normal';font-variant-ligatures:normal;font-variant-caps:normal;font-variant-numeric:normal;font-feature-settings:normal;text-align:start;letter-spacing:0;word-spacing:0;writing-mode:lr-tb;text-anchor:start;clip-rule:nonzero;fill:#b22222;fill-opacity:1;stroke:none;stroke-width:.26458332"><tspan id="tspan869" x="48.04" y="71.47">3</tspan></text><ellipse style="opacity:1;fill:none;fill-opacity:1;stroke:#b22222;stroke-width:.18754056;stroke-linecap:butt;stroke-linejoin:miter;stroke-miterlimit:4;stroke-dasharray:none;stroke-opacity:1;paint-order:normal" id="path845" cx="48.872" cy="70.479" rx="1.626" ry="1.626"/><g style="font-style:normal;font-variant:normal;font-weight:400;font-stretch:normal;font-size:2.82222199px;line-height:1.25;font-family:'DejaVu Sans Mono';-inkscape-font-specification:'DejaVu Sans Mono, Normal';font-variant-ligatures:normal;font-variant-caps:normal;font-variant-numeric:normal;font-feature-settings:normal;text-align:start;letter-spacing:0;word-spacing:0;writing-mode:lr-tb;text-anchor:start;clip-rule:nonzero;fill:#b22222;fill-opacity:1;stroke:none;stroke-width:.26458332" id="text875" aria-label="3"><path id="path877" d="m 49.109416,70.368583 q 0.202571,0.05374 0.310058,0.191547 0.107487,0.136426 0.107487,0.341753 0,0.283876 -0.191547,0.446485 -0.190169,0.16123 -0.527789,0.16123 -0.141938,0 -0.289388,-0.02618 -0.14745,-0.02618 -0.289388,-0.07579 v -0.276985 q 0.14056,0.07304 0.276986,0.108865 0.136426,0.03583 0.271474,0.03583 0.228754,0 0.351399,-0.103353 0.122646,-0.103353 0.122646,-0.297656 0,-0.179145 -0.122646,-0.283876 -0.122645,-0.106109 -0.332107,-0.106109 h -0.212218 v -0.228755 h 0.212218 q 0.191547,0 0.299034,-0.08406 0.107487,-0.08406 0.107487,-0.234266 0,-0.158475 -0.100597,-0.242535 -0.09922,-0.08544 -0.283875,-0.08544 -0.122646,0 -0.253559,0.02756 -0.130914,0.02756 -0.27423,0.08268 v -0.256315 q 0.166743,-0.0441 0.296278,-0.06615 0.130914,-0.02205 0.231511,-0.02205 0.300412,0 0.479557,0.151584 0.180523,0.150206 0.180523,0.399631 0,0.169499 -0.09508,0.282498 -0.09371,0.112999 -0.274229,0.159853 z"/></g></g></svg>