<svg xmlns="http://www.w3.org/2000/svg" xmlns:xlink="http://www.w3.org/1999/xlink" width="16" height="16" version="1.1" xml:space="preserve" style="fill-rule:evenodd;clip-rule:evenodd;stroke-linecap:round;stroke-linejoin:round;stroke-miterlimit:1.5"><defs><linearGradient id="_Linear1" x1="0" x2="1" y1="0" y2="0" gradientTransform="matrix(12.0014,0,0,12.0006,1.00075,6.99981)" gradientUnits="userSpaceOnUse"><stop offset="0" style="stop-color:#4c4c4c;stop-opacity:1"/><stop offset="1" style="stop-color:#393939;stop-opacity:1"/></linearGradient></defs><g id="Screw" transform="matrix(1.12705,0,0,1.12705,-0.157392,-0.192641)"><g transform="matrix(1.29585,0,0,1.29585,-2.47454,-2.42318)"><circle cx="7.001" cy="7" r="5.016" style="fill-opacity:.654902"/></g><g transform="matrix(0.707107,-0.707107,0.707107,0.707107,-2.89905,7.0007)"><circle cx="7.001" cy="7" r="5.016"/></g><g transform="matrix(3.01252,-3.01252,2.85472,2.85472,-28.831,13.8883)"><ellipse cx="7.09" cy="5.069" rx="1.408" ry="1.486" style="fill:#3b3b3b;stroke:#2d2d2d;stroke-width:.21px"/></g><g id="Screw1"><path d="M2.758,2.757c-2.343,2.342 -2.343,6.143 0,8.486c2.342,2.343 6.143,2.343 8.485,-0.001c2.345,-2.343 2.346,-6.142 0,-8.484c-2.343,-2.344 -6.141,-2.345 -8.485,-0.001Zm5.451,4.243l1.773,1.773l-1.208,1.207l-1.773,-1.773l-1.773,1.774l-1.208,-1.208l1.773,-1.775l-1.775,-1.771l1.208,-1.208l1.775,1.774l1.774,-1.775l1.209,1.207l-1.775,1.775Z" transform="matrix(0.707107,-0.707107,0.707107,0.707107,-2.89905,7.0007)" style="fill:url(#_Linear1);fill-rule:nonzero;stroke:#131313;stroke-width:1px;stroke-linecap:butt;stroke-linejoin:miter;stroke-miterlimit:10"/></g></g></svg>